<?xml version='1.0' encoding='utf-8'?>
<svg fill="#000000" height="20px" width="20px" version="1.1" xmlns="http://www.w3.org/2000/svg" viewBox="0 0 512 512" xmlns:xlink="http://www.w3.org/1999/xlink" enable-background="new 0 0 512 512">
  <g>
    <path d="m404.8,146.5c-5.6-48.7-47.2-86.7-97.5-86.7-9.8,0-19.5,1.5-28.9,4.3-22.6-32.3-60.1-52.3-100.1-52.3-67.3,0.1-122.1,54.8-122.1,122 0,9.3 1.1,18.5 3.1,27.4-29.5,18.1-48.3,50.6-48.3,85.9 0,55.6 45.3,100.8 100.9,100.8h36.9v101.9c-10.9,6.3-34.3,15.5-65.5,3.9-10.6-3.9-22.3,1.5-26.3,12-3.9,10.6 1.5,22.3 12,26.3 15.8,5.9 30.4,8.1 43.5,8.1 42.1,0 68.7-23.2 70.2-24.5 4.3-3.9 6.8-9.4 6.8-15.2v-189l136.4-30.4v170.6c-10.1,7.6-32.3,21.1-60.7,19.6-11.2-0.5-20.8,8.1-21.4,19.4-0.5,11.3 8.1,20.8 19.4,21.4 58,2.8 95.9-34.8 97.5-36.5 3.8-3.8 6-9 6-14.4v-73.2h33.4c55.7,0 100.9-45.2 100.9-100.8 0-53.9-42.7-98.1-96.2-100.6zm-4.7,160.6h-33.4v-91.6c0-6.2-5.2-22.3-24.9-19.9l-177.1,39.5c-9.3,2.1-16,10.4-16,19.9v52.1h-36.9c-33.1,0-60.1-26.9-60.1-59.9 0-24.9 15.8-47.5 39.3-56.1 5.2-1.9 17.6-11.1 11.9-26.8-3.6-9.9-6-19.9-6-30.3 0-44.7 36.5-81.1 81.3-81.1 31.4,0 58.7,18 73.2,46 6.8,13.3 20.5,13.3 28.2,9 8.5-4.7 17.8-7.1 27.6-7.1 31.6,0 57.3,26.4 57.3,57.1 0,13-0.8,14.2 2.1,19.2 8.4,14.7 33.4,10.2 33.4,10.2 33.1,0 60.1,26.9 60.1,59.9 0.1,33-26.9,59.9-60,59.9z"/>
  </g>
</svg>