<svg width="25" height="21" viewBox="0 0 25 21" fill="none" xmlns="http://www.w3.org/2000/svg">
<path d="M7.78125 6.79132L7.62048 6.84894L7.6195 6.84991C7.6195 6.84991 7.6139 6.85234 7.61071 6.85382C7.60427 6.85683 7.59424 6.8609 7.58239 6.86652C7.55865 6.87776 7.52509 6.89402 7.48766 6.91241C7.41122 6.95 7.32196 6.99595 7.25817 7.03351C7.08833 7.13354 7.00094 7.19378 6.84997 7.31769C6.68093 7.45644 6.59612 7.54037 6.45153 7.70831C6.31278 7.8695 6.24514 7.96237 6.13512 8.14288C6.02777 8.31905 5.97771 8.41838 5.90075 8.6087C5.828 8.78861 5.79704 8.88949 5.75134 9.08136C5.70378 9.28104 5.68641 9.39144 5.6693 9.59601C5.6498 9.82948 5.64409 9.95089 5.66833 10.1693C5.68616 10.3297 5.70758 10.4143 5.75036 10.5892C5.76267 10.6394 5.77544 10.6761 5.79235 10.7278C5.80923 10.7795 5.82828 10.8401 5.84216 10.9193C5.85007 10.9642 5.86382 11.0238 5.86462 11.1077C5.86534 11.1899 5.85903 11.2485 5.83727 11.3323C5.80895 11.4412 5.77584 11.511 5.7152 11.5999C5.65691 11.6853 5.60688 11.7383 5.52282 11.8021C5.44984 11.8574 5.39632 11.8825 5.33532 11.9105C5.26917 11.9407 5.19389 11.9625 5.16735 11.972C5.01338 12.0272 4.88156 12.0644 4.77282 12.0989C4.66211 12.1341 4.55787 12.1709 4.43005 12.2327C4.10946 12.3878 3.94437 12.4947 3.67614 12.7259C3.42603 12.9415 3.30297 13.0741 3.11657 13.3421C2.89874 13.6553 2.80471 13.8458 2.68981 14.2093C2.62061 14.4282 2.59368 14.5502 2.56481 14.7786C2.53615 15.0054 2.53028 15.1281 2.54333 15.3528C2.5571 15.5899 2.58022 15.7183 2.64001 15.9534C2.70266 16.1998 2.74945 16.3303 2.85778 16.5599C2.9701 16.7979 3.04195 16.921 3.1986 17.1292C3.35112 17.332 3.44567 17.4325 3.6361 17.6009C3.87301 17.8103 4.02066 17.9062 4.30798 18.0589C4.57012 18.1982 4.71824 18.2611 4.99841 18.3411C5.21684 18.4035 5.33886 18.4271 5.56676 18.4525C5.63109 18.4596 5.71769 18.4654 5.79137 18.4691C5.82744 18.4709 5.85945 18.4721 5.88219 18.473H19.5521C19.5729 18.4721 19.6022 18.4707 19.6351 18.4691C19.7023 18.4657 19.784 18.4606 19.8451 18.4554C20.0353 18.4391 20.1292 18.4323 20.2992 18.3978C20.5048 18.356 20.6141 18.3216 20.8138 18.2444C21.0748 18.1437 21.2516 18.0649 21.3959 17.9544C21.482 17.8884 21.6168 17.7821 21.7308 17.6927C21.7875 17.6483 21.8392 17.6086 21.8763 17.5794C21.8948 17.5648 21.9099 17.5524 21.9203 17.5443C21.9224 17.5426 21.9244 17.5407 21.9261 17.5394L21.973 17.4925C22.0084 17.4565 22.0575 17.406 22.1117 17.348C22.2229 17.2288 22.3471 17.0869 22.4242 16.9759C22.5809 16.7502 22.6418 16.5848 22.7513 16.3069C22.8534 16.0481 22.9019 15.9142 22.9398 15.6605C22.9734 15.4356 22.9699 15.3104 22.9574 15.0628C22.9432 14.7813 22.9265 14.632 22.8578 14.3704C22.7941 14.1284 22.742 14.0005 22.6293 13.7689C22.5111 13.526 22.4376 13.4 22.2767 13.1907C22.0904 12.9484 21.9697 12.8301 21.7279 12.636C21.537 12.4829 21.4263 12.4095 21.2113 12.2943C21.1053 12.2374 20.9564 12.1735 20.8275 12.1234C20.7644 12.0988 20.7075 12.0793 20.6674 12.0648C20.6474 12.0575 20.6314 12.051 20.6205 12.0472L20.6156 12.0452C20.6136 12.0447 20.6095 12.0433 20.6058 12.0423C20.5979 12.0401 20.586 12.0364 20.5716 12.0325C20.5426 12.0246 20.5017 12.0141 20.4554 12.0023C20.3607 11.978 20.2482 11.9507 20.1634 11.9359C20.0344 11.9132 19.9628 11.9053 19.8275 11.8929C19.7052 11.8816 19.6401 11.8776 19.5209 11.8753H19.3715L19.3285 11.8763L19.2884 11.8616L19.2865 11.8607C19.2865 11.8607 19.2835 11.8594 19.2816 11.8587C19.2775 11.8573 19.2709 11.8554 19.264 11.8528C19.2505 11.8479 19.2321 11.8408 19.2113 11.8323C19.1721 11.8164 19.1097 11.7897 19.058 11.7571C18.9548 11.6922 18.8848 11.6338 18.806 11.5247C18.7406 11.434 18.7098 11.3656 18.6791 11.2669C18.6602 11.2062 18.6531 11.1559 18.6488 11.1116C18.6438 11.0602 18.645 11.0506 18.64 11.011C18.6332 10.9575 18.6294 10.9133 18.6263 10.8782C18.6233 10.8435 18.6208 10.8124 18.6146 10.7737C18.5931 10.6395 18.5726 10.5681 18.5297 10.428C18.4803 10.267 18.445 10.182 18.3724 10.0218C18.2956 9.85231 18.2559 9.76843 18.1634 9.62531C18.0723 9.48412 18.0123 9.41652 17.889 9.27277C17.7661 9.12944 17.7032 9.05684 17.5736 8.93878C17.4722 8.84643 17.4175 8.80019 17.3099 8.72394C17.2753 8.69942 17.2265 8.66765 17.184 8.64093C17.1635 8.6281 17.1453 8.61671 17.1322 8.6087C17.1259 8.60485 17.1201 8.60205 17.1166 8.59991L17.1127 8.59698L17.1117 8.59601L16.8812 8.45734C16.8812 8.45734 17.2636 8.08035 17.4453 7.7923C17.6346 7.49209 17.8125 6.96094 17.8125 6.96094L18.1957 7.1712L18.2045 7.17706L18.2152 7.1839L18.2172 7.18585C18.2172 7.18585 18.2222 7.18784 18.225 7.18976C18.2309 7.19392 18.2389 7.20094 18.2494 7.20831C18.2709 7.22349 18.3023 7.24441 18.3363 7.26886C18.4035 7.31712 18.4899 7.37971 18.557 7.43292C18.6312 7.49177 18.72 7.5697 18.7884 7.63019C18.823 7.66075 18.8538 7.68788 18.8754 7.70734C18.8859 7.71687 18.8938 7.72537 18.8998 7.73077C18.9027 7.73348 18.905 7.73614 18.9066 7.73761L18.9086 7.73859L18.9144 7.74347L18.9183 7.74738C18.9207 7.74965 18.9248 7.75299 18.9291 7.75714C18.9377 7.76553 18.9501 7.77737 18.9652 7.7923C18.996 7.82279 19.0382 7.86695 19.0863 7.91632C19.1808 8.01339 19.303 8.14074 19.392 8.25226C19.6419 8.56552 19.7584 8.77027 19.932 9.11945C20.0071 9.27054 20.0843 9.46569 20.142 9.61749C20.1711 9.69422 20.1967 9.7621 20.2142 9.81085C20.2228 9.83487 20.23 9.85489 20.2347 9.86847C20.237 9.87484 20.2384 9.88049 20.2396 9.88409L20.2416 9.88898V9.89093L20.2465 9.90265L20.2494 9.91339L20.3031 10.1419C20.3377 10.1479 20.377 10.1548 20.4183 10.1624C20.5732 10.1909 20.7716 10.2311 20.9281 10.2737C21.2338 10.3572 21.4133 10.4148 21.7093 10.5462C22.081 10.7113 22.2885 10.8312 22.6175 11.0677C22.9355 11.2962 23.1078 11.449 23.3754 11.7347C23.6284 12.0049 23.7641 12.1763 23.9632 12.4896C24.1333 12.7572 24.22 12.9222 24.3451 13.2132C24.4871 13.5436 24.5565 13.7457 24.6341 14.1019C24.6794 14.3093 24.6956 14.4316 24.7181 14.637C24.7382 14.8201 24.7477 14.9291 24.7504 15.1185C24.7537 15.3579 24.7445 15.4976 24.7181 15.7318C24.6957 15.9315 24.677 16.048 24.6332 16.2464C24.5713 16.5267 24.5216 16.6862 24.4213 16.9505C24.3423 17.1584 24.2898 17.2767 24.1888 17.4749C24.0658 17.7165 23.9865 17.857 23.8265 18.0833C23.6617 18.3165 23.552 18.4412 23.3588 18.6429C23.1232 18.8887 22.9739 19.0203 22.7015 19.2239C22.4306 19.4264 22.2628 19.5345 21.9584 19.6898C21.765 19.7884 21.6489 19.838 21.4476 19.9144C21.1986 20.0088 21.0504 20.0531 20.7953 20.1155C20.5846 20.167 20.4588 20.1942 20.2386 20.2239C20.1057 20.2418 19.9392 20.2526 19.8109 20.2591C19.7458 20.2624 19.6878 20.2645 19.6468 20.2659C19.6268 20.2666 19.6103 20.2666 19.599 20.2669C19.5938 20.2671 19.5893 20.2678 19.5863 20.2679H6.06091C6.04268 20.2681 6.01741 20.2686 5.98864 20.2689C5.93119 20.2693 5.85627 20.2697 5.79626 20.2679C5.49328 20.2587 5.31853 20.2354 5.02575 20.1829C4.65706 20.1169 4.4434 20.0621 4.08923 19.931C3.72453 19.796 3.51553 19.6982 3.18102 19.4925C2.83643 19.2806 2.64899 19.1336 2.3568 18.8577C2.05518 18.5729 1.8965 18.3874 1.65954 18.0482C1.58895 17.9471 1.50739 17.8161 1.44665 17.7142C1.41604 17.6628 1.39034 17.617 1.37145 17.5843C1.36203 17.568 1.35325 17.5544 1.34801 17.5452C1.34548 17.5408 1.34353 17.5369 1.34216 17.5345L1.3402 17.5316L1.33434 17.5198V17.5179L1.32458 17.4993C1.31806 17.4861 1.30773 17.4664 1.29626 17.4427C1.27329 17.3952 1.24125 17.3285 1.20641 17.2523C1.13777 17.102 1.05322 16.9048 0.999382 16.7405C0.913754 16.4791 0.877857 16.3234 0.830437 16.0569C0.784496 15.7988 0.764097 15.6442 0.754265 15.3763C0.742829 15.0639 0.760026 14.8829 0.793327 14.5862C0.822766 14.324 0.841604 14.1627 0.910515 13.8919C0.955037 13.717 1.03282 13.5079 1.09606 13.3489C1.12814 13.2683 1.15755 13.1972 1.17907 13.1468C1.18982 13.1216 1.19831 13.1003 1.20446 13.0862C1.20743 13.0795 1.2106 13.0744 1.21227 13.0706L1.21423 13.0657L1.2152 13.0648L1.22009 13.054L1.23083 13.0325C1.23776 13.019 1.24754 12.999 1.26012 12.9749C1.28537 12.9266 1.3219 12.8594 1.36364 12.7835C1.44597 12.6339 1.55657 12.4419 1.65954 12.2962C1.89641 11.9611 2.05961 11.7848 2.35387 11.5091C2.58646 11.2912 2.73128 11.1736 2.9945 10.9925C3.21223 10.8427 3.34495 10.7602 3.58532 10.639C3.68528 10.5886 3.81238 10.5328 3.91149 10.4915C3.90448 10.4407 3.89682 10.3859 3.89196 10.3392C3.87043 10.1319 3.86124 10.0069 3.86462 9.79034C3.86651 9.66872 3.87885 9.5189 3.89098 9.4046C3.89713 9.34674 3.90405 9.29556 3.90856 9.25909C3.91081 9.2409 3.91309 9.22537 3.91442 9.21515C3.915 9.21035 3.91507 9.20612 3.9154 9.20343L3.91637 9.2005C3.95082 8.93869 3.97078 8.7737 4.04528 8.50128C4.10926 8.26743 4.16018 8.13642 4.24938 7.92218C4.37738 7.61482 4.4619 7.43115 4.6488 7.14093C4.72233 7.02678 4.82395 6.89262 4.90368 6.79132C4.94406 6.74002 4.98015 6.6953 5.00622 6.66339C5.01901 6.64773 5.03011 6.63515 5.03747 6.62628C5.04105 6.62196 5.04427 6.61794 5.04626 6.61554L5.04821 6.61261L5.04919 6.61163L5.05212 6.60773L5.05602 6.60382C5.05822 6.60131 5.06182 6.5976 5.06579 6.59308C5.07407 6.58363 5.08616 6.56969 5.10094 6.55304C5.13072 6.5195 5.17194 6.47255 5.22009 6.42023C5.31546 6.31658 5.44187 6.18386 5.55114 6.08527C5.73435 5.91997 5.84761 5.83065 6.05016 5.69073C6.29314 5.52292 6.44276 5.43776 6.70446 5.3089C6.79902 5.26235 6.92035 5.21049 7.01403 5.1712C7.06129 5.15139 7.10325 5.13451 7.13317 5.12238C7.14781 5.11643 7.15998 5.11205 7.16833 5.1087C7.1722 5.10715 7.17586 5.10569 7.17809 5.1048L7.18102 5.10284L7.25817 5.07812C7.25817 5.07812 7.2846 5.6173 7.38672 5.95312C7.48795 6.28602 7.78125 6.79132 7.78125 6.79132Z" fill="#4A5056"/>
<path d="M9.61325 14.5399H15.8808V12.1896C15.8808 11.3278 15.5739 10.5901 14.9602 9.97636C14.3465 9.36267 13.6088 9.05582 12.747 9.05582C11.8852 9.05582 11.1475 9.36267 10.5338 9.97636C9.9201 10.5901 9.61325 11.3278 9.61325 12.1896V14.5399ZM12.747 7.48894C13.6088 7.48894 14.3465 7.18209 14.9602 6.5684C15.5739 5.95471 15.8808 5.21697 15.8808 4.35518V2.00487H9.61325V4.35518C9.61325 5.21697 9.9201 5.95471 10.5338 6.5684C11.1475 7.18209 11.8852 7.48894 12.747 7.48894ZM6.47949 16.1068V14.5399H8.04637V12.1896C8.04637 11.3931 8.23244 10.6455 8.60457 9.94698C8.9767 9.24841 9.49573 8.69021 10.1617 8.27238C9.49573 7.85455 8.9767 7.29635 8.60457 6.59778C8.23244 5.89921 8.04637 5.15168 8.04637 4.35518V2.00487H6.47949V0.437988H19.0145V2.00487H17.4476V4.35518C17.4476 5.15168 17.2616 5.89921 16.8894 6.59778C16.5173 7.29635 15.9983 7.85455 15.3324 8.27238C15.9983 8.69021 16.5173 9.24841 16.8894 9.94698C17.2616 10.6455 17.4476 11.3931 17.4476 12.1896V14.5399H19.0145V16.1068H6.47949Z" fill="#0081A8"/>
<path opacity="0.3" d="M10.6763 5.66077C10.3703 5.22411 10.2296 4.37054 10.2296 4.37054V2.74459H15.2791V4.37051C15.2791 4.37051 15.1473 5.22351 14.8449 5.66077C14.3255 6.4118 13.62 6.72046 12.7606 6.72046C11.9011 6.72046 11.2003 6.40857 10.6763 5.66077Z" fill="#0081A8"/>
<path opacity="0.3" d="M10.6763 10.9515C10.3703 11.3882 10.2296 12.2418 10.2296 12.2418V13.9499L15.2791 13.8976V12.2418C15.2791 12.2418 15.1473 11.3888 14.8449 10.9515C14.3255 10.2005 13.62 9.89185 12.7606 9.89185C11.9011 9.89185 11.2003 10.2037 10.6763 10.9515Z" fill="#0081A8"/>
</svg>
