<svg width="24" height="24" viewBox="0 0 24 24" fill="none" xmlns="http://www.w3.org/2000/svg">
<mask id="mask0_2886_36703" style="mask-type:alpha" maskUnits="userSpaceOnUse" x="1" y="1" width="22" height="22">
<rect x="1.5" y="1.5" width="21" height="21" fill="#D9D9D9"/>
</mask>
<g mask="url(#mask0_2886_36703)">
<path d="M8.5 19H15.5V16.375C15.5 15.4125 15.1573 14.5885 14.4719 13.9031C13.7865 13.2177 12.9625 12.875 12 12.875C11.0375 12.875 10.2135 13.2177 9.52812 13.9031C8.84271 14.5885 8.5 15.4125 8.5 16.375V19ZM12 11.125C12.9625 11.125 13.7865 10.7823 14.4719 10.0969C15.1573 9.41146 15.5 8.5875 15.5 7.625V5H8.5V7.625C8.5 8.5875 8.84271 9.41146 9.52812 10.0969C10.2135 10.7823 11.0375 11.125 12 11.125ZM5 20.75V19H6.75V16.375C6.75 15.4854 6.95781 14.6505 7.37344 13.8703C7.78906 13.0901 8.36875 12.4667 9.1125 12C8.36875 11.5333 7.78906 10.9099 7.37344 10.1297C6.95781 9.34948 6.75 8.51458 6.75 7.625V5H5V3.25H19V5H17.25V7.625C17.25 8.51458 17.0422 9.34948 16.6266 10.1297C16.2109 10.9099 15.6312 11.5333 14.8875 12C15.6312 12.4667 16.2109 13.0901 16.6266 13.8703C17.0422 14.6505 17.25 15.4854 17.25 16.375V19H19V20.75H5Z" fill="#0081A8"/>
<path opacity="0.3" d="M9.68733 9.08307C9.34557 8.59537 9.18848 7.64205 9.18848 7.64205L14.828 7.64201C14.828 7.64201 14.6809 8.5947 14.3431 9.08307C13.763 9.92187 12.9751 10.2666 12.0152 10.2666C11.0553 10.2666 10.2726 9.91826 9.68733 9.08307Z" fill="#0081A8"/>
<path opacity="0.3" d="M9.68733 16.7006C9.34557 17.1883 9.18848 18.1416 9.18848 18.1416L14.828 18.1417C14.828 18.1417 14.6809 17.189 14.3431 16.7006C13.763 15.8618 12.9751 15.5171 12.0152 15.5171C11.0553 15.5171 10.2726 15.8654 9.68733 16.7006Z" fill="#0081A8"/>
</g>
</svg>
