<?xml version="1.0" encoding="utf-8"?>
<svg width="20px" height="20px" viewBox="0 0 24 24" fill="none" xmlns="http://www.w3.org/2000/svg">
<path opacity="0.15" d="M7 6.89445V4H17V6.89445C17 7.2893 16.8831 7.67531 16.6641 8.00385L14.7396 10.8906C14.2917 11.5624 14.2917 12.4376 14.7396 13.1094L16.6641 15.9962C16.8831 16.3247 17 16.7107 17 17.1056V20H7V17.1056C7 16.7107 7.11688 16.3247 7.3359 15.9962L9.2604 13.1094C9.70827 12.4376 9.70827 11.5624 9.2604 10.8906L7.3359 8.00385C7.11688 7.67531 7 7.2893 7 6.89445Z" fill="#000000"/>
<path d="M17 4V6.89445C17 7.2893 16.8831 7.67531 16.6641 8.00385L14.7396 10.8906C14.2917 11.5624 14.2917 12.4376 14.7396 13.1094L16.6641 15.9962C16.8831 16.3247 17 16.7107 17 17.1056V20M17 4H19M17 4H7M17 20H19M17 20H7M7 4V6.89445C7 7.2893 7.11688 7.67531 7.3359 8.00385L9.2604 10.8906C9.70827 11.5624 9.70827 12.4376 9.2604 13.1094L7.3359 15.9962C7.11688 16.3247 7 16.7107 7 17.1056V20M7 4H5M7 20H5" stroke="#000000" stroke-width="1.5" stroke-linecap="round" stroke-linejoin="round"/>
</svg>