<svg width="58" height="57" viewBox="0 0 58 57" fill="none" xmlns="http://www.w3.org/2000/svg">
<path d="M9.98828 13L4.48828 16.5L4.98828 23L1.48828 28.5L4.98828 34.5L3.48828 40L9.98828 44L12.4883 50.5H17.9883L22.9883 55.5L28.9883 53.5L35.4883 55.5L39.9883 50.5H45.9883L48.4883 44L53.9883 40L53.4883 33.5L56.4883 28.5L52.9883 23L53.4883 16.5L47.9883 13.5L45.9883 7.5L38.9883 6.5L34.4883 2L28.4883 4L22.9883 2L17.9883 6.5L11.4883 7.5L9.98828 13Z" fill="white"/>
<path d="M12.8334 14.8812L9.93414 16.82C9.33589 17.2201 8.99873 17.9108 9.05127 18.6285L9.32878 22.4198C9.35908 22.8337 9.25987 23.2468 9.0449 23.6018L7.11262 26.7927C6.74102 27.4064 6.72656 28.1721 7.07475 28.7993L8.98729 32.2448C9.23641 32.6936 9.30344 33.221 9.1745 33.7179L8.51081 36.2752C8.29426 37.1096 8.63673 37.9889 9.36061 38.457L12.9042 40.7487C13.269 40.9846 13.547 41.3328 13.6963 41.7407L15.0313 45.3883C15.3198 46.1767 16.07 46.7009 16.9095 46.7009H19.1541C19.7017 46.7009 20.2254 46.9255 20.6029 47.3222L23.212 50.064C23.7541 50.6337 24.5798 50.8329 25.322 50.5729L28.3761 49.503C28.7885 49.3586 29.2368 49.3532 29.6526 49.4876L33.0622 50.5901C33.8299 50.8383 34.6717 50.6009 35.1966 49.988L37.413 47.4C37.793 46.9563 38.348 46.7009 38.9321 46.7009H41.5231C42.3625 46.7009 43.1127 46.1767 43.4012 45.3883L44.7659 41.6597C44.8967 41.3021 45.127 40.9893 45.4295 40.7581L48.6071 38.3295C49.1432 37.9198 49.4366 37.2674 49.3873 36.5945L49.1017 32.6922C49.0727 32.2958 49.1624 31.8998 49.3595 31.5546L50.9285 28.8065C51.2885 28.176 51.2785 27.3999 50.9024 26.7789L48.9785 23.6018C48.7636 23.2468 48.6644 22.8337 48.6947 22.4198L48.9653 18.7225C49.0215 17.9553 48.6326 17.2239 47.9652 16.8414L45.2333 15.2754C44.7985 15.0262 44.4731 14.6227 44.3215 14.145L43.2977 10.9171C43.067 10.1898 42.4427 9.65719 41.6882 9.54392L37.8723 8.97106C37.4324 8.90502 37.027 8.69419 36.7204 8.37193L34.4024 5.93598C33.8603 5.36627 33.0346 5.16715 32.2923 5.42714L29.2937 6.47754C28.8475 6.63386 28.3603 6.62702 27.9186 6.45823L25.2773 5.44887C24.5592 5.17449 23.7475 5.33588 23.189 5.86406L20.459 8.44611C20.1676 8.72176 19.8 8.9034 19.4039 8.96742L15.9823 9.52062C15.1991 9.64723 14.5649 10.2247 14.3656 10.9926L13.6575 13.721C13.5343 14.1957 13.2411 14.6086 12.8334 14.8812Z" fill="#469285"/>
<path d="M55.5337 32.368C56.4926 31.2627 57.5117 30.0347 57.5117 28.5613C57.5117 27.0877 56.4328 25.7983 55.5337 24.7546C54.9343 24.0179 54.2751 23.281 54.1551 22.7283C54.0353 22.053 54.2749 21.132 54.5146 20.1496C54.8742 18.7989 55.2939 17.2639 54.6945 15.913C54.0353 14.5623 52.5968 13.9483 51.3381 13.3956C50.499 13.0273 49.5999 12.6589 49.1805 12.1676C48.761 11.6764 48.641 10.694 48.4613 9.71165C48.2215 8.29935 47.9219 6.703 46.783 5.782C45.6442 4.861 44.0859 4.92234 42.7072 4.98369C41.7483 5.04505 40.7893 5.10641 40.19 4.79941C39.6505 4.55377 39.0511 3.69411 38.5117 2.95741C37.6725 1.79076 36.7734 0.440063 35.3349 0.133063C33.9563 -0.173937 32.6378 0.562781 31.3791 1.23837C30.6001 1.72965 29.701 2.15937 29.0418 2.15937C28.3825 2.15937 27.4835 1.66808 26.6443 1.17702C25.3857 0.501667 24.0669 -0.235286 22.6885 0.0717141C21.25 0.378714 20.351 1.72941 19.5118 2.89606C18.9723 3.69437 18.4328 4.49241 17.8335 4.73806C17.2341 5.04506 16.2752 4.9837 15.3162 4.92234C13.9376 4.86099 12.3793 4.79963 11.2404 5.72065C10.1016 6.64165 9.86179 8.238 9.56211 9.6503C9.38222 10.5713 9.20253 11.615 8.84297 12.1063C8.48339 12.5976 7.58435 12.9659 6.6853 13.3343C5.42668 13.8869 3.92827 14.5009 3.3289 15.8516C2.72953 17.2023 3.14901 18.7373 3.50879 20.0883C3.74858 21.0093 4.04827 21.9916 3.86837 22.667C3.74858 23.281 3.08909 24.0177 2.48973 24.6933C1.53079 25.7986 0.511719 27.0266 0.511719 28.5C0.511719 29.9736 1.59068 31.263 2.48973 32.3067C3.08909 33.0434 3.74835 33.7803 3.86837 34.333C3.98816 35.0083 3.74858 35.9293 3.50879 36.9117C3.14921 38.2624 2.72951 39.7974 3.3289 41.1483C3.98815 42.499 5.42668 43.113 6.6853 43.6657C7.52446 44.034 8.42351 44.4024 8.84297 44.8937C9.26245 45.385 9.38245 46.3673 9.56211 47.3497C9.8019 48.762 10.1016 50.3583 11.2404 51.2793C12.3793 52.2003 13.9376 52.139 15.3162 52.0776C16.2752 52.0163 17.2341 51.9549 17.8335 52.2619C18.3729 52.5076 18.9723 53.3672 19.5118 54.1039C20.351 55.2706 21.25 56.6213 22.6885 56.9283C22.9283 56.9896 23.1681 56.9896 23.4077 56.9896C24.5465 56.9896 25.6252 56.3756 26.7042 55.823C27.5433 55.3317 28.4424 54.8406 29.1017 54.8406C29.7609 54.8406 30.66 55.3319 31.4991 55.823C32.7577 56.4983 34.0765 57.2353 35.4549 56.9283C36.8934 56.6213 37.7925 55.2706 38.6316 54.1039C39.1711 53.3056 39.7106 52.5076 40.3099 52.2619C40.9093 51.9549 41.8683 52.0163 42.8272 52.0777C44.2058 52.139 45.7641 52.2004 46.903 51.2794C48.0418 50.3584 48.2816 48.762 48.5813 47.3497C48.7612 46.3674 48.9409 45.385 49.3004 44.8937C49.66 44.4024 50.5591 44.034 51.4581 43.6657C52.7167 43.1131 54.2151 42.4991 54.8145 41.1484C55.4139 39.7977 54.9944 38.2627 54.6346 36.9117C54.3948 35.9907 54.0951 35.0084 54.275 34.333C54.275 33.8417 54.9343 33.105 55.5337 32.3681L55.5337 32.368ZM53.9754 30.9559C53.1961 31.8769 52.3572 32.7979 52.1174 33.9646C51.8776 35.1312 52.1773 36.3592 52.5369 37.5872C52.8366 38.6309 53.1363 39.7362 52.8366 40.2889C52.5369 40.9029 51.5181 41.3326 50.5589 41.7625C49.4799 42.2538 48.2812 42.7449 47.5621 43.6659C46.8429 44.5869 46.6031 45.8762 46.4232 47.0429C46.2433 48.1482 46.0636 49.2532 45.5242 49.6832C45.0446 50.1129 43.906 50.0516 42.827 49.9902C41.6283 49.9288 40.3697 49.8675 39.2907 50.4199C38.2719 50.9112 37.5525 51.9549 36.8334 52.9373C36.1741 53.8583 35.5747 54.7793 34.9155 54.902C34.3161 55.0247 33.3572 54.5336 32.3982 53.981C31.3193 53.367 30.2406 52.753 29.0418 52.753C27.8431 52.753 26.7642 53.367 25.6854 53.981C24.7864 54.4722 23.8275 55.0247 23.1682 54.902C22.509 54.7177 21.8497 53.7967 21.2503 52.9373C20.5312 51.9549 19.8118 50.911 18.793 50.4199C18.0738 50.0516 17.2946 49.9902 16.4554 49.9902C16.0359 49.9902 15.6761 49.9902 15.2567 50.0516C14.1777 50.1129 13.099 50.1743 12.5595 49.7446C12.02 49.3148 11.8404 48.2096 11.6605 47.1043C11.4207 45.8763 11.241 44.6483 10.5216 43.7273C9.80249 42.8063 8.66364 42.315 7.52479 41.8239C6.50597 41.3942 5.4869 40.9643 5.2471 40.3503C4.94742 39.7363 5.2471 38.6926 5.54679 37.6486C5.84647 36.4206 6.20604 35.1926 5.96626 34.026C5.72649 32.8593 4.8873 31.9383 4.10828 31.0173C3.38894 30.1577 2.66975 29.298 2.66975 28.5613C2.66975 27.8246 3.38889 26.965 4.10828 26.1667C4.88755 25.2457 5.72647 24.3247 5.96626 23.158C6.20605 21.9913 5.90636 20.7633 5.54679 19.5353C5.2471 18.4917 4.94742 17.3863 5.2471 16.8337C5.54679 16.2197 6.56561 15.79 7.52479 15.36C8.60375 14.8688 9.80249 14.3777 10.5216 13.4567C11.2408 12.5357 11.4806 11.2464 11.6605 10.0797C11.8404 8.9744 12.0201 7.86935 12.5595 7.4394C13.0391 7.00968 14.1777 7.07104 15.2567 7.1324C16.4554 7.19376 17.714 7.25511 18.793 6.70268C19.8118 6.2114 20.5312 5.16768 21.2503 4.18533C21.9096 3.26433 22.509 2.34333 23.1682 2.22063C23.7676 2.09791 24.7265 2.58899 25.6854 3.14163C26.7644 3.75563 27.8431 4.36963 29.0418 4.36963C30.2406 4.36963 31.3195 3.75563 32.3982 3.14163C33.2973 2.65035 34.2562 2.09793 34.9155 2.22063C35.5747 2.34335 36.234 3.32593 36.8334 4.18533C37.5525 5.16768 38.2719 6.21163 39.2907 6.70268C40.3697 7.19396 41.5684 7.1324 42.827 7.1324C43.906 7.07104 44.9847 7.00968 45.5242 7.4394C46.0636 7.86911 46.2433 8.9744 46.4232 10.0797C46.663 11.3077 46.8427 12.5357 47.5621 13.4567C48.2812 14.3777 49.42 14.869 50.5589 15.36C51.5777 15.7898 52.5968 16.2197 52.8366 16.8337C53.1363 17.4477 52.8366 18.4914 52.5369 19.5353C52.2372 20.7633 51.8776 21.9913 52.1174 23.158C52.3572 24.3247 53.1964 25.2457 53.9754 26.1667C54.6946 27.0263 55.4139 27.886 55.4139 28.5613C55.4139 29.298 54.6948 30.1576 53.9754 30.9559Z" fill="#469285"/>
<path d="M16.5117 18H20.8637C21.3331 18 21.7171 18.1067 22.0157 18.32C22.3144 18.5333 22.5277 18.816 22.6557 19.168L27.1677 31.648C27.3704 32.192 27.5731 32.784 27.7757 33.424C27.9891 34.064 28.1864 34.736 28.3677 35.44C28.5171 34.736 28.6877 34.064 28.8797 33.424C29.0824 32.784 29.2797 32.192 29.4717 31.648L33.9517 19.168C34.0584 18.8693 34.2664 18.6027 34.5757 18.368C34.8851 18.1227 35.2637 18 35.7117 18H40.0957L30.7517 41.312H25.8557L16.5117 18Z" fill="white"/>
</svg>
