<svg width="24" height="24" viewBox="0 0 24 24" fill="none" xmlns="http://www.w3.org/2000/svg">
<path d="M12.9152 7.31516C12.9152 9.2466 11.3495 10.8123 9.41807 10.8123C7.48663 10.8123 5.9209 9.2466 5.9209 7.31516C5.9209 5.38373 7.48663 3.81799 9.41807 3.81799C11.3495 3.81799 12.9152 5.38373 12.9152 7.31516Z" fill="black"/>
<path fill-rule="evenodd" clip-rule="evenodd" d="M9.41807 9.81233C10.7972 9.81233 11.9152 8.69431 11.9152 7.31516C11.9152 5.93601 10.7972 4.81799 9.41807 4.81799C8.03892 4.81799 6.9209 5.93601 6.9209 7.31516C6.9209 8.69431 8.03892 9.81233 9.41807 9.81233ZM9.41807 10.8123C11.3495 10.8123 12.9152 9.2466 12.9152 7.31516C12.9152 5.38373 11.3495 3.81799 9.41807 3.81799C7.48663 3.81799 5.9209 5.38373 5.9209 7.31516C5.9209 9.2466 7.48663 10.8123 9.41807 10.8123Z" fill="black"/>
<path d="M21.4992 11.2362C21.4992 13.1677 19.9335 14.7334 18.0021 14.7334C16.0706 14.7334 14.5049 13.1677 14.5049 11.2362C14.5049 9.30481 16.0706 7.73907 18.0021 7.73907C19.9335 7.73907 21.4992 9.30481 21.4992 11.2362Z" fill="black"/>
<path fill-rule="evenodd" clip-rule="evenodd" d="M18.0021 13.7334C19.3812 13.7334 20.4992 12.6154 20.4992 11.2362C20.4992 9.8571 19.3812 8.73907 18.0021 8.73907C16.6229 8.73907 15.5049 9.8571 15.5049 11.2362C15.5049 12.6154 16.6229 13.7334 18.0021 13.7334ZM18.0021 14.7334C19.9335 14.7334 21.4992 13.1677 21.4992 11.2362C21.4992 9.30481 19.9335 7.73907 18.0021 7.73907C16.0706 7.73907 14.5049 9.30481 14.5049 11.2362C14.5049 13.1677 16.0706 14.7334 18.0021 14.7334Z" fill="black"/>
<path d="M12.2796 16.2171C12.2796 18.3241 10.5715 20.0322 8.46451 20.0322C6.35749 20.0322 4.64941 18.3241 4.64941 16.2171C4.64941 14.1101 6.35749 12.402 8.46451 12.402C10.5715 12.402 12.2796 14.1101 12.2796 16.2171Z" fill="black"/>
<path fill-rule="evenodd" clip-rule="evenodd" d="M8.46451 19.0322C10.0192 19.0322 11.2796 17.7718 11.2796 16.2171C11.2796 14.6623 10.0192 13.402 8.46451 13.402C6.90977 13.402 5.64941 14.6623 5.64941 16.2171C5.64941 17.7718 6.90977 19.0322 8.46451 19.0322ZM8.46451 20.0322C10.5715 20.0322 12.2796 18.3241 12.2796 16.2171C12.2796 14.1101 10.5715 12.402 8.46451 12.402C6.35749 12.402 4.64941 14.1101 4.64941 16.2171C4.64941 18.3241 6.35749 20.0322 8.46451 20.0322Z" fill="black"/>
<path fill-rule="evenodd" clip-rule="evenodd" d="M8.34082 12.5379L8.65874 10.4714L9.64712 10.6234L9.32919 12.6899L8.34082 12.5379Z" fill="black"/>
<path fill-rule="evenodd" clip-rule="evenodd" d="M14.6362 10.4282L11.8809 9.31543L12.2553 8.38818L15.0107 9.50092L14.6362 10.4282Z" fill="black"/>
</svg>
