<svg width="24" height="24" viewBox="0 0 24 24" fill="none" xmlns="http://www.w3.org/2000/svg">
<path d="M9.23245 4.33189V9.30124H4.57761C4.36917 9.30124 4.2002 9.47022 4.2002 9.67866V14.5222C4.2002 14.7307 4.36917 14.8996 4.57761 14.8996H9.23245V19.7432C9.23245 19.9516 9.40143 20.1206 9.60987 20.1206H14.3905C14.599 20.1206 14.7679 19.9516 14.7679 19.7432V14.8996H19.4228C19.6312 14.8996 19.8002 14.7307 19.8002 14.5222V9.67866C19.8002 9.47022 19.6312 9.30124 19.4228 9.30124H14.7679V4.33189C14.7679 4.12344 14.599 3.95447 14.3905 3.95447H9.60987C9.40143 3.95447 9.23245 4.12344 9.23245 4.33189Z" fill="black" fill-opacity="0.5"/>
<path fill-rule="evenodd" clip-rule="evenodd" d="M9.73245 4.45447V9.80124H4.7002V14.3996H9.73245V19.6206H14.2679V14.3996H19.3002V9.80124H14.2679V4.45447H9.73245ZM8.73245 4.33189C8.73245 3.8473 9.12529 3.45447 9.60987 3.45447H14.3905C14.8751 3.45447 15.2679 3.8473 15.2679 4.33189V8.80124H19.4228C19.9074 8.80124 20.3002 9.19407 20.3002 9.67866V14.5222C20.3002 15.0068 19.9074 15.3996 19.4228 15.3996H15.2679V19.7432C15.2679 20.2278 14.8751 20.6206 14.3905 20.6206H9.60987C9.12529 20.6206 8.73245 20.2278 8.73245 19.7432V15.3996H4.57761C4.09303 15.3996 3.7002 15.0068 3.7002 14.5222V9.67866C3.7002 9.19408 4.09303 8.80124 4.57761 8.80124H8.73245V4.33189Z" fill="black"/>
</svg>
