<svg width="24" height="24" viewBox="0 0 24 24" fill="none" xmlns="http://www.w3.org/2000/svg">
  <path d="M6 15.5L4.5 18H20L18.5 15.5H17.5H6Z" fill="black"/>
  <path fill-rule="evenodd" clip-rule="evenodd" d="M5.40892 6.06945C5.40892 5.6189 5.77416 5.25366 6.22471 5.25366H18.2761C18.7266 5.25366 19.0919 5.6189 19.0919 6.06945V15.2568L20.4292 17.4316C20.7634 17.9752 20.3723 18.6747 19.7343 18.6747H4.84729C4.21863 18.6747 3.82621 17.9936 4.14154 17.4497L5.40892 15.2638V6.06945ZM6.40892 6.25366V15.3133C6.40892 15.457 6.37096 15.5982 6.29888 15.7225L5.16702 17.6747H19.4047L18.2127 15.7362C18.1337 15.6077 18.0919 15.4598 18.0919 15.3089V6.25366H6.40892Z" fill="black"/>
  <path fill-rule="evenodd" clip-rule="evenodd" d="M18.5095 15.8326H5.87793V14.8326H18.5095V15.8326Z" fill="black"/>
  <path fill-rule="evenodd" clip-rule="evenodd" d="M13.6139 8.64832H8.92969V7.64832H13.6139V8.64832Z" fill="black"/>
  <path fill-rule="evenodd" clip-rule="evenodd" d="M9.92969 11.0694H8.92969V10.0694H9.92969V11.0694Z" fill="black"/>
  <path fill-rule="evenodd" clip-rule="evenodd" d="M15.6661 11.0694H11.1924V10.0694H15.6661V11.0694Z" fill="black"/>
  <path fill-rule="evenodd" clip-rule="evenodd" d="M14.456 13.4377H8.92969V12.4377H14.456V13.4377Z" fill="black"/>
  <path fill-rule="evenodd" clip-rule="evenodd" d="M10.8249 17.0957C10.4761 17.0957 10.1934 17.3785 10.1934 17.7273C10.1934 17.7338 10.1935 17.7403 10.1937 17.7468C10.2319 17.7342 10.2727 17.7273 10.3152 17.7273H13.8831C13.9573 17.7273 14.0267 17.7483 14.0855 17.7847C14.0872 17.7658 14.0881 17.7466 14.0881 17.7273C14.0881 17.3785 13.8053 17.0957 13.4565 17.0957H10.8249Z" fill="white"/>
</svg>
