<svg width="17" height="14" viewBox="0 0 17 14" fill="none" xmlns="http://www.w3.org/2000/svg">
<g id="Group 3296">
<path id="Vector 281" opacity="0.5" d="M2 10.5L0.5 13H16L14.5 10.5H13.5H2Z" fill="#314C83" fill-opacity="0.75"/>
<path id="Vector 242" d="M0.573752 12.7005L1.86599 10.4717C1.89389 10.4236 1.90858 10.3689 1.90858 10.3133V1.06945C1.90858 0.895046 2.04997 0.753662 2.22437 0.753662H14.2757C14.4501 0.753662 14.5915 0.895045 14.5915 1.06945V10.3089C14.5915 10.3673 14.6077 10.4246 14.6383 10.4743L16.0029 12.6935C16.1323 12.9039 15.9809 13.1747 15.7339 13.1747H0.846946C0.603595 13.1747 0.451692 12.9111 0.573752 12.7005Z" stroke="#314C83"/>
<path id="Vector 243" d="M1.87793 10.3326H14.5095" stroke="#314C83"/>
<g id="Group 3295">
<path id="Vector 244" d="M4.92871 3.14832H9.61292" stroke="#314C83"/>
<path id="Vector 245" d="M4.92871 5.5694H5.92871" stroke="#314C83"/>
<path id="Vector 246" d="M7.19141 5.5694H11.6651" stroke="#314C83"/>
<path id="Vector 247" d="M4.92871 7.93774H10.455" stroke="#314C83"/>
</g>
<rect id="Rectangle 40326" x="6.19336" y="12.0957" width="3.89474" height="1.26316" rx="0.631579" fill="#314C83"/>
</g>
</svg>
