<svg width="24" height="24" viewBox="0 0 24 24" fill="none" xmlns="http://www.w3.org/2000/svg">
<path d="M7.12304 13.0559C7.12304 13.0144 7.12304 12.9775 7.12304 12.9447C7.12304 12.772 7.13209 12.5995 7.15017 12.4278L7.18454 12.1013C7.22564 11.7108 7.32045 11.3279 7.46627 10.9633V10.9633C7.64762 10.5099 7.90544 10.0911 8.2285 9.72492L8.24678 9.7042C8.52499 9.3889 8.84671 9.11484 9.20224 8.8903L9.22891 8.87345C9.63324 8.61808 10.0746 8.42666 10.5373 8.30594L10.7667 8.24609C11.0939 8.16075 11.429 8.10923 11.7667 8.09234L12.4933 8.05601V10.4534C12.4933 10.5661 12.632 10.6199 12.708 10.5366L16.2391 6.66374C16.2843 6.61416 16.2817 6.53755 16.2331 6.49123L12.5168 2.94647C12.4382 2.87152 12.3082 2.92722 12.3082 3.0358V5.33999H11.4116C11.0638 5.33999 10.717 5.37674 10.3769 5.44961L9.77305 5.579C9.36601 5.66622 8.97164 5.80456 8.59931 5.99073L8.17106 6.20485C7.84376 6.3685 7.53566 6.56803 7.25244 6.79976L6.83731 7.13941C6.49438 7.41998 6.19078 7.74544 5.93467 8.107L5.63146 8.53505C5.39224 8.87278 5.19643 9.23923 5.04862 9.6258L4.79442 10.2906C4.57913 10.8537 4.46875 11.4514 4.46875 12.0543V12.532C4.46875 13.0428 4.54801 13.5505 4.70369 14.037L4.96257 14.846L5.27121 15.525" stroke="black" stroke-linecap="round"/>
<path d="M16.877 11.0189C16.877 11.0604 16.877 11.0973 16.877 11.1301C16.877 11.3028 16.8679 11.4753 16.8498 11.647L16.8155 11.9735C16.7744 12.364 16.6795 12.747 16.5337 13.1115V13.1115C16.3524 13.5649 16.0946 13.9838 15.7715 14.3499L15.7532 14.3706C15.475 14.6859 15.1533 14.96 14.7978 15.1845L14.7711 15.2014C14.3668 15.4567 13.9254 15.6482 13.4627 15.7689L13.212 15.8343C12.8989 15.916 12.5785 15.9667 12.2555 15.9857L11.6918 16.0188V13.5863C11.6918 13.4785 11.5633 13.4225 11.4843 13.496L7.34762 17.3454C7.29404 17.3952 7.29535 17.4805 7.35042 17.5286L11.4871 21.1482C11.5669 21.2181 11.6918 21.1614 11.6918 21.0553V18.7348H12.5884C12.9362 18.7348 13.283 18.6981 13.6231 18.6252L14.227 18.4958C14.634 18.4086 15.0284 18.2703 15.4007 18.0841L15.8289 17.87C16.1562 17.7063 16.4643 17.5068 16.7476 17.2751L17.1627 16.9354C17.5056 16.6548 17.8092 16.3294 18.0653 15.9678L18.3685 15.5398C18.6078 15.2021 18.8036 14.8356 18.9514 14.449L19.2056 13.7842C19.4209 13.2211 19.5312 12.6234 19.5312 12.0206V11.5428C19.5312 11.032 19.452 10.5243 19.2963 10.0378L19.0374 9.22879L18.7288 8.54979" stroke="black" stroke-linecap="round"/>
<path opacity="0.5" d="M4.5 12.9999H7V11.9999L7.5 10.9999L8 9.99994L9 8.99994L10 8.49994L11.5 7.99994H12.5V10.4999L16 6.49994L12.5 2.99994V5.49994H11.5H9.5L8.5 5.99994L6.5 7.49994L5 9.49994L4.5 11.4999V12.9999Z" fill="black" fill-opacity="0.75"/>
<path opacity="0.5" d="M19.5 10.9999H17V11.9999L16.5 12.9999L16 13.9999L15 14.9999L14 15.4999L12.5 15.9999H11.5V13.4999L8 17.4999L11.5 20.9999V18.4999H12.5H14.5L15.5 17.9999L17.5 16.4999L19 14.4999L19.5 12.4999V10.9999Z" fill="black" fill-opacity="0.75"/>
</svg>
