<svg width="117" height="128" viewBox="0 0 117 128" fill="none" xmlns="http://www.w3.org/2000/svg">
<path opacity="0.5" d="M24.3538 127.054H22.0358V109.404C22.0358 108.567 21.3563 107.886 20.5205 107.886H17.4486C7.82822 107.886 0 100.057 0 90.4344V24.4064V83.4787C0 93.1022 7.82822 100.93 17.4486 100.93H20.5205C21.3563 100.93 22.0358 101.612 22.0358 102.448V120.099H24.3538C35.946 120.099 46.2535 113.159 50.6073 102.412C50.9715 101.512 51.8407 100.93 52.8201 100.93H99.448C109.069 100.93 116.897 93.1022 116.897 83.4787V90.4344C116.897 100.057 109.069 107.886 99.448 107.886H52.8201C51.8407 107.886 50.9715 108.468 50.6073 109.367C46.2535 120.113 35.946 127.054 24.3538 127.054Z" fill="#5A488F"/>
<path d="M116.897 17.4512V83.4788C116.897 93.1023 109.069 100.93 99.448 100.93H52.8201C51.8407 100.93 50.9715 101.512 50.6073 102.413C46.2535 113.159 35.946 120.1 24.3538 120.1H22.0358V102.448C22.0358 101.612 21.3563 100.93 20.5205 100.93H17.4486C7.82822 100.93 0 93.1023 0 83.4788V17.4512C0 7.8281 7.82822 0 17.4486 0H99.448C109.069 0 116.897 7.8281 116.897 17.4512Z" fill="white"/>
<path d="M21.5283 78.0474V22.7479L40.0204 36.5727L58.5125 50.3975L40.0204 64.2221L21.5283 78.0474Z" fill="#EE986D"/>
<path d="M21.5283 78.0474V22.7479L40.0204 36.5727L58.5125 50.3975L40.0204 64.2221L21.5283 78.0474Z" fill="black" fill-opacity="0.1"/>
<path d="M95.4965 22.7484V78.0474L77.0037 64.2221L63.1759 53.885L61.5657 52.6801L58.5122 50.3971L60.6617 48.7906L77.0037 36.572L82.44 32.5089L95.4965 22.7484Z" fill="#EE986D"/>
<path d="M95.4965 22.7484V78.0474L77.0037 64.2221L63.1759 53.885L61.5657 52.6801L58.5122 50.3971L60.6617 48.7906L77.0037 36.572L82.44 32.5089L95.4965 22.7484Z" fill="black" fill-opacity="0.1"/>
<path d="M95.4968 78.0474H21.5283L40.0204 62.516L58.5126 46.9845L77.0041 62.516L95.4968 78.0474Z" fill="#EE986D"/>
<path d="M60.663 48.7904L58.5123 46.9845L56.3624 48.7902L40.0202 36.5726L21.5288 22.7484H95.4966L82.4401 32.5089L77.0038 36.572L60.6618 48.7906" fill="#E5E5E5"/>
<path d="M95.4967 22.7484L83.2742 33.5306L77.004 39.0625L63.385 51.0772L61.5659 52.6801L58.5124 55.3749L55.4586 52.6801L53.6399 51.0772L40.0206 39.0625L21.5288 22.7484H95.4967Z" fill="#EE986D"/>
<path d="M58.5063 61.2119L21.5293 22.7446L58.5142 55.376L95.522 22.7432L58.5063 61.2119Z" fill="black" fill-opacity="0.1"/>
<path d="M105.379 12.8646C99.9209 7.40615 91.0713 7.40615 85.6128 12.8646C80.1544 18.323 80.1544 27.173 85.6128 32.6314C91.0713 38.0898 99.9209 38.0898 105.379 32.6314C110.838 27.173 110.838 18.323 105.379 12.8646Z" fill="#D46E7B"/>
<path d="M91.9863 28.8028V27.1127L94.3446 26.9641V18.8289L91.9863 19.1261V17.3803L95.4967 16.6931H96.7225V26.9641L99.0071 27.1127V28.8028H91.9863Z" fill="white"/>
</svg>
