<svg width="18" height="18" viewBox="0 0 18 18" fill="none" xmlns="http://www.w3.org/2000/svg">
<path d="M8.75 17.5C7.53958 17.5 6.40208 17.2703 5.3375 16.8109C4.27292 16.3516 3.34687 15.7281 2.55938 14.9406C1.77187 14.1531 1.14844 13.2271 0.689063 12.1625C0.229687 11.0979 0 9.96042 0 8.75C0 7.53958 0.229687 6.40208 0.689063 5.3375C1.14844 4.27292 1.77187 3.34687 2.55938 2.55938C3.34687 1.77187 4.27292 1.14844 5.3375 0.689063C6.40208 0.229687 7.53958 0 8.75 0C9.96042 0 11.0979 0.229687 12.1625 0.689063C13.2271 1.14844 14.1531 1.77187 14.9406 2.55938C15.7281 3.34687 16.3516 4.27292 16.8109 5.3375C17.2703 6.40208 17.5 7.53958 17.5 8.75V10.0188C17.5 10.8792 17.2047 11.612 16.6141 12.2172C16.0234 12.8224 15.2979 13.125 14.4375 13.125C13.9271 13.125 13.4458 13.0156 12.9938 12.7969C12.5417 12.5781 12.1625 12.2646 11.8562 11.8562C11.4333 12.2792 10.9557 12.5964 10.4234 12.8078C9.89115 13.0193 9.33333 13.125 8.75 13.125C7.53958 13.125 6.50781 12.6984 5.65469 11.8453C4.80156 10.9922 4.375 9.96042 4.375 8.75C4.375 7.53958 4.80156 6.50781 5.65469 5.65469C6.50781 4.80156 7.53958 4.375 8.75 4.375C9.96042 4.375 10.9922 4.80156 11.8453 5.65469C12.6984 6.50781 13.125 7.53958 13.125 8.75V10.0188C13.125 10.3979 13.249 10.7188 13.4969 10.9812C13.7448 11.2438 14.0583 11.375 14.4375 11.375C14.8167 11.375 15.1302 11.2438 15.3781 10.9812C15.626 10.7188 15.75 10.3979 15.75 10.0188V8.75C15.75 6.79583 15.0719 5.14063 13.7156 3.78438C12.3594 2.42813 10.7042 1.75 8.75 1.75C6.79583 1.75 5.14063 2.42813 3.78438 3.78438C2.42813 5.14063 1.75 6.79583 1.75 8.75C1.75 10.7042 2.42813 12.3594 3.78438 13.7156C5.14063 15.0719 6.79583 15.75 8.75 15.75H13.125V17.5H8.75ZM10.6094 10.6094C11.1198 10.099 11.375 9.47917 11.375 8.75C11.375 8.02083 11.1198 7.40104 10.6094 6.89062C10.099 6.38021 9.47917 6.125 8.75 6.125C8.02083 6.125 7.40104 6.38021 6.89062 6.89062C6.38021 7.40104 6.125 8.02083 6.125 8.75C6.125 9.47917 6.38021 10.099 6.89062 10.6094C7.40104 11.1198 8.02083 11.375 8.75 11.375C9.47917 11.375 10.099 11.1198 10.6094 10.6094Z" fill="currentColor"/>
</svg>
