<svg width="18" height="18" viewBox="0 0 18 18" fill="none" xmlns="http://www.w3.org/2000/svg">
    <path opacity="0.3" fill-rule="evenodd" clip-rule="evenodd" d="M4.5 3H9.75V6.75H13.5V7.12735L13.2019 7.01807L12.75 6.85181L12.2981 7.01807L8.0625 8.5708V12.0037C8.0625 13.0803 8.33173 14.0856 8.85709 15H4.5V3ZM10.4411 15H13.5V8.52507L12.75 8.25L9.375 9.48779V12.0037C9.375 13.0486 9.69311 13.9991 10.3293 14.855C10.366 14.9043 10.4033 14.9527 10.4411 15Z" fill="#878E95"/>
    <path fill-rule="evenodd" clip-rule="evenodd" d="M10.5 1.5L15 6V7.67723L13.5 7.12735V6.75H9.75V3H4.5V15H8.85709C8.98228 15.2179 9.12202 15.4306 9.27612 15.6379C9.51261 15.956 9.77105 16.2439 10.0508 16.5H4.4925C3.6675 16.5 3 15.825 3 15L3.0075 3C3.0075 2.175 3.675 1.5 4.5 1.5H10.5ZM12.75 16.5C13.6413 16.2806 14.3905 15.8051 14.9982 15.074C14.9994 15.0494 15 15.0248 15 15V9.0752L13.5 8.52507V15H10.4411C11.0593 15.7732 11.829 16.2733 12.75 16.5Z" fill="#878E95"/>
    <path d="M12.75 16.5C11.7727 16.2594 10.9658 15.7111 10.3295 14.8552C9.69316 13.9992 9.375 13.0487 9.375 12.0038V9.4875L12.75 8.25L16.125 9.4875V12.0038C16.125 13.0487 15.8068 13.9992 15.1705 14.8552C14.5342 15.7111 13.7273 16.2594 12.75 16.5Z" fill="#395979"/>
</svg>