<svg viewBox="0 0 18 18" fill="none" xmlns="http://www.w3.org/2000/svg">
<mask id="mask0_3198_29988" style="mask-type:alpha" maskUnits="userSpaceOnUse" x="0" y="0" width="18" height="18">
<rect width="18" height="18" fill="#D9D9D9"/>
</mask>
<g mask="url(#mask0_3198_29988)">
<path d="M14.0197 13.875H6.2313C5.85243 13.875 5.53174 13.7438 5.26924 13.4813C5.00674 13.2188 4.87549 12.8981 4.87549 12.5192V2.48081C4.87549 2.10194 5.00674 1.78125 5.26924 1.51875C5.53174 1.25625 5.85243 1.125 6.2313 1.125H11.438L15.3755 5.0625V12.5192C15.3755 12.8981 15.2442 13.2188 14.9817 13.4813C14.7192 13.7438 14.3986 13.875 14.0197 13.875ZM10.8755 5.625V2.25H6.2313C6.17355 2.25 6.12068 2.27406 6.07268 2.32219C6.02455 2.37019 6.00049 2.42306 6.00049 2.48081V12.5192C6.00049 12.5769 6.02455 12.6298 6.07268 12.6778C6.12068 12.7259 6.17355 12.75 6.2313 12.75H14.0197C14.0774 12.75 14.1303 12.7259 14.1783 12.6778C14.2264 12.6298 14.2505 12.5769 14.2505 12.5192V5.625H10.8755ZM3.2313 16.875C2.85243 16.875 2.53174 16.7438 2.26924 16.4813C2.00674 16.2188 1.87549 15.8981 1.87549 15.5192V5.625H3.00049V15.5192C3.00049 15.5769 3.02455 15.6298 3.07268 15.6778C3.12068 15.7259 3.17355 15.75 3.2313 15.75H10.8755V16.875H3.2313Z" fill="#4D535A"/>
</g>
</svg>
