<svg width="24" height="24" viewBox="0 0 24 24" fill="none" xmlns="http://www.w3.org/2000/svg">
<rect opacity="0.5" x="7.03125" y="18.625" width="10.6719" height="1.0625" fill="black" fill-opacity="0.6"/>
<path d="M16.4555 10.9331L16.8493 11.3762L17.3817 12.1022C17.3878 12.1104 17.3925 12.1196 17.3957 12.1293L17.683 12.9912C17.6852 12.9976 17.6866 13.0042 17.6874 13.0108L17.7847 13.8377V14.7629C17.7847 14.7697 17.784 14.7765 17.7826 14.7831L17.5894 15.7009C17.5883 15.706 17.5869 15.7109 17.585 15.7157L17.1996 16.7276C17.1958 16.7374 17.1906 16.7465 17.184 16.7546L16.5539 17.53L15.9836 18.1004C15.9215 18.1624 15.9655 18.2685 16.0532 18.2685H17.7847C17.8391 18.2685 17.8832 18.3126 17.8832 18.367V19.9423C17.8832 19.9967 17.8391 20.0408 17.7847 20.0408H6.95393C6.89955 20.0408 6.85547 19.9967 6.85547 19.9423V18.367C6.85547 18.3126 6.89955 18.2685 6.95393 18.2685H15.5693" stroke="black" stroke-linecap="square"/>
<circle cx="14.584" cy="10.1454" r="1.76462" fill="black" fill-opacity="0.6" stroke="black"/>
<path d="M13.1562 16.6931H13.4314C13.4448 16.6931 13.458 16.6904 13.4702 16.6852L14.1307 16.4021C14.1375 16.3992 14.1439 16.3956 14.1498 16.3913L14.6735 16.0104C14.6794 16.0061 14.6848 16.0011 14.6897 15.9956L15.0212 15.6167C15.0251 15.6123 15.0285 15.6075 15.0316 15.6025L15.3183 15.1245C15.321 15.12 15.3234 15.1153 15.3253 15.1104L15.5151 14.6359C15.5179 14.629 15.5199 14.6217 15.521 14.6143L15.6153 14.0018C15.6169 13.991 15.6168 13.98 15.6148 13.9692L15.5193 13.4439L15.3224 12.8039L15.027 12.1147" stroke="black" stroke-linecap="square"/>
<path d="M12.5085 18.17V18.67H13.5085V18.17H12.5085ZM6.11621 15.3069C5.84007 15.3069 5.61621 15.5308 5.61621 15.8069C5.61621 16.0831 5.84007 16.3069 6.11621 16.3069V15.3069ZM13.5085 18.17V15.9054H12.5085V18.17H13.5085ZM12.9101 15.3069H6.11621V16.3069H12.9101V15.3069ZM13.5085 15.9054C13.5085 15.5749 13.2406 15.3069 12.9101 15.3069V16.3069C12.6883 16.3069 12.5085 16.1272 12.5085 15.9054H13.5085Z" fill="black"/>
<path d="M10.2021 18.1208V16.0038" stroke="black" stroke-linecap="square"/>
<path d="M15.0768 4.72998L14.0633 5.74343C14.0249 5.78189 13.9625 5.78189 13.9241 5.74343L13.718 5.5374C13.6798 5.49921 13.618 5.49891 13.5795 5.53673L8.55081 10.4696C8.51173 10.5079 8.51143 10.5708 8.55014 10.6095L9.00362 11.063C9.04103 11.1004 9.04219 11.1607 9.00624 11.1995L7.90422 12.3897C7.86827 12.4285 7.86943 12.4888 7.90684 12.5262L9.24714 13.8665C9.2856 13.905 9.34794 13.905 9.38639 13.8665L10.5764 12.6765C10.6148 12.6381 10.6772 12.6381 10.7156 12.6765L11.1179 13.0788C11.1564 13.1173 11.2187 13.1173 11.2572 13.0788L13.0583 11.2777" stroke="black" stroke-linecap="square"/>
<path d="M10.6456 12.5577L9.31641 11.3269" stroke="black" stroke-linecap="square"/>
<path d="M15.0762 4.04077L17.2423 6.20693" stroke="black" stroke-linecap="round"/>
<path d="M15.6674 8.32388L15.9916 7.99966C16.0301 7.9612 16.0301 7.89886 15.9916 7.86041L13.9443 5.81311" stroke="black" stroke-linecap="square"/>
<path d="M15.6182 7.29002L16.7505 6.15771" stroke="black" stroke-linecap="square"/>
<rect opacity="0.5" x="10.5" y="16.0038" width="2.21875" height="2.08997" fill="black" fill-opacity="0.6"/>
<path opacity="0.5" d="M13.9375 5.92188L15.2812 4.57812L17.0469 5.92188L15.4844 7.28125L16 7.875L15.4844 8.46875L15 8.34375L14.0625 8.46875L13.0781 8.89062L12.8438 10.1875L13.0781 11.1406L11.1172 13.1016L10.5781 12.5625L9.25781 13.8828L7.82812 12.4531L9.14062 11.1406L8.57812 10.5781L13.5859 5.57031L13.9375 5.92188Z" fill="black" fill-opacity="0.6"/>
<path opacity="0.5" d="M14.2031 16.4062L13.0938 16.8906V18.3125H15.9688L16.6562 17.4844L17.2344 16.7812L17.625 15.4844L17.8281 14.3906L17.75 13.2031L17.3281 12.0312L16.4062 10.8906L14.9531 12.0312L15.4062 12.8594L15.5781 14.0938L15.1875 15.3438L14.2031 16.4062Z" fill="black" fill-opacity="0.6"/>
</svg>
