<svg width="24" height="24" viewBox="0 0 24 24" fill="none" xmlns="http://www.w3.org/2000/svg">
<rect x="6.90625" y="8.8125" width="10.0625" height="5.78125" fill="black"/>
<path fill-rule="evenodd" clip-rule="evenodd" d="M8.23828 19.1039C8.23828 18.8277 8.46214 18.6039 8.73828 18.6039L15.2049 18.6039C15.4811 18.6039 15.7049 18.8277 15.7049 19.1039C15.7049 19.38 15.4811 19.6039 15.2049 19.6039L8.73828 19.6039C8.46214 19.6039 8.23828 19.38 8.23828 19.1039Z" fill="black"/>
<path fill-rule="evenodd" clip-rule="evenodd" d="M11.0449 16.5593L11.0449 19.271L10.0449 19.271L10.0449 16.5593L11.0449 16.5593Z" fill="black"/>
<path fill-rule="evenodd" clip-rule="evenodd" d="M13.8037 16.5593L13.8037 19.271L12.8037 19.271L12.8037 16.5593L13.8037 16.5593Z" fill="black"/>
<path fill-rule="evenodd" clip-rule="evenodd" d="M5.64941 7.646V15.7264H18.1994V7.646H5.64941ZM5.5053 6.646C5.03261 6.646 4.64941 7.02919 4.64941 7.50188V15.8705C4.64941 16.3432 5.03261 16.7264 5.5053 16.7264H18.3435C18.8162 16.7264 19.1994 16.3432 19.1994 15.8705V7.50188C19.1994 7.02919 18.8162 6.646 18.3435 6.646H5.5053Z" fill="black"/>
<path fill-rule="evenodd" clip-rule="evenodd" d="M13.8974 8.50064C14.1732 8.51377 14.3862 8.74802 14.3731 9.02385L14.3523 9.46007C14.3307 9.9143 14.1927 10.3554 13.9517 10.741C13.8071 10.9724 13.6277 11.1801 13.4198 11.3568L12.7118 11.9586L11.9218 12.551L11.4769 12.8291C11.2926 12.9443 11.1244 13.0833 10.9765 13.2425L10.852 13.3766C10.7417 13.4954 10.6527 13.6323 10.5888 13.7813C10.5135 13.9571 10.4746 14.1464 10.4746 14.3377V14.4207C10.4746 14.6968 10.2508 14.9207 9.97461 14.9207C9.69847 14.9207 9.47461 14.6968 9.47461 14.4207V14.3377C9.47461 14.011 9.54097 13.6877 9.66966 13.3874C9.77874 13.1329 9.93081 12.8991 10.1192 12.6962L10.2437 12.5621C10.4515 12.3383 10.688 12.143 10.9469 11.9811L11.3558 11.7256L12.0874 11.1769L12.7721 10.5949C12.9017 10.4847 13.0136 10.3552 13.1037 10.211C13.254 9.9706 13.3399 9.69566 13.3534 9.41251L13.3742 8.97629C13.3873 8.70046 13.6216 8.4875 13.8974 8.50064Z" fill="white"/>
<path fill-rule="evenodd" clip-rule="evenodd" d="M9.95122 8.50064C9.67539 8.51377 9.46243 8.74802 9.47557 9.02385L9.49634 9.46007C9.51797 9.9143 9.6559 10.3554 9.89692 10.741C10.0415 10.9724 10.221 11.1801 10.4289 11.3568L11.1368 11.9586L11.9268 12.551L12.3717 12.8291C12.556 12.9443 12.7242 13.0833 12.8721 13.2425L12.9966 13.3766C13.1069 13.4954 13.196 13.6323 13.2598 13.7813C13.3352 13.9571 13.374 14.1464 13.374 14.3377V14.4207C13.374 14.6968 13.5979 14.9207 13.874 14.9207C14.1502 14.9207 14.374 14.6968 14.374 14.4207V14.3377C14.374 14.011 14.3077 13.6877 14.179 13.3874C14.0699 13.1329 13.9178 12.8991 13.7294 12.6962L13.6049 12.5621C13.3971 12.3383 13.1607 12.143 12.9017 11.9811L12.4928 11.7256L11.7612 11.1769L11.0765 10.5949C10.9469 10.4847 10.8351 10.3552 10.7449 10.211C10.5947 9.9706 10.5087 9.69566 10.4952 9.41251L10.4744 8.97629C10.4613 8.70046 10.2271 8.4875 9.95122 8.50064Z" fill="white"/>
<path d="M10.125 13.2254H13.724V13.9452H10.125V13.2254Z" fill="white"/>
<path d="M10.125 13.2254H13.724V13.9452H10.125V13.2254Z" fill="white"/>
<path d="M9.86816 9.57074H13.9809V10.3933H9.86816V9.57074Z" fill="white"/>
<path d="M9.86816 9.57074H13.9809V10.3933H9.86816V9.57074Z" fill="white"/>
</svg>
