<svg width="60" height="60" viewBox="0 0 60 60" fill="none" xmlns="http://www.w3.org/2000/svg">
<rect width="60" height="60" fill="white"/>
<path d="M55.9205 24.0004C56.6404 24.0004 57.2403 23.4004 57.2403 22.6805L57.2405 15.9005C57.2405 15.4204 56.9405 14.9405 56.5206 14.7604L30.6006 1.62041C30.2407 1.44033 29.8205 1.44033 29.4006 1.62041L3.48064 14.7604C3.06072 15.0005 2.76074 15.4204 2.76074 15.9005V22.6805C2.76074 23.4004 3.36074 24.0004 4.08064 24.0004H8.46074V47.5204H4.08064C3.36074 47.5204 2.76074 48.1204 2.76074 48.8403V57.2403C2.76074 57.9602 3.36074 58.5602 4.08064 58.5602H55.9206C56.6405 58.5602 57.2405 57.9602 57.2405 57.2403V48.8403C57.2405 48.1204 56.6405 47.5204 55.9206 47.5204H51.5405V24.0004H55.9205ZM5.40045 16.7404L30.0004 4.26036L54.6004 16.6804V21.3003L5.40045 21.3005V16.7404ZM35.3404 47.4604V24.0004H40.8004V47.5204H35.3404V47.4604ZM24.6604 24.0004V47.5204H19.2004V24.0004H24.6604ZM27.2405 24.0004H32.7005V47.5204H27.2405V24.0004ZM11.1005 24.0004H16.5605V47.5204H11.1005V24.0004ZM54.6005 55.8604H5.40055V50.1004H54.6005V55.8604ZM48.9006 47.4604H43.4405V24.0004H48.9006V47.4604Z" fill="#DFE2E6"/>
<path d="M30 8.40039C27.3 8.40039 25.0801 10.6203 25.0801 13.3203C25.0801 16.0203 27.3 18.2402 30 18.2402C32.7 18.2402 34.9199 16.0203 34.9199 13.3203C34.9199 10.6203 32.7 8.40039 30 8.40039ZM30 15.6604C28.74 15.6604 27.6599 14.6405 27.6599 13.3203C27.6599 12.0004 28.6798 10.9803 30 10.9803C31.2599 10.9803 32.34 12.0002 32.34 13.3203C32.34 14.6404 31.2599 15.6604 30 15.6604Z" fill="#DFE2E6"/>
</svg>
