<svg width="24" height="24" viewBox="0 0 24 24" fill="none" xmlns="http://www.w3.org/2000/svg">
<path fill-rule="evenodd" clip-rule="evenodd" d="M11.4279 5.66107H12.4734L13.5496 5.73795L14.7529 5.87875L16.0453 6.13724L17.2954 6.5279L18.4013 7.02229L18.9801 7.34234C19.3547 7.54949 19.6963 7.81136 19.9937 8.11932L20.0701 8.19841C20.2462 8.38083 20.401 8.58271 20.5314 8.80014C20.807 9.25945 20.9681 9.77827 21.0012 10.3129L21.0345 10.8515L20.9718 13.5492C20.9619 13.9752 20.8627 14.3943 20.6808 14.7796C20.5279 15.1034 20.3192 15.3977 20.0642 15.649L19.8385 15.8714C19.6069 16.0997 19.3528 16.3039 19.0802 16.4812L18.9289 16.5795C18.5846 16.8033 18.2201 16.9946 17.8402 17.1508L17.5239 17.2809C17.0329 17.4829 16.527 17.6465 16.0106 17.7702L14.9002 18.0364L12.872 18.2803H10.9758L9.16073 18.0358L8.08673 17.7835C7.52298 17.651 6.97101 17.4727 6.43634 17.2503L5.99295 17.0658C5.63009 16.9148 5.28335 16.7277 4.95797 16.5073L4.71046 16.3396C4.35882 16.1014 4.04743 15.8087 3.78801 15.4724L3.77926 15.461C3.5346 15.1439 3.34024 14.7909 3.20299 14.4146C3.04674 13.9862 2.9668 13.5337 2.9668 13.0777V10.4225C2.9668 10.1283 3.0088 9.83572 3.09153 9.55346C3.1765 9.26359 3.30351 8.98776 3.46851 8.73476L3.49813 8.68934C3.74727 8.30732 4.06954 7.97838 4.44636 7.72145L4.78829 7.48832L5.0225 7.34058C5.43443 7.08075 5.8673 6.85568 6.31659 6.6677C6.72966 6.49489 7.15536 6.35396 7.58995 6.24616L8.60616 5.99407L10.3442 5.73848L11.4279 5.66107ZM11.4635 6.66107L10.4527 6.73327L8.79975 6.97636L7.83071 7.21674C7.44567 7.31225 7.06852 7.43711 6.70255 7.59022C6.30448 7.75676 5.92097 7.95617 5.556 8.18638L5.33688 8.3246L5.0097 8.54767C4.74187 8.73029 4.51282 8.96409 4.33574 9.23561L4.30612 9.28102C4.19452 9.45214 4.10862 9.63869 4.05116 9.83473C3.9952 10.0256 3.9668 10.2235 3.9668 10.4225V13.0777C3.9668 13.4168 4.02625 13.7534 4.14246 14.072C4.24453 14.3519 4.38908 14.6143 4.57104 14.8502L4.57979 14.8616C4.77427 15.1137 5.0077 15.3331 5.27131 15.5117L5.51882 15.6794C5.78864 15.8622 6.07618 16.0173 6.37709 16.1425L6.82048 16.327C7.30478 16.5285 7.80476 16.69 8.3154 16.81L9.34227 17.0512L11.0429 17.2803H12.8121L14.7234 17.0505L15.7775 16.7978C16.2436 16.6861 16.7003 16.5384 17.1436 16.3561L17.4598 16.226C17.7823 16.0934 18.0916 15.931 18.384 15.741L18.5352 15.6427C18.7514 15.5022 18.9529 15.3402 19.1366 15.1591L19.3623 14.9367C19.5336 14.7679 19.6738 14.5702 19.7765 14.3526C19.8988 14.0938 19.9654 13.8121 19.972 13.5259L20.0338 10.8708L20.0031 10.3746C19.9799 10 19.867 9.63647 19.6739 9.31464C19.5825 9.16228 19.4741 9.02083 19.3507 8.89301L19.2743 8.81391C19.046 8.57751 18.7838 8.37648 18.4962 8.21747L17.9545 7.91793L16.941 7.46483L15.7974 7.10747L14.5964 6.86727L13.4559 6.7338L12.4377 6.66107H11.4635Z" fill="black"/>
<path fill-rule="evenodd" clip-rule="evenodd" d="M20.8981 11.3093L20.4369 11.9925C20.288 12.213 20.1202 12.4202 19.9355 12.6118C19.6766 12.8804 19.386 13.1164 19.0701 13.3149L18.6531 13.5768L18.0522 13.8548C17.5233 14.0995 16.9777 14.3062 16.4195 14.4734L15.7847 14.6636L14.4545 14.9206L12.9609 15.1137H11.2223L9.98221 14.9975L8.51703 14.7404L7.63095 14.4935C7.16834 14.3646 6.71611 14.201 6.2781 14.0041L6.01986 13.888C5.67538 13.7331 5.34535 13.548 5.03365 13.3347C4.66161 13.0801 4.31761 12.7868 4.00742 12.4597L3.72822 12.1653L3.29688 11.564L4.10941 10.9811L4.50089 11.5268L4.73305 11.7717C4.99459 12.0475 5.28464 12.2947 5.59833 12.5094C5.86115 12.6892 6.13942 12.8453 6.42987 12.9759L6.68812 13.092C7.0803 13.2683 7.48521 13.4148 7.89941 13.5302L8.73819 13.764L10.1155 14.0056L11.2691 14.1137H12.8965L14.2953 13.9329L15.5458 13.6912L16.1325 13.5155C16.6453 13.3619 17.1465 13.172 17.6323 12.9472L18.1753 12.696L18.5382 12.4681C18.7855 12.3127 19.0129 12.1279 19.2156 11.9177C19.3602 11.7678 19.4915 11.6056 19.6081 11.4329L20.0694 10.7497L20.8981 11.3093Z" fill="black"/>
<path fill-rule="evenodd" clip-rule="evenodd" d="M20.8981 11.7961L20.4301 11.1029C20.2854 10.8885 20.1219 10.6873 19.9417 10.5018C19.7221 10.2756 19.4787 10.0737 19.2157 9.89974L19.051 9.79075C18.7897 9.61787 18.5158 9.46501 18.2314 9.33347L17.9366 9.19708C17.4847 8.98801 17.0184 8.81136 16.5414 8.66847L15.7847 8.44178L14.4545 8.18473L12.9609 7.9916H11.2223L9.98221 8.10786L8.51703 8.36491L7.63095 8.61185C7.16834 8.74077 6.71611 8.90438 6.2781 9.10129L6.01986 9.21738C5.67538 9.37223 5.34535 9.55739 5.03365 9.77066C4.66161 10.0252 4.31761 10.3185 4.00742 10.6456L3.72822 10.94L3.29688 11.5413L4.10941 12.1242L4.50089 11.5785L4.73305 11.3337C4.99459 11.0579 5.28464 10.8106 5.59833 10.596C5.86115 10.4161 6.13942 10.26 6.42987 10.1295L6.68812 10.0134C7.0803 9.83706 7.48521 9.69057 7.89941 9.57514L8.73819 9.34138L10.1155 9.09975L11.2691 8.9916H12.8965L14.2953 9.17248L15.5458 9.41411L16.2545 9.62641C16.686 9.75569 17.1079 9.91551 17.5167 10.1047L17.8116 10.2411C18.0501 10.3514 18.28 10.4797 18.4992 10.6247L18.6639 10.7337C18.8669 10.868 19.0548 11.0238 19.2243 11.1984C19.3634 11.3417 19.4896 11.497 19.6014 11.6625L20.0694 12.3557L20.8981 11.7961Z" fill="black"/>
<path fill-rule="evenodd" clip-rule="evenodd" d="M9.07596 11.0113C8.99835 11.0113 8.92118 11.0229 8.84698 11.0456L8.74942 11.0755C8.72956 11.0816 8.71087 11.091 8.69415 11.1033L8.60887 11.1662L8.64947 11.2159C8.68145 11.2551 8.72339 11.2849 8.77087 11.3023L8.88772 11.345C8.9686 11.3746 9.05405 11.3897 9.14017 11.3897H9.39494C9.47777 11.3897 9.55959 11.3715 9.6346 11.3363L9.78893 11.264C9.80366 11.2571 9.81564 11.2454 9.82295 11.2309L9.83164 11.2136C9.83403 11.2088 9.83459 11.2034 9.83321 11.1982C9.83191 11.1934 9.82897 11.1891 9.82489 11.1862L9.73437 11.1212C9.68983 11.0892 9.63809 11.0687 9.58373 11.0615L9.20626 11.0113H9.07596ZM8.554 10.0895C8.72314 10.0376 8.89906 10.0113 9.07596 10.0113H9.27245L9.71553 10.0702C9.93277 10.0991 10.1396 10.1811 10.3176 10.3089L10.4081 10.3739C10.5998 10.5115 10.738 10.7113 10.7991 10.9392C10.864 11.1813 10.8377 11.4389 10.7251 11.6628L10.7164 11.6801C10.6083 11.895 10.4311 12.0674 10.2133 12.1695L10.059 12.2418C9.85115 12.3392 9.62445 12.3897 9.39494 12.3897H9.14017C8.93691 12.3897 8.73523 12.354 8.54433 12.2842L8.42748 12.2415C8.21137 12.1624 8.02052 12.0267 7.87497 11.8485L7.82482 11.7871C7.71541 11.6531 7.64318 11.4927 7.61538 11.322C7.55597 10.9572 7.70567 10.5898 8.00312 10.3704L8.10055 10.2986C8.2082 10.2191 8.32854 10.1586 8.45644 10.1194L8.554 10.0895Z" fill="black"/>
<path fill-rule="evenodd" clip-rule="evenodd" d="M14.0994 11.8569C14.0229 11.8569 13.9468 11.8693 13.8742 11.8935L13.7932 11.9206C13.7669 11.9294 13.7424 11.9428 13.7208 11.9602L13.6446 12.0216C13.6272 12.0356 13.6185 12.0578 13.6218 12.0799C13.6233 12.0902 13.6274 12.1 13.6337 12.1083L13.6753 12.1639C13.7126 12.2138 13.7629 12.2523 13.8207 12.2754L13.9128 12.3121C13.9942 12.3446 14.081 12.3613 14.1686 12.3613H14.3976C14.4847 12.3613 14.5705 12.3406 14.648 12.301L14.7734 12.2368C14.8019 12.2223 14.8246 12.1986 14.838 12.1696L14.844 12.1565C14.8536 12.1357 14.8558 12.1122 14.8503 12.0899C14.8449 12.0678 14.8323 12.0482 14.8144 12.0342L14.7456 11.9803C14.697 11.9422 14.6391 11.9174 14.5779 11.9086L14.294 11.8674C14.2459 11.8604 14.1973 11.8569 14.1487 11.8569H14.0994ZM13.5571 10.9452C13.7319 10.8867 13.9151 10.8569 14.0994 10.8569H14.1487C14.2454 10.8569 14.3419 10.8638 14.4376 10.8777L14.7216 10.9189C14.9554 10.9529 15.1764 11.0474 15.3624 11.1932L15.4312 11.2471C15.6252 11.3991 15.7627 11.6119 15.8215 11.8513C15.8809 12.0934 15.8565 12.3485 15.7522 12.5749L15.7462 12.588C15.6391 12.8206 15.4568 13.0105 15.2288 13.1271L15.1034 13.1913C14.8849 13.303 14.643 13.3613 14.3976 13.3613H14.1686C13.9541 13.3613 13.7414 13.3205 13.5421 13.2409L13.4501 13.2042C13.2213 13.1129 13.0222 12.9603 12.8746 12.7631L12.833 12.7075C12.7275 12.5665 12.6587 12.4016 12.6327 12.2274C12.5771 11.8541 12.7235 11.4793 13.0175 11.2426L13.0937 11.1813C13.2077 11.0895 13.3372 11.0187 13.476 10.9723L13.5571 10.9452Z" fill="black"/>
<path d="M13.6277 9.56169L13.1076 9.51654H12.9113C12.7832 9.51654 12.6555 9.5292 12.5299 9.55433L12.3578 9.58875C12.3121 9.5979 12.2677 9.61276 12.2257 9.63298L12.0157 9.73412C11.9007 9.7895 11.8404 9.918 11.8713 10.0418C11.8856 10.0991 11.9183 10.1501 11.9644 10.187L12.0699 10.2713C12.1468 10.3328 12.2363 10.3765 12.3321 10.3994L12.5621 10.4543C12.6934 10.4856 12.8279 10.5014 12.9628 10.5014H13.337C13.4698 10.5014 13.6019 10.4817 13.729 10.4428L14.0234 10.3527C14.0977 10.33 14.1631 10.2847 14.2106 10.2231L14.2377 10.1878C14.3024 10.1037 14.3175 9.99154 14.2772 9.89337C14.2489 9.82445 14.1957 9.76867 14.1283 9.73705L13.924 9.64129C13.8307 9.59755 13.7304 9.57061 13.6277 9.56169Z" fill="black"/>
</svg>
