<svg width="24" height="24" viewBox="0 0 24 24" fill="none" xmlns="http://www.w3.org/2000/svg">
<path d="M9.15625 10.4375L6.82812 9.11719L6.09375 9.78125L5.28125 10.4375L4.25 11.0625L3.46875 12.1562L3.21875 12.9688L3.46875 13.7812L4.25 14.2812L5.5 14.4688L7.1875 14.7188H8.0625L8.4375 15.4375V16.3438H8.875H10.9375H12.875L14.8438 16.5625L16.3125 16.3438L17.8438 15.7812L18.7188 14.9375L19.375 14V12.7812L19.2188 11.2812L18.7188 10.1562L17.8438 8.9375L16.4688 7.875L14.8438 7.3125L12.875 7.15625L11.5938 7.46875V8.5L10.9375 9.40625L10.125 10.4375H9.15625Z" fill="black" fill-opacity="0.6"/>
<path d="M6.6875 8.20312L6.90625 9.17188L9.25 10.5156L9.79688 10.2812L10.3906 9.875L10.9219 9.375L11.5156 8.53125V7.67188L11.3594 6.92188L11.0156 6.35938L10.3906 5.71875L9.625 5.4375H8.70312L7.57812 5.875L6.90625 6.92188L6.6875 8.20312Z" fill="black" fill-opacity="0.25"/>
<path fill-rule="evenodd" clip-rule="evenodd" d="M9.28395 5.90051C9.227 5.90051 9.17021 5.90675 9.11462 5.9191L8.7744 5.9947L8.38259 6.12531C8.34755 6.13699 8.31338 6.15114 8.28034 6.16766L8.0285 6.29358C7.93785 6.33891 7.85689 6.40146 7.79014 6.47774L7.70287 6.57748C7.64722 6.64107 7.60228 6.71328 7.56978 6.79127L7.38099 7.24435L7.27489 7.59803C7.25306 7.67079 7.24197 7.74636 7.24197 7.82233V8.16515L7.29192 8.6147L7.32294 8.75785C7.40932 9.15648 7.26185 9.56958 6.94256 9.82341C6.87162 9.87981 6.7938 9.92698 6.71098 9.96379L6.39855 10.1026C6.34843 10.1249 6.3008 10.1524 6.25645 10.1847L5.77263 10.5365L5.24329 11.0129L4.65004 11.6062L4.2879 12.0201L3.98027 12.4595C3.95278 12.4988 3.92897 12.5405 3.90913 12.5842L3.7936 12.8383C3.74749 12.9398 3.72363 13.0499 3.72363 13.1614V13.2203C3.72363 13.2572 3.72768 13.294 3.73569 13.3301C3.76402 13.4576 3.8405 13.5692 3.94916 13.6417L3.98301 13.6642C4.03114 13.6963 4.08362 13.7214 4.13884 13.7386L4.77628 13.9378C4.81861 13.951 4.86198 13.9606 4.90594 13.9665L5.60238 14.0594H7.60333C7.92152 14.0594 8.22964 14.1709 8.47409 14.3746C8.57459 14.4584 8.66249 14.5562 8.73506 14.665L8.74928 14.6864C8.88559 14.8908 8.97089 15.125 8.99802 15.3692L9.02906 15.6486V16.2348H8.02906V15.704L8.00414 15.4797C7.99466 15.3943 7.96486 15.3125 7.91723 15.2411L7.90301 15.2197C7.88379 15.1909 7.86051 15.165 7.8339 15.1428C7.76917 15.0889 7.68758 15.0594 7.60333 15.0594H5.53601L4.77378 14.9577C4.67351 14.9444 4.57456 14.9225 4.478 14.8923L3.84056 14.6931C3.69448 14.6474 3.55566 14.5812 3.42831 14.4963L3.39446 14.4737C3.07125 14.2582 2.84377 13.9262 2.75951 13.5471C2.73566 13.4398 2.72363 13.3302 2.72363 13.2203V13.1614C2.72363 12.9072 2.77805 12.6559 2.88323 12.4245L2.99877 12.1704C3.04401 12.0708 3.09833 11.9757 3.16104 11.8861L3.49969 11.4023L3.91939 10.9226L4.55478 10.2872L5.14236 9.75842L5.66828 9.37593C5.76945 9.30236 5.87809 9.23964 5.99241 9.18884L6.30484 9.04998C6.31036 9.04753 6.31554 9.04438 6.32027 9.04062C6.34155 9.02371 6.35137 8.99618 6.34562 8.96962L6.30371 8.77623L6.24197 8.22054V7.82233C6.24197 7.64903 6.26727 7.47667 6.31707 7.31068L6.43803 6.90747L6.6467 6.40666C6.72083 6.22874 6.82337 6.06403 6.95029 5.91897L7.03756 5.81923C7.18981 5.64523 7.37449 5.50255 7.58129 5.39915L7.83313 5.27323C7.90849 5.23555 7.98643 5.20327 8.06636 5.17662L8.50711 5.02971L8.89769 4.94291C9.02451 4.91473 9.15403 4.90051 9.28395 4.90051H9.35495C9.5204 4.90051 9.68504 4.92357 9.84412 4.96902L9.88888 4.98181C10.0491 5.02759 10.2021 5.09564 10.3434 5.18396L10.5554 5.31643C10.6309 5.36365 10.7028 5.41647 10.7705 5.47444L11.0185 5.68706C11.0831 5.74245 11.1437 5.8024 11.1998 5.86646L11.4405 6.14163C11.5234 6.23629 11.5959 6.33947 11.657 6.44943L11.7987 6.70447C11.8647 6.82331 11.9169 6.94931 11.9543 7.08003L11.9763 7.15703C12.0217 7.31611 12.0448 7.48075 12.0448 7.64619V8.08686C12.0448 8.18494 12.0367 8.28285 12.0206 8.37959L11.9715 8.67409C11.9301 8.92257 11.8364 9.15944 11.6967 9.36905L11.5844 9.53747C11.5193 9.63503 11.4448 9.72593 11.3619 9.80884L11.0841 10.0867C11.0107 10.16 10.9311 10.2268 10.8461 10.2863L10.4568 10.5588C10.3852 10.6089 10.3101 10.6537 10.232 10.6927L10.14 10.7387C9.89275 10.8624 9.62012 10.9267 9.34369 10.9267H9.00781C8.73167 10.9267 8.50781 10.7029 8.50781 10.4267C8.50781 10.1506 8.73167 9.92671 9.00781 9.92671H9.34369C9.46487 9.92671 9.58439 9.8985 9.69278 9.8443L9.78478 9.7983C9.81902 9.78118 9.85196 9.76156 9.88333 9.73961L10.2726 9.46708C10.3099 9.441 10.3448 9.41172 10.377 9.37956L10.6548 9.10173C10.6911 9.06539 10.7238 9.02554 10.7523 8.98277L10.8646 8.81435C10.9259 8.72246 10.9669 8.61862 10.9851 8.50969L11.0342 8.21519C11.0412 8.17278 11.0448 8.12986 11.0448 8.08686V7.64619C11.0448 7.57366 11.0347 7.50149 11.0147 7.43175L10.9928 7.35475C10.9764 7.29745 10.9535 7.24221 10.9246 7.19011L10.7829 6.93507C10.7561 6.88686 10.7243 6.84163 10.688 6.80013L10.4472 6.52496C10.4226 6.49688 10.3961 6.4706 10.3677 6.44632L10.1197 6.2337C10.09 6.20828 10.0585 6.18513 10.0254 6.16443L9.81343 6.03195C9.75148 5.99324 9.6844 5.96341 9.61416 5.94334L9.56939 5.93055C9.49966 5.91062 9.42748 5.90051 9.35495 5.90051H9.28395Z" fill="black"/>
<path fill-rule="evenodd" clip-rule="evenodd" d="M12.6947 6.74347H14.248L14.7726 6.79116C14.8765 6.80061 14.9793 6.81915 15.0799 6.84659L15.613 6.992L16.2174 7.23373L16.8223 7.53618L17.5299 8.00792L17.915 8.29672C17.9824 8.34728 18.0461 8.40255 18.1057 8.46213L18.4088 8.76526C18.4822 8.83862 18.549 8.91824 18.6085 9.00323L18.8642 9.36855C18.9298 9.46222 18.9861 9.56199 19.0326 9.66648L19.2096 10.0647L19.4405 10.6421L19.6161 11.1105L19.7446 11.5817C19.7862 11.7344 19.8073 11.892 19.8073 12.0502V13.6677C19.8073 13.9219 19.7529 14.1731 19.6477 14.4045L19.565 14.5864C19.4897 14.7522 19.3894 14.9054 19.2675 15.0407L18.8803 15.471L18.3186 15.9816C18.2528 16.0415 18.1826 16.0963 18.1085 16.1456L17.6737 16.4356C17.5304 16.531 17.3741 16.6053 17.2096 16.6559L16.7689 16.7915C16.67 16.8219 16.5687 16.8436 16.4661 16.8565L16.0993 16.9023H6.85352C6.57737 16.9023 6.35352 16.6785 6.35352 16.4023C6.35352 16.1262 6.57737 15.9023 6.85352 15.9023H16.0371L16.342 15.8642C16.387 15.8586 16.4314 15.849 16.4748 15.8357L16.9155 15.7001C16.9877 15.6779 17.0562 15.6454 17.119 15.6035L17.5538 15.3136C17.5863 15.292 17.6171 15.2679 17.6459 15.2417L18.1706 14.7647L18.5243 14.3718C18.5777 14.3124 18.6216 14.2453 18.6547 14.1726L18.7374 13.9907C18.7835 13.8892 18.8073 13.7791 18.8073 13.6677V12.0502C18.8073 11.9809 18.7981 11.9118 18.7798 11.8448L18.6635 11.4183L18.506 10.9983L18.2881 10.4536L18.1188 10.0726C18.0984 10.0268 18.0737 9.98308 18.0449 9.94201L17.7892 9.57669C17.7631 9.53943 17.7339 9.50453 17.7017 9.47237L17.3986 9.16923C17.3724 9.14312 17.3445 9.11889 17.315 9.09672L16.9521 8.82457L16.3194 8.40277L15.8074 8.14676L15.2948 7.94171L14.8168 7.81136C14.7727 7.79933 14.7276 7.7912 14.6821 7.78706L14.2026 7.74347H12.7401L12.2961 7.78383C12.2363 7.78927 12.1773 7.8016 12.1203 7.82058L11.6579 7.97447L11.3421 7.02565L11.8044 6.87176C11.9345 6.82847 12.0691 6.80035 12.2056 6.78794L12.6947 6.74347Z" fill="black"/>
<path fill-rule="evenodd" clip-rule="evenodd" d="M13.8076 12.5463C13.7507 12.5463 13.6939 12.5525 13.6383 12.5649L13.5922 12.5751C13.4645 12.6035 13.346 12.6635 13.2475 12.7496L13.072 12.9032L12.9066 13.0922C12.8251 13.1854 12.7668 13.2967 12.7368 13.4169L12.6825 13.6341C12.667 13.6961 12.6592 13.7596 12.6592 13.8235V14.148C12.6592 14.224 12.6703 14.2996 12.6921 14.3723L12.7658 14.618C12.7819 14.6718 12.8038 14.7237 12.8311 14.7728L12.9559 14.9975C12.9912 15.0609 13.035 15.119 13.0863 15.1703L13.9089 15.9929L13.2018 16.7L12.3792 15.8774C12.2622 15.7605 12.1621 15.6277 12.0818 15.4831L11.957 15.2584C11.8947 15.1464 11.8448 15.0281 11.808 14.9054L11.7343 14.6597C11.6845 14.4937 11.6592 14.3213 11.6592 14.148V13.8235C11.6592 13.6779 11.677 13.5328 11.7123 13.3916L11.7667 13.1744C11.8352 12.9002 11.968 12.6464 12.154 12.4337L12.3633 12.1945L12.589 11.9971C12.8136 11.8006 13.084 11.6636 13.3753 11.5989L13.4213 11.5887C13.5482 11.5605 13.6777 11.5463 13.8076 11.5463H13.8346C14.1107 11.5463 14.3346 11.7701 14.3346 12.0463C14.3346 12.3224 14.1107 12.5463 13.8346 12.5463H13.8076Z" fill="black"/>
<path fill-rule="evenodd" clip-rule="evenodd" d="M19.0098 13.7032C19.2051 13.5079 19.5217 13.5079 19.7169 13.7032L20.4195 14.4058C20.4929 14.4791 20.5597 14.5588 20.6192 14.6437L20.81 14.9163C20.9348 15.0947 21.0259 15.2944 21.0787 15.5056L21.1402 15.7519L21.2037 16.2595V16.4737C21.2037 16.6651 21.1728 16.8553 21.1123 17.0368L21.0481 17.2294C21.0133 17.3338 20.9689 17.4348 20.9154 17.531L20.7811 17.7728C20.7008 17.9175 20.6006 18.0502 20.4837 18.1672L20.3092 18.3416C20.2263 18.4245 20.1354 18.499 20.0378 18.5641L19.8515 18.6883C19.658 18.8173 19.4411 18.9072 19.213 18.9528L19.0273 18.9899C18.9123 19.0129 18.7954 19.0245 18.6781 19.0245H10.3721C10.0959 19.0245 9.87207 18.8006 9.87207 18.5245C9.87207 18.2484 10.0959 18.0245 10.3721 18.0245H18.6781C18.7295 18.0245 18.7808 18.0194 18.8312 18.0093L19.0169 17.9722C19.1169 17.9522 19.212 17.9128 19.2968 17.8563L19.4831 17.732C19.5259 17.7035 19.5658 17.6709 19.6021 17.6345L19.7766 17.4601C19.8278 17.4088 19.8717 17.3506 19.9069 17.2872L20.0413 17.0454C20.0647 17.0032 20.0842 16.9589 20.0995 16.9132L20.1636 16.7206C20.1902 16.641 20.2037 16.5576 20.2037 16.4737V16.3218L20.1555 15.9358L20.1085 15.7481C20.0854 15.6555 20.0455 15.568 19.9907 15.4898L19.7999 15.2172C19.7738 15.1799 19.7446 15.145 19.7124 15.1129L19.0098 14.4103C18.8146 14.2151 18.8146 13.8985 19.0098 13.7032Z" fill="black"/>
<path d="M7.63499 11.9346C7.63499 12.2739 7.28495 12.5489 6.85314 12.5489C6.42134 12.5489 6.07129 12.2739 6.07129 11.9346C6.07129 11.5953 6.42134 11.3203 6.85314 11.3203C7.28495 11.3203 7.63499 11.5953 7.63499 11.9346Z" fill="black"/>
</svg>
