<svg width="24" height="24" viewBox="0 0 24 24" fill="none" xmlns="http://www.w3.org/2000/svg">
<path d="M13.4795 18.0992H15.3359L12 21.9216L8.66406 18.0992H10.5205V13.8833H13.4795V18.0992Z" fill="#395979"/>
<path d="M17 8C17.55 8 18.0204 8.19622 18.4121 8.58789C18.8038 8.97956 19 9.45 19 10V20C19 20.55 18.8038 21.0204 18.4121 21.4121C18.0204 21.8038 17.55 22 17 22H13.9229L15.668 20H17V10H7V20H8.33203L10.0771 22H7C6.45 22 5.97956 21.8038 5.58789 21.4121C5.19622 21.0204 5 20.55 5 20V10C5 9.45 5.19622 8.97956 5.58789 8.58789C5.97956 8.19622 6.45 8 7 8H17ZM13.6777 20L12 21.9219L10.3223 20H13.6777ZM16.5 5C16.9167 5 17.2708 5.14583 17.5625 5.4375C17.8542 5.72917 18 6.08333 18 6.5H6C6 6.08333 6.14583 5.72917 6.4375 5.4375C6.72917 5.14583 7.08333 5 7.5 5H16.5ZM15.5 2C15.9167 2 16.2708 2.14583 16.5625 2.4375C16.8542 2.72917 17 3.08333 17 3.5H7C7 3.08333 7.14583 2.72917 7.4375 2.4375C7.72917 2.14583 8.08333 2 8.5 2H15.5Z" fill="#395979"/>
</svg>
