<svg width="25" height="24" viewBox="0 0 25 24" fill="none" xmlns="http://www.w3.org/2000/svg">
<rect x="0.96875" width="24" height="24" rx="12" fill="#E4E1EC"/>
<path opacity="0.25" d="M10.4688 11.3438V13.5L12.7812 14.2188L14.5625 15.9062V18.4062L13.75 19.9062L11.9375 20.1875L10.875 19.0938L12.0938 17.25L11.0938 16.4688L7.09375 14.9062L5.09375 13.0312L5.28125 10.9688L6.90625 9.53125L8.96875 9.71875L10.4688 11.3438Z" fill="#314C83"/>
<path d="M10.5354 13.565V12.8998V12.1742V11.8672C10.5354 11.67 10.5036 11.4741 10.4412 11.287V11.287C10.3834 11.1134 10.2999 10.9495 10.1936 10.8007L10.159 10.7522C10.0875 10.6521 10.0079 10.5582 9.92103 10.4713L9.56783 10.1181L9.28722 9.89986C9.11253 9.76398 8.91766 9.65628 8.70968 9.58065V9.58065C8.47727 9.49614 8.23187 9.4529 7.98457 9.4529H7.94693C7.8183 9.4529 7.68988 9.46353 7.56299 9.48468L7.41288 9.5097C7.15771 9.55223 6.91034 9.63267 6.67896 9.74836V9.74836C6.42949 9.87309 6.20175 10.0372 6.00453 10.2345L5.84427 10.3947C5.70668 10.5323 5.58648 10.6863 5.48636 10.8531L5.47615 10.8701C5.34255 11.0928 5.24824 11.3368 5.19731 11.5914V11.5914C5.16806 11.7377 5.15332 11.8865 5.15332 12.0357V12.2389C5.15332 12.437 5.17581 12.6345 5.22035 12.8275L5.22857 12.8631C5.29869 13.167 5.42667 13.4545 5.6055 13.71V13.71C5.7069 13.8548 5.8238 13.9882 5.95413 14.1076L6.13918 14.2773C6.36822 14.4872 6.61906 14.672 6.88744 14.8286L7.20939 15.0164L7.93507 15.4397L8.78168 15.863L9.13659 15.9921C9.34315 16.0672 9.55512 16.1265 9.77065 16.1697L10.0516 16.2258L10.7638 16.2733C10.8933 16.282 11.0215 16.3051 11.1458 16.3424L11.2859 16.3845C11.4681 16.4391 11.6338 16.5381 11.7683 16.6727L11.8466 16.7509C11.9766 16.8809 12.0596 17.0506 12.0824 17.2331V17.2331C12.099 17.3659 12.0831 17.5008 12.0361 17.6261L12.0247 17.6566C11.9604 17.828 11.8485 17.9774 11.702 18.0873L11.583 18.1765C11.4897 18.2465 11.4056 18.328 11.3327 18.4191L11.1381 18.6624C11.0236 18.8055 10.9734 18.9896 10.9993 19.171V19.171C11.0124 19.2626 11.0445 19.3505 11.0936 19.429L11.1541 19.5259C11.2639 19.7015 11.417 19.8458 11.5988 19.945L11.8329 20.0727C11.9351 20.1284 12.0439 20.1709 12.1567 20.1991V20.1991C12.3631 20.2507 12.5786 20.2535 12.7863 20.2074L12.8075 20.2026C12.945 20.1721 13.0773 20.1218 13.2004 20.0535L13.2654 20.0173C13.4598 19.9094 13.6345 19.7693 13.7822 19.6032L13.969 19.393C14.0181 19.3378 14.0609 19.2774 14.0968 19.2129L14.2023 19.0229C14.2921 18.8613 14.4537 18.7521 14.6372 18.7292V18.7292C14.7617 18.7136 14.8878 18.7389 14.9968 18.8011L15.09 18.8544C15.1971 18.9156 15.3155 18.9541 15.438 18.9678L15.7965 19.0076H15.9805C16.2589 19.0076 16.5351 18.9589 16.7967 18.8638V18.8638C16.9759 18.7986 17.1466 18.7122 17.3053 18.6065L17.3951 18.5466C17.6574 18.3717 17.8843 18.1488 18.0637 17.8896V17.8896C18.2438 17.6294 18.3729 17.3374 18.4441 17.029L18.4502 17.0026C18.4951 16.8079 18.5178 16.6087 18.5178 16.4089V16.3224C18.5178 16.1778 18.502 16.0337 18.4706 15.8926V15.8926C18.4218 15.6729 18.3359 15.4631 18.2166 15.2723L18.0945 15.0769L17.7316 14.5931L17.3869 14.21C17.2544 14.0628 17.1395 13.9005 17.0446 13.7265L16.9715 13.5926C16.8743 13.4144 16.8097 13.2192 16.781 13.0183V13.0183C16.7698 12.9397 16.7641 12.86 16.7641 12.7807V12.7807C16.7641 12.5796 16.8003 12.3801 16.8709 12.1918L16.8896 12.1419C16.9267 12.0428 16.9752 11.9483 17.0339 11.8602V11.8602C17.1352 11.7082 17.2657 11.5777 17.4177 11.4764L17.5134 11.4126C17.6582 11.316 17.8153 11.2392 17.9805 11.1841L18.0921 11.1469C18.2144 11.1062 18.3401 11.0765 18.4677 11.0583V11.0583C18.6216 11.0363 18.7726 10.9977 18.9182 10.9431L19.183 10.8438L19.3548 10.7794C19.5617 10.7018 19.7565 10.595 19.9333 10.4624L19.9826 10.4255C20.0942 10.3418 20.1957 10.2454 20.285 10.1382L20.3304 10.0837C20.4117 9.98621 20.4783 9.87743 20.5283 9.76077V9.76077C20.5983 9.59754 20.6343 9.4218 20.6343 9.24421V8.96912L20.5898 8.56809C20.5792 8.47278 20.5606 8.37852 20.5343 8.28631L20.5304 8.27277C20.4791 8.09329 20.3975 7.92393 20.289 7.77203V7.77203C20.1972 7.64352 20.0872 7.529 19.9626 7.43205L19.7026 7.22986C19.6385 7.17998 19.5709 7.13471 19.5004 7.0944V7.0944C19.2911 6.97484 19.0591 6.90066 18.8193 6.87668L18.5783 6.85258H18.4469C18.1349 6.85258 17.8266 6.91937 17.5426 7.04846V7.04846C17.387 7.1192 17.2402 7.20796 17.1052 7.31292L16.7641 7.57825L16.5895 7.69464C16.3468 7.85646 16.068 7.95627 15.7777 7.98529V7.98529C15.6695 7.99611 15.5606 7.99701 15.4522 7.98798L15.0552 7.9549C14.9452 7.94573 14.837 7.92143 14.7337 7.88269V7.88269C14.5195 7.80235 14.3327 7.66241 14.1954 7.47938L14.1413 7.40721C14.0758 7.31992 14.02 7.22578 13.9749 7.12644L13.8631 6.88052C13.7814 6.70088 13.7132 6.51542 13.659 6.32569L13.6224 6.19743C13.5402 5.90987 13.4191 5.63492 13.2623 5.38022V5.38022C13.0981 5.1134 12.8965 4.8715 12.6637 4.66192L12.41 4.43367L12.0902 4.18491C11.9412 4.06897 11.7785 3.97158 11.606 3.89489V3.89489C11.4172 3.81098 11.2181 3.75255 11.0139 3.72114L10.8448 3.69512C10.6392 3.6635 10.4307 3.65625 10.2235 3.67352V3.67352C9.94931 3.69636 9.68042 3.76187 9.42649 3.86768L9.08405 4.01036L8.65228 4.26222C8.45757 4.3758 8.28208 4.5195 8.13232 4.68798V4.68798C7.9619 4.87971 7.82742 5.10057 7.73534 5.33999L7.66813 5.51471C7.60474 5.67954 7.57223 5.85463 7.57223 6.03123V6.12965C7.57223 6.24768 7.59475 6.36463 7.63859 6.47422V6.47422C7.67475 6.56463 7.72493 6.64879 7.78727 6.7236L7.85276 6.80219C7.94693 6.91519 8.06346 7.00748 8.19502 7.07326V7.07326C8.30314 7.12732 8.41966 7.1626 8.5396 7.17759L8.62633 7.18843C8.76898 7.20627 8.9137 7.19753 9.05317 7.16266V7.16266C9.23244 7.11784 9.39847 7.031 9.53754 6.90932L9.80972 6.67116L10.1656 6.41693C10.2103 6.38502 10.2595 6.35997 10.3116 6.3426L10.3276 6.33726C10.4949 6.28151 10.679 6.31435 10.8167 6.42448V6.42448C10.8705 6.46756 10.9152 6.52092 10.9483 6.58145L11.1497 6.95074C11.2238 7.0866 11.2857 7.22879 11.3346 7.37561L11.4425 7.69919L11.7448 8.36439L11.9102 8.69507C12.0012 8.87709 12.1142 9.04725 12.2466 9.20175V9.20175C12.3553 9.32855 12.4765 9.44409 12.6083 9.54661L12.7294 9.64081C12.8791 9.75728 13.037 9.86298 13.2017 9.95711L13.3776 10.0576L13.6047 10.1838C13.8127 10.2993 14.0467 10.36 14.2847 10.36V10.36H14.8894H15.7965H16.4617H16.5854C16.7808 10.36 16.9718 10.4178 17.1343 10.5262V10.5262C17.2097 10.5764 17.2778 10.6368 17.3367 10.7055L17.6107 11.0252" stroke="#314C83" stroke-linecap="square"/>
<path d="M8.2373 12.6578L8.31932 12.7604C8.42554 12.8931 8.547 13.0129 8.68121 13.1173V13.1173C8.90713 13.293 9.16562 13.4223 9.44175 13.4976L9.48536 13.5095C9.62062 13.5464 9.75887 13.5713 9.8985 13.584L10.3539 13.6254L11.14 13.7463L11.6537 13.8564C11.8753 13.9039 12.0929 13.9686 12.3044 14.05L12.5306 14.137C12.6918 14.199 12.8477 14.2738 12.9969 14.3609V14.3609C13.3286 14.5544 13.623 14.8056 13.8661 15.1028L14.0427 15.3186L14.2696 15.6752C14.3998 15.8798 14.4984 16.1028 14.5623 16.3368V16.3368C14.6188 16.544 14.6474 16.7579 14.6474 16.9727V17.2538V18.3423V18.5842" stroke="#314C83" stroke-linecap="round"/>
<path opacity="0.75" d="M8.8125 7.15625L10.5 6.375L11.2188 7.15625L12.375 9.4375L14.7812 10.375L17 10.5312L17.875 11.4062L20.4688 10.375L20.2812 7.625L18.5312 6.8125L16.2812 7.9375L14.375 7.78125L13.3125 5.1875L10.9062 3.53125L8.09375 4.46875L7.46875 6.375L8.8125 7.15625Z" fill="#314C83"/>
</svg>
