<svg width="24" height="24" viewBox="0 0 24 24" fill="none" xmlns="http://www.w3.org/2000/svg">
<path fill-rule="evenodd" clip-rule="evenodd" d="M17.2712 11.83C17.2712 13.4515 15.9568 14.7659 14.3353 14.7659C12.7139 14.7659 11.3994 13.4515 11.3994 11.83C11.3994 10.2086 12.7139 8.8941 14.3353 8.8941C15.9568 8.8941 17.2712 10.2086 17.2712 11.83ZM16.6585 15.1612C16.0002 15.6211 15.1993 15.8909 14.3353 15.8909C12.0925 15.8909 10.2744 14.0728 10.2744 11.83C10.2744 9.58723 12.0925 7.7691 14.3353 7.7691C16.5781 7.7691 18.3962 9.58723 18.3962 11.83C18.3962 12.6541 18.1508 13.4208 17.729 14.0611C17.7819 14.0932 17.8318 14.1321 17.8776 14.1779L20.1571 16.4575C20.4647 16.765 20.4647 17.2636 20.1571 17.5711C19.8496 17.8787 19.351 17.8787 19.0435 17.5711L16.7639 15.2916C16.7234 15.2511 16.6883 15.2074 16.6585 15.1612Z" fill="black"/>
<path fill-rule="evenodd" clip-rule="evenodd" d="M7.60186 10.2271C8.19206 10.2271 8.67052 9.74864 8.67052 9.15844C8.67052 8.56824 8.19206 8.08978 7.60186 8.08978C7.01166 8.08978 6.5332 8.56824 6.5332 9.15844C6.5332 9.74864 7.01166 10.2271 7.60186 10.2271ZM7.60186 13.0057C8.19206 13.0057 8.67052 12.5272 8.67052 11.937C8.67052 11.3468 8.19206 10.8683 7.60186 10.8683C7.01166 10.8683 6.5332 11.3468 6.5332 11.937C6.5332 12.5272 7.01166 13.0057 7.60186 13.0057ZM8.67052 14.7155C8.67052 15.3057 8.19206 15.7842 7.60186 15.7842C7.01166 15.7842 6.5332 15.3057 6.5332 14.7155C6.5332 14.1253 7.01166 13.6469 7.60186 13.6469C8.19206 13.6469 8.67052 14.1253 8.67052 14.7155ZM10.3812 10.2272C10.9714 10.2272 11.4498 9.74871 11.4498 9.1585C11.4498 8.5683 10.9714 8.08984 10.3812 8.08984C9.79095 8.08984 9.3125 8.5683 9.3125 9.1585C9.3125 9.74871 9.79095 10.2272 10.3812 10.2272ZM10.9066 12.8678C10.7514 12.9556 10.5721 13.0057 10.3812 13.0057C9.79095 13.0057 9.3125 12.5272 9.3125 11.937C9.3125 11.3468 9.79095 10.8683 10.3812 10.8683C10.5516 10.8683 10.7126 10.9082 10.8556 10.9792C10.7891 11.2519 10.7539 11.5368 10.7539 11.83C10.7539 12.1909 10.8073 12.5393 10.9066 12.8678ZM12.0938 14.6234C12.0912 14.6538 12.0898 14.6845 12.0898 14.7155C12.0898 15.3057 12.5683 15.7842 13.1585 15.7842C13.4908 15.7842 13.7878 15.6325 13.9838 15.3945C13.2722 15.3252 12.6216 15.0476 12.0938 14.6234ZM13.7826 8.29089C13.607 8.16437 13.3914 8.08984 13.1585 8.08984C12.6104 8.08984 12.1587 8.50244 12.097 9.03398C12.5741 8.65159 13.151 8.38875 13.7826 8.29089ZM10.3812 15.7842C10.9714 15.7842 11.4498 15.3057 11.4498 14.7155C11.4498 14.1253 10.9714 13.6469 10.3812 13.6469C9.79095 13.6469 9.3125 14.1253 9.3125 14.7155C9.3125 15.3057 9.79095 15.7842 10.3812 15.7842Z" fill="black"/>
<path fill-rule="evenodd" clip-rule="evenodd" d="M4.875 17.203V6.65002H15.9928V9.41139C16.0963 9.4882 16.8215 10.049 17.1172 10.8867V12.7695C16.9134 13.723 16.1028 14.212 15.9928 14.2744V17.203H4.875ZM3.75 6.51605C3.75 5.96872 4.1937 5.52502 4.74103 5.52502H16.1268C16.6741 5.52502 17.1178 5.96872 17.1178 6.51605V17.337C17.1178 17.8843 16.6741 18.328 16.1268 18.328H4.74103C4.1937 18.328 3.75 17.8843 3.75 17.337V6.51605Z" fill="black"/>
</svg>
