<svg width="24" height="24" viewBox="0 0 24 24" fill="none" xmlns="http://www.w3.org/2000/svg">
<path d="M4.75 6.01605C4.75 5.46872 5.1937 5.02502 5.74103 5.02502H17.1268C17.6741 5.02502 18.1178 5.46872 18.1178 6.01605V16.837C18.1178 17.3843 17.6741 17.828 17.1268 17.828H5.74103C5.1937 17.828 4.75 17.3843 4.75 16.837V6.01605Z" fill="black" fill-opacity="0.5"/>
<path fill-rule="evenodd" clip-rule="evenodd" d="M5.875 6.15002V16.703H16.9928V6.15002H5.875ZM5.74103 5.02502C5.1937 5.02502 4.75 5.46872 4.75 6.01605V16.837C4.75 17.3843 5.1937 17.828 5.74103 17.828H17.1268C17.6741 17.828 18.1178 17.3843 18.1178 16.837V6.01605C18.1178 5.46872 17.6741 5.02502 17.1268 5.02502H5.74103Z" fill="black"/>
<path d="M9.67052 8.65844C9.67052 9.24864 9.19206 9.7271 8.60186 9.7271C8.01166 9.7271 7.5332 9.24864 7.5332 8.65844C7.5332 8.06824 8.01166 7.58978 8.60186 7.58978C9.19206 7.58978 9.67052 8.06824 9.67052 8.65844Z" fill="black"/>
<path d="M9.67052 11.4369C9.67052 12.0271 9.19206 12.5056 8.60186 12.5056C8.01166 12.5056 7.5332 12.0271 7.5332 11.4369C7.5332 10.8467 8.01166 10.3683 8.60186 10.3683C9.19206 10.3683 9.67052 10.8467 9.67052 11.4369Z" fill="black"/>
<path d="M9.67052 14.2154C9.67052 14.8057 9.19206 15.2841 8.60186 15.2841C8.01166 15.2841 7.5332 14.8057 7.5332 14.2154C7.5332 13.6252 8.01166 13.1468 8.60186 13.1468C9.19206 13.1468 9.67052 13.6252 9.67052 14.2154Z" fill="black"/>
<path d="M12.4498 8.65844C12.4498 9.24864 11.9714 9.7271 11.3812 9.7271C10.791 9.7271 10.3125 9.24864 10.3125 8.65844C10.3125 8.06824 10.791 7.58978 11.3812 7.58978C11.9714 7.58978 12.4498 8.06824 12.4498 8.65844Z" fill="black"/>
<path d="M12.4498 11.4369C12.4498 12.0271 11.9714 12.5056 11.3812 12.5056C10.791 12.5056 10.3125 12.0271 10.3125 11.4369C10.3125 10.8467 10.791 10.3683 11.3812 10.3683C11.9714 10.3683 12.4498 10.8467 12.4498 11.4369Z" fill="black"/>
<path d="M12.4498 14.2154C12.4498 14.8057 11.9714 15.2841 11.3812 15.2841C10.791 15.2841 10.3125 14.8057 10.3125 14.2154C10.3125 13.6252 10.791 13.1468 11.3812 13.1468C11.9714 13.1468 12.4498 13.6252 12.4498 14.2154Z" fill="black"/>
<path d="M15.2272 8.65844C15.2272 9.24864 14.7487 9.7271 14.1585 9.7271C13.5683 9.7271 13.0898 9.24864 13.0898 8.65844C13.0898 8.06824 13.5683 7.58978 14.1585 7.58978C14.7487 7.58978 15.2272 8.06824 15.2272 8.65844Z" fill="black"/>
<path d="M15.2272 11.4369C15.2272 12.0271 14.7487 12.5056 14.1585 12.5056C13.5683 12.5056 13.0898 12.0271 13.0898 11.4369C13.0898 10.8467 13.5683 10.3683 14.1585 10.3683C14.7487 10.3683 15.2272 10.8467 15.2272 11.4369Z" fill="black"/>
<path d="M15.2272 14.2154C15.2272 14.8057 14.7487 15.2841 14.1585 15.2841C13.5683 15.2841 13.0898 14.8057 13.0898 14.2154C13.0898 13.6252 13.5683 13.1468 14.1585 13.1468C14.7487 13.1468 15.2272 13.6252 15.2272 14.2154Z" fill="black"/>
<path d="M19.3962 11.33C19.3962 13.5728 17.5781 15.3909 15.3353 15.3909C13.0925 15.3909 11.2744 13.5728 11.2744 11.33C11.2744 9.08723 13.0925 7.2691 15.3353 7.2691C17.5781 7.2691 19.3962 9.08723 19.3962 11.33Z" fill="#E4E1EC"/>
<path fill-rule="evenodd" clip-rule="evenodd" d="M15.3353 14.2659C16.9568 14.2659 18.2712 12.9515 18.2712 11.33C18.2712 9.70855 16.9568 8.3941 15.3353 8.3941C13.7139 8.3941 12.3994 9.70855 12.3994 11.33C12.3994 12.9515 13.7139 14.2659 15.3353 14.2659ZM15.3353 15.3909C17.5781 15.3909 19.3962 13.5728 19.3962 11.33C19.3962 9.08723 17.5781 7.2691 15.3353 7.2691C13.0925 7.2691 11.2744 9.08723 11.2744 11.33C11.2744 13.5728 13.0925 15.3909 15.3353 15.3909Z" fill="black"/>
<path fill-rule="evenodd" clip-rule="evenodd" d="M17.7639 13.6779C18.0714 13.3703 18.57 13.3703 18.8775 13.6779L21.1571 15.9575C21.4647 16.265 21.4647 16.7636 21.1571 17.0711C20.8496 17.3787 20.351 17.3787 20.0435 17.0711L17.7639 14.7916C17.4563 14.484 17.4563 13.9854 17.7639 13.6779Z" fill="black"/>
</svg>
