<svg width="72" height="72" viewBox="0 0 72 72" fill="none" xmlns="http://www.w3.org/2000/svg">
<circle cx="36" cy="36" r="36" fill="black" fill-opacity="0.08"/>
<path fill-rule="evenodd" clip-rule="evenodd" d="M46.7025 49.2131C46.7025 51.3625 48.445 53.105 50.5944 53.105C52.7439 53.105 54.4863 51.3625 54.4863 49.2131C54.4863 47.1453 52.8738 45.4542 50.8377 45.3287V39.2401C50.8377 37.628 49.5308 36.3212 47.9188 36.3212H36.2439V26.8272C38.2801 26.7016 39.8926 25.0105 39.8926 22.9428C39.8926 20.7934 38.1501 19.0509 36.0007 19.0509C33.8513 19.0509 32.1088 20.7934 32.1088 22.9428C32.1088 24.8428 33.4703 26.4248 35.271 26.7664V36.3212H23.5944C21.9824 36.3212 20.6755 37.628 20.6755 39.2401V45.3894C18.8748 45.7309 17.5131 47.313 17.5131 49.2131C17.5131 51.3625 19.2556 53.1049 21.405 53.1049C23.5544 53.1049 25.2969 51.3625 25.2969 49.2131C25.2969 47.1454 23.6845 45.4544 21.6485 45.3287V39.2401C21.6485 38.1654 22.5197 37.2942 23.5944 37.2942H35.271V45.3895C33.4703 45.731 32.1088 47.313 32.1088 49.2131C32.1088 51.3625 33.8513 53.1049 36.0007 53.1049C38.1501 53.1049 39.8926 51.3625 39.8926 49.2131C39.8926 47.1453 38.2801 45.4542 36.2439 45.3286V37.2942H47.9188C48.9935 37.2942 49.8647 38.1654 49.8647 39.2401V45.3895C48.0641 45.731 46.7025 47.3131 46.7025 49.2131Z" fill="white"/>
</svg>
