<svg xmlns="http://www.w3.org/2000/svg" width="31" height="32" viewBox="0 0 24 25" fill="none">
  <path d="M7.61264 7.7634C7.61264 9.43684 6.25514 10.7934 4.58164 10.7934C2.90814 10.7934 1.55164 9.43684 1.55164 7.7634C1.55164 6.08996 2.9082 4.7334 4.58164 4.7334C6.25508 4.7334 7.61264 6.08996 7.61264 7.7634Z" fill="#71767F"/>
  <path d="M17.309 8.34536L16.4606 9.1938L19.4428 12.176L22.425 9.1938L21.5756 8.34536L20.0728 9.84818V6.86598C20.0728 4.49038 18.1331 2.55078 15.7576 2.55078C13.382 2.55078 11.3934 4.49046 11.3934 6.86598V18.1872C11.3934 19.9084 10.0115 21.2904 8.29016 21.2904C6.56984 21.2904 5.18796 19.9085 5.18796 18.1872V15.3756L6.69078 16.8784L7.53922 16.03L4.58142 13.0722L1.60022 16.03L2.44866 16.8784L3.95148 15.3756V18.236C3.97586 20.5872 5.91554 22.5024 8.26668 22.5024C10.6423 22.5024 12.5819 20.5627 12.5819 18.1872V6.86598C12.5819 5.14474 13.9638 3.76278 15.6851 3.76278C17.4064 3.76278 18.7883 5.14466 18.7883 6.86598V9.87158L17.309 8.34536Z" fill="#71767F" stroke="#71767F" stroke-width="0.1"/>
  <path d="M16.6304 14.4795H22.2056V20.0547H16.6304V14.4795Z" fill="#71767F"/>
</svg>