<svg xmlns="http://www.w3.org/2000/svg" width="30" height="31" viewBox="0 0 24 25" fill="none">
  <path fill-rule="evenodd" clip-rule="evenodd" d="M14.7902 3.20898H22.8655C23.2797 3.20898 23.6155 2.8732 23.6155 2.45898C23.6155 2.04477 23.2797 1.70898 22.8655 1.70898H14.4402C13.8051 1.70898 13.2902 2.22386 13.2902 2.85898V5.18748V5.53392H10.9745V5.53125H5.54923C4.9141 5.53125 4.39923 6.04612 4.39923 6.68125V11.0097V11.3562H4.39104H4.38169H4.37239H4.36313H4.35392H4.34475H4.33563H4.32655H4.31752H4.30853H4.29959H4.29069H4.28183H4.27301H4.26424H4.25551H4.24683H4.23819H4.22959H4.22103H4.21251H4.20403H4.1956H4.18721H4.17885H4.17054H4.16227H4.15404H4.14585H4.1377H4.12958H4.12151H4.11348H4.10548H4.09753H4.08961H4.08173H4.07389H4.06608H4.05832H4.05059H4.04289H4.03524H4.02762H4.02004H4.01249H4.00498H3.9975H3.99006H3.98266H3.97529H3.96795H3.96065H3.95339H3.94616H3.93896H3.93179H3.92466H3.91756H3.9105H3.90347H3.89647H3.8895H3.88257H3.87566H3.86879H3.86195H3.85514H3.84836H3.84161H3.8349H3.82821H3.82155H3.81493H3.80833H3.80176H3.79522H3.78871H3.78223H3.77578H3.76935H3.76296H3.75659H3.75025H3.74393H3.73765H3.73138H3.72515H3.71894H3.71276H3.70661H3.70048H3.69438H3.6883H3.68225H3.67622H3.67021H3.66423H3.65828H3.65235H3.64644H3.64056H3.6347H3.62886H3.62304H3.61725H3.61148H3.60574H3.60001H3.59431H3.58862H3.58296H3.57732H3.5717H3.5661H3.56053H3.55497H3.54943H3.54391H3.53841H3.53293H3.52747H3.52203H3.51661H3.5112H3.50581H3.50044H3.49509H3.48976H3.48444H3.47914H3.47386H3.46859H3.46334H3.4581H3.45289H3.44768H3.4425H3.43732H3.43217H3.42702H3.42189H3.41678H3.41168H3.40659H3.40152H3.39646H3.39142H3.38638H3.38136H3.37636H3.37136H3.36638H3.3614H3.35644H3.3515H3.34656H3.34163H3.33671H3.33181H3.32691H3.32203H3.31715H3.31229H3.30743H3.30258H3.29774H3.29291H3.28809H3.28328H3.27847H3.27367H3.26888H3.2641H3.25932H3.25455H3.24979H3.24503H3.24028H3.23554H3.2308H3.22607H3.22134H3.21662H3.2119H3.20719H3.20248H3.19777H3.19307H3.18838H3.18368H3.17899H3.17431H3.16962H3.16494H3.16026H3.15558H3.15091H3.14623H3.14156H3.13689H3.13222H3.12755H3.12288H3.11821H3.11354H3.10887H3.1042H3.09953H3.09486H3.09019H3.08552H3.08084H3.07617H3.07149H3.06681H3.06213H3.05744H3.05276H3.04806H3.04337H3.03867H3.03397H3.02926H3.02456H3.01984H3.01512H3.0104H3.00567H3.00094H2.9962H2.99145H2.9867H2.98194H2.97718H2.97241H2.96763H2.96285H2.95805H2.95325H2.94845H2.94363H2.93881H2.93398H2.92913H2.92428H2.91943H2.91456H2.90968H2.90479H2.89989H2.89499H2.89007H2.88514H2.8802H2.87525H2.87029H2.86531H2.86032H2.85533H2.85032H2.84529H2.84026H2.83521H2.83015H2.82507H2.81998H2.81488H2.80976H2.80463H2.79949H2.79433H2.78915H2.78396H2.77875H2.77353H2.76829H2.76304H2.75777H2.75248H2.74718H2.74186H2.73652H2.73116H2.72579H2.7204H2.71499H2.70956H2.70412H2.69865H2.69317H2.68767H2.68214H2.6766H2.67104H2.66545H2.65985H2.65423H2.64858H2.64292H2.63723H2.63152H2.62579H2.62004H2.61427H2.60847H2.60265H2.59681H2.59094H2.58505H2.57914H2.57321H2.56725H2.56126H2.55525H2.54922H2.54316H2.53708H2.53097H2.52483H2.51867H2.51249H2.50628H2.50004H2.49377H2.48748H2.48116H2.47481H2.46844H2.46204H2.4556H2.44915H2.44266H2.43614H2.4296H2.42302H2.41642H2.40979H2.40312H2.39643H2.38971H2.38295H2.37617H2.36935H2.36251H2.35563H2.34872H2.34177H2.3348H2.32779H2.32076H2.31368H2.30658H2.29944H2.29227H2.28506H2.27783H2.27055H2.26325H2.2559H2.24853H2.24111H2.23367H2.22618H2.21867H2.21111H2.20352H2.19589H2.18823H2.18053H2.17279H2.16502H2.15721H2.14936H2.14147H2.13354H2.12558H2.11758H2.10953H2.10145H2.09333H2.08517H2.07697H2.06873H2.06045H2.05213H2.04377H2.03537H2.02693H2.01844H2.00992H2.00135H1.99274H1.98409H1.97539H1.96666H1.95788H1.94905H1.94019H1.93128H1.92232H1.91333H1.90428H1.8952H1.88607H1.87689H1.86767H1.8584H1.84909H1.83973H1.83033H1.82087H1.81138H1.80183H1.79224H1.7826H1.77292H1.76319H1.7534H1.74358H1.7337H1.72377H1.7138H1.70377H1.6937H1.68358H1.67341H1.66318H1.65291H1.64259H1.63222H1.62179H1.61132H1.60079H1.59021H1.57959H1.5689H1.55817H1.54739H1.53655H1.52566H1.51471H1.50371H1.49266H1.48156H1.4704H1.45919H1.44792H1.4366H1.42522H1.41379H1.4023H1.39076H1.37916H1.36751H1.3558H1.34403H1.33221H1.32033H1.30839H1.2964H1.28434H1.27223H1.26007H1.24784H1.23555H1.22321H1.21081H1.19835H1.18583H1.17325H1.16061H1.14791H1.13514H1.12232H1.10944H1.0965H1.0835C0.669283 11.3562 0.333496 11.692 0.333496 12.1062C0.333496 12.5204 0.669283 12.8562 1.0835 12.8562H1.0965H1.10944H1.12232H1.13514H1.14791H1.16061H1.17325H1.18583H1.19835H1.21081H1.22321H1.23555H1.24784H1.26007H1.27223H1.28434H1.2964H1.30839H1.32033H1.33221H1.34403H1.3558H1.36751H1.37916H1.39076H1.4023H1.41379H1.42522H1.4366H1.44792H1.45919H1.4704H1.48156H1.49266H1.50371H1.51471H1.52566H1.53655H1.54739H1.55817H1.5689H1.57959H1.59021H1.60079H1.61132H1.62179H1.63222H1.64259H1.65291H1.66318H1.67341H1.68358H1.6937H1.70377H1.7138H1.72377H1.7337H1.74358H1.7534H1.76319H1.77292H1.7826H1.79224H1.80183H1.81138H1.82087H1.83033H1.83973H1.84909H1.8584H1.86767H1.87689H1.88607H1.8952H1.90428H1.91333H1.92232H1.93128H1.94019H1.94905H1.95788H1.96666H1.97539H1.98409H1.99274H2.00135H2.00992H2.01844H2.02693H2.03537H2.04377H2.05213H2.06045H2.06873H2.07697H2.08517H2.09333H2.10145H2.10953H2.11758H2.12558H2.13354H2.14147H2.14936H2.15721H2.16502H2.17279H2.18053H2.18823H2.19589H2.20352H2.21111H2.21867H2.22618H2.23367H2.24111H2.24853H2.2559H2.26325H2.27055H2.27783H2.28506H2.29227H2.29944H2.30658H2.31368H2.32076H2.32779H2.3348H2.34177H2.34872H2.35563H2.36251H2.36935H2.37617H2.38295H2.38971H2.39643H2.40312H2.40979H2.41642H2.42302H2.4296H2.43614H2.44266H2.44915H2.4556H2.46204H2.46844H2.47481H2.48116H2.48748H2.49377H2.50004H2.50628H2.51249H2.51867H2.52483H2.53097H2.53708H2.54316H2.54922H2.55525H2.56126H2.56725H2.57321H2.57914H2.58505H2.59094H2.59681H2.60265H2.60847H2.61427H2.62004H2.62579H2.63152H2.63723H2.64292H2.64858H2.65423H2.65985H2.66545H2.67104H2.6766H2.68214H2.68767H2.69317H2.69865H2.70412H2.70956H2.71499H2.7204H2.72579H2.73116H2.73652H2.74186H2.74718H2.75248H2.75777H2.76304H2.76829H2.77353H2.77875H2.78396H2.78915H2.79433H2.79949H2.80463H2.80976H2.81488H2.81998H2.82507H2.83015H2.83521H2.84026H2.84529H2.85032H2.85533H2.86032H2.86531H2.87029H2.87525H2.8802H2.88514H2.89007H2.89499H2.89989H2.90479H2.90968H2.91456H2.91943H2.92428H2.92913H2.93398H2.93881H2.94363H2.94845H2.95325H2.95805H2.96285H2.96763H2.97241H2.97718H2.98194H2.9867H2.99145H2.9962H3.00094H3.00567H3.0104H3.01512H3.01984H3.02456H3.02926H3.03397H3.03867H3.04337H3.04806H3.05276H3.05744H3.06213H3.06681H3.07149H3.07617H3.08084H3.08552H3.09019H3.09486H3.09953H3.1042H3.10887H3.11354H3.11821H3.12288H3.12755H3.13222H3.13689H3.14156H3.14623H3.15091H3.15558H3.16026H3.16494H3.16962H3.17431H3.17899H3.18368H3.18838H3.19307H3.19777H3.20248H3.20719H3.2119H3.21662H3.22134H3.22607H3.2308H3.23554H3.24028H3.24503H3.24979H3.25455H3.25932H3.2641H3.26888H3.27367H3.27847H3.28328H3.28809H3.29291H3.29774H3.30258H3.30743H3.31229H3.31715H3.32203H3.32691H3.33181H3.33671H3.34163H3.34656H3.3515H3.35644H3.3614H3.36638H3.37136H3.37636H3.38136H3.38638H3.39142H3.39646H3.40152H3.40659H3.41168H3.41678H3.42189H3.42702H3.43217H3.43732H3.4425H3.44768H3.45289H3.4581H3.46334H3.46859H3.47386H3.47914H3.48444H3.48976H3.49509H3.50044H3.50581H3.5112H3.51661H3.52203H3.52747H3.53293H3.53841H3.54391H3.54943H3.55497H3.56053H3.5661H3.5717H3.57732H3.58296H3.58862H3.59431H3.60001H3.60574H3.61148H3.61725H3.62304H3.62886H3.6347H3.64056H3.64644H3.65235H3.65828H3.66423H3.67021H3.67622H3.68225H3.6883H3.69438H3.70048H3.70661H3.71276H3.71894H3.72515H3.73138H3.73765H3.74393H3.75025H3.75659H3.76296H3.76935H3.77578H3.78223H3.78871H3.79522H3.80176H3.80833H3.81493H3.82155H3.82821H3.8349H3.84161H3.84836H3.85514H3.86195H3.86879H3.87566H3.88257H3.8895H3.89647H3.90347H3.9105H3.91756H3.92466H3.93179H3.93896H3.94616H3.95339H3.96065H3.96795H3.97529H3.98266H3.99006H3.9975H4.00498H4.01249H4.02004H4.02762H4.03524H4.04289H4.05059H4.05832H4.06608H4.07389H4.08173H4.08961H4.09753H4.10548H4.11348H4.12151H4.12958H4.1377H4.14585H4.15404H4.16227H4.17054H4.17885H4.18721H4.1956H4.20403H4.21251H4.22103H4.22959H4.23819H4.24683H4.25551H4.26424H4.27301H4.28183H4.29069H4.29959H4.30853H4.31752H4.32655H4.33563H4.34475H4.35392H4.36313H4.37239H4.38169H4.39104H4.39923V17.472C4.39923 18.1071 4.9141 18.622 5.54923 18.622H10.9745V18.6199H13.2668V21.2356C13.2668 21.8708 13.7817 22.3856 14.4168 22.3856H22.8421C23.2563 22.3856 23.5921 22.0499 23.5921 21.6356C23.5921 21.2214 23.2563 20.8856 22.8421 20.8856H14.7668V17.4699V16.7734V14.7949H22.8421C23.2563 14.7949 23.5921 14.4591 23.5921 14.0449C23.5921 13.6307 23.2563 13.2949 22.8421 13.2949H14.4168C13.7817 13.2949 13.2668 13.8098 13.2668 14.4449V16.7734V17.1199H10.951V17.122H5.89923V11.7062V11.0097V7.03125H10.9745V7.03392H13.2902V9.64971C13.2902 10.2848 13.8051 10.7997 14.4402 10.7997H22.8655C23.2797 10.7997 23.6155 10.4639 23.6155 10.0497C23.6155 9.6355 23.2797 9.29971 22.8655 9.29971H14.7902V5.88392V5.18748V3.20898Z" fill="#71767F"/>
</svg>