<svg width="433" height="201" viewBox="0 0 433 201" fill="none" xmlns="http://www.w3.org/2000/svg">
<g clip-path="url(#clip0_1497_34431)">
<g opacity="0.5">
<path opacity="0.2" fill-rule="evenodd" clip-rule="evenodd" d="M191.383 73.8932C227.928 43.9037 272.032 56.649 314.793 47.7807C366.365 37.085 424.429 -6.27055 463.608 17.4355C504.957 42.4541 514.781 104.462 498.163 158.731C483.187 207.638 429.614 236.325 386.555 269.065C353.726 294.027 320.383 314.086 282.978 322.35C239.757 331.899 192.571 341.887 162.469 318.575C130.353 293.702 121.796 247.534 127.21 201.713C132.612 156.001 152.074 106.151 191.383 73.8932Z" fill="#889BAF"/>
<path opacity="0.25" fill-rule="evenodd" clip-rule="evenodd" d="M241.295 107.52C297.602 110.863 324.141 139.852 367.833 157.134C420.529 177.978 506.358 185.478 519.453 217.545C533.273 251.387 489.11 288.015 429.121 307.214C375.057 324.517 305.443 311.827 241.295 306.565C192.388 302.554 147.195 295.78 108.546 280.92C63.8877 263.75 15.5024 244.782 9.75696 217.545C3.62709 188.485 35.4558 160.579 78.8154 139.975C122.072 119.42 180.729 103.925 241.295 107.52Z" fill="#889BAF"/>
<path opacity="0.25" fill-rule="evenodd" clip-rule="evenodd" d="M141.777 107.75C129.849 85.4187 119.492 61.7993 97.0845 49.9269C73.5358 37.4497 46.1632 36.5853 20.3462 43.4106C-8.43503 51.0197 -35.7859 64.6104 -52.2073 89.3958C-71.2851 118.191 -84.4926 153.485 -74.4147 186.438C-63.9784 220.562 -32.4299 242.122 -0.552106 258.296C32.783 275.208 70.4693 290.632 105.656 277.797C140.827 264.968 166.553 231.034 174.312 194.51C180.99 163.07 156.906 136.074 141.777 107.75Z" fill="#889BAF"/>
<path opacity="0.25" fill-rule="evenodd" clip-rule="evenodd" d="M228.913 75.6286C154.569 72.6879 87.2827 81.3646 28.3603 109.506C-43.6812 143.912 -126.789 180.467 -128.814 246.477C-131.046 319.195 -69.9824 395.149 18.304 437.253C100.433 476.42 197.268 461.835 283.451 443.085C360.167 426.395 418.283 391.169 458.15 341.56C510.389 276.555 596.359 200.275 535.404 129.562C474.744 59.1923 337.039 79.9056 228.913 75.6286Z" fill="#889BAF"/>
</g>
<g clip-path="url(#clip1_1497_34431)">
<path d="M427.056 96.4777H426.443V79.6807C426.443 78.404 426.192 77.1398 425.703 75.9603C425.215 74.7808 424.499 73.7091 423.596 72.8064C422.693 71.9036 421.621 71.1876 420.442 70.699C419.262 70.2104 417.998 69.959 416.722 69.959H381.135C379.858 69.959 378.594 70.2104 377.414 70.699C376.235 71.1876 375.163 71.9036 374.261 72.8064C373.358 73.7091 372.642 74.7808 372.153 75.9603C371.665 77.1398 371.413 78.404 371.413 79.6807V171.831C371.413 173.107 371.665 174.372 372.153 175.551C372.642 176.731 373.358 177.802 374.261 178.705C375.163 179.608 376.235 180.324 377.414 180.812C378.594 181.301 379.858 181.552 381.135 181.552H416.722C417.998 181.552 419.262 181.301 420.442 180.812C421.621 180.324 422.693 179.608 423.596 178.705C424.499 177.802 425.215 176.731 425.703 175.551C426.192 174.372 426.443 173.107 426.443 171.831V108.434H427.056V96.4777Z" fill="#395979"/>
<path d="M424.374 80.252V172.268C424.373 174.194 423.608 176.04 422.247 177.402C420.885 178.764 419.038 179.529 417.112 179.529H381.354C380.401 179.529 379.457 179.341 378.576 178.976C377.696 178.611 376.895 178.076 376.222 177.402C375.548 176.728 375.013 175.927 374.648 175.046C374.284 174.165 374.096 173.221 374.097 172.268V80.252C374.097 78.3271 374.861 76.481 376.222 75.1199C377.584 73.7588 379.43 72.9942 381.354 72.9941H385.693C385.48 73.5178 385.399 74.0858 385.457 74.6481C385.515 75.2104 385.71 75.7498 386.026 76.219C386.341 76.6881 386.767 77.0726 387.266 77.3387C387.764 77.6047 388.321 77.7441 388.886 77.7447H409.274C409.84 77.7458 410.397 77.6074 410.897 77.3418C411.397 77.0762 411.823 76.6916 412.139 76.222C412.455 75.7523 412.65 75.2121 412.707 74.6492C412.764 74.0862 412.682 73.5177 412.467 72.9941H417.112C419.038 72.994 420.884 73.7586 422.246 75.1196C423.607 76.4806 424.373 78.3267 424.374 80.252Z" fill="white"/>
<path d="M418.973 117.562H379.385C378.656 117.562 378.065 118.152 378.065 118.881V128.118C378.065 128.847 378.656 129.438 379.385 129.438H418.973C419.702 129.438 420.293 128.847 420.293 128.118V118.881C420.293 118.152 419.702 117.562 418.973 117.562Z" fill="#B5D3CE"/>
<path d="M419.303 129.438H379.055C378.793 129.438 378.541 129.333 378.356 129.148C378.17 128.962 378.066 128.711 378.065 128.448V118.551C378.066 118.289 378.17 118.037 378.356 117.852C378.541 117.666 378.793 117.562 379.055 117.562H419.303C419.565 117.562 419.817 117.666 420.002 117.852C420.188 118.037 420.292 118.289 420.293 118.551V128.448C420.292 128.711 420.188 128.962 420.002 129.148C419.817 129.333 419.565 129.438 419.303 129.438ZM379.055 118.221C378.968 118.221 378.884 118.256 378.822 118.318C378.76 118.38 378.725 118.464 378.725 118.551V128.448C378.725 128.536 378.76 128.62 378.822 128.681C378.884 128.743 378.968 128.778 379.055 128.778H419.303C419.39 128.778 419.474 128.743 419.536 128.681C419.598 128.62 419.633 128.536 419.633 128.448V118.551C419.633 118.464 419.598 118.38 419.536 118.318C419.474 118.256 419.39 118.221 419.303 118.221H379.055Z" fill="#395979"/>
<path d="M385.935 126.373H380.656V127.032H385.935V126.373Z" fill="#395979"/>
<path d="M393.191 126.373H387.913V127.032H393.191V126.373Z" fill="#395979"/>
<path d="M400.449 126.373H395.171V127.032H400.449V126.373Z" fill="#395979"/>
<path d="M407.707 126.372H402.429V127.032H407.707V126.372Z" fill="#395979"/>
<path d="M414.966 126.372H409.688V127.032H414.966V126.372Z" fill="#395979"/>
<path opacity="0.05" d="M424.374 162.912V172.268C424.373 174.194 423.608 176.04 422.247 177.402C420.885 178.764 419.038 179.529 417.112 179.529H381.354C380.401 179.529 379.457 179.341 378.576 178.976C377.696 178.611 376.895 178.076 376.222 177.402C375.548 176.728 375.013 175.927 374.648 175.046C374.284 174.165 374.096 173.221 374.097 172.268V129.229L424.374 162.912Z" fill="#395979"/>
<path d="M261.28 147.913V147.253H260.62H104.907H104.247V147.913V224.45V225.109H104.907H260.62H261.28V224.45V147.913Z" fill="white" stroke="#395979" stroke-width="1.3196"/>
<path opacity="0.03" d="M221.231 224.353H105.518C105.343 224.352 105.176 224.283 105.052 224.159C104.929 224.036 104.859 223.868 104.858 223.693V148.476C104.859 148.301 104.929 148.133 105.052 148.01C105.176 147.886 105.343 147.816 105.518 147.816H106.983L221.231 224.353Z" fill="#395979"/>
<path d="M411.665 164.641V163.981H411.005H169.188H168.529V164.641V165.3V165.96H169.188H411.005H411.665V165.3V164.641Z" fill="#395979" stroke="#395979" stroke-width="1.3196"/>
<path d="M245.641 4.18078H176.53V2.75635H145.193V4.18078H75.7969C75.183 4.18078 74.5751 4.3017 74.0079 4.53663C73.4407 4.77156 72.9254 5.11591 72.4913 5.55C72.0572 5.9841 71.7128 6.49945 71.4779 7.06663C71.243 7.6338 71.1221 8.2417 71.1221 8.85561V103.49C71.1221 104.729 71.6146 105.919 72.4913 106.795C73.368 107.672 74.5571 108.164 75.7969 108.164H245.641C246.881 108.164 248.07 107.672 248.947 106.795C249.823 105.919 250.316 104.729 250.316 103.49V8.85561C250.316 8.2417 250.195 7.6338 249.96 7.06663C249.725 6.49945 249.381 5.9841 248.947 5.55C248.512 5.11591 247.997 4.77156 247.43 4.53663C246.863 4.3017 246.255 4.18078 245.641 4.18078Z" fill="#395979"/>
<path d="M244.047 12.4409H77.3906V106.456H244.047V12.4409Z" fill="white"/>
<path d="M160.576 9.87812C161.52 9.87812 162.285 9.11283 162.285 8.16879C162.285 7.22476 161.52 6.45947 160.576 6.45947C159.631 6.45947 158.866 7.22476 158.866 8.16879C158.866 9.11283 159.631 9.87812 160.576 9.87812Z" fill="#D7DEE4"/>
<path d="M193.322 59.499H180.126C178.668 59.499 177.486 60.6806 177.486 62.1382V63.4578C177.486 64.9154 178.668 66.097 180.126 66.097H193.322C194.779 66.097 195.961 64.9154 195.961 63.4578V62.1382C195.961 60.6806 194.779 59.499 193.322 59.499Z" fill="#B5D3CE"/>
<path d="M194.953 66.097H178.494C178.227 66.0967 177.971 65.9808 177.782 65.7746C177.593 65.5684 177.487 65.2889 177.486 64.9974V60.5987C177.487 60.3071 177.593 60.0276 177.782 59.8215C177.971 59.6153 178.227 59.4993 178.494 59.499H194.953C195.22 59.4993 195.476 59.6153 195.665 59.8215C195.854 60.0276 195.96 60.3071 195.961 60.5987V64.9974C195.96 65.2889 195.854 65.5684 195.665 65.7746C195.476 65.9808 195.22 66.0967 194.953 66.097ZM178.494 60.2321C178.405 60.2323 178.32 60.2709 178.257 60.3396C178.194 60.4084 178.158 60.5015 178.158 60.5987V64.9974C178.158 65.0946 178.194 65.1877 178.257 65.2564C178.32 65.3251 178.405 65.3638 178.494 65.3639H194.953C195.042 65.3638 195.127 65.3251 195.19 65.2564C195.253 65.1877 195.289 65.0946 195.289 64.9974V60.5987C195.289 60.5015 195.253 60.4084 195.19 60.3396C195.127 60.2709 195.042 60.2323 194.953 60.2321H178.494Z" fill="#395979"/>
<path d="M329.24 98.7676H304.168C302.71 98.7676 301.528 99.9492 301.528 101.407V119.881C301.528 121.339 302.71 122.52 304.168 122.52H329.24C330.698 122.52 331.879 121.339 331.879 119.881V101.407C331.879 99.9492 330.698 98.7676 329.24 98.7676Z" fill="#EDC766"/>
<path fill-rule="evenodd" clip-rule="evenodd" d="M325.896 97.1075V97.7673H327.697V97.1075H328.332C328.332 93.7945 327.137 90.6101 324.999 88.2566C322.86 85.9018 319.951 84.5713 316.909 84.5713C313.868 84.5713 310.958 85.9018 308.819 88.2566C306.681 90.6101 305.486 93.7945 305.486 97.1075V97.7673H307.922V97.1075C307.922 94.4614 308.877 91.9308 310.567 90.0705C312.255 88.2116 314.538 87.1748 316.909 87.1748C319.281 87.1748 321.563 88.2116 323.251 90.0705C324.941 91.9308 325.896 94.4614 325.896 97.1075ZM326.531 97.1075C326.531 97.1075 326.531 97.1075 326.531 97.1075H327.697C327.697 96.8869 327.692 96.6669 327.681 96.4477C327.534 93.5384 326.419 90.7809 324.538 88.7096C322.971 86.9847 320.972 85.8452 318.82 85.4189C320.971 85.8453 322.97 86.9848 324.537 88.7095C326.56 90.9368 327.697 93.9576 327.697 97.1075H326.531ZM318.614 86.6826C318.055 86.5718 317.485 86.515 316.909 86.515C314.357 86.515 311.91 87.6309 310.105 89.6174C308.301 91.6039 307.287 94.2982 307.287 97.1075H306.121C306.121 97.1075 306.121 97.1075 306.121 97.1075H307.287C307.287 94.2982 308.301 91.604 310.105 89.6175C311.91 87.631 314.357 86.515 316.909 86.515C317.485 86.515 318.055 86.5718 318.614 86.6826Z" fill="#EDC766"/>
<path d="M163.085 188.394H157.807V189.053H163.085V188.394Z" fill="#395979"/>
<path d="M170.344 188.394H165.065V189.053H170.344V188.394Z" fill="#395979"/>
<path d="M177.602 188.394H172.323V189.053H177.602V188.394Z" fill="#395979"/>
<path d="M184.859 188.394H179.581V189.053H184.859V188.394Z" fill="#395979"/>
<path d="M192.118 188.394H186.84V189.053H192.118V188.394Z" fill="#395979"/>
<path d="M259.912 225.342H105.189C104.839 225.342 104.503 225.203 104.256 224.956C104.009 224.708 103.87 224.373 103.869 224.023V148.805C103.87 148.456 104.009 148.12 104.256 147.873C104.503 147.625 104.839 147.486 105.189 147.486H259.912C260.262 147.486 260.597 147.625 260.845 147.873C261.092 148.12 261.231 148.456 261.232 148.805V224.023C261.231 224.373 261.092 224.708 260.845 224.956C260.597 225.203 260.262 225.342 259.912 225.342ZM105.189 148.805V224.023H259.913L259.912 148.805H105.189Z" fill="#395979"/>
<path d="M112.117 160.022C113.21 160.022 114.097 159.136 114.097 158.042C114.097 156.949 113.21 156.063 112.117 156.063C111.024 156.063 110.138 156.949 110.138 158.042C110.138 159.136 111.024 160.022 112.117 160.022Z" fill="#395979"/>
<path d="M119.044 160.022C120.137 160.022 121.023 159.136 121.023 158.042C121.023 156.949 120.137 156.063 119.044 156.063C117.951 156.063 117.064 156.949 117.064 158.042C117.064 159.136 117.951 160.022 119.044 160.022Z" fill="#395979"/>
<path d="M125.972 160.022C127.065 160.022 127.951 159.136 127.951 158.042C127.951 156.949 127.065 156.063 125.972 156.063C124.878 156.063 123.992 156.949 123.992 158.042C123.992 159.136 124.878 160.022 125.972 160.022Z" fill="#395979"/>
<path d="M197.23 193.012H152.694C152.431 193.012 152.18 192.908 151.994 192.722C151.809 192.537 151.704 192.285 151.704 192.023V180.806C151.704 180.544 151.809 180.292 151.994 180.107C152.18 179.921 152.431 179.817 152.694 179.816H197.23C197.493 179.817 197.744 179.921 197.93 180.107C198.115 180.292 198.22 180.544 198.22 180.806V192.023C198.22 192.285 198.115 192.537 197.93 192.722C197.744 192.908 197.493 193.012 197.23 193.012ZM152.694 180.476C152.606 180.476 152.522 180.511 152.461 180.573C152.399 180.635 152.364 180.719 152.364 180.806V192.023C152.364 192.11 152.399 192.194 152.461 192.256C152.522 192.318 152.606 192.353 152.694 192.353H197.23C197.318 192.353 197.402 192.318 197.464 192.256C197.525 192.194 197.56 192.11 197.56 192.023V180.806C197.56 180.719 197.525 180.635 197.464 180.573C197.402 180.511 197.318 180.476 197.23 180.476H152.694Z" fill="#395979"/>
<path d="M210.475 192.779C214.119 192.779 217.073 189.825 217.073 186.181C217.073 182.537 214.119 179.583 210.475 179.583C206.831 179.583 203.877 182.537 203.877 186.181C203.877 189.825 206.831 192.779 210.475 192.779Z" fill="#B5D3CE"/>
<path d="M210.475 192.779C209.17 192.779 207.894 192.392 206.809 191.667C205.724 190.942 204.879 189.912 204.379 188.706C203.88 187.5 203.749 186.174 204.004 184.894C204.258 183.614 204.887 182.438 205.809 181.516C206.732 180.593 207.908 179.964 209.188 179.71C210.468 179.455 211.794 179.586 213 180.085C214.206 180.585 215.236 181.43 215.961 182.515C216.686 183.6 217.073 184.876 217.073 186.181C217.071 187.93 216.375 189.607 215.138 190.844C213.901 192.081 212.224 192.777 210.475 192.779ZM210.475 180.278C209.307 180.278 208.166 180.624 207.195 181.272C206.224 181.921 205.468 182.843 205.021 183.922C204.574 185.001 204.457 186.188 204.685 187.333C204.913 188.478 205.475 189.53 206.301 190.355C207.126 191.181 208.178 191.743 209.323 191.971C210.468 192.199 211.655 192.082 212.734 191.635C213.813 191.188 214.735 190.432 215.384 189.461C216.032 188.49 216.378 187.349 216.378 186.181C216.377 184.616 215.754 183.115 214.647 182.009C213.541 180.902 212.04 180.279 210.475 180.278Z" fill="#395979"/>
<path d="M210.514 188.755L207.32 185.561L208.253 184.628L210.338 186.712L216.155 178.446L217.234 179.206L210.514 188.755Z" fill="#395979"/>
<path opacity="0.04" d="M207.098 106.456H77.3906V19.5635L207.098 106.456Z" fill="#395979"/>
<path d="M254.995 104.746H238.73V103.574C238.73 103.543 238.724 103.513 238.713 103.485C238.701 103.457 238.684 103.431 238.662 103.409C238.641 103.388 238.615 103.371 238.587 103.359C238.559 103.347 238.529 103.341 238.498 103.341H232.922C232.891 103.341 232.861 103.347 232.833 103.359C232.804 103.371 232.779 103.388 232.757 103.409C232.736 103.431 232.719 103.457 232.707 103.485C232.695 103.513 232.689 103.543 232.689 103.574V104.746H229.204V103.574C229.204 103.543 229.198 103.513 229.186 103.485C229.175 103.457 229.157 103.431 229.136 103.409C229.114 103.388 229.089 103.371 229.06 103.359C229.032 103.347 229.002 103.341 228.972 103.341H223.395C223.365 103.341 223.334 103.347 223.306 103.359C223.278 103.371 223.252 103.388 223.231 103.409C223.209 103.431 223.192 103.457 223.18 103.485C223.169 103.513 223.163 103.543 223.163 103.574V104.746H219.677V103.574C219.677 103.543 219.671 103.513 219.66 103.485C219.648 103.457 219.631 103.431 219.609 103.409C219.588 103.388 219.562 103.371 219.534 103.359C219.506 103.347 219.476 103.341 219.445 103.341H213.869C213.838 103.341 213.808 103.347 213.78 103.359C213.751 103.371 213.726 103.388 213.704 103.409C213.683 103.431 213.666 103.457 213.654 103.485C213.642 103.513 213.636 103.543 213.636 103.574V104.746H210.151V103.574C210.151 103.543 210.145 103.513 210.133 103.485C210.121 103.457 210.104 103.431 210.083 103.409C210.061 103.388 210.036 103.371 210.007 103.359C209.979 103.347 209.949 103.341 209.919 103.341H204.342C204.311 103.341 204.281 103.347 204.253 103.359C204.225 103.371 204.199 103.388 204.178 103.409C204.156 103.431 204.139 103.457 204.127 103.485C204.116 103.513 204.11 103.543 204.11 103.574V104.746H200.624V103.574C200.624 103.543 200.618 103.513 200.607 103.485C200.595 103.457 200.578 103.431 200.556 103.409C200.535 103.388 200.509 103.371 200.481 103.359C200.453 103.347 200.422 103.341 200.392 103.341H194.815C194.785 103.341 194.755 103.347 194.727 103.359C194.698 103.371 194.673 103.388 194.651 103.409C194.63 103.431 194.612 103.457 194.601 103.485C194.589 103.513 194.583 103.543 194.583 103.574V104.746H191.098V103.574C191.098 103.543 191.092 103.513 191.08 103.485C191.068 103.457 191.051 103.431 191.03 103.409C191.008 103.388 190.983 103.371 190.954 103.359C190.926 103.347 190.896 103.341 190.865 103.341H185.289C185.258 103.341 185.228 103.347 185.2 103.359C185.172 103.371 185.146 103.388 185.125 103.409C185.103 103.431 185.086 103.457 185.074 103.485C185.063 103.513 185.057 103.543 185.057 103.574V104.746H181.571V103.574C181.571 103.543 181.565 103.513 181.554 103.485C181.542 103.457 181.525 103.431 181.503 103.409C181.482 103.388 181.456 103.371 181.428 103.359C181.4 103.347 181.369 103.341 181.339 103.341H137.656C137.626 103.341 137.596 103.347 137.567 103.359C137.539 103.371 137.514 103.388 137.492 103.409C137.47 103.431 137.453 103.457 137.442 103.485C137.43 103.513 137.424 103.543 137.424 103.574V104.746H133.939V103.574C133.939 103.543 133.933 103.513 133.921 103.485C133.909 103.457 133.892 103.431 133.871 103.409C133.849 103.388 133.823 103.371 133.795 103.359C133.767 103.347 133.737 103.341 133.706 103.341H128.13C128.099 103.341 128.069 103.347 128.041 103.359C128.013 103.371 127.987 103.388 127.965 103.409C127.944 103.431 127.927 103.457 127.915 103.485C127.903 103.513 127.897 103.543 127.897 103.574V104.746H124.412V103.574C124.412 103.543 124.406 103.513 124.394 103.485C124.383 103.457 124.366 103.431 124.344 103.409C124.322 103.388 124.297 103.371 124.269 103.359C124.24 103.347 124.21 103.341 124.18 103.341H118.603C118.573 103.341 118.543 103.347 118.514 103.359C118.486 103.371 118.461 103.388 118.439 103.409C118.417 103.431 118.4 103.457 118.389 103.485C118.377 103.513 118.371 103.543 118.371 103.574V104.746H114.886V103.574C114.886 103.543 114.88 103.513 114.868 103.485C114.856 103.457 114.839 103.431 114.818 103.409C114.796 103.388 114.77 103.371 114.742 103.359C114.714 103.347 114.684 103.341 114.653 103.341H109.077C109.046 103.341 109.016 103.347 108.988 103.359C108.96 103.371 108.934 103.388 108.912 103.409C108.891 103.431 108.874 103.457 108.862 103.485C108.85 103.513 108.844 103.543 108.844 103.574V104.746H105.359V103.574C105.359 103.543 105.353 103.513 105.341 103.485C105.33 103.457 105.313 103.431 105.291 103.409C105.269 103.388 105.244 103.371 105.216 103.359C105.187 103.347 105.157 103.341 105.127 103.341H99.5502C99.5197 103.341 99.4895 103.347 99.4613 103.359C99.4331 103.371 99.4075 103.388 99.3859 103.409C99.3643 103.431 99.3472 103.457 99.3355 103.485C99.3239 103.513 99.3178 103.543 99.3178 103.574V104.746H95.8325V103.574C95.8326 103.543 95.8265 103.513 95.8149 103.485C95.8032 103.457 95.7861 103.431 95.7645 103.409C95.7429 103.388 95.7173 103.371 95.6891 103.359C95.6609 103.347 95.6307 103.341 95.6002 103.341H90.0237C89.9932 103.341 89.963 103.347 89.9348 103.359C89.9066 103.371 89.881 103.388 89.8594 103.409C89.8378 103.431 89.8207 103.457 89.809 103.485C89.7973 103.513 89.7913 103.543 89.7913 103.574V104.746H86.306V103.574C86.306 103.543 86.3 103.513 86.2883 103.485C86.2766 103.457 86.2595 103.431 86.238 103.409C86.2164 103.388 86.1908 103.371 86.1626 103.359C86.1344 103.347 86.1042 103.341 86.0737 103.341H80.4972C80.4666 103.341 80.4364 103.347 80.4082 103.359C80.38 103.371 80.3544 103.388 80.3329 103.409C80.3113 103.431 80.2942 103.457 80.2825 103.485C80.2708 103.513 80.2648 103.543 80.2648 103.574V104.746H69.5765C68.8442 104.746 68.119 104.89 67.4425 105.17C66.7659 105.45 66.1511 105.861 65.6333 106.379C65.1155 106.897 64.7047 107.511 64.4245 108.188C64.1442 108.865 64 109.59 64 110.322V112.844C64 114.323 64.5875 115.741 65.6333 116.787C66.6791 117.833 68.0975 118.42 69.5765 118.42H254.995C255.728 118.42 256.453 118.276 257.129 117.996C257.806 117.715 258.421 117.305 258.938 116.787C259.456 116.269 259.867 115.654 260.147 114.978C260.427 114.301 260.572 113.576 260.572 112.844V110.322C260.572 109.59 260.427 108.865 260.147 108.188C259.867 107.511 259.456 106.897 258.938 106.379C258.421 105.861 257.806 105.45 257.129 105.17C256.453 104.89 255.728 104.746 254.995 104.746Z" fill="#395979"/>
<path d="M204.159 74.5776H117.065C116.802 74.5773 116.551 74.4729 116.365 74.2874C116.18 74.1019 116.075 73.8503 116.075 73.5879V37.2988C116.075 37.0364 116.18 36.7848 116.365 36.5993C116.551 36.4137 116.802 36.3094 117.065 36.3091H204.159C204.421 36.3094 204.673 36.4137 204.858 36.5993C205.044 36.7848 205.148 37.0364 205.148 37.2988V73.5879C205.148 73.8503 205.044 74.1019 204.858 74.2874C204.673 74.4729 204.421 74.5773 204.159 74.5776ZM117.065 36.9689C116.977 36.969 116.894 37.0038 116.832 37.0656C116.77 37.1275 116.735 37.2113 116.735 37.2988V73.5879C116.735 73.6754 116.77 73.7592 116.832 73.821C116.894 73.8829 116.977 73.9177 117.065 73.9178H204.159C204.246 73.9177 204.33 73.8829 204.392 73.821C204.454 73.7592 204.488 73.6754 204.489 73.5879V37.2988C204.488 37.2113 204.454 37.1275 204.392 37.0656C204.33 37.0038 204.246 36.969 204.159 36.9689H117.065Z" fill="#395979"/>
<mask id="path-41-outside-1_1497_34431" maskUnits="userSpaceOnUse" x="299.529" y="83.0566" width="35" height="42" fill="black">
<rect fill="white" x="299.529" y="83.0566" width="35" height="42"/>
<path fill-rule="evenodd" clip-rule="evenodd" d="M304.586 98.7674L304.587 98.7422C304.589 98.7106 304.593 98.6679 304.597 98.6147C304.606 98.5085 304.62 98.3602 304.641 98.1759C304.683 97.8078 304.755 97.2927 304.874 96.679C305.111 95.4606 305.545 93.8068 306.337 92.129C307.939 88.7357 311.145 85.0566 317.117 85.0566C320.02 85.0566 322.317 85.9397 324.075 87.3461C325.802 88.7277 326.9 90.5254 327.604 92.213C328.307 93.9024 328.65 95.5642 328.819 96.7845C328.905 97.3998 328.948 97.9159 328.97 98.2846C328.981 98.4692 328.987 98.6177 328.99 98.7241C328.99 98.7394 328.991 98.7539 328.991 98.7674H329.241C330.699 98.7674 331.88 99.949 331.88 101.407V119.881C331.88 121.339 330.699 122.52 329.241 122.52H304.169C302.711 122.52 301.529 121.339 301.529 119.881V101.407C301.529 99.949 302.711 98.7674 304.169 98.7674H304.586ZM325.03 98.7674C325.028 98.7035 325.024 98.6202 325.018 98.5198C325.002 98.2389 324.968 97.8272 324.898 97.3291C324.759 96.3226 324.482 95.0153 323.949 93.7356C323.415 92.454 322.658 91.2826 321.602 90.4374C320.576 89.617 319.161 89.0155 317.117 89.0155C313.192 89.0155 311.118 91.2746 309.917 93.8195C309.307 95.1108 308.957 96.4262 308.76 97.4346C308.663 97.9342 308.606 98.347 308.574 98.6285C308.568 98.6793 308.563 98.7257 308.559 98.7674H325.03Z"/>
</mask>
<path d="M304.586 98.7674V100.767H306.458L306.581 98.8988L304.586 98.7674ZM304.587 98.7422L302.592 98.6045L302.592 98.6108L304.587 98.7422ZM304.597 98.6147L306.59 98.7808L306.59 98.7808L304.597 98.6147ZM304.641 98.1759L302.654 97.9472L302.654 97.9472L304.641 98.1759ZM304.874 96.679L302.911 96.2972L302.911 96.2972L304.874 96.679ZM306.337 92.129L308.145 92.9831L308.145 92.9831L306.337 92.129ZM324.075 87.3461L325.324 85.7843V85.7843L324.075 87.3461ZM327.604 92.213L325.757 92.9822L325.757 92.9822L327.604 92.213ZM328.819 96.7845L326.839 97.0596L326.839 97.0596L328.819 96.7845ZM328.97 98.2846L330.967 98.1657V98.1657L328.97 98.2846ZM328.99 98.7241L326.991 98.7797V98.7797L328.99 98.7241ZM328.991 98.7674L326.991 98.8147L327.038 100.767H328.991V98.7674ZM325.03 98.7674V100.767H327.104L327.029 98.6948L325.03 98.7674ZM325.018 98.5198L323.022 98.6386V98.6386L325.018 98.5198ZM324.898 97.3291L322.917 97.6042L322.917 97.6042L324.898 97.3291ZM323.949 93.7356L325.795 92.9663L325.795 92.9663L323.949 93.7356ZM321.602 90.4374L322.851 88.8757V88.8757L321.602 90.4374ZM309.917 93.8195L308.108 92.9655V92.9655L309.917 93.8195ZM308.76 97.4346L310.724 97.8163L308.76 97.4346ZM308.574 98.6285L310.561 98.8571L308.574 98.6285ZM308.559 98.7674L306.569 98.5623L306.342 100.767H308.559V98.7674ZM306.581 98.8988L306.583 98.8735L302.592 98.6108L302.59 98.6361L306.581 98.8988ZM306.582 98.8798C306.584 98.8574 306.586 98.8242 306.59 98.7808L302.604 98.4486C302.599 98.5116 302.595 98.5638 302.592 98.6045L306.582 98.8798ZM306.59 98.7808C306.597 98.694 306.609 98.5667 306.628 98.4045L302.654 97.9472C302.63 98.1537 302.614 98.3229 302.604 98.4486L306.59 98.7808ZM306.628 98.4045C306.665 98.0802 306.73 97.6168 306.838 97.0607L302.911 96.2972C302.781 96.9687 302.701 97.5354 302.654 97.9472L306.628 98.4045ZM306.838 97.0607C307.054 95.9484 307.445 94.4656 308.145 92.9831L304.528 91.275C303.644 93.148 303.169 94.9727 302.911 96.2972L306.838 97.0607ZM308.145 92.9831C309.548 90.0126 312.183 87.0566 317.117 87.0566V83.0566C310.106 83.0566 306.33 87.4588 304.528 91.275L308.145 92.9831ZM317.117 87.0566C319.586 87.0566 321.438 87.7976 322.825 88.9078L325.324 85.7843C323.196 84.0818 320.454 83.0566 317.117 83.0566V87.0566ZM322.825 88.9078C324.214 90.0183 325.14 91.4995 325.757 92.9822L329.45 91.4437C328.661 89.5512 327.39 87.437 325.324 85.7843L322.825 88.9078ZM325.757 92.9822C326.375 94.4646 326.684 95.9474 326.839 97.0596L330.8 96.5093C330.616 95.1809 330.24 93.3401 329.45 91.4437L325.757 92.9822ZM326.839 97.0596C326.916 97.6157 326.954 98.0791 326.974 98.4034L330.967 98.1657C330.942 97.7527 330.894 97.1838 330.8 96.5093L326.839 97.0596ZM326.974 98.4034C326.983 98.5655 326.988 98.6929 326.991 98.7797L330.989 98.6686C330.985 98.5425 330.979 98.3728 330.967 98.1657L326.974 98.4034ZM326.991 98.7797C326.991 98.7921 326.991 98.8038 326.991 98.8147L330.99 98.7202C330.99 98.704 330.99 98.6867 330.989 98.6686L326.991 98.7797ZM329.241 96.7674H328.991V100.767H329.241V96.7674ZM333.88 101.407C333.88 98.8445 331.803 96.7674 329.241 96.7674V100.767C329.594 100.767 329.88 101.054 329.88 101.407H333.88ZM333.88 119.881V101.407H329.88V119.881H333.88ZM329.241 124.52C331.803 124.52 333.88 122.443 333.88 119.881H329.88C329.88 120.234 329.594 120.52 329.241 120.52V124.52ZM304.169 124.52H329.241V120.52H304.169V124.52ZM299.529 119.881C299.529 122.443 301.606 124.52 304.169 124.52V120.52C303.815 120.52 303.529 120.234 303.529 119.881H299.529ZM299.529 101.407V119.881H303.529V101.407H299.529ZM304.169 96.7674C301.606 96.7674 299.529 98.8445 299.529 101.407H303.529C303.529 101.054 303.815 100.767 304.169 100.767V96.7674ZM304.586 96.7674H304.169V100.767H304.586V96.7674ZM327.029 98.6948C327.026 98.6162 327.022 98.5175 327.015 98.4009L323.022 98.6386C323.027 98.7229 323.03 98.7907 323.032 98.84L327.029 98.6948ZM327.015 98.4009C326.995 98.0757 326.957 97.6113 326.879 97.054L322.917 97.6042C322.978 98.0432 323.008 98.4021 323.022 98.6386L327.015 98.4009ZM326.879 97.054C326.725 95.9395 326.415 94.4531 325.795 92.9663L322.103 94.5048C322.55 95.5775 322.793 96.7057 322.917 97.6042L326.879 97.054ZM325.795 92.9663C325.176 91.4794 324.246 89.9917 322.851 88.8757L320.352 91.9991C321.07 92.5736 321.655 93.4287 322.103 94.5048L325.795 92.9663ZM322.851 88.8757C321.456 87.7593 319.596 87.0155 317.117 87.0155V91.0155C318.727 91.0155 319.697 91.4746 320.352 91.9991L322.851 88.8757ZM317.117 87.0155C314.738 87.0155 312.808 87.7108 311.283 88.8721C309.789 90.0102 308.795 91.5102 308.108 92.9655L311.725 94.6735C312.24 93.5839 312.883 92.6819 313.707 92.0542C314.501 91.4497 315.57 91.0155 317.117 91.0155V87.0155ZM308.108 92.9655C307.406 94.4521 307.014 95.9384 306.797 97.0529L310.724 97.8163C310.899 96.9139 311.208 95.7695 311.725 94.6735L308.108 92.9655ZM306.797 97.0529C306.689 97.6102 306.624 98.0746 306.587 98.3998L310.561 98.8571C310.588 98.6194 310.638 98.2583 310.724 97.8163L306.797 97.0529ZM306.587 98.3998C306.58 98.4587 306.574 98.5129 306.569 98.5623L310.548 98.9725C310.552 98.9384 310.556 98.8999 310.561 98.8571L306.587 98.3998ZM325.03 96.7674H308.559V100.767H325.03V96.7674Z" fill="#395979" mask="url(#path-41-outside-1_1497_34431)"/>
<path fill-rule="evenodd" clip-rule="evenodd" d="M308.536 99.0237C308.536 99.023 308.536 99.0223 306.559 98.9125C304.583 98.8027 304.583 98.8018 304.583 98.8009L304.583 98.7989L304.583 98.7941L304.584 98.7811L304.587 98.7422C304.589 98.7106 304.592 98.6679 304.597 98.6147C304.605 98.5085 304.619 98.3602 304.641 98.1759C304.683 97.8078 304.755 97.2927 304.874 96.679C305.111 95.4606 305.544 93.8068 306.336 92.129C307.939 88.7357 311.144 85.0566 317.116 85.0566C320.02 85.0566 322.316 85.9397 324.074 87.3461C325.801 88.7277 326.9 90.5254 327.603 92.213C328.307 93.9024 328.65 95.5642 328.819 96.7845C328.904 97.3998 328.948 97.9159 328.97 98.2846C328.981 98.4692 328.986 98.6177 328.989 98.7241C328.991 98.7774 328.992 98.8202 328.992 98.8518L328.992 98.8908L328.992 98.9038L328.992 98.9087L328.993 98.9107C328.993 98.9116 328.993 98.9125 327.013 98.9125C325.034 98.9125 325.034 98.9132 325.034 98.914L325.034 98.9152L325.034 98.905C325.033 98.8917 325.033 98.8678 325.032 98.8341C325.03 98.7665 325.026 98.6599 325.018 98.5198C325.001 98.2389 324.967 97.8272 324.898 97.3291C324.758 96.3226 324.482 95.0153 323.949 93.7356C323.415 92.454 322.658 91.2826 321.601 90.4374C320.576 89.617 319.161 89.0155 317.116 89.0155C313.191 89.0155 311.118 91.2746 309.916 93.8195C309.306 95.1108 308.956 96.4262 308.76 97.4346C308.663 97.9342 308.606 98.347 308.573 98.6285C308.557 98.7689 308.547 98.8758 308.542 98.9435C308.539 98.9773 308.537 99.0013 308.536 99.0147L308.535 99.025L308.536 99.0237Z" fill="#EDC766"/>
<path d="M321.323 107.874C321.324 107.208 321.115 106.554 320.717 105.975C320.318 105.397 319.744 104.915 319.051 104.576C318.359 104.238 317.571 104.055 316.767 104.046C315.963 104.037 315.17 104.202 314.466 104.525C313.763 104.848 313.173 105.317 312.756 105.886C312.339 106.455 312.108 107.105 312.087 107.77C312.067 108.436 312.256 109.094 312.637 109.681C313.018 110.267 313.577 110.761 314.26 111.114V115.218C314.26 115.483 314.323 115.747 314.446 115.992C314.569 116.238 314.749 116.461 314.976 116.649C315.203 116.837 315.472 116.986 315.769 117.088C316.066 117.19 316.384 117.242 316.705 117.242C317.353 117.242 317.975 117.029 318.434 116.649C318.892 116.269 319.15 115.755 319.15 115.218V111.114C319.814 110.771 320.363 110.294 320.743 109.727C321.123 109.16 321.323 108.522 321.323 107.874Z" fill="#395979"/>
<path opacity="0.05" d="M319.097 111.551L303.101 99.9116C302.447 99.4355 301.529 99.9028 301.529 100.712V121.531C301.529 122.077 301.972 122.52 302.519 122.52H329.207C330.125 122.52 330.549 121.378 329.851 120.78L319.097 111.551Z" fill="#2E4761"/>
<path d="M393.852 91.7324V91.0726H393.192H151.375H150.715V91.7324V92.3922V93.052H151.375H393.192H393.852V92.3922V91.7324Z" fill="#395979" stroke="#395979" stroke-width="1.3196"/>
<mask id="mask0_1497_34431" style="mask-type:alpha" maskUnits="userSpaceOnUse" x="304" y="85" width="25" height="15">
<path fill-rule="evenodd" clip-rule="evenodd" d="M308.535 99.0237C308.535 99.023 308.535 99.0223 306.558 98.9125C304.582 98.8027 304.582 98.8018 304.582 98.8009L304.582 98.7989L304.582 98.7941L304.583 98.7811L304.586 98.7422C304.588 98.7106 304.591 98.6679 304.596 98.6147C304.604 98.5085 304.618 98.3602 304.64 98.1759C304.682 97.8078 304.754 97.2927 304.873 96.679C305.11 95.4606 305.543 93.8068 306.335 92.129C307.938 88.7357 311.143 85.0566 317.115 85.0566C320.019 85.0566 322.315 85.9397 324.073 87.3461C325.8 88.7277 326.899 90.5254 327.602 92.213C328.306 93.9024 328.649 95.5642 328.818 96.7845C328.904 97.3998 328.947 97.9159 328.969 98.2846C328.98 98.4692 328.985 98.6177 328.988 98.7241C328.99 98.7774 328.991 98.8202 328.991 98.8518L328.991 98.8908L328.992 98.9038L328.992 98.9087L328.992 98.9107C328.992 98.9116 328.992 98.9125 327.012 98.9125C325.033 98.9125 325.033 98.9132 325.033 98.914L325.033 98.9152L325.033 98.905C325.032 98.8917 325.032 98.8678 325.031 98.8341C325.029 98.7665 325.025 98.6599 325.017 98.5198C325 98.2389 324.966 97.8272 324.897 97.3291C324.757 96.3226 324.481 95.0153 323.948 93.7356C323.414 92.454 322.657 91.2826 321.6 90.4374C320.575 89.617 319.16 89.0155 317.115 89.0155C313.19 89.0155 311.117 91.2746 309.915 93.8195C309.305 95.1108 308.955 96.4262 308.759 97.4346C308.662 97.9342 308.605 98.347 308.572 98.6285C308.556 98.7689 308.546 98.8758 308.541 98.9435C308.538 98.9773 308.536 99.0013 308.535 99.0147L308.534 99.025L308.535 99.0237Z" fill="black"/>
</mask>
<g mask="url(#mask0_1497_34431)">
<rect x="320.002" y="89.8496" width="9.23722" height="5.27842" fill="#EDC766"/>
</g>
<path d="M197.56 44.8867H122.343V45.5465H197.56V44.8867Z" fill="#395979"/>
<path d="M157.972 51.4844H122.343V52.1442H157.972V51.4844Z" fill="#395979"/>
<path d="M151.374 96.351C153.925 96.351 155.993 94.2832 155.993 91.7324C155.993 89.1816 153.925 87.1138 151.374 87.1138C148.824 87.1138 146.756 89.1816 146.756 91.7324C146.756 94.2832 148.824 96.351 151.374 96.351Z" fill="#395979"/>
<path d="M393.191 96.021C395.196 96.021 396.82 94.3963 396.82 92.3921C396.82 90.3879 395.196 88.7632 393.191 88.7632C391.187 88.7632 389.562 90.3879 389.562 92.3921C389.562 94.3963 391.187 96.021 393.191 96.021Z" fill="#395979"/>
<path d="M411.007 168.929C413.011 168.929 414.636 167.304 414.636 165.3C414.636 163.296 413.011 161.671 411.007 161.671C409.003 161.671 407.378 163.296 407.378 165.3C407.378 167.304 409.003 168.929 411.007 168.929Z" fill="#395979"/>
<path d="M170.179 168.929C172.183 168.929 173.808 167.304 173.808 165.3C173.808 163.296 172.183 161.671 170.179 161.671C168.175 161.671 166.55 163.296 166.55 165.3C166.55 167.304 168.175 168.929 170.179 168.929Z" fill="#395979"/>
</g>
</g>
<defs>
<clipPath id="clip0_1497_34431">
<rect width="433" height="201" fill="white"/>
</clipPath>
<clipPath id="clip1_1497_34431">
<rect width="363.056" height="228.195" fill="white" transform="translate(64 2.75586)"/>
</clipPath>
</defs>
</svg>
