<svg width="25" height="24" viewBox="0 0 25 24" fill="none" xmlns="http://www.w3.org/2000/svg">
<path d="M4.13867 6.08887V18H14.1387V16H16.1387V18H18.7422L20.9736 19.8193C20.7189 19.938 20.4414 20 20.1387 20H4.13867C3.58867 20 3.11823 19.8038 2.72656 19.4121C2.3349 19.0204 2.13867 18.55 2.13867 18V6C2.13867 5.54171 2.27591 5.13937 2.54785 4.79102L4.13867 6.08887ZM12.1387 6H20.1387C20.6887 6 21.1591 6.19622 21.5508 6.58789C21.9424 6.97956 22.1387 7.45 22.1387 8V18C22.1387 18.0616 22.1348 18.122 22.1299 18.1816L20.1387 16.5576V8H16.1387V10H14.1387V8H11.3135L9.31348 6H7.19434L4.74219 4H10.1387L12.1387 6ZM16.29 16H16.1387V15.876L16.29 16ZM18.1387 14.9258L17.0029 14H18.1387V14.9258ZM16.1387 13.2949L14.5508 12H16.1387V13.2949ZM18.1387 12H16.1387V10H18.1387V12Z" fill="#395979"/>
<path d="M0.224657 4.00005C0.573633 3.57219 1.20391 3.50775 1.63188 3.85649L22.1622 20.6016C22.59 20.9506 22.6545 21.5809 22.3057 22.0088C21.9567 22.4367 21.3265 22.5011 20.8985 22.1524L0.368212 5.40727C-0.0596481 5.0583 -0.124088 4.42802 0.224657 4.00005Z" fill="#395979"/>
</svg>
