<svg width="320" height="71" viewBox="0 0 320 71" fill="none" xmlns="http://www.w3.org/2000/svg">
<path d="M74.6579 38.3908C74.4084 37.794 73.9445 37.3137 73.3587 37.0458C72.7728 36.7779 72.1081 36.742 71.4971 36.9454L61.1529 13.8188C61.5639 13.4132 61.8603 12.905 62.0118 12.3462C62.1632 11.7874 62.1643 11.1982 62.0149 10.6388C61.7013 9.9566 61.1358 9.42411 60.4384 9.15427C59.7411 8.88443 58.9667 8.89848 58.2795 9.19342C57.9921 9.48251 57.4175 9.77159 57.4175 10.0607L41.0391 3.12267C41.114 2.62189 41.0124 2.11051 40.7517 1.67726C40.4381 0.995021 39.8727 0.462524 39.1753 0.192687C38.478 -0.0771503 37.7036 -0.0631063 37.0163 0.231841C36.5112 0.453528 36.0802 0.816664 35.7745 1.27796C35.4688 1.73926 35.3014 2.27926 35.2923 2.83359L16.6152 9.19342C16.2379 8.62937 15.6751 8.21713 15.0257 8.02916C14.3763 7.84119 13.6818 7.88951 13.0643 8.16563C12.4468 8.44175 11.9457 8.928 11.6492 9.53893C11.3527 10.1499 11.2797 10.8464 11.4431 11.5061C11.7682 12.1211 12.2685 12.6244 12.8798 12.9515L3.11023 30.5856C2.61247 30.5102 2.10417 30.6125 1.67353 30.8747C1.34274 30.9943 1.04037 31.1819 0.785707 31.4256C0.531048 31.6694 0.329696 31.9639 0.194506 32.2903C0.0593163 32.6167 -0.00674306 32.9679 0.000543419 33.3215C0.0078299 33.675 0.0883044 34.0232 0.236827 34.3437C0.506045 34.8747 0.918193 35.3189 1.42625 35.6255C1.93432 35.9322 2.51783 36.0891 3.11023 36.0782L12.0178 56.0249C11.4763 56.3962 11.0893 56.9548 10.9304 57.5943C10.7715 58.2339 10.8517 58.9099 11.1557 59.4939C11.4694 60.1762 12.0349 60.7086 12.7322 60.9785C13.4295 61.2483 14.2039 61.2343 14.8912 60.9393C15.4046 60.7122 15.8147 60.2996 16.0405 59.783L34.1429 68.1664C34.0999 68.5739 34.2017 68.9836 34.4303 69.3227C34.7439 70.005 35.3094 70.5375 36.0067 70.8073C36.7041 71.0772 37.4785 71.0631 38.1657 70.7682C38.6708 70.5465 39.1019 70.1833 39.4075 69.722C39.7132 69.2607 39.8806 68.7207 39.8897 68.1664L59.7162 61.5175C60.1157 62.0282 60.6552 62.4099 61.268 62.6155C61.8808 62.821 62.5401 62.8413 63.1643 62.6738C63.8424 62.3583 64.3717 61.7894 64.6399 61.0878C64.9081 60.3862 64.8941 59.6071 64.601 58.9157C64.2758 58.3008 63.7755 57.7975 63.1643 57.4703L71.2098 42.1489C71.7225 42.3865 72.2968 42.4547 72.8504 42.3436C73.404 42.2325 73.9084 41.9479 74.2913 41.5306C74.6742 41.1133 74.9159 40.5847 74.9818 40.0206C75.0476 39.4566 74.9342 38.886 74.6579 38.3908ZM37.0163 49.1447L51.958 48.8556C51.915 49.2631 52.0168 49.6728 52.2453 50.012C52.559 50.6942 53.1245 51.2267 53.8218 51.4966C54.5191 51.7664 55.2935 51.7523 55.9808 51.4574L60.0035 57.8172L37.0163 49.1447ZM5.12161 34.9797L12.8798 39.3159C12.737 39.6339 12.6631 39.9788 12.6631 40.3277C12.6631 40.6766 12.737 41.0215 12.8798 41.3395C13.0636 41.7623 13.3399 42.1379 13.6882 42.4383C14.0365 42.7386 14.4477 42.9559 14.8912 43.074L13.7418 56.0827H12.8798L3.97224 36.136C4.25958 35.5 4.83427 35.2109 5.12161 34.9218V34.9797ZM60.2909 14.1657L70.6351 37.2923L69.7731 38.1596L56.2681 26.8853C56.5566 26.1418 56.5566 25.3162 56.2681 24.5727C56.0532 24.1376 55.761 23.7457 55.4061 23.4163L58.5668 14.1657H60.2909ZM53.682 46.2539C53.0708 46.581 52.5705 47.0843 52.2453 47.6993L36.729 47.9884C36.772 47.5809 36.6702 47.1713 36.4417 46.8321C36.2267 46.397 35.9346 46.0052 35.5796 45.6757L53.1074 28.0417H53.3947L53.682 46.2539ZM21.2126 22.7803L33.8556 23.3585C33.8556 23.6476 33.8556 23.9367 34.1429 23.9367C34.6992 24.7529 35.507 25.3624 36.4417 25.6712L33.8556 45.0397C33.4533 45.0277 33.0556 45.1278 32.7062 45.3288C32.4189 45.3288 32.4189 45.6179 32.1315 45.6179L20.638 23.6476C20.9253 23.3585 21.2126 23.1272 21.2126 22.7803ZM51.096 26.5384C51.311 26.9735 51.6031 27.3653 51.958 27.6948L34.7176 45.0397L37.3037 25.6712H37.591C38.2023 25.344 38.7025 24.8407 39.0277 24.2258L50.8086 25.3821C50.7656 25.7896 50.8674 26.1992 51.096 26.5384ZM51.096 24.2258L39.315 23.1272C39.358 22.7197 39.2563 22.3101 39.0277 21.9709C38.8124 21.3754 38.4086 20.8675 37.8783 20.5255L38.1657 4.91499C38.3217 4.93388 38.4799 4.91775 38.6289 4.86777C38.778 4.81778 38.9142 4.73518 39.0277 4.62591C39.3151 4.33682 39.6024 4.33682 39.8897 3.75866L51.958 23.3585L51.096 24.2258ZM37.3037 5.14626L37.0163 20.4677C36.5197 20.4227 36.0208 20.5231 35.5796 20.7568C35.1594 20.9417 34.786 21.2197 34.4875 21.5701C34.189 21.9205 33.973 22.3342 33.8556 22.7803L21.5 22.2022C21.5119 21.7975 21.4125 21.3973 21.2126 21.0458C21.1823 20.8267 21.0813 20.6236 20.9253 20.4677L37.3037 5.14626ZM18.9139 24.8039C19.0699 24.8228 19.2281 24.8067 19.3772 24.7567C19.5262 24.7067 19.6624 24.6241 19.7759 24.5148H20.0633L31.5569 46.7743V47.0633L18.0519 40.9926C18.3392 40.4144 18.0519 39.8363 18.0519 39.2581C17.7267 38.6431 17.2265 38.1398 16.6152 37.8127L18.9139 24.8039ZM15.7532 56.6031C15.4258 56.246 15.0362 55.9521 14.6038 55.7358L15.7532 42.438C16.0405 42.438 16.0405 42.438 16.3279 42.1489C16.7603 41.9327 17.1498 41.6387 17.4772 41.2817L30.9822 47.3524V48.5088L15.7532 56.6031ZM54.8314 45.907L53.9694 28.2729C54.1254 28.2918 54.2836 28.2757 54.4326 28.2257C54.5817 28.1757 54.7179 28.0931 54.8314 27.9838C55.1187 27.6948 55.4061 27.6948 55.6934 27.4057L69.4857 38.969V40.1253L56.8428 47.0633C56.6251 46.7216 56.3285 46.438 55.9783 46.2366C55.628 46.0353 55.2345 45.9222 54.8314 45.907ZM56.8428 12.6624C57.0686 13.179 57.4787 13.5916 57.9921 13.8188L54.2567 22.7803C53.682 22.4913 53.1074 22.7803 52.5327 22.7803L41.0391 3.98992L56.5554 10.3498C56.5088 11.1319 56.6062 11.9159 56.8428 12.6624ZM35.5796 3.41176C35.867 3.70084 36.1543 4.27901 36.4417 4.56809L20.0633 19.6004C19.5204 19.365 18.9287 19.2658 18.3392 19.3113L15.7532 12.0843C16.2752 11.5374 16.5816 10.8181 16.6152 10.0607L35.5796 3.41176ZM13.7418 12.6624C14.1468 12.7057 14.554 12.6033 14.8912 12.3733L17.4772 19.6004C17.1471 19.7299 16.8466 19.9254 16.5939 20.1753C16.3412 20.4252 16.1416 20.7241 16.0072 21.0539C15.8729 21.3837 15.8065 21.7376 15.8123 22.094C15.818 22.4504 15.8956 22.8019 16.0405 23.1272C16.1653 23.5059 16.3929 23.842 16.6976 24.0974C17.0022 24.3528 17.3718 24.5174 17.7646 24.5727L15.1785 37.0032C14.7735 36.96 14.3663 37.0624 14.0291 37.2923C13.7418 37.5814 13.1671 37.8705 12.8798 38.1596L5.12161 33.8233V32.0888C4.89581 31.5723 4.48569 31.1597 3.97224 30.9325L13.7418 12.6624ZM16.3279 58.9157V57.4703L31.8442 49.6651C32.1394 50.066 32.5328 50.3831 32.9859 50.5858C33.4391 50.7884 33.9367 50.8696 34.4303 50.8214L36.1543 65.5647H35.867C35.5241 65.742 35.2202 65.987 34.9734 66.285C34.7265 66.583 34.5418 66.9279 34.4303 67.2992L16.3279 58.9157ZM39.315 67.0101C38.7588 66.1938 37.951 65.5843 37.0163 65.2756L35.2923 50.5323L36.1543 49.6651L59.4288 58.3376C59.2445 58.6366 59.1237 58.9708 59.0743 59.3191C59.0248 59.6674 59.0477 60.0222 59.1415 60.3612L39.315 67.0101ZM62.0149 57.1813C61.6099 57.138 61.2027 57.2404 60.8655 57.4703L56.8428 50.8214C57.2766 50.4313 57.5687 49.9067 57.6728 49.3307C57.7769 48.7548 57.687 48.1603 57.4175 47.6415L70.0604 40.9926C70.0604 41.2817 70.3478 41.2817 70.6351 41.5708L62.0149 57.1813Z" fill="url(#paint0_linear_4061_4578)"/>
<path d="M180.07 35.0119L187.298 16.0069H183.539L176.312 35.0119H180.07ZM131.499 35.0119L136.703 21.5773L141.618 35.0119H145.377L138.149 16.0069H134.969L128.03 35.0119H131.499ZM165.615 35.0119L158.387 16.0069H154.628L161.856 35.0119H165.615ZM92.1802 35.0119C92.1719 33.0408 92.5277 31.0895 93.2248 29.2836C93.9219 27.4777 94.9448 25.8572 96.2278 24.5264C98.8429 21.5889 102.376 19.9409 106.058 19.9409C109.739 19.9409 113.272 21.5889 115.887 24.5264C116.466 25.1817 117.333 26.4924 118.489 28.1308V21.905L118.2 21.5773C116.624 19.751 114.732 18.3134 112.642 17.3549C110.553 16.3963 108.311 15.9374 106.058 16.0069C101.527 16.0177 97.1763 18.0138 93.9149 21.5773C92.3676 23.2817 91.136 25.3188 90.292 27.5694C89.4481 29.82 89.0088 32.2388 89 34.6842H92.1802V35.0119ZM298.895 35.0119L303.81 21.5773L309.014 35.0119H312.483L305.255 16.0069H302.364L295.136 35.0119H298.895ZM259.287 35.0119C259.278 33.0408 259.634 31.0895 260.331 29.2836C261.028 27.4777 262.051 25.8572 263.334 24.5264C265.949 21.5889 269.482 19.9409 273.164 19.9409C276.846 19.9409 280.379 21.5889 282.994 24.5264C283.572 25.1817 284.439 26.4924 285.596 28.1308V21.905L285.307 21.5773C283.73 19.751 281.838 18.3134 279.749 17.3549C277.659 16.3963 275.417 15.9374 273.164 16.0069C268.634 16.0177 264.283 18.0138 261.021 21.5773C259.474 23.2817 258.242 25.3188 257.398 27.5694C256.554 29.82 256.115 32.2388 256.106 34.6842H259.287V35.0119ZM106.058 51.0679C102.874 51.0842 99.7826 49.8539 97.3067 47.5851C94.8308 45.3164 93.1221 42.1482 92.4693 38.6163H89C89.5052 42.6557 91.2445 46.3662 93.9149 49.1019C95.4912 50.9282 97.3834 52.3658 99.473 53.3243C101.562 54.2829 103.804 54.7418 106.058 54.6723C110.588 54.6615 114.939 52.6654 118.2 49.1019L118.489 48.7742V42.5484C117.333 44.1868 116.466 45.4975 115.887 46.1528C114.679 47.7549 113.168 49.0285 111.466 49.8793C109.765 50.7301 107.916 51.1363 106.058 51.0679ZM249.168 16.0069H252.637V35.0119H249.168V16.0069ZM200.308 35.0119L205.512 21.5773L210.427 35.0119H213.896L206.957 16.0069H203.777L196.839 35.0119H200.308ZM232.977 35.0119H236.447V19.6113H245.987V16.0069H223.437V19.6113H232.977V35.0119ZM126.584 38.6163L120.224 55H123.982L130.054 38.6163H126.584ZM273.164 51.0679C269.98 51.0842 266.889 49.8539 264.413 47.5851C261.937 45.3164 260.228 42.1482 259.576 38.6163H256.106C256.612 42.6557 258.351 46.3662 261.021 49.1019C262.598 50.9282 264.49 52.3658 266.579 53.3243C268.669 54.2829 270.911 54.7418 273.164 54.6723C277.694 54.6615 282.045 52.6654 285.307 49.1019L285.596 48.7742V42.5484C284.439 44.1868 283.572 45.4975 282.994 46.1528C281.804 47.7796 280.296 49.0705 278.59 49.9235C276.884 50.7766 275.026 51.1683 273.164 51.0679ZM293.691 38.6163L287.62 55H291.089L297.449 38.6163H293.691ZM249.168 38.6163H252.637V55H249.168V38.6163ZM143.064 38.6163L149.135 55H152.894L146.822 38.6163H143.064ZM310.17 38.6163L316.531 55H320L313.929 38.6163H310.17ZM174.866 38.6163L171.108 49.4296L167.06 38.6163H163.302L169.373 55H172.553L178.625 38.6163H174.866ZM195.104 38.6163L189.033 55H192.791L198.862 38.6163H195.104ZM232.977 38.6163H236.447V55H232.977V38.6163ZM211.872 38.6163L217.944 55H221.702L215.631 38.6163H211.872Z" fill="url(#paint1_linear_4061_4578)"/>
<defs>
<linearGradient id="paint0_linear_4061_4578" x1="6.50083" y1="17.5768" x2="68.6379" y2="53.2134" gradientUnits="userSpaceOnUse">
<stop stop-color="#D634FF"/>
<stop offset="0.18" stop-color="#B148F9"/>
<stop offset="0.59" stop-color="#557BEB"/>
<stop offset="0.95" stop-color="#00AADD"/>
</linearGradient>
<linearGradient id="paint1_linear_4061_4578" x1="89" y1="35.5034" x2="320" y2="35.5034" gradientUnits="userSpaceOnUse">
<stop stop-color="#D634FF"/>
<stop offset="0.18" stop-color="#B148F9"/>
<stop offset="0.59" stop-color="#557BEB"/>
<stop offset="0.95" stop-color="#00AADD"/>
</linearGradient>
</defs>
</svg>
