<svg width="169" height="41" viewBox="0 0 169 41" fill="none" xmlns="http://www.w3.org/2000/svg">
<path fill-rule="evenodd" clip-rule="evenodd" d="M71.395 17.816L7.98833 32.7695L7.91504 32.4303L71.3218 17.4768L71.395 17.816Z" fill="white"/>
<path fill-rule="evenodd" clip-rule="evenodd" d="M24.6306 37.2904L2.33005 21.6413L2.51562 21.3527L24.8161 37.0017L24.6306 37.2904Z" fill="white"/>
<path fill-rule="evenodd" clip-rule="evenodd" d="M45.5998 33.1173L19.9709 7.55719L20.2007 7.30563L45.8296 32.8658L45.5998 33.1173Z" fill="white"/>
<path fill-rule="evenodd" clip-rule="evenodd" d="M45.5996 7.90491L24.6304 36.9426L24.3647 36.7332L45.3339 7.69546L45.5996 7.90491Z" fill="white"/>
<path fill-rule="evenodd" clip-rule="evenodd" d="M76.2213 20.7719L45.2668 2.3408L45.4316 2.03867L76.3861 20.4698L76.2213 20.7719Z" fill="white"/>
<path fill-rule="evenodd" clip-rule="evenodd" d="M45.5998 8.25269L76.2214 20.4242L76.103 20.7492L45.4814 8.57772L45.5998 8.25269Z" fill="white"/>
<path fill-rule="evenodd" clip-rule="evenodd" d="M45.2668 8.25269V2.34082H45.5996V8.25269H45.2668Z" fill="white"/>
<path fill-rule="evenodd" clip-rule="evenodd" d="M66.7354 26.1622L45.267 2.34081L45.5093 2.10242L66.9777 25.9238L66.7354 26.1622Z" fill="white"/>
<path fill-rule="evenodd" clip-rule="evenodd" d="M45.5999 33.1173L76.2215 20.4242L76.3442 20.7474L45.7226 33.4406L45.5999 33.1173Z" fill="white"/>
<path fill-rule="evenodd" clip-rule="evenodd" d="M45.9325 38.6814L76.2213 19.9025L76.3911 20.2016L46.1023 38.9805L45.9325 38.6814Z" fill="white"/>
<path fill-rule="evenodd" clip-rule="evenodd" d="M55.5849 29.292L32.9515 20.4242L33.0684 20.0986L55.7017 28.9664L55.5849 29.292Z" fill="white"/>
<path fill-rule="evenodd" clip-rule="evenodd" d="M45.5999 33.1173V39.0292H45.2671V33.1173H45.5999Z" fill="white"/>
<path fill-rule="evenodd" clip-rule="evenodd" d="M53.9207 11.3825L45.5996 33.1173L45.2905 32.9882L53.6116 11.2534L53.9207 11.3825Z" fill="white"/>
<path fill-rule="evenodd" clip-rule="evenodd" d="M55.0856 7.90495L53.9206 11.3825L53.6064 11.2676L54.7714 7.79007L55.0856 7.90495Z" fill="white"/>
<path d="M21.6351 7.55717C21.6351 8.51748 20.89 9.29596 19.9709 9.29596C19.0517 9.29596 18.3066 8.51748 18.3066 7.55717C18.3066 6.59687 19.0517 5.81839 19.9709 5.81839C20.89 5.81839 21.6351 6.59687 21.6351 7.55717Z" fill="white"/>
<path d="M46.931 2.34083C46.931 3.30114 46.1859 4.07962 45.2668 4.07962C44.3476 4.07962 43.6025 3.30114 43.6025 2.34083C43.6025 1.38053 44.3476 0.602051 45.2668 0.602051C46.1859 0.602051 46.931 1.38053 46.931 2.34083Z" fill="white"/>
<path d="M46.931 8.2527C46.931 9.213 46.1859 9.99148 45.2668 9.99148C44.3476 9.99148 43.6025 9.213 43.6025 8.2527C43.6025 7.2924 44.3476 6.51392 45.2668 6.51392C46.1859 6.51392 46.931 7.2924 46.931 8.2527Z" fill="white"/>
<path d="M55.0858 11.3825C55.0858 12.3428 54.3407 13.1213 53.4215 13.1213C52.5024 13.1213 51.7573 12.3428 51.7573 11.3825C51.7573 10.4222 52.5024 9.64374 53.4215 9.64374C54.3407 9.64374 55.0858 10.4222 55.0858 11.3825Z" fill="white"/>
<path d="M77.5526 20.4242C77.5526 21.3845 76.8075 22.163 75.8883 22.163C74.9692 22.163 74.2241 21.3845 74.2241 20.4242C74.2241 19.4639 74.9692 18.6854 75.8883 18.6854C76.8075 18.6854 77.5526 19.4639 77.5526 20.4242Z" fill="white"/>
<path d="M68.3992 26.1622C68.3992 27.1225 67.6541 27.901 66.735 27.901C65.8159 27.901 65.0708 27.1225 65.0708 26.1622C65.0708 25.2019 65.8159 24.4234 66.735 24.4234C67.6541 24.4234 68.3992 25.2019 68.3992 26.1622Z" fill="white"/>
<path d="M62.741 19.5548C62.741 20.5151 61.9959 21.2936 61.0768 21.2936C60.1577 21.2936 59.4126 20.5151 59.4126 19.5548C59.4126 18.5945 60.1577 17.816 61.0768 17.816C61.9959 17.816 62.741 18.5945 62.741 19.5548Z" fill="white"/>
<path d="M50.9251 23.0324C50.9251 23.9927 50.18 24.7711 49.2609 24.7711C48.3418 24.7711 47.5967 23.9927 47.5967 23.0324C47.5967 22.0721 48.3418 21.2936 49.2609 21.2936C50.18 21.2936 50.9251 22.0721 50.9251 23.0324Z" fill="white"/>
<path d="M57.2493 28.9442C57.2493 29.9045 56.5042 30.683 55.5851 30.683C54.666 30.683 53.9209 29.9045 53.9209 28.9442C53.9209 27.9839 54.666 27.2054 55.5851 27.2054C56.5042 27.2054 57.2493 27.9839 57.2493 28.9442Z" fill="white"/>
<path d="M47.264 33.1173C47.264 34.0776 46.5189 34.8561 45.5998 34.8561C44.6806 34.8561 43.9355 34.0776 43.9355 33.1173C43.9355 32.157 44.6806 31.3785 45.5998 31.3785C46.5189 31.3785 47.264 32.157 47.264 33.1173Z" fill="white"/>
<path d="M47.264 39.0292C47.264 39.9895 46.5189 40.768 45.5998 40.768C44.6806 40.768 43.9355 39.9895 43.9355 39.0292C43.9355 38.0689 44.6806 37.2904 45.5998 37.2904C46.5189 37.2904 47.264 38.0689 47.264 39.0292Z" fill="white"/>
<path d="M26.2947 37.2904C26.2947 38.2507 25.5496 39.0292 24.6305 39.0292C23.7114 39.0292 22.9663 38.2507 22.9663 37.2904C22.9663 36.3301 23.7114 35.5516 24.6305 35.5516C25.5496 35.5516 26.2947 36.3301 26.2947 37.2904Z" fill="white"/>
<path d="M34.6155 20.4242C34.6155 21.3845 33.8704 22.163 32.9513 22.163C32.0322 22.163 31.2871 21.3845 31.2871 20.4242C31.2871 19.4639 32.0322 18.6854 32.9513 18.6854C33.8704 18.6854 34.6155 19.4639 34.6155 20.4242Z" fill="white"/>
<path d="M3.32844 21.2936C3.32844 22.2539 2.58334 23.0324 1.66422 23.0324C0.745096 23.0324 0 22.2539 0 21.2936C0 20.3333 0.745096 19.5548 1.66422 19.5548C2.58334 19.5548 3.32844 20.3333 3.32844 21.2936Z" fill="white"/>
<path d="M7.9881 33.1173C7.9881 34.0776 7.24301 34.8561 6.32389 34.8561C5.40476 34.8561 4.65967 34.0776 4.65967 33.1173C4.65967 32.157 5.40476 31.3785 6.32389 31.3785C7.24301 31.3785 7.9881 32.157 7.9881 33.1173Z" fill="white"/>
<path d="M92.1113 14.6174C92.1617 14.6174 92.2046 14.6359 92.2399 14.6729L92.5424 15.0139C92.3205 15.2623 92.0785 15.4869 91.8163 15.6878C91.5591 15.8834 91.2742 16.0525 90.9615 16.1952C90.6539 16.3326 90.3135 16.4384 89.9404 16.5124C89.5722 16.5916 89.1663 16.6313 88.7225 16.6313C87.9812 16.6313 87.3005 16.4965 86.6802 16.2269C86.065 15.9521 85.5355 15.5662 85.0917 15.0694C84.648 14.5672 84.3026 13.962 84.0555 13.2537C83.8134 12.5455 83.6924 11.7579 83.6924 10.8911C83.6924 10.0401 83.8185 9.26307 84.0706 8.56008C84.3227 7.85708 84.6757 7.25452 85.1296 6.75238C85.5834 6.24496 86.128 5.85382 86.7634 5.57896C87.3988 5.29882 88.0998 5.15875 88.8662 5.15875C89.5974 5.15875 90.2454 5.27768 90.8102 5.51554C91.375 5.75339 91.8894 6.08903 92.3533 6.52245L92.1188 6.87924C92.0785 6.94266 92.0155 6.97438 91.9297 6.97438C91.8692 6.97438 91.7709 6.91624 91.6347 6.79995C91.4986 6.68367 91.3095 6.55681 91.0674 6.41938C90.8254 6.27667 90.5228 6.14717 90.1597 6.03089C89.8017 5.9146 89.3705 5.85646 88.8662 5.85646C88.2208 5.85646 87.6283 5.97274 87.0887 6.20531C86.5541 6.43788 86.0927 6.77088 85.7044 7.2043C85.3212 7.63773 85.0211 8.16629 84.8043 8.79C84.5875 9.41371 84.4791 10.1141 84.4791 10.8911C84.4791 11.6839 84.5875 12.3922 84.8043 13.0159C85.0262 13.6396 85.3288 14.1682 85.712 14.6016C86.0953 15.0297 86.5466 15.3601 87.066 15.5926C87.5904 15.8199 88.1552 15.9336 88.7604 15.9336C89.1436 15.9336 89.484 15.9071 89.7815 15.8543C90.0841 15.8014 90.3614 15.7221 90.6136 15.6164C90.8657 15.5107 91.1002 15.3812 91.317 15.2279C91.5339 15.0747 91.7482 14.8949 91.96 14.6888C91.9852 14.6677 92.0104 14.6518 92.0356 14.6412C92.0608 14.6254 92.086 14.6174 92.1113 14.6174Z" fill="white"/>
<path d="M102.872 5.28561V16.5044H102.093V11.1289H95.3908V16.5044H94.6117V5.28561H95.3908V10.5184H102.093V5.28561H102.872Z" fill="white"/>
<path d="M111.803 12.4292L109.625 6.76031C109.549 6.57531 109.476 6.35331 109.405 6.09431C109.375 6.22117 109.342 6.34274 109.307 6.45903C109.272 6.57002 109.234 6.67309 109.194 6.76824L107.015 12.4292H111.803ZM114.171 16.5044H113.573C113.503 16.5044 113.445 16.4859 113.399 16.4489C113.354 16.4066 113.319 16.3538 113.293 16.2904L112.038 13.0317H106.781L105.525 16.2904C105.505 16.3485 105.469 16.3987 105.419 16.441C105.369 16.4833 105.308 16.5044 105.238 16.5044H104.648L109.027 5.28561H109.791L114.171 16.5044Z" fill="white"/>
<path d="M121.792 15.8146V16.5044H115.945V5.28561H116.724V15.8146H121.792Z" fill="white"/>
<path d="M129.445 15.8146V16.5044H123.598V5.28561H124.377V15.8146H129.445Z" fill="white"/>
<path d="M137.68 15.8305L137.665 16.5044H131.25V5.28561H137.665V5.95953H132.03V10.4946H136.719V11.1527H132.03V15.8305H137.68Z" fill="white"/>
<path d="M148.286 5.28561V16.5044H147.923C147.857 16.5044 147.802 16.4939 147.757 16.4727C147.716 16.4463 147.676 16.404 147.636 16.3459L140.684 6.60967C140.699 6.76824 140.707 6.91888 140.707 7.06159V16.5044H140.026V5.28561H140.412C140.482 5.28561 140.535 5.29618 140.571 5.31732C140.611 5.33318 140.654 5.37282 140.699 5.43625L147.636 15.1487C147.62 14.9901 147.613 14.8394 147.613 14.6967V5.28561H148.286Z" fill="white"/>
<path d="M159.994 11.4143V15.4024C159.459 15.7988 158.889 16.1027 158.284 16.3141C157.679 16.5256 156.998 16.6313 156.242 16.6313C155.395 16.6313 154.633 16.4965 153.957 16.2269C153.282 15.9521 152.704 15.5662 152.225 15.0694C151.751 14.5672 151.386 13.962 151.128 13.2537C150.876 12.5455 150.75 11.7579 150.75 10.8911C150.75 10.0242 150.874 9.23928 151.121 8.53629C151.373 7.82801 151.731 7.22545 152.195 6.72859C152.664 6.22646 153.229 5.8406 153.889 5.57103C154.55 5.29618 155.294 5.15875 156.121 5.15875C156.529 5.15875 156.905 5.18782 157.248 5.24597C157.596 5.30411 157.918 5.39132 158.216 5.50761C158.514 5.61861 158.791 5.75868 159.048 5.92782C159.305 6.09167 159.552 6.28196 159.789 6.49867L159.578 6.84752C159.507 6.97438 159.401 7.00345 159.26 6.93474C159.184 6.90302 159.076 6.82902 158.935 6.71274C158.793 6.59645 158.599 6.47488 158.352 6.34803C158.105 6.22117 157.797 6.10753 157.429 6.0071C157.066 5.90667 156.622 5.85646 156.098 5.85646C155.402 5.85646 154.772 5.97274 154.207 6.20531C153.647 6.43788 153.168 6.77088 152.77 7.2043C152.376 7.63773 152.071 8.16629 151.855 8.79C151.643 9.41371 151.537 10.1141 151.537 10.8911C151.537 11.6786 151.643 12.3869 151.855 13.0159C152.071 13.6449 152.382 14.1787 152.785 14.6174C153.193 15.0562 153.688 15.3918 154.268 15.6244C154.847 15.8569 155.5 15.9732 156.227 15.9732C156.544 15.9732 156.837 15.9521 157.104 15.9098C157.376 15.8675 157.634 15.8094 157.876 15.7354C158.123 15.6561 158.36 15.5609 158.587 15.4499C158.819 15.3337 159.053 15.2042 159.29 15.0614V12.0407H157.24C157.185 12.0407 157.137 12.0222 157.097 11.9852C157.061 11.9482 157.044 11.9059 157.044 11.8583V11.4143H159.994Z" fill="white"/>
<path d="M169 15.8305L168.985 16.5044H162.571V5.28561H168.985V5.95953H163.35V10.4946H168.04V11.1527H163.35V15.8305H169Z" fill="white"/>
<path d="M87.1568 30.9231C87.6257 30.9231 88.0468 30.8544 88.42 30.7169C88.7931 30.5795 89.1083 30.3892 89.3655 30.1461C89.6277 29.903 89.8269 29.6175 89.963 29.2898C90.1042 28.9568 90.1748 28.5948 90.1748 28.2036C90.1748 27.3421 89.9227 26.6787 89.4184 26.2136C88.9142 25.7484 88.1603 25.5159 87.1568 25.5159H85.1674V30.9231H87.1568ZM87.1568 24.8736C88.4124 24.8736 89.3579 25.1617 89.9933 25.7379C90.6337 26.314 90.954 27.1359 90.954 28.2036C90.954 28.6952 90.8657 29.1471 90.6892 29.5594C90.5127 29.9717 90.2606 30.3285 89.9328 30.6297C89.605 30.9257 89.2066 31.1583 88.7377 31.3274C88.2687 31.4913 87.7417 31.5732 87.1568 31.5732H85.1674V36.0925H84.3883V24.8736H87.1568Z" fill="white"/>
<path d="M102.642 30.4791C102.642 31.3459 102.519 32.1335 102.272 32.8418C102.025 33.5448 101.677 34.1473 101.228 34.6495C100.779 35.1463 100.24 35.5322 99.6092 35.807C98.9839 36.0766 98.293 36.2114 97.5366 36.2114C96.7802 36.2114 96.0894 36.0766 95.4641 35.807C94.8388 35.5322 94.3017 35.1463 93.8529 34.6495C93.4041 34.1473 93.0561 33.5448 92.8091 32.8418C92.562 32.1335 92.4384 31.3459 92.4384 30.4791C92.4384 29.6175 92.562 28.8353 92.8091 28.1323C93.0561 27.424 93.4041 26.8214 93.8529 26.3246C94.3017 25.8224 94.8388 25.4339 95.4641 25.1591C96.0894 24.8842 96.7802 24.7468 97.5366 24.7468C98.293 24.7468 98.9839 24.8842 99.6092 25.1591C100.24 25.4286 100.779 25.8145 101.228 26.3166C101.677 26.8188 102.025 27.424 102.272 28.1323C102.519 28.8353 102.642 29.6175 102.642 30.4791ZM101.841 30.4791C101.841 29.6968 101.737 28.9938 101.531 28.3701C101.324 27.7464 101.031 27.2178 100.653 26.7844C100.275 26.351 99.821 26.0206 99.2915 25.7934C98.762 25.5608 98.1771 25.4445 97.5366 25.4445C96.9012 25.4445 96.3188 25.5608 95.7893 25.7934C95.2598 26.0206 94.8035 26.351 94.4202 26.7844C94.042 27.2178 93.747 27.7464 93.5352 28.3701C93.3285 28.9938 93.2251 29.6968 93.2251 30.4791C93.2251 31.2667 93.3285 31.9723 93.5352 32.596C93.747 33.2144 94.042 33.7403 94.4202 34.1738C94.8035 34.6072 95.2598 34.9375 95.7893 35.1648C96.3188 35.3921 96.9012 35.5058 97.5366 35.5058C98.1771 35.5058 98.762 35.3921 99.2915 35.1648C99.821 34.9375 100.275 34.6072 100.653 34.1738C101.031 33.7403 101.324 33.2144 101.531 32.596C101.737 31.9723 101.841 31.2667 101.841 30.4791Z" fill="white"/>
<path d="M107.733 30.4157C108.207 30.4157 108.631 30.3575 109.004 30.2412C109.382 30.1197 109.7 29.9479 109.957 29.7259C110.219 29.5039 110.419 29.237 110.555 28.9251C110.691 28.6133 110.759 28.2618 110.759 27.8706C110.759 27.0725 110.509 26.4805 110.01 26.0946C109.516 25.7088 108.792 25.5159 107.839 25.5159H105.88V30.4157H107.733ZM112.484 36.0925H111.818C111.732 36.0925 111.659 36.0792 111.599 36.0528C111.543 36.0211 111.49 35.9656 111.44 35.8863L108.006 31.3354C107.965 31.2772 107.922 31.227 107.877 31.1847C107.837 31.1424 107.789 31.1107 107.733 31.0896C107.683 31.0632 107.62 31.0447 107.544 31.0341C107.474 31.0235 107.385 31.0182 107.279 31.0182H105.88V36.0925H105.101V24.8736H107.839C109.07 24.8736 109.99 25.1247 110.6 25.6269C111.215 26.1237 111.523 26.8558 111.523 27.823C111.523 28.2512 111.452 28.6423 111.311 28.9965C111.17 29.3506 110.966 29.6625 110.698 29.932C110.436 30.1963 110.116 30.413 109.738 30.5822C109.365 30.7513 108.944 30.8649 108.475 30.9231C108.596 31.0024 108.704 31.1081 108.8 31.2402L112.484 36.0925Z" fill="white"/>
<path d="M120.806 25.5634H117.047V36.0925H116.268V25.5634H112.485V24.8736H120.806V25.5634Z" fill="white"/>
<path d="M127.33 32.0172L125.152 26.3483C125.076 26.1633 125.003 25.9413 124.933 25.6824C124.902 25.8092 124.869 25.9308 124.834 26.0471C124.799 26.1581 124.761 26.2611 124.721 26.3563L122.542 32.0172H127.33ZM129.698 36.0925H129.1C129.03 36.0925 128.972 36.074 128.926 36.037C128.881 35.9947 128.846 35.9418 128.82 35.8784L127.565 32.6198H122.308L121.052 35.8784C121.032 35.9365 120.997 35.9868 120.946 36.029C120.896 36.0713 120.835 36.0925 120.765 36.0925H120.175L124.554 24.8736H125.318L129.698 36.0925Z" fill="white"/>
<path d="M137.319 35.4027V36.0925H131.472V24.8736H132.251V35.4027H137.319Z" fill="white"/>
</svg>
