<?xml version="1.0" encoding="UTF-8" standalone="no"?>
<svg
   id="Layer_2"
   viewBox="0 0 285.54106 45.469108"
   version="1.1"
   sodipodi:docname="SageBionetworks-Logo-White (1).svg"
   width="214.15601"
   height="34.101845"
   inkscape:version="1.2.1 (9c6d41e4, 2022-07-14)"
   xmlns:inkscape="http://www.inkscape.org/namespaces/inkscape"
   xmlns:sodipodi="http://sodipodi.sourceforge.net/DTD/sodipodi-0.dtd"
   xmlns="http://www.w3.org/2000/svg"
   xmlns:svg="http://www.w3.org/2000/svg">
  <defs
     id="defs698" />
  <sodipodi:namedview
     id="namedview696"
     pagecolor="#ffffff"
     bordercolor="#000000"
     borderopacity="0.25"
     inkscape:showpageshadow="2"
     inkscape:pageopacity="0.0"
     inkscape:pagecheckerboard="0"
     inkscape:deskcolor="#d1d1d1"
     showgrid="false"
     inkscape:zoom="3.1485155"
     inkscape:cx="141.33645"
     inkscape:cy="22.86792"
     inkscape:window-width="1309"
     inkscape:window-height="456"
     inkscape:window-x="0"
     inkscape:window-y="25"
     inkscape:window-maximized="0"
     inkscape:current-layer="Layer_2" />
  <g
     id="Layer_1-2">
    <path
       d="M 37.0416,10.9167 34.1614,9.2456 20.5498,1.3215 6.8724,9.2564 4.0143,10.9244 M 20.5498,1.2708 v 19.7065"
       fill="none"
       stroke="#ffffff"
       stroke-width="2.2852"
       id="path686" />
    <path
       d="m 1.1424,15.8934 0.0669,3.3211 -0.0567,15.75 13.7106,7.8776 2.8735,1.6412 M 1.1081,34.9892 18.1744,25.136"
       fill="none"
       stroke="#ffffff"
       stroke-width="2.2852"
       id="path688" />
    <path
       d="M 23.4079,44.5123 26.2506,42.7938 39.9188,34.9679 39.8857,19.1554 39.8703,15.8463 M 39.9634,34.9937 22.8971,25.1405"
       fill="none"
       stroke="#ffffff"
       stroke-width="2.2852"
       id="path690" />
    <path
       d="m 66.2959,33.0516 c -1.4187,0 -2.688,-0.2427 -3.808,-0.728 -1.1014,-0.4853 -1.9787,-1.1947 -2.632,-2.128 -0.6347,-0.9333 -0.9614,-2.0627 -0.98,-3.388 h 4.004 c 0.0186,0.5787 0.168,1.1013 0.448,1.568 0.28,0.4667 0.6626,0.84 1.148,1.12 0.504,0.2613 1.1013,0.392 1.792,0.392 0.5973,0 1.1106,-0.0933 1.54,-0.28 0.448,-0.2053 0.7933,-0.4853 1.036,-0.84 0.2426,-0.3547 0.364,-0.7747 0.364,-1.26 0,-0.56 -0.14,-1.0267 -0.42,-1.4 -0.2614,-0.3733 -0.6347,-0.6907 -1.12,-0.952 -0.4667,-0.2613 -1.0174,-0.4947 -1.652,-0.7 -0.616,-0.224 -1.2694,-0.4573 -1.96,-0.7 -1.5494,-0.504 -2.7347,-1.176 -3.556,-2.016 -0.8027,-0.84 -1.204,-1.9507 -1.204,-3.332 0,-1.176 0.28,-2.184 0.84,-3.024 0.5786,-0.84 1.372,-1.484 2.38,-1.932 1.008,-0.448 2.156,-0.672 3.444,-0.672 1.3253,0 2.4826,0.2333 3.472,0.7 1.008,0.448 1.8013,1.1013 2.38,1.96 0.5973,0.8587 0.9053,1.8667 0.924,3.024 h -4.032 c -0.0187,-0.4293 -0.1494,-0.8307 -0.392,-1.204 -0.224,-0.392 -0.5414,-0.7 -0.952,-0.924 -0.4107,-0.2427 -0.896,-0.364 -1.456,-0.364 -0.4854,-0.0187 -0.9334,0.056 -1.344,0.224 -0.392,0.168 -0.7094,0.42 -0.952,0.756 -0.224,0.3173 -0.336,0.7187 -0.336,1.204 0,0.4667 0.112,0.8587 0.336,1.176 0.2426,0.3173 0.5693,0.5973 0.98,0.84 0.4106,0.224 0.896,0.4387 1.456,0.644 0.56,0.1867 1.1666,0.3827 1.82,0.588 0.9706,0.336 1.8666,0.7373 2.688,1.204 0.8213,0.448 1.4746,1.036 1.96,1.764 0.4853,0.728 0.728,1.6893 0.728,2.884 0,1.0267 -0.2707,1.9787 -0.812,2.856 -0.5414,0.8773 -1.3254,1.5867 -2.352,2.128 -1.008,0.5413 -2.268,0.812 -3.78,0.812 z m 14.8264,0 c -1.176,0 -2.1467,-0.1867 -2.912,-0.56 -0.7653,-0.392 -1.3347,-0.9053 -1.708,-1.54 -0.3547,-0.6533 -0.532,-1.372 -0.532,-2.156 0,-0.8587 0.2147,-1.6147 0.644,-2.268 0.448,-0.6533 1.1107,-1.1667 1.988,-1.54 0.896,-0.3733 2.016,-0.56 3.36,-0.56 h 3.5 c 0,-0.6907 -0.0933,-1.26 -0.28,-1.708 -0.1867,-0.4667 -0.476,-0.812 -0.868,-1.036 -0.392,-0.224 -0.9147,-0.336 -1.568,-0.336 -0.7093,0 -1.316,0.1587 -1.82,0.476 -0.4853,0.2987 -0.784,0.7653 -0.896,1.4 h -3.668 c 0.0933,-1.008 0.42,-1.876 0.98,-2.604 0.5787,-0.7467 1.3347,-1.3253 2.268,-1.736 0.952,-0.4107 2.0067,-0.616 3.164,-0.616 1.3253,0 2.4733,0.224 3.444,0.672 0.9707,0.448 1.7173,1.092 2.24,1.932 0.5227,0.84 0.784,1.876 0.784,3.108 v 8.736 h -3.192 l -0.42,-2.156 c -0.2053,0.3733 -0.448,0.7093 -0.728,1.008 -0.28,0.2987 -0.6067,0.56 -0.98,0.784 -0.3733,0.224 -0.7933,0.392 -1.26,0.504 -0.4667,0.1307 -0.98,0.196 -1.54,0.196 z m 0.896,-2.912 c 0.4853,0 0.9147,-0.084 1.288,-0.252 0.392,-0.1867 0.728,-0.4293 1.008,-0.728 0.28,-0.3173 0.4947,-0.672 0.644,-1.064 0.168,-0.4107 0.28,-0.8493 0.336,-1.316 v -0.028 h -2.884 c -0.5787,0 -1.0547,0.0747 -1.428,0.224 -0.3547,0.1307 -0.616,0.3267 -0.784,0.588 -0.168,0.2613 -0.252,0.56 -0.252,0.896 0,0.3733 0.084,0.6813 0.252,0.924 0.168,0.2427 0.4107,0.4293 0.728,0.56 0.3173,0.1307 0.6813,0.196 1.092,0.196 z m 16.8262,9.072 c -1.344,0 -2.52,-0.168 -3.528,-0.504 -1.008,-0.3173 -1.792,-0.812 -2.352,-1.484 -0.5413,-0.6533 -0.812,-1.4653 -0.812,-2.436 0,-0.6533 0.168,-1.2693 0.504,-1.848 0.336,-0.5787 0.8214,-1.1013 1.456,-1.568 0.6534,-0.4853 1.4654,-0.896 2.436,-1.232 l 1.428,1.848 c -0.8586,0.28 -1.484,0.6253 -1.876,1.036 -0.3733,0.4293 -0.56,0.8867 -0.56,1.372 0,0.4293 0.14,0.7933 0.42,1.092 0.2987,0.2987 0.6907,0.5133 1.176,0.644 0.504,0.1493 1.064,0.224 1.68,0.224 0.5972,0 1.1112,-0.0747 1.5402,-0.224 0.448,-0.1493 0.793,-0.3733 1.036,-0.672 0.261,-0.28 0.392,-0.616 0.392,-1.008 0,-0.504 -0.177,-0.9147 -0.532,-1.232 -0.355,-0.3173 -1.064,-0.5133 -2.128,-0.588 -0.9522,-0.0747 -1.8015,-0.1773 -2.5482,-0.308 -0.728,-0.1493 -1.372,-0.3173 -1.932,-0.504 -0.56,-0.2053 -1.036,-0.4293 -1.428,-0.672 -0.3733,-0.2427 -0.6813,-0.4853 -0.924,-0.728 v -0.644 l 2.996,-3.22 2.716,0.868 -3.528,3.472 1.064,-1.848 c 0.2054,0.112 0.4014,0.224 0.588,0.336 0.2054,0.0933 0.4574,0.1867 0.756,0.28 0.2987,0.0747 0.6907,0.1493 1.176,0.224 0.4854,0.0747 1.1012,0.14 1.8482,0.196 1.232,0.112 2.24,0.3453 3.024,0.7 0.803,0.3547 1.391,0.8307 1.764,1.428 0.373,0.5787 0.56,1.2973 0.56,2.156 0,0.84 -0.233,1.624 -0.7,2.352 -0.448,0.7467 -1.148,1.344 -2.1,1.792 -0.952,0.4667 -2.156,0.7 -3.6122,0.7 z m 0,-10.668 c -1.176,0 -2.1933,-0.224 -3.052,-0.672 -0.84,-0.4667 -1.4933,-1.0827 -1.96,-1.848 -0.448,-0.784 -0.672,-1.652 -0.672,-2.604 0,-0.952 0.224,-1.8107 0.672,-2.576 0.4667,-0.784 1.12,-1.4093 1.96,-1.876 0.8587,-0.4667 1.876,-0.7 3.052,-0.7 1.1952,0 2.2122,0.2333 3.0522,0.7 0.859,0.4667 1.512,1.092 1.96,1.876 0.448,0.7653 0.672,1.624 0.672,2.576 0,0.952 -0.224,1.82 -0.672,2.604 -0.448,0.7653 -1.101,1.3813 -1.96,1.848 -0.84,0.448 -1.857,0.672 -3.0522,0.672 z m 0,-2.884 c 0.7282,0 1.3162,-0.1867 1.7642,-0.56 0.448,-0.3733 0.672,-0.924 0.672,-1.652 0,-0.728 -0.224,-1.2787 -0.672,-1.652 -0.448,-0.392 -1.036,-0.588 -1.7642,-0.588 -0.7093,0 -1.2973,0.196 -1.764,0.588 -0.448,0.3733 -0.672,0.924 -0.672,1.652 0,0.728 0.224,1.2787 0.672,1.652 0.4667,0.3733 1.0547,0.56 1.764,0.56 z m 2.3522,-4.368 -0.616,-2.688 h 5.796 v 2.24 z m 14.481,11.76 c -1.419,0 -2.679,-0.2987 -3.78,-0.896 -1.083,-0.616 -1.932,-1.4653 -2.548,-2.548 -0.598,-1.1013 -0.896,-2.3707 -0.896,-3.808 0,-1.4747 0.298,-2.772 0.896,-3.892 0.597,-1.1387 1.437,-2.0253 2.52,-2.66 1.101,-0.6533 2.37,-0.98 3.808,-0.98 1.4,0 2.622,0.308 3.668,0.924 1.045,0.616 1.857,1.4467 2.436,2.492 0.578,1.0453 0.868,2.2307 0.868,3.556 v 0.644 c 0,0.224 -0.019,0.4573 -0.056,0.7 h -11.452 v -2.296 h 7.7 c -0.056,-0.9147 -0.383,-1.6333 -0.98,-2.156 -0.579,-0.5227 -1.307,-0.784 -2.184,-0.784 -0.635,0 -1.223,0.1493 -1.764,0.448 -0.542,0.28 -0.971,0.7187 -1.288,1.316 -0.299,0.5973 -0.448,1.3533 -0.448,2.268 v 0.812 c 0,0.7653 0.14,1.4373 0.42,2.016 0.298,0.56 0.709,0.9987 1.232,1.316 0.522,0.2987 1.129,0.448 1.82,0.448 0.69,0 1.26,-0.1493 1.708,-0.448 0.466,-0.2987 0.812,-0.6813 1.036,-1.148 h 3.864 c -0.262,0.8773 -0.7,1.6707 -1.316,2.38 -0.616,0.7093 -1.372,1.2693 -2.268,1.68 -0.896,0.4107 -1.895,0.616 -2.996,0.616 z m 16.685,-0.336 v -19.6 h 6.888 c 1.382,0 2.52,0.224 3.416,0.672 0.915,0.4293 1.596,1.0267 2.044,1.792 0.448,0.7467 0.672,1.5867 0.672,2.52 0,1.008 -0.224,1.848 -0.672,2.52 -0.429,0.672 -0.998,1.1853 -1.708,1.54 -0.69,0.3547 -1.428,0.5693 -2.212,0.644 l 0.392,-0.28 c 0.84,0.0187 1.615,0.2427 2.324,0.672 0.71,0.4293 1.27,1.008 1.68,1.736 0.43,0.728 0.644,1.54 0.644,2.436 0,0.9893 -0.242,1.8947 -0.728,2.716 -0.485,0.8027 -1.204,1.4467 -2.156,1.932 -0.933,0.4667 -2.09,0.7 -3.472,0.7 z m 2.352,-1.96 h 4.508 c 1.326,0 2.352,-0.308 3.08,-0.924 0.747,-0.6347 1.12,-1.512 1.12,-2.632 0,-1.1013 -0.382,-1.9787 -1.148,-2.632 -0.746,-0.672 -1.782,-1.008 -3.108,-1.008 h -4.452 z m 0,-9.072 h 4.368 c 1.27,0 2.231,-0.2987 2.884,-0.896 0.672,-0.5973 1.008,-1.4093 1.008,-2.436 0,-0.9893 -0.336,-1.7827 -1.008,-2.38 -0.653,-0.5973 -1.642,-0.896 -2.968,-0.896 h -4.284 z m 14.359,11.032 v -13.888 h 2.352 v 13.888 z m 1.176,-16.884 c -0.466,0 -0.858,-0.1493 -1.176,-0.448 -0.298,-0.3173 -0.448,-0.7187 -0.448,-1.204 0,-0.448 0.15,-0.8213 0.448,-1.12 0.318,-0.2987 0.71,-0.448 1.176,-0.448 0.448,0 0.831,0.1493 1.148,0.448 0.318,0.2987 0.476,0.6813 0.476,1.148 0,0.448 -0.158,0.8307 -0.476,1.148 -0.317,0.3173 -0.7,0.476 -1.148,0.476 z m 11.271,17.22 c -1.307,0 -2.483,-0.2987 -3.528,-0.896 -1.046,-0.5973 -1.876,-1.4373 -2.492,-2.52 -0.598,-1.1013 -0.896,-2.3893 -0.896,-3.864 0,-1.4747 0.308,-2.7533 0.924,-3.836 0.616,-1.1013 1.446,-1.9507 2.492,-2.548 1.064,-0.5973 2.249,-0.896 3.556,-0.896 1.306,0 2.482,0.2987 3.528,0.896 1.045,0.5973 1.866,1.4467 2.464,2.548 0.616,1.0827 0.924,2.3613 0.924,3.836 0,1.4747 -0.308,2.7627 -0.924,3.864 -0.616,1.0827 -1.456,1.9227 -2.52,2.52 -1.046,0.5973 -2.222,0.896 -3.528,0.896 z m 0,-1.96 c 0.802,0 1.549,-0.196 2.24,-0.588 0.69,-0.4107 1.25,-1.008 1.68,-1.792 0.429,-0.784 0.644,-1.764 0.644,-2.94 0,-1.1947 -0.215,-2.184 -0.644,-2.968 -0.411,-0.784 -0.962,-1.372 -1.652,-1.764 -0.691,-0.392 -1.428,-0.588 -2.212,-0.588 -0.784,0 -1.531,0.196 -2.24,0.588 -0.691,0.392 -1.251,0.98 -1.68,1.764 -0.43,0.784 -0.644,1.7733 -0.644,2.968 0,1.176 0.214,2.156 0.644,2.94 0.429,0.784 0.98,1.3813 1.652,1.792 0.69,0.392 1.428,0.588 2.212,0.588 z m 9.913,1.624 v -13.888 h 2.1 l 0.168,2.408 h 0.028 c 0.467,-0.84 1.111,-1.5027 1.932,-1.988 0.822,-0.504 1.774,-0.756 2.856,-0.756 1.083,0 2.026,0.224 2.828,0.672 0.803,0.4293 1.428,1.1013 1.876,2.016 0.448,0.896 0.672,2.0347 0.672,3.416 v 8.12 h -2.352 v -7.868 c 0,-1.4373 -0.308,-2.52 -0.924,-3.248 -0.616,-0.728 -1.502,-1.092 -2.66,-1.092 -0.802,0 -1.521,0.196 -2.156,0.588 -0.616,0.392 -1.11,0.9613 -1.484,1.708 -0.354,0.728 -0.532,1.6333 -0.532,2.716 v 7.196 z m 21.913,0.336 c -1.326,0 -2.502,-0.2987 -3.528,-0.896 -1.027,-0.616 -1.839,-1.4653 -2.436,-2.548 -0.579,-1.1013 -0.868,-2.38 -0.868,-3.836 0,-1.4747 0.289,-2.7533 0.868,-3.836 0.578,-1.0827 1.381,-1.9227 2.408,-2.52 1.045,-0.616 2.249,-0.924 3.612,-0.924 1.362,0 2.529,0.308 3.5,0.924 0.97,0.5973 1.717,1.3907 2.24,2.38 0.522,0.9707 0.784,2.0347 0.784,3.192 v 0.616 c 0,0.2053 -0.01,0.4387 -0.028,0.7 h -11.62 v -1.82 h 9.324 c -0.056,-1.2693 -0.486,-2.2587 -1.288,-2.968 -0.784,-0.7093 -1.774,-1.064 -2.968,-1.064 -0.803,0 -1.55,0.1773 -2.24,0.532 -0.691,0.3547 -1.251,0.8773 -1.68,1.568 -0.411,0.672 -0.616,1.5307 -0.616,2.576 v 0.784 c 0,1.1387 0.214,2.0907 0.644,2.856 0.429,0.7653 0.989,1.344 1.68,1.736 0.709,0.3733 1.446,0.56 2.212,0.56 0.97,0 1.782,-0.224 2.436,-0.672 0.653,-0.448 1.129,-1.0547 1.428,-1.82 h 2.324 c -0.243,0.8587 -0.644,1.624 -1.204,2.296 -0.56,0.672 -1.26,1.204 -2.1,1.596 -0.822,0.392 -1.783,0.588 -2.884,0.588 z m 14.364,-0.336 c -0.84,0 -1.568,-0.1307 -2.184,-0.392 -0.616,-0.2613 -1.092,-0.7 -1.428,-1.316 -0.317,-0.6347 -0.476,-1.484 -0.476,-2.548 v -7.728 h -2.408 v -1.904 h 2.408 l 0.308,-3.332 h 2.044 v 3.332 h 4.088 v 1.904 h -4.088 v 7.728 c 0,0.896 0.178,1.5027 0.532,1.82 0.355,0.3173 0.98,0.476 1.876,0.476 h 1.456 v 1.96 z m 7.73,0 -4.004,-13.888 h 2.352 l 3.164,11.872 -0.42,-0.028 3.416,-11.844 h 2.744 l 3.444,11.844 -0.42,0.028 3.108,-11.872 h 2.38 l -4.004,13.888 h -2.52 l -3.584,-12.292 h 0.448 l -3.584,12.292 z m 23.9,0.336 c -1.307,0 -2.483,-0.2987 -3.528,-0.896 -1.045,-0.5973 -1.876,-1.4373 -2.492,-2.52 -0.597,-1.1013 -0.896,-2.3893 -0.896,-3.864 0,-1.4747 0.308,-2.7533 0.924,-3.836 0.616,-1.1013 1.447,-1.9507 2.492,-2.548 1.064,-0.5973 2.249,-0.896 3.556,-0.896 1.307,0 2.483,0.2987 3.528,0.896 1.045,0.5973 1.867,1.4467 2.464,2.548 0.616,1.0827 0.924,2.3613 0.924,3.836 0,1.4747 -0.308,2.7627 -0.924,3.864 -0.616,1.0827 -1.456,1.9227 -2.52,2.52 -1.045,0.5973 -2.221,0.896 -3.528,0.896 z m 0,-1.96 c 0.803,0 1.549,-0.196 2.24,-0.588 0.691,-0.4107 1.251,-1.008 1.68,-1.792 0.429,-0.784 0.644,-1.764 0.644,-2.94 0,-1.1947 -0.215,-2.184 -0.644,-2.968 -0.411,-0.784 -0.961,-1.372 -1.652,-1.764 -0.691,-0.392 -1.428,-0.588 -2.212,-0.588 -0.784,0 -1.531,0.196 -2.24,0.588 -0.691,0.392 -1.251,0.98 -1.68,1.764 -0.429,0.784 -0.644,1.7733 -0.644,2.968 0,1.176 0.215,2.156 0.644,2.94 0.429,0.784 0.98,1.3813 1.652,1.792 0.691,0.392 1.428,0.588 2.212,0.588 z m 9.914,1.624 v -13.888 h 2.1 l 0.224,2.772 h 0.028 c 0.336,-0.728 0.737,-1.316 1.204,-1.764 0.485,-0.4667 1.054,-0.8027 1.707,-1.008 0.654,-0.224 1.41,-0.336 2.269,-0.336 v 2.464 h -0.644 c -0.654,0 -1.26,0.084 -1.82,0.252 -0.542,0.168 -1.018,0.4293 -1.428,0.784 -0.411,0.3547 -0.728,0.84 -0.952,1.456 -0.224,0.5973 -0.336,1.3347 -0.336,2.212 v 7.056 z m 18.552,0 -6.748,-7.644 6.076,-6.244 h 2.884 l -6.972,7.084 0.028,-1.68 7.728,8.484 z m -8.708,0 v -20.02 h 2.352 v 20.02 z m 18.253,0.336 c -1.101,0 -2.091,-0.1867 -2.968,-0.56 -0.877,-0.392 -1.587,-0.9333 -2.128,-1.624 -0.523,-0.7093 -0.849,-1.54 -0.98,-2.492 h 2.408 c 0.112,0.4853 0.317,0.9333 0.616,1.344 0.299,0.4107 0.7,0.7467 1.204,1.008 0.523,0.2427 1.148,0.364 1.876,0.364 0.672,0 1.223,-0.0933 1.652,-0.28 0.429,-0.2053 0.747,-0.4667 0.952,-0.784 0.205,-0.336 0.308,-0.6907 0.308,-1.064 0,-0.5413 -0.14,-0.952 -0.42,-1.232 -0.261,-0.2987 -0.663,-0.532 -1.204,-0.7 -0.523,-0.1867 -1.148,-0.364 -1.876,-0.532 -0.56,-0.1307 -1.129,-0.2893 -1.708,-0.476 -0.579,-0.1867 -1.111,-0.42 -1.596,-0.7 -0.467,-0.2987 -0.849,-0.6627 -1.148,-1.092 -0.28,-0.448 -0.42,-0.9893 -0.42,-1.624 0,-0.8027 0.205,-1.512 0.616,-2.128 0.411,-0.616 0.989,-1.1013 1.736,-1.456 0.765,-0.3547 1.661,-0.532 2.688,-0.532 1.475,0 2.679,0.364 3.612,1.092 0.952,0.728 1.503,1.7827 1.652,3.164 h -2.324 c -0.075,-0.728 -0.373,-1.288 -0.896,-1.68 -0.504,-0.4107 -1.195,-0.616 -2.072,-0.616 -0.859,0 -1.512,0.1773 -1.96,0.532 -0.448,0.3547 -0.672,0.8213 -0.672,1.4 0,0.3547 0.121,0.6627 0.364,0.924 0.261,0.2613 0.635,0.4853 1.12,0.672 0.504,0.1867 1.101,0.364 1.792,0.532 0.877,0.2053 1.699,0.448 2.464,0.728 0.765,0.28 1.391,0.6907 1.876,1.232 0.504,0.5227 0.756,1.2693 0.756,2.24 0.019,0.8587 -0.196,1.6147 -0.644,2.268 -0.429,0.6533 -1.045,1.1667 -1.848,1.54 -0.784,0.3547 -1.727,0.532 -2.828,0.532 z"
       fill="#ffffff"
       stroke-width="0"
       id="path692" />
  </g>
</svg>
