<svg version="1.2" xmlns="http://www.w3.org/2000/svg" viewBox="0 0 1544 540" width="1544" height="540"><style>.a{fill:#faaf41}.b{fill:#282b6c}.c{fill:#424142}</style><path fill-rule="evenodd" class="a" d="m432.3 219.1v5.4c-259 0-301.9 228.5-301.9 291.7 0 20.2-68.6 19.8-47.2-35.6 104.1-313.8 349.1-261.5 349.1-261.5z"/><path fill-rule="evenodd" class="b" d="m711.2 337.3h6.8v20.7h-67.3l-0.5-0.7-103.9-135h-33.9v85.8c-0.3 6 0 12 0.9 17.9 1 3.6 3.3 6.7 6.4 8.7 6 2.3 12.3 3.2 18.6 2.7h9.1v20.6h-112.2v-20.6h11.5c4.8 0.2 9.5-0.2 14.1-1.3 2.4-1 4.5-2.5 6-4.5 1.9-2.4 3.2-5.3 3.8-8.3 0.1-0.7 0.4-4.4 0.6-20.2v-186c0.3-5.8-0.5-11.5-2.3-17-1.2-3-3.3-5.4-6.1-7-4.5-1.8-9.4-2.5-14.3-2.1h-13.4v-20.7h148.4c21.6-0.9 43.3 2.1 63.8 8.9 13.5 5.1 25.2 14 33.7 25.6 7.9 11.5 12 25.1 11.8 39 0.2 14.3-3.8 28.4-11.5 40.4-8.2 12.2-19.7 21.8-33.1 27.7-16.8 7-34.9 10.5-53.2 10.4l73 88.9q5.5 7.2 11.8 13.8c4.3 3.9 9.2 7 14.5 9.2 5.4 2.2 11.1 3.2 16.9 3.1zm-65-190.9c0.3-9.7-2.1-19.4-6.9-27.9-4.4-7.3-10.9-13.2-18.7-16.8-11.5-4.4-23.8-6.3-36.1-5.7h-72.1v103.5h56.8c13.9 0.5 27.7-0.7 41.3-3.6 10.4-2.7 19.6-8.8 26.1-17.3 6.7-9.4 10-20.7 9.6-32.2z"/><path fill-rule="evenodd" class="b" d="m972.3 274.9l19.1 13.1-0.9 1.5q-11.9 17.7-27.6 32.1c-14.3 13.2-30.8 23.8-48.8 31.3-17.7 6.8-36.6 10.2-55.6 10-42 1.1-82.2-17.2-108.9-49.7-23-27.4-35.3-62.3-34.6-98.1-0.3-26.5 6.3-52.6 19.2-75.8 12.5-22.3 30.7-40.9 52.8-53.8 21.9-13.2 47.1-20.1 72.7-20.1 13.1-0.1 26.1 1.8 38.7 5.7 12.1 4.1 23.7 9.8 34.3 17l6.2-17.8h17.2l26.7 97.7-22.1 6.2-0.6-1.4c-6.6-15.1-14.3-29.7-23.1-43.7-8.3-11.7-19.2-21.3-31.9-28.2-12.9-6.9-27.3-10.5-42-10.4-17.6-0.1-34.8 5-49.6 14.5-16 10.6-28.7 25.4-36.9 42.7-9.6 19.7-14.5 41.4-14.2 63.4-0.3 22.4 4.6 44.6 14.4 64.7 8.7 17.8 22.1 32.9 38.8 43.5 15.7 10 34 15.2 52.6 15.2 19.2-0.4 38-5.7 54.6-15.3 19.1-10.7 35.6-25.4 48.5-43zm227.3-204.6h98.6v20.6h-8.3c-7.4-0.8-14.8 1.2-20.8 5.7-4.4 6.4-6.4 14.2-5.5 21.9v131c0.7 21.1-4 41.9-13.7 60.7-9.3 16.3-23.1 29.7-39.8 38.5-37.8 19-82.4 18.9-120.1-0.3-16.4-8.1-30.2-20.6-39.9-36.2-9.1-16.6-13.5-35.4-12.8-54.3v-139.4c0.4-6.1-0.4-12.3-2.3-18.2-1.2-3-3.5-5.5-6.3-7.1-4.9-1.8-10.2-2.6-15.5-2.3h-11.9v-20.6h113.2v20.6h-9c-6.3-0.3-12.5 0.5-18.4 2.6-2.7 1.2-4.8 3.4-5.9 6.1-1.9 6.1-2.6 12.5-2.1 18.9v128c-0.9 17.1 1.8 34.2 8.1 50.1 6.1 11.4 15.4 20.8 26.8 27 12.6 7.3 26.8 11 41.4 10.9 15.1 0 30-4.1 43.1-11.8 11.9-6.3 21.8-15.9 28.4-27.8 6.4-16.3 9.2-33.9 8.2-51.4v-123.2c0.3-6.3-0.5-12.7-2.6-18.7-1.4-3.4-4-6.2-7.2-8-5.1-2.1-10.5-3-16-2.7h-9.7zm344.3 206.1c-0.3 23.7-11.4 46-30.2 60.6-21.9 17.7-49.6 26.9-77.7 25.7-15 0.3-29.9-2.2-44.1-7.1-14.4-5.8-27.9-13.7-39.9-23.7l-8.9 26h-17l-19.5-105.2 22.1-4.5 0.5 1.4c6.1 17.4 15.4 33.5 27.3 47.5 10.4 12.3 23.1 22.3 37.5 29.4 13 6.5 27.2 9.9 41.7 9.9 18.3 0.3 36-5.8 50.2-17.3 10.9-7.8 17.4-20.3 17.7-33.7 0.3-11.1-4.3-21.7-12.7-29-14.2-10.3-30.3-17.7-47.3-21.7l-50.9-14.6c-22.9-5.1-44-16.3-61.1-32.3-11.6-12.3-18-28.7-18-45.6 0-13.3 4.1-26.3 11.7-37.1 9.2-12.5 21.5-22.3 35.7-28.4 16.5-7.7 34.4-11.5 52.5-11.4 15.6 0 31.2 2.8 45.8 8.3 9.7 3.6 18.7 8.7 26.8 15.1l8.1-18.5h17.2l22.5 90.6-22 6.6-0.6-1.3c-10.6-22.8-26.8-42.6-47-57.4-15.4-11.4-34-17.5-53.1-17.4-10.8-0.2-21.6 2-31.5 6.3-8.2 3.3-15.3 8.9-20.6 16-4.3 5.7-6.7 12.6-6.8 19.7 0.1 6.2 1.9 12.3 5.2 17.6 4.1 6.3 9.6 11.5 16.1 15.2 11.5 6.1 23.7 10.9 36.3 14.1l53.2 15.8q14.6 4.7 28.5 11.1c10.7 4.3 20.6 10.2 29.5 17.5 7.2 6.3 12.9 14.1 16.7 22.8 4.1 9.1 6.2 19 6.1 29zm-1130.3-57.8c-20.6 0-41.2 2.1-61.4 6.2l28.4 77.2c3 10.7 8.4 20.5 15.8 28.7 5.1 4.8 11.9 7.2 18.8 6.8h7.7v20.5h-128.9v-20.3l3.2-0.2c4.1-0.3 8.1-0.5 12.1-0.5 5.1 0.5 10.2-0.2 14.9-2.2 4-2.2 6.5-6.2 6.6-10.7-1.3-8.7-3.7-17.3-7-25.5l-20.2-59.8c-109.9 41-195.1 140.3-211.5 256.3 0.4 4.7 1.9 9.2 4.4 13.1 4.5 5.7 11.5 8.7 18.7 8h15.3l0.4 20.2h-130.8v-20.2h1.7c33.7 0 37.9-12.1 71-106.5 10.6-30.2 23.7-67.8 41.7-116l110.5-293.1h43.7l0.5 1.1 76.3 205.1c22-4.1 44.3-6.2 66.7-6.2 4.6 0 9.3 0.1 13.9 0.3l6.3 0.2v18.1l-7-0.3c-3.9-0.2-7.9-0.2-11.8-0.3zm-116.9 0.9l-7.8-19.3-52.6-147.3-89.4 248.3q-4 12.1-8.1 23.9c9.7-11.2 20-21.8 31-31.6 36.8-33.1 80-58.3 126.9-74z"/><path fill-rule="evenodd" class="c" d="m211.7 431.4h31.3q6.1 0 12 1.2c3.9 0.8 7.6 2.2 11 4.3 3.2 2.1 5.9 4.9 7.8 8.3 2.2 4 3.2 8.5 3.1 13.1 0.1 5.2-1.7 10.3-5.1 14.4-3.4 4.2-8.2 7-13.5 8.1v0.3c6.5 0.6 12.5 3.4 17 8 4.7 4.9 7.1 11.5 6.8 18.3 0.1 8.4-3.8 16.3-10.6 21.2-3.7 2.7-7.8 4.7-12.3 5.9-5.3 1.4-10.8 2.1-16.3 2.1h-31.2zm10.7 46h21.5q3.9 0 7.8-0.9 3.9-0.9 7.2-3c2.2-1.5 4-3.5 5.3-5.7 1.4-2.8 2.1-5.8 2-8.9 0.1-2.9-0.6-5.9-2-8.5-1.3-2.3-3.2-4.3-5.4-5.7-2.5-1.6-5.2-2.7-8.1-3.2q-4.8-1-9.8-1h-18.5zm0 49.9h19.9q5.6 0.1 11-1.1c3.3-0.6 6.4-1.8 9.2-3.6 2.6-1.6 4.8-3.7 6.3-6.4 4.5-8.3 2.5-18.7-4.6-24.9-6-3.8-13-5.6-20-5.1h-21.9zm131.6-96v105.2h-10.6v-105.2zm169 52.6c0 7.5-1.4 15.1-4.2 22.1-5.3 13.2-15.7 23.6-28.9 28.9-14 5.6-29.6 5.6-43.5 0-13.2-5.3-23.7-15.7-28.9-28.9-5.6-14.2-5.6-30 0-44.3 5.2-13.2 15.7-23.6 28.9-28.9 13.9-5.6 29.5-5.6 43.5 0 13.2 5.3 23.6 15.7 28.9 28.9 2.8 7 4.2 14.6 4.2 22.2zm-11.3 0c0-6-1-11.9-3-17.6-1.9-5.4-4.8-10.3-8.6-14.6-3.9-4.3-8.5-7.7-13.8-10.1-11.6-4.9-24.7-4.9-36.3 0-5.3 2.4-10 5.8-13.8 10.1-3.8 4.3-6.7 9.2-8.6 14.6-4 11.4-4 23.7 0 35.1 1.9 5.4 4.8 10.3 8.6 14.6 3.9 4.2 8.5 7.6 13.8 9.9 11.6 5 24.7 5 36.3 0 5.3-2.3 9.9-5.7 13.8-9.9 3.8-4.3 6.7-9.2 8.6-14.6 2-5.6 3-11.6 3-17.5zm121.6-35.7c-2.3-3.2-5.3-5.8-8.8-7.7-4-2-8.4-3-12.9-2.8q-4 0-7.9 1.1c-2.6 0.8-5.1 2-7.3 3.7-2.1 1.6-3.9 3.7-5.2 6.1-1.4 2.8-2.1 5.8-2 8.9-0.1 2.9 0.5 5.7 1.9 8.3 1.3 2.2 3.1 4.1 5.1 5.5q3.4 2.4 7.3 3.8 4.1 1.5 8.6 3 5.4 1.8 11 3.9c3.6 1.3 7 3.1 10.1 5.4 3 2.2 5.5 5.1 7.3 8.4 2 4.1 3 8.5 2.8 13 0.3 9-3.8 17.6-10.9 23.1-3.3 2.5-7 4.4-11 5.5-4 1.1-8.2 1.8-12.4 1.8-3.2 0-6.4-0.4-9.5-1-3.1-0.6-6.2-1.6-9.1-2.9-2.9-1.3-5.6-2.9-8-4.9-2.5-2-4.7-4.3-6.6-6.8l9.2-6.9c2.4 3.9 5.7 7.1 9.6 9.5 4.4 2.5 9.4 3.9 14.5 3.7 2.8 0 5.5-0.4 8.2-1.2 2.7-0.8 5.3-2.1 7.5-3.9 2.3-1.7 4.1-3.9 5.5-6.4 2.9-5.6 2.9-12.3 0-18-1.4-2.4-3.4-4.5-5.7-6-2.5-1.8-5.3-3.1-8.2-4.1q-4.6-1.7-9.6-3.3-5.1-1.6-10.3-3.8-4.9-1.9-9-5.4c-2.8-2.3-5-5.1-6.5-8.2-3.5-8.1-3.3-17.3 0.6-25.2 1.9-3.6 4.6-6.7 7.9-9.1 3.3-2.3 7-4.1 10.9-5.2 3.8-1 7.7-1.6 11.7-1.6 6.3-0.2 12.6 1.1 18.3 3.8 4.4 2 8.4 5.1 11.4 9zm158.5 71.3c-1.9 2.8-4 5.3-6.5 7.6-2.6 2.4-5.6 4.6-8.8 6.2-3.4 1.9-7.1 3.3-11 4.3-4.3 1.1-8.7 1.6-13.1 1.5-7.5 0.1-15-1.3-22-4.1-13.1-5.3-23.5-15.8-28.7-29-2.8-7-4.2-14.5-4.1-22.1-0.1-7.6 1.3-15.1 4.2-22.1 5.3-13.2 15.7-23.7 28.9-29 6.9-2.8 14.3-4.2 21.7-4.1 7.6 0 15 1.5 21.9 4.5 3.1 1.4 6.1 3.1 8.9 5.2 2.6 1.9 4.8 4.2 6.7 6.9l-8.9 6.5q-1.9-2.8-4.4-5c-2-1.8-4.2-3.3-6.5-4.5-2.6-1.3-5.3-2.3-8.1-3.1q-4.6-1.2-9.4-1.2c-6.4-0.1-12.6 1.2-18.4 3.8-5.2 2.4-9.9 5.8-13.7 10.1-3.8 4.2-6.7 9.2-8.6 14.6-2 5.6-3 11.6-3 17.5 0 6 1 11.9 3 17.6 2 5.3 4.9 10.3 8.7 14.6 3.9 4.3 8.5 7.7 13.8 10.1 5.7 2.5 11.9 3.8 18.2 3.7 5.9 0 11.8-1.3 17.2-3.7 5.6-2.6 10.3-6.8 13.6-11.9zm66.3-88.3v105.2h-10.7v-105.2zm75.7 95.7h56.3v9.5h-67v-105.2h65.3v9.5h-54.6v36.3h51v9.3h-51zm189-6.1h0.3v-89.6h10.6v105.3h-13.3l-61.2-90.5h-0.3v90.5h-10.7v-105.3h13.4zm164.5-1.3c-1.8 2.8-4 5.3-6.4 7.6q-4 3.7-8.8 6.2c-3.5 1.9-7.2 3.3-11 4.3q-6.4 1.7-13.2 1.5c-7.5 0.1-15-1.3-22-4.1-13.1-5.3-23.5-15.7-28.7-28.9-2.8-7.1-4.2-14.6-4.1-22.2-0.1-7.6 1.3-15.1 4.2-22.1 5.3-13.2 15.7-23.7 28.9-29 6.9-2.8 14.3-4.2 21.8-4.1 7.5 0 14.9 1.5 21.8 4.5 3.2 1.4 6.2 3.1 8.9 5.2 2.6 1.9 4.8 4.3 6.7 6.9l-8.9 6.5c-1.3-1.8-2.7-3.5-4.4-5-2-1.8-4.1-3.3-6.5-4.5-2.5-1.3-5.3-2.3-8.1-3.1-3-0.8-6.2-1.2-9.4-1.2-6.3-0.1-12.6 1.2-18.3 3.8-5.3 2.4-9.9 5.8-13.8 10.1-3.8 4.2-6.7 9.2-8.6 14.6-2 5.6-3 11.6-3 17.5 0 6 1.1 11.9 3.1 17.6 1.9 5.4 4.9 10.3 8.7 14.6 3.8 4.3 8.5 7.7 13.7 10.1 5.7 2.5 11.9 3.8 18.2 3.7 6 0 11.8-1.3 17.2-3.7 5.6-2.6 10.4-6.7 13.7-11.9zm66.3 7.4h56.2v9.5h-66.9v-105.2h65.2v9.5h-54.5v36.3h50.9v9.3h-50.9zm165.3-78.7c-2.3-3.2-5.3-5.8-8.8-7.7-4-2-8.5-3-12.9-2.9q-4.1 0.1-7.9 1.2c-2.6 0.8-5.1 2-7.3 3.7-2.2 1.6-4 3.7-5.3 6.1-1.4 2.8-2.1 5.8-2 8.8-0.1 2.9 0.6 5.8 2 8.4 1.3 2.1 3 4 5.1 5.5 2.2 1.6 4.7 2.9 7.3 3.8q4 1.5 8.5 3 5.5 1.8 11.1 3.8c3.6 1.3 7 3.2 10 5.5 3 2.2 5.5 5.1 7.3 8.4 2 4.1 3 8.5 2.8 13 0.3 9-3.7 17.6-10.9 23-3.3 2.6-7 4.4-11 5.6-4 1.1-8.2 1.7-12.4 1.7q-4.8 0-9.5-0.9-4.7-1-9-2.9c-2.9-1.3-5.6-2.9-8.1-4.9-2.4-2-4.6-4.3-6.5-6.9l9.2-6.8c2.4 3.9 5.7 7.1 9.6 9.4 4.4 2.6 9.4 3.9 14.5 3.8 2.7 0 5.5-0.4 8.1-1.2 2.8-0.9 5.3-2.2 7.6-3.9 2.2-1.7 4.1-3.9 5.5-6.4 2.8-5.6 2.8-12.3 0-18-1.5-2.4-3.4-4.5-5.8-6.1q-3.8-2.5-8.1-4.1-4.6-1.6-9.7-3.2-5-1.7-10.2-3.8c-3.3-1.3-6.4-3.2-9.1-5.4-2.7-2.3-4.9-5.1-6.4-8.3-3.5-8-3.3-17.2 0.5-25.1 2-3.6 4.7-6.7 8-9.1 3.3-2.4 6.9-4.1 10.8-5.2 3.9-1 7.8-1.6 11.8-1.6 6.3-0.2 12.5 1.1 18.2 3.8 4.5 2 8.4 5.1 11.5 9z"/></svg>