<svg width="199" height="44" viewBox="0 0 199 44" fill="none" xmlns="http://www.w3.org/2000/svg">
<path d="M6.912 17.3815C5.652 17.3815 4.566 17.1115 3.654 16.5715C2.742 16.0195 2.04 15.2575 1.548 14.2855C1.056 13.3015 0.81 12.1675 0.81 10.8835C0.81 9.59953 1.056 8.46553 1.548 7.48153C2.04 6.49753 2.742 5.72953 3.654 5.17753C4.566 4.62553 5.652 4.34953 6.912 4.34953C8.436 4.34953 9.684 4.72753 10.656 5.48353C11.64 6.23953 12.252 7.30753 12.492 8.68753H9.81C9.666 8.01553 9.342 7.49353 8.838 7.12153C8.346 6.73753 7.698 6.54553 6.894 6.54553C6.138 6.54553 5.49 6.72553 4.95 7.08553C4.41 7.43353 3.996 7.93153 3.708 8.57953C3.432 9.21553 3.294 9.98353 3.294 10.8835C3.294 11.7715 3.432 12.5395 3.708 13.1875C3.996 13.8355 4.41 14.3335 4.95 14.6815C5.49 15.0295 6.138 15.2035 6.894 15.2035C7.698 15.2035 8.346 15.0295 8.838 14.6815C9.33 14.3215 9.654 13.8235 9.81 13.1875H12.492C12.252 14.4955 11.64 15.5215 10.656 16.2655C9.684 17.0095 8.436 17.3815 6.912 17.3815ZM14.5306 17.1655V4.56553H16.9606V15.2755H22.4866V17.1655H14.5306ZM23.7222 17.1655L28.3302 4.56553H31.0842L35.6742 17.1655H33.1002L29.6982 7.33753L26.2782 17.1655H23.7222ZM25.7562 14.3035L26.4042 12.4135H32.8122L33.4422 14.3035H25.7562ZM41.6323 17.3815C40.7203 17.3815 39.9043 17.2255 39.1843 16.9135C38.4763 16.6015 37.9183 16.1455 37.5103 15.5455C37.1023 14.9455 36.8863 14.2195 36.8623 13.3675H39.4363C39.4483 13.7395 39.5443 14.0755 39.7243 14.3755C39.9043 14.6755 40.1563 14.9155 40.4803 15.0955C40.8043 15.2635 41.1883 15.3475 41.6323 15.3475C42.0043 15.3475 42.3283 15.2875 42.6043 15.1675C42.8923 15.0355 43.1143 14.8555 43.2703 14.6275C43.4383 14.3995 43.5223 14.1295 43.5223 13.8175C43.5223 13.4575 43.4323 13.1575 43.2523 12.9175C43.0723 12.6655 42.8263 12.4555 42.5143 12.2875C42.2023 12.1195 41.8483 11.9695 41.4523 11.8375C41.0563 11.6935 40.6363 11.5495 40.1923 11.4055C39.1963 11.0815 38.4403 10.6495 37.9243 10.1095C37.4083 9.56953 37.1503 8.85553 37.1503 7.96753C37.1503 7.21153 37.3303 6.56353 37.6903 6.02353C38.0503 5.48353 38.5543 5.06953 39.2023 4.78153C39.8503 4.49353 40.5883 4.34953 41.4163 4.34953C42.2683 4.34953 43.0183 4.49953 43.6663 4.79953C44.3143 5.08753 44.8243 5.50753 45.1963 6.05953C45.5683 6.61153 45.7663 7.25953 45.7903 8.00353H43.1803C43.1683 7.72753 43.0903 7.46953 42.9463 7.22953C42.8023 6.97753 42.5983 6.77953 42.3343 6.63553C42.0703 6.47953 41.7523 6.40153 41.3803 6.40153C41.0683 6.38953 40.7863 6.43753 40.5343 6.54553C40.2823 6.65353 40.0783 6.81553 39.9223 7.03153C39.7783 7.23553 39.7063 7.49353 39.7063 7.80553C39.7063 8.10553 39.7783 8.35753 39.9223 8.56153C40.0663 8.76553 40.2703 8.94553 40.5343 9.10153C40.8103 9.24553 41.1223 9.38353 41.4703 9.51553C41.8303 9.63553 42.2203 9.76153 42.6403 9.89353C43.2763 10.1095 43.8523 10.3675 44.3683 10.6675C44.8963 10.9555 45.3163 11.3335 45.6283 11.8015C45.9403 12.2695 46.0963 12.8875 46.0963 13.6555C46.0963 14.3155 45.9223 14.9275 45.5743 15.4915C45.2383 16.0555 44.7403 16.5115 44.0803 16.8595C43.4203 17.2075 42.6043 17.3815 41.6323 17.3815ZM52.4604 17.3815C51.5484 17.3815 50.7324 17.2255 50.0124 16.9135C49.3044 16.6015 48.7464 16.1455 48.3384 15.5455C47.9304 14.9455 47.7144 14.2195 47.6904 13.3675H50.2644C50.2764 13.7395 50.3724 14.0755 50.5524 14.3755C50.7324 14.6755 50.9844 14.9155 51.3084 15.0955C51.6324 15.2635 52.0164 15.3475 52.4604 15.3475C52.8324 15.3475 53.1564 15.2875 53.4324 15.1675C53.7204 15.0355 53.9424 14.8555 54.0984 14.6275C54.2664 14.3995 54.3504 14.1295 54.3504 13.8175C54.3504 13.4575 54.2604 13.1575 54.0804 12.9175C53.9004 12.6655 53.6544 12.4555 53.3424 12.2875C53.0304 12.1195 52.6764 11.9695 52.2804 11.8375C51.8844 11.6935 51.4644 11.5495 51.0204 11.4055C50.0244 11.0815 49.2684 10.6495 48.7524 10.1095C48.2364 9.56953 47.9784 8.85553 47.9784 7.96753C47.9784 7.21153 48.1584 6.56353 48.5184 6.02353C48.8784 5.48353 49.3824 5.06953 50.0304 4.78153C50.6784 4.49353 51.4164 4.34953 52.2444 4.34953C53.0964 4.34953 53.8464 4.49953 54.4944 4.79953C55.1424 5.08753 55.6524 5.50753 56.0244 6.05953C56.3964 6.61153 56.5944 7.25953 56.6184 8.00353H54.0084C53.9964 7.72753 53.9184 7.46953 53.7744 7.22953C53.6304 6.97753 53.4264 6.77953 53.1624 6.63553C52.8984 6.47953 52.5804 6.40153 52.2084 6.40153C51.8964 6.38953 51.6144 6.43753 51.3624 6.54553C51.1104 6.65353 50.9064 6.81553 50.7504 7.03153C50.6064 7.23553 50.5344 7.49353 50.5344 7.80553C50.5344 8.10553 50.6064 8.35753 50.7504 8.56153C50.8944 8.76553 51.0984 8.94553 51.3624 9.10153C51.6384 9.24553 51.9504 9.38353 52.2984 9.51553C52.6584 9.63553 53.0484 9.76153 53.4684 9.89353C54.1044 10.1095 54.6804 10.3675 55.1964 10.6675C55.7244 10.9555 56.1444 11.3335 56.4564 11.8015C56.7684 12.2695 56.9244 12.8875 56.9244 13.6555C56.9244 14.3155 56.7504 14.9275 56.4024 15.4915C56.0664 16.0555 55.5684 16.5115 54.9084 16.8595C54.2484 17.2075 53.4324 17.3815 52.4604 17.3815ZM58.9506 17.1655V4.56553H61.3806V17.1655H58.9506ZM69.5253 17.3815C68.2653 17.3815 67.1793 17.1115 66.2673 16.5715C65.3553 16.0195 64.6533 15.2575 64.1613 14.2855C63.6693 13.3015 63.4233 12.1675 63.4233 10.8835C63.4233 9.59953 63.6693 8.46553 64.1613 7.48153C64.6533 6.49753 65.3553 5.72953 66.2673 5.17753C67.1793 4.62553 68.2653 4.34953 69.5253 4.34953C71.0493 4.34953 72.2973 4.72753 73.2693 5.48353C74.2533 6.23953 74.8653 7.30753 75.1053 8.68753H72.4233C72.2793 8.01553 71.9553 7.49353 71.4513 7.12153C70.9593 6.73753 70.3113 6.54553 69.5073 6.54553C68.7513 6.54553 68.1033 6.72553 67.5633 7.08553C67.0233 7.43353 66.6093 7.93153 66.3213 8.57953C66.0453 9.21553 65.9073 9.98353 65.9073 10.8835C65.9073 11.7715 66.0453 12.5395 66.3213 13.1875C66.6093 13.8355 67.0233 14.3335 67.5633 14.6815C68.1033 15.0295 68.7513 15.2035 69.5073 15.2035C70.3113 15.2035 70.9593 15.0295 71.4513 14.6815C71.9433 14.3215 72.2673 13.8235 72.4233 13.1875H75.1053C74.8653 14.4955 74.2533 15.5215 73.2693 16.2655C72.2973 17.0095 71.0493 17.3815 69.5253 17.3815ZM81.3803 17.1655V4.56553H86.1143C87.1343 4.56553 87.9743 4.73953 88.6343 5.08753C89.3063 5.42353 89.8043 5.89153 90.1283 6.49153C90.4643 7.07953 90.6323 7.74553 90.6323 8.48953C90.6323 9.18553 90.4703 9.82753 90.1463 10.4155C89.8343 11.0035 89.3423 11.4835 88.6703 11.8555C88.0103 12.2155 87.1583 12.3955 86.1143 12.3955H83.8103V17.1655H81.3803ZM83.8103 10.4335H85.9523C86.7323 10.4335 87.2903 10.2595 87.6263 9.91153C87.9743 9.55153 88.1483 9.07753 88.1483 8.48953C88.1483 7.87753 87.9743 7.40353 87.6263 7.06753C87.2903 6.71953 86.7323 6.54553 85.9523 6.54553H83.8103V10.4335ZM96.2103 17.3815C95.3463 17.3815 94.5663 17.1835 93.8703 16.7875C93.1863 16.3795 92.6403 15.8215 92.2323 15.1135C91.8363 14.4055 91.6383 13.5895 91.6383 12.6655C91.6383 11.7295 91.8363 10.9075 92.2323 10.1995C92.6403 9.49153 93.1923 8.93953 93.8883 8.54353C94.5843 8.13553 95.3643 7.93153 96.2283 7.93153C97.0923 7.93153 97.8723 8.13553 98.5683 8.54353C99.2643 8.93953 99.8103 9.49153 100.206 10.1995C100.614 10.9075 100.818 11.7295 100.818 12.6655C100.818 13.5895 100.614 14.4055 100.206 15.1135C99.7983 15.8215 99.2463 16.3795 98.5503 16.7875C97.8663 17.1835 97.0863 17.3815 96.2103 17.3815ZM96.2103 15.2755C96.6063 15.2755 96.9603 15.1795 97.2723 14.9875C97.5963 14.7955 97.8543 14.5075 98.0463 14.1235C98.2383 13.7275 98.3343 13.2415 98.3343 12.6655C98.3343 12.0775 98.2383 11.5915 98.0463 11.2075C97.8663 10.8235 97.6143 10.5355 97.2903 10.3435C96.9783 10.1395 96.6243 10.0375 96.2283 10.0375C95.8443 10.0375 95.4903 10.1395 95.1663 10.3435C94.8423 10.5355 94.5843 10.8235 94.3923 11.2075C94.2003 11.5915 94.1043 12.0775 94.1043 12.6655C94.1043 13.2415 94.2003 13.7275 94.3923 14.1235C94.5843 14.5075 94.8363 14.7955 95.1483 14.9875C95.4723 15.1795 95.8263 15.2755 96.2103 15.2755ZM102.895 17.1655V8.14753H105.055L105.271 9.82153C105.499 9.43753 105.769 9.10753 106.081 8.83153C106.405 8.54353 106.777 8.32153 107.197 8.16553C107.629 8.00953 108.097 7.93153 108.601 7.93153V10.5055H107.845C107.473 10.5055 107.131 10.5475 106.819 10.6315C106.519 10.7155 106.255 10.8535 106.027 11.0455C105.799 11.2375 105.625 11.4955 105.505 11.8195C105.385 12.1435 105.325 12.5515 105.325 13.0435V17.1655H102.895ZM114.276 17.1655C113.64 17.1655 113.082 17.0695 112.602 16.8775C112.134 16.6735 111.768 16.3435 111.504 15.8875C111.24 15.4195 111.108 14.7835 111.108 13.9795V10.1815H109.56V8.14753H111.108L111.378 5.69953H113.538V8.14753H115.914V10.1815H113.538V14.0155C113.538 14.4235 113.628 14.7055 113.808 14.8615C113.988 15.0175 114.294 15.0955 114.726 15.0955H115.878V17.1655H114.276ZM121.002 17.3815C120.246 17.3815 119.622 17.2615 119.13 17.0215C118.638 16.7695 118.272 16.4395 118.032 16.0315C117.792 15.6115 117.672 15.1555 117.672 14.6635C117.672 14.1115 117.81 13.6255 118.086 13.2055C118.374 12.7855 118.806 12.4615 119.382 12.2335C119.958 11.9935 120.678 11.8735 121.542 11.8735H123.792C123.792 11.4295 123.732 11.0635 123.612 10.7755C123.492 10.4875 123.3 10.2715 123.036 10.1275C122.784 9.98353 122.454 9.91153 122.046 9.91153C121.59 9.91153 121.2 10.0135 120.876 10.2175C120.552 10.4215 120.354 10.7275 120.282 11.1355H117.906C117.978 10.4755 118.194 9.91153 118.554 9.44353C118.926 8.96353 119.412 8.59153 120.012 8.32753C120.624 8.06353 121.308 7.93153 122.064 7.93153C122.916 7.93153 123.654 8.07553 124.278 8.36353C124.902 8.65153 125.382 9.06553 125.718 9.60553C126.054 10.1455 126.222 10.8115 126.222 11.6035V17.1655H124.17L123.9 15.7795C123.768 16.0195 123.612 16.2355 123.432 16.4275C123.252 16.6195 123.042 16.7875 122.802 16.9315C122.562 17.0755 122.292 17.1835 121.992 17.2555C121.692 17.3395 121.362 17.3815 121.002 17.3815ZM121.578 15.5095C121.89 15.5095 122.166 15.4555 122.406 15.3475C122.658 15.2275 122.874 15.0715 123.054 14.8795C123.234 14.6755 123.372 14.4475 123.468 14.1955C123.576 13.9315 123.648 13.6555 123.684 13.3675V13.3495H121.83C121.458 13.3495 121.152 13.3975 120.912 13.4935C120.684 13.5895 120.51 13.7215 120.39 13.8895C120.282 14.0455 120.228 14.2315 120.228 14.4475C120.228 14.6755 120.282 14.8675 120.39 15.0235C120.51 15.1795 120.672 15.2995 120.876 15.3835C121.08 15.4675 121.314 15.5095 121.578 15.5095ZM128.471 17.1655V4.20553H130.901V17.1655H128.471Z" fill="white"/>
<path d="M0.836 36.1655V28.4655H3.333C3.94167 28.4655 4.44033 28.5682 4.829 28.7735C5.225 28.9715 5.51833 29.2429 5.709 29.5875C5.89967 29.9322 5.995 30.3245 5.995 30.7645C5.995 31.1899 5.89967 31.5785 5.709 31.9305C5.52567 32.2752 5.236 32.5502 4.84 32.7555C4.45133 32.9609 3.949 33.0635 3.333 33.0635H1.76V36.1655H0.836ZM1.76 32.2825H3.311C3.949 32.2825 4.39633 32.1432 4.653 31.8645C4.917 31.5859 5.049 31.2192 5.049 30.7645C5.049 30.2879 4.917 29.9139 4.653 29.6425C4.39633 29.3712 3.949 29.2355 3.311 29.2355H1.76V32.2825ZM10.5821 36.2975C9.86342 36.2975 9.22909 36.1325 8.67909 35.8025C8.13642 35.4652 7.71109 34.9995 7.40309 34.4055C7.09509 33.8042 6.94109 33.1075 6.94109 32.3155C6.94109 31.5309 7.09509 30.8415 7.40309 30.2475C7.71109 29.6462 8.13642 29.1769 8.67909 28.8395C9.22909 28.5022 9.86342 28.3335 10.5821 28.3335C11.3081 28.3335 11.9424 28.5022 12.4851 28.8395C13.0351 29.1769 13.4604 29.6462 13.7611 30.2475C14.0618 30.8415 14.2121 31.5309 14.2121 32.3155C14.2121 33.1075 14.0618 33.8042 13.7611 34.4055C13.4604 34.9995 13.0351 35.4652 12.4851 35.8025C11.9424 36.1325 11.3081 36.2975 10.5821 36.2975ZM10.5821 35.4835C11.1174 35.4835 11.5868 35.3589 11.9901 35.1095C12.3934 34.8529 12.7051 34.4899 12.9251 34.0205C13.1524 33.5439 13.2661 32.9755 13.2661 32.3155C13.2661 31.6555 13.1524 31.0909 12.9251 30.6215C12.7051 30.1449 12.3934 29.7819 11.9901 29.5325C11.5868 29.2832 11.1174 29.1585 10.5821 29.1585C10.0468 29.1585 9.57742 29.2832 9.17409 29.5325C8.77075 29.7819 8.45542 30.1449 8.22809 30.6215C8.00075 31.0909 7.88709 31.6555 7.88709 32.3155C7.88709 32.9755 8.00075 33.5439 8.22809 34.0205C8.45542 34.4899 8.77075 34.8529 9.17409 35.1095C9.57742 35.3589 10.0468 35.4835 10.5821 35.4835ZM16.868 36.1655L14.756 28.4655H15.746L17.407 35.0655L19.299 28.4655H20.322L22.159 35.0875L23.842 28.4655H24.832L22.676 36.1655H21.62L19.783 29.7965L17.902 36.1655H16.868ZM25.9512 36.1655V28.4655H30.7142V29.2245H26.8752V31.9085H30.3842V32.6565H26.8752V35.4065H30.7142V36.1655H25.9512ZM32.2032 36.1655V28.4655H34.6892C35.2905 28.4655 35.7819 28.5682 36.1632 28.7735C36.5445 28.9715 36.8269 29.2392 37.0102 29.5765C37.1935 29.9139 37.2852 30.2952 37.2852 30.7205C37.2852 31.1312 37.1899 31.5089 36.9992 31.8535C36.8159 32.1982 36.5299 32.4732 36.1412 32.6785C35.7525 32.8839 35.2539 32.9865 34.6452 32.9865H33.1272V36.1655H32.2032ZM36.2732 36.1655L34.5792 32.7225H35.6132L37.3622 36.1655H36.2732ZM33.1272 32.2605H34.6232C35.2099 32.2605 35.6389 32.1175 35.9102 31.8315C36.1889 31.5455 36.3282 31.1789 36.3282 30.7315C36.3282 30.2769 36.1925 29.9175 35.9212 29.6535C35.6572 29.3822 35.2209 29.2465 34.6122 29.2465H33.1272V32.2605ZM38.7667 36.1655V28.4655H43.5297V29.2245H39.6907V31.9085H43.1997V32.6565H39.6907V35.4065H43.5297V36.1655H38.7667ZM45.0186 36.1655V28.4655H47.1196C48.0143 28.4655 48.7513 28.6232 49.3306 28.9385C49.9173 29.2465 50.35 29.6902 50.6286 30.2695C50.9146 30.8415 51.0576 31.5309 51.0576 32.3375C51.0576 33.1295 50.9146 33.8115 50.6286 34.3835C50.35 34.9555 49.9173 35.3955 49.3306 35.7035C48.7513 36.0115 48.0143 36.1655 47.1196 36.1655H45.0186ZM45.9426 35.3955H47.0976C47.8383 35.3955 48.4286 35.2745 48.8686 35.0325C49.3086 34.7832 49.624 34.4312 49.8146 33.9765C50.0053 33.5145 50.1006 32.9682 50.1006 32.3375C50.1006 31.6922 50.0053 31.1385 49.8146 30.6765C49.624 30.2145 49.3086 29.8589 48.8686 29.6095C48.4286 29.3602 47.8383 29.2355 47.0976 29.2355H45.9426V35.3955ZM55.3741 36.1655V28.4655H58.0801C58.6228 28.4655 59.0701 28.5535 59.4221 28.7295C59.7814 28.8982 60.0491 29.1329 60.2251 29.4335C60.4011 29.7269 60.4891 30.0569 60.4891 30.4235C60.4891 30.8195 60.4011 31.1495 60.2251 31.4135C60.0564 31.6775 59.8328 31.8792 59.5541 32.0185C59.2828 32.1579 58.9931 32.2422 58.6851 32.2715L58.8391 32.1615C59.1691 32.1689 59.4734 32.2569 59.7521 32.4255C60.0308 32.5942 60.2508 32.8215 60.4121 33.1075C60.5808 33.3935 60.6651 33.7125 60.6651 34.0645C60.6651 34.4532 60.5698 34.8089 60.3791 35.1315C60.1884 35.4469 59.9061 35.6999 59.5321 35.8905C59.1654 36.0739 58.7108 36.1655 58.1681 36.1655H55.3741ZM56.2981 35.3955H58.0691C58.5898 35.3955 58.9931 35.2745 59.2791 35.0325C59.5724 34.7832 59.7191 34.4385 59.7191 33.9985C59.7191 33.5659 59.5688 33.2212 59.2681 32.9645C58.9748 32.7005 58.5678 32.5685 58.0471 32.5685H56.2981V35.3955ZM56.2981 31.8315H58.0141C58.5128 31.8315 58.8904 31.7142 59.1471 31.4795C59.4111 31.2449 59.5431 30.9259 59.5431 30.5225C59.5431 30.1339 59.4111 29.8222 59.1471 29.5875C58.8904 29.3529 58.5018 29.2355 57.9811 29.2355H56.2981V31.8315ZM63.6042 36.1655V33.2395L61.0962 28.4655H62.1412L64.1212 32.4695H64.0112L65.9912 28.4655H67.0252L64.5282 33.2395V36.1655H63.6042Z" fill="white"/>
<path d="M75.9501 34.2054C75.9358 34.2054 75.9073 34.2054 75.893 34.1912L72.057 31.8667C72.0143 31.8382 72 31.8097 72 31.7669V27.4318C72 27.389 72.0143 27.3605 72.057 27.332C72.0856 27.3177 72.1283 27.3177 72.1711 27.332L75.9643 29.5566C75.9929 29.5708 76.0214 29.6136 76.0214 29.6421L76.0642 34.0771C76.0642 34.1199 76.0499 34.1484 76.0071 34.1769C75.9786 34.2054 75.9643 34.2054 75.9501 34.2054ZM72.2139 31.7099L75.836 33.906L75.7932 29.7277L72.2139 27.6314V31.7099Z" fill="white" stroke="white" stroke-width="0.25"/>
<path d="M75.9501 34.1056C75.9073 34.1056 75.8788 34.0914 75.8645 34.0486C75.836 33.9916 75.8503 33.9345 75.9073 33.906L78.0463 32.6511L79.1586 32.0094C79.2157 31.9809 79.2727 31.9951 79.3012 32.0522C79.3298 32.1092 79.3155 32.1662 79.2585 32.1948L76.0071 34.0771C75.9929 34.0914 75.9643 34.1056 75.9501 34.1056Z" fill="white" stroke="white" stroke-width="0.25"/>
<path d="M79.7718 40.6653C79.7576 40.6653 79.729 40.6653 79.7148 40.6511L75.9501 38.4122C75.9216 38.398 75.893 38.3552 75.893 38.3267L75.836 34.1056C75.836 34.0629 75.8503 34.0343 75.893 34.0058C75.9216 33.9916 75.9643 33.9916 76.0071 34.0058L79.8003 36.1306C79.8289 36.1448 79.8574 36.1876 79.8574 36.2304L79.8859 40.5513C79.8859 40.594 79.8716 40.6226 79.8289 40.6511C79.8003 40.6511 79.7861 40.6653 79.7718 40.6653ZM76.1069 38.2554L79.6577 40.3659L79.6292 36.2875L76.0642 34.291L76.1069 38.2554Z" fill="white" stroke="white" stroke-width="0.25"/>
<path d="M80.4421 40.6515C80.4278 40.6515 80.3993 40.6515 80.385 40.6372C80.3565 40.623 80.328 40.5802 80.328 40.5517L80.2709 36.2308C80.2709 36.188 80.2852 36.1595 80.328 36.131L84.1212 33.9492C84.1497 33.9349 84.1925 33.9349 84.2353 33.9492C84.2638 33.9634 84.2923 34.0062 84.2923 34.049L84.1925 38.3413C84.1925 38.3841 84.1782 38.4126 84.1355 38.4269L80.4991 40.6372C80.4848 40.6515 80.4706 40.6515 80.4421 40.6515ZM80.4991 36.2879L80.5561 40.352L83.9786 38.27L84.0642 34.2201L80.4991 36.2879Z" fill="white" stroke="white" stroke-width="0.25"/>
<path d="M84.1355 34.0489C84.1212 34.0489 84.0927 34.0489 84.0784 34.0346L81.9251 32.794H81.9109L80.7986 32.1523C80.7415 32.1238 80.7273 32.0525 80.7558 32.0097C80.7843 31.9526 80.8556 31.9384 80.8984 31.9669L84.1783 33.8492C84.2353 33.8778 84.2496 33.9491 84.221 33.9919C84.2068 34.0346 84.164 34.0489 84.1355 34.0489Z" fill="white" stroke="white" stroke-width="0.25"/>
<path d="M84.2068 34.0775C84.1925 34.0775 84.164 34.0775 84.1497 34.0632C84.1212 34.0489 84.0927 34.0062 84.0927 33.9776L84.0356 29.6283C84.0356 29.5855 84.0499 29.557 84.0927 29.5285L87.8289 27.3466C87.8574 27.3324 87.9002 27.3324 87.943 27.3466C87.9715 27.3609 88 27.4037 88 27.4465V31.7958C88 31.8386 87.9857 31.8671 87.943 31.8814L84.2638 34.0632C84.2495 34.0775 84.2353 34.0775 84.2068 34.0775ZM84.2638 29.6853L84.3066 33.7923L87.7718 31.7245V27.6176L84.2638 29.6853Z" fill="white" stroke="white" stroke-width="0.25"/>
<path d="M83.9216 29.1149C83.9073 29.1149 83.8788 29.1149 83.8645 29.1006L80.0998 26.9616C80.0713 26.9473 80.0428 26.9045 80.0428 26.8617C80.0428 26.819 80.0713 26.7904 80.0998 26.7619L83.9216 24.7084C83.9501 24.6942 83.9929 24.6942 84.0214 24.7084L87.7005 26.7049C87.729 26.7191 87.7576 26.7619 87.7576 26.7904C87.7576 26.8332 87.7433 26.8617 87.7005 26.8903L83.9786 29.1006C83.9501 29.1149 83.9358 29.1149 83.9216 29.1149ZM80.385 26.876L83.9216 28.8867L87.4438 26.7904L83.9786 24.9224L80.385 26.876Z" fill="white" stroke="white" stroke-width="0.25"/>
<path d="M80.0856 30.7976C80.0285 30.7976 79.9857 30.7548 79.9715 30.6977V29.4143C79.9715 29.4143 79.9715 29.4143 79.9715 29.4001L79.9572 26.9188C79.9572 26.8617 80 26.8047 80.057 26.8047C80.1141 26.8047 80.1569 26.8475 80.1711 26.9045L80.1854 30.6835C80.1854 30.7548 80.1426 30.7976 80.0856 30.7976Z" fill="white" stroke="white" stroke-width="0.25"/>
<path d="M76.3066 29.1575C76.2923 29.1575 76.2638 29.1575 76.2496 29.1432L72.4849 27.0042C72.4563 26.9899 72.4278 26.9472 72.4278 26.9044C72.4278 26.8616 72.4421 26.8331 72.4849 26.8046L76.3066 24.6655C76.3494 24.6655 76.3922 24.6655 76.4207 24.6798L80.0998 26.776C80.1283 26.7903 80.1569 26.8331 80.1569 26.8616C80.1569 26.8901 80.1426 26.9329 80.0998 26.9614L76.3636 29.1432C76.3494 29.1575 76.3351 29.1575 76.3066 29.1575ZM72.7701 26.9186L76.3066 28.9436L79.8431 26.8759L76.3636 24.8937L72.7701 26.9186Z" fill="white" stroke="white" stroke-width="0.25"/>
<path d="M95.3 36.2975C94.7353 36.2975 94.244 36.1949 93.826 35.9895C93.408 35.7842 93.0853 35.4982 92.858 35.1315C92.6307 34.7649 92.517 34.3395 92.517 33.8555H93.485C93.485 34.1562 93.5547 34.4349 93.694 34.6915C93.8333 34.9409 94.035 35.1425 94.299 35.2965C94.5703 35.4432 94.904 35.5165 95.3 35.5165C95.6447 35.5165 95.938 35.4615 96.18 35.3515C96.4293 35.2342 96.6163 35.0765 96.741 34.8785C96.873 34.6805 96.939 34.4569 96.939 34.2075C96.939 33.9215 96.8767 33.6869 96.752 33.5035C96.6273 33.3129 96.455 33.1589 96.235 33.0415C96.0223 32.9169 95.773 32.8105 95.487 32.7225C95.2083 32.6272 94.9077 32.5245 94.585 32.4145C93.9617 32.2092 93.5033 31.9525 93.21 31.6445C92.924 31.3365 92.781 30.9369 92.781 30.4455C92.781 30.0275 92.8763 29.6609 93.067 29.3455C93.265 29.0302 93.5437 28.7845 93.903 28.6085C94.2697 28.4252 94.7023 28.3335 95.201 28.3335C95.6923 28.3335 96.1177 28.4252 96.477 28.6085C96.8437 28.7919 97.1297 29.0449 97.335 29.3675C97.5403 29.6829 97.643 30.0495 97.643 30.4675H96.675C96.675 30.2549 96.62 30.0459 96.51 29.8405C96.4 29.6352 96.2313 29.4665 96.004 29.3345C95.784 29.1952 95.5053 29.1255 95.168 29.1255C94.8893 29.1182 94.64 29.1659 94.42 29.2685C94.2073 29.3639 94.0387 29.5032 93.914 29.6865C93.7967 29.8699 93.738 30.0935 93.738 30.3575C93.738 30.6069 93.7893 30.8085 93.892 30.9625C94.002 31.1165 94.156 31.2485 94.354 31.3585C94.5593 31.4612 94.7977 31.5565 95.069 31.6445C95.3403 31.7325 95.641 31.8315 95.971 31.9415C96.345 32.0662 96.675 32.2202 96.961 32.4035C97.2543 32.5795 97.4817 32.8069 97.643 33.0855C97.8117 33.3642 97.896 33.7199 97.896 34.1525C97.896 34.5192 97.797 34.8675 97.599 35.1975C97.4083 35.5202 97.1223 35.7842 96.741 35.9895C96.3597 36.1949 95.8793 36.2975 95.3 36.2975ZM98.7648 36.1655L101.603 28.4655H102.582L105.409 36.1655H104.419L102.087 29.6205L99.7328 36.1655H98.7648ZM100.063 34.1855L100.327 33.4375H103.814L104.078 34.1855H100.063ZM109.435 36.2975C108.716 36.2975 108.085 36.1325 107.543 35.8025C107 35.4652 106.578 34.9995 106.278 34.4055C105.977 33.8115 105.827 33.1185 105.827 32.3265C105.827 31.5419 105.977 30.8489 106.278 30.2475C106.586 29.6462 107.018 29.1769 107.576 28.8395C108.14 28.5022 108.804 28.3335 109.567 28.3335C110.432 28.3335 111.154 28.5425 111.734 28.9605C112.313 29.3712 112.683 29.9469 112.845 30.6875H111.778C111.675 30.2255 111.433 29.8589 111.052 29.5875C110.67 29.3162 110.175 29.1805 109.567 29.1805C109.002 29.1805 108.507 29.3089 108.082 29.5655C107.664 29.8149 107.341 30.1742 107.114 30.6435C106.886 31.1129 106.773 31.6739 106.773 32.3265C106.773 32.9792 106.886 33.5439 107.114 34.0205C107.341 34.4899 107.656 34.8492 108.06 35.0985C108.47 35.3479 108.94 35.4725 109.468 35.4725C110.289 35.4725 110.909 35.2305 111.327 34.7465C111.745 34.2625 111.983 33.6062 112.042 32.7775H109.82V32.0515H112.988V36.1655H112.141L112.064 34.9005C111.88 35.2012 111.668 35.4579 111.426 35.6705C111.191 35.8759 110.912 36.0335 110.59 36.1435C110.267 36.2462 109.882 36.2975 109.435 36.2975ZM114.503 36.1655V28.4655H119.266V29.2245H115.427V31.9085H118.936V32.6565H115.427V35.4065H119.266V36.1655H114.503ZM123.698 36.1655V28.4655H126.404C126.947 28.4655 127.394 28.5535 127.746 28.7295C128.106 28.8982 128.373 29.1329 128.549 29.4335C128.725 29.7269 128.813 30.0569 128.813 30.4235C128.813 30.8195 128.725 31.1495 128.549 31.4135C128.381 31.6775 128.157 31.8792 127.878 32.0185C127.607 32.1579 127.317 32.2422 127.009 32.2715L127.163 32.1615C127.493 32.1689 127.798 32.2569 128.076 32.4255C128.355 32.5942 128.575 32.8215 128.736 33.1075C128.905 33.3935 128.989 33.7125 128.989 34.0645C128.989 34.4532 128.894 34.8089 128.703 35.1315C128.513 35.4469 128.23 35.6999 127.856 35.8905C127.49 36.0739 127.035 36.1655 126.492 36.1655H123.698ZM124.622 35.3955H126.393C126.914 35.3955 127.317 35.2745 127.603 35.0325C127.897 34.7832 128.043 34.4385 128.043 33.9985C128.043 33.5659 127.893 33.2212 127.592 32.9645C127.299 32.7005 126.892 32.5685 126.371 32.5685H124.622V35.3955ZM124.622 31.8315H126.338C126.837 31.8315 127.215 31.7142 127.471 31.4795C127.735 31.2449 127.867 30.9259 127.867 30.5225C127.867 30.1339 127.735 29.8222 127.471 29.5875C127.215 29.3529 126.826 29.2355 126.305 29.2355H124.622V31.8315ZM130.358 36.1655V28.4655H131.282V36.1655H130.358ZM136.291 36.2975C135.572 36.2975 134.938 36.1325 134.388 35.8025C133.845 35.4652 133.42 34.9995 133.112 34.4055C132.804 33.8042 132.65 33.1075 132.65 32.3155C132.65 31.5309 132.804 30.8415 133.112 30.2475C133.42 29.6462 133.845 29.1769 134.388 28.8395C134.938 28.5022 135.572 28.3335 136.291 28.3335C137.017 28.3335 137.651 28.5022 138.194 28.8395C138.744 29.1769 139.169 29.6462 139.47 30.2475C139.771 30.8415 139.921 31.5309 139.921 32.3155C139.921 33.1075 139.771 33.8042 139.47 34.4055C139.169 34.9995 138.744 35.4652 138.194 35.8025C137.651 36.1325 137.017 36.2975 136.291 36.2975ZM136.291 35.4835C136.826 35.4835 137.296 35.3589 137.699 35.1095C138.102 34.8529 138.414 34.4899 138.634 34.0205C138.861 33.5439 138.975 32.9755 138.975 32.3155C138.975 31.6555 138.861 31.0909 138.634 30.6215C138.414 30.1449 138.102 29.7819 137.699 29.5325C137.296 29.2832 136.826 29.1585 136.291 29.1585C135.756 29.1585 135.286 29.2832 134.883 29.5325C134.48 29.7819 134.164 30.1449 133.937 30.6215C133.71 31.0909 133.596 31.6555 133.596 32.3155C133.596 32.9755 133.71 33.5439 133.937 34.0205C134.164 34.4899 134.48 34.8529 134.883 35.1095C135.286 35.3589 135.756 35.4835 136.291 35.4835ZM141.283 36.1655V28.4655H142.207L146.31 34.6475V28.4655H147.234V36.1655H146.31L142.207 29.9835V36.1655H141.283ZM148.91 36.1655V28.4655H153.673V29.2245H149.834V31.9085H153.343V32.6565H149.834V35.4065H153.673V36.1655H148.91ZM156.955 36.1655V29.2245H154.656V28.4655H160.178V29.2245H157.879V36.1655H156.955ZM162.933 36.1655L160.821 28.4655H161.811L163.472 35.0655L165.364 28.4655H166.387L168.224 35.0875L169.907 28.4655H170.897L168.741 36.1655H167.685L165.848 29.7965L163.967 36.1655H162.933ZM175.07 36.2975C174.352 36.2975 173.717 36.1325 173.167 35.8025C172.625 35.4652 172.199 34.9995 171.891 34.4055C171.583 33.8042 171.429 33.1075 171.429 32.3155C171.429 31.5309 171.583 30.8415 171.891 30.2475C172.199 29.6462 172.625 29.1769 173.167 28.8395C173.717 28.5022 174.352 28.3335 175.07 28.3335C175.796 28.3335 176.431 28.5022 176.973 28.8395C177.523 29.1769 177.949 29.6462 178.249 30.2475C178.55 30.8415 178.7 31.5309 178.7 32.3155C178.7 33.1075 178.55 33.8042 178.249 34.4055C177.949 34.9995 177.523 35.4652 176.973 35.8025C176.431 36.1325 175.796 36.2975 175.07 36.2975ZM175.07 35.4835C175.606 35.4835 176.075 35.3589 176.478 35.1095C176.882 34.8529 177.193 34.4899 177.413 34.0205C177.641 33.5439 177.754 32.9755 177.754 32.3155C177.754 31.6555 177.641 31.0909 177.413 30.6215C177.193 30.1449 176.882 29.7819 176.478 29.5325C176.075 29.2832 175.606 29.1585 175.07 29.1585C174.535 29.1585 174.066 29.2832 173.662 29.5325C173.259 29.7819 172.944 30.1449 172.716 30.6215C172.489 31.0909 172.375 31.6555 172.375 32.3155C172.375 32.9755 172.489 33.5439 172.716 34.0205C172.944 34.4899 173.259 34.8529 173.662 35.1095C174.066 35.3589 174.535 35.4835 175.07 35.4835ZM180.063 36.1655V28.4655H182.549C183.15 28.4655 183.641 28.5682 184.023 28.7735C184.404 28.9715 184.686 29.2392 184.87 29.5765C185.053 29.9139 185.145 30.2952 185.145 30.7205C185.145 31.1312 185.049 31.5089 184.859 31.8535C184.675 32.1982 184.389 32.4732 184.001 32.6785C183.612 32.8839 183.113 32.9865 182.505 32.9865H180.987V36.1655H180.063ZM184.133 36.1655L182.439 32.7225H183.473L185.222 36.1655H184.133ZM180.987 32.2605H182.483C183.069 32.2605 183.498 32.1175 183.77 31.8315C184.048 31.5455 184.188 31.1789 184.188 30.7315C184.188 30.2769 184.052 29.9175 183.781 29.6535C183.517 29.3822 183.08 29.2465 182.472 29.2465H180.987V32.2605ZM186.626 36.1655V28.4655H187.55V31.9525L190.762 28.4655H191.928L189.068 31.5345L191.972 36.1655H190.85L188.408 32.2495L187.55 33.1625V36.1655H186.626ZM195.557 36.2975C194.992 36.2975 194.501 36.1949 194.083 35.9895C193.665 35.7842 193.342 35.4982 193.115 35.1315C192.888 34.7649 192.774 34.3395 192.774 33.8555H193.742C193.742 34.1562 193.812 34.4349 193.951 34.6915C194.09 34.9409 194.292 35.1425 194.556 35.2965C194.827 35.4432 195.161 35.5165 195.557 35.5165C195.902 35.5165 196.195 35.4615 196.437 35.3515C196.686 35.2342 196.873 35.0765 196.998 34.8785C197.13 34.6805 197.196 34.4569 197.196 34.2075C197.196 33.9215 197.134 33.6869 197.009 33.5035C196.884 33.3129 196.712 33.1589 196.492 33.0415C196.279 32.9169 196.03 32.8105 195.744 32.7225C195.465 32.6272 195.165 32.5245 194.842 32.4145C194.219 32.2092 193.76 31.9525 193.467 31.6445C193.181 31.3365 193.038 30.9369 193.038 30.4455C193.038 30.0275 193.133 29.6609 193.324 29.3455C193.522 29.0302 193.801 28.7845 194.16 28.6085C194.527 28.4252 194.959 28.3335 195.458 28.3335C195.949 28.3335 196.375 28.4252 196.734 28.6085C197.101 28.7919 197.387 29.0449 197.592 29.3675C197.797 29.6829 197.9 30.0495 197.9 30.4675H196.932C196.932 30.2549 196.877 30.0459 196.767 29.8405C196.657 29.6352 196.488 29.4665 196.261 29.3345C196.041 29.1952 195.762 29.1255 195.425 29.1255C195.146 29.1182 194.897 29.1659 194.677 29.2685C194.464 29.3639 194.296 29.5032 194.171 29.6865C194.054 29.8699 193.995 30.0935 193.995 30.3575C193.995 30.6069 194.046 30.8085 194.149 30.9625C194.259 31.1165 194.413 31.2485 194.611 31.3585C194.816 31.4612 195.055 31.5565 195.326 31.6445C195.597 31.7325 195.898 31.8315 196.228 31.9415C196.602 32.0662 196.932 32.2202 197.218 32.4035C197.511 32.5795 197.739 32.8069 197.9 33.0855C198.069 33.3642 198.153 33.7199 198.153 34.1525C198.153 34.5192 198.054 34.8675 197.856 35.1975C197.665 35.5202 197.379 35.7842 196.998 35.9895C196.617 36.1949 196.136 36.2975 195.557 36.2975Z" fill="white"/>
</svg>
