<svg width="137" height="35" viewBox="0 0 137 35" fill="none" xmlns="http://www.w3.org/2000/svg">
<g clip-path="url(#clip0_2357_1386)">
<path d="M47.0288 0.900391L34.7994 29.7115L22.0972 0.900391H14.6438L0.9375 33.1899H7.83313L18.3359 6.72747L24.2541 20.7198H16.7369V26.0761H26.5172L29.5294 33.1899H40.2181L50.7263 6.72747L56.6444 20.7198H49.1272V26.0761H58.9075L61.9144 33.1899H68.725L54.4875 0.900391H47.0288Z" fill="black"/>
<path d="M121.542 20.1182L129.744 33.1899H136.874L127.518 18.6222C130.159 17.2936 132.512 14.8665 132.512 10.5145C132.512 1.48101 123.555 0.900391 121.165 0.900391H108.617V14.4481H87.085V20.1235H108.617V33.1899H114.901V20.1235C114.896 20.1235 119.268 20.1182 121.542 20.1182ZM121.159 14.4481H114.896V6.1887H121.159C123.003 6.1887 126.275 6.90008 126.275 10.2792C126.275 13.6582 122.796 14.4481 121.159 14.4481Z" fill="black"/>
<path d="M92.7322 26.238C91.0534 27.2894 89.0665 27.8961 86.9362 27.8961C80.8906 27.8961 76.2262 22.9949 76.2262 17.0423C76.2262 11.0897 80.8906 6.18845 86.9362 6.18845C89.6084 6.18845 92.0522 7.15091 93.954 8.7306C94.4003 9.09153 94.8147 9.48383 95.1972 9.91276L99.9465 5.98445C96.8069 2.40137 92.1637 0.199219 86.984 0.199219C77.5384 0.199219 69.7769 7.76291 69.7769 17.0632C69.7769 26.3635 77.5384 33.9272 86.984 33.9272C92.0203 33.9272 96.5465 31.9918 99.6809 28.5709L94.9634 24.6112C94.3047 25.3069 93.5556 25.7463 92.7322 26.238Z" fill="black"/>
</g>
<defs>
<clipPath id="clip0_2357_1386">
<rect width="136" height="34" fill="white" transform="translate(0.9375 0.199219)"/>
</clipPath>
</defs>
</svg>
