<svg width="136" height="34" viewBox="0 0 136 34" fill="none" xmlns="http://www.w3.org/2000/svg">
<g clip-path="url(#clip0_2357_1386)">
<path d="M46.0913 0.701172L33.8619 29.5123L21.1597 0.701172H13.7063L0 32.9907H6.89563L17.3984 6.52825L23.3166 20.5206H15.7994V25.8769H25.5797L28.5919 32.9907H39.2806L49.7888 6.52825L55.7069 20.5206H48.1897V25.8769H57.97L60.9769 32.9907H67.7875L53.55 0.701172H46.0913Z" fill="black"/>
<path d="M120.604 19.919L128.807 32.9907H135.936L126.581 18.423C129.221 17.0944 131.575 14.6673 131.575 10.3153C131.575 1.28179 122.618 0.701172 120.227 0.701172H107.679V14.2489H86.1475V19.9243H107.679V32.9907H113.964V19.9243C113.958 19.9243 118.331 19.919 120.604 19.919ZM120.222 14.2489H113.958V5.98948H120.222C122.065 5.98948 125.338 6.70087 125.338 10.0799C125.338 13.459 121.858 14.2489 120.222 14.2489Z" fill="black"/>
<path d="M91.7947 26.0388C90.1159 27.0901 88.129 27.6969 85.9987 27.6969C79.9531 27.6969 75.2887 22.7957 75.2887 16.8431C75.2887 10.8905 79.9531 5.98923 85.9987 5.98923C88.6709 5.98923 91.1147 6.95169 93.0165 8.53138C93.4628 8.89231 93.8772 9.28461 94.2597 9.71354L99.009 5.78523C95.8694 2.20215 91.2262 0 86.0465 0C76.6009 0 68.8394 7.56369 68.8394 16.864C68.8394 26.1643 76.6009 33.728 86.0465 33.728C91.0828 33.728 95.609 31.7926 98.7434 28.3717L94.0259 24.412C93.3672 25.1077 92.6181 25.5471 91.7947 26.0388Z" fill="black"/>
</g>
<defs>
<clipPath id="clip0_2357_1386">
<rect width="136" height="34" fill="white"/>
</clipPath>
</defs>
</svg>
