<svg width="126" height="65" viewBox="0 0 126 65" fill="none" xmlns="http://www.w3.org/2000/svg">
<g clip-path="url(#clip0_2097_65052)">
<g clip-path="url(#clip1_2097_65052)">
<g clip-path="url(#clip2_2097_65052)">
<path fill-rule="evenodd" clip-rule="evenodd" d="M78.8733 9.51686C79.1457 9.51686 79.3092 9.35196 79.3459 9.31712C79.3639 9.93444 78.9101 10.4792 78.4737 10.8246C78.3096 10.9509 78.2201 11.0782 78.2201 11.2246C78.2201 11.4423 78.419 11.6238 78.6551 11.6238C78.7654 11.6238 78.8912 11.5692 79.0185 11.4786C79.6904 11.0607 80.5273 10.226 80.5273 9.09891C80.5273 8.19036 80.0179 7.42739 79.1098 7.42739C78.4548 7.42739 77.9661 7.89999 77.9661 8.53442C77.9661 9.09891 78.2748 9.51686 78.8733 9.51686ZM114.49 32.8304C113.986 32.8304 113.575 33.2421 113.575 33.7449V40.3079L108.232 33.3949C107.973 33.0739 107.713 32.8452 107.255 32.8452H107.058C106.524 32.8452 106.111 33.2723 106.111 33.7918V42.7506C106.111 43.2548 106.524 43.667 107.041 43.667C107.545 43.667 107.957 43.2548 107.957 42.7506V35.9737L113.452 43.0858C113.712 43.4221 113.986 43.6517 114.429 43.6517H114.506C115.024 43.6517 115.421 43.2378 115.421 42.7212V33.7449C115.421 33.2421 115.008 32.8304 114.49 32.8304ZM102.736 38.2478C102.736 36.1725 101.225 34.4482 99.1034 34.4482C96.9808 34.4482 95.5004 36.1422 95.5004 38.2179V38.2478C95.5004 40.3244 97.0118 42.0331 99.1331 42.0331C101.256 42.0331 102.736 40.3547 102.736 38.2785V38.2478ZM104.705 38.2179V38.2478C104.705 41.255 102.385 43.7726 99.1034 43.7726C95.8215 43.7726 93.5322 41.2849 93.5322 38.2785V38.2478C93.5322 35.2406 95.8513 32.7226 99.1331 32.7226C102.415 32.7226 104.705 35.2107 104.705 38.2179ZM91.1952 32.8304C90.6605 32.8304 90.2485 33.2421 90.2485 33.7611V42.7363C90.2485 43.2548 90.6605 43.667 91.1952 43.667C91.7137 43.667 92.1254 43.2548 92.1254 42.7363V33.7611C92.1254 33.2421 91.7137 32.8304 91.1952 32.8304ZM88.1986 32.9058H81.1005C80.6128 32.9058 80.2315 33.3031 80.2315 33.7762C80.2315 34.2488 80.6128 34.6453 81.1005 34.6453H83.6962V42.7363C83.6962 43.2548 84.123 43.667 84.6425 43.667C85.161 43.667 85.5882 43.2548 85.5882 42.7363V34.6453H88.1986C88.6707 34.6453 89.0529 34.2488 89.0529 33.7762C89.0529 33.3031 88.6707 32.9058 88.1986 32.9058ZM77.9671 39.3474L76.0902 35.0274L74.2139 39.3474H77.9671ZM81.2484 42.3688C81.3247 42.5062 81.3555 42.644 81.3555 42.7662C81.3555 43.2705 80.9743 43.667 80.4699 43.667C80.0275 43.667 79.7217 43.4073 79.5549 43.0101L78.6836 41.0115H73.4964L72.5947 43.0702C72.4423 43.4533 72.1211 43.667 71.7248 43.667C71.237 43.667 70.8548 43.2847 70.8548 42.7965C70.8548 42.6587 70.9003 42.5218 70.9757 42.3688L74.947 33.5167C75.1596 33.0432 75.5408 32.7533 76.0751 32.7533H76.1656C76.7002 32.7533 77.0663 33.0432 77.2798 33.5167L81.2484 42.3688ZM68.4791 38.2478C68.4791 36.1569 67.013 34.6149 64.7697 34.6149H62.6632V41.8811H64.7697C67.013 41.8811 68.4791 40.369 68.4791 38.2785V38.2478ZM70.4474 38.2179V38.2478C70.4474 41.255 68.1274 43.5907 64.7697 43.5907H61.7317C61.1975 43.5907 60.7855 43.1786 60.7855 42.644V33.8521C60.7855 33.3183 61.1975 32.9058 61.7317 32.9058H64.7697C68.1274 32.9058 70.4474 35.2107 70.4474 38.2179ZM57.7419 32.8304C57.2376 32.8304 56.8256 33.2421 56.8256 33.7449V40.3079L51.4836 33.3949C51.2255 33.0739 50.9646 32.8452 50.5071 32.8452H50.3086C49.7749 32.8452 49.3634 33.2723 49.3634 33.7918V42.7506C49.3634 43.2548 49.7749 43.667 50.2935 43.667C50.7979 43.667 51.2094 43.2548 51.2094 42.7506V35.9737L56.7039 43.0858C56.9629 43.4221 57.2376 43.6517 57.6813 43.6517H57.7572C58.2762 43.6517 58.6735 43.2378 58.6735 42.7212V33.7449C58.6735 33.2421 58.2601 32.8304 57.7419 32.8304ZM46.4453 32.8304C45.9111 32.8304 45.4996 33.2421 45.4996 33.7611V39.0566C45.4996 41.0262 44.4766 42.018 42.813 42.018C41.1336 42.018 40.1107 40.9656 40.1107 38.9804V33.7611C40.1107 33.2421 39.6996 32.8304 39.181 32.8304C38.6459 32.8304 38.233 33.2421 38.233 33.7611V39.0566C38.233 42.1552 40.0046 43.7583 42.7821 43.7583C45.5753 43.7583 47.3768 42.1552 47.3768 38.9658V33.7611C47.3768 33.2421 46.9648 32.8304 46.4453 32.8304ZM34.8702 38.2478C34.8702 36.1725 33.3586 34.4482 31.2374 34.4482C29.1153 34.4482 27.6349 36.1422 27.6349 38.2179V38.2478C27.6349 40.3244 29.1462 42.0331 31.2673 42.0331C33.3894 42.0331 34.8702 40.3547 34.8702 38.2785V38.2478ZM36.8385 38.2179V38.2478C36.8385 41.255 34.5184 43.7726 31.2374 43.7726C27.9555 43.7726 25.6667 41.2849 25.6667 38.2785V38.2478C25.6667 35.2406 27.9863 32.7226 31.2673 32.7226C34.5492 32.7226 36.8385 35.2107 36.8385 38.2179ZM24.3195 32.9058H18.0924C17.5578 32.9058 17.1457 33.3183 17.1457 33.8521V42.7363C17.1457 43.2548 17.5578 43.667 18.0924 43.667C18.611 43.667 19.023 43.2548 19.023 42.7363V39.2399H23.6329C24.1059 39.2399 24.4871 38.8578 24.4871 38.3846C24.4871 37.9125 24.1059 37.5303 23.6329 37.5303H19.023V34.6149H24.3195C24.7926 34.6149 25.1744 34.2337 25.1744 33.7611C25.1744 33.2871 24.7926 32.9058 24.3195 32.9058ZM87.4659 23.6853C87.4659 22.5407 86.6423 21.9151 85.2533 21.9151H82.5209V25.5024H85.2685C86.6116 25.5024 87.4659 24.8 87.4659 23.7161V23.6853ZM88.4902 21.2738C89.0548 21.8534 89.3749 22.6472 89.3749 23.5783V23.6091C89.3749 25.3192 88.3818 26.3571 86.9473 26.7995L88.9927 29.3778C89.1764 29.6079 89.2977 29.8062 89.2977 30.0966C89.2977 30.6147 88.8554 30.9661 88.3979 30.9661C87.9698 30.9661 87.6955 30.7681 87.4811 30.4782L84.8872 27.166H82.5209V30.035C82.5209 30.5536 82.1092 30.9661 81.5906 30.9661C81.056 30.9661 80.644 30.5536 80.644 30.035V21.1516C80.644 20.6175 81.056 20.205 81.5906 20.205H85.4058C86.7489 20.205 87.803 20.6022 88.4902 21.2738ZM73.63 21.7469C71.5075 21.7469 70.0275 23.4418 70.0275 25.517V25.5474C70.0275 27.6235 71.5392 29.3327 73.6613 29.3327C75.7811 29.3327 77.2628 27.6543 77.2628 25.5787V25.5474C77.2628 23.4722 75.7517 21.7469 73.63 21.7469ZM73.6613 20.0231C76.9419 20.0231 79.2311 22.5108 79.2311 25.517V25.5474C79.2311 28.555 76.912 31.0726 73.63 31.0726C70.3477 31.0726 68.0585 28.5849 68.0585 25.5787V25.5474C68.0585 22.5407 70.3789 20.0231 73.6613 20.0231ZM62.158 27.5473L64.7683 23.6242V30.035C64.7683 30.5385 65.1951 30.9661 65.6993 30.9661C66.2335 30.9661 66.646 30.5536 66.646 30.035V21.0914C66.646 20.572 66.2335 20.1443 65.6993 20.1443H65.5009C65.1188 20.1443 64.8446 20.3125 64.6461 20.6335L61.3941 25.7159L58.1595 20.6491C57.9758 20.358 57.7006 20.1443 57.2886 20.1443H57.0906C56.5569 20.1443 56.1439 20.572 56.1439 21.0914V30.0501C56.1439 30.5696 56.5418 30.9661 57.0599 30.9661C57.5784 30.9661 57.9909 30.5696 57.9909 30.0501V23.6559L60.5856 27.5473C60.7836 27.8523 61.0285 28.0355 61.3642 28.0355C61.7156 28.0355 61.96 27.8523 62.158 27.5473ZM44.8638 21.0607V26.3571C44.8638 29.4549 46.6336 31.058 49.4111 31.058C52.2048 31.058 54.0048 29.4549 54.0048 26.2649V21.0607C54.0048 20.5412 53.5938 20.1292 53.0747 20.1292C52.5406 20.1292 52.1281 20.5412 52.1281 21.0607V26.3571C52.1281 28.3262 51.1051 29.3185 49.442 29.3185C47.7626 29.3185 46.7398 28.2643 46.7398 26.2805V21.0607C46.7398 20.5412 46.3281 20.1292 45.8091 20.1292C45.2754 20.1292 44.8638 20.5412 44.8638 21.0607ZM34.9244 21.075C34.9244 21.5485 35.3066 21.9458 35.7954 21.9458H38.3891V30.035C38.3891 30.5536 38.8167 30.9661 39.3359 30.9661C39.8544 30.9661 40.282 30.5536 40.282 30.035V21.9458H42.8924C43.3659 21.9458 43.7467 21.5485 43.7467 21.075C43.7467 20.6022 43.3659 20.205 42.8924 20.205H35.7954C35.3066 20.205 34.9244 20.6022 34.9244 21.075ZM85.9561 11.9922C83.8942 11.5034 83.4063 11.1373 83.4063 10.3128V10.2821C83.4063 9.58022 84.0467 9.01572 85.1468 9.01572C85.9855 9.01572 86.7792 9.29047 87.6037 9.82459C87.7572 9.91646 87.9083 9.96196 88.0919 9.96196C88.5807 9.96196 88.9785 9.58022 88.9785 9.09197C88.9785 8.72547 88.7792 8.46598 88.5655 8.34323C87.6037 7.70298 86.5202 7.35114 85.1762 7.35114C83.0563 7.35114 81.5286 8.61798 81.5286 10.4502V10.4806C81.5286 12.4502 82.8116 13.1217 85.0857 13.671C87.0699 14.1285 87.4972 14.541 87.4972 15.3035V15.3347C87.4972 16.128 86.7641 16.6783 85.6042 16.6783C84.4445 16.6783 83.4979 16.2809 82.6122 15.5782C82.4905 15.4876 82.3224 15.4095 82.0634 15.4095C81.5741 15.4095 81.1777 15.7926 81.1777 16.2809C81.1777 16.5859 81.3303 16.8454 81.5447 16.9979C82.7344 17.8835 84.1087 18.3415 85.5575 18.3415C87.8022 18.3415 89.3749 17.1509 89.3749 15.1514V15.1207C89.3749 13.3499 88.2142 12.5421 85.9561 11.9922ZM68.1328 18.2652C68.6358 18.2652 69.0478 17.8528 69.0478 17.3498V10.572L74.5433 17.6851C74.8023 18.0214 75.0769 18.2491 75.5203 18.2491H75.5965C76.1145 18.2491 76.511 17.8371 76.511 17.3185V8.34323C76.511 7.83986 76.0994 7.42739 75.5813 7.42739C75.0769 7.42739 74.6649 7.83986 74.6649 8.34323V14.9067L69.3235 7.99286C69.0621 7.67273 68.804 7.44302 68.3455 7.44302H68.1471C67.6134 7.44302 67.2004 7.87111 67.2004 8.38973V17.3498C67.2004 17.8528 67.6133 18.2652 68.1328 18.2652ZM58.7016 18.1885H64.9906C65.4481 18.1885 65.8294 17.822 65.8294 17.3498C65.8294 16.8919 65.4481 16.5091 64.9906 16.5091H59.6334V13.6403H64.2267C64.6847 13.6403 65.0659 13.2737 65.0659 12.8167C65.0659 12.3427 64.6847 11.9618 64.2267 11.9618H59.6334V9.18297H64.9139C65.3719 9.18297 65.7531 8.81635 65.7531 8.34323C65.7531 7.88536 65.3719 7.5041 64.9139 7.5041H58.7016C58.1668 7.5041 57.7548 7.91661 57.7548 8.45073V17.2419C57.7548 17.7765 58.1668 18.1885 58.7016 18.1885ZM49.2564 12.8006H52.0036C53.3462 12.8006 54.2015 12.0983 54.2015 11.0147V10.9848C54.2015 9.83934 53.378 9.21422 51.9885 9.21422H49.2564V12.8006ZM47.3787 17.3338V8.45073C47.3787 7.91661 47.7906 7.5041 48.3253 7.5041H52.141C53.485 7.5041 54.5377 7.90185 55.2239 8.57248C55.7884 9.1526 56.1096 9.94684 56.1096 10.8775V10.9082C56.1096 12.6173 55.1178 13.6554 53.6825 14.0982L55.7278 16.6783C55.9111 16.906 56.0333 17.1059 56.0333 17.3953C56.0333 17.9143 55.5909 18.2652 55.1329 18.2652C54.7058 18.2652 54.4302 18.0664 54.2176 17.7765L51.6219 14.4638H49.2564V17.3338C49.2564 17.8528 48.8444 18.2652 48.3253 18.2652C47.7906 18.2652 47.3787 17.8528 47.3787 17.3338ZM38.0841 16.4798H40.1897C42.4336 16.4798 43.8988 14.9687 43.8988 12.8768V12.8466C43.8988 10.7552 42.4336 9.21422 40.1897 9.21422H38.0841V16.4798ZM36.206 17.2419V8.45073C36.206 7.91661 36.6184 7.5041 37.1526 7.5041H40.1897C43.5483 7.5041 45.8679 9.80946 45.8679 12.8167V12.8466C45.8679 15.8538 43.5483 18.1885 40.1897 18.1885H37.1526C36.6184 18.1885 36.206 17.7765 36.206 17.2419ZM28.5545 18.1885H34.3232C34.7977 18.1885 35.1776 17.8073 35.1776 17.3338C35.1776 16.8606 34.7977 16.4798 34.3232 16.4798H29.4851V8.35935C29.4851 7.83986 29.0731 7.42739 28.5545 7.42739C28.0203 7.42739 27.6078 7.83986 27.6078 8.35935V17.2419C27.6078 17.7765 28.0203 18.1885 28.5545 18.1885ZM24.5377 7.42739C24.0035 7.42739 23.5915 7.83986 23.5915 8.35935V17.3338C23.5915 17.8528 24.0035 18.2652 24.5377 18.2652C25.0567 18.2652 25.4687 17.8528 25.4687 17.3338V8.35935C25.4687 7.83986 25.0567 7.42739 24.5377 7.42739ZM19.5517 17.3338C19.5517 17.8528 19.9632 18.2652 20.4823 18.2652C21.0161 18.2652 21.4281 17.8528 21.4281 17.3338V8.35935C21.4281 7.83986 21.0161 7.42739 20.4823 7.42739C19.9632 7.42739 19.5517 7.83986 19.5517 8.35935V11.9453H14.4531V8.35935C14.4531 7.83986 14.0411 7.42739 13.5222 7.42739C12.9884 7.42739 12.5754 7.83986 12.5754 8.35935V17.3338C12.5754 17.8528 12.9884 18.2652 13.5222 18.2652C14.0411 18.2652 14.4531 17.8528 14.4531 17.3338V13.6857H19.5517V17.3338ZM11.1805 16.2658C11.1805 16.5556 11.0426 16.7848 10.8755 16.9378C9.86774 17.822 8.723 18.3722 6.99777 18.3722C3.88319 18.3722 1.56445 15.9451 1.56445 12.8768V12.8466C1.56445 9.80946 3.83806 7.32129 7.07452 7.32129C8.723 7.32129 9.80711 7.80998 10.7381 8.52698C10.9366 8.67948 11.1037 8.9391 11.1037 9.27385C11.1037 9.79384 10.6926 10.1907 10.1731 10.1907C9.91361 10.1907 9.73037 10.0993 9.60775 10.008C8.876 9.41259 8.08139 9.0456 7.05989 9.0456C5.02917 9.0456 3.53356 10.725 3.53356 12.8167V12.8466C3.53356 14.9379 5.01404 16.6328 7.05989 16.6328C8.18888 16.6328 8.95225 16.2658 9.73037 15.6094C9.86774 15.4876 10.0666 15.3958 10.2949 15.3958C10.768 15.3958 11.1805 15.7926 11.1805 16.2658Z" fill="black"/>
<path fill-rule="evenodd" clip-rule="evenodd" d="M107.723 21.1208C107.675 18.1646 106.087 15.4946 103.571 14.0252L102.626 15.6622C104.573 16.8031 105.783 18.8581 105.831 21.1208C105.833 21.1663 105.836 21.2118 105.836 21.2582C105.836 21.8664 105.746 22.4538 105.588 23.0123C104.821 25.7417 102.315 27.7507 99.3432 27.7507C95.7638 27.7507 92.85 24.8381 92.85 21.2582C92.85 18.8393 94.1834 16.6365 96.328 15.5092C96.7445 15.2897 97.1872 15.1166 97.6385 14.9943L97.8331 14.941V8.35986C97.8331 7.83801 97.4079 7.41406 96.8871 7.41406C96.3652 7.41406 95.9411 7.83801 95.9411 8.35986V13.5957C92.9092 14.9461 90.959 17.9345 90.959 21.2582C90.959 25.8813 94.7199 29.6427 99.3432 29.6427C103.364 29.6427 106.731 26.7958 107.541 23.0123C107.661 22.4465 107.728 21.8599 107.728 21.2582C107.728 21.2118 107.723 21.1663 107.723 21.1208ZM100.858 14.9415L100.856 14.941V8.35986C100.856 7.83801 101.28 7.41406 101.801 7.41406C102.323 7.41406 102.747 7.83801 102.747 8.35986V11.6702L100.858 14.9415Z" fill="black"/>
<path fill-rule="evenodd" clip-rule="evenodd" d="M123.078 15.167H120.339V10.0391C120.339 9.51827 119.914 9.09375 119.392 9.09375C118.871 9.09375 118.447 9.51827 118.447 10.0391V17.0586H122.815V28.8164H111.058V23.0119H109.166V29.0791C109.166 29.9766 109.895 30.7074 110.794 30.7074H123.078C123.977 30.7074 124.706 29.9766 124.706 29.0791V16.7958C124.706 15.8968 123.977 15.167 123.078 15.167ZM111.058 21.1204H109.166V16.7958C109.166 15.8968 109.895 15.167 110.794 15.167H113.533V10.0391C113.533 9.51827 113.958 9.09375 114.479 9.09375C115.001 9.09375 115.426 9.51827 115.426 10.0391V17.0586H111.058V21.1204Z" fill="black"/>
<path fill-rule="evenodd" clip-rule="evenodd" d="M105.071 1.39844C104.55 1.39844 104.126 1.82194 104.126 2.34511V9.28006L97.6073 20.5699C97.3184 21.0727 97.3184 21.6965 97.6073 22.199C97.8974 22.7006 98.4367 23.0126 99.017 23.0126H105.588C105.744 22.454 105.835 21.8665 105.835 21.2583C105.835 21.212 105.831 21.1665 105.831 21.121H99.4745L106.018 9.78715V2.34511C106.018 1.82194 105.593 1.39844 105.071 1.39844ZM117.447 20.5694L115.422 17.0591H113.238L115.582 21.121H107.723C107.723 21.1665 107.727 21.212 107.727 21.2583C107.727 21.86 107.661 22.4466 107.54 23.0126H116.039C116.619 23.0126 117.159 22.7006 117.447 22.199C117.738 21.6965 117.738 21.0727 117.447 20.5694ZM112.144 15.1677L109.037 9.78752V2.34511C109.037 1.82194 109.463 1.39844 109.985 1.39844C110.505 1.39844 110.931 1.82194 110.931 2.34511V9.28142L113.533 13.7883V15.1677H112.144Z" fill="black"/>
<path fill-rule="evenodd" clip-rule="evenodd" d="M34.5296 56.2938H115.42V45.6084H26.5723L34.5296 56.2938Z" fill="black"/>
<path fill-rule="evenodd" clip-rule="evenodd" d="M114.34 63.3058V61.3348H112.347V63.3058H111.268V58.3971H112.347V60.339H114.34V58.3971H115.419V63.3058H114.34ZM108.57 63.3904C107.125 63.3904 106.052 62.2741 106.052 60.8649V60.8517C106.052 59.4558 107.103 58.3125 108.612 58.3125C109.537 58.3125 110.092 58.6202 110.548 59.0699L109.86 59.8627C109.481 59.5182 109.095 59.3073 108.606 59.3073C107.777 59.3073 107.181 59.9964 107.181 60.8361V60.8517C107.181 61.6932 107.764 62.3937 108.606 62.3937C109.166 62.3937 109.509 62.1695 109.896 61.8195L110.583 62.5139C110.079 63.0536 109.517 63.3904 108.57 63.3904ZM104.379 60.0717C104.379 59.6096 104.057 59.3712 103.53 59.3712H102.456V60.7805H103.552C104.078 60.7805 104.379 60.5007 104.379 60.0873V60.0717ZM104.358 63.3058L103.307 61.7349H102.456V63.3058H101.377V58.3971H103.62C104.779 58.3971 105.473 59.0071 105.473 60.0162V60.0304C105.473 60.8227 105.046 61.3216 104.42 61.5531L105.62 63.3058H104.358ZM98.165 59.6592L97.5116 61.2508H98.8171L98.165 59.6592ZM99.6515 63.3058L99.2015 62.2053H97.126L96.6772 63.3058H95.5762L97.6802 58.3612H98.6758L100.781 63.3058H99.6515ZM91.3526 63.3058V58.3971H95.0555V59.3579H92.4255V60.3538H94.7406V61.3141H92.4255V62.3454H95.0914V63.3058H91.3526ZM88.711 63.3761C87.9677 63.3761 87.2164 63.1166 86.6283 62.5902L87.2664 61.8268C87.7079 62.1911 88.1717 62.422 88.7321 62.422C89.1745 62.422 89.4399 62.2476 89.4399 61.9596V61.9457C89.4399 61.6724 89.2723 61.5315 88.4515 61.3216C87.463 61.0684 86.8241 60.7951 86.8241 59.8205V59.8053C86.8241 58.9156 87.5401 58.3263 88.5429 58.3263C89.258 58.3263 89.868 58.5504 90.3668 58.9505L89.805 59.764C89.3701 59.4617 88.942 59.2798 88.5286 59.2798C88.1153 59.2798 87.8971 59.4691 87.8971 59.7074V59.7222C87.8971 60.0442 88.1078 60.1498 88.9567 60.367C89.9526 60.6262 90.5138 60.9843 90.5138 61.8401V61.8543C90.5138 62.8286 89.7702 63.3761 88.711 63.3761ZM82.3626 63.3058V58.3971H86.0662V59.3579H83.4356V60.3538H85.751V61.3141H83.4356V62.3454H86.101V63.3058H82.3626ZM80.3848 60.0717C80.3848 59.6096 80.0614 59.3712 79.535 59.3712H78.462V60.7805H79.5566C80.082 60.7805 80.3848 60.5007 80.3848 60.0873V60.0717ZM80.3632 63.3058L79.31 61.7349H78.462V63.3058H77.3817V58.3971H79.6255C80.7849 58.3971 81.4779 59.0071 81.4779 60.0162V60.0304C81.4779 60.8227 81.0503 61.3216 80.4256 61.5531L81.6245 63.3058H80.3632ZM73.2988 63.3058V61.3348H71.3066V63.3058H70.2263V58.3971H71.3066V60.339H73.2988V58.3971H74.3795V63.3058H73.2988ZM67.1465 63.3904C65.6174 63.3904 64.5651 62.3174 64.5651 60.8649V60.8517C64.5651 59.4558 65.6532 58.3125 67.1405 58.3125C68.0224 58.3125 68.5571 58.5504 69.0683 58.9854L68.389 59.8053C68.0095 59.4916 67.6724 59.3073 67.1052 59.3073C66.3192 59.3073 65.6946 60.0028 65.6946 60.8361V60.8517C65.6946 61.7487 66.3123 62.4078 67.1823 62.4078C67.5746 62.4078 67.9256 62.31 68.1997 62.1138V61.4121H67.1116V60.4791H69.2443V62.6117C68.739 63.0394 68.0455 63.3904 67.1465 63.3904ZM61.6469 63.383C60.3282 63.383 59.5212 62.6467 59.5212 61.2012V58.3971H60.6015V61.1737C60.6015 61.9729 61.0012 62.3862 61.6603 62.3862C62.3199 62.3862 62.72 61.9871 62.72 61.2095V58.3971H63.7994V61.1672C63.7994 62.6536 62.9647 63.383 61.6469 63.383ZM57.6233 60.8517C57.6233 60.0092 57.006 59.3073 56.136 59.3073C55.2665 59.3073 54.6625 59.9964 54.6625 60.8361V60.8517C54.6625 61.6932 55.2803 62.3937 56.1493 62.3937C57.0198 62.3937 57.6233 61.7074 57.6233 60.8649V60.8517ZM56.136 63.3904C54.6212 63.3904 53.5335 62.2609 53.5335 60.8649V60.8517C53.5335 59.4558 54.6353 58.3125 56.1493 58.3125C57.6651 58.3125 58.7514 59.4411 58.7514 60.8361V60.8517C58.7514 62.2476 57.6513 63.3904 56.136 63.3904ZM51.8611 60.0717C51.8611 59.6096 51.5381 59.3712 51.0118 59.3712H49.9397V60.7805H51.0333C51.5588 60.7805 51.8611 60.5007 51.8611 60.0873V60.0717ZM51.8399 63.3058L50.788 61.7349H49.9397V63.3058H48.8589V58.3971H51.1036C52.2611 58.3971 52.9547 59.0071 52.9547 60.0162V60.0304C52.9547 60.8227 52.5271 61.3216 51.9028 61.5531L53.1026 63.3058H51.8399ZM46.6798 63.3058V61.3348H44.6868V63.3058H43.6074V58.3971H44.6868V60.339H46.6798V58.3971H47.7592V63.3058H46.6798ZM41.4858 59.3929V63.3058H40.4059V59.3929H38.9121V58.3971H42.9795V59.3929H41.4858Z" fill="black"/>
<path fill-rule="evenodd" clip-rule="evenodd" d="M109.354 49.0428V50.3973H112.39V51.6693H109.354V54.133H107.954V47.771H112.798V49.0428H109.354ZM105.266 54.133L102.184 50.0887V54.133H100.803V47.771H102.093L105.074 51.6871V47.771H106.455V54.133H105.266ZM94.1938 54.2414C92.2123 54.2414 90.8486 52.8511 90.8486 50.9687V50.9518C90.8486 49.1433 92.2568 47.6621 94.1842 47.6621C95.3299 47.6621 96.0192 47.9712 96.6838 48.5343L95.801 49.5972C95.3113 49.1888 94.8749 48.9518 94.1392 48.9518C93.12 48.9518 92.3115 49.8517 92.3115 50.9329V50.9518C92.3115 52.1152 93.1122 52.9691 94.2388 52.9691C94.7472 52.9691 95.2022 52.8419 95.5555 52.587V51.6784H94.147V50.47H96.9107V53.2332C96.256 53.7876 95.3559 54.2414 94.1938 54.2414ZM88.4825 54.133L85.4009 50.0887V54.133H84.0198V47.771H85.3104L88.2915 51.6871V47.771H89.6723V54.133H88.4825ZM81.1076 54.133H82.5072V47.771H81.1076V54.133ZM78.4358 50.9518C78.4358 49.825 77.6645 49.0345 76.519 49.0345H75.4381V52.8699H76.519C77.6645 52.8699 78.4358 52.0964 78.4358 50.9687V50.9518ZM76.519 54.133H74.0386V47.771H76.519C78.5184 47.771 79.9 49.1433 79.9 50.9329V50.9518C79.9 52.7413 78.5184 54.133 76.519 54.133ZM71.3479 54.133L68.2672 50.0887V54.133H66.8864V47.771H68.1753L71.1577 51.6871V47.771H72.5394V54.133H71.3479ZM60.7852 54.133V47.771H65.5833V49.0156H62.1751V50.3059H65.1749V51.5512H62.1751V52.8869H65.6292V54.133H60.7852Z" fill="black"/>
</g>
</g>
</g>
<defs>
<clipPath id="clip0_2097_65052">
<rect width="125" height="64" fill="white" transform="translate(0.8125 0.580078)"/>
</clipPath>
<clipPath id="clip1_2097_65052">
<rect width="186" height="74.39" fill="white" transform="translate(-29.4434 -4.80078)"/>
</clipPath>
<clipPath id="clip2_2097_65052">
<rect width="185.975" height="74.39" fill="white" transform="translate(-29.4316 -4.80078)"/>
</clipPath>
</defs>
</svg>
