<svg xmlns="http://www.w3.org/2000/svg" width="187" height="75" viewBox="0 0 187 75" fill="none">
  <g clip-path="url(#clip0_444_53392)">
    <path fill-rule="evenodd" clip-rule="evenodd" d="M108.936 14.3176C109.208 14.3176 109.372 14.1527 109.408 14.1179C109.426 14.7352 108.973 15.28 108.536 15.6254C108.372 15.7516 108.283 15.879 108.283 16.0254C108.283 16.2431 108.481 16.4246 108.718 16.4246C108.828 16.4246 108.954 16.3699 109.081 16.2794C109.753 15.8615 110.59 15.0268 110.59 13.8997C110.59 12.9911 110.08 12.2282 109.172 12.2282C108.517 12.2282 108.029 12.7008 108.029 13.3352C108.029 13.8997 108.337 14.3176 108.936 14.3176ZM144.552 37.6312C144.049 37.6312 143.637 38.0428 143.637 38.5457V45.1087L138.295 38.1957C138.036 37.8747 137.775 37.646 137.318 37.646H137.121C136.586 37.646 136.173 38.0731 136.173 38.5926V47.5514C136.173 48.0556 136.586 48.4677 137.103 48.4677C137.608 48.4677 138.02 48.0556 138.02 47.5514V40.7744L143.514 47.8866C143.775 48.2229 144.049 48.4525 144.491 48.4525H144.568C145.087 48.4525 145.483 48.0386 145.483 47.522V38.5457C145.483 38.0428 145.07 37.6312 144.552 37.6312ZM132.799 43.0485C132.799 40.9733 131.287 39.249 129.166 39.249C127.043 39.249 125.563 40.9429 125.563 43.0187V43.0485C125.563 45.1251 127.074 46.8339 129.196 46.8339C131.318 46.8339 132.799 45.1555 132.799 43.0793V43.0485ZM134.767 43.0187V43.0485C134.767 46.0558 132.448 48.5734 129.166 48.5734C125.884 48.5734 123.595 46.0856 123.595 43.0793V43.0485C123.595 40.0413 125.914 37.5234 129.196 37.5234C132.477 37.5234 134.767 40.0115 134.767 43.0187ZM121.258 37.6312C120.723 37.6312 120.311 38.0428 120.311 38.5618V47.5371C120.311 48.0556 120.723 48.4677 121.258 48.4677C121.776 48.4677 122.188 48.0556 122.188 47.5371V38.5618C122.188 38.0428 121.776 37.6312 121.258 37.6312ZM118.261 37.7066H111.163C110.675 37.7066 110.294 38.1038 110.294 38.577C110.294 39.0496 110.675 39.4461 111.163 39.4461H113.759V47.5371C113.759 48.0556 114.185 48.4677 114.705 48.4677C115.223 48.4677 115.651 48.0556 115.651 47.5371V39.4461H118.261C118.733 39.4461 119.115 39.0496 119.115 38.577C119.115 38.1038 118.733 37.7066 118.261 37.7066ZM108.03 44.1482L106.153 39.8282L104.276 44.1482H108.03ZM111.311 47.1696C111.387 47.307 111.418 47.4447 111.418 47.567C111.418 48.0712 111.037 48.4677 110.532 48.4677C110.09 48.4677 109.784 48.2081 109.617 47.8109L108.746 45.8123H103.559L102.657 47.871C102.505 48.2541 102.184 48.4677 101.787 48.4677C101.3 48.4677 100.917 48.0855 100.917 47.5973C100.917 47.4595 100.963 47.3226 101.038 47.1696L105.009 38.3175C105.222 37.844 105.603 37.5541 106.138 37.5541H106.228C106.763 37.5541 107.129 37.844 107.342 38.3175L111.311 47.1696ZM98.5416 43.0485C98.5416 40.9577 97.0755 39.4157 94.8322 39.4157H92.7257V46.6819H94.8322C97.0755 46.6819 98.5416 45.1698 98.5416 43.0793V43.0485ZM100.51 43.0187V43.0485C100.51 46.0558 98.1899 48.3915 94.8322 48.3915H91.7942C91.26 48.3915 90.848 47.9794 90.848 47.4447V38.6528C90.848 38.1191 91.26 37.7066 91.7942 37.7066H94.8322C98.1899 37.7066 100.51 40.0115 100.51 43.0187ZM87.8044 37.6312C87.3001 37.6312 86.8881 38.0428 86.8881 38.5457V45.1087L81.5461 38.1957C81.288 37.8747 81.0271 37.646 80.5696 37.646H80.3711C79.8374 37.646 79.4259 38.0731 79.4259 38.5926V47.5514C79.4259 48.0556 79.8374 48.4677 80.356 48.4677C80.8604 48.4677 81.2719 48.0556 81.2719 47.5514V40.7744L86.7664 47.8866C87.0254 48.2229 87.3001 48.4525 87.7438 48.4525H87.8197C88.3387 48.4525 88.736 48.0386 88.736 47.522V38.5457C88.736 38.0428 88.3226 37.6312 87.8044 37.6312ZM76.5078 37.6312C75.9736 37.6312 75.5621 38.0428 75.5621 38.5618V43.8574C75.5621 45.827 74.5391 46.8188 72.8755 46.8188C71.1961 46.8188 70.1732 45.7664 70.1732 43.7812V38.5618C70.1732 38.0428 69.7621 37.6312 69.2435 37.6312C68.7084 37.6312 68.2955 38.0428 68.2955 38.5618V43.8574C68.2955 46.956 70.0671 48.5591 72.8446 48.5591C75.6378 48.5591 77.4393 46.956 77.4393 43.7665V38.5618C77.4393 38.0428 77.0273 37.6312 76.5078 37.6312ZM64.9327 43.0485C64.9327 40.9733 63.4211 39.249 61.2999 39.249C59.1778 39.249 57.6974 40.9429 57.6974 43.0187V43.0485C57.6974 45.1251 59.2087 46.8339 61.3298 46.8339C63.4519 46.8339 64.9327 45.1555 64.9327 43.0793V43.0485ZM66.901 43.0187V43.0485C66.901 46.0558 64.5809 48.5734 61.2999 48.5734C58.018 48.5734 55.7292 46.0856 55.7292 43.0793V43.0485C55.7292 40.0413 58.0488 37.5234 61.3298 37.5234C64.6117 37.5234 66.901 40.0115 66.901 43.0187ZM54.382 37.7066H48.1549C47.6203 37.7066 47.2082 38.1191 47.2082 38.6528V47.5371C47.2082 48.0556 47.6203 48.4677 48.1549 48.4677C48.6735 48.4677 49.0855 48.0556 49.0855 47.5371V44.0407H53.6954C54.1684 44.0407 54.5496 43.6585 54.5496 43.1854C54.5496 42.7133 54.1684 42.3311 53.6954 42.3311H49.0855V39.4157H54.382C54.8551 39.4157 55.2369 39.0345 55.2369 38.5618C55.2369 38.0879 54.8551 37.7066 54.382 37.7066ZM117.528 28.4861C117.528 27.3415 116.705 26.7159 115.316 26.7159H112.583V30.3032H115.331C116.674 30.3032 117.528 29.6008 117.528 28.5168V28.4861ZM118.553 26.0746C119.117 26.6542 119.437 27.448 119.437 28.3791V28.4098C119.437 30.1199 118.444 31.1579 117.01 31.6003L119.055 34.1785C119.239 34.4086 119.36 34.607 119.36 34.8974C119.36 35.4155 118.918 35.7669 118.46 35.7669C118.032 35.7669 117.758 35.5689 117.544 35.279L114.95 31.9668H112.583V34.8358C112.583 35.3544 112.172 35.7669 111.653 35.7669C111.118 35.7669 110.707 35.3544 110.707 34.8358V25.9524C110.707 25.4182 111.118 25.0057 111.653 25.0057H115.468C116.811 25.0057 117.866 25.403 118.553 26.0746ZM103.693 26.5477C101.57 26.5477 100.09 28.2426 100.09 30.3178V30.3482C100.09 32.4243 101.602 34.1335 103.724 34.1335C105.844 34.1335 107.325 32.455 107.325 30.3794V30.3482C107.325 28.273 105.814 26.5477 103.693 26.5477ZM103.724 24.8239C107.004 24.8239 109.294 27.3116 109.294 30.3178V30.3482C109.294 33.3558 106.974 35.8734 103.693 35.8734C100.41 35.8734 98.121 33.3857 98.121 30.3794V30.3482C98.121 27.3415 100.441 24.8239 103.724 24.8239ZM92.2205 32.348L94.8308 28.425V34.8358C94.8308 35.3393 95.2576 35.7669 95.7618 35.7669C96.296 35.7669 96.7085 35.3544 96.7085 34.8358V25.8922C96.7085 25.3727 96.296 24.9451 95.7618 24.9451H95.5634C95.1813 24.9451 94.9071 25.1132 94.7086 25.4342L91.4566 30.5167L88.222 25.4499C88.0383 25.1587 87.7631 24.9451 87.3511 24.9451H87.1531C86.6194 24.9451 86.2064 25.3727 86.2064 25.8922V34.8509C86.2064 35.3704 86.6043 35.7669 87.1224 35.7669C87.6409 35.7669 88.0534 35.3704 88.0534 34.8509V28.4567L90.6481 32.348C90.8461 32.653 91.091 32.8363 91.4267 32.8363C91.7781 32.8363 92.0225 32.653 92.2205 32.348ZM74.9263 25.8615V31.1579C74.9263 34.2556 76.6961 35.8588 79.4736 35.8588C82.2673 35.8588 84.0673 34.2556 84.0673 31.0657V25.8615C84.0673 25.342 83.6563 24.93 83.1372 24.93C82.6031 24.93 82.1906 25.342 82.1906 25.8615V31.1579C82.1906 33.127 81.1676 34.1193 79.5045 34.1193C77.8251 34.1193 76.8023 33.065 76.8023 31.0813V25.8615C76.8023 25.342 76.3906 24.93 75.8716 24.93C75.3379 24.93 74.9263 25.342 74.9263 25.8615ZM64.9869 25.8757C64.9869 26.3492 65.3691 26.7466 65.8579 26.7466H68.4516V34.8358C68.4516 35.3544 68.8792 35.7669 69.3984 35.7669C69.9169 35.7669 70.3445 35.3544 70.3445 34.8358V26.7466H72.9549C73.4284 26.7466 73.8092 26.3492 73.8092 25.8757C73.8092 25.403 73.4284 25.0057 72.9549 25.0057H65.8579C65.3691 25.0057 64.9869 25.403 64.9869 25.8757ZM116.019 16.793C113.957 16.3042 113.469 15.9381 113.469 15.1136V15.0829C113.469 14.381 114.109 13.8165 115.209 13.8165C116.048 13.8165 116.842 14.0912 117.666 14.6254C117.82 14.7172 117.971 14.7627 118.154 14.7627C118.643 14.7627 119.041 14.381 119.041 13.8928C119.041 13.5263 118.842 13.2668 118.628 13.144C117.666 12.5038 116.583 12.1519 115.239 12.1519C113.119 12.1519 111.591 13.4188 111.591 15.251V15.2814C111.591 17.251 112.874 17.9225 115.148 18.4718C117.132 18.9293 117.56 19.3418 117.56 20.1043V20.1354C117.56 20.9288 116.827 21.479 115.667 21.479C114.507 21.479 113.56 21.0817 112.675 20.3789C112.553 20.2884 112.385 20.2103 112.126 20.2103C111.637 20.2103 111.24 20.5934 111.24 21.0817C111.24 21.3867 111.393 21.6462 111.607 21.7987C112.797 22.6843 114.171 23.1423 115.62 23.1423C117.865 23.1423 119.437 21.9517 119.437 19.9522V19.9214C119.437 18.1507 118.277 17.3428 116.019 16.793ZM98.1953 23.066C98.6983 23.066 99.1103 22.6535 99.1103 22.1505V15.3727L104.606 22.4859C104.865 22.8222 105.139 23.0499 105.583 23.0499H105.659C106.177 23.0499 106.574 22.6379 106.574 22.1193V13.144C106.574 12.6406 106.162 12.2282 105.644 12.2282C105.139 12.2282 104.727 12.6406 104.727 13.144V19.7074L99.386 12.7936C99.1246 12.4735 98.8665 12.2438 98.408 12.2438H98.2096C97.6759 12.2438 97.2629 12.6719 97.2629 13.1905V22.1505C97.2629 22.6535 97.6758 23.066 98.1953 23.066ZM88.7641 22.9893H95.0531C95.5106 22.9893 95.8919 22.6228 95.8919 22.1505C95.8919 21.6927 95.5106 21.3099 95.0531 21.3099H89.6959V18.4411H94.2892C94.7472 18.4411 95.1284 18.0745 95.1284 17.6175C95.1284 17.1435 94.7472 16.7626 94.2892 16.7626H89.6959V13.9838H94.9764C95.4344 13.9838 95.8156 13.6171 95.8156 13.144C95.8156 12.6861 95.4344 12.3049 94.9764 12.3049H88.7641C88.2293 12.3049 87.8173 12.7174 87.8173 13.2515V22.0427C87.8173 22.5773 88.2293 22.9893 88.7641 22.9893ZM79.3189 17.6013H82.0661C83.4087 17.6013 84.264 16.8991 84.264 15.8155V15.7856C84.264 14.6401 83.4405 14.015 82.051 14.015H79.3189V17.6013ZM77.4412 22.1345V13.2515C77.4412 12.7174 77.8531 12.3049 78.3878 12.3049H82.2035C83.5475 12.3049 84.6002 12.7026 85.2864 13.3733C85.8509 13.9534 86.1721 14.7476 86.1721 15.6782V15.709C86.1721 17.4181 85.1803 18.4562 83.745 18.899L85.7903 21.479C85.9736 21.7068 86.0958 21.9067 86.0958 22.196C86.0958 22.715 85.6534 23.066 85.1954 23.066C84.7683 23.066 84.4927 22.8672 84.2801 22.5773L81.6844 19.2646H79.3189V22.1345C79.3189 22.6535 78.9069 23.066 78.3878 23.066C77.8531 23.066 77.4412 22.6535 77.4412 22.1345ZM68.1466 21.2805H70.2522C72.4961 21.2805 73.9613 19.7694 73.9613 17.6776V17.6473C73.9613 15.556 72.4961 14.015 70.2522 14.015H68.1466V21.2805ZM66.2685 22.0427V13.2515C66.2685 12.7174 66.6809 12.3049 67.2151 12.3049H70.2522C73.6108 12.3049 75.9304 14.6102 75.9304 17.6175V17.6473C75.9304 20.6546 73.6108 22.9893 70.2522 22.9893H67.2151C66.6809 22.9893 66.2685 22.5773 66.2685 22.0427ZM58.617 22.9893H64.3857C64.8602 22.9893 65.2401 22.608 65.2401 22.1345C65.2401 21.6614 64.8602 21.2805 64.3857 21.2805H59.5476V13.1601C59.5476 12.6406 59.1356 12.2282 58.617 12.2282C58.0828 12.2282 57.6703 12.6406 57.6703 13.1601V22.0427C57.6703 22.5773 58.0828 22.9893 58.617 22.9893ZM54.6002 12.2282C54.066 12.2282 53.654 12.6406 53.654 13.1601V22.1345C53.654 22.6535 54.066 23.066 54.6002 23.066C55.1192 23.066 55.5312 22.6535 55.5312 22.1345V13.1601C55.5312 12.6406 55.1192 12.2282 54.6002 12.2282ZM49.6142 22.1345C49.6142 22.6535 50.0257 23.066 50.5448 23.066C51.0786 23.066 51.4906 22.6535 51.4906 22.1345V13.1601C51.4906 12.6406 51.0786 12.2282 50.5448 12.2282C50.0257 12.2282 49.6142 12.6406 49.6142 13.1601V16.7461H44.5156V13.1601C44.5156 12.6406 44.1036 12.2282 43.5847 12.2282C43.0509 12.2282 42.6379 12.6406 42.6379 13.1601V22.1345C42.6379 22.6535 43.0509 23.066 43.5847 23.066C44.1036 23.066 44.5156 22.6535 44.5156 22.1345V18.4865H49.6142V22.1345ZM41.243 21.0666C41.243 21.3564 41.1051 21.5855 40.938 21.7385C39.9302 22.6228 38.7855 23.173 37.0603 23.173C33.9457 23.173 31.627 20.7459 31.627 17.6776V17.6473C31.627 14.6102 33.9006 12.1221 37.137 12.1221C38.7855 12.1221 39.8696 12.6108 40.8006 13.3278C40.9991 13.4803 41.1662 13.7399 41.1662 14.0746C41.1662 14.5946 40.7551 14.9915 40.2356 14.9915C39.9761 14.9915 39.7929 14.9001 39.6702 14.8087C38.9385 14.2134 38.1439 13.8464 37.1224 13.8464C35.0917 13.8464 33.5961 15.5257 33.5961 17.6175V17.6473C33.5961 19.7387 35.0765 21.4335 37.1224 21.4335C38.2514 21.4335 39.0147 21.0666 39.7929 20.4102C39.9302 20.2884 40.1291 20.1966 40.3574 20.1966C40.8305 20.1966 41.243 20.5934 41.243 21.0666Z" fill="#0B1218"/>
    <path fill-rule="evenodd" clip-rule="evenodd" d="M137.786 25.9211C137.737 22.9649 136.149 20.2949 133.634 18.8254L132.689 20.4625C134.635 21.6034 135.845 23.6584 135.894 25.9211C135.895 25.9666 135.899 26.0121 135.899 26.0585C135.899 26.6666 135.808 27.2541 135.651 27.8126C134.883 30.542 132.378 32.551 129.406 32.551C125.826 32.551 122.912 29.6384 122.912 26.0585C122.912 23.6396 124.246 21.4368 126.39 20.3095C126.807 20.09 127.25 19.9169 127.701 19.7946L127.896 19.7413V13.1602C127.896 12.6383 127.47 12.2144 126.95 12.2144C126.428 12.2144 126.004 12.6383 126.004 13.1602V18.396C122.972 19.7464 121.021 22.7348 121.021 26.0585C121.021 30.6816 124.782 34.443 129.406 34.443C133.427 34.443 136.794 31.5961 137.604 27.8126C137.724 27.2468 137.791 26.6602 137.791 26.0585C137.791 26.0121 137.786 25.9666 137.786 25.9211ZM130.921 19.7418L130.918 19.7413V13.1602C130.918 12.6383 131.342 12.2144 131.863 12.2144C132.385 12.2144 132.809 12.6383 132.809 13.1602V16.4705L130.921 19.7418Z" fill="#0B1218"/>
    <path fill-rule="evenodd" clip-rule="evenodd" d="M153.141 19.9682H150.402V14.8404C150.402 14.3195 149.977 13.895 149.455 13.895C148.934 13.895 148.51 14.3195 148.51 14.8404V21.8598H152.878V33.6177H141.121V27.8131H139.229V33.8804C139.229 34.7779 139.958 35.5087 140.856 35.5087H153.141C154.04 35.5087 154.769 34.7779 154.769 33.8804V21.5971C154.769 20.6981 154.04 19.9682 153.141 19.9682ZM141.121 25.9217H139.229V21.5971C139.229 20.6981 139.958 19.9682 140.856 19.9682H143.595V14.8404C143.595 14.3195 144.02 13.895 144.541 13.895C145.063 13.895 145.488 14.3195 145.488 14.8404V21.8598H141.121V25.9217Z" fill="#0B1218"/>
    <path fill-rule="evenodd" clip-rule="evenodd" d="M135.134 6.19922C134.613 6.19922 134.189 6.62272 134.189 7.14589V14.0808L127.67 25.3706C127.381 25.8735 127.381 26.4973 127.67 26.9998C127.96 27.5014 128.499 27.8134 129.079 27.8134H135.651C135.807 27.2548 135.897 26.6673 135.897 26.0591C135.897 26.0127 135.894 25.9672 135.894 25.9217H129.537L136.081 14.5879V7.14589C136.081 6.62272 135.656 6.19922 135.134 6.19922ZM147.51 25.3701L145.485 21.8599H143.3L145.645 25.9217H137.786C137.786 25.9672 137.789 26.0127 137.789 26.0591C137.789 26.6608 137.724 27.2474 137.602 27.8134H146.101C146.681 27.8134 147.222 27.5014 147.51 26.9998C147.801 26.4973 147.801 25.8735 147.51 25.3701ZM142.207 19.9684L139.1 14.5883V7.14589C139.1 6.62272 139.525 6.19922 140.047 6.19922C140.568 6.19922 140.993 6.62272 140.993 7.14589V14.0822L143.595 18.5891V19.9684H142.207Z" fill="#0B1218"/>
    <path fill-rule="evenodd" clip-rule="evenodd" d="M64.5921 61.0946H145.483V50.4092H56.6348L64.5921 61.0946Z" fill="#0B1218"/>
    <path fill-rule="evenodd" clip-rule="evenodd" d="M144.402 68.1061V66.1351H142.41V68.1061H141.33V63.1973H142.41V65.1393H144.402V63.1973H145.481V68.1061H144.402ZM138.632 68.1907C137.188 68.1907 136.114 67.0744 136.114 65.6652V65.652C136.114 64.256 137.165 63.1128 138.674 63.1128C139.599 63.1128 140.155 63.4205 140.611 63.8702L139.923 64.663C139.543 64.3185 139.158 64.1076 138.668 64.1076C137.84 64.1076 137.244 64.7967 137.244 65.6364V65.652C137.244 66.4934 137.826 67.194 138.668 67.194C139.229 67.194 139.572 66.9698 139.959 66.6198L140.646 67.3142C140.141 67.8539 139.579 68.1907 138.632 68.1907ZM134.442 64.872C134.442 64.4099 134.119 64.1715 133.592 64.1715H132.519V65.5808H133.615C134.14 65.5808 134.442 65.301 134.442 64.8876V64.872ZM134.42 68.1061L133.369 66.5352H132.519V68.1061H131.44V63.1973H133.683C134.842 63.1973 135.535 63.8073 135.535 64.8164V64.8307C135.535 65.623 135.109 66.1219 134.482 66.3533L135.683 68.1061H134.42ZM128.227 64.4595L127.574 66.0511H128.88L128.227 64.4595ZM129.714 68.1061L129.264 67.0056H127.189L126.74 68.1061H125.639L127.743 63.1615H128.738L130.844 68.1061H129.714ZM121.415 68.1061V63.1973H125.118V64.1582H122.488V65.1541H124.803V66.1144H122.488V67.1457H125.154V68.1061H121.415ZM118.774 68.1764C118.03 68.1764 117.279 67.9169 116.691 67.3905L117.329 66.6271C117.77 66.9914 118.234 67.2223 118.795 67.2223C119.237 67.2223 119.502 67.0479 119.502 66.7599V66.746C119.502 66.4727 119.335 66.3318 118.514 66.1219C117.525 65.8687 116.887 65.5954 116.887 64.6208V64.6056C116.887 63.7158 117.603 63.1266 118.605 63.1266C119.321 63.1266 119.931 63.3507 120.429 63.7508L119.868 64.5643C119.433 64.262 119.004 64.0801 118.591 64.0801C118.178 64.0801 117.96 64.2694 117.96 64.5077V64.5225C117.96 64.8445 118.17 64.9501 119.019 65.1673C120.015 65.4264 120.576 65.7846 120.576 66.6404V66.6546C120.576 67.6289 119.833 68.1764 118.774 68.1764ZM112.425 68.1061V63.1973H116.129V64.1582H113.498V65.1541H115.814V66.1144H113.498V67.1457H116.164V68.1061H112.425ZM110.447 64.872C110.447 64.4099 110.124 64.1715 109.597 64.1715H108.525V65.5808H109.619C110.145 65.5808 110.447 65.301 110.447 64.8876V64.872ZM110.426 68.1061L109.372 66.5352H108.525V68.1061H107.444V63.1973H109.688C110.847 63.1973 111.54 63.8073 111.54 64.8164V64.8307C111.54 65.623 111.113 66.1219 110.488 66.3533L111.687 68.1061H110.426ZM103.361 68.1061V66.1351H101.369V68.1061H100.289V63.1973H101.369V65.1393H103.361V63.1973H104.442V68.1061H103.361ZM97.209 68.1907C95.6799 68.1907 94.6276 67.1177 94.6276 65.6652V65.652C94.6276 64.256 95.7157 63.1128 97.203 63.1128C98.0849 63.1128 98.6196 63.3507 99.1308 63.7856L98.4515 64.6056C98.072 64.2919 97.7349 64.1076 97.1677 64.1076C96.3817 64.1076 95.7571 64.8031 95.7571 65.6364V65.652C95.7571 66.549 96.3748 67.2081 97.2448 67.2081C97.6371 67.2081 97.9881 67.1103 98.2622 66.9141V66.2124H97.1741V65.2794H99.3068V67.412C98.8015 67.8397 98.108 68.1907 97.209 68.1907ZM91.7094 68.1833C90.3907 68.1833 89.5837 67.447 89.5837 66.0015V63.1973H90.664V65.974C90.664 66.7732 91.0637 67.1865 91.7228 67.1865C92.3824 67.1865 92.7825 66.7874 92.7825 66.0098V63.1973H93.8619V65.9675C93.8619 67.4539 93.0272 68.1833 91.7094 68.1833ZM87.6858 65.652C87.6858 64.8095 87.0685 64.1076 86.1985 64.1076C85.329 64.1076 84.725 64.7967 84.725 65.6364V65.652C84.725 66.4934 85.3428 67.194 86.2118 67.194C87.0823 67.194 87.6858 66.5077 87.6858 65.6652V65.652ZM86.1985 68.1907C84.6837 68.1907 83.596 67.0612 83.596 65.6652V65.652C83.596 64.256 84.6978 63.1128 86.2118 63.1128C87.7276 63.1128 88.8139 64.2414 88.8139 65.6364V65.652C88.8139 67.0479 87.7138 68.1907 86.1985 68.1907ZM81.9236 64.872C81.9236 64.4099 81.6006 64.1715 81.0743 64.1715H80.0022V65.5808H81.0958C81.6213 65.5808 81.9236 65.301 81.9236 64.8876V64.872ZM81.9024 68.1061L80.8505 66.5352H80.0022V68.1061H78.9214V63.1973H81.1661C82.3236 63.1973 83.0172 63.8073 83.0172 64.8164V64.8307C83.0172 65.623 82.5896 66.1219 81.9653 66.3533L83.1651 68.1061H81.9024ZM76.7423 68.1061V66.1351H74.7493V68.1061H73.6699V63.1973H74.7493V65.1393H76.7423V63.1973H77.8217V68.1061H76.7423ZM71.5483 64.1932V68.1061H70.4684V64.1932H68.9746V63.1973H73.042V64.1932H71.5483Z" fill="#0B1218"/>
    <path fill-rule="evenodd" clip-rule="evenodd" d="M139.416 53.8436V55.1981H142.452V56.47H139.416V58.9338H138.016V52.5718H142.86V53.8436H139.416ZM135.328 58.9338L132.246 54.8895V58.9338H130.865V52.5718H132.156L135.136 56.4879V52.5718H136.517V58.9338H135.328ZM124.256 59.0422C122.275 59.0422 120.911 57.6518 120.911 55.7695V55.7525C120.911 53.9441 122.319 52.4629 124.247 52.4629C125.392 52.4629 126.082 52.772 126.746 53.3351L125.864 54.398C125.374 53.9896 124.937 53.7526 124.202 53.7526C123.183 53.7526 122.374 54.6524 122.374 55.7337V55.7525C122.374 56.916 123.175 57.7699 124.301 57.7699C124.81 57.7699 125.265 57.6427 125.618 57.3878V56.4792H124.209V55.2707H126.973V58.034C126.319 58.5884 125.418 59.0422 124.256 59.0422ZM118.545 58.9338L115.463 54.8895V58.9338H114.082V52.5718H115.373L118.354 56.4879V52.5718H119.735V58.9338H118.545ZM111.17 58.9338H112.57V52.5718H111.17V58.9338ZM108.498 55.7525C108.498 54.6258 107.727 53.8353 106.582 53.8353H105.501V57.6707H106.582C107.727 57.6707 108.498 56.8972 108.498 55.7695V55.7525ZM106.582 58.9338H104.101V52.5718H106.582C108.581 52.5718 109.963 53.9441 109.963 55.7337V55.7525C109.963 57.5421 108.581 58.9338 106.582 58.9338ZM101.41 58.9338L98.3297 54.8895V58.9338H96.9489V52.5718H98.2378L101.22 56.4879V52.5718H102.602V58.9338H101.41ZM90.8477 58.9338V52.5718H95.6458V53.8164H92.2376V55.1067H95.2374V56.352H92.2376V57.6877H95.6917V58.9338H90.8477Z" fill="#FFFFFE"/>
  </g>
  <defs>
    <clipPath id="clip0_444_53392">
      <rect width="185.975" height="74.39" fill="white" transform="translate(0.630859)"/>
    </clipPath>
  </defs>
</svg>