<svg
            width="17"
            height="17"
            viewBox="0 0 17 17"
            fill="none"
            xmlns="http://www.w3.org/2000/svg"
          >
            <path
              d="M13.4668 4.04621C13.4668 4.99226 11.3029 5.75918 8.63347 5.75918C5.9641 5.75918 3.80014 4.99226 3.80014 4.04621M13.4668 4.04621C13.4668 3.10017 11.3029 2.33325 8.63347 2.33325C5.9641 2.33325 3.80014 3.10017 3.80014 4.04621M13.4668 4.04621V12.9537C13.4668 13.8997 11.3029 14.6666 8.63347 14.6666C5.9641 14.6666 3.80014 13.8997 3.80014 12.9537V4.04621M13.4668 8.49992C13.4668 9.42038 11.3029 10.1666 8.63347 10.1666C5.9641 10.1666 3.80014 9.42038 3.80014 8.49992"
              stroke="#D7DEE4"
              stroke-linecap="round"
              stroke-linejoin="round"
            />
          </svg>