<svg width="108" height="30" viewBox="0 0 108 30" fill="none" xmlns="http://www.w3.org/2000/svg">
<g clip-path="url(#clip0_2357_1246)">
<path d="M3.07759 27.502V28.5555H3.4457C3.55618 28.5555 3.61433 28.5247 3.6452 28.4567C3.66443 28.4143 3.67248 28.3155 3.68008 28.2243H3.84469V29.0803H3.68008C3.67606 29.0204 3.66845 28.9019 3.6452 28.8519C3.61791 28.7804 3.55618 28.7491 3.4457 28.7491H3.07759V29.5702C3.07759 29.6806 3.11247 29.7329 3.18046 29.7602C3.21938 29.7758 3.31018 29.7834 3.39963 29.791V29.9439H2.27783V29.791C2.32838 29.787 2.43483 29.7834 2.47374 29.7637C2.54755 29.7405 2.5726 29.6806 2.5726 29.5778V27.6879C2.5726 27.5699 2.54531 27.5176 2.47777 27.4904C2.44288 27.4747 2.36729 27.4671 2.27828 27.4595V27.3066H4.23919V27.9534H4.09383C3.999 27.5873 3.85542 27.5002 3.52219 27.5002H3.07848V27.502H3.07759Z" fill="white"/>
<path d="M4.5345 29.791C4.58863 29.787 4.69553 29.7794 4.73802 29.7602C4.81182 29.7329 4.82927 29.673 4.82927 29.5626V27.6879C4.82927 27.5699 4.80198 27.5176 4.73444 27.4904C4.69955 27.4747 4.62396 27.4671 4.53495 27.4595V27.3066H6.49587V27.9534H6.3505C6.25567 27.5873 6.11209 27.5002 5.77886 27.5002H5.33515V28.4898H5.68762C5.7981 28.4898 5.86027 28.459 5.88711 28.391C5.90634 28.3486 5.91797 28.2498 5.92602 28.1586H6.08704V29.0146H5.92602C5.91842 28.9547 5.91037 28.8362 5.88711 28.7897C5.85982 28.7142 5.7981 28.6834 5.68762 28.6834H5.33515V29.7485H5.84104C6.21676 29.7485 6.34289 29.5858 6.48826 29.1523L6.61798 29.1679L6.55983 29.9443H4.53271V29.7914H4.5345V29.791Z" fill="white"/>
<path d="M6.97799 29.7905C7.04374 29.7864 7.12738 29.7829 7.1739 29.7632C7.24368 29.74 7.27275 29.6801 7.27275 29.5773V27.6717C7.27275 27.5689 7.24189 27.509 7.1739 27.4858C7.12738 27.4702 7.07102 27.4702 6.97799 27.4585V27.3057H8.19685C8.99347 27.3057 9.51054 27.7741 9.51054 28.5836C9.51054 29.3931 8.95053 29.9411 8.15391 29.9411H6.97754V29.7882V29.79L6.97799 29.7905ZM7.77998 27.5014V29.7498H8.1056C8.78011 29.7498 8.95232 29.2094 8.95232 28.6247C8.95232 27.982 8.72957 27.5037 8.12081 27.5037H7.77998V27.5019V27.5014Z" fill="white"/>
<path d="M9.86116 29.791C9.91529 29.787 10.0222 29.7794 10.0647 29.7602C10.1385 29.7329 10.1559 29.673 10.1559 29.5626V27.6879C10.1559 27.5699 10.1286 27.5176 10.0611 27.4904C10.0262 27.4747 9.95062 27.4671 9.86161 27.4595V27.3066H11.8225V27.9534H11.6772C11.5823 27.5873 11.4388 27.5002 11.1055 27.5002H10.6618V28.4898H11.0143C11.1248 28.4898 11.1869 28.459 11.2138 28.391C11.233 28.3486 11.2446 28.2498 11.2527 28.1586H11.4137V29.0146H11.2527C11.2451 28.9547 11.237 28.8362 11.2138 28.7897C11.1865 28.7142 11.1265 28.6834 11.0143 28.6834H10.6618V29.7485H11.1677C11.5434 29.7485 11.6696 29.5858 11.8149 29.1523L11.9446 29.1679L11.8865 29.9443H9.85938V29.7914H9.86116V29.791Z" fill="white"/>
<path d="M13.8317 28.6877L14.4248 29.4972C14.5742 29.6988 14.6923 29.7662 14.8842 29.7895L14.8726 29.9424H14.1399L13.3008 28.7359H13.1049V29.5763C13.1049 29.6791 13.1398 29.739 13.2078 29.7622C13.2619 29.7779 13.3375 29.7814 13.4305 29.7895V29.9424H12.3047V29.7895C12.3704 29.7855 12.4541 29.7819 12.5006 29.7622C12.5704 29.739 12.5995 29.6791 12.5995 29.5763V27.6708C12.5995 27.568 12.5686 27.5081 12.5006 27.4848C12.4541 27.4692 12.3977 27.4692 12.3047 27.4576V27.3047H13.5777C14.0406 27.3047 14.4284 27.4906 14.4284 27.9671C14.4284 28.3368 14.1726 28.5831 13.8317 28.6854V28.6872V28.6877ZM13.1071 27.5023V28.5402H13.3648C13.7213 28.5402 13.8823 28.3699 13.8823 28.0038C13.8823 27.6922 13.7213 27.5023 13.4269 27.5023H13.1071Z" fill="white"/>
<path d="M15.4907 29.7632C15.5256 29.7708 15.6204 29.7824 15.7099 29.7904V29.9433H14.8242V29.7904C14.8783 29.7864 14.9504 29.7632 14.9928 29.748C15.0702 29.7207 15.1109 29.6724 15.1458 29.5777L16.0587 27.2578H16.3047L17.1439 29.5777C17.1787 29.6805 17.2212 29.7229 17.2968 29.748C17.3393 29.7636 17.4033 29.7869 17.4579 29.7904V29.9433H16.3361V29.7904C16.4175 29.7828 16.4971 29.7712 16.5396 29.7596C16.6134 29.7364 16.6733 29.68 16.6384 29.5777L16.4541 29.0297H15.5877L15.3802 29.5777C15.3453 29.6689 15.3878 29.7404 15.4907 29.7636V29.7632ZM15.6633 28.8281H16.3844L16.0511 27.8268L15.6638 28.8281H15.6633Z" fill="white"/>
<path d="M17.6724 29.791C17.7305 29.787 17.837 29.7794 17.8799 29.7602C17.9457 29.7293 17.9671 29.673 17.9671 29.5626V27.6727C17.9671 27.5663 17.9363 27.5118 17.8683 27.4868C17.8334 27.4711 17.7502 27.4676 17.6724 27.4595V27.3066H18.7731V27.4595C18.719 27.4635 18.6161 27.4671 18.5737 27.4868C18.5039 27.51 18.4748 27.5699 18.4748 27.6727V29.7485H18.8237C19.2191 29.7485 19.3564 29.5586 19.5018 29.125L19.6355 29.1406L19.5814 29.9425H17.6728V29.7897V29.7914L17.6724 29.791Z" fill="white"/>
<path d="M21.7148 29.5782C21.7148 29.6846 21.7479 29.7391 21.8136 29.7642C21.8467 29.7798 21.9259 29.7834 21.9979 29.7914V29.9443H20.9575V29.7914C21.004 29.7874 21.1069 29.7838 21.1418 29.7642C21.2116 29.7409 21.2366 29.681 21.2366 29.5782V27.6727C21.2366 27.5663 21.2076 27.5118 21.1418 27.4868C21.1087 27.4711 21.0295 27.4676 20.9575 27.4595V27.3066H21.9979V27.4595C21.9474 27.4635 21.8485 27.4671 21.8101 27.4868C21.7443 27.51 21.7152 27.5699 21.7152 27.6727V29.5782H21.7148Z" fill="white"/>
<path d="M24.3732 29.9577L22.8967 27.8779V29.4406C22.8967 29.5899 22.9392 29.673 23.013 29.7213C23.0752 29.7637 23.1544 29.7892 23.2456 29.8008V29.9421H22.3135V29.8008C22.3891 29.7892 22.4588 29.77 22.521 29.7369C22.6042 29.6904 22.6624 29.5992 22.6624 29.4406V27.8895C22.6624 27.6262 22.5635 27.4792 22.3332 27.4443V27.3066H23.056L24.4028 29.15V27.8082C24.4028 27.6589 24.3603 27.5757 24.2865 27.5275C24.2243 27.485 24.1451 27.4595 24.0539 27.4479V27.3066H24.9896V27.4479C24.914 27.4595 24.8442 27.4787 24.7821 27.5118C24.6989 27.5583 24.6407 27.6495 24.6407 27.8082V29.9559H24.375L24.3732 29.9577Z" fill="white"/>
<path d="M26.0224 27.502V28.5555H26.3713C26.476 28.5555 26.5301 28.5247 26.5591 28.4567C26.5766 28.4143 26.5842 28.3155 26.5922 28.2243H26.7492V29.0803H26.5922C26.5882 29.0204 26.5806 28.9019 26.5591 28.8519C26.5341 28.7804 26.476 28.7491 26.3713 28.7491H26.0224V29.5702C26.0224 29.6806 26.0555 29.7329 26.1212 29.7602C26.1579 29.7758 26.2451 29.7834 26.3288 29.791V29.9439H25.2651V29.791C25.3117 29.787 25.4145 29.7834 25.4512 29.7637C25.521 29.7405 25.546 29.6806 25.546 29.5778V27.6879C25.546 27.5699 25.521 27.5176 25.4548 27.4904C25.4217 27.4747 25.3501 27.4671 25.2669 27.4595V27.3066H27.1254V27.9534H26.9876C26.8964 27.5873 26.7627 27.5002 26.4469 27.5002H26.0264L26.0224 27.502Z" fill="white"/>
<path d="M29.9522 28.6031C29.9522 29.3934 29.4195 29.9995 28.6537 29.9995C27.9309 29.9995 27.4058 29.4632 27.4058 28.6461C27.4058 27.829 27.9582 27.2461 28.6944 27.2461C29.4306 27.2461 29.954 27.8249 29.954 28.6036H29.9522V28.6031ZM29.4212 28.6228C29.4212 27.9644 29.2468 27.432 28.6694 27.432C28.0919 27.432 27.9331 27.98 27.9331 28.6192C27.9331 29.334 28.1192 29.8064 28.6617 29.8064C29.2723 29.8064 29.4195 29.2137 29.4195 28.6233H29.4212V28.6228Z" fill="white"/>
<path d="M31.7178 28.6877L32.2796 29.4972C32.4209 29.6988 32.5336 29.7662 32.7157 29.7895L32.704 29.9424H32.0103L31.2159 28.7359H31.0298V29.5763C31.0298 29.6791 31.0629 29.739 31.1287 29.7622C31.1792 29.7779 31.2526 29.7814 31.3398 29.7895V29.9424H30.2739V29.7895C30.3361 29.7855 30.4153 29.7819 30.4582 29.7622C30.524 29.739 30.553 29.6791 30.553 29.5763V27.6708C30.553 27.568 30.524 27.5081 30.4582 27.4848C30.4157 27.4692 30.3594 27.4692 30.2739 27.4576V27.3047H31.4794C31.9191 27.3047 32.2854 27.4906 32.2854 27.9671C32.2854 28.3368 32.043 28.5831 31.7196 28.6854L31.7178 28.6872V28.6877ZM31.0316 27.5023V28.5402H31.2741C31.6113 28.5402 31.7643 28.3699 31.7643 28.0038C31.7643 27.6922 31.6113 27.5023 31.3322 27.5023H31.0316Z" fill="white"/>
<path d="M35.5915 29.5778C35.5915 29.6842 35.6205 29.7387 35.6863 29.7637C35.7194 29.7794 35.7986 29.783 35.8724 29.791V29.9439H34.832V29.791C34.8825 29.787 34.9814 29.7834 35.0198 29.7637C35.0856 29.7405 35.1146 29.6806 35.1146 29.5778V27.8019L34.3203 29.4151H34.1825L33.3881 27.8099V29.4406C33.3881 29.5899 33.4328 29.673 33.5044 29.7213C33.5666 29.7637 33.6458 29.7892 33.737 29.8008V29.9421H32.8013V29.8008C32.8769 29.7892 32.9466 29.77 33.0088 29.7369C33.092 29.6904 33.1502 29.5992 33.1502 29.4406V27.7366C33.1502 27.6146 33.1251 27.5507 33.0589 27.5118C33.0182 27.481 32.9252 27.4653 32.8339 27.4595V27.3066H33.6207L34.3686 28.821L35.1263 27.3066H35.8741V27.4595C35.8276 27.4635 35.7248 27.4671 35.6881 27.4868C35.6183 27.51 35.5932 27.5699 35.5932 27.6727V29.5782H35.5915V29.5778Z" fill="white"/>
<path d="M36.6687 29.7632C36.7018 29.7708 36.7926 29.7824 36.8762 29.7904V29.9433H36.0371V29.7904C36.0877 29.7864 36.1574 29.7632 36.1959 29.748C36.2675 29.7207 36.3082 29.6724 36.3413 29.5777L37.2054 27.2578H37.438L38.2324 29.5777C38.2655 29.6805 38.304 29.7229 38.3778 29.748C38.4185 29.7636 38.4784 29.7869 38.5307 29.7904V29.9433H37.4671V29.7904C37.5427 29.7828 37.6201 29.7712 37.659 29.7596C37.7288 29.7364 37.7869 29.68 37.7538 29.5777L37.5794 29.0297H36.7595L36.5636 29.5777C36.5305 29.6689 36.5712 29.7404 36.6682 29.7636L36.6687 29.7632ZM36.8315 28.8281H37.5136L37.1978 27.8268L36.8315 28.8281Z" fill="white"/>
<path d="M39.8004 27.4945V29.5784C39.8004 29.6812 39.8295 29.7411 39.8952 29.7643C39.9418 29.78 39.9941 29.78 40.0831 29.7916V29.9445H39.0387V29.7916C39.1044 29.7876 39.1841 29.784 39.2265 29.7643C39.2923 29.7411 39.3214 29.6812 39.3214 29.5784V27.4945H39.172C38.8446 27.4945 38.701 27.6322 38.6102 27.9961H38.4805V27.3086H40.6431V27.9961H40.5134C40.4222 27.63 40.2808 27.4945 39.9552 27.4945H39.8H39.8004Z" fill="white"/>
<path d="M41.6738 29.5782C41.6738 29.6846 41.7069 29.7391 41.7726 29.7642C41.8057 29.7798 41.8849 29.7834 41.9569 29.7914V29.9443H40.9165V29.7914C40.963 29.7874 41.0659 29.7838 41.1008 29.7642C41.1706 29.7409 41.1956 29.681 41.1956 29.5782V27.6727C41.1956 27.5663 41.1665 27.5118 41.1008 27.4868C41.0677 27.4711 40.9885 27.4676 40.9165 27.4595V27.3066H41.9569V27.4595C41.9064 27.4635 41.8075 27.4671 41.769 27.4868C41.7033 27.51 41.6742 27.5699 41.6742 27.6727V29.5782H41.6738Z" fill="white"/>
<path d="M44.8306 28.6031C44.8306 29.3934 44.2979 29.9995 43.5321 29.9995C42.8093 29.9995 42.2842 29.4632 42.2842 28.6461C42.2842 27.829 42.8366 27.2461 43.5728 27.2461C44.3091 27.2461 44.8324 27.8249 44.8324 28.6036H44.8306V28.6031ZM44.3019 28.6228C44.3019 27.9644 44.1275 27.432 43.55 27.432C42.9726 27.432 42.8138 27.98 42.8138 28.6192C42.8138 29.334 42.9998 29.8064 43.5424 29.8064C44.153 29.8064 44.3001 29.2137 44.3001 28.6233H44.3019V28.6228Z" fill="white"/>
<path d="M47.1696 29.9577L45.6931 27.8779V29.4406C45.6931 29.5899 45.7356 29.673 45.8094 29.7213C45.8716 29.7637 45.9508 29.7892 46.042 29.8008V29.9421H45.1099V29.8008C45.1855 29.7892 45.2552 29.77 45.3174 29.7369C45.4006 29.6904 45.4587 29.5992 45.4587 29.4406V27.8895C45.4587 27.6262 45.3599 27.4792 45.1295 27.4443V27.3066H45.8524L47.1991 29.15V27.8082C47.1991 27.6589 47.1567 27.5757 47.0829 27.5275C47.0207 27.485 46.9415 27.4595 46.8503 27.4479V27.3066H47.786V27.4479C47.7104 27.4595 47.6406 27.4787 47.5784 27.5118C47.4953 27.5583 47.4371 27.6495 47.4371 27.8082V29.9559H47.1714L47.1696 29.9577Z" fill="white"/>
<path d="M49.8202 30.0003C49.5626 30.0003 49.2562 29.9364 49.0044 29.7911V29.1055H49.1247C49.2857 29.611 49.5434 29.7929 49.8842 29.7929C50.225 29.7929 50.3785 29.6226 50.3785 29.3746C50.3785 29.1265 50.2058 28.9718 49.9446 28.8771L49.6557 28.7667C49.3009 28.633 49.02 28.4471 49.02 28.0519C49.02 27.63 49.3376 27.2464 49.9732 27.25C50.2309 27.25 50.4849 27.3139 50.7367 27.4592V28.1391H50.5874C50.4635 27.6532 50.2734 27.44 49.9285 27.44C49.6185 27.44 49.4459 27.6103 49.4459 27.866C49.4459 28.1216 49.6221 28.2356 49.8355 28.3152L50.132 28.4256C50.599 28.5999 50.8275 28.8011 50.8275 29.1672C50.8275 29.6647 50.4013 29.9999 49.822 29.9999H49.8202V30.0003Z" fill="white"/>
<path d="M51.2002 29.791C51.2525 29.787 51.3572 29.7794 51.3979 29.7602C51.4695 29.7329 51.4869 29.673 51.4869 29.5626V27.6879C51.4869 27.5699 51.4619 27.5176 51.3939 27.4904C51.3608 27.4747 51.2852 27.4671 51.2002 27.4595V27.3066H53.1146V27.9534H52.9732C52.8802 27.5873 52.7407 27.5002 52.415 27.5002H51.9812V28.4898H52.326C52.4347 28.4898 52.4947 28.459 52.5197 28.391C52.5389 28.3486 52.5488 28.2498 52.5564 28.1586H52.7134V29.0146H52.5564C52.5488 28.9547 52.5407 28.8362 52.5197 28.7897C52.4947 28.7142 52.4343 28.6834 52.326 28.6834H51.9812V29.7485H52.4754C52.8417 29.7485 52.9656 29.5858 53.107 29.1523L53.2349 29.1679L53.1786 29.9443H51.2002V29.7914V29.791Z" fill="white"/>
<path d="M54.9186 27.4323C54.3045 27.4323 54.1376 27.9844 54.1376 28.6115C54.1376 29.3262 54.3277 29.8139 54.9052 29.8139C55.3064 29.8139 55.5117 29.4983 55.6047 29.1479H55.7402V29.7289C55.5309 29.8992 55.2285 29.998 54.8993 29.998C54.1184 29.998 53.5933 29.4384 53.5933 28.6481C53.5933 27.8154 54.1609 27.2441 54.94 27.2441C55.229 27.2441 55.5077 27.3157 55.7402 27.4493V28.131H55.6047C55.5001 27.7242 55.3064 27.4319 54.9208 27.4319H54.919L54.9186 27.4323Z" fill="white"/>
<path d="M56.8625 27.6498V29.0345C56.8625 29.5128 57.0468 29.7761 57.494 29.7761C57.9413 29.7761 58.1413 29.4681 58.1413 29.0305V27.7794C58.1337 27.6498 58.0889 27.5742 58.0209 27.5277C57.957 27.4853 57.8756 27.4598 57.7808 27.4482V27.3069H58.742V27.4482C58.6664 27.4598 58.5926 27.479 58.5286 27.5121C58.4472 27.5586 58.3873 27.6417 58.3833 27.7852V29.0207C58.3833 29.5977 58.0344 29.9947 57.3777 29.9947C56.8021 29.9947 56.3682 29.7099 56.3682 29.0672V27.6708C56.3682 27.568 56.3391 27.5081 56.2712 27.4848C56.2228 27.4692 56.1432 27.4616 56.0811 27.4576V27.3047H57.1545V27.4576C57.0615 27.4692 57.0092 27.4652 56.9609 27.4848C56.9009 27.5081 56.8678 27.5604 56.8638 27.6475L56.862 27.6493L56.8625 27.6498Z" fill="white"/>
<path d="M60.4822 28.6877L61.0614 29.4972C61.2068 29.6988 61.3231 29.7662 61.511 29.7895L61.4993 29.9424H60.7841L59.9642 28.7359H59.7741V29.5763C59.7741 29.6791 59.8072 29.739 59.8748 29.7622C59.9271 29.7779 60.0027 29.7814 60.0917 29.7895V29.9424H58.9932V29.7895C59.0571 29.7855 59.1385 29.7819 59.1833 29.7622C59.2512 29.739 59.2803 29.6791 59.2803 29.5763V27.6708C59.2803 27.568 59.2512 27.5081 59.1833 27.4848C59.1385 27.4692 59.0826 27.4692 58.9932 27.4576V27.3047H60.2353C60.6888 27.3047 61.0668 27.4906 61.0668 27.9671C61.0668 28.3368 60.8168 28.5831 60.4835 28.6854L60.4817 28.6872L60.4822 28.6877ZM59.775 27.5023V28.5402H60.0251C60.3717 28.5402 60.5309 28.3699 60.5309 28.0038C60.5309 27.6922 60.3739 27.5023 60.0854 27.5023H59.7755H59.775Z" fill="white"/>
<path d="M62.418 29.5782C62.418 29.6846 62.4511 29.7391 62.5186 29.7642C62.5517 29.7798 62.6349 29.7834 62.7087 29.7914V29.9443H61.6353V29.7914C61.6836 29.7874 61.7882 29.7838 61.8254 29.7642C61.8969 29.7409 61.9224 29.681 61.9224 29.5782V27.6727C61.9224 27.5663 61.8933 27.5118 61.8254 27.4868C61.7923 27.4711 61.7091 27.4676 61.6353 27.4595V27.3066H62.7087V27.4595C62.6564 27.4635 62.5558 27.4671 62.5151 27.4868C62.4471 27.51 62.418 27.5699 62.418 27.6727V29.5782Z" fill="white"/>
<path d="M64.3517 27.4945V29.5784C64.3517 29.6812 64.3808 29.7411 64.4488 29.7643C64.4971 29.78 64.5494 29.78 64.6425 29.7916V29.9445H63.565V29.7916C63.6329 29.7876 63.7144 29.784 63.7586 29.7643C63.8266 29.7411 63.8557 29.6812 63.8557 29.5784V27.4945H63.7027C63.3655 27.4945 63.2165 27.6322 63.1235 27.9961H62.9897V27.3086H65.2181V27.9961H65.0826C64.9896 27.63 64.8424 27.4945 64.507 27.4945H64.35H64.3517Z" fill="white"/>
<path d="M66.2278 27.7826L66.6733 28.631L67.1268 27.7942C67.1519 27.7419 67.1675 27.6914 67.1675 27.653C67.1675 27.5269 67.0436 27.467 66.8768 27.463V27.3061H67.7816V27.4438C67.6363 27.4594 67.516 27.5309 67.4117 27.7129L66.7976 28.7932V29.5755C66.7976 29.6818 66.8267 29.7364 66.8947 29.7614C66.9278 29.7771 67.011 29.7806 67.0848 29.7887V29.9415H66.0113V29.7887C66.0636 29.7847 66.1642 29.7811 66.205 29.7614C66.2729 29.7382 66.302 29.6783 66.302 29.5755V28.7932L65.678 27.6758C65.5984 27.5421 65.517 27.4858 65.3564 27.4626V27.3057H66.4939V27.4626C66.2846 27.4818 66.1915 27.5537 66.1915 27.6561C66.1915 27.695 66.2032 27.7392 66.2282 27.7822L66.2278 27.7826Z" fill="white"/>
<path d="M71.9476 29.5778C71.9476 29.6842 71.9785 29.7387 72.0465 29.7637C72.0814 29.7794 72.1646 29.783 72.2402 29.791V29.9439H71.1474V29.791C71.1998 29.787 71.3044 29.7834 71.3452 29.7637C71.4131 29.7405 71.444 29.6806 71.444 29.5778V27.8019L70.6107 29.4151H70.4653L69.632 27.8099V29.4406C69.632 29.5899 69.6785 29.673 69.7541 29.7213C69.8181 29.7637 69.9035 29.7892 69.9984 29.8008V29.9421H69.0161V29.8008C69.0957 29.7892 69.1691 29.77 69.233 29.7369C69.3203 29.6904 69.3824 29.5992 69.3824 29.4406V27.7366C69.3824 27.6146 69.3552 27.5507 69.2876 27.5118C69.2451 27.481 69.1463 27.4653 69.051 27.4595V27.3066H69.8767L70.6617 28.821L71.4583 27.3066H72.2433V27.4595C72.1928 27.4635 72.0863 27.4671 72.0496 27.4868C71.9781 27.51 71.9508 27.5699 71.9508 27.6727V29.5782H71.949L71.9476 29.5778Z" fill="white"/>
<path d="M73.0774 29.7632C73.1123 29.7708 73.2071 29.7824 73.2944 29.7904V29.9433H72.4146V29.7904C72.4687 29.7864 72.5407 29.7632 72.5814 29.748C72.657 29.7207 72.6995 29.6724 72.7344 29.5777L73.6415 27.2578H73.8857L74.719 29.5777C74.7539 29.6805 74.7946 29.7229 74.872 29.748C74.9145 29.7636 74.9784 29.7869 75.033 29.7904V29.9433H73.917V29.7904C73.9966 29.7828 74.078 29.7712 74.1187 29.7596C74.1903 29.7364 74.2525 29.68 74.2176 29.5777L74.0355 29.0297H73.1749L72.9696 29.5777C72.9347 29.6689 72.9772 29.7404 73.0801 29.7636H73.0783L73.0774 29.7632ZM73.2479 28.8281H73.9649L73.6334 27.8268L73.2479 28.8281Z" fill="white"/>
<path d="M77.3721 29.9577L75.8218 27.8779V29.4406C75.8218 29.5899 75.8683 29.673 75.9439 29.7213C76.0079 29.7637 76.0933 29.7892 76.1881 29.8008V29.9421H75.2095V29.8008C75.2891 29.7892 75.3624 29.77 75.4264 29.7369C75.5136 29.6904 75.5758 29.5992 75.5758 29.4406V27.8895C75.5758 27.6262 75.4729 27.4792 75.2292 27.4443V27.3066H75.9869L77.3994 29.15V27.8082C77.3994 27.6589 77.3529 27.5757 77.2773 27.5275C77.2133 27.485 77.1279 27.4595 77.0331 27.4479V27.3066H78.0153V27.4479C77.9357 27.4595 77.8623 27.4787 77.7984 27.5118C77.7112 27.5583 77.649 27.6495 77.649 27.8082V29.9559H77.3717V29.9577H77.3721Z" fill="white"/>
<path d="M78.7342 29.7632C78.7691 29.7708 78.8639 29.7824 78.9511 29.7904V29.9433H78.0713V29.7904C78.1236 29.7864 78.1974 29.7632 78.2381 29.748C78.3137 29.7207 78.3562 29.6724 78.3911 29.5777L79.2982 27.2578H79.5424L80.3757 29.5777C80.4106 29.6805 80.4513 29.7229 80.5287 29.748C80.5712 29.7636 80.6351 29.7869 80.6897 29.7904V29.9433H79.5737V29.7904C79.6533 29.7828 79.7348 29.7712 79.7755 29.7596C79.847 29.7364 79.9092 29.68 79.8743 29.5777L79.6923 29.0297H78.8317L78.6264 29.5777C78.5915 29.6689 78.634 29.7404 78.7369 29.7636H78.7351L78.7342 29.7632ZM78.9046 28.8281H79.6216L79.2902 27.8268L78.9046 28.8281Z" fill="white"/>
<path d="M82.1835 27.4325C81.5788 27.4325 81.3677 27.9845 81.3677 28.6116C81.3677 29.3264 81.5886 29.814 82.1795 29.814C82.3132 29.814 82.451 29.7751 82.5785 29.7112V29.0685C82.5785 28.9657 82.5436 28.9058 82.4796 28.8825C82.4371 28.8669 82.3383 28.8633 82.2587 28.8552V28.7024H83.2955V28.8552C83.2449 28.8593 83.2042 28.8709 83.1658 28.8941C83.1058 28.925 83.0826 28.9737 83.0826 29.0685V29.76C82.8889 29.8936 82.515 30.004 82.1428 30C81.3462 29.9884 80.8135 29.4909 80.8135 28.6617C80.8135 27.8325 81.4182 27.2461 82.2224 27.2461C82.5074 27.2461 82.854 27.3176 83.083 27.4513V28.1329H82.9453C82.8308 27.711 82.5986 27.4338 82.1835 27.4338V27.432V27.4325Z" fill="white"/>
<path d="M83.6077 29.791C83.6618 29.787 83.7687 29.7794 83.8094 29.7602C83.881 29.7329 83.9007 29.673 83.9007 29.5626V27.6879C83.9007 27.5699 83.8734 27.5176 83.8059 27.4904C83.771 27.4747 83.6954 27.4671 83.6081 27.4595V27.3066H85.5574V27.9534H85.4121C85.3172 27.5873 85.1755 27.5002 84.8445 27.5002H84.4025V28.4898H84.7532C84.8637 28.4898 84.9236 28.459 84.9509 28.391C84.9701 28.3486 84.9818 28.2498 84.9898 28.1586H85.1508V29.0146H84.9898C84.9822 28.9547 84.9742 28.8362 84.9509 28.7897C84.9236 28.7142 84.8637 28.6834 84.7532 28.6834H84.4025V29.7485H84.9044C85.2783 29.7485 85.4022 29.5858 85.5476 29.1523L85.6773 29.1679L85.621 29.9443H83.6055V29.7914H83.6073L83.6077 29.791Z" fill="white"/>
<path d="M88.9267 29.5778C88.9267 29.6842 88.9575 29.7387 89.0255 29.7637C89.0604 29.7794 89.1436 29.783 89.2192 29.791V29.9439H88.1265V29.791C88.1788 29.787 88.2835 29.7834 88.3242 29.7637C88.3921 29.7405 88.423 29.6806 88.423 29.5778V27.8019L87.5897 29.4151H87.4443L86.611 27.8099V29.4406C86.611 29.5899 86.6576 29.673 86.7331 29.7213C86.7971 29.7637 86.8825 29.7892 86.9774 29.8008V29.9421H85.9951V29.8008C86.0747 29.7892 86.1481 29.77 86.2121 29.7369C86.2993 29.6904 86.3614 29.5992 86.3614 29.4406V27.7366C86.3614 27.6146 86.3342 27.5507 86.2666 27.5118C86.2241 27.481 86.1253 27.4653 86.03 27.4595V27.3066H86.8557L87.6407 28.821L88.4373 27.3066H89.2223V27.4595C89.1718 27.4635 89.0653 27.4671 89.0286 27.4868C88.9571 27.51 88.9298 27.5699 88.9298 27.6727V29.5782H88.928L88.9267 29.5778Z" fill="white"/>
<path d="M89.5838 29.791C89.6379 29.787 89.7448 29.7794 89.7855 29.7602C89.8571 29.7329 89.8768 29.673 89.8768 29.5626V27.6879C89.8768 27.5699 89.8495 27.5176 89.7819 27.4904C89.747 27.4747 89.6714 27.4671 89.5842 27.4595V27.3066H91.5335V27.9534H91.3881C91.2933 27.5873 91.1515 27.5002 90.8205 27.5002H90.3786V28.4898H90.7293C90.8398 28.4898 90.8997 28.459 90.927 28.391C90.9462 28.3486 90.9578 28.2498 90.9659 28.1586H91.1269V29.0146H90.9659C90.9583 28.9547 90.9502 28.8362 90.927 28.7897C90.8997 28.7142 90.8398 28.6834 90.7293 28.6834H90.3786V29.7485H90.8805C91.2544 29.7485 91.3783 29.5858 91.5237 29.1523L91.6534 29.1679L91.597 29.9443H89.5815V29.7914H89.5833L89.5838 29.791Z" fill="white"/>
<path d="M94.1412 29.9577L92.5909 27.8779V29.4406C92.5909 29.5899 92.6374 29.673 92.713 29.7213C92.7769 29.7637 92.8624 29.7892 92.9572 29.8008V29.9421H91.9785V29.8008C92.0581 29.7892 92.1315 29.77 92.1954 29.7369C92.2827 29.6904 92.3448 29.5992 92.3448 29.4406V27.8895C92.3448 27.6262 92.242 27.4792 91.9982 27.4443V27.3066H92.7559L94.1684 29.15V27.8082C94.1684 27.6589 94.1219 27.5757 94.0463 27.5275C93.9824 27.485 93.8969 27.4595 93.8021 27.4479V27.3066H94.7844V27.4479C94.7047 27.4595 94.6314 27.4787 94.5674 27.5118C94.4802 27.5583 94.418 27.6495 94.418 27.8082V29.9559H94.1407V29.9577H94.1412Z" fill="white"/>
<path d="M96.3834 27.4945V29.5784C96.3834 29.6812 96.4143 29.7411 96.4823 29.7643C96.5328 29.78 96.5851 29.78 96.68 29.7916V29.9445H95.5832V29.7916C95.6512 29.7876 95.7362 29.784 95.7809 29.7643C95.8489 29.7411 95.8798 29.6812 95.8798 29.5784V27.4945H95.7228C95.3797 27.4945 95.2285 27.6322 95.1319 27.9961H94.9941V27.3086H97.2632V27.9961H97.1255C97.0306 27.63 96.8813 27.4945 96.5382 27.4945H96.3772H96.383H96.3834Z" fill="white"/>
<path d="M98.5517 29.7632C98.5866 29.7708 98.6855 29.7824 98.7745 29.7904V29.9433H97.8696V29.7904C97.9238 29.7864 97.9993 29.7632 98.0423 29.748C98.1219 29.7207 98.1644 29.6724 98.1993 29.5777L99.1332 27.2578H99.3832L100.242 29.5777C100.276 29.6805 100.321 29.7229 100.399 29.748C100.441 29.7636 100.509 29.7869 100.563 29.7904V29.9433H99.4141V29.7904C99.4955 29.7828 99.5787 29.7712 99.6217 29.7596C99.6955 29.7364 99.7594 29.68 99.7245 29.5777L99.5367 29.0297H98.651L98.4399 29.5777C98.405 29.6689 98.4475 29.7404 98.5544 29.7636H98.5526L98.5517 29.7632ZM98.7284 28.8281H99.4647L99.1238 27.8268L98.7284 28.8281Z" fill="white"/>
<path d="M102.084 27.4323C101.441 27.4323 101.265 27.9844 101.265 28.6115C101.265 29.3262 101.464 29.8139 102.069 29.8139C102.489 29.8139 102.704 29.4983 102.801 29.1479H102.943V29.7289C102.724 29.8992 102.406 29.998 102.061 29.998C101.241 29.998 100.693 29.4384 100.693 28.6481C100.693 27.8154 101.29 27.2441 102.104 27.2441C102.406 27.2441 102.7 27.3157 102.943 27.4493V28.131H102.801C102.691 27.7242 102.487 27.4319 102.084 27.4319V27.4323Z" fill="white"/>
<path d="M104.702 27.4945V29.5784C104.702 29.6812 104.733 29.7411 104.805 29.7643C104.856 29.78 104.911 29.78 105.009 29.7916V29.9445H103.879V29.7916C103.948 29.7876 104.036 29.784 104.082 29.7643C104.152 29.7411 104.185 29.6812 104.185 29.5784V27.4945H104.024C103.672 27.4945 103.515 27.6322 103.416 27.9961H103.274V27.3086H105.612V27.9961H105.47C105.371 27.63 105.22 27.4945 104.865 27.4945H104.701H104.703H104.702Z" fill="white"/>
<path d="M54.1127 0.0347601V3.66385H39.2887V8.98345H48.5046C54.1087 8.98345 54.1825 9.06077 54.1825 14.9476C54.1825 16.2005 54.2174 17.4552 54.1727 18.7081C54.1145 20.3056 53.2638 21.4754 51.8105 21.5062C46.4332 21.6225 41.0537 21.5527 35.5484 21.5527V17.8794H50.3376V12.6836C48.3047 12.6836 46.3147 12.6894 44.3229 12.6836C42.3678 12.6778 40.4087 12.7185 38.4572 12.6273C36.3352 12.5285 35.4594 11.5331 35.438 9.32941C35.4165 7.2612 35.4049 5.19299 35.463 3.12478C35.5171 1.20363 36.4435 0.0749889 38.1373 0.0553215C43.4042 -0.00278684 48.671 0.0338661 54.1123 0.0338661L54.1127 0.0347601Z" fill="white"/>
<path d="M89.4424 21.4332H85.7236V9.0436H100.573V3.66009H85.7795C85.7563 1.10377 86.582 0.0524524 88.6127 0.030997C92.9397 -0.0172777 97.2686 -0.00386804 101.596 0.0350199C103.163 0.0484295 104.32 0.918267 104.342 2.61056C104.423 8.85363 104.375 15.0972 104.375 21.431H100.774V12.8175H89.4442V21.4328H89.4424V21.4332Z" fill="white"/>
<path d="M59.4594 21.4218C59.446 15.4693 59.4437 8.89097 59.4768 2.93799C59.4867 1.23184 60.5195 0.066098 62.1297 0.0486655C67.2261 -0.00944287 72.3225 -0.0210645 77.419 0.0584992C78.95 0.0817425 80.07 1.08299 80.0893 2.7659C80.159 8.95086 80.1166 15.1381 80.1166 21.424H76.3844V3.7609H63.2037V21.4214" fill="white"/>
<path d="M2.48619 21.387C2.47634 15.9378 2.47858 9.07475 2.49781 3.62553C2.50587 0.988301 3.43399 0.0353236 5.9491 0.0277248C10.9176 0.0143152 15.8879 0.0237019 21.0755 0.0237019V3.62955H6.26488V8.89282H21.0482V12.6533H6.19734V21.3888" fill="white"/>
<path d="M30.1423 21.4548H26.7026V0.166992H30.1423V21.4548Z" fill="white"/>
<path d="M71.5241 21.4277H68.042V5.40137H71.5241V21.4294V21.4277Z" fill="white"/>
<path d="M0 24.0879H107.349V25.0695H0V24.0879Z" fill="white"/>
</g>
<defs>
<clipPath id="clip0_2357_1246">
<rect width="107.349" height="30" fill="white"/>
</clipPath>
</defs>
</svg>
