<svg width="37" height="37" viewBox="0 0 37 37" fill="none" xmlns="http://www.w3.org/2000/svg">
<rect x="1.06348" y="1.81055" width="33.9894" height="34" rx="16.9947" stroke="#C7CACC" stroke-width="2"/>
<path d="M21.2493 28.97C21.2495 29.5999 20.8318 30.1548 20.2161 30.288C19.5903 30.4235 18.7946 30.5627 18.1676 30.5628C17.5413 30.5629 16.7469 30.4242 16.1211 30.289C15.5032 30.1554 15.0849 29.5975 15.086 28.9654C15.087 28.3591 15.087 27.6008 15.0829 26.9835C10.8624 27.882 9.68437 24.6947 9.68437 24.6947C8.91354 23.1698 8.1427 22.4059 8.1427 22.4059C6.60104 21.4993 8.1427 21.6435 8.1427 21.6435C9.68437 21.6435 10.4566 23.1684 10.4566 23.1684C11.8103 25.441 14.2181 25.0759 15.0829 24.6934C15.0829 23.9309 15.4207 22.7777 15.8538 22.4046C12.4858 22.0287 9.68164 20.1158 9.68164 16.3021C9.68164 12.4884 10.4552 11.726 11.2274 10.9621C11.0721 10.5863 10.4266 9.19606 11.2519 7.14844C11.2519 7.14844 12.7677 7.14844 14.3094 9.4372C15.0734 8.68146 17.3941 8.67473 18.1662 8.67473C18.9357 8.67473 21.2564 8.68146 22.0204 9.4372C23.5621 7.14844 25.0819 7.14844 25.0819 7.14844C25.9059 9.19606 25.2617 10.5863 25.1051 10.9621C25.8759 11.7246 26.6468 12.4871 26.6468 16.3021C26.6468 20.1172 23.8467 22.0287 20.4774 22.4046C20.9118 22.7764 21.2482 24.0898 21.2482 24.6934L21.2493 28.97Z" fill="#C7CACC"/>
</svg>

