<svg width="108" height="82" viewBox="0 0 108 82" fill="none" xmlns="http://www.w3.org/2000/svg">
<path d="M50.5081 48.5254C50.7781 48.3613 51.1021 48.2885 51.4261 48.2885C51.6781 48.2885 51.9301 48.3431 52.1461 48.4525C52.3801 48.5618 52.5781 48.7258 52.7401 48.908L53.3341 48.3067C53.1001 48.0151 52.8121 47.7965 52.4881 47.6507C52.0921 47.4867 51.6781 47.4138 51.2461 47.432C50.8141 47.4502 50.4001 47.5778 50.0401 47.7782C49.6441 48.0151 49.3201 48.3431 49.0861 48.7622C48.8521 49.1996 48.7441 49.6733 48.7441 50.1653C48.7441 50.6573 48.8521 51.1311 49.0861 51.5685C49.3021 51.9694 49.6261 52.3156 50.0221 52.5525C50.4361 52.7894 50.9041 52.9169 51.3721 52.8987C51.7501 52.8987 52.1281 52.8258 52.4881 52.68C52.8121 52.5342 53.1181 52.2974 53.3341 52.024L52.7401 51.4227C52.5781 51.6231 52.3801 51.7871 52.1461 51.8965C51.9121 52.0058 51.6601 52.0605 51.4081 52.0605C51.0841 52.0605 50.7781 51.9876 50.4901 51.8236C50.2201 51.6596 50.0041 51.4409 49.8601 51.1676C49.7161 50.876 49.6261 50.5298 49.6261 50.2018C49.6261 49.8738 49.6981 49.5458 49.8601 49.236C50.0221 48.9262 50.2381 48.6894 50.5081 48.5254ZM49.5901 42.3662H52.1101V44.644H53.0101V39.3231H52.1101V41.5098H49.5901V39.3231H48.6901V44.644H49.5901V42.3662ZM54.1261 44.644H55.0261V39.3231H54.1261V44.644ZM58.8781 39.56C58.5361 39.396 58.1581 39.3231 57.7801 39.3414H56.1601V44.644H57.0601V43.1134H57.7801C58.1581 43.1134 58.5361 43.0405 58.8781 42.8947C59.1841 42.7489 59.4361 42.5302 59.5981 42.2387C59.7601 41.9289 59.8501 41.5827 59.8501 41.2365C59.8501 40.8902 59.7601 40.544 59.5981 40.2342C59.4361 39.9245 59.1841 39.7058 58.8781 39.56ZM58.6261 42.0018C58.4281 42.184 58.1221 42.2751 57.7261 42.2751H57.0601V40.1614H57.7261C58.1221 40.1614 58.4281 40.2525 58.6261 40.4347C58.8241 40.6169 58.9321 40.872 58.9321 41.2182C58.9321 41.5645 58.8421 41.8196 58.6261 42.0018ZM67.7341 39.3414L65.3041 44.644H66.3301L66.8701 43.4231H69.5701L70.1101 44.644H71.1541L68.7241 39.3231H67.7341V39.3414ZM67.2121 42.6396L68.2201 40.3254L69.2281 42.6396H67.2121ZM58.0681 47.7782C57.6541 47.5414 57.1861 47.432 56.7001 47.432C56.2141 47.432 55.7641 47.5596 55.3321 47.7782C54.9361 48.0151 54.5941 48.3431 54.3781 48.7622C54.1441 49.1996 54.0361 49.6733 54.0361 50.1653C54.0361 50.6573 54.1621 51.1311 54.3781 51.5685C54.5941 51.9694 54.9361 52.3156 55.3321 52.5525C55.7461 52.7894 56.2141 52.8987 56.7001 52.8987C57.1861 52.8987 57.6361 52.7711 58.0681 52.5525C58.4641 52.3156 58.7881 51.9876 59.0221 51.5685C59.2561 51.1311 59.3641 50.6573 59.3641 50.1653C59.3641 49.6733 59.2381 49.1996 59.0221 48.7622C58.7881 48.3431 58.4641 48.0151 58.0681 47.7782ZM58.2121 51.1129C58.0681 51.3862 57.8521 51.6231 57.6001 51.7871C57.3301 51.9511 57.0241 52.024 56.7181 52.024C56.4121 52.024 56.1061 51.9329 55.8361 51.7871C55.5661 51.6231 55.3501 51.4045 55.2241 51.1129C55.0801 50.8214 54.9901 50.4934 54.9901 50.1471C54.9901 49.8009 55.0621 49.4911 55.2241 49.1814C55.3681 48.908 55.5841 48.6711 55.8361 48.5071C56.1061 48.3431 56.4121 48.2702 56.7181 48.2702C57.0241 48.2702 57.3301 48.3614 57.6001 48.5071C57.8701 48.6711 58.0861 48.8898 58.2121 49.1814C58.3561 49.4729 58.4461 49.8009 58.4461 50.1471C58.4461 50.4934 58.3561 50.8214 58.2121 51.1129ZM88.8121 47.5049V48.3431H90.4501V52.8258H91.3681V48.3431H93.0061V47.5049H88.8121ZM87.3541 51.0947L84.6361 47.5049H83.8801V52.8258H84.7981V49.236L87.5161 52.8258H88.2721V47.5049H87.3541V51.0947ZM64.6381 47.5049L63.1081 50.3294L61.5421 47.5049H60.4081V52.8258H61.3801V49.1449L63.0901 52.2062L64.8361 49.0902V52.8076H65.8081V47.4867H64.6381V47.5049ZM69.6061 47.7236C69.2641 47.5596 68.8681 47.4867 68.4901 47.5049H66.8521V52.8258H67.7701V51.2951H68.4901C68.8681 51.2951 69.2641 51.2222 69.6061 51.0765C69.9121 50.9307 70.1641 50.712 70.3441 50.4205C70.5061 50.1107 70.5961 49.7645 70.5961 49.4182C70.5961 49.072 70.5061 48.7258 70.3441 48.416C70.1641 48.1062 69.9121 47.8694 69.6061 47.7236ZM69.3541 50.1836C69.1561 50.3658 68.8501 50.4569 68.4361 50.4569H67.7521V48.3431H68.4361C68.8321 48.3431 69.1381 48.4342 69.3541 48.6165C69.5521 48.7987 69.6601 49.0538 69.6601 49.4C69.6781 49.728 69.5701 50.0014 69.3541 50.1836ZM63.5761 43.4231L64.1161 44.644H65.1601L62.7301 39.3231H61.7401L59.3281 44.644H60.3541L60.8941 43.4231H63.5761ZM62.2441 40.3254L63.2521 42.6396H61.2361L62.2441 40.3254ZM72.3601 47.5049H71.4421V52.8258H74.9341V51.9876H72.3601V47.5049ZM75.6901 52.8076H76.6081V47.4867H75.6901V52.8076ZM38.7901 58.8027C38.8081 60.0782 38.8261 61.0076 38.8441 61.4631C38.8621 61.5178 38.8621 61.5907 38.8441 61.6453C38.8441 61.7182 38.8441 61.7729 38.8441 61.7729C38.8441 62.028 38.8801 62.2831 38.9521 62.52C39.0241 62.2831 39.0601 62.028 39.0601 61.7729C39.0601 61.6818 39.0961 60.3516 39.1501 58.2196C39.1321 58.2378 39.1141 58.256 39.1141 58.2742C38.9881 58.4382 38.8801 58.6205 38.7901 58.8027ZM35.0461 32.1982C35.3341 31.8885 35.6041 31.524 35.8021 31.1414C35.6581 31.4694 35.1001 32.7085 35.6401 32.8178C36.2341 32.9271 36.9001 32.7449 38.1061 31.196C38.0701 29.2098 38.0341 27.4787 38.0161 26.1667H37.3681C37.3321 26.1667 37.3141 26.1667 37.2781 26.1667C36.9181 26.1667 36.3241 26.1302 35.9281 25.5289C35.4961 24.8729 35.4781 24.1987 35.4601 23.7067C35.4421 22.996 35.2621 21.7022 34.3801 20.9734C33.7681 20.4814 32.1121 20.0987 30.5821 20.7182C30.0781 20.9187 29.0701 21.4471 28.0801 21.9391C27.1801 22.3947 26.0281 22.9596 25.6681 22.9596C26.2621 22.6862 27.0541 22.2854 27.9181 21.7934C28.9081 21.2467 29.9521 20.6636 30.4741 20.4449C31.5181 20.0258 33.5161 19.8982 34.5421 20.7365C35.5141 21.5382 35.7121 22.9231 35.7301 23.6702C35.7481 24.1622 35.7661 24.7636 36.1441 25.3649C36.4861 25.8751 37.0261 25.8751 37.3501 25.8751H37.4221H37.9981C37.9981 25.7111 37.9981 25.5654 37.9981 25.4014C37.4221 25.4378 36.5941 25.4742 36.2341 24.6907C35.8021 23.7431 36.2701 21.3196 34.8301 20.2991C33.3901 19.2787 31.0861 19.5338 29.0341 20.7365C27.0001 21.9209 24.3001 23.4698 20.9701 24.8182C17.6401 26.1667 15.5701 26.7134 15.1741 26.768C14.7961 26.8409 15.4801 27.096 16.9021 27.1325C18.3241 27.1689 19.5121 27.0596 19.5121 27.0596L29.9521 22.2489C29.9521 22.2489 20.9521 26.7862 20.1961 27.2782C19.4401 27.7702 18.8281 27.9342 18.8821 28.3898C18.9361 28.8454 19.5121 28.7907 21.0961 28.7542C22.6801 28.7178 23.0221 28.572 23.5621 28.408C24.1021 28.244 29.9521 25.5107 29.9521 25.5107C29.9521 25.5107 23.6881 28.6631 22.7881 29.392C21.8881 30.1209 22.8601 30.3578 23.4721 30.376C24.1021 30.3942 25.7761 30.3031 26.7121 29.8294C27.6481 29.3556 30.5641 27.4605 30.5641 27.4605C30.5641 27.4605 27.6841 29.556 27.1261 30.0298C26.6761 30.4125 26.4421 30.7405 26.5501 31.1414C26.7121 31.6516 27.5761 31.5969 28.7281 31.1778C28.7281 31.1778 29.9161 30.7587 30.3661 30.3578C30.8161 29.9387 32.0761 28.8089 32.0761 28.8089C32.0761 28.8089 30.5821 30.376 30.2041 31.0502C29.8441 31.7245 29.7721 31.8885 29.9521 32.2711C30.2041 32.8178 32.1121 32.2529 32.6521 31.6698C33.0481 31.2142 33.4261 30.7405 33.7681 30.2302C33.7681 30.2302 33.1921 31.1778 33.0661 31.7245C32.9401 32.2711 32.7961 32.7085 33.3181 32.7631C33.8941 32.8542 34.4341 32.8725 35.0461 32.1982ZM38.6101 44.6076C38.6641 44.5711 38.7181 44.5347 38.7721 44.4982C38.8801 44.4254 38.9701 44.3707 39.0421 44.2978C39.1861 44.2067 39.3301 44.0974 39.4741 44.0062C39.4921 42.9676 39.5281 41.9107 39.5461 40.872C39.2581 40.7445 38.9521 40.6169 38.6281 40.4894C38.6101 40.4894 38.5921 40.4711 38.5741 40.4711C38.5381 40.4529 38.5201 40.4529 38.4841 40.4347C38.2681 40.3618 38.0701 40.2707 37.8361 40.1978C37.5661 40.0885 37.2961 39.9974 37.0261 39.888C35.2261 40.8538 34.8661 41.3094 34.8661 42.2022C34.8661 43.4596 35.9281 44.0245 37.7641 45.2089C38.0521 44.9902 38.3401 44.7898 38.6101 44.6076ZM36.3961 42.3662C36.3961 42.3662 36.2701 41.5645 38.3041 40.6351C38.3581 40.6169 38.4121 40.5805 38.4661 40.5622C38.4841 41.8196 38.5021 43.0769 38.5381 44.3342C37.5301 43.6418 36.3961 42.9858 36.3961 42.3662ZM39.4741 57.8369C39.3841 57.9462 39.2941 58.0556 39.2041 58.1467C39.7261 58.8574 39.6901 59.5498 39.4021 60.4427C39.6721 60.1329 40.2121 59.3494 39.7621 58.3289C39.6721 58.1649 39.5821 58.0009 39.4741 57.8369ZM38.6461 50.3658C38.8441 50.5662 39.0781 50.8031 39.3121 51.04C39.4561 51.1858 39.6001 51.3316 39.7621 51.4956C39.7801 51.5138 39.8161 51.532 39.8521 51.5685C41.0761 50.4934 42.1921 49.4729 42.1921 48.1974C42.1921 47.1951 41.2381 46.284 40.2841 45.5551C40.1941 45.6098 40.1041 45.6645 40.0141 45.7374C39.7981 45.8831 39.6001 46.0107 39.4201 46.1382C39.4201 46.1382 39.4021 46.1382 39.4021 46.1565C39.3661 46.1929 39.3121 46.2111 39.2761 46.2476C39.0241 46.4298 38.7901 46.5938 38.5741 46.7578C38.6101 47.9787 38.6281 49.1996 38.6461 50.3658ZM39.4201 46.3387C40.6081 47.2134 41.0761 47.7782 41.0761 48.3978C41.0761 49.0356 40.4101 49.7827 39.3301 50.876C39.3481 49.4182 39.3841 47.9058 39.4201 46.3387ZM45.9901 28.8271C45.9901 28.8271 47.2501 29.9569 47.7001 30.376C48.1501 30.7951 49.3381 31.196 49.3381 31.196C50.4901 31.6151 51.3541 31.6698 51.5161 31.1596C51.6421 30.7587 51.3901 30.4125 50.9401 30.048C50.3821 29.5742 47.5021 27.4787 47.5021 27.4787C47.5021 27.4787 50.4181 29.3738 51.3541 29.8476C52.2901 30.3214 53.9641 30.4125 54.5941 30.3942C55.2241 30.376 56.1781 30.1391 55.2781 29.4102C54.3781 28.6814 48.1141 25.5289 48.1141 25.5289C48.1141 25.5289 53.9461 28.2805 54.5041 28.4262C55.0441 28.5902 55.3861 28.7178 56.9701 28.7725C58.5541 28.8089 59.1121 28.8636 59.1841 28.408C59.2561 27.9707 58.6261 27.8067 57.8701 27.2965C57.1141 26.8045 48.1141 22.2671 48.1141 22.2671L58.5541 27.0778C58.5541 27.0778 59.7421 27.1871 61.1641 27.1507C62.5861 27.1142 63.2701 26.8591 62.8921 26.7862C62.5141 26.7134 60.4261 26.1849 57.0961 24.8365C53.7661 23.488 51.0661 21.9574 49.0321 20.7547C46.9981 19.5702 44.6761 19.2969 43.2361 20.3174C41.7961 21.3378 42.2641 23.7431 41.8321 24.7089C41.4721 25.4925 40.6441 25.456 40.0681 25.4196C40.0681 25.5654 40.0681 25.7294 40.0501 25.8934H40.6441H40.7161C41.0401 25.8934 41.5801 25.8934 41.9221 25.3831C42.3001 24.8 42.3181 24.1805 42.3361 23.6885C42.3541 22.9414 42.5521 21.5565 43.5241 20.7547C44.5501 19.9165 46.5481 20.044 47.5921 20.4631C48.1141 20.6636 49.1581 21.2467 50.1481 21.8116C51.0121 22.3036 51.8041 22.7045 52.3981 22.9778C52.0201 22.9778 50.8861 22.4129 49.9861 21.9574C49.0141 21.4471 48.0061 20.9369 47.4841 20.7365C45.9541 20.1169 44.2981 20.4996 43.6861 20.9916C42.7861 21.7205 42.6241 23.0142 42.6061 23.7249C42.5881 24.2169 42.5701 24.9094 42.1381 25.5471C41.7601 26.1485 41.1661 26.1849 40.7881 26.1849C40.7521 26.1849 40.7341 26.1849 40.6981 26.1849H40.0501C40.0141 27.4969 39.9781 29.2098 39.9421 31.1596C41.1661 32.7449 41.8681 32.9454 42.4441 32.8178C42.9841 32.7085 42.4441 31.4694 42.2821 31.1414C42.4981 31.524 42.7501 31.8702 43.0381 32.1982C43.6321 32.8725 44.1901 32.8542 44.7301 32.7814C45.2701 32.7085 45.1081 32.2894 44.9821 31.7427C44.8561 31.196 44.2801 30.2485 44.2801 30.2485C44.6221 30.7405 45.0001 31.2325 45.3961 31.688C45.9361 32.2711 47.8441 32.8542 48.0961 32.2894C48.2581 31.9249 48.2041 31.7427 47.8441 31.0685C47.5021 30.3942 45.9901 28.8271 45.9901 28.8271ZM39.0601 23.2511C39.3481 23.2511 39.6361 23.16 39.8701 22.996C40.1041 22.832 40.3021 22.5951 40.4101 22.34C40.5181 22.0667 40.5541 21.7751 40.5001 21.4836C40.4461 21.192 40.3021 20.9369 40.1041 20.7182C39.9061 20.5178 39.6361 20.372 39.3481 20.3174C39.0601 20.2627 38.7721 20.2809 38.5021 20.4085C38.2321 20.5178 37.9981 20.7182 37.8541 20.9551C37.6921 21.192 37.6021 21.4836 37.6021 21.7751C37.6021 21.9756 37.6381 22.1578 37.7101 22.34C37.7821 22.5222 37.8901 22.6862 38.0341 22.8138C38.1781 22.9596 38.3221 23.0689 38.5021 23.1418C38.6641 23.2147 38.8621 23.2511 39.0601 23.2511ZM43.8481 34.3302C43.8481 34.3302 43.8121 33.3098 42.1741 33.2005C40.5001 33.0911 40.4281 33.82 40.4641 34.0934C40.5901 34.0934 40.6981 34.1298 40.6981 34.1662C40.6981 34.2027 40.6081 34.2391 40.5001 34.2391C40.5901 34.5125 40.8421 34.8405 41.5621 35.2049C42.1561 35.4965 42.4441 35.4782 42.7861 35.4236C42.7861 35.4236 43.1821 35.6605 43.1821 36.0431C43.1821 36.4076 42.5521 37.1182 39.6001 38.6125C39.7801 30.5582 39.9421 23.488 39.9421 23.488H40.1221C40.1941 23.488 40.2661 23.4516 40.3201 23.3969C40.3741 23.3422 40.4101 23.2694 40.4101 23.1965V23.1054C40.4101 23.0689 40.4101 23.0325 40.3921 22.996C40.3741 22.9596 40.3561 22.9231 40.3201 22.9049C40.1581 23.0871 39.9781 23.2329 39.7621 23.3422C39.5461 23.4516 39.3121 23.488 39.0781 23.488C38.8441 23.488 38.6101 23.4334 38.3941 23.3422C38.1781 23.2511 37.9801 23.0871 37.8361 22.9049C37.8001 22.9414 37.7821 22.9596 37.7641 22.996C37.7461 23.0325 37.7461 23.0689 37.7461 23.1054V23.1965C37.7461 23.2694 37.7821 23.3422 37.8361 23.3969C37.8901 23.4516 37.9621 23.488 38.0341 23.488H38.2141C38.2141 23.488 38.3401 30.3578 38.4661 38.2662C38.7181 38.3938 38.9701 38.5214 39.2581 38.6671C39.2941 38.6854 39.3481 38.7036 39.3841 38.7218C40.0501 39.0498 40.6081 39.3231 41.0761 39.5782C42.6601 38.9587 44.2081 38.248 44.6761 37.2458C45.5041 35.3871 43.8481 34.3302 43.8481 34.3302ZM41.6521 33.9111C41.4721 33.9111 41.3281 33.82 41.3281 33.7107C41.3281 33.6014 41.4721 33.5102 41.6521 33.5102C41.8321 33.5102 41.9761 33.6014 41.9761 33.7107C41.9761 33.82 41.8321 33.9111 41.6521 33.9111ZM38.7901 56.9805C38.9341 56.7982 39.0601 56.616 39.2041 56.452C39.2221 55.4133 39.2581 54.2471 39.2761 52.9898C39.0961 52.8076 38.8981 52.6254 38.6821 52.4249C38.6101 52.3702 38.5561 52.2974 38.4841 52.2427C38.3941 52.1516 38.3041 52.0787 38.2141 52.0058C37.7101 52.4796 36.7201 53.5365 36.7201 54.4476C36.7201 55.5227 37.7461 56.616 38.5201 57.3996C38.5921 57.2356 38.6821 57.108 38.7901 56.9805ZM38.6821 52.6436C38.7181 54.1925 38.7361 55.6138 38.7541 56.8347C38.1601 56.0329 37.5301 55.2129 37.5301 54.648C37.5301 54.1196 37.8361 53.5182 38.6821 52.6436ZM39.0961 38.904C35.5861 37.1911 34.8661 36.4076 34.8661 36.0249C34.8661 35.6422 35.2621 35.4054 35.2621 35.4054C35.6041 35.4782 35.8921 35.4782 36.4861 35.1867C37.2061 34.8405 37.4581 34.4942 37.5481 34.2209C37.4401 34.2209 37.3501 34.1845 37.3501 34.148C37.3501 34.1116 37.4581 34.0751 37.5841 34.0751V34.0569C37.6021 33.7836 37.5121 33.0729 35.8561 33.1822C34.2181 33.2916 34.1821 34.312 34.1821 34.312C34.1821 34.312 32.5261 35.3871 33.3901 37.2094C34.1461 38.8311 37.6921 39.6876 39.7441 40.6169C41.7781 41.5462 41.6521 42.348 41.6521 42.348C41.6521 43.0405 40.2841 43.7694 39.2041 44.5347C38.1241 45.3 35.8381 46.6302 35.8381 48.1974C35.8381 49.6369 37.2601 50.7485 38.6461 51.9876C40.0501 53.2267 40.5001 53.9738 40.5001 54.6662C40.5001 55.6138 38.9521 56.8894 38.1601 58.4747C37.3681 60.06 38.9341 62.52 38.4481 61.2262C37.9441 59.9325 38.2141 59.0214 38.8621 58.1102C39.6541 56.9987 41.3461 55.9054 41.3461 54.4294C41.3461 53.1902 39.5641 51.7325 39.5641 51.7325C37.9801 50.1289 36.9721 49.2178 36.9721 48.416C36.9721 47.6142 37.7281 46.9036 39.8521 45.5005C41.9581 44.1156 43.2001 43.5689 43.2001 42.2205C43.2001 41.036 42.6061 40.6169 39.0961 38.904ZM36.3961 33.5285C36.5761 33.5285 36.7201 33.6196 36.7201 33.7289C36.7201 33.8382 36.5761 33.9294 36.3961 33.9294C36.2161 33.9294 36.0721 33.8382 36.0721 33.7289C36.0721 33.6196 36.2161 33.5285 36.3961 33.5285ZM79.7401 47.5049L77.3101 52.8258H78.3361L78.8761 51.6049H81.5761L82.1161 52.8258H83.1601L80.7301 47.5049H79.7401ZM79.2181 50.8214L80.2261 48.5071L81.2341 50.8214H79.2181Z" fill="white"/>
</svg>
