<svg xmlns="http://www.w3.org/2000/svg" width="37" height="37" viewBox="0 0 37 37" fill="none">
  <rect x="1.021" y="1.81055" width="33.9894" height="34" rx="16.9947" stroke="#C7CACC" stroke-width="2"/>
  <path d="M23.3958 8.49609H12.6366C9.66423 8.49609 7.24609 10.9149 7.24609 13.8882V23.7342C7.24609 26.7075 9.66423 29.1263 12.6366 29.1263H23.3958C26.3682 29.1263 28.7864 26.7075 28.7864 23.7342V13.8882C28.7864 10.9149 26.3682 8.49609 23.3958 8.49609ZM9.14771 13.8882C9.14771 11.9641 10.7131 10.3983 12.6366 10.3983H23.3958C25.3194 10.3983 26.8848 11.9641 26.8848 13.8882V23.7342C26.8848 25.6583 25.3194 27.2242 23.3958 27.2242H12.6366C10.7131 27.2242 9.14771 25.6583 9.14771 23.7342V13.8882Z" fill="#C7CACC"/>
  <path d="M18.0163 23.8256C20.7804 23.8256 23.0305 21.5762 23.0305 18.81C23.0305 16.0439 20.7817 13.7944 18.0163 13.7944C15.251 13.7944 13.0022 16.0439 13.0022 18.81C13.0022 21.5762 15.251 23.8256 18.0163 23.8256ZM18.0163 15.6978C19.7328 15.6978 21.1288 17.0943 21.1288 18.8112C21.1288 20.5282 19.7328 21.9247 18.0163 21.9247C16.2999 21.9247 14.9038 20.5282 14.9038 18.8112C14.9038 17.0943 16.2999 15.6978 18.0163 15.6978Z" fill="#C7CACC"/>
  <path d="M23.4945 14.6046C24.2389 14.6046 24.8455 13.999 24.8455 13.2533C24.8455 12.5075 24.2401 11.9019 23.4945 11.9019C22.749 11.9019 22.1436 12.5075 22.1436 13.2533C22.1436 13.999 22.749 14.6046 23.4945 14.6046Z" fill="#C7CACC"/>
</svg>