<svg xmlns="http://www.w3.org/2000/svg" width="37" height="37" viewBox="0 0 37 37" fill="none">
  <rect x="1.04224" y="1.81055" width="33.9894" height="34" rx="16.9947" stroke="#C7CACC" stroke-width="2"/>
  <path d="M8.94365 12.9806C8.4856 12.5553 8.25781 12.0289 8.25781 11.4026C8.25781 10.7762 8.48682 10.2266 8.94365 9.80015C9.40169 9.37487 9.99131 9.16162 10.7137 9.16162C11.4361 9.16162 12.0026 9.37487 12.4594 9.80015C12.9174 10.2254 13.1452 10.7604 13.1452 11.4026C13.1452 12.0448 12.9162 12.5553 12.4594 12.9806C12.0014 13.4059 11.4203 13.6191 10.7137 13.6191C10.0071 13.6191 9.40169 13.4059 8.94365 12.9806ZM12.7603 15.4202V28.4588H8.64153V15.4202H12.7603Z" fill="#C7CACC"/>
  <path d="M26.4712 16.7081C27.369 17.683 27.8173 19.021 27.8173 20.7245V28.2284H23.9056V21.2534C23.9056 20.3943 23.6827 19.7265 23.2381 19.2513C22.7934 18.776 22.1941 18.5372 21.4437 18.5372C20.6932 18.5372 20.0939 18.7748 19.6492 19.2513C19.2046 19.7265 18.9816 20.3943 18.9816 21.2534V28.2284H15.0469V15.3836H18.9816V17.0871C19.38 16.5193 19.9173 16.0708 20.5921 15.7406C21.267 15.4104 22.026 15.2458 22.8702 15.2458C24.3734 15.2458 25.5746 15.7333 26.4712 16.7081Z" fill="#C7CACC"/>
</svg>