<svg width="201" height="66" viewBox="0 0 201 66" fill="none" xmlns="http://www.w3.org/2000/svg">
<path d="M36.9076 47.3001C36.9076 53.6406 39.6993 57.4522 44.8421 57.4522C49.2501 57.4522 51.1603 54.2637 51.748 52.3212C51.7603 52.2642 51.7935 52.2139 51.8411 52.18C51.8886 52.1461 51.9471 52.1311 52.0051 52.1379H55.2377C55.3479 52.1379 55.4213 52.1745 55.4213 52.3212C55.4213 54.7401 52.5195 60.5675 44.8421 60.5675C36.7606 60.5675 33.2342 55.07 33.2342 47.3001C33.2342 39.5303 37.4953 34.0328 44.8421 34.0328C52.85 34.0328 55.4213 40.2633 55.4213 42.2791C55.4213 42.4258 55.3479 42.4623 55.2377 42.4623H52.0051C51.9486 42.4617 51.8937 42.4438 51.8477 42.411C51.8017 42.3782 51.7669 42.3322 51.748 42.2791C51.197 40.7032 49.691 37.1481 44.8421 37.1481C39.6993 37.1481 36.9076 40.9597 36.9076 47.3001ZM75.7347 50.9284C75.7347 56.646 72.3552 60.5675 66.6247 60.5675C60.8574 60.5675 57.5147 56.646 57.5147 50.9284C57.5147 45.1744 60.8574 41.2896 66.6247 41.2896C72.3552 41.2896 75.7347 45.2111 75.7347 50.9284ZM72.2449 50.9284C72.2449 47.117 70.1511 44.4048 66.6247 44.4048C63.1349 44.4048 61.0044 47.117 61.0044 50.9284C61.0044 54.7401 63.1349 57.4522 66.6247 57.4522C70.1511 57.4522 72.2449 54.7401 72.2449 50.9284ZM98.2887 41.2896C96.5256 41.2896 94.1378 41.8759 92.742 43.4886C92.5583 43.6718 92.4848 43.6352 92.3011 43.4886C90.5745 41.8393 89.5462 41.2896 86.9747 41.2896C85.1747 41.2896 83.2647 42.1691 82.6034 43.4886C82.5299 43.6352 82.2361 43.7084 82.1626 43.4886L81.7952 41.8393C81.7586 41.7293 81.7218 41.656 81.6116 41.656H78.8566C78.8321 41.6545 78.8075 41.6583 78.7846 41.667C78.7616 41.6756 78.7408 41.6891 78.7234 41.7064C78.706 41.7237 78.6926 41.7445 78.6838 41.7674C78.6751 41.7904 78.6714 41.8148 78.6729 41.8393V60.0177C78.6714 60.0421 78.6751 60.0666 78.6838 60.0895C78.6926 60.1124 78.706 60.1332 78.7234 60.1505C78.7408 60.1679 78.7616 60.1813 78.7846 60.19C78.8075 60.1987 78.8321 60.2024 78.8566 60.2009H81.9789C82.0034 60.2024 82.028 60.1987 82.0509 60.19C82.0739 60.1813 82.0947 60.1679 82.1121 60.1505C82.1295 60.1332 82.143 60.1124 82.1517 60.0895C82.1604 60.0666 82.1641 60.0421 82.1626 60.0177V49.939C82.1626 47.0803 83.1544 44.4048 86.24 44.4048C89.7297 44.4048 90.3542 47.0803 90.3542 49.939V60.0177C90.3517 60.0376 90.3537 60.0578 90.3601 60.0768C90.3664 60.0958 90.377 60.1132 90.391 60.1277C90.391 60.1642 90.4276 60.2009 90.5011 60.2009H93.6602C93.6802 60.2034 93.7004 60.2014 93.7195 60.195C93.7386 60.1887 93.756 60.1782 93.7705 60.1642C93.7929 60.1468 93.8111 60.1246 93.8238 60.0992C93.8365 60.0739 93.8434 60.046 93.8439 60.0177V49.939C93.8439 47.0803 94.4684 44.4048 97.9214 44.4048C101.558 44.4048 102.035 47.1535 102.035 49.939V60.0177C102.034 60.0421 102.038 60.0666 102.046 60.0895C102.055 60.1124 102.069 60.1332 102.086 60.1505C102.103 60.1679 102.124 60.1813 102.147 60.19C102.17 60.1987 102.195 60.2024 102.219 60.2009H105.342C105.366 60.2024 105.391 60.1987 105.414 60.19C105.437 60.1813 105.457 60.1679 105.475 60.1505C105.492 60.1332 105.506 60.1124 105.514 60.0895C105.523 60.0666 105.527 60.0421 105.525 60.0177V49.939C105.525 44.4415 103.064 41.2896 98.2887 41.2896ZM129.365 41.2896C127.602 41.2896 125.214 41.8759 123.818 43.4886C123.634 43.6718 123.561 43.6352 123.377 43.4886C121.651 41.8393 120.622 41.2896 118.051 41.2896C116.251 41.2896 114.341 42.1691 113.679 43.4886C113.606 43.6352 113.312 43.7084 113.239 43.4886L112.871 41.8393C112.835 41.7293 112.798 41.656 112.688 41.656H109.933C109.908 41.6545 109.884 41.6583 109.861 41.667C109.838 41.6756 109.817 41.6891 109.799 41.7064C109.782 41.7237 109.769 41.7445 109.76 41.7674C109.751 41.7904 109.747 41.8148 109.749 41.8393V60.0177C109.747 60.0421 109.751 60.0666 109.76 60.0895C109.769 60.1124 109.782 60.1332 109.799 60.1505C109.817 60.1679 109.838 60.1813 109.861 60.19C109.884 60.1987 109.908 60.2024 109.933 60.2009H113.055C113.079 60.2024 113.104 60.1987 113.127 60.19C113.15 60.1813 113.171 60.1679 113.188 60.1505C113.206 60.1332 113.219 60.1124 113.228 60.0895C113.236 60.0666 113.24 60.0421 113.239 60.0177V49.939C113.239 47.0803 114.23 44.4048 117.316 44.4048C120.806 44.4048 121.43 47.0803 121.43 49.939V60.0177C121.428 60.0376 121.43 60.0578 121.436 60.0768C121.442 60.0958 121.453 60.1132 121.467 60.1277C121.467 60.1642 121.504 60.2009 121.577 60.2009H124.736C124.756 60.2034 124.777 60.2014 124.796 60.195C124.815 60.1887 124.832 60.1782 124.847 60.1642C124.869 60.1468 124.887 60.1246 124.9 60.0992C124.913 60.0739 124.919 60.046 124.92 60.0177V49.939C124.92 47.0803 125.544 44.4048 128.997 44.4048C132.634 44.4048 133.112 47.1535 133.112 49.939V60.0177C133.11 60.0421 133.114 60.0666 133.123 60.0895C133.131 60.1124 133.145 60.1332 133.162 60.1506C133.179 60.1679 133.2 60.1813 133.223 60.19C133.246 60.1987 133.271 60.2024 133.295 60.2009H136.418C136.442 60.2024 136.467 60.1987 136.49 60.19C136.513 60.1813 136.533 60.1678 136.551 60.1505C136.568 60.1332 136.582 60.1124 136.59 60.0895C136.599 60.0666 136.603 60.0421 136.601 60.0177V49.939C136.601 44.4415 134.14 41.2896 129.365 41.2896ZM157.465 50.9284C157.465 56.646 154.086 60.5675 148.355 60.5675C142.588 60.5675 139.245 56.646 139.245 50.9284C139.245 45.1744 142.588 41.2896 148.355 41.2896C154.086 41.2896 157.465 45.2111 157.465 50.9284ZM153.976 50.9284C153.976 47.117 151.882 44.4048 148.355 44.4048C144.866 44.4048 142.735 47.117 142.735 50.9284C142.735 54.7401 144.866 57.4522 148.355 57.4522C151.882 57.4522 153.976 54.7401 153.976 50.9284ZM169.477 41.2896C167.016 41.2896 165.4 42.4258 164.665 43.5253C164.591 43.6352 164.297 43.7084 164.261 43.4886L163.893 41.8393C163.857 41.7293 163.82 41.656 163.71 41.656H160.955C160.93 41.6545 160.906 41.6583 160.883 41.667C160.86 41.6757 160.839 41.6891 160.821 41.7064C160.804 41.7238 160.791 41.7446 160.782 41.7675C160.773 41.7904 160.769 41.8148 160.771 41.8393V60.0177C160.769 60.0421 160.773 60.0666 160.782 60.0895C160.791 60.1124 160.804 60.1332 160.821 60.1505C160.839 60.1678 160.86 60.1813 160.883 60.19C160.906 60.1987 160.93 60.2024 160.955 60.2009H164.077C164.101 60.2024 164.126 60.1987 164.149 60.19C164.172 60.1813 164.193 60.1679 164.21 60.1506C164.228 60.1332 164.241 60.1124 164.25 60.0895C164.258 60.0666 164.262 60.0421 164.261 60.0177V49.939C164.261 47.0803 166.024 44.4048 169.11 44.4048C172.746 44.4048 173.995 47.1535 173.995 49.939V60.0177C173.994 60.0421 173.997 60.0666 174.006 60.0895C174.015 60.1124 174.028 60.1332 174.046 60.1505C174.063 60.1678 174.084 60.1813 174.107 60.19C174.13 60.1987 174.154 60.2024 174.179 60.2009H177.301C177.326 60.2024 177.35 60.1987 177.373 60.19C177.396 60.1813 177.417 60.1678 177.434 60.1505C177.452 60.1332 177.465 60.1124 177.474 60.0895C177.483 60.0666 177.486 60.0421 177.485 60.0177V49.939C177.485 45.1744 174.803 41.2896 169.477 41.2896ZM188.578 49.1327C186.741 48.8761 184.096 48.8395 184.096 46.7504C184.096 45.6142 185.309 44.4048 188.063 44.4048C191.039 44.4048 192.655 45.7242 192.655 47.74C192.654 47.7645 192.657 47.7889 192.666 47.8118C192.675 47.8347 192.688 47.8555 192.706 47.8729C192.723 47.8902 192.744 47.9036 192.767 47.9123C192.79 47.921 192.814 47.9247 192.839 47.9232H195.998C196.108 47.9232 196.145 47.8499 196.145 47.74C196.145 43.4152 192.582 41.2896 188.063 41.2896C183.508 41.2896 180.607 43.745 180.607 46.7504C180.607 51.295 185.051 51.8447 188.578 52.2479C190.121 52.4312 193.169 52.5778 193.169 54.6668C193.169 57.049 190.451 57.4522 188.578 57.4522C185.639 57.4522 183.765 55.9495 183.765 54.1171C183.76 54.0639 183.734 54.015 183.693 53.9808C183.652 53.9465 183.599 53.9297 183.545 53.9338H180.46C180.435 53.9323 180.411 53.936 180.388 53.9447C180.365 53.9534 180.344 53.9668 180.326 53.9842C180.309 54.0015 180.296 54.0223 180.287 54.0452C180.278 54.0681 180.274 54.0926 180.276 54.1171C180.276 57.6355 182.994 60.5675 188.578 60.5675C193.169 60.5675 196.659 58.8449 196.659 54.6668C196.659 49.9756 192.251 49.6457 188.578 49.1327ZM30.8131 3.77962H24.8622C24.752 3.77962 24.6785 3.8162 24.6051 3.96279L18.0665 25.9528C18.0549 25.9925 18.0307 26.0273 17.9976 26.0521C17.9645 26.0769 17.9242 26.0903 17.8828 26.0903C17.8414 26.0903 17.8011 26.0769 17.768 26.0521C17.7349 26.0273 17.7107 25.9925 17.6991 25.9528L11.1606 3.96279C11.0871 3.8162 11.0136 3.77962 10.9034 3.77962H4.95257C4.92807 3.77813 4.90353 3.78185 4.88057 3.79053C4.85762 3.79921 4.83677 3.81265 4.81941 3.82996C4.80205 3.84727 4.78856 3.86807 4.77985 3.89096C4.77114 3.91386 4.7674 3.93834 4.76887 3.96279V29.3979C4.76739 29.4224 4.77112 29.4469 4.77983 29.4698C4.78853 29.4927 4.80201 29.5135 4.81938 29.5308C4.83674 29.5482 4.85759 29.5616 4.88055 29.5703C4.90351 29.579 4.92806 29.5827 4.95257 29.5812H8.07488C8.09939 29.5827 8.12394 29.579 8.1469 29.5703C8.16986 29.5616 8.19071 29.5482 8.20807 29.5308C8.22544 29.5135 8.23892 29.4927 8.24762 29.4698C8.25633 29.4469 8.26006 29.4224 8.25858 29.3979V7.4446C8.25845 7.39863 8.27548 7.35426 8.30634 7.32013C8.33721 7.286 8.3797 7.26456 8.42554 7.25998C8.47139 7.2554 8.5173 7.26801 8.55433 7.29535C8.59137 7.3227 8.61688 7.36282 8.62589 7.4079L15.0911 29.3979C15.1179 29.4529 15.1597 29.4992 15.2117 29.5316C15.2636 29.564 15.3237 29.5812 15.3849 29.5812H20.3807C20.442 29.5812 20.502 29.564 20.554 29.5316C20.6059 29.4992 20.6477 29.4529 20.6745 29.3979L27.1397 7.4079C27.1764 7.22472 27.507 7.18802 27.507 7.4446V29.3979C27.5056 29.4224 27.5093 29.4469 27.518 29.4698C27.5267 29.4927 27.5402 29.5135 27.5576 29.5308C27.5749 29.5482 27.5958 29.5616 27.6187 29.5703C27.6417 29.579 27.6662 29.5827 27.6907 29.5812H30.8131C30.8376 29.5827 30.8621 29.579 30.8851 29.5703C30.9081 29.5616 30.9289 29.5482 30.9463 29.5308C30.9636 29.5135 30.9771 29.4927 30.9858 29.4698C30.9945 29.4469 30.9983 29.4224 30.9968 29.3979V3.96279C30.9983 3.93834 30.9945 3.91387 30.9858 3.89097C30.9771 3.86807 30.9636 3.84728 30.9462 3.82997C30.9289 3.81266 30.908 3.79922 30.8851 3.79054C30.8621 3.78186 30.8376 3.77813 30.8131 3.77962ZM35.6421 29.5812H53.5029C53.5274 29.5827 53.5519 29.579 53.5749 29.5703C53.5979 29.5616 53.6187 29.5481 53.6361 29.5308C53.6534 29.5135 53.6669 29.4927 53.6756 29.4698C53.6843 29.4469 53.6881 29.4224 53.6866 29.3979V26.6492C53.6881 26.6247 53.6843 26.6003 53.6756 26.5774C53.6669 26.5545 53.6534 26.5337 53.636 26.5164C53.6187 26.4991 53.5978 26.4856 53.5749 26.4769C53.5519 26.4683 53.5274 26.4645 53.5029 26.466H39.1319C39.1074 26.4675 39.0828 26.4638 39.0599 26.4551C39.0369 26.4464 39.0161 26.4329 38.9987 26.4156C38.9813 26.3983 38.9679 26.3775 38.9592 26.3546C38.9505 26.3317 38.9467 26.3072 38.9482 26.2827V3.96279C38.9497 3.93835 38.9459 3.91388 38.9372 3.89099C38.9285 3.86809 38.9151 3.84731 38.8977 3.82999C38.8803 3.81268 38.8595 3.79924 38.8366 3.79055C38.8136 3.78187 38.7891 3.77814 38.7646 3.77962H35.6421C35.6176 3.77814 35.5931 3.78187 35.5702 3.79056C35.5472 3.79924 35.5264 3.81269 35.509 3.83C35.4917 3.84731 35.4782 3.8681 35.4695 3.89099C35.4608 3.91388 35.4571 3.93835 35.4585 3.96279V29.3979C35.4571 29.4224 35.4608 29.4469 35.4695 29.4698C35.4782 29.4927 35.4916 29.5135 35.509 29.5308C35.5264 29.5481 35.5472 29.5616 35.5701 29.5703C35.5931 29.579 35.6176 29.5827 35.6421 29.5812Z" fill="black"/>
<path d="M17.8802 54.8948C22.1843 54.8948 25.6735 51.4136 25.6735 47.1193C25.6735 42.825 22.1843 39.3438 17.8802 39.3438C13.5761 39.3438 10.0869 42.825 10.0869 47.1193C10.0869 51.4136 13.5761 54.8948 17.8802 54.8948Z" fill="#3F3F3F"/>
</svg>
