<svg width="193" height="58" viewBox="0 0 193 58" fill="none" xmlns="http://www.w3.org/2000/svg">
<g clip-path="url(#clip0_444_53417)">
<path d="M32.7201 44.1004C32.7201 50.4409 35.5118 54.2525 40.6546 54.2525C45.0625 54.2525 46.9727 51.0639 47.5604 49.1215C47.5728 49.0645 47.606 49.0142 47.6535 48.9803C47.7011 48.9464 47.7596 48.9314 47.8176 48.9382H51.0502C51.1603 48.9382 51.2338 48.9748 51.2338 49.1215C51.2338 51.5404 48.3319 57.3678 40.6546 57.3678C32.5731 57.3678 29.0467 51.8703 29.0467 44.1004C29.0467 36.3306 33.3078 30.833 40.6546 30.833C48.6624 30.833 51.2338 37.0636 51.2338 39.0793C51.2338 39.2261 51.1603 39.2626 51.0502 39.2626H47.8176C47.7611 39.262 47.7061 39.244 47.6602 39.2113C47.6142 39.1785 47.5794 39.1325 47.5604 39.0793C47.0094 37.5035 45.5034 33.9484 40.6546 33.9484C35.5118 33.9484 32.7201 37.76 32.7201 44.1004ZM71.5471 47.7287C71.5471 53.4463 68.1676 57.3678 62.4371 57.3678C56.6699 57.3678 53.3271 53.4463 53.3271 47.7287C53.3271 41.9747 56.6699 38.0898 62.4371 38.0898C68.1676 38.0898 71.5471 42.0114 71.5471 47.7287ZM68.0574 47.7287C68.0574 43.9173 65.9636 41.2051 62.4371 41.2051C58.9473 41.2051 56.8169 43.9173 56.8169 47.7287C56.8169 51.5404 58.9473 54.2525 62.4371 54.2525C65.9636 54.2525 68.0574 51.5404 68.0574 47.7287ZM94.1012 38.0898C92.338 38.0898 89.9503 38.6762 88.5544 40.2889C88.3707 40.4721 88.2972 40.4354 88.1135 40.2889C86.387 38.6396 85.3586 38.0898 82.7871 38.0898C80.9872 38.0898 79.0771 38.9694 78.4158 40.2889C78.3424 40.4354 78.0485 40.5087 77.9751 40.2889L77.6077 38.6396C77.571 38.5296 77.5342 38.4563 77.4241 38.4563H74.669C74.6445 38.4548 74.62 38.4586 74.597 38.4672C74.5741 38.4759 74.5532 38.4894 74.5358 38.5067C74.5185 38.524 74.505 38.5448 74.4963 38.5677C74.4876 38.5906 74.4838 38.6151 74.4853 38.6396V56.818C74.4838 56.8424 74.4876 56.8669 74.4963 56.8898C74.505 56.9127 74.5185 56.9335 74.5358 56.9508C74.5532 56.9682 74.5741 56.9816 74.597 56.9903C74.62 56.999 74.6445 57.0027 74.669 57.0012H77.7914C77.8159 57.0027 77.8404 56.999 77.8634 56.9903C77.8864 56.9816 77.9072 56.9682 77.9246 56.9508C77.9419 56.9335 77.9554 56.9127 77.9641 56.8898C77.9728 56.8669 77.9766 56.8424 77.9751 56.818V46.7393C77.9751 43.8806 78.9668 41.2051 82.0525 41.2051C85.5422 41.2051 86.1666 43.8806 86.1666 46.7393V56.818C86.1641 56.8379 86.1662 56.8581 86.1725 56.8771C86.1789 56.8961 86.1894 56.9135 86.2034 56.9279C86.2034 56.9645 86.2401 57.0012 86.3135 57.0012H89.4727C89.4926 57.0037 89.5129 57.0017 89.532 56.9953C89.551 56.989 89.5685 56.9785 89.5829 56.9645C89.6053 56.9471 89.6236 56.9249 89.6363 56.8995C89.649 56.8742 89.6559 56.8463 89.6564 56.818V46.7393C89.6564 43.8806 90.2809 41.2051 93.7338 41.2051C97.3704 41.2051 97.8479 43.9538 97.8479 46.7393V56.818C97.8464 56.8424 97.8502 56.8669 97.8589 56.8898C97.8676 56.9127 97.8811 56.9335 97.8984 56.9508C97.9158 56.9682 97.9366 56.9816 97.9596 56.9903C97.9826 56.999 98.0071 57.0027 98.0316 57.0012H101.154C101.179 57.0027 101.203 56.999 101.226 56.9903C101.249 56.9816 101.27 56.9682 101.287 56.9508C101.305 56.9335 101.318 56.9127 101.327 56.8898C101.336 56.8669 101.339 56.8424 101.338 56.818V46.7393C101.338 41.2418 98.8766 38.0898 94.1012 38.0898ZM125.177 38.0898C123.414 38.0898 121.026 38.6762 119.63 40.2889C119.447 40.4721 119.373 40.4354 119.19 40.2889C117.463 38.6396 116.435 38.0898 113.863 38.0898C112.063 38.0898 110.153 38.9694 109.492 40.2889C109.418 40.4354 109.125 40.5087 109.051 40.2889L108.684 38.6396C108.647 38.5296 108.61 38.4563 108.5 38.4563H105.745C105.721 38.4548 105.696 38.4586 105.673 38.4672C105.65 38.4759 105.629 38.4894 105.612 38.5067C105.595 38.524 105.581 38.5448 105.572 38.5677C105.564 38.5906 105.56 38.6151 105.561 38.6396V56.818C105.56 56.8424 105.564 56.8669 105.572 56.8898C105.581 56.9127 105.595 56.9335 105.612 56.9508C105.629 56.9682 105.65 56.9816 105.673 56.9903C105.696 56.999 105.721 57.0027 105.745 57.0012H108.867C108.892 57.0027 108.916 56.999 108.939 56.9903C108.962 56.9816 108.983 56.9682 109.001 56.9508C109.018 56.9335 109.031 56.9127 109.04 56.8898C109.049 56.8669 109.053 56.8424 109.051 56.818V46.7393C109.051 43.8806 110.043 41.2051 113.129 41.2051C116.618 41.2051 117.243 43.8806 117.243 46.7393V56.818C117.24 56.8379 117.242 56.8581 117.249 56.8771C117.255 56.8961 117.265 56.9135 117.279 56.9279C117.279 56.9645 117.316 57.0012 117.39 57.0012H120.549C120.569 57.0037 120.589 57.0017 120.608 56.9953C120.627 56.989 120.645 56.9785 120.659 56.9645C120.681 56.9471 120.7 56.9249 120.712 56.8995C120.725 56.8741 120.732 56.8463 120.732 56.818V46.7393C120.732 43.8806 121.357 41.2051 124.81 41.2051C128.447 41.2051 128.924 43.9538 128.924 46.7393V56.818C128.923 56.8424 128.926 56.8669 128.935 56.8898C128.944 56.9127 128.957 56.9335 128.975 56.9509C128.992 56.9682 129.013 56.9816 129.036 56.9903C129.059 56.999 129.083 57.0027 129.108 57.0012H132.23C132.255 57.0027 132.279 56.999 132.302 56.9903C132.325 56.9816 132.346 56.9681 132.363 56.9508C132.381 56.9335 132.394 56.9127 132.403 56.8898C132.412 56.8669 132.415 56.8424 132.414 56.818V46.7393C132.414 41.2418 129.953 38.0898 125.177 38.0898ZM153.278 47.7287C153.278 53.4463 149.898 57.3678 144.168 57.3678C138.401 57.3678 135.058 53.4463 135.058 47.7287C135.058 41.9747 138.401 38.0898 144.168 38.0898C149.898 38.0898 153.278 42.0114 153.278 47.7287ZM149.788 47.7287C149.788 43.9173 147.694 41.2051 144.168 41.2051C140.678 41.2051 138.547 43.9173 138.547 47.7287C138.547 51.5404 140.678 54.2525 144.168 54.2525C147.694 54.2525 149.788 51.5404 149.788 47.7287ZM165.289 38.0898C162.828 38.0898 161.212 39.2261 160.477 40.3256C160.404 40.4354 160.11 40.5087 160.073 40.2889L159.706 38.6396C159.669 38.5296 159.632 38.4563 159.522 38.4563H156.767C156.743 38.4548 156.718 38.4586 156.695 38.4673C156.672 38.476 156.651 38.4894 156.634 38.5067C156.617 38.5241 156.603 38.5449 156.594 38.5678C156.586 38.5907 156.582 38.6151 156.583 38.6396V56.818C156.582 56.8424 156.586 56.8669 156.594 56.8898C156.603 56.9127 156.617 56.9335 156.634 56.9508C156.651 56.9681 156.672 56.9816 156.695 56.9903C156.718 56.999 156.743 57.0027 156.767 57.0012H159.889C159.914 57.0027 159.938 56.999 159.961 56.9903C159.984 56.9816 160.005 56.9682 160.023 56.9509C160.04 56.9335 160.053 56.9127 160.062 56.8898C160.071 56.8669 160.075 56.8424 160.073 56.818V46.7393C160.073 43.8806 161.836 41.2051 164.922 41.2051C168.559 41.2051 169.808 43.9538 169.808 46.7393V56.818C169.806 56.8424 169.81 56.8669 169.819 56.8898C169.827 56.9127 169.841 56.9335 169.858 56.9508C169.875 56.9681 169.896 56.9816 169.919 56.9903C169.942 56.999 169.967 57.0027 169.991 57.0012H173.114C173.138 57.0027 173.163 56.999 173.186 56.9903C173.209 56.9816 173.229 56.9681 173.247 56.9508C173.264 56.9335 173.278 56.9127 173.286 56.8898C173.295 56.8669 173.299 56.8424 173.297 56.818V46.7393C173.297 41.9747 170.616 38.0898 165.289 38.0898ZM184.39 45.933C182.553 45.6764 179.909 45.6398 179.909 43.5507C179.909 42.4145 181.121 41.2051 183.876 41.2051C186.851 41.2051 188.468 42.5245 188.468 44.5403C188.466 44.5648 188.47 44.5892 188.479 44.6121C188.487 44.635 188.501 44.6558 188.518 44.6731C188.536 44.6905 188.556 44.7039 188.579 44.7126C188.602 44.7213 188.627 44.725 188.651 44.7235H191.81C191.921 44.7235 191.957 44.6502 191.957 44.5403C191.957 40.2155 188.394 38.0898 183.876 38.0898C179.321 38.0898 176.419 40.5453 176.419 43.5507C176.419 48.0953 180.864 48.645 184.39 49.0482C185.933 49.2315 188.982 49.3781 188.982 51.4671C188.982 53.8493 186.264 54.2525 184.39 54.2525C181.452 54.2525 179.578 52.7498 179.578 50.9174C179.572 50.8642 179.546 50.8153 179.505 50.7811C179.464 50.7468 179.411 50.73 179.358 50.7341H176.272C176.248 50.7326 176.223 50.7363 176.2 50.745C176.177 50.7537 176.156 50.7671 176.139 50.7844C176.122 50.8018 176.108 50.8226 176.099 50.8455C176.091 50.8684 176.087 50.8929 176.088 50.9174C176.088 54.4358 178.807 57.3678 184.39 57.3678C188.982 57.3678 192.472 55.6452 192.472 51.4671C192.472 46.7759 188.063 46.446 184.39 45.933ZM26.6255 0.579908H20.6747C20.5644 0.579908 20.491 0.616495 20.4175 0.763084L13.879 22.7531C13.8674 22.7928 13.8432 22.8276 13.8101 22.8524C13.777 22.8772 13.7367 22.8906 13.6953 22.8906C13.6539 22.8906 13.6136 22.8772 13.5805 22.8524C13.5473 22.8276 13.5232 22.7928 13.5116 22.7531L6.97301 0.763084C6.89955 0.616495 6.82609 0.579908 6.71584 0.579908H0.765026C0.740523 0.578423 0.715984 0.582143 0.693029 0.590821C0.670074 0.5995 0.649226 0.61294 0.631863 0.630253C0.6145 0.647567 0.601017 0.668359 0.592306 0.691257C0.583594 0.714155 0.579852 0.738636 0.581327 0.763084V26.1982C0.579841 26.2227 0.583574 26.2472 0.59228 26.2701C0.600986 26.293 0.614466 26.3138 0.63183 26.3311C0.649194 26.3485 0.670045 26.3619 0.693006 26.3706C0.715967 26.3793 0.740515 26.383 0.765026 26.3815H3.88734C3.91185 26.383 3.93639 26.3793 3.95935 26.3706C3.98231 26.3619 4.00316 26.3485 4.02053 26.3311C4.03789 26.3138 4.05137 26.293 4.06008 26.2701C4.06878 26.2472 4.07252 26.2227 4.07103 26.1982V4.24489C4.0709 4.19893 4.08793 4.15456 4.11879 4.12043C4.14966 4.0863 4.19215 4.06485 4.238 4.06027C4.28384 4.05569 4.32975 4.0683 4.36679 4.09565C4.40382 4.12299 4.42933 4.16311 4.43834 4.20819L10.9035 26.1982C10.9304 26.2532 10.9722 26.2995 11.0241 26.3319C11.0761 26.3643 11.1361 26.3815 11.1974 26.3815H16.1931C16.2544 26.3815 16.3145 26.3643 16.3664 26.3319C16.4184 26.2995 16.4601 26.2532 16.487 26.1982L22.9522 4.20819C22.9889 4.02502 23.3195 3.98831 23.3195 4.24489V26.1982C23.318 26.2227 23.3217 26.2472 23.3305 26.2701C23.3392 26.293 23.3526 26.3138 23.37 26.3311C23.3874 26.3484 23.4082 26.3619 23.4312 26.3706C23.4541 26.3793 23.4787 26.383 23.5032 26.3815H26.6255C26.65 26.383 26.6746 26.3793 26.6976 26.3706C26.7205 26.3619 26.7414 26.3484 26.7587 26.3311C26.7761 26.3138 26.7896 26.293 26.7983 26.2701C26.807 26.2472 26.8107 26.2227 26.8092 26.1982V0.763084C26.8107 0.738638 26.807 0.714158 26.7983 0.691262C26.7895 0.668366 26.7761 0.647575 26.7587 0.630262C26.7413 0.612949 26.7205 0.599509 26.6975 0.590829C26.6746 0.582149 26.6501 0.578427 26.6255 0.579908ZM31.4546 26.3815H49.3154C49.3399 26.383 49.3644 26.3793 49.3874 26.3706C49.4103 26.3619 49.4312 26.3484 49.4485 26.3311C49.4659 26.3138 49.4794 26.293 49.4881 26.2701C49.4968 26.2472 49.5005 26.2227 49.4991 26.1982V23.4495C49.5005 23.425 49.4968 23.4006 49.488 23.3777C49.4793 23.3548 49.4659 23.334 49.4485 23.3167C49.4311 23.2994 49.4103 23.2859 49.3873 23.2772C49.3644 23.2686 49.3399 23.2648 49.3154 23.2663H34.9444C34.9198 23.2678 34.8953 23.264 34.8723 23.2554C34.8494 23.2467 34.8285 23.2332 34.8112 23.2159C34.7938 23.1986 34.7803 23.1778 34.7716 23.1549C34.7629 23.132 34.7592 23.1075 34.7607 23.083V0.763084C34.7621 0.738644 34.7584 0.71417 34.7497 0.691278C34.741 0.668387 34.7275 0.647598 34.7102 0.630286C34.6928 0.612974 34.672 0.599531 34.649 0.590847C34.6261 0.582163 34.6015 0.578435 34.577 0.579908H31.4546C31.4301 0.578437 31.4056 0.582166 31.3826 0.590851C31.3597 0.599536 31.3388 0.612978 31.3215 0.63029C31.3041 0.647603 31.2907 0.668391 31.282 0.691281C31.2733 0.714172 31.2695 0.738645 31.271 0.763084V26.1982C31.2695 26.2227 31.2732 26.2472 31.2819 26.2701C31.2906 26.293 31.3041 26.3138 31.3215 26.3311C31.3388 26.3484 31.3596 26.3619 31.3826 26.3706C31.4055 26.3793 31.4301 26.383 31.4546 26.3815Z" fill="black"/>
<path d="M13.6928 51.6954C17.9969 51.6954 21.4861 48.2141 21.4861 43.9198C21.4861 39.6255 17.9969 36.1443 13.6928 36.1443C9.38864 36.1443 5.89946 39.6255 5.89946 43.9198C5.89946 48.2141 9.38864 51.6954 13.6928 51.6954Z" fill="#3F3F3F"/>
</g>
<defs>
<clipPath id="clip0_444_53417">
<rect width="193" height="58" fill="white"/>
</clipPath>
</defs>
</svg>
