<svg width="155" height="53" viewBox="0 0 155 53" fill="none" xmlns="http://www.w3.org/2000/svg">
<path d="M62.8706 7.68581C62.0419 6.31292 60.5473 5.47266 58.9341 5.47266H55.7144L67.9488 26.699L55.7144 47.9253H58.9334C60.5473 47.9253 62.0419 47.0843 62.8698 45.7122L73.7695 26.699L62.8706 7.68581Z" fill="black"/>
<path d="M52.2731 5.47266H10.0048C7.50323 5.47266 5.47607 7.50876 5.47607 10.0214V43.3766C5.47607 45.8885 7.50397 47.9253 10.0048 47.9253H52.2723L64.3491 26.699L52.2731 5.47266Z" fill="black"/>
<path d="M119.432 8.83203C118.179 8.83203 117.126 9.25116 116.27 10.0877C115.413 10.925 114.986 11.9666 114.986 13.2119C114.986 14.4571 115.413 15.4976 116.27 16.3349C117.126 17.1715 118.179 17.5895 119.432 17.5895C120.684 17.5895 121.737 17.1715 122.594 16.3349C123.45 15.4976 123.878 14.4571 123.878 13.2119C123.878 11.9666 123.45 10.925 122.594 10.0877C121.737 9.25116 120.684 8.83203 119.432 8.83203ZM85.8276 9.02655V17.5053H87.718V12.1928L91.7514 17.5053H93.6418V9.02655H91.7525V14.4849L87.5972 9.02655H85.8276ZM98.2816 9.02655L94.6227 17.5053H96.634L97.4206 15.6736H100.971L101.758 17.5053H103.77L100.111 9.02655H98.2816ZM103.43 9.02655V10.6648H105.828V17.5053H107.719V10.6648H110.117V9.02655H103.43ZM111.499 9.02655V17.5053H113.388V9.02655H111.499ZM125.477 9.02655V17.5053H127.368V12.1928L131.401 17.5053H133.291V9.02655H131.401V14.4849L127.246 9.02655H125.477ZM137.93 9.02655L134.271 17.5053H136.283L137.07 15.6736H140.62L141.407 17.5053H143.418L139.759 9.02655H137.93ZM144.399 9.02655V17.5053H149.899V15.8195H146.29V9.02655H144.399ZM119.438 10.4822C120.145 10.4822 120.74 10.7488 121.225 11.2829C121.71 11.8163 121.952 12.4611 121.952 13.2173C121.952 13.9734 121.71 14.6173 121.225 15.1462C120.74 15.6759 120.145 15.9405 119.438 15.9405C118.731 15.9405 118.136 15.6759 117.651 15.1462C117.166 14.6173 116.924 13.9734 116.924 13.2173C116.924 12.4619 117.166 11.8163 117.651 11.2829C118.137 10.7488 118.731 10.4822 119.438 10.4822ZM99.202 11.5498L100.256 14.0115H98.136L99.202 11.5498ZM138.851 11.5498L139.905 14.0115H137.786L138.851 11.5498ZM89.766 22.4784C88.5218 22.4784 87.4695 22.8996 86.6098 23.7405C85.7495 24.5808 85.3193 25.6296 85.3193 26.8874C85.3193 28.1444 85.742 29.1849 86.5861 30.0104C87.4295 30.8345 88.5035 31.2467 89.8081 31.2467C91.1119 31.2467 92.2454 30.7062 93.2059 29.6225L91.9942 28.3722C91.4041 29.1084 90.6463 29.4766 89.7174 29.4766C89.039 29.4766 88.4604 29.2385 87.9845 28.7612C87.5079 28.2846 87.2691 27.6511 87.2691 26.8625C87.2691 26.0739 87.522 25.4477 88.0266 24.9822C88.5312 24.5182 89.1393 24.2852 89.8502 24.2852C90.7385 24.2852 91.482 24.6579 92.0794 25.4015L93.2545 24.0669C92.3175 23.0083 91.1545 22.4784 89.766 22.4784ZM117.495 22.4784C116.251 22.4784 115.199 22.8996 114.34 23.7405C113.479 24.5808 113.049 25.6296 113.049 26.8874C113.049 28.1444 113.471 29.1849 114.315 30.0104C115.158 30.8345 116.233 31.2467 117.538 31.2467C118.842 31.2467 119.974 30.7062 120.935 29.6225L119.724 28.3722C119.134 29.1084 118.375 29.4766 117.446 29.4766C116.768 29.4766 116.19 29.2385 115.713 28.7612C115.237 28.2846 114.999 27.6511 114.999 26.8625C114.999 26.0739 115.252 25.4477 115.756 24.9822C116.261 24.5182 116.869 24.2852 117.58 24.2852C118.468 24.2852 119.211 24.6579 119.808 25.4015L120.983 24.0669C120.046 23.0083 118.883 22.4784 117.495 22.4784ZM103.661 22.6718V31.1505H105.551V25.8381L109.584 31.1505H111.474V22.6718H109.584V28.1301L105.429 22.6718H103.661ZM122.425 22.6718V31.1505H128.665V29.4766H124.315V27.7184H128.107V26.105H124.315V24.3587H128.531V22.6718H122.425ZM97.1918 22.6729L93.5329 31.1505H95.5431L96.3308 29.3188H99.8807L100.668 31.1505H102.679L99.0208 22.6729H97.1918ZM130.348 22.6729V31.1505H132.238V28.4457H133.546L135.424 31.1505H137.75L135.606 28.1182C136.68 27.7221 137.217 26.8447 137.217 25.4858C137.217 24.4995 136.936 23.7845 136.375 23.3397C135.813 22.8948 134.876 22.6729 133.559 22.6729H130.348ZM132.238 24.2982H133.655C134.261 24.2982 134.685 24.3825 134.926 24.5521C135.169 24.7218 135.29 25.0356 135.29 25.4923C135.29 25.9497 135.174 26.282 134.939 26.493C134.705 26.7032 134.266 26.8085 133.62 26.8085H132.238V24.2982ZM98.1122 25.1951L99.1654 27.6568H97.0462L98.1122 25.1951ZM102.484 36.1236C101.62 36.1236 100.899 36.3429 100.322 36.7796C99.7438 37.2163 99.4556 37.8367 99.4556 38.6415C99.4556 39.4456 99.6841 40.0361 100.141 40.4116C100.597 40.7879 101.317 41.0923 102.302 41.3269C102.925 41.4804 103.34 41.6321 103.551 41.7819C103.76 41.9316 103.866 42.1347 103.866 42.3892C103.866 42.6437 103.767 42.8457 103.569 42.9954C103.371 43.1452 103.099 43.2191 102.751 43.2191C101.976 43.2191 101.132 42.8197 100.22 42.0185L99.0931 43.4018C100.167 44.3962 101.375 44.893 102.715 44.893C103.644 44.893 104.393 44.6577 104.962 44.1841C105.531 43.7113 105.816 43.0947 105.816 42.3341C105.816 41.5742 105.595 40.9958 105.15 40.5997C104.705 40.2035 104.082 39.9066 103.279 39.7081C102.475 39.5104 101.962 39.338 101.74 39.1927C101.517 39.0473 101.406 38.8512 101.406 38.6048C101.406 38.3584 101.498 38.1591 101.679 38.0094C101.861 37.8603 102.109 37.7849 102.424 37.7857C103.207 37.7857 103.967 38.0647 104.702 38.6232L105.659 37.2399C105.239 36.8836 104.745 36.6094 104.18 36.4154C103.615 36.2214 103.049 36.1236 102.484 36.1236ZM85.8276 36.3181V44.7969H87.718V36.3181H85.8276ZM89.8016 36.3181V44.7969H91.691V39.4833L95.7254 44.7969H97.6148V36.3181H95.7254V41.7765L91.5701 36.3181H89.8016ZM106.652 36.3181V37.9553H109.05V44.7958H110.941V37.9553H113.339V36.3181H106.652ZM114.719 36.3181V44.7969H116.61V36.3181H114.719ZM117.99 36.3181V37.9553H120.389V44.7958H122.279V37.9553H124.678V36.3181H117.99ZM125.937 36.3181V41.0611C125.937 42.282 126.278 43.2227 126.96 43.8859C127.642 44.5491 128.512 44.8811 129.57 44.8811C130.629 44.8811 131.496 44.5519 132.175 43.8924C132.853 43.2336 133.193 42.289 133.193 41.06V36.3181H131.304V40.9995C131.304 41.6789 131.149 42.215 130.838 42.6075C130.526 43 130.104 43.1954 129.571 43.1954C129.038 43.1954 128.614 43 128.299 42.6075C127.984 42.215 127.827 41.6782 127.826 40.9995V36.3181H125.937ZM134.454 36.3181V37.9553H136.851V44.7958H138.742V37.9553H141.141V36.3181H134.454ZM142.52 36.3181V44.7969H148.76V43.1229H144.411V41.3626H148.203V39.7503H144.411V38.0039H148.627V36.3181L142.52 36.3181Z" fill="black"/>
<path d="M12.5405 17.2656V36.1336H15.6805V22.2971L24.3159 36.1336H27.4559V17.2656H24.3159V31.1022L15.6805 17.2656H12.5405ZM30.5947 17.2656V36.1336H33.7358V17.2656H30.5947ZM36.8757 17.2656V36.1336H40.0146V28.272H48.65V36.1336H51.79V17.2656H48.65V25.1273H40.0146V17.2656H36.8757Z" fill="white"/>
</svg>
