<svg xmlns="http://www.w3.org/2000/svg" width="147" height="45" viewBox="0 0 147 45" fill="none">
  <path d="M58.6831 3.48683C57.8544 2.11394 56.3598 1.27368 54.7466 1.27368H51.5269L63.7613 22.5L51.5269 43.7264H54.7459C56.3598 43.7264 57.8544 42.8854 58.6823 41.5132L69.582 22.5L58.6831 3.48683Z" fill="black"/>
  <path d="M48.0855 1.27368H5.81715C3.31561 1.27368 1.28845 3.30978 1.28845 5.82245V39.1776C1.28845 41.6895 3.31635 43.7264 5.81715 43.7264H48.0847L60.1615 22.5L48.0855 1.27368Z" fill="black"/>
  <path d="M115.244 4.63281C113.992 4.63281 112.939 5.05195 112.083 5.88852C111.226 6.72583 110.799 7.76738 110.799 9.01265C110.799 10.2579 111.226 11.2984 112.083 12.1357C112.939 12.9723 113.992 13.3903 115.244 13.3903C116.497 13.3903 117.55 12.9723 118.407 12.1357C119.263 11.2984 119.691 10.2579 119.691 9.01265C119.691 7.76738 119.263 6.72583 118.407 5.88852C117.55 5.05195 116.497 4.63281 115.244 4.63281ZM81.6403 4.82733V13.306H83.5307V7.99361L87.5641 13.306H89.4546V4.82733H87.5652V10.2856L83.4099 4.82733H81.6403ZM94.0943 4.82733L90.4354 13.306H92.4467L93.2333 11.4743H96.7833L97.571 13.306H99.5823L95.9233 4.82733H94.0943ZM99.2424 4.82733V6.46558H101.641V13.306H103.531V6.46558H105.93V4.82733H99.2424ZM107.311 4.82733V13.306H109.201V4.82733H107.311ZM121.29 4.82733V13.306H123.18V7.99361L127.214 13.306H129.103V4.82733H127.214V10.2856L123.059 4.82733H121.29ZM133.743 4.82733L130.084 13.306H132.095L132.883 11.4743H136.433L137.22 13.306H139.231L135.572 4.82733H133.743ZM140.212 4.82733V13.306H145.712V11.6202H142.102V4.82733H140.212ZM115.251 6.28295C115.958 6.28295 116.553 6.5496 117.038 7.08371C117.522 7.61708 117.765 8.2619 117.765 9.01805C117.765 9.77421 117.522 10.4181 117.038 10.947C116.553 11.4767 115.958 11.7413 115.251 11.7413C114.544 11.7413 113.949 11.4767 113.464 10.947C112.979 10.4181 112.737 9.77421 112.737 9.01805C112.737 8.26263 112.979 7.61708 113.464 7.08371C113.949 6.5496 114.544 6.28295 115.251 6.28295ZM95.0148 7.35062L96.069 9.81233H93.9487L95.0148 7.35062ZM134.663 7.35062L135.718 9.81233H133.598L134.663 7.35062ZM85.5787 18.2791C84.3346 18.2791 83.2822 18.7003 82.4226 19.5413C81.5622 20.3816 81.132 21.4303 81.132 22.6882C81.132 23.9452 81.5547 24.9857 82.3988 25.8112C83.2422 26.6352 84.3162 27.0475 85.6208 27.0475C86.9246 27.0475 88.0581 26.507 89.0186 25.4233L87.8069 24.173C87.2169 24.9092 86.459 25.2774 85.5301 25.2774C84.8517 25.2774 84.2731 25.0393 83.7972 24.562C83.3206 24.0854 83.0818 23.4519 83.0818 22.6633C83.0818 21.8747 83.3347 21.2485 83.8393 20.783C84.3439 20.319 84.952 20.086 85.6629 20.086C86.5512 20.086 87.2947 20.4587 87.8921 21.2023L89.0672 19.8677C88.1302 18.8091 86.9672 18.2791 85.5787 18.2791ZM113.307 18.2791C112.063 18.2791 111.012 18.7003 110.152 19.5413C109.292 20.3816 108.862 21.4303 108.862 22.6882C108.862 23.9452 109.283 24.9857 110.128 25.8112C110.971 26.6352 112.046 27.0475 113.351 27.0475C114.654 27.0475 115.787 26.507 116.747 25.4233L115.537 24.173C114.947 24.9092 114.188 25.2774 113.259 25.2774C112.58 25.2774 112.003 25.0393 111.526 24.562C111.049 24.0854 110.812 23.4519 110.812 22.6633C110.812 21.8747 111.065 21.2485 111.569 20.783C112.074 20.319 112.682 20.086 113.393 20.086C114.281 20.086 115.023 20.4587 115.621 21.2023L116.796 19.8677C115.859 18.8091 114.696 18.2791 113.307 18.2791ZM99.4733 18.4726V26.9513H101.364V21.6389L105.397 26.9513H107.286V18.4726H105.397V23.9309L101.242 18.4726H99.4733ZM118.237 18.4726V26.9513H124.477V25.2774H120.128V23.5192H123.92V21.9058H120.128V20.1595H124.344V18.4726H118.237ZM93.0045 18.4737L89.3456 26.9513H91.3558L92.1435 25.1196H95.6935L96.4811 26.9513H98.4914L94.8335 18.4737H93.0045ZM126.161 18.4737V26.9513H128.051V24.2465H129.359L131.236 26.9513H133.563L131.419 23.919C132.493 23.5229 133.03 22.6455 133.03 21.2866C133.03 20.3003 132.749 19.5853 132.188 19.1404C131.626 18.6956 130.688 18.4737 129.372 18.4737H126.161ZM128.051 20.099H129.468C130.073 20.099 130.497 20.1832 130.739 20.3529C130.981 20.5226 131.103 20.8364 131.103 21.2931C131.103 21.7505 130.986 22.0828 130.752 22.2937C130.518 22.504 130.078 22.6093 129.432 22.6093H128.051V20.099ZM93.9249 20.9959L94.9781 23.4576H92.8589L93.9249 20.9959ZM98.2971 31.9244C97.4331 31.9244 96.7115 32.1436 96.1348 32.5804C95.5565 33.0171 95.2683 33.6375 95.2683 34.4423C95.2683 35.2464 95.4968 35.8369 95.9535 36.2124C96.4095 36.5886 97.1299 36.8931 98.1148 37.1277C98.7372 37.2811 99.1525 37.4329 99.3632 37.5826C99.5732 37.7324 99.6783 37.9355 99.6783 38.19C99.6783 38.4445 99.5797 38.6465 99.3816 38.7962C99.1841 38.946 98.9113 39.0199 98.5637 39.0199C97.7887 39.0199 96.9449 38.6205 96.0323 37.8193L94.9058 39.2025C95.9798 40.197 97.1874 40.6938 98.5281 40.6938C99.4569 40.6938 100.206 40.4585 100.775 39.9849C101.344 39.512 101.629 38.8955 101.629 38.1349C101.629 37.375 101.407 36.7966 100.962 36.4004C100.518 36.0043 99.8949 35.7073 99.0913 35.5089C98.2877 35.3112 97.7743 35.1388 97.5526 34.9934C97.3302 34.8481 97.2192 34.652 97.2192 34.4056C97.2192 34.1592 97.3102 33.9599 97.4922 33.8101C97.6741 33.6611 97.9222 33.5857 98.2367 33.5864C99.0197 33.5864 99.7794 33.8655 100.515 34.4239L101.472 33.0407C101.052 32.6844 100.557 32.4102 99.9923 32.2162C99.4273 32.0222 98.8621 31.9244 98.2971 31.9244ZM81.6403 32.1189V40.5976H83.5307V32.1189H81.6403ZM85.6143 32.1189V40.5976H87.5037V35.2841L91.5381 40.5976H93.4275V32.1189H91.5381V37.5773L87.3828 32.1189H85.6143ZM102.464 32.1189V33.7561H104.863V40.5966H106.753V33.7561H109.152V32.1189H102.464ZM110.532 32.1189V40.5976H112.423V32.1189H110.532ZM113.803 32.1189V33.7561H116.201V40.5966H118.092V33.7561H120.49V32.1189H113.803ZM121.75 32.1189V36.8619C121.75 38.0828 122.091 39.0234 122.773 39.6867C123.455 40.3499 124.325 40.6819 125.383 40.6819C126.441 40.6819 127.309 40.3527 127.988 39.6931C128.666 39.0344 129.006 38.0898 129.006 36.8608V32.1189H127.117V36.8003C127.117 37.4797 126.961 38.0158 126.651 38.4083C126.339 38.8007 125.916 38.9961 125.384 38.9961C124.851 38.9961 124.427 38.8007 124.112 38.4083C123.797 38.0158 123.64 37.479 123.639 36.8003V32.1189H121.75ZM130.266 32.1189V33.7561H132.664V40.5966H134.554V33.7561H136.954V32.1189H130.266ZM138.333 32.1189V40.5976H144.573V38.9237H140.224V37.1634H144.015V35.551H140.224V33.8047H144.439V32.1189L138.333 32.1189Z" fill="black"/>
  <path d="M8.35306 13.0659V31.9339H11.493V18.0974L20.1284 31.9339H23.2684V13.0659H20.1284V26.9024L11.493 13.0659H8.35306ZM26.4073 13.0659V31.9339H29.5483V13.0659H26.4073ZM32.6883 13.0659V31.9339H35.8271V24.0722H44.4626V31.9339H47.6025V13.0659H44.4626V20.9276H35.8271V13.0659H32.6883Z" fill="#DAE9E7"/>
</svg>