<svg xmlns="http://www.w3.org/2000/svg" width="187" height="46" viewBox="0 0 187 46" fill="none">
  <g clip-path="url(#clip0_444_53358)">
    <path d="M28.8926 18.7661V27.1955H27.4088V23.407H23.5888V27.1955H22.1049V18.7661H23.5888V22.1126H27.4404V18.7661H28.8926ZM20.6211 27.1955H19.1373V18.7661H20.6211V27.1955ZM17.6851 27.1955H16.138L12.2865 21.0077H12.2549V27.1955H10.8657V18.7661H12.4127L16.2643 24.9856H16.296V18.7661H17.7166V27.1955H17.6851ZM34.1018 22.965L28.8926 13.5254H9.66609C8.71897 13.5254 7.92969 14.3147 7.92969 15.2618V30.6683C7.92969 31.6154 8.71897 32.4047 9.66609 32.4047H28.8611L34.1018 22.965Z" fill="#0B1218"/>
    <path d="M30.1562 32.4049L35.3969 22.9653L30.1877 13.5256H31.4821C32.2083 13.5256 33.0607 14.0308 33.4079 14.6622L37.9857 22.9653L33.4079 31.2684C33.0607 31.8998 32.2083 32.4049 31.4821 32.4049H30.1562Z" fill="#0B1218"/>
    <path d="M42.7852 19.0186H44.3006L48.0574 25.0801H48.0891V19.0186H49.4782V27.2585H47.9628L44.2059 21.1969H44.1743V27.2585H42.8168V19.0186H42.7852Z" fill="#0B1218"/>
    <path d="M55.792 25.9329C55.792 26.0908 55.8236 26.2171 55.8551 26.2802C55.8867 26.3434 55.9814 26.3749 56.1077 26.3749H56.2339C56.2971 26.3749 56.3602 26.3749 56.4234 26.3434V27.2589C56.3919 27.2589 56.3287 27.2905 56.2339 27.322C56.1709 27.3536 56.0761 27.3536 56.013 27.3852C55.9499 27.3852 55.8551 27.4168 55.792 27.4168H55.6026C55.3184 27.4168 55.0974 27.3536 54.9396 27.2589C54.7501 27.1642 54.6555 26.9747 54.5923 26.6907C54.3397 26.9432 54.024 27.1327 53.6136 27.2589C53.2347 27.3852 52.8559 27.4168 52.5086 27.4168C52.2245 27.4168 51.9719 27.3852 51.7509 27.322C51.4984 27.2589 51.2773 27.1327 51.088 27.0064C50.8985 26.8485 50.7407 26.6907 50.646 26.4697C50.5197 26.2486 50.4881 25.9961 50.4881 25.7119C50.4881 25.3331 50.5512 25.049 50.6775 24.7964C50.8038 24.5754 50.9933 24.386 51.2143 24.2597C51.4353 24.1334 51.6878 24.0387 51.9404 23.9755C52.1929 23.9124 52.4771 23.8808 52.7612 23.8493C53.0137 23.8177 53.2347 23.7861 53.4557 23.7545C53.6767 23.723 53.8662 23.6914 54.024 23.6598C54.1819 23.6283 54.3082 23.5335 54.4028 23.4389C54.4976 23.3442 54.5607 23.1863 54.5607 22.9969C54.5607 22.839 54.5292 22.6812 54.4345 22.5864C54.3397 22.4917 54.245 22.397 54.1187 22.3339C53.9925 22.2707 53.8662 22.2392 53.7083 22.2076C53.5505 22.176 53.4242 22.176 53.2979 22.176C52.9191 22.176 52.6349 22.2392 52.3824 22.397C52.1298 22.5549 52.0035 22.7759 51.9719 23.1232H50.646C50.6775 22.7443 50.7723 22.4286 50.9301 22.176C51.088 21.9234 51.3089 21.7341 51.5615 21.5761C51.8141 21.4183 52.0982 21.3236 52.4139 21.2605C52.7296 21.1973 53.0454 21.1658 53.3926 21.1658C53.6767 21.1658 53.9609 21.1973 54.245 21.2605C54.5292 21.3236 54.7818 21.4183 55.0028 21.5761C55.2237 21.7341 55.4131 21.8919 55.5394 22.1129C55.6657 22.3339 55.7604 22.5864 55.7604 22.9022V25.9329H55.792ZM54.466 24.2597C54.2766 24.386 54.024 24.4807 53.7399 24.4807C53.4557 24.5123 53.14 24.5438 52.8559 24.607C52.7296 24.6385 52.5718 24.6701 52.4455 24.7017C52.3192 24.7333 52.1929 24.7964 52.0982 24.8595C52.0035 24.9227 51.9088 25.0174 51.8772 25.1436C51.8456 25.2699 51.7825 25.3963 51.7825 25.5856C51.7825 25.7435 51.8141 25.8698 51.9088 25.9645C52.0035 26.0592 52.0982 26.1539 52.2245 26.2171C52.3508 26.2802 52.4771 26.3118 52.6034 26.3434C52.7296 26.3749 52.8875 26.3749 52.9822 26.3749C53.14 26.3749 53.2979 26.3434 53.4557 26.3118C53.6136 26.2802 53.7715 26.2171 53.9293 26.1224C54.0872 26.0276 54.2135 25.9014 54.3082 25.7751C54.4029 25.6172 54.466 25.4594 54.466 25.2384V24.2597Z" fill="#0B1218"/>
    <path d="M56.4219 21.2917H57.4005V19.4922H58.7265V21.2917H59.9262V22.2704H58.7265V25.4591C58.7265 25.5853 58.7265 25.7116 58.7581 25.8063C58.7581 25.9011 58.7896 25.9957 58.8528 26.0589C58.8844 26.122 58.9475 26.1852 59.0423 26.2167C59.1369 26.2483 59.2316 26.2799 59.3895 26.2799H59.6736C59.7684 26.2799 59.8631 26.2483 59.9578 26.2483V27.2586C59.7999 27.2586 59.6736 27.2902 59.5158 27.2902C59.3895 27.2902 59.2316 27.3217 59.0738 27.3217C58.7265 27.3217 58.4423 27.2902 58.253 27.227C58.032 27.1639 57.8741 27.0692 57.7478 26.9429C57.6215 26.8166 57.5584 26.6587 57.4953 26.4693C57.4637 26.2799 57.4321 26.0589 57.4321 25.8063V22.2704H56.4534V21.2917H56.4219Z" fill="#0B1218"/>
    <path d="M60.6853 19.0186H62.0113V20.2498H60.6853V19.0186ZM60.6853 21.2916H62.0113V27.2585H60.6853V21.2916Z" fill="#0B1218"/>
    <path d="M65.9894 27.4168C65.5158 27.4168 65.0738 27.3536 64.7266 27.1957C64.3477 27.0379 64.032 26.8169 63.7795 26.5328C63.5269 26.2487 63.3375 25.9329 63.1796 25.5541C63.0533 25.1753 62.9902 24.7333 62.9902 24.2913C62.9902 23.8493 63.0533 23.4073 63.1796 23.0284C63.3059 22.6496 63.4953 22.3023 63.7795 22.0497C64.032 21.7656 64.3477 21.5446 64.7266 21.3868C65.1054 21.2289 65.5158 21.1658 65.9894 21.1658C66.4629 21.1658 66.9049 21.2289 67.2522 21.3868C67.631 21.5446 67.9468 21.7656 68.1993 22.0497C68.4519 22.3339 68.6413 22.6496 68.7991 23.0284C68.9255 23.4073 68.9886 23.8177 68.9886 24.2913C68.9886 24.7648 68.9255 25.1753 68.7991 25.5541C68.6729 25.9329 68.4835 26.2802 68.1993 26.5328C67.9468 26.8169 67.631 27.0379 67.2522 27.1957C66.8734 27.3536 66.4629 27.4168 65.9894 27.4168ZM65.9894 26.3749C66.2735 26.3749 66.5261 26.3118 66.7471 26.1855C66.9681 26.0592 67.126 25.9014 67.2838 25.7119C67.4417 25.5226 67.5363 25.3016 67.5995 25.049C67.6626 24.7964 67.6942 24.5438 67.6942 24.2913C67.6942 24.0387 67.6626 23.7861 67.5995 23.5335C67.5363 23.281 67.4417 23.06 67.2838 22.8706C67.1575 22.6812 66.9681 22.5233 66.7471 22.397C66.5261 22.2707 66.2735 22.2076 65.9894 22.2076C65.7052 22.2076 65.4527 22.2707 65.2317 22.397C65.0107 22.5233 64.8528 22.6812 64.695 22.8706C64.5687 23.06 64.4424 23.281 64.3793 23.5335C64.3161 23.7861 64.2846 24.0387 64.2846 24.2913C64.2846 24.5438 64.3161 24.7964 64.3793 25.049C64.4424 25.3016 64.5371 25.5226 64.695 25.7119C64.8528 25.9014 65.0107 26.0592 65.2317 26.1855C65.4211 26.3118 65.6737 26.3749 65.9894 26.3749Z" fill="#0B1218"/>
    <path d="M69.8711 21.2916H71.1024V22.1756L71.134 22.2072C71.3234 21.8915 71.6075 21.6074 71.9233 21.4179C72.2389 21.2285 72.6178 21.1338 72.9966 21.1338C73.6596 21.1338 74.1647 21.2916 74.5436 21.6389C74.9222 21.9862 75.1118 22.4914 75.1118 23.1543V27.2585H73.7859V23.5016C73.7859 23.028 73.6596 22.6807 73.4702 22.4914C73.2808 22.3019 72.9966 22.1756 72.6178 22.1756C72.3968 22.1756 72.2073 22.2072 72.0179 22.3019C71.8285 22.3966 71.7023 22.4914 71.576 22.6492C71.4497 22.807 71.355 22.9649 71.2918 23.1543C71.2287 23.3437 71.1971 23.5647 71.1971 23.7542V27.2585H69.8711V21.2916Z" fill="#0B1218"/>
    <path d="M81.3016 25.9332C81.3016 26.091 81.3336 26.2173 81.3648 26.2805C81.3968 26.3436 81.4913 26.3752 81.6177 26.3752H81.7434C81.8066 26.3752 81.8699 26.3752 81.9331 26.3436V27.2591C81.9018 27.2591 81.8386 27.2907 81.7434 27.3223C81.6809 27.3539 81.5857 27.3539 81.5225 27.3854C81.4593 27.3854 81.3648 27.417 81.3016 27.417H81.1126C80.8285 27.417 80.6076 27.3539 80.4491 27.2591C80.2602 27.1644 80.165 26.975 80.1018 26.6909C79.8496 26.9434 79.5335 27.1329 79.1236 27.2591C78.7443 27.3854 78.3657 27.417 78.0183 27.417C77.7342 27.417 77.482 27.3854 77.2611 27.3223C77.0082 27.2591 76.7873 27.1329 76.5976 27.0066C76.4086 26.8488 76.2502 26.6909 76.1557 26.4699C76.0293 26.2489 75.998 25.9963 75.998 25.7122C75.998 25.3333 76.0613 25.0492 76.187 24.7967C76.3134 24.5757 76.5031 24.3862 76.724 24.2599C76.9449 24.1337 77.1978 24.0389 77.45 23.9758C77.7029 23.9126 77.9871 23.8811 78.2712 23.8495C78.5234 23.8179 78.7443 23.7864 78.9652 23.7548C79.1869 23.7232 79.3758 23.6916 79.5335 23.6601C79.6919 23.6286 79.8176 23.5338 79.9128 23.4391C80.0073 23.3444 80.0705 23.1866 80.0705 22.9971C80.0705 22.8393 80.0393 22.6814 79.9441 22.5867C79.8496 22.492 79.7551 22.3973 79.6287 22.3341C79.5022 22.271 79.3758 22.2394 79.2181 22.2078C79.0604 22.1763 78.934 22.1763 78.8075 22.1763C78.4289 22.1763 78.1447 22.2394 77.8918 22.3973C77.6397 22.5551 77.5132 22.7761 77.482 23.1234H76.1557C76.187 22.7445 76.2822 22.4288 76.4399 22.1763C76.5976 21.9237 76.8185 21.7343 77.0714 21.5764C77.3236 21.4185 77.6077 21.3239 77.9238 21.2607C78.2392 21.1976 78.5553 21.166 78.9027 21.166C79.1869 21.166 79.471 21.1976 79.7551 21.2607C80.0393 21.3239 80.2915 21.4185 80.5124 21.5764C80.7333 21.7343 80.923 21.8921 81.0494 22.1131C81.1759 22.3341 81.2703 22.5867 81.2703 22.9024V25.9332H81.3016ZM80.0073 24.2599C79.8176 24.3862 79.5655 24.4809 79.2813 24.4809C78.9972 24.5125 78.6811 24.5441 78.3969 24.6072C78.2712 24.6388 78.1135 24.6704 77.9871 24.7019C77.8606 24.7335 77.7341 24.7967 77.6397 24.8597C77.5452 24.9229 77.45 25.0177 77.4188 25.1439C77.3868 25.2702 77.3236 25.3965 77.3236 25.5859C77.3236 25.7438 77.3555 25.87 77.45 25.9648C77.5452 26.0595 77.6397 26.1542 77.7661 26.2173C77.8918 26.2805 78.0183 26.312 78.1447 26.3436C78.2712 26.3752 78.4289 26.3752 78.5234 26.3752C78.6811 26.3752 78.8395 26.3436 78.9972 26.312C79.1549 26.2805 79.3126 26.2173 79.471 26.1226C79.6287 26.0279 79.7551 25.9016 79.8496 25.7753C79.9441 25.6175 80.0073 25.4596 80.0073 25.2387V24.2599Z" fill="#0B1218"/>
    <path d="M82.5645 19.0186H83.8907V27.2585H82.5645V19.0186Z" fill="#0B1218"/>
    <path d="M88.3105 19.0186H89.7625V27.2585H88.3105V19.0186Z" fill="#0B1218"/>
    <path d="M91.1194 21.2916H92.3504V22.1756L92.3824 22.2072C92.5713 21.8915 92.8555 21.6074 93.1716 21.4179C93.487 21.2285 93.8656 21.1338 94.2449 21.1338C94.9077 21.1338 95.4128 21.2916 95.7914 21.6389C96.1707 21.9862 96.3597 22.4914 96.3597 23.1543V27.2585H95.0341V23.5016C95.0341 23.028 94.9077 22.6807 94.718 22.4914C94.5291 22.3019 94.2449 22.1756 93.8656 22.1756C93.6447 22.1756 93.4557 22.2072 93.2661 22.3019C93.0764 22.3966 92.9507 22.4914 92.8242 22.6492C92.6978 22.807 92.6033 22.9649 92.5401 23.1543C92.4769 23.3437 92.4456 23.5647 92.4456 23.7542V27.2585H91.1194V21.2916Z" fill="#0B1218"/>
    <path d="M98.5383 25.3327C98.5703 25.7116 98.728 25.9957 98.9809 26.1535C99.2331 26.3114 99.5492 26.3745 99.8958 26.3745C100.022 26.3745 100.149 26.3745 100.306 26.343C100.464 26.3114 100.623 26.2799 100.748 26.2482C100.875 26.1851 101.001 26.122 101.096 26.0272C101.191 25.9326 101.222 25.7747 101.222 25.6169C101.222 25.459 101.159 25.3011 101.032 25.2064C100.907 25.1117 100.78 25.017 100.591 24.9539C100.402 24.8907 100.212 24.8276 99.9591 24.796C99.7381 24.7644 99.486 24.7013 99.2651 24.6381C99.0122 24.575 98.7912 24.5118 98.5703 24.4488C98.3494 24.3856 98.1285 24.2593 97.9701 24.133C97.8124 24.0068 97.6547 23.8489 97.5282 23.6279C97.4337 23.4385 97.3705 23.1859 97.3705 22.8702C97.3705 22.5545 97.4338 22.2704 97.5914 22.0494C97.7491 21.8284 97.9388 21.6389 98.1917 21.5126C98.4439 21.3864 98.6968 21.2916 99.0122 21.2285C99.2963 21.1654 99.5805 21.1338 99.8646 21.1338C100.18 21.1338 100.464 21.1654 100.748 21.2285C101.032 21.2916 101.285 21.3864 101.506 21.5442C101.727 21.7021 101.917 21.8915 102.075 22.1125C102.232 22.3335 102.327 22.6176 102.359 22.9649H101.001C100.938 22.6492 100.78 22.4282 100.559 22.3335C100.338 22.2388 100.086 22.1756 99.7701 22.1756C99.6749 22.1756 99.5805 22.1756 99.454 22.2072C99.3283 22.2072 99.2018 22.2388 99.1066 22.3019C99.0122 22.3651 98.8857 22.3966 98.8225 22.4914C98.76 22.586 98.6968 22.6807 98.6968 22.807C98.6968 22.9649 98.76 23.0912 98.8545 23.1859C98.9809 23.2806 99.1066 23.3753 99.2963 23.4385C99.486 23.5016 99.6749 23.5647 99.9278 23.5963C100.149 23.6279 100.402 23.691 100.654 23.7542C100.907 23.8173 101.128 23.8805 101.349 23.9436C101.569 24.0068 101.79 24.133 101.98 24.2593C102.169 24.3856 102.295 24.5434 102.422 24.7644C102.548 24.9539 102.58 25.2064 102.58 25.4906C102.58 25.8379 102.485 26.1535 102.327 26.4061C102.169 26.6587 101.948 26.8481 101.696 27.006C101.443 27.1638 101.159 27.2585 100.843 27.3532C100.527 27.4164 100.212 27.448 99.8958 27.448C99.5172 27.448 99.1699 27.4164 98.8545 27.3217C98.5383 27.227 98.2542 27.1007 98.0333 26.9428C97.8124 26.785 97.6234 26.564 97.465 26.3114C97.3073 26.0589 97.2441 25.7431 97.2441 25.3959H98.5383V25.3327Z" fill="#0B1218"/>
    <path d="M102.705 21.2917H103.684V19.4922H105.009V21.2917H106.209V22.2704H105.009V25.4591C105.009 25.5853 105.009 25.7116 105.041 25.8063C105.041 25.9011 105.073 25.9957 105.136 26.0589C105.168 26.122 105.23 26.1852 105.326 26.2167C105.42 26.2483 105.515 26.2799 105.673 26.2799H105.957C106.052 26.2799 106.146 26.2483 106.241 26.2483V27.2586C106.083 27.2586 105.957 27.2902 105.799 27.2902C105.673 27.2902 105.515 27.3217 105.357 27.3217C105.009 27.3217 104.725 27.2902 104.536 27.227C104.315 27.1639 104.157 27.0692 104.031 26.9429C103.905 26.8166 103.842 26.6587 103.778 26.4693C103.747 26.2799 103.715 26.0589 103.715 25.8063V22.2704H102.736V21.2917H102.705Z" fill="#0B1218"/>
    <path d="M107 19.0186H108.326V20.2498H107V19.0186ZM107 21.2916H108.326V27.2585H107V21.2916Z" fill="#0B1218"/>
    <path d="M108.926 21.2917H109.905V19.4922H111.231V21.2917H112.431V22.2704H111.231V25.4591C111.231 25.5853 111.231 25.7116 111.262 25.8063C111.262 25.9011 111.294 25.9957 111.357 26.0589C111.389 26.122 111.452 26.1852 111.546 26.2167C111.641 26.2483 111.736 26.2799 111.894 26.2799H112.178C112.272 26.2799 112.367 26.2483 112.462 26.2483V27.2586C112.304 27.2586 112.178 27.2902 112.02 27.2902C111.894 27.2902 111.736 27.3217 111.578 27.3217C111.231 27.3217 110.947 27.2902 110.757 27.227C110.536 27.1639 110.378 27.0692 110.252 26.9429C110.126 26.8166 110.062 26.6587 109.999 26.4693C109.968 26.2799 109.937 26.0589 109.937 25.8063V22.2704H108.958V21.2917H108.926Z" fill="#0B1218"/>
    <path d="M118.429 27.2595H117.134V26.4387H117.102C116.945 26.7544 116.692 26.9753 116.376 27.1648C116.061 27.3542 115.745 27.4489 115.397 27.4489C114.608 27.4489 114.04 27.2595 113.693 26.8807C113.346 26.5018 113.156 25.9019 113.156 25.1127V21.3242H114.483V24.9864C114.483 25.5231 114.577 25.8704 114.798 26.0914C114.988 26.3124 115.272 26.4071 115.65 26.4071C115.934 26.4071 116.155 26.3755 116.345 26.2808C116.534 26.1861 116.692 26.0914 116.787 25.9335C116.913 25.7757 116.977 25.6178 117.039 25.4284C117.102 25.2389 117.102 25.0179 117.102 24.797V21.3242H118.429V27.2595Z" fill="#0B1218"/>
    <path d="M118.996 21.2917H119.975V19.4922H121.301V21.2917H122.501V22.2704H121.301V25.4591C121.301 25.5853 121.301 25.7116 121.332 25.8063C121.332 25.9011 121.364 25.9957 121.428 26.0589C121.459 26.122 121.522 26.1852 121.617 26.2167C121.712 26.2483 121.806 26.2799 121.964 26.2799H122.248C122.343 26.2799 122.438 26.2483 122.532 26.2483V27.2586C122.374 27.2586 122.248 27.2902 122.09 27.2902C121.964 27.2902 121.806 27.3217 121.649 27.3217C121.301 27.3217 121.017 27.2902 120.827 27.227C120.606 27.1639 120.449 27.0692 120.322 26.9429C120.196 26.8166 120.133 26.6587 120.07 26.4693C120.038 26.2799 120.007 26.0589 120.007 25.8063V22.2704H119.028V21.2917H118.996Z" fill="#0B1218"/>
    <path d="M124.269 24.6064C124.269 24.8275 124.3 25.0485 124.363 25.2695C124.427 25.4904 124.521 25.6798 124.648 25.8377C124.774 25.9956 124.932 26.1218 125.153 26.2166C125.342 26.3113 125.594 26.3744 125.879 26.3744C126.258 26.3744 126.573 26.2797 126.794 26.1218C127.015 25.964 127.205 25.7114 127.331 25.3641H128.562C128.499 25.6798 128.373 25.964 128.215 26.2166C128.057 26.4691 127.836 26.6901 127.615 26.8479C127.362 27.0058 127.11 27.1637 126.826 27.2268C126.542 27.3215 126.226 27.3531 125.911 27.3531C125.437 27.3531 125.026 27.2899 124.679 27.1321C124.332 26.9742 124.016 26.7532 123.764 26.5006C123.511 26.2166 123.322 25.9008 123.196 25.522C123.069 25.1432 123.006 24.7012 123.006 24.2592C123.006 23.8487 123.069 23.4383 123.196 23.0594C123.322 22.6806 123.511 22.3333 123.764 22.0492C124.016 21.7651 124.3 21.5441 124.679 21.3547C125.058 21.1652 125.437 21.1021 125.879 21.1021C126.352 21.1021 126.763 21.1968 127.142 21.3862C127.52 21.5756 127.836 21.8282 128.057 22.1755C128.278 22.5228 128.468 22.8701 128.594 23.2804C128.72 23.6909 128.72 24.1329 128.689 24.5749H124.269V24.6064ZM127.331 23.754C127.331 23.533 127.268 23.3436 127.205 23.1542C127.142 22.9648 127.047 22.8069 126.889 22.6491C126.763 22.4912 126.605 22.3965 126.416 22.3018C126.226 22.2071 126.037 22.1755 125.816 22.1755C125.594 22.1755 125.373 22.2071 125.185 22.3018C124.995 22.3965 124.837 22.4912 124.711 22.6491C124.584 22.8069 124.458 22.9648 124.395 23.1542C124.3 23.3436 124.269 23.5646 124.269 23.7856H127.331V23.754Z" fill="#0B1218"/>
    <path d="M135.603 27.417C135.13 27.417 134.688 27.3539 134.34 27.196C133.961 27.0381 133.646 26.8171 133.393 26.533C133.141 26.2489 132.951 25.9332 132.793 25.5543C132.667 25.1755 132.604 24.7335 132.604 24.2915C132.604 23.8495 132.667 23.4076 132.793 23.0286C132.92 22.6498 133.109 22.3025 133.393 22.05C133.646 21.7658 133.961 21.5448 134.34 21.387C134.719 21.2292 135.13 21.166 135.603 21.166C136.076 21.166 136.518 21.2292 136.866 21.387C137.245 21.5448 137.56 21.7658 137.813 22.05C138.065 22.3341 138.255 22.6498 138.413 23.0286C138.539 23.4076 138.603 23.8179 138.603 24.2915C138.603 24.7651 138.539 25.1755 138.413 25.5543C138.286 25.9332 138.097 26.2805 137.813 26.533C137.56 26.8171 137.245 27.0381 136.866 27.196C136.487 27.3539 136.076 27.417 135.603 27.417ZM135.603 26.3752C135.887 26.3752 136.14 26.312 136.361 26.1858C136.582 26.0595 136.739 25.9016 136.898 25.7122C137.055 25.5228 137.15 25.3018 137.213 25.0492C137.276 24.7967 137.308 24.5441 137.308 24.2915C137.308 24.0389 137.276 23.7864 137.213 23.5338C137.15 23.2813 137.055 23.0603 136.898 22.8708C136.771 22.6814 136.582 22.5235 136.361 22.3973C136.14 22.271 135.887 22.2078 135.603 22.2078C135.319 22.2078 135.066 22.271 134.845 22.3973C134.625 22.5235 134.467 22.6814 134.308 22.8708C134.183 23.0603 134.056 23.2813 133.993 23.5338C133.93 23.7864 133.899 24.0389 133.899 24.2915C133.899 24.5441 133.93 24.7967 133.993 25.0492C134.056 25.3018 134.151 25.5228 134.308 25.7122C134.467 25.9016 134.625 26.0595 134.845 26.1858C135.066 26.312 135.319 26.3752 135.603 26.3752Z" fill="#0B1218"/>
    <path d="M139.707 21.2916H140.938V22.1756L140.97 22.2072C141.16 21.8915 141.444 21.6074 141.759 21.4179C142.075 21.2285 142.454 21.1338 142.833 21.1338C143.495 21.1338 144 21.2916 144.38 21.6389C144.758 21.9862 144.948 22.4914 144.948 23.1543V27.2585H143.622V23.5016C143.622 23.028 143.495 22.6807 143.306 22.4914C143.117 22.3019 142.833 22.1756 142.454 22.1756C142.233 22.1756 142.043 22.2072 141.854 22.3019C141.665 22.3966 141.538 22.4914 141.412 22.6492C141.285 22.807 141.191 22.9649 141.128 23.1543C141.065 23.3437 141.033 23.5647 141.033 23.7542V27.2585H139.707V21.2916Z" fill="#0B1218"/>
    <path d="M151.924 19.0186H153.471L156.628 27.2585H155.081L154.323 25.0801H151.04L150.283 27.2585H148.799L151.924 19.0186ZM151.419 23.9752H153.945L152.714 20.4392H152.682L151.419 23.9752Z" fill="#0B1218"/>
    <path d="M162.753 26.9425C162.753 27.858 162.501 28.5209 161.996 28.9629C161.49 29.4049 160.764 29.6259 159.817 29.6259C159.501 29.6259 159.217 29.5944 158.901 29.5312C158.586 29.4681 158.333 29.3734 158.081 29.2155C157.828 29.0576 157.607 28.8682 157.449 28.6473C157.292 28.3946 157.165 28.1106 157.134 27.7633H158.459C158.491 27.9527 158.555 28.1106 158.649 28.2053C158.743 28.3316 158.839 28.4263 158.964 28.4894C159.091 28.5526 159.217 28.5841 159.375 28.6156C159.533 28.6473 159.691 28.6473 159.849 28.6473C160.385 28.6473 160.764 28.521 161.017 28.2684C161.27 28.0158 161.395 27.637 161.395 27.1318V26.2163H161.364C161.174 26.532 160.922 26.8162 160.606 26.974C160.291 27.1635 159.943 27.2581 159.565 27.2581C159.091 27.2581 158.68 27.1635 158.333 27.0055C157.986 26.8477 157.733 26.6267 157.512 26.311C157.292 25.9953 157.134 25.6796 157.039 25.3007C156.944 24.9219 156.881 24.5115 156.881 24.1011C156.881 23.6906 156.944 23.3118 157.071 22.9645C157.197 22.6172 157.386 22.2699 157.607 22.0174C157.828 21.7649 158.112 21.5123 158.459 21.3544C158.807 21.1966 159.185 21.1018 159.596 21.1018C159.975 21.1018 160.322 21.165 160.638 21.3229C160.953 21.4807 161.206 21.7332 161.364 22.0805H161.395V21.2597H162.721V26.9425H162.753ZM159.849 26.2163C160.133 26.2163 160.385 26.1532 160.606 26.0269C160.796 25.9006 160.985 25.7427 161.111 25.5533C161.238 25.3639 161.333 25.1429 161.395 24.8903C161.458 24.6378 161.49 24.3852 161.49 24.1326C161.49 23.8801 161.458 23.6275 161.395 23.4065C161.333 23.154 161.238 22.9645 161.111 22.7751C160.985 22.5857 160.827 22.4594 160.606 22.3331C160.417 22.2384 160.164 22.1752 159.88 22.1752C159.596 22.1752 159.344 22.2384 159.154 22.3647C158.964 22.491 158.807 22.6488 158.68 22.8382C158.555 23.0277 158.459 23.2487 158.428 23.5012C158.365 23.7538 158.333 24.0063 158.333 24.2589C158.333 24.5115 158.365 24.7325 158.428 24.9851C158.491 25.2061 158.586 25.4271 158.712 25.6164C158.839 25.8059 158.996 25.9637 159.185 26.0584C159.312 26.1532 159.565 26.2163 159.849 26.2163Z" fill="#0B1218"/>
    <path d="M164.111 19.0186H165.437V20.2498H164.111V19.0186ZM164.111 21.2916H165.437V27.2585H164.111V21.2916Z" fill="#0B1218"/>
    <path d="M166.857 21.2916H168.088V22.1756L168.12 22.2072C168.31 21.8915 168.594 21.6074 168.909 21.4179C169.225 21.2285 169.604 21.1338 169.983 21.1338C170.646 21.1338 171.151 21.2916 171.53 21.6389C171.909 21.9862 172.098 22.4914 172.098 23.1543V27.2585H170.772V23.5016C170.772 23.028 170.646 22.6807 170.457 22.4914C170.267 22.3019 169.983 22.1756 169.604 22.1756C169.383 22.1756 169.194 22.2072 169.004 22.3019C168.815 22.3966 168.689 22.4914 168.562 22.6492C168.436 22.807 168.341 22.9649 168.278 23.1543C168.215 23.3437 168.183 23.5647 168.183 23.7542V27.2585H166.857V21.2916Z" fill="#0B1218"/>
    <path d="M179.011 26.9427C179.011 27.8582 178.758 28.5212 178.253 28.9632C177.748 29.4052 177.022 29.6262 176.075 29.6262C175.759 29.6262 175.475 29.5946 175.16 29.5315C174.844 29.4683 174.591 29.3736 174.338 29.2158C174.086 29.0579 173.865 28.8685 173.707 28.6475C173.549 28.3949 173.423 28.1108 173.392 27.7635H174.718C174.749 27.9529 174.812 28.1108 174.907 28.2055C175.002 28.3318 175.096 28.4265 175.223 28.4897C175.349 28.5528 175.475 28.5843 175.633 28.6159C175.791 28.6475 175.949 28.6475 176.107 28.6475C176.644 28.6475 177.022 28.5212 177.275 28.2687C177.527 28.0161 177.654 27.6372 177.654 27.1321V26.2166H177.622C177.433 26.5323 177.18 26.8164 176.865 26.9742C176.548 27.1637 176.201 27.2584 175.822 27.2584C175.349 27.2584 174.939 27.1637 174.591 27.0058C174.244 26.8479 173.991 26.6269 173.77 26.3113C173.549 25.9956 173.392 25.6798 173.297 25.301C173.202 24.9222 173.139 24.5117 173.139 24.1013C173.139 23.6909 173.202 23.3121 173.328 22.9648C173.455 22.6175 173.644 22.2702 173.865 22.0176C174.086 21.7651 174.37 21.5125 174.718 21.3547C175.065 21.1968 175.444 21.1021 175.854 21.1021C176.233 21.1021 176.58 21.1652 176.896 21.3231C177.212 21.481 177.464 21.7335 177.622 22.0808H177.654V21.26H178.979V26.9427H179.011ZM176.075 26.2166C176.359 26.2166 176.612 26.1534 176.833 26.0271C177.022 25.9008 177.212 25.743 177.338 25.5535C177.464 25.3641 177.559 25.1432 177.622 24.8905C177.685 24.638 177.717 24.3854 177.717 24.1329C177.717 23.8803 177.685 23.6277 177.622 23.4067C177.559 23.1542 177.464 22.9648 177.338 22.7753C177.212 22.5859 177.053 22.4596 176.833 22.3333C176.644 22.2386 176.391 22.1755 176.107 22.1755C175.822 22.1755 175.57 22.2386 175.381 22.3649C175.191 22.4912 175.033 22.6491 174.907 22.8385C174.781 23.0279 174.686 23.2489 174.655 23.5014C174.591 23.754 174.559 24.0066 174.559 24.2592C174.559 24.5117 174.591 24.7327 174.655 24.9853C174.718 25.2063 174.812 25.4273 174.939 25.6167C175.065 25.8061 175.223 25.964 175.412 26.0587C175.57 26.1534 175.791 26.2166 176.075 26.2166Z" fill="#0B1218"/>
  </g>
  <defs>
    <clipPath id="clip0_444_53358">
      <rect width="185.958" height="44.63" fill="white" transform="translate(0.492188 0.880371)"/>
    </clipPath>
  </defs>
</svg>