<svg width="181" height="30" viewBox="0 0 181 30" fill="none" xmlns="http://www.w3.org/2000/svg">
<path d="M25.8301 10.9654V19.3947H24.3463V15.6062H20.5263V19.3947H19.0424V10.9654H20.5263V14.3119H24.3779V10.9654H25.8301ZM17.5586 19.3947H16.0748V10.9654H17.5586V19.3947ZM14.6226 19.3947H13.0755L9.22397 13.2069H9.19236V19.3947H7.80325V10.9654H9.3502L13.2018 17.1848H13.2335V10.9654H14.6541V19.3947H14.6226ZM31.0393 15.1642L25.8301 5.72461H6.60359C5.65647 5.72461 4.86719 6.51389 4.86719 7.46101V22.8675C4.86719 23.8146 5.65647 24.6039 6.60359 24.6039H25.7986L31.0393 15.1642Z" fill="black"/>
<path d="M27.0938 24.6049L32.3345 15.1652L27.1253 5.72559H28.4197C29.1458 5.72559 29.9983 6.23072 30.3455 6.86216L34.9233 15.1652L30.3455 23.4683C29.9983 24.0998 29.1458 24.6049 28.4197 24.6049H27.0938Z" fill="black"/>
<path d="M39.7227 11.2188H41.2381L44.9949 17.2803H45.0266V11.2188H46.4157V19.4587H44.9003L41.1434 13.3971H41.1118V19.4587H39.7543V11.2188H39.7227Z" fill="black"/>
<path d="M52.7294 18.1324C52.7294 18.2902 52.761 18.4165 52.7925 18.4797C52.8241 18.5428 52.9188 18.5744 53.0451 18.5744H53.1714C53.2345 18.5744 53.2977 18.5744 53.3608 18.5428V19.4583C53.3293 19.4583 53.2661 19.49 53.1714 19.5215C53.1083 19.5531 53.0135 19.5531 52.9504 19.5846C52.8873 19.5846 52.7925 19.6163 52.7294 19.6163H52.54C52.2558 19.6163 52.0349 19.5531 51.877 19.4583C51.6876 19.3637 51.5929 19.1742 51.5297 18.8901C51.2771 19.1427 50.9614 19.3321 50.551 19.4583C50.1721 19.5846 49.7933 19.6163 49.446 19.6163C49.1619 19.6163 48.9093 19.5846 48.6883 19.5215C48.4358 19.4583 48.2147 19.3321 48.0254 19.2058C47.8359 19.048 47.6781 18.8901 47.5834 18.6691C47.4571 18.4481 47.4255 18.1955 47.4255 17.9114C47.4255 17.5326 47.4886 17.2484 47.6149 16.9959C47.7412 16.7749 47.9307 16.5854 48.1517 16.4591C48.3727 16.3329 48.6252 16.2381 48.8778 16.175C49.1303 16.1118 49.4145 16.0803 49.6986 16.0488C49.9511 16.0171 50.1721 15.9856 50.3931 15.954C50.6141 15.9225 50.8036 15.8908 50.9614 15.8593C51.1193 15.8278 51.2456 15.733 51.3403 15.6383C51.435 15.5436 51.4981 15.3858 51.4981 15.1963C51.4981 15.0385 51.4666 14.8806 51.3719 14.7859C51.2771 14.6912 51.1824 14.5965 51.0561 14.5334C50.9299 14.4702 50.8036 14.4387 50.6457 14.407C50.4879 14.3755 50.3616 14.3755 50.2353 14.3755C49.8565 14.3755 49.5723 14.4387 49.3198 14.5965C49.0672 14.7543 48.9409 14.9753 48.9093 15.3226H47.5834C47.6149 14.9437 47.7097 14.628 47.8675 14.3755C48.0254 14.1229 48.2464 13.9335 48.4989 13.7756C48.7515 13.6178 49.0356 13.5231 49.3513 13.4599C49.667 13.3968 49.9828 13.3652 50.33 13.3652C50.6141 13.3652 50.8983 13.3968 51.1824 13.4599C51.4666 13.5231 51.7192 13.6178 51.9402 13.7756C52.1612 13.9335 52.3505 14.0914 52.4768 14.3124C52.6031 14.5334 52.6978 14.7859 52.6978 15.1016V18.1324H52.7294ZM51.4034 16.4591C51.214 16.5854 50.9614 16.6801 50.6773 16.6801C50.3931 16.7117 50.0775 16.7433 49.7933 16.8064C49.667 16.838 49.5092 16.8696 49.3829 16.9011C49.2566 16.9327 49.1303 16.9959 49.0356 17.059C48.9409 17.1221 48.8462 17.2169 48.8146 17.3431C48.783 17.4694 48.7199 17.5957 48.7199 17.7851C48.7199 17.943 48.7515 18.0692 48.8462 18.164C48.9409 18.2587 49.0356 18.3534 49.1619 18.4165C49.2882 18.4797 49.4145 18.5112 49.5408 18.5428C49.667 18.5744 49.8249 18.5744 49.9196 18.5744C50.0775 18.5744 50.2353 18.5428 50.3931 18.5112C50.551 18.4797 50.7089 18.4165 50.8667 18.3218C51.0246 18.2271 51.1509 18.1009 51.2456 17.9745C51.3403 17.8167 51.4034 17.6589 51.4034 17.4379V16.4591Z" fill="black"/>
<path d="M53.3594 13.491H54.338V11.6914H55.664V13.491H56.8637V14.4696H55.664V17.6583C55.664 17.7845 55.664 17.9108 55.6956 18.0055C55.6956 18.1003 55.7271 18.195 55.7903 18.2581C55.8219 18.3213 55.885 18.3844 55.9798 18.416C56.0744 18.4475 56.1691 18.4791 56.327 18.4791H56.6111C56.7059 18.4791 56.8006 18.4475 56.8953 18.4475V19.4578C56.7374 19.4578 56.6111 19.4894 56.4533 19.4894C56.327 19.4894 56.1691 19.5209 56.0113 19.5209C55.664 19.5209 55.3798 19.4894 55.1905 19.4262C54.9695 19.3631 54.8116 19.2684 54.6853 19.1421C54.559 19.0158 54.4959 18.8579 54.4328 18.6685C54.4012 18.4791 54.3696 18.2581 54.3696 18.0055V14.4696H53.3909V13.491H53.3594Z" fill="black"/>
<path d="M57.6228 11.2188H58.9488V12.45H57.6228V11.2188ZM57.6228 13.4918H58.9488V19.4587H57.6228V13.4918Z" fill="black"/>
<path d="M62.9269 19.6163C62.4533 19.6163 62.0114 19.5531 61.6641 19.3952C61.2852 19.2374 60.9696 19.0164 60.717 18.7322C60.4644 18.4481 60.275 18.1324 60.1171 17.7536C59.9909 17.3747 59.9277 16.9327 59.9277 16.4907C59.9277 16.0488 59.9909 15.6068 60.1171 15.2279C60.2434 14.849 60.4329 14.5017 60.717 14.2492C60.9696 13.9651 61.2852 13.7441 61.6641 13.5862C62.043 13.4284 62.4533 13.3652 62.9269 13.3652C63.4005 13.3652 63.8425 13.4284 64.1897 13.5862C64.5686 13.7441 64.8843 13.9651 65.1369 14.2492C65.3895 14.5334 65.5789 14.849 65.7367 15.2279C65.863 15.6068 65.9262 16.0171 65.9262 16.4907C65.9262 16.9643 65.863 17.3747 65.7367 17.7536C65.6105 18.1324 65.421 18.4797 65.1369 18.7322C64.8843 19.0164 64.5686 19.2374 64.1897 19.3952C63.8109 19.5531 63.4005 19.6163 62.9269 19.6163ZM62.9269 18.5744C63.2111 18.5744 63.4636 18.5112 63.6846 18.385C63.9056 18.2587 64.0635 18.1009 64.2214 17.9114C64.3792 17.722 64.4739 17.501 64.537 17.2484C64.6002 16.9959 64.6317 16.7433 64.6317 16.4907C64.6317 16.2381 64.6002 15.9856 64.537 15.733C64.4739 15.4805 64.3792 15.2595 64.2214 15.07C64.0951 14.8806 63.9056 14.7227 63.6846 14.5965C63.4636 14.4702 63.2111 14.407 62.9269 14.407C62.6428 14.407 62.3903 14.4702 62.1693 14.5965C61.9483 14.7227 61.7904 14.8806 61.6325 15.07C61.5063 15.2595 61.38 15.4805 61.3168 15.733C61.2537 15.9856 61.2222 16.2381 61.2222 16.4907C61.2222 16.7433 61.2537 16.9959 61.3168 17.2484C61.38 17.501 61.4747 17.722 61.6325 17.9114C61.7904 18.1009 61.9483 18.2587 62.1693 18.385C62.3587 18.5112 62.6113 18.5744 62.9269 18.5744Z" fill="black"/>
<path d="M66.8086 13.4918H68.0399V14.3758L68.0715 14.4074C68.2609 14.0917 68.545 13.8076 68.8608 13.6181C69.1764 13.4287 69.5553 13.334 69.9341 13.334C70.5971 13.334 71.1022 13.4918 71.4811 13.8391C71.8597 14.1864 72.0493 14.6916 72.0493 15.3545V19.4587H70.7234V15.7018C70.7234 15.2282 70.5971 14.8809 70.4077 14.6916C70.2183 14.5021 69.9341 14.3758 69.5553 14.3758C69.3343 14.3758 69.1448 14.4074 68.9554 14.5021C68.766 14.5968 68.6398 14.6916 68.5135 14.8494C68.3872 15.0072 68.2925 15.1651 68.2293 15.3545C68.1662 15.5439 68.1346 15.7649 68.1346 15.9544V19.4587H66.8086V13.4918Z" fill="black"/>
<path d="M78.2391 18.1324C78.2391 18.2902 78.2711 18.4165 78.3023 18.4797C78.3343 18.5428 78.4288 18.5744 78.5552 18.5744H78.6809C78.7441 18.5744 78.8074 18.5744 78.8706 18.5428V19.4583C78.8393 19.4583 78.7761 19.49 78.6809 19.5215C78.6184 19.5531 78.5232 19.5531 78.46 19.5846C78.3968 19.5846 78.3023 19.6163 78.2391 19.6163H78.0501C77.766 19.6163 77.5451 19.5531 77.3866 19.4583C77.1977 19.3637 77.1025 19.1742 77.0393 18.8901C76.7871 19.1427 76.471 19.3321 76.0611 19.4583C75.6818 19.5846 75.3032 19.6163 74.9558 19.6163C74.6717 19.6163 74.4195 19.5846 74.1986 19.5215C73.9457 19.4583 73.7248 19.3321 73.5351 19.2058C73.3461 19.048 73.1877 18.8901 73.0932 18.6691C72.9668 18.4481 72.9355 18.1955 72.9355 17.9114C72.9355 17.5326 72.9988 17.2484 73.1245 16.9959C73.2509 16.7749 73.4406 16.5854 73.6615 16.4591C73.8824 16.3329 74.1353 16.2381 74.3875 16.175C74.6404 16.1118 74.9246 16.0803 75.2087 16.0488C75.4609 16.0171 75.6818 15.9856 75.9027 15.954C76.1244 15.9225 76.3133 15.8908 76.471 15.8593C76.6294 15.8278 76.7551 15.733 76.8503 15.6383C76.9448 15.5436 77.008 15.3858 77.008 15.1963C77.008 15.0385 76.9768 14.8806 76.8816 14.7859C76.7871 14.6912 76.6926 14.5965 76.5662 14.5334C76.4397 14.4702 76.3133 14.4387 76.1556 14.407C75.9979 14.3755 75.8715 14.3755 75.745 14.3755C75.3664 14.3755 75.0822 14.4387 74.8293 14.5965C74.5772 14.7543 74.4507 14.9753 74.4195 15.3226H73.0932C73.1245 14.9437 73.2197 14.628 73.3774 14.3755C73.5351 14.1229 73.756 13.9335 74.0089 13.7756C74.2611 13.6178 74.5452 13.5231 74.8613 13.4599C75.1767 13.3968 75.4928 13.3652 75.8402 13.3652C76.1244 13.3652 76.4085 13.3968 76.6926 13.4599C76.9768 13.5231 77.229 13.6178 77.4499 13.7756C77.6708 13.9335 77.8605 14.0914 77.9869 14.3124C78.1134 14.5334 78.2078 14.7859 78.2078 15.1016V18.1324H78.2391ZM76.9448 16.4591C76.7551 16.5854 76.503 16.6801 76.2188 16.6801C75.9347 16.7117 75.6186 16.7433 75.3344 16.8064C75.2087 16.838 75.051 16.8696 74.9246 16.9011C74.7981 16.9327 74.6716 16.9959 74.5772 17.059C74.4827 17.1221 74.3875 17.2169 74.3563 17.3431C74.3243 17.4694 74.2611 17.5957 74.2611 17.7851C74.2611 17.943 74.293 18.0692 74.3875 18.164C74.4827 18.2587 74.5772 18.3534 74.7036 18.4165C74.8293 18.4797 74.9558 18.5112 75.0822 18.5428C75.2087 18.5744 75.3664 18.5744 75.4609 18.5744C75.6186 18.5744 75.777 18.5428 75.9347 18.5112C76.0924 18.4797 76.2501 18.4165 76.4085 18.3218C76.5662 18.2271 76.6926 18.1009 76.7871 17.9745C76.8816 17.8167 76.9448 17.6589 76.9448 17.4379V16.4591Z" fill="black"/>
<path d="M79.502 11.2188H80.8282V19.4587H79.502V11.2188Z" fill="black"/>
<path d="M85.248 11.2188H86.7V19.4587H85.248V11.2188Z" fill="black"/>
<path d="M88.0569 13.4918H89.2879V14.3758L89.3199 14.4074C89.5089 14.0917 89.793 13.8076 90.1091 13.6181C90.4245 13.4287 90.8031 13.334 91.1825 13.334C91.8452 13.334 92.3503 13.4918 92.7289 13.8391C93.1083 14.1864 93.2972 14.6916 93.2972 15.3545V19.4587H91.9717V15.7018C91.9717 15.2282 91.8452 14.8809 91.6556 14.6916C91.4666 14.5021 91.1825 14.3758 90.8031 14.3758C90.5822 14.3758 90.3933 14.4074 90.2036 14.5021C90.0139 14.5968 89.8882 14.6916 89.7618 14.8494C89.6353 15.0072 89.5408 15.1651 89.4776 15.3545C89.4144 15.5439 89.3831 15.7649 89.3831 15.9544V19.4587H88.0569V13.4918Z" fill="black"/>
<path d="M95.4759 17.5329C95.5079 17.9118 95.6656 18.1959 95.9185 18.3537C96.1706 18.5116 96.4868 18.5747 96.8334 18.5747C96.9598 18.5747 97.0863 18.5747 97.244 18.5432C97.4017 18.5116 97.5601 18.48 97.6858 18.4484C97.8123 18.3853 97.9387 18.3222 98.0332 18.2274C98.1284 18.1328 98.1597 17.9749 98.1597 17.8171C98.1597 17.6592 98.0964 17.5013 97.97 17.4066C97.8443 17.3119 97.7178 17.2172 97.5281 17.1541C97.3392 17.0909 97.1495 17.0278 96.8966 16.9962C96.6757 16.9646 96.4236 16.9015 96.2026 16.8383C95.9497 16.7752 95.7288 16.712 95.5079 16.649C95.287 16.5858 95.0661 16.4595 94.9076 16.3332C94.7499 16.207 94.5922 16.049 94.4658 15.8281C94.3713 15.6387 94.3081 15.3861 94.3081 15.0704C94.3081 14.7547 94.3713 14.4706 94.529 14.2496C94.6867 14.0286 94.8764 13.8391 95.1293 13.7128C95.3814 13.5866 95.6343 13.4918 95.9497 13.4287C96.2339 13.3656 96.518 13.334 96.8022 13.334C97.1175 13.334 97.4017 13.3656 97.6858 13.4287C97.97 13.4918 98.2229 13.5866 98.4438 13.7444C98.6647 13.9023 98.8544 14.0917 99.0121 14.3127C99.1698 14.5337 99.265 14.8178 99.2962 15.1651H97.9387C97.8755 14.8494 97.7178 14.6284 97.4969 14.5337C97.276 14.4389 97.0231 14.3758 96.7077 14.3758C96.6125 14.3758 96.518 14.3758 96.3916 14.4074C96.2659 14.4074 96.1394 14.4389 96.0442 14.5021C95.9497 14.5653 95.8233 14.5968 95.7601 14.6916C95.6976 14.7862 95.6343 14.8809 95.6343 15.0072C95.6343 15.1651 95.6976 15.2914 95.792 15.3861C95.9185 15.4808 96.0442 15.5755 96.2339 15.6387C96.4235 15.7018 96.6125 15.7649 96.8654 15.7965C97.0863 15.8281 97.3392 15.8912 97.5914 15.9544C97.8443 16.0175 98.0652 16.0807 98.2861 16.1438C98.507 16.207 98.7279 16.3332 98.9176 16.4595C99.1066 16.5858 99.233 16.7436 99.3595 16.9646C99.4859 17.1541 99.5171 17.4066 99.5171 17.6908C99.5171 18.0381 99.4227 18.3537 99.265 18.6063C99.1066 18.8589 98.8856 19.0483 98.6335 19.2062C98.3806 19.364 98.0964 19.4587 97.781 19.5534C97.4649 19.6166 97.1495 19.6482 96.8334 19.6482C96.4548 19.6482 96.1074 19.6165 95.792 19.5219C95.4759 19.4272 95.1918 19.3009 94.9708 19.143C94.7499 18.9852 94.561 18.7642 94.4026 18.5116C94.2449 18.2591 94.1816 17.9433 94.1816 17.5961H95.4759V17.5329Z" fill="black"/>
<path d="M99.6426 13.491H100.621V11.6914H101.947V13.491H103.147V14.4696H101.947V17.6583C101.947 17.7845 101.947 17.9108 101.979 18.0055C101.979 18.1003 102.01 18.195 102.073 18.2581C102.105 18.3213 102.168 18.3844 102.263 18.416C102.358 18.4475 102.452 18.4791 102.61 18.4791H102.895C102.989 18.4791 103.084 18.4475 103.179 18.4475V19.4578C103.02 19.4578 102.895 19.4894 102.736 19.4894C102.61 19.4894 102.452 19.5209 102.294 19.5209C101.947 19.5209 101.663 19.4894 101.474 19.4262C101.253 19.3631 101.095 19.2684 100.969 19.1421C100.842 19.0158 100.779 18.8579 100.716 18.6685C100.685 18.4791 100.653 18.2581 100.653 18.0055V14.4696H99.6738V13.491H99.6426Z" fill="black"/>
<path d="M103.938 11.2188H105.263V12.45H103.938V11.2188ZM103.938 13.4918H105.263V19.4587H103.938V13.4918Z" fill="black"/>
<path d="M105.863 13.491H106.842V11.6914H108.168V13.491H109.368V14.4696H108.168V17.6583C108.168 17.7845 108.168 17.9108 108.2 18.0055C108.2 18.1003 108.232 18.195 108.295 18.2581C108.326 18.3213 108.389 18.3844 108.484 18.416C108.578 18.4475 108.673 18.4791 108.831 18.4791H109.115C109.21 18.4791 109.305 18.4475 109.399 18.4475V19.4578C109.242 19.4578 109.115 19.4894 108.958 19.4894C108.831 19.4894 108.673 19.5209 108.516 19.5209C108.168 19.5209 107.884 19.4894 107.695 19.4262C107.474 19.3631 107.316 19.2684 107.19 19.1421C107.063 19.0158 107 18.8579 106.937 18.6685C106.905 18.4791 106.874 18.2581 106.874 18.0055V14.4696H105.895V13.491H105.863Z" fill="black"/>
<path d="M115.366 19.4587H114.072V18.6379H114.04C113.882 18.9536 113.63 19.1746 113.314 19.364C112.998 19.5534 112.682 19.6482 112.335 19.6482C111.546 19.6482 110.977 19.4587 110.63 19.0799C110.283 18.701 110.094 18.1011 110.094 17.3119V13.5234H111.42V17.1856C111.42 17.7223 111.514 18.0696 111.735 18.2906C111.925 18.5116 112.209 18.6063 112.588 18.6063C112.872 18.6063 113.093 18.5747 113.283 18.48C113.471 18.3853 113.63 18.2906 113.724 18.1327C113.851 17.9749 113.914 17.8171 113.977 17.6276C114.04 17.4382 114.04 17.2172 114.04 16.9962V13.5234H115.366V19.4587Z" fill="black"/>
<path d="M115.934 13.4919H116.912V11.6924H118.239V13.4919H119.439V14.4706H118.239V17.6593C118.239 17.7855 118.239 17.9118 118.27 18.0065C118.27 18.1013 118.302 18.1959 118.365 18.2591C118.396 18.3222 118.46 18.3854 118.554 18.4169C118.649 18.4485 118.744 18.4801 118.901 18.4801H119.186C119.28 18.4801 119.375 18.4485 119.47 18.4485V19.4587C119.312 19.4587 119.186 19.4904 119.028 19.4904C118.901 19.4904 118.744 19.5219 118.586 19.5219C118.239 19.5219 117.955 19.4904 117.765 19.4272C117.544 19.3641 117.386 19.2694 117.26 19.1431C117.133 19.0168 117.07 18.8589 117.008 18.6695C116.976 18.4801 116.944 18.2591 116.944 18.0065V14.4706H115.966V13.4919H115.934Z" fill="black"/>
<path d="M121.206 16.8061C121.206 17.0272 121.238 17.2482 121.301 17.4692C121.364 17.6902 121.459 17.8795 121.585 18.0374C121.711 18.1953 121.869 18.3215 122.09 18.4163C122.28 18.511 122.532 18.5741 122.816 18.5741C123.195 18.5741 123.511 18.4794 123.732 18.3215C123.953 18.1637 124.142 17.9111 124.269 17.5638H125.5C125.437 17.8795 125.31 18.1637 125.152 18.4163C124.995 18.6688 124.774 18.8898 124.553 19.0476C124.3 19.2055 124.048 19.3634 123.764 19.4265C123.48 19.5212 123.163 19.5528 122.848 19.5528C122.374 19.5528 121.964 19.4896 121.617 19.3318C121.27 19.1739 120.953 18.953 120.701 18.7004C120.448 18.4163 120.259 18.1005 120.133 17.7217C120.007 17.3429 119.943 16.9009 119.943 16.4589C119.943 16.0484 120.007 15.638 120.133 15.2592C120.259 14.8803 120.448 14.533 120.701 14.2489C120.953 13.9648 121.238 13.7438 121.617 13.5544C121.996 13.3649 122.374 13.3018 122.816 13.3018C123.29 13.3018 123.7 13.3965 124.079 13.5859C124.458 13.7754 124.774 14.0279 124.995 14.3752C125.216 14.7225 125.405 15.0698 125.532 15.4801C125.657 15.8906 125.657 16.3326 125.626 16.7746H121.206V16.8061ZM124.269 15.9537C124.269 15.7328 124.206 15.5433 124.142 15.3539C124.079 15.1645 123.985 15.0066 123.827 14.8488C123.7 14.6909 123.543 14.5962 123.353 14.5015C123.163 14.4068 122.974 14.3752 122.754 14.3752C122.532 14.3752 122.311 14.4068 122.122 14.5015C121.932 14.5962 121.775 14.6909 121.648 14.8488C121.522 15.0066 121.395 15.1645 121.333 15.3539C121.238 15.5433 121.206 15.7643 121.206 15.9853H124.269V15.9537Z" fill="black"/>
<path d="M132.541 19.6163C132.067 19.6163 131.625 19.5531 131.278 19.3952C130.899 19.2374 130.583 19.0164 130.33 18.7322C130.078 18.4481 129.888 18.1324 129.731 17.7536C129.604 17.3747 129.541 16.9327 129.541 16.4907C129.541 16.0488 129.604 15.6068 129.731 15.2279C129.857 14.849 130.046 14.5017 130.33 14.2492C130.583 13.9651 130.899 13.7441 131.278 13.5862C131.656 13.4284 132.067 13.3652 132.541 13.3652C133.014 13.3652 133.456 13.4284 133.803 13.5862C134.183 13.7441 134.498 13.9651 134.751 14.2492C135.003 14.5334 135.193 14.849 135.35 15.2279C135.477 15.6068 135.54 16.0171 135.54 16.4907C135.54 16.9643 135.477 17.3747 135.35 17.7536C135.224 18.1324 135.035 18.4797 134.751 18.7322C134.498 19.0164 134.183 19.2374 133.803 19.3952C133.425 19.5531 133.014 19.6163 132.541 19.6163ZM132.541 18.5744C132.824 18.5744 133.077 18.5112 133.298 18.385C133.519 18.2587 133.677 18.1009 133.835 17.9114C133.993 17.722 134.087 17.501 134.151 17.2484C134.214 16.9959 134.245 16.7433 134.245 16.4907C134.245 16.2381 134.214 15.9856 134.151 15.733C134.087 15.4805 133.993 15.2595 133.835 15.07C133.709 14.8806 133.519 14.7227 133.298 14.5965C133.077 14.4702 132.824 14.407 132.541 14.407C132.257 14.407 132.004 14.4702 131.783 14.5965C131.562 14.7227 131.404 14.8806 131.246 15.07C131.12 15.2595 130.994 15.4805 130.93 15.733C130.867 15.9856 130.836 16.2381 130.836 16.4907C130.836 16.7433 130.867 16.9959 130.93 17.2484C130.994 17.501 131.088 17.722 131.246 17.9114C131.404 18.1009 131.562 18.2587 131.783 18.385C132.004 18.5112 132.257 18.5744 132.541 18.5744Z" fill="black"/>
<path d="M136.645 13.4918H137.876V14.3758L137.908 14.4074C138.097 14.0917 138.381 13.8076 138.697 13.6181C139.012 13.4287 139.392 13.334 139.77 13.334C140.433 13.334 140.938 13.4918 141.317 13.8391C141.696 14.1864 141.886 14.6916 141.886 15.3545V19.4587H140.559V15.7018C140.559 15.2282 140.433 14.8809 140.244 14.6916C140.054 14.5021 139.77 14.3758 139.392 14.3758C139.171 14.3758 138.981 14.4074 138.791 14.5021C138.602 14.5968 138.476 14.6916 138.349 14.8494C138.223 15.0072 138.128 15.1651 138.065 15.3545C138.002 15.5439 137.971 15.7649 137.971 15.9544V19.4587H136.645V13.4918Z" fill="black"/>
<path d="M148.862 11.2188H150.408L153.566 19.4587H152.019L151.261 17.2803H147.977L147.22 19.4587H145.736L148.862 11.2188ZM148.357 16.1754H150.882L149.651 12.6394H149.619L148.357 16.1754Z" fill="black"/>
<path d="M159.691 19.1424C159.691 20.0579 159.438 20.7209 158.933 21.1629C158.428 21.6049 157.702 21.8259 156.754 21.8259C156.439 21.8259 156.155 21.7943 155.839 21.7312C155.523 21.668 155.27 21.5733 155.018 21.4155C154.765 21.2576 154.544 21.0682 154.387 20.8472C154.229 20.5946 154.103 20.3105 154.071 19.9632H155.397C155.429 20.1526 155.492 20.3105 155.586 20.4052C155.681 20.5315 155.776 20.6262 155.902 20.6894C156.028 20.7525 156.155 20.7841 156.312 20.8156C156.47 20.8472 156.629 20.8472 156.786 20.8472C157.323 20.8472 157.702 20.7209 157.954 20.4684C158.207 20.2158 158.333 19.8369 158.333 19.3318V18.4163H158.301C158.112 18.732 157.86 19.0161 157.543 19.174C157.228 19.3634 156.881 19.4581 156.502 19.4581C156.028 19.4581 155.618 19.3634 155.27 19.2055C154.924 19.0476 154.671 18.8267 154.45 18.511C154.229 18.1953 154.071 17.8795 153.976 17.5007C153.882 17.1219 153.818 16.7114 153.818 16.301C153.818 15.8906 153.882 15.5118 154.008 15.1645C154.134 14.8172 154.323 14.4699 154.544 14.2173C154.765 13.9648 155.049 13.7122 155.397 13.5544C155.744 13.3965 156.123 13.3018 156.533 13.3018C156.913 13.3018 157.259 13.3649 157.575 13.5228C157.891 13.6807 158.144 13.9332 158.301 14.2805H158.333V13.4597H159.659V19.1424H159.691ZM156.786 18.4163C157.07 18.4163 157.323 18.3531 157.543 18.2268C157.733 18.1005 157.923 17.9427 158.049 17.7532C158.175 17.5638 158.27 17.3429 158.333 17.0903C158.396 16.8377 158.428 16.5851 158.428 16.3326C158.428 16.08 158.396 15.8274 158.333 15.6065C158.27 15.3539 158.175 15.1645 158.049 14.975C157.923 14.7856 157.764 14.6593 157.543 14.533C157.355 14.4383 157.102 14.3752 156.818 14.3752C156.533 14.3752 156.281 14.4383 156.092 14.5646C155.902 14.6909 155.744 14.8488 155.618 15.0382C155.492 15.2276 155.397 15.4486 155.366 15.7011C155.302 15.9537 155.27 16.2063 155.27 16.4589C155.27 16.7114 155.302 16.9324 155.366 17.185C155.429 17.406 155.523 17.627 155.65 17.8164C155.776 18.0058 155.934 18.1637 156.123 18.2584C156.249 18.3531 156.502 18.4163 156.786 18.4163Z" fill="black"/>
<path d="M161.049 11.2188H162.374V12.45H161.049V11.2188ZM161.049 13.4918H162.374V19.4587H161.049V13.4918Z" fill="black"/>
<path d="M163.795 13.4918H165.026V14.3758L165.058 14.4074C165.247 14.0917 165.532 13.8076 165.847 13.6181C166.162 13.4287 166.542 13.334 166.92 13.334C167.583 13.334 168.088 13.4918 168.467 13.8391C168.846 14.1864 169.036 14.6916 169.036 15.3545V19.4587H167.709V15.7018C167.709 15.2282 167.583 14.8809 167.394 14.6916C167.204 14.5021 166.92 14.3758 166.542 14.3758C166.321 14.3758 166.131 14.4074 165.941 14.5021C165.752 14.5968 165.626 14.6916 165.5 14.8494C165.373 15.0072 165.279 15.1651 165.215 15.3545C165.152 15.5439 165.121 15.7649 165.121 15.9544V19.4587H163.795V13.4918Z" fill="black"/>
<path d="M175.949 19.1424C175.949 20.0579 175.696 20.7209 175.191 21.1629C174.686 21.6049 173.96 21.8259 173.013 21.8259C172.697 21.8259 172.413 21.7943 172.097 21.7312C171.781 21.668 171.529 21.5733 171.276 21.4155C171.024 21.2576 170.803 21.0682 170.644 20.8472C170.487 20.5946 170.36 20.3105 170.329 19.9632H171.655C171.687 20.1526 171.75 20.3105 171.844 20.4052C171.939 20.5315 172.034 20.6262 172.16 20.6894C172.287 20.7525 172.413 20.7841 172.57 20.8156C172.729 20.8472 172.886 20.8472 173.044 20.8472C173.581 20.8472 173.96 20.7209 174.213 20.4684C174.465 20.2158 174.591 19.8369 174.591 19.3318V18.4163H174.559C174.37 18.732 174.117 19.0161 173.802 19.174C173.486 19.3634 173.139 19.4581 172.76 19.4581C172.286 19.4581 171.876 19.3634 171.529 19.2055C171.182 19.0476 170.929 18.8267 170.708 18.511C170.487 18.1953 170.329 17.8795 170.235 17.5007C170.139 17.1219 170.076 16.7114 170.076 16.301C170.076 15.8906 170.139 15.5118 170.266 15.1645C170.392 14.8172 170.582 14.4699 170.803 14.2173C171.024 13.9648 171.308 13.7122 171.655 13.5544C172.003 13.3965 172.381 13.3018 172.792 13.3018C173.171 13.3018 173.518 13.3649 173.833 13.5228C174.149 13.6807 174.402 13.9332 174.559 14.2805H174.591V13.4597H175.917V19.1424H175.949ZM173.013 18.4163C173.297 18.4163 173.549 18.3531 173.77 18.2268C173.96 18.1005 174.149 17.9427 174.275 17.7532C174.402 17.5638 174.497 17.3429 174.559 17.0903C174.622 16.8377 174.654 16.5851 174.654 16.3326C174.654 16.08 174.622 15.8274 174.559 15.6065C174.497 15.3539 174.402 15.1645 174.275 14.975C174.149 14.7856 173.991 14.6593 173.77 14.533C173.581 14.4383 173.328 14.3752 173.044 14.3752C172.76 14.3752 172.508 14.4383 172.318 14.5646C172.128 14.6909 171.971 14.8488 171.844 15.0382C171.719 15.2276 171.623 15.4486 171.592 15.7011C171.529 15.9537 171.497 16.2063 171.497 16.4589C171.497 16.7114 171.529 16.9324 171.592 17.185C171.655 17.406 171.75 17.627 171.876 17.8164C172.003 18.0058 172.16 18.1637 172.349 18.2584C172.508 18.3531 172.729 18.4163 173.013 18.4163Z" fill="black"/>
</svg>
