<svg xmlns="http://www.w3.org/2000/svg" width="186" height="67" viewBox="0 0 186 67" fill="none">
  <g clip-path="url(#clip0_444_53307)">
    <path d="M70.2804 33.1738L62.0936 18.5322C61.0441 16.6429 59.7845 15.6457 57.8953 15.6983H55.6387L64.0354 30.8647L65.2949 33.1213L64.0354 35.378L55.5337 50.7019H57.8428C59.6796 50.7544 60.9915 49.7572 62.0411 47.868L70.2804 33.1738Z" fill="#0B1218"/>
    <path d="M53.1722 15.7007H17.0666C15.4922 15.7007 14.2327 16.9602 14.2327 18.5346V33.1762V33.2288V47.8704C14.2327 49.4448 15.4922 50.7043 17.0666 50.7043H53.1198L62.8284 33.1762L53.1722 15.7007ZM32.2855 41.0481H29.3991L22.2095 29.5552V41.0481C22.2095 41.0481 19.4281 41.0481 19.4806 41.0481V25.4094H22.4719L29.6616 36.9548V25.4094H32.2855V41.0481ZM37.7434 41.1006H35.0144V25.4094H37.7434V41.1006ZM50.4958 41.1006V34.0684H43.3062V41.1006H40.5772V25.4094H43.3062V31.6544H50.4433V25.4094H53.1722V41.0481H50.4958V41.1006Z" fill="#0B1218"/>
    <path d="M74.3749 22.8862H75.6869L78.9406 28.1341V22.8862H80.1476V30.0234H78.8357L75.5819 24.7755H75.5295V30.0234H74.3225V22.8862H74.3749Z" fill="#0B1218"/>
    <path d="M85.8134 28.8699C85.8134 29.0274 85.8134 29.1323 85.8659 29.1848C85.9185 29.2373 85.9709 29.2897 86.0759 29.2897C86.1284 29.2897 86.1284 29.2897 86.1808 29.2897C86.2333 29.2897 86.2858 29.2897 86.3382 29.2897V30.077C86.2858 30.077 86.2333 30.1295 86.1808 30.1295C86.1284 30.1295 86.0759 30.1819 85.9709 30.1819C85.9185 30.1819 85.8134 30.1819 85.761 30.2344C85.7085 30.2869 85.656 30.2344 85.6036 30.2344C85.3937 30.2344 85.1837 30.1819 85.0263 30.077C84.8689 29.972 84.7639 29.8145 84.7115 29.6047C84.5015 29.8145 84.1867 29.972 83.8717 30.077C83.5568 30.1819 83.242 30.2344 82.9271 30.2344C82.7172 30.2344 82.4549 30.1819 82.2449 30.1295C82.035 30.077 81.825 29.972 81.6676 29.867C81.5102 29.7621 81.3528 29.6047 81.3002 29.3947C81.1953 29.1848 81.1428 28.9749 81.1428 28.7125C81.1428 28.3977 81.1953 28.1352 81.3002 27.9253C81.4053 27.7153 81.5627 27.5579 81.7725 27.453C81.9825 27.3481 82.1924 27.2431 82.4023 27.1905C82.6647 27.1381 82.8746 27.0856 83.1371 27.0856C83.347 27.0331 83.5568 27.0331 83.7143 26.9807C83.9242 26.9807 84.0816 26.9282 84.1867 26.8757C84.3441 26.8233 84.449 26.7708 84.5015 26.6658C84.554 26.5608 84.6064 26.4559 84.6064 26.2985C84.6064 26.141 84.554 26.036 84.5015 25.9311C84.449 25.8261 84.3441 25.7737 84.2391 25.7212C84.1341 25.6687 84.0292 25.6162 83.8717 25.6162C83.7668 25.6162 83.6094 25.6162 83.5044 25.6162C83.1895 25.6162 82.9271 25.6687 82.7172 25.8261C82.5073 25.9835 82.4023 26.141 82.3498 26.4559H81.4053C81.4053 26.141 81.5102 25.8261 81.6676 25.6162C81.825 25.4063 81.9825 25.1964 82.1924 25.0914C82.4023 24.9339 82.6647 24.8815 82.9271 24.829C83.1895 24.7765 83.5044 24.7241 83.7668 24.7241C84.0292 24.7241 84.2916 24.7765 84.5015 24.829C84.7639 24.8815 84.9738 24.9865 85.1837 25.0914C85.3937 25.1964 85.5511 25.3538 85.656 25.5638C85.761 25.7737 85.8134 25.9835 85.8134 26.246V28.8699ZM84.7115 27.453C84.554 27.5579 84.3441 27.6104 84.0816 27.6629C83.8193 27.6629 83.5568 27.7153 83.2945 27.7678C83.1895 27.7678 83.032 27.8204 82.9271 27.8729C82.8221 27.9253 82.7172 27.9778 82.6123 28.0303C82.5073 28.0827 82.4549 28.1877 82.4023 28.2926C82.3498 28.3977 82.3498 28.5026 82.3498 28.66C82.3498 28.7649 82.4023 28.8699 82.4549 28.9749C82.5073 29.0799 82.6123 29.1323 82.7172 29.1848C82.8221 29.2373 82.9271 29.2897 83.032 29.2897C83.1371 29.2897 83.242 29.3422 83.3469 29.3422C83.4519 29.3422 83.6094 29.3422 83.7668 29.2897C83.9242 29.2373 84.0292 29.1848 84.1867 29.1323C84.2916 29.0274 84.449 28.9749 84.5015 28.8174C84.554 28.66 84.6064 28.5551 84.6064 28.3451V27.453H84.7115Z" fill="#0B1218"/>
    <path d="M86.5491 24.8839H87.3888V23.3096H88.5433V24.8839H89.5929V25.7236H88.5433V28.505C88.5433 28.61 88.5433 28.7149 88.5433 28.8198C88.5433 28.9249 88.5958 28.9773 88.5958 29.0298C88.6482 29.0823 88.7008 29.1348 88.7533 29.1872C88.8057 29.2397 88.9107 29.2397 89.0681 29.2397C89.173 29.2397 89.2255 29.2397 89.3306 29.2397C89.4355 29.2397 89.488 29.2397 89.5929 29.1872V30.0794C89.488 30.0794 89.3305 30.1319 89.2255 30.1319C89.1206 30.1319 88.9632 30.1319 88.8582 30.1319C88.5433 30.1319 88.3334 30.0794 88.1235 30.0268C87.9136 29.9744 87.8086 29.8694 87.7037 29.7645C87.5987 29.6596 87.5463 29.502 87.4937 29.3446C87.4412 29.1872 87.4412 28.9773 87.4412 28.7674V25.7236H86.6016V24.8839H86.5491Z" fill="#0B1218"/>
    <path d="M90.4319 22.8862H91.5865V23.9882H90.4319V22.8862ZM90.4319 24.8804H91.5865V30.0759H90.4319V24.8804Z" fill="#0B1218"/>
    <path d="M95.2084 30.1819C94.7886 30.1819 94.4212 30.1295 94.1063 29.972C93.7914 29.8145 93.5291 29.6571 93.2666 29.3947C93.0567 29.1323 92.8469 28.8699 92.7418 28.5551C92.6369 28.2401 92.5844 27.8729 92.5844 27.453C92.5844 27.0331 92.6369 26.7183 92.7418 26.3509C92.8469 26.036 93.0043 25.7212 93.2666 25.5113C93.4766 25.2489 93.739 25.0914 94.1063 24.9339C94.4736 24.7765 94.7886 24.7241 95.2084 24.7241C95.6282 24.7241 95.9956 24.7765 96.3105 24.9339C96.6253 25.0914 96.8878 25.2489 97.1501 25.5113C97.4126 25.7737 97.57 26.036 97.6749 26.3509C97.7798 26.6658 97.8323 27.0331 97.8323 27.453C97.8323 27.8729 97.7798 28.2401 97.6749 28.5551C97.57 28.8699 97.4126 29.1848 97.1501 29.3947C96.9402 29.6571 96.6778 29.8145 96.3105 29.972C95.9431 30.1295 95.6282 30.1819 95.2084 30.1819ZM95.2084 29.2897C95.4708 29.2897 95.6806 29.2373 95.8906 29.1323C96.1005 29.0274 96.2054 28.8699 96.363 28.7125C96.4679 28.5551 96.5728 28.3452 96.6253 28.1352C96.6778 27.9253 96.7302 27.7153 96.7302 27.453C96.7302 27.2431 96.6778 27.0331 96.6253 26.7708C96.5728 26.5608 96.4679 26.3509 96.363 26.1935C96.2579 26.036 96.1005 25.8786 95.8906 25.7737C95.6806 25.6687 95.4708 25.6162 95.2084 25.6162C94.946 25.6162 94.7361 25.6687 94.5261 25.7737C94.3162 25.8786 94.2113 26.036 94.0539 26.1935C93.9488 26.3509 93.8439 26.5608 93.7914 26.7708C93.739 26.9807 93.6865 27.1905 93.6865 27.453C93.6865 27.6629 93.739 27.9253 93.7914 28.1352C93.8439 28.3452 93.9488 28.5551 94.0539 28.7125C94.1588 28.8699 94.3162 29.0274 94.5261 29.1323C94.7361 29.2373 94.946 29.2897 95.2084 29.2897Z" fill="#0B1218"/>
    <path d="M98.7756 24.8815H99.8777V25.6687C100.035 25.4063 100.297 25.1439 100.56 24.9865C100.822 24.829 101.137 24.7241 101.504 24.7241C102.082 24.7241 102.502 24.8815 102.869 25.1439C103.184 25.4587 103.341 25.8786 103.341 26.4559V30.0244H102.187V26.7708C102.187 26.3509 102.082 26.0886 101.924 25.8786C101.767 25.7212 101.504 25.6162 101.19 25.6162C100.98 25.6162 100.822 25.6687 100.665 25.7212C100.507 25.7737 100.402 25.8786 100.297 26.036C100.193 26.141 100.088 26.2985 100.035 26.4559C99.9826 26.6133 99.9301 26.8233 99.9301 26.9807V30.0244H98.7756V24.8815Z" fill="#0B1218"/>
    <path d="M108.852 28.8699C108.852 29.0274 108.852 29.1323 108.905 29.1848C108.958 29.2373 109.01 29.2897 109.115 29.2897C109.167 29.2897 109.167 29.2897 109.22 29.2897C109.272 29.2897 109.325 29.2897 109.377 29.2897V30.077C109.325 30.077 109.272 30.1295 109.22 30.1295C109.167 30.1295 109.115 30.1819 109.01 30.1819C108.905 30.1819 108.852 30.1819 108.8 30.2344C108.748 30.2344 108.695 30.2344 108.643 30.2344C108.433 30.2344 108.223 30.1819 108.065 30.077C107.908 29.972 107.803 29.8145 107.751 29.6047C107.541 29.8145 107.226 29.972 106.911 30.077C106.596 30.1819 106.281 30.2344 105.966 30.2344C105.756 30.2344 105.494 30.1819 105.284 30.1295C105.074 30.077 104.864 29.972 104.707 29.867C104.549 29.7621 104.392 29.6047 104.339 29.3947C104.234 29.1848 104.182 28.9749 104.182 28.7125C104.182 28.3977 104.234 28.1352 104.339 27.9253C104.444 27.7153 104.602 27.5579 104.812 27.453C105.022 27.3481 105.231 27.2431 105.441 27.1905C105.704 27.1381 105.914 27.0856 106.176 27.0856C106.386 27.0331 106.596 27.0331 106.753 26.9807C106.963 26.9807 107.121 26.9282 107.226 26.8757C107.383 26.8233 107.488 26.7708 107.541 26.6658C107.645 26.5608 107.645 26.4559 107.645 26.2985C107.645 26.141 107.593 26.036 107.541 25.9311C107.488 25.8261 107.383 25.7737 107.278 25.7212C107.173 25.6687 107.068 25.6162 106.911 25.6162C106.806 25.6162 106.648 25.6162 106.544 25.6162C106.229 25.6162 105.966 25.6687 105.756 25.8261C105.546 25.9835 105.441 26.141 105.389 26.4559H104.234C104.234 26.141 104.339 25.8261 104.497 25.6162C104.654 25.4063 104.812 25.1964 105.022 25.0914C105.231 24.9339 105.494 24.8815 105.756 24.829C106.019 24.7765 106.334 24.7241 106.596 24.7241C106.858 24.7241 107.121 24.7765 107.331 24.829C107.593 24.8815 107.803 24.9865 108.013 25.0914C108.223 25.1964 108.38 25.3538 108.485 25.5638C108.59 25.7737 108.643 25.9835 108.643 26.246V28.8699H108.852ZM107.698 27.453C107.541 27.5579 107.331 27.6104 107.068 27.6629C106.806 27.6629 106.544 27.7153 106.281 27.7678C106.176 27.7678 106.019 27.8204 105.914 27.8729C105.809 27.9253 105.704 27.9778 105.599 28.0303C105.494 28.0827 105.441 28.1877 105.389 28.2926C105.336 28.3977 105.336 28.5026 105.336 28.66C105.336 28.7649 105.389 28.8699 105.441 28.9749C105.494 29.0799 105.599 29.1323 105.704 29.1848C105.809 29.2373 105.914 29.2897 106.019 29.2897C106.124 29.2897 106.229 29.3422 106.334 29.3422C106.438 29.3422 106.596 29.3422 106.753 29.2897C106.911 29.2373 107.016 29.1848 107.173 29.1323C107.278 29.0274 107.436 28.9749 107.488 28.8174C107.541 28.66 107.593 28.5551 107.593 28.3451V27.453H107.698Z" fill="#0B1218"/>
    <path d="M110.112 22.8862H111.266V30.0234H110.112V22.8862Z" fill="#0B1218"/>
    <path d="M115.412 22.8862H116.673V25.72H119.926V22.8862H121.185V30.0234H119.926V26.8221H116.673V30.0234H115.412V22.8862Z" fill="#0B1218"/>
    <path d="M123.388 27.7668C123.388 27.9766 123.441 28.1865 123.493 28.344C123.546 28.5539 123.651 28.7113 123.756 28.8163C123.86 28.9738 124.017 29.0787 124.175 29.1312C124.332 29.2361 124.543 29.2361 124.805 29.2361C125.12 29.2361 125.383 29.1836 125.592 29.0262C125.802 28.8687 125.959 28.6588 126.064 28.3965H127.167C127.115 28.6588 127.01 28.9213 126.852 29.1312C126.694 29.3411 126.537 29.551 126.327 29.7084C126.117 29.8659 125.907 29.9708 125.644 30.0234C125.383 30.0758 125.12 30.1283 124.858 30.1283C124.438 30.1283 124.07 30.0758 123.756 29.9183C123.441 29.7609 123.178 29.6035 122.968 29.3411C122.758 29.0787 122.601 28.8163 122.496 28.5014C122.391 28.1865 122.338 27.8192 122.338 27.3994C122.338 27.032 122.391 26.6647 122.496 26.3498C122.601 26.0348 122.758 25.72 123.021 25.4577C123.283 25.1952 123.493 24.9853 123.808 24.8803C124.122 24.7229 124.438 24.6704 124.858 24.6704C125.278 24.6704 125.644 24.7754 125.959 24.9329C126.274 25.0903 126.537 25.3526 126.747 25.6151C126.957 25.8774 127.115 26.1924 127.22 26.5596C127.325 26.927 127.325 27.2944 127.272 27.6617H123.388V27.7668ZM126.064 26.9795C126.064 26.8221 126.012 26.6122 125.959 26.4547C125.907 26.2973 125.802 26.1399 125.697 26.0348C125.592 25.9299 125.435 25.825 125.278 25.72C125.12 25.6676 124.963 25.6151 124.753 25.6151C124.543 25.6151 124.385 25.6676 124.227 25.72C124.07 25.7725 123.912 25.8774 123.808 26.0348C123.703 26.1399 123.598 26.2973 123.546 26.4547C123.493 26.6122 123.441 26.8221 123.441 26.9795H126.064Z" fill="#0B1218"/>
    <path d="M132.415 28.8699C132.415 29.0274 132.415 29.1323 132.467 29.1848C132.52 29.2373 132.572 29.2897 132.677 29.2897C132.73 29.2897 132.73 29.2897 132.782 29.2897C132.835 29.2897 132.887 29.2897 132.94 29.2897V30.077C132.887 30.077 132.835 30.1295 132.782 30.1295C132.73 30.1295 132.677 30.1819 132.572 30.1819C132.467 30.1819 132.415 30.1819 132.362 30.2344C132.31 30.2869 132.257 30.2344 132.205 30.2344C131.995 30.2344 131.784 30.1819 131.628 30.077C131.471 29.972 131.365 29.8145 131.313 29.6047C131.103 29.8145 130.788 29.972 130.473 30.077C130.158 30.1819 129.844 30.2344 129.529 30.2344C129.319 30.2344 129.056 30.1819 128.846 30.1295C128.636 30.077 128.426 29.972 128.268 29.867C128.112 29.7621 127.954 29.6047 127.902 29.3947C127.797 29.1848 127.744 28.9749 127.744 28.7125C127.744 28.3977 127.797 28.1352 127.902 27.9253C128.007 27.7153 128.164 27.5579 128.373 27.453C128.583 27.3481 128.794 27.2431 129.004 27.1905C129.266 27.1381 129.476 27.0856 129.739 27.0856C129.949 27.0331 130.158 27.0331 130.315 26.9807C130.525 26.9807 130.683 26.9282 130.788 26.8757C130.945 26.8233 131.05 26.7708 131.103 26.6658C131.155 26.5608 131.208 26.4559 131.208 26.2985C131.208 26.141 131.155 26.036 131.103 25.9311C131.05 25.8261 130.945 25.7737 130.84 25.7212C130.735 25.6687 130.63 25.6162 130.473 25.6162C130.368 25.6162 130.21 25.6162 130.105 25.6162C129.791 25.6162 129.529 25.6687 129.319 25.8261C129.109 25.9835 129.004 26.141 128.951 26.4559H127.797C127.797 26.141 127.902 25.8261 128.059 25.6162C128.217 25.4063 128.373 25.1964 128.583 25.0914C128.793 24.9339 129.056 24.8815 129.319 24.829C129.581 24.7765 129.896 24.7241 130.158 24.7241C130.42 24.7241 130.683 24.7765 130.893 24.829C131.155 24.8815 131.365 24.9865 131.576 25.0914C131.784 25.1964 131.942 25.3538 132.047 25.5638C132.152 25.7737 132.205 25.9835 132.205 26.246V28.8699H132.415ZM131.26 27.453C131.103 27.5579 130.893 27.6104 130.63 27.6629C130.368 27.6629 130.105 27.7153 129.844 27.7678C129.739 27.7678 129.581 27.8204 129.476 27.8729C129.371 27.9253 129.266 27.9778 129.161 28.0303C129.056 28.0827 129.004 28.1877 128.951 28.2926C128.899 28.3977 128.899 28.5026 128.899 28.66C128.899 28.7649 128.951 28.8699 129.004 28.9749C129.056 29.0799 129.161 29.1323 129.266 29.1848C129.371 29.2373 129.476 29.2897 129.581 29.2897C129.686 29.2897 129.791 29.3422 129.896 29.3422C130 29.3422 130.158 29.3422 130.315 29.2897C130.473 29.2373 130.578 29.1848 130.735 29.1323C130.84 29.0274 130.998 28.9749 131.05 28.8174C131.155 28.7125 131.155 28.5551 131.155 28.3451V27.453H131.26Z" fill="#0B1218"/>
    <path d="M133.674 24.8815H134.723V25.8786C134.775 25.7212 134.828 25.6162 134.933 25.4587C135.038 25.3013 135.143 25.1964 135.301 25.0914C135.458 24.9865 135.616 24.8815 135.773 24.829C135.93 24.7765 136.087 24.7241 136.297 24.7241C136.455 24.7241 136.507 24.7241 136.56 24.7241C136.612 24.7241 136.665 24.7241 136.717 24.7241V25.8261C136.612 25.8261 136.56 25.8261 136.455 25.7737C136.35 25.7737 136.297 25.7737 136.192 25.7737C135.982 25.7737 135.825 25.8261 135.668 25.8786C135.511 25.9311 135.353 26.0886 135.248 26.1935C135.143 26.3509 135.038 26.5083 134.933 26.7708C134.881 26.9807 134.828 27.2431 134.828 27.5579V30.0244H133.674V24.8815Z" fill="#0B1218"/>
    <path d="M136.666 24.8839H137.506V23.3096H138.661V24.8839H139.71V25.7236H138.661V28.505C138.661 28.61 138.661 28.7149 138.661 28.8198C138.661 28.9249 138.713 28.9773 138.713 29.0298C138.766 29.0823 138.818 29.1348 138.871 29.1872C138.923 29.2397 139.028 29.2397 139.186 29.2397C139.291 29.2397 139.343 29.2397 139.447 29.2397C139.552 29.2397 139.605 29.2397 139.71 29.1872V30.0794C139.605 30.0794 139.447 30.1319 139.343 30.1319C139.238 30.1319 139.081 30.1319 138.976 30.1319C138.661 30.1319 138.451 30.0794 138.241 30.0268C138.03 29.9744 137.925 29.8694 137.82 29.7645C137.715 29.6596 137.663 29.502 137.611 29.3446C137.559 29.1872 137.559 28.9773 137.559 28.7674V25.7236H136.719V24.8839H136.666Z" fill="#0B1218"/>
    <path d="M140.602 28.7134H142.019V30.0779C142.019 30.4977 141.861 30.8651 141.651 31.1275C141.441 31.3899 141.073 31.5998 140.654 31.6523V31.0225C140.864 30.97 141.021 30.8651 141.126 30.6551C141.231 30.4452 141.283 30.2878 141.283 30.0254H140.602V28.7134Z" fill="#0B1218"/>
    <path d="M146.27 22.8862H147.53V28.9738H151.151V30.0759H146.27V22.8862Z" fill="#0B1218"/>
    <path d="M156.399 30.024H155.296V29.3418C155.139 29.6041 154.929 29.8141 154.667 29.9715C154.404 30.1289 154.089 30.1814 153.827 30.1814C153.144 30.1814 152.673 30.024 152.358 29.6567C152.043 29.3418 151.885 28.817 151.885 28.1348V24.8286H153.04V28.0298C153.04 28.5022 153.144 28.817 153.302 28.9744C153.459 29.1844 153.722 29.2368 154.037 29.2368C154.299 29.2368 154.457 29.1844 154.615 29.1319C154.772 29.0794 154.929 28.9744 154.981 28.817C155.034 28.6596 155.139 28.5546 155.191 28.3971C155.244 28.2397 155.244 28.0298 155.244 27.8198V24.8286H156.399V30.024Z" fill="#0B1218"/>
    <path d="M157.606 24.8815H158.707V25.6687C158.865 25.4063 159.127 25.1439 159.39 24.9865C159.653 24.829 159.967 24.7241 160.334 24.7241C160.912 24.7241 161.332 24.8815 161.698 25.1439C162.013 25.4587 162.171 25.8786 162.171 26.4559V30.0244H161.017V26.7708C161.017 26.3509 160.912 26.0886 160.754 25.8786C160.597 25.7212 160.334 25.6162 160.019 25.6162C159.809 25.6162 159.653 25.6687 159.495 25.7212C159.338 25.7737 159.232 25.8786 159.127 26.036C159.022 26.141 158.917 26.2985 158.865 26.4559C158.812 26.6133 158.76 26.8233 158.76 26.9807V30.0244H157.606V24.8815Z" fill="#0B1218"/>
    <path d="M168.101 29.7614C168.101 30.5486 167.891 31.1259 167.418 31.4932C166.999 31.8606 166.369 32.0704 165.53 32.0704C165.267 32.0704 165.005 32.018 164.742 31.9655C164.479 31.913 164.217 31.8081 164.007 31.7031C163.798 31.5981 163.588 31.3882 163.483 31.1783C163.378 30.9684 163.273 30.706 163.22 30.3911H164.374C164.427 30.5486 164.479 30.706 164.532 30.7585C164.637 30.8634 164.69 30.9159 164.795 30.9684C164.9 31.0208 165.005 31.0734 165.162 31.0734C165.32 31.0734 165.425 31.0734 165.582 31.0734C166.054 31.0734 166.369 30.9684 166.579 30.7585C166.789 30.5486 166.894 30.1812 166.894 29.7614V28.9742C166.736 29.2366 166.526 29.499 166.264 29.6564C166.001 29.8138 165.686 29.9189 165.372 29.9189C164.952 29.9189 164.584 29.8663 164.322 29.7089C164.007 29.5515 163.798 29.3941 163.588 29.1316C163.378 28.8693 163.273 28.6068 163.168 28.2395C163.063 27.9246 163.063 27.5572 163.063 27.1899C163.063 26.8225 163.115 26.5077 163.22 26.1928C163.325 25.878 163.483 25.6155 163.693 25.3532C163.902 25.0907 164.112 24.9333 164.427 24.7759C164.742 24.6184 165.057 24.5659 165.425 24.5659C165.739 24.5659 166.054 24.6184 166.316 24.7759C166.579 24.9333 166.789 25.1432 166.946 25.4056V24.6709H168.101V29.7614ZM165.582 29.1316C165.844 29.1316 166.054 29.0791 166.211 28.9742C166.369 28.8693 166.526 28.7118 166.631 28.5543C166.736 28.3969 166.841 28.1871 166.894 27.9771C166.946 27.7672 166.946 27.5572 166.946 27.3473C166.946 27.1375 166.894 26.9275 166.841 26.7176C166.789 26.5077 166.684 26.3502 166.579 26.1928C166.474 26.0354 166.316 25.9304 166.159 25.8254C166.001 25.7205 165.791 25.668 165.53 25.668C165.267 25.668 165.057 25.7205 164.9 25.8254C164.742 25.9304 164.584 26.0879 164.479 26.2453C164.374 26.4027 164.269 26.6127 164.269 26.8225C164.217 27.0324 164.217 27.2424 164.217 27.4523C164.217 27.6623 164.269 27.8721 164.322 28.082C164.374 28.292 164.479 28.4494 164.585 28.6068C164.69 28.7643 164.847 28.9217 165.005 28.9742C165.162 29.0791 165.372 29.1316 165.582 29.1316Z" fill="#0B1218"/>
    <path d="M169.362 28.7134H170.778V30.0779C170.778 30.4977 170.621 30.8651 170.411 31.1275C170.201 31.3899 169.834 31.5998 169.414 31.6523V31.0225C169.624 30.97 169.782 30.8651 169.886 30.6551C169.991 30.4452 170.043 30.2878 170.043 30.0254H169.362V28.7134Z" fill="#0B1218"/>
    <path d="M78.622 40.889C78.622 41.0464 78.622 41.1514 78.6745 41.2038C78.7269 41.2564 78.7795 41.3089 78.8844 41.3089C78.9369 41.3089 78.9369 41.3089 78.9894 41.3089C79.0419 41.3089 79.0943 41.3089 79.1468 41.3089V42.096C79.0943 42.096 79.0419 42.1485 78.9894 42.1485C78.9369 42.1485 78.8844 42.201 78.7795 42.201C78.7269 42.201 78.622 42.201 78.5695 42.2534C78.5171 42.3059 78.4646 42.2534 78.4121 42.2534C78.2022 42.2534 77.9923 42.201 77.8348 42.096C77.6774 41.9911 77.5724 41.8337 77.5199 41.6237C77.31 41.8337 76.9951 41.9911 76.6803 42.096C76.3654 42.201 76.0506 42.2534 75.7356 42.2534C75.5258 42.2534 75.2633 42.201 75.0534 42.1485C74.8436 42.096 74.6336 41.9911 74.4762 41.8861C74.3188 41.7811 74.1613 41.6237 74.1088 41.4138C74.0038 41.2038 73.9514 40.994 73.9514 40.7316C73.9514 40.4167 74.0038 40.1543 74.1088 39.9444C74.2138 39.7345 74.3712 39.5771 74.5811 39.472C74.7911 39.3671 75.001 39.2621 75.2108 39.2097C75.4733 39.1572 75.6832 39.1047 75.9456 39.1047C76.1555 39.0523 76.3654 39.0523 76.5229 38.9998C76.7328 38.9998 76.8902 38.9472 76.9951 38.8948C77.1526 38.8423 77.2576 38.7898 77.31 38.6849C77.3625 38.5799 77.415 38.475 77.415 38.3175C77.415 38.1601 77.3625 38.0551 77.31 37.9502C77.2576 37.8453 77.1526 37.7927 77.0477 37.7402C76.9427 37.6877 76.8377 37.6353 76.6803 37.6353C76.5754 37.6353 76.4179 37.6353 76.3129 37.6353C75.9981 37.6353 75.7356 37.6877 75.5258 37.8453C75.3159 38.0027 75.2108 38.1601 75.1584 38.475H74.0038C74.0038 38.1601 74.1088 37.8453 74.2663 37.6353C74.4237 37.4254 74.5811 37.2154 74.7911 37.1105C75.001 36.9531 75.2633 36.9006 75.5258 36.8481C75.7881 36.7957 76.103 36.7432 76.3654 36.7432C76.6278 36.7432 76.8902 36.7957 77.1002 36.8481C77.3625 36.9006 77.5724 37.0055 77.7824 37.1105C77.9923 37.2154 78.1498 37.3729 78.2547 37.5828C78.3596 37.7927 78.4121 38.0027 78.4121 38.265V40.889H78.622ZM77.4675 39.472C77.31 39.5771 77.1002 39.6295 76.8377 39.682C76.5754 39.682 76.3129 39.7345 76.0506 39.7869C75.9456 39.7869 75.7881 39.8394 75.6832 39.8919C75.5782 39.9444 75.4733 39.9968 75.3684 40.0493C75.2633 40.1019 75.2108 40.2068 75.1584 40.3117C75.1059 40.4167 75.1059 40.5216 75.1059 40.679C75.1059 40.7841 75.1584 40.889 75.2108 40.994C75.2633 41.0989 75.3684 41.1514 75.4733 41.2038C75.5782 41.2564 75.6832 41.3089 75.7881 41.3089C75.8932 41.3089 75.9981 41.3613 76.103 41.3613C76.208 41.3613 76.3654 41.3613 76.5229 41.3089C76.6803 41.2564 76.7852 41.2038 76.9427 41.1514C77.0477 41.0464 77.2051 40.994 77.2576 40.8365C77.31 40.679 77.3625 40.5741 77.3625 40.3642V39.472H77.4675Z" fill="#0B1218"/>
    <path d="M79.8303 36.9006H80.9324V37.6877C81.0898 37.4254 81.3522 37.1629 81.6146 37.0055C81.877 36.8481 82.1919 36.7432 82.5593 36.7432C83.1365 36.7432 83.5564 36.9006 83.9237 37.1629C84.2386 37.4779 84.396 37.8977 84.396 38.475V42.0436H83.2415V38.7898C83.2415 38.3701 83.1365 38.1076 82.9791 37.8977C82.8217 37.7402 82.5593 37.6353 82.2443 37.6353C82.0345 37.6353 81.877 37.6877 81.7195 37.7402C81.5621 37.7927 81.4572 37.8977 81.3522 38.0551C81.2473 38.1601 81.1424 38.3175 81.0898 38.475C81.0373 38.6324 80.9849 38.8423 80.9849 38.9998V42.0436H79.8303V36.9006Z" fill="#0B1218"/>
    <path d="M90.4831 42.0393H89.381V41.3571C89.2236 41.672 89.0136 41.8819 88.6988 41.9868C88.3839 42.0917 88.0691 42.1968 87.7541 42.1968C87.3343 42.1968 86.967 42.1442 86.7045 41.9868C86.4422 41.8294 86.1273 41.672 85.9699 41.4095C85.8125 41.1472 85.6025 40.8847 85.4975 40.5174C85.3926 40.2025 85.3401 39.8351 85.3401 39.4154C85.3401 38.943 85.3926 38.5232 85.55 38.2084C85.6549 37.8934 85.8649 37.5785 86.0748 37.3686C86.2848 37.1588 86.5471 37.0012 86.8095 36.8963C87.0719 36.7914 87.3343 36.7389 87.6492 36.7389C87.8066 36.7389 87.964 36.7389 88.1215 36.7914C88.2789 36.8438 88.4364 36.8438 88.5939 36.9488C88.7513 37.0012 88.9087 37.1063 89.0136 37.2112C89.1187 37.3162 89.2761 37.4211 89.3285 37.5785V34.9546H90.4831V42.0393ZM86.4947 39.5203C86.4947 39.7302 86.5471 39.9402 86.5996 40.15C86.6521 40.3599 86.757 40.5699 86.8621 40.7273C86.967 40.8847 87.1244 41.0422 87.2818 41.1472C87.4393 41.2521 87.7017 41.3046 87.9116 41.3046C88.174 41.3046 88.3839 41.2521 88.5939 41.1472C88.7513 41.0422 88.9087 40.8847 89.0661 40.7273C89.2236 40.5699 89.2761 40.3599 89.3285 40.15C89.381 39.9402 89.4335 39.7302 89.4335 39.4678C89.4335 38.8906 89.3285 38.4707 89.0661 38.1033C88.8037 37.7885 88.4364 37.6311 88.0166 37.6311C87.7541 37.6311 87.5443 37.6836 87.3343 37.7885C87.1244 37.8934 87.0195 38.0508 86.8621 38.2084C86.757 38.3658 86.6521 38.5756 86.5996 38.7856C86.4947 39.048 86.4947 39.3104 86.4947 39.5203Z" fill="#0B1218"/>
    <path d="M94.6284 34.9055H98.092C98.7218 34.9055 99.2466 35.0629 99.614 35.3254C99.9814 35.5877 100.191 36.06 100.191 36.6373C100.191 37.0047 100.086 37.3195 99.9288 37.582C99.7714 37.8443 99.509 38.0543 99.1941 38.1592C99.614 38.2642 99.9814 38.4741 100.191 38.789C100.401 39.1039 100.506 39.5237 100.506 39.996C100.506 40.2584 100.454 40.5208 100.349 40.7831C100.244 41.0456 100.086 41.2555 99.8763 41.413C99.6664 41.5704 99.404 41.7278 99.0367 41.8327C98.7218 41.9377 98.302 41.9902 97.8297 41.9902H94.5235V34.9055H94.6284ZM95.8879 37.8968H97.9346C98.2494 37.8968 98.4594 37.7918 98.6693 37.6344C98.8793 37.477 98.9842 37.2146 98.9842 36.8998C98.9842 36.5324 98.8793 36.27 98.7218 36.1125C98.5644 35.9551 98.302 35.9026 97.9346 35.9026H95.8879V37.8968ZM95.8879 41.0456H98.092C98.4594 41.0456 98.7742 40.9406 98.9842 40.7307C99.1941 40.5208 99.2991 40.2584 99.2991 39.891C99.2991 39.5237 99.1941 39.2613 98.9842 39.0513C98.7742 38.8414 98.4594 38.789 98.092 38.789H95.8879V41.0456Z" fill="#0B1218"/>
    <path d="M101.557 34.9053H102.711V42.0424H101.557V34.9053Z" fill="#0B1218"/>
    <path d="M106.331 42.201C105.911 42.201 105.544 42.1485 105.229 41.9911C104.914 41.8337 104.652 41.6762 104.389 41.4138C104.179 41.1514 103.97 40.889 103.865 40.5741C103.76 40.2593 103.707 39.8919 103.707 39.472C103.707 39.0523 103.76 38.7373 103.865 38.37C103.97 38.0551 104.127 37.7402 104.389 37.5303C104.652 37.3205 104.862 37.1105 105.229 36.9531C105.596 36.7957 105.911 36.7432 106.331 36.7432C106.751 36.7432 107.118 36.7957 107.433 36.9531C107.748 37.1105 108.01 37.268 108.273 37.5303C108.535 37.7927 108.693 38.0551 108.798 38.37C108.902 38.6849 108.955 39.0523 108.955 39.472C108.955 39.8919 108.902 40.2593 108.798 40.5741C108.693 40.889 108.535 41.2038 108.273 41.4138C108.063 41.6762 107.801 41.8337 107.433 41.9911C107.118 42.1485 106.751 42.201 106.331 42.201ZM106.331 41.3089C106.594 41.3089 106.803 41.2564 107.013 41.1514C107.223 41.0464 107.328 40.889 107.486 40.7316C107.591 40.5741 107.695 40.3642 107.748 40.1543C107.801 39.9444 107.853 39.7345 107.853 39.472C107.853 39.2621 107.801 39.0523 107.748 38.7898C107.695 38.5799 107.591 38.3701 107.486 38.2125C107.381 38.0551 107.223 37.8977 107.013 37.7927C106.803 37.6877 106.594 37.6353 106.331 37.6353C106.069 37.6353 105.859 37.6877 105.649 37.7927C105.439 37.8977 105.334 38.0551 105.177 38.2125C105.072 38.3701 104.967 38.5799 104.914 38.7898C104.862 38.9998 104.809 39.2097 104.809 39.472C104.809 39.682 104.862 39.9444 104.914 40.1543C104.967 40.3642 105.072 40.5741 105.177 40.7316C105.281 40.889 105.439 41.0464 105.649 41.1514C105.859 41.2564 106.069 41.3089 106.331 41.3089Z" fill="#0B1218"/>
    <path d="M112.262 42.201C111.843 42.201 111.476 42.1485 111.161 41.9911C110.846 41.8337 110.583 41.6762 110.322 41.4138C110.112 41.1514 109.901 40.889 109.796 40.5741C109.691 40.2593 109.639 39.8919 109.639 39.472C109.639 39.0523 109.691 38.7373 109.796 38.37C109.901 38.0551 110.059 37.7402 110.322 37.5303C110.583 37.3205 110.793 37.1105 111.161 36.9531C111.528 36.7957 111.843 36.7432 112.262 36.7432C112.682 36.7432 113.05 36.7957 113.365 36.9531C113.68 37.1105 113.943 37.268 114.204 37.5303C114.467 37.7927 114.624 38.0551 114.729 38.37C114.834 38.6849 114.887 39.0523 114.887 39.472C114.887 39.8919 114.834 40.2593 114.729 40.5741C114.624 40.889 114.467 41.2038 114.204 41.4138C113.994 41.6762 113.733 41.8337 113.365 41.9911C113.05 42.1485 112.682 42.201 112.262 42.201ZM112.262 41.3089C112.525 41.3089 112.735 41.2564 112.945 41.1514C113.155 41.0464 113.26 40.889 113.418 40.7316C113.523 40.5741 113.628 40.3642 113.68 40.1543C113.733 39.9444 113.785 39.7345 113.785 39.472C113.785 39.2621 113.733 39.0523 113.68 38.7898C113.628 38.5799 113.523 38.3701 113.418 38.2125C113.313 38.0551 113.155 37.8977 112.945 37.7927C112.735 37.6877 112.525 37.6353 112.262 37.6353C112.001 37.6353 111.791 37.6877 111.581 37.7927C111.371 37.8977 111.266 38.0551 111.108 38.2125C111.003 38.3701 110.898 38.5799 110.846 38.7898C110.793 38.9998 110.741 39.2097 110.741 39.472C110.741 39.682 110.793 39.9444 110.846 40.1543C110.898 40.3642 111.003 40.5741 111.108 40.7316C111.213 40.889 111.371 41.0464 111.581 41.1514C111.791 41.2564 112.001 41.3089 112.262 41.3089Z" fill="#0B1218"/>
    <path d="M120.712 42.0393H119.61V41.3571C119.452 41.672 119.242 41.8819 118.927 41.9868C118.612 42.0917 118.297 42.1968 117.983 42.1968C117.563 42.1968 117.195 42.1442 116.933 41.9868C116.67 41.8294 116.355 41.672 116.199 41.4095C116.041 41.1472 115.831 40.8847 115.726 40.5174C115.621 40.2025 115.569 39.8351 115.569 39.4154C115.569 38.943 115.621 38.5232 115.779 38.2084C115.884 37.8934 116.094 37.5785 116.303 37.3686C116.513 37.1588 116.775 37.0012 117.038 36.8963C117.3 36.7914 117.563 36.7389 117.878 36.7389C118.034 36.7389 118.192 36.7389 118.35 36.7914C118.507 36.8438 118.665 36.8438 118.822 36.9488C118.98 37.0012 119.137 37.1063 119.242 37.2112C119.347 37.3162 119.505 37.4211 119.557 37.5785V34.9546H120.712V42.0393ZM116.723 39.5203C116.723 39.7302 116.775 39.9402 116.828 40.15C116.88 40.3599 116.985 40.5699 117.09 40.7273C117.195 40.8847 117.353 41.0422 117.51 41.1472C117.668 41.2521 117.931 41.3046 118.14 41.3046C118.402 41.3046 118.612 41.2521 118.822 41.1472C118.98 41.0422 119.137 40.8847 119.295 40.7273C119.452 40.5699 119.505 40.3599 119.557 40.15C119.61 39.9402 119.662 39.7302 119.662 39.4678C119.662 38.8906 119.557 38.4707 119.295 38.1033C119.032 37.7885 118.665 37.6311 118.245 37.6311C117.983 37.6311 117.773 37.6836 117.563 37.7885C117.405 37.8934 117.248 38.0508 117.09 38.2084C116.985 38.3658 116.88 38.5756 116.828 38.7856C116.775 39.048 116.723 39.3104 116.723 39.5203Z" fill="#0B1218"/>
    <path d="M124.908 34.9053H126.168V42.0424H124.908V34.9053Z" fill="#0B1218"/>
    <path d="M127.531 36.9006H128.634V37.6877C128.792 37.4254 129.054 37.1629 129.316 37.0055C129.578 36.8481 129.893 36.7432 130.261 36.7432C130.839 36.7432 131.258 36.9006 131.625 37.1629C131.94 37.4779 132.098 37.8977 132.098 38.475V42.0436H130.943V38.7898C130.943 38.3701 130.839 38.1076 130.681 37.8977C130.524 37.7402 130.261 37.6353 129.946 37.6353C129.736 37.6353 129.578 37.6877 129.421 37.7402C129.263 37.7927 129.159 37.8977 129.054 38.0551C128.949 38.1601 128.844 38.3175 128.792 38.475C128.739 38.6324 128.687 38.8423 128.687 38.9998V42.0436H127.531V36.9006Z" fill="#0B1218"/>
    <path d="M134.145 40.4155C134.197 40.7303 134.302 40.9928 134.512 41.0977C134.723 41.2551 134.984 41.3076 135.299 41.3076C135.404 41.3076 135.509 41.3076 135.667 41.3076C135.824 41.3076 135.929 41.2551 136.034 41.2026C136.139 41.1502 136.244 41.0977 136.349 40.9928C136.402 40.8877 136.454 40.7828 136.454 40.6254C136.454 40.468 136.402 40.363 136.297 40.258C136.192 40.153 136.087 40.1006 135.929 40.0481C135.772 39.9956 135.614 39.9432 135.404 39.8907C135.194 39.8382 134.984 39.7857 134.775 39.7857C134.565 39.7332 134.355 39.6807 134.145 39.6282C133.935 39.5758 133.777 39.4708 133.62 39.3659C133.462 39.2609 133.357 39.1034 133.252 38.946C133.147 38.7886 133.096 38.5262 133.096 38.2638C133.096 38.0014 133.147 37.739 133.305 37.5816C133.462 37.4241 133.62 37.2142 133.83 37.1093C134.04 37.0043 134.25 36.8993 134.512 36.8468C134.775 36.7944 135.036 36.7944 135.247 36.7944C135.509 36.7944 135.772 36.8468 136.034 36.8993C136.297 36.9519 136.507 37.0568 136.716 37.1617C136.926 37.2667 137.083 37.4767 137.188 37.6341C137.293 37.844 137.398 38.1064 137.451 38.3688H136.244C136.192 38.1064 136.087 37.8964 135.877 37.844C135.667 37.739 135.457 37.6865 135.194 37.6865C135.089 37.6865 135.036 37.6865 134.931 37.6865C134.828 37.6865 134.723 37.739 134.617 37.739C134.512 37.7915 134.46 37.844 134.355 37.8964C134.25 37.9489 134.25 38.0538 134.25 38.1589C134.25 38.3163 134.302 38.4212 134.407 38.4737C134.512 38.5786 134.617 38.6312 134.775 38.6837C134.931 38.7361 135.089 38.7886 135.299 38.8411C135.509 38.8936 135.719 38.946 135.929 38.946C136.139 38.9985 136.349 39.051 136.559 39.1034C136.768 39.1559 136.926 39.2609 137.083 39.3659C137.241 39.4708 137.346 39.6282 137.451 39.7857C137.556 39.9432 137.608 40.153 137.608 40.4155C137.608 40.7303 137.556 40.9928 137.398 41.2026C137.241 41.4125 137.083 41.57 136.873 41.7274C136.663 41.8848 136.402 41.9373 136.139 42.0424C135.877 42.0948 135.614 42.1473 135.352 42.1473C135.036 42.1473 134.723 42.0948 134.46 42.0424C134.197 41.9898 133.935 41.8324 133.725 41.7274C133.515 41.6225 133.357 41.4125 133.252 41.1502C133.147 40.9403 133.096 40.6778 133.043 40.363H134.145V40.4155Z" fill="#0B1218"/>
    <path d="M137.977 36.8986H138.817V35.3242H139.971V36.8986H141.021V37.7382H139.971V40.5196C139.971 40.6246 139.971 40.7296 139.971 40.8346C139.971 40.9395 140.024 40.992 140.024 41.0444C140.076 41.0969 140.129 41.1494 140.181 41.2018C140.234 41.2544 140.339 41.2544 140.496 41.2544C140.601 41.2544 140.654 41.2544 140.759 41.2544C140.864 41.2544 140.916 41.2544 141.021 41.2018V42.094C140.916 42.094 140.759 42.1465 140.654 42.1465C140.549 42.1465 140.391 42.1465 140.286 42.1465C139.971 42.1465 139.761 42.094 139.551 42.0416C139.394 41.9891 139.237 41.8842 139.132 41.7791C139.027 41.6742 138.975 41.5168 138.922 41.3594C138.87 41.2018 138.87 40.992 138.87 40.7821V37.7382H138.029V36.8986H137.977Z" fill="#0B1218"/>
    <path d="M141.86 34.9053H143.014V36.0074H141.86V34.9053ZM141.86 36.8995H143.014V42.0949H141.86V36.8995Z" fill="#0B1218"/>
    <path d="M143.698 36.8986H144.537V35.3242H145.692V36.8986H146.741V37.7382H145.692V40.5196C145.692 40.6246 145.692 40.7296 145.692 40.8346C145.692 40.9395 145.744 40.992 145.744 41.0444C145.797 41.0969 145.849 41.1494 145.902 41.2018C145.954 41.2544 146.058 41.2544 146.216 41.2544C146.321 41.2544 146.373 41.2544 146.478 41.2544C146.583 41.2544 146.636 41.2544 146.741 41.2018V42.094C146.636 42.094 146.478 42.1465 146.373 42.1465C146.268 42.1465 146.111 42.1465 146.007 42.1465C145.692 42.1465 145.482 42.094 145.272 42.0416C145.114 41.9891 144.957 41.8842 144.852 41.7791C144.747 41.6742 144.694 41.5168 144.642 41.3594C144.589 41.2018 144.589 40.992 144.589 40.7821V37.7382H143.75V36.8986H143.698Z" fill="#0B1218"/>
    <path d="M152.093 42.0424H150.991V41.3076C150.834 41.57 150.624 41.7799 150.361 41.9373C150.099 42.0948 149.784 42.1473 149.522 42.1473C148.84 42.1473 148.367 41.9898 148.052 41.6225C147.738 41.3076 147.58 40.7828 147.58 40.1006V36.7944H148.735V39.9956C148.735 40.468 148.84 40.7828 148.997 40.9403C149.155 41.0977 149.417 41.2026 149.731 41.2026C149.994 41.2026 150.151 41.1502 150.309 41.0977C150.466 41.0452 150.624 40.9403 150.676 40.7828C150.781 40.6778 150.834 40.5204 150.886 40.363C150.939 40.2055 150.939 39.9956 150.939 39.7857V36.7944H152.093V42.0424Z" fill="#0B1218"/>
    <path d="M152.776 36.8986H153.615V35.3242H154.77V36.8986H155.819V37.7382H154.77V40.5196C154.77 40.6246 154.77 40.7296 154.77 40.8346C154.77 40.9395 154.821 40.992 154.821 41.0444C154.874 41.0969 154.926 41.1494 154.979 41.2018C155.031 41.2544 155.136 41.2544 155.294 41.2544C155.399 41.2544 155.452 41.2544 155.557 41.2544C155.662 41.2544 155.714 41.2544 155.819 41.2018V42.094C155.714 42.094 155.557 42.1465 155.452 42.1465C155.347 42.1465 155.189 42.1465 155.084 42.1465C154.77 42.1465 154.56 42.094 154.35 42.0416C154.192 41.9891 154.035 41.8842 153.93 41.7791C153.825 41.6742 153.772 41.5168 153.72 41.3594C153.667 41.2018 153.667 40.992 153.667 40.7821V37.7382H152.776V36.8986Z" fill="#0B1218"/>
    <path d="M157.551 39.7859C157.551 39.9959 157.604 40.2057 157.656 40.3632C157.709 40.5731 157.814 40.7305 157.919 40.8355C158.024 40.9929 158.182 41.0979 158.339 41.1504C158.497 41.2553 158.707 41.2553 158.968 41.2553C159.283 41.2553 159.546 41.2029 159.756 41.0455C159.966 40.888 160.123 40.6781 160.228 40.4156H161.33C161.278 40.6781 161.173 40.9404 161.015 41.1504C160.858 41.3603 160.701 41.5703 160.491 41.7277C160.281 41.8851 160.071 41.99 159.808 42.0425C159.546 42.095 159.283 42.1474 159.021 42.1474C158.602 42.1474 158.234 42.095 157.919 41.9376C157.604 41.7801 157.341 41.6227 157.132 41.3603C156.922 41.0979 156.765 40.8355 156.66 40.5207C156.555 40.2057 156.502 39.8384 156.502 39.4186C156.502 39.0512 156.555 38.6838 156.66 38.369C156.765 38.0541 156.922 37.7393 157.185 37.4768C157.394 37.2145 157.656 37.0046 157.972 36.8995C158.287 36.7421 158.602 36.6897 159.021 36.6897C159.441 36.6897 159.808 36.7946 160.123 36.952C160.439 37.1095 160.7 37.3719 160.91 37.6343C161.12 37.8967 161.278 38.2116 161.383 38.5789C161.488 38.9463 161.488 39.3137 161.435 39.6809H157.551V39.7859ZM160.228 38.9987C160.228 38.8413 160.176 38.6313 160.123 38.4739C160.071 38.3165 159.966 38.159 159.861 38.0541C159.756 37.9491 159.598 37.8442 159.441 37.7393C159.283 37.6868 159.126 37.6343 158.917 37.6343C158.707 37.6343 158.549 37.6868 158.392 37.7393C158.234 37.7917 158.077 37.8967 157.972 38.0541C157.867 38.159 157.762 38.3165 157.709 38.4739C157.656 38.6313 157.604 38.8413 157.604 38.9987H160.228Z" fill="#0B1218"/>
  </g>
  <defs>
    <clipPath id="clip0_444_53307">
      <rect width="185.98" height="65.64" fill="white" transform="translate(0.0100098 0.380371)"/>
    </clipPath>
  </defs>
</svg>