<svg width="133" height="35" viewBox="0 0 133 35" fill="none" xmlns="http://www.w3.org/2000/svg">
<g clip-path="url(#clip0_3416_1884)">
<path d="M38.8912 9.71763V25.365H36.1501V18.3058H29.0289V25.365H26.2879V9.71763H29.0289V15.9435H36.1501V9.71763H38.8912ZM23.5468 25.365H20.8058V9.71763H23.5468V25.365ZM18.1129 25.365H15.2204L8.09917 13.8636H8.03719V25.365H5.427V9.71763H8.31956L15.4614 21.2466H15.5028V9.71763H18.1129V25.365ZM48.5399 17.4862L38.8636 0H3.22314C1.43939 0 0 1.44628 0 3.22314V31.7769C0 33.5537 1.43939 35 3.22314 35H38.8361L48.5468 17.4862H48.5399Z" fill="black"/>
<path d="M41.2603 35L50.9572 17.4862L41.2947 0H43.712C45.0344 0 46.6459 0.950413 47.2864 2.10744L55.7919 17.4862L47.2589 32.8926C46.6184 34.0496 45.0068 35 43.6845 35H41.2603Z" fill="black"/>
<path d="M41.2603 35L50.9572 17.4862L41.2947 0H43.7189C45.0412 0 46.6528 0.950413 47.2933 2.10744L55.7919 17.4862L47.2658 32.8926C46.6253 34.0496 45.0137 35 43.6914 35H41.2671H41.2603Z" fill="black"/>
<path d="M125.874 27.4442H126.983V24.4827C126.983 23.7458 127.458 23.1604 128.195 23.1604C128.849 23.1604 129.159 23.4979 129.18 24.2899V27.451H130.289V24.0006C130.289 22.8711 129.6 22.2926 128.512 22.2926C127.851 22.2926 127.279 22.6301 127.004 23.0915H126.983V20.5158H125.874V27.4579V27.4442ZM122.3 23.2431H123.14V26.2114C123.161 27.0447 123.374 27.4924 124.531 27.4924C124.772 27.4924 125.006 27.4579 125.254 27.4373V26.5833C125.096 26.6246 124.944 26.6246 124.786 26.6246C124.29 26.6246 124.249 26.3904 124.249 25.9359V23.2499H125.254V22.4235H124.249V20.9152H123.14V22.4235H122.3V23.2499V23.2431ZM120.668 27.4442H121.776V20.502H120.668V27.4442ZM119.621 23.7389C119.621 22.6783 118.588 22.2789 117.61 22.2789C116.501 22.2789 115.406 22.6577 115.323 23.9524H116.432C116.48 23.4083 116.921 23.1535 117.541 23.1535C117.989 23.1535 118.581 23.2568 118.581 23.8353C118.581 24.4896 117.871 24.4001 117.073 24.5447C116.136 24.648 115.137 24.8546 115.137 26.1081C115.137 27.0929 115.957 27.575 116.859 27.575C117.451 27.575 118.161 27.3891 118.601 26.9621C118.691 27.4166 119.008 27.575 119.455 27.575C119.641 27.575 119.993 27.5061 120.158 27.451V26.6797C120.041 26.7004 119.951 26.7004 119.889 26.7004C119.683 26.7004 119.628 26.5902 119.628 26.3216V23.732L119.621 23.7389ZM118.512 25.7568C118.512 26.4593 117.754 26.7141 117.265 26.7141C116.88 26.7141 116.246 26.5695 116.246 26.0736C116.246 25.4882 116.673 25.3161 117.148 25.2334C117.637 25.1508 118.174 25.1577 118.512 24.9373V25.7637V25.7568ZM111.04 24.4896C111.067 23.7389 111.597 23.1535 112.362 23.1535C113.126 23.1535 113.588 23.7871 113.629 24.4896H111.04ZM114.738 25.2196C114.924 23.7114 113.953 22.2858 112.362 22.2858C110.867 22.2858 109.931 23.5116 109.931 24.9373C109.931 26.4869 110.819 27.5819 112.389 27.5819C113.491 27.5819 114.421 26.9689 114.662 25.867H113.615C113.422 26.4249 113.03 26.7072 112.389 26.7072C111.467 26.7072 111.04 26.0048 111.04 25.2196H114.738ZM103.457 27.4442H104.669V24.3174H107.83V27.4442H109.042V20.502H107.83V23.2637H104.669V20.502H103.457V27.4442ZM98.6635 27.4442H99.7723V20.502H98.6635V27.4442ZM97.6098 23.7389C97.6098 22.6783 96.5767 22.2789 95.5987 22.2789C94.4899 22.2789 93.388 22.6577 93.3122 23.9524H94.4211C94.4693 23.4083 94.91 23.1535 95.5299 23.1535C95.9775 23.1535 96.5698 23.2568 96.5698 23.8353C96.5698 24.4896 95.8604 24.4001 95.0615 24.5447C94.1318 24.648 93.1332 24.8546 93.1332 26.1081C93.1332 27.0929 93.9458 27.575 94.8549 27.575C95.4472 27.575 96.1566 27.3891 96.5974 26.9621C96.6869 27.4166 97.0037 27.575 97.4514 27.575C97.6373 27.575 97.9885 27.5061 98.1538 27.451V26.6797C98.0368 26.7004 97.9472 26.7004 97.8783 26.7004C97.6717 26.7004 97.6166 26.5902 97.6166 26.3216V23.732L97.6098 23.7389ZM96.5078 25.7568C96.5078 26.4593 95.7503 26.7141 95.2613 26.7141C94.8687 26.7141 94.242 26.5695 94.242 26.0736C94.242 25.4882 94.669 25.3161 95.1442 25.2334C95.6332 25.1508 96.1635 25.1577 96.5078 24.9373V25.7637V25.7568ZM89.8343 23.2431H90.6676V26.2114C90.6883 27.0447 90.9018 27.4924 92.0588 27.4924C92.2998 27.4924 92.534 27.4579 92.775 27.4373V26.5833C92.6235 26.6246 92.4651 26.6246 92.3067 26.6246C91.8109 26.6246 91.7695 26.3904 91.7695 25.9359V23.2499H92.775V22.4235H91.7695V20.9152H90.6607V22.4235H89.8274V23.2499L89.8343 23.2431ZM84.9307 27.4442H86.0395V24.4827C86.0395 23.7458 86.5147 23.1604 87.2585 23.1604C87.9128 23.1604 88.2227 23.4979 88.2434 24.2899V27.451H89.3522V24.0006C89.3522 22.8711 88.6635 22.2926 87.5753 22.2926C86.9142 22.2926 86.3425 22.6301 86.0051 23.188L85.9844 23.1673V22.4304H84.9376V27.4579L84.9307 27.4442ZM80.5643 24.4896C80.5919 23.7389 81.1153 23.1535 81.8866 23.1535C82.658 23.1535 83.1125 23.7871 83.1469 24.4896H80.5643ZM84.2626 25.2196C84.4486 23.7114 83.4775 22.2858 81.8866 22.2858C80.3921 22.2858 79.4555 23.5116 79.4555 24.9373C79.4555 26.4869 80.337 27.5819 81.9142 27.5819C83.0161 27.5819 83.9458 26.9689 84.1869 25.867H83.1332C82.9403 26.4249 82.5478 26.7072 81.9073 26.7072C80.9844 26.7072 80.5574 26.0048 80.5574 25.2196H84.2558H84.2626ZM71.3701 27.4442H72.5271V22.086H72.5478L74.4761 27.4442H75.4748L77.4031 22.086H77.4238V27.4442H78.5808V20.502H76.8866L75.0202 25.9359H74.9996L73.085 20.502H71.377V27.4442H71.3701ZM65.3164 23.2431H66.1428V27.4442H67.2516V23.2431H68.1952V22.4166H67.2516V21.9001C67.2516 21.48 67.4927 21.3767 67.7957 21.3767C68.0161 21.3767 68.1676 21.3973 68.3122 21.4318V20.564C68.1332 20.5158 67.8852 20.4951 67.534 20.4951C66.8177 20.4951 66.1428 20.7086 66.1428 21.9965V22.4166H65.3164V23.2431ZM62.5271 27.5819C64.1387 27.5819 65.0615 26.4731 65.0615 24.9304C65.0615 23.3877 64.1387 22.2858 62.5271 22.2858C60.9155 22.2858 59.9927 23.3946 59.9927 24.9304C59.9927 26.4662 60.9155 27.5819 62.5271 27.5819ZM62.5271 26.7072C61.5354 26.7072 61.0946 25.805 61.0946 24.9304C61.0946 24.0557 61.5354 23.1604 62.5271 23.1604C63.5188 23.1604 63.9596 24.0626 63.9596 24.9304C63.9596 25.7981 63.5188 26.7072 62.5271 26.7072Z" fill="black"/>
<path d="M128.898 12.1761C128.926 11.4254 129.449 10.84 130.22 10.84C130.992 10.84 131.446 11.4737 131.488 12.1761H128.898ZM132.59 12.8993C132.769 11.391 131.798 9.96539 130.213 9.96539C128.712 9.96539 127.782 11.1913 127.782 12.6169C127.782 14.1665 128.664 15.2615 130.241 15.2615C131.343 15.2615 132.273 14.6486 132.514 13.5467H131.46C131.267 14.1045 130.875 14.3869 130.234 14.3869C129.311 14.3869 128.884 13.6844 128.884 12.8993H132.583H132.59ZM124.463 10.9296H125.296V13.8979C125.317 14.7312 125.53 15.1789 126.687 15.1789C126.935 15.1789 127.163 15.1444 127.41 15.1238V14.2698C127.252 14.3111 127.101 14.3111 126.942 14.3111C126.446 14.3111 126.412 14.077 126.412 13.6224V10.9365H127.417V10.11H126.412V8.60175H125.303V10.11H124.47V10.9365L124.463 10.9296ZM123.974 10.1031H122.865V13.0232C122.865 13.8015 122.555 14.3938 121.632 14.3938C121.033 14.3938 120.668 14.0701 120.668 13.1885V10.1031H119.559V13.2918C119.559 14.6073 120.124 15.2615 121.433 15.2615C121.983 15.2615 122.59 14.931 122.865 14.4282H122.886V15.1238H123.974V10.0962V10.1031ZM115.992 10.9296H116.825V13.8979C116.846 14.7312 117.059 15.1789 118.216 15.1789C118.457 15.1789 118.691 15.1444 118.933 15.1238V14.2698C118.781 14.3111 118.623 14.3111 118.464 14.3111C117.968 14.3111 117.927 14.077 117.927 13.6224V10.9365H118.926V10.11H117.927V8.60175H116.818V10.11H115.985V10.9365L115.992 10.9296ZM114.359 9.23536H115.468V8.18164H114.359V9.23536ZM114.359 15.1307H115.468V10.1031H114.359V15.1307ZM110.758 10.9296H111.591V13.8979C111.612 14.7312 111.825 15.1789 112.982 15.1789C113.23 15.1789 113.457 15.1444 113.698 15.1238V14.2698C113.547 14.3111 113.388 14.3111 113.23 14.3111C112.734 14.3111 112.693 14.077 112.693 13.6224V10.9365H113.691V10.11H112.693V8.60175H111.584V10.11H110.751V10.9365L110.758 10.9296ZM106.123 13.5191C106.143 14.7037 107.087 15.2684 108.347 15.2684C109.387 15.2684 110.592 14.8345 110.592 13.6362C110.592 12.6444 109.773 12.3552 108.967 12.1692C108.147 11.9833 107.335 11.9075 107.335 11.3635C107.335 10.9296 107.927 10.8469 108.251 10.8469C108.733 10.8469 109.174 10.9916 109.27 11.5219H110.427C110.289 10.4062 109.359 9.97227 108.326 9.97227C107.41 9.97227 106.226 10.3097 106.226 11.4117C106.226 12.431 107.025 12.7271 107.837 12.8993C108.643 13.0852 109.449 13.1541 109.483 13.7395C109.511 14.3111 108.788 14.4006 108.368 14.4006C107.775 14.4006 107.286 14.1665 107.231 13.526H106.123V13.5191ZM100.985 15.1307H102.094V12.1692C102.094 11.4254 102.569 10.8469 103.313 10.8469C103.967 10.8469 104.277 11.1844 104.298 11.9764V15.1376H105.406V11.6871C105.406 10.5577 104.718 9.97227 103.629 9.97227C102.968 9.97227 102.397 10.3097 102.059 10.8676L102.039 10.8469V10.11H100.992V15.1376L100.985 15.1307ZM98.6157 15.1307H99.8347V8.18853H98.6157V15.1307ZM93.7879 15.1307H94.8967V8.18853H93.7879V15.1307ZM92.741 11.4254C92.741 10.3648 91.7149 9.96539 90.73 9.96539C89.6212 9.96539 88.5193 10.3442 88.4435 11.6389H89.5523C89.6005 11.0949 90.0413 10.84 90.6611 10.84C91.1088 10.84 91.7011 10.9502 91.7011 11.5219C91.7011 12.1761 90.9917 12.0866 90.1928 12.2312C89.2562 12.3345 88.2576 12.5411 88.2576 13.7946C88.2576 14.7794 89.0702 15.2615 89.9793 15.2615C90.5716 15.2615 91.281 15.0756 91.7217 14.6486C91.8113 15.1031 92.1281 15.2615 92.5757 15.2615C92.7617 15.2615 93.1129 15.1927 93.2782 15.1376V14.3662C93.1611 14.3869 93.0716 14.3869 93.0027 14.3869C92.7961 14.3869 92.741 14.2767 92.741 14.0081V11.4186V11.4254ZM91.6322 13.4365C91.6322 14.1389 90.8746 14.3869 90.3857 14.3869C89.9931 14.3869 89.3664 14.2422 89.3664 13.7464C89.3664 13.161 89.7934 12.9888 90.2686 12.913C90.7576 12.8235 91.2879 12.8373 91.6322 12.61V13.4365ZM83.1267 15.1307H84.2355V12.1692C84.2355 11.4254 84.7107 10.8469 85.4545 10.8469C86.1088 10.8469 86.4187 11.1844 86.4394 11.9764V15.1376H87.5482V11.6871C87.5482 10.5577 86.8595 9.97227 85.7713 9.97227C85.1102 9.97227 84.5386 10.3097 84.2011 10.8676L84.1804 10.8469V10.11H83.1336V15.1376L83.1267 15.1307ZM79.8347 15.2684C81.4532 15.2684 82.3691 14.1596 82.3691 12.6169C82.3691 11.0742 81.4463 9.97227 79.8347 9.97227C78.2231 9.97227 77.3003 11.0811 77.3003 12.6169C77.3003 14.1527 78.2231 15.2684 79.8347 15.2684ZM79.8347 14.3938C78.843 14.3938 78.4022 13.4916 78.4022 12.61C78.4022 11.7285 78.843 10.84 79.8347 10.84C80.8264 10.84 81.2672 11.7422 81.2672 12.61C81.2672 13.4778 80.8333 14.3938 79.8347 14.3938ZM75.3926 9.23536H76.5014V8.18164H75.3926V9.23536ZM75.3926 15.1307H76.5014V10.1031H75.3926V15.1307ZM71.7975 10.9296H72.6308V13.8979C72.6515 14.7312 72.865 15.1789 74.022 15.1789C74.2631 15.1789 74.4972 15.1444 74.7383 15.1238V14.2698C74.5799 14.3111 74.4284 14.3111 74.27 14.3111C73.7741 14.3111 73.7328 14.077 73.7328 13.6224V10.9365H74.7383V10.11H73.7328V8.60175H72.624V10.11H71.7906V10.9365L71.7975 10.9296ZM71.281 11.4254C71.281 10.3648 70.2479 9.96539 69.27 9.96539C68.1611 9.96539 67.0661 10.3442 66.9835 11.6389H68.0923C68.1405 11.0949 68.5813 10.84 69.2011 10.84C69.6488 10.84 70.241 10.9502 70.241 11.5219C70.241 12.1761 69.5317 12.0866 68.7328 12.2312C67.7961 12.3345 66.7975 12.5411 66.7975 13.7946C66.7975 14.7794 67.6171 15.2615 68.5193 15.2615C69.1116 15.2615 69.8209 15.0756 70.2617 14.6486C70.3512 15.1031 70.668 15.2615 71.1157 15.2615C71.3016 15.2615 71.6529 15.1927 71.8182 15.1376V14.3662C71.7011 14.3869 71.6116 14.3869 71.5427 14.3869C71.343 14.3869 71.281 14.2767 71.281 14.0081V11.4186V11.4254ZM70.1722 13.4365C70.1722 14.1389 69.4146 14.3869 68.9256 14.3869C68.5399 14.3869 67.9063 14.2422 67.9063 13.7464C67.9063 13.161 68.3333 12.9888 68.8085 12.913C69.2975 12.8235 69.8347 12.8373 70.1722 12.61V13.4365ZM60.3306 15.1307H61.4876V10.0274H61.5151L64.6763 15.1307H65.9573V8.18853H64.8003V13.3056H64.7796L61.6116 8.18853H60.3306V15.1307Z" fill="black"/>
</g>
<defs>
<clipPath id="clip0_3416_1884">
<rect width="132.617" height="35" fill="white"/>
</clipPath>
</defs>
</svg>
