<svg width="120" height="35" viewBox="0 0 120 35" fill="none" xmlns="http://www.w3.org/2000/svg">
<path d="M47.3189 1.82463C46.6356 0.69275 45.4034 0 44.0734 0H41.4189L51.5056 17.5L41.4189 35H44.0728C45.4034 35 46.6356 34.3066 47.3182 33.1754L56.3044 17.5L47.3189 1.82463Z" fill="black"/>
<path d="M38.5817 0H3.73367C1.67128 0 0 1.67866 0 3.75022V31.2498C0 33.3207 1.67189 35 3.73367 35H38.5811L48.5377 17.5L38.5817 0Z" fill="black"/>
<path d="M93.9504 2.76953C92.918 2.76953 92.0495 3.11508 91.3439 3.80479C90.6376 4.49511 90.2852 5.35382 90.2852 6.38048C90.2852 7.40713 90.6376 8.26495 91.3439 8.95527C92.0495 9.64498 92.918 9.98964 93.9504 9.98964C94.9828 9.98964 95.8515 9.64498 96.5578 8.95527C97.2635 8.26495 97.6164 7.40713 97.6164 6.38048C97.6164 5.35382 97.2635 4.49511 96.5578 3.80479C95.8515 3.11508 94.9828 2.76953 93.9504 2.76953ZM66.2457 2.9299V9.92015H67.8042V5.54033L71.1295 9.92015H72.6881V2.9299H71.1304V7.43L67.7046 2.9299H66.2457ZM76.5134 2.9299L73.4968 9.92015H75.155L75.8035 8.41002H78.7303L79.3797 9.92015H81.0379L78.0213 2.9299H76.5134ZM80.7577 2.9299V4.28055H82.7352V9.92015H84.2938V4.28055H86.2714V2.9299H80.7577ZM87.4101 2.9299V9.92015H88.9678V2.9299H87.4101ZM98.9348 2.9299V9.92015H100.493V5.54033L103.819 9.92015H105.376V2.9299H103.819V7.43L100.393 2.9299H98.9348ZM109.202 2.9299L106.185 9.92015H107.843L108.493 8.41002H111.419L112.068 9.92015H113.726L110.71 2.9299H109.202ZM114.535 2.9299V9.92015H119.069V8.53029H116.093V2.9299H114.535ZM93.9557 4.12998C94.5387 4.12998 95.0293 4.34982 95.4289 4.79016C95.8285 5.2299 96.0285 5.76152 96.0285 6.38493C96.0285 7.00835 95.8285 7.53916 95.4289 7.97524C95.0293 8.41194 94.5387 8.63008 93.9557 8.63008C93.3727 8.63008 92.8822 8.41194 92.4826 7.97524C92.0829 7.53916 91.883 7.00835 91.883 6.38493C91.883 5.76213 92.0829 5.2299 92.4826 4.79016C92.8828 4.34982 93.3727 4.12998 93.9557 4.12998ZM77.2722 5.01022L78.1414 7.03977H76.3933L77.2722 5.01022ZM109.96 5.01022L110.83 7.03977H109.082L109.96 5.01022ZM69.4927 14.0202C68.467 14.0202 67.5993 14.3675 66.8906 15.0608C66.1813 15.7536 65.8267 16.6182 65.8267 17.6552C65.8267 18.6916 66.1751 19.5494 66.871 20.23C67.5664 20.9094 68.4519 21.2492 69.5274 21.2492C70.6023 21.2492 71.5368 20.8036 72.3287 19.9102L71.3297 18.8794C70.8433 19.4863 70.2185 19.7899 69.4527 19.7899C68.8933 19.7899 68.4163 19.5936 68.024 19.2001C67.631 18.8072 67.4342 18.2849 67.4342 17.6347C67.4342 16.9845 67.6427 16.4683 68.0587 16.0845C68.4747 15.7019 68.976 15.5098 69.5621 15.5098C70.2945 15.5098 70.9075 15.8171 71.4 16.4302L72.3688 15.3299C71.5963 14.4571 70.6374 14.0202 69.4927 14.0202ZM92.3536 14.0202C91.3278 14.0202 90.4611 14.3675 89.7524 15.0608C89.0431 15.7536 88.6884 16.6182 88.6884 17.6552C88.6884 18.6916 89.036 19.5494 89.7319 20.23C90.4273 20.9094 91.3136 21.2492 92.3891 21.2492C93.4641 21.2492 94.3977 20.8036 95.1896 19.9102L94.1915 18.8794C93.705 19.4863 93.0793 19.7899 92.3135 19.7899C91.7542 19.7899 91.2778 19.5936 90.8848 19.2001C90.4919 18.8072 90.2959 18.2849 90.2959 17.6347C90.2959 16.9845 90.5044 16.4683 90.9204 16.0845C91.3364 15.7019 91.8378 15.5098 92.4238 15.5098C93.1562 15.5098 93.7683 15.8171 94.2609 16.4302L95.2296 15.3299C94.4571 14.4571 93.4983 14.0202 92.3536 14.0202ZM80.948 14.1797V21.1699H82.5066V16.7901L85.8319 21.1699H87.3896V14.1797H85.8319V18.6798L82.4061 14.1797H80.948ZM96.4181 14.1797V21.1699H101.563V19.7899H97.9767V18.3403H101.103V17.0102H97.9767V15.5704H101.452V14.1797H96.4181ZM75.6149 14.1806L72.5983 21.17H74.2556L74.905 19.6598H77.8318L78.4812 21.17H80.1385L77.1228 14.1806H75.6149ZM102.95 14.1806V21.17H104.509V18.94H105.587L107.135 21.17H109.053L107.285 18.67C108.171 18.3434 108.614 17.62 108.614 16.4997C108.614 15.6865 108.382 15.097 107.92 14.7303C107.456 14.3635 106.683 14.1806 105.598 14.1806H102.95ZM104.509 15.5206H105.677C106.176 15.5206 106.526 15.59 106.725 15.7299C106.925 15.8698 107.025 16.1286 107.025 16.505C107.025 16.8821 106.929 17.1561 106.736 17.33C106.543 17.5034 106.18 17.5902 105.648 17.5902H104.509V15.5206ZM76.3737 16.26L77.242 18.2896H75.4948L76.3737 16.26ZM79.9784 25.27C79.266 25.27 78.6711 25.4508 78.1956 25.8108C77.7189 26.1709 77.4813 26.6823 77.4813 27.3459C77.4813 28.0088 77.6696 28.4957 78.0462 28.8052C78.4221 29.1154 79.0161 29.3664 79.828 29.5599C80.3412 29.6864 80.6836 29.8115 80.8573 29.9349C81.0304 30.0584 81.1171 30.2258 81.1171 30.4356C81.1171 30.6455 81.0358 30.812 80.8724 30.9354C80.7097 31.0589 80.4848 31.1199 80.1981 31.1199C79.5592 31.1199 78.8636 30.7906 78.1111 30.1301L77.1824 31.2704C78.0678 32.0903 79.0635 32.4999 80.1687 32.4999C80.9345 32.4999 81.5521 32.3059 82.0209 31.9155C82.4903 31.5256 82.7255 31.0173 82.7255 30.3902C82.7255 29.7637 82.5425 29.2869 82.1757 28.9603C81.8095 28.6336 81.2957 28.3888 80.6331 28.2252C79.9706 28.0622 79.5474 27.9201 79.3646 27.8003C79.1812 27.6804 79.0897 27.5187 79.0897 27.3156C79.0897 27.1125 79.1647 26.9482 79.3147 26.8247C79.4647 26.7018 79.6692 26.6397 79.9286 26.6403C80.5741 26.6403 81.2004 26.8703 81.8065 27.3307L82.5956 26.1904C82.2494 25.8966 81.8417 25.6705 81.3759 25.5106C80.9101 25.3506 80.4442 25.27 79.9784 25.27ZM66.2457 25.4304V32.4206H67.8042V25.4304H66.2457ZM69.522 25.4304V32.4206H71.0797V28.0399L74.4059 32.4206H75.9636V25.4304H74.4059V29.9305L70.9801 25.4304H69.522ZM83.414 25.4304V26.7801H85.3916V32.4197H86.9501V26.7801H88.9277V25.4304H83.414ZM90.0655 25.4304V32.4206H91.6241V25.4304H90.0655ZM92.7619 25.4304V26.7801H94.7395V32.4197H96.298V26.7801H98.2756V25.4304H92.7619ZM99.3138 25.4304V29.3407C99.3138 30.3473 99.5948 31.1228 100.157 31.6696C100.719 32.2164 101.437 32.4901 102.309 32.4901C103.182 32.4901 103.897 32.2187 104.457 31.6749C105.016 31.1318 105.296 30.3531 105.296 29.3398V25.4304H103.739V29.2899C103.739 29.8501 103.611 30.292 103.354 30.6156C103.097 30.9392 102.749 31.1003 102.31 31.1003C101.87 31.1003 101.521 30.9392 101.261 30.6156C101.002 30.292 100.872 29.8495 100.871 29.2899V25.4304H99.3138ZM106.335 25.4304V26.7801H108.312V32.4197H109.871V26.7801H111.849V25.4304H106.335ZM112.986 25.4304V32.4206H118.131V31.0406H114.545V29.5893H117.671V28.26H114.545V26.8202H118.02V25.4304L112.986 25.4304Z" fill="black"/>
<path d="M5.82422 9.72266V25.2783H8.41295V13.8708L15.5324 25.2783H18.1211V9.72266H15.5324V21.1301L8.41295 9.72266H5.82422ZM20.709 9.72266V25.2783H23.2986V9.72266H20.709ZM25.8873 9.72266V25.2783H28.4752V18.7968H35.5946V25.2783H38.1833V9.72266H35.5946V16.2042H28.4752V9.72266H25.8873Z" fill="white"/>
</svg>
