<svg width="167" height="43" viewBox="0 0 167 43" fill="none" xmlns="http://www.w3.org/2000/svg">
<g clip-path="url(#clip0_2097_64969)">
<path d="M61.2174 21.374L53.0307 6.73235C51.9811 4.84313 50.7215 3.84595 48.8323 3.89846H46.5757L54.9724 19.0649L56.2319 21.3215L54.9724 23.5782L46.4707 38.9021H48.7798C50.6166 38.9546 51.9286 37.9574 52.9781 36.0682L61.2174 21.374Z" fill="black"/>
<path d="M44.1094 3.90039H8.00382C6.42944 3.90039 5.16992 5.15991 5.16992 6.73429V21.3759V21.4285V36.0701C5.16992 37.6445 6.42944 38.904 8.00382 38.904H44.057L53.7656 21.3759L44.1094 3.90039ZM23.2228 29.2478H20.3364L13.1467 17.7549V29.2478C13.1467 29.2478 10.3653 29.2478 10.4178 29.2478V13.6091H13.4092L20.5988 25.1545V13.6091H23.2228V29.2478ZM28.6806 29.3003H25.9517V13.6091H28.6806V29.3003ZM41.4331 29.3003V22.2681H34.2434V29.3003H31.5144V13.6091H34.2434V19.8541H41.3806V13.6091H44.1094V29.2478H41.4331V29.3003Z" fill="black"/>
<path d="M65.3122 11.0859H66.6242L69.8779 16.3339V11.0859H71.0849V18.2231H69.7729L66.5192 12.9752H66.4668V18.2231H65.2598V11.0859H65.3122Z" fill="black"/>
<path d="M76.7507 17.0696C76.7507 17.2271 76.7507 17.332 76.8032 17.3845C76.8557 17.437 76.9081 17.4894 77.0131 17.4894C77.0657 17.4894 77.0656 17.4894 77.1181 17.4894C77.1706 17.4894 77.2231 17.4894 77.2755 17.4894V18.2767C77.2231 18.2767 77.1706 18.3292 77.1181 18.3292C77.0656 18.3292 77.0131 18.3816 76.9081 18.3816C76.8557 18.3816 76.7507 18.3816 76.6983 18.4341C76.6458 18.4866 76.5933 18.4341 76.5409 18.4341C76.3309 18.4341 76.121 18.3816 75.9636 18.2767C75.8061 18.1717 75.7011 18.0142 75.6487 17.8044C75.4388 18.0142 75.1239 18.1717 74.809 18.2767C74.4941 18.3816 74.1792 18.4341 73.8644 18.4341C73.6544 18.4341 73.3921 18.3816 73.1822 18.3292C72.9722 18.2767 72.7623 18.1717 72.6049 18.0667C72.4474 17.9618 72.29 17.8044 72.2375 17.5944C72.1326 17.3845 72.0801 17.1746 72.0801 16.9122C72.0801 16.5974 72.1326 16.3349 72.2375 16.125C72.3425 15.915 72.5 15.7576 72.7098 15.6527C72.9197 15.5478 73.1297 15.4428 73.3396 15.3903C73.6019 15.3378 73.8119 15.2853 74.0743 15.2853C74.2843 15.2328 74.4941 15.2328 74.6515 15.1804C74.8615 15.1804 75.0189 15.1279 75.1239 15.0754C75.2813 15.023 75.3863 14.9705 75.4388 14.8655C75.4913 14.7605 75.5437 14.6556 75.5437 14.4982C75.5437 14.3407 75.4913 14.2358 75.4388 14.1308C75.3863 14.0258 75.2813 13.9734 75.1763 13.9209C75.0714 13.8684 74.9665 13.8159 74.809 13.8159C74.704 13.8159 74.5466 13.8159 74.4417 13.8159C74.1267 13.8159 73.8644 13.8684 73.6544 14.0258C73.4445 14.1832 73.3396 14.3407 73.2871 14.6556H72.3425C72.3425 14.3407 72.4474 14.0258 72.6049 13.8159C72.7623 13.606 72.9197 13.3961 73.1297 13.2911C73.3396 13.1337 73.6019 13.0813 73.8644 13.0287C74.1267 12.9762 74.4417 12.9238 74.704 12.9238C74.9665 12.9238 75.2288 12.9762 75.4388 13.0287C75.7011 13.0813 75.911 13.1862 76.121 13.2911C76.3309 13.3961 76.4883 13.5535 76.5933 13.7635C76.6983 13.9734 76.7507 14.1832 76.7507 14.4457V17.0696ZM75.6487 15.6527C75.4913 15.7576 75.2813 15.8101 75.0189 15.8626C74.7565 15.8626 74.4941 15.915 74.2318 15.9676C74.1267 15.9676 73.9693 16.0201 73.8644 16.0726C73.7594 16.125 73.6545 16.1775 73.5495 16.23C73.4445 16.2824 73.3921 16.3874 73.3396 16.4923C73.2871 16.5974 73.2871 16.7023 73.2871 16.8597C73.2871 16.9646 73.3396 17.0697 73.3921 17.1746C73.4445 17.2796 73.5495 17.332 73.6544 17.3845C73.7594 17.437 73.8644 17.4894 73.9693 17.4894C74.0743 17.4894 74.1792 17.5419 74.2842 17.5419C74.3892 17.5419 74.5466 17.5419 74.704 17.4894C74.8615 17.437 74.9665 17.3845 75.1239 17.332C75.2288 17.2271 75.3863 17.1746 75.4388 17.0171C75.4913 16.8597 75.5437 16.7548 75.5437 16.5449V15.6527H75.6487Z" fill="black"/>
<path d="M77.4863 13.0841H78.3261V11.5098H79.4806V13.0841H80.5302V13.9238H79.4806V16.7052C79.4806 16.8102 79.4806 16.9151 79.4806 17.02C79.4806 17.125 79.5331 17.1775 79.5331 17.23C79.5855 17.2825 79.638 17.335 79.6905 17.3874C79.7429 17.4399 79.8479 17.4399 80.0054 17.4399C80.1103 17.4399 80.1628 17.4399 80.2678 17.4399C80.3727 17.4399 80.4253 17.4399 80.5302 17.3874V18.2795C80.4253 18.2795 80.2677 18.3321 80.1628 18.3321C80.0579 18.3321 79.9005 18.3321 79.7954 18.3321C79.4806 18.3321 79.2706 18.2795 79.0607 18.227C78.8509 18.1746 78.7458 18.0696 78.6409 17.9647C78.5359 17.8598 78.4835 17.7022 78.431 17.5448C78.3785 17.3874 78.3785 17.1775 78.3785 16.9676V13.9238H77.5388V13.0841H77.4863Z" fill="black"/>
<path d="M81.3691 11.0859H82.5238V12.1879H81.3691V11.0859ZM81.3691 13.0801H82.5238V18.2756H81.3691V13.0801Z" fill="black"/>
<path d="M86.1454 18.3816C85.7257 18.3816 85.3583 18.3292 85.0433 18.1717C84.7285 18.0142 84.4661 17.8568 84.2037 17.5944C83.9938 17.332 83.7839 17.0696 83.6789 16.7548C83.574 16.4398 83.5215 16.0726 83.5215 15.6527C83.5215 15.2328 83.574 14.918 83.6789 14.5506C83.7839 14.2358 83.9414 13.9209 84.2037 13.711C84.4136 13.4486 84.6761 13.2911 85.0433 13.1337C85.4107 12.9762 85.7257 12.9238 86.1454 12.9238C86.5653 12.9238 86.9327 12.9762 87.2475 13.1337C87.5624 13.2911 87.8248 13.4486 88.0872 13.711C88.3496 13.9734 88.5071 14.2358 88.612 14.5506C88.7169 14.8655 88.7694 15.2328 88.7694 15.6527C88.7694 16.0726 88.7169 16.4398 88.612 16.7548C88.5071 17.0696 88.3496 17.3845 88.0872 17.5944C87.8772 17.8568 87.6149 18.0142 87.2475 18.1717C86.8802 18.3292 86.5653 18.3816 86.1454 18.3816ZM86.1454 17.4894C86.4079 17.4894 86.6177 17.437 86.8277 17.332C87.0376 17.2271 87.1425 17.0696 87.3 16.9122C87.405 16.7548 87.5099 16.5449 87.5624 16.3349C87.6149 16.125 87.6673 15.915 87.6673 15.6527C87.6673 15.4428 87.6149 15.2328 87.5624 14.9705C87.5099 14.7605 87.405 14.5506 87.3 14.3932C87.195 14.2358 87.0376 14.0783 86.8277 13.9734C86.6177 13.8684 86.4079 13.8159 86.1454 13.8159C85.8831 13.8159 85.6732 13.8684 85.4632 13.9734C85.2533 14.0783 85.1484 14.2358 84.9909 14.3932C84.8859 14.5506 84.781 14.7605 84.7285 14.9705C84.6761 15.1804 84.6236 15.3903 84.6236 15.6527C84.6236 15.8626 84.6761 16.125 84.7285 16.3349C84.781 16.5449 84.8859 16.7548 84.9909 16.9122C85.0959 17.0696 85.2533 17.2271 85.4632 17.332C85.6732 17.437 85.8831 17.4894 86.1454 17.4894Z" fill="black"/>
<path d="M89.7129 13.0813H90.815V13.8684C90.9724 13.606 91.2348 13.3436 91.4972 13.1862C91.7596 13.0287 92.0744 12.9238 92.4418 12.9238C93.0191 12.9238 93.439 13.0813 93.8063 13.3436C94.1212 13.6584 94.2786 14.0783 94.2786 14.6556V18.2241H93.124V14.9705C93.124 14.5506 93.0191 14.2883 92.8616 14.0783C92.7042 13.9209 92.4418 13.8159 92.1269 13.8159C91.917 13.8159 91.7596 13.8684 91.6021 13.9209C91.4447 13.9734 91.3398 14.0783 91.2348 14.2358C91.1298 14.3407 91.0248 14.4982 90.9724 14.6556C90.9199 14.8131 90.8674 15.023 90.8674 15.1804V18.2241H89.7129V13.0813Z" fill="black"/>
<path d="M99.7897 17.0696C99.7897 17.2271 99.7898 17.332 99.8423 17.3845C99.8948 17.437 99.9472 17.4894 100.052 17.4894C100.105 17.4894 100.105 17.4894 100.157 17.4894C100.21 17.4894 100.262 17.4894 100.315 17.4894V18.2767C100.262 18.2767 100.21 18.3292 100.157 18.3292C100.105 18.3292 100.052 18.3816 99.9472 18.3816C99.8423 18.3816 99.7898 18.3816 99.7373 18.4341C99.6848 18.4341 99.6323 18.4341 99.5799 18.4341C99.37 18.4341 99.16 18.3816 99.0026 18.2767C98.8452 18.1717 98.7402 18.0142 98.6878 17.8044C98.4778 18.0142 98.163 18.1717 97.848 18.2767C97.5332 18.3816 97.2183 18.4341 96.9035 18.4341C96.6935 18.4341 96.4312 18.3816 96.2212 18.3292C96.0113 18.2767 95.8014 18.1717 95.6439 18.0667C95.4865 17.9618 95.3291 17.8044 95.2766 17.5944C95.1717 17.3845 95.1191 17.1746 95.1191 16.9122C95.1191 16.5974 95.1717 16.3349 95.2766 16.125C95.3816 15.915 95.539 15.7576 95.7488 15.6527C95.9588 15.5478 96.1687 15.4428 96.3787 15.3903C96.641 15.3378 96.8509 15.2853 97.1134 15.2853C97.3232 15.2328 97.5332 15.2328 97.6906 15.1804C97.9005 15.1804 98.0579 15.1279 98.163 15.0754C98.3204 15.023 98.4253 14.9705 98.4778 14.8655C98.5827 14.7605 98.5827 14.6556 98.5827 14.4982C98.5827 14.3407 98.5303 14.2358 98.4778 14.1308C98.4253 14.0258 98.3204 13.9734 98.2154 13.9209C98.1105 13.8684 98.0056 13.8159 97.848 13.8159C97.7431 13.8159 97.5857 13.8159 97.4808 13.8159C97.1658 13.8159 96.9034 13.8684 96.6935 14.0258C96.4836 14.1832 96.3787 14.3407 96.3261 14.6556H95.1716C95.1716 14.3407 95.2766 14.0258 95.434 13.8159C95.5914 13.606 95.7488 13.3961 95.9588 13.2911C96.1687 13.1337 96.4312 13.0813 96.6935 13.0287C96.956 12.9762 97.2708 12.9238 97.5332 12.9238C97.7956 12.9238 98.0579 12.9762 98.2679 13.0287C98.5303 13.0813 98.7402 13.1862 98.9501 13.2911C99.16 13.3961 99.3175 13.5535 99.4224 13.7635C99.5274 13.9734 99.5799 14.1832 99.5799 14.4457V17.0696H99.7897ZM98.6353 15.6527C98.4778 15.7576 98.2679 15.8101 98.0055 15.8626C97.7431 15.8626 97.4808 15.915 97.2183 15.9676C97.1134 15.9676 96.956 16.0201 96.8509 16.0726C96.746 16.125 96.641 16.1775 96.5361 16.23C96.4312 16.2824 96.3787 16.3874 96.3261 16.4923C96.2736 16.5974 96.2736 16.7023 96.2736 16.8597C96.2736 16.9646 96.3261 17.0697 96.3787 17.1746C96.4312 17.2796 96.5361 17.332 96.641 17.3845C96.746 17.437 96.8509 17.4894 96.956 17.4894C97.0609 17.4894 97.1658 17.5419 97.2708 17.5419C97.3757 17.5419 97.5332 17.5419 97.6906 17.4894C97.848 17.437 97.953 17.3845 98.1105 17.332C98.2154 17.2271 98.3728 17.1746 98.4253 17.0171C98.4778 16.8597 98.5303 16.7548 98.5303 16.5449V15.6527H98.6353Z" fill="black"/>
<path d="M101.049 11.0859H102.203V18.2231H101.049V11.0859Z" fill="black"/>
<path d="M106.35 11.0859H107.61V13.9197H110.863V11.0859H112.123V18.2231H110.863V15.0218H107.61V18.2231H106.35V11.0859Z" fill="black"/>
<path d="M114.326 15.9665C114.326 16.1763 114.378 16.3862 114.431 16.5437C114.483 16.7536 114.588 16.911 114.693 17.016C114.797 17.1735 114.955 17.2784 115.112 17.3309C115.27 17.4358 115.48 17.4358 115.742 17.4358C116.057 17.4358 116.32 17.3833 116.529 17.2259C116.739 17.0685 116.897 16.8585 117.002 16.5962H118.104C118.052 16.8585 117.947 17.121 117.789 17.3309C117.632 17.5408 117.474 17.7507 117.264 17.9081C117.054 18.0656 116.844 18.1705 116.581 18.2231C116.32 18.2755 116.057 18.328 115.795 18.328C115.375 18.328 115.007 18.2755 114.693 18.118C114.378 17.9606 114.116 17.8032 113.906 17.5408C113.695 17.2784 113.538 17.016 113.433 16.7011C113.328 16.3862 113.275 16.0189 113.275 15.5991C113.275 15.2317 113.328 14.8644 113.433 14.5495C113.538 14.2346 113.695 13.9197 113.958 13.6574C114.221 13.3949 114.431 13.185 114.746 13.0801C115.06 12.9226 115.375 12.8701 115.795 12.8701C116.215 12.8701 116.581 12.9751 116.897 13.1326C117.212 13.29 117.474 13.5523 117.684 13.8148C117.894 14.0771 118.052 14.3921 118.157 14.7593C118.262 15.1267 118.262 15.4941 118.209 15.8614H114.326V15.9665ZM117.002 15.1792C117.002 15.0218 116.949 14.8119 116.897 14.6544C116.844 14.497 116.739 14.3396 116.634 14.2346C116.529 14.1296 116.373 14.0247 116.215 13.9197C116.057 13.8673 115.9 13.8148 115.69 13.8148C115.48 13.8148 115.322 13.8673 115.165 13.9197C115.007 13.9722 114.85 14.0771 114.746 14.2346C114.641 14.3396 114.536 14.497 114.483 14.6544C114.431 14.8119 114.378 15.0218 114.378 15.1792H117.002Z" fill="black"/>
<path d="M123.352 17.0696C123.352 17.2271 123.352 17.332 123.404 17.3845C123.457 17.437 123.509 17.4894 123.614 17.4894C123.667 17.4894 123.667 17.4894 123.72 17.4894C123.772 17.4894 123.825 17.4894 123.877 17.4894V18.2767C123.825 18.2767 123.772 18.3292 123.72 18.3292C123.667 18.3292 123.614 18.3816 123.509 18.3816C123.404 18.3816 123.352 18.3816 123.299 18.4341C123.247 18.4866 123.194 18.4341 123.142 18.4341C122.932 18.4341 122.722 18.3816 122.565 18.2767C122.408 18.1717 122.303 18.0142 122.25 17.8044C122.04 18.0142 121.725 18.1717 121.41 18.2767C121.095 18.3816 120.781 18.4341 120.466 18.4341C120.256 18.4341 119.993 18.3816 119.783 18.3292C119.573 18.2767 119.363 18.1717 119.206 18.0667C119.049 17.9618 118.892 17.8044 118.839 17.5944C118.734 17.3845 118.682 17.1746 118.682 16.9122C118.682 16.5974 118.734 16.3349 118.839 16.125C118.944 15.915 119.102 15.7576 119.311 15.6527C119.521 15.5478 119.731 15.4428 119.941 15.3903C120.203 15.3378 120.413 15.2853 120.676 15.2853C120.886 15.2328 121.095 15.2328 121.253 15.1804C121.463 15.1804 121.62 15.1279 121.725 15.0754C121.883 15.023 121.988 14.9705 122.04 14.8655C122.093 14.7605 122.145 14.6556 122.145 14.4982C122.145 14.3407 122.093 14.2358 122.04 14.1308C121.988 14.0258 121.883 13.9734 121.778 13.9209C121.673 13.8684 121.568 13.8159 121.41 13.8159C121.305 13.8159 121.148 13.8159 121.042 13.8159C120.729 13.8159 120.466 13.8684 120.256 14.0258C120.046 14.1832 119.941 14.3407 119.888 14.6556H118.734C118.734 14.3407 118.839 14.0258 118.997 13.8159C119.154 13.606 119.311 13.3961 119.521 13.2911C119.731 13.1337 119.993 13.0813 120.256 13.0287C120.518 12.9762 120.834 12.9238 121.095 12.9238C121.358 12.9238 121.62 12.9762 121.83 13.0287C122.093 13.0813 122.303 13.1862 122.513 13.2911C122.722 13.3961 122.879 13.5535 122.984 13.7635C123.089 13.9734 123.142 14.1832 123.142 14.4457V17.0696H123.352ZM122.198 15.6527C122.04 15.7576 121.83 15.8101 121.568 15.8626C121.305 15.8626 121.042 15.915 120.781 15.9676C120.676 15.9676 120.518 16.0201 120.413 16.0726C120.308 16.125 120.203 16.1775 120.098 16.23C119.993 16.2824 119.941 16.3874 119.888 16.4923C119.836 16.5974 119.836 16.7023 119.836 16.8597C119.836 16.9646 119.888 17.0697 119.941 17.1746C119.993 17.2796 120.098 17.332 120.203 17.3845C120.308 17.437 120.413 17.4894 120.518 17.4894C120.623 17.4894 120.729 17.5419 120.834 17.5419C120.937 17.5419 121.095 17.5419 121.253 17.4894C121.41 17.437 121.515 17.3845 121.673 17.332C121.778 17.2271 121.935 17.1746 121.988 17.0171C122.093 16.9122 122.093 16.7548 122.093 16.5449V15.6527H122.198Z" fill="black"/>
<path d="M124.611 13.0813H125.66V14.0783C125.713 13.9209 125.765 13.8159 125.871 13.6584C125.976 13.501 126.081 13.3961 126.238 13.2911C126.396 13.1862 126.553 13.0813 126.711 13.0287C126.867 12.9762 127.025 12.9238 127.235 12.9238C127.392 12.9238 127.445 12.9238 127.497 12.9238C127.55 12.9238 127.602 12.9238 127.655 12.9238V14.0258C127.55 14.0258 127.497 14.0258 127.392 13.9734C127.287 13.9734 127.235 13.9734 127.13 13.9734C126.92 13.9734 126.762 14.0258 126.606 14.0783C126.448 14.1308 126.291 14.2883 126.186 14.3932C126.081 14.5506 125.976 14.708 125.871 14.9705C125.818 15.1804 125.765 15.4428 125.765 15.7576V18.2241H124.611V13.0813Z" fill="black"/>
<path d="M127.604 13.0841H128.444V11.5098H129.598V13.0841H130.647V13.9238H129.598V16.7052C129.598 16.8102 129.598 16.9151 129.598 17.02C129.598 17.125 129.65 17.1775 129.65 17.23C129.703 17.2825 129.755 17.335 129.808 17.3874C129.86 17.4399 129.965 17.4399 130.123 17.4399C130.228 17.4399 130.281 17.4399 130.384 17.4399C130.489 17.4399 130.542 17.4399 130.647 17.3874V18.2795C130.542 18.2795 130.384 18.3321 130.281 18.3321C130.176 18.3321 130.018 18.3321 129.913 18.3321C129.598 18.3321 129.388 18.2795 129.178 18.227C128.968 18.1746 128.863 18.0696 128.758 17.9647C128.653 17.8598 128.6 17.7022 128.549 17.5448C128.496 17.3874 128.496 17.1775 128.496 16.9676V13.9238H127.656V13.0841H127.604Z" fill="black"/>
<path d="M131.539 16.9131H132.956V18.2776C132.956 18.6974 132.798 19.0648 132.588 19.3272C132.378 19.5896 132.011 19.7995 131.592 19.852V19.2222C131.802 19.1697 131.958 19.0648 132.063 18.8548C132.168 18.6449 132.221 18.4875 132.221 18.2251H131.539V16.9131Z" fill="black"/>
<path d="M137.207 11.0859H138.467V17.1735H142.088V18.2756H137.207V11.0859Z" fill="black"/>
<path d="M147.336 18.2237H146.233V17.5415C146.076 17.8038 145.866 18.0138 145.604 18.1712C145.342 18.3286 145.027 18.3812 144.764 18.3812C144.081 18.3812 143.61 18.2237 143.295 17.8564C142.98 17.5415 142.822 17.0167 142.822 16.3345V13.0283H143.978V16.2295C143.978 16.7019 144.081 17.0167 144.239 17.1741C144.397 17.3841 144.659 17.4365 144.974 17.4365C145.237 17.4365 145.394 17.3841 145.552 17.3316C145.709 17.2791 145.866 17.1741 145.918 17.0167C145.971 16.8593 146.076 16.7543 146.128 16.5968C146.181 16.4394 146.181 16.2295 146.181 16.0195V13.0283H147.336V18.2237Z" fill="black"/>
<path d="M148.543 13.0813H149.645V13.8684C149.802 13.606 150.065 13.3436 150.327 13.1862C150.59 13.0287 150.904 12.9238 151.271 12.9238C151.849 12.9238 152.269 13.0813 152.636 13.3436C152.951 13.6584 153.108 14.0783 153.108 14.6556V18.2241H151.954V14.9705C151.954 14.5506 151.849 14.2883 151.692 14.0783C151.534 13.9209 151.271 13.8159 150.956 13.8159C150.746 13.8159 150.59 13.8684 150.432 13.9209C150.275 13.9734 150.17 14.0783 150.065 14.2358C149.96 14.3407 149.855 14.4982 149.802 14.6556C149.75 14.8131 149.697 15.023 149.697 15.1804V18.2241H148.543V13.0813Z" fill="black"/>
<path d="M159.038 17.9611C159.038 18.7483 158.828 19.3256 158.355 19.6929C157.936 20.0603 157.306 20.2701 156.467 20.2701C156.204 20.2701 155.942 20.2177 155.679 20.1652C155.417 20.1127 155.154 20.0078 154.944 19.9028C154.735 19.7979 154.525 19.5879 154.42 19.378C154.315 19.1681 154.21 18.9057 154.158 18.5908H155.312C155.364 18.7483 155.417 18.9057 155.469 18.9582C155.574 19.0631 155.627 19.1156 155.732 19.1682C155.837 19.2206 155.942 19.2731 156.099 19.2731C156.257 19.2731 156.362 19.2731 156.519 19.2731C156.991 19.2731 157.306 19.1681 157.516 18.9582C157.726 18.7483 157.831 18.3809 157.831 17.9611V17.1739C157.674 17.4363 157.464 17.6987 157.201 17.8561C156.938 18.0135 156.623 18.1186 156.309 18.1186C155.889 18.1186 155.522 18.0661 155.259 17.9086C154.944 17.7512 154.735 17.5938 154.525 17.3313C154.315 17.069 154.21 16.8065 154.105 16.4392C154 16.1243 154 15.7569 154 15.3896C154 15.0222 154.053 14.7074 154.158 14.3925C154.263 14.0777 154.42 13.8152 154.63 13.5529C154.839 13.2904 155.049 13.133 155.364 12.9756C155.679 12.8181 155.994 12.7656 156.362 12.7656C156.676 12.7656 156.991 12.8181 157.254 12.9756C157.516 13.133 157.726 13.3429 157.884 13.6053V12.8706H159.038V17.9611ZM156.519 17.3313C156.781 17.3313 156.991 17.2788 157.149 17.1739C157.306 17.069 157.464 16.9116 157.569 16.754C157.674 16.5966 157.779 16.3868 157.831 16.1768C157.884 15.9669 157.884 15.7569 157.884 15.547C157.884 15.3372 157.831 15.1272 157.779 14.9173C157.726 14.7074 157.621 14.5499 157.516 14.3925C157.411 14.2351 157.254 14.1301 157.096 14.0251C156.938 13.9202 156.728 13.8677 156.467 13.8677C156.204 13.8677 155.994 13.9202 155.837 14.0251C155.679 14.1301 155.522 14.2876 155.417 14.445C155.312 14.6024 155.207 14.8124 155.207 15.0222C155.154 15.2322 155.154 15.4421 155.154 15.652C155.154 15.862 155.207 16.0718 155.259 16.2817C155.312 16.4917 155.417 16.6491 155.522 16.8065C155.627 16.964 155.784 17.1214 155.942 17.1739C156.099 17.2788 156.309 17.3313 156.519 17.3313Z" fill="black"/>
<path d="M160.299 16.9131H161.716V18.2776C161.716 18.6974 161.558 19.0648 161.348 19.3272C161.138 19.5896 160.771 19.7995 160.351 19.852V19.2222C160.561 19.1697 160.719 19.0648 160.823 18.8548C160.928 18.6449 160.98 18.4875 160.98 18.2251H160.299V16.9131Z" fill="black"/>
<path d="M69.5593 29.0892C69.5593 29.2466 69.5593 29.3516 69.6118 29.404C69.6642 29.4565 69.7167 29.5091 69.8216 29.5091C69.8741 29.5091 69.8741 29.5091 69.9267 29.5091C69.9792 29.5091 70.0316 29.5091 70.0841 29.5091V30.2962C70.0316 30.2962 69.9792 30.3487 69.9267 30.3487C69.8741 30.3487 69.8216 30.4012 69.7167 30.4012C69.6642 30.4012 69.5593 30.4012 69.5068 30.4536C69.4544 30.5061 69.4019 30.4536 69.3493 30.4536C69.1394 30.4536 68.9296 30.4012 68.772 30.2962C68.6146 30.1913 68.5097 30.0339 68.4572 29.8239C68.2473 30.0339 67.9324 30.1913 67.6175 30.2962C67.3027 30.4012 66.9878 30.4536 66.6729 30.4536C66.4631 30.4536 66.2006 30.4012 65.9907 30.3487C65.7808 30.2962 65.5709 30.1913 65.4135 30.0863C65.256 29.9813 65.0985 29.8239 65.0461 29.614C64.9411 29.404 64.8887 29.1942 64.8887 28.9318C64.8887 28.6169 64.9411 28.3545 65.0461 28.1446C65.151 27.9347 65.3084 27.7773 65.5184 27.6722C65.7283 27.5673 65.9383 27.4623 66.1481 27.4099C66.4105 27.3574 66.6205 27.3049 66.8828 27.3049C67.0928 27.2525 67.3027 27.2525 67.4601 27.2C67.6701 27.2 67.8275 27.1474 67.9324 27.095C68.0898 27.0425 68.1948 26.99 68.2473 26.8851C68.2998 26.7801 68.3523 26.6752 68.3523 26.5177C68.3523 26.3603 68.2998 26.2553 68.2473 26.1504C68.1948 26.0455 68.0898 25.9929 67.9849 25.9404C67.88 25.8879 67.775 25.8355 67.6175 25.8355C67.5126 25.8355 67.3552 25.8355 67.2502 25.8355C66.9353 25.8355 66.6729 25.8879 66.463 26.0455C66.2531 26.2029 66.1481 26.3603 66.0957 26.6752H64.9411C64.9411 26.3603 65.0461 26.0455 65.2035 25.8355C65.361 25.6256 65.5184 25.4156 65.7283 25.3107C65.9383 25.1533 66.2006 25.1008 66.463 25.0483C66.7254 24.9959 67.0402 24.9434 67.3027 24.9434C67.565 24.9434 67.8275 24.9959 68.0374 25.0483C68.2998 25.1008 68.5097 25.2057 68.7196 25.3107C68.9296 25.4156 69.087 25.5731 69.1919 25.783C69.2968 25.9929 69.3493 26.2029 69.3493 26.4652V29.0892H69.5593ZM68.4048 27.6722C68.2473 27.7773 68.0374 27.8297 67.775 27.8822C67.5126 27.8822 67.2502 27.9347 66.9878 27.9871C66.8828 27.9871 66.7254 28.0396 66.6205 28.0921C66.5155 28.1446 66.4105 28.197 66.3056 28.2495C66.2006 28.302 66.1481 28.407 66.0957 28.5119C66.0432 28.6169 66.0432 28.7218 66.0432 28.8792C66.0432 28.9843 66.0957 29.0892 66.1481 29.1942C66.2006 29.2991 66.3056 29.3516 66.4105 29.404C66.5155 29.4565 66.6205 29.5091 66.7254 29.5091C66.8304 29.5091 66.9353 29.5615 67.0402 29.5615C67.1453 29.5615 67.3027 29.5615 67.4601 29.5091C67.6175 29.4565 67.7225 29.404 67.88 29.3516C67.9849 29.2466 68.1423 29.1942 68.1949 29.0367C68.2473 28.8792 68.2998 28.7743 68.2998 28.5644V27.6722H68.4048Z" fill="black"/>
<path d="M70.7676 25.0998H71.8697V25.8869C72.0271 25.6246 72.2894 25.3622 72.5519 25.2047C72.8142 25.0473 73.1292 24.9424 73.4966 24.9424C74.0738 24.9424 74.4936 25.0998 74.861 25.3622C75.1759 25.6771 75.3333 26.0969 75.3333 26.6742V30.2428H74.1788V26.989C74.1788 26.5693 74.0738 26.3068 73.9163 26.0969C73.7589 25.9395 73.4966 25.8345 73.1816 25.8345C72.9718 25.8345 72.8142 25.8869 72.6568 25.9395C72.4994 25.992 72.3945 26.0969 72.2894 26.2543C72.1845 26.3593 72.0796 26.5168 72.0271 26.6742C71.9746 26.8316 71.9222 27.0415 71.9222 27.199V30.2428H70.7676V25.0998Z" fill="black"/>
<path d="M81.4204 30.239H80.3183V29.5568C80.1608 29.8717 79.9509 30.0816 79.636 30.1865C79.3212 30.2914 79.0063 30.3965 78.6914 30.3965C78.2716 30.3965 77.9042 30.344 77.6418 30.1865C77.3794 30.0291 77.0646 29.8717 76.9072 29.6092C76.7497 29.3469 76.5398 29.0844 76.4348 28.7171C76.3299 28.4022 76.2773 28.0348 76.2773 27.6151C76.2773 27.1427 76.3299 26.7229 76.4873 26.4081C76.5922 26.0931 76.8021 25.7783 77.0121 25.5683C77.222 25.3585 77.4844 25.201 77.7468 25.096C78.0091 24.9911 78.2716 24.9386 78.5865 24.9386C78.7439 24.9386 78.9013 24.9386 79.0587 24.9911C79.2162 25.0435 79.3737 25.0435 79.5311 25.1485C79.6885 25.201 79.846 25.306 79.9509 25.4109C80.0559 25.5159 80.2133 25.6208 80.2657 25.7783V23.1543H81.4204V30.239ZM77.4319 27.72C77.4319 27.9299 77.4844 28.1399 77.5369 28.3497C77.5894 28.5596 77.6943 28.7696 77.7993 28.927C77.9042 29.0844 78.0617 29.2419 78.2191 29.3469C78.3765 29.4518 78.639 29.5043 78.8489 29.5043C79.1112 29.5043 79.3212 29.4518 79.5311 29.3469C79.6885 29.2419 79.846 29.0844 80.0034 28.927C80.1608 28.7696 80.2133 28.5596 80.2657 28.3497C80.3182 28.1399 80.3708 27.9299 80.3708 27.6675C80.3708 27.0903 80.2657 26.6704 80.0034 26.303C79.7409 25.9882 79.3737 25.8308 78.9538 25.8308C78.6914 25.8308 78.4815 25.8833 78.2716 25.9882C78.0617 26.0931 77.9567 26.2505 77.7993 26.4081C77.6943 26.5655 77.5894 26.7753 77.5369 26.9853C77.4319 27.2477 77.4319 27.5101 77.4319 27.72Z" fill="black"/>
<path d="M85.5659 23.1055H89.0295C89.6593 23.1055 90.1841 23.2629 90.5514 23.5253C90.9188 23.7877 91.1286 24.26 91.1286 24.8373C91.1286 25.2046 91.0237 25.5195 90.8663 25.7819C90.7089 26.0443 90.4464 26.2542 90.1316 26.3591C90.5514 26.4642 90.9188 26.6741 91.1286 26.9889C91.3386 27.3038 91.4436 27.7237 91.4436 28.196C91.4436 28.4583 91.3911 28.7208 91.2862 28.9831C91.1811 29.2455 91.0237 29.4555 90.8138 29.6129C90.6038 29.7703 90.3415 29.9278 89.9741 30.0327C89.6593 30.1377 89.2394 30.1901 88.7671 30.1901H85.4609V23.1055H85.5659ZM86.8254 26.0968H88.872C89.1869 26.0968 89.3968 25.9918 89.6068 25.8343C89.8167 25.6769 89.9216 25.4146 89.9216 25.0997C89.9216 24.7324 89.8167 24.4699 89.6593 24.3125C89.5018 24.1551 89.2394 24.1025 88.872 24.1025H86.8254V26.0968ZM86.8254 29.2455H89.0295C89.3968 29.2455 89.7117 29.1405 89.9216 28.9307C90.1316 28.7208 90.2366 28.4583 90.2366 28.0909C90.2366 27.7237 90.1316 27.4612 89.9216 27.2513C89.7117 27.0414 89.3968 26.9889 89.0295 26.9889H86.8254V29.2455Z" fill="black"/>
<path d="M92.4941 23.1055H93.6486V30.2426H92.4941V23.1055Z" fill="black"/>
<path d="M97.2685 30.4002C96.8486 30.4002 96.4814 30.3477 96.1664 30.1903C95.8515 30.0329 95.5892 29.8754 95.3267 29.613C95.1168 29.3507 94.907 29.0882 94.802 28.7734C94.697 28.4585 94.6445 28.0911 94.6445 27.6713C94.6445 27.2515 94.697 26.9365 94.802 26.5693C94.907 26.2543 95.0644 25.9395 95.3267 25.7295C95.5892 25.5197 95.799 25.3097 96.1664 25.1523C96.5338 24.9949 96.8486 24.9424 97.2685 24.9424C97.6884 24.9424 98.0557 24.9949 98.3706 25.1523C98.6854 25.3097 98.9478 25.4672 99.2102 25.7295C99.4726 25.992 99.6301 26.2543 99.735 26.5693C99.8399 26.8841 99.8924 27.2515 99.8924 27.6713C99.8924 28.0911 99.8399 28.4585 99.735 28.7734C99.6301 29.0882 99.4726 29.4031 99.2102 29.613C99.0003 29.8754 98.7379 30.0329 98.3706 30.1903C98.0557 30.3477 97.6884 30.4002 97.2685 30.4002ZM97.2685 29.5081C97.5309 29.5081 97.7408 29.4556 97.9507 29.3507C98.1606 29.2456 98.2656 29.0882 98.423 28.9308C98.528 28.7734 98.6329 28.5634 98.6854 28.3535C98.7379 28.1436 98.7903 27.9337 98.7903 27.6713C98.7903 27.4613 98.7379 27.2515 98.6854 26.989C98.6329 26.7791 98.528 26.5693 98.423 26.4117C98.3181 26.2543 98.1606 26.0969 97.9507 25.992C97.7408 25.8869 97.5309 25.8345 97.2685 25.8345C97.0061 25.8345 96.7962 25.8869 96.5863 25.992C96.3763 26.0969 96.2714 26.2543 96.114 26.4117C96.009 26.5693 95.9041 26.7791 95.8515 26.989C95.7991 27.199 95.7466 27.4089 95.7466 27.6713C95.7466 27.8812 95.7991 28.1436 95.8515 28.3535C95.9041 28.5634 96.009 28.7734 96.114 28.9308C96.2189 29.0882 96.3763 29.2456 96.5863 29.3507C96.7962 29.4556 97.0061 29.5081 97.2685 29.5081Z" fill="black"/>
<path d="M103.2 30.4012C102.781 30.4012 102.413 30.3487 102.098 30.1913C101.783 30.0339 101.52 29.8764 101.259 29.614C101.049 29.3516 100.839 29.0892 100.734 28.7743C100.629 28.4595 100.576 28.0921 100.576 27.6722C100.576 27.2525 100.629 26.9375 100.734 26.5702C100.839 26.2553 100.996 25.9404 101.259 25.7305C101.52 25.5207 101.73 25.3107 102.098 25.1533C102.466 24.9959 102.781 24.9434 103.2 24.9434C103.62 24.9434 103.987 24.9959 104.302 25.1533C104.617 25.3107 104.88 25.4682 105.141 25.7305C105.404 25.9929 105.562 26.2553 105.667 26.5702C105.772 26.8851 105.824 27.2525 105.824 27.6722C105.824 28.0921 105.772 28.4595 105.667 28.7743C105.562 29.0892 105.404 29.404 105.141 29.614C104.931 29.8764 104.67 30.0339 104.302 30.1913C103.987 30.3487 103.62 30.4012 103.2 30.4012ZM103.2 29.5091C103.462 29.5091 103.672 29.4565 103.882 29.3516C104.092 29.2466 104.197 29.0892 104.355 28.9318C104.46 28.7743 104.565 28.5644 104.617 28.3545C104.67 28.1446 104.722 27.9347 104.722 27.6722C104.722 27.4623 104.67 27.2525 104.617 26.99C104.565 26.7801 104.46 26.5702 104.355 26.4127C104.25 26.2553 104.092 26.0979 103.882 25.9929C103.672 25.8879 103.462 25.8355 103.2 25.8355C102.938 25.8355 102.728 25.8879 102.518 25.9929C102.308 26.0979 102.203 26.2553 102.045 26.4127C101.94 26.5702 101.835 26.7801 101.783 26.99C101.73 27.2 101.678 27.4099 101.678 27.6722C101.678 27.8822 101.73 28.1446 101.783 28.3545C101.835 28.5644 101.94 28.7743 102.045 28.9318C102.15 29.0892 102.308 29.2466 102.518 29.3516C102.728 29.4565 102.938 29.5091 103.2 29.5091Z" fill="black"/>
<path d="M111.649 30.239H110.547V29.5568C110.39 29.8717 110.18 30.0816 109.864 30.1865C109.549 30.2914 109.234 30.3965 108.92 30.3965C108.5 30.3965 108.133 30.344 107.87 30.1865C107.608 30.0291 107.292 29.8717 107.136 29.6092C106.978 29.3469 106.768 29.0844 106.663 28.7171C106.558 28.4022 106.506 28.0348 106.506 27.6151C106.506 27.1427 106.558 26.7229 106.716 26.4081C106.821 26.0931 107.031 25.7783 107.24 25.5683C107.45 25.3585 107.713 25.201 107.975 25.096C108.238 24.9911 108.5 24.9386 108.815 24.9386C108.972 24.9386 109.129 24.9386 109.287 24.9911C109.444 25.0435 109.602 25.0435 109.759 25.1485C109.917 25.201 110.074 25.306 110.18 25.4109C110.285 25.5159 110.442 25.6208 110.495 25.7783V23.1543H111.649V30.239ZM107.66 27.72C107.66 27.9299 107.713 28.1399 107.765 28.3497C107.818 28.5596 107.923 28.7696 108.028 28.927C108.133 29.0844 108.29 29.2419 108.448 29.3469C108.605 29.4518 108.868 29.5043 109.077 29.5043C109.339 29.5043 109.549 29.4518 109.759 29.3469C109.917 29.2419 110.074 29.0844 110.232 28.927C110.39 28.7696 110.442 28.5596 110.495 28.3497C110.547 28.1399 110.6 27.9299 110.6 27.6675C110.6 27.0903 110.495 26.6704 110.232 26.303C109.969 25.9882 109.602 25.8308 109.182 25.8308C108.92 25.8308 108.71 25.8833 108.5 25.9882C108.343 26.0931 108.185 26.2505 108.028 26.4081C107.923 26.5655 107.818 26.7753 107.765 26.9853C107.713 27.2477 107.66 27.5101 107.66 27.72Z" fill="black"/>
<path d="M115.846 23.1055H117.105V30.2426H115.846V23.1055Z" fill="black"/>
<path d="M118.469 25.1008H119.571V25.8879C119.729 25.6256 119.992 25.3631 120.253 25.2057C120.516 25.0483 120.831 24.9434 121.198 24.9434C121.776 24.9434 122.195 25.1008 122.562 25.3631C122.878 25.6781 123.035 26.0979 123.035 26.6752V30.2438H121.88V26.99C121.88 26.5702 121.776 26.3078 121.618 26.0979C121.461 25.9404 121.198 25.8355 120.883 25.8355C120.673 25.8355 120.516 25.8879 120.358 25.9404C120.201 25.9929 120.097 26.0979 119.992 26.2553C119.887 26.3603 119.782 26.5177 119.729 26.6752C119.677 26.8326 119.624 27.0425 119.624 27.2V30.2438H118.469V25.1008Z" fill="black"/>
<path d="M125.082 28.6152C125.135 28.93 125.24 29.1925 125.45 29.2974C125.66 29.4548 125.921 29.5073 126.236 29.5073C126.341 29.5073 126.446 29.5073 126.604 29.5073C126.761 29.5073 126.866 29.4548 126.971 29.4023C127.076 29.3499 127.182 29.2974 127.287 29.1925C127.339 29.0875 127.392 28.9825 127.392 28.8251C127.392 28.6677 127.339 28.5627 127.234 28.4577C127.129 28.3527 127.024 28.3003 126.866 28.2478C126.709 28.1953 126.551 28.1429 126.341 28.0904C126.131 28.0379 125.921 27.9854 125.712 27.9854C125.502 27.933 125.292 27.8804 125.082 27.8279C124.872 27.7755 124.715 27.6705 124.557 27.5656C124.399 27.4606 124.294 27.3031 124.189 27.1457C124.084 26.9883 124.033 26.7259 124.033 26.4635C124.033 26.2012 124.084 25.9387 124.242 25.7813C124.399 25.6238 124.557 25.4139 124.767 25.309C124.977 25.204 125.187 25.0991 125.45 25.0465C125.712 24.9941 125.974 24.9941 126.184 24.9941C126.446 24.9941 126.709 25.0465 126.971 25.0991C127.234 25.1516 127.444 25.2565 127.653 25.3614C127.863 25.4664 128.021 25.6764 128.126 25.8338C128.231 26.0437 128.336 26.3061 128.388 26.5685H127.182C127.129 26.3061 127.024 26.0961 126.814 26.0437C126.604 25.9387 126.394 25.8862 126.131 25.8862C126.026 25.8862 125.974 25.8862 125.869 25.8862C125.765 25.8862 125.66 25.9387 125.555 25.9387C125.45 25.9912 125.397 26.0437 125.292 26.0961C125.187 26.1486 125.187 26.2536 125.187 26.3586C125.187 26.516 125.24 26.6209 125.345 26.6734C125.45 26.7783 125.555 26.8309 125.712 26.8834C125.869 26.9358 126.026 26.9883 126.236 27.0408C126.446 27.0933 126.656 27.1457 126.866 27.1457C127.076 27.1982 127.287 27.2507 127.497 27.3031C127.706 27.3557 127.863 27.4606 128.021 27.5656C128.178 27.6705 128.283 27.8279 128.388 27.9854C128.493 28.1429 128.546 28.3527 128.546 28.6152C128.546 28.93 128.493 29.1925 128.336 29.4023C128.178 29.6122 128.021 29.7697 127.811 29.9271C127.601 30.0845 127.339 30.137 127.076 30.2421C126.814 30.2945 126.551 30.347 126.289 30.347C125.974 30.347 125.66 30.2945 125.397 30.2421C125.135 30.1895 124.872 30.0321 124.662 29.9271C124.452 29.8222 124.294 29.6122 124.189 29.3499C124.084 29.14 124.033 28.8775 123.98 28.5627H125.082V28.6152Z" fill="black"/>
<path d="M128.914 25.0978H129.754V23.5234H130.908V25.0978H131.959V25.9375H130.908V28.7188C130.908 28.8239 130.908 28.9288 130.908 29.0338C130.908 29.1387 130.961 29.1912 130.961 29.2436C131.013 29.2961 131.066 29.3487 131.118 29.4011C131.171 29.4536 131.276 29.4536 131.434 29.4536C131.539 29.4536 131.591 29.4536 131.696 29.4536C131.801 29.4536 131.854 29.4536 131.959 29.4011V30.2932C131.854 30.2932 131.696 30.3457 131.591 30.3457C131.486 30.3457 131.329 30.3457 131.224 30.3457C130.908 30.3457 130.698 30.2932 130.488 30.2408C130.331 30.1883 130.174 30.0834 130.069 29.9784C129.964 29.8735 129.912 29.716 129.859 29.5586C129.807 29.4011 129.807 29.1912 129.807 28.9813V25.9375H128.967V25.0978H128.914Z" fill="black"/>
<path d="M132.797 23.1055H133.951V24.2076H132.797V23.1055ZM132.797 25.0997H133.951V30.2951H132.797V25.0997Z" fill="black"/>
<path d="M134.635 25.0978H135.474V23.5234H136.629V25.0978H137.678V25.9375H136.629V28.7188C136.629 28.8239 136.629 28.9288 136.629 29.0338C136.629 29.1387 136.682 29.1912 136.682 29.2436C136.734 29.2961 136.787 29.3487 136.839 29.4011C136.892 29.4536 136.996 29.4536 137.153 29.4536C137.258 29.4536 137.311 29.4536 137.416 29.4536C137.521 29.4536 137.573 29.4536 137.678 29.4011V30.2932C137.573 30.2932 137.416 30.3457 137.311 30.3457C137.206 30.3457 137.048 30.3457 136.944 30.3457C136.629 30.3457 136.419 30.2932 136.209 30.2408C136.051 30.1883 135.894 30.0834 135.789 29.9784C135.684 29.8735 135.631 29.716 135.579 29.5586C135.526 29.4011 135.526 29.1912 135.526 28.9813V25.9375H134.687V25.0978H134.635Z" fill="black"/>
<path d="M143.03 30.2421H141.929V29.5073C141.771 29.7697 141.561 29.9796 141.299 30.137C141.036 30.2945 140.721 30.347 140.459 30.347C139.777 30.347 139.304 30.1895 138.989 29.8222C138.675 29.5073 138.518 28.9825 138.518 28.3003V24.9941H139.672V28.1953C139.672 28.6677 139.777 28.9825 139.934 29.14C140.092 29.2974 140.354 29.4023 140.668 29.4023C140.931 29.4023 141.088 29.3499 141.246 29.2974C141.404 29.2449 141.561 29.14 141.614 28.9825C141.719 28.8775 141.771 28.7201 141.824 28.5627C141.876 28.4052 141.876 28.1953 141.876 27.9854V24.9941H143.03V30.2421Z" fill="black"/>
<path d="M143.713 25.0978H144.552V23.5234H145.707V25.0978H146.756V25.9375H145.707V28.7188C145.707 28.8239 145.707 28.9288 145.707 29.0338C145.707 29.1387 145.759 29.1912 145.759 29.2436C145.811 29.2961 145.864 29.3487 145.916 29.4011C145.969 29.4536 146.074 29.4536 146.231 29.4536C146.336 29.4536 146.389 29.4536 146.494 29.4536C146.599 29.4536 146.651 29.4536 146.756 29.4011V30.2932C146.651 30.2932 146.494 30.3457 146.389 30.3457C146.284 30.3457 146.126 30.3457 146.021 30.3457C145.707 30.3457 145.497 30.2932 145.287 30.2408C145.13 30.1883 144.972 30.0834 144.867 29.9784C144.762 29.8735 144.71 29.716 144.657 29.5586C144.605 29.4011 144.605 29.1912 144.605 28.9813V25.9375H143.713V25.0978Z" fill="black"/>
<path d="M148.489 27.9859C148.489 28.1958 148.541 28.4057 148.594 28.5632C148.646 28.773 148.751 28.9304 148.856 29.0355C148.961 29.1929 149.119 29.2978 149.276 29.3503C149.434 29.4552 149.644 29.4552 149.905 29.4552C150.22 29.4552 150.483 29.4028 150.693 29.2454C150.903 29.088 151.061 28.878 151.166 28.6156H152.267C152.215 28.878 152.11 29.1404 151.952 29.3503C151.795 29.5603 151.638 29.7702 151.428 29.9276C151.218 30.0851 151.008 30.19 150.746 30.2425C150.483 30.295 150.22 30.3474 149.958 30.3474C149.539 30.3474 149.171 30.295 148.856 30.1376C148.541 29.98 148.279 29.8226 148.07 29.5603C147.86 29.2978 147.702 29.0355 147.597 28.7206C147.492 28.4057 147.439 28.0384 147.439 27.6185C147.439 27.2512 147.492 26.8838 147.597 26.5689C147.702 26.2541 147.86 25.9392 148.122 25.6768C148.331 25.4144 148.594 25.2045 148.909 25.0995C149.224 24.9421 149.539 24.8896 149.958 24.8896C150.378 24.8896 150.746 24.9946 151.061 25.152C151.376 25.3094 151.637 25.5719 151.847 25.8342C152.057 26.0967 152.215 26.4115 152.32 26.7789C152.425 27.1462 152.425 27.5136 152.372 27.8809H148.489V27.9859ZM151.166 27.1986C151.166 27.0412 151.113 26.8313 151.061 26.6739C151.008 26.5164 150.903 26.359 150.798 26.2541C150.693 26.1491 150.535 26.0441 150.378 25.9392C150.22 25.8867 150.063 25.8342 149.854 25.8342C149.644 25.8342 149.486 25.8867 149.329 25.9392C149.171 25.9916 149.014 26.0967 148.909 26.2541C148.804 26.359 148.699 26.5164 148.646 26.6739C148.594 26.8313 148.541 27.0412 148.541 27.1986H151.166Z" fill="black"/>
</g>
<defs>
<clipPath id="clip0_2097_64969">
<rect width="166" height="43" fill="white" transform="translate(0.3125)"/>
</clipPath>
</defs>
</svg>
