<svg width="180" height="35" viewBox="0 0 180 35" fill="none" xmlns="http://www.w3.org/2000/svg">
<path d="M63.0146 6.68066H64.6194L68.5977 13.1094H68.6312V6.68066H70.1022V15.4197H68.4975L64.5191 8.99101H64.4856V15.4197H63.0481V6.68066H63.0146Z" fill="black"/>
<path d="M76.7879 14.0139C76.7879 14.1813 76.8213 14.3153 76.8547 14.3823C76.8882 14.4492 76.9885 14.4827 77.1222 14.4827H77.2559C77.3228 14.4827 77.3896 14.4827 77.4565 14.4492V15.4202C77.4231 15.4202 77.3562 15.4537 77.2559 15.4872C77.1891 15.5207 77.0888 15.5207 77.0219 15.5541C76.9551 15.5541 76.8547 15.5877 76.7879 15.5877H76.5873C76.2864 15.5877 76.0524 15.5207 75.8853 15.4202C75.6846 15.3198 75.5844 15.1188 75.5175 14.8176C75.25 15.0854 74.9157 15.2863 74.4811 15.4202C74.0799 15.5541 73.6787 15.5877 73.311 15.5877C73.0101 15.5877 72.7427 15.5541 72.5086 15.4872C72.2412 15.4202 72.0071 15.2863 71.8066 15.1524C71.606 14.985 71.4388 14.8176 71.3385 14.5832C71.2048 14.3487 71.1714 14.0809 71.1714 13.7795C71.1714 13.3778 71.2382 13.0764 71.3719 12.8086C71.5057 12.5742 71.7063 12.3733 71.9403 12.2393C72.1743 12.1054 72.4418 12.0049 72.7093 11.938C72.9767 11.871 73.2776 11.8375 73.5785 11.8041C73.8459 11.7706 74.0799 11.7371 74.3139 11.7036C74.5479 11.6701 74.7486 11.6366 74.9157 11.6032C75.0828 11.5697 75.2166 11.4692 75.3169 11.3688C75.4172 11.2683 75.484 11.1009 75.484 10.9C75.484 10.7326 75.4506 10.5652 75.3503 10.4647C75.25 10.3643 75.1497 10.2639 75.016 10.1969C74.8823 10.1299 74.7486 10.0965 74.5814 10.0629C74.4143 10.0295 74.2805 10.0295 74.1468 10.0295C73.7456 10.0295 73.4447 10.0965 73.1773 10.2639C72.9098 10.4313 72.7761 10.6656 72.7427 11.034H71.3385C71.3719 10.6321 71.4723 10.2973 71.6394 10.0295C71.8066 9.76157 72.0406 9.56072 72.308 9.39324C72.5755 9.22584 72.8764 9.12541 73.2107 9.05843C73.545 8.99146 73.8794 8.95801 74.247 8.95801C74.5479 8.95801 74.8488 8.99146 75.1497 9.05843C75.4506 9.12541 75.7181 9.22584 75.9521 9.39324C76.1862 9.56072 76.3867 9.72812 76.5204 9.9625C76.6542 10.1969 76.7545 10.4647 76.7545 10.7996V14.0139H76.7879ZM75.3837 12.2393C75.1832 12.3733 74.9157 12.4737 74.6148 12.4737C74.3139 12.5072 73.9796 12.5407 73.6787 12.6076C73.545 12.6411 73.3778 12.6746 73.2441 12.7081C73.1104 12.7416 72.9767 12.8086 72.8764 12.8755C72.7761 12.9425 72.6758 13.043 72.6424 13.1768C72.6089 13.3108 72.542 13.4447 72.542 13.6456C72.542 13.8131 72.5755 13.9469 72.6758 14.0474C72.7761 14.1479 72.8764 14.2483 73.0101 14.3153C73.1438 14.3823 73.2776 14.4157 73.4113 14.4492C73.545 14.4827 73.7122 14.4827 73.8125 14.4827C73.9796 14.4827 74.1468 14.4492 74.3139 14.4157C74.4811 14.3823 74.6483 14.3153 74.8154 14.2148C74.9826 14.1143 75.1163 13.9805 75.2166 13.8465C75.3169 13.6791 75.3837 13.5117 75.3837 13.2773V12.2393Z" fill="black"/>
<path d="M77.4551 9.09118H78.4914V7.18262H79.8956V9.09118H81.166V10.1291H79.8956V13.5109C79.8956 13.6448 79.8955 13.7788 79.929 13.8792C79.929 13.9797 79.9624 14.0801 80.0293 14.1471C80.0628 14.2141 80.1296 14.281 80.2299 14.3145C80.3302 14.3479 80.4305 14.3815 80.5976 14.3815H80.8985C80.9989 14.3815 81.0991 14.3479 81.1994 14.3479V15.4194C81.0322 15.4194 80.8985 15.4529 80.7314 15.4529C80.5976 15.4529 80.4305 15.4864 80.2633 15.4864C79.8955 15.4864 79.5947 15.4529 79.3941 15.386C79.1601 15.319 78.9929 15.2186 78.8592 15.0846C78.7254 14.9507 78.6586 14.7832 78.5918 14.5823C78.5583 14.3815 78.5249 14.1471 78.5249 13.8792V10.1291H77.4885V9.09118H77.4551Z" fill="black"/>
<path d="M81.9697 6.68066H83.3738V7.98651H81.9697V6.68066ZM81.9697 9.09143H83.3738V15.4197H81.9697V9.09143Z" fill="black"/>
<path d="M87.5864 15.5877C87.0849 15.5877 86.6169 15.5207 86.2492 15.3532C85.8479 15.1858 85.5136 14.9514 85.2462 14.6501C84.9787 14.3488 84.7782 14.0139 84.6109 13.6121C84.4773 13.2104 84.4104 12.7416 84.4104 12.2728C84.4104 11.8041 84.4773 11.3353 84.6109 10.9335C84.7447 10.5317 84.9453 10.1634 85.2462 9.89552C85.5136 9.59417 85.8479 9.35979 86.2492 9.19239C86.6503 9.02498 87.0849 8.95801 87.5864 8.95801C88.0878 8.95801 88.5559 9.02498 88.9236 9.19239C89.3248 9.35979 89.6592 9.59417 89.9266 9.89552C90.1941 10.1969 90.3946 10.5317 90.5618 10.9335C90.6955 11.3353 90.7624 11.7706 90.7624 12.2728C90.7624 12.775 90.6955 13.2104 90.5618 13.6121C90.4281 14.0139 90.2275 14.3823 89.9266 14.6501C89.6592 14.9514 89.3248 15.1858 88.9236 15.3532C88.5225 15.5207 88.0878 15.5877 87.5864 15.5877ZM87.5864 14.4827C87.8873 14.4827 88.1547 14.4157 88.3887 14.2818C88.6228 14.1479 88.79 13.9805 88.9571 13.7795C89.1243 13.5787 89.2245 13.3443 89.2914 13.0764C89.3583 12.8086 89.3917 12.5407 89.3917 12.2728C89.3917 12.0049 89.3583 11.7371 89.2914 11.4692C89.2245 11.2014 89.1243 10.967 88.9571 10.7661C88.8234 10.5652 88.6228 10.3977 88.3887 10.2639C88.1547 10.1299 87.8873 10.0629 87.5864 10.0629C87.2855 10.0629 87.0181 10.1299 86.7841 10.2639C86.5501 10.3977 86.3828 10.5652 86.2157 10.7661C86.082 10.967 85.9483 11.2014 85.8814 11.4692C85.8145 11.7371 85.7811 12.0049 85.7811 12.2728C85.7811 12.5407 85.8145 12.8086 85.8814 13.0764C85.9483 13.3443 86.0485 13.5787 86.2157 13.7795C86.3828 13.9805 86.5501 14.1479 86.7841 14.2818C86.9846 14.4157 87.2521 14.4827 87.5864 14.4827Z" fill="black"/>
<path d="M91.6968 9.09123H93.0006V10.0287L93.0341 10.0623C93.2346 9.72747 93.5355 9.42611 93.8699 9.22518C94.2042 9.02425 94.6054 8.92383 95.0065 8.92383C95.7086 8.92383 96.2435 9.09123 96.6447 9.45956C97.0456 9.82789 97.2465 10.3636 97.2465 11.0668V15.4195H95.8423V11.4351C95.8423 10.9328 95.7086 10.5645 95.508 10.3636C95.3074 10.1627 95.0065 10.0287 94.6054 10.0287C94.3713 10.0287 94.1707 10.0623 93.9702 10.1627C93.7696 10.2631 93.6359 10.3636 93.5021 10.531C93.3684 10.6984 93.2681 10.8658 93.2012 11.0668C93.1344 11.2676 93.101 11.502 93.101 11.7029V15.4195H91.6968V9.09123Z" fill="black"/>
<path d="M103.801 14.0139C103.801 14.1813 103.835 14.3153 103.868 14.3823C103.902 14.4492 104.002 14.4827 104.136 14.4827H104.269C104.336 14.4827 104.403 14.4827 104.47 14.4492V15.4202C104.437 15.4202 104.37 15.4537 104.269 15.4872C104.203 15.5207 104.102 15.5207 104.035 15.5541C103.968 15.5541 103.868 15.5877 103.801 15.5877H103.601C103.3 15.5877 103.066 15.5207 102.899 15.4202C102.698 15.3198 102.598 15.1188 102.531 14.8176C102.264 15.0854 101.929 15.2863 101.495 15.4202C101.093 15.5541 100.692 15.5877 100.324 15.5877C100.023 15.5877 99.7565 15.5541 99.5225 15.4872C99.2547 15.4202 99.0208 15.2863 98.8199 15.1524C98.6199 14.985 98.4521 14.8176 98.352 14.5832C98.2181 14.3487 98.1851 14.0809 98.1851 13.7795C98.1851 13.3778 98.252 13.0764 98.3851 12.8086C98.519 12.5742 98.7199 12.3733 98.9538 12.2393C99.1878 12.1054 99.4556 12.0049 99.7226 11.938C99.9904 11.871 100.291 11.8375 100.592 11.8041C100.859 11.7706 101.093 11.7371 101.327 11.7036C101.562 11.6701 101.762 11.6366 101.929 11.6032C102.097 11.5697 102.23 11.4692 102.331 11.3688C102.431 11.2683 102.498 11.1009 102.498 10.9C102.498 10.7326 102.465 10.5652 102.364 10.4647C102.264 10.3643 102.164 10.2639 102.03 10.1969C101.896 10.1299 101.762 10.0965 101.595 10.0629C101.428 10.0295 101.294 10.0295 101.16 10.0295C100.759 10.0295 100.458 10.0965 100.19 10.2639C99.9235 10.4313 99.7896 10.6656 99.7565 11.034H98.352C98.3851 10.6321 98.4859 10.2973 98.6529 10.0295C98.8199 9.76157 99.0539 9.56072 99.3217 9.39324C99.5887 9.22584 99.8896 9.12541 100.224 9.05843C100.558 8.99146 100.893 8.95801 101.261 8.95801C101.562 8.95801 101.863 8.99146 102.164 9.05843C102.465 9.12541 102.732 9.22584 102.965 9.39324C103.199 9.56072 103.4 9.72812 103.534 9.9625C103.668 10.1969 103.768 10.4647 103.768 10.7996V14.0139H103.801ZM102.431 12.2393C102.23 12.3733 101.963 12.4737 101.662 12.4737C101.361 12.5072 101.026 12.5407 100.725 12.6076C100.592 12.6411 100.425 12.6746 100.291 12.7081C100.157 12.7416 100.023 12.8086 99.9235 12.8755C99.8234 12.9425 99.7226 13.043 99.6895 13.1768C99.6557 13.3108 99.5887 13.4447 99.5887 13.6456C99.5887 13.8131 99.6226 13.9469 99.7226 14.0474C99.8234 14.1479 99.9235 14.2483 100.057 14.3153C100.19 14.3823 100.324 14.4157 100.458 14.4492C100.592 14.4827 100.759 14.4827 100.859 14.4827C101.026 14.4827 101.194 14.4492 101.361 14.4157C101.528 14.3823 101.695 14.3153 101.863 14.2148C102.03 14.1143 102.164 13.9805 102.264 13.8465C102.364 13.6791 102.431 13.5117 102.431 13.2773V12.2393Z" fill="black"/>
<path d="M105.139 6.68066H106.543V15.4197H105.139V6.68066Z" fill="black"/>
<path d="M111.223 6.68066H112.761V15.4197H111.223V6.68066Z" fill="black"/>
<path d="M114.198 9.09123H115.501V10.0287L115.535 10.0623C115.735 9.72747 116.036 9.42611 116.371 9.22518C116.705 9.02425 117.106 8.92383 117.508 8.92383C118.209 8.92383 118.744 9.09123 119.145 9.45956C119.547 9.82789 119.747 10.3636 119.747 11.0668V15.4195H118.343V11.4351C118.343 10.9328 118.209 10.5645 118.009 10.3636C117.808 10.1627 117.508 10.0287 117.106 10.0287C116.872 10.0287 116.672 10.0623 116.471 10.1627C116.27 10.2631 116.137 10.3636 116.003 10.531C115.869 10.6984 115.769 10.8658 115.702 11.0668C115.635 11.2676 115.602 11.502 115.602 11.7029V15.4195H114.198V9.09123Z" fill="black"/>
<path d="M122.054 13.3771C122.088 13.7789 122.255 14.0802 122.523 14.2476C122.79 14.415 123.125 14.482 123.492 14.482C123.626 14.482 123.759 14.482 123.926 14.4486C124.093 14.415 124.261 14.3816 124.394 14.3481C124.528 14.2811 124.662 14.2142 124.762 14.1137C124.863 14.0133 124.896 13.8459 124.896 13.6785C124.896 13.511 124.829 13.3436 124.695 13.2432C124.562 13.1427 124.428 13.0422 124.227 12.9753C124.027 12.9083 123.826 12.8414 123.559 12.8078C123.325 12.7744 123.058 12.7074 122.824 12.6404C122.556 12.5735 122.322 12.5065 122.088 12.4396C121.854 12.3726 121.62 12.2387 121.452 12.1047C121.285 11.9708 121.118 11.8034 120.984 11.569C120.884 11.3681 120.817 11.1002 120.817 10.7654C120.817 10.4306 120.884 10.1293 121.051 9.89487C121.218 9.66049 121.419 9.45956 121.687 9.32561C121.954 9.19173 122.222 9.09123 122.556 9.02425C122.857 8.95736 123.158 8.92383 123.459 8.92383C123.793 8.92383 124.093 8.95736 124.394 9.02425C124.695 9.09123 124.963 9.19173 125.197 9.35914C125.431 9.52654 125.632 9.72747 125.799 9.96185C125.966 10.1962 126.067 10.4975 126.1 10.8658H124.662C124.595 10.531 124.428 10.2967 124.194 10.1962C123.96 10.0957 123.693 10.0287 123.359 10.0287C123.258 10.0287 123.158 10.0287 123.024 10.0623C122.891 10.0623 122.757 10.0957 122.656 10.1627C122.556 10.2297 122.422 10.2631 122.355 10.3636C122.289 10.4641 122.222 10.5645 122.222 10.6984C122.222 10.8658 122.289 10.9998 122.389 11.1002C122.523 11.2007 122.656 11.3011 122.857 11.3681C123.058 11.4351 123.258 11.502 123.526 11.5355C123.759 11.569 124.027 11.6359 124.294 11.7029C124.562 11.7699 124.796 11.8369 125.03 11.9039C125.264 11.9708 125.498 12.1047 125.699 12.2387C125.899 12.3726 126.033 12.54 126.167 12.7744C126.301 12.9753 126.334 13.2432 126.334 13.5445C126.334 13.9128 126.234 14.2476 126.067 14.5155C125.899 14.7834 125.665 14.9842 125.398 15.1517C125.13 15.3191 124.829 15.4195 124.495 15.52C124.16 15.5869 123.826 15.6205 123.492 15.6205C123.091 15.6205 122.723 15.5869 122.389 15.4865C122.054 15.3861 121.753 15.2521 121.519 15.0847C121.285 14.9173 121.085 14.683 120.918 14.415C120.751 14.1472 120.684 13.8123 120.684 13.4441H122.054V13.3771Z" fill="black"/>
<path d="M126.467 9.09118H127.503V7.18262H128.907V9.09118H130.177V10.1291H128.907V13.5109C128.907 13.6448 128.907 13.7788 128.941 13.8792C128.941 13.9797 128.974 14.0801 129.041 14.1471C129.075 14.2141 129.141 14.281 129.242 14.3145C129.342 14.3479 129.442 14.3815 129.609 14.3815H129.91C130.01 14.3815 130.11 14.3479 130.211 14.3479V15.4194C130.043 15.4194 129.91 15.4529 129.743 15.4529C129.609 15.4529 129.442 15.4864 129.275 15.4864C128.907 15.4864 128.606 15.4529 128.406 15.386C128.172 15.319 128.004 15.2186 127.871 15.0846C127.737 14.9507 127.67 14.7832 127.603 14.5823C127.57 14.3815 127.536 14.1471 127.536 13.8792V10.1291H126.5V9.09118H126.467Z" fill="black"/>
<path d="M131.015 6.68066H132.418V7.98651H131.015V6.68066ZM131.015 9.09143H132.418V15.4197H131.015V9.09143Z" fill="black"/>
<path d="M133.054 9.09118H134.09V7.18262H135.495V9.09118H136.765V10.1291H135.495V13.5109C135.495 13.6448 135.495 13.7788 135.528 13.8792C135.528 13.9797 135.562 14.0801 135.629 14.1471C135.662 14.2141 135.729 14.281 135.829 14.3145C135.929 14.3479 136.03 14.3815 136.197 14.3815H136.497C136.597 14.3815 136.698 14.3479 136.798 14.3479V15.4194C136.631 15.4194 136.497 15.4529 136.33 15.4529C136.197 15.4529 136.03 15.4864 135.863 15.4864C135.495 15.4864 135.194 15.4529 134.993 15.386C134.759 15.319 134.592 15.2186 134.458 15.0846C134.324 14.9507 134.257 14.7832 134.19 14.5823C134.157 14.3815 134.124 14.1471 134.124 13.8792V10.1291H133.088V9.09118H133.054Z" fill="black"/>
<path d="M143.117 15.4198H141.746V14.5492H141.713C141.546 14.884 141.279 15.1184 140.944 15.3194C140.61 15.5202 140.275 15.6207 139.907 15.6207C139.071 15.6207 138.47 15.4198 138.102 15.018C137.735 14.6162 137.534 13.98 137.534 13.143V9.125H138.938V13.009C138.938 13.5782 139.038 13.9465 139.272 14.1809C139.473 14.4153 139.774 14.5157 140.175 14.5157C140.476 14.5157 140.71 14.4823 140.911 14.3818C141.111 14.2813 141.279 14.1809 141.379 14.0135C141.513 13.8461 141.579 13.6787 141.646 13.4778C141.713 13.2768 141.713 13.0425 141.713 12.8081V9.125H143.117V15.4198Z" fill="black"/>
<path d="M143.718 9.09118H144.755V7.18262H146.159V9.09118H147.43V10.1291H146.159V13.5109C146.159 13.6448 146.159 13.7788 146.192 13.8792C146.192 13.9797 146.226 14.0801 146.293 14.1471C146.326 14.2141 146.393 14.281 146.493 14.3145C146.594 14.3479 146.694 14.3815 146.861 14.3815H147.162C147.262 14.3815 147.363 14.3479 147.463 14.3479V15.4194C147.296 15.4194 147.162 15.4529 146.995 15.4529C146.861 15.4529 146.694 15.4864 146.527 15.4864C146.159 15.4864 145.858 15.4529 145.657 15.386C145.423 15.319 145.256 15.2186 145.122 15.0846C144.989 14.9507 144.922 14.7832 144.855 14.5823C144.822 14.3815 144.788 14.1471 144.788 13.8792V10.1291H143.752V9.09118H143.718Z" fill="black"/>
<path d="M149.301 12.6072C149.301 12.8417 149.334 13.0761 149.401 13.3105C149.468 13.5448 149.568 13.7457 149.702 13.9131C149.836 14.0806 150.003 14.2144 150.237 14.3149C150.438 14.4154 150.705 14.4824 151.006 14.4824C151.408 14.4824 151.742 14.3818 151.976 14.2144C152.209 14.047 152.41 13.7792 152.544 13.4109H153.848C153.781 13.7457 153.647 14.047 153.48 14.3149C153.313 14.5828 153.079 14.8172 152.845 14.9846C152.577 15.152 152.31 15.3194 152.009 15.3863C151.708 15.4868 151.374 15.5203 151.04 15.5203C150.538 15.5203 150.103 15.4533 149.736 15.2859C149.368 15.1185 149.034 14.8841 148.767 14.6162C148.499 14.3149 148.299 13.9801 148.165 13.5783C148.031 13.1765 147.964 12.7077 147.964 12.239C147.964 11.8037 148.031 11.3684 148.165 10.9666C148.299 10.5648 148.499 10.1965 148.767 9.89512C149.034 9.59384 149.334 9.35946 149.736 9.15853C150.137 8.9576 150.538 8.89062 151.006 8.89062C151.508 8.89062 151.942 8.99113 152.343 9.19198C152.744 9.39291 153.079 9.66074 153.313 10.0291C153.547 10.3974 153.748 10.7657 153.882 11.201C154.015 11.6363 154.015 12.105 153.982 12.5738H149.301V12.6072ZM152.544 11.7033C152.544 11.4689 152.477 11.2679 152.41 11.0671C152.343 10.8662 152.243 10.6988 152.076 10.5314C151.942 10.364 151.775 10.2635 151.575 10.163C151.374 10.0626 151.174 10.0291 150.94 10.0291C150.705 10.0291 150.471 10.0626 150.271 10.163C150.07 10.2635 149.903 10.364 149.769 10.5314C149.635 10.6988 149.501 10.8662 149.435 11.0671C149.334 11.2679 149.301 11.5023 149.301 11.7367H152.544V11.7033Z" fill="black"/>
<path d="M65.6965 27.7078C65.1947 27.7078 64.7268 27.6408 64.359 27.4733C63.9573 27.3059 63.6233 27.0716 63.3555 26.7702C63.0885 26.4689 62.8876 26.134 62.7206 25.7323C62.5867 25.3305 62.5198 24.8617 62.5198 24.393C62.5198 23.9242 62.5867 23.4554 62.7206 23.0536C62.8545 22.6518 63.0546 22.2835 63.3555 22.0156C63.6233 21.7143 63.9573 21.4799 64.359 21.3125C64.7599 21.1451 65.1947 21.0781 65.6965 21.0781C66.1975 21.0781 66.6653 21.1451 67.0332 21.3125C67.4349 21.4799 67.7689 21.7143 68.0367 22.0156C68.3037 22.317 68.5046 22.6518 68.6716 23.0536C68.8055 23.4554 68.8724 23.8907 68.8724 24.393C68.8724 24.8952 68.8055 25.3305 68.6716 25.7323C68.5376 26.134 68.3376 26.5024 68.0367 26.7702C67.7689 27.0716 67.4349 27.3059 67.0332 27.4733C66.6322 27.6408 66.1975 27.7078 65.6965 27.7078ZM65.6965 26.6028C65.9966 26.6028 66.2644 26.5358 66.4983 26.4019C66.7323 26.268 66.8993 26.1006 67.067 25.8997C67.234 25.6988 67.3341 25.4644 67.401 25.1965C67.468 24.9287 67.5011 24.6608 67.5011 24.393C67.5011 24.1251 67.468 23.8572 67.401 23.5893C67.3341 23.3215 67.234 23.0871 67.067 22.8862C66.9331 22.6853 66.7323 22.5178 66.4983 22.384C66.2644 22.25 65.9966 22.183 65.6965 22.183C65.3956 22.183 65.1278 22.25 64.8938 22.384C64.6599 22.5178 64.4929 22.6853 64.3251 22.8862C64.192 23.0871 64.0581 23.3215 63.9912 23.5893C63.9242 23.8572 63.8911 24.1251 63.8911 24.393C63.8911 24.6608 63.9242 24.9287 63.9912 25.1965C64.0581 25.4644 64.1581 25.6988 64.3251 25.8997C64.4929 26.1006 64.6599 26.268 64.8938 26.4019C65.1278 26.5358 65.3956 26.6028 65.6965 26.6028Z" fill="black"/>
<path d="M70.042 21.2123H71.3456V22.1498L71.3795 22.1834C71.5803 21.8486 71.8812 21.5472 72.2152 21.3463C72.5492 21.1453 72.9509 21.0449 73.3518 21.0449C74.0536 21.0449 74.5885 21.2123 74.9902 21.5807C75.3911 21.949 75.592 22.4847 75.592 23.1879V27.5406H74.1876V23.5562C74.1876 23.0539 74.0536 22.6856 73.8536 22.4847C73.6527 22.2838 73.3518 22.1498 72.9509 22.1498C72.7169 22.1498 72.5161 22.1834 72.3152 22.2838C72.1152 22.3842 71.9813 22.4847 71.8473 22.6521C71.7134 22.8195 71.6134 22.9869 71.5465 23.1879C71.4795 23.3887 71.4464 23.6231 71.4464 23.824V27.5406H70.042V21.2123Z" fill="black"/>
<path d="M82.9793 18.8018H84.6168L87.9606 27.5408H86.3222L85.5195 25.2305H82.0427L81.2409 27.5408H79.6694L82.9793 18.8018ZM82.4444 24.0586H85.1186L83.815 20.3085H83.7811L82.4444 24.0586Z" fill="black"/>
<path d="M94.4468 27.2052C94.4468 28.1761 94.179 28.8793 93.6441 29.348C93.1093 29.8168 92.3405 30.0512 91.337 30.0512C91.003 30.0512 90.7021 30.0177 90.3674 29.9507C90.0334 29.8838 89.7656 29.7833 89.4986 29.6159C89.2307 29.4485 88.9968 29.2476 88.8298 29.0132C88.6628 28.7453 88.5289 28.4441 88.4958 28.0757H89.8995C89.9334 28.2766 90.0003 28.444 90.1003 28.5445C90.2004 28.6784 90.3012 28.7789 90.4343 28.8458C90.5682 28.9128 90.7021 28.9463 90.8691 28.9797C91.0361 29.0132 91.2039 29.0132 91.3709 29.0132C91.9388 29.0132 92.3405 28.8793 92.6075 28.6115C92.8753 28.3435 93.0085 27.9418 93.0085 27.406V26.4351H92.9754C92.7745 26.7699 92.5075 27.0712 92.1727 27.2386C91.8388 27.4396 91.4709 27.54 91.07 27.54C90.5682 27.54 90.1334 27.4396 89.7656 27.2721C89.3985 27.1047 89.1307 26.8703 88.8968 26.5355C88.6628 26.2007 88.4958 25.8658 88.395 25.464C88.295 25.0622 88.228 24.6269 88.228 24.1917C88.228 23.7564 88.295 23.3546 88.4289 22.9863C88.5628 22.6179 88.7629 22.2496 88.9968 21.9818C89.2308 21.714 89.5316 21.4461 89.8995 21.2787C90.2673 21.1112 90.6683 21.0107 91.1031 21.0107C91.5048 21.0107 91.8718 21.0777 92.2066 21.2452C92.5406 21.4126 92.8084 21.6804 92.9754 22.0488H93.0085V21.1782H94.4129V27.2052H94.4468ZM91.3709 26.4351C91.6718 26.4351 91.9388 26.3681 92.1727 26.2341C92.3736 26.1002 92.5745 25.9328 92.7076 25.7318C92.8415 25.531 92.9423 25.2966 93.0085 25.0287C93.0754 24.7609 93.1093 24.493 93.1093 24.2251C93.1093 23.9573 93.0754 23.6894 93.0085 23.455C92.9423 23.1872 92.8415 22.9863 92.7076 22.7853C92.5745 22.5845 92.4067 22.4505 92.1727 22.3166C91.9727 22.2162 91.7049 22.1492 91.404 22.1492C91.1031 22.1492 90.836 22.2162 90.6352 22.3501C90.4343 22.4841 90.2673 22.6515 90.1334 22.8523C90.0003 23.0533 89.8995 23.2876 89.8664 23.5555C89.7994 23.8234 89.7656 24.0912 89.7656 24.3591C89.7656 24.6269 89.7994 24.8613 89.8664 25.1292C89.9334 25.3636 90.0334 25.598 90.1673 25.7988C90.3012 25.9998 90.4682 26.1672 90.6683 26.2676C90.8022 26.3681 91.07 26.4351 91.3709 26.4351Z" fill="black"/>
<path d="M95.8848 18.8018H97.2884V20.1076H95.8848V18.8018ZM95.8848 21.2125H97.2884V27.5408H95.8848V21.2125Z" fill="black"/>
<path d="M98.7925 21.2123H100.096V22.1498L100.13 22.1834C100.331 21.8486 100.632 21.5472 100.966 21.3463C101.3 21.1453 101.701 21.0449 102.102 21.0449C102.804 21.0449 103.339 21.2123 103.741 21.5807C104.142 21.949 104.342 22.4847 104.342 23.1879V27.5406H102.938V23.5562C102.938 23.0539 102.804 22.6856 102.604 22.4847C102.403 22.2838 102.102 22.1498 101.701 22.1498C101.467 22.1498 101.267 22.1834 101.066 22.2838C100.866 22.3842 100.732 22.4847 100.598 22.6521C100.464 22.8195 100.364 22.9869 100.297 23.1879C100.23 23.3887 100.197 23.6231 100.197 23.824V27.5406H98.7925V21.2123Z" fill="black"/>
<path d="M111.663 27.2052C111.663 28.1761 111.395 28.8793 110.86 29.348C110.326 29.8168 109.557 30.0512 108.554 30.0512C108.219 30.0512 107.918 30.0177 107.584 29.9507C107.25 29.8838 106.983 29.7833 106.715 29.6159C106.448 29.4485 106.214 29.2476 106.046 29.0132C105.879 28.7453 105.745 28.4441 105.712 28.0757H107.117C107.15 28.2766 107.217 28.444 107.317 28.5445C107.417 28.6784 107.518 28.7789 107.651 28.8458C107.785 28.9128 107.918 28.9463 108.085 28.9797C108.253 29.0132 108.42 29.0132 108.587 29.0132C109.156 29.0132 109.557 28.8793 109.825 28.6115C110.092 28.3435 110.226 27.9418 110.226 27.406V26.4351H110.192C109.992 26.7699 109.724 27.0712 109.39 27.2386C109.055 27.4396 108.687 27.54 108.286 27.54C107.785 27.54 107.351 27.4396 106.983 27.2721C106.615 27.1047 106.347 26.8703 106.113 26.5355C105.879 26.2007 105.712 25.8658 105.612 25.464C105.511 25.0622 105.444 24.6269 105.444 24.1917C105.444 23.7564 105.511 23.3546 105.645 22.9863C105.779 22.6179 105.98 22.2496 106.214 21.9818C106.448 21.714 106.749 21.4461 107.117 21.2787C107.484 21.1112 107.885 21.0107 108.32 21.0107C108.721 21.0107 109.089 21.0777 109.423 21.2452C109.758 21.4126 110.025 21.6804 110.192 22.0488H110.226V21.1782H111.629V27.2052H111.663ZM108.554 26.4351C108.855 26.4351 109.122 26.3681 109.356 26.2341C109.557 26.1002 109.758 25.9328 109.891 25.7318C110.025 25.531 110.126 25.2966 110.192 25.0287C110.259 24.7609 110.293 24.493 110.293 24.2251C110.293 23.9573 110.259 23.6894 110.192 23.455C110.126 23.1872 110.025 22.9863 109.891 22.7853C109.758 22.5845 109.59 22.4505 109.356 22.3166C109.156 22.2162 108.888 22.1492 108.587 22.1492C108.286 22.1492 108.019 22.2162 107.818 22.3501C107.618 22.4841 107.451 22.6515 107.317 22.8523C107.184 23.0533 107.083 23.2876 107.05 23.5555C106.983 23.8234 106.949 24.0912 106.949 24.3591C106.949 24.6269 106.983 24.8613 107.05 25.1292C107.117 25.3636 107.217 25.598 107.351 25.7988C107.484 25.9998 107.651 26.1672 107.851 26.2676C108.019 26.3681 108.253 26.4351 108.554 26.4351Z" fill="black"/>
<path d="M38.8021 9.71545V25.342H36.0556V18.3188H28.9848V25.342H26.2381V9.71545H28.9848V15.9193H36.114V9.71545H38.8021ZM23.4917 25.342H20.7452V9.71545H23.4917V25.342ZM18.0571 25.342H15.1935L8.06433 13.8709H8.00582V25.342H5.4346V9.71545H8.29798L15.4273 21.2452H15.4858V9.71545H18.1154V25.342H18.0571ZM48.4443 17.4994L38.8021 0H3.21406C1.46095 0 0 1.46319 0 3.21899V31.78C0 33.5358 1.46095 34.999 3.21406 34.999H38.7437L48.4443 17.4994Z" fill="black"/>
<path d="M41.1411 34.9999L50.8417 17.5004L41.1995 0.000976562H43.5954C44.9395 0.000976562 46.5173 0.937413 47.16 2.10799L55.6334 17.5004L47.16 32.8929C46.5173 34.0635 44.9395 34.9999 43.5954 34.9999H41.1411Z" fill="black"/>
</svg>
