<svg width="158" height="36" viewBox="0 0 158 36" fill="none" xmlns="http://www.w3.org/2000/svg">
<path d="M56.9 18.374L48.7133 3.73235C47.6637 1.84313 46.4042 0.845945 44.5149 0.898457H42.2583L50.655 16.0649L51.9145 18.3215L50.655 20.5782L42.1533 35.9021H44.4624C46.2993 35.9546 47.6112 34.9574 48.6608 33.0682L56.9 18.374Z" fill="black"/>
<path d="M39.792 0.900391H3.68644C2.11206 0.900391 0.852539 2.15991 0.852539 3.73429V18.3759V18.4285V33.0701C0.852539 34.6445 2.11206 35.904 3.68644 35.904H39.7396L49.4482 18.3759L39.792 0.900391ZM18.9054 26.2478H16.019L8.82933 14.7549V26.2478C8.82933 26.2478 6.04795 26.2478 6.10046 26.2478V10.6091H9.09178L16.2814 22.1545V10.6091H18.9054V26.2478ZM24.3633 26.3003H21.6343V10.6091H24.3633V26.3003ZM37.1157 26.3003V19.2681H29.926V26.3003H27.197V10.6091H29.926V16.8541H37.0632V10.6091H39.792V26.2478H37.1157V26.3003Z" fill="black"/>
<path d="M60.9948 8.08594H62.3068L65.5605 13.3339V8.08594H66.7675V15.2231H65.4556L62.2018 9.97517H62.1494V15.2231H60.9424V8.08594H60.9948Z" fill="black"/>
<path d="M72.4333 14.0696C72.4333 14.2271 72.4333 14.332 72.4858 14.3845C72.5383 14.437 72.5907 14.4894 72.6958 14.4894C72.7483 14.4894 72.7483 14.4894 72.8007 14.4894C72.8532 14.4894 72.9057 14.4894 72.9581 14.4894V15.2767C72.9057 15.2767 72.8532 15.3292 72.8007 15.3292C72.7483 15.3292 72.6958 15.3816 72.5907 15.3816C72.5383 15.3816 72.4333 15.3816 72.3809 15.4341C72.3284 15.4866 72.2759 15.4341 72.2235 15.4341C72.0135 15.4341 71.8036 15.3816 71.6462 15.2767C71.4887 15.1717 71.3837 15.0142 71.3313 14.8044C71.1214 15.0142 70.8065 15.1717 70.4916 15.2767C70.1767 15.3816 69.8619 15.4341 69.547 15.4341C69.3371 15.4341 69.0747 15.3816 68.8648 15.3292C68.6549 15.2767 68.4449 15.1717 68.2875 15.0667C68.1301 14.9618 67.9726 14.8044 67.9201 14.5944C67.8152 14.3845 67.7627 14.1746 67.7627 13.9122C67.7627 13.5974 67.8152 13.3349 67.9201 13.125C68.0251 12.915 68.1826 12.7576 68.3924 12.6527C68.6023 12.5478 68.8123 12.4428 69.0222 12.3903C69.2846 12.3378 69.4945 12.2853 69.7569 12.2853C69.9669 12.2328 70.1767 12.2328 70.3341 12.1804C70.5441 12.1804 70.7015 12.1279 70.8065 12.0754C70.964 12.023 71.0689 11.9705 71.1214 11.8655C71.1739 11.7605 71.2263 11.6556 71.2263 11.4982C71.2263 11.3407 71.1739 11.2358 71.1214 11.1308C71.0689 11.0258 70.964 10.9734 70.8589 10.9209C70.754 10.8684 70.6491 10.8159 70.4916 10.8159C70.3867 10.8159 70.2292 10.8159 70.1243 10.8159C69.8093 10.8159 69.547 10.8684 69.3371 11.0258C69.1271 11.1832 69.0222 11.3407 68.9697 11.6556H68.0251C68.0251 11.3407 68.1301 11.0258 68.2875 10.8159C68.4449 10.606 68.6023 10.3961 68.8123 10.2911C69.0222 10.1337 69.2846 10.0813 69.547 10.0287C69.8093 9.97623 70.1243 9.92383 70.3867 9.92383C70.6491 9.92383 70.9114 9.97623 71.1214 10.0287C71.3837 10.0813 71.5937 10.1862 71.8036 10.2911C72.0135 10.3961 72.171 10.5535 72.2759 10.7635C72.3809 10.9734 72.4333 11.1832 72.4333 11.4457V14.0696ZM71.3313 12.6527C71.1739 12.7576 70.964 12.8101 70.7015 12.8626C70.4392 12.8626 70.1767 12.915 69.9144 12.9676C69.8093 12.9676 69.6519 13.0201 69.547 13.0726C69.442 13.125 69.3371 13.1775 69.2322 13.23C69.1271 13.2824 69.0747 13.3874 69.0222 13.4923C68.9697 13.5974 68.9697 13.7023 68.9697 13.8597C68.9697 13.9646 69.0222 14.0697 69.0747 14.1746C69.1271 14.2796 69.2322 14.332 69.3371 14.3845C69.442 14.437 69.547 14.4894 69.6519 14.4894C69.7569 14.4894 69.8619 14.5419 69.9668 14.5419C70.0718 14.5419 70.2292 14.5419 70.3867 14.4894C70.5441 14.437 70.6491 14.3845 70.8065 14.332C70.9114 14.2271 71.0689 14.1746 71.1214 14.0171C71.1739 13.8597 71.2263 13.7548 71.2263 13.5449V12.6527H71.3313Z" fill="black"/>
<path d="M73.1689 10.0841H74.0087V8.50977H75.1632V10.0841H76.2128V10.9238H75.1632V13.7052C75.1632 13.8102 75.1632 13.9151 75.1632 14.02C75.1632 14.125 75.2157 14.1775 75.2157 14.23C75.2681 14.2825 75.3206 14.335 75.3731 14.3874C75.4255 14.4399 75.5306 14.4399 75.688 14.4399C75.7929 14.4399 75.8454 14.4399 75.9504 14.4399C76.0554 14.4399 76.1079 14.4399 76.2128 14.3874V15.2795C76.1079 15.2795 75.9503 15.3321 75.8454 15.3321C75.7405 15.3321 75.5831 15.3321 75.4781 15.3321C75.1632 15.3321 74.9533 15.2795 74.7433 15.227C74.5335 15.1746 74.4285 15.0696 74.3235 14.9647C74.2185 14.8598 74.1661 14.7022 74.1136 14.5448C74.0611 14.3874 74.0611 14.1775 74.0611 13.9676V10.9238H73.2215V10.0841H73.1689Z" fill="black"/>
<path d="M77.0518 8.08594H78.2064V9.18792H77.0518V8.08594ZM77.0518 10.0801H78.2064V15.2756H77.0518V10.0801Z" fill="black"/>
<path d="M81.8281 15.3816C81.4083 15.3816 81.0409 15.3292 80.726 15.1717C80.4111 15.0142 80.1488 14.8568 79.8863 14.5944C79.6764 14.332 79.4665 14.0696 79.3615 13.7548C79.2566 13.4398 79.2041 13.0726 79.2041 12.6527C79.2041 12.2328 79.2566 11.918 79.3615 11.5506C79.4665 11.2358 79.624 10.9209 79.8863 10.711C80.0963 10.4486 80.3587 10.2911 80.726 10.1337C81.0933 9.97623 81.4083 9.92383 81.8281 9.92383C82.2479 9.92383 82.6153 9.97623 82.9302 10.1337C83.245 10.2911 83.5075 10.4486 83.7698 10.711C84.0323 10.9734 84.1897 11.2358 84.2946 11.5506C84.3995 11.8655 84.452 12.2328 84.452 12.6527C84.452 13.0726 84.3995 13.4398 84.2946 13.7548C84.1897 14.0696 84.0323 14.3845 83.7698 14.5944C83.5599 14.8568 83.2975 15.0142 82.9302 15.1717C82.5628 15.3292 82.2479 15.3816 81.8281 15.3816ZM81.8281 14.4894C82.0905 14.4894 82.3003 14.437 82.5103 14.332C82.7202 14.2271 82.8251 14.0696 82.9827 13.9122C83.0876 13.7548 83.1925 13.5449 83.245 13.3349C83.2975 13.125 83.3499 12.915 83.3499 12.6527C83.3499 12.4428 83.2975 12.2328 83.245 11.9705C83.1925 11.7605 83.0876 11.5506 82.9827 11.3932C82.8776 11.2358 82.7202 11.0783 82.5103 10.9734C82.3003 10.8684 82.0905 10.8159 81.8281 10.8159C81.5657 10.8159 81.3558 10.8684 81.1458 10.9734C80.9359 11.0783 80.831 11.2358 80.6736 11.3932C80.5685 11.5506 80.4636 11.7605 80.4111 11.9705C80.3587 12.1804 80.3062 12.3903 80.3062 12.6527C80.3062 12.8626 80.3587 13.125 80.4111 13.3349C80.4636 13.5449 80.5685 13.7548 80.6736 13.9122C80.7785 14.0696 80.9359 14.2271 81.1458 14.332C81.3558 14.437 81.5657 14.4894 81.8281 14.4894Z" fill="black"/>
<path d="M85.3955 10.0813H86.4976V10.8684C86.655 10.606 86.9174 10.3436 87.1798 10.1862C87.4422 10.0287 87.757 9.92383 88.1244 9.92383C88.7017 9.92383 89.1216 10.0813 89.4889 10.3436C89.8038 10.6584 89.9612 11.0783 89.9612 11.6556V15.2241H88.8066V11.9705C88.8066 11.5506 88.7017 11.2883 88.5443 11.0783C88.3868 10.9209 88.1244 10.8159 87.8095 10.8159C87.5996 10.8159 87.4422 10.8684 87.2847 10.9209C87.1273 10.9734 87.0224 11.0783 86.9174 11.2358C86.8125 11.3407 86.7074 11.4982 86.655 11.6556C86.6025 11.8131 86.55 12.023 86.55 12.1804V15.2241H85.3955V10.0813Z" fill="black"/>
<path d="M95.4724 14.0696C95.4724 14.2271 95.4724 14.332 95.5249 14.3845C95.5774 14.437 95.6298 14.4894 95.7348 14.4894C95.7873 14.4894 95.7873 14.4894 95.8397 14.4894C95.8922 14.4894 95.9448 14.4894 95.9972 14.4894V15.2767C95.9448 15.2767 95.8922 15.3292 95.8397 15.3292C95.7873 15.3292 95.7348 15.3816 95.6298 15.3816C95.5249 15.3816 95.4724 15.3816 95.42 15.4341C95.3675 15.4341 95.3149 15.4341 95.2625 15.4341C95.0526 15.4341 94.8427 15.3816 94.6852 15.2767C94.5278 15.1717 94.4228 15.0142 94.3704 14.8044C94.1604 15.0142 93.8456 15.1717 93.5306 15.2767C93.2158 15.3816 92.9009 15.4341 92.5861 15.4341C92.3761 15.4341 92.1138 15.3816 91.9039 15.3292C91.6939 15.2767 91.484 15.1717 91.3265 15.0667C91.1691 14.9618 91.0117 14.8044 90.9592 14.5944C90.8543 14.3845 90.8018 14.1746 90.8018 13.9122C90.8018 13.5974 90.8543 13.3349 90.9592 13.125C91.0642 12.915 91.2216 12.7576 91.4315 12.6527C91.6414 12.5478 91.8513 12.4428 92.0613 12.3903C92.3236 12.3378 92.5336 12.2853 92.796 12.2853C93.0058 12.2328 93.2158 12.2328 93.3732 12.1804C93.5831 12.1804 93.7406 12.1279 93.8456 12.0754C94.003 12.023 94.1079 11.9705 94.1604 11.8655C94.2654 11.7605 94.2654 11.6556 94.2654 11.4982C94.2654 11.3407 94.213 11.2358 94.1604 11.1308C94.1079 11.0258 94.003 10.9734 93.898 10.9209C93.7931 10.8684 93.6882 10.8159 93.5306 10.8159C93.4257 10.8159 93.2683 10.8159 93.1634 10.8159C92.8484 10.8159 92.5861 10.8684 92.3761 11.0258C92.1662 11.1832 92.0613 11.3407 92.0088 11.6556H90.8543C90.8543 11.3407 90.9592 11.0258 91.1166 10.8159C91.274 10.606 91.4315 10.3961 91.6414 10.2911C91.8513 10.1337 92.1138 10.0813 92.3761 10.0287C92.6386 9.97623 92.9534 9.92383 93.2158 9.92383C93.4782 9.92383 93.7406 9.97623 93.9505 10.0287C94.213 10.0813 94.4228 10.1862 94.6327 10.2911C94.8427 10.3961 95.0001 10.5535 95.105 10.7635C95.21 10.9734 95.2625 11.1832 95.2625 11.4457V14.0696H95.4724ZM94.3179 12.6527C94.1604 12.7576 93.9505 12.8101 93.6882 12.8626C93.4257 12.8626 93.1634 12.915 92.9009 12.9676C92.796 12.9676 92.6386 13.0201 92.5336 13.0726C92.4286 13.125 92.3236 13.1775 92.2187 13.23C92.1138 13.2824 92.0613 13.3874 92.0088 13.4923C91.9562 13.5974 91.9563 13.7023 91.9563 13.8597C91.9563 13.9646 92.0088 14.0697 92.0613 14.1746C92.1138 14.2796 92.2187 14.332 92.3236 14.3845C92.4286 14.437 92.5336 14.4894 92.6386 14.4894C92.7435 14.4894 92.8484 14.5419 92.9534 14.5419C93.0583 14.5419 93.2158 14.5419 93.3732 14.4894C93.5306 14.437 93.6357 14.3845 93.7931 14.332C93.898 14.2271 94.0554 14.1746 94.1079 14.0171C94.1604 13.8597 94.213 13.7548 94.213 13.5449V12.6527H94.3179Z" fill="black"/>
<path d="M96.7314 8.08594H97.8856V15.2231H96.7314V8.08594Z" fill="black"/>
<path d="M102.032 8.08594H103.293V10.9197H106.546V8.08594H107.805V15.2231H106.546V12.0218H103.293V15.2231H102.032V8.08594Z" fill="black"/>
<path d="M110.008 12.9665C110.008 13.1763 110.061 13.3862 110.113 13.5437C110.166 13.7536 110.271 13.911 110.376 14.016C110.48 14.1735 110.637 14.2784 110.795 14.3309C110.952 14.4358 111.162 14.4358 111.425 14.4358C111.74 14.4358 112.003 14.3833 112.212 14.2259C112.422 14.0685 112.579 13.8585 112.684 13.5962H113.787C113.734 13.8585 113.629 14.121 113.472 14.3309C113.314 14.5408 113.157 14.7507 112.947 14.9081C112.737 15.0656 112.527 15.1705 112.264 15.2231C112.003 15.2755 111.74 15.328 111.477 15.328C111.057 15.328 110.69 15.2755 110.376 15.118C110.061 14.9606 109.798 14.8032 109.588 14.5408C109.378 14.2784 109.221 14.016 109.116 13.7011C109.011 13.3862 108.958 13.0189 108.958 12.5991C108.958 12.2317 109.011 11.8644 109.116 11.5495C109.221 11.2346 109.378 10.9197 109.641 10.6574C109.903 10.3949 110.113 10.185 110.428 10.0801C110.742 9.92263 111.057 9.87012 111.477 9.87012C111.898 9.87012 112.264 9.97514 112.579 10.1326C112.894 10.29 113.157 10.5523 113.367 10.8148C113.577 11.0771 113.734 11.3921 113.839 11.7593C113.944 12.1267 113.944 12.4941 113.892 12.8614H110.008V12.9665ZM112.684 12.1792C112.684 12.0218 112.632 11.8119 112.579 11.6544C112.527 11.497 112.422 11.3396 112.317 11.2346C112.212 11.1296 112.055 11.0247 111.898 10.9197C111.74 10.8673 111.583 10.8148 111.372 10.8148C111.162 10.8148 111.005 10.8673 110.847 10.9197C110.69 10.9722 110.532 11.0771 110.428 11.2346C110.323 11.3396 110.218 11.497 110.166 11.6544C110.113 11.8119 110.061 12.0218 110.061 12.1792H112.684Z" fill="black"/>
<path d="M119.035 14.0696C119.035 14.2271 119.035 14.332 119.087 14.3845C119.14 14.437 119.192 14.4894 119.297 14.4894C119.35 14.4894 119.35 14.4894 119.402 14.4894C119.455 14.4894 119.507 14.4894 119.56 14.4894V15.2767C119.507 15.2767 119.455 15.3292 119.402 15.3292C119.35 15.3292 119.297 15.3816 119.192 15.3816C119.087 15.3816 119.035 15.3816 118.982 15.4341C118.93 15.4866 118.877 15.4341 118.824 15.4341C118.614 15.4341 118.404 15.3816 118.248 15.2767C118.09 15.1717 117.985 15.0142 117.933 14.8044C117.723 15.0142 117.408 15.1717 117.093 15.2767C116.778 15.3816 116.464 15.4341 116.149 15.4341C115.939 15.4341 115.676 15.3816 115.466 15.3292C115.256 15.2767 115.046 15.1717 114.888 15.0667C114.732 14.9618 114.574 14.8044 114.522 14.5944C114.417 14.3845 114.364 14.1746 114.364 13.9122C114.364 13.5974 114.417 13.3349 114.522 13.125C114.627 12.915 114.784 12.7576 114.993 12.6527C115.203 12.5478 115.413 12.4428 115.623 12.3903C115.886 12.3378 116.096 12.2853 116.359 12.2853C116.569 12.2328 116.778 12.2328 116.935 12.1804C117.145 12.1804 117.303 12.1279 117.408 12.0754C117.565 12.023 117.67 11.9705 117.723 11.8655C117.775 11.7605 117.828 11.6556 117.828 11.4982C117.828 11.3407 117.775 11.2358 117.723 11.1308C117.67 11.0258 117.565 10.9734 117.46 10.9209C117.355 10.8684 117.25 10.8159 117.093 10.8159C116.988 10.8159 116.83 10.8159 116.725 10.8159C116.411 10.8159 116.149 10.8684 115.939 11.0258C115.728 11.1832 115.623 11.3407 115.571 11.6556H114.417C114.417 11.3407 114.522 11.0258 114.679 10.8159C114.837 10.606 114.993 10.3961 115.203 10.2911C115.413 10.1337 115.676 10.0813 115.939 10.0287C116.201 9.97623 116.516 9.92383 116.778 9.92383C117.04 9.92383 117.303 9.97623 117.513 10.0287C117.775 10.0813 117.985 10.1862 118.195 10.2911C118.404 10.3961 118.562 10.5535 118.667 10.7635C118.772 10.9734 118.824 11.1832 118.824 11.4457V14.0696H119.035ZM117.88 12.6527C117.723 12.7576 117.513 12.8101 117.25 12.8626C116.988 12.8626 116.725 12.915 116.464 12.9676C116.359 12.9676 116.201 13.0201 116.096 13.0726C115.991 13.125 115.886 13.1775 115.781 13.23C115.676 13.2824 115.623 13.3874 115.571 13.4923C115.518 13.5974 115.518 13.7023 115.518 13.8597C115.518 13.9646 115.571 14.0697 115.623 14.1746C115.676 14.2796 115.781 14.332 115.886 14.3845C115.991 14.437 116.096 14.4894 116.201 14.4894C116.306 14.4894 116.411 14.5419 116.516 14.5419C116.62 14.5419 116.778 14.5419 116.935 14.4894C117.093 14.437 117.198 14.3845 117.355 14.332C117.46 14.2271 117.618 14.1746 117.67 14.0171C117.775 13.9122 117.775 13.7548 117.775 13.5449V12.6527H117.88Z" fill="black"/>
<path d="M120.294 10.0813H121.343V11.0783C121.396 10.9209 121.448 10.8159 121.553 10.6584C121.658 10.501 121.763 10.3961 121.921 10.2911C122.078 10.1862 122.236 10.0813 122.393 10.0287C122.55 9.97623 122.707 9.92383 122.917 9.92383C123.075 9.92383 123.127 9.92383 123.18 9.92383C123.232 9.92383 123.285 9.92383 123.337 9.92383V11.0258C123.232 11.0258 123.18 11.0258 123.075 10.9734C122.97 10.9734 122.917 10.9734 122.812 10.9734C122.602 10.9734 122.445 11.0258 122.288 11.0783C122.131 11.1308 121.973 11.2883 121.868 11.3932C121.763 11.5506 121.658 11.708 121.553 11.9705C121.501 12.1804 121.448 12.4428 121.448 12.7576V15.2241H120.294V10.0813Z" fill="black"/>
<path d="M123.286 10.0841H124.126V8.50977H125.28V10.0841H126.33V10.9238H125.28V13.7052C125.28 13.8102 125.28 13.9151 125.28 14.02C125.28 14.125 125.333 14.1775 125.333 14.23C125.386 14.2825 125.438 14.335 125.491 14.3874C125.543 14.4399 125.648 14.4399 125.806 14.4399C125.911 14.4399 125.963 14.4399 126.067 14.4399C126.172 14.4399 126.225 14.4399 126.33 14.3874V15.2795C126.225 15.2795 126.067 15.3321 125.963 15.3321C125.858 15.3321 125.701 15.3321 125.596 15.3321C125.28 15.3321 125.07 15.2795 124.86 15.227C124.65 15.1746 124.545 15.0696 124.44 14.9647C124.335 14.8598 124.283 14.7022 124.231 14.5448C124.179 14.3874 124.179 14.1775 124.179 13.9676V10.9238H123.339V10.0841H123.286Z" fill="black"/>
<path d="M127.222 13.9131H128.638V15.2776C128.638 15.6974 128.481 16.0648 128.271 16.3272C128.061 16.5896 127.693 16.7995 127.274 16.852V16.2222C127.484 16.1697 127.641 16.0648 127.746 15.8548C127.851 15.6449 127.903 15.4875 127.903 15.2251H127.222V13.9131Z" fill="black"/>
<path d="M132.89 8.08594H134.15V14.1735H137.771V15.2756H132.89V8.08594Z" fill="black"/>
<path d="M143.019 15.2237H141.916V14.5415C141.758 14.8038 141.548 15.0138 141.287 15.1712C141.024 15.3286 140.709 15.3812 140.447 15.3812C139.764 15.3812 139.293 15.2237 138.977 14.8564C138.662 14.5415 138.505 14.0167 138.505 13.3345V10.0283H139.66V13.2295C139.66 13.7019 139.764 14.0167 139.922 14.1741C140.079 14.3841 140.342 14.4365 140.657 14.4365C140.919 14.4365 141.077 14.3841 141.234 14.3316C141.392 14.2791 141.548 14.1741 141.601 14.0167C141.653 13.8593 141.758 13.7543 141.811 13.5968C141.863 13.4394 141.863 13.2295 141.863 13.0195V10.0283H143.019V15.2237Z" fill="black"/>
<path d="M144.226 10.0813H145.327V10.8684C145.485 10.606 145.747 10.3436 146.01 10.1862C146.272 10.0287 146.586 9.92383 146.954 9.92383C147.532 9.92383 147.952 10.0813 148.318 10.3436C148.633 10.6584 148.791 11.0783 148.791 11.6556V15.2241H147.637V11.9705C147.637 11.5506 147.532 11.2883 147.374 11.0783C147.217 10.9209 146.954 10.8159 146.639 10.8159C146.429 10.8159 146.272 10.8684 146.115 10.9209C145.957 10.9734 145.852 11.0783 145.747 11.2358C145.642 11.3407 145.537 11.4982 145.485 11.6556C145.432 11.8131 145.38 12.023 145.38 12.1804V15.2241H144.226V10.0813Z" fill="black"/>
<path d="M154.72 14.9611C154.72 15.7483 154.51 16.3256 154.038 16.6929C153.619 17.0603 152.989 17.2701 152.15 17.2701C151.887 17.2701 151.624 17.2177 151.362 17.1652C151.099 17.1127 150.837 17.0078 150.627 16.9028C150.418 16.7979 150.208 16.5879 150.103 16.378C149.998 16.1681 149.893 15.9057 149.84 15.5908H150.994C151.047 15.7483 151.099 15.9057 151.152 15.9582C151.257 16.0631 151.309 16.1156 151.414 16.1682C151.519 16.2206 151.624 16.2731 151.782 16.2731C151.94 16.2731 152.045 16.2731 152.202 16.2731C152.674 16.2731 152.989 16.1681 153.199 15.9582C153.409 15.7483 153.514 15.3809 153.514 14.9611V14.1739C153.356 14.4363 153.146 14.6987 152.884 14.8561C152.621 15.0135 152.306 15.1186 151.992 15.1186C151.572 15.1186 151.204 15.0661 150.942 14.9086C150.627 14.7512 150.418 14.5938 150.208 14.3313C149.998 14.069 149.893 13.8065 149.788 13.4392C149.683 13.1243 149.683 12.7569 149.683 12.3896C149.683 12.0222 149.735 11.7074 149.84 11.3925C149.945 11.0777 150.103 10.8152 150.313 10.5529C150.522 10.2904 150.732 10.133 151.047 9.97556C151.362 9.81814 151.677 9.76562 152.045 9.76562C152.359 9.76562 152.674 9.81814 152.936 9.97556C153.199 10.133 153.409 10.3429 153.566 10.6053V9.87065H154.72V14.9611ZM152.202 14.3313C152.464 14.3313 152.674 14.2788 152.831 14.1739C152.989 14.069 153.146 13.9116 153.251 13.754C153.356 13.5966 153.461 13.3868 153.514 13.1768C153.566 12.9669 153.566 12.7569 153.566 12.547C153.566 12.3372 153.514 12.1272 153.461 11.9173C153.409 11.7074 153.304 11.5499 153.199 11.3925C153.094 11.2351 152.936 11.1301 152.779 11.0251C152.621 10.9202 152.411 10.8677 152.15 10.8677C151.887 10.8677 151.677 10.9202 151.519 11.0251C151.362 11.1301 151.204 11.2876 151.099 11.445C150.994 11.6024 150.889 11.8124 150.889 12.0222C150.837 12.2322 150.837 12.4421 150.837 12.652C150.837 12.862 150.889 13.0718 150.942 13.2817C150.994 13.4917 151.099 13.6491 151.204 13.8065C151.309 13.964 151.467 14.1214 151.624 14.1739C151.782 14.2788 151.992 14.3313 152.202 14.3313Z" fill="black"/>
<path d="M155.981 13.9131H157.398V15.2776C157.398 15.6974 157.241 16.0648 157.031 16.3272C156.821 16.5896 156.454 16.7995 156.034 16.852V16.2222C156.244 16.1697 156.402 16.0648 156.505 15.8548C156.61 15.6449 156.663 15.4875 156.663 15.2251H155.981V13.9131Z" fill="black"/>
<path d="M65.2419 26.0892C65.2419 26.2466 65.2419 26.3516 65.2944 26.404C65.3468 26.4565 65.3993 26.5091 65.5042 26.5091C65.5568 26.5091 65.5568 26.5091 65.6093 26.5091C65.6618 26.5091 65.7142 26.5091 65.7667 26.5091V27.2962C65.7142 27.2962 65.6618 27.3487 65.6093 27.3487C65.5568 27.3487 65.5042 27.4012 65.3993 27.4012C65.3468 27.4012 65.2419 27.4012 65.1894 27.4536C65.137 27.5061 65.0845 27.4536 65.032 27.4536C64.822 27.4536 64.6122 27.4012 64.4547 27.2962C64.2972 27.1913 64.1923 27.0339 64.1398 26.8239C63.9299 27.0339 63.615 27.1913 63.3002 27.2962C62.9853 27.4012 62.6705 27.4536 62.3555 27.4536C62.1457 27.4536 61.8832 27.4012 61.6733 27.3487C61.4634 27.2962 61.2535 27.1913 61.0961 27.0863C60.9387 26.9813 60.7811 26.8239 60.7287 26.614C60.6237 26.404 60.5713 26.1942 60.5713 25.9318C60.5713 25.6169 60.6237 25.3545 60.7287 25.1446C60.8336 24.9347 60.9911 24.7773 61.201 24.6722C61.4109 24.5673 61.6209 24.4623 61.8307 24.4099C62.0932 24.3574 62.3031 24.3049 62.5654 24.3049C62.7754 24.2525 62.9853 24.2525 63.1427 24.2C63.3527 24.2 63.5101 24.1474 63.615 24.095C63.7724 24.0425 63.8775 23.99 63.9299 23.8851C63.9824 23.7801 64.0349 23.6752 64.0349 23.5177C64.0349 23.3603 63.9824 23.2553 63.9299 23.1504C63.8775 23.0455 63.7724 22.9929 63.6675 22.9404C63.5626 22.8879 63.4576 22.8355 63.3002 22.8355C63.1952 22.8355 63.0378 22.8355 62.9328 22.8355C62.6179 22.8355 62.3555 22.8879 62.1457 23.0455C61.9357 23.2029 61.8307 23.3603 61.7783 23.6752H60.6237C60.6237 23.3603 60.7287 23.0455 60.8861 22.8355C61.0436 22.6256 61.201 22.4156 61.4109 22.3107C61.6209 22.1533 61.8832 22.1008 62.1457 22.0483C62.408 21.9959 62.7229 21.9434 62.9853 21.9434C63.2477 21.9434 63.5101 21.9959 63.72 22.0483C63.9824 22.1008 64.1923 22.2057 64.4023 22.3107C64.6122 22.4156 64.7696 22.5731 64.8745 22.783C64.9795 22.9929 65.032 23.2029 65.032 23.4652V26.0892H65.2419ZM64.0874 24.6722C63.9299 24.7773 63.72 24.8297 63.4576 24.8822C63.1953 24.8822 62.9328 24.9347 62.6705 24.9871C62.5654 24.9871 62.408 25.0396 62.3031 25.0921C62.1981 25.1446 62.0932 25.197 61.9882 25.2495C61.8832 25.302 61.8307 25.407 61.7783 25.5119C61.7258 25.6169 61.7258 25.7218 61.7258 25.8792C61.7258 25.9843 61.7783 26.0892 61.8307 26.1942C61.8832 26.2991 61.9882 26.3516 62.0932 26.404C62.1981 26.4565 62.3031 26.5091 62.408 26.5091C62.513 26.5091 62.6179 26.5615 62.7229 26.5615C62.8279 26.5615 62.9853 26.5615 63.1427 26.5091C63.3002 26.4565 63.4051 26.404 63.5626 26.3516C63.6675 26.2466 63.825 26.1942 63.8775 26.0367C63.9299 25.8792 63.9824 25.7743 63.9824 25.5644V24.6722H64.0874Z" fill="black"/>
<path d="M66.4502 22.0998H67.5523V22.8869C67.7097 22.6246 67.9721 22.3622 68.2345 22.2047C68.4969 22.0473 68.8118 21.9424 69.1792 21.9424C69.7564 21.9424 70.1762 22.0998 70.5436 22.3622C70.8585 22.6771 71.0159 23.0969 71.0159 23.6742V27.2428H69.8614V23.989C69.8614 23.5693 69.7564 23.3068 69.599 23.0969C69.4415 22.9395 69.1792 22.8345 68.8642 22.8345C68.6544 22.8345 68.4968 22.8869 68.3394 22.9395C68.182 22.992 68.0771 23.0969 67.9721 23.2543C67.8671 23.3593 67.7622 23.5168 67.7097 23.6742C67.6572 23.8316 67.6048 24.0415 67.6048 24.199V27.2428H66.4502V22.0998Z" fill="black"/>
<path d="M77.103 27.239H76.0009V26.5568C75.8434 26.8717 75.6335 27.0816 75.3186 27.1865C75.0038 27.2914 74.6889 27.3965 74.374 27.3965C73.9542 27.3965 73.5868 27.344 73.3244 27.1865C73.0621 27.0291 72.7472 26.8717 72.5898 26.6092C72.4323 26.3469 72.2224 26.0844 72.1174 25.7171C72.0125 25.4022 71.96 25.0348 71.96 24.6151C71.96 24.1427 72.0125 23.7229 72.1699 23.4081C72.2748 23.0931 72.4848 22.7783 72.6947 22.5683C72.9046 22.3585 73.167 22.201 73.4294 22.096C73.6918 21.9911 73.9542 21.9386 74.2691 21.9386C74.4265 21.9386 74.5839 21.9386 74.7413 21.9911C74.8988 22.0435 75.0563 22.0435 75.2137 22.1485C75.3712 22.201 75.5286 22.306 75.6335 22.4109C75.7385 22.5159 75.896 22.6208 75.9484 22.7783V20.1543H77.103V27.239ZM73.1146 24.72C73.1146 24.9299 73.167 25.1399 73.2195 25.3497C73.272 25.5596 73.3769 25.7696 73.4819 25.927C73.5868 26.0844 73.7443 26.2419 73.9017 26.3469C74.0591 26.4518 74.3216 26.5043 74.5315 26.5043C74.7939 26.5043 75.0038 26.4518 75.2137 26.3469C75.3712 26.2419 75.5286 26.0844 75.686 25.927C75.8434 25.7696 75.896 25.5596 75.9484 25.3497C76.0009 25.1399 76.0534 24.9299 76.0534 24.6675C76.0534 24.0903 75.9484 23.6704 75.686 23.303C75.4236 22.9882 75.0563 22.8308 74.6364 22.8308C74.374 22.8308 74.1642 22.8833 73.9542 22.9882C73.7443 23.0931 73.6394 23.2505 73.4819 23.4081C73.3769 23.5655 73.272 23.7753 73.2195 23.9853C73.1146 24.2477 73.1146 24.5101 73.1146 24.72Z" fill="black"/>
<path d="M81.2485 20.1055H84.7121C85.3419 20.1055 85.8667 20.2629 86.234 20.5253C86.6014 20.7877 86.8112 21.26 86.8112 21.8373C86.8112 22.2046 86.7063 22.5195 86.5489 22.7819C86.3915 23.0443 86.129 23.2542 85.8142 23.3591C86.234 23.4642 86.6014 23.6741 86.8112 23.9889C87.0212 24.3038 87.1262 24.7237 87.1262 25.196C87.1262 25.4583 87.0737 25.7208 86.9688 25.9831C86.8638 26.2455 86.7063 26.4555 86.4964 26.6129C86.2864 26.7703 86.0241 26.9278 85.6567 27.0327C85.3419 27.1377 84.922 27.1901 84.4497 27.1901H81.1436V20.1055H81.2485ZM82.508 23.0968H84.5546C84.8695 23.0968 85.0794 22.9918 85.2894 22.8343C85.4993 22.6769 85.6042 22.4146 85.6042 22.0997C85.6042 21.7324 85.4993 21.4699 85.3419 21.3125C85.1845 21.1551 84.922 21.1025 84.5546 21.1025H82.508V23.0968ZM82.508 26.2455H84.7121C85.0794 26.2455 85.3943 26.1405 85.6042 25.9307C85.8142 25.7208 85.9192 25.4583 85.9192 25.0909C85.9192 24.7237 85.8142 24.4612 85.6042 24.2513C85.3943 24.0414 85.0794 23.9889 84.7121 23.9889H82.508V26.2455Z" fill="black"/>
<path d="M88.1768 20.1055H89.3313V27.2426H88.1768V20.1055Z" fill="black"/>
<path d="M92.9511 27.4002C92.5312 27.4002 92.164 27.3477 91.849 27.1903C91.5342 27.0329 91.2718 26.8754 91.0094 26.613C90.7994 26.3507 90.5896 26.0882 90.4846 25.7734C90.3797 25.4585 90.3271 25.0911 90.3271 24.6713C90.3271 24.2515 90.3797 23.9365 90.4846 23.5693C90.5896 23.2543 90.747 22.9395 91.0094 22.7295C91.2718 22.5197 91.4816 22.3097 91.849 22.1523C92.2164 21.9949 92.5312 21.9424 92.9511 21.9424C93.371 21.9424 93.7383 21.9949 94.0532 22.1523C94.3681 22.3097 94.6304 22.4672 94.8928 22.7295C95.1552 22.992 95.3127 23.2543 95.4176 23.5693C95.5226 23.8841 95.5751 24.2515 95.5751 24.6713C95.5751 25.0911 95.5226 25.4585 95.4176 25.7734C95.3127 26.0882 95.1552 26.4031 94.8928 26.613C94.6829 26.8754 94.4206 27.0329 94.0532 27.1903C93.7383 27.3477 93.371 27.4002 92.9511 27.4002ZM92.9511 26.5081C93.2136 26.5081 93.4234 26.4556 93.6333 26.3507C93.8433 26.2456 93.9482 26.0882 94.1056 25.9308C94.2106 25.7734 94.3155 25.5634 94.3681 25.3535C94.4206 25.1436 94.473 24.9337 94.473 24.6713C94.473 24.4613 94.4206 24.2515 94.3681 23.989C94.3155 23.7791 94.2106 23.5693 94.1056 23.4117C94.0007 23.2543 93.8433 23.0969 93.6333 22.992C93.4234 22.8869 93.2136 22.8345 92.9511 22.8345C92.6888 22.8345 92.4788 22.8869 92.2689 22.992C92.0589 23.0969 91.954 23.2543 91.7966 23.4117C91.6916 23.5693 91.5867 23.7791 91.5342 23.989C91.4818 24.199 91.4292 24.4089 91.4292 24.6713C91.4292 24.8812 91.4818 25.1436 91.5342 25.3535C91.5867 25.5634 91.6916 25.7734 91.7966 25.9308C91.9015 26.0882 92.0589 26.2456 92.2689 26.3507C92.4788 26.4556 92.6888 26.5081 92.9511 26.5081Z" fill="black"/>
<path d="M98.8822 27.4012C98.4632 27.4012 98.0956 27.3487 97.7805 27.1913C97.4655 27.0339 97.2029 26.8764 96.9414 26.614C96.7314 26.3516 96.5213 26.0892 96.4163 25.7743C96.3113 25.4595 96.2588 25.0921 96.2588 24.6722C96.2588 24.2525 96.3113 23.9375 96.4163 23.5702C96.5213 23.2553 96.6789 22.9404 96.9414 22.7305C97.2029 22.5207 97.413 22.3107 97.7805 22.1533C98.1481 21.9959 98.4632 21.9434 98.8822 21.9434C99.3023 21.9434 99.6699 21.9959 99.985 22.1533C100.3 22.3107 100.563 22.4682 100.824 22.7305C101.087 22.9929 101.244 23.2553 101.349 23.5702C101.454 23.8851 101.507 24.2525 101.507 24.6722C101.507 25.0921 101.454 25.4595 101.349 25.7743C101.244 26.0892 101.087 26.404 100.824 26.614C100.614 26.8764 100.353 27.0339 99.985 27.1913C99.6699 27.3487 99.3023 27.4012 98.8822 27.4012ZM98.8822 26.5091C99.1448 26.5091 99.3548 26.4565 99.5649 26.3516C99.7749 26.2466 99.8799 26.0892 100.037 25.9318C100.142 25.7743 100.248 25.5644 100.3 25.3545C100.353 25.1446 100.405 24.9347 100.405 24.6722C100.405 24.4623 100.353 24.2525 100.3 23.99C100.248 23.7801 100.142 23.5702 100.037 23.4127C99.9324 23.2553 99.7749 23.0979 99.5649 22.9929C99.3548 22.8879 99.1448 22.8355 98.8822 22.8355C98.6207 22.8355 98.4107 22.8879 98.2006 22.9929C97.9906 23.0979 97.8856 23.2553 97.728 23.4127C97.623 23.5702 97.518 23.7801 97.4655 23.99C97.413 24.2 97.3605 24.4099 97.3605 24.6722C97.3605 24.8822 97.413 25.1446 97.4655 25.3545C97.518 25.5644 97.623 25.7743 97.728 25.9318C97.8331 26.0892 97.9906 26.2466 98.2006 26.3516C98.4107 26.4565 98.6207 26.5091 98.8822 26.5091Z" fill="black"/>
<path d="M107.331 27.239H106.23V26.5568C106.072 26.8717 105.862 27.0816 105.547 27.1865C105.232 27.2914 104.917 27.3965 104.603 27.3965C104.183 27.3965 103.815 27.344 103.553 27.1865C103.29 27.0291 102.975 26.8717 102.819 26.6092C102.661 26.3469 102.451 26.0844 102.346 25.7171C102.241 25.4022 102.188 25.0348 102.188 24.6151C102.188 24.1427 102.241 23.7229 102.399 23.4081C102.504 23.0931 102.714 22.7783 102.923 22.5683C103.133 22.3585 103.395 22.201 103.658 22.096C103.92 21.9911 104.183 21.9386 104.498 21.9386C104.654 21.9386 104.812 21.9386 104.969 21.9911C105.127 22.0435 105.284 22.0435 105.442 22.1485C105.6 22.201 105.757 22.306 105.862 22.4109C105.967 22.5159 106.125 22.6208 106.177 22.7783V20.1543H107.331V27.239ZM103.343 24.72C103.343 24.9299 103.395 25.1399 103.448 25.3497C103.5 25.5596 103.605 25.7696 103.71 25.927C103.815 26.0844 103.973 26.2419 104.13 26.3469C104.288 26.4518 104.55 26.5043 104.759 26.5043C105.022 26.5043 105.232 26.4518 105.442 26.3469C105.6 26.2419 105.757 26.0844 105.915 25.927C106.072 25.7696 106.125 25.5596 106.177 25.3497C106.23 25.1399 106.282 24.9299 106.282 24.6675C106.282 24.0903 106.177 23.6704 105.915 23.303C105.652 22.9882 105.284 22.8308 104.864 22.8308C104.603 22.8308 104.393 22.8833 104.183 22.9882C104.025 23.0931 103.868 23.2505 103.71 23.4081C103.605 23.5655 103.5 23.7753 103.448 23.9853C103.395 24.2477 103.343 24.5101 103.343 24.72Z" fill="black"/>
<path d="M111.528 20.1055H112.788V27.2426H111.528V20.1055Z" fill="black"/>
<path d="M114.151 22.1008H115.254V22.8879C115.412 22.6256 115.674 22.3631 115.936 22.2057C116.198 22.0483 116.513 21.9434 116.881 21.9434C117.459 21.9434 117.878 22.1008 118.245 22.3631C118.56 22.6781 118.718 23.0979 118.718 23.6752V27.2438H117.562V23.99C117.562 23.5702 117.459 23.3078 117.301 23.0979C117.143 22.9404 116.881 22.8355 116.566 22.8355C116.356 22.8355 116.198 22.8879 116.041 22.9404C115.883 22.9929 115.779 23.0979 115.674 23.2553C115.569 23.3603 115.464 23.5177 115.412 23.6752C115.359 23.8326 115.307 24.0425 115.307 24.2V27.2438H114.151V22.1008Z" fill="black"/>
<path d="M120.765 25.6152C120.817 25.93 120.922 26.1925 121.132 26.2974C121.342 26.4548 121.604 26.5073 121.919 26.5073C122.024 26.5073 122.129 26.5073 122.287 26.5073C122.444 26.5073 122.549 26.4548 122.654 26.4023C122.759 26.3499 122.864 26.2974 122.969 26.1925C123.022 26.0875 123.074 25.9825 123.074 25.8251C123.074 25.6677 123.022 25.5627 122.917 25.4577C122.812 25.3527 122.707 25.3003 122.549 25.2478C122.392 25.1953 122.234 25.1429 122.024 25.0904C121.814 25.0379 121.604 24.9854 121.395 24.9854C121.185 24.933 120.975 24.8804 120.765 24.8279C120.555 24.7755 120.397 24.6705 120.24 24.5656C120.082 24.4606 119.977 24.3031 119.872 24.1457C119.767 23.9883 119.716 23.7259 119.716 23.4635C119.716 23.2012 119.767 22.9387 119.925 22.7813C120.082 22.6238 120.24 22.4139 120.45 22.309C120.66 22.204 120.87 22.0991 121.132 22.0465C121.395 21.9941 121.656 21.9941 121.866 21.9941C122.129 21.9941 122.392 22.0465 122.654 22.0991C122.917 22.1516 123.127 22.2565 123.336 22.3614C123.546 22.4664 123.703 22.6764 123.808 22.8338C123.913 23.0437 124.018 23.3061 124.071 23.5685H122.864C122.812 23.3061 122.707 23.0961 122.497 23.0437C122.287 22.9387 122.076 22.8862 121.814 22.8862C121.709 22.8862 121.656 22.8862 121.551 22.8862C121.447 22.8862 121.342 22.9387 121.237 22.9387C121.132 22.9912 121.08 23.0437 120.975 23.0961C120.87 23.1486 120.87 23.2536 120.87 23.3586C120.87 23.516 120.922 23.6209 121.027 23.6734C121.132 23.7783 121.237 23.8309 121.395 23.8834C121.551 23.9358 121.709 23.9883 121.919 24.0408C122.129 24.0933 122.339 24.1457 122.549 24.1457C122.759 24.1982 122.969 24.2507 123.179 24.3031C123.388 24.3557 123.546 24.4606 123.703 24.5656C123.861 24.6705 123.966 24.8279 124.071 24.9854C124.176 25.1429 124.228 25.3527 124.228 25.6152C124.228 25.93 124.176 26.1925 124.018 26.4023C123.861 26.6122 123.703 26.7697 123.493 26.9271C123.283 27.0845 123.022 27.137 122.759 27.2421C122.497 27.2945 122.234 27.347 121.971 27.347C121.656 27.347 121.342 27.2945 121.08 27.2421C120.817 27.1895 120.555 27.0321 120.345 26.9271C120.135 26.8222 119.977 26.6122 119.872 26.3499C119.767 26.14 119.716 25.8775 119.663 25.5627H120.765V25.6152Z" fill="black"/>
<path d="M124.597 22.0978H125.437V20.5234H126.591V22.0978H127.641V22.9375H126.591V25.7188C126.591 25.8239 126.591 25.9288 126.591 26.0338C126.591 26.1387 126.644 26.1912 126.644 26.2436C126.696 26.2961 126.749 26.3487 126.801 26.4011C126.854 26.4536 126.959 26.4536 127.116 26.4536C127.221 26.4536 127.274 26.4536 127.379 26.4536C127.484 26.4536 127.536 26.4536 127.641 26.4011V27.2932C127.536 27.2932 127.379 27.3457 127.274 27.3457C127.169 27.3457 127.011 27.3457 126.906 27.3457C126.591 27.3457 126.381 27.2932 126.171 27.2408C126.013 27.1883 125.857 27.0834 125.752 26.9784C125.647 26.8735 125.594 26.716 125.542 26.5586C125.489 26.4011 125.489 26.1912 125.489 25.9813V22.9375H124.649V22.0978H124.597Z" fill="black"/>
<path d="M128.479 20.1055H129.634V21.2076H128.479V20.1055ZM128.479 22.0997H129.634V27.2951H128.479V22.0997Z" fill="black"/>
<path d="M130.317 22.0978H131.156V20.5234H132.312V22.0978H133.361V22.9375H132.312V25.7188C132.312 25.8239 132.312 25.9288 132.312 26.0338C132.312 26.1387 132.364 26.1912 132.364 26.2436C132.417 26.2961 132.469 26.3487 132.522 26.4011C132.574 26.4536 132.678 26.4536 132.836 26.4536C132.941 26.4536 132.993 26.4536 133.098 26.4536C133.203 26.4536 133.256 26.4536 133.361 26.4011V27.2932C133.256 27.2932 133.098 27.3457 132.993 27.3457C132.888 27.3457 132.731 27.3457 132.627 27.3457C132.312 27.3457 132.102 27.2932 131.892 27.2408C131.734 27.1883 131.577 27.0834 131.472 26.9784C131.367 26.8735 131.314 26.716 131.261 26.5586C131.209 26.4011 131.209 26.1912 131.209 25.9813V22.9375H130.37V22.0978H130.317Z" fill="black"/>
<path d="M138.713 27.2421H137.611V26.5073C137.454 26.7697 137.244 26.9796 136.981 27.137C136.719 27.2945 136.404 27.347 136.142 27.347C135.459 27.347 134.987 27.1895 134.672 26.8222C134.358 26.5073 134.2 25.9825 134.2 25.3003V21.9941H135.354V25.1953C135.354 25.6677 135.459 25.9825 135.617 26.14C135.774 26.2974 136.037 26.4023 136.351 26.4023C136.614 26.4023 136.771 26.3499 136.929 26.2974C137.086 26.2449 137.244 26.14 137.296 25.9825C137.401 25.8775 137.454 25.7201 137.506 25.5627C137.559 25.4052 137.559 25.1953 137.559 24.9854V21.9941H138.713V27.2421Z" fill="black"/>
<path d="M139.396 22.0978H140.235V20.5234H141.39V22.0978H142.439V22.9375H141.39V25.7188C141.39 25.8239 141.39 25.9288 141.39 26.0338C141.39 26.1387 141.441 26.1912 141.441 26.2436C141.494 26.2961 141.546 26.3487 141.599 26.4011C141.651 26.4536 141.756 26.4536 141.914 26.4536C142.019 26.4536 142.071 26.4536 142.176 26.4536C142.281 26.4536 142.334 26.4536 142.439 26.4011V27.2932C142.334 27.2932 142.176 27.3457 142.071 27.3457C141.966 27.3457 141.809 27.3457 141.704 27.3457C141.39 27.3457 141.18 27.2932 140.97 27.2408C140.812 27.1883 140.655 27.0834 140.55 26.9784C140.445 26.8735 140.392 26.716 140.34 26.5586C140.287 26.4011 140.287 26.1912 140.287 25.9813V22.9375H139.396V22.0978Z" fill="black"/>
<path d="M144.171 24.9859C144.171 25.1958 144.224 25.4057 144.276 25.5632C144.329 25.773 144.434 25.9304 144.539 26.0355C144.644 26.1929 144.801 26.2978 144.959 26.3503C145.116 26.4552 145.326 26.4552 145.588 26.4552C145.903 26.4552 146.166 26.4028 146.376 26.2454C146.586 26.088 146.743 25.878 146.848 25.6156H147.95C147.897 25.878 147.792 26.1404 147.635 26.3503C147.477 26.5603 147.321 26.7702 147.111 26.9276C146.901 27.0851 146.691 27.19 146.428 27.2425C146.166 27.295 145.903 27.3474 145.64 27.3474C145.221 27.3474 144.854 27.295 144.539 27.1376C144.224 26.98 143.961 26.8226 143.752 26.5603C143.542 26.2978 143.385 26.0355 143.28 25.7206C143.175 25.4057 143.122 25.0384 143.122 24.6185C143.122 24.2512 143.175 23.8838 143.28 23.5689C143.385 23.2541 143.542 22.9392 143.805 22.6768C144.014 22.4144 144.276 22.2045 144.591 22.0995C144.906 21.9421 145.221 21.8896 145.64 21.8896C146.061 21.8896 146.428 21.9946 146.743 22.152C147.058 22.3094 147.32 22.5719 147.53 22.8342C147.74 23.0967 147.897 23.4115 148.002 23.7789C148.107 24.1462 148.107 24.5136 148.055 24.8809H144.171V24.9859ZM146.848 24.1986C146.848 24.0412 146.796 23.8313 146.743 23.6739C146.691 23.5164 146.586 23.359 146.481 23.2541C146.376 23.1491 146.218 23.0441 146.061 22.9392C145.903 22.8867 145.745 22.8342 145.537 22.8342C145.326 22.8342 145.169 22.8867 145.011 22.9392C144.854 22.9916 144.696 23.0967 144.591 23.2541C144.486 23.359 144.381 23.5164 144.329 23.6739C144.276 23.8313 144.224 24.0412 144.224 24.1986H146.848Z" fill="black"/>
</svg>
