<svg width="119" height="35" viewBox="0 0 119 35" fill="none" xmlns="http://www.w3.org/2000/svg">
<path d="M42.3753 14.1359C42.3753 10.8125 41.4222 9.10507 39.5151 9.01148C38.7566 8.97587 38.0158 9.09603 37.2955 9.37419C36.7205 9.57887 36.3335 9.7814 36.1298 9.98593V17.9203C37.3492 18.6813 38.4323 19.0349 39.3757 18.9794C41.3737 18.8481 42.3737 17.235 42.3737 14.1357L42.3753 14.1359ZM44.7259 14.2739C44.7259 15.9625 44.3276 17.3645 43.5267 18.4784C42.634 19.74 41.3967 20.3897 39.8148 20.4253C38.6223 20.4631 37.3931 20.0916 36.1305 19.3127V26.5235L34.0854 25.7981V9.79243C34.4211 9.38316 34.8528 9.03141 35.3765 8.7333C36.5935 8.02797 38.0737 7.66527 39.8137 7.64746L39.8428 7.67638C41.4336 7.65636 42.6594 8.30593 43.5202 9.62322C44.3234 10.8314 44.7263 12.3806 44.7263 14.2729L44.7259 14.2739Z" fill="white"/>
<path d="M57.2275 19.007C57.2275 21.272 56.9993 22.8395 56.5427 23.7137C56.0841 24.5859 55.2113 25.2823 53.9235 25.8007C52.8786 26.21 51.7488 26.4325 50.5353 26.4704L50.1974 25.189C51.4304 25.0221 52.2985 24.8553 52.8029 24.6884C53.7941 24.3547 54.4742 23.8429 54.8479 23.1577C55.1477 22.5991 55.2953 21.5336 55.2953 19.9552V19.4256C53.8969 20.0574 52.4305 20.3713 50.8994 20.3713C49.8926 20.3713 49.0042 20.0577 48.2389 19.4256C47.3797 18.7381 46.9502 17.8659 46.9502 16.8097V8.34584L48.9953 7.64941V16.1681C48.9953 17.0782 49.2907 17.7789 49.8813 18.2706C50.472 18.7623 51.2373 18.9981 52.1748 18.9803C53.1123 18.9603 54.1168 18.5998 55.1842 17.8944V7.95597H57.2293V19.0061L57.2275 19.007Z" fill="white"/>
<path d="M65.216 20.3148C64.9722 20.3349 64.7484 20.3438 64.5425 20.3438C63.3858 20.3438 62.4841 20.0701 61.8407 19.5207C61.1986 18.971 60.8763 18.2125 60.8763 17.2447V9.23499H59.4756V7.95559H60.8763V4.55907L62.9191 3.83594V7.95605H65.2169V9.23545H62.9191V17.1903C62.9191 17.9534 63.1249 18.4942 63.5366 18.8101C63.8901 19.0703 64.4518 19.2193 65.2169 19.2572V20.3164L65.216 20.3148Z" fill="white"/>
<path d="M77.5888 20.1486H75.5438V12.2987C75.5438 11.5 75.3558 10.8125 74.982 10.2384C74.5503 9.58879 73.9507 9.26398 73.181 9.26398C72.2435 9.26398 71.0709 9.75565 69.6642 10.739V20.1479H67.6191V1.38487L69.6642 0.744141V9.29023C70.9708 8.34454 72.3982 7.87067 73.95 7.87067C75.033 7.87067 75.9099 8.23338 76.5806 8.95651C77.2541 9.67964 77.5898 10.5806 77.5898 11.6568V20.1459L77.5888 20.1486Z" fill="white"/>
<path d="M88.4696 13.8169C88.4696 12.5398 88.2258 11.4864 87.7401 10.6509C87.1627 9.63426 86.2657 9.09808 85.052 9.04238C82.81 9.17142 81.6914 10.7689 81.6914 13.8313C81.6914 15.2351 81.9241 16.4084 82.394 17.3488C82.9936 18.5481 83.8932 19.1397 85.0936 19.1199C87.3446 19.1021 88.4703 17.3356 88.4703 13.8174L88.4696 13.8169ZM90.7093 13.8303C90.7093 15.6479 90.2417 17.1606 89.3086 18.3681C88.2816 19.7208 86.8639 20.3994 85.0527 20.3994C83.2583 20.3994 81.8596 19.7208 80.8496 18.3681C79.9344 17.1599 79.478 15.6472 79.478 13.8303C79.478 12.1215 79.9725 10.6848 80.9614 9.51385C82.0063 8.27234 83.3809 7.64941 85.0773 7.64941C86.7755 7.64941 88.1579 8.27234 89.223 9.51385C90.2119 10.6841 90.7064 12.1206 90.7064 13.8303H90.7093Z" fill="white"/>
<path d="M102.426 20.149H100.381V11.854C100.381 10.9439 100.106 10.2342 99.5555 9.72248C99.005 9.213 98.2712 8.96602 97.3562 8.98611C96.3852 9.00391 95.461 9.31983 94.5832 9.93179V20.1488H92.5381V9.68071C93.715 8.82861 94.798 8.27234 95.7863 8.01212C96.7194 7.76971 97.5426 7.64941 98.2517 7.64941C98.7372 7.64941 99.1937 7.69614 99.6232 7.78959C100.426 7.97425 101.08 8.31687 101.583 8.81973C102.145 9.376 102.424 10.0434 102.424 10.8243V20.1488L102.426 20.149Z" fill="white"/>
<path d="M13.8902 1.4601C12.8379 1.46496 11.8331 1.55419 10.9496 1.70982C8.34417 2.16748 7.8713 3.12504 7.8713 4.89178V7.2246H14.0256V8.00206H7.8713H5.562C3.77332 8.00206 2.20594 9.07123 1.71699 11.1041C1.15184 13.4347 1.12681 14.891 1.71699 17.3242C2.15452 19.1362 3.19944 20.4263 4.98812 20.4263H7.10436V17.6301C7.10436 15.61 8.86204 13.8273 10.9494 13.8273H17.0968C18.8081 13.8273 20.1751 12.4262 20.1751 10.7184V4.89086C20.1751 3.23232 18.7679 1.98738 17.0968 1.70891C16.0395 1.5339 14.9424 1.4544 13.8899 1.45919L13.8902 1.4601ZM10.5617 3.33618C11.1975 3.33618 11.7165 3.86095 11.7165 4.50601C11.7165 5.1488 11.1973 5.66878 10.5617 5.66878C9.92372 5.66878 9.40677 5.14903 9.40677 4.50601C9.40677 3.86095 9.92372 3.33618 10.5617 3.33618Z" fill="white"/>
<path d="M20.9423 8.00098V10.7196C20.9423 12.8266 19.1458 14.6 17.0973 14.6H10.9499C9.26588 14.6 7.87158 16.033 7.87158 17.7089V23.5364C7.87158 25.195 9.32212 26.1705 10.9499 26.6453C12.8981 27.2151 14.7673 27.318 17.0973 26.6453C18.6468 26.1993 20.1756 25.3013 20.1756 23.5364V21.2036H14.0282V20.4261H20.1756H23.2539C25.0426 20.4261 25.7101 19.1855 26.3322 17.3241C26.9747 15.4069 26.9474 13.5623 26.3322 11.104C25.8901 9.33334 25.0458 8.00189 23.2539 8.00189H20.9446L20.9423 8.00098ZM17.4852 22.7603C18.1232 22.7603 18.6401 23.2801 18.6401 23.9231C18.6401 24.5682 18.1232 25.0929 17.4852 25.0929C16.8494 25.0929 16.3304 24.5682 16.3304 23.9231C16.3304 23.2803 16.8496 22.7603 17.4852 22.7603Z" fill="white"/>
<path d="M106.421 6.1423H106.779V3.90626H107.629V3.63965H105.571V3.90626H106.421V6.1423ZM107.946 6.1423H108.253V4.10005L108.917 6.14207H109.259L109.951 4.1069V6.1423H110.286V3.64056H109.843L109.086 5.78462L108.441 3.64056H107.946V6.1423Z" fill="white"/>
</svg>
