<svg width="36" height="28" viewBox="0 0 36 28" fill="none" xmlns="http://www.w3.org/2000/svg">
<g clip-path="url(#clip0_2179_1694)">
<path fill-rule="evenodd" clip-rule="evenodd" d="M17.9727 24.1619C8.07148 24.1619 0.0449219 18.7863 0.0449219 12.1552C0.0449219 5.52402 8.07148 0.148438 17.9727 0.148438C27.8739 0.148438 35.9004 5.52402 35.9004 12.1552C35.9004 18.7863 27.8739 24.1619 17.9727 24.1619ZM20.7168 4.84266C13.191 4.84266 7.09018 8.51764 7.09018 13.051C7.09018 17.5843 13.191 21.2593 20.7168 21.2593C28.2426 21.2593 33.7965 18.7468 33.7965 13.051C33.7965 7.35694 28.2426 4.84266 20.7168 4.84266Z" fill="url(#paint0_linear_2179_1694)"/>
<path fill-rule="evenodd" clip-rule="evenodd" d="M17.9727 24.1619C8.07148 24.1619 0.0449219 18.7863 0.0449219 12.1552C0.0449219 5.52402 8.07148 0.148438 17.9727 0.148438C27.8739 0.148438 35.9004 5.52402 35.9004 12.1552C35.9004 18.7863 27.8739 24.1619 17.9727 24.1619ZM20.7168 4.84266C13.191 4.84266 7.09018 8.51764 7.09018 13.051C7.09018 17.5843 13.191 21.2593 20.7168 21.2593C28.2426 21.2593 33.7965 18.7468 33.7965 13.051C33.7965 7.35694 28.2426 4.84266 20.7168 4.84266Z" fill="white"/>
<path fill-rule="evenodd" clip-rule="evenodd" d="M27.3483 18.7457C27.3483 18.7457 28.4333 19.0731 29.0637 19.3921C29.2825 19.5028 29.6609 19.7237 29.9339 20.0137C30.2013 20.2977 30.3317 20.5855 30.3317 20.5855L34.6079 27.7954L27.6963 27.7985L24.4643 21.7291C24.4643 21.7291 23.8025 20.592 23.3952 20.2623C23.0555 19.9872 22.9107 19.8893 22.5748 19.8893C22.341 19.8893 20.9326 19.8893 20.9326 19.8893L20.9339 27.7941L14.8179 27.7967V7.60449H27.0996C27.0996 7.60449 32.6936 7.70538 32.6936 13.0275C32.6936 18.3495 27.3483 18.7457 27.3483 18.7457ZM24.688 11.9845L20.9855 11.9821L20.9836 15.4155L24.688 15.4143C24.688 15.4143 26.4035 15.409 26.4035 13.6678C26.4035 11.8915 24.688 11.9845 24.688 11.9845Z" fill="white"/>
</g>
<defs>
<linearGradient id="paint0_linear_2179_1694" x1="0.0449219" y1="0.148438" x2="22.2501" y2="33.3039" gradientUnits="userSpaceOnUse">
<stop stop-color="white"/>
<stop offset="1" stop-color="white" stop-opacity="0.5"/>
</linearGradient>
<clipPath id="clip0_2179_1694">
<rect width="36" height="27.895" fill="white"/>
</clipPath>
</defs>
</svg>
