<svg xmlns="http://www.w3.org/2000/svg" width="160" height="100" viewBox="0 0 160 100" fill="none">
  <path d="M154.911 13.0294L159 11.1078V99.5H0V49.5392H2.49857L9.76714 45.6961L15.4457 43.7745L17.9443 42.8137L21.1243 43.7745L27.7114 47.6176L33.39 50.5L36.7971 49.5392L43.3843 46.6569L49.0629 42.8137L52.6971 41.8529H54.5143L57.24 42.8137L61.1014 45.6961L65.8714 49.5392L69.2786 50.5H71.3229L73.3671 47.6176L75.1843 42.8137L77.4557 34.1667L83.3614 11.1078L85.86 4.38235L88.5857 1.5L92.9014 3.42157L98.1257 9.18627L104.259 13.0294L107.439 13.9902L110.846 19.7549L115.161 35.1275L120.613 51.4608L124.474 55.3039L128.563 49.5392L134.923 35.1275L139.693 27.4412H141.737L147.416 22.6373L154.911 13.0294Z" fill="url(#paint0_linear_2111_22667)"/>
  <path d="M159 11.3214L154.911 13.2857L147.416 23.1071L141.737 28.0179H139.693L134.923 35.875L128.563 50.6071L124.474 56.5L120.613 52.5714L115.161 35.875L110.846 20.1607L107.439 14.2679L104.259 13.2857L98.1257 9.35714L92.9014 3.46429L88.5857 1.5L85.86 4.44643L83.3614 11.3214L77.4557 34.8929L75.1843 43.7321L73.3671 48.6429L71.3229 51.5893H69.2786L65.8714 50.6071L61.1014 46.6786L57.24 43.7321L54.5143 42.75H52.6971L49.0629 43.7321L43.3843 47.6607L36.7971 50.6071L33.39 51.5893L27.7114 48.6429L21.1243 44.7143L17.9443 43.7321L15.4457 44.7143L9.76714 46.6786L2.49857 50.6071H0" stroke="#6BA89D" stroke-width="2"/>
  <defs>
    <linearGradient id="paint0_linear_2111_22667" x1="79.5" y1="1.5" x2="79.5" y2="99.5" gradientUnits="userSpaceOnUse">
      <stop stop-color="#38756A"/>
      <stop offset="1" stop-color="#38756A" stop-opacity="0"/>
    </linearGradient>
  </defs>
</svg>