<svg xmlns="http://www.w3.org/2000/svg" width="130" height="99" viewBox="0 0 130 99" fill="none">
  <g clip-path="url(#clip0_2111_22639)">
    <path d="M1.775 33.5589L0 31.4359V98.25H130V14.0455L128.328 14.1471C126.655 14.2487 123.311 14.4518 119.873 12.6422C116.436 10.8327 112.905 7.01036 109.503 5.95395C106.1 4.89753 102.825 6.60703 99.4595 6.35334C96.0938 6.09967 92.6375 3.88283 89.407 6.55617C86.1766 9.22951 83.1719 16.7931 80.0403 21.6065C76.9087 26.42 73.65 28.4834 70.2126 26.6762C66.7753 24.869 63.1591 19.1913 59.7482 17.9568C56.3373 16.7223 53.1315 19.9312 49.9132 22.8681C46.6949 25.805 43.4641 28.47 40.0483 27.1311C36.6326 25.7922 33.0319 20.4494 29.7075 21.0891C26.3831 21.7289 23.335 28.3512 20.2048 33.1958C17.0746 38.0404 13.8623 41.1073 10.4812 40.5177C7.10002 39.9281 3.55001 35.682 1.775 33.5589Z" fill="url(#paint0_linear_2111_22639)"/>
    <path d="M-9.43311 23.2206L1.77504 34.4287C3.55004 36.6545 7.10005 41.106 10.4812 41.7242C13.8624 42.3423 17.0746 39.1271 20.2049 34.048C23.3351 28.969 26.3832 22.0262 29.7076 21.3555C33.0319 20.6848 36.6326 26.2862 40.0484 27.6899C43.4641 29.0936 46.6949 26.2996 49.9132 23.2206C53.1315 20.1415 56.3373 16.7775 59.7482 18.0716C63.1592 19.3658 66.7753 25.3183 70.2127 27.2129C73.6501 29.1075 76.9087 26.9443 80.0403 21.8979C83.172 16.8516 86.1766 8.92207 89.4071 6.11938C92.6376 3.31667 96.0939 5.64078 99.4595 5.90673C102.825 6.17269 106.1 4.38047 109.503 5.48801C112.906 6.59553 116.436 10.6028 119.873 12.4999C123.311 14.3971 126.655 14.1841 128.328 14.0776L130 13.9711" stroke="#6BA89D" stroke-width="2"/>
  </g>
  <defs>
    <linearGradient id="paint0_linear_2111_22639" x1="65" y1="5.25" x2="65" y2="98.25" gradientUnits="userSpaceOnUse">
      <stop stop-color="#38756A"/>
      <stop offset="1" stop-color="#38756A" stop-opacity="0"/>
    </linearGradient>
    <clipPath id="clip0_2111_22639">
      <rect width="130" height="97.5" fill="white" transform="translate(0 0.75)"/>
    </clipPath>
  </defs>
</svg>