<svg xmlns="http://www.w3.org/2000/svg" width="36" height="37" viewBox="0 0 36 37" fill="none">
  <rect x="1.0105" y="1.81055" width="33.9894" height="34" rx="16.9947" stroke="#C7CACC" stroke-width="2"/>
  <path d="M28.9516 15.2073C28.8148 13.8864 28.5204 12.4262 27.4369 11.6589C26.5976 11.0638 25.4946 11.0418 24.4648 11.043C22.288 11.0442 20.11 11.0467 17.9332 11.0479C15.8394 11.0503 13.7457 11.0516 11.6519 11.054C10.7773 11.0552 9.9271 10.9868 9.11477 11.3656C8.41727 11.6906 7.87123 12.3089 7.54263 12.9968C7.08699 13.9536 6.99172 15.0375 6.93675 16.0956C6.83536 18.0226 6.84635 19.9544 6.96729 21.8802C7.05646 23.2854 7.28244 24.8384 8.3684 25.7341C9.33099 26.5271 10.6894 26.5662 11.9378 26.5674C15.9005 26.5711 19.8644 26.5748 23.8284 26.5772C24.3365 26.5784 24.8667 26.5686 25.3846 26.5124C26.4034 26.4025 27.3745 26.1104 28.0293 25.3553C28.6902 24.594 28.86 23.5346 28.9601 22.5314C29.2044 20.0974 29.202 17.6401 28.9516 15.2073ZM15.6415 22.2223V15.3979L21.549 18.8095L15.6415 22.2223Z" fill="#C7CACC"/>
</svg>