<svg width="334" height="66" viewBox="0 0 334 66" fill="none" xmlns="http://www.w3.org/2000/svg">
<g clip-path="url(#clip0_4061_4475)">
<mask id="mask0_4061_4475" style="mask-type:luminance" maskUnits="userSpaceOnUse" x="0" y="0" width="334" height="66">
<path d="M334 0H0V66H334V0Z" fill="white"/>
</mask>
<g mask="url(#mask0_4061_4475)">
<path d="M62.8827 62.8031L52.471 44.7563H73.2945L62.8827 62.8031ZM49.9969 2.16562L61.6457 22.3781L50.6154 41.4562L39.2759 21.7594L27.9363 2.0625H49.9969V2.16562ZM25.1531 43.1063L13.8136 62.8031L2.78331 43.6219L14.4321 23.4094H36.4926L25.1531 43.1063ZM36.4926 63.8344H15.6692L26.0808 45.7875L36.4926 63.8344ZM76.1809 43.1063C75.9747 42.7969 75.6655 42.5906 75.2531 42.5906H52.5741L63.9136 22.8938C64.1198 22.5844 64.1198 22.1719 63.9136 21.8625L51.5432 0.515625C51.4402 0.20625 51.0278 0 50.6154 0H26.0808C25.6685 0 25.3593 0.20625 25.1531 0.515625C24.9469 0.825 24.9469 1.2375 25.1531 1.54688L36.4926 21.2437H13.8136C13.4013 21.2437 13.092 21.45 12.8858 21.7594L0.618497 43.1063C0.412324 43.4156 0.412324 43.8281 0.618497 44.1375L12.8858 65.3812C13.092 65.6906 13.4013 65.8969 13.8136 65.8969H38.3482C38.7605 65.8969 39.0697 65.6906 39.2759 65.3812C39.482 65.0719 39.482 64.6594 39.2759 64.35L27.3179 43.6219L38.3482 24.5437L49.6876 44.2406L61.9549 65.4844C62.161 65.7937 62.4703 66 62.8827 66C63.2951 66 63.6044 65.7937 63.8105 65.4844L76.0778 44.2406C76.3871 43.8281 76.3871 43.4156 76.1809 43.1063Z" fill="black"/>
<path d="M96.3858 7.42529H98.8599L106.798 27.3284H104.323L102.056 21.4503H93.2932L91.0253 27.3284H88.5513L96.3858 7.42529ZM94.0148 19.4909H101.231L98.2414 11.7565C98.1383 11.5503 98.1383 11.344 98.0352 11.1378C97.9321 10.9315 97.9321 10.8284 97.829 10.6222C97.726 10.4159 97.726 10.3128 97.6229 10.1065C97.5198 10.2097 97.5198 10.4159 97.4167 10.6222C97.3136 10.8284 97.3136 11.0347 97.2105 11.1378C97.1074 11.344 97.1074 11.5503 97.0044 11.7565L94.0148 19.4909Z" fill="black"/>
<path d="M109.168 7.42529H111.333V10.8284V27.3284H109.168V7.42529Z" fill="black"/>
<path d="M125.456 25.3686V27.328H114.117V25.3686L122.467 15.2624H114.426V13.303H124.941V15.2624L116.488 25.3686H125.456Z" fill="black"/>
<path d="M140.301 27.3284H138.136V18.2534C138.136 17.119 137.827 16.294 137.208 15.6753C136.59 15.0565 135.765 14.8503 134.734 14.8503C134.219 14.8503 133.703 14.9534 133.188 15.1597C132.672 15.3659 132.26 15.6753 131.848 16.0878C131.435 16.5003 131.126 17.0159 130.92 17.5315C130.714 18.1503 130.611 18.769 130.611 19.4909V27.3284H128.446V7.42529H130.611V15.6753C131.023 14.8503 131.745 14.1284 132.569 13.6128C133.394 13.0972 134.425 12.7878 135.353 12.7878C135.971 12.7878 136.59 12.8909 137.208 13.0972C137.827 13.3034 138.342 13.6128 138.858 14.0253C139.373 14.4378 139.682 14.9534 139.991 15.5722C140.301 16.1909 140.404 16.9128 140.404 17.7378V27.3284H140.301Z" fill="black"/>
<path d="M145.661 20.7283C145.661 21.4501 145.867 22.172 146.073 22.7908C146.279 23.4095 146.589 23.9251 147.104 24.4408C147.517 24.9564 148.032 25.2658 148.547 25.5751C149.166 25.8845 149.784 25.9876 150.506 25.9876C151.125 25.9876 151.743 25.8845 152.155 25.7814C152.671 25.5751 153.083 25.3689 153.496 25.0595C153.908 24.7501 154.217 24.4408 154.526 24.0283C154.836 23.6158 155.042 23.2033 155.248 22.7908L156.897 23.7189C156.279 24.9564 155.351 25.9876 154.32 26.7095C153.289 27.4314 151.949 27.8439 150.403 27.8439C149.475 27.8439 148.547 27.6376 147.723 27.3283C146.898 26.9158 146.176 26.4001 145.455 25.7814C144.733 25.1626 144.321 24.3376 143.908 23.4095C143.496 22.4814 143.393 21.4501 143.393 20.4189C143.393 19.3876 143.599 18.3564 143.908 17.4283C144.321 16.5001 144.733 15.6751 145.455 15.0564C146.176 14.4376 146.795 13.922 147.723 13.5095C148.547 13.097 149.475 12.9939 150.506 12.9939C151.537 12.9939 152.568 13.2001 153.392 13.5095C154.217 13.8189 154.939 14.3345 155.557 14.9533C156.176 15.572 156.588 16.2939 156.897 17.222C157.207 18.047 157.413 19.0783 157.413 20.0064V20.7283H145.661ZM150.506 14.747C149.269 14.747 148.238 15.1595 147.413 15.8814C146.589 16.6033 146.073 17.6345 145.867 18.872H155.145C155.145 18.2533 154.939 17.6345 154.629 17.1189C154.32 16.6033 154.011 16.1908 153.599 15.7783C153.186 15.4689 152.671 15.1595 152.155 14.9533C151.64 14.747 151.021 14.747 150.506 14.747Z" fill="black"/>
<path d="M160.196 8.04346H162.877V10.8278H161.536H160.196V8.04346ZM160.402 13.3028H162.567V15.8809V27.4309H160.402V13.3028Z" fill="black"/>
<path d="M185.556 27.328H183.391V17.428C183.391 16.603 183.185 15.9842 182.772 15.5717C182.36 15.0561 181.638 14.8499 180.814 14.8499C180.401 14.8499 179.886 14.953 179.474 15.1592C179.061 15.3655 178.649 15.6749 178.34 15.9842C178.03 16.3967 177.721 16.9124 177.618 17.5311C177.412 18.1499 177.309 18.8717 177.309 19.7999V27.4311H175.144V17.7374C175.144 16.8092 174.938 16.0874 174.525 15.6749C174.113 15.1592 173.495 14.953 172.567 14.953C172.154 14.953 171.639 15.0561 171.227 15.2624C170.814 15.4686 170.402 15.778 170.093 16.1905C169.783 16.603 169.474 17.1186 169.268 17.7374C169.062 18.3561 168.959 19.078 168.959 20.0061V27.5342H166.794V13.303H168.959V15.4686C169.165 15.1592 169.371 14.7467 169.577 14.4374C169.783 14.128 170.196 13.8186 170.505 13.6124C170.814 13.4061 171.227 13.1999 171.742 12.9936C172.154 12.8905 172.67 12.7874 173.185 12.7874C174.01 12.7874 174.835 12.9936 175.556 13.4061C176.278 13.8186 176.793 14.5405 176.999 15.4686C178.03 13.7155 179.474 12.7874 181.432 12.7874C182.669 12.7874 183.7 13.0967 184.422 13.8186C185.246 14.5405 185.556 15.4686 185.556 16.603V27.328Z" fill="black"/>
<path d="M190.916 20.7283C190.916 21.4501 191.122 22.172 191.328 22.7908C191.534 23.4095 191.844 23.9251 192.359 24.4408C192.771 24.9564 193.287 25.2658 193.802 25.5751C194.421 25.8845 195.039 25.9876 195.761 25.9876C196.379 25.9876 196.998 25.8845 197.41 25.7814C197.926 25.5751 198.338 25.3689 198.75 25.0595C199.163 24.7501 199.472 24.4408 199.781 24.0283C200.091 23.6158 200.297 23.2033 200.503 22.7908L202.152 23.7189C201.534 24.9564 200.606 25.9876 199.575 26.7095C198.544 27.4314 197.204 27.8439 195.658 27.8439C194.73 27.8439 193.802 27.6376 192.978 27.3283C192.153 26.9158 191.431 26.4001 190.71 25.7814C189.988 25.1626 189.576 24.3376 189.163 23.4095C188.751 22.4814 188.648 21.4501 188.648 20.4189C188.648 19.3876 188.854 18.3564 189.163 17.4283C189.576 16.5001 189.988 15.6751 190.71 15.0564C191.431 14.4376 192.05 13.922 192.978 13.5095C193.802 13.097 194.73 12.9939 195.761 12.9939C196.792 12.9939 197.823 13.2001 198.647 13.5095C199.472 13.8189 200.194 14.3345 200.812 14.9533C201.431 15.572 201.843 16.2939 202.152 17.222C202.462 18.047 202.668 19.0783 202.668 20.0064V20.7283H190.916ZM195.761 14.747C194.524 14.747 193.493 15.1595 192.668 15.8814C191.844 16.6033 191.328 17.6345 191.122 18.872H200.4C200.4 18.2533 200.194 17.6345 199.884 17.1189C199.575 16.6033 199.266 16.1908 198.853 15.7783C198.441 15.4689 197.926 15.1595 197.41 14.9533C196.895 14.747 196.276 14.747 195.761 14.747Z" fill="black"/>
<path d="M212.667 15.0563C212.358 14.9531 211.945 14.85 211.533 14.85C211.018 14.85 210.605 14.9531 210.193 15.1594C209.781 15.3656 209.368 15.675 209.059 16.0875C208.75 16.5 208.44 17.0156 208.234 17.5312C208.028 18.0469 207.925 18.7687 207.925 19.4906V27.225H205.76V13.3031H207.925V15.8812C208.337 15.0562 208.853 14.3344 209.471 13.7156C210.09 13.0969 211.018 12.8906 211.945 12.8906C212.049 12.8906 212.255 12.8906 212.358 12.8906C212.564 12.8906 212.667 12.9938 212.873 12.9938L212.667 15.0563Z" fill="black"/>
<path d="M214.935 13.5091L216.688 10.3122H215.657V7.52783H218.337V10.3122L215.554 13.9216L214.935 13.5091Z" fill="black"/>
<path d="M219.265 16.6031C219.265 17.325 219.574 17.8406 220.296 18.2531C221.017 18.6656 221.842 18.8719 222.976 19.0781C224.522 19.3875 225.656 19.8 226.481 20.4187C227.306 21.0375 227.718 21.9656 227.718 23.2031C227.718 23.8219 227.615 24.3375 227.409 24.9563C227.203 25.4719 226.79 25.9875 226.378 26.4C225.965 26.8125 225.347 27.1219 224.728 27.4313C224.11 27.6375 223.285 27.8438 222.461 27.8438C221.636 27.8438 221.017 27.7406 220.296 27.5344C219.677 27.3281 219.059 27.0187 218.543 26.6062C218.028 26.1937 217.615 25.7812 217.203 25.2656C216.894 24.75 216.585 24.2344 216.378 23.7188L218.234 22.5844C218.543 23.5125 219.162 24.3375 219.78 24.9563C220.502 25.575 221.327 25.8844 222.357 25.8844C223.285 25.8844 224.11 25.6781 224.625 25.2656C225.141 24.8531 225.45 24.2344 225.45 23.4094C225.45 22.6875 225.141 22.1719 224.522 21.7594C223.904 21.3469 222.976 21.0375 221.842 20.8313C221.223 20.7281 220.605 20.5219 219.986 20.3156C219.368 20.1094 218.956 19.8 218.543 19.4906C218.131 19.1812 217.822 18.7688 217.512 18.2531C217.306 17.8406 217.1 17.2219 217.1 16.7063C217.1 16.1906 217.203 15.5719 217.512 15.0563C217.822 14.5406 218.131 14.2312 218.543 13.8187C218.956 13.4062 219.471 13.2 220.09 13.0969C220.708 12.9937 221.327 12.8906 221.945 12.8906C223.388 12.8906 224.522 13.2 225.45 13.8187C226.378 14.4375 226.996 15.2625 227.409 16.2938L225.656 17.325C225.244 16.3969 224.728 15.675 224.11 15.3656C223.491 14.9531 222.667 14.85 221.945 14.85C221.223 14.85 220.502 14.9531 219.883 15.2625C219.265 15.5719 219.265 15.9844 219.265 16.6031Z" fill="black"/>
<path d="M236.996 7.42529H242.459C243.902 7.42529 245.243 7.63154 246.48 8.04404C247.717 8.45654 248.747 9.17842 249.675 10.0034C250.603 10.8284 251.325 11.8597 251.737 13.0972C252.252 14.3347 252.459 15.7784 252.459 17.3253C252.459 18.8722 252.252 20.3159 251.737 21.5534C251.222 22.7909 250.5 23.8222 249.675 24.6472C248.747 25.4722 247.717 26.0909 246.48 26.6065C245.243 27.019 243.902 27.2253 242.459 27.2253H236.996V7.42529ZM242.356 25.2659C243.49 25.2659 244.521 25.0597 245.552 24.7503C246.48 24.4409 247.304 23.9253 248.026 23.3065C248.747 22.6878 249.263 21.8628 249.675 20.8315C250.088 19.8003 250.294 18.6659 250.294 17.3253C250.294 15.9847 250.088 14.8503 249.675 13.819C249.263 12.7878 248.747 12.0659 248.026 11.344C247.304 10.7253 246.48 10.2097 245.552 9.90029C244.624 9.59092 243.49 9.38467 242.356 9.38467H239.367V25.0597H242.356V25.2659Z" fill="black"/>
<path d="M256.067 8.04346H258.747V10.8278H257.407H256.067V8.04346ZM256.273 13.3028H258.438V15.2622V27.4309H256.273V13.3028Z" fill="black"/>
<path d="M264.417 16.6031C264.417 17.325 264.726 17.8406 265.448 18.2531C266.169 18.6656 266.994 18.8719 268.128 19.0781C269.674 19.3875 270.808 19.8 271.633 20.4187C272.457 21.0375 272.87 21.9656 272.87 23.2031C272.87 23.8219 272.767 24.3375 272.561 24.9563C272.354 25.4719 271.942 25.9875 271.53 26.4C271.117 26.8125 270.499 27.1219 269.88 27.4313C269.262 27.6375 268.437 27.8438 267.612 27.8438C266.788 27.8438 266.169 27.7406 265.448 27.5344C264.829 27.3281 264.211 27.0187 263.695 26.6062C263.18 26.1937 262.767 25.7812 262.355 25.2656C262.046 24.75 261.736 24.2344 261.53 23.7188L263.386 22.5844C263.695 23.5125 264.314 24.3375 264.932 24.9563C265.654 25.575 266.478 25.8844 267.509 25.8844C268.437 25.8844 269.262 25.6781 269.777 25.2656C270.293 24.8531 270.602 24.2344 270.602 23.4094C270.602 22.6875 270.293 22.1719 269.674 21.7594C269.056 21.3469 268.128 21.0375 266.994 20.8313C266.375 20.7281 265.757 20.5219 265.138 20.3156C264.52 20.1094 264.107 19.8 263.695 19.4906C263.283 19.1812 262.973 18.7688 262.664 18.2531C262.458 17.8406 262.252 17.2219 262.252 16.7063C262.252 16.1906 262.355 15.5719 262.664 15.0563C262.973 14.5406 263.283 14.2312 263.695 13.8187C264.107 13.4062 264.623 13.2 265.241 13.0969C265.86 12.9937 266.478 12.8906 267.097 12.8906C268.54 12.8906 269.674 13.2 270.602 13.8187C271.53 14.4375 272.148 15.2625 272.561 16.2938L270.808 17.325C270.396 16.3969 269.88 15.675 269.262 15.3656C268.643 14.9531 267.819 14.85 267.097 14.85C266.375 14.85 265.654 14.9531 265.035 15.2625C264.417 15.5719 264.417 15.9844 264.417 16.6031Z" fill="black"/>
<path d="M277.303 20.7283C277.303 21.4501 277.509 22.172 277.715 22.7908C277.921 23.4095 278.23 23.9251 278.746 24.4408C279.158 24.9564 279.674 25.2658 280.189 25.5751C280.808 25.8845 281.426 25.9876 282.148 25.9876C282.766 25.9876 283.385 25.8845 283.797 25.7814C284.312 25.5751 284.725 25.3689 285.137 25.0595C285.55 24.7501 285.859 24.4408 286.168 24.0283C286.477 23.6158 286.683 23.2033 286.89 22.7908L288.539 23.7189C287.92 24.9564 286.993 25.9876 285.962 26.7095C284.931 27.4314 283.591 27.8439 282.045 27.8439C281.117 27.8439 280.189 27.6376 279.364 27.3283C278.54 26.9158 277.818 26.4001 277.096 25.7814C276.375 25.1626 275.962 24.3376 275.55 23.4095C275.138 22.4814 275.035 21.4501 275.035 20.4189C275.035 19.3876 275.241 18.3564 275.55 17.4283C275.962 16.5001 276.375 15.6751 277.096 15.0564C277.818 14.4376 278.437 13.922 279.364 13.5095C280.189 13.097 281.117 12.9939 282.148 12.9939C283.179 12.9939 284.209 13.2001 285.034 13.5095C285.859 13.8189 286.58 14.3345 287.199 14.9533C287.817 15.572 288.23 16.2939 288.539 17.222C288.848 18.047 289.054 19.0783 289.054 20.0064V20.7283H277.303ZM282.148 14.747C280.911 14.747 279.88 15.1595 279.055 15.8814C278.23 16.6033 277.715 17.6345 277.509 18.872H286.787C286.787 18.2533 286.58 17.6345 286.271 17.1189C285.962 16.6033 285.653 16.1908 285.24 15.7783C284.828 15.4689 284.312 15.1595 283.797 14.9533C283.282 14.747 282.766 14.747 282.148 14.747Z" fill="black"/>
<path d="M301.734 27.328C301.528 27.0186 301.322 26.7092 301.115 26.2967C300.909 25.8842 300.806 25.2655 300.806 24.5436C300.394 25.5749 299.775 26.3999 298.848 26.9155C298.023 27.4311 296.992 27.7405 295.961 27.7405C295.24 27.7405 294.621 27.6374 294.003 27.4311C293.384 27.2249 292.869 26.9155 292.559 26.503C292.147 26.0905 291.838 25.678 291.632 25.1624C291.425 24.6467 291.322 24.028 291.322 23.4092C291.322 22.6874 291.425 22.1717 291.735 21.553C291.941 21.0374 292.353 20.6249 292.765 20.2124C293.178 19.7999 293.693 19.4905 294.312 19.2842C294.93 19.078 295.549 18.8717 296.167 18.7686L300.806 18.0467V17.428C300.806 16.4999 300.497 15.778 299.878 15.3655C299.26 14.953 298.435 14.7467 297.404 14.7467C296.27 14.7467 295.446 14.953 294.93 15.3655C294.415 15.778 294.106 16.2936 294.106 16.9124C294.106 17.0155 294.106 17.0155 294.106 17.1186C294.106 17.2217 294.106 17.2217 294.209 17.3249L292.25 17.9436C292.147 17.6342 292.044 17.2217 292.044 16.8092C292.044 16.2936 292.147 15.778 292.456 15.2624C292.662 14.7467 293.075 14.3342 293.487 14.0249C294.003 13.6124 294.518 13.4061 295.24 13.0967C295.961 12.7874 296.683 12.7874 297.507 12.7874C299.363 12.7874 300.703 13.1999 301.631 14.0249C302.559 14.8499 302.971 15.9842 302.971 17.428V23.8217C302.971 24.2342 302.971 24.5436 302.971 24.853C302.971 25.1624 303.074 25.4717 303.074 25.7811C303.177 26.0905 303.177 26.2967 303.28 26.6061C303.383 26.8124 303.486 27.1217 303.693 27.4311H301.734V27.328ZM296.373 25.7811C297.095 25.7811 297.817 25.678 298.332 25.3686C298.951 25.0592 299.363 24.6467 299.775 24.1311C300.188 23.6155 300.497 22.9967 300.6 22.378C300.806 21.7592 300.909 21.0374 300.909 20.3155V19.903L296.58 20.6249C295.549 20.8311 294.827 21.1405 294.312 21.553C293.796 22.0686 293.59 22.5842 293.59 23.3061C293.59 24.028 293.796 24.6467 294.312 25.0592C294.827 25.5749 295.446 25.7811 296.373 25.7811Z" fill="black"/>
<path d="M308.95 16.6031C308.95 17.325 309.259 17.8406 309.981 18.2531C310.702 18.6656 311.527 18.8719 312.661 19.0781C314.207 19.3875 315.341 19.8 316.166 20.4187C316.991 21.0375 317.403 21.9656 317.403 23.2031C317.403 23.8219 317.3 24.3375 317.094 24.9563C316.888 25.4719 316.475 25.9875 316.063 26.4C315.651 26.8125 315.032 27.1219 314.413 27.4313C313.795 27.6375 312.97 27.8438 312.146 27.8438C311.321 27.8438 310.702 27.7406 309.981 27.5344C309.362 27.3281 308.744 27.0187 308.228 26.6062C307.713 26.1937 307.301 25.7812 306.888 25.2656C306.579 24.75 306.27 24.2344 306.063 23.7188L307.919 22.5844C308.228 23.5125 308.847 24.3375 309.465 24.9563C310.187 25.575 311.012 25.8844 312.043 25.8844C312.97 25.8844 313.795 25.6781 314.31 25.2656C314.826 24.8531 315.135 24.2344 315.135 23.4094C315.135 22.6875 314.826 22.1719 314.207 21.7594C313.589 21.3469 312.661 21.0375 311.527 20.8313C310.909 20.7281 310.29 20.5219 309.672 20.3156C309.053 20.1094 308.641 19.8 308.228 19.4906C307.816 19.1812 307.507 18.7688 307.197 18.2531C306.991 17.8406 306.785 17.2219 306.785 16.7063C306.785 16.1906 306.888 15.5719 307.197 15.0563C307.507 14.5406 307.816 14.2312 308.228 13.8187C308.641 13.4062 309.156 13.2 309.775 13.0969C310.393 12.9937 311.012 12.8906 311.63 12.8906C313.073 12.8906 314.207 13.2 315.135 13.8187C316.063 14.4375 316.681 15.2625 317.094 16.2938L315.341 17.325C314.929 16.3969 314.413 15.675 313.795 15.3656C313.176 14.9531 312.352 14.85 311.63 14.85C310.909 14.85 310.187 14.9531 309.568 15.2625C308.95 15.5719 308.95 15.9844 308.95 16.6031Z" fill="black"/>
<path d="M321.939 20.7283C321.939 21.4501 322.145 22.172 322.351 22.7908C322.557 23.4095 322.867 23.9251 323.382 24.4408C323.794 24.9564 324.31 25.2658 324.825 25.5751C325.444 25.8845 326.062 25.9876 326.784 25.9876C327.402 25.9876 328.021 25.8845 328.433 25.7814C328.949 25.5751 329.361 25.3689 329.773 25.0595C330.186 24.7501 330.495 24.4408 330.804 24.0283C331.113 23.6158 331.32 23.2033 331.526 22.7908L333.175 23.7189C332.557 24.9564 331.629 25.9876 330.598 26.7095C329.567 27.4314 328.227 27.8439 326.681 27.8439C325.753 27.8439 324.825 27.6376 324.001 27.3283C323.176 26.9158 322.454 26.4001 321.733 25.7814C321.011 25.1626 320.599 24.3376 320.186 23.4095C319.774 22.4814 319.671 21.4501 319.671 20.4189C319.671 19.3876 319.877 18.3564 320.186 17.4283C320.599 16.5001 321.011 15.6751 321.733 15.0564C322.454 14.4376 323.073 13.922 324.001 13.5095C324.825 13.097 325.753 12.9939 326.784 12.9939C327.815 12.9939 328.846 13.2001 329.67 13.5095C330.495 13.8189 331.217 14.3345 331.835 14.9533C332.454 15.572 332.866 16.2939 333.175 17.222C333.484 18.047 333.691 19.0783 333.691 20.0064V20.7283H321.939ZM326.784 14.747C325.547 14.747 324.516 15.1595 323.691 15.8814C322.867 16.6033 322.351 17.6345 322.145 18.872H331.423C331.423 18.2533 331.217 17.6345 330.907 17.1189C330.598 16.6033 330.289 16.1908 329.876 15.7783C329.464 15.4689 328.949 15.1595 328.433 14.9533C327.918 14.747 327.299 14.747 326.784 14.747Z" fill="black"/>
<path d="M90.4067 34.4436H96.3857C97.932 34.4436 99.3753 34.6499 100.715 35.0624C102.056 35.4749 103.189 36.0936 104.117 36.9186C105.045 37.7436 105.87 38.7749 106.385 40.0124C106.9 41.2499 107.21 42.6936 107.21 44.3436C107.21 45.9936 106.9 47.4374 106.385 48.6749C105.87 49.9124 105.045 50.9436 104.117 51.7686C103.189 52.5936 102.056 53.2123 100.715 53.6248C99.3753 54.0373 97.932 54.2436 96.3857 54.2436H90.4067V34.4436ZM96.5919 50.8405C97.6228 50.8405 98.5506 50.7374 99.3753 50.428C100.2 50.1186 100.922 49.8092 101.54 49.1905C102.159 48.6749 102.571 47.953 102.88 47.128C103.189 46.303 103.396 45.3749 103.396 44.2405C103.396 43.2092 103.189 42.178 102.88 41.4561C102.571 40.6311 102.055 40.0124 101.54 39.3936C100.922 38.878 100.2 38.4655 99.3753 38.1561C98.5506 37.8467 97.6228 37.7436 96.5919 37.7436H94.1178V50.7374H96.5919V50.8405Z" fill="black"/>
<path d="M119.374 54.3469C119.271 54.2438 119.168 53.9344 118.962 53.5219C118.755 53.1094 118.755 52.6969 118.755 52.0781C118.24 53.0063 117.621 53.625 116.797 54.0375C115.972 54.45 115.044 54.6562 114.013 54.6562C113.292 54.6562 112.673 54.5531 112.055 54.3469C111.436 54.1406 111.024 53.8312 110.612 53.4187C110.199 53.0062 109.89 52.5938 109.581 51.975C109.271 51.3563 109.271 50.8406 109.271 50.1187C109.271 49.3969 109.375 48.7781 109.684 48.2625C109.993 47.7469 110.302 47.2312 110.818 46.9219C111.333 46.5094 111.849 46.2 112.467 45.9937C113.086 45.7875 113.704 45.5812 114.323 45.4781L118.549 44.8594V44.3438C118.549 43.6219 118.343 43.1063 117.931 42.7969C117.518 42.3844 116.9 42.2812 115.972 42.2812C115.147 42.2812 114.529 42.4875 114.117 42.7969C113.704 43.1063 113.498 43.5187 113.498 43.9312C113.498 44.0344 113.498 44.0344 113.498 44.0344C113.498 44.0344 113.498 44.1375 113.601 44.2406L110.405 45.2719C110.199 44.9625 110.199 44.55 110.199 44.0344C110.199 43.5188 110.302 42.9 110.612 42.3844C110.921 41.8687 111.23 41.3531 111.746 41.0437C112.261 40.6312 112.88 40.3219 113.601 40.1156C114.323 39.9094 115.147 39.7031 116.178 39.7031C118.137 39.7031 119.683 40.1156 120.714 40.9406C121.745 41.7656 122.26 43.1063 122.26 44.7563V50.6344C122.26 51.4594 122.363 52.0781 122.467 52.5938C122.57 53.1094 122.879 53.625 123.188 54.1406H119.374V54.3469ZM114.838 51.8719C115.869 51.8719 116.797 51.5625 117.415 50.8406C118.137 50.1187 118.446 49.0875 118.446 47.7469V47.5406L115.044 48.1594C113.498 48.4688 112.673 49.0875 112.673 50.2219C112.673 50.8406 112.88 51.2531 113.292 51.4594C113.704 51.6656 114.22 51.8719 114.838 51.8719Z" fill="black"/>
<path d="M124.219 40.2185H126.384V36.4028H129.992V40.2185H133.085V43.106H129.992V49.4997C129.992 50.2216 130.198 50.7372 130.508 51.0466C130.817 51.356 131.229 51.4591 131.848 51.4591C132.157 51.4591 132.363 51.4591 132.569 51.356C132.775 51.356 132.879 51.2528 133.085 51.2528L133.394 54.2435C133.085 54.3466 132.672 54.4497 132.26 54.5528C131.848 54.656 131.435 54.656 131.023 54.656C130.404 54.656 129.889 54.5528 129.27 54.4497C128.755 54.3466 128.24 54.0372 127.827 53.7278C127.415 53.4185 127.106 52.9028 126.796 52.3872C126.487 51.8716 126.487 51.0466 126.487 50.2216V43.106H124.322V40.2185H124.219Z" fill="black"/>
<path d="M145.146 54.3469C145.043 54.2438 144.94 53.9344 144.734 53.5219C144.527 53.1094 144.527 52.6969 144.527 52.0781C144.012 53.0063 143.393 53.625 142.569 54.0375C141.744 54.45 140.816 54.6562 139.785 54.6562C139.064 54.6562 138.445 54.5531 137.827 54.3469C137.208 54.1406 136.796 53.8312 136.384 53.4187C135.971 53.0062 135.662 52.5938 135.353 51.975C135.043 51.3563 135.043 50.8406 135.043 50.1187C135.043 49.3969 135.147 48.7781 135.456 48.2625C135.765 47.7469 136.074 47.2312 136.59 46.9219C137.105 46.5094 137.621 46.2 138.239 45.9937C138.858 45.7875 139.476 45.5812 140.095 45.4781L144.321 44.8594V44.3438C144.321 43.6219 144.115 43.1063 143.703 42.7969C143.29 42.3844 142.672 42.2812 141.744 42.2812C140.919 42.2812 140.301 42.4875 139.889 42.7969C139.476 43.1063 139.27 43.5187 139.27 43.9312C139.27 44.0344 139.27 44.0344 139.27 44.0344C139.27 44.0344 139.27 44.1375 139.373 44.2406L136.177 45.2719C135.971 44.9625 135.971 44.55 135.971 44.0344C135.971 43.5188 136.074 42.9 136.384 42.3844C136.693 41.8687 137.002 41.3531 137.518 41.0437C138.033 40.6312 138.651 40.3219 139.373 40.1156C140.095 39.9094 140.919 39.7031 141.95 39.7031C143.909 39.7031 145.455 40.1156 146.486 40.9406C147.517 41.7656 148.032 43.1063 148.032 44.7563V50.6344C148.032 51.4594 148.135 52.0781 148.239 52.5938C148.342 53.1094 148.651 53.625 148.96 54.1406H145.146V54.3469ZM140.61 51.8719C141.641 51.8719 142.569 51.5625 143.187 50.8406C143.909 50.1187 144.218 49.0875 144.218 47.7469V47.5406L140.816 48.1594C139.27 48.4688 138.445 49.0875 138.445 50.2219C138.445 50.8406 138.651 51.2531 139.064 51.4594C139.476 51.6656 139.992 51.8719 140.61 51.8719Z" fill="black"/>
<path d="M157.516 34.4436H161.227V37.9499V54.3467H157.516V34.4436Z" fill="black"/>
<path d="M178.443 54.347H174.835V46.2001C174.835 45.272 174.629 44.5501 174.113 44.0345C173.701 43.5189 172.979 43.2095 171.948 43.2095C171.021 43.2095 170.196 43.622 169.577 44.3439C168.959 45.0658 168.65 45.9939 168.65 47.2314V54.347H165.042V40.2189H168.65V42.4876C169.165 41.6626 169.887 41.0439 170.711 40.5283C171.536 40.0126 172.464 39.8064 173.495 39.8064C175.041 39.8064 176.175 40.2189 177.103 41.147C178.03 42.0751 178.443 43.2095 178.443 44.6533V54.347Z" fill="black"/>
<path d="M181.638 34.4436H185.555V38.1561H183.184H181.638V34.4436ZM181.741 40.2186H185.349V44.0342V54.3467H181.741V40.2186Z" fill="black"/>
<path d="M187.411 40.2185H189.576V36.4028H193.184V40.2185H196.277V43.106H193.184V49.4997C193.184 50.2216 193.39 50.7372 193.699 51.0466C194.009 51.356 194.421 51.4591 195.04 51.4591C195.349 51.4591 195.555 51.4591 195.761 51.356C195.967 51.356 196.07 51.2528 196.277 51.2528L196.586 54.2435C196.277 54.3466 195.864 54.4497 195.452 54.5528C195.04 54.656 194.627 54.656 194.215 54.656C193.596 54.656 193.081 54.5528 192.462 54.4497C191.947 54.3466 191.432 54.0372 191.019 53.7278C190.607 53.4185 190.298 52.9028 189.988 52.3872C189.679 51.8716 189.679 51.0466 189.679 50.2216V43.106H187.514V40.2185H187.411Z" fill="black"/>
<path d="M198.647 34.4436H202.565V38.1561H200.606H198.647V34.4436ZM198.751 40.2186H202.359V44.3436V54.2436H198.751V40.2186Z" fill="black"/>
<path d="M215.245 54.3469C215.141 54.2438 215.038 53.9344 214.832 53.5219C214.626 53.1094 214.626 52.6969 214.626 52.0781C214.111 53.0063 213.492 53.625 212.667 54.0375C211.843 54.45 210.915 54.6562 209.884 54.6562C209.162 54.6562 208.544 54.5531 207.925 54.3469C207.307 54.1406 206.895 53.8312 206.482 53.4187C206.07 53.0062 205.761 52.5938 205.451 51.975C205.142 51.3563 205.142 50.8406 205.142 50.1187C205.142 49.3969 205.245 48.7781 205.554 48.2625C205.864 47.7469 206.173 47.2312 206.688 46.9219C207.204 46.5094 207.719 46.2 208.338 45.9937C208.956 45.7875 209.575 45.5812 210.193 45.4781L214.42 44.8594V44.3438C214.42 43.6219 214.214 43.1063 213.801 42.7969C213.389 42.3844 212.77 42.2812 211.843 42.2812C211.018 42.2812 210.399 42.4875 209.987 42.7969C209.575 43.1063 209.369 43.5187 209.369 43.9312C209.369 44.0344 209.369 44.0344 209.369 44.0344C209.369 44.0344 209.369 44.1375 209.472 44.2406L206.276 45.2719C206.07 44.9625 206.07 44.55 206.07 44.0344C206.07 43.5188 206.173 42.9 206.482 42.3844C206.791 41.8687 207.101 41.3531 207.616 41.0437C208.132 40.6312 208.75 40.3219 209.472 40.1156C210.193 39.9094 211.018 39.7031 212.049 39.7031C214.008 39.7031 215.554 40.1156 216.585 40.9406C217.616 41.7656 218.131 43.1063 218.131 44.7563V50.6344C218.131 51.4594 218.234 52.0781 218.337 52.5938C218.44 53.1094 218.749 53.625 219.059 54.1406H215.245V54.3469ZM210.709 51.8719C211.74 51.8719 212.667 51.5625 213.286 50.8406C214.008 50.1187 214.317 49.0875 214.317 47.7469V47.5406L210.915 48.1594C209.369 48.4688 208.544 49.0875 208.544 50.2219C208.544 50.8406 208.75 51.2531 209.162 51.4594C209.575 51.6656 210.09 51.8719 210.709 51.8719Z" fill="black"/>
<path d="M220.089 40.2185H222.254V36.4028H225.862V40.2185H228.955V43.106H225.862V49.4997C225.862 50.2216 226.068 50.7372 226.378 51.0466C226.687 51.356 227.099 51.4591 227.718 51.4591C228.027 51.4591 228.233 51.4591 228.439 51.356C228.646 51.356 228.749 51.2528 228.955 51.2528L229.264 54.2435C228.955 54.3466 228.542 54.4497 228.13 54.5528C227.718 54.656 227.305 54.656 226.893 54.656C226.275 54.656 225.759 54.5528 225.141 54.4497C224.625 54.3466 224.11 54.0372 223.697 53.7278C223.285 53.4185 222.976 52.9028 222.667 52.3872C222.357 51.8716 222.357 51.0466 222.357 50.2216V43.106H220.192V40.2185H220.089Z" fill="black"/>
<path d="M231.223 34.4436H235.14V38.1561H233.181H231.223V34.4436ZM231.429 40.2186H235.037V42.0749V54.3467H231.429V40.2186Z" fill="black"/>
<path d="M245.861 54.3469H242.459L236.893 40.2188H240.707L244.315 49.8094L247.923 40.2188H251.737L245.861 54.3469Z" fill="black"/>
<path d="M255.551 48.1597C255.654 49.1909 256.067 50.119 256.788 50.7378C257.51 51.3565 258.335 51.6659 259.468 51.6659C260.499 51.6659 261.221 51.4597 261.839 50.944C262.458 50.4284 262.973 49.8097 263.386 49.0878L266.066 50.6347C265.448 51.9753 264.52 53.0065 263.489 53.7284C262.458 54.4503 261.118 54.7597 259.468 54.7597C258.438 54.7597 257.51 54.5534 256.685 54.244C255.86 53.9347 255.036 53.419 254.417 52.6972C253.799 52.0784 253.18 51.2534 252.871 50.3253C252.562 49.3972 252.252 48.3659 252.252 47.3347C252.252 46.3034 252.459 45.169 252.871 44.344C253.283 43.519 253.799 42.694 254.417 41.9722C255.139 41.3534 255.86 40.8378 256.788 40.4253C257.716 40.1159 258.644 39.9097 259.675 39.9097C260.706 39.9097 261.633 40.1159 262.458 40.4253C263.283 40.7347 264.004 41.2503 264.623 41.869C265.241 42.4878 265.654 43.2097 266.066 44.1378C266.478 45.0659 266.581 45.994 266.581 46.9222V48.1597H255.551ZM259.365 42.5909C258.438 42.5909 257.613 42.9003 256.891 43.4159C256.17 44.0347 255.757 44.6534 255.448 45.4784H262.973C262.767 44.5503 262.355 43.8284 261.736 43.3128C261.221 42.9003 260.396 42.5909 259.365 42.5909Z" fill="black"/>
</g>
</g>
<defs>
<clipPath id="clip0_4061_4475">
<rect width="334" height="66" fill="white"/>
</clipPath>
</defs>
</svg>
