<svg width="260" height="87" viewBox="0 0 260 87" fill="none" xmlns="http://www.w3.org/2000/svg">
<path d="M151.423 59.0574H149.096C148.821 59.0574 148.595 58.9883 148.418 58.8499C148.241 58.6918 148.104 58.4942 148.005 58.2571L143.085 46.0736H122.607L117.716 58.2571C117.637 58.4745 117.5 58.6622 117.303 58.8203C117.107 58.9784 116.871 59.0574 116.596 59.0574H114.298L131.358 17.1118H134.363L151.423 59.0574ZM123.52 43.8207H142.201L133.686 22.6255C133.548 22.2896 133.411 21.9141 133.273 21.4991C133.136 21.0643 132.998 20.6098 132.861 20.1355C132.723 20.6098 132.586 21.0643 132.448 21.4991C132.311 21.9141 132.173 22.2994 132.036 22.6552L123.52 43.8207Z" fill="#3C4A63"/>
<path d="M166.275 29.0582C167.552 29.0582 168.731 29.2163 169.811 29.5325C170.911 29.8487 171.893 30.2933 172.757 30.8664H180.271V31.8447C180.271 32.3387 179.996 32.6055 179.446 32.645L174.997 32.9711C175.547 33.7221 175.969 34.5719 176.264 35.5205C176.558 36.4493 176.706 37.4473 176.706 38.5145C176.706 39.9374 176.45 41.2318 175.94 42.3978C175.429 43.544 174.712 44.5321 173.789 45.3621C172.885 46.1724 171.795 46.8048 170.518 47.2593C169.241 47.7138 167.827 47.9411 166.275 47.9411C164.586 47.9411 163.054 47.6842 161.679 47.1704C160.854 47.6447 160.206 48.2079 159.734 48.8601C159.263 49.5122 159.027 50.1446 159.027 50.7572C159.027 51.607 159.322 52.2592 159.911 52.7137C160.5 53.1683 161.276 53.5042 162.239 53.7216C163.221 53.9192 164.331 54.0477 165.568 54.107C166.825 54.1663 168.092 54.2354 169.369 54.3145C170.665 54.3738 171.932 54.4923 173.17 54.6702C174.427 54.8481 175.537 55.1643 176.499 55.6188C177.482 56.0536 178.267 56.6761 178.857 57.4863C179.446 58.2768 179.741 59.3341 179.741 60.6582C179.741 61.8835 179.436 63.0593 178.827 64.1858C178.218 65.3122 177.334 66.3102 176.175 67.1798C175.036 68.0493 173.651 68.741 172.021 69.2548C170.39 69.7884 168.564 70.0552 166.54 70.0552C164.478 70.0552 162.671 69.8378 161.119 69.403C159.567 68.988 158.261 68.4149 157.2 67.6837C156.159 66.9723 155.373 66.1422 154.843 65.1937C154.313 64.2451 154.047 63.2372 154.047 62.17C154.047 60.6088 154.558 59.2649 155.58 58.1385C156.601 57.012 158.005 56.1425 159.793 55.5299C158.811 55.1939 158.025 54.7097 157.436 54.0773C156.866 53.4449 156.581 52.5655 156.581 51.439C156.581 51.024 156.66 50.5893 156.817 50.1347C156.974 49.6802 157.21 49.2355 157.524 48.8008C157.839 48.3462 158.212 47.9213 158.644 47.5261C159.096 47.1309 159.616 46.7751 160.206 46.4589C158.811 45.6487 157.721 44.5716 156.935 43.2278C156.169 41.8839 155.786 40.3128 155.786 38.5145C155.786 37.0916 156.031 35.807 156.522 34.6608C157.033 33.4948 157.74 32.4968 158.644 31.6668C159.567 30.8368 160.677 30.1945 161.973 29.74C163.27 29.2854 164.704 29.0582 166.275 29.0582ZM177.148 61.0436C177.148 60.1147 176.902 59.3736 176.411 58.8203C175.94 58.2472 175.301 57.8025 174.496 57.4863C173.69 57.1701 172.757 56.9527 171.697 56.8342C170.656 56.6958 169.556 56.597 168.397 56.5377C167.257 56.4785 166.108 56.4192 164.949 56.3599C163.79 56.3006 162.71 56.182 161.708 56.0042C160.962 56.3006 160.264 56.6464 159.616 57.0417C158.988 57.4172 158.447 57.8519 157.996 58.346C157.544 58.8203 157.19 59.344 156.935 59.9171C156.68 60.51 156.552 61.1522 156.552 61.8439C156.552 62.7135 156.768 63.5138 157.2 64.2451C157.652 64.996 158.3 65.6383 159.145 66.1719C160.009 66.7252 161.06 67.16 162.297 67.4762C163.535 67.7924 164.959 67.9505 166.57 67.9505C168.063 67.9505 169.448 67.7825 170.724 67.4466C172.021 67.1106 173.14 66.6363 174.083 66.0237C175.046 65.411 175.792 64.6798 176.323 63.8301C176.873 62.9803 177.148 62.0514 177.148 61.0436ZM166.275 46.0143C167.532 46.0143 168.652 45.8364 169.634 45.4807C170.616 45.1052 171.441 44.5914 172.109 43.9392C172.777 43.2871 173.278 42.5065 173.612 41.5974C173.965 40.6883 174.142 39.6804 174.142 38.5737C174.142 37.4671 173.965 36.4592 173.612 35.5501C173.258 34.6213 172.738 33.8308 172.05 33.1786C171.382 32.5265 170.557 32.0225 169.575 31.6668C168.613 31.3111 167.513 31.1332 166.275 31.1332C165.038 31.1332 163.928 31.3111 162.946 31.6668C161.964 32.0225 161.129 32.5265 160.441 33.1786C159.773 33.8308 159.263 34.6213 158.909 35.5501C158.555 36.4592 158.379 37.4671 158.379 38.5737C158.379 39.6804 158.555 40.6883 158.909 41.5974C159.263 42.5065 159.773 43.2871 160.441 43.9392C161.129 44.5914 161.964 45.1052 162.946 45.4807C163.928 45.8364 165.038 46.0143 166.275 46.0143Z" fill="#3C4A63"/>
<path d="M197.53 29.0878C199.632 29.0878 201.508 29.4534 203.158 30.1846C204.828 30.8961 206.232 31.9138 207.371 33.2379C208.511 34.562 209.375 36.1627 209.964 38.0402C210.573 39.8978 210.878 41.9828 210.878 44.295C210.878 46.6071 210.573 48.6921 209.964 50.5497C209.375 52.4074 208.511 53.9983 207.371 55.3223C206.232 56.6464 204.828 57.6642 203.158 58.3756C201.508 59.0871 199.632 59.4428 197.53 59.4428C195.428 59.4428 193.543 59.0871 191.873 58.3756C190.223 57.6642 188.819 56.6464 187.66 55.3223C186.52 53.9983 185.646 52.4074 185.037 50.5497C184.448 48.6921 184.153 46.6071 184.153 44.295C184.153 41.9828 184.448 39.8978 185.037 38.0402C185.646 36.1627 186.52 34.562 187.66 33.2379C188.819 31.9138 190.223 30.8961 191.873 30.1846C193.543 29.4534 195.428 29.0878 197.53 29.0878ZM197.53 57.2195C199.278 57.2195 200.801 56.9231 202.097 56.3302C203.413 55.7176 204.504 54.8481 205.368 53.7216C206.252 52.5951 206.91 51.2414 207.342 49.6604C207.774 48.0597 207.99 46.2712 207.99 44.295C207.99 42.3385 207.774 40.5599 207.342 38.9591C206.91 37.3584 206.252 35.9948 205.368 34.8683C204.504 33.7221 203.413 32.8427 202.097 32.23C200.801 31.6174 199.278 31.3111 197.53 31.3111C195.782 31.3111 194.25 31.6174 192.934 32.23C191.637 32.8427 190.547 33.7221 189.663 34.8683C188.799 35.9948 188.141 37.3584 187.689 38.9591C187.257 40.5599 187.041 42.3385 187.041 44.295C187.041 46.2712 187.257 48.0597 187.689 49.6604C188.141 51.2414 188.799 52.5951 189.663 53.7216C190.547 54.8481 191.637 55.7176 192.934 56.3302C194.25 56.9231 195.782 57.2195 197.53 57.2195Z" fill="#3C4A63"/>
<path d="M218.245 59.0574V29.5621H219.718C220.052 29.5621 220.288 29.6313 220.425 29.7696C220.582 29.9079 220.671 30.1451 220.69 30.4811L220.926 36.7062C221.869 34.315 223.126 32.4474 224.697 31.1036C226.269 29.74 228.204 29.0582 230.502 29.0582C231.386 29.0582 232.201 29.157 232.948 29.3546C233.694 29.5325 234.401 29.7993 235.069 30.155L234.686 32.1115C234.627 32.4276 234.431 32.5857 234.097 32.5857C233.979 32.5857 233.812 32.5462 233.596 32.4672C233.38 32.3881 233.105 32.2992 232.771 32.2004C232.456 32.1016 232.064 32.0126 231.592 31.9336C231.121 31.8545 230.581 31.815 229.972 31.815C227.752 31.815 225.925 32.5067 224.491 33.8901C223.077 35.2734 221.928 37.2694 221.044 39.8781V59.0574H218.245Z" fill="#3C4A63"/>
<path d="M258.881 59.0574C258.291 59.0574 257.928 58.7808 257.79 58.2274L257.378 54.4627C256.572 55.2532 255.767 55.9646 254.962 56.597C254.176 57.2294 253.351 57.763 252.487 58.1978C251.622 58.6326 250.689 58.9586 249.688 59.176C248.686 59.4132 247.586 59.5317 246.388 59.5317C245.386 59.5317 244.413 59.3835 243.471 59.0871C242.528 58.7906 241.693 58.3361 240.966 57.7235C240.239 57.1108 239.65 56.3302 239.198 55.3816C238.766 54.4133 238.55 53.2572 238.55 51.9133C238.55 50.6683 238.904 49.5122 239.611 48.445C240.318 47.3779 241.418 46.449 242.911 45.6586C244.423 44.8681 246.358 44.2357 248.715 43.7614C251.092 43.2871 253.94 43.0104 257.26 42.9313V39.8484C257.26 37.1212 256.671 35.0264 255.492 33.564C254.333 32.0818 252.605 31.3407 250.306 31.3407C248.892 31.3407 247.684 31.5383 246.682 31.9336C245.7 32.3288 244.865 32.7636 244.178 33.2379C243.49 33.7122 242.93 34.147 242.498 34.5422C242.066 34.9375 241.703 35.1351 241.408 35.1351C241.015 35.1351 240.721 34.9572 240.524 34.6015L240.023 33.7418C241.555 32.2004 243.166 31.0344 244.855 30.2439C246.545 29.4534 248.46 29.0582 250.601 29.0582C252.172 29.0582 253.547 29.3151 254.726 29.8289C255.905 30.323 256.877 31.0443 257.643 31.9929C258.429 32.9217 259.018 34.058 259.411 35.4019C259.804 36.726 260 38.2081 260 39.8484V59.0574H258.881ZM247.095 57.4863C248.234 57.4863 249.275 57.3678 250.218 57.1306C251.18 56.8737 252.064 56.5279 252.87 56.0931C253.695 55.6385 254.461 55.105 255.168 54.4923C255.875 53.8797 256.572 53.2177 257.26 52.5062V44.8285C254.471 44.9076 252.064 45.125 250.041 45.4807C248.038 45.8167 246.378 46.2811 245.062 46.8739C243.765 47.4668 242.803 48.1783 242.174 49.0083C241.565 49.8185 241.261 50.7474 241.261 51.7948C241.261 52.7829 241.418 53.6426 241.732 54.3738C242.066 55.0852 242.498 55.6781 243.029 56.1524C243.559 56.6069 244.178 56.9429 244.885 57.1603C245.592 57.3776 246.329 57.4863 247.095 57.4863Z" fill="#3C4A63"/>
<path d="M21.2601 35.8036L7.92997 59.4709L18.1951 77.8239L7.92959 59.4724L0.87575 46.8616C0.859741 46.8328 0.844114 46.8041 0.828486 46.7753C0.809046 46.7396 0.789988 46.704 0.771311 46.6679C0.77093 46.6672 0.77093 46.6664 0.770167 46.666C0.737006 46.6016 0.704988 46.5364 0.673733 46.4712C0.673352 46.4705 0.67297 46.4697 0.672589 46.4693C0.576155 46.2669 0.48963 46.0606 0.413016 45.8505C0.391671 45.7907 0.370707 45.7305 0.350886 45.6699C0.1199 44.9736 0.000976562 44.2412 0.000976562 43.5016C0.000976562 42.3245 0.302097 41.1673 0.87575 40.1416L12.2779 19.7576V19.7568C12.3923 20.026 12.5215 20.2886 12.6648 20.5429L21.2601 35.8013L21.2608 35.8024L21.2601 35.8036Z" fill="#42C7BB"/>
<path d="M32.3411 55.4747L32.3404 55.4762L21.6567 74.5961C20.8669 76.0105 19.6563 77.1401 18.1961 77.8253L18.1953 77.8238L7.93018 59.4707L21.2603 35.8034L21.261 35.8022L32.34 55.4727L32.3411 55.4747Z" fill="#B2A4D1"/>
<path d="M59.7963 65.2485V65.2493L49.3287 83.85C48.7844 84.8174 48.4524 85.8918 48.356 86.9999H27.2947C26.8434 86.9999 26.3951 86.9546 25.956 86.8657C25.8646 86.8472 25.7735 86.8265 25.6827 86.8043C25.6431 86.7943 25.6035 86.7844 25.5642 86.774C25.5272 86.764 25.4903 86.7541 25.4537 86.7437C25.3801 86.7226 25.3065 86.7004 25.2337 86.677C25.1975 86.6655 25.1609 86.6532 25.1247 86.641C25.0702 86.6226 25.0165 86.6034 24.9623 86.5834C24.9353 86.5735 24.9082 86.5631 24.8815 86.5532C24.7943 86.5198 24.7077 86.4841 24.622 86.4473C24.3647 86.3361 24.1135 86.2085 23.8699 86.0654C22.8305 85.4535 21.9713 84.5743 21.3805 83.5176L18.1963 77.8252C19.6565 77.1401 20.8671 76.0105 21.6569 74.596L32.3406 55.4761L32.3413 55.4746L35.6308 61.3142C36.3032 62.5086 37.2778 63.502 38.4552 64.1933C39.6326 64.8843 40.9709 65.2485 42.3332 65.2485H59.7963Z" fill="#B2A4D1"/>
<path d="M42.8409 28.6458H29.7784C28.4157 28.6458 27.0774 29.0101 25.9 29.701C24.7226 30.3923 23.748 31.3858 23.076 32.5802L21.2609 35.8025L21.2601 35.8013L12.6648 20.5429C12.5215 20.2887 12.3923 20.026 12.2783 19.7569L21.3809 3.48392C21.9344 2.49468 22.7234 1.65958 23.6771 1.05415C24.6307 0.449105 25.719 0.0925198 26.8434 0.0166016L42.8409 28.6458Z" fill="#1E9C96"/>
<path d="M43.9493 32.665C43.9497 34.0004 43.6082 35.3129 42.9583 36.4766L32.3413 55.4746L32.3402 55.4726L21.2612 35.8021L23.0763 32.5798C23.7483 31.3855 24.723 30.392 25.9004 29.7007C27.0778 29.0098 28.4161 28.6455 29.7787 28.6455H42.8413L42.8428 28.6486L42.9571 28.8537C43.6074 30.017 43.9489 31.3299 43.9493 32.665Z" fill="#5081A7"/>
<path d="M86.7496 48.1611L73.9005 48.1622C72.5374 48.1619 71.1988 48.5261 70.0214 49.2171C68.8436 49.9084 67.8686 50.9018 67.1962 52.0966L59.7962 65.2485H42.3332C40.9709 65.2485 39.6326 64.8842 38.4552 64.1933C37.2778 63.5019 36.3031 62.5085 35.6308 61.3141L32.3413 55.4746L42.9583 36.4766C43.6082 35.3129 43.9497 34.0004 43.9493 32.665C43.9489 31.3299 43.6074 30.017 42.9571 28.8537L42.8428 28.6486L42.8413 28.6455H71.2705C72.6331 28.6455 73.9714 29.0098 75.1488 29.7007C76.3266 30.392 77.3009 31.3855 77.9732 32.5798L86.7492 48.1603V48.1611H86.7496Z" fill="#5081A7"/>
<path d="M95.2907 43.5C95.2903 44.6771 94.9892 45.8343 94.4156 46.86L93.6879 48.1598V48.1605L86.7496 48.1613V48.1605L77.9733 32.58C77.3009 31.3857 76.3266 30.3922 75.1488 29.7009C73.9714 29.01 72.6331 28.6457 71.2705 28.6457H42.8413L26.8438 0.0164873C25.7193 0.0924055 24.6311 0.448991 23.6774 1.05404C22.7238 1.65947 21.9348 2.49457 21.3813 3.4838L12.2787 19.7568C12.2787 19.7568 12.2783 19.756 12.2783 19.7556L21.3813 3.48227C21.9348 2.49303 22.7238 1.65793 23.6774 1.0525C23.735 1.01608 23.7929 0.980419 23.8513 0.945911C23.8806 0.928273 23.9096 0.911402 23.9393 0.894532C23.9687 0.877661 23.998 0.86079 24.0277 0.844686C24.0575 0.828199 24.0872 0.812095 24.1173 0.795991C24.147 0.780271 24.1771 0.76455 24.2073 0.74883C24.4119 0.643388 24.6216 0.548682 24.8354 0.465095C24.8652 0.453209 24.8949 0.441706 24.925 0.430587C24.9486 0.421385 24.9726 0.412566 24.9963 0.40413C25.0439 0.386876 25.0916 0.370006 25.1396 0.353902C25.1789 0.340865 25.2185 0.327829 25.2581 0.315176C25.3374 0.28987 25.4167 0.266481 25.4967 0.244242C25.5646 0.225454 25.6324 0.207817 25.7007 0.191329C25.7517 0.178676 25.8028 0.167173 25.8543 0.155671C25.9057 0.144551 25.9568 0.134199 26.0086 0.123846C26.2838 0.0705503 26.5625 0.0337414 26.8438 0.0149536C26.9936 0.00498453 27.1441 0 27.2955 0H67.9982C68.4491 0 68.897 0.0452442 69.3357 0.134199C69.5186 0.171008 69.7001 0.215869 69.8792 0.268014H69.88C69.9806 0.297538 70.0809 0.328979 70.1803 0.363104C70.2409 0.383809 70.3012 0.405281 70.361 0.427903C70.393 0.440172 70.4254 0.452059 70.4571 0.464712C70.4597 0.465478 70.4624 0.466629 70.4651 0.467779C70.4868 0.476214 70.5078 0.48465 70.5291 0.493469C70.6515 0.54293 70.7727 0.595843 70.892 0.65259C70.9305 0.670995 70.969 0.689782 71.0071 0.708954C71.0456 0.728125 71.0837 0.74768 71.1218 0.767618C71.1725 0.794074 71.2228 0.821297 71.2728 0.848904C71.2979 0.862707 71.3231 0.876894 71.3482 0.891081C71.3726 0.905651 71.3974 0.919838 71.4218 0.934408C72.4612 1.54635 73.3204 2.42555 73.9112 3.48227L94.4156 40.14C94.9888 41.1657 95.2904 42.3229 95.2904 43.5H95.2907Z" fill="#73C8CC"/>
<path d="M84.1291 65.2485L73.9112 83.5176C73.32 84.5743 72.4608 85.4535 71.4214 86.0655C71.368 86.0969 71.3139 86.1276 71.2598 86.1579C71.2571 86.159 71.2544 86.1606 71.2518 86.1621C71.251 86.1629 71.2506 86.1629 71.2499 86.1632C71.2491 86.1636 71.248 86.164 71.2472 86.1644C71.1904 86.1958 71.1329 86.2265 71.0753 86.2557C71.0696 86.2591 71.0639 86.2622 71.0581 86.2649C71.0509 86.2691 71.0437 86.2725 71.0364 86.276C71.0349 86.2767 71.033 86.2775 71.0315 86.2783C71.017 86.2859 71.0025 86.2932 70.9876 86.3001C70.9834 86.3028 70.9789 86.3051 70.9747 86.3066C70.9617 86.3135 70.9484 86.3201 70.9354 86.3258C70.9335 86.327 70.932 86.3281 70.9301 86.3285C70.9247 86.3308 70.9194 86.3331 70.9141 86.3362C70.9091 86.3389 70.9042 86.3411 70.8992 86.3431C70.8489 86.3672 70.7982 86.3902 70.7475 86.4132C70.7117 86.429 70.6755 86.4447 70.6392 86.4604C70.6354 86.4619 70.6312 86.4639 70.6274 86.4654C70.6236 86.4669 70.6198 86.4684 70.6164 86.47C70.5908 86.4807 70.5653 86.4915 70.5398 86.5018C70.5096 86.5141 70.4792 86.526 70.4487 86.5382C70.4399 86.5421 70.4315 86.5451 70.4231 86.5482C70.401 86.5563 70.3793 86.5647 70.3572 86.5731C70.329 86.5835 70.3012 86.5938 70.2729 86.6038C70.2516 86.6118 70.2299 86.6195 70.2081 86.6268C70.1956 86.6314 70.183 86.6356 70.1704 86.6398C70.1693 86.6406 70.1681 86.641 70.1666 86.6414C70.1422 86.6498 70.1178 86.6579 70.093 86.6659C70.0576 86.6774 70.0221 86.6889 69.9863 86.6997C69.9242 86.7192 69.8617 86.7372 69.7992 86.7541C69.774 86.7614 69.7488 86.7683 69.7237 86.7748C69.6943 86.7829 69.665 86.7905 69.6356 86.7978C69.6086 86.8043 69.5815 86.8112 69.5544 86.8174C69.5217 86.8254 69.4893 86.8327 69.4565 86.84C69.4527 86.8408 69.4489 86.8415 69.4454 86.8423C69.4233 86.8473 69.4008 86.8523 69.3787 86.8565C69.3749 86.8576 69.3711 86.8584 69.3673 86.8592C69.3658 86.8595 69.3642 86.8599 69.3627 86.8599C69.3597 86.8607 69.3566 86.8615 69.3532 86.8618C69.3429 86.8641 69.333 86.8664 69.3227 86.8684C69.2907 86.8749 69.2583 86.881 69.2259 86.8868C69.2259 86.8872 69.2251 86.8872 69.2247 86.8872C69.2023 86.8914 69.1801 86.8952 69.1577 86.899C69.139 86.9025 69.1203 86.9056 69.1016 86.9086C69.0418 86.9186 68.9819 86.9278 68.9217 86.9362C68.9126 86.9374 68.903 86.9385 68.8939 86.9401C68.8832 86.9416 68.8722 86.9427 68.8615 86.9439C68.8516 86.9454 68.8417 86.9466 68.8314 86.9481C68.8154 86.95 68.799 86.952 68.7826 86.9539C68.7468 86.9581 68.7109 86.9619 68.6747 86.9657C68.6057 86.9726 68.536 86.9788 68.4666 86.9834C68.4506 86.9845 68.4346 86.9857 68.419 86.9865C68.3725 86.9895 68.326 86.9918 68.2794 86.9937C68.2791 86.9941 68.2787 86.9941 68.2779 86.9937C68.2596 86.9949 68.241 86.9957 68.2223 86.996C68.1948 86.9972 68.167 86.998 68.1392 86.9983H68.1377C68.122 86.9987 68.106 86.9991 68.0908 86.9991C68.0595 86.9995 68.0283 86.9999 67.997 86.9999H48.356C48.4524 85.8918 48.7844 84.8174 49.3287 83.85L59.7959 65.2493V65.2485H84.1291Z" fill="#8C8AD1"/>
<path d="M90.2293 54.3427V54.3435L84.1287 65.2485H59.7959L67.1958 52.0966C67.8682 50.9019 68.8432 49.9084 70.021 49.2171C71.1985 48.5262 72.5371 48.1619 73.9001 48.1623L86.7492 48.1611L90.2293 54.3427Z" fill="#3F6CA7"/>
<path d="M93.6875 48.1606L90.2296 54.343L86.7495 48.1614L93.6875 48.1606Z" fill="#5AA8CC"/>
</svg>
