<svg width="260" height="90" viewBox="0 0 260 90" fill="none" xmlns="http://www.w3.org/2000/svg">
<path d="M20.9317 37.0381L7.80748 61.5215L17.9141 80.5074L7.80711 61.5231L0.862236 48.4774C0.846475 48.4476 0.831088 48.4179 0.815702 48.3881C0.796563 48.3512 0.777799 48.3143 0.759411 48.2771C0.759035 48.2763 0.759035 48.2755 0.758285 48.2751C0.725636 48.2084 0.694112 48.141 0.66334 48.0736C0.662965 48.0728 0.662589 48.072 0.662214 48.0716C0.567269 47.8622 0.482081 47.6488 0.406651 47.4314C0.385635 47.3695 0.364995 47.3073 0.345481 47.2446C0.118063 46.5243 0.000976562 45.7667 0.000976562 45.0015C0.000976562 43.7838 0.297445 42.5868 0.862236 41.5257L12.0883 20.4388V20.438C12.2008 20.7164 12.3281 20.9881 12.4692 21.2511L20.9317 37.0357L20.9324 37.0369L20.9317 37.0381Z" fill="#42C7BB"/>
<path d="M31.8415 57.3879L31.8407 57.3895L21.3221 77.1687C20.5445 78.6319 19.3526 79.8004 17.9149 80.5092L17.9142 80.5076L7.80762 61.5217L20.9318 37.0383L20.9325 37.0371L31.8403 57.3859L31.8415 57.3879Z" fill="#2E8199"/>
<path d="M58.8724 67.4986V67.4994L48.5665 86.7416C48.0306 87.7423 47.7037 88.8537 47.6088 90H26.8729C26.4286 90 25.9872 89.9532 25.5549 89.8612C25.4649 89.8421 25.3752 89.8207 25.2858 89.7977C25.2468 89.7874 25.2078 89.7771 25.1691 89.7664C25.1327 89.7561 25.0963 89.7458 25.0603 89.7351C24.9879 89.7132 24.9154 89.6902 24.8438 89.666C24.8081 89.6541 24.7721 89.6414 24.7364 89.6287C24.6828 89.6097 24.6299 89.5899 24.5766 89.5693C24.5499 89.5589 24.5233 89.5482 24.497 89.5379C24.4111 89.5034 24.3259 89.4665 24.2415 89.4285C23.9881 89.3134 23.7408 89.1813 23.501 89.0334C22.4777 88.4003 21.6318 87.4908 21.0501 86.3977L17.915 80.509C19.3527 79.8002 20.5446 78.6317 21.3222 77.1685L31.8408 57.3893L31.8416 57.3877L35.0802 63.4286C35.7422 64.6642 36.7018 65.6919 37.861 66.4071C39.0202 67.1218 40.3378 67.4986 41.6791 67.4986H58.8724Z" fill="#B2A5D1"/>
<path d="M42.1793 29.6335H29.3186C27.977 29.6335 26.6594 30.0103 25.5001 30.7251C24.3409 31.4403 23.3813 32.468 22.7197 33.7035L20.9326 37.0369L20.9319 37.0358L12.4694 21.2512C12.3283 20.9882 12.2011 20.7165 12.0889 20.4381L21.0508 3.60397C21.5958 2.58062 22.3726 1.71672 23.3115 1.09042C24.2505 0.464508 25.3219 0.095626 26.4289 0.0170898L42.1793 29.6335Z" fill="#1E9C96"/>
<path d="M43.2702 33.7914C43.2706 35.1729 42.9343 36.5306 42.2945 37.7344L31.8415 57.3875L31.8404 57.3855L20.9326 37.0367L22.7197 33.7033C23.3813 32.4677 24.3409 31.44 25.5001 30.7249C26.6593 30.0101 27.9769 29.6333 29.3186 29.6333H42.1793L42.1808 29.6365L42.2934 29.8487C42.9336 31.0521 43.2698 32.4102 43.2702 33.7914Z" fill="#15657A"/>
<path d="M85.409 49.8218L72.7585 49.823C71.4165 49.8226 70.0985 50.1995 68.9393 50.9142C67.7797 51.6294 66.8197 52.6571 66.1577 53.893L58.8721 67.4984H41.6788C40.3376 67.4984 39.02 67.1216 37.8607 66.4068C36.7015 65.6917 35.7419 64.664 35.0799 63.4284L31.8413 57.3875L42.2943 37.7344C42.9341 36.5306 43.2704 35.1729 43.27 33.7914C43.2696 32.4102 42.9334 31.0521 42.2931 29.8487L42.1806 29.6365L42.1791 29.6333H70.1691C71.5107 29.6333 72.8283 30.0101 73.9875 30.7249C75.1471 31.44 76.1063 32.4677 76.7683 33.7033L85.4087 49.8211V49.8218H85.409Z" fill="#5081A7"/>
<path d="M93.8184 45C93.818 46.2177 93.5215 47.4148 92.9567 48.4758L92.2403 49.8204V49.8212L85.4092 49.822V49.8212L76.7684 33.7035C76.1064 32.4679 75.1472 31.4402 73.9876 30.7251C72.8284 30.0103 71.5108 29.6335 70.1692 29.6335H42.1792L26.4288 0.0170558C25.3218 0.0955919 24.2503 0.464474 23.3114 1.09038C22.3725 1.71669 21.5956 2.58059 21.0507 3.60393L12.0888 20.438C12.0888 20.438 12.0884 20.4372 12.0884 20.4368L21.0507 3.60235C21.5956 2.579 22.3725 1.7151 23.3114 1.0888C23.3681 1.05111 23.4251 1.01423 23.4825 0.978528C23.5114 0.960282 23.5399 0.94283 23.5692 0.925377C23.5981 0.907925 23.627 0.890472 23.6563 0.873813C23.6856 0.856757 23.7148 0.840098 23.7445 0.823439C23.7737 0.807177 23.8034 0.790914 23.833 0.774652C24.0346 0.665574 24.241 0.567602 24.4515 0.481133C24.4808 0.468837 24.51 0.456937 24.5397 0.445435C24.5629 0.435915 24.5866 0.426792 24.6099 0.418066C24.6568 0.400217 24.7037 0.382764 24.751 0.366105C24.7896 0.352619 24.8286 0.339133 24.8677 0.326044C24.9457 0.299865 25.0238 0.27567 25.1026 0.252664C25.1694 0.233228 25.2362 0.214983 25.3034 0.197927C25.3537 0.184837 25.4039 0.172938 25.4546 0.161039C25.5053 0.149536 25.5556 0.138826 25.6066 0.128117C25.8775 0.072983 26.1519 0.0349049 26.4288 0.0154692C26.5763 0.00515641 26.7245 0 26.8735 0H66.9474C67.3914 0 67.8323 0.0468043 68.2643 0.138826C68.4444 0.176905 68.6231 0.223312 68.7994 0.277256H68.8002C68.8993 0.307798 68.998 0.340323 69.0959 0.375625C69.1556 0.397044 69.2149 0.419256 69.2738 0.442658C69.3053 0.455351 69.3372 0.467647 69.3683 0.480736C69.371 0.481529 69.3736 0.482719 69.3762 0.483909C69.3976 0.492636 69.4183 0.501362 69.4393 0.510485C69.5597 0.561652 69.6791 0.616389 69.7965 0.675093C69.8344 0.694132 69.8723 0.713568 69.9099 0.7334C69.9478 0.753233 69.9853 0.773462 70.0228 0.794087C70.0727 0.821456 70.1223 0.849618 70.1714 0.878176C70.1962 0.892456 70.221 0.907132 70.2457 0.921808C70.2698 0.93688 70.2942 0.951556 70.3182 0.966629C71.3416 1.59968 72.1874 2.50919 72.7691 3.60235L92.9567 41.5242C93.5211 42.5852 93.818 43.7823 93.818 45H93.8184Z" fill="#73C8CC"/>
<path d="M82.8293 67.4985L72.7693 86.3976C72.1873 87.4907 71.3414 88.4002 70.318 89.0333C70.2655 89.0658 70.2122 89.0976 70.1589 89.1289C70.1563 89.1301 70.1536 89.1317 70.151 89.1332C70.1503 89.134 70.1499 89.134 70.1491 89.1344C70.1484 89.1348 70.1472 89.1352 70.1465 89.1356C70.0906 89.1682 70.0339 89.1999 69.9772 89.23C69.9716 89.2336 69.966 89.2368 69.9604 89.2396C69.9532 89.2439 69.9461 89.2475 69.939 89.2511C69.9375 89.2518 69.9356 89.2526 69.9341 89.2534C69.9198 89.2614 69.9056 89.2689 69.8909 89.276C69.8868 89.2788 69.8823 89.2812 69.8782 89.2828C69.8654 89.2899 69.8523 89.2967 69.8395 89.3026C69.8376 89.3038 69.8361 89.305 69.8343 89.3054C69.829 89.3078 69.8238 89.3102 69.8185 89.3133C69.8136 89.3161 69.8088 89.3185 69.8039 89.3205C69.7543 89.3455 69.7044 89.3693 69.6545 89.3931C69.6192 89.4093 69.5836 89.4256 69.5479 89.4418C69.5442 89.4434 69.5401 89.4454 69.5363 89.447C69.5325 89.4486 69.5288 89.4502 69.5254 89.4518C69.5003 89.4629 69.4751 89.474 69.45 89.4847C69.4203 89.4974 69.3903 89.5097 69.3603 89.5224C69.3517 89.5263 69.3434 89.5295 69.3351 89.5327C69.3134 89.541 69.292 89.5497 69.2702 89.5585C69.2425 89.5692 69.2151 89.5799 69.1873 89.5902C69.1663 89.5985 69.1449 89.6065 69.1235 89.614C69.1111 89.6187 69.0987 89.6231 69.0863 89.6275C69.0852 89.6283 69.0841 89.6287 69.0826 89.6291C69.0586 89.6378 69.0346 89.6461 69.0102 89.6544C68.9753 89.6663 68.9404 89.6782 68.9051 89.6893C68.8439 89.7096 68.7824 89.7282 68.7208 89.7457C68.6961 89.7532 68.6713 89.7603 68.6465 89.7671C68.6176 89.7754 68.5887 89.7834 68.5598 89.7909C68.5332 89.7976 68.5065 89.8048 68.4799 89.8111C68.4476 89.8195 68.4157 89.827 68.3834 89.8345C68.3797 89.8353 68.3759 89.8361 68.3726 89.8369C68.3508 89.8421 68.3287 89.8472 68.3069 89.8516C68.3031 89.8528 68.2994 89.8536 68.2956 89.8544C68.2941 89.8548 68.2926 89.8552 68.2911 89.8552C68.2881 89.8559 68.2851 89.8567 68.2817 89.8571C68.2716 89.8595 68.2619 89.8619 68.2517 89.8639C68.2202 89.8706 68.1883 89.877 68.1564 89.8829C68.1564 89.8833 68.1557 89.8833 68.1553 89.8833C68.1331 89.8877 68.1114 89.8916 68.0892 89.8956C68.0708 89.8992 68.0525 89.9023 68.0341 89.9055C67.9751 89.9158 67.9162 89.9254 67.8569 89.9341C67.8479 89.9353 67.8385 89.9365 67.8295 89.938C67.819 89.9396 67.8081 89.9408 67.7976 89.942C67.7879 89.9436 67.7781 89.9448 67.768 89.9464C67.7522 89.9484 67.7361 89.9503 67.72 89.9523C67.6847 89.9567 67.6494 89.9607 67.6138 89.9646C67.5458 89.9718 67.4772 89.9781 67.4089 89.9829C67.3931 89.9841 67.3773 89.9852 67.3619 89.986C67.3162 89.9892 67.2704 89.9916 67.2246 89.9936C67.2242 89.994 67.2238 89.994 67.2231 89.9936C67.2051 89.9948 67.1867 89.9956 67.1683 89.996C67.1413 89.9971 67.1139 89.9979 67.0865 89.9983H67.085C67.0696 89.9987 67.0538 89.9991 67.0388 89.9991C67.0081 89.9995 66.9773 89.9999 66.9465 89.9999H47.6089C47.7038 88.8536 48.0307 87.7422 48.5666 86.7415L58.8721 67.4993V67.4985H82.8293Z" fill="#8B8AD1"/>
<path d="M88.8353 56.217V56.2178L82.829 67.4988H58.8721L66.1577 53.8935C66.8197 52.6575 67.7796 51.6298 68.9392 50.9146C70.0985 50.1999 71.4164 49.8231 72.7584 49.8235L85.409 49.8223L88.8353 56.217Z" fill="#3E6CA7"/>
<path d="M92.24 49.8213L88.8355 56.2168L85.4092 49.8221L92.24 49.8213Z" fill="#5AA8CC"/>
<path d="M246.482 66.3201C244.173 66.3201 242.242 65.8801 240.689 65.0001C239.175 64.1201 238.039 62.9801 237.281 61.5801C236.562 60.1801 236.202 58.6401 236.202 56.9601C236.202 54.8801 236.694 53.1201 237.679 51.6801C238.701 50.2401 240.121 49.1601 241.939 48.4401C243.756 47.7201 245.877 47.3601 248.3 47.3601H256.024C256.024 45.4001 255.74 43.7401 255.172 42.3801C254.604 41.0201 253.771 40.0001 252.673 39.3201C251.575 38.6001 250.193 38.2401 248.527 38.2401C246.596 38.2401 244.93 38.7601 243.529 39.8001C242.128 40.8401 241.257 42.3601 240.916 44.3601H236.77C236.997 42.2401 237.679 40.4601 238.815 39.0201C239.989 37.5801 241.427 36.5001 243.131 35.7801C244.835 35.0201 246.634 34.6401 248.527 34.6401C251.178 34.6401 253.336 35.1801 255.002 36.2601C256.668 37.3001 257.918 38.7401 258.751 40.5801C259.584 42.4201 260 44.5401 260 46.9401V65.6001H256.365L256.138 60.0801C255.797 60.9201 255.324 61.7201 254.718 62.4801C254.15 63.2401 253.468 63.9001 252.673 64.4601C251.916 65.0201 251.026 65.4601 250.004 65.7801C248.982 66.1401 247.808 66.3201 246.482 66.3201ZM246.937 62.6601C248.338 62.6601 249.587 62.3601 250.685 61.7601C251.821 61.1201 252.787 60.3001 253.582 59.3001C254.377 58.3001 254.983 57.1801 255.4 55.9401C255.816 54.6601 256.024 53.3401 256.024 51.9801V50.9001H248.584C246.577 50.9001 244.968 51.1601 243.756 51.6801C242.544 52.2001 241.674 52.9001 241.144 53.7801C240.613 54.6601 240.348 55.6801 240.348 56.8401C240.348 58.0001 240.594 59.0201 241.087 59.9001C241.579 60.7401 242.317 61.4201 243.302 61.9401C244.324 62.4201 245.536 62.6601 246.937 62.6601Z" fill="#3C4A63"/>
<path d="M216.815 65.6001V35.3601H220.45L220.734 41.1801C221.34 39.7801 222.154 38.6001 223.177 37.6401C224.199 36.6801 225.43 35.9401 226.869 35.4201C228.307 34.9001 229.936 34.6401 231.753 34.6401V39.0201H230.22C229.008 39.0201 227.834 39.2001 226.698 39.5601C225.562 39.8801 224.559 40.4401 223.688 41.2401C222.817 42.0401 222.116 43.1201 221.586 44.4801C221.056 45.8401 220.791 47.5401 220.791 49.5801V65.6001H216.815Z" fill="#3C4A63"/>
<path d="M195.923 66.3201C193.31 66.3201 190.944 65.6801 188.823 64.4001C186.741 63.0801 185.094 61.2401 183.882 58.8801C182.67 56.4801 182.064 53.7001 182.064 50.5401C182.064 47.2601 182.67 44.4401 183.882 42.0801C185.131 39.7201 186.816 37.9001 188.937 36.6201C191.057 35.3001 193.424 34.6401 196.037 34.6401C198.763 34.6401 201.167 35.3001 203.25 36.6201C205.332 37.9001 206.979 39.7201 208.191 42.0801C209.403 44.4401 210.009 47.2601 210.009 50.5401C210.009 53.7001 209.384 56.4801 208.134 58.8801C206.923 61.2401 205.257 63.0801 203.136 64.4001C201.054 65.6801 198.649 66.3201 195.923 66.3201ZM195.98 62.7201C197.759 62.7201 199.388 62.2601 200.864 61.3401C202.379 60.4201 203.591 59.0601 204.499 57.2601C205.446 55.4201 205.919 53.1601 205.919 50.4801C205.919 47.7601 205.465 45.5001 204.556 43.7001C203.647 41.9001 202.436 40.5601 200.921 39.6801C199.444 38.7601 197.816 38.3001 196.037 38.3001C194.333 38.3001 192.723 38.7601 191.209 39.6801C189.694 40.6001 188.464 41.9601 187.517 43.7601C186.608 45.5201 186.154 47.7601 186.154 50.4801C186.154 53.1601 186.608 55.4201 187.517 57.2601C188.426 59.0601 189.618 60.4201 191.095 61.3401C192.61 62.2601 194.238 62.7201 195.98 62.7201Z" fill="#3C4A63"/>
<path d="M164.16 79.5201C161.623 79.5201 159.37 79.1601 157.401 78.4401C155.47 77.7201 153.937 76.6401 152.801 75.2001C151.703 73.7601 151.154 71.9801 151.154 69.8601C151.154 69.0201 151.286 68.1001 151.551 67.1001C151.854 66.1401 152.422 65.1601 153.255 64.1601C154.088 63.1601 155.262 62.2601 156.777 61.4601L160.014 62.9601C158.007 63.9601 156.701 65.0401 156.095 66.2001C155.489 67.4001 155.186 68.4801 155.186 69.4401C155.186 70.8801 155.565 72.0801 156.322 73.0401C157.118 74.0001 158.178 74.7201 159.503 75.2001C160.866 75.7201 162.419 75.9801 164.16 75.9801C165.902 75.9801 167.398 75.7001 168.647 75.1401C169.935 74.6201 170.919 73.8601 171.601 72.8601C172.282 71.9001 172.623 70.7801 172.623 69.5001C172.623 68.0201 172.074 66.7601 170.976 65.7201C169.916 64.7201 167.928 64.1401 165.012 63.9801C162.703 63.8201 160.79 63.6201 159.276 63.3801C157.799 63.1001 156.568 62.7801 155.584 62.4201C154.637 62.0201 153.842 61.6001 153.199 61.1601C152.593 60.7201 152.006 60.2401 151.438 59.7201V58.3401L156.89 52.8801L160.525 54.2601L155.186 59.3001L155.527 57.6801C155.944 58.0001 156.341 58.3001 156.72 58.5801C157.136 58.8601 157.667 59.1001 158.31 59.3001C158.992 59.4601 159.92 59.6401 161.093 59.8401C162.305 60.0001 163.933 60.1601 165.978 60.3201C168.591 60.5201 170.673 61.0001 172.226 61.7601C173.778 62.5201 174.914 63.5401 175.633 64.8201C176.353 66.1001 176.713 67.6001 176.713 69.3201C176.713 71.0401 176.258 72.6801 175.349 74.2401C174.478 75.8001 173.115 77.0601 171.26 78.0201C169.442 79.0201 167.076 79.5201 164.16 79.5201ZM164.104 56.0001C161.68 56.0001 159.636 55.5201 157.969 54.5601C156.341 53.6001 155.092 52.3201 154.221 50.7201C153.35 49.0801 152.915 47.2801 152.915 45.3201C152.915 43.3201 153.35 41.5201 154.221 39.9201C155.092 38.3201 156.36 37.0401 158.026 36.0801C159.692 35.1201 161.718 34.6401 164.104 34.6401C166.527 34.6401 168.553 35.1201 170.181 36.0801C171.847 37.0401 173.096 38.3201 173.929 39.9201C174.8 41.5201 175.236 43.3201 175.236 45.3201C175.236 47.2801 174.8 49.0801 173.929 50.7201C173.096 52.3201 171.847 53.6001 170.181 54.5601C168.553 55.5201 166.527 56.0001 164.104 56.0001ZM164.104 52.4001C166.3 52.4001 168.023 51.8001 169.272 50.6001C170.559 49.3601 171.203 47.6001 171.203 45.3201C171.203 43.0001 170.559 41.2401 169.272 40.0401C168.023 38.8401 166.3 38.2401 164.104 38.2401C161.907 38.2401 160.147 38.8401 158.821 40.0401C157.534 41.2401 156.89 43.0001 156.89 45.3201C156.89 47.6001 157.534 49.3601 158.821 50.6001C160.109 51.8001 161.87 52.4001 164.104 52.4001ZM168.761 39.1401L167.341 35.3601H178.928V38.7801L168.761 39.1401Z" fill="#3C4A63"/>
<path d="M113.765 65.6001L128.418 23.6001H132.508L147.161 65.6001H142.958L130.463 29.1201L117.911 65.6001H113.765ZM120.467 54.2601L121.659 50.7801H139.21L140.403 54.2601H120.467Z" fill="#3C4A63"/>
</svg>
