<svg width="250" height="87" viewBox="0 0 250 87" fill="none" xmlns="http://www.w3.org/2000/svg">
<g clip-path="url(#clip0_4486_1072)">
<path d="M231.424 17.7368C235.625 17.7183 241.853 16.9893 245.132 19.9399C249.331 23.7181 249.295 30.9068 245.694 35.1155C242.752 37.9158 240.182 37.8874 236.4 37.8845L231.417 37.872L231.424 17.7368ZM232.877 36.6541C237.04 36.6794 241.516 37.3777 244.566 34.3567C244.591 34.3321 244.615 34.3072 244.64 34.282C247.713 30.4675 247.696 23.8152 243.841 20.5668C241.201 18.3422 236.164 18.9148 232.872 18.9351L232.877 36.6541Z" fill="black"/>
<path d="M178.449 17.1611L179.685 17.1869L179.678 32.4029C179.675 33.8664 179.734 35.3609 179.724 36.8241C179.721 37.3361 179.594 37.6209 179.171 37.8842C178.768 37.8418 178.893 37.9093 178.605 37.6559C178.445 37.0839 178.432 35.909 178.403 35.2715C176.133 37.9455 173.533 38.9568 170.308 37.176C167.013 34.5345 167.096 27.8345 170.029 25.0098C171.127 23.9458 172.608 23.3717 174.135 23.4183C176.007 23.4641 177.092 24.2023 178.333 25.4928C178.329 24.4166 178.234 17.558 178.449 17.1611ZM174.452 36.9106C176.373 36.4464 177.161 35.7696 178.344 34.1887L178.345 26.7313C176.937 24.9115 175.777 24.3484 173.424 24.5957C169.385 25.4528 168.793 29.739 169.483 33.2589C170.01 35.9533 171.801 37.0378 174.452 36.9106Z" fill="black"/>
<path d="M162.842 52.8129C163.215 52.7936 163.633 52.7728 164.005 52.7821C165.312 52.8142 166.553 53.3699 167.447 54.3247C169.913 56.9912 169.754 63.5132 166.904 65.8978C164.221 68.1423 161.004 67.8091 158.691 65.2983L158.688 67.5104L158.685 72.1949L157.333 72.1812L157.335 58.3265C157.335 56.8783 157.344 55.4229 157.317 53.9743C157.308 53.5342 157.224 53.2536 157.599 53.0095C158.138 53.0838 157.969 52.9988 158.382 53.3105C158.663 53.8481 158.603 54.8895 158.628 55.554C159.812 53.9991 160.958 53.203 162.842 52.8129ZM158.689 56.5952L158.688 64.083C160.173 66.0254 161.448 66.4895 163.9 66.1896C165.191 65.7816 166.43 65.0208 166.965 63.7365C168.629 59.7401 168.153 53.4626 162.539 53.9227C160.663 54.3109 159.841 55.1021 158.689 56.5952Z" fill="black"/>
<path d="M157.798 23.4954C162.131 23.0785 164.857 26.2483 164.902 30.4008C164.946 34.3871 163.484 37.2169 159.408 38.0063C157.617 38.0735 156.155 37.9652 154.643 36.8768C151.042 34.2813 151.1 26.9931 154.814 24.5171C155.788 23.8677 156.655 23.653 157.798 23.4954ZM159.475 36.9029C163.439 35.8712 164.061 31.8815 163.218 28.2883C162.562 25.4993 160.463 24.429 157.707 24.5904C152.493 25.5406 152.07 33.2108 155.652 36.1591C156.601 36.94 158.274 37.0284 159.475 36.9029Z" fill="black"/>
<path d="M184.031 52.8194C190.953 52.3582 192.973 59.575 189.939 64.8739C189.115 66.3138 187.302 67.0439 185.709 67.3175C183.976 67.4031 182.451 67.2424 180.989 66.169C177.818 63.8431 177.629 58.1489 179.819 55.1265C180.86 53.6882 182.318 53.07 184.031 52.8194ZM185.718 66.2226C189.632 65.4197 190.359 61.4685 189.703 58.079C189.073 54.8232 186.976 53.7545 183.95 53.914C182.621 54.1883 181.565 54.7103 180.824 55.8998C179.176 58.5437 179.262 63.6641 182.102 65.5225C183.241 66.268 184.422 66.3083 185.718 66.2226Z" fill="black"/>
<path d="M218.442 17.7334L219.844 17.7451C221.982 22.4764 223.753 27.5819 225.829 32.3619C226.553 34.0322 227.4 35.9915 228.005 37.6924L227.805 37.8591C227.425 37.9167 227.148 37.9263 226.776 37.7835C226.72 37.762 226.488 37.5958 226.473 37.5606C225.7 35.6833 224.831 33.4941 224.098 31.6434L219.909 31.6452L214.208 31.6583C213.474 33.4484 212.781 35.2517 212.049 37.0404C211.827 37.5817 211.059 38.2781 210.416 37.8947C210.254 37.4323 212.064 33.3049 212.348 32.6093L218.442 17.7334ZM214.66 30.5449H219.299L223.609 30.5468C222.595 27.9609 221.566 25.3807 220.522 22.8063C220.295 22.2427 219.343 19.7607 219.114 19.3593C217.774 23.0604 216.091 26.8532 214.66 30.5449Z" fill="black"/>
<path d="M138.217 32.7842C139.002 31.1912 146.177 18.2096 146.696 17.8815C147.025 17.6729 147.609 17.7131 147.974 17.7858C148.106 18.0644 148.056 20.8156 148.056 21.2991L148.047 28.2585L148.045 33.7378C148.052 34.6664 148.3 37.2431 147.724 37.8793C147.248 37.886 147.158 37.9686 146.815 37.7266C146.698 36.3337 146.774 33.7429 146.774 32.2768L146.778 21.9637C146.771 21.3067 146.798 20.6094 146.813 19.9491C145.562 22.0704 139.55 33.607 138.382 34.3525C138.318 34.3931 138.341 34.3944 138.277 34.3763C137.855 34.2582 137.473 33.718 137.23 33.3718C136.244 31.9712 135.442 30.3335 134.588 28.8451L129.497 19.9689C129.517 24.6612 129.508 29.3534 129.469 34.0456C129.468 34.9212 130.12 38.5186 128.338 37.7861C128.113 37.3319 128.222 19.699 128.229 17.7355C128.573 17.7241 129.112 17.6624 129.434 17.7852C129.911 17.9678 137.584 31.3128 138.217 32.7842Z" fill="black"/>
<path d="M189.154 23.4936C193.484 23.0575 195.488 26.2434 195.436 30.198C194.483 30.2712 192.799 30.2201 191.798 30.2193C189.468 30.2117 187.139 30.2172 184.808 30.236C184.814 34.9328 187.225 38.0159 192.168 36.6234C193.052 36.3138 194.214 35.2791 194.997 35.632C194.947 36.9729 192.27 37.7882 191.212 37.9494C187.212 38.5861 184.079 36.1707 183.586 32.1465C183.056 27.8372 184.546 24.1631 189.154 23.4936ZM184.862 29.3291L190.704 29.3329L194.271 29.3322C193.982 25.9323 192.464 24.2625 188.949 24.562C188.909 24.5653 188.868 24.5693 188.828 24.5738C186.195 25.212 185.344 26.7699 184.862 29.3291Z" fill="black"/>
<path d="M208.998 52.8224C211.627 52.6171 213.723 53.5269 214.871 56.0597C215.241 56.876 215.697 58.3222 215.361 59.1921C214.788 59.7428 212.212 59.5497 211.301 59.5456C209.128 59.523 206.956 59.5247 204.783 59.5507C204.921 64.1631 206.959 67.2767 212.001 65.98C213.003 65.6478 214.331 64.4089 215.062 65.0835C214.852 66.2526 212.251 67.0288 211.274 67.2312C202.244 69.1018 200.292 54.1076 208.998 52.8224ZM204.862 58.6532L209.656 58.6555L214.247 58.6546C213.97 55.794 212.777 53.6739 209.57 53.8084C206.481 54.1535 205.376 55.6785 204.862 58.6532Z" fill="black"/>
<path d="M128.224 47.0519C131.324 47.0479 136.77 46.9504 140.062 47.127C140.151 47.2147 140.226 47.2892 140.288 47.3505C140.354 47.7581 140.389 47.6199 140.21 47.9603C139.508 48.4988 137.333 48.2819 136.385 48.279C134.143 48.2627 131.901 48.2692 129.658 48.2984V56.3528C130.615 56.3759 138.057 56.3054 138.285 56.4372C138.501 56.7133 138.447 57.0282 138.435 57.3821C137.828 58.0221 130.594 57.0946 129.667 57.7852L129.656 58.2545L129.658 65.9472C132.998 66.043 136.882 65.9606 140.259 65.9619C140.272 66.4413 140.288 66.652 140.184 67.1326C139.44 67.245 136.993 67.1923 136.157 67.1917L128.224 67.1856C128.103 60.6415 128.217 53.6099 128.224 47.0519Z" fill="black"/>
<path d="M142.525 53.0286L144.052 53.0287C145.435 54.8315 147.074 57.3419 148.386 59.2323C148.795 58.4534 152.101 53.786 152.748 53.1408C153.136 52.9455 153.693 53.0138 154.145 53.028C152.625 55.2704 150.86 57.6193 149.258 59.824C150.272 61.279 153.531 65.7185 154.24 67.0576C154.087 67.191 153.621 67.2154 153.39 67.2448C152.447 67.1016 151.125 64.5952 150.482 63.726C149.778 62.7725 149.042 61.6152 148.363 60.6226C147.135 62.4699 145.036 65.4831 143.686 67.1924C143.26 67.1935 142.764 67.1596 142.333 67.1413L147.443 59.9104L142.525 53.0286Z" fill="black"/>
<path d="M199.328 17.1597L200.622 17.1775C200.748 23.8844 200.665 31.148 200.619 37.8808C200.132 37.8911 199.772 37.9282 199.307 37.7651C199.197 36.6389 199.253 34.6789 199.253 33.5021L199.254 25.7717L199.252 20.0731C199.252 19.4323 199.209 17.7195 199.328 17.1597Z" fill="black"/>
<path d="M173.114 46.4814L174.452 46.494L174.449 67.1925L173.106 67.1747L173.114 46.4814Z" fill="black"/>
<path d="M200.023 52.8159C200.753 52.7447 202.118 52.6055 202.369 53.4308C202.223 54.101 202.262 54.3545 201.373 54.2762C200.111 54.1639 199.048 53.9789 198.069 55.0116C196.654 56.5061 196.378 58.0357 196.404 60.0156C196.434 62.4008 196.422 64.7984 196.425 67.1836C195.986 67.209 195.553 67.2678 195.139 67.1284L195.07 66.8692L195.068 57.9353C195.067 56.7421 194.999 54.2129 195.136 53.1133C195.468 53.0026 195.628 53.0401 195.978 53.0762C196.419 53.4931 196.336 55.5047 196.405 56.2902C197.245 54.3693 197.959 53.3704 200.023 52.8159Z" fill="black"/>
<path d="M224.086 52.8122C224.812 52.7536 225.914 52.657 226.392 53.2682C226.373 53.667 226.393 53.8438 226.17 54.1657C225.59 54.3604 224.716 54.2056 224.074 54.194C222.44 53.9864 220.794 56.2296 220.617 57.7513C220.289 60.5737 220.458 64.3205 220.462 67.1756C220.023 67.2075 219.599 67.2721 219.182 67.1338L219.115 66.869L219.104 58.3484C219.103 56.6749 219.055 54.765 219.18 53.1236L219.395 52.9772C219.783 52.9931 219.828 53.0076 220.134 53.247C220.46 53.651 220.375 55.7157 220.387 56.3842C221.294 54.4022 221.909 53.3626 224.086 52.8122Z" fill="black"/>
<path d="M24.0483 1.521L74.6151 1.53438C75.0892 2.04995 78.5162 8.29542 79.0586 9.26139L83.9432 17.9635C84.6523 19.2273 85.7904 21.1104 86.4049 22.3751L98.6988 44.254C94.6916 51.3918 90.5295 59.1285 86.4015 66.1292C82.6019 72.9379 78.3099 80.1792 74.7001 87.0002H48.7781H24.0403C23.4156 85.611 21.0675 81.6777 20.2206 80.1695L12.0918 65.6886C10.8845 63.7592 9.30943 60.7419 8.15431 58.6864L0.0507812 44.2448L12.0537 22.8768C13.0678 20.7966 14.8995 17.7875 16.0921 15.6636L24.0483 1.521Z" fill="#00C9B8"/>
<path d="M48.7746 44.2473C57.0875 44.2469 65.6932 44.1259 73.9797 44.2476L73.9968 44.3198C74.6689 45.1918 76.616 48.8353 77.2231 49.9228L83.2078 60.542C84.0577 62.0468 85.4819 64.7598 86.4014 66.129C82.6019 72.9377 78.3099 80.179 74.7 86.9999H48.778H24.0402C23.4156 85.6108 21.0674 81.6774 20.2205 80.1692L12.0918 65.6884C20.0135 65.4577 28.764 65.6194 36.7297 65.6135L36.7173 65.5409C37.4461 64.5333 39.8835 60.0034 40.5915 58.7495L48.7746 44.2473Z" fill="#4326A9"/>
<path d="M48.7745 44.2473C57.0874 44.2469 65.6931 44.1259 73.9796 44.2476L73.9967 44.3198L62.0321 65.6111L36.7296 65.6135L36.7173 65.5409C37.446 64.5333 39.8834 60.0034 40.5914 58.7495L48.7745 44.2473Z" fill="#6E52C7"/>
<path d="M12.0918 65.6885C20.0135 65.4578 28.764 65.6195 36.7297 65.6135C40.4799 72.7 44.9257 79.9082 48.778 87H24.0402C23.4156 85.6108 21.0674 81.6775 20.2205 80.1693L12.0918 65.6885Z" fill="#6E52C7"/>
<path d="M12.0537 22.8765L28.2199 22.8911C30.9129 22.8908 34.0947 22.9774 36.7475 22.8845L36.7276 22.9596L45.0174 37.6015C46.2308 39.7498 47.5156 42.1538 48.7746 44.2472L40.5915 58.7494C39.8835 60.0033 37.4461 64.5332 36.7174 65.5408L36.7297 65.6134C28.764 65.6194 20.0135 65.4576 12.0918 65.6883C10.8845 63.7589 9.30943 60.7416 8.15431 58.6861L0.0507812 44.2445L12.0537 22.8765Z" fill="#3F6AA2"/>
<path d="M36.7277 22.9595L45.0175 37.6014C46.2308 39.7497 47.5156 42.1537 48.7747 44.2471L40.5916 58.7493C39.8835 60.0033 37.4462 64.5331 36.7174 65.5407C36.1155 64.9142 33.9236 60.6553 33.3146 59.5641L24.7163 44.2473L32.6934 30.0549C33.5074 28.5949 35.8539 24.1301 36.7277 22.9595Z" fill="#54A5C8"/>
<path d="M86.4047 22.375L98.6986 44.2539C94.6914 51.3917 90.5293 59.1285 86.4012 66.1292C85.4817 64.76 84.0575 62.047 83.2076 60.5422L77.2229 49.923C76.6158 48.8355 74.6687 45.192 73.9966 44.32L73.9795 44.2478L74.0682 44.1811L81.9895 30.1362C83.3964 27.6406 84.916 24.7988 86.4047 22.375Z" fill="#016D7D"/>
<path d="M36.7474 22.8845C45.0426 22.8955 53.7274 23.0001 62.0024 22.8765L70.6992 38.3302C71.1276 39.0948 73.6777 43.7937 74.0684 44.1808L73.9796 44.2475C65.6931 44.1258 57.0874 44.2468 48.7745 44.2472C47.5155 42.1538 46.2307 39.7498 45.0173 37.6015L36.7275 22.9596L36.7474 22.8845Z" fill="#016D7D"/>
<path d="M24.0483 1.521L74.615 1.53438L48.7458 1.54611L40.6428 15.917C39.7316 17.5308 37.4473 21.3246 36.7475 22.8848C34.0947 22.9777 30.9129 22.8911 28.2199 22.8914L12.0537 22.8768C13.0678 20.7966 14.8995 17.7875 16.0921 15.6636L24.0483 1.521Z" fill="#4326A9"/>
</g>
<defs>
<clipPath id="clip0_4486_1072">
<rect width="250" height="87" fill="white"/>
</clipPath>
</defs>
</svg>
