<svg width="773" height="411" viewBox="0 0 773 411" fill="none" xmlns="http://www.w3.org/2000/svg">
<path fill-rule="evenodd" clip-rule="evenodd" d="M249.721 254.149C249.457 254.149 249.194 254.151 248.931 254.155C248.721 252.458 248.09 247.221 247.879 243.875C247.653 240.284 247.799 235.405 247.858 233.792C248.477 233.778 249.098 233.77 249.721 233.77C291.715 233.77 325.758 267.813 325.758 309.807C325.758 325.531 320.985 340.141 312.808 352.266L296.397 340.136C302.078 331.411 305.379 320.995 305.379 309.807C305.379 279.068 280.46 254.149 249.721 254.149ZM267.161 362.678C261.675 364.486 255.812 365.465 249.721 365.465C218.982 365.465 194.063 340.546 194.063 309.807C194.063 291.927 202.495 276.015 215.599 265.833C214.799 263.474 213.028 258.08 212.375 254.705C211.77 251.576 211.639 246.785 211.619 243.991C188.937 257.15 173.684 281.697 173.684 309.807C173.684 351.801 207.727 385.844 249.721 385.844C262.011 385.844 273.62 382.928 283.894 377.75C279.735 375.132 271.452 369.033 267.161 362.678Z" fill="#FF6152"/>
<path opacity="0.4" fill-rule="evenodd" clip-rule="evenodd" d="M250.06 301.679C250.819 301.679 251.435 301.064 251.435 300.304C251.435 299.545 250.819 298.929 250.06 298.929C249.301 298.929 248.685 299.545 248.685 300.304C248.685 301.064 249.301 301.679 250.06 301.679ZM225.247 307.992C225.247 308.751 224.632 309.367 223.872 309.367C223.113 309.367 222.497 308.751 222.497 307.992C222.497 307.232 223.113 306.617 223.872 306.617C224.632 306.617 225.247 307.232 225.247 307.992ZM242.81 307.992C242.81 308.751 242.194 309.367 241.435 309.367C240.676 309.367 240.06 308.751 240.06 307.992C240.06 307.232 240.676 306.617 241.435 306.617C242.194 306.617 242.81 307.232 242.81 307.992ZM256.06 309.367C256.819 309.367 257.435 308.751 257.435 307.992C257.435 307.232 256.819 306.617 256.06 306.617C255.301 306.617 254.685 307.232 254.685 307.992C254.685 308.751 255.301 309.367 256.06 309.367ZM248.685 315.225C248.685 315.984 248.069 316.6 247.31 316.6C246.551 316.6 245.935 315.984 245.935 315.225C245.935 314.465 246.551 313.85 247.31 313.85C248.069 313.85 248.685 314.465 248.685 315.225Z" fill="#F46055"/>
<path opacity="0.4" d="M220.341 331.945L221.185 335.382L222.466 336.476L225.872 336.007L236.529 325.726L236.685 323.945L233.341 320.476L231.591 320.195L220.341 331.945Z" fill="#F46055"/>
<path d="M275.046 331.373H265.793L259.563 321.916C263.529 318.846 266.149 314.121 266.383 308.786H272.688L271.392 309.752C271.045 310.01 270.975 310.499 271.233 310.846C271.387 311.053 271.622 311.16 271.861 311.16C272.022 311.16 272.187 311.109 272.327 311.006L275.512 308.632C275.709 308.484 275.826 308.252 275.826 308.003C275.826 307.757 275.709 307.523 275.512 307.375L272.327 305.001C271.98 304.743 271.49 304.816 271.233 305.161C270.975 305.507 271.045 305.997 271.392 306.255L272.688 307.221H266.383C265.973 297.885 258.25 290.416 248.815 290.416C239.379 290.416 231.656 297.885 231.246 307.221H226.317C225.984 306.157 224.991 305.386 223.819 305.386C222.375 305.386 221.201 306.56 221.201 308.003C221.201 309.447 222.375 310.621 223.819 310.621C224.991 310.621 225.984 309.848 226.317 308.786H231.246C231.375 311.681 232.212 314.498 233.688 316.982C234.183 317.814 234.061 318.834 233.384 319.523C232.455 319.106 231.323 319.277 230.564 320.038L220.824 329.779C219.11 331.492 219.11 334.281 220.824 335.997C221.681 336.855 222.806 337.284 223.931 337.284C225.059 337.284 226.184 336.855 227.039 335.997L236.78 326.256C237.541 325.495 237.71 324.365 237.295 323.437C237.984 322.76 239.004 322.638 239.836 323.132C242.543 324.742 245.648 325.593 248.815 325.593C252.3 325.593 255.549 324.576 258.283 322.821L264.715 332.587C264.86 332.807 265.104 332.938 265.369 332.938H275.044C275.475 332.938 275.827 332.589 275.827 332.155C275.827 331.724 275.477 331.372 275.044 331.372L275.046 331.373ZM258.703 320.609L257.344 318.546C260.224 316.212 262.132 312.722 262.357 308.789H264.823C264.591 313.58 262.247 317.825 258.703 320.609H258.703ZM252.497 314.027L255.213 318.155C253.359 319.326 251.168 320.006 248.817 320.006C242.463 320.006 237.249 315.042 236.845 308.789H239.06C239.393 309.851 240.386 310.624 241.558 310.624C241.912 310.624 242.25 310.554 242.557 310.427L245.182 313.577C244.917 313.988 244.762 314.473 244.762 314.995C244.762 316.439 245.936 317.613 247.38 317.613C248.824 317.613 249.998 316.439 249.998 314.995C249.998 313.99 249.429 313.116 248.597 312.677L250.324 303.168C250.537 303.143 250.741 303.091 250.933 303.016L253.701 306.529C253.413 306.949 253.244 307.46 253.244 308.006C253.244 309.45 254.418 310.624 255.862 310.624C257.034 310.624 258.028 309.85 258.361 308.789H260.791C260.573 312.178 258.94 315.187 256.481 317.233L253.802 313.167C253.565 312.806 253.08 312.707 252.719 312.944C252.358 313.181 252.26 313.666 252.497 314.027L252.497 314.027ZM258.361 307.226C258.028 306.164 257.034 305.391 255.862 305.391C255.534 305.391 255.22 305.451 254.929 305.562L252.161 302.048C252.45 301.629 252.618 301.118 252.618 300.572C252.618 299.128 251.444 297.954 250.001 297.954C248.557 297.954 247.383 299.128 247.383 300.572C247.383 301.577 247.952 302.451 248.784 302.89L247.057 312.399C246.82 312.429 246.593 312.488 246.382 312.577L243.757 309.427C244.022 309.017 244.176 308.532 244.176 308.009C244.176 306.565 243.002 305.391 241.558 305.391C240.386 305.391 239.393 306.164 239.06 307.226H236.845C237.251 300.973 242.463 296.009 248.817 296.009C255.171 296.009 260.386 300.973 260.789 307.226H258.359L258.361 307.226ZM255.862 306.954C256.443 306.954 256.917 307.427 256.917 308.009C256.917 308.59 256.443 309.063 255.862 309.063C255.281 309.063 254.807 308.59 254.807 308.009C254.807 307.427 255.281 306.954 255.862 306.954ZM250.001 301.626C249.419 301.626 248.946 301.153 248.946 300.572C248.946 299.99 249.419 299.517 250.001 299.517C250.582 299.517 251.055 299.99 251.055 300.572C251.055 301.153 250.582 301.626 250.001 301.626ZM247.38 313.94C247.962 313.94 248.435 314.414 248.435 314.995C248.435 315.576 247.962 316.05 247.38 316.05C246.799 316.05 246.326 315.576 246.326 314.995C246.326 314.414 246.799 313.94 247.38 313.94ZM241.558 309.061C240.977 309.061 240.504 308.587 240.504 308.006C240.504 307.425 240.977 306.951 241.558 306.951C242.14 306.951 242.613 307.425 242.613 308.006C242.613 308.587 242.14 309.061 241.558 309.061ZM248.817 291.984C257.391 291.984 264.412 298.753 264.82 307.225H262.355C261.949 300.11 256.031 294.445 248.815 294.445C241.599 294.445 235.683 300.11 235.276 307.225H232.81C233.22 298.753 240.24 291.984 248.813 291.984H248.817ZM223.824 309.061C223.243 309.061 222.769 308.587 222.769 308.006C222.769 307.425 223.243 306.951 223.824 306.951C224.405 306.951 224.879 307.425 224.879 308.006C224.879 308.587 224.405 309.061 223.824 309.061ZM235.681 325.15L225.94 334.891C224.836 335.995 223.039 335.995 221.935 334.891C220.831 333.787 220.831 331.989 221.935 330.885L231.675 321.145C232.05 320.77 232.662 320.77 233.037 321.145L235.683 323.791C236.058 324.166 236.058 324.775 235.683 325.152L235.681 325.15ZM248.82 324.027C245.935 324.027 243.106 323.252 240.64 321.787C239.231 320.948 237.516 321.126 236.316 322.216L234.609 320.51C235.699 319.31 235.875 317.594 235.038 316.185C233.705 313.942 232.945 311.399 232.819 308.788H235.282C235.688 315.904 241.606 321.569 248.822 321.569C251.489 321.569 253.978 320.795 256.078 319.459L257.433 321.515C254.944 323.106 251.991 324.03 248.822 324.03L248.82 324.027ZM275.832 326.779C275.832 327.21 275.483 327.562 275.049 327.562H267.027C266.595 327.562 266.244 327.213 266.244 326.779C266.244 326.348 266.593 325.996 267.027 325.996H275.049C275.48 325.996 275.832 326.345 275.832 326.779ZM275.832 329.467C275.832 329.899 275.483 330.25 275.049 330.25H267.027C266.595 330.25 266.244 329.901 266.244 329.467C266.244 329.036 266.593 328.685 267.027 328.685H275.049C275.48 328.685 275.832 329.034 275.832 329.467Z" fill="#F46055"/>
<path fill-rule="evenodd" clip-rule="evenodd" d="M385.822 152.258C414.99 152.258 440.322 135.835 453.075 111.731C451.671 110.849 447.084 108.012 443.75 106.5C440.725 105.128 436.096 103.65 434.535 103.165C425.044 120.288 406.786 131.879 385.822 131.879C364.842 131.879 346.573 120.27 337.088 103.126C335.662 103.568 330.858 105.09 327.75 106.5C324.497 107.975 320.051 110.711 318.533 111.663C331.275 135.804 356.627 152.258 385.822 152.258ZM309.789 75.391C310.234 33.7792 344.105 0.183716 385.822 0.183716C427.561 0.183716 461.445 33.8142 461.855 75.4562C460.066 74.6482 454.93 72.3784 451.25 71.25C447.948 70.2373 443.088 69.3065 441.006 68.9284C437.435 41.6354 414.089 20.5629 385.822 20.5629C357.564 20.5629 334.224 41.6217 330.641 68.9017C328.65 69.2612 323.633 70.2126 320.25 71.25C316.665 72.3494 311.697 74.5323 309.789 75.391Z" fill="#862FB9"/>
<path d="M409.279 102.664L401.904 95.2262L405.716 91.6637L413.404 98.6012V101.226L411.779 103.039L409.279 102.664Z" fill="#862FB9"/>
<path d="M392.654 64.4762V67.6637L401.154 69.9762L406.779 74.7887H407.654L408.091 72.2887L406.779 65.7887L403.404 59.0387L400.216 61.7262H395.654L392.654 64.4762Z" fill="#DBC1EA"/>
<path d="M395.404 56.1012V52.2262L386.779 48.9137H379.341L381.591 53.4762H386.466V59.9137H388.716L390.779 56.5387L395.404 56.1012Z" fill="#DBC1EA"/>
<path d="M369.341 56.4137H366.216L363.216 59.2262L360.029 66.6637L359.279 73.5387L367.341 80.2262L367.654 85.4762H370.154V91.9137L374.716 92.2262L377.466 84.9137H374.154V79.2887H367.654V74.3512L374.716 74.0387L378.841 68.6012L382.529 68.1012V64.6637L379.591 60.7262H372.029L369.341 56.4137Z" fill="#DBC1EA"/>
<path d="M365.585 91.0172C367.928 93.3506 370.707 95.1992 373.765 96.4577C376.822 97.7161 380.098 98.3594 383.404 98.351C384.051 98.351 384.706 98.3262 385.35 98.2772L385.208 96.4077C384.611 96.4526 384.004 96.476 383.404 96.476C378.888 96.4868 374.466 95.1838 370.677 92.726H374.967C375.15 92.726 375.329 92.6721 375.483 92.5711C375.636 92.4702 375.756 92.3264 375.828 92.1579L378.641 85.5954C378.765 85.3057 378.735 84.9729 378.562 84.7098C378.388 84.4467 378.094 84.2885 377.779 84.2885H374.967V79.601C374.967 79.3524 374.868 79.1139 374.692 78.9381C374.516 78.7623 374.278 78.6635 374.029 78.6635H368.404V74.9135H374.967C375.28 74.9135 375.573 74.7569 375.747 74.4961L379.218 69.2886H382.467C382.715 69.2886 382.954 69.1898 383.129 69.014C383.305 68.8382 383.404 68.5998 383.404 68.3511V64.6011C383.404 64.3982 383.338 64.2009 383.217 64.0386L380.404 60.2886C380.227 60.0525 379.949 59.9136 379.654 59.9136H372.685L370.145 55.6812C369.976 55.399 369.671 55.2261 369.341 55.2261H368.167C371.15 52.6599 374.737 50.8949 378.59 50.0971L380.715 53.8163C380.797 53.9598 380.916 54.0792 381.059 54.1622C381.202 54.245 381.364 54.2887 381.529 54.2887H385.279V59.9137C385.279 60.1624 385.378 60.4008 385.554 60.5766C385.729 60.7524 385.968 60.8512 386.217 60.8512H389.029C389.203 60.8512 389.374 60.8028 389.522 60.7112C389.67 60.6198 389.79 60.4887 389.868 60.3331L391.483 57.1012H395.592C395.84 57.1012 396.079 57.0024 396.254 56.8266C396.43 56.6508 396.529 56.4124 396.529 56.1637V53.6217C398.608 55.034 400.45 56.7668 401.986 58.7557L399.891 60.8512H395.592C395.343 60.8512 395.104 60.9501 394.929 61.1258L392.116 63.9383C391.94 64.1141 391.842 64.3526 391.842 64.6012V68.3512H393.717V64.9895L395.98 62.7262H400.279C400.528 62.7262 400.766 62.6274 400.942 62.4516L403.086 60.3081V60.3083C405.547 64.0969 406.852 68.5208 406.842 73.0388C406.842 73.6407 406.818 74.2474 406.773 74.8425L408.643 74.9852C408.692 74.3432 408.717 73.6882 408.717 73.0389L408.717 73.0387C408.729 67.7498 407.073 62.5917 403.985 58.2987C401.879 55.3726 399.179 52.9242 396.061 51.1137C390.907 48.1389 384.869 47.0751 379.009 48.109C373.148 49.143 367.839 52.2086 364.014 56.7675C360.188 61.3267 358.092 67.0875 358.092 73.039C358.092 73.1221 358.092 73.2053 358.093 73.2836C358.14 79.9546 360.835 86.3336 365.586 91.0176L365.585 91.0172ZM366.905 89.6855H366.905C362.989 85.8244 360.567 80.7015 360.068 75.2245L366.529 80.0696V85.2256C366.529 85.4743 366.628 85.7127 366.803 85.8885C366.979 86.0643 367.218 86.1632 367.466 86.1632H369.341V91.7911C368.483 91.1451 367.669 90.4414 366.905 89.6851L366.905 89.6855ZM374.029 86.1635H376.357L374.348 90.851H371.216V85.226C371.216 84.9774 371.117 84.7389 370.941 84.5631C370.766 84.3873 370.527 84.2885 370.278 84.2885H368.403V80.5385H373.091V85.226C373.091 85.4746 373.19 85.7131 373.366 85.8889C373.541 86.0647 373.78 86.1635 374.029 86.1635ZM394.654 52.476V55.2262H390.904C390.73 55.2262 390.559 55.2746 390.411 55.3662C390.263 55.4576 390.143 55.5887 390.065 55.7444L388.449 58.9762H387.154V53.3512C387.154 53.1026 387.055 52.8641 386.879 52.6883C386.703 52.5125 386.465 52.4137 386.216 52.4137H382.073L380.564 49.7731C381.506 49.659 382.454 49.6016 383.404 49.6012C387.335 49.6004 391.204 50.5891 394.654 52.476ZM366.22 57.1012H368.811L371.35 61.3336C371.519 61.6158 371.824 61.7887 372.154 61.7887H379.185L381.528 64.9137V67.4137H378.716C378.402 67.4137 378.11 67.5703 377.936 67.8311L374.464 73.0386H367.466C367.217 73.0386 366.979 73.1374 366.803 73.3132C366.627 73.4889 366.529 73.7274 366.529 73.9761V77.7261L359.969 72.8065C360.015 66.9735 362.245 61.37 366.22 57.101L366.22 57.1012Z" fill="#862FB9"/>
<path d="M368.064 60.6957L366.604 59.5184C366.149 60.0826 365.722 60.6694 365.326 61.2762L366.896 62.3008C367.258 61.7467 367.648 61.2109 368.064 60.6957L368.064 60.6957Z" fill="#862FB9"/>
<path d="M363.775 71.5152C363.968 68.9261 364.677 66.4017 365.86 64.0902L364.19 63.2369V63.2367C362.894 65.7693 362.117 68.5352 361.905 71.3722L363.775 71.5152Z" fill="#862FB9"/>
<path d="M413.291 97.8512L406.805 91.3647C408.526 88.4106 409.112 84.9312 408.455 81.5762C407.798 78.2211 405.942 75.2202 403.234 73.1337C400.525 71.0472 397.15 70.0179 393.739 70.2382C390.327 70.4585 387.112 71.9132 384.695 74.3306C382.277 76.7482 380.822 79.9631 380.602 83.3746C380.382 86.7861 381.411 90.1616 383.498 92.8696C385.584 95.5778 388.585 97.434 391.94 98.0911C395.295 98.7483 398.775 98.1616 401.729 96.4407L408.215 102.927C408.887 103.606 409.802 103.989 410.757 103.991C411.712 103.993 412.628 103.615 413.304 102.94C413.979 102.264 414.357 101.348 414.355 100.393C414.352 99.4379 413.97 98.5232 413.291 97.8514L413.291 97.8512ZM382.468 84.2912C382.468 81.0588 383.752 77.9592 386.037 75.6732C388.323 73.3874 391.423 72.1034 394.655 72.1034C397.888 72.1034 400.987 73.3874 403.273 75.6732C405.559 77.9587 406.843 81.0587 406.843 84.2912C406.843 87.5237 405.559 90.6232 403.273 92.9092C400.988 95.1949 397.888 96.4789 394.655 96.4789C391.424 96.4752 388.326 95.1901 386.041 92.9053C383.757 90.6205 382.471 87.5228 382.468 84.2913L382.468 84.2912ZM411.965 101.602C411.643 101.923 411.207 102.104 410.753 102.104C410.298 102.104 409.862 101.923 409.541 101.601L403.308 95.3684H403.308C404.211 94.6613 405.025 93.8473 405.732 92.9444L411.965 99.1774V99.1772C412.287 99.4987 412.468 99.935 412.468 100.39C412.468 100.845 412.287 101.281 411.965 101.602Z" fill="#862FB9"/>
<path d="M394.654 73.9762C391.919 73.9762 389.296 75.0627 387.362 76.9967C385.428 78.9307 384.341 81.5537 384.341 84.2887C384.341 87.0236 385.428 89.6467 387.362 91.5807C389.296 93.5147 391.919 94.6012 394.654 94.6012C397.389 94.6012 400.012 93.5147 401.946 91.5807C403.88 89.6467 404.966 87.0236 404.966 84.2887C404.963 81.5545 403.876 78.9332 401.942 77.0002C400.009 75.067 397.388 73.9795 394.654 73.9763L394.654 73.9762ZM386.216 84.2887C386.215 82.5012 386.781 80.7596 387.834 79.3148C388.886 77.8701 390.37 76.7969 392.072 76.2498C393.773 75.7029 395.605 75.7103 397.302 76.2713C398.999 76.8324 400.474 77.9178 401.514 79.3711C402.555 80.8244 403.107 82.5707 403.091 84.358C403.075 86.1455 402.492 87.8814 401.425 89.316L399.681 91.0603C398 92.3105 395.913 92.89 393.828 92.6859C391.743 92.4818 389.808 91.509 388.401 89.9566C386.994 88.4043 386.215 86.3838 386.216 84.2886L386.216 84.2887Z" fill="#862FB9"/>
<path d="M393.091 79.8677C393.593 79.6908 394.122 79.6007 394.654 79.6013V77.7263C393.909 77.7255 393.169 77.8519 392.467 78.1L393.091 79.8677Z" fill="#862FB9"/>
<path d="M391.529 80.7947L390.278 79.3976C388.886 80.6425 388.091 82.4215 388.091 84.2888C388.091 86.1562 388.886 87.9351 390.278 89.18L391.529 87.783C390.534 86.8937 389.966 85.6228 389.966 84.2888C389.966 82.9548 390.534 81.6839 391.529 80.7947Z" fill="#862FB9"/>
<path d="M377.965 99.6812C374.372 98.9402 370.965 97.483 367.947 95.3967C364.929 93.3102 362.363 90.6371 360.401 87.5372L358.816 88.5383C360.913 91.852 363.657 94.7093 366.883 96.9393C370.109 99.1696 373.751 100.727 377.592 101.519L377.965 99.6812Z" fill="#862FB9"/>
<path d="M383.404 100.226C382.497 100.226 381.581 100.181 380.684 100.092L380.499 101.958C381.458 102.053 382.435 102.101 383.404 102.101L383.404 100.226Z" fill="#862FB9"/>
<path d="M412.321 75.9437C412.416 74.9847 412.465 74.0073 412.465 73.0386C412.46 66.3291 410.139 59.8271 405.894 54.6321L404.443 55.8204C408.415 60.6801 410.586 66.7624 410.59 73.0389C410.59 73.9459 410.544 74.8611 410.455 75.7588L412.321 75.9437Z" fill="#862FB9"/>
<path d="M400.86 52.1947C401.54 52.7642 402.199 53.374 402.82 54.0076L404.159 52.6951C403.495 52.0183 402.791 51.3666 402.065 50.758L400.86 52.1947Z" fill="#862FB9"/>
<path fill-rule="evenodd" clip-rule="evenodd" d="M522.463 388.274C564.457 388.274 598.5 354.231 598.5 312.237C598.5 283.183 582.205 257.935 558.255 245.134C558.292 249.956 557.544 260.255 554.248 266.542C568.679 276.599 578.121 293.315 578.121 312.237C578.121 342.976 553.202 367.895 522.463 367.895C515.289 367.895 508.431 366.538 502.134 364.066C500.286 367.037 494.663 373.781 485.754 378.842C496.637 384.853 509.151 388.274 522.463 388.274ZM524.867 256.63L524.5 256.5C525.25 254.333 526.65 247.3 526.25 236.5H529.26C527.021 236.302 524.754 236.2 522.463 236.2C480.469 236.2 446.426 270.243 446.426 312.237C446.426 326.819 450.531 340.442 457.648 352.014C460.19 350.812 466.31 347.214 474.478 340.455C469.602 332.181 466.805 322.536 466.805 312.237C466.805 281.498 491.724 256.58 522.463 256.58C523.268 256.58 524.07 256.597 524.867 256.63Z" fill="#F7BF0F"/>
<path opacity="0.4" d="M499.247 340.382L495.966 341.07L495.497 337.632L505.154 327.664L504.841 325.539L506.404 321.414L510.622 318.601L515.997 319.695L518.31 324.257L517.122 329.07L512.747 331.632L509.654 331.195L507.622 332.414L505.716 332.882L505.154 334.757L502.872 335.414L502.435 337.632L500.279 338.101L499.247 340.382Z" fill="#ECB915"/>
<circle cx="512.639" cy="324.164" r="1.4375" fill="white"/>
<path d="M511.701 317.601C509.712 317.601 507.804 318.391 506.398 319.798C504.991 321.204 504.201 323.112 504.201 325.101C504.201 325.819 504.305 326.533 504.51 327.22L495.135 336.595C494.939 336.772 494.827 337.024 494.826 337.289V341.039C494.826 341.288 494.925 341.526 495.101 341.702C495.276 341.878 495.515 341.976 495.763 341.976H499.513C499.762 341.976 500.001 341.878 500.176 341.702C500.352 341.526 500.451 341.288 500.451 341.039V339.164H502.326C502.575 339.164 502.813 339.065 502.989 338.889C503.165 338.714 503.263 338.475 503.263 338.226V336.351H505.138C505.387 336.351 505.626 336.253 505.801 336.077C505.977 335.901 506.076 335.663 506.076 335.414V333.539H507.951C508.2 333.54 508.44 333.442 508.617 333.267L509.554 332.33C510.253 332.524 510.976 332.616 511.701 332.601C514.38 332.601 516.856 331.172 518.196 328.851C519.536 326.531 519.536 323.672 518.196 321.351C516.856 319.031 514.38 317.601 511.701 317.601L511.701 317.601ZM511.701 330.726C511.008 330.724 510.322 330.594 509.676 330.342C509.506 330.276 509.321 330.262 509.143 330.3C508.964 330.339 508.801 330.428 508.673 330.557L507.567 331.664H505.139C504.89 331.664 504.652 331.763 504.476 331.938C504.3 332.114 504.201 332.353 504.201 332.601V334.476H502.326C502.078 334.476 501.839 334.575 501.663 334.751C501.487 334.927 501.389 335.165 501.389 335.414V337.289H499.514C499.265 337.289 499.027 337.388 498.851 337.563C498.675 337.739 498.576 337.978 498.576 338.226V340.101H496.701V337.673L506.245 328.129C506.375 328.001 506.464 327.838 506.502 327.66C506.541 327.481 506.526 327.296 506.461 327.126C505.88 325.622 505.973 323.941 506.716 322.51C507.459 321.079 508.78 320.035 510.344 319.644C511.908 319.253 513.565 319.552 514.894 320.464C516.222 321.377 517.096 322.817 517.292 324.417C517.488 326.017 516.988 327.625 515.919 328.831C514.849 330.038 513.314 330.728 511.701 330.726L511.701 330.726Z" fill="#ECB915"/>
<path d="M512.639 321.351C511.893 321.351 511.177 321.647 510.65 322.175C510.122 322.702 509.826 323.418 509.826 324.164C509.826 324.91 510.122 325.625 510.65 326.152C511.177 326.68 511.893 326.976 512.639 326.976C513.385 326.976 514.1 326.68 514.627 326.152C515.155 325.625 515.451 324.91 515.451 324.164C515.451 323.418 515.155 322.702 514.627 322.175C514.1 321.647 513.385 321.351 512.639 321.351ZM512.639 325.101C512.39 325.101 512.152 325.002 511.976 324.827C511.8 324.651 511.701 324.412 511.701 324.164C511.701 323.915 511.8 323.677 511.976 323.501C512.152 323.325 512.39 323.226 512.639 323.226C512.887 323.226 513.126 323.325 513.302 323.501C513.477 323.677 513.576 323.915 513.576 324.164C513.576 324.412 513.477 324.651 513.302 324.827C513.126 325.002 512.887 325.101 512.639 325.101Z" fill="#ECB915"/>
<path d="M547.326 285.726H519.201C518.207 285.726 517.253 286.121 516.55 286.825C515.846 287.528 515.451 288.482 515.451 289.476V309.164C515.451 310.158 515.846 311.112 516.55 311.815C517.253 312.519 518.207 312.914 519.201 312.914H528.267L526.935 317.601H524.826V319.476H541.701V317.601H539.592L538.26 312.914H547.326C548.32 312.914 549.274 312.519 549.977 311.815C550.681 311.112 551.076 310.158 551.076 309.164V289.476C551.076 288.482 550.681 287.528 549.977 286.825C549.274 286.121 548.32 285.726 547.326 285.726H547.326ZM517.326 289.476C517.326 288.979 517.524 288.502 517.875 288.15C518.227 287.799 518.704 287.601 519.201 287.601H547.326C547.823 287.601 548.3 287.799 548.652 288.15C549.004 288.502 549.201 288.979 549.201 289.476V306.351H517.326V289.476ZM537.642 317.601H528.886L530.217 312.914H536.311L537.642 317.601ZM547.326 311.039H519.201C518.704 311.039 518.227 310.841 517.875 310.489C517.524 310.138 517.326 309.661 517.326 309.164V308.226H549.201V309.164C549.201 309.661 549.004 310.138 548.652 310.489C548.3 310.841 547.823 311.039 547.326 311.039Z" fill="#ECB915"/>
<path opacity="0.4" d="M528.67 296.039V303.539H537.857V296.039H528.67Z" fill="#ECB915"/>
<path d="M537.951 295.101H537.014V292.289C537.014 290.949 536.299 289.711 535.139 289.041C533.978 288.371 532.549 288.371 531.389 289.041C530.228 289.711 529.514 290.949 529.514 292.289V293.226H531.389V292.289C531.389 291.619 531.746 291 532.326 290.665C532.906 290.33 533.621 290.33 534.201 290.665C534.781 291 535.139 291.619 535.139 292.289V295.101H528.576C528.328 295.101 528.089 295.2 527.913 295.376C527.738 295.552 527.639 295.79 527.639 296.039V303.539C527.639 303.787 527.738 304.026 527.913 304.202C528.089 304.377 528.328 304.476 528.576 304.476H537.951C538.2 304.476 538.438 304.377 538.614 304.202C538.79 304.026 538.889 303.787 538.889 303.539V296.039C538.889 295.79 538.79 295.552 538.614 295.376C538.438 295.2 538.2 295.101 537.951 295.101ZM537.014 302.601H529.514V296.976H537.014V302.601Z" fill="#ECB915"/>
<path d="M532.326 298.851H534.201V300.726H532.326V298.851Z" fill="#ECB915"/>
<path fill-rule="evenodd" clip-rule="evenodd" d="M522.295 290.137L523.621 288.811L525.497 290.687L524.171 292.013L522.295 290.137ZM521.076 293.226H523.889V295.101H521.076V293.226ZM524.168 296.312L522.292 298.188L523.618 299.513L525.494 297.637L524.168 296.312Z" fill="#ECB915"/>
<path fill-rule="evenodd" clip-rule="evenodd" d="M502.326 298.851H500.451V300.726H502.326V298.851ZM504.201 298.851H506.076V300.726H504.201V298.851ZM509.826 298.851H507.951V300.726H509.826V298.851ZM513.576 298.851H511.701V300.726H513.576V298.851ZM500.451 302.601H502.326V304.476H500.451V302.601ZM502.326 306.351H500.451V308.226H502.326V306.351ZM500.451 310.101H502.326V311.976H500.451V310.101ZM502.326 313.851H500.451V315.726H502.326V313.851ZM500.451 317.601H502.326V319.476H500.451V317.601ZM502.326 321.351H500.451V323.226H502.326V321.351ZM521.076 332.601H522.951V334.476H521.076V332.601ZM526.701 332.601H524.826V334.476H526.701V332.601ZM528.576 332.601H530.451V334.476H528.576V332.601ZM534.201 332.601H532.326V334.476H534.201V332.601ZM532.326 328.851H534.201V330.726H532.326V328.851ZM534.201 325.101H532.326V326.976H534.201V325.101ZM532.326 321.351H534.201V323.226H532.326V321.351ZM519.201 332.601H517.326V334.476H519.201V332.601Z" fill="#ECB915"/>
<path d="M323.537 86.8123C318.119 89.0958 310.59 92.6913 302.104 97.9528C285.135 108.473 264.293 125.684 248.883 152.425C232.507 180.842 227.585 208.395 226.758 228.841C226.344 239.064 226.953 247.519 227.668 253.43C228.026 256.386 228.41 258.708 228.708 260.299C229.035 262.049 229.201 264.874 231.671 264.269C233.853 263.735 232.978 261.099 232.689 259.555C232.407 258.043 232.036 255.807 231.689 252.943C230.996 247.215 230.401 238.98 230.805 229.005C231.613 209.054 236.415 182.174 252.393 154.447C267.385 128.432 287.675 111.665 304.238 101.395C312.517 96.2622 319.854 92.7602 325.11 90.5449C327.738 89.4375 329.843 88.6524 331.285 88.1463C334.743 86.1566 331.975 83.7262 329.815 84.5364C327.925 84.9076 325.273 86.0804 323.537 86.8123Z" fill="#FF6152"/>
<path d="M440.489 83.7342C440.894 83.8638 441.483 84.0587 442.24 84.3243C443.753 84.8556 445.936 85.6703 448.646 86.8123C454.064 89.0957 461.593 92.6913 470.079 97.9528C487.048 108.473 507.89 125.684 523.3 152.425C539.676 180.842 544.598 208.395 545.425 228.841C545.839 239.064 545.23 247.519 544.515 253.43C544.157 256.386 543.772 258.708 543.475 260.299C543.327 261.094 543.2 261.707 543.11 262.125C542.773 263.678 542.336 264.716 540.512 264.269C539.055 263.913 538.886 262.489 539.151 261.267C539.233 260.886 539.352 260.311 539.494 259.555C539.776 258.043 540.147 255.807 540.494 252.943C541.187 247.215 541.782 238.98 541.378 229.005C540.57 209.054 535.768 182.174 519.79 154.448C504.798 128.432 484.508 111.665 467.945 101.395C459.666 96.2622 452.329 92.7602 447.073 90.5449C444.445 89.4375 442.34 88.6524 440.898 88.1463C440.177 87.8933 439.623 87.7101 439.252 87.5912C436.422 86.6834 436.818 82.5566 440.489 83.7342Z" fill="#862FB9"/>
<path d="M284.629 356.955C285.845 358 287.643 359.484 289.986 361.26C294.673 364.81 301.551 369.533 310.351 374.251C327.946 383.686 353.272 393.13 384.136 393.105C416.933 393.079 443.256 383.565 461.377 374.059C470.437 369.305 477.455 364.551 482.216 360.975C484.597 359.187 486.416 357.694 487.645 356.641C488.259 356.115 488.727 355.699 489.043 355.411C490.22 354.343 490.9 353.446 489.601 352.089C488.828 351.281 487.546 351.253 486.739 352.026L486.738 352.027L486.735 352.029C486.599 352.158 486.46 352.285 486.321 352.411C486.032 352.674 485.594 353.064 485.01 353.564C483.842 354.565 482.091 356.004 479.784 357.736C475.17 361.201 468.335 365.834 459.495 370.472C441.813 379.747 416.133 389.029 384.132 389.054C354.107 389.079 329.44 379.891 312.265 370.681C303.68 366.078 296.979 361.475 292.432 358.031C290.068 356.24 287.709 354.394 285.55 352.353C284.077 351.709 283.486 351.608 282.575 352.266C282.102 352.703 281.466 354.056 282.753 355.282C283.359 355.86 283.993 356.41 284.629 356.955Z" fill="#F7BF0F"/>
<path d="M385.084 242.001C391.256 242.433 396.608 237.78 397.04 231.608C397.472 225.437 392.818 220.084 386.647 219.653C380.476 219.221 375.123 223.874 374.691 230.046C374.26 236.217 378.913 241.57 385.084 242.001Z" fill="#F5B33C"/>
<path d="M404.84 280.813C406.809 280.951 408.516 279.466 408.654 277.498C408.792 275.529 407.307 273.821 405.339 273.684C403.37 273.546 401.662 275.031 401.525 276.999C401.387 278.968 402.871 280.675 404.84 280.813Z" fill="#F9CC7D"/>
<path d="M432.127 253.182C434.096 253.32 435.803 251.836 435.941 249.867C436.079 247.898 434.595 246.191 432.626 246.053C430.657 245.915 428.95 247.4 428.812 249.368C428.674 251.337 430.159 253.045 432.127 253.182Z" fill="#F9CC7D"/>
<path d="M433.572 214.625C435.54 214.763 437.248 213.279 437.385 211.31C437.523 209.341 436.039 207.634 434.07 207.496C432.101 207.358 430.394 208.843 430.256 210.812C430.118 212.78 431.603 214.488 433.572 214.625Z" fill="#F9CC7D"/>
<path d="M403.614 187.879C405.583 188.017 407.291 186.532 407.428 184.564C407.566 182.595 406.081 180.887 404.113 180.75C402.144 180.612 400.437 182.097 400.299 184.065C400.161 186.034 401.646 187.741 403.614 187.879Z" fill="#F9CC7D"/>
<path d="M367.394 187.969C369.363 188.107 371.07 186.622 371.208 184.653C371.345 182.685 369.861 180.977 367.892 180.84C365.924 180.702 364.216 182.186 364.078 184.155C363.941 186.124 365.425 187.831 367.394 187.969Z" fill="#F9CC7D"/>
<path d="M340.63 214.849C342.599 214.987 344.307 213.503 344.444 211.534C344.582 209.565 343.098 207.858 341.129 207.72C339.16 207.582 337.453 209.067 337.315 211.035C337.177 213.004 338.662 214.712 340.63 214.849Z" fill="#F9CC7D"/>
<path d="M340.725 254.146C342.694 254.284 344.402 252.799 344.539 250.831C344.677 248.862 343.193 247.154 341.224 247.017C339.255 246.879 337.548 248.363 337.41 250.332C337.272 252.301 338.757 254.008 340.725 254.146Z" fill="#F9CC7D"/>
<path d="M367.619 280.898C369.587 281.036 371.295 279.552 371.433 277.583C371.57 275.614 370.086 273.907 368.117 273.769C366.149 273.631 364.441 275.116 364.303 277.085C364.166 279.053 365.65 280.761 367.619 280.898Z" fill="#F9CC7D"/>
<path d="M385.824 258.092C388.91 258.308 391.587 255.981 391.802 252.896C392.018 249.81 389.692 247.134 386.606 246.918C383.52 246.702 380.844 249.029 380.628 252.114C380.412 255.2 382.739 257.876 385.824 258.092Z" fill="#BBD3E2"/>
<path d="M398.002 273.856C399.331 273.854 400.327 272.648 400.091 271.338C398.886 264.614 393.002 259.518 385.932 259.536C378.862 259.554 373.003 264.676 371.829 271.406C371.6 272.719 372.601 273.922 373.93 273.913L397.996 273.856L398.002 273.856Z" fill="#BBD3E2"/>
<path d="M385.721 214.73C388.807 214.946 391.484 212.62 391.699 209.534C391.915 206.448 389.589 203.772 386.503 203.556C383.417 203.34 380.741 205.667 380.525 208.753C380.309 211.838 382.636 214.515 385.721 214.73Z" fill="#5B95BA"/>
<path d="M374.028 187.956C372.699 187.959 371.703 189.165 371.939 190.474C373.144 197.198 379.028 202.295 386.098 202.276C393.162 202.258 399.027 197.137 400.201 190.406C400.43 189.093 399.429 187.891 398.1 187.899L374.034 187.957L374.028 187.956Z" fill="#5B95BA"/>
<path d="M363.794 236.466C366.88 236.682 369.556 234.355 369.772 231.269C369.988 228.184 367.661 225.507 364.575 225.291C361.49 225.076 358.813 227.402 358.598 230.488C358.382 233.574 360.708 236.25 363.794 236.466Z" fill="#8BB4CE"/>
<path d="M342.692 242.81C342.695 244.14 343.9 245.136 345.21 244.899C351.934 243.695 357.03 237.811 357.012 230.741C356.994 223.677 351.873 217.811 345.142 216.637C343.829 216.408 342.627 217.409 342.635 218.739L342.693 242.804L342.692 242.81Z" fill="#8BB4CE"/>
<path d="M407.165 236.06C410.251 236.275 412.927 233.949 413.143 230.863C413.359 227.777 411.032 225.101 407.946 224.885C404.861 224.669 402.184 226.996 401.968 230.082C401.753 233.167 404.079 235.844 407.165 236.06Z" fill="#8BB4CE"/>
<path d="M429.044 219.363C429.095 218.032 427.923 216.99 426.604 217.178C419.839 218.124 414.524 223.807 414.263 230.87C414.007 237.933 418.901 243.985 425.577 245.417C426.875 245.699 428.116 244.742 428.167 243.411L429.038 219.363L429.044 219.363Z" fill="#8BB4CE"/>
<path d="M370.18 251.777C373.265 251.992 375.942 249.666 376.157 246.58C376.373 243.494 374.047 240.818 370.961 240.602C367.875 240.387 365.199 242.713 364.983 245.799C364.767 248.885 367.094 251.561 370.18 251.777Z" fill="#5B95BA"/>
<path d="M364.27 269.816C365.211 270.752 366.771 270.605 367.527 269.514C371.43 263.91 370.87 256.146 365.86 251.159C360.851 246.171 353.085 245.652 347.5 249.583C346.409 250.347 346.271 251.905 347.212 252.847L364.269 269.822L364.27 269.816Z" fill="#5B95BA"/>
<path d="M400.771 221.046C403.856 221.262 406.533 218.935 406.749 215.849C406.964 212.764 404.638 210.087 401.552 209.871C398.466 209.656 395.79 211.982 395.574 215.068C395.358 218.154 397.685 220.83 400.771 221.046Z" fill="#BBD3E2"/>
<path d="M408.055 192.13C407.114 191.193 405.554 191.341 404.798 192.432C400.895 198.036 401.455 205.8 406.465 210.787C411.474 215.774 419.24 216.294 424.825 212.363C425.916 211.599 426.054 210.041 425.113 209.099L408.056 192.124L408.055 192.13Z" fill="#BBD3E2"/>
<path d="M370.318 220.907C373.404 221.123 376.08 218.796 376.296 215.711C376.512 212.625 374.185 209.948 371.099 209.733C368.013 209.517 365.337 211.843 365.121 214.929C364.906 218.015 367.232 220.691 370.318 220.907Z" fill="#BBD3E2"/>
<path d="M347.787 209.08C346.851 210.021 346.998 211.581 348.089 212.337C353.693 216.24 361.457 215.68 366.444 210.67C371.431 205.661 371.951 197.895 368.02 192.31C367.256 191.219 365.698 191.081 364.756 192.022L347.781 209.079L347.787 209.08Z" fill="#BBD3E2"/>
<path d="M401.05 251.492C404.135 251.708 406.812 249.381 407.027 246.296C407.243 243.21 404.917 240.533 401.831 240.318C398.745 240.102 396.069 242.428 395.853 245.514C395.637 248.6 397.964 251.276 401.05 251.492Z" fill="#5B95BA"/>
<path d="M425.474 252.866C426.41 251.925 426.263 250.365 425.171 249.609C419.567 245.706 411.804 246.266 406.816 251.276C401.829 256.285 401.31 264.051 405.24 269.636C406.005 270.727 407.562 270.865 408.504 269.924L425.48 252.867L425.474 252.866Z" fill="#5B95BA"/>
<path d="M234.2 65V53.8H241.128V54.904H235.544V58.808H240.648V59.896H235.544V63.896H241.128V65H234.2ZM242.367 65L245.103 60.984L242.367 56.968H243.823L246.015 60.264L248.239 56.968H249.679L246.943 60.984L249.679 65H248.239L246.015 61.688L243.823 65H242.367ZM251.104 68.52V56.968H252.32L252.448 58.28C252.619 58.024 252.837 57.784 253.104 57.56C253.371 57.3253 253.691 57.1387 254.064 57C254.437 56.8507 254.869 56.776 255.36 56.776C256.139 56.776 256.816 56.9627 257.392 57.336C257.979 57.6987 258.432 58.2 258.752 58.84C259.083 59.4693 259.248 60.1893 259.248 61C259.248 61.8107 259.083 62.5307 258.752 63.16C258.432 63.7893 257.979 64.2853 257.392 64.648C256.805 65.0107 256.123 65.192 255.344 65.192C254.693 65.192 254.117 65.0587 253.616 64.792C253.115 64.5253 252.725 64.152 252.448 63.672V68.52H251.104ZM255.184 64.024C255.717 64.024 256.187 63.9013 256.592 63.656C256.997 63.4 257.312 63.0427 257.536 62.584C257.771 62.1253 257.888 61.592 257.888 60.984C257.888 60.376 257.771 59.8427 257.536 59.384C257.312 58.9253 256.997 58.5733 256.592 58.328C256.187 58.072 255.717 57.944 255.184 57.944C254.651 57.944 254.181 58.072 253.776 58.328C253.371 58.5733 253.056 58.9253 252.832 59.384C252.608 59.8427 252.496 60.376 252.496 60.984C252.496 61.592 252.608 62.1253 252.832 62.584C253.056 63.0427 253.371 63.4 253.776 63.656C254.181 63.9013 254.651 64.024 255.184 64.024ZM261.135 65V53.48H262.479V65H261.135ZM268.314 65.192C267.567 65.192 266.895 65.0213 266.298 64.68C265.7 64.328 265.226 63.8373 264.874 63.208C264.532 62.5787 264.362 61.8373 264.362 60.984C264.362 60.1307 264.538 59.3893 264.89 58.76C265.242 58.1307 265.716 57.6453 266.314 57.304C266.922 56.952 267.599 56.776 268.346 56.776C269.103 56.776 269.78 56.952 270.378 57.304C270.975 57.6453 271.444 58.1307 271.786 58.76C272.127 59.3893 272.298 60.1307 272.298 60.984C272.298 61.8373 272.122 62.5787 271.77 63.208C271.428 63.8373 270.954 64.328 270.346 64.68C269.748 65.0213 269.071 65.192 268.314 65.192ZM268.314 64.04C268.783 64.04 269.215 63.928 269.61 63.704C270.004 63.4693 270.319 63.128 270.554 62.68C270.799 62.2213 270.922 61.656 270.922 60.984C270.922 60.3013 270.804 59.736 270.57 59.288C270.335 58.84 270.02 58.504 269.626 58.28C269.231 58.0453 268.804 57.928 268.346 57.928C267.898 57.928 267.471 58.0453 267.066 58.28C266.671 58.504 266.351 58.84 266.106 59.288C265.86 59.736 265.738 60.3013 265.738 60.984C265.738 61.656 265.86 62.2213 266.106 62.68C266.351 63.128 266.666 63.4693 267.05 63.704C267.444 63.928 267.866 64.04 268.314 64.04ZM274.182 65V56.968H275.398L275.51 58.504C275.691 58.1413 275.921 57.832 276.198 57.576C276.486 57.32 276.827 57.1227 277.222 56.984C277.617 56.8453 278.065 56.776 278.566 56.776V58.184H278.102C277.761 58.184 277.435 58.232 277.126 58.328C276.817 58.4133 276.539 58.5573 276.294 58.76C276.059 58.952 275.873 59.224 275.734 59.576C275.595 59.928 275.526 60.36 275.526 60.872V65H274.182ZM283.328 65.192C282.581 65.192 281.915 65.016 281.328 64.664C280.741 64.312 280.277 63.8213 279.936 63.192C279.605 62.5627 279.44 61.8267 279.44 60.984C279.44 60.1307 279.605 59.3947 279.936 58.776C280.267 58.1467 280.725 57.656 281.312 57.304C281.909 56.952 282.592 56.776 283.36 56.776C284.149 56.776 284.821 56.952 285.376 57.304C285.931 57.656 286.352 58.1147 286.64 58.68C286.939 59.2453 287.088 59.8693 287.088 60.552C287.088 60.6587 287.088 60.7707 287.088 60.888C287.088 61.0053 287.083 61.1387 287.072 61.288H280.448V60.248H285.76C285.728 59.512 285.483 58.9413 285.024 58.536C284.576 58.12 284.011 57.912 283.328 57.912C282.88 57.912 282.459 58.0187 282.064 58.232C281.669 58.4347 281.349 58.7333 281.104 59.128C280.869 59.5227 280.752 60.0187 280.752 60.616V61.064C280.752 61.7253 280.875 62.28 281.12 62.728C281.365 63.1653 281.68 63.496 282.064 63.72C282.459 63.944 282.88 64.056 283.328 64.056C283.893 64.056 284.357 63.9333 284.72 63.688C285.093 63.432 285.365 63.0853 285.536 62.648H286.864C286.725 63.1387 286.496 63.576 286.176 63.96C285.856 64.3333 285.456 64.632 284.976 64.856C284.507 65.08 283.957 65.192 283.328 65.192Z" fill="#71767F"/>
<path d="M131.2 276V264.8H138.016V265.904H132.544V269.84H137.2V270.928H132.544V276H131.2ZM139.811 276V267.968H141.155V276H139.811ZM140.483 266.24C140.216 266.24 139.992 266.155 139.811 265.984C139.64 265.803 139.555 265.579 139.555 265.312C139.555 265.045 139.64 264.832 139.811 264.672C139.992 264.501 140.216 264.416 140.483 264.416C140.739 264.416 140.957 264.501 141.139 264.672C141.32 264.832 141.411 265.045 141.411 265.312C141.411 265.579 141.32 265.803 141.139 265.984C140.957 266.155 140.739 266.24 140.483 266.24ZM143.495 276V267.968H144.711L144.791 269.376C145.047 268.875 145.409 268.485 145.879 268.208C146.359 267.92 146.903 267.776 147.511 267.776C148.14 267.776 148.684 267.899 149.143 268.144C149.601 268.389 149.959 268.768 150.215 269.28C150.471 269.792 150.599 270.437 150.599 271.216V276H149.255V271.36C149.255 270.549 149.079 269.941 148.727 269.536C148.375 269.131 147.868 268.928 147.207 268.928C146.759 268.928 146.353 269.04 145.991 269.264C145.639 269.477 145.356 269.792 145.143 270.208C144.94 270.624 144.839 271.131 144.839 271.728V276H143.495ZM156.251 276.192C155.472 276.192 154.784 276.011 154.187 275.648C153.6 275.275 153.141 274.773 152.811 274.144C152.491 273.504 152.331 272.779 152.331 271.968C152.331 271.157 152.491 270.437 152.811 269.808C153.141 269.179 153.6 268.683 154.187 268.32C154.784 267.957 155.477 267.776 156.266 267.776C156.917 267.776 157.493 267.909 157.995 268.176C158.496 268.443 158.88 268.816 159.147 269.296V264.48H160.491V276H159.275L159.147 274.688C158.976 274.944 158.757 275.189 158.491 275.424C158.235 275.648 157.92 275.835 157.547 275.984C157.173 276.123 156.741 276.192 156.251 276.192ZM156.395 275.024C156.928 275.024 157.397 274.901 157.803 274.656C158.219 274.4 158.539 274.043 158.763 273.584C158.987 273.125 159.099 272.592 159.099 271.984C159.099 271.376 158.987 270.843 158.763 270.384C158.539 269.925 158.219 269.573 157.803 269.328C157.397 269.072 156.928 268.944 156.395 268.944C155.883 268.944 155.419 269.072 155.003 269.328C154.597 269.573 154.277 269.925 154.043 270.384C153.819 270.843 153.707 271.376 153.707 271.984C153.707 272.592 153.819 273.125 154.043 273.584C154.277 274.043 154.597 274.4 155.003 274.656C155.419 274.901 155.883 275.024 156.395 275.024Z" fill="#71767F"/>
<path d="M606.48 276L610.608 264.8H612.032L616.144 276H614.72L611.312 266.48L607.888 276H606.48ZM608.368 273.12L608.752 272.032H613.824L614.208 273.12H608.368ZM620.94 276.192C620.182 276.192 619.5 276.016 618.892 275.664C618.294 275.312 617.82 274.821 617.468 274.192C617.126 273.563 616.956 272.827 616.956 271.984C616.956 271.141 617.126 270.405 617.468 269.776C617.82 269.147 618.294 268.656 618.892 268.304C619.5 267.952 620.182 267.776 620.94 267.776C621.9 267.776 622.7 268.027 623.34 268.528C623.98 269.019 624.385 269.68 624.556 270.512H623.18C623.073 270.011 622.812 269.621 622.396 269.344C621.98 269.067 621.489 268.928 620.924 268.928C620.465 268.928 620.038 269.045 619.644 269.28C619.26 269.504 618.945 269.845 618.7 270.304C618.454 270.752 618.332 271.312 618.332 271.984C618.332 272.485 618.401 272.928 618.539 273.312C618.689 273.696 618.881 274.021 619.116 274.288C619.35 274.544 619.622 274.736 619.932 274.864C620.252 274.992 620.582 275.056 620.924 275.056C621.308 275.056 621.654 274.997 621.964 274.88C622.273 274.752 622.534 274.571 622.748 274.336C622.961 274.091 623.105 273.797 623.18 273.456H624.556C624.385 274.277 623.974 274.939 623.324 275.44C622.684 275.941 621.889 276.192 620.94 276.192ZM630.08 276.192C629.323 276.192 628.64 276.016 628.032 275.664C627.435 275.312 626.96 274.821 626.608 274.192C626.267 273.563 626.096 272.827 626.096 271.984C626.096 271.141 626.267 270.405 626.608 269.776C626.96 269.147 627.435 268.656 628.032 268.304C628.64 267.952 629.323 267.776 630.08 267.776C631.04 267.776 631.84 268.027 632.48 268.528C633.12 269.019 633.525 269.68 633.696 270.512H632.32C632.213 270.011 631.952 269.621 631.536 269.344C631.12 269.067 630.629 268.928 630.064 268.928C629.605 268.928 629.179 269.045 628.784 269.28C628.4 269.504 628.085 269.845 627.84 270.304C627.595 270.752 627.472 271.312 627.472 271.984C627.472 272.485 627.541 272.928 627.68 273.312C627.829 273.696 628.021 274.021 628.256 274.288C628.491 274.544 628.763 274.736 629.072 274.864C629.392 274.992 629.723 275.056 630.064 275.056C630.448 275.056 630.795 274.997 631.104 274.88C631.413 274.752 631.675 274.571 631.888 274.336C632.101 274.091 632.245 273.797 632.32 273.456H633.696C633.525 274.277 633.115 274.939 632.464 275.44C631.824 275.941 631.029 276.192 630.08 276.192ZM639.125 276.192C638.378 276.192 637.711 276.016 637.125 275.664C636.538 275.312 636.074 274.821 635.733 274.192C635.402 273.563 635.237 272.827 635.237 271.984C635.237 271.131 635.402 270.395 635.733 269.776C636.063 269.147 636.522 268.656 637.109 268.304C637.706 267.952 638.389 267.776 639.157 267.776C639.946 267.776 640.618 267.952 641.173 268.304C641.727 268.656 642.149 269.115 642.437 269.68C642.735 270.245 642.885 270.869 642.885 271.552C642.885 271.659 642.885 271.771 642.885 271.888C642.885 272.005 642.879 272.139 642.869 272.288H636.245V271.248H641.557C641.525 270.512 641.279 269.941 640.821 269.536C640.373 269.12 639.807 268.912 639.125 268.912C638.677 268.912 638.255 269.019 637.861 269.232C637.466 269.435 637.146 269.733 636.901 270.128C636.666 270.523 636.549 271.019 636.549 271.616V272.064C636.549 272.725 636.671 273.28 636.917 273.728C637.162 274.165 637.477 274.496 637.861 274.72C638.255 274.944 638.677 275.056 639.125 275.056C639.69 275.056 640.154 274.933 640.517 274.688C640.89 274.432 641.162 274.085 641.333 273.648H642.661C642.522 274.139 642.293 274.576 641.973 274.96C641.653 275.333 641.253 275.632 640.773 275.856C640.303 276.08 639.754 276.192 639.125 276.192ZM647.707 276.192C647.056 276.192 646.48 276.085 645.979 275.872C645.477 275.648 645.077 275.333 644.779 274.928C644.491 274.523 644.309 274.048 644.235 273.504H645.611C645.675 273.781 645.792 274.043 645.963 274.288C646.133 274.523 646.363 274.709 646.651 274.848C646.949 274.987 647.307 275.056 647.723 275.056C648.107 275.056 648.421 275.003 648.667 274.896C648.912 274.779 649.093 274.624 649.211 274.432C649.328 274.24 649.387 274.032 649.387 273.808C649.387 273.488 649.307 273.243 649.147 273.072C648.997 272.901 648.773 272.768 648.475 272.672C648.176 272.565 647.819 272.475 647.403 272.4C647.051 272.336 646.704 272.251 646.363 272.144C646.032 272.037 645.733 271.899 645.467 271.728C645.2 271.557 644.987 271.344 644.827 271.088C644.667 270.821 644.587 270.507 644.587 270.144C644.587 269.685 644.704 269.28 644.939 268.928C645.184 268.565 645.52 268.283 645.947 268.08C646.384 267.877 646.901 267.776 647.499 267.776C648.352 267.776 649.045 267.984 649.579 268.4C650.123 268.816 650.437 269.419 650.523 270.208H649.195C649.152 269.803 648.981 269.488 648.683 269.264C648.384 269.029 647.984 268.912 647.483 268.912C646.981 268.912 646.597 269.013 646.331 269.216C646.075 269.419 645.947 269.685 645.947 270.016C645.947 270.229 646.016 270.416 646.155 270.576C646.304 270.736 646.523 270.875 646.811 270.992C647.099 271.099 647.445 271.195 647.851 271.28C648.373 271.376 648.853 271.504 649.291 271.664C649.728 271.824 650.08 272.059 650.347 272.368C650.624 272.677 650.763 273.12 650.763 273.696C650.773 274.197 650.651 274.635 650.395 275.008C650.149 275.381 649.797 275.675 649.339 275.888C648.88 276.091 648.336 276.192 647.707 276.192ZM655.738 276.192C655.087 276.192 654.511 276.085 654.01 275.872C653.508 275.648 653.108 275.333 652.81 274.928C652.522 274.523 652.34 274.048 652.266 273.504H653.642C653.706 273.781 653.823 274.043 653.994 274.288C654.164 274.523 654.394 274.709 654.682 274.848C654.98 274.987 655.338 275.056 655.754 275.056C656.138 275.056 656.452 275.003 656.698 274.896C656.943 274.779 657.124 274.624 657.242 274.432C657.359 274.24 657.418 274.032 657.418 273.808C657.418 273.488 657.338 273.243 657.178 273.072C657.028 272.901 656.804 272.768 656.506 272.672C656.207 272.565 655.85 272.475 655.434 272.4C655.082 272.336 654.735 272.251 654.394 272.144C654.063 272.037 653.764 271.899 653.498 271.728C653.231 271.557 653.018 271.344 652.858 271.088C652.698 270.821 652.618 270.507 652.618 270.144C652.618 269.685 652.735 269.28 652.97 268.928C653.215 268.565 653.551 268.283 653.978 268.08C654.415 267.877 654.932 267.776 655.53 267.776C656.383 267.776 657.076 267.984 657.61 268.4C658.154 268.816 658.468 269.419 658.554 270.208H657.226C657.183 269.803 657.012 269.488 656.714 269.264C656.415 269.029 656.015 268.912 655.514 268.912C655.012 268.912 654.628 269.013 654.362 269.216C654.106 269.419 653.978 269.685 653.978 270.016C653.978 270.229 654.047 270.416 654.186 270.576C654.335 270.736 654.554 270.875 654.842 270.992C655.13 271.099 655.476 271.195 655.882 271.28C656.404 271.376 656.884 271.504 657.322 271.664C657.759 271.824 658.111 272.059 658.378 272.368C658.655 272.677 658.794 273.12 658.794 273.696C658.804 274.197 658.682 274.635 658.426 275.008C658.18 275.381 657.828 275.675 657.37 275.888C656.911 276.091 656.367 276.192 655.738 276.192Z" fill="#71767F"/>
<rect x="16.9247" y="37.2856" width="737" height="314.09" rx="12" fill="url(#paint0_linear_62_4293)" fill-opacity="0.05"/>
<defs>
<linearGradient id="paint0_linear_62_4293" x1="788.66" y1="159.41" x2="-29.1148" y2="-3.96659" gradientUnits="userSpaceOnUse">
<stop stop-color="#314C83"/>
<stop offset="1" stop-color="#314C83"/>
</linearGradient>
</defs>
</svg>
