<svg width="321" height="65" viewBox="0 0 321 65" fill="none" xmlns="http://www.w3.org/2000/svg">
<g clip-path="url(#clip0_1535_3282)">
<path fill-rule="evenodd" clip-rule="evenodd" d="M7.03247 18.3961L30.0859 18.3958L30.0859 19.9493L7.03249 19.9496L7.03247 18.3961Z" fill="#4AB77F"/>
<path d="M4.39204 23.567C6.81767 23.567 8.78402 21.5998 8.78402 19.173C8.78402 16.7463 6.81767 14.7791 4.39204 14.7791C1.96642 14.7791 6.10352e-05 16.7463 6.10352e-05 19.173C6.10352e-05 21.5998 1.96642 23.567 4.39204 23.567Z" fill="#4AB77F"/>
<path fill-rule="evenodd" clip-rule="evenodd" d="M21.164 27.2666H30.0861V28.2846H21.164V27.2666Z" fill="#E566A1"/>
<path d="M18.5234 32.1693C20.949 32.1693 22.9154 30.2021 22.9154 27.7753C22.9154 25.3486 20.949 23.3813 18.5234 23.3813C16.0978 23.3813 14.1314 25.3486 14.1314 27.7753C14.1314 30.2021 16.0978 32.1693 18.5234 32.1693Z" fill="#E566A1"/>
<path fill-rule="evenodd" clip-rule="evenodd" d="M9.83514 35.6018H30.086V37.1553H9.83514V35.6018Z" fill="#ACBCE0"/>
<path d="M7.19472 40.7719C9.62034 40.7719 11.5867 38.8046 11.5867 36.3779C11.5867 33.9511 9.62034 31.9839 7.19472 31.9839C4.76909 31.9839 2.80273 33.9511 2.80273 36.3779C2.80273 38.8046 4.76909 40.7719 7.19472 40.7719Z" fill="#ACBCE0"/>
<path fill-rule="evenodd" clip-rule="evenodd" d="M18.7653 44.2039H30.086V45.7574H18.7653V44.2039Z" fill="#17BBB7"/>
<path d="M16.1247 49.3746C18.5503 49.3746 20.5167 47.4074 20.5167 44.9807C20.5167 42.5539 18.5503 40.5867 16.1247 40.5867C13.6991 40.5867 11.7327 42.5539 11.7327 44.9807C11.7327 47.4074 13.6991 49.3746 16.1247 49.3746Z" fill="#17BBB7"/>
<mask id="mask0_1535_3282" style="mask-type:luminance" maskUnits="userSpaceOnUse" x="30" y="0" width="71" height="65">
<path d="M100.636 32.3303L65.625 0V16.163H30.0862V48.2882L65.625 48.3096V64.8L100.636 32.3303Z" fill="white"/>
</mask>
<g mask="url(#mask0_1535_3282)">
<path d="M100.636 32.3303L65.6252 0V16.163H30.0864V48.2882L65.6252 48.3096V64.8L100.636 32.3303Z" fill="url(#paint0_linear_1535_3282)"/>
<path fill-rule="evenodd" clip-rule="evenodd" d="M30.0861 18.3958L85.5452 18.3961L87.2315 19.9496L30.0861 19.9493L30.0861 18.3958Z" fill="white"/>
<path fill-rule="evenodd" clip-rule="evenodd" d="M30.0861 26.9985L94.8743 26.9988L96.5606 28.5524L30.0861 28.5521L30.0861 26.9985Z" fill="white"/>
<path fill-rule="evenodd" clip-rule="evenodd" d="M28.636 35.6011L97.1853 35.6014L95.5476 37.155L28.636 37.1546L28.636 35.6011Z" fill="white"/>
<path fill-rule="evenodd" clip-rule="evenodd" d="M30.0861 44.2039L87.929 44.2042L86.2428 45.7577L30.0861 45.7574L30.0861 44.2039Z" fill="white"/>
</g>
<path d="M120.187 24.1916V4.03162H133.204V6.82522H123.643V12.614H132.34V15.35H123.643V21.398H133.204V24.1916H120.187Z" fill="#4A5056"/>
<path d="M136.331 24.1916V4.03162H139.787V21.4844H148.801V24.1916H136.331Z" fill="#4A5056"/>
<path d="M151.602 24.1916V4.03162H155.058V24.1916H151.602Z" fill="#4A5056"/>
<path d="M163.357 24.1916V6.82522H157.424V4.03162H172.746V6.82522H166.813V24.1916H163.357Z" fill="#4A5056"/>
<path d="M175.115 24.1916V4.03162H188.133V6.82522H178.571V12.614H187.269V15.35H178.571V21.398H188.133V24.1916H175.115Z" fill="#4A5056"/>
<path d="M197.896 24.1916V4.03162H205.183C206.795 4.03162 208.13 4.30042 209.186 4.83802C210.242 5.37562 211.019 6.10522 211.519 7.02682C212.037 7.94842 212.296 8.99482 212.296 10.166C212.296 11.2796 212.047 12.2972 211.547 13.2188C211.067 14.1404 210.299 14.8796 209.243 15.4364C208.187 15.9932 206.834 16.2716 205.183 16.2716H201.352V24.1916H197.896ZM201.352 13.4492H205.01C206.354 13.4492 207.314 13.1516 207.89 12.5564C208.485 11.9612 208.783 11.1644 208.783 10.166C208.783 9.12922 208.485 8.32282 207.89 7.74682C207.314 7.15162 206.354 6.85402 205.01 6.85402H201.352V13.4492Z" fill="#4A5056"/>
<path d="M220.834 24.5372C219.471 24.5372 218.232 24.2204 217.119 23.5868C216.024 22.9532 215.16 22.0796 214.527 20.966C213.893 19.8332 213.576 18.5276 213.576 17.0492C213.576 15.5708 213.893 14.2652 214.527 13.1324C215.18 11.9996 216.053 11.126 217.148 10.5116C218.261 9.87802 219.5 9.56122 220.863 9.56122C222.226 9.56122 223.455 9.87802 224.549 10.5116C225.663 11.126 226.536 11.9996 227.17 13.1324C227.823 14.246 228.149 15.5516 228.149 17.0492C228.149 18.5276 227.823 19.8332 227.17 20.966C226.517 22.0796 225.634 22.9532 224.52 23.5868C223.426 24.2204 222.197 24.5372 220.834 24.5372ZM220.834 21.5996C221.525 21.5996 222.149 21.4364 222.706 21.11C223.282 20.7644 223.743 20.2556 224.088 19.5836C224.434 18.8924 224.607 18.0476 224.607 17.0492C224.607 16.0316 224.434 15.1868 224.088 14.5148C223.743 13.8428 223.282 13.3436 222.706 13.0172C222.149 12.6716 221.535 12.4988 220.863 12.4988C220.21 12.4988 219.596 12.6716 219.02 13.0172C218.444 13.3436 217.973 13.8428 217.608 14.5148C217.263 15.1868 217.09 16.0316 217.09 17.0492C217.09 18.0476 217.263 18.8924 217.608 19.5836C217.973 20.2556 218.434 20.7644 218.991 21.11C219.567 21.4364 220.181 21.5996 220.834 21.5996Z" fill="#4A5056"/>
<path d="M230.997 24.1916V9.90682H234.049L234.366 12.7292H234.395C234.76 11.9996 235.192 11.4044 235.691 10.9436C236.19 10.4636 236.766 10.118 237.419 9.90682C238.091 9.67642 238.84 9.56122 239.665 9.56122V13.19H238.715C238.081 13.19 237.496 13.2668 236.958 13.4204C236.44 13.574 235.989 13.814 235.605 14.1404C235.24 14.4668 234.952 14.9084 234.741 15.4652C234.549 16.022 234.453 16.7036 234.453 17.51V24.1916H230.997Z" fill="#4A5056"/>
<path d="M249.102 24.1916C248.123 24.1916 247.269 24.038 246.539 23.7308C245.829 23.4236 245.272 22.9148 244.869 22.2044C244.485 21.494 244.293 20.534 244.293 19.3244V12.7292H241.845V9.90682H244.293L244.667 6.16282H247.749V9.90682H251.666V12.7292H247.749V19.3244C247.749 20.0732 247.902 20.5916 248.21 20.8796C248.517 21.1484 249.054 21.2828 249.822 21.2828H251.55V24.1916H249.102Z" fill="#4A5056"/>
<path d="M259.11 24.5372C257.92 24.5372 256.931 24.3452 256.144 23.9612C255.376 23.558 254.8 23.03 254.416 22.3772C254.051 21.7052 253.868 20.9756 253.868 20.1884C253.868 19.286 254.099 18.5084 254.56 17.8556C255.04 17.1836 255.74 16.6652 256.662 16.3004C257.584 15.9164 258.726 15.7244 260.089 15.7244H263.747C263.747 14.9564 263.632 14.3324 263.401 13.8524C263.19 13.3532 262.854 12.9788 262.393 12.7292C261.952 12.4796 261.395 12.3548 260.723 12.3548C259.936 12.3548 259.244 12.5468 258.649 12.9308C258.073 13.2956 257.728 13.8524 257.612 14.6012H254.214C254.31 13.5644 254.656 12.6716 255.251 11.9228C255.846 11.174 256.614 10.598 257.555 10.1948C258.515 9.77242 259.58 9.56122 260.752 9.56122C262.096 9.56122 263.248 9.80122 264.208 10.2812C265.187 10.742 265.926 11.4044 266.425 12.2684C266.944 13.1324 267.203 14.1788 267.203 15.4076V24.1916H264.294L263.948 21.8876H263.92C263.689 22.2908 263.411 22.6556 263.084 22.982C262.777 23.3084 262.422 23.5868 262.019 23.8172C261.635 24.0476 261.193 24.2204 260.694 24.3356C260.214 24.47 259.686 24.5372 259.11 24.5372ZM259.945 21.8012C260.521 21.8012 261.03 21.7052 261.472 21.5132C261.913 21.302 262.288 21.014 262.595 20.6492C262.902 20.2844 263.142 19.8716 263.315 19.4108C263.507 18.95 263.622 18.47 263.66 17.9708V17.942H260.464C259.772 17.942 259.206 18.0284 258.764 18.2012C258.323 18.374 257.996 18.614 257.785 18.9212C257.593 19.2092 257.497 19.5452 257.497 19.9292C257.497 20.3324 257.593 20.678 257.785 20.966C257.996 21.2348 258.284 21.446 258.649 21.5996C259.014 21.734 259.446 21.8012 259.945 21.8012Z" fill="#4A5056"/>
<path d="M270.389 24.1916V3.62842H273.845V24.1916H270.389Z" fill="#4A5056"/>
<path d="M120.496 43.5916V33.0916H127.111V34.3216H121.996V37.6816H126.661V38.8816H121.996V42.3616H127.111V43.5916H120.496Z" fill="#4A5056"/>
<path d="M127.971 43.5916L130.581 39.8116L127.971 36.0466H129.591L131.571 38.9866L133.566 36.0466H135.171L132.561 39.8116L135.171 43.5916H133.566L131.571 40.6516L129.591 43.5916H127.971Z" fill="#4A5056"/>
<path d="M139.327 43.7716C138.597 43.7716 137.947 43.6066 137.377 43.2766C136.807 42.9466 136.357 42.4866 136.027 41.8966C135.707 41.2966 135.547 40.6066 135.547 39.8266C135.547 39.0366 135.707 38.3466 136.027 37.7566C136.357 37.1666 136.807 36.7066 137.377 36.3766C137.947 36.0366 138.597 35.8666 139.327 35.8666C140.247 35.8666 141.017 36.1066 141.637 36.5866C142.257 37.0666 142.647 37.7116 142.807 38.5216H141.262C141.162 38.0916 140.932 37.7566 140.572 37.5166C140.222 37.2766 139.802 37.1566 139.312 37.1566C138.912 37.1566 138.542 37.2566 138.202 37.4566C137.862 37.6566 137.587 37.9566 137.377 38.3566C137.177 38.7566 137.077 39.2466 137.077 39.8266C137.077 40.2566 137.137 40.6366 137.257 40.9666C137.377 41.2966 137.537 41.5766 137.737 41.8066C137.947 42.0366 138.187 42.2116 138.457 42.3316C138.727 42.4416 139.012 42.4966 139.312 42.4966C139.642 42.4966 139.937 42.4466 140.197 42.3466C140.467 42.2366 140.692 42.0766 140.872 41.8666C141.062 41.6566 141.192 41.4066 141.262 41.1166H142.807C142.647 41.9166 142.257 42.5616 141.637 43.0516C141.017 43.5316 140.247 43.7716 139.327 43.7716Z" fill="#4A5056"/>
<path d="M147.712 43.7716C146.982 43.7716 146.337 43.6066 145.777 43.2766C145.217 42.9466 144.777 42.4866 144.457 41.8966C144.147 41.3066 143.992 40.6216 143.992 39.8416C143.992 39.0516 144.147 38.3616 144.457 37.7716C144.777 37.1716 145.217 36.7066 145.777 36.3766C146.337 36.0366 146.987 35.8666 147.727 35.8666C148.467 35.8666 149.102 36.0316 149.632 36.3616C150.162 36.6916 150.572 37.1266 150.862 37.6666C151.152 38.2066 151.297 38.8066 151.297 39.4666C151.297 39.5666 151.292 39.6766 151.282 39.7966C151.282 39.9066 151.277 40.0316 151.267 40.1716H145.087V39.1216H149.797C149.767 38.4916 149.557 38.0016 149.167 37.6516C148.777 37.2916 148.292 37.1116 147.712 37.1116C147.302 37.1116 146.927 37.2066 146.587 37.3966C146.247 37.5766 145.972 37.8466 145.762 38.2066C145.562 38.5566 145.462 38.9966 145.462 39.5266V39.9616C145.462 40.5116 145.562 40.9816 145.762 41.3716C145.972 41.7516 146.247 42.0416 146.587 42.2416C146.927 42.4316 147.297 42.5266 147.697 42.5266C148.177 42.5266 148.572 42.4216 148.882 42.2116C149.202 42.0016 149.432 41.7166 149.572 41.3566H151.087C150.947 41.8166 150.722 42.2316 150.412 42.6016C150.112 42.9616 149.732 43.2466 149.272 43.4566C148.822 43.6666 148.302 43.7716 147.712 43.7716Z" fill="#4A5056"/>
<path d="M152.664 46.8916V36.0466H154.014L154.164 37.2166C154.324 36.9866 154.524 36.7666 154.764 36.5566C155.004 36.3466 155.289 36.1816 155.619 36.0616C155.959 35.9316 156.354 35.8666 156.804 35.8666C157.524 35.8666 158.154 36.0416 158.694 36.3916C159.244 36.7316 159.669 37.2016 159.969 37.8016C160.279 38.3916 160.434 39.0716 160.434 39.8416C160.434 40.5916 160.279 41.2666 159.969 41.8666C159.659 42.4566 159.229 42.9216 158.679 43.2616C158.139 43.6016 157.509 43.7716 156.789 43.7716C156.199 43.7716 155.679 43.6566 155.229 43.4266C154.779 43.1866 154.424 42.8566 154.164 42.4366V46.8916H152.664ZM156.549 42.4666C157.009 42.4666 157.414 42.3566 157.764 42.1366C158.124 41.9166 158.404 41.6116 158.604 41.2216C158.814 40.8216 158.919 40.3566 158.919 39.8266C158.919 39.2966 158.814 38.8366 158.604 38.4466C158.404 38.0466 158.124 37.7366 157.764 37.5166C157.414 37.2866 157.009 37.1716 156.549 37.1716C156.079 37.1716 155.664 37.2866 155.304 37.5166C154.954 37.7366 154.679 38.0466 154.479 38.4466C154.279 38.8366 154.179 39.2966 154.179 39.8266C154.179 40.3466 154.279 40.8066 154.479 41.2066C154.679 41.6066 154.954 41.9166 155.304 42.1366C155.664 42.3566 156.079 42.4666 156.549 42.4666Z" fill="#4A5056"/>
<path d="M164.697 43.5916C164.227 43.5916 163.817 43.5166 163.467 43.3666C163.117 43.2166 162.847 42.9666 162.657 42.6166C162.467 42.2666 162.372 41.7916 162.372 41.1916V37.3066H161.067V36.0466H162.372L162.552 34.1566H163.872V36.0466H166.002V37.3066H163.872V41.2066C163.872 41.6366 163.957 41.9316 164.127 42.0916C164.307 42.2416 164.622 42.3166 165.072 42.3166H165.927V43.5916H164.697Z" fill="#4A5056"/>
<path d="M167.462 43.5916V36.0466H168.962V43.5916H167.462ZM168.227 34.6066C167.937 34.6066 167.697 34.5166 167.507 34.3366C167.327 34.1566 167.237 33.9316 167.237 33.6616C167.237 33.3816 167.327 33.1566 167.507 32.9866C167.697 32.8066 167.937 32.7166 168.227 32.7166C168.507 32.7166 168.742 32.8066 168.932 32.9866C169.122 33.1566 169.217 33.3816 169.217 33.6616C169.217 33.9316 169.122 34.1566 168.932 34.3366C168.742 34.5166 168.507 34.6066 168.227 34.6066Z" fill="#4A5056"/>
<path d="M174.257 43.7716C173.547 43.7716 172.907 43.6066 172.337 43.2766C171.777 42.9466 171.332 42.4866 171.002 41.8966C170.682 41.3066 170.522 40.6166 170.522 39.8266C170.522 39.0266 170.687 38.3316 171.017 37.7416C171.347 37.1516 171.797 36.6916 172.367 36.3616C172.937 36.0316 173.577 35.8666 174.287 35.8666C174.997 35.8666 175.632 36.0316 176.192 36.3616C176.762 36.6916 177.207 37.1516 177.527 37.7416C177.857 38.3316 178.022 39.0266 178.022 39.8266C178.022 40.6166 177.857 41.3066 177.527 41.8966C177.197 42.4866 176.747 42.9466 176.177 43.2766C175.617 43.6066 174.977 43.7716 174.257 43.7716ZM174.257 42.4816C174.667 42.4816 175.037 42.3816 175.367 42.1816C175.707 41.9816 175.977 41.6866 176.177 41.2966C176.387 40.8966 176.492 40.4066 176.492 39.8266C176.492 39.2266 176.392 38.7316 176.192 38.3416C175.992 37.9516 175.722 37.6566 175.382 37.4566C175.052 37.2566 174.687 37.1566 174.287 37.1566C173.897 37.1566 173.527 37.2566 173.177 37.4566C172.837 37.6566 172.562 37.9516 172.352 38.3416C172.152 38.7316 172.052 39.2266 172.052 39.8266C172.052 40.4066 172.152 40.8966 172.352 41.2966C172.562 41.6866 172.832 41.9816 173.162 42.1816C173.502 42.3816 173.867 42.4816 174.257 42.4816Z" fill="#4A5056"/>
<path d="M179.471 43.5916V36.0466H180.821L180.911 37.3366C181.151 36.8866 181.491 36.5316 181.931 36.2716C182.371 36.0016 182.881 35.8666 183.461 35.8666C184.051 35.8666 184.561 35.9866 184.991 36.2266C185.421 36.4666 185.756 36.8316 185.996 37.3216C186.236 37.8016 186.356 38.4066 186.356 39.1366V43.5916H184.856V39.2866C184.856 38.5866 184.701 38.0566 184.391 37.6966C184.081 37.3266 183.631 37.1416 183.041 37.1416C182.651 37.1416 182.301 37.2366 181.991 37.4266C181.681 37.6166 181.431 37.8916 181.241 38.2516C181.061 38.6116 180.971 39.0516 180.971 39.5716V43.5916H179.471Z" fill="#4A5056"/>
<path d="M190.48 43.7716C189.86 43.7716 189.345 43.6666 188.935 43.4566C188.525 43.2466 188.22 42.9666 188.02 42.6166C187.82 42.2566 187.72 41.8716 187.72 41.4616C187.72 40.9616 187.845 40.5366 188.095 40.1866C188.355 39.8366 188.725 39.5666 189.205 39.3766C189.695 39.1866 190.275 39.0916 190.945 39.0916H192.91C192.91 38.6516 192.845 38.2866 192.715 37.9966C192.585 37.7066 192.39 37.4866 192.13 37.3366C191.88 37.1866 191.56 37.1116 191.17 37.1116C190.72 37.1116 190.33 37.2216 190 37.4416C189.68 37.6616 189.485 37.9816 189.415 38.4016H187.915C187.975 37.8616 188.155 37.4066 188.455 37.0366C188.765 36.6566 189.155 36.3666 189.625 36.1666C190.105 35.9666 190.62 35.8666 191.17 35.8666C191.87 35.8666 192.46 35.9916 192.94 36.2416C193.43 36.4916 193.795 36.8466 194.035 37.3066C194.285 37.7566 194.41 38.2916 194.41 38.9116V43.5916H193.105L192.985 42.3166C192.875 42.5166 192.745 42.7066 192.595 42.8866C192.445 43.0666 192.265 43.2216 192.055 43.3516C191.855 43.4816 191.62 43.5816 191.35 43.6516C191.09 43.7316 190.8 43.7716 190.48 43.7716ZM190.765 42.5566C191.085 42.5566 191.375 42.4916 191.635 42.3616C191.895 42.2316 192.115 42.0566 192.295 41.8366C192.485 41.6066 192.625 41.3516 192.715 41.0716C192.815 40.7816 192.87 40.4866 192.88 40.1866V40.1416H191.095C190.665 40.1416 190.315 40.1966 190.045 40.3066C189.785 40.4066 189.595 40.5516 189.475 40.7416C189.355 40.9216 189.295 41.1266 189.295 41.3566C189.295 41.6066 189.35 41.8216 189.46 42.0016C189.58 42.1716 189.75 42.3066 189.97 42.4066C190.19 42.5066 190.455 42.5566 190.765 42.5566Z" fill="#4A5056"/>
<path d="M196.025 43.5916V32.7916H197.525V43.5916H196.025Z" fill="#4A5056"/>
<path d="M202.897 43.5916V33.0916H204.397V42.4066H209.197V43.5916H202.897Z" fill="#4A5056"/>
<path d="M213.677 43.7716C212.967 43.7716 212.327 43.6066 211.757 43.2766C211.197 42.9466 210.752 42.4866 210.422 41.8966C210.102 41.3066 209.942 40.6166 209.942 39.8266C209.942 39.0266 210.107 38.3316 210.437 37.7416C210.767 37.1516 211.217 36.6916 211.787 36.3616C212.357 36.0316 212.997 35.8666 213.707 35.8666C214.417 35.8666 215.052 36.0316 215.612 36.3616C216.182 36.6916 216.627 37.1516 216.947 37.7416C217.277 38.3316 217.442 39.0266 217.442 39.8266C217.442 40.6166 217.277 41.3066 216.947 41.8966C216.617 42.4866 216.167 42.9466 215.597 43.2766C215.037 43.6066 214.397 43.7716 213.677 43.7716ZM213.677 42.4816C214.087 42.4816 214.457 42.3816 214.787 42.1816C215.127 41.9816 215.397 41.6866 215.597 41.2966C215.807 40.8966 215.912 40.4066 215.912 39.8266C215.912 39.2266 215.812 38.7316 215.612 38.3416C215.412 37.9516 215.142 37.6566 214.802 37.4566C214.472 37.2566 214.107 37.1566 213.707 37.1566C213.317 37.1566 212.947 37.2566 212.597 37.4566C212.257 37.6566 211.982 37.9516 211.772 38.3416C211.572 38.7316 211.472 39.2266 211.472 39.8266C211.472 40.4066 211.572 40.8966 211.772 41.2966C211.982 41.6866 212.252 41.9816 212.582 42.1816C212.922 42.3816 213.287 42.4816 213.677 42.4816Z" fill="#4A5056"/>
<path d="M218.892 43.5916V36.0466H220.242L220.332 37.3366C220.572 36.8866 220.912 36.5316 221.352 36.2716C221.792 36.0016 222.302 35.8666 222.882 35.8666C223.472 35.8666 223.982 35.9866 224.412 36.2266C224.842 36.4666 225.177 36.8316 225.417 37.3216C225.657 37.8016 225.777 38.4066 225.777 39.1366V43.5916H224.277V39.2866C224.277 38.5866 224.122 38.0566 223.812 37.6966C223.502 37.3266 223.052 37.1416 222.462 37.1416C222.072 37.1416 221.722 37.2366 221.412 37.4266C221.102 37.6166 220.852 37.8916 220.662 38.2516C220.482 38.6116 220.392 39.0516 220.392 39.5716V43.5916H218.892Z" fill="#4A5056"/>
<path d="M230.471 47.0716C229.781 47.0716 229.171 46.9816 228.641 46.8016C228.111 46.6316 227.701 46.3666 227.411 46.0066C227.121 45.6466 226.976 45.2066 226.976 44.6866C226.976 44.4166 227.036 44.1416 227.156 43.8616C227.276 43.5916 227.471 43.3316 227.741 43.0816C228.011 42.8316 228.376 42.6066 228.836 42.4066L229.661 43.0816C229.161 43.2716 228.821 43.4966 228.641 43.7566C228.471 44.0266 228.386 44.2866 228.386 44.5366C228.386 44.8366 228.476 45.0866 228.656 45.2866C228.836 45.4866 229.081 45.6366 229.391 45.7366C229.711 45.8366 230.071 45.8866 230.471 45.8866C230.861 45.8866 231.196 45.8316 231.476 45.7216C231.766 45.6116 231.991 45.4566 232.151 45.2566C232.311 45.0566 232.391 44.8216 232.391 44.5516C232.391 44.2316 232.271 43.9616 232.031 43.7416C231.801 43.5316 231.346 43.4066 230.666 43.3666C230.096 43.3266 229.611 43.2716 229.211 43.2016C228.821 43.1316 228.486 43.0466 228.206 42.9466C227.936 42.8466 227.706 42.7366 227.516 42.6166C227.336 42.4966 227.181 42.3716 227.051 42.2416V41.8966L228.551 40.3516L229.751 40.7716L228.131 42.2866L228.446 41.6116C228.556 41.6916 228.661 41.7616 228.761 41.8216C228.861 41.8816 228.996 41.9366 229.166 41.9866C229.336 42.0366 229.566 42.0816 229.856 42.1216C230.146 42.1616 230.526 42.2016 230.996 42.2416C231.666 42.2916 232.211 42.4116 232.631 42.6016C233.051 42.7916 233.356 43.0466 233.546 43.3666C233.736 43.6866 233.831 44.0666 233.831 44.5066C233.831 44.9366 233.711 45.3466 233.471 45.7366C233.231 46.1266 232.861 46.4466 232.361 46.6966C231.871 46.9466 231.241 47.0716 230.471 47.0716ZM230.456 41.2666C229.826 41.2666 229.286 41.1466 228.836 40.9066C228.396 40.6666 228.056 40.3416 227.816 39.9316C227.586 39.5216 227.471 39.0666 227.471 38.5666C227.471 38.0666 227.586 37.6166 227.816 37.2166C228.056 36.8066 228.396 36.4816 228.836 36.2416C229.286 35.9916 229.826 35.8666 230.456 35.8666C231.096 35.8666 231.636 35.9916 232.076 36.2416C232.526 36.4816 232.866 36.8066 233.096 37.2166C233.336 37.6166 233.456 38.0666 233.456 38.5666C233.456 39.0666 233.336 39.5216 233.096 39.9316C232.866 40.3416 232.526 40.6666 232.076 40.9066C231.636 41.1466 231.096 41.2666 230.456 41.2666ZM230.456 40.0666C230.946 40.0666 231.336 39.9416 231.626 39.6916C231.926 39.4316 232.076 39.0566 232.076 38.5666C232.076 38.0866 231.926 37.7216 231.626 37.4716C231.336 37.2116 230.946 37.0816 230.456 37.0816C229.976 37.0816 229.586 37.2116 229.286 37.4716C228.986 37.7216 228.836 38.0866 228.836 38.5666C228.836 39.0566 228.986 39.4316 229.286 39.6916C229.586 39.9416 229.976 40.0666 230.456 40.0666ZM231.701 37.2316L231.341 36.0466H234.431V37.0816L231.701 37.2316Z" fill="#4A5056"/>
<path d="M238.778 43.7716C238.048 43.7716 237.403 43.6066 236.843 43.2766C236.283 42.9466 235.843 42.4866 235.523 41.8966C235.213 41.3066 235.058 40.6216 235.058 39.8416C235.058 39.0516 235.213 38.3616 235.523 37.7716C235.843 37.1716 236.283 36.7066 236.843 36.3766C237.403 36.0366 238.053 35.8666 238.793 35.8666C239.533 35.8666 240.168 36.0316 240.698 36.3616C241.228 36.6916 241.638 37.1266 241.928 37.6666C242.218 38.2066 242.363 38.8066 242.363 39.4666C242.363 39.5666 242.358 39.6766 242.348 39.7966C242.348 39.9066 242.343 40.0316 242.333 40.1716H236.153V39.1216H240.863C240.833 38.4916 240.623 38.0016 240.233 37.6516C239.843 37.2916 239.358 37.1116 238.778 37.1116C238.368 37.1116 237.993 37.2066 237.653 37.3966C237.313 37.5766 237.038 37.8466 236.828 38.2066C236.628 38.5566 236.528 38.9966 236.528 39.5266V39.9616C236.528 40.5116 236.628 40.9816 236.828 41.3716C237.038 41.7516 237.313 42.0416 237.653 42.2416C237.993 42.4316 238.363 42.5266 238.763 42.5266C239.243 42.5266 239.638 42.4216 239.948 42.2116C240.268 42.0016 240.498 41.7166 240.638 41.3566H242.153C242.013 41.8166 241.788 42.2316 241.478 42.6016C241.178 42.9616 240.798 43.2466 240.338 43.4566C239.888 43.6666 239.368 43.7716 238.778 43.7716Z" fill="#4A5056"/>
<path d="M245.566 43.5916L242.746 36.0466H244.321L246.466 42.1516L248.626 36.0466H250.171L247.336 43.5916H245.566Z" fill="#4A5056"/>
<path d="M251.313 43.5916V36.0466H252.813V43.5916H251.313ZM252.078 34.6066C251.788 34.6066 251.548 34.5166 251.358 34.3366C251.178 34.1566 251.088 33.9316 251.088 33.6616C251.088 33.3816 251.178 33.1566 251.358 32.9866C251.548 32.8066 251.788 32.7166 252.078 32.7166C252.358 32.7166 252.593 32.8066 252.783 32.9866C252.973 33.1566 253.068 33.3816 253.068 33.6616C253.068 33.9316 252.973 34.1566 252.783 34.3366C252.593 34.5166 252.358 34.6066 252.078 34.6066Z" fill="#4A5056"/>
<path d="M257.763 43.5916C257.293 43.5916 256.883 43.5166 256.533 43.3666C256.183 43.2166 255.913 42.9666 255.723 42.6166C255.533 42.2666 255.438 41.7916 255.438 41.1916V37.3066H254.133V36.0466H255.438L255.618 34.1566H256.938V36.0466H259.068V37.3066H256.938V41.2066C256.938 41.6366 257.023 41.9316 257.193 42.0916C257.373 42.2416 257.688 42.3166 258.138 42.3166H258.993V43.5916H257.763Z" fill="#4A5056"/>
<path d="M261.292 46.8916L263.137 42.7516H262.702L259.702 36.0466H261.337L263.707 41.5216L266.092 36.0466H267.667L262.867 46.8916H261.292Z" fill="#4A5056"/>
<path d="M122.941 60.9916V51.7216H119.836V50.4916H127.561V51.7216H124.441V60.9916H122.941Z" fill="#4A5056"/>
<path d="M127.9 60.9916V53.4466H129.25L129.385 54.8716C129.555 54.5316 129.77 54.2466 130.03 54.0166C130.3 53.7766 130.62 53.5916 130.99 53.4616C131.36 53.3316 131.775 53.2666 132.235 53.2666V54.8416H131.71C131.4 54.8416 131.105 54.8816 130.825 54.9616C130.545 55.0416 130.295 55.1716 130.075 55.3516C129.865 55.5316 129.7 55.7766 129.58 56.0866C129.46 56.3966 129.4 56.7816 129.4 57.2416V60.9916H127.9Z" fill="#4A5056"/>
<path d="M135.817 61.1716C135.197 61.1716 134.682 61.0666 134.272 60.8566C133.862 60.6466 133.557 60.3666 133.357 60.0166C133.157 59.6566 133.057 59.2716 133.057 58.8616C133.057 58.3616 133.182 57.9366 133.432 57.5866C133.692 57.2366 134.062 56.9666 134.542 56.7766C135.032 56.5866 135.612 56.4916 136.282 56.4916H138.247C138.247 56.0516 138.182 55.6866 138.052 55.3966C137.922 55.1066 137.727 54.8866 137.467 54.7366C137.217 54.5866 136.897 54.5116 136.507 54.5116C136.057 54.5116 135.667 54.6216 135.337 54.8416C135.017 55.0616 134.822 55.3816 134.752 55.8016H133.252C133.312 55.2616 133.492 54.8066 133.792 54.4366C134.102 54.0566 134.492 53.7666 134.962 53.5666C135.442 53.3666 135.957 53.2666 136.507 53.2666C137.207 53.2666 137.797 53.3916 138.277 53.6416C138.767 53.8916 139.132 54.2466 139.372 54.7066C139.622 55.1566 139.747 55.6916 139.747 56.3116V60.9916H138.442L138.322 59.7166C138.212 59.9166 138.082 60.1066 137.932 60.2866C137.782 60.4666 137.602 60.6216 137.392 60.7516C137.192 60.8816 136.957 60.9816 136.687 61.0516C136.427 61.1316 136.137 61.1716 135.817 61.1716ZM136.102 59.9566C136.422 59.9566 136.712 59.8916 136.972 59.7616C137.232 59.6316 137.452 59.4566 137.632 59.2366C137.822 59.0066 137.962 58.7516 138.052 58.4716C138.152 58.1816 138.207 57.8866 138.217 57.5866V57.5416H136.432C136.002 57.5416 135.652 57.5966 135.382 57.7066C135.122 57.8066 134.932 57.9516 134.812 58.1416C134.692 58.3216 134.632 58.5266 134.632 58.7566C134.632 59.0066 134.687 59.2216 134.797 59.4016C134.917 59.5716 135.087 59.7066 135.307 59.8066C135.527 59.9066 135.792 59.9566 136.102 59.9566Z" fill="#4A5056"/>
<path d="M141.362 60.9916V53.4466H142.712L142.802 54.7366C143.042 54.2866 143.382 53.9316 143.822 53.6716C144.262 53.4016 144.772 53.2666 145.352 53.2666C145.942 53.2666 146.452 53.3866 146.882 53.6266C147.312 53.8666 147.647 54.2316 147.887 54.7216C148.127 55.2016 148.247 55.8066 148.247 56.5366V60.9916H146.747V56.6866C146.747 55.9866 146.592 55.4566 146.282 55.0966C145.972 54.7266 145.522 54.5416 144.932 54.5416C144.542 54.5416 144.192 54.6366 143.882 54.8266C143.572 55.0166 143.322 55.2916 143.132 55.6516C142.952 56.0116 142.862 56.4516 142.862 56.9716V60.9916H141.362Z" fill="#4A5056"/>
<path d="M152.791 61.1716C152.151 61.1716 151.591 61.0666 151.111 60.8566C150.631 60.6466 150.251 60.3516 149.971 59.9716C149.691 59.5916 149.521 59.1466 149.461 58.6366H150.991C151.041 58.8766 151.136 59.0966 151.276 59.2966C151.426 59.4966 151.626 59.6566 151.876 59.7766C152.136 59.8966 152.441 59.9566 152.791 59.9566C153.121 59.9566 153.391 59.9116 153.601 59.8216C153.811 59.7216 153.966 59.5916 154.066 59.4316C154.176 59.2616 154.231 59.0816 154.231 58.8916C154.231 58.6216 154.161 58.4116 154.021 58.2616C153.891 58.1116 153.691 57.9966 153.421 57.9166C153.161 57.8366 152.846 57.7566 152.476 57.6766C152.136 57.6166 151.801 57.5366 151.471 57.4366C151.151 57.3266 150.861 57.1916 150.601 57.0316C150.341 56.8716 150.136 56.6716 149.986 56.4316C149.836 56.1816 149.761 55.8816 149.761 55.5316C149.761 55.0916 149.876 54.7016 150.106 54.3616C150.336 54.0216 150.661 53.7566 151.081 53.5666C151.511 53.3666 152.016 53.2666 152.596 53.2666C153.436 53.2666 154.111 53.4666 154.621 53.8666C155.131 54.2566 155.431 54.8166 155.521 55.5466H154.066C154.016 55.2166 153.861 54.9616 153.601 54.7816C153.351 54.5916 153.011 54.4966 152.581 54.4966C152.151 54.4966 151.821 54.5816 151.591 54.7516C151.361 54.9216 151.246 55.1416 151.246 55.4116C151.246 55.5916 151.311 55.7516 151.441 55.8916C151.571 56.0316 151.766 56.1516 152.026 56.2516C152.286 56.3516 152.596 56.4366 152.956 56.5066C153.486 56.6066 153.956 56.7316 154.366 56.8816C154.786 57.0316 155.121 57.2516 155.371 57.5416C155.631 57.8316 155.761 58.2466 155.761 58.7866C155.771 59.2566 155.651 59.6716 155.401 60.0316C155.161 60.3916 154.816 60.6716 154.366 60.8716C153.926 61.0716 153.401 61.1716 152.791 61.1716Z" fill="#4A5056"/>
<path d="M157.227 60.9916V50.1916H158.727V60.9916H157.227Z" fill="#4A5056"/>
<path d="M162.991 61.1716C162.371 61.1716 161.856 61.0666 161.446 60.8566C161.036 60.6466 160.731 60.3666 160.531 60.0166C160.331 59.6566 160.231 59.2716 160.231 58.8616C160.231 58.3616 160.356 57.9366 160.606 57.5866C160.866 57.2366 161.236 56.9666 161.716 56.7766C162.206 56.5866 162.786 56.4916 163.456 56.4916H165.421C165.421 56.0516 165.356 55.6866 165.226 55.3966C165.096 55.1066 164.901 54.8866 164.641 54.7366C164.391 54.5866 164.071 54.5116 163.681 54.5116C163.231 54.5116 162.841 54.6216 162.511 54.8416C162.191 55.0616 161.996 55.3816 161.926 55.8016H160.426C160.486 55.2616 160.666 54.8066 160.966 54.4366C161.276 54.0566 161.666 53.7666 162.136 53.5666C162.616 53.3666 163.131 53.2666 163.681 53.2666C164.381 53.2666 164.971 53.3916 165.451 53.6416C165.941 53.8916 166.306 54.2466 166.546 54.7066C166.796 55.1566 166.921 55.6916 166.921 56.3116V60.9916H165.616L165.496 59.7166C165.386 59.9166 165.256 60.1066 165.106 60.2866C164.956 60.4666 164.776 60.6216 164.566 60.7516C164.366 60.8816 164.131 60.9816 163.861 61.0516C163.601 61.1316 163.311 61.1716 162.991 61.1716ZM163.276 59.9566C163.596 59.9566 163.886 59.8916 164.146 59.7616C164.406 59.6316 164.626 59.4566 164.806 59.2366C164.996 59.0066 165.136 58.7516 165.226 58.4716C165.326 58.1816 165.381 57.8866 165.391 57.5866V57.5416H163.606C163.176 57.5416 162.826 57.5966 162.556 57.7066C162.296 57.8066 162.106 57.9516 161.986 58.1416C161.866 58.3216 161.806 58.5266 161.806 58.7566C161.806 59.0066 161.861 59.2216 161.971 59.4016C162.091 59.5716 162.261 59.7066 162.481 59.8066C162.701 59.9066 162.966 59.9566 163.276 59.9566Z" fill="#4A5056"/>
<path d="M171.48 60.9916C171.01 60.9916 170.6 60.9166 170.25 60.7666C169.9 60.6166 169.63 60.3666 169.44 60.0166C169.25 59.6666 169.155 59.1916 169.155 58.5916V54.7066H167.85V53.4466H169.155L169.335 51.5566H170.655V53.4466H172.785V54.7066H170.655V58.6066C170.655 59.0366 170.74 59.3316 170.91 59.4916C171.09 59.6416 171.405 59.7166 171.855 59.7166H172.71V60.9916H171.48Z" fill="#4A5056"/>
<path d="M174.244 60.9916V53.4466H175.744V60.9916H174.244ZM175.009 52.0066C174.719 52.0066 174.479 51.9166 174.289 51.7366C174.109 51.5566 174.019 51.3316 174.019 51.0616C174.019 50.7816 174.109 50.5566 174.289 50.3866C174.479 50.2066 174.719 50.1166 175.009 50.1166C175.289 50.1166 175.524 50.2066 175.714 50.3866C175.904 50.5566 175.999 50.7816 175.999 51.0616C175.999 51.3316 175.904 51.5566 175.714 51.7366C175.524 51.9166 175.289 52.0066 175.009 52.0066Z" fill="#4A5056"/>
<path d="M181.039 61.1716C180.329 61.1716 179.689 61.0066 179.119 60.6766C178.559 60.3466 178.114 59.8866 177.784 59.2966C177.464 58.7066 177.304 58.0166 177.304 57.2266C177.304 56.4266 177.469 55.7316 177.799 55.1416C178.129 54.5516 178.579 54.0916 179.149 53.7616C179.719 53.4316 180.359 53.2666 181.069 53.2666C181.779 53.2666 182.414 53.4316 182.974 53.7616C183.544 54.0916 183.989 54.5516 184.309 55.1416C184.639 55.7316 184.804 56.4266 184.804 57.2266C184.804 58.0166 184.639 58.7066 184.309 59.2966C183.979 59.8866 183.529 60.3466 182.959 60.6766C182.399 61.0066 181.759 61.1716 181.039 61.1716ZM181.039 59.8816C181.449 59.8816 181.819 59.7816 182.149 59.5816C182.489 59.3816 182.759 59.0866 182.959 58.6966C183.169 58.2966 183.274 57.8066 183.274 57.2266C183.274 56.6266 183.174 56.1316 182.974 55.7416C182.774 55.3516 182.504 55.0566 182.164 54.8566C181.834 54.6566 181.469 54.5566 181.069 54.5566C180.679 54.5566 180.309 54.6566 179.959 54.8566C179.619 55.0566 179.344 55.3516 179.134 55.7416C178.934 56.1316 178.834 56.6266 178.834 57.2266C178.834 57.8066 178.934 58.2966 179.134 58.6966C179.344 59.0866 179.614 59.3816 179.944 59.5816C180.284 59.7816 180.649 59.8816 181.039 59.8816Z" fill="#4A5056"/>
<path d="M186.254 60.9916V53.4466H187.604L187.694 54.7366C187.934 54.2866 188.274 53.9316 188.714 53.6716C189.154 53.4016 189.664 53.2666 190.244 53.2666C190.834 53.2666 191.344 53.3866 191.774 53.6266C192.204 53.8666 192.539 54.2316 192.779 54.7216C193.019 55.2016 193.139 55.8066 193.139 56.5366V60.9916H191.639V56.6866C191.639 55.9866 191.484 55.4566 191.174 55.0966C190.864 54.7266 190.414 54.5416 189.824 54.5416C189.434 54.5416 189.084 54.6366 188.774 54.8266C188.464 55.0166 188.214 55.2916 188.024 55.6516C187.844 56.0116 187.754 56.4516 187.754 56.9716V60.9916H186.254Z" fill="#4A5056"/>
<path d="M197.263 61.1716C196.643 61.1716 196.128 61.0666 195.718 60.8566C195.308 60.6466 195.003 60.3666 194.803 60.0166C194.603 59.6566 194.503 59.2716 194.503 58.8616C194.503 58.3616 194.628 57.9366 194.878 57.5866C195.138 57.2366 195.508 56.9666 195.988 56.7766C196.478 56.5866 197.058 56.4916 197.728 56.4916H199.693C199.693 56.0516 199.628 55.6866 199.498 55.3966C199.368 55.1066 199.173 54.8866 198.913 54.7366C198.663 54.5866 198.343 54.5116 197.953 54.5116C197.503 54.5116 197.113 54.6216 196.783 54.8416C196.463 55.0616 196.268 55.3816 196.198 55.8016H194.698C194.758 55.2616 194.938 54.8066 195.238 54.4366C195.548 54.0566 195.938 53.7666 196.408 53.5666C196.888 53.3666 197.403 53.2666 197.953 53.2666C198.653 53.2666 199.243 53.3916 199.723 53.6416C200.213 53.8916 200.578 54.2466 200.818 54.7066C201.068 55.1566 201.193 55.6916 201.193 56.3116V60.9916H199.888L199.768 59.7166C199.658 59.9166 199.528 60.1066 199.378 60.2866C199.228 60.4666 199.048 60.6216 198.838 60.7516C198.638 60.8816 198.403 60.9816 198.133 61.0516C197.873 61.1316 197.583 61.1716 197.263 61.1716ZM197.548 59.9566C197.868 59.9566 198.158 59.8916 198.418 59.7616C198.678 59.6316 198.898 59.4566 199.078 59.2366C199.268 59.0066 199.408 58.7516 199.498 58.4716C199.598 58.1816 199.653 57.8866 199.663 57.5866V57.5416H197.878C197.448 57.5416 197.098 57.5966 196.828 57.7066C196.568 57.8066 196.378 57.9516 196.258 58.1416C196.138 58.3216 196.078 58.5266 196.078 58.7566C196.078 59.0066 196.133 59.2216 196.243 59.4016C196.363 59.5716 196.533 59.7066 196.753 59.8066C196.973 59.9066 197.238 59.9566 197.548 59.9566Z" fill="#4A5056"/>
<path d="M202.808 60.9916V50.1916H204.308V60.9916H202.808Z" fill="#4A5056"/>
<path d="M209.68 60.9916V50.4916H213.235C214.065 50.4916 214.745 50.6316 215.275 50.9116C215.805 51.1916 216.195 51.5666 216.445 52.0366C216.705 52.4966 216.835 53.0216 216.835 53.6116C216.835 54.1716 216.705 54.6916 216.445 55.1716C216.185 55.6416 215.785 56.0216 215.245 56.3116C214.715 56.5916 214.03 56.7316 213.19 56.7316H211.18V60.9916H209.68ZM215.2 60.9916L212.935 56.3266H214.585L216.94 60.9916H215.2ZM211.18 55.5916H213.13C213.87 55.5916 214.415 55.4116 214.765 55.0516C215.115 54.6816 215.29 54.2116 215.29 53.6416C215.29 53.0616 215.12 52.6016 214.78 52.2616C214.44 51.9216 213.885 51.7516 213.115 51.7516H211.18V55.5916Z" fill="#4A5056"/>
<path d="M221.368 61.1716C220.638 61.1716 219.993 61.0066 219.433 60.6766C218.873 60.3466 218.433 59.8866 218.113 59.2966C217.803 58.7066 217.648 58.0216 217.648 57.2416C217.648 56.4516 217.803 55.7616 218.113 55.1716C218.433 54.5716 218.873 54.1066 219.433 53.7766C219.993 53.4366 220.643 53.2666 221.383 53.2666C222.123 53.2666 222.758 53.4316 223.288 53.7616C223.818 54.0916 224.228 54.5266 224.518 55.0666C224.808 55.6066 224.953 56.2066 224.953 56.8666C224.953 56.9666 224.948 57.0766 224.938 57.1966C224.938 57.3066 224.933 57.4316 224.923 57.5716H218.743V56.5216H223.453C223.423 55.8916 223.213 55.4016 222.823 55.0516C222.433 54.6916 221.948 54.5116 221.368 54.5116C220.958 54.5116 220.583 54.6066 220.243 54.7966C219.903 54.9766 219.628 55.2466 219.418 55.6066C219.218 55.9566 219.118 56.3966 219.118 56.9266V57.3616C219.118 57.9116 219.218 58.3816 219.418 58.7716C219.628 59.1516 219.903 59.4416 220.243 59.6416C220.583 59.8316 220.953 59.9266 221.353 59.9266C221.833 59.9266 222.228 59.8216 222.538 59.6116C222.858 59.4016 223.088 59.1166 223.228 58.7566H224.743C224.603 59.2166 224.378 59.6316 224.068 60.0016C223.768 60.3616 223.388 60.6466 222.928 60.8566C222.478 61.0666 221.958 61.1716 221.368 61.1716Z" fill="#4A5056"/>
<path d="M229.244 61.1716C228.604 61.1716 228.044 61.0666 227.564 60.8566C227.084 60.6466 226.704 60.3516 226.424 59.9716C226.144 59.5916 225.974 59.1466 225.914 58.6366H227.444C227.494 58.8766 227.589 59.0966 227.729 59.2966C227.879 59.4966 228.079 59.6566 228.329 59.7766C228.589 59.8966 228.894 59.9566 229.244 59.9566C229.574 59.9566 229.844 59.9116 230.054 59.8216C230.264 59.7216 230.419 59.5916 230.519 59.4316C230.629 59.2616 230.684 59.0816 230.684 58.8916C230.684 58.6216 230.614 58.4116 230.474 58.2616C230.344 58.1116 230.144 57.9966 229.874 57.9166C229.614 57.8366 229.299 57.7566 228.929 57.6766C228.589 57.6166 228.254 57.5366 227.924 57.4366C227.604 57.3266 227.314 57.1916 227.054 57.0316C226.794 56.8716 226.589 56.6716 226.439 56.4316C226.289 56.1816 226.214 55.8816 226.214 55.5316C226.214 55.0916 226.329 54.7016 226.559 54.3616C226.789 54.0216 227.114 53.7566 227.534 53.5666C227.964 53.3666 228.469 53.2666 229.049 53.2666C229.889 53.2666 230.564 53.4666 231.074 53.8666C231.584 54.2566 231.884 54.8166 231.974 55.5466H230.519C230.469 55.2166 230.314 54.9616 230.054 54.7816C229.804 54.5916 229.464 54.4966 229.034 54.4966C228.604 54.4966 228.274 54.5816 228.044 54.7516C227.814 54.9216 227.699 55.1416 227.699 55.4116C227.699 55.5916 227.764 55.7516 227.894 55.8916C228.024 56.0316 228.219 56.1516 228.479 56.2516C228.739 56.3516 229.049 56.4366 229.409 56.5066C229.939 56.6066 230.409 56.7316 230.819 56.8816C231.239 57.0316 231.574 57.2516 231.824 57.5416C232.084 57.8316 232.214 58.2466 232.214 58.7866C232.224 59.2566 232.104 59.6716 231.854 60.0316C231.614 60.3916 231.269 60.6716 230.819 60.8716C230.379 61.0716 229.854 61.1716 229.244 61.1716Z" fill="#4A5056"/>
<path d="M237.131 61.1716C236.421 61.1716 235.781 61.0066 235.211 60.6766C234.651 60.3466 234.206 59.8866 233.876 59.2966C233.556 58.7066 233.396 58.0166 233.396 57.2266C233.396 56.4266 233.561 55.7316 233.891 55.1416C234.221 54.5516 234.671 54.0916 235.241 53.7616C235.811 53.4316 236.451 53.2666 237.161 53.2666C237.871 53.2666 238.506 53.4316 239.066 53.7616C239.636 54.0916 240.081 54.5516 240.401 55.1416C240.731 55.7316 240.896 56.4266 240.896 57.2266C240.896 58.0166 240.731 58.7066 240.401 59.2966C240.071 59.8866 239.621 60.3466 239.051 60.6766C238.491 61.0066 237.851 61.1716 237.131 61.1716ZM237.131 59.8816C237.541 59.8816 237.911 59.7816 238.241 59.5816C238.581 59.3816 238.851 59.0866 239.051 58.6966C239.261 58.2966 239.366 57.8066 239.366 57.2266C239.366 56.6266 239.266 56.1316 239.066 55.7416C238.866 55.3516 238.596 55.0566 238.256 54.8566C237.926 54.6566 237.561 54.5566 237.161 54.5566C236.771 54.5566 236.401 54.6566 236.051 54.8566C235.711 55.0566 235.436 55.3516 235.226 55.7416C235.026 56.1316 234.926 56.6266 234.926 57.2266C234.926 57.8066 235.026 58.2966 235.226 58.6966C235.436 59.0866 235.706 59.3816 236.036 59.5816C236.376 59.7816 236.741 59.8816 237.131 59.8816Z" fill="#4A5056"/>
<path d="M245.12 61.1716C244.53 61.1716 244.015 61.0516 243.575 60.8116C243.145 60.5716 242.81 60.2116 242.57 59.7316C242.34 59.2416 242.225 58.6316 242.225 57.9016V53.4466H243.725V57.7516C243.725 58.4616 243.875 58.9966 244.175 59.3566C244.485 59.7166 244.935 59.8966 245.525 59.8966C245.915 59.8966 246.265 59.8016 246.575 59.6116C246.895 59.4216 247.145 59.1466 247.325 58.7866C247.505 58.4266 247.595 57.9866 247.595 57.4666V53.4466H249.095V60.9916H247.76L247.655 59.7016C247.425 60.1516 247.085 60.5116 246.635 60.7816C246.195 61.0416 245.69 61.1716 245.12 61.1716Z" fill="#4A5056"/>
<path d="M250.849 60.9916V53.4466H252.199L252.334 54.8716C252.504 54.5316 252.719 54.2466 252.979 54.0166C253.249 53.7766 253.569 53.5916 253.939 53.4616C254.309 53.3316 254.724 53.2666 255.184 53.2666V54.8416H254.659C254.349 54.8416 254.054 54.8816 253.774 54.9616C253.494 55.0416 253.244 55.1716 253.024 55.3516C252.814 55.5316 252.649 55.7766 252.529 56.0866C252.409 56.3966 252.349 56.7816 252.349 57.2416V60.9916H250.849Z" fill="#4A5056"/>
<path d="M259.537 61.1716C258.807 61.1716 258.157 61.0066 257.587 60.6766C257.017 60.3466 256.567 59.8866 256.237 59.2966C255.917 58.6966 255.757 58.0066 255.757 57.2266C255.757 56.4366 255.917 55.7466 256.237 55.1566C256.567 54.5666 257.017 54.1066 257.587 53.7766C258.157 53.4366 258.807 53.2666 259.537 53.2666C260.457 53.2666 261.227 53.5066 261.847 53.9866C262.467 54.4666 262.857 55.1116 263.017 55.9216H261.472C261.372 55.4916 261.142 55.1566 260.782 54.9166C260.432 54.6766 260.012 54.5566 259.522 54.5566C259.122 54.5566 258.752 54.6566 258.412 54.8566C258.072 55.0566 257.797 55.3566 257.587 55.7566C257.387 56.1566 257.287 56.6466 257.287 57.2266C257.287 57.6566 257.347 58.0366 257.467 58.3666C257.587 58.6966 257.747 58.9766 257.947 59.2066C258.157 59.4366 258.397 59.6116 258.667 59.7316C258.937 59.8416 259.222 59.8966 259.522 59.8966C259.852 59.8966 260.147 59.8466 260.407 59.7466C260.677 59.6366 260.902 59.4766 261.082 59.2666C261.272 59.0566 261.402 58.8066 261.472 58.5166H263.017C262.857 59.3166 262.467 59.9616 261.847 60.4516C261.227 60.9316 260.457 61.1716 259.537 61.1716Z" fill="#4A5056"/>
<path d="M267.922 61.1716C267.192 61.1716 266.547 61.0066 265.987 60.6766C265.427 60.3466 264.987 59.8866 264.667 59.2966C264.357 58.7066 264.202 58.0216 264.202 57.2416C264.202 56.4516 264.357 55.7616 264.667 55.1716C264.987 54.5716 265.427 54.1066 265.987 53.7766C266.547 53.4366 267.197 53.2666 267.937 53.2666C268.677 53.2666 269.312 53.4316 269.842 53.7616C270.372 54.0916 270.782 54.5266 271.072 55.0666C271.362 55.6066 271.507 56.2066 271.507 56.8666C271.507 56.9666 271.502 57.0766 271.492 57.1966C271.492 57.3066 271.487 57.4316 271.477 57.5716H265.297V56.5216H270.007C269.977 55.8916 269.767 55.4016 269.377 55.0516C268.987 54.6916 268.502 54.5116 267.922 54.5116C267.512 54.5116 267.137 54.6066 266.797 54.7966C266.457 54.9766 266.182 55.2466 265.972 55.6066C265.772 55.9566 265.672 56.3966 265.672 56.9266V57.3616C265.672 57.9116 265.772 58.3816 265.972 58.7716C266.182 59.1516 266.457 59.4416 266.797 59.6416C267.137 59.8316 267.507 59.9266 267.907 59.9266C268.387 59.9266 268.782 59.8216 269.092 59.6116C269.412 59.4016 269.642 59.1166 269.782 58.7566H271.297C271.157 59.2166 270.932 59.6316 270.622 60.0016C270.322 60.3616 269.942 60.6466 269.482 60.8566C269.032 61.0666 268.512 61.1716 267.922 61.1716Z" fill="#4A5056"/>
<path d="M275.799 61.1716C275.159 61.1716 274.599 61.0666 274.119 60.8566C273.639 60.6466 273.259 60.3516 272.979 59.9716C272.699 59.5916 272.529 59.1466 272.469 58.6366H273.999C274.049 58.8766 274.144 59.0966 274.284 59.2966C274.434 59.4966 274.634 59.6566 274.884 59.7766C275.144 59.8966 275.449 59.9566 275.799 59.9566C276.129 59.9566 276.399 59.9116 276.609 59.8216C276.819 59.7216 276.974 59.5916 277.074 59.4316C277.184 59.2616 277.239 59.0816 277.239 58.8916C277.239 58.6216 277.169 58.4116 277.029 58.2616C276.899 58.1116 276.699 57.9966 276.429 57.9166C276.169 57.8366 275.854 57.7566 275.484 57.6766C275.144 57.6166 274.809 57.5366 274.479 57.4366C274.159 57.3266 273.869 57.1916 273.609 57.0316C273.349 56.8716 273.144 56.6716 272.994 56.4316C272.844 56.1816 272.769 55.8816 272.769 55.5316C272.769 55.0916 272.884 54.7016 273.114 54.3616C273.344 54.0216 273.669 53.7566 274.089 53.5666C274.519 53.3666 275.024 53.2666 275.604 53.2666C276.444 53.2666 277.119 53.4666 277.629 53.8666C278.139 54.2566 278.439 54.8166 278.529 55.5466H277.074C277.024 55.2166 276.869 54.9616 276.609 54.7816C276.359 54.5916 276.019 54.4966 275.589 54.4966C275.159 54.4966 274.829 54.5816 274.599 54.7516C274.369 54.9216 274.254 55.1416 274.254 55.4116C274.254 55.5916 274.319 55.7516 274.449 55.8916C274.579 56.0316 274.774 56.1516 275.034 56.2516C275.294 56.3516 275.604 56.4366 275.964 56.5066C276.494 56.6066 276.964 56.7316 277.374 56.8816C277.794 57.0316 278.129 57.2516 278.379 57.5416C278.639 57.8316 278.769 58.2466 278.769 58.7866C278.779 59.2566 278.659 59.6716 278.409 60.0316C278.169 60.3916 277.824 60.6716 277.374 60.8716C276.934 61.0716 276.409 61.1716 275.799 61.1716Z" fill="#4A5056"/>
</g>
<defs>
<linearGradient id="paint0_linear_1535_3282" x1="30.0862" y1="32.4" x2="100.637" y2="32.4" gradientUnits="userSpaceOnUse">
<stop stop-color="white" stop-opacity="0"/>
<stop offset="0.0898" stop-color="#FEF2DA" stop-opacity="0.1633"/>
<stop offset="0.2245" stop-color="#FDE1A8" stop-opacity="0.3824"/>
<stop offset="0.3605" stop-color="#FCD27D" stop-opacity="0.5714"/>
<stop offset="0.4948" stop-color="#FBC65A" stop-opacity="0.7258"/>
<stop offset="0.627" stop-color="#FBBC3E" stop-opacity="0.8457"/>
<stop offset="0.7566" stop-color="#FAB52B" stop-opacity="0.9313"/>
<stop offset="0.8823" stop-color="#FAB11F" stop-opacity="0.9827"/>
<stop offset="1" stop-color="#FAB01B"/>
</linearGradient>
<clipPath id="clip0_1535_3282">
<rect width="320.236" height="64.8" fill="white"/>
</clipPath>
</defs>
</svg>
