<?xml version="1.0" encoding="UTF-8" standalone="no"?>
<!-- Created with Inkscape (http://www.inkscape.org/) -->

<svg
   width="119.84571mm"
   height="14.771999mm"
   viewBox="0 0 119.84571 14.771999"
   version="1.1"
   id="svg1"
   xml:space="preserve"
   xmlns="http://www.w3.org/2000/svg"
   xmlns:svg="http://www.w3.org/2000/svg"><defs
     id="defs1"><linearGradient
       id="swatch7"><stop
         style="stop-color:#353a3f;stop-opacity:1;"
         offset="0"
         id="stop8" /></linearGradient><linearGradient
       id="linearGradient2"><stop
         style="stop-color:#353a3f;stop-opacity:1;"
         offset="0"
         id="stop2" /><stop
         style="stop-color:#353a3f;stop-opacity:0;"
         offset="1"
         id="stop3" /></linearGradient></defs><g
     id="layer1"
     transform="translate(-12.50763,-141.66265)"><g
       id="Layer_1-2"
       transform="matrix(0.1482507,0,0,0.1482507,81.063151,148.4063)"><path
         d="M 37.0416,10.9167 34.1614,9.2456 20.5498,1.3215 6.8724,9.2564 4.0143,10.9244 M 20.5498,1.2708 v 19.7065"
         fill="none"
         stroke="#fd9701"
         stroke-width="2.2852"
         id="path1" /><path
         d="m 1.1424,15.8934 0.0669,3.3211 -0.0567,15.75 13.7106,7.8776 2.8735,1.6412 M 1.1081,34.9892 18.1744,25.136"
         fill="none"
         stroke="#219cea"
         stroke-width="2.2852"
         id="path2" /><path
         d="M 23.4079,44.5123 26.2506,42.7938 39.9188,34.9679 39.8857,19.1554 39.8703,15.8463 M 39.9634,34.9937 22.8971,25.1405"
         fill="none"
         stroke="#59c959"
         stroke-width="2.2852"
         id="path3" /><path
         d="m 66.2959,33.0516 c -1.4187,0 -2.688,-0.2427 -3.808,-0.728 -1.1014,-0.4853 -1.9787,-1.1947 -2.632,-2.128 -0.6347,-0.9333 -0.9614,-2.0627 -0.98,-3.388 h 4.004 c 0.0186,0.5787 0.168,1.1013 0.448,1.568 0.28,0.4667 0.6626,0.84 1.148,1.12 0.504,0.2613 1.1013,0.392 1.792,0.392 0.5973,0 1.1106,-0.0933 1.54,-0.28 0.448,-0.2053 0.7933,-0.4853 1.036,-0.84 0.2426,-0.3547 0.364,-0.7747 0.364,-1.26 0,-0.56 -0.14,-1.0267 -0.42,-1.4 -0.2614,-0.3733 -0.6347,-0.6907 -1.12,-0.952 -0.4667,-0.2613 -1.0174,-0.4947 -1.652,-0.7 -0.616,-0.224 -1.2694,-0.4573 -1.96,-0.7 -1.5494,-0.504 -2.7347,-1.176 -3.556,-2.016 -0.8027,-0.84 -1.204,-1.9507 -1.204,-3.332 0,-1.176 0.28,-2.184 0.84,-3.024 0.5786,-0.84 1.372,-1.484 2.38,-1.932 1.008,-0.448 2.156,-0.672 3.444,-0.672 1.3253,0 2.4826,0.2333 3.472,0.7 1.008,0.448 1.8013,1.1013 2.38,1.96 0.5973,0.8587 0.9053,1.8667 0.924,3.024 h -4.032 c -0.0187,-0.4293 -0.1494,-0.8307 -0.392,-1.204 -0.224,-0.392 -0.5414,-0.7 -0.952,-0.924 -0.4107,-0.2427 -0.896,-0.364 -1.456,-0.364 -0.4854,-0.0187 -0.9334,0.056 -1.344,0.224 -0.392,0.168 -0.7094,0.42 -0.952,0.756 -0.224,0.3173 -0.336,0.7187 -0.336,1.204 0,0.4667 0.112,0.8587 0.336,1.176 0.2426,0.3173 0.5693,0.5973 0.98,0.84 0.4106,0.224 0.896,0.4387 1.456,0.644 0.56,0.1867 1.1666,0.3827 1.82,0.588 0.9706,0.336 1.8666,0.7373 2.688,1.204 0.8213,0.448 1.4746,1.036 1.96,1.764 0.4853,0.728 0.728,1.6893 0.728,2.884 0,1.0267 -0.2707,1.9787 -0.812,2.856 -0.5414,0.8773 -1.3254,1.5867 -2.352,2.128 -1.008,0.5413 -2.268,0.812 -3.78,0.812 z m 14.8264,0 c -1.176,0 -2.1467,-0.1867 -2.912,-0.56 -0.7653,-0.392 -1.3347,-0.9053 -1.708,-1.54 -0.3547,-0.6533 -0.532,-1.372 -0.532,-2.156 0,-0.8587 0.2147,-1.6147 0.644,-2.268 0.448,-0.6533 1.1107,-1.1667 1.988,-1.54 0.896,-0.3733 2.016,-0.56 3.36,-0.56 h 3.5 c 0,-0.6907 -0.0933,-1.26 -0.28,-1.708 -0.1867,-0.4667 -0.476,-0.812 -0.868,-1.036 -0.392,-0.224 -0.9147,-0.336 -1.568,-0.336 -0.7093,0 -1.316,0.1587 -1.82,0.476 -0.4853,0.2987 -0.784,0.7653 -0.896,1.4 h -3.668 c 0.0933,-1.008 0.42,-1.876 0.98,-2.604 0.5787,-0.7467 1.3347,-1.3253 2.268,-1.736 0.952,-0.4107 2.0067,-0.616 3.164,-0.616 1.3253,0 2.4733,0.224 3.444,0.672 0.9707,0.448 1.7173,1.092 2.24,1.932 0.5227,0.84 0.784,1.876 0.784,3.108 v 8.736 h -3.192 l -0.42,-2.156 c -0.2053,0.3733 -0.448,0.7093 -0.728,1.008 -0.28,0.2987 -0.6067,0.56 -0.98,0.784 -0.3733,0.224 -0.7933,0.392 -1.26,0.504 -0.4667,0.1307 -0.98,0.196 -1.54,0.196 z m 0.896,-2.912 c 0.4853,0 0.9147,-0.084 1.288,-0.252 0.392,-0.1867 0.728,-0.4293 1.008,-0.728 0.28,-0.3173 0.4947,-0.672 0.644,-1.064 0.168,-0.4107 0.28,-0.8493 0.336,-1.316 v -0.028 h -2.884 c -0.5787,0 -1.0547,0.0747 -1.428,0.224 -0.3547,0.1307 -0.616,0.3267 -0.784,0.588 -0.168,0.2613 -0.252,0.56 -0.252,0.896 0,0.3733 0.084,0.6813 0.252,0.924 0.168,0.2427 0.4107,0.4293 0.728,0.56 0.3173,0.1307 0.6813,0.196 1.092,0.196 z m 16.8262,9.072 c -1.344,0 -2.52,-0.168 -3.528,-0.504 -1.008,-0.3173 -1.792,-0.812 -2.352,-1.484 -0.5413,-0.6533 -0.812,-1.4653 -0.812,-2.436 0,-0.6533 0.168,-1.2693 0.504,-1.848 0.336,-0.5787 0.8214,-1.1013 1.456,-1.568 0.6534,-0.4853 1.4654,-0.896 2.436,-1.232 l 1.428,1.848 c -0.8586,0.28 -1.484,0.6253 -1.876,1.036 -0.3733,0.4293 -0.56,0.8867 -0.56,1.372 0,0.4293 0.14,0.7933 0.42,1.092 0.2987,0.2987 0.6907,0.5133 1.176,0.644 0.504,0.1493 1.064,0.224 1.68,0.224 0.5972,0 1.1112,-0.0747 1.5402,-0.224 0.448,-0.1493 0.793,-0.3733 1.036,-0.672 0.261,-0.28 0.392,-0.616 0.392,-1.008 0,-0.504 -0.177,-0.9147 -0.532,-1.232 -0.355,-0.3173 -1.064,-0.5133 -2.128,-0.588 -0.9522,-0.0747 -1.8015,-0.1773 -2.5482,-0.308 -0.728,-0.1493 -1.372,-0.3173 -1.932,-0.504 -0.56,-0.2053 -1.036,-0.4293 -1.428,-0.672 -0.3733,-0.2427 -0.6813,-0.4853 -0.924,-0.728 v -0.644 l 2.996,-3.22 2.716,0.868 -3.528,3.472 1.064,-1.848 c 0.2054,0.112 0.4014,0.224 0.588,0.336 0.2054,0.0933 0.4574,0.1867 0.756,0.28 0.2987,0.0747 0.6907,0.1493 1.176,0.224 0.4854,0.0747 1.1012,0.14 1.8482,0.196 1.232,0.112 2.24,0.3453 3.024,0.7 0.803,0.3547 1.391,0.8307 1.764,1.428 0.373,0.5787 0.56,1.2973 0.56,2.156 0,0.84 -0.233,1.624 -0.7,2.352 -0.448,0.7467 -1.148,1.344 -2.1,1.792 -0.952,0.4667 -2.156,0.7 -3.6122,0.7 z m 0,-10.668 c -1.176,0 -2.1933,-0.224 -3.052,-0.672 -0.84,-0.4667 -1.4933,-1.0827 -1.96,-1.848 -0.448,-0.784 -0.672,-1.652 -0.672,-2.604 0,-0.952 0.224,-1.8107 0.672,-2.576 0.4667,-0.784 1.12,-1.4093 1.96,-1.876 0.8587,-0.4667 1.876,-0.7 3.052,-0.7 1.1952,0 2.2122,0.2333 3.0522,0.7 0.859,0.4667 1.512,1.092 1.96,1.876 0.448,0.7653 0.672,1.624 0.672,2.576 0,0.952 -0.224,1.82 -0.672,2.604 -0.448,0.7653 -1.101,1.3813 -1.96,1.848 -0.84,0.448 -1.857,0.672 -3.0522,0.672 z m 0,-2.884 c 0.7282,0 1.3162,-0.1867 1.7642,-0.56 0.448,-0.3733 0.672,-0.924 0.672,-1.652 0,-0.728 -0.224,-1.2787 -0.672,-1.652 -0.448,-0.392 -1.036,-0.588 -1.7642,-0.588 -0.7093,0 -1.2973,0.196 -1.764,0.588 -0.448,0.3733 -0.672,0.924 -0.672,1.652 0,0.728 0.224,1.2787 0.672,1.652 0.4667,0.3733 1.0547,0.56 1.764,0.56 z m 2.3522,-4.368 -0.616,-2.688 h 5.796 v 2.24 z m 14.481,11.76 c -1.419,0 -2.679,-0.2987 -3.78,-0.896 -1.083,-0.616 -1.932,-1.4653 -2.548,-2.548 -0.598,-1.1013 -0.896,-2.3707 -0.896,-3.808 0,-1.4747 0.298,-2.772 0.896,-3.892 0.597,-1.1387 1.437,-2.0253 2.52,-2.66 1.101,-0.6533 2.37,-0.98 3.808,-0.98 1.4,0 2.622,0.308 3.668,0.924 1.045,0.616 1.857,1.4467 2.436,2.492 0.578,1.0453 0.868,2.2307 0.868,3.556 v 0.644 c 0,0.224 -0.019,0.4573 -0.056,0.7 h -11.452 v -2.296 h 7.7 c -0.056,-0.9147 -0.383,-1.6333 -0.98,-2.156 -0.579,-0.5227 -1.307,-0.784 -2.184,-0.784 -0.635,0 -1.223,0.1493 -1.764,0.448 -0.542,0.28 -0.971,0.7187 -1.288,1.316 -0.299,0.5973 -0.448,1.3533 -0.448,2.268 v 0.812 c 0,0.7653 0.14,1.4373 0.42,2.016 0.298,0.56 0.709,0.9987 1.232,1.316 0.522,0.2987 1.129,0.448 1.82,0.448 0.69,0 1.26,-0.1493 1.708,-0.448 0.466,-0.2987 0.812,-0.6813 1.036,-1.148 h 3.864 c -0.262,0.8773 -0.7,1.6707 -1.316,2.38 -0.616,0.7093 -1.372,1.2693 -2.268,1.68 -0.896,0.4107 -1.895,0.616 -2.996,0.616 z m 16.685,-0.336 v -19.6 h 6.888 c 1.382,0 2.52,0.224 3.416,0.672 0.915,0.4293 1.596,1.0267 2.044,1.792 0.448,0.7467 0.672,1.5867 0.672,2.52 0,1.008 -0.224,1.848 -0.672,2.52 -0.429,0.672 -0.998,1.1853 -1.708,1.54 -0.69,0.3547 -1.428,0.5693 -2.212,0.644 l 0.392,-0.28 c 0.84,0.0187 1.615,0.2427 2.324,0.672 0.71,0.4293 1.27,1.008 1.68,1.736 0.43,0.728 0.644,1.54 0.644,2.436 0,0.9893 -0.242,1.8947 -0.728,2.716 -0.485,0.8027 -1.204,1.4467 -2.156,1.932 -0.933,0.4667 -2.09,0.7 -3.472,0.7 z m 2.352,-1.96 h 4.508 c 1.326,0 2.352,-0.308 3.08,-0.924 0.747,-0.6347 1.12,-1.512 1.12,-2.632 0,-1.1013 -0.382,-1.9787 -1.148,-2.632 -0.746,-0.672 -1.782,-1.008 -3.108,-1.008 h -4.452 z m 0,-9.072 h 4.368 c 1.27,0 2.231,-0.2987 2.884,-0.896 0.672,-0.5973 1.008,-1.4093 1.008,-2.436 0,-0.9893 -0.336,-1.7827 -1.008,-2.38 -0.653,-0.5973 -1.642,-0.896 -2.968,-0.896 h -4.284 z m 14.359,11.032 v -13.888 h 2.352 v 13.888 z m 1.176,-16.884 c -0.466,0 -0.858,-0.1493 -1.176,-0.448 -0.298,-0.3173 -0.448,-0.7187 -0.448,-1.204 0,-0.448 0.15,-0.8213 0.448,-1.12 0.318,-0.2987 0.71,-0.448 1.176,-0.448 0.448,0 0.831,0.1493 1.148,0.448 0.318,0.2987 0.476,0.6813 0.476,1.148 0,0.448 -0.158,0.8307 -0.476,1.148 -0.317,0.3173 -0.7,0.476 -1.148,0.476 z m 11.271,17.22 c -1.307,0 -2.483,-0.2987 -3.528,-0.896 -1.046,-0.5973 -1.876,-1.4373 -2.492,-2.52 -0.598,-1.1013 -0.896,-2.3893 -0.896,-3.864 0,-1.4747 0.308,-2.7533 0.924,-3.836 0.616,-1.1013 1.446,-1.9507 2.492,-2.548 1.064,-0.5973 2.249,-0.896 3.556,-0.896 1.306,0 2.482,0.2987 3.528,0.896 1.045,0.5973 1.866,1.4467 2.464,2.548 0.616,1.0827 0.924,2.3613 0.924,3.836 0,1.4747 -0.308,2.7627 -0.924,3.864 -0.616,1.0827 -1.456,1.9227 -2.52,2.52 -1.046,0.5973 -2.222,0.896 -3.528,0.896 z m 0,-1.96 c 0.802,0 1.549,-0.196 2.24,-0.588 0.69,-0.4107 1.25,-1.008 1.68,-1.792 0.429,-0.784 0.644,-1.764 0.644,-2.94 0,-1.1947 -0.215,-2.184 -0.644,-2.968 -0.411,-0.784 -0.962,-1.372 -1.652,-1.764 -0.691,-0.392 -1.428,-0.588 -2.212,-0.588 -0.784,0 -1.531,0.196 -2.24,0.588 -0.691,0.392 -1.251,0.98 -1.68,1.764 -0.43,0.784 -0.644,1.7733 -0.644,2.968 0,1.176 0.214,2.156 0.644,2.94 0.429,0.784 0.98,1.3813 1.652,1.792 0.69,0.392 1.428,0.588 2.212,0.588 z m 9.913,1.624 v -13.888 h 2.1 l 0.168,2.408 h 0.028 c 0.467,-0.84 1.111,-1.5027 1.932,-1.988 0.822,-0.504 1.774,-0.756 2.856,-0.756 1.083,0 2.026,0.224 2.828,0.672 0.803,0.4293 1.428,1.1013 1.876,2.016 0.448,0.896 0.672,2.0347 0.672,3.416 v 8.12 h -2.352 v -7.868 c 0,-1.4373 -0.308,-2.52 -0.924,-3.248 -0.616,-0.728 -1.502,-1.092 -2.66,-1.092 -0.802,0 -1.521,0.196 -2.156,0.588 -0.616,0.392 -1.11,0.9613 -1.484,1.708 -0.354,0.728 -0.532,1.6333 -0.532,2.716 v 7.196 z m 21.913,0.336 c -1.326,0 -2.502,-0.2987 -3.528,-0.896 -1.027,-0.616 -1.839,-1.4653 -2.436,-2.548 -0.579,-1.1013 -0.868,-2.38 -0.868,-3.836 0,-1.4747 0.289,-2.7533 0.868,-3.836 0.578,-1.0827 1.381,-1.9227 2.408,-2.52 1.045,-0.616 2.249,-0.924 3.612,-0.924 1.362,0 2.529,0.308 3.5,0.924 0.97,0.5973 1.717,1.3907 2.24,2.38 0.522,0.9707 0.784,2.0347 0.784,3.192 v 0.616 c 0,0.2053 -0.01,0.4387 -0.028,0.7 h -11.62 v -1.82 h 9.324 c -0.056,-1.2693 -0.486,-2.2587 -1.288,-2.968 -0.784,-0.7093 -1.774,-1.064 -2.968,-1.064 -0.803,0 -1.55,0.1773 -2.24,0.532 -0.691,0.3547 -1.251,0.8773 -1.68,1.568 -0.411,0.672 -0.616,1.5307 -0.616,2.576 v 0.784 c 0,1.1387 0.214,2.0907 0.644,2.856 0.429,0.7653 0.989,1.344 1.68,1.736 0.709,0.3733 1.446,0.56 2.212,0.56 0.97,0 1.782,-0.224 2.436,-0.672 0.653,-0.448 1.129,-1.0547 1.428,-1.82 h 2.324 c -0.243,0.8587 -0.644,1.624 -1.204,2.296 -0.56,0.672 -1.26,1.204 -2.1,1.596 -0.822,0.392 -1.783,0.588 -2.884,0.588 z m 14.364,-0.336 c -0.84,0 -1.568,-0.1307 -2.184,-0.392 -0.616,-0.2613 -1.092,-0.7 -1.428,-1.316 -0.317,-0.6347 -0.476,-1.484 -0.476,-2.548 v -7.728 h -2.408 v -1.904 h 2.408 l 0.308,-3.332 h 2.044 v 3.332 h 4.088 v 1.904 h -4.088 v 7.728 c 0,0.896 0.178,1.5027 0.532,1.82 0.355,0.3173 0.98,0.476 1.876,0.476 h 1.456 v 1.96 z m 7.73,0 -4.004,-13.888 h 2.352 l 3.164,11.872 -0.42,-0.028 3.416,-11.844 h 2.744 l 3.444,11.844 -0.42,0.028 3.108,-11.872 h 2.38 l -4.004,13.888 h -2.52 l -3.584,-12.292 h 0.448 l -3.584,12.292 z m 23.9,0.336 c -1.307,0 -2.483,-0.2987 -3.528,-0.896 -1.045,-0.5973 -1.876,-1.4373 -2.492,-2.52 -0.597,-1.1013 -0.896,-2.3893 -0.896,-3.864 0,-1.4747 0.308,-2.7533 0.924,-3.836 0.616,-1.1013 1.447,-1.9507 2.492,-2.548 1.064,-0.5973 2.249,-0.896 3.556,-0.896 1.307,0 2.483,0.2987 3.528,0.896 1.045,0.5973 1.867,1.4467 2.464,2.548 0.616,1.0827 0.924,2.3613 0.924,3.836 0,1.4747 -0.308,2.7627 -0.924,3.864 -0.616,1.0827 -1.456,1.9227 -2.52,2.52 -1.045,0.5973 -2.221,0.896 -3.528,0.896 z m 0,-1.96 c 0.803,0 1.549,-0.196 2.24,-0.588 0.691,-0.4107 1.251,-1.008 1.68,-1.792 0.429,-0.784 0.644,-1.764 0.644,-2.94 0,-1.1947 -0.215,-2.184 -0.644,-2.968 -0.411,-0.784 -0.961,-1.372 -1.652,-1.764 -0.691,-0.392 -1.428,-0.588 -2.212,-0.588 -0.784,0 -1.531,0.196 -2.24,0.588 -0.691,0.392 -1.251,0.98 -1.68,1.764 -0.429,0.784 -0.644,1.7733 -0.644,2.968 0,1.176 0.215,2.156 0.644,2.94 0.429,0.784 0.98,1.3813 1.652,1.792 0.691,0.392 1.428,0.588 2.212,0.588 z m 9.914,1.624 v -13.888 h 2.1 l 0.224,2.772 h 0.028 c 0.336,-0.728 0.737,-1.316 1.204,-1.764 0.485,-0.4667 1.054,-0.8027 1.707,-1.008 0.654,-0.224 1.41,-0.336 2.269,-0.336 v 2.464 h -0.644 c -0.654,0 -1.26,0.084 -1.82,0.252 -0.542,0.168 -1.018,0.4293 -1.428,0.784 -0.411,0.3547 -0.728,0.84 -0.952,1.456 -0.224,0.5973 -0.336,1.3347 -0.336,2.212 v 7.056 z m 18.552,0 -6.748,-7.644 6.076,-6.244 h 2.884 l -6.972,7.084 0.028,-1.68 7.728,8.484 z m -8.708,0 v -20.02 h 2.352 v 20.02 z m 18.253,0.336 c -1.101,0 -2.091,-0.1867 -2.968,-0.56 -0.877,-0.392 -1.587,-0.9333 -2.128,-1.624 -0.523,-0.7093 -0.849,-1.54 -0.98,-2.492 h 2.408 c 0.112,0.4853 0.317,0.9333 0.616,1.344 0.299,0.4107 0.7,0.7467 1.204,1.008 0.523,0.2427 1.148,0.364 1.876,0.364 0.672,0 1.223,-0.0933 1.652,-0.28 0.429,-0.2053 0.747,-0.4667 0.952,-0.784 0.205,-0.336 0.308,-0.6907 0.308,-1.064 0,-0.5413 -0.14,-0.952 -0.42,-1.232 -0.261,-0.2987 -0.663,-0.532 -1.204,-0.7 -0.523,-0.1867 -1.148,-0.364 -1.876,-0.532 -0.56,-0.1307 -1.129,-0.2893 -1.708,-0.476 -0.579,-0.1867 -1.111,-0.42 -1.596,-0.7 -0.467,-0.2987 -0.849,-0.6627 -1.148,-1.092 -0.28,-0.448 -0.42,-0.9893 -0.42,-1.624 0,-0.8027 0.205,-1.512 0.616,-2.128 0.411,-0.616 0.989,-1.1013 1.736,-1.456 0.765,-0.3547 1.661,-0.532 2.688,-0.532 1.475,0 2.679,0.364 3.612,1.092 0.952,0.728 1.503,1.7827 1.652,3.164 h -2.324 c -0.075,-0.728 -0.373,-1.288 -0.896,-1.68 -0.504,-0.4107 -1.195,-0.616 -2.072,-0.616 -0.859,0 -1.512,0.1773 -1.96,0.532 -0.448,0.3547 -0.672,0.8213 -0.672,1.4 0,0.3547 0.121,0.6627 0.364,0.924 0.261,0.2613 0.635,0.4853 1.12,0.672 0.504,0.1867 1.101,0.364 1.792,0.532 0.877,0.2053 1.699,0.448 2.464,0.728 0.765,0.28 1.391,0.6907 1.876,1.232 0.504,0.5227 0.756,1.2693 0.756,2.24 0.019,0.8587 -0.196,1.6147 -0.644,2.268 -0.429,0.6533 -1.045,1.1667 -1.848,1.54 -0.784,0.3547 -1.727,0.532 -2.828,0.532 z"
         fill="#666666"
         stroke-width="0"
         id="path4" /></g><g
       style="fill:none"
       id="g1"
       transform="matrix(0.26458333,0,0,0.26458333,12.507629,141.66264)"><path
         d="m 187.975,49.0037 c -1.262,0 -2.381,-0.2093 -3.356,-0.6281 -0.975,-0.4188 -1.75,-0.9899 -2.323,-1.7132 -0.574,-0.7424 -0.918,-1.58 -1.033,-2.5127 h 3.872 c 0.096,0.3426 0.259,0.6662 0.488,0.9708 0.229,0.2855 0.535,0.5235 0.918,0.7138 0.402,0.1713 0.86,0.257 1.377,0.257 0.516,0 0.937,-0.0666 1.262,-0.1999 0.325,-0.1523 0.564,-0.3426 0.717,-0.571 0.172,-0.2475 0.258,-0.495 0.258,-0.7424 0,-0.3807 -0.124,-0.6663 -0.373,-0.8566 -0.229,-0.2094 -0.573,-0.3807 -1.032,-0.514 -0.44,-0.1523 -0.966,-0.3046 -1.578,-0.4568 -0.612,-0.1523 -1.243,-0.3236 -1.893,-0.514 -0.631,-0.1904 -1.215,-0.4283 -1.75,-0.7138 -0.535,-0.3046 -0.966,-0.6853 -1.291,-1.1422 -0.325,-0.4759 -0.487,-1.066 -0.487,-1.7703 0,-0.8185 0.229,-1.5609 0.688,-2.2271 0.459,-0.6853 1.119,-1.2278 1.979,-1.6276 0.88,-0.3997 1.932,-0.5996 3.156,-0.5996 1.702,0 3.059,0.3902 4.073,1.1707 1.032,0.7805 1.635,1.856 1.807,3.2265 h -3.643 c -0.096,-0.4568 -0.344,-0.809 -0.746,-1.0565 -0.382,-0.2665 -0.889,-0.3997 -1.52,-0.3997 -0.65,0 -1.157,0.1237 -1.52,0.3712 -0.345,0.2475 -0.517,0.552 -0.517,0.9137 0,0.2665 0.115,0.4949 0.344,0.6853 0.249,0.1903 0.593,0.3521 1.033,0.4854 0.44,0.1332 0.966,0.2855 1.578,0.4568 1.032,0.2475 1.96,0.5235 2.782,0.8281 0.842,0.2855 1.511,0.6948 2.008,1.2278 0.497,0.5139 0.746,1.2658 0.746,2.2557 0.019,0.8947 -0.22,1.6942 -0.717,2.3985 -0.478,0.7043 -1.176,1.2658 -2.094,1.6846 -0.899,0.3998 -1.97,0.5996 -3.213,0.5996 z"
         fill="#353a3f"
         id="path1-2" /><path
         d="m 172.396,49.0037 c -1.453,0 -2.744,-0.3045 -3.872,-0.9137 -1.109,-0.6091 -1.979,-1.4657 -2.61,-2.5698 -0.631,-1.104 -0.947,-2.3699 -0.947,-3.7976 0,-1.4847 0.306,-2.7887 0.918,-3.9118 0.631,-1.1421 1.501,-2.0368 2.61,-2.684 1.129,-0.6472 2.438,-0.9708 3.93,-0.9708 1.415,0 2.658,0.3046 3.729,0.9137 1.09,0.6092 1.932,1.4467 2.524,2.5127 0.612,1.047 0.918,2.2367 0.918,3.5692 0,0.1903 0,0.4092 0,0.6567 0,0.2284 -0.019,0.4664 -0.057,0.7138 h -11.818 v -2.3699 h 7.945 c -0.057,-0.8756 -0.392,-1.5799 -1.004,-2.1129 -0.592,-0.533 -1.338,-0.7995 -2.237,-0.7995 -0.669,0 -1.281,0.1523 -1.836,0.4568 -0.554,0.2856 -0.994,0.7234 -1.319,1.3135 -0.325,0.5901 -0.488,1.342 -0.488,2.2557 v 0.828 c 0,0.7805 0.153,1.4563 0.459,2.0273 0.306,0.5521 0.727,0.9804 1.262,1.2849 0.555,0.3046 1.176,0.4569 1.865,0.4569 0.707,0 1.3,-0.1523 1.778,-0.4569 0.478,-0.3236 0.842,-0.7328 1.09,-1.2278 h 3.959 c -0.287,0.8947 -0.746,1.7132 -1.377,2.4556 -0.631,0.7234 -1.406,1.304 -2.324,1.7418 -0.918,0.4188 -1.95,0.6281 -3.098,0.6281 z"
         fill="#353a3f"
         id="path2-4" /><path
         d="m 155.464,54.9999 c -1.358,0 -2.553,-0.1713 -3.585,-0.5139 -1.014,-0.3236 -1.798,-0.809 -2.353,-1.4562 -0.554,-0.6473 -0.831,-1.4467 -0.831,-2.3985 0,-0.6663 0.172,-1.2849 0.516,-1.856 0.344,-0.5711 0.841,-1.0945 1.492,-1.5704 0.669,-0.4759 1.491,-0.8852 2.466,-1.2278 l 1.435,1.9131 c -0.861,0.2855 -1.482,0.6281 -1.865,1.0279 -0.382,0.4188 -0.574,0.8756 -0.574,1.3705 0,0.4188 0.144,0.771 0.431,1.0565 0.287,0.2855 0.679,0.4949 1.176,0.6282 0.497,0.1523 1.061,0.2284 1.692,0.2284 0.612,0 1.138,-0.0761 1.578,-0.2284 0.459,-0.1523 0.803,-0.3712 1.032,-0.6567 0.249,-0.2856 0.373,-0.6187 0.373,-0.9994 0,-0.514 -0.181,-0.9232 -0.545,-1.2278 -0.363,-0.2855 -1.071,-0.4664 -2.122,-0.5425 -0.976,-0.0762 -1.836,-0.1904 -2.582,-0.3427 -0.746,-0.1522 -1.405,-0.3236 -1.979,-0.5139 -0.555,-0.1904 -1.033,-0.4093 -1.434,-0.6567 -0.402,-0.2475 -0.718,-0.495 -0.947,-0.7424 v -0.6568 l 3.041,-3.2265 2.495,0.8566 -3.327,3.5121 1.09,-1.7989 c 0.191,0.0952 0.382,0.1904 0.573,0.2856 0.211,0.0951 0.469,0.1808 0.775,0.2569 0.325,0.0762 0.727,0.1523 1.205,0.2285 0.478,0.0571 1.09,0.1237 1.836,0.1998 1.262,0.0952 2.294,0.3236 3.097,0.6853 0.804,0.3427 1.396,0.8185 1.779,1.4277 0.382,0.5901 0.574,1.3134 0.574,2.17 0,0.7995 -0.239,1.5609 -0.718,2.2843 -0.458,0.7233 -1.166,1.3135 -2.122,1.7703 -0.956,0.4759 -2.18,0.7138 -3.672,0.7138 z m 0.029,-10.5361 c -1.205,0 -2.247,-0.2285 -3.127,-0.6853 -0.86,-0.4569 -1.53,-1.0755 -2.008,-1.856 -0.459,-0.7804 -0.688,-1.6466 -0.688,-2.5983 0,-0.9518 0.229,-1.8179 0.688,-2.5984 0.478,-0.7805 1.148,-1.3991 2.008,-1.856 0.88,-0.4758 1.922,-0.7138 3.127,-0.7138 1.205,0 2.237,0.238 3.098,0.7138 0.879,0.4569 1.549,1.0755 2.008,1.856 0.459,0.7805 0.688,1.6466 0.688,2.5984 0,0.9517 -0.229,1.8179 -0.688,2.5983 -0.459,0.7805 -1.129,1.3991 -2.008,1.856 -0.861,0.4568 -1.893,0.6853 -3.098,0.6853 z m 0,-2.8554 c 0.727,0 1.319,-0.1903 1.778,-0.571 0.478,-0.3998 0.717,-0.9709 0.717,-1.7132 0,-0.7424 -0.239,-1.304 -0.717,-1.6847 -0.459,-0.3807 -1.051,-0.5711 -1.778,-0.5711 -0.746,0 -1.358,0.1904 -1.836,0.5711 -0.459,0.3807 -0.688,0.9423 -0.688,1.6847 0,0.7423 0.229,1.3134 0.688,1.7132 0.478,0.3807 1.09,0.571 1.836,0.571 z m 2.323,-4.4543 -0.631,-2.6555 h 5.967 v 2.1701 z"
         fill="#353a3f"
         id="path3-8" /><path
         d="M 132.091,48.6611 V 34.4986 h 3.356 l 0.315,2.3414 h 0.058 c 0.459,-0.8185 1.09,-1.4657 1.893,-1.9416 0.803,-0.4949 1.788,-0.7424 2.954,-0.7424 1.186,0 2.19,0.257 3.012,0.7709 0.822,0.495 1.444,1.2278 1.865,2.1987 0.44,0.9708 0.659,2.17 0.659,3.5977 v 7.9378 h -3.843 v -7.5952 c 0,-1.1802 -0.239,-2.0844 -0.717,-2.7126 -0.478,-0.6281 -1.243,-0.9422 -2.295,-0.9422 -0.65,0 -1.234,0.1618 -1.75,0.4854 -0.497,0.3046 -0.899,0.7519 -1.205,1.342 -0.287,0.5711 -0.43,1.2754 -0.43,2.1129 v 7.3097 z"
         fill="#353a3f"
         id="path4-3" /><path
         d="m 122.478,49.0037 c -1.453,0 -2.744,-0.3045 -3.872,-0.9137 -1.109,-0.6091 -1.979,-1.4657 -2.61,-2.5698 -0.631,-1.104 -0.947,-2.3699 -0.947,-3.7976 0,-1.4847 0.306,-2.7887 0.918,-3.9118 0.631,-1.1421 1.501,-2.0368 2.61,-2.684 1.129,-0.6472 2.438,-0.9708 3.93,-0.9708 1.415,0 2.658,0.3046 3.729,0.9137 1.09,0.6092 1.932,1.4467 2.524,2.5127 0.612,1.047 0.918,2.2367 0.918,3.5692 0,0.1903 0,0.4092 0,0.6567 0,0.2284 -0.019,0.4664 -0.057,0.7138 h -11.818 v -2.3699 h 7.945 c -0.057,-0.8756 -0.392,-1.5799 -1.003,-2.1129 -0.593,-0.533 -1.339,-0.7995 -2.238,-0.7995 -0.669,0 -1.281,0.1523 -1.836,0.4568 -0.554,0.2856 -0.994,0.7234 -1.319,1.3135 -0.325,0.5901 -0.488,1.342 -0.488,2.2557 v 0.828 c 0,0.7805 0.153,1.4563 0.459,2.0273 0.306,0.5521 0.727,0.9804 1.262,1.2849 0.555,0.3046 1.176,0.4569 1.865,0.4569 0.707,0 1.3,-0.1523 1.778,-0.4569 0.478,-0.3236 0.842,-0.7328 1.09,-1.2278 h 3.959 c -0.287,0.8947 -0.746,1.7132 -1.377,2.4556 -0.631,0.7234 -1.406,1.304 -2.324,1.7418 -0.918,0.4188 -1.95,0.6281 -3.098,0.6281 z"
         fill="#353a3f"
         id="path5" /><path
         d="M 108.534,48.6612 V 28.3883 h 3.873 v 20.2729 z"
         fill="#353a3f"
         id="path6" /><path
         d="M 101.419,48.6612 V 28.3883 h 3.872 v 20.2729 z"
         fill="#353a3f"
         id="path7" /><path
         d="m 90.0162,49.0037 c -1.1666,0 -2.1323,-0.1903 -2.8972,-0.571 -0.7649,-0.3807 -1.3291,-0.8947 -1.6924,-1.5419 -0.3633,-0.6472 -0.545,-1.361 -0.545,-2.1415 0,-0.8756 0.2199,-1.6466 0.6597,-2.3128 0.459,-0.6663 1.1474,-1.1802 2.0653,-1.5419 0.918,-0.3807 2.0749,-0.5711 3.4709,-0.5711 h 3.5856 c 0,-0.7043 -0.1052,-1.2754 -0.3156,-1.7132 -0.1912,-0.4568 -0.4972,-0.7995 -0.9179,-1.0279 -0.4015,-0.2284 -0.9179,-0.3426 -1.5489,-0.3426 -0.7458,0 -1.3865,0.1713 -1.9219,0.5139 -0.5163,0.3236 -0.8414,0.8281 -0.9753,1.5134 h -3.7577 c 0.1147,-1.047 0.459,-1.9512 1.0327,-2.7126 0.5928,-0.7614 1.3768,-1.3515 2.3521,-1.7703 0.9753,-0.4188 2.0653,-0.6282 3.2701,-0.6282 1.3768,0 2.5625,0.2284 3.5569,0.6853 0.9944,0.4378 1.7593,1.0945 2.2947,1.9702 0.5355,0.8566 0.8032,1.9035 0.8032,3.1408 v 8.7088 h -3.2414 l -0.4302,-2.1986 h -0.0574 c -0.2486,0.3997 -0.5354,0.7614 -0.8605,1.085 -0.3251,0.3046 -0.6885,0.5711 -1.0901,0.7995 -0.3824,0.2094 -0.8127,0.3712 -1.2908,0.4854 -0.478,0.1142 -0.9944,0.1713 -1.5489,0.1713 z m 1.09,-2.9695 c 0.5163,0 0.9753,-0.0857 1.3768,-0.257 0.4016,-0.1903 0.7363,-0.4378 1.004,-0.7424 0.2869,-0.3045 0.5068,-0.6567 0.6598,-1.0564 0.1721,-0.4188 0.2868,-0.8471 0.3442,-1.2849 h -2.9832 c -0.5929,0 -1.0805,0.0761 -1.463,0.2284 -0.3633,0.1332 -0.631,0.3331 -0.8031,0.5996 -0.1721,0.2475 -0.2582,0.5425 -0.2582,0.8852 0,0.3426 0.0861,0.6376 0.2582,0.8851 0.1721,0.2475 0.4207,0.4378 0.7458,0.5711 0.3251,0.1142 0.698,0.1713 1.1187,0.1713 z"
         fill="#353a3f"
         id="path8" /><path
         d="M 68.3083,48.6612 V 28.3883 h 3.8438 v 8.3661 h 0.0574 c 0.478,-0.8185 1.1187,-1.4562 1.9218,-1.913 0.8032,-0.4569 1.7498,-0.6853 2.8398,-0.6853 1.1474,0 2.1227,0.257 2.9259,0.7709 0.8223,0.4949 1.4438,1.2278 1.8645,2.1986 0.4398,0.9708 0.6597,2.1701 0.6597,3.5977 v 7.9379 H 78.5775 V 41.066 c 0,-1.1802 -0.2391,-2.0844 -0.7171,-2.7126 -0.459,-0.6282 -1.2048,-0.9422 -2.2374,-0.9422 -0.6694,0 -1.2622,0.1618 -1.7785,0.4854 -0.5163,0.3045 -0.9275,0.7519 -1.2334,1.342 -0.2869,0.571 -0.4303,1.2754 -0.4303,2.1129 v 7.3097 z"
         fill="#353a3f"
         id="path9" /><path
         d="m 56.6776,49.0038 c -2.0079,0 -3.7481,-0.4283 -5.2206,-1.2849 -1.4534,-0.8756 -2.5721,-2.0844 -3.3561,-3.6263 -0.7841,-1.5609 -1.1761,-3.3598 -1.1761,-5.3966 0,-2.0368 0.392,-3.8356 1.1761,-5.3965 0.784,-1.561 1.9027,-2.7792 3.3561,-3.6549 1.4533,-0.8756 3.1936,-1.3134 5.2206,-1.3134 2.4478,0 4.4461,0.5996 5.9951,1.7988 1.549,1.1993 2.5147,2.8934 2.8972,5.0825 h -4.2454 c -0.2486,-1.066 -0.7649,-1.894 -1.5489,-2.4841 -0.7841,-0.6091 -1.8263,-0.9137 -3.1267,-0.9137 -1.2047,0 -2.2469,0.2855 -3.1266,0.8566 -0.8606,0.552 -1.5203,1.342 -1.9793,2.3699 -0.4589,1.0279 -0.6884,2.2462 -0.6884,3.6548 0,1.4087 0.2295,2.6269 0.6884,3.6549 0.459,1.0088 1.1187,1.7893 1.9793,2.3413 0.8797,0.5521 1.9219,0.8281 3.1266,0.8281 1.3004,0 2.3426,-0.276 3.1267,-0.8281 0.784,-0.552 1.3003,-1.3325 1.5489,-2.3413 h 4.2454 c -0.3634,2.0748 -1.3291,3.7024 -2.8972,4.8826 -1.549,1.1802 -3.5473,1.7703 -5.9951,1.7703 z"
         fill="#353a3f"
         id="path10" /><path
         d="m 4.43973,25.1834 -1.17264,0.7958 2.97142,4.3695 1.17264,-0.7958 z"
         fill="#669fc1"
         id="path11" /><path
         d="m 9.47688,8.76624 c 1.32712,0 2.40292,-1.07472 2.40292,-2.40045 0,-1.32574 -1.0758,-2.40046 -2.40292,-2.40046 -1.32709,0 -2.40291,1.07472 -2.40291,2.40046 0,1.32573 1.07582,2.40045 2.40291,2.40045 z"
         fill="#eb8231"
         id="path12" /><path
         d="m 12.6813,28.9438 -5.62271,1.526 0.37169,1.3667 5.62272,-1.5261 z"
         fill="#669fc1"
         id="path13" /><path
         d="m 8.68112,32.0002 -1.23215,0.7004 3.61413,6.3452 1.2321,-0.7004 z"
         fill="#669fc1"
         id="path14" /><path
         d="m 2.2292,15.5596 -0.5334,6.2155 1.41246,0.121 0.5334,-6.2155 z"
         fill="#669fc1"
         id="path15" /><path
         d="M 14.7774,12.868 4.76855,13.3955 4.84324,14.8097 14.852,14.2822 Z"
         fill="#669fc1"
         id="path16" /><path
         d="m 8.22303,7.14293 -4.2389,4.60027 1.04302,0.9591 4.2389,-4.60024 z"
         fill="#669fc1"
         id="path17" /><path
         d="M 19.4427,1.88693 10.4934,5.12854 10.9766,6.45992 19.926,3.21831 Z"
         fill="#669fc1"
         id="path18" /><path
         d="m 22.4892,2.56041 -0.4697,1.3362 8.9483,3.13921 0.4697,-1.3362 z"
         fill="#669fc1"
         id="path19" /><path
         d="m 11.2149,7.46468 -0.9568,1.04496 5.0261,4.59286 0.9569,-1.0449 z"
         fill="#669fc1"
         id="path20" /><path
         d="m 19.0182,3.93021 -2.6686,7.28099 1.3312,0.4869 2.6686,-7.28096 z"
         fill="#669fc1"
         id="path21" /><path
         d="m 28.1885,11.8704 -9.8987,0.7939 0.1134,1.4117 9.8988,-0.7939 z"
         fill="#669fc1"
         id="path22" /><path
         d="m 22.0222,4.30688 -1.0198,0.98377 6.4306,6.65225 1.0198,-0.9837 z"
         fill="#669fc1"
         id="path23" /><path
         d="m 27.5935,13.2841 -2.5471,5.866 1.3005,0.5636 2.5472,-5.866 z"
         fill="#669fc1"
         id="path24" /><path
         d="m 18.2952,14.6389 -0.9837,1.0198 5.2673,5.0708 0.9837,-1.0198 z"
         fill="#669fc1"
         id="path25" /><path
         d="m 5.01831,14.9201 -1.02832,0.9748 5.36224,5.6449 1.02827,-0.9749 z"
         fill="#669fc1"
         id="path26" /><path
         d="m 15.3389,29.1594 -2.6156,-0.8214 -2.0697,-4.8575 1.3113,-0.5523 1.8075,4.2556 1.3042,0.4107 8.2223,-6.0117 0.8364,1.1471 z"
         fill="#669fc1"
         id="path27" /><path
         d="m 32.8324,7.52744 -1.0751,0.92312 4.2923,4.98864 1.0751,-0.9231 z"
         fill="#669fc1"
         id="path28" /><path
         d="m 35.3725,14.5545 -8.0622,5.0699 0.7552,1.1985 8.0622,-5.0699 z"
         fill="#669fc1"
         id="path29" /><path
         d="m 37.8173,15.9746 -1.412,0.1254 0.5906,6.637 1.4121,-0.1254 z"
         fill="#669fc1"
         id="path30" /><path
         d="m 28.0513,21.7678 -0.1973,1.4024 10.0585,1.4122 0.1973,-1.4025 z"
         fill="#669fc1"
         id="path31" /><path
         d="m 16.0154,29.2871 -0.5193,1.3178 7.3077,2.8742 0.5194,-1.3178 z"
         fill="#669fc1"
         id="path32" /><path
         d="m 35.9822,24.907 -3.614,5.8847 1.2083,0.7406 3.6141,-5.8847 z"
         fill="#669fc1"
         id="path33" /><path
         d="m 26.6969,24.0898 -1.0629,0.9371 6.4257,7.2734 1.0629,-0.9371 z"
         fill="#669fc1"
         id="path34" /><path
         d="m 23.2116,33.5546 -4.5339,4.6429 1.0148,0.9889 4.5339,-4.6429 z"
         fill="#669fc1"
         id="path35" /><path
         d="m 27.7079,40.921 -3.9411,-5.4878 1.1483,-0.8284 2.7573,3.8308 4.0332,-6.0047 1.1767,0.786 z"
         fill="#669fc1"
         id="path36" /><path
         d="m 14.4484,14.9987 -3.7189,5.2822 1.1595,0.8147 3.719,-5.2822 z"
         fill="#669fc1"
         id="path37" /><path
         d="m 13.1404,31.2764 -0.9727,6.026 1.3996,0.2254 0.9727,-6.026 z"
         fill="#669fc1"
         id="path38" /><path
         d="m 13.8361,32.3458 c 1.6011,0 2.8991,-1.2966 2.8991,-2.8961 0,-1.5995 -1.298,-2.8961 -2.8991,-2.8961 -1.6011,0 -2.8991,1.2966 -2.8991,2.8961 0,1.5995 1.298,2.8961 2.8991,2.8961 z"
         fill="#6db56d"
         id="path39" /><path
         d="m 16.3524,16.4634 c 1.6012,0 2.8991,-1.2967 2.8991,-2.8961 0,-1.5995 -1.2979,-2.8962 -2.8991,-2.8962 -1.6011,0 -2.899,1.2967 -2.899,2.8962 0,1.5994 1.2979,2.8961 2.899,2.8961 z"
         fill="#6db56d"
         id="path40" /><path
         d="m 19.1807,40.5953 c 1.053,0 1.9067,-0.8528 1.9067,-1.9048 0,-1.0519 -0.8537,-1.9047 -1.9067,-1.9047 -1.0531,0 -1.9068,0.8528 -1.9068,1.9047 0,1.052 0.8537,1.9048 1.9068,1.9048 z"
         fill="#6db56d"
         id="path41" /><path
         d="m 7.24413,33.061 c 1.05305,0 1.90672,-0.8528 1.90672,-1.9048 0,-1.0519 -0.85367,-1.9047 -1.90672,-1.9047 -1.05306,0 -1.90673,0.8528 -1.90673,1.9047 0,1.052 0.85367,1.9048 1.90673,1.9048 z"
         fill="#6db56d"
         id="path42" /><path
         d="m 10.4693,24.2311 c 1.3271,0 2.4029,-1.0747 2.4029,-2.4005 0,-1.3257 -1.0758,-2.4004 -2.4029,-2.4004 -1.32708,0 -2.40289,1.0747 -2.40289,2.4004 0,1.3258 1.07581,2.4005 2.40289,2.4005 z"
         fill="#eb8231"
         id="path43" /><path
         d="m 2.4029,26.0723 c 1.32708,0 2.4029,-1.0748 2.4029,-2.4005 0,-1.3257 -1.07582,-2.4004 -2.4029,-2.4004 C 1.07581,21.2714 0,22.3461 0,23.6718 c 0,1.3257 1.07581,2.4005 2.4029,2.4005 z"
         fill="#eb8231"
         id="path44" /><path
         d="m 9.47691,9.0141 c 1.46409,0 2.65099,-1.18567 2.65099,-2.64828 0,-1.46261 -1.1869,-2.64829 -2.65099,-2.64829 -1.4641,0 -2.65098,1.18568 -2.65098,2.64829 0,1.46261 1.18688,2.64828 2.65098,2.64828 z"
         fill="#eb8231"
         id="path45" /><path
         d="m 30.8976,9.0141 c 1.4641,0 2.651,-1.18567 2.651,-2.64828 0,-1.46261 -1.1869,-2.64829 -2.651,-2.64829 -1.4641,0 -2.651,1.18568 -2.651,2.64829 0,1.46261 1.1869,2.64828 2.651,2.64828 z"
         fill="#eb8231"
         id="path46" /><path
         d="m 37.1068,16.7465 c 1.4641,0 2.651,-1.1857 2.651,-2.6483 0,-1.4626 -1.1869,-2.6482 -2.651,-2.6482 -1.4641,0 -2.651,1.1856 -2.651,2.6482 0,1.4626 1.1869,2.6483 2.651,2.6483 z"
         fill="#eb8231"
         id="path47" /><path
         d="m 28.6221,14.4807 c 1.053,0 1.9067,-0.8528 1.9067,-1.9048 0,-1.052 -0.8537,-1.9048 -1.9067,-1.9048 -1.0531,0 -1.9068,0.8528 -1.9068,1.9048 0,1.052 0.8537,1.9048 1.9068,1.9048 z"
         fill="#eb8231"
         id="path48" /><path
         d="m 32.5916,34.0454 c 1.2214,0 2.2116,-0.9892 2.2116,-2.2093 0,-1.2201 -0.9902,-2.2093 -2.2116,-2.2093 -1.2213,0 -2.2115,0.9892 -2.2115,2.2093 0,1.2201 0.9902,2.2093 2.2115,2.2093 z"
         fill="#eb8231"
         id="path49" /><path
         d="m 27.9488,42.5709 c 1.4249,0 2.5801,-1.154 2.5801,-2.5775 0,-1.4235 -1.1552,-2.5775 -2.5801,-2.5775 -1.425,0 -2.5801,1.154 -2.5801,2.5775 0,1.4235 1.1551,2.5775 2.5801,2.5775 z"
         fill="#6db56d"
         id="path50" /><path
         d="m 23.7172,36.0422 c 1.3505,0 2.4454,-1.0937 2.4454,-2.4429 0,-1.3492 -1.0949,-2.4429 -2.4454,-2.4429 -1.3506,0 -2.4455,1.0937 -2.4455,2.4429 0,1.3492 1.0949,2.4429 2.4455,2.4429 z"
         fill="#eb8231"
         id="path51" /><path
         d="m 3.26773,17.2422 c 1.60111,0 2.89907,-1.2966 2.89907,-2.8961 0,-1.5995 -1.29796,-2.8961 -2.89907,-2.8961 -1.60112,0 -2.899078,1.2966 -2.899078,2.8961 0,1.5995 1.297958,2.8961 2.899078,2.8961 z"
         fill="#6db56d"
         id="path52" /><path
         d="m 12.3759,42.5708 c 1.6011,0 2.8991,-1.2966 2.8991,-2.8961 0,-1.5995 -1.298,-2.8961 -2.8991,-2.8961 -1.6011,0 -2.89909,1.2966 -2.89909,2.8961 0,1.5995 1.29799,2.8961 2.89909,2.8961 z"
         fill="#eb8231"
         id="path53" /><path
         d="m 37.695,27.0564 c 1.6011,0 2.899,-1.2966 2.899,-2.8961 0,-1.5995 -1.2979,-2.8961 -2.899,-2.8961 -1.6011,0 -2.8991,1.2966 -2.8991,2.8961 0,1.5995 1.298,2.8961 2.8991,2.8961 z"
         fill="#6db56d"
         id="path54" /><path
         d="m 20.173,5.79224 c 1.6011,0 2.8991,-1.29663 2.8991,-2.89612 C 23.0721,1.29664 21.7741,0 20.173,0 c -1.6011,0 -2.8991,1.29664 -2.8991,2.89612 0,1.59949 1.298,2.89612 2.8991,2.89612 z"
         fill="#6db56d"
         id="path55" /><path
         d="m 25.2199,25.7819 c 2.1844,0 3.9552,-1.769 3.9552,-3.9512 0,-2.1822 -1.7708,-3.9512 -3.9552,-3.9512 -2.1844,0 -3.9553,1.769 -3.9553,3.9512 0,2.1822 1.7709,3.9512 3.9553,3.9512 z"
         fill="#eb8231"
         id="path56" /><path
         d="M 26.8997,44.0366 H 13.4392 c -0.9239,0 -1.6728,0.7482 -1.6728,1.6711 v 0.0071 c 0,0.9229 0.7489,1.6711 1.6728,1.6711 h 13.4605 c 0.9238,0 1.6728,-0.7482 1.6728,-1.6711 v -0.0071 c 0,-0.9229 -0.749,-1.6711 -1.6728,-1.6711 z"
         fill="#669fc1"
         id="path57" /><path
         d="m 24.674,48.8517 h -8.4775 c -0.9239,0 -1.6728,0.7482 -1.6728,1.6711 v 0.0071 c 0,0.9229 0.7489,1.6711 1.6728,1.6711 h 8.4775 c 0.9239,0 1.6728,-0.7482 1.6728,-1.6711 v -0.0071 c 0,-0.9229 -0.7489,-1.6711 -1.6728,-1.6711 z"
         fill="#669fc1"
         id="path58" /><path
         d="m 59.8381,7.56232 c -0.0791,0.12974 -0.167,0.22921 -0.2636,0.29841 -0.0879,0.06054 -0.1977,0.09082 -0.3295,0.09082 -0.1494,0 -0.3251,-0.07352 -0.5272,-0.22057 C 58.5157,7.58394 58.261,7.42393 57.9534,7.25094 57.6547,7.0693 57.2901,6.90496 56.8596,6.75791 56.4378,6.61087 55.9238,6.53735 55.3176,6.53735 c -0.5711,0 -1.0763,0.07784 -1.5156,0.23354 -0.4305,0.14704 -0.7952,0.3503 -1.0939,0.60979 -0.2899,0.25949 -0.5096,0.56654 -0.6589,0.92117 -0.1494,0.34598 -0.2241,0.72224 -0.2241,1.12877 0,0.51897 0.1274,0.95148 0.3822,1.29738 0.2636,0.3374 0.6062,0.6272 1.028,0.8693 0.4305,0.2422 0.9137,0.4541 1.4497,0.6358 0.5448,0.173 1.0983,0.3546 1.6606,0.5449 0.5711,0.1903 1.1246,0.4065 1.6605,0.6487 0.5448,0.2335 1.028,0.5319 1.4498,0.8952 0.4305,0.3633 0.7731,0.8088 1.0279,1.3364 0.2636,0.5276 0.3954,1.1763 0.3954,1.9461 0,0.8131 -0.1405,1.5785 -0.4217,2.2965 -0.2812,0.7092 -0.6941,1.3277 -1.2389,1.8553 -0.5359,0.5276 -1.1993,0.9428 -1.99,1.2455 -0.782,0.3028 -1.6738,0.4541 -2.6754,0.4541 -1.2301,0 -2.3459,-0.2162 -3.3475,-0.6487 -1.0016,-0.4411 -1.8583,-1.0336 -2.57,-1.7775 l 0.7381,-1.1936 c 0.0703,-0.0952 0.1537,-0.173 0.2504,-0.2335 0.1054,-0.0692 0.2196,-0.1038 0.3426,-0.1038 0.1143,0 0.2417,0.0475 0.3822,0.1427 0.1494,0.0865 0.3163,0.199 0.5008,0.3373 0.1846,0.1384 0.3954,0.2898 0.6326,0.4541 0.2373,0.1643 0.5053,0.3158 0.804,0.4541 0.3075,0.1384 0.6545,0.2552 1.0411,0.3503 0.3866,0.0865 0.8215,0.1298 1.3048,0.1298 0.6062,0 1.1466,-0.0822 1.621,-0.2465 0.4745,-0.1644 0.8743,-0.3936 1.1993,-0.6877 0.3339,-0.3027 0.5887,-0.6617 0.7644,-1.0768 0.1758,-0.4152 0.2636,-0.8779 0.2636,-1.3883 0,-0.5622 -0.1318,-1.0206 -0.3954,-1.3753 -0.2548,-0.3632 -0.593,-0.666 -1.0148,-0.9082 -0.4217,-0.2421 -0.9049,-0.4454 -1.4497,-0.6098 -0.5447,-0.173 -1.0983,-0.3459 -1.6606,-0.5189 -0.5623,-0.1817 -1.1158,-0.3893 -1.6605,-0.6228 -0.5448,-0.2335 -1.028,-0.5363 -1.4498,-0.9082 -0.4217,-0.3719 -0.7643,-0.8347 -1.0279,-1.3882 -0.2548,-0.5623 -0.3822,-1.2542 -0.3822,-2.07594 0,-0.65736 0.1274,-1.2931 0.3822,-1.90722 0.2636,-0.61412 0.6414,-1.15904 1.1334,-1.63476 0.5008,-0.47573 1.1114,-0.85631 1.8319,-1.14174 0.7292,-0.28544 1.5639,-0.42815 2.504,-0.42815 1.0544,0 2.012,0.16434 2.8731,0.49302 0.8698,0.32868 1.6342,0.80441 2.2932,1.42717 z"
         fill="#353a3f"
         id="path59" /><path
         d="m 76.7954,15.8395 v 7.4083 H 74.2387 V 15.8395 L 67.3196,4.65564 H 69.56 c 0.2285,0 0.4086,0.05622 0.5404,0.16867 0.1318,0.10379 0.246,0.24218 0.3427,0.41517 l 4.3227,7.22672 c 0.1582,0.3027 0.3031,0.5882 0.4349,0.8563 0.1318,0.2595 0.246,0.5233 0.3427,0.7914 0.0967,-0.2681 0.2064,-0.5319 0.3295,-0.7914 0.123,-0.2681 0.2591,-0.5536 0.4085,-0.8563 L 80.591,5.23948 c 0.0791,-0.14704 0.1889,-0.28111 0.3295,-0.4022 0.1406,-0.12109 0.3207,-0.18164 0.5403,-0.18164 h 2.2537 z"
         fill="#353a3f"
         id="path60" /><path
         d="M 105.737,4.65564 V 23.2478 h -1.278 c -0.202,0 -0.374,-0.0346 -0.514,-0.1038 -0.132,-0.0692 -0.264,-0.186 -0.396,-0.3503 L 92.6238,8.78147 c 0.0175,0.21623 0.0307,0.42815 0.0395,0.63574 0.0088,0.20759 0.0131,0.4022 0.0131,0.58389 V 23.2478 H 90.436 V 4.65564 h 1.318 c 0.1142,0 0.2108,0.00865 0.2898,0.02595 0.0791,0.00865 0.1494,0.03027 0.2109,0.06487 0.0615,0.02595 0.123,0.0692 0.1845,0.12974 0.0616,0.0519 0.1274,0.1211 0.1978,0.20759 l 10.925,13.99931 c -0.017,-0.2249 -0.035,-0.4412 -0.052,-0.6487 -0.009,-0.2163 -0.013,-0.4196 -0.013,-0.6098 V 4.65564 Z"
         fill="#353a3f"
         id="path61" /><path
         d="m 125.537,16.3455 -2.965,-7.56403 c -0.088,-0.22489 -0.181,-0.48438 -0.277,-0.77846 -0.097,-0.30274 -0.189,-0.62277 -0.276,-0.9601 -0.185,0.70061 -0.374,1.28446 -0.567,1.75153 l -2.965,7.55106 z m 5.325,6.9023 h -1.977 c -0.229,0 -0.413,-0.0562 -0.554,-0.1686 -0.141,-0.1125 -0.246,-0.2552 -0.316,-0.4282 l -1.766,-4.4891 h -8.474 l -1.766,4.4891 c -0.053,0.1557 -0.154,0.2941 -0.303,0.4152 -0.15,0.1211 -0.334,0.1816 -0.554,0.1816 h -1.977 l 7.552,-18.59216 h 2.583 z"
         fill="#353a3f"
         id="path62" /><path
         d="m 144.522,14.2955 c 0.729,0 1.37,-0.0951 1.924,-0.2854 0.562,-0.1903 1.032,-0.4541 1.41,-0.7914 0.387,-0.346 0.677,-0.7569 0.87,-1.2326 0.193,-0.4757 0.29,-0.999 0.29,-1.5699 0,-1.18496 -0.374,-2.11045 -1.121,-2.77647 -0.738,-0.66602 -1.862,-0.99902 -3.373,-0.99902 h -3.032 v 7.65479 z m 0,-9.63986 c 1.194,0 2.231,0.13839 3.11,0.41518 0.887,0.26813 1.621,0.65304 2.201,1.15471 0.58,0.50167 1.01,1.10714 1.291,1.8164 0.29,0.70926 0.435,1.50069 0.435,2.37427 0,0.865 -0.153,1.6564 -0.461,2.3743 -0.308,0.718 -0.76,1.3364 -1.357,1.8554 -0.589,0.5189 -1.323,0.9255 -2.201,1.2195 -0.87,0.2855 -1.876,0.4282 -3.018,0.4282 h -3.032 v 6.9542 h -2.543 V 4.65564 Z"
         fill="#353a3f"
         id="path63" /><path
         d="m 170.698,7.56232 c -0.079,0.12974 -0.167,0.22921 -0.264,0.29841 -0.088,0.06054 -0.198,0.09082 -0.329,0.09082 -0.149,0 -0.325,-0.07352 -0.528,-0.22057 -0.201,-0.14704 -0.456,-0.30705 -0.764,-0.48004 -0.298,-0.18165 -0.663,-0.34598 -1.094,-0.49303 -0.422,-0.14704 -0.936,-0.22056 -1.542,-0.22056 -0.57,0 -1.076,0.07784 -1.515,0.23354 -0.431,0.14704 -0.795,0.3503 -1.094,0.60979 -0.29,0.25948 -0.51,0.56654 -0.659,0.92117 -0.149,0.34598 -0.224,0.72224 -0.224,1.12877 0,0.51897 0.128,0.95148 0.382,1.29738 0.264,0.3374 0.606,0.6272 1.028,0.8693 0.431,0.2422 0.914,0.4541 1.45,0.6358 0.545,0.173 1.098,0.3546 1.66,0.5449 0.572,0.1903 1.125,0.4065 1.661,0.6487 0.545,0.2335 1.028,0.5319 1.449,0.8952 0.431,0.3633 0.774,0.8088 1.028,1.3364 0.264,0.5276 0.396,1.1763 0.396,1.9461 0,0.8131 -0.141,1.5785 -0.422,2.2965 -0.281,0.7092 -0.694,1.3277 -1.239,1.8553 -0.535,0.5276 -1.199,0.9428 -1.99,1.2455 -0.781,0.3028 -1.674,0.4541 -2.675,0.4541 -1.23,0 -2.346,-0.2162 -3.348,-0.6487 -1.001,-0.4411 -1.858,-1.0336 -2.57,-1.7775 l 0.738,-1.1936 c 0.071,-0.0952 0.155,-0.173 0.251,-0.2335 0.105,-0.0692 0.22,-0.1038 0.342,-0.1038 0.115,0 0.242,0.0475 0.383,0.1427 0.149,0.0865 0.316,0.199 0.5,0.3373 0.185,0.1384 0.396,0.2898 0.633,0.4541 0.237,0.1643 0.505,0.3158 0.804,0.4541 0.308,0.1384 0.655,0.2552 1.041,0.3503 0.387,0.0865 0.822,0.1298 1.305,0.1298 0.606,0 1.146,-0.0822 1.621,-0.2465 0.474,-0.1644 0.874,-0.3936 1.199,-0.6877 0.334,-0.3027 0.589,-0.6617 0.765,-1.0768 0.176,-0.4152 0.263,-0.8779 0.263,-1.3883 0,-0.5622 -0.132,-1.0206 -0.395,-1.3753 -0.255,-0.3632 -0.593,-0.666 -1.015,-0.9082 -0.422,-0.2421 -0.905,-0.4454 -1.45,-0.6098 -0.544,-0.173 -1.097,-0.3459 -1.66,-0.5189 -0.562,-0.1817 -1.116,-0.3893 -1.661,-0.6228 -0.544,-0.2335 -1.028,-0.5363 -1.45,-0.9082 -0.421,-0.3719 -0.764,-0.8347 -1.028,-1.3883 -0.254,-0.5622 -0.382,-1.2541 -0.382,-2.07584 0,-0.65736 0.128,-1.2931 0.382,-1.90722 0.264,-0.61412 0.642,-1.15904 1.134,-1.63476 0.501,-0.47573 1.112,-0.85631 1.832,-1.14174 0.729,-0.28544 1.564,-0.42815 2.504,-0.42815 1.054,0 2.012,0.16434 2.873,0.49302 0.87,0.32868 1.634,0.80441 2.293,1.42717 z"
         fill="#353a3f"
         id="path64" /><path
         d="m 193.26,21.1979 -0.014,2.0499 H 181.609 V 4.65564 h 11.637 v 2.04994 h -9.08 v 6.17572 h 7.354 v 1.9721 h -7.354 v 6.3445 z"
         fill="#353a3f"
         id="path65" /></g><path
       d="m 83.043145,143.86972 q 0,0.17054 -0.06029,0.31695 -0.05857,0.1447 -0.165365,0.25149 -0.132636,0.13264 -0.313502,0.19982 -0.180867,0.0655 -0.456473,0.0655 h -0.341063 v 0.95601 h -0.341064 v -2.56487 h 0.695907 q 0.23082,0 0.391017,0.0396 0.160197,0.0379 0.284221,0.12058 0.146415,0.0982 0.225652,0.2446 0.08096,0.14641 0.08096,0.37034 z m -0.354846,0.009 q 0,-0.13264 -0.04651,-0.23082 -0.04651,-0.0982 -0.141248,-0.1602 -0.08268,-0.0534 -0.189479,-0.0758 -0.105076,-0.0241 -0.266996,-0.0241 H 81.70645 v 1.02491 h 0.287663 q 0.206705,0 0.335896,-0.0362 0.129191,-0.0379 0.210151,-0.11886 0.08096,-0.0827 0.113689,-0.17398 0.03445,-0.0913 0.03445,-0.20498 z m 2.332326,0.81993 q 0,0.47025 -0.241157,0.74242 -0.241157,0.27216 -0.645954,0.27216 -0.408241,0 -0.649398,-0.27216 -0.239435,-0.27217 -0.239435,-0.74242 0,-0.47026 0.239435,-0.74242 0.241157,-0.27388 0.649398,-0.27388 0.404797,0 0.645954,0.27388 0.241157,0.27216 0.241157,0.74242 z m -0.334174,0 q 0,-0.37379 -0.146418,-0.55466 -0.146415,-0.18259 -0.406519,-0.18259 -0.263549,0 -0.409964,0.18259 -0.144695,0.18087 -0.144695,0.55466 0,0.36174 0.146418,0.54949 0.146415,0.18604 0.408241,0.18604 0.258382,0 0.404797,-0.18432 0.14814,-0.18603 0.14814,-0.55121 z m 3.255608,-0.9629 -0.501261,1.92408 h -0.299723 l -0.494371,-1.48311 -0.490924,1.48311 h -0.298 l -0.506428,-1.92408 h 0.337619 l 0.35312,1.49 0.480592,-1.49 h 0.266994 l 0.492646,1.49 0.334174,-1.49 z m 2.077387,0.99563 h -1.417654 q 0,0.17742 0.0534,0.31006 0.0534,0.13091 0.146416,0.21531 0.08957,0.0827 0.211873,0.12403 0.124023,0.0413 0.272163,0.0413 0.196369,0 0.394462,-0.0775 0.199814,-0.0792 0.284218,-0.15502 h 0.01722 v 0.35312 q -0.163642,0.0689 -0.334174,0.11541 -0.170532,0.0465 -0.358289,0.0465 -0.478866,0 -0.747585,-0.25839 -0.268716,-0.2601 -0.268716,-0.73724 0,-0.47198 0.256659,-0.74931 0.258381,-0.27733 0.678683,-0.27733 0.389294,0 0.599445,0.22738 0.211873,0.22737 0.211873,0.64595 z m -0.315228,-0.24805 q -0.0019,-0.25494 -0.12919,-0.39446 -0.125746,-0.13953 -0.384128,-0.13953 -0.260104,0 -0.415131,0.15331 -0.153308,0.15331 -0.173977,0.38068 z m 2.006764,-0.39446 h -0.01722 q -0.07235,-0.0172 -0.14125,-0.0241 -0.06718,-0.009 -0.160195,-0.009 -0.149863,0 -0.289388,0.0672 -0.139525,0.0655 -0.268716,0.17053 v 1.36598 h -0.32384 v -1.92408 h 0.32384 v 0.28422 q 0.192923,-0.15503 0.339339,-0.21876 0.14814,-0.0655 0.301445,-0.0655 0.0844,0 0.122301,0.005 0.0379,0.003 0.113688,0.0155 z m 1.915467,0.64251 h -1.41765 q 0,0.17742 0.0534,0.31006 0.0534,0.13091 0.146415,0.21531 0.08957,0.0827 0.211873,0.12403 0.124023,0.0413 0.272161,0.0413 0.196371,0 0.394465,-0.0775 0.199813,-0.0792 0.284218,-0.15502 h 0.01722 v 0.35312 q -0.163642,0.0689 -0.334174,0.11541 -0.170532,0.0465 -0.358291,0.0465 -0.478867,0 -0.747583,-0.25839 -0.268716,-0.2601 -0.268716,-0.73724 0,-0.47198 0.256659,-0.74931 0.258382,-0.27733 0.678683,-0.27733 0.389295,0 0.599445,0.22738 0.211871,0.22737 0.211871,0.64595 z m -0.315224,-0.24805 q -0.0019,-0.25494 -0.129191,-0.39446 -0.125746,-0.13953 -0.384127,-0.13953 -0.260104,0 -0.415132,0.15331 -0.153307,0.15331 -0.173976,0.38068 z m 2.366774,1.1765 h -0.323836 v -0.20155 q -0.139528,0.12058 -0.291111,0.18776 -0.151585,0.0672 -0.329007,0.0672 -0.344508,0 -0.547769,-0.26528 -0.201536,-0.26527 -0.201536,-0.73552 0,-0.2446 0.0689,-0.4358 0.07062,-0.19121 0.189482,-0.32557 0.117131,-0.13091 0.272161,-0.19981 0.156752,-0.0689 0.323839,-0.0689 0.151582,0 0.268716,0.0327 0.117134,0.031 0.246325,0.0982 v -0.83371 h 0.323836 z m -0.323836,-0.4737 v -1.10415 q -0.130914,-0.0586 -0.234268,-0.081 -0.103351,-0.0224 -0.225652,-0.0224 -0.272161,0 -0.423746,0.18947 -0.151583,0.18948 -0.151583,0.53744 0,0.34279 0.117131,0.52193 0.117134,0.17742 0.375515,0.17742 0.137803,0 0.279051,-0.0603 0.141251,-0.062 0.263552,-0.15847 z m 3.894664,-0.50298 q 0,0.24115 -0.0689,0.43408 -0.0672,0.19292 -0.18259,0.32384 -0.122297,0.13608 -0.268717,0.20498 -0.14641,0.0672 -0.32211,0.0672 -0.163643,0 -0.285944,-0.0396 -0.122301,-0.0379 -0.241154,-0.10335 l -0.02066,0.0896 h -0.303167 v -2.68028 h 0.323839 v 0.95774 q 0.13608,-0.11197 0.289385,-0.18259 0.153308,-0.0724 0.344501,-0.0724 0.34107,0 0.537437,0.26183 0.19809,0.26182 0.19809,0.73897 z m -0.33417,0.009 q 0,-0.34451 -0.113687,-0.52193 -0.11369,-0.17914 -0.3669,-0.17914 -0.141249,0 -0.285942,0.062 -0.144695,0.0603 -0.268716,0.15675 v 1.10243 q 0.137803,0.062 0.235987,0.0861 0.09991,0.0241 0.225653,0.0241 0.268718,0 0.420298,-0.1757 0.153307,-0.17742 0.153307,-0.55466 z m 2.494243,-0.95601 -1.1231,2.63377 h -0.346233 l 0.358283,-0.8027 -0.766526,-1.83107 h 0.351403 l 0.590823,1.42627 0.59601,-1.42627 z"
       id="text2"
       style="font-size:13.3333px;font-family:Sans;-inkscape-font-specification:'Sans, Normal';white-space:pre;fill:#353a3f;stroke:#000000;stroke-width:0"
       aria-label="Powered by" /><rect
       style="fill:none;fill-opacity:1;stroke:#000000;stroke-width:0;stroke-dasharray:none"
       id="rect1"
       width="119.59167"
       height="14.552083"
       x="12.761672"
       y="141.88255" /></g></svg>
