<svg width="194" height="55" viewBox="0 0 194 55" fill="none" xmlns="http://www.w3.org/2000/svg">
<path d="M187.975 49.0037C186.713 49.0037 185.594 48.7944 184.619 48.3756C183.644 47.9568 182.869 47.3857 182.296 46.6624C181.722 45.92 181.378 45.0824 181.263 44.1497H185.135C185.231 44.4923 185.394 44.8159 185.623 45.1205C185.852 45.406 186.158 45.644 186.541 45.8343C186.943 46.0056 187.401 46.0913 187.918 46.0913C188.434 46.0913 188.855 46.0247 189.18 45.8914C189.505 45.7391 189.744 45.5488 189.897 45.3204C190.069 45.0729 190.155 44.8254 190.155 44.578C190.155 44.1973 190.031 43.9117 189.782 43.7214C189.553 43.512 189.209 43.3407 188.75 43.2074C188.31 43.0551 187.784 42.9028 187.172 42.7506C186.56 42.5983 185.929 42.427 185.279 42.2366C184.648 42.0462 184.064 41.8083 183.529 41.5228C182.994 41.2182 182.563 40.8375 182.238 40.3806C181.913 39.9047 181.751 39.3146 181.751 38.6103C181.751 37.7918 181.98 37.0494 182.439 36.3832C182.898 35.6979 183.558 35.1554 184.418 34.7556C185.298 34.3559 186.35 34.156 187.574 34.156C189.276 34.156 190.633 34.5462 191.647 35.3267C192.679 36.1072 193.282 37.1827 193.454 38.5532H189.811C189.715 38.0964 189.467 37.7442 189.065 37.4967C188.683 37.2302 188.176 37.097 187.545 37.097C186.895 37.097 186.388 37.2207 186.025 37.4682C185.68 37.7157 185.508 38.0202 185.508 38.3819C185.508 38.6484 185.623 38.8768 185.852 39.0672C186.101 39.2575 186.445 39.4193 186.885 39.5526C187.325 39.6858 187.851 39.8381 188.463 40.0094C189.495 40.2569 190.423 40.5329 191.245 40.8375C192.087 41.123 192.756 41.5323 193.253 42.0653C193.75 42.5792 193.999 43.3311 193.999 44.321C194.018 45.2157 193.779 46.0152 193.282 46.7195C192.804 47.4238 192.106 47.9853 191.188 48.4041C190.289 48.8039 189.218 49.0037 187.975 49.0037Z" fill="#353A3F"/>
<path d="M172.396 49.0037C170.943 49.0037 169.652 48.6992 168.524 48.09C167.415 47.4809 166.545 46.6243 165.914 45.5202C165.283 44.4162 164.967 43.1503 164.967 41.7226C164.967 40.2379 165.273 38.9339 165.885 37.8108C166.516 36.6687 167.386 35.774 168.495 35.1268C169.624 34.4796 170.933 34.156 172.425 34.156C173.84 34.156 175.083 34.4606 176.154 35.0697C177.244 35.6789 178.086 36.5164 178.678 37.5824C179.29 38.6294 179.596 39.8191 179.596 41.1516C179.596 41.3419 179.596 41.5608 179.596 41.8083C179.596 42.0367 179.577 42.2747 179.539 42.5221H167.721V40.1522H175.666C175.609 39.2766 175.274 38.5723 174.662 38.0393C174.07 37.5063 173.324 37.2398 172.425 37.2398C171.756 37.2398 171.144 37.3921 170.589 37.6966C170.035 37.9822 169.595 38.42 169.27 39.0101C168.945 39.6002 168.782 40.3521 168.782 41.2658V42.0938C168.782 42.8743 168.935 43.5501 169.241 44.1211C169.547 44.6732 169.968 45.1015 170.503 45.406C171.058 45.7106 171.679 45.8629 172.368 45.8629C173.075 45.8629 173.668 45.7106 174.146 45.406C174.624 45.0824 174.988 44.6732 175.236 44.1782H179.195C178.908 45.0729 178.449 45.8914 177.818 46.6338C177.187 47.3572 176.412 47.9378 175.494 48.3756C174.576 48.7944 173.544 49.0037 172.396 49.0037Z" fill="#353A3F"/>
<path d="M155.464 54.9999C154.106 54.9999 152.911 54.8286 151.879 54.486C150.865 54.1624 150.081 53.677 149.526 53.0298C148.972 52.3825 148.695 51.5831 148.695 50.6313C148.695 49.965 148.867 49.3464 149.211 48.7753C149.555 48.2042 150.052 47.6808 150.703 47.2049C151.372 46.729 152.194 46.3197 153.169 45.9771L154.604 47.8902C153.743 48.1757 153.122 48.5183 152.739 48.9181C152.357 49.3369 152.165 49.7937 152.165 50.2886C152.165 50.7074 152.309 51.0596 152.596 51.3451C152.883 51.6306 153.275 51.84 153.772 51.9733C154.269 52.1256 154.833 52.2017 155.464 52.2017C156.076 52.2017 156.602 52.1256 157.042 51.9733C157.501 51.821 157.845 51.6021 158.074 51.3166C158.323 51.031 158.447 50.6979 158.447 50.3172C158.447 49.8032 158.266 49.394 157.902 49.0894C157.539 48.8039 156.831 48.623 155.78 48.5469C154.804 48.4707 153.944 48.3565 153.198 48.2042C152.452 48.052 151.793 47.8806 151.219 47.6903C150.664 47.4999 150.186 47.281 149.785 47.0336C149.383 46.7861 149.067 46.5386 148.838 46.2912V45.6344L151.879 42.4079L154.374 43.2645L151.047 46.7766L152.137 44.9777C152.328 45.0729 152.519 45.1681 152.71 45.2633C152.921 45.3584 153.179 45.4441 153.485 45.5202C153.81 45.5964 154.212 45.6725 154.69 45.7487C155.168 45.8058 155.78 45.8724 156.526 45.9485C157.788 46.0437 158.82 46.2721 159.623 46.6338C160.427 46.9765 161.019 47.4523 161.402 48.0615C161.784 48.6516 161.976 49.3749 161.976 50.2315C161.976 51.031 161.737 51.7924 161.258 52.5158C160.8 53.2391 160.092 53.8293 159.136 54.2861C158.18 54.762 156.956 54.9999 155.464 54.9999ZM155.493 44.4638C154.288 44.4638 153.246 44.2353 152.366 43.7785C151.506 43.3216 150.836 42.703 150.358 41.9225C149.899 41.1421 149.67 40.2759 149.67 39.3242C149.67 38.3724 149.899 37.5063 150.358 36.7258C150.836 35.9453 151.506 35.3267 152.366 34.8698C153.246 34.394 154.288 34.156 155.493 34.156C156.698 34.156 157.73 34.394 158.591 34.8698C159.47 35.3267 160.14 35.9453 160.599 36.7258C161.058 37.5063 161.287 38.3724 161.287 39.3242C161.287 40.2759 161.058 41.1421 160.599 41.9225C160.14 42.703 159.47 43.3216 158.591 43.7785C157.73 44.2353 156.698 44.4638 155.493 44.4638ZM155.493 41.6084C156.22 41.6084 156.812 41.4181 157.271 41.0374C157.749 40.6376 157.988 40.0665 157.988 39.3242C157.988 38.5818 157.749 38.0202 157.271 37.6395C156.812 37.2588 156.22 37.0684 155.493 37.0684C154.747 37.0684 154.135 37.2588 153.657 37.6395C153.198 38.0202 152.969 38.5818 152.969 39.3242C152.969 40.0665 153.198 40.6376 153.657 41.0374C154.135 41.4181 154.747 41.6084 155.493 41.6084ZM157.816 37.1541L157.185 34.4986H163.152V36.6687L157.816 37.1541Z" fill="#353A3F"/>
<path d="M132.091 48.6611V34.4986H135.447L135.762 36.84H135.82C136.279 36.0215 136.91 35.3743 137.713 34.8984C138.516 34.4035 139.501 34.156 140.667 34.156C141.853 34.156 142.857 34.413 143.679 34.9269C144.501 35.4219 145.123 36.1547 145.544 37.1256C145.984 38.0964 146.203 39.2956 146.203 40.7233V48.6611H142.36V41.0659C142.36 39.8857 142.121 38.9815 141.643 38.3533C141.165 37.7252 140.4 37.4111 139.348 37.4111C138.698 37.4111 138.114 37.5729 137.598 37.8965C137.101 38.2011 136.699 38.6484 136.393 39.2385C136.106 39.8096 135.963 40.5139 135.963 41.3514V48.6611H132.091Z" fill="#353A3F"/>
<path d="M122.478 49.0037C121.025 49.0037 119.734 48.6992 118.606 48.09C117.497 47.4809 116.627 46.6243 115.996 45.5202C115.365 44.4162 115.049 43.1503 115.049 41.7226C115.049 40.2379 115.355 38.9339 115.967 37.8108C116.598 36.6687 117.468 35.774 118.577 35.1268C119.706 34.4796 121.015 34.156 122.507 34.156C123.922 34.156 125.165 34.4606 126.236 35.0697C127.326 35.6789 128.168 36.5164 128.76 37.5824C129.372 38.6294 129.678 39.8191 129.678 41.1516C129.678 41.3419 129.678 41.5608 129.678 41.8083C129.678 42.0367 129.659 42.2747 129.621 42.5221H117.803V40.1522H125.748C125.691 39.2766 125.356 38.5723 124.745 38.0393C124.152 37.5063 123.406 37.2398 122.507 37.2398C121.838 37.2398 121.226 37.3921 120.671 37.6966C120.117 37.9822 119.677 38.42 119.352 39.0101C119.027 39.6002 118.864 40.3521 118.864 41.2658V42.0938C118.864 42.8743 119.017 43.5501 119.323 44.1211C119.629 44.6732 120.05 45.1015 120.585 45.406C121.14 45.7106 121.761 45.8629 122.45 45.8629C123.157 45.8629 123.75 45.7106 124.228 45.406C124.706 45.0824 125.07 44.6732 125.318 44.1782H129.277C128.99 45.0729 128.531 45.8914 127.9 46.6338C127.269 47.3572 126.494 47.9378 125.576 48.3756C124.658 48.7944 123.626 49.0037 122.478 49.0037Z" fill="#353A3F"/>
<path d="M108.534 48.6612V28.3883H112.407V48.6612H108.534Z" fill="#353A3F"/>
<path d="M101.419 48.6612V28.3883H105.291V48.6612H101.419Z" fill="#353A3F"/>
<path d="M90.0162 49.0037C88.8496 49.0037 87.8839 48.8134 87.119 48.4327C86.3541 48.052 85.7899 47.538 85.4266 46.8908C85.0633 46.2436 84.8816 45.5298 84.8816 44.7493C84.8816 43.8737 85.1015 43.1027 85.5413 42.4365C86.0003 41.7702 86.6887 41.2563 87.6066 40.8946C88.5246 40.5139 89.6815 40.3235 91.0775 40.3235H94.6631C94.6631 39.6192 94.5579 39.0481 94.3475 38.6103C94.1563 38.1535 93.8503 37.8108 93.4296 37.5824C93.0281 37.354 92.5117 37.2398 91.8807 37.2398C91.1349 37.2398 90.4942 37.4111 89.9588 37.7537C89.4425 38.0773 89.1174 38.5818 88.9835 39.2671H85.2258C85.3405 38.2201 85.6848 37.3159 86.2585 36.5545C86.8513 35.7931 87.6353 35.203 88.6106 34.7842C89.5859 34.3654 90.6759 34.156 91.8807 34.156C93.2575 34.156 94.4432 34.3844 95.4376 34.8413C96.432 35.2791 97.1969 35.9358 97.7323 36.8115C98.2678 37.6681 98.5355 38.715 98.5355 39.9523V48.6611H95.2941L94.8639 46.4625H94.8065C94.5579 46.8622 94.2711 47.2239 93.946 47.5475C93.6209 47.8521 93.2575 48.1186 92.8559 48.347C92.4735 48.5564 92.0432 48.7182 91.5651 48.8324C91.0871 48.9466 90.5707 49.0037 90.0162 49.0037ZM91.1062 46.0342C91.6225 46.0342 92.0815 45.9485 92.483 45.7772C92.8846 45.5869 93.2193 45.3394 93.487 45.0348C93.7739 44.7303 93.9938 44.3781 94.1468 43.9784C94.3189 43.5596 94.4336 43.1313 94.491 42.6935H91.5078C90.9149 42.6935 90.4273 42.7696 90.0448 42.9219C89.6815 43.0551 89.4138 43.255 89.2417 43.5215C89.0696 43.769 88.9835 44.064 88.9835 44.4067C88.9835 44.7493 89.0696 45.0443 89.2417 45.2918C89.4138 45.5393 89.6624 45.7296 89.9875 45.8629C90.3126 45.9771 90.6855 46.0342 91.1062 46.0342Z" fill="#353A3F"/>
<path d="M68.3083 48.6612V28.3883H72.1521V36.7544H72.2095C72.6875 35.9359 73.3282 35.2982 74.1313 34.8414C74.9345 34.3845 75.8811 34.1561 76.9711 34.1561C78.1185 34.1561 79.0938 34.4131 79.897 34.927C80.7193 35.4219 81.3408 36.1548 81.7615 37.1256C82.2013 38.0964 82.4212 39.2957 82.4212 40.7233V48.6612H78.5775V41.066C78.5775 39.8858 78.3384 38.9816 77.8604 38.3534C77.4014 37.7252 76.6556 37.4112 75.623 37.4112C74.9536 37.4112 74.3608 37.573 73.8445 37.8966C73.3282 38.2011 72.917 38.6485 72.6111 39.2386C72.3242 39.8096 72.1808 40.514 72.1808 41.3515V48.6612H68.3083Z" fill="#353A3F"/>
<path d="M56.6776 49.0038C54.6697 49.0038 52.9295 48.5755 51.457 47.7189C50.0036 46.8433 48.8849 45.6345 48.1009 44.0926C47.3168 42.5317 46.9248 40.7328 46.9248 38.696C46.9248 36.6592 47.3168 34.8604 48.1009 33.2995C48.8849 31.7385 50.0036 30.5203 51.457 29.6446C52.9103 28.769 54.6506 28.3312 56.6776 28.3312C59.1254 28.3312 61.1237 28.9308 62.6727 30.13C64.2217 31.3293 65.1874 33.0234 65.5699 35.2125H61.3245C61.0759 34.1465 60.5596 33.3185 59.7756 32.7284C58.9915 32.1193 57.9493 31.8147 56.6489 31.8147C55.4442 31.8147 54.402 32.1002 53.5223 32.6713C52.6617 33.2233 52.002 34.0133 51.543 35.0412C51.0841 36.0691 50.8546 37.2874 50.8546 38.696C50.8546 40.1047 51.0841 41.3229 51.543 42.3509C52.002 43.3597 52.6617 44.1402 53.5223 44.6922C54.402 45.2443 55.4442 45.5203 56.6489 45.5203C57.9493 45.5203 58.9915 45.2443 59.7756 44.6922C60.5596 44.1402 61.0759 43.3597 61.3245 42.3509H65.5699C65.2065 44.4257 64.2408 46.0533 62.6727 47.2335C61.1237 48.4137 59.1254 49.0038 56.6776 49.0038Z" fill="#353A3F"/>
<path d="M4.43973 25.1834L3.26709 25.9792L6.23851 30.3487L7.41115 29.5529L4.43973 25.1834Z" fill="#669FC1"/>
<path d="M9.47688 8.76624C10.804 8.76624 11.8798 7.69152 11.8798 6.36579C11.8798 5.04005 10.804 3.96533 9.47688 3.96533C8.14979 3.96533 7.07397 5.04005 7.07397 6.36579C7.07397 7.69152 8.14979 8.76624 9.47688 8.76624Z" fill="#EB8231"/>
<path d="M12.6813 28.9438L7.05859 30.4698L7.43028 31.8365L13.053 30.3104L12.6813 28.9438Z" fill="#669FC1"/>
<path d="M8.68112 32.0002L7.44897 32.7006L11.0631 39.0458L12.2952 38.3454L8.68112 32.0002Z" fill="#669FC1"/>
<path d="M2.2292 15.5596L1.6958 21.7751L3.10826 21.8961L3.64166 15.6806L2.2292 15.5596Z" fill="#669FC1"/>
<path d="M14.7774 12.868L4.76855 13.3955L4.84324 14.8097L14.852 14.2822L14.7774 12.868Z" fill="#669FC1"/>
<path d="M8.22303 7.14293L3.98413 11.7432L5.02715 12.7023L9.26605 8.10206L8.22303 7.14293Z" fill="#669FC1"/>
<path d="M19.4427 1.88693L10.4934 5.12854L10.9766 6.45992L19.926 3.21831L19.4427 1.88693Z" fill="#669FC1"/>
<path d="M22.4892 2.56041L22.0195 3.89661L30.9678 7.03582L31.4375 5.69962L22.4892 2.56041Z" fill="#669FC1"/>
<path d="M11.2149 7.46468L10.2581 8.50964L15.2842 13.1025L16.2411 12.0576L11.2149 7.46468Z" fill="#669FC1"/>
<path d="M19.0182 3.93021L16.3496 11.2112L17.6808 11.6981L20.3494 4.41714L19.0182 3.93021Z" fill="#669FC1"/>
<path d="M28.1885 11.8704L18.2898 12.6643L18.4032 14.076L28.302 13.2821L28.1885 11.8704Z" fill="#669FC1"/>
<path d="M22.0222 4.30688L21.0024 5.29065L27.433 11.9429L28.4528 10.9592L22.0222 4.30688Z" fill="#669FC1"/>
<path d="M27.5935 13.2841L25.0464 19.1501L26.3469 19.7137L28.8941 13.8477L27.5935 13.2841Z" fill="#669FC1"/>
<path d="M18.2952 14.6389L17.3115 15.6587L22.5788 20.7295L23.5625 19.7097L18.2952 14.6389Z" fill="#669FC1"/>
<path d="M5.01831 14.9201L3.98999 15.8949L9.35223 21.5398L10.3805 20.5649L5.01831 14.9201Z" fill="#669FC1"/>
<path d="M15.3389 29.1594L12.7233 28.338L10.6536 23.4805L11.9649 22.9282L13.7724 27.1838L15.0766 27.5945L23.2989 21.5828L24.1353 22.7299L15.3389 29.1594Z" fill="#669FC1"/>
<path d="M32.8324 7.52744L31.7573 8.45056L36.0496 13.4392L37.1247 12.5161L32.8324 7.52744Z" fill="#669FC1"/>
<path d="M35.3725 14.5545L27.3103 19.6244L28.0655 20.8229L36.1277 15.753L35.3725 14.5545Z" fill="#669FC1"/>
<path d="M37.8173 15.9746L36.4053 16.1L36.9959 22.737L38.408 22.6116L37.8173 15.9746Z" fill="#669FC1"/>
<path d="M28.0513 21.7678L27.854 23.1702L37.9125 24.5824L38.1098 23.1799L28.0513 21.7678Z" fill="#669FC1"/>
<path d="M16.0154 29.2871L15.4961 30.6049L22.8038 33.4791L23.3232 32.1613L16.0154 29.2871Z" fill="#669FC1"/>
<path d="M35.9822 24.907L32.3682 30.7917L33.5765 31.5323L37.1906 25.6476L35.9822 24.907Z" fill="#669FC1"/>
<path d="M26.6969 24.0898L25.634 25.0269L32.0597 32.3003L33.1226 31.3632L26.6969 24.0898Z" fill="#669FC1"/>
<path d="M23.2116 33.5546L18.6777 38.1975L19.6925 39.1864L24.2264 34.5435L23.2116 33.5546Z" fill="#669FC1"/>
<path d="M27.7079 40.921L23.7668 35.4332L24.9151 34.6048L27.6724 38.4356L31.7056 32.4309L32.8823 33.2169L27.7079 40.921Z" fill="#669FC1"/>
<path d="M14.4484 14.9987L10.7295 20.2809L11.889 21.0956L15.608 15.8134L14.4484 14.9987Z" fill="#669FC1"/>
<path d="M13.1404 31.2764L12.1677 37.3024L13.5673 37.5278L14.54 31.5018L13.1404 31.2764Z" fill="#669FC1"/>
<path d="M13.8361 32.3458C15.4372 32.3458 16.7352 31.0492 16.7352 29.4497C16.7352 27.8502 15.4372 26.5536 13.8361 26.5536C12.235 26.5536 10.937 27.8502 10.937 29.4497C10.937 31.0492 12.235 32.3458 13.8361 32.3458Z" fill="#6DB56D"/>
<path d="M16.3524 16.4634C17.9536 16.4634 19.2515 15.1667 19.2515 13.5673C19.2515 11.9678 17.9536 10.6711 16.3524 10.6711C14.7513 10.6711 13.4534 11.9678 13.4534 13.5673C13.4534 15.1667 14.7513 16.4634 16.3524 16.4634Z" fill="#6DB56D"/>
<path d="M19.1807 40.5953C20.2337 40.5953 21.0874 39.7425 21.0874 38.6905C21.0874 37.6386 20.2337 36.7858 19.1807 36.7858C18.1276 36.7858 17.2739 37.6386 17.2739 38.6905C17.2739 39.7425 18.1276 40.5953 19.1807 40.5953Z" fill="#6DB56D"/>
<path d="M7.24413 33.061C8.29718 33.061 9.15085 32.2082 9.15085 31.1562C9.15085 30.1043 8.29718 29.2515 7.24413 29.2515C6.19107 29.2515 5.3374 30.1043 5.3374 31.1562C5.3374 32.2082 6.19107 33.061 7.24413 33.061Z" fill="#6DB56D"/>
<path d="M10.4693 24.2311C11.7964 24.2311 12.8722 23.1564 12.8722 21.8306C12.8722 20.5049 11.7964 19.4302 10.4693 19.4302C9.14222 19.4302 8.06641 20.5049 8.06641 21.8306C8.06641 23.1564 9.14222 24.2311 10.4693 24.2311Z" fill="#EB8231"/>
<path d="M2.4029 26.0723C3.72998 26.0723 4.8058 24.9975 4.8058 23.6718C4.8058 22.3461 3.72998 21.2714 2.4029 21.2714C1.07581 21.2714 0 22.3461 0 23.6718C0 24.9975 1.07581 26.0723 2.4029 26.0723Z" fill="#EB8231"/>
<path d="M9.47691 9.0141C10.941 9.0141 12.1279 7.82843 12.1279 6.36582C12.1279 4.90321 10.941 3.71753 9.47691 3.71753C8.01281 3.71753 6.82593 4.90321 6.82593 6.36582C6.82593 7.82843 8.01281 9.0141 9.47691 9.0141Z" fill="#EB8231"/>
<path d="M30.8976 9.0141C32.3617 9.0141 33.5486 7.82843 33.5486 6.36582C33.5486 4.90321 32.3617 3.71753 30.8976 3.71753C29.4335 3.71753 28.2466 4.90321 28.2466 6.36582C28.2466 7.82843 29.4335 9.0141 30.8976 9.0141Z" fill="#EB8231"/>
<path d="M37.1068 16.7465C38.5709 16.7465 39.7578 15.5608 39.7578 14.0982C39.7578 12.6356 38.5709 11.45 37.1068 11.45C35.6427 11.45 34.4558 12.6356 34.4558 14.0982C34.4558 15.5608 35.6427 16.7465 37.1068 16.7465Z" fill="#EB8231"/>
<path d="M28.6221 14.4807C29.6751 14.4807 30.5288 13.6279 30.5288 12.5759C30.5288 11.5239 29.6751 10.6711 28.6221 10.6711C27.569 10.6711 26.7153 11.5239 26.7153 12.5759C26.7153 13.6279 27.569 14.4807 28.6221 14.4807Z" fill="#EB8231"/>
<path d="M32.5916 34.0454C33.813 34.0454 34.8032 33.0562 34.8032 31.8361C34.8032 30.616 33.813 29.6268 32.5916 29.6268C31.3703 29.6268 30.3801 30.616 30.3801 31.8361C30.3801 33.0562 31.3703 34.0454 32.5916 34.0454Z" fill="#EB8231"/>
<path d="M27.9488 42.5709C29.3737 42.5709 30.5289 41.4169 30.5289 39.9934C30.5289 38.5699 29.3737 37.4159 27.9488 37.4159C26.5238 37.4159 25.3687 38.5699 25.3687 39.9934C25.3687 41.4169 26.5238 42.5709 27.9488 42.5709Z" fill="#6DB56D"/>
<path d="M23.7172 36.0422C25.0677 36.0422 26.1626 34.9485 26.1626 33.5993C26.1626 32.2501 25.0677 31.1564 23.7172 31.1564C22.3666 31.1564 21.2717 32.2501 21.2717 33.5993C21.2717 34.9485 22.3666 36.0422 23.7172 36.0422Z" fill="#EB8231"/>
<path d="M3.26773 17.2422C4.86884 17.2422 6.1668 15.9456 6.1668 14.3461C6.1668 12.7466 4.86884 11.45 3.26773 11.45C1.66661 11.45 0.368652 12.7466 0.368652 14.3461C0.368652 15.9456 1.66661 17.2422 3.26773 17.2422Z" fill="#6DB56D"/>
<path d="M12.3759 42.5708C13.977 42.5708 15.275 41.2742 15.275 39.6747C15.275 38.0752 13.977 36.7786 12.3759 36.7786C10.7748 36.7786 9.47681 38.0752 9.47681 39.6747C9.47681 41.2742 10.7748 42.5708 12.3759 42.5708Z" fill="#EB8231"/>
<path d="M37.695 27.0564C39.2961 27.0564 40.594 25.7598 40.594 24.1603C40.594 22.5608 39.2961 21.2642 37.695 21.2642C36.0939 21.2642 34.7959 22.5608 34.7959 24.1603C34.7959 25.7598 36.0939 27.0564 37.695 27.0564Z" fill="#6DB56D"/>
<path d="M20.173 5.79224C21.7741 5.79224 23.0721 4.49561 23.0721 2.89612C23.0721 1.29664 21.7741 0 20.173 0C18.5719 0 17.2739 1.29664 17.2739 2.89612C17.2739 4.49561 18.5719 5.79224 20.173 5.79224Z" fill="#6DB56D"/>
<path d="M25.2199 25.7819C27.4043 25.7819 29.1751 24.0129 29.1751 21.8307C29.1751 19.6485 27.4043 17.8795 25.2199 17.8795C23.0355 17.8795 21.2646 19.6485 21.2646 21.8307C21.2646 24.0129 23.0355 25.7819 25.2199 25.7819Z" fill="#EB8231"/>
<path d="M26.8997 44.0366H13.4392C12.5153 44.0366 11.7664 44.7848 11.7664 45.7077V45.7148C11.7664 46.6377 12.5153 47.3859 13.4392 47.3859H26.8997C27.8235 47.3859 28.5725 46.6377 28.5725 45.7148V45.7077C28.5725 44.7848 27.8235 44.0366 26.8997 44.0366Z" fill="#669FC1"/>
<path d="M24.674 48.8517H16.1965C15.2726 48.8517 14.5237 49.5999 14.5237 50.5228V50.5299C14.5237 51.4528 15.2726 52.201 16.1965 52.201H24.674C25.5979 52.201 26.3468 51.4528 26.3468 50.5299V50.5228C26.3468 49.5999 25.5979 48.8517 24.674 48.8517Z" fill="#669FC1"/>
<path d="M59.8381 7.56232C59.759 7.69206 59.6711 7.79153 59.5745 7.86073C59.4866 7.92127 59.3768 7.95155 59.245 7.95155C59.0956 7.95155 58.9199 7.87803 58.7178 7.73098C58.5157 7.58394 58.261 7.42393 57.9534 7.25094C57.6547 7.0693 57.2901 6.90496 56.8596 6.75791C56.4378 6.61087 55.9238 6.53735 55.3176 6.53735C54.7465 6.53735 54.2413 6.61519 53.802 6.77089C53.3715 6.91793 53.0068 7.12119 52.7081 7.38068C52.4182 7.64017 52.1985 7.94722 52.0492 8.30185C51.8998 8.64783 51.8251 9.02409 51.8251 9.43062C51.8251 9.94959 51.9525 10.3821 52.2073 10.728C52.4709 11.0654 52.8135 11.3552 53.2353 11.5973C53.6658 11.8395 54.149 12.0514 54.685 12.2331C55.2298 12.4061 55.7833 12.5877 56.3456 12.778C56.9167 12.9683 57.4702 13.1845 58.0061 13.4267C58.5509 13.6602 59.0341 13.9586 59.4559 14.3219C59.8864 14.6852 60.229 15.1307 60.4838 15.6583C60.7474 16.1859 60.8792 16.8346 60.8792 17.6044C60.8792 18.4175 60.7387 19.1829 60.4575 19.9009C60.1763 20.6101 59.7634 21.2286 59.2186 21.7562C58.6827 22.2838 58.0193 22.699 57.2286 23.0017C56.4466 23.3045 55.5548 23.4558 54.5532 23.4558C53.3231 23.4558 52.2073 23.2396 51.2057 22.8071C50.2041 22.366 49.3474 21.7735 48.6357 21.0296L49.3738 19.836C49.4441 19.7408 49.5275 19.663 49.6242 19.6025C49.7296 19.5333 49.8438 19.4987 49.9668 19.4987C50.0811 19.4987 50.2085 19.5462 50.349 19.6414C50.4984 19.7279 50.6653 19.8404 50.8498 19.9787C51.0344 20.1171 51.2452 20.2685 51.4824 20.4328C51.7197 20.5971 51.9877 20.7486 52.2864 20.8869C52.5939 21.0253 52.9409 21.1421 53.3275 21.2372C53.7141 21.3237 54.149 21.367 54.6323 21.367C55.2385 21.367 55.7789 21.2848 56.2533 21.1205C56.7278 20.9561 57.1276 20.7269 57.4526 20.4328C57.7865 20.1301 58.0413 19.7711 58.217 19.356C58.3928 18.9408 58.4806 18.4781 58.4806 17.9677C58.4806 17.4055 58.3488 16.9471 58.0852 16.5924C57.8304 16.2292 57.4922 15.9264 57.0704 15.6842C56.6487 15.4421 56.1655 15.2388 55.6207 15.0744C55.076 14.9014 54.5224 14.7285 53.9601 14.5555C53.3978 14.3738 52.8443 14.1662 52.2996 13.9327C51.7548 13.6992 51.2716 13.3964 50.8498 13.0245C50.4281 12.6526 50.0855 12.1898 49.8219 11.6363C49.5671 11.074 49.4397 10.3821 49.4397 9.56036C49.4397 8.903 49.5671 8.26726 49.8219 7.65314C50.0855 7.03902 50.4633 6.4941 50.9553 6.01838C51.4561 5.54265 52.0667 5.16207 52.7872 4.87664C53.5164 4.5912 54.3511 4.44849 55.2912 4.44849C56.3456 4.44849 57.3032 4.61283 58.1643 4.94151C59.0341 5.27019 59.7985 5.74592 60.4575 6.36868L59.8381 7.56232Z" fill="#353A3F"/>
<path d="M76.7954 15.8395V23.2478H74.2387V15.8395L67.3196 4.65564H69.56C69.7885 4.65564 69.9686 4.71186 70.1004 4.82431C70.2322 4.9281 70.3464 5.06649 70.4431 5.23948L74.7658 12.4662C74.924 12.7689 75.0689 13.0544 75.2007 13.3225C75.3325 13.582 75.4467 13.8458 75.5434 14.1139C75.6401 13.8458 75.7498 13.582 75.8729 13.3225C75.9959 13.0544 76.132 12.7689 76.2814 12.4662L80.591 5.23948C80.6701 5.09244 80.7799 4.95837 80.9205 4.83728C81.0611 4.71619 81.2412 4.65564 81.4608 4.65564H83.7145L76.7954 15.8395Z" fill="#353A3F"/>
<path d="M105.737 4.65564V23.2478H104.459C104.257 23.2478 104.085 23.2132 103.945 23.144C103.813 23.0748 103.681 22.958 103.549 22.7937L92.6238 8.78147C92.6413 8.9977 92.6545 9.20962 92.6633 9.41721C92.6721 9.6248 92.6764 9.81941 92.6764 10.0011V23.2478H90.436V4.65564H91.754C91.8682 4.65564 91.9648 4.66429 92.0438 4.68159C92.1229 4.69024 92.1932 4.71186 92.2547 4.74646C92.3162 4.77241 92.3777 4.81566 92.4392 4.8762C92.5008 4.9281 92.5666 4.9973 92.637 5.08379L103.562 19.0831C103.545 18.8582 103.527 18.6419 103.51 18.4344C103.501 18.2181 103.497 18.0148 103.497 17.8246V4.65564H105.737Z" fill="#353A3F"/>
<path d="M125.537 16.3455L122.572 8.78147C122.484 8.55658 122.391 8.29709 122.295 8.00301C122.198 7.70027 122.106 7.38024 122.019 7.04291C121.834 7.74352 121.645 8.32737 121.452 8.79444L118.487 16.3455H125.537ZM130.862 23.2478H128.885C128.656 23.2478 128.472 23.1916 128.331 23.0792C128.19 22.9667 128.085 22.824 128.015 22.651L126.249 18.1619H117.775L116.009 22.651C115.956 22.8067 115.855 22.9451 115.706 23.0662C115.556 23.1873 115.372 23.2478 115.152 23.2478H113.175L120.727 4.65564H123.31L130.862 23.2478Z" fill="#353A3F"/>
<path d="M144.522 14.2955C145.251 14.2955 145.892 14.2004 146.446 14.0101C147.008 13.8198 147.478 13.556 147.856 13.2187C148.243 12.8727 148.533 12.4618 148.726 11.9861C148.919 11.5104 149.016 10.9871 149.016 10.4162C149.016 9.23124 148.642 8.30575 147.895 7.63973C147.157 6.97371 146.033 6.64071 144.522 6.64071H141.49V14.2955H144.522ZM144.522 4.65564C145.716 4.65564 146.753 4.79403 147.632 5.07082C148.519 5.33895 149.253 5.72386 149.833 6.22553C150.413 6.7272 150.843 7.33267 151.124 8.04193C151.414 8.75119 151.559 9.54262 151.559 10.4162C151.559 11.2812 151.406 12.0726 151.098 12.7905C150.79 13.5085 150.338 14.1269 149.741 14.6459C149.152 15.1648 148.418 15.5714 147.54 15.8654C146.67 16.1509 145.664 16.2936 144.522 16.2936H141.49V23.2478H138.947V4.65564H144.522Z" fill="#353A3F"/>
<path d="M170.698 7.56232C170.619 7.69206 170.531 7.79153 170.434 7.86073C170.346 7.92127 170.236 7.95155 170.105 7.95155C169.956 7.95155 169.78 7.87803 169.577 7.73098C169.376 7.58394 169.121 7.42393 168.813 7.25094C168.515 7.06929 168.15 6.90496 167.719 6.75791C167.297 6.61087 166.783 6.53735 166.177 6.53735C165.607 6.53735 165.101 6.61519 164.662 6.77089C164.231 6.91793 163.867 7.12119 163.568 7.38068C163.278 7.64016 163.058 7.94722 162.909 8.30185C162.76 8.64783 162.685 9.02409 162.685 9.43062C162.685 9.94959 162.813 10.3821 163.067 10.728C163.331 11.0654 163.673 11.3552 164.095 11.5973C164.526 11.8395 165.009 12.0514 165.545 12.2331C166.09 12.4061 166.643 12.5877 167.205 12.778C167.777 12.9683 168.33 13.1845 168.866 13.4267C169.411 13.6602 169.894 13.9586 170.315 14.3219C170.746 14.6852 171.089 15.1307 171.343 15.6583C171.607 16.1859 171.739 16.8346 171.739 17.6044C171.739 18.4175 171.598 19.1829 171.317 19.9009C171.036 20.6101 170.623 21.2286 170.078 21.7562C169.543 22.2838 168.879 22.699 168.088 23.0017C167.307 23.3045 166.414 23.4558 165.413 23.4558C164.183 23.4558 163.067 23.2396 162.065 22.8071C161.064 22.366 160.207 21.7735 159.495 21.0296L160.233 19.836C160.304 19.7408 160.388 19.663 160.484 19.6025C160.589 19.5333 160.704 19.4987 160.826 19.4987C160.941 19.4987 161.068 19.5462 161.209 19.6414C161.358 19.7279 161.525 19.8404 161.709 19.9787C161.894 20.1171 162.105 20.2685 162.342 20.4328C162.579 20.5971 162.847 20.7486 163.146 20.8869C163.454 21.0253 163.801 21.1421 164.187 21.2372C164.574 21.3237 165.009 21.367 165.492 21.367C166.098 21.367 166.638 21.2848 167.113 21.1205C167.587 20.9561 167.987 20.7269 168.312 20.4328C168.646 20.1301 168.901 19.7711 169.077 19.356C169.253 18.9408 169.34 18.4781 169.34 17.9677C169.34 17.4055 169.208 16.9471 168.945 16.5924C168.69 16.2292 168.352 15.9264 167.93 15.6842C167.508 15.4421 167.025 15.2388 166.48 15.0744C165.936 14.9014 165.383 14.7285 164.82 14.5555C164.258 14.3738 163.704 14.1662 163.159 13.9327C162.615 13.6992 162.131 13.3964 161.709 13.0245C161.288 12.6526 160.945 12.1898 160.681 11.6362C160.427 11.074 160.299 10.3821 160.299 9.56036C160.299 8.903 160.427 8.26726 160.681 7.65314C160.945 7.03902 161.323 6.4941 161.815 6.01838C162.316 5.54265 162.927 5.16207 163.647 4.87664C164.376 4.5912 165.211 4.44849 166.151 4.44849C167.205 4.44849 168.163 4.61283 169.024 4.94151C169.894 5.27019 170.658 5.74592 171.317 6.36868L170.698 7.56232Z" fill="#353A3F"/>
<path d="M193.26 21.1979L193.246 23.2478H181.609V4.65564H193.246V6.70558H184.166V12.8813H191.52V14.8534H184.166V21.1979H193.26Z" fill="#353A3F"/>
</svg>
