<svg width="452" height="55" viewBox="0 0 452 55" fill="none" xmlns="http://www.w3.org/2000/svg">
<path d="M187.975 49.004C186.713 49.004 185.594 48.7946 184.619 48.3758C183.644 47.957 182.869 47.386 182.296 46.6626C181.722 45.9202 181.378 45.0827 181.263 44.1499H185.135C185.231 44.4926 185.394 44.8162 185.623 45.1207C185.852 45.4063 186.158 45.6442 186.541 45.8346C186.943 46.0059 187.401 46.0915 187.918 46.0915C188.434 46.0915 188.855 46.0249 189.18 45.8917C189.505 45.7394 189.744 45.549 189.897 45.3206C190.069 45.0731 190.155 44.8257 190.155 44.5782C190.155 44.1975 190.031 43.912 189.782 43.7216C189.553 43.5122 189.209 43.3409 188.75 43.2077C188.31 43.0554 187.784 42.9031 187.172 42.7508C186.56 42.5985 185.929 42.4272 185.279 42.2368C184.648 42.0465 184.064 41.8085 183.529 41.523C182.994 41.2184 182.563 40.8377 182.238 40.3809C181.913 39.905 181.751 39.3149 181.751 38.6106C181.751 37.792 181.98 37.0497 182.439 36.3834C182.898 35.6981 183.558 35.1556 184.418 34.7559C185.298 34.3561 186.35 34.1562 187.574 34.1562C189.276 34.1562 190.633 34.5465 191.647 35.3269C192.679 36.1074 193.282 37.1829 193.454 38.5535H189.811C189.715 38.0966 189.467 37.7445 189.065 37.497C188.683 37.2305 188.176 37.0972 187.545 37.0972C186.895 37.0972 186.388 37.221 186.025 37.4684C185.68 37.7159 185.508 38.0205 185.508 38.3821C185.508 38.6486 185.623 38.8771 185.852 39.0674C186.101 39.2578 186.445 39.4196 186.885 39.5528C187.325 39.6861 187.851 39.8384 188.463 40.0097C189.495 40.2571 190.423 40.5332 191.245 40.8377C192.087 41.1233 192.756 41.5325 193.253 42.0655C193.75 42.5795 193.999 43.3314 193.999 44.3212C194.018 45.2159 193.779 46.0154 193.282 46.7197C192.804 47.424 192.106 47.9856 191.188 48.4044C190.289 48.8041 189.218 49.004 187.975 49.004Z" fill="#353A3F"/>
<path d="M172.396 49.004C170.943 49.004 169.652 48.6994 168.524 48.0903C167.415 47.4811 166.545 46.6245 165.914 45.5205C165.283 44.4164 164.967 43.1506 164.967 41.7229C164.967 40.2381 165.273 38.9342 165.885 37.8111C166.516 36.6689 167.386 35.7743 168.495 35.1271C169.624 34.4799 170.933 34.1562 172.425 34.1562C173.84 34.1562 175.083 34.4608 176.154 35.07C177.244 35.6791 178.086 36.5167 178.678 37.5827C179.29 38.6296 179.596 39.8193 179.596 41.1518C179.596 41.3422 179.596 41.5611 179.596 41.8085C179.596 42.037 179.577 42.2749 179.539 42.5224H167.721V40.1525H175.666C175.609 39.2768 175.274 38.5725 174.662 38.0395C174.07 37.5065 173.324 37.24 172.425 37.24C171.756 37.24 171.144 37.3923 170.589 37.6969C170.035 37.9824 169.595 38.4202 169.27 39.0103C168.945 39.6004 168.782 40.3523 168.782 41.266V42.0941C168.782 42.8745 168.935 43.5503 169.241 44.1214C169.547 44.6734 169.968 45.1017 170.503 45.4063C171.058 45.7108 171.679 45.8631 172.368 45.8631C173.075 45.8631 173.668 45.7108 174.146 45.4063C174.624 45.0827 174.988 44.6734 175.236 44.1785H179.195C178.908 45.0731 178.449 45.8917 177.818 46.6341C177.187 47.3574 176.412 47.938 175.494 48.3758C174.576 48.7946 173.544 49.004 172.396 49.004Z" fill="#353A3F"/>
<path d="M155.464 55.0002C154.106 55.0002 152.911 54.8289 151.879 54.4862C150.865 54.1626 150.081 53.6772 149.526 53.03C148.972 52.3828 148.695 51.5833 148.695 50.6315C148.695 49.9653 148.867 49.3466 149.211 48.7756C149.555 48.2045 150.052 47.681 150.703 47.2051C151.372 46.7292 152.194 46.32 153.169 45.9773L154.604 47.8904C153.743 48.1759 153.122 48.5186 152.739 48.9183C152.357 49.3371 152.165 49.794 152.165 50.2889C152.165 50.7077 152.309 51.0598 152.596 51.3454C152.883 51.6309 153.275 51.8403 153.772 51.9735C154.269 52.1258 154.833 52.202 155.464 52.202C156.076 52.202 156.602 52.1258 157.042 51.9735C157.501 51.8212 157.845 51.6023 158.074 51.3168C158.323 51.0313 158.447 50.6981 158.447 50.3174C158.447 49.8035 158.266 49.3942 157.902 49.0896C157.539 48.8041 156.831 48.6233 155.78 48.5471C154.804 48.471 153.944 48.3568 153.198 48.2045C152.452 48.0522 151.793 47.8809 151.219 47.6905C150.664 47.5002 150.186 47.2813 149.785 47.0338C149.383 46.7863 149.067 46.5389 148.838 46.2914V45.6347L151.879 42.4082L154.374 43.2648L151.047 46.7768L152.137 44.978C152.328 45.0731 152.519 45.1683 152.71 45.2635C152.921 45.3587 153.179 45.4443 153.485 45.5205C153.81 45.5966 154.212 45.6728 154.69 45.7489C155.168 45.806 155.78 45.8726 156.526 45.9488C157.788 46.044 158.82 46.2724 159.623 46.6341C160.427 46.9767 161.019 47.4526 161.402 48.0617C161.784 48.6518 161.976 49.3752 161.976 50.2318C161.976 51.0313 161.737 51.7927 161.258 52.516C160.8 53.2394 160.092 53.8295 159.136 54.2864C158.18 54.7622 156.956 55.0002 155.464 55.0002ZM155.493 44.464C154.288 44.464 153.246 44.2356 152.366 43.7787C151.506 43.3219 150.836 42.7032 150.358 41.9228C149.899 41.1423 149.67 40.2762 149.67 39.3244C149.67 38.3726 149.899 37.5065 150.358 36.726C150.836 35.9456 151.506 35.3269 152.366 34.8701C153.246 34.3942 154.288 34.1562 155.493 34.1562C156.698 34.1562 157.73 34.3942 158.591 34.8701C159.47 35.3269 160.14 35.9456 160.599 36.726C161.058 37.5065 161.287 38.3726 161.287 39.3244C161.287 40.2762 161.058 41.1423 160.599 41.9228C160.14 42.7032 159.47 43.3219 158.591 43.7787C157.73 44.2356 156.698 44.464 155.493 44.464ZM155.493 41.6087C156.22 41.6087 156.812 41.4183 157.271 41.0376C157.749 40.6379 157.988 40.0668 157.988 39.3244C157.988 38.582 157.749 38.0205 157.271 37.6398C156.812 37.259 156.22 37.0687 155.493 37.0687C154.747 37.0687 154.135 37.259 153.657 37.6398C153.198 38.0205 152.969 38.582 152.969 39.3244C152.969 40.0668 153.198 40.6379 153.657 41.0376C154.135 41.4183 154.747 41.6087 155.493 41.6087ZM157.816 37.1543L157.185 34.4989H163.152V36.6689L157.816 37.1543Z" fill="#353A3F"/>
<path d="M132.091 48.6613V34.4989H135.447L135.762 36.8403H135.82C136.279 36.0217 136.91 35.3745 137.713 34.8986C138.516 34.4037 139.501 34.1562 140.667 34.1562C141.853 34.1562 142.857 34.4132 143.679 34.9272C144.501 35.4221 145.123 36.155 145.544 37.1258C145.984 38.0966 146.203 39.2959 146.203 40.7235V48.6613H142.36V41.0662C142.36 39.886 142.121 38.9818 141.643 38.3536C141.165 37.7254 140.4 37.4113 139.348 37.4113C138.698 37.4113 138.114 37.5731 137.598 37.8967C137.101 38.2013 136.699 38.6486 136.393 39.2387C136.106 39.8098 135.963 40.5141 135.963 41.3517V48.6613H132.091Z" fill="#353A3F"/>
<path d="M122.478 49.004C121.025 49.004 119.734 48.6994 118.606 48.0903C117.497 47.4811 116.627 46.6245 115.996 45.5205C115.365 44.4164 115.049 43.1506 115.049 41.7229C115.049 40.2381 115.355 38.9342 115.967 37.8111C116.598 36.6689 117.468 35.7743 118.577 35.1271C119.706 34.4799 121.015 34.1562 122.507 34.1562C123.922 34.1562 125.165 34.4608 126.236 35.07C127.326 35.6791 128.168 36.5167 128.76 37.5827C129.372 38.6296 129.678 39.8193 129.678 41.1518C129.678 41.3422 129.678 41.5611 129.678 41.8085C129.678 42.037 129.659 42.2749 129.621 42.5224H117.803V40.1525H125.748C125.691 39.2768 125.356 38.5725 124.745 38.0395C124.152 37.5065 123.406 37.24 122.507 37.24C121.838 37.24 121.226 37.3923 120.671 37.6969C120.117 37.9824 119.677 38.4202 119.352 39.0103C119.027 39.6004 118.864 40.3523 118.864 41.266V42.0941C118.864 42.8745 119.017 43.5503 119.323 44.1214C119.629 44.6734 120.05 45.1017 120.585 45.4063C121.14 45.7108 121.761 45.8631 122.45 45.8631C123.157 45.8631 123.75 45.7108 124.228 45.4063C124.706 45.0827 125.07 44.6734 125.318 44.1785H129.277C128.99 45.0731 128.531 45.8917 127.9 46.6341C127.269 47.3574 126.494 47.938 125.576 48.3758C124.658 48.7946 123.626 49.004 122.478 49.004Z" fill="#353A3F"/>
<path d="M108.534 48.6615V28.3887H112.407V48.6615H108.534Z" fill="#353A3F"/>
<path d="M101.419 48.6615V28.3887H105.291V48.6615H101.419Z" fill="#353A3F"/>
<path d="M90.0162 49.004C88.8496 49.004 87.8839 48.8136 87.119 48.4329C86.3541 48.0522 85.7899 47.5382 85.4266 46.891C85.0633 46.2438 84.8816 45.53 84.8816 44.7495C84.8816 43.8739 85.1015 43.103 85.5413 42.4367C86.0003 41.7705 86.6887 41.2565 87.6066 40.8948C88.5246 40.5141 89.6815 40.3238 91.0775 40.3238H94.6631C94.6631 39.6195 94.5579 39.0484 94.3475 38.6106C94.1563 38.1537 93.8503 37.8111 93.4296 37.5827C93.0281 37.3542 92.5117 37.24 91.8807 37.24C91.1349 37.24 90.4942 37.4113 89.9588 37.754C89.4425 38.0776 89.1174 38.582 88.9835 39.2673H85.2258C85.3405 38.2203 85.6848 37.3162 86.2585 36.5547C86.8513 35.7933 87.6353 35.2032 88.6106 34.7844C89.5859 34.3656 90.6759 34.1562 91.8807 34.1562C93.2575 34.1562 94.4432 34.3847 95.4376 34.8415C96.432 35.2793 97.1969 35.9361 97.7323 36.8117C98.2678 37.6683 98.5355 38.7153 98.5355 39.9526V48.6613H95.2941L94.8639 46.4627H94.8065C94.5579 46.8625 94.2711 47.2242 93.946 47.5478C93.6209 47.8523 93.2575 48.1188 92.8559 48.3473C92.4735 48.5567 92.0432 48.7185 91.5651 48.8327C91.0871 48.9469 90.5707 49.004 90.0162 49.004ZM91.1062 46.0344C91.6225 46.0344 92.0815 45.9488 92.483 45.7775C92.8846 45.5871 93.2193 45.3396 93.487 45.0351C93.7739 44.7305 93.9938 44.3783 94.1468 43.9786C94.3189 43.5598 94.4336 43.1315 94.491 42.6937H91.5078C90.9149 42.6937 90.4273 42.7698 90.0448 42.9221C89.6815 43.0554 89.4138 43.2552 89.2417 43.5217C89.0696 43.7692 88.9835 44.0643 88.9835 44.4069C88.9835 44.7495 89.0696 45.0446 89.2417 45.2921C89.4138 45.5395 89.6624 45.7299 89.9875 45.8631C90.3126 45.9773 90.6855 46.0344 91.1062 46.0344Z" fill="#353A3F"/>
<path d="M68.3083 48.6615V28.3887H72.1521V36.7548H72.2095C72.6875 35.9363 73.3282 35.2986 74.1313 34.8417C74.9345 34.3849 75.8811 34.1564 76.9711 34.1564C78.1185 34.1564 79.0938 34.4134 79.897 34.9274C80.7193 35.4223 81.3408 36.1552 81.7615 37.126C82.2013 38.0968 82.4212 39.296 82.4212 40.7237V48.6615H78.5775V41.0663C78.5775 39.8861 78.3384 38.982 77.8604 38.3538C77.4014 37.7256 76.6556 37.4115 75.623 37.4115C74.9536 37.4115 74.3608 37.5733 73.8445 37.8969C73.3282 38.2015 72.917 38.6488 72.6111 39.2389C72.3242 39.81 72.1808 40.5143 72.1808 41.3519V48.6615H68.3083Z" fill="#353A3F"/>
<path d="M56.6776 49.0037C54.6697 49.0037 52.9295 48.5754 51.457 47.7188C50.0036 46.8431 48.8849 45.6344 48.1009 44.0925C47.3168 42.5316 46.9248 40.7327 46.9248 38.6959C46.9248 36.6591 47.3168 34.8602 48.1009 33.2993C48.8849 31.7384 50.0036 30.5201 51.457 29.6445C52.9103 28.7689 54.6506 28.3311 56.6776 28.3311C59.1254 28.3311 61.1237 28.9307 62.6727 30.1299C64.2217 31.3292 65.1874 33.0233 65.5699 35.2124H61.3245C61.0759 34.1464 60.5596 33.3184 59.7756 32.7283C58.9915 32.1191 57.9493 31.8146 56.6489 31.8146C55.4442 31.8146 54.402 32.1001 53.5223 32.6712C52.6617 33.2232 52.002 34.0132 51.543 35.0411C51.0841 36.069 50.8546 37.2873 50.8546 38.6959C50.8546 40.1045 51.0841 41.3228 51.543 42.3507C52.002 43.3596 52.6617 44.1401 53.5223 44.6921C54.402 45.2441 55.4442 45.5202 56.6489 45.5202C57.9493 45.5202 58.9915 45.2441 59.7756 44.6921C60.5596 44.1401 61.0759 43.3596 61.3245 42.3507H65.5699C65.2065 44.4256 64.2408 46.0532 62.6727 47.2334C61.1237 48.4136 59.1254 49.0037 56.6776 49.0037Z" fill="#353A3F"/>
<path d="M4.43973 25.1837L3.26709 25.9795L6.23851 30.349L7.41115 29.5532L4.43973 25.1837Z" fill="#669FC1"/>
<path d="M9.47688 8.76575C10.804 8.76575 11.8798 7.69103 11.8798 6.3653C11.8798 5.03956 10.804 3.96484 9.47688 3.96484C8.14979 3.96484 7.07397 5.03956 7.07397 6.3653C7.07397 7.69103 8.14979 8.76575 9.47688 8.76575Z" fill="#EB8231"/>
<path d="M12.6813 28.9436L7.05859 30.4697L7.43028 31.8364L13.053 30.3103L12.6813 28.9436Z" fill="#669FC1"/>
<path d="M8.68112 31.9998L7.44897 32.7002L11.0631 39.0454L12.2952 38.345L8.68112 31.9998Z" fill="#669FC1"/>
<path d="M2.2292 15.5598L1.6958 21.7754L3.10826 21.8964L3.64166 15.6808L2.2292 15.5598Z" fill="#669FC1"/>
<path d="M14.7774 12.868L4.76855 13.3955L4.84324 14.8097L14.852 14.2822L14.7774 12.868Z" fill="#669FC1"/>
<path d="M8.22303 7.14293L3.98413 11.7432L5.02715 12.7023L9.26605 8.10206L8.22303 7.14293Z" fill="#669FC1"/>
<path d="M19.4427 1.8873L10.4934 5.12891L10.9766 6.46029L19.926 3.21868L19.4427 1.8873Z" fill="#669FC1"/>
<path d="M22.4892 2.56029L22.0195 3.89648L30.9678 7.0357L31.4375 5.6995L22.4892 2.56029Z" fill="#669FC1"/>
<path d="M11.2149 7.4648L10.2581 8.50977L15.2842 13.1027L16.2411 12.0577L11.2149 7.4648Z" fill="#669FC1"/>
<path d="M19.0182 3.92997L16.3496 11.2109L17.6808 11.6979L20.3494 4.41689L19.0182 3.92997Z" fill="#669FC1"/>
<path d="M28.1885 11.8702L18.2898 12.6641L18.4032 14.0757L28.302 13.2818L28.1885 11.8702Z" fill="#669FC1"/>
<path d="M22.0222 4.30724L21.0024 5.29102L27.433 11.9433L28.4528 10.9595L22.0222 4.30724Z" fill="#669FC1"/>
<path d="M27.5935 13.2844L25.0464 19.1504L26.3469 19.714L28.8941 13.8479L27.5935 13.2844Z" fill="#669FC1"/>
<path d="M18.2952 14.6384L17.3115 15.6582L22.5788 20.729L23.5625 19.7092L18.2952 14.6384Z" fill="#669FC1"/>
<path d="M5.01831 14.9197L3.98999 15.8945L9.35223 21.5394L10.3805 20.5646L5.01831 14.9197Z" fill="#669FC1"/>
<path d="M15.3389 29.1597L12.7233 28.3383L10.6536 23.4807L11.9649 22.9284L13.7724 27.1841L15.0766 27.5948L23.2989 21.583L24.1353 22.7301L15.3389 29.1597Z" fill="#669FC1"/>
<path d="M32.8324 7.52707L31.7573 8.4502L36.0496 13.4389L37.1247 12.5158L32.8324 7.52707Z" fill="#669FC1"/>
<path d="M35.3725 14.5541L27.3103 19.624L28.0655 20.8225L36.1277 15.7526L35.3725 14.5541Z" fill="#669FC1"/>
<path d="M37.8173 15.9742L36.4053 16.0996L36.9959 22.7366L38.408 22.6112L37.8173 15.9742Z" fill="#669FC1"/>
<path d="M28.0513 21.7675L27.854 23.1699L37.9125 24.5821L38.1098 23.1797L28.0513 21.7675Z" fill="#669FC1"/>
<path d="M16.0154 29.2867L15.4961 30.6045L22.8038 33.4787L23.3232 32.1609L16.0154 29.2867Z" fill="#669FC1"/>
<path d="M35.9822 24.9073L32.3682 30.792L33.5765 31.5326L37.1906 25.6479L35.9822 24.9073Z" fill="#669FC1"/>
<path d="M26.6969 24.0902L25.634 25.0273L32.0597 32.3008L33.1226 31.3637L26.6969 24.0902Z" fill="#669FC1"/>
<path d="M23.2116 33.5544L18.6777 38.1973L19.6925 39.1862L24.2264 34.5433L23.2116 33.5544Z" fill="#669FC1"/>
<path d="M27.7079 40.9208L23.7668 35.433L24.9151 34.6045L27.6724 38.4353L31.7056 32.4307L32.8823 33.2167L27.7079 40.9208Z" fill="#669FC1"/>
<path d="M14.4484 14.9991L10.7295 20.2812L11.889 21.096L15.608 15.8138L14.4484 14.9991Z" fill="#669FC1"/>
<path d="M13.1404 31.2768L12.1677 37.3027L13.5673 37.5282L14.54 31.5022L13.1404 31.2768Z" fill="#669FC1"/>
<path d="M13.8361 32.346C15.4372 32.346 16.7352 31.0493 16.7352 29.4498C16.7352 27.8503 15.4372 26.5537 13.8361 26.5537C12.235 26.5537 10.937 27.8503 10.937 29.4498C10.937 31.0493 12.235 32.346 13.8361 32.346Z" fill="#6DB56D"/>
<path d="M16.3524 16.4631C17.9536 16.4631 19.2515 15.1665 19.2515 13.567C19.2515 11.9675 17.9536 10.6709 16.3524 10.6709C14.7513 10.6709 13.4534 11.9675 13.4534 13.567C13.4534 15.1665 14.7513 16.4631 16.3524 16.4631Z" fill="#6DB56D"/>
<path d="M19.1807 40.5957C20.2337 40.5957 21.0874 39.7429 21.0874 38.6909C21.0874 37.6389 20.2337 36.7861 19.1807 36.7861C18.1276 36.7861 17.2739 37.6389 17.2739 38.6909C17.2739 39.7429 18.1276 40.5957 19.1807 40.5957Z" fill="#6DB56D"/>
<path d="M7.24413 33.0615C8.29718 33.0615 9.15085 32.2087 9.15085 31.1567C9.15085 30.1048 8.29718 29.252 7.24413 29.252C6.19107 29.252 5.3374 30.1048 5.3374 31.1567C5.3374 32.2087 6.19107 33.0615 7.24413 33.0615Z" fill="#6DB56D"/>
<path d="M10.4693 24.2316C11.7964 24.2316 12.8722 23.1568 12.8722 21.8311C12.8722 20.5054 11.7964 19.4307 10.4693 19.4307C9.14222 19.4307 8.06641 20.5054 8.06641 21.8311C8.06641 23.1568 9.14222 24.2316 10.4693 24.2316Z" fill="#EB8231"/>
<path d="M2.4029 26.0724C3.72998 26.0724 4.8058 24.9977 4.8058 23.6719C4.8058 22.3462 3.72998 21.2715 2.4029 21.2715C1.07581 21.2715 0 22.3462 0 23.6719C0 24.9977 1.07581 26.0724 2.4029 26.0724Z" fill="#EB8231"/>
<path d="M9.47691 9.01435C10.941 9.01435 12.1279 7.82867 12.1279 6.36606C12.1279 4.90345 10.941 3.71777 9.47691 3.71777C8.01281 3.71777 6.82593 4.90345 6.82593 6.36606C6.82593 7.82867 8.01281 9.01435 9.47691 9.01435Z" fill="#EB8231"/>
<path d="M30.8976 9.01435C32.3617 9.01435 33.5486 7.82867 33.5486 6.36606C33.5486 4.90345 32.3617 3.71777 30.8976 3.71777C29.4335 3.71777 28.2466 4.90345 28.2466 6.36606C28.2466 7.82867 29.4335 9.01435 30.8976 9.01435Z" fill="#EB8231"/>
<path d="M37.1068 16.7468C38.5709 16.7468 39.7578 15.5611 39.7578 14.0985C39.7578 12.6359 38.5709 11.4502 37.1068 11.4502C35.6427 11.4502 34.4558 12.6359 34.4558 14.0985C34.4558 15.5611 35.6427 16.7468 37.1068 16.7468Z" fill="#EB8231"/>
<path d="M28.6221 14.4805C29.6751 14.4805 30.5288 13.6277 30.5288 12.5757C30.5288 11.5237 29.6751 10.6709 28.6221 10.6709C27.569 10.6709 26.7153 11.5237 26.7153 12.5757C26.7153 13.6277 27.569 14.4805 28.6221 14.4805Z" fill="#EB8231"/>
<path d="M32.5916 34.0455C33.813 34.0455 34.8032 33.0564 34.8032 31.8362C34.8032 30.6161 33.813 29.627 32.5916 29.627C31.3703 29.627 30.3801 30.6161 30.3801 31.8362C30.3801 33.0564 31.3703 34.0455 32.5916 34.0455Z" fill="#EB8231"/>
<path d="M27.9488 42.571C29.3737 42.571 30.5289 41.417 30.5289 39.9935C30.5289 38.57 29.3737 37.416 27.9488 37.416C26.5238 37.416 25.3687 38.57 25.3687 39.9935C25.3687 41.417 26.5238 42.571 27.9488 42.571Z" fill="#6DB56D"/>
<path d="M23.7172 36.0421C25.0677 36.0421 26.1626 34.9484 26.1626 33.5992C26.1626 32.25 25.0677 31.1562 23.7172 31.1562C22.3666 31.1562 21.2717 32.25 21.2717 33.5992C21.2717 34.9484 22.3666 36.0421 23.7172 36.0421Z" fill="#EB8231"/>
<path d="M3.26773 17.2424C4.86884 17.2424 6.1668 15.9458 6.1668 14.3463C6.1668 12.7468 4.86884 11.4502 3.26773 11.4502C1.66661 11.4502 0.368652 12.7468 0.368652 14.3463C0.368652 15.9458 1.66661 17.2424 3.26773 17.2424Z" fill="#6DB56D"/>
<path d="M12.3759 42.5706C13.977 42.5706 15.275 41.2739 15.275 39.6744C15.275 38.075 13.977 36.7783 12.3759 36.7783C10.7748 36.7783 9.47681 38.075 9.47681 39.6744C9.47681 41.2739 10.7748 42.5706 12.3759 42.5706Z" fill="#EB8231"/>
<path d="M37.695 27.0569C39.2961 27.0569 40.594 25.7603 40.594 24.1608C40.594 22.5613 39.2961 21.2646 37.695 21.2646C36.0939 21.2646 34.7959 22.5613 34.7959 24.1608C34.7959 25.7603 36.0939 27.0569 37.695 27.0569Z" fill="#6DB56D"/>
<path d="M20.173 5.79224C21.7741 5.79224 23.0721 4.49561 23.0721 2.89612C23.0721 1.29664 21.7741 0 20.173 0C18.5719 0 17.2739 1.29664 17.2739 2.89612C17.2739 4.49561 18.5719 5.79224 20.173 5.79224Z" fill="#6DB56D"/>
<path d="M25.2199 25.7823C27.4043 25.7823 29.1751 24.0133 29.1751 21.8311C29.1751 19.6489 27.4043 17.8799 25.2199 17.8799C23.0355 17.8799 21.2646 19.6489 21.2646 21.8311C21.2646 24.0133 23.0355 25.7823 25.2199 25.7823Z" fill="#EB8231"/>
<path d="M26.8997 44.0361H13.4392C12.5153 44.0361 11.7664 44.7843 11.7664 45.7072V45.7143C11.7664 46.6373 12.5153 47.3854 13.4392 47.3854H26.8997C27.8235 47.3854 28.5725 46.6373 28.5725 45.7143V45.7072C28.5725 44.7843 27.8235 44.0361 26.8997 44.0361Z" fill="#669FC1"/>
<path d="M24.674 48.8516H16.1965C15.2726 48.8516 14.5237 49.5997 14.5237 50.5227V50.5298C14.5237 51.4527 15.2726 52.2009 16.1965 52.2009H24.674C25.5979 52.2009 26.3468 51.4527 26.3468 50.5298V50.5227C26.3468 49.5997 25.5979 48.8516 24.674 48.8516Z" fill="#669FC1"/>
<path d="M59.8381 7.56207C59.759 7.69182 59.6711 7.79129 59.5745 7.86048C59.4866 7.92103 59.3768 7.9513 59.245 7.9513C59.0956 7.9513 58.9199 7.87778 58.7178 7.73074C58.5157 7.5837 58.261 7.42368 57.9534 7.25069C57.6547 7.06905 57.2901 6.90471 56.8596 6.75767C56.4378 6.61062 55.9238 6.5371 55.3176 6.5371C54.7465 6.5371 54.2413 6.61495 53.802 6.77064C53.3715 6.91769 53.0068 7.12095 52.7081 7.38043C52.4182 7.63992 52.1985 7.94698 52.0492 8.30161C51.8998 8.64759 51.8251 9.02384 51.8251 9.43037C51.8251 9.94935 51.9525 10.3818 52.2073 10.7278C52.4709 11.0651 52.8135 11.3549 53.2353 11.5971C53.6658 11.8392 54.149 12.0512 54.685 12.2328C55.2298 12.4058 55.7833 12.5875 56.3456 12.7777C56.9167 12.968 57.4702 13.1843 58.0061 13.4265C58.5509 13.66 59.0341 13.9584 59.4559 14.3217C59.8864 14.685 60.229 15.1304 60.4838 15.658C60.7474 16.1856 60.8792 16.8344 60.8792 17.6042C60.8792 18.4172 60.7387 19.1827 60.4575 19.9006C60.1763 20.6099 59.7634 21.2284 59.2186 21.756C58.6827 22.2836 58.0193 22.6987 57.2286 23.0015C56.4466 23.3042 55.5548 23.4556 54.5532 23.4556C53.3231 23.4556 52.2073 23.2394 51.2057 22.8069C50.2041 22.3658 49.3474 21.7733 48.6357 21.0294L49.3738 19.8358C49.4441 19.7406 49.5275 19.6628 49.6242 19.6022C49.7296 19.533 49.8438 19.4984 49.9668 19.4984C50.0811 19.4984 50.2085 19.546 50.349 19.6411C50.4984 19.7276 50.6653 19.8401 50.8498 19.9785C51.0344 20.1169 51.2452 20.2683 51.4824 20.4326C51.7197 20.5969 51.9877 20.7483 52.2864 20.8867C52.5939 21.0251 52.9409 21.1418 53.3275 21.237C53.7141 21.3235 54.149 21.3667 54.6323 21.3667C55.2385 21.3667 55.7789 21.2845 56.2533 21.1202C56.7278 20.9559 57.1276 20.7266 57.4526 20.4326C57.7865 20.1298 58.0413 19.7709 58.217 19.3557C58.3928 18.9405 58.4806 18.4778 58.4806 17.9675C58.4806 17.4052 58.3488 16.9468 58.0852 16.5922C57.8304 16.2289 57.4922 15.9262 57.0704 15.684C56.6487 15.4418 56.1655 15.2385 55.6207 15.0742C55.076 14.9012 54.5224 14.7282 53.9601 14.5552C53.3978 14.3736 52.8443 14.166 52.2996 13.9325C51.7548 13.6989 51.2716 13.3962 50.8498 13.0243C50.4281 12.6523 50.0855 12.1896 49.8219 11.636C49.5671 11.0738 49.4397 10.3818 49.4397 9.56012C49.4397 8.90275 49.5671 8.26701 49.8219 7.65289C50.0855 7.03877 50.4633 6.49386 50.9553 6.01813C51.4561 5.54241 52.0667 5.16183 52.7872 4.87639C53.5164 4.59096 54.3511 4.44824 55.2912 4.44824C56.3456 4.44824 57.3032 4.61258 58.1643 4.94126C59.0341 5.26995 59.7985 5.74567 60.4575 6.36844L59.8381 7.56207Z" fill="#353A3F"/>
<path d="M76.7954 15.8391V23.2474H74.2387V15.8391L67.3196 4.65527H69.56C69.7885 4.65527 69.9686 4.7115 70.1004 4.82394C70.2322 4.92773 70.3464 5.06613 70.4431 5.23912L74.7658 12.4658C74.924 12.7686 75.0689 13.054 75.2007 13.3221C75.3325 13.5816 75.4467 13.8454 75.5434 14.1135C75.6401 13.8454 75.7498 13.5816 75.8729 13.3221C75.9959 13.054 76.132 12.7686 76.2814 12.4658L80.591 5.23912C80.6701 5.09207 80.7799 4.95801 80.9205 4.83691C81.0611 4.71582 81.2412 4.65527 81.4608 4.65527H83.7145L76.7954 15.8391Z" fill="#353A3F"/>
<path d="M105.737 4.65527V23.2474H104.459C104.257 23.2474 104.085 23.2129 103.945 23.1437C103.813 23.0744 103.681 22.9577 103.549 22.7933L92.6238 8.7811C92.6413 8.99734 92.6545 9.20925 92.6633 9.41684C92.6721 9.62443 92.6764 9.81905 92.6764 10.0007V23.2474H90.436V4.65527H91.754C91.8682 4.65527 91.9648 4.66392 92.0438 4.68122C92.1229 4.68987 92.1932 4.71149 92.2547 4.74609C92.3162 4.77204 92.3777 4.81529 92.4392 4.87584C92.5008 4.92773 92.5666 4.99693 92.637 5.08343L103.562 19.0827C103.545 18.8578 103.527 18.6416 103.51 18.434C103.501 18.2178 103.497 18.0145 103.497 17.8242V4.65527H105.737Z" fill="#353A3F"/>
<path d="M125.537 16.3451L122.572 8.7811C122.484 8.55621 122.391 8.29673 122.295 8.00264C122.198 7.69991 122.106 7.37988 122.019 7.04255C121.834 7.74316 121.645 8.327 121.452 8.79408L118.487 16.3451H125.537ZM130.862 23.2474H128.885C128.656 23.2474 128.472 23.1912 128.331 23.0788C128.19 22.9664 128.085 22.8236 128.015 22.6506L126.249 18.1615H117.775L116.009 22.6506C115.956 22.8063 115.855 22.9447 115.706 23.0658C115.556 23.1869 115.372 23.2474 115.152 23.2474H113.175L120.727 4.65527H123.31L130.862 23.2474Z" fill="#353A3F"/>
<path d="M144.522 14.2952C145.251 14.2952 145.892 14.2 146.446 14.0097C147.008 13.8195 147.478 13.5556 147.856 13.2183C148.243 12.8724 148.533 12.4615 148.726 11.9858C148.919 11.5101 149.016 10.9867 149.016 10.4159C149.016 9.23088 148.642 8.30538 147.895 7.63936C147.157 6.97335 146.033 6.64034 144.522 6.64034H141.49V14.2952H144.522ZM144.522 4.65527C145.716 4.65527 146.753 4.79367 147.632 5.07045C148.519 5.33858 149.253 5.72349 149.833 6.22516C150.413 6.72684 150.843 7.33231 151.124 8.04157C151.414 8.75083 151.559 9.54226 151.559 10.4159C151.559 11.2808 151.406 12.0722 151.098 12.7902C150.79 13.5081 150.338 14.1265 149.741 14.6455C149.152 15.1645 148.418 15.571 147.54 15.8651C146.67 16.1505 145.664 16.2932 144.522 16.2932H141.49V23.2474H138.947V4.65527H144.522Z" fill="#353A3F"/>
<path d="M170.698 7.56207C170.619 7.69182 170.531 7.79129 170.434 7.86048C170.346 7.92103 170.236 7.9513 170.105 7.9513C169.956 7.9513 169.78 7.87778 169.577 7.73074C169.376 7.5837 169.121 7.42368 168.813 7.25069C168.515 7.06905 168.15 6.90471 167.719 6.75767C167.297 6.61062 166.783 6.5371 166.177 6.5371C165.607 6.5371 165.101 6.61495 164.662 6.77064C164.231 6.91769 163.867 7.12095 163.568 7.38043C163.278 7.63992 163.058 7.94698 162.909 8.30161C162.76 8.64759 162.685 9.02384 162.685 9.43037C162.685 9.94935 162.813 10.3818 163.067 10.7278C163.331 11.0651 163.673 11.3549 164.095 11.5971C164.526 11.8392 165.009 12.0512 165.545 12.2328C166.09 12.4058 166.643 12.5875 167.205 12.7777C167.777 12.968 168.33 13.1843 168.866 13.4265C169.411 13.66 169.894 13.9584 170.315 14.3217C170.746 14.685 171.089 15.1304 171.343 15.658C171.607 16.1856 171.739 16.8344 171.739 17.6042C171.739 18.4172 171.598 19.1827 171.317 19.9006C171.036 20.6099 170.623 21.2284 170.078 21.756C169.543 22.2836 168.879 22.6987 168.088 23.0015C167.307 23.3042 166.414 23.4556 165.413 23.4556C164.183 23.4556 163.067 23.2394 162.065 22.8069C161.064 22.3658 160.207 21.7733 159.495 21.0294L160.233 19.8358C160.304 19.7406 160.388 19.6628 160.484 19.6022C160.589 19.533 160.704 19.4984 160.826 19.4984C160.941 19.4984 161.068 19.546 161.209 19.6411C161.358 19.7276 161.525 19.8401 161.709 19.9785C161.894 20.1169 162.105 20.2683 162.342 20.4326C162.579 20.5969 162.847 20.7483 163.146 20.8867C163.454 21.0251 163.801 21.1418 164.187 21.237C164.574 21.3235 165.009 21.3667 165.492 21.3667C166.098 21.3667 166.638 21.2845 167.113 21.1202C167.587 20.9559 167.987 20.7266 168.312 20.4326C168.646 20.1298 168.901 19.7709 169.077 19.3557C169.253 18.9405 169.34 18.4778 169.34 17.9675C169.34 17.4052 169.208 16.9468 168.945 16.5922C168.69 16.2289 168.352 15.9262 167.93 15.684C167.508 15.4418 167.025 15.2385 166.48 15.0742C165.936 14.9012 165.383 14.7282 164.82 14.5552C164.258 14.3736 163.704 14.166 163.159 13.9325C162.615 13.6989 162.131 13.3962 161.709 13.0243C161.288 12.6523 160.945 12.1896 160.681 11.636C160.427 11.0738 160.299 10.3818 160.299 9.56012C160.299 8.90275 160.427 8.26701 160.681 7.65289C160.945 7.03877 161.323 6.49385 161.815 6.01813C162.316 5.54241 162.927 5.16183 163.647 4.87639C164.376 4.59096 165.211 4.44824 166.151 4.44824C167.205 4.44824 168.163 4.61258 169.024 4.94126C169.894 5.26995 170.658 5.74567 171.317 6.36844L170.698 7.56207Z" fill="#353A3F"/>
<path d="M193.26 21.1975L193.246 23.2474H181.609V4.65527H193.246V6.70521H184.166V12.881H191.52V14.8531H184.166V21.1975H193.26Z" fill="#353A3F"/>
<path d="M261.05 15.5V5.7H264.242C265.017 5.7 265.651 5.83067 266.146 6.092C266.65 6.344 267.019 6.68467 267.252 7.114C267.495 7.54333 267.616 8.03333 267.616 8.584C267.616 9.116 267.495 9.60133 267.252 10.04C267.019 10.4693 266.655 10.8147 266.16 11.076C265.665 11.3373 265.026 11.468 264.242 11.468H262.226V15.5H261.05ZM262.226 10.474H264.228C265.012 10.474 265.572 10.3013 265.908 9.956C266.244 9.61067 266.412 9.15333 266.412 8.584C266.412 7.97733 266.244 7.51067 265.908 7.184C265.572 6.848 265.012 6.68 264.228 6.68H262.226V10.474ZM271.841 15.668C271.188 15.668 270.6 15.5187 270.077 15.22C269.554 14.912 269.144 14.4827 268.845 13.932C268.546 13.372 268.397 12.7233 268.397 11.986C268.397 11.23 268.546 10.5767 268.845 10.026C269.153 9.466 269.568 9.03667 270.091 8.738C270.623 8.43 271.216 8.276 271.869 8.276C272.541 8.276 273.134 8.43 273.647 8.738C274.17 9.03667 274.58 9.466 274.879 10.026C275.187 10.5767 275.341 11.2253 275.341 11.972C275.341 12.7187 275.187 13.372 274.879 13.932C274.571 14.4827 274.156 14.912 273.633 15.22C273.11 15.5187 272.513 15.668 271.841 15.668ZM271.855 14.66C272.256 14.66 272.63 14.562 272.975 14.366C273.32 14.1607 273.6 13.8573 273.815 13.456C274.03 13.0547 274.137 12.56 274.137 11.972C274.137 11.3747 274.03 10.88 273.815 10.488C273.61 10.0867 273.334 9.788 272.989 9.592C272.653 9.38667 272.28 9.284 271.869 9.284C271.477 9.284 271.104 9.38667 270.749 9.592C270.404 9.788 270.124 10.0867 269.909 10.488C269.704 10.88 269.601 11.3747 269.601 11.972C269.601 12.56 269.704 13.0547 269.909 13.456C270.124 13.8573 270.399 14.1607 270.735 14.366C271.08 14.562 271.454 14.66 271.855 14.66ZM278.158 15.5L276.086 8.444H277.262L278.872 14.394H278.662L280.412 8.444H281.742L283.52 14.38L283.296 14.394L284.892 8.444H286.082L284.024 15.5H282.82L280.972 9.284H281.21L279.362 15.5H278.158ZM290.242 15.668C289.579 15.668 288.991 15.514 288.478 15.206C287.974 14.898 287.577 14.4687 287.288 13.918C286.999 13.358 286.854 12.7093 286.854 11.972C286.854 11.2253 286.994 10.5767 287.274 10.026C287.563 9.47533 287.965 9.046 288.478 8.738C289.001 8.43 289.598 8.276 290.27 8.276C290.961 8.276 291.544 8.43 292.02 8.738C292.505 9.046 292.874 9.452 293.126 9.956C293.387 10.4507 293.518 10.9967 293.518 11.594C293.518 11.6873 293.518 11.7853 293.518 11.888C293.518 11.9907 293.513 12.1073 293.504 12.238H287.736V11.328H292.37C292.342 10.684 292.127 10.18 291.726 9.816C291.334 9.452 290.839 9.27 290.242 9.27C289.841 9.27 289.467 9.36333 289.122 9.55C288.786 9.72733 288.515 9.99333 288.31 10.348C288.105 10.6933 288.002 11.1273 288.002 11.65V12.042C288.002 12.6207 288.105 13.106 288.31 13.498C288.525 13.89 288.8 14.184 289.136 14.38C289.481 14.576 289.85 14.674 290.242 14.674C290.737 14.674 291.143 14.5667 291.46 14.352C291.787 14.128 292.02 13.8293 292.16 13.456H293.322C293.21 13.876 293.014 14.254 292.734 14.59C292.454 14.926 292.104 15.192 291.684 15.388C291.273 15.5747 290.793 15.668 290.242 15.668ZM295.105 15.5V8.444H296.169L296.253 9.788C296.412 9.47067 296.612 9.2 296.855 8.976C297.107 8.752 297.406 8.57933 297.751 8.458C298.106 8.33667 298.507 8.276 298.955 8.276V9.508H298.521C298.222 9.508 297.938 9.55 297.667 9.634C297.396 9.70867 297.154 9.83467 296.939 10.012C296.734 10.1893 296.57 10.432 296.449 10.74C296.337 11.0387 296.281 11.412 296.281 11.86V15.5H295.105ZM303.121 15.668C302.458 15.668 301.87 15.514 301.357 15.206C300.853 14.898 300.456 14.4687 300.167 13.918C299.878 13.358 299.733 12.7093 299.733 11.972C299.733 11.2253 299.873 10.5767 300.153 10.026C300.442 9.47533 300.844 9.046 301.357 8.738C301.88 8.43 302.477 8.276 303.149 8.276C303.84 8.276 304.423 8.43 304.899 8.738C305.384 9.046 305.753 9.452 306.005 9.956C306.266 10.4507 306.397 10.9967 306.397 11.594C306.397 11.6873 306.397 11.7853 306.397 11.888C306.397 11.9907 306.392 12.1073 306.383 12.238H300.615V11.328H305.249C305.221 10.684 305.006 10.18 304.605 9.816C304.213 9.452 303.718 9.27 303.121 9.27C302.72 9.27 302.346 9.36333 302.001 9.55C301.665 9.72733 301.394 9.99333 301.189 10.348C300.984 10.6933 300.881 11.1273 300.881 11.65V12.042C300.881 12.6207 300.984 13.106 301.189 13.498C301.404 13.89 301.679 14.184 302.015 14.38C302.36 14.576 302.729 14.674 303.121 14.674C303.616 14.674 304.022 14.5667 304.339 14.352C304.666 14.128 304.899 13.8293 305.039 13.456H306.201C306.089 13.876 305.893 14.254 305.613 14.59C305.333 14.926 304.983 15.192 304.563 15.388C304.152 15.5747 303.672 15.668 303.121 15.668ZM311.092 15.668C310.411 15.668 309.813 15.5093 309.3 15.192C308.787 14.8653 308.39 14.422 308.11 13.862C307.83 13.302 307.69 12.6673 307.69 11.958C307.69 11.2487 307.83 10.6187 308.11 10.068C308.39 9.508 308.787 9.06933 309.3 8.752C309.823 8.43467 310.425 8.276 311.106 8.276C311.685 8.276 312.189 8.39267 312.618 8.626C313.057 8.85933 313.393 9.186 313.626 9.606V5.42H314.802V15.5H313.738L313.64 14.338C313.491 14.5713 313.299 14.7907 313.066 14.996C312.833 15.192 312.553 15.3553 312.226 15.486C311.899 15.6073 311.521 15.668 311.092 15.668ZM311.232 14.646C311.699 14.646 312.109 14.534 312.464 14.31C312.819 14.086 313.094 13.778 313.29 13.386C313.486 12.9847 313.584 12.5133 313.584 11.972C313.584 11.44 313.486 10.9733 313.29 10.572C313.094 10.1707 312.819 9.858 312.464 9.634C312.109 9.41 311.699 9.298 311.232 9.298C310.775 9.298 310.369 9.41 310.014 9.634C309.659 9.858 309.384 10.1707 309.188 10.572C308.992 10.9733 308.894 11.44 308.894 11.972C308.894 12.5133 308.992 12.9847 309.188 13.386C309.384 13.778 309.659 14.086 310.014 14.31C310.369 14.534 310.775 14.646 311.232 14.646ZM324.176 15.668C323.775 15.668 323.411 15.612 323.084 15.5C322.767 15.3787 322.487 15.22 322.244 15.024C322.001 14.828 321.801 14.5993 321.642 14.338L321.544 15.5H320.48V5.42H321.656V9.606C321.88 9.242 322.202 8.92933 322.622 8.668C323.042 8.40667 323.56 8.276 324.176 8.276C324.857 8.276 325.455 8.43933 325.968 8.766C326.481 9.08333 326.878 9.522 327.158 10.082C327.447 10.6327 327.592 11.2627 327.592 11.972C327.592 12.6813 327.447 13.316 327.158 13.876C326.878 14.436 326.481 14.8747 325.968 15.192C325.455 15.5093 324.857 15.668 324.176 15.668ZM324.036 14.646C324.493 14.646 324.899 14.534 325.254 14.31C325.609 14.086 325.884 13.778 326.08 13.386C326.285 12.9847 326.388 12.5133 326.388 11.972C326.388 11.44 326.285 10.9733 326.08 10.572C325.884 10.1707 325.609 9.858 325.254 9.634C324.899 9.41 324.493 9.298 324.036 9.298C323.569 9.298 323.159 9.41 322.804 9.634C322.449 9.858 322.174 10.1707 321.978 10.572C321.782 10.9733 321.684 11.44 321.684 11.972C321.684 12.5133 321.782 12.9847 321.978 13.386C322.174 13.778 322.449 14.086 322.804 14.31C323.159 14.534 323.569 14.646 324.036 14.646ZM329.453 18.58L331.175 14.716H330.769L327.997 8.444H329.271L331.567 13.834L333.975 8.444H335.193L330.685 18.58H329.453Z" fill="#353A3F"/>
<path d="M267.083 42.2658L266.853 42.6476C266.921 42.6884 266.997 42.7106 267.076 42.7119C267.154 42.7133 267.232 42.6937 267.3 42.6552C267.368 42.6166 267.425 42.5606 267.465 42.4926C267.505 42.4247 267.526 42.3474 267.527 42.2686L267.083 42.2658ZM267.128 34.6009L267.572 34.6034C267.573 34.5244 267.552 34.4467 267.513 34.3782C267.474 34.3098 267.417 34.253 267.349 34.2137L267.128 34.6009ZM260.444 30.7505L260.664 30.3637C260.597 30.3248 260.52 30.3045 260.443 30.3047C260.365 30.3049 260.288 30.3257 260.221 30.3649C260.154 30.4042 260.098 30.4605 260.059 30.5283C260.02 30.5961 260 30.673 260 30.7512L260.444 30.7505ZM260.456 38.2345H260.012C260.012 38.3113 260.032 38.3868 260.069 38.4537C260.107 38.5206 260.161 38.5766 260.226 38.6163L260.456 38.2345ZM267.527 42.2683L267.572 34.6034L266.684 34.5982L266.639 42.2631L267.527 42.2683ZM267.348 34.2144L260.664 30.3635L260.223 31.1371L266.906 34.9882L267.348 34.2144ZM260 30.7512L260.012 38.2352L260.9 38.2338L260.888 30.7498L260 30.7512ZM260.226 38.6163L266.853 42.6476L267.313 41.8843L260.685 37.8528L260.226 38.6163Z" fill="#679EC1"/>
<path d="M266.909 41.8798C266.807 41.9377 266.731 42.0343 266.7 42.1483C266.668 42.2622 266.682 42.3842 266.74 42.4873C266.798 42.5905 266.894 42.6664 267.007 42.6983C267.12 42.7302 267.242 42.7156 267.344 42.6576L266.909 41.8798ZM272.957 38.9728L273.175 39.3614C273.276 39.3023 273.349 39.2059 273.379 39.0929C273.41 38.9799 273.395 38.8595 273.338 38.7575C273.281 38.6556 273.186 38.5802 273.074 38.5478C272.962 38.5153 272.842 38.5283 272.74 38.584L272.957 38.9728ZM270.76 39.7054C270.709 39.7342 270.664 39.7727 270.628 39.8189C270.592 39.865 270.566 39.9178 270.55 39.9743C270.534 40.0307 270.53 40.0897 270.537 40.1479C270.544 40.2061 270.562 40.2624 270.591 40.3134C270.619 40.3645 270.658 40.4094 270.704 40.4456C270.749 40.4818 270.802 40.5085 270.858 40.5243C270.914 40.5401 270.973 40.5446 271.031 40.5375C271.089 40.5305 271.145 40.5121 271.196 40.4833L270.76 39.7054ZM267.344 42.6576L273.175 39.3616L272.74 38.584L266.909 41.8798L267.344 42.6576ZM272.739 38.5851L270.76 39.7056L271.196 40.4833L273.175 39.3616L272.739 38.5851Z" fill="#679EC1"/>
<path d="M273.757 53.9768L273.528 54.3585C273.595 54.3994 273.671 54.4216 273.75 54.423C273.828 54.4244 273.906 54.4048 273.974 54.3663C274.043 54.3278 274.1 54.2718 274.14 54.2038C274.179 54.1359 274.201 54.0586 274.201 53.9797L273.757 53.9768ZM273.806 46.3119L274.249 46.3146C274.25 46.2356 274.23 46.1578 274.19 46.0893C274.151 46.0208 274.095 45.9639 274.026 45.9246L273.806 46.3119ZM267.118 42.4614L267.339 42.0747C267.271 42.0358 267.195 42.0154 267.117 42.0156C267.039 42.0158 266.963 42.0366 266.895 42.0759C266.828 42.1152 266.772 42.1716 266.733 42.2394C266.695 42.3072 266.674 42.3841 266.674 42.4624L267.118 42.4614ZM267.134 49.9455H266.69C266.691 50.022 266.71 50.0973 266.748 50.1639C266.785 50.2306 266.839 50.2864 266.904 50.3261L267.134 49.9455ZM274.201 53.9797L274.249 46.3148L273.362 46.3091L273.313 53.974L274.201 53.9797ZM274.026 45.9258L267.339 42.0742L266.898 42.8478L273.585 46.6991L274.026 45.9258ZM266.674 42.4624L266.69 49.9464L267.578 49.9446L267.562 42.4605L266.674 42.4624ZM266.904 50.327L273.527 54.3585L273.987 53.5957L267.364 49.5637L266.904 50.327Z" fill="#679EC1"/>
<path d="M281.835 42.5556L282.279 42.5663C282.281 42.4874 282.262 42.4094 282.224 42.3403C282.186 42.2712 282.13 42.2134 282.063 42.1729C281.996 42.1323 281.919 42.1104 281.841 42.1094C281.762 42.1084 281.685 42.1284 281.617 42.1672L281.835 42.5556ZM275.168 46.3498L274.949 45.9614C274.881 46.0004 274.824 46.0568 274.784 46.1251C274.745 46.1934 274.724 46.271 274.724 46.35L275.168 46.3498ZM275.172 54.0538H274.728C274.728 54.1321 274.749 54.209 274.788 54.2768C274.826 54.3446 274.882 54.4009 274.95 54.4401C275.017 54.4793 275.094 54.4999 275.171 54.5C275.249 54.5001 275.326 54.4796 275.393 54.4406L275.172 54.0538ZM281.65 50.3049L281.872 50.6916C281.938 50.6534 281.993 50.5988 282.032 50.533C282.071 50.4671 282.092 50.3923 282.094 50.3158L281.65 50.3049ZM281.617 42.1672L274.949 45.9614L275.386 46.7379L282.054 42.9439L281.617 42.1672ZM274.724 46.35L274.728 54.055H275.616L275.612 46.3496L274.724 46.35ZM275.393 54.4406L281.872 50.6914L281.429 49.9179L274.95 53.6682L275.393 54.4406ZM282.094 50.3156L282.279 42.5663L281.392 42.5449L281.206 50.2942L282.094 50.3156Z" fill="#6DB56D"/>
<path d="M281.61 42.7581C281.711 42.8179 281.832 42.8348 281.946 42.8049C282.06 42.775 282.157 42.7008 282.217 42.5987C282.276 42.4967 282.293 42.375 282.263 42.2605C282.234 42.146 282.16 42.048 282.058 41.9882L281.61 42.7581ZM276.064 38.9725L276.288 38.5876C276.187 38.5278 276.066 38.5109 275.952 38.5408C275.838 38.5707 275.741 38.6449 275.681 38.747C275.622 38.8491 275.605 38.9707 275.635 39.0852C275.664 39.1997 275.738 39.2977 275.84 39.3575L276.064 38.9725ZM277.799 40.5112C277.901 40.5693 278.021 40.5848 278.134 40.5545C278.246 40.5241 278.343 40.4503 278.402 40.349C278.461 40.2477 278.478 40.1271 278.449 40.0134C278.42 39.8996 278.348 39.8019 278.248 39.7413L277.799 40.5112ZM282.058 41.988L276.289 38.5876L275.84 39.3575L281.61 42.7581L282.058 41.988ZM275.84 39.3575L277.799 40.511L278.248 39.7411L276.288 38.5876L275.84 39.3575Z" fill="#6DB56D"/>
<path d="M288.647 30.9246L289.091 30.9353C289.093 30.8564 289.074 30.7785 289.036 30.7094C288.998 30.6404 288.943 30.5826 288.875 30.542C288.808 30.5015 288.731 30.4796 288.653 30.4786C288.574 30.4775 288.497 30.4974 288.429 30.5362L288.647 30.9246ZM281.98 34.7147L281.762 34.3263C281.694 34.3651 281.637 34.4215 281.597 34.4898C281.557 34.5581 281.536 34.6358 281.536 34.7149L281.98 34.7147ZM281.984 42.4228H281.54C281.54 42.5011 281.561 42.5781 281.6 42.6459C281.638 42.7137 281.694 42.7701 281.762 42.8093C281.829 42.8484 281.906 42.8691 281.984 42.8692C282.062 42.8692 282.138 42.8487 282.206 42.8096L281.984 42.4228ZM288.462 38.6689L288.684 39.0556C288.75 39.0174 288.805 38.9627 288.843 38.8969C288.882 38.8311 288.904 38.7563 288.906 38.6798L288.462 38.6689ZM288.429 30.5362L281.762 34.3263L282.199 35.1031L288.866 31.3129L288.429 30.5362ZM281.536 34.7149L281.54 42.424H282.428L282.424 34.7145L281.536 34.7149ZM282.206 42.8096L288.684 39.0556L288.24 38.2821L281.762 42.0372L282.206 42.8096ZM288.906 38.6805L289.091 30.9353L288.204 30.9139L288.018 38.6591L288.906 38.6805Z" fill="#6DB56D"/>
<path d="M274.742 29.7356L274.53 29.3434C274.461 29.3812 274.403 29.4367 274.362 29.5045C274.321 29.5722 274.299 29.6496 274.298 29.7288C274.297 29.8079 274.316 29.886 274.355 29.9549C274.394 30.0238 274.45 30.0812 274.518 30.121L274.742 29.7356ZM281.361 33.6102L281.137 33.9958C281.205 34.0353 281.281 34.0562 281.359 34.0564C281.437 34.0567 281.514 34.0362 281.582 33.9972L281.361 33.6102ZM288.04 29.7516L288.261 30.1383C288.329 30.0992 288.385 30.0429 288.424 29.975C288.463 29.9071 288.484 29.83 288.484 29.7516C288.484 29.6731 288.463 29.596 288.424 29.5281C288.385 29.4602 288.329 29.4039 288.261 29.3648L288.04 29.7516ZM281.55 26.0217L281.77 25.6349C281.704 25.5973 281.63 25.577 281.555 25.5762C281.479 25.5754 281.405 25.5939 281.338 25.6302L281.55 26.0217ZM274.518 30.121L281.137 33.9958L281.585 33.2245L274.965 29.35L274.518 30.121ZM281.582 33.9969L288.26 30.1386L287.818 29.365L281.14 33.2234L281.582 33.9969ZM288.26 29.3643L281.77 25.6345L281.33 26.408L287.82 30.1379L288.26 29.3643ZM281.338 25.6295L274.53 29.3434L274.954 30.1276L281.761 26.4139L281.338 25.6295Z" fill="#EB8231"/>
<path d="M275.024 29.8223C275.025 29.7637 275.014 29.7056 274.992 29.6513C274.97 29.597 274.938 29.5475 274.897 29.5057C274.815 29.4212 274.702 29.3732 274.584 29.3721C274.526 29.3716 274.468 29.3826 274.414 29.4045C274.36 29.4264 274.311 29.4588 274.269 29.4999C274.185 29.5828 274.138 29.6958 274.137 29.8141L275.024 29.8223ZM274.52 36.5103L274.076 36.5064C274.075 36.6247 274.121 36.7386 274.203 36.8231C274.286 36.9075 274.398 36.9555 274.516 36.9566C274.634 36.9576 274.747 36.9116 274.831 36.8287C274.915 36.7458 274.963 36.6327 274.964 36.5144L274.52 36.5103ZM274.984 34.2434C274.985 34.125 274.939 34.0111 274.857 33.9267C274.774 33.8423 274.662 33.7943 274.544 33.7932C274.426 33.7922 274.313 33.8382 274.229 33.9211C274.145 34.004 274.097 34.1171 274.096 34.2354L274.984 34.2434ZM274.137 29.8141L274.076 36.5064L274.964 36.5146L275.024 29.8223L274.137 29.8141ZM274.964 36.5144L274.984 34.2436L274.096 34.2356L274.076 36.5064L274.964 36.5144Z" fill="#EB8231"/>
<path d="M261.247 29.6595L261.035 29.2672C260.966 29.305 260.908 29.3606 260.867 29.4284C260.827 29.4961 260.804 29.5736 260.803 29.6528C260.802 29.732 260.822 29.81 260.861 29.879C260.899 29.9479 260.956 30.0053 261.024 30.0451L261.247 29.6595ZM267.87 33.534L267.647 33.9196C267.714 33.959 267.791 33.9799 267.869 33.9801C267.947 33.9803 268.024 33.9598 268.091 33.9208L267.87 33.534ZM274.55 29.6754L274.771 30.0622C274.838 30.023 274.895 29.9667 274.934 29.8988C274.973 29.8309 274.993 29.7538 274.993 29.6754C274.993 29.5969 274.973 29.5199 274.934 29.452C274.895 29.3841 274.838 29.3277 274.771 29.2886L274.55 29.6754ZM268.055 25.9455L268.275 25.5588C268.21 25.5211 268.136 25.5009 268.06 25.5C267.985 25.4992 267.91 25.5178 267.844 25.554L268.055 25.9455ZM261.024 30.0451L267.647 33.9196L268.093 33.1484L261.47 29.2738L261.024 30.0451ZM268.09 33.9208L274.77 30.0624L274.328 29.2888L267.649 33.1472L268.09 33.9208ZM274.77 29.2882L268.275 25.5581L267.835 26.333L274.33 30.0628L274.77 29.2882ZM267.844 25.5533L261.035 29.2672L261.46 30.0515L268.267 26.3378L267.844 25.5533Z" fill="#EB8231"/>
<path d="M300.034 35.0151C299.99 35.1139 299.921 35.1989 299.832 35.2603C299.75 35.3099 299.655 35.335 299.559 35.3327C299.432 35.326 299.309 35.2842 299.205 35.2121C299.073 35.1317 298.918 35.0407 298.738 34.9391C298.537 34.8294 298.327 34.738 298.11 34.6661C297.835 34.5799 297.549 34.5391 297.261 34.5455C297.001 34.5399 296.741 34.5751 296.491 34.6499C296.291 34.7119 296.104 34.8128 295.941 34.9468C295.797 35.0642 295.683 35.2144 295.607 35.385C295.533 35.5687 295.496 35.7655 295.499 35.9638C295.491 36.2077 295.571 36.4463 295.725 36.6349C295.891 36.8264 296.093 36.9822 296.321 37.0932C296.593 37.2287 296.875 37.3416 297.166 37.4308C297.482 37.53 297.804 37.6361 298.131 37.7493C298.46 37.8652 298.783 37.9994 299.097 38.1513C299.406 38.2958 299.691 38.4869 299.942 38.718C300.195 38.9546 300.397 39.2404 300.537 39.558C300.698 39.9391 300.775 40.3503 300.764 40.7638C300.767 41.2587 300.677 41.7497 300.498 42.2108C300.326 42.6526 300.062 43.0524 299.724 43.3836C299.369 43.7348 298.945 44.0084 298.48 44.1874C297.942 44.3885 297.371 44.4866 296.798 44.4768C296.437 44.4778 296.077 44.4428 295.723 44.3724C295.377 44.3025 295.037 44.2002 294.709 44.0669C294.392 43.9385 294.088 43.7796 293.801 43.5923C293.529 43.4155 293.276 43.2096 293.048 42.978L293.664 41.961C293.722 41.8876 293.793 41.825 293.873 41.776C293.955 41.7252 294.05 41.6987 294.147 41.6996C294.302 41.708 294.451 41.7642 294.573 41.8604C294.726 41.9677 294.906 42.0869 295.113 42.2181C295.345 42.3611 295.59 42.4809 295.845 42.5757C296.17 42.691 296.514 42.7455 296.859 42.7366C297.361 42.7656 297.857 42.6114 298.255 42.3025C298.425 42.1475 298.558 41.9561 298.644 41.7425C298.73 41.5289 298.767 41.2985 298.753 41.0685C298.764 40.8057 298.684 40.5473 298.527 40.337C298.364 40.1371 298.161 39.9743 297.931 39.8592C297.661 39.7223 297.378 39.6132 297.086 39.5337C296.769 39.4453 296.449 39.3474 296.124 39.2402C295.796 39.1344 295.475 39.0082 295.163 38.8623C294.852 38.7186 294.566 38.5245 294.318 38.2876C294.062 38.0341 293.862 37.7303 293.729 37.3953C293.567 36.9767 293.49 36.5299 293.503 36.0809C293.504 35.6572 293.591 35.2381 293.759 34.8491C293.926 34.4602 294.17 34.1094 294.476 33.8181C294.817 33.4998 295.216 33.2513 295.651 33.0862C296.157 32.8937 296.696 32.7994 297.237 32.8082C297.872 32.8008 298.502 32.9069 299.1 33.1217C299.639 33.3141 300.133 33.615 300.553 34.006L300.034 35.0151Z" fill="#3C4A63"/>
<path d="M308.719 44.3385H307.842C307.692 44.3452 307.544 44.3162 307.407 44.2541C307.348 44.2171 307.296 44.1686 307.255 44.1113C307.215 44.0541 307.186 43.9892 307.17 43.9206L306.997 43.3459C306.805 43.5198 306.604 43.6822 306.393 43.8323C306.201 43.9683 305.997 44.0854 305.782 44.182C305.567 44.2781 305.342 44.3495 305.11 44.395C304.845 44.446 304.576 44.4702 304.306 44.4673C303.985 44.4708 303.667 44.4247 303.36 44.3308C303.087 44.2504 302.833 44.1134 302.616 43.9288C302.404 43.7397 302.237 43.5046 302.128 43.2412C302.007 42.9374 301.948 42.6121 301.955 42.2848C301.958 41.9677 302.041 41.6566 302.196 41.3804C302.392 41.0481 302.669 40.7715 303.001 40.5766C303.464 40.2993 303.968 40.0972 304.494 39.9778C305.253 39.8047 306.03 39.7251 306.808 39.7407V39.242C306.842 38.8119 306.72 38.3839 306.466 38.0362C306.34 37.8993 306.184 37.7923 306.012 37.7228C305.839 37.6533 305.654 37.623 305.468 37.6342C305.196 37.6247 304.924 37.6614 304.663 37.7427C304.473 37.8079 304.29 37.8917 304.116 37.993L303.686 38.2433C303.553 38.3166 303.403 38.354 303.252 38.3518C303.131 38.3553 303.013 38.3201 302.914 38.2512C302.82 38.1839 302.741 38.0969 302.684 37.9962L302.333 37.3933C303.251 36.548 304.457 36.09 305.701 36.1142C306.135 36.1069 306.566 36.1861 306.968 36.3474C307.326 36.4915 307.648 36.7108 307.914 36.9906C308.177 37.2749 308.378 37.6118 308.502 37.9793C308.64 38.3855 308.708 38.8122 308.704 39.2414L308.719 44.3385ZM304.933 43.1327C305.118 43.1333 305.303 43.1143 305.485 43.0761C305.65 43.0405 305.811 42.9852 305.964 42.9114C306.117 42.8364 306.263 42.7462 306.398 42.642C306.541 42.5256 306.675 42.3994 306.801 42.2641V40.9102C306.324 40.9033 305.847 40.9396 305.376 41.0187C305.059 41.07 304.749 41.1618 304.455 41.2917C304.256 41.3777 304.085 41.5167 303.96 41.6937C303.864 41.8375 303.814 42.007 303.815 42.1801C303.802 42.3192 303.823 42.4593 303.876 42.5882C303.93 42.7172 304.014 42.831 304.121 42.9198C304.356 43.071 304.634 43.1427 304.913 43.1245L304.933 43.1327Z" fill="#3C4A63"/>
<path d="M313.496 36.1131C313.825 36.1105 314.153 36.1455 314.474 36.2176C314.765 36.2827 315.047 36.3868 315.311 36.527H317.641V37.2505C317.647 37.3546 317.612 37.457 317.544 37.5358C317.455 37.616 317.342 37.6653 317.222 37.6764L316.498 37.809C316.551 37.9497 316.592 38.095 316.619 38.2431C316.649 38.4021 316.664 38.5636 316.664 38.7254C316.669 39.1012 316.587 39.4729 316.423 39.8107C316.262 40.1241 316.035 40.3984 315.757 40.6142C315.458 40.8491 315.119 41.0265 314.756 41.1375C314.348 41.264 313.923 41.3264 313.496 41.3225C313.196 41.3225 312.897 41.2929 312.603 41.234C312.351 41.3867 312.225 41.5582 312.225 41.7484C312.225 41.824 312.246 41.898 312.286 41.962C312.326 42.026 312.383 42.0774 312.451 42.1101C312.638 42.1967 312.838 42.2511 313.043 42.271C313.319 42.3048 313.597 42.3209 313.876 42.3192C314.187 42.3192 314.505 42.3326 314.829 42.3595C315.15 42.3845 315.468 42.4301 315.783 42.496C316.076 42.5551 316.357 42.661 316.616 42.8095C316.864 42.9586 317.07 43.1703 317.212 43.4238C317.373 43.7114 317.451 44.0385 317.438 44.3684C317.436 44.7341 317.344 45.0935 317.17 45.4147C316.981 45.7658 316.721 46.0727 316.405 46.315C316.036 46.596 315.62 46.8108 315.178 46.95C314.642 47.1189 314.082 47.2003 313.52 47.1912C312.979 47.2007 312.438 47.1413 311.911 47.0144C311.512 46.9188 311.132 46.7584 310.785 46.5393C310.512 46.3609 310.286 46.1198 310.124 45.8359C309.981 45.5924 309.904 45.315 309.902 45.0321C309.892 44.6817 310.016 44.3408 310.248 44.0795C310.515 43.7996 310.845 43.5888 311.21 43.4652C311.015 43.3603 310.849 43.2084 310.727 43.0231C310.598 42.8078 310.535 42.5588 310.546 42.3076C310.548 42.1803 310.57 42.0541 310.611 41.9338C310.655 41.7909 310.72 41.6554 310.804 41.5318C310.897 41.399 311.007 41.2788 311.13 41.1741C311.273 41.0533 311.429 40.9506 311.597 40.8686C311.204 40.6631 310.871 40.3583 310.631 39.9842C310.392 39.5962 310.27 39.1461 310.281 38.6895C310.274 38.3215 310.353 37.9569 310.511 37.6248C310.669 37.2926 310.901 37.0021 311.191 36.7763C311.494 36.5392 311.84 36.3617 312.209 36.253C312.629 36.1422 313.063 36.0951 313.496 36.1131ZM315.633 44.6824C315.637 44.6093 315.627 44.5362 315.603 44.4672C315.578 44.3982 315.541 44.3347 315.492 44.2804C315.38 44.1684 315.242 44.0869 315.09 44.0433C314.904 43.982 314.713 43.9402 314.518 43.9186C314.287 43.891 314.055 43.8776 313.822 43.8783H313.066C312.812 43.8786 312.56 43.8489 312.313 43.7898C312.114 43.9008 311.937 44.0496 311.794 44.228C311.662 44.3884 311.591 44.5907 311.593 44.7989C311.592 44.9398 311.628 45.0785 311.697 45.2009C311.78 45.3353 311.897 45.4452 312.036 45.5194C312.224 45.6208 312.428 45.6914 312.639 45.7285C312.938 45.7833 313.241 45.8089 313.544 45.8049C313.859 45.8093 314.173 45.781 314.482 45.7205C314.71 45.6772 314.93 45.5985 315.134 45.4873C315.287 45.4043 315.416 45.2823 315.508 45.1335C315.589 44.9974 315.633 44.8414 315.633 44.6824ZM313.496 40.1003C313.711 40.1041 313.925 40.07 314.128 39.9997C314.295 39.9416 314.447 39.8486 314.575 39.7267C314.693 39.6142 314.785 39.4769 314.844 39.3247C314.907 39.1535 314.938 38.9724 314.937 38.79C314.946 38.6156 314.919 38.4413 314.857 38.278C314.795 38.1147 314.701 37.9661 314.579 37.8415C314.266 37.6138 313.889 37.4911 313.503 37.4911C313.116 37.4911 312.739 37.6138 312.426 37.8415C312.304 37.9661 312.21 38.1147 312.148 38.278C312.086 38.4413 312.059 38.6156 312.068 38.79C312.067 38.97 312.098 39.1487 312.16 39.3174C312.221 39.4691 312.313 39.6061 312.43 39.7194C312.558 39.8441 312.712 39.9389 312.881 39.9968C313.078 40.0661 313.287 40.1011 313.496 40.1003Z" fill="#3C4A63"/>
<path d="M322.29 36.1252C322.771 36.1203 323.248 36.2034 323.699 36.3705C324.117 36.5241 324.497 36.7668 324.813 37.0819C325.132 37.4097 325.379 37.8014 325.537 38.2315C325.718 38.7292 325.807 39.2562 325.799 39.7861C325.807 39.9079 325.807 40.0301 325.799 40.152C325.791 40.2325 325.766 40.3105 325.726 40.3811C325.694 40.4333 325.647 40.4741 325.591 40.4975C325.52 40.5237 325.445 40.536 325.369 40.5337H320.339C320.335 41.2049 320.574 41.8546 321.011 42.3625C321.216 42.5595 321.458 42.7128 321.724 42.8129C321.989 42.9131 322.272 42.9582 322.556 42.9454C322.828 42.9503 323.099 42.9137 323.36 42.8368C323.567 42.7723 323.767 42.6902 323.96 42.5916L324.411 42.3463C324.524 42.2779 324.653 42.2405 324.785 42.2378C324.856 42.2354 324.927 42.252 324.99 42.286C325.049 42.3185 325.1 42.3638 325.139 42.4187L325.706 43.126C325.498 43.3726 325.253 43.5866 324.982 43.761C324.718 43.9268 324.436 44.0616 324.141 44.163C323.851 44.2649 323.552 44.3376 323.248 44.38C322.956 44.4218 322.662 44.4433 322.367 44.4444C321.831 44.4486 321.299 44.3532 320.798 44.163C320.322 43.9822 319.891 43.6998 319.534 43.3353C319.162 42.9477 318.874 42.4865 318.689 41.9809C318.472 41.3812 318.367 40.7465 318.378 40.1085C318.376 39.5779 318.468 39.0511 318.65 38.553C318.819 38.0825 319.08 37.6508 319.417 37.2835C319.757 36.9175 320.168 36.6258 320.624 36.4267C321.152 36.2092 321.72 36.1065 322.29 36.1252ZM322.331 37.5199C322.088 37.5062 321.845 37.5419 321.616 37.6247C321.387 37.7076 321.177 37.836 320.999 38.0022C320.654 38.378 320.44 38.8561 320.388 39.3648H324.049C324.05 39.1223 324.015 38.8811 323.945 38.6492C323.881 38.4342 323.774 38.2345 323.631 38.0625C323.485 37.8897 323.302 37.7523 323.096 37.6605C322.853 37.5594 322.592 37.5116 322.33 37.5201L322.331 37.5199Z" fill="#3C4A63"/>
<path d="M328.07 44.3381V33.1836H331.289C331.846 33.1739 332.402 33.2374 332.943 33.3724C333.361 33.4758 333.754 33.6646 334.097 33.9271C334.397 34.1632 334.632 34.4716 334.781 34.8235C334.938 35.2056 335.015 35.616 335.008 36.0293C335.008 36.3203 334.957 36.609 334.855 36.8813C334.75 37.1576 334.598 37.4136 334.407 37.638C334.202 37.8771 333.96 38.0808 333.69 38.241C333.391 38.4239 333.066 38.5598 332.726 38.6439C333.47 38.7207 334.173 39.0266 334.738 39.52C334.974 39.751 335.16 40.0299 335.282 40.3382C335.404 40.6464 335.46 40.9772 335.446 41.3087C335.452 41.748 335.366 42.1837 335.192 42.5869C335.027 42.9527 334.779 43.2747 334.468 43.5274C334.118 43.8055 333.715 44.0105 333.285 44.1303C332.762 44.278 332.219 44.3484 331.676 44.3394L328.07 44.3381ZM328.875 38.4016H331.289C331.738 38.4123 332.186 38.3457 332.613 38.2046C332.945 38.094 333.251 37.9177 333.514 37.6861C333.739 37.4843 333.915 37.2343 334.029 36.9546C334.139 36.6868 334.195 36.4 334.194 36.1105C334.216 35.7894 334.162 35.4677 334.038 35.1711C333.914 34.8746 333.722 34.6113 333.479 34.4024C333.004 34.0165 332.268 33.8236 331.273 33.8236H328.859L328.875 38.4016ZM328.875 38.9931V43.691H331.691C332.484 43.7487 333.272 43.5239 333.916 43.056C334.168 42.8355 334.366 42.5601 334.496 42.2508C334.626 41.9415 334.683 41.6065 334.665 41.2714C334.67 40.944 334.601 40.6198 334.463 40.3229C334.329 40.0406 334.131 39.7942 333.884 39.6035C333.606 39.3933 333.291 39.2388 332.955 39.1485C332.545 39.0385 332.123 38.9857 331.699 38.9917L328.875 38.9931Z" fill="#3C4A63"/>
<path d="M339.194 33.778C339.195 33.87 339.174 33.9609 339.133 34.0433C339.094 34.1237 339.043 34.197 338.98 34.2603C338.916 34.3235 338.841 34.374 338.759 34.4091C338.674 34.4453 338.583 34.4639 338.491 34.4639C338.399 34.4639 338.308 34.4453 338.224 34.4091C338.141 34.374 338.066 34.3236 338.002 34.2603C337.94 34.1977 337.889 34.1241 337.853 34.0433C337.816 33.9599 337.797 33.8694 337.798 33.778C337.798 33.6841 337.817 33.5912 337.854 33.505C337.925 33.3366 338.057 33.2025 338.224 33.131C338.309 33.0948 338.4 33.0762 338.492 33.0762C338.584 33.0762 338.675 33.0948 338.76 33.131C338.842 33.1662 338.917 33.2167 338.981 33.2798C339.045 33.3448 339.097 33.4211 339.134 33.5048C339.174 33.5903 339.194 33.6836 339.194 33.778ZM338.864 36.4831V44.3407H338.115V36.4991L338.864 36.4831Z" fill="#3C4A63"/>
<path d="M344.711 36.3687C345.229 36.3602 345.744 36.4587 346.223 36.6581C346.654 36.8371 347.039 37.1121 347.349 37.4623C347.666 37.8348 347.904 38.2683 348.049 38.7364C348.37 39.8236 348.37 40.9811 348.049 42.0683C347.903 42.5381 347.664 42.9731 347.345 43.3465C347.036 43.6974 346.651 43.9722 346.22 44.1496C345.247 44.5278 344.17 44.5278 343.198 44.1496C342.765 43.9717 342.378 43.6968 342.066 43.3458C341.749 42.9749 341.511 42.5426 341.366 42.0756C341.045 40.9885 341.045 39.8308 341.366 38.7437C341.51 38.2752 341.748 37.8416 342.066 37.4696C342.379 37.1198 342.765 36.845 343.198 36.6658C343.676 36.4638 344.191 36.3626 344.711 36.3687ZM344.711 43.8486C345.125 43.8549 345.537 43.7727 345.918 43.6074C346.262 43.4522 346.563 43.2148 346.795 42.916C347.04 42.5931 347.217 42.2241 347.318 41.8308C347.556 40.904 347.566 39.9326 347.346 39.0012C347.246 38.6055 347.068 38.2338 346.823 37.908C346.591 37.607 346.29 37.3672 345.946 37.2091C345.159 36.8853 344.278 36.8853 343.491 37.2091C343.147 37.3674 342.846 37.6074 342.614 37.9085C342.366 38.234 342.184 38.6055 342.079 39.0017C341.842 39.9339 341.842 40.911 342.079 41.8433C342.182 42.2364 342.361 42.6053 342.606 42.9285C342.838 43.2272 343.139 43.4646 343.483 43.6199C343.871 43.7856 344.289 43.8654 344.711 43.8538V43.8486Z" fill="#3C4A63"/>
<path d="M350.334 44.3411V36.4994H350.736C350.765 36.4961 350.794 36.4986 350.822 36.5068C350.849 36.515 350.875 36.5288 350.897 36.5472C350.919 36.5655 350.938 36.5882 350.951 36.6139C350.964 36.6396 350.972 36.6676 350.974 36.6964L351.046 37.8781C351.391 37.4376 351.816 37.0667 352.298 36.7849C352.788 36.5073 353.344 36.368 353.907 36.3818C354.296 36.3742 354.683 36.4438 355.046 36.5865C355.358 36.7156 355.634 36.9186 355.85 37.1781C356.075 37.4509 356.242 37.7668 356.341 38.1066C356.457 38.506 356.512 38.9206 356.506 39.3365V44.3411H355.758V39.329C355.794 38.7099 355.615 38.0975 355.251 37.5967C355.059 37.3794 354.82 37.2097 354.552 37.1009C354.284 36.9922 353.994 36.9472 353.706 36.9697C353.199 36.9682 352.702 37.1072 352.269 37.3715C351.808 37.6553 351.406 38.0266 351.086 38.4647V44.3411H350.334Z" fill="#3C4A63"/>
<path d="M361.911 36.3687C362.331 36.3643 362.748 36.4421 363.138 36.5978C363.508 36.7466 363.842 36.9743 364.116 37.2651C364.404 37.5752 364.624 37.942 364.764 38.3423C364.926 38.8138 365.005 39.3104 364.997 39.8093C365.004 39.8919 364.986 39.9747 364.945 40.0464C364.925 40.0687 364.9 40.0861 364.872 40.0972C364.844 40.1084 364.814 40.113 364.784 40.1108H359.118V40.2591C359.11 40.7836 359.179 41.3065 359.323 41.8105C359.441 42.2213 359.639 42.6041 359.907 42.936C360.154 43.234 360.469 43.4681 360.824 43.6186C361.207 43.7767 361.618 43.8546 362.031 43.8477C362.378 43.8544 362.723 43.8111 363.057 43.7191C363.309 43.6464 363.553 43.5481 363.786 43.4257C363.949 43.3388 364.106 43.2407 364.256 43.1322C364.328 43.067 364.415 43.0226 364.51 43.0036C364.541 43.0025 364.571 43.0093 364.599 43.0233C364.626 43.0374 364.649 43.0582 364.667 43.0839L364.872 43.3371C364.728 43.51 364.558 43.6592 364.369 43.7792C364.15 43.9209 363.917 44.0382 363.673 44.1289C363.411 44.2288 363.142 44.3068 362.868 44.3621C362.578 44.4203 362.283 44.4499 361.987 44.4506C361.483 44.4565 360.984 44.3608 360.518 44.1692C360.083 43.9906 359.694 43.7159 359.379 43.3654C359.033 42.9794 358.771 42.5249 358.61 42.031C358.429 41.4572 358.343 40.8577 358.353 40.2559C358.348 39.7276 358.43 39.202 358.595 38.7004C358.742 38.2481 358.977 37.8299 359.287 37.4705C359.596 37.124 359.976 36.8497 360.402 36.6667C360.878 36.4616 361.392 36.36 361.911 36.3687ZM361.911 36.9274C361.54 36.9214 361.172 36.9855 360.825 37.1163C360.512 37.2363 360.228 37.4214 359.991 37.6594C359.751 37.9054 359.559 38.1944 359.424 38.5114C359.274 38.8661 359.178 39.2414 359.138 39.6248H364.309C364.314 39.2413 364.256 38.8595 364.136 38.4955C364.033 38.1821 363.867 37.8935 363.648 37.6473C363.438 37.4168 363.18 37.2356 362.892 37.1167C362.585 36.9912 362.255 36.9283 361.923 36.9318L361.911 36.9274Z" fill="#3C4A63"/>
<path d="M369.236 44.4682C369.01 44.4821 368.784 44.4501 368.571 44.3741C368.358 44.2982 368.163 44.1798 367.996 44.0262C367.836 43.8401 367.714 43.6238 367.638 43.3898C367.562 43.1558 367.533 42.9089 367.553 42.6636V37.3018H366.427C366.376 37.3032 366.326 37.2861 366.286 37.2536C366.268 37.2371 366.253 37.2166 366.243 37.1937C366.233 37.1707 366.229 37.1459 366.23 37.1209V36.8274L367.57 36.731L367.759 33.9185C367.765 33.8711 367.786 33.8269 367.819 33.7929C367.837 33.7742 367.858 33.7594 367.881 33.7497C367.905 33.74 367.93 33.7355 367.956 33.7365H368.306V36.731H370.777V37.2898H368.306V42.6192C368.303 42.8076 368.331 42.9952 368.39 43.1739C368.435 43.3237 368.514 43.4612 368.62 43.5759C368.715 43.6751 368.832 43.7507 368.962 43.7971C369.099 43.8457 369.243 43.8702 369.388 43.8694C369.556 43.8729 369.722 43.8443 369.879 43.785C370.003 43.7364 370.121 43.6759 370.233 43.6041C370.319 43.5494 370.401 43.489 370.479 43.4233C370.518 43.3796 370.57 43.35 370.628 43.3389C370.653 43.3421 370.677 43.351 370.699 43.3649C370.721 43.3788 370.739 43.3973 370.752 43.4192L370.958 43.7488C370.745 43.9781 370.485 44.159 370.197 44.2794C369.893 44.4084 369.566 44.4727 369.236 44.4682Z" fill="#3C4A63"/>
<path d="M371.697 36.4988H372.292C372.358 36.4966 372.422 36.5179 372.473 36.5591C372.517 36.5921 372.55 36.6366 372.57 36.6877L374.55 42.8781C374.585 42.9915 374.615 43.1067 374.639 43.2232L374.703 43.5529C374.731 43.4443 374.759 43.3317 374.791 43.2232C374.824 43.1147 374.859 42.9982 374.9 42.8776L377.008 36.6353C377.018 36.5847 377.046 36.5394 377.087 36.5077C377.128 36.4762 377.178 36.4601 377.229 36.4622H377.524C377.576 36.4595 377.628 36.4756 377.67 36.5077C377.712 36.5393 377.741 36.5848 377.753 36.6363L379.829 42.8781C379.904 43.1035 379.967 43.3329 380.018 43.5654C380.039 43.4556 380.062 43.3444 380.086 43.2318C380.112 43.1133 380.146 42.9965 380.186 42.8822L382.174 36.6918C382.19 36.6337 382.226 36.583 382.275 36.5487C382.325 36.5142 382.384 36.4981 382.444 36.5032H382.995L380.34 44.3405H379.789C379.704 44.3405 379.644 44.2843 379.608 44.1758L377.467 37.797C377.441 37.7194 377.416 37.6403 377.395 37.56C377.374 37.4796 377.355 37.4005 377.339 37.3229C377.323 37.4005 377.305 37.4796 377.286 37.56C377.268 37.6401 377.245 37.7192 377.218 37.797L375.042 44.1674C375.035 44.2129 375.012 44.2544 374.978 44.2845C374.943 44.3148 374.899 44.3316 374.853 44.3321H374.324L371.697 36.4988Z" fill="#3C4A63"/>
<path d="M387.508 36.3687C388.026 36.3602 388.541 36.4587 389.021 36.6581C389.452 36.8369 389.837 37.1117 390.147 37.4619C390.464 37.8344 390.703 38.2679 390.847 38.7359C391.168 39.8231 391.168 40.9806 390.847 42.0679C390.702 42.5346 390.464 42.9667 390.147 43.3381C389.838 43.6894 389.453 43.9644 389.021 44.1419C388.049 44.5201 386.971 44.5201 385.999 44.1419C385.566 43.964 385.179 43.6891 384.868 43.3381C384.55 42.9672 384.312 42.5349 384.167 42.0679C383.846 40.9807 383.846 39.8231 384.167 38.7359C384.311 38.2675 384.55 37.8338 384.868 37.4619C385.18 37.112 385.567 36.8373 385.999 36.6581C386.477 36.4592 386.99 36.3608 387.508 36.3687ZM387.508 43.8486C387.923 43.8549 388.334 43.7727 388.715 43.6074C389.06 43.4542 389.362 43.2185 389.596 42.921C389.841 42.5981 390.019 42.2291 390.119 41.8358C390.35 40.9029 390.35 39.9271 390.119 38.9942C390.019 38.5984 389.841 38.2268 389.596 37.901C389.364 37.5998 389.063 37.3598 388.719 37.2016C387.932 36.8778 387.051 36.8778 386.264 37.2016C385.92 37.3598 385.619 37.5996 385.387 37.9005C385.147 38.2304 384.973 38.6047 384.876 39.0019C384.64 39.9342 384.64 40.9112 384.876 41.8435C384.979 42.2367 385.158 42.6055 385.403 42.9288C385.636 43.2274 385.937 43.4646 386.281 43.6199C386.668 43.7856 387.087 43.8653 387.508 43.8538V43.8486Z" fill="#3C4A63"/>
<path d="M393.131 44.3389V36.4972H393.533C393.602 36.4912 393.671 36.5112 393.726 36.5534C393.772 36.6054 393.796 36.6729 393.794 36.7422L393.858 38.3983C394.068 37.8242 394.415 37.3108 394.869 36.9033C395.307 36.5345 395.864 36.3413 396.435 36.3607C396.656 36.3593 396.876 36.385 397.091 36.4372C397.288 36.4868 397.478 36.5599 397.657 36.6551L397.552 37.1736C397.55 37.1922 397.545 37.2101 397.536 37.2264C397.527 37.2428 397.515 37.2571 397.5 37.2687C397.485 37.2803 397.469 37.2889 397.451 37.294C397.433 37.2991 397.414 37.3005 397.395 37.2983C397.35 37.2947 397.305 37.2838 397.263 37.2662L397.045 37.1939C396.941 37.1633 396.836 37.1391 396.729 37.1215C396.585 37.0991 396.44 37.0883 396.294 37.0894C396.025 37.0792 395.756 37.1234 395.503 37.2194C395.251 37.3154 395.021 37.4612 394.825 37.6482C394.394 38.1019 394.077 38.6526 393.9 39.2544V44.3389H393.131Z" fill="#3C4A63"/>
<path d="M400.306 32.8662V39.8597H400.668C400.739 39.8599 400.81 39.8491 400.878 39.8276C400.96 39.7953 401.035 39.7444 401.095 39.6788L404.245 36.6925C404.299 36.6388 404.358 36.5916 404.422 36.5519C404.494 36.5121 404.574 36.4926 404.656 36.4957H405.32L401.855 39.7826L401.707 39.9273C401.659 39.9714 401.607 40.0093 401.55 40.0399C401.628 40.0779 401.7 40.1281 401.763 40.1887L401.944 40.3775L405.565 44.3362H404.908C404.84 44.3372 404.773 44.3221 404.711 44.2921C404.646 44.2576 404.587 44.2113 404.538 44.1556L401.264 40.6073C401.194 40.5284 401.111 40.463 401.018 40.4144C400.907 40.3739 400.79 40.3561 400.672 40.3621H400.318V44.3208H399.57V32.8662H400.306Z" fill="#3C4A63"/>
<path d="M411.647 37.473C411.632 37.5064 411.608 37.5347 411.577 37.5541C411.546 37.5734 411.51 37.583 411.473 37.5815C411.39 37.5711 411.311 37.5361 411.247 37.4809C411.131 37.4002 411.01 37.3263 410.885 37.2598C410.709 37.1677 410.524 37.0936 410.334 37.0386C410.072 36.9667 409.801 36.9329 409.529 36.9385C409.265 36.935 409.003 36.9758 408.752 37.0591C408.535 37.1312 408.333 37.2415 408.154 37.3847C407.988 37.5121 407.85 37.6737 407.752 37.8588C407.661 38.0353 407.615 38.2311 407.616 38.4296C407.607 38.6501 407.674 38.867 407.805 39.0439C407.942 39.2101 408.112 39.3468 408.303 39.4459C408.526 39.5682 408.76 39.6678 409.003 39.7433L409.808 39.9965C410.076 40.0796 410.344 40.1735 410.612 40.278C410.863 40.3801 411.098 40.5153 411.313 40.68C411.515 40.8295 411.685 41.0198 411.81 41.2387C411.942 41.4854 412.008 41.7626 412 42.0425C412.002 42.3691 411.94 42.6929 411.815 42.9945C411.694 43.2851 411.511 43.5458 411.28 43.7582C411.027 43.9836 410.734 44.157 410.415 44.2685C410.04 44.4 409.645 44.4639 409.248 44.4574C408.759 44.469 408.273 44.3787 407.82 44.1921C407.428 44.0209 407.065 43.788 406.746 43.502L406.927 43.2327C406.949 43.1944 406.979 43.1615 407.015 43.1362C407.055 43.1129 407.102 43.1018 407.148 43.1041C407.244 43.1163 407.333 43.1601 407.401 43.2288C407.528 43.3301 407.663 43.4213 407.804 43.5018C407.994 43.6131 408.195 43.7046 408.403 43.7748C408.691 43.8658 408.991 43.9079 409.293 43.8995C409.591 43.9057 409.888 43.8595 410.17 43.763C410.403 43.6827 410.618 43.5556 410.802 43.3892C410.975 43.2368 411.112 43.0476 411.204 42.8352C411.29 42.6208 411.334 42.3914 411.332 42.1599C411.341 41.9267 411.275 41.6968 411.143 41.5047C411.01 41.3241 410.84 41.1735 410.645 41.0626C410.424 40.9342 410.189 40.8304 409.945 40.7532L409.141 40.5C408.872 40.4166 408.603 40.324 408.335 40.2222C408.085 40.129 407.85 40.0019 407.635 39.8443C407.433 39.6958 407.263 39.507 407.137 39.2896C407.005 39.0431 406.939 38.7659 406.947 38.4858C406.947 38.2077 407.008 37.933 407.128 37.682C407.242 37.4196 407.409 37.184 407.619 36.9906C407.856 36.7869 408.129 36.6289 408.424 36.5245C408.772 36.4043 409.138 36.3457 409.506 36.3511C409.941 36.3438 410.373 36.4146 410.782 36.5602C411.16 36.7035 411.507 36.9193 411.803 37.1956L411.647 37.473Z" fill="#3C4A63"/>
</svg>
