<svg width="103" height="54" viewBox="0 0 103 54" fill="none" xmlns="http://www.w3.org/2000/svg">
<path fill-rule="evenodd" clip-rule="evenodd" d="M94.2074 23.2143L10.5406 42.9459L10.4438 42.4983L94.1107 22.7667L94.2074 23.2143Z" fill="#D0D4D9"/>
<path fill-rule="evenodd" clip-rule="evenodd" d="M32.5006 48.9113L3.07446 28.2619L3.31934 27.881L32.7455 48.5303L32.5006 48.9113Z" fill="#D0D4D9"/>
<path fill-rule="evenodd" clip-rule="evenodd" d="M60.1696 43.4047L26.3515 9.67739L26.6548 9.34546L60.4729 43.0727L60.1696 43.4047Z" fill="#D0D4D9"/>
<path fill-rule="evenodd" clip-rule="evenodd" d="M60.1699 10.1364L32.5005 48.4524L32.1499 48.176L59.8193 9.86001L60.1699 10.1364Z" fill="#D0D4D9"/>
<path fill-rule="evenodd" clip-rule="evenodd" d="M100.576 27.1147L59.7303 2.79431L59.9478 2.39563L100.793 26.716L100.576 27.1147Z" fill="#D0D4D9"/>
<path fill-rule="evenodd" clip-rule="evenodd" d="M60.1696 10.5952L100.576 26.6558L100.419 27.0847L60.0134 11.0241L60.1696 10.5952Z" fill="#D0D4D9"/>
<path fill-rule="evenodd" clip-rule="evenodd" d="M59.7307 10.5952V2.79431H60.1699V10.5952H59.7307Z" fill="#D0D4D9"/>
<path fill-rule="evenodd" clip-rule="evenodd" d="M88.0587 34.2272L59.7305 2.79431L60.0503 2.47974L88.3784 33.9126L88.0587 34.2272Z" fill="#D0D4D9"/>
<path fill-rule="evenodd" clip-rule="evenodd" d="M60.1698 43.4047L100.576 26.6557L100.738 27.0823L60.3317 43.8312L60.1698 43.4047Z" fill="#D0D4D9"/>
<path fill-rule="evenodd" clip-rule="evenodd" d="M60.6088 50.7468L100.576 25.9676L100.8 26.3622L60.833 51.1414L60.6088 50.7468Z" fill="#D0D4D9"/>
<path fill-rule="evenodd" clip-rule="evenodd" d="M73.3454 38.3572L43.4801 26.6559L43.6343 26.2262L73.4996 37.9275L73.3454 38.3572Z" fill="#D0D4D9"/>
<path fill-rule="evenodd" clip-rule="evenodd" d="M60.1697 43.4047V51.2056H59.7305V43.4047H60.1697Z" fill="#D0D4D9"/>
<path fill-rule="evenodd" clip-rule="evenodd" d="M71.1494 14.7251L60.1695 43.4048L59.7617 43.2344L70.7416 14.5547L71.1494 14.7251Z" fill="#D0D4D9"/>
<path fill-rule="evenodd" clip-rule="evenodd" d="M72.6866 10.1363L71.1494 14.7251L70.7349 14.5735L72.2721 9.98474L72.6866 10.1363Z" fill="#D0D4D9"/>
<path d="M28.5477 9.67743C28.5477 10.9446 27.5645 11.9718 26.3517 11.9718C25.1389 11.9718 24.1558 10.9446 24.1558 9.67743C24.1558 8.41028 25.1389 7.38306 26.3517 7.38306C27.5645 7.38306 28.5477 8.41028 28.5477 9.67743Z" fill="#275A6D"/>
<path d="M61.9266 2.79437C61.9266 4.06152 60.9435 5.08874 59.7307 5.08874C58.5178 5.08874 57.5347 4.06152 57.5347 2.79437C57.5347 1.52723 58.5178 0.5 59.7307 0.5C60.9435 0.5 61.9266 1.52723 61.9266 2.79437Z" fill="#307485"/>
<path d="M61.9266 10.5953C61.9266 11.8624 60.9435 12.8896 59.7307 12.8896C58.5178 12.8896 57.5347 11.8624 57.5347 10.5953C57.5347 9.32813 58.5178 8.3009 59.7307 8.3009C60.9435 8.3009 61.9266 9.32813 61.9266 10.5953Z" fill="#307485"/>
<path d="M72.6869 14.7252C72.6869 15.9923 71.7037 17.0195 70.4909 17.0195C69.2781 17.0195 68.2949 15.9923 68.2949 14.7252C68.2949 13.458 69.2781 12.4308 70.4909 12.4308C71.7037 12.4308 72.6869 13.458 72.6869 14.7252Z" fill="#307485"/>
<path d="M102.333 26.6558C102.333 27.923 101.35 28.9502 100.137 28.9502C98.9241 28.9502 97.9409 27.923 97.9409 26.6558C97.9409 25.3887 98.9241 24.3615 100.137 24.3615C101.35 24.3615 102.333 25.3887 102.333 26.6558Z" fill="#3A909B"/>
<path d="M90.2548 34.2272C90.2548 35.4944 89.2716 36.5216 88.0588 36.5216C86.846 36.5216 85.8628 35.4944 85.8628 34.2272C85.8628 32.9601 86.846 31.9329 88.0588 31.9329C89.2716 31.9329 90.2548 32.9601 90.2548 34.2272Z" fill="#3A909B"/>
<path d="M82.7884 25.5086C82.7884 26.7758 81.8053 27.803 80.5925 27.803C79.3797 27.803 78.3965 26.7758 78.3965 25.5086C78.3965 24.2415 79.3797 23.2142 80.5925 23.2142C81.8053 23.2142 82.7884 24.2415 82.7884 25.5086Z" fill="#3A909B"/>
<path d="M67.1971 30.0974C67.1971 31.3645 66.214 32.3917 65.0012 32.3917C63.7883 32.3917 62.8052 31.3645 62.8052 30.0974C62.8052 28.8302 63.7883 27.803 65.0012 27.803C66.214 27.803 67.1971 28.8302 67.1971 30.0974Z" fill="#307485"/>
<path d="M75.5419 37.8983C75.5419 39.1654 74.5587 40.1926 73.3459 40.1926C72.1331 40.1926 71.1499 39.1654 71.1499 37.8983C71.1499 36.6311 72.1331 35.6039 73.3459 35.6039C74.5587 35.6039 75.5419 36.6311 75.5419 37.8983Z" fill="#3A909B"/>
<path d="M62.3661 43.4047C62.3661 44.6719 61.3829 45.6991 60.1701 45.6991C58.9573 45.6991 57.9741 44.6719 57.9741 43.4047C57.9741 42.1376 58.9573 41.1104 60.1701 41.1104C61.3829 41.1104 62.3661 42.1376 62.3661 43.4047Z" fill="#307485"/>
<path d="M62.3661 51.2056C62.3661 52.4728 61.3829 53.5 60.1701 53.5C58.9573 53.5 57.9741 52.4728 57.9741 51.2056C57.9741 49.9385 58.9573 48.9113 60.1701 48.9113C61.3829 48.9113 62.3661 49.9385 62.3661 51.2056Z" fill="#307485"/>
<path d="M34.6966 48.9112C34.6966 50.1783 33.7135 51.2056 32.5007 51.2056C31.2879 51.2056 30.3047 50.1783 30.3047 48.9112C30.3047 47.644 31.2879 46.6168 32.5007 46.6168C33.7135 46.6168 34.6966 47.644 34.6966 48.9112Z" fill="#275A6D"/>
<path d="M45.6766 26.6558C45.6766 27.923 44.6935 28.9502 43.4806 28.9502C42.2678 28.9502 41.2847 27.923 41.2847 26.6558C41.2847 25.3887 42.2678 24.3615 43.4806 24.3615C44.6935 24.3615 45.6766 25.3887 45.6766 26.6558Z" fill="#275A6D"/>
<path d="M4.39196 27.803C4.39196 29.0702 3.40879 30.0974 2.19598 30.0974C0.983174 30.0974 0 29.0702 0 27.803C0 26.5359 0.983174 25.5087 2.19598 25.5087C3.40879 25.5087 4.39196 26.5359 4.39196 27.803Z" fill="#275A6D"/>
<path d="M10.5409 43.4047C10.5409 44.6719 9.55771 45.6991 8.34491 45.6991C7.1321 45.6991 6.14893 44.6719 6.14893 43.4047C6.14893 42.1376 7.1321 41.1104 8.34491 41.1104C9.55771 41.1104 10.5409 42.1376 10.5409 43.4047Z" fill="#275A6D"/>
</svg>
