<svg width="45" height="49" viewBox="0 0 45 49" fill="none" xmlns="http://www.w3.org/2000/svg">
<path fill-rule="evenodd" clip-rule="evenodd" d="M32.3488 10.5078L12.9242 21.5236L12.1917 20.232L31.6163 9.21622L32.3488 10.5078Z" fill="#5C94B9"/>
<path fill-rule="evenodd" clip-rule="evenodd" d="M37.7003 13.072L37.7003 35.5108L39.1852 35.5108L39.1852 13.072L37.7003 13.072Z" fill="#E8762B"/>
<path fill-rule="evenodd" clip-rule="evenodd" d="M31.0934 40.7266L11.9211 29.3975L12.6765 28.1192L31.8488 39.4482L31.0934 40.7266Z" fill="#62AC62"/>
<path fill-rule="evenodd" clip-rule="evenodd" d="M37.5713 12.4586C40.6016 12.4586 43.0581 10.002 43.0581 6.97172C43.0581 3.94141 40.6016 1.48485 37.5713 1.48485C34.541 1.48485 32.0844 3.94141 32.0844 6.97172C32.0844 10.002 34.541 12.4586 37.5713 12.4586ZM37.5713 13.9434C41.4216 13.9434 44.543 10.8221 44.543 6.97172C44.543 3.12135 41.4216 0 37.5713 0C33.7209 0 30.5995 3.12135 30.5995 6.97172C30.5995 10.8221 33.7209 13.9434 37.5713 13.9434Z" fill="#5C94B9"/>
<path fill-rule="evenodd" clip-rule="evenodd" d="M37.5713 47.3172C40.6016 47.3172 43.0581 44.8607 43.0581 41.8304C43.0581 38.8 40.6016 36.3435 37.5713 36.3435C34.541 36.3435 32.0844 38.8 32.0844 41.8304C32.0844 44.8607 34.541 47.3172 37.5713 47.3172ZM37.5713 48.8021C41.4216 48.8021 44.543 45.6807 44.543 41.8304C44.543 37.98 41.4216 34.8586 37.5713 34.8586C33.7209 34.8586 30.5995 37.98 30.5995 41.8304C30.5995 45.6807 33.7209 48.8021 37.5713 48.8021Z" fill="#E8762B"/>
<path fill-rule="evenodd" clip-rule="evenodd" d="M7.94145 29.8879C10.9718 29.8879 13.4283 27.4314 13.4283 24.401C13.4283 21.3707 10.9718 18.9142 7.94145 18.9142C4.91113 18.9142 2.45457 21.3707 2.45457 24.401C2.45457 27.4314 4.91113 29.8879 7.94145 29.8879ZM7.94145 31.3728C11.7918 31.3728 14.9132 28.2514 14.9132 24.401C14.9132 20.5507 11.7918 17.4293 7.94145 17.4293C4.09107 17.4293 0.969727 20.5507 0.969727 24.401C0.969727 28.2514 4.09107 31.3728 7.94145 31.3728Z" fill="#62AC62"/>
</svg>
