<svg width="60" height="60" viewBox="0 0 60 60" fill="none" xmlns="http://www.w3.org/2000/svg">
<path d="M23.4603 31.2568C11.6402 31.2568 10.0381 39.3051 10.0381 39.3051L14.4281 42.5976L23.4603 44.7926L30.8904 43.6951L37.8412 39.3051C37.8412 39.3051 35.2804 31.2568 23.4603 31.2568Z" fill="#395979" fill-opacity="0.3"/>
<path fill-rule="evenodd" clip-rule="evenodd" d="M11.1522 39.5206C11.1523 39.5199 11.1524 39.5192 10.0761 39.3049C8.99969 39.0907 8.99984 39.0899 9 39.0891L9.00036 39.0873L9.00119 39.0832L9.00336 39.0728L9.00978 39.0432C9.01502 39.0197 9.02225 38.9886 9.03172 38.9504C9.05066 38.874 9.07866 38.7692 9.11793 38.6399C9.19642 38.3817 9.32038 38.0248 9.50795 37.6022C9.8828 36.7576 10.5152 35.6431 11.5523 34.5319C13.6544 32.2798 17.3091 30.1592 23.4983 30.1592C29.686 30.1592 33.5529 32.2768 35.8772 34.4852C37.0284 35.5789 37.782 36.6764 38.2507 37.509C38.4852 37.9256 38.6493 38.2773 38.7568 38.5315C38.8106 38.6586 38.8504 38.7616 38.8778 38.8363C38.8915 38.8737 38.9022 38.904 38.91 38.9268L38.9195 38.9553L38.9228 38.9652L38.924 38.9691L38.9245 38.9707C38.9248 38.9715 38.925 38.9722 37.8792 39.3049C36.8334 39.6377 36.8336 39.6384 36.8338 39.639L36.8341 39.6401L36.833 39.6369C36.8304 39.6292 36.8252 39.6144 36.8173 39.5928C36.8014 39.5496 36.7746 39.4797 36.7353 39.3868C36.6566 39.2007 36.5282 38.9237 36.338 38.5858C35.9572 37.9094 35.3318 36.9947 34.3653 36.0764C32.4542 34.2607 29.1306 32.3542 23.4983 32.3542C17.8673 32.3542 14.8109 34.2577 13.1569 36.0297C12.316 36.9306 11.8091 37.8281 11.5142 38.4926C11.3669 38.8245 11.2733 39.0964 11.218 39.2783C11.1904 39.3692 11.1725 39.4372 11.1622 39.4787C11.157 39.4995 11.1538 39.5136 11.1523 39.5205C11.1515 39.5237 11.1512 39.5254 11.1512 39.5254L11.1512 39.5254L11.1515 39.5237L11.1519 39.5218L11.1522 39.5206Z" fill="#395979"/>
<path d="M33.4517 18.4524C33.4517 23.5035 29.357 27.5982 24.3059 27.5982C19.2549 27.5982 15.1602 23.5035 15.1602 18.4524C15.1602 13.4013 19.2549 9.30664 24.3059 9.30664C29.357 9.30664 33.4517 13.4013 33.4517 18.4524Z" fill="#395979" fill-opacity="0.3"/>
<path fill-rule="evenodd" clip-rule="evenodd" d="M24.1458 25.4032C27.9846 25.4032 31.0965 22.2912 31.0965 18.4524C31.0965 14.6136 27.9846 11.5016 24.1458 11.5016C20.307 11.5016 17.195 14.6136 17.195 18.4524C17.195 22.2912 20.307 25.4032 24.1458 25.4032ZM24.1458 27.5982C29.1968 27.5982 33.2915 23.5035 33.2915 18.4524C33.2915 13.4013 29.1968 9.30664 24.1458 9.30664C19.0947 9.30664 15 13.4013 15 18.4524C15 23.5035 19.0947 27.5982 24.1458 27.5982Z" fill="#395979"/>
<path fill-rule="evenodd" clip-rule="evenodd" d="M24.5 43.8222C35.1714 43.8222 43.8222 35.1714 43.8222 24.5C43.8222 13.8286 35.1714 5.17778 24.5 5.17778C13.8286 5.17778 5.17778 13.8286 5.17778 24.5C5.17778 35.1714 13.8286 43.8222 24.5 43.8222ZM24.5 48C37.4787 48 48 37.4787 48 24.5C48 11.5213 37.4787 1 24.5 1C11.5213 1 1 11.5213 1 24.5C1 37.4787 11.5213 48 24.5 48Z" fill="#DFE2E6"/>
<path fill-rule="evenodd" clip-rule="evenodd" d="M56.1466 57.8537C55.3656 58.6348 54.0993 58.6348 53.3182 57.8537L36.7324 41.268L40.268 37.7324L56.8537 54.3182C57.6348 55.0993 57.6348 56.3656 56.8537 57.1466L56.1466 57.8537Z" fill="#DFE2E6"/>
</svg>
