<svg width="72" height="69" viewBox="0 0 72 69" fill="none" xmlns="http://www.w3.org/2000/svg">
<g id="Group 3270">
<path id="Union" fill-rule="evenodd" clip-rule="evenodd" d="M37.7973 5.10496C37.5316 5.24024 37.2377 5.32816 36.9268 5.3576L36.1566 19.7231C37.1264 20.025 37.836 20.9169 37.8655 21.9789L49.3388 23.5087C49.4487 23.257 49.5999 23.0276 49.7839 22.8288L37.7973 5.10496ZM38.6332 4.40659L50.678 22.2167C50.9544 22.1077 51.2555 22.0478 51.5706 22.0478C51.7448 22.0478 51.9147 22.0661 52.0786 22.1009L55.7977 13.3624C55.2021 12.9187 54.8164 12.2089 54.8164 11.4091C54.8164 11.2592 54.8299 11.1125 54.8559 10.9701L38.7471 4.24338C38.7113 4.29939 38.6733 4.35384 38.6332 4.40659ZM54.0049 24.4821C54.0049 23.6994 53.6356 23.0031 53.0617 22.5578L56.7892 13.7997C56.9386 13.8284 57.0929 13.8434 57.2506 13.8434C57.3985 13.8434 57.5432 13.8302 57.6838 13.805L67.9496 36.2755C67.8406 36.3722 67.7404 36.4787 67.6503 36.5934L53.7707 25.5253C53.9209 25.2091 54.0049 24.8554 54.0049 24.4821ZM53.0998 26.3762C52.8756 26.5574 52.6187 26.6996 52.3392 26.7925L53.0166 44.6546C53.7366 44.6555 54.3834 44.9692 54.8285 45.4669L67.205 38.6918C67.157 38.5011 67.1315 38.3014 67.1315 38.0958C67.1315 37.9277 67.1485 37.7636 67.181 37.6051L53.0998 26.3762ZM67.6981 39.6572L55.3531 46.4151C55.4146 46.6291 55.4475 46.8551 55.4475 47.0888C55.4475 47.8061 55.1373 48.4509 54.6437 48.8964L58.8693 55.1639C59.1001 55.0819 59.347 55.0336 59.6039 55.0252L67.8611 39.8335C67.8039 39.7775 67.7495 39.7186 67.6981 39.6572ZM53.0132 49.5231C53.2496 49.5231 53.4781 49.4894 53.6942 49.4266L57.9548 55.7459C57.9355 55.7653 57.9166 55.7851 57.898 55.8052L35.6171 46.8105L50.6142 47.5042C50.8113 48.6507 51.8104 49.5231 53.0132 49.5231ZM34.4706 47.5162C34.2173 47.7994 33.8988 48.023 33.5386 48.1632L35.5105 63.1908C36.3897 63.2186 37.1512 63.7125 37.5562 64.4337L57.2815 57.8463C57.2612 57.7199 57.2507 57.5903 57.2507 57.4582C57.2507 57.2134 57.2868 56.9771 57.354 56.7542L34.4706 47.5162ZM50.8986 26.8224C51.0153 26.8558 51.1356 26.8808 51.2587 26.8965L51.9416 44.9025C51.3289 45.2034 50.8612 45.7543 50.6714 46.4221L35.0823 45.701C35.0412 45.1773 34.8344 44.7002 34.5142 44.3221L50.8986 26.8224ZM35.6754 24.47C36.5597 24.3823 37.3049 23.8213 37.6539 23.0439L49.1381 24.5751C49.1634 25.2479 49.4617 25.8508 49.9255 26.2763L33.6421 43.668C33.6157 43.6563 33.5891 43.645 33.5622 43.6342L35.6754 24.47ZM32.4907 43.4653L34.6 24.336C33.8625 24.0678 33.2914 23.4532 33.0833 22.689L20.259 22.219C20.1144 22.546 19.8999 22.8352 19.6344 23.0676L31.6925 43.6577C31.94 43.551 32.2088 43.4842 32.4907 43.4653ZM20.4642 21.1422L33.0384 21.6031C33.2262 20.5859 34.0463 19.7903 35.076 19.6393L35.8492 5.21778C35.6862 5.15741 35.5314 5.08009 35.387 4.98795L20.1521 20.0388C20.3376 20.3669 20.4491 20.7422 20.4642 21.1422ZM30.8141 44.3019L18.6801 23.5824C18.5092 23.6295 18.3308 23.6584 18.147 23.667L15.7 36.5306C16.5435 36.913 17.1301 37.7624 17.1301 38.7488C17.1301 38.8325 17.1259 38.9152 17.1177 38.9967L30.5463 44.678C30.6237 44.5441 30.7135 44.4182 30.8141 44.3019ZM34.4449 63.3981L32.4664 48.3211C31.8566 48.2743 31.3096 48.0027 30.9083 47.589L15.5178 55.6422C15.5698 55.8401 15.5974 56.0479 15.5974 56.2622C15.5974 56.4166 15.5831 56.5676 15.5556 56.714L33.3237 64.4064C33.5804 63.9627 33.9732 63.6076 34.4449 63.3981ZM15.0151 54.6823L30.3445 46.661C30.2646 46.4199 30.2213 46.162 30.2213 45.8941C30.2213 45.8355 30.2233 45.7773 30.2274 45.7197L16.7688 40.0257C16.3943 40.6323 15.761 41.0621 15.023 41.1613L14.1663 54.0435C14.4946 54.1922 14.784 54.4116 15.0151 54.6823ZM12.2616 38.7488C12.2616 39.8306 12.9673 40.7476 13.9434 41.0645L13.0946 53.8288C12.9335 53.8333 12.7762 53.8534 12.6243 53.8877L3.8238 34.1138C3.99409 33.9952 4.14851 33.8554 4.28324 33.6982L12.3561 38.0747C12.2946 38.2888 12.2616 38.5149 12.2616 38.7488ZM12.8809 37.1266C13.3146 36.6416 13.94 36.3315 14.638 36.3152L17.0802 23.4767C16.2086 23.1062 15.5974 22.2422 15.5974 21.2354C15.5974 20.372 16.0469 19.6136 16.7246 19.1814L13.8944 12.91C13.8024 12.9205 13.7087 12.9259 13.6138 12.9259C13.4505 12.9259 13.2909 12.9099 13.1366 12.8792L3.8264 30.1176C4.45642 30.5576 4.86855 31.288 4.86855 32.1148C4.86855 32.3306 4.84046 32.5399 4.78774 32.7391L12.8809 37.1266ZM18.0317 18.8011C17.9359 18.8011 17.8415 18.8067 17.7487 18.8174L14.9189 12.5469C15.5977 12.115 16.0481 11.3559 16.0481 10.4917C16.0481 10.4337 16.0461 10.3762 16.0421 10.3193L34.54 4.06846C34.5667 4.11912 34.5952 4.16873 34.6253 4.21719L19.4219 19.2369C19.0278 18.9622 18.5485 18.8011 18.0317 18.8011ZM11.6473 54.3574C11.0876 54.8034 10.7289 55.4909 10.7289 56.2622C10.7289 57.6066 11.8188 58.6964 13.1632 58.6964C13.9665 58.6964 14.679 58.3073 15.1223 57.7072L33.0041 65.4488C33 65.5066 32.9979 65.5649 32.9979 65.6238C32.9979 66.9682 34.0878 68.0581 35.4322 68.0581C36.7766 68.0581 37.8664 66.9682 37.8664 65.6238C37.8664 65.5923 37.8658 65.5609 37.8647 65.5297C37.8639 65.5111 37.863 65.4925 37.8619 65.474L57.6893 58.8525C58.1295 59.4813 58.8592 59.8925 59.685 59.8925C61.0294 59.8925 62.1192 58.8026 62.1192 57.4582C62.1192 56.4816 61.5442 55.6394 60.7142 55.2516L68.7853 40.4023C69.0303 40.4851 69.2928 40.5301 69.5658 40.5301C70.9102 40.5301 72 39.4402 72 38.0958C72 36.7514 70.9102 35.6615 69.5658 35.6615C69.3357 35.6615 69.1132 35.6934 68.9022 35.7531L58.6807 13.3793C59.2893 12.9368 59.6849 12.2192 59.6849 11.4091C59.6849 10.0647 58.595 8.97484 57.2506 8.97484C56.4426 8.97484 55.7266 9.36851 55.2838 9.9745L39.112 3.22147C39.1231 3.12727 39.1287 3.03144 39.1287 2.93427C39.1287 1.58986 38.0389 0.5 36.6945 0.5C35.3501 0.5 34.2602 1.58986 34.2602 2.93427C34.2602 2.96255 34.2607 2.9907 34.2616 3.01874L15.7268 9.28203C15.307 8.55029 14.518 8.0574 13.6138 8.0574C12.2694 8.0574 11.1796 9.14726 11.1796 10.4917C11.1796 11.2847 11.5588 11.9892 12.1458 12.4336L2.81495 29.7101C2.69092 29.6906 2.56378 29.6805 2.43428 29.6805C1.08986 29.6805 0 30.7703 0 32.1148C0 33.4592 1.08986 34.549 2.43428 34.549C2.56486 34.549 2.69305 34.5388 2.81807 34.519L11.6473 54.3574Z" fill="url(#paint0_linear_624_3990)"/>
</g>
<defs>
<linearGradient id="paint0_linear_624_3990" x1="10.8346" y1="8.63059" x2="63.0139" y2="60.6513" gradientUnits="userSpaceOnUse">
<stop stop-color="#9E5AA4"/>
<stop offset="0.526649" stop-color="#7387C2"/>
<stop offset="1" stop-color="#11AADE"/>
</linearGradient>
</defs>
</svg>
