<svg width="60" height="60" viewBox="0 0 769 914" fill="none" xmlns="http://www.w3.org/2000/svg">
<path d="M117.842 913.251C52.8857 913.251 0 860.414 0 795.41C0 730.406 52.8372 677.568 117.842 677.568H270.391V835.886C270.391 878.544 235.683 913.251 193.026 913.251H117.793H117.842Z" fill="url(#paint0_linear_2965_13766)"/>
<path d="M706.576 0.095272C740.891 0.0952741 768.83 27.7768 768.83 61.8328C768.83 95.8887 740.917 123.57 706.576 123.57L625.986 123.57L625.986 40.6272C625.986 18.2787 644.322 0.0952681 666.857 0.0952695L706.602 0.095272L706.576 0.095272Z" fill="url(#paint1_linear_2965_13766)"/>
<path d="M136.959 641.68V314.749C136.959 226.691 208.721 155.043 296.921 155.043H696.228V481.974C696.228 570.032 624.466 641.68 536.267 641.68H136.959Z" fill="url(#paint2_linear_2965_13766)"/>
<defs>
<linearGradient id="paint0_linear_2965_13766" x1="270.391" y1="677.568" x2="-29.232" y2="761.776" gradientUnits="userSpaceOnUse">
<stop stop-color="#4B1590"/>
<stop offset="1" stop-color="#AD05B1"/>
</linearGradient>
<linearGradient id="paint1_linear_2965_13766" x1="625.986" y1="123.57" x2="784.078" y2="78.7675" gradientUnits="userSpaceOnUse">
<stop stop-color="#4B1590"/>
<stop offset="1" stop-color="#AD05B1"/>
</linearGradient>
<linearGradient id="paint2_linear_2965_13766" x1="696.228" y1="155.043" x2="76.6537" y2="329.474" gradientUnits="userSpaceOnUse">
<stop stop-color="#4B1590"/>
<stop offset="1" stop-color="#AD05B1"/>
</linearGradient>
</defs>
</svg>
