<svg xmlns:xlink="http://www.w3.org/1999/xlink" xmlns="http://www.w3.org/2000/svg" version="1.1" viewBox="0 0 40 44" height="44px" width="40px">
    <title>Terra Logo</title>
    <g fill-rule="evenodd" fill="none" stroke-width="1" stroke="none" id="Page-1">
        <g transform="translate(-89.000000, -1646.000000)" id="Terra-Support">
            <g transform="translate(0.000000, 1247.000000)" id="Group-2">
                <g transform="translate(89.000000, 399.000000)" id="logo/Color">
                    <path fill-rule="nonzero" fill="#359348" id="Path" d="M0,13.8633898 L0,30.1425781 C0,32.0916884 1.04318576,33.9035373 2.74522569,34.8918186 L16.8556858,43.0451389 C18.5577257,44.0334201 20.6440972,44.0334201 22.3186849,43.0451389 L36.429145,34.8918186 C38.1311849,33.9035373 39.1743707,32.1191406 39.1743707,30.1425781 L39.1743707,13.8633898 C39.1743707,11.9142795 38.1311849,10.1024306 36.429145,9.11414931 L22.3186849,0.960828993 C20.616645,-8.32667268e-17 18.5302734,-8.32667268e-17 16.8282335,0.960828993 L2.71777344,9.11414931 C1.04318576,10.1024306 0,11.9142795 0,13.8633898 Z"/>
                    <path fill-rule="nonzero" fill="#73AD43" id="Path" d="M4.88650174,10.6514757 L1.15299479,24.3226997 C0.713758681,25.9698351 1.15299479,27.7267795 2.3608941,28.9346788 L12.3535156,39.0371094 C13.5614149,40.2450087 15.2909071,40.7391493 16.9380425,40.2999132 L30.664171,36.7036675 C32.3113064,36.2644314 33.6015625,35.0016276 34.0407986,33.3544922 L37.7743056,19.655816 C38.2135417,18.0086806 37.7743056,16.2517361 36.5664062,15.0438368 L26.601237,4.94140625 C25.3933377,3.73350694 23.6638455,3.23936632 22.0167101,3.67860243 L8.2905816,7.27484809 C6.64344618,7.74153646 5.3531901,9.00434028 4.88650174,10.6514757 Z"/>
                    <path fill="#AFD139" id="Path" d="M17.8714193,36.2644314 C17.1302083,36.0173611 16.3066406,35.7702908 15.3458116,35.468316 C6.1218533,32.6681858 7.85134549,34.507487 5.68261719,25.1188151 C3.51388889,15.7301432 2.77267795,18.1459418 9.80045573,11.5848524 C16.8282335,4.99631076 14.3575304,5.57280816 23.5814887,8.37293837 C32.805447,11.1730686 31.0759549,9.33376736 33.2446832,18.7224392 C35.4134115,28.1111111 36.1546224,25.6953125 29.1268446,32.2564019 C23.4442274,37.5821398 23.9658203,38.2135417 19.4911024,36.7860243 L17.8714193,36.2644314 Z"/>
                    <g fill-rule="nonzero" fill="#FFFFFF" transform="translate(6.588542, 16.745877)" id="Text">
                        <path id="Path" d="M5.18847656,0.164713542 L0.329427083,0.164713542 C0.164713542,0.164713542 0.0823567708,0.247070312 0.0823567708,0.411783854 L0.0823567708,1.15299479 C0.0823567708,1.31770833 0.164713542,1.4000651 0.329427083,1.4000651 L1.9765625,1.4000651 C2.05891927,1.4000651 2.11382378,1.45496962 2.11382378,1.53732639 L2.11382378,9.25141059 C2.11382378,9.41612413 2.19618056,9.4984809 2.3608941,9.4984809 L3.18446181,9.4984809 C3.32172309,9.4984809 3.40407986,9.41612413 3.40407986,9.25141059 L3.40407986,1.53732639 C3.40407986,1.42751736 3.45898438,1.4000651 3.54134115,1.4000651 L5.18847656,1.4000651 C5.3531901,1.4000651 5.43554688,1.31770833 5.43554688,1.15299479 L5.43554688,0.411783854 C5.40809462,0.247070312 5.32573785,0.164713542 5.18847656,0.164713542 Z"/>
                        <path id="Shape" d="M8.70236545,2.11382378 L7.46701389,2.11382378 C6.83561198,2.11382378 6.3140191,2.30598958 5.98459201,2.69032118 C5.62771267,3.07465278 5.46299913,3.62369792 5.46299913,4.36490885 L5.46299913,7.27484809 C5.46299913,7.98860677 5.62771267,8.53765191 5.98459201,8.92198351 C6.34147135,9.3063151 6.83561198,9.52593316 7.46701389,9.52593316 L10.4593099,9.52593316 C10.6240234,9.52593316 10.7063802,9.44357639 10.7063802,9.3063151 L10.7063802,8.59255642 C10.7063802,8.42784288 10.6240234,8.31803385 10.4593099,8.31803385 L7.65917969,8.31803385 C7.02777778,8.31803385 6.69835069,7.96115451 6.69835069,7.24739583 L6.69835069,6.58854167 C6.69835069,6.47873264 6.75325521,6.45128038 6.83561198,6.45128038 L10.5142144,6.45128038 C10.678928,6.45128038 10.7612847,6.36892361 10.7612847,6.17675781 L10.7612847,4.3374566 C10.7612847,3.62369792 10.5691189,3.07465278 10.2122396,2.66286892 C9.85536024,2.30598958 9.36121962,2.11382378 8.70236545,2.11382378 Z M9.47102865,5.32573785 C9.47102865,5.43554688 9.41612413,5.46299913 9.33376736,5.46299913 L6.80815972,5.46299913 C6.72580295,5.46299913 6.67089844,5.40809462 6.67089844,5.32573785 L6.67089844,4.39236111 C6.67089844,4.03548177 6.75325521,3.7609592 6.89051649,3.59624566 C7.02777778,3.43153212 7.27484809,3.34917535 7.60427517,3.34917535 L8.51019965,3.34917535 C8.83962674,3.34917535 9.08669705,3.43153212 9.22395833,3.59624566 C9.36121962,3.7609592 9.44357639,4.03548177 9.44357639,4.39236111 L9.44357639,5.32573785 L9.47102865,5.32573785 Z"/>
                        <path id="Shape" d="M24.7619358,2.69032118 C24.4050564,2.30598958 23.9109158,2.08637153 23.2795139,2.08637153 L20.726454,2.08637153 C20.5617405,2.08637153 20.4793837,2.1687283 20.4793837,2.30598958 L20.4793837,3.01974826 C20.4793837,3.18446181 20.5617405,3.29427083 20.726454,3.29427083 L23.0873481,3.29427083 C23.71875,3.29427083 24.0481771,3.65115017 24.0481771,4.36490885 L24.0481771,4.91395399 L22.2363281,4.91395399 C21.5225694,4.91395399 20.9735243,5.10611979 20.5617405,5.46299913 C20.1774089,5.81987847 19.9852431,6.3140191 19.9852431,6.97287326 L19.9852431,7.49446615 C19.9852431,8.12586806 20.1774089,8.64746094 20.5617405,8.97688802 C20.946072,9.33376736 21.4951172,9.4984809 22.2363281,9.4984809 L25.2835286,9.4984809 C25.2835286,9.03179253 25.2835286,8.20822483 25.2835286,8.0984158 L25.2835286,7.21994358 L25.2835286,5.13357205 L25.2835286,4.31000434 C25.2835286,3.65115017 25.0913628,3.10210503 24.7619358,2.69032118 Z M24.0207248,8.18077257 C24.0207248,8.26312934 23.9658203,8.31803385 23.8834635,8.31803385 L22.2637804,8.31803385 C21.906901,8.31803385 21.6323785,8.23567708 21.4676649,8.0984158 C21.3029514,7.96115451 21.2205946,7.65917969 21.2205946,7.3297526 L21.2205946,6.86306424 C21.2205946,6.53363715 21.3029514,6.28656684 21.4676649,6.14930556 C21.6323785,6.01204427 21.906901,5.9296875 22.2637804,5.9296875 L23.8834635,5.9296875 C23.9932726,5.9296875 24.0207248,5.98459201 24.0207248,6.06694878 L24.0207248,8.18077257 Z"/>
                        <path id="Path" d="M15.0163845,2.11382378 L14.5222439,2.11382378 C14.2202691,2.11382378 13.9457465,2.19618056 13.6986762,2.33344184 C13.4516059,2.47070312 13.2868924,2.66286892 13.2045356,2.90993924 L13.1496311,2.90993924 L13.1496311,2.3608941 C13.1496311,2.19618056 13.0672743,2.11382378 12.930013,2.11382378 L12.1064453,2.11382378 C11.969184,2.11382378 11.8868273,2.19618056 11.8868273,2.3608941 L11.8868273,9.27886285 C11.8868273,9.44357639 11.969184,9.52593316 12.1064453,9.52593316 L12.930013,9.52593316 C13.0672743,9.52593316 13.1496311,9.44357639 13.1496311,9.27886285 L13.1496311,4.66688368 C13.1496311,3.78841146 13.5065104,3.34917535 14.2202691,3.34917535 L15.0163845,3.34917535 C15.1536458,3.3766276 15.2360026,3.29427083 15.2360026,3.12955729 L15.2360026,2.38834635 C15.2360026,2.19618056 15.1536458,2.11382378 15.0163845,2.11382378 Z"/>
                        <path id="Path" d="M19.2714844,2.11382378 L18.7773438,2.11382378 C18.4753689,2.11382378 18.2008464,2.19618056 17.953776,2.33344184 C17.7067057,2.47070312 17.5419922,2.66286892 17.4596354,2.90993924 L17.4047309,2.90993924 L17.4047309,2.3608941 C17.4047309,2.19618056 17.3223741,2.11382378 17.1851128,2.11382378 L16.3615451,2.11382378 C16.2242839,2.11382378 16.1419271,2.19618056 16.1419271,2.3608941 L16.1419271,9.27886285 C16.1419271,9.44357639 16.2242839,9.52593316 16.3615451,9.52593316 L17.1851128,9.52593316 C17.3223741,9.52593316 17.4047309,9.44357639 17.4047309,9.27886285 L17.4047309,4.66688368 C17.4047309,3.78841146 17.7616102,3.34917535 18.4753689,3.34917535 L19.2714844,3.34917535 C19.4087457,3.3766276 19.4911024,3.29427083 19.4911024,3.12955729 L19.4911024,2.38834635 C19.4911024,2.19618056 19.4087457,2.11382378 19.2714844,2.11382378 Z"/>
                    </g>
                </g>
            </g>
        </g>
    </g>
</svg>