<svg width="199" height="43" viewBox="0 0 199 43" fill="none" xmlns="http://www.w3.org/2000/svg">
<path d="M0.396 17L5.004 4.4H7.758L12.348 17H9.774L6.372 7.172L2.952 17H0.396ZM2.43 14.138L3.078 12.248H9.486L10.116 14.138H2.43ZM13.9857 17V4.4H18.2697C19.7337 4.4 20.9397 4.664 21.8877 5.192C22.8477 5.708 23.5557 6.44 24.0117 7.388C24.4797 8.324 24.7137 9.428 24.7137 10.7C24.7137 11.972 24.4797 13.082 24.0117 14.03C23.5557 14.966 22.8477 15.698 21.8877 16.226C20.9397 16.742 19.7337 17 18.2697 17H13.9857ZM16.4157 14.912H18.1437C19.1757 14.912 19.9857 14.744 20.5737 14.408C21.1737 14.072 21.5997 13.592 21.8517 12.968C22.1037 12.332 22.2297 11.576 22.2297 10.7C22.2297 9.812 22.1037 9.056 21.8517 8.432C21.5997 7.796 21.1737 7.31 20.5737 6.974C19.9857 6.638 19.1757 6.47 18.1437 6.47H16.4157V14.912ZM30.9666 17V4.4H33.3966V9.386L37.9506 4.4H40.9386L36.3126 9.386L41.0826 17H38.1126L34.5666 11.276L33.3966 12.536V17H30.9666ZM42.6724 17V7.982H44.7964L44.9764 9.476C45.2644 8.96 45.6604 8.546 46.1644 8.234C46.6804 7.922 47.2984 7.766 48.0184 7.766C48.7624 7.766 49.3924 7.928 49.9084 8.252C50.4244 8.564 50.8144 9.026 51.0784 9.638C51.3544 10.238 51.4924 10.976 51.4924 11.852V17H49.0804V12.086C49.0804 11.354 48.9244 10.796 48.6124 10.412C48.3124 10.016 47.8444 9.818 47.2084 9.818C46.8004 9.818 46.4344 9.914 46.1104 10.106C45.7984 10.298 45.5524 10.574 45.3724 10.934C45.1924 11.294 45.1024 11.732 45.1024 12.248V17H42.6724ZM58.0658 17.216C57.2018 17.216 56.4218 17.018 55.7258 16.622C55.0418 16.214 54.4958 15.656 54.0878 14.948C53.6918 14.24 53.4938 13.424 53.4938 12.5C53.4938 11.564 53.6918 10.742 54.0878 10.034C54.4958 9.326 55.0478 8.774 55.7438 8.378C56.4398 7.97 57.2198 7.766 58.0838 7.766C58.9478 7.766 59.7278 7.97 60.4238 8.378C61.1198 8.774 61.6658 9.326 62.0618 10.034C62.4698 10.742 62.6738 11.564 62.6738 12.5C62.6738 13.424 62.4698 14.24 62.0618 14.948C61.6538 15.656 61.1018 16.214 60.4058 16.622C59.7218 17.018 58.9418 17.216 58.0658 17.216ZM58.0658 15.11C58.4618 15.11 58.8158 15.014 59.1278 14.822C59.4518 14.63 59.7098 14.342 59.9018 13.958C60.0938 13.562 60.1898 13.076 60.1898 12.5C60.1898 11.912 60.0938 11.426 59.9018 11.042C59.7218 10.658 59.4698 10.37 59.1458 10.178C58.8338 9.974 58.4798 9.872 58.0838 9.872C57.6998 9.872 57.3458 9.974 57.0218 10.178C56.6978 10.37 56.4398 10.658 56.2478 11.042C56.0558 11.426 55.9598 11.912 55.9598 12.5C55.9598 13.076 56.0558 13.562 56.2478 13.958C56.4398 14.342 56.6918 14.63 57.0038 14.822C57.3278 15.014 57.6818 15.11 58.0658 15.11ZM66.2513 17L63.5873 7.928H65.9813L67.7453 15.29L67.2953 15.272L69.3113 7.928H72.0113L74.0273 15.272L73.5593 15.29L75.3413 7.928H77.7353L75.0713 17H72.5513L70.4093 9.44H70.9133L68.7713 17H66.2513ZM79.2349 17V4.04H81.6649V17H79.2349ZM88.3897 17.216C87.4777 17.216 86.6677 17.024 85.9597 16.64C85.2637 16.244 84.7177 15.698 84.3217 15.002C83.9377 14.306 83.7457 13.496 83.7457 12.572C83.7457 11.636 83.9377 10.808 84.3217 10.088C84.7057 9.368 85.2457 8.804 85.9417 8.396C86.6497 7.976 87.4657 7.766 88.3897 7.766C89.2897 7.766 90.0757 7.964 90.7477 8.36C91.4197 8.744 91.9417 9.272 92.3137 9.944C92.6977 10.616 92.8897 11.378 92.8897 12.23C92.8897 12.35 92.8897 12.482 92.8897 12.626C92.8897 12.77 92.8777 12.926 92.8537 13.094H85.4737V11.6H90.4237C90.3997 11.036 90.1957 10.586 89.8117 10.25C89.4397 9.914 88.9717 9.746 88.4077 9.746C87.9877 9.746 87.6037 9.842 87.2557 10.034C86.9077 10.214 86.6317 10.496 86.4277 10.88C86.2357 11.252 86.1397 11.726 86.1397 12.302V12.824C86.1397 13.316 86.2297 13.742 86.4097 14.102C86.6017 14.462 86.8657 14.744 87.2017 14.948C87.5497 15.14 87.9397 15.236 88.3717 15.236C88.8157 15.236 89.1817 15.14 89.4697 14.948C89.7697 14.756 89.9977 14.504 90.1537 14.192H92.6377C92.4697 14.756 92.1817 15.266 91.7737 15.722C91.3777 16.178 90.8917 16.544 90.3157 16.82C89.7517 17.084 89.1097 17.216 88.3897 17.216ZM98.8938 17.216C98.0658 17.216 97.3218 17.012 96.6618 16.604C96.0138 16.196 95.5038 15.632 95.1318 14.912C94.7598 14.192 94.5738 13.382 94.5738 12.482C94.5738 11.558 94.7598 10.742 95.1318 10.034C95.5158 9.314 96.0378 8.75 96.6978 8.342C97.3698 7.922 98.1198 7.712 98.9478 7.712C99.5958 7.712 100.166 7.832 100.658 8.072C101.15 8.312 101.546 8.654 101.846 9.098V4.04H104.276V17H102.116L101.846 15.758C101.666 16.01 101.438 16.25 101.162 16.478C100.898 16.706 100.58 16.886 100.208 17.018C99.8358 17.15 99.3978 17.216 98.8938 17.216ZM99.4698 15.092C99.9498 15.092 100.37 14.984 100.73 14.768C101.102 14.54 101.39 14.228 101.594 13.832C101.798 13.436 101.9 12.98 101.9 12.464C101.9 11.948 101.798 11.492 101.594 11.096C101.39 10.7 101.102 10.394 100.73 10.178C100.37 9.95 99.9498 9.836 99.4698 9.836C99.0138 9.836 98.5998 9.95 98.2278 10.178C97.8558 10.394 97.5618 10.7 97.3458 11.096C97.1418 11.492 97.0398 11.942 97.0398 12.446C97.0398 12.974 97.1418 13.436 97.3458 13.832C97.5618 14.228 97.8498 14.54 98.2098 14.768C98.5818 14.984 99.0018 15.092 99.4698 15.092ZM110.545 21.176C109.681 21.176 108.925 21.068 108.277 20.852C107.641 20.648 107.143 20.33 106.783 19.898C106.435 19.478 106.261 18.956 106.261 18.332C106.261 17.912 106.369 17.516 106.585 17.144C106.801 16.772 107.119 16.436 107.539 16.136C107.959 15.824 108.475 15.56 109.087 15.344L110.005 16.55C109.453 16.73 109.057 16.952 108.817 17.216C108.577 17.492 108.457 17.78 108.457 18.08C108.457 18.356 108.547 18.59 108.727 18.782C108.907 18.974 109.153 19.112 109.465 19.196C109.789 19.292 110.149 19.34 110.545 19.34C110.917 19.34 111.241 19.292 111.517 19.196C111.805 19.1 112.027 18.956 112.183 18.764C112.351 18.584 112.435 18.368 112.435 18.116C112.435 17.792 112.321 17.528 112.093 17.324C111.865 17.132 111.415 17.012 110.743 16.964C110.131 16.916 109.585 16.85 109.105 16.766C108.637 16.67 108.223 16.562 107.863 16.442C107.515 16.31 107.215 16.166 106.963 16.01C106.711 15.854 106.507 15.698 106.351 15.542V15.128L108.277 13.058L110.005 13.598L107.755 15.848L108.457 14.66C108.577 14.732 108.697 14.804 108.817 14.876C108.949 14.936 109.111 14.996 109.303 15.056C109.495 15.104 109.741 15.152 110.041 15.2C110.353 15.236 110.749 15.278 111.229 15.326C112.021 15.398 112.669 15.548 113.173 15.776C113.677 15.992 114.049 16.292 114.289 16.676C114.529 17.06 114.649 17.522 114.649 18.062C114.649 18.602 114.499 19.106 114.199 19.574C113.911 20.054 113.461 20.438 112.849 20.726C112.249 21.026 111.481 21.176 110.545 21.176ZM110.563 14.336C109.807 14.336 109.153 14.192 108.601 13.904C108.061 13.604 107.641 13.208 107.341 12.716C107.053 12.224 106.909 11.672 106.909 11.06C106.909 10.448 107.053 9.896 107.341 9.404C107.641 8.912 108.061 8.516 108.601 8.216C109.153 7.916 109.807 7.766 110.563 7.766C111.319 7.766 111.967 7.916 112.507 8.216C113.059 8.516 113.479 8.912 113.767 9.404C114.055 9.896 114.199 10.448 114.199 11.06C114.199 11.672 114.055 12.224 113.767 12.716C113.479 13.208 113.059 13.604 112.507 13.904C111.967 14.192 111.319 14.336 110.563 14.336ZM110.563 12.482C111.019 12.482 111.391 12.362 111.679 12.122C111.967 11.882 112.111 11.528 112.111 11.06C112.111 10.604 111.967 10.256 111.679 10.016C111.391 9.776 111.019 9.656 110.563 9.656C110.095 9.656 109.711 9.776 109.411 10.016C109.123 10.256 108.979 10.604 108.979 11.06C108.979 11.528 109.123 11.882 109.411 12.122C109.711 12.362 110.095 12.482 110.563 12.482ZM112.039 9.71L111.643 7.982H115.387V9.422L112.039 9.71ZM121.384 17.216C120.472 17.216 119.662 17.024 118.954 16.64C118.258 16.244 117.712 15.698 117.316 15.002C116.932 14.306 116.74 13.496 116.74 12.572C116.74 11.636 116.932 10.808 117.316 10.088C117.7 9.368 118.24 8.804 118.936 8.396C119.644 7.976 120.46 7.766 121.384 7.766C122.284 7.766 123.07 7.964 123.742 8.36C124.414 8.744 124.936 9.272 125.308 9.944C125.692 10.616 125.884 11.378 125.884 12.23C125.884 12.35 125.884 12.482 125.884 12.626C125.884 12.77 125.872 12.926 125.848 13.094H118.468V11.6H123.418C123.394 11.036 123.19 10.586 122.806 10.25C122.434 9.914 121.966 9.746 121.402 9.746C120.982 9.746 120.598 9.842 120.25 10.034C119.902 10.214 119.626 10.496 119.422 10.88C119.23 11.252 119.134 11.726 119.134 12.302V12.824C119.134 13.316 119.224 13.742 119.404 14.102C119.596 14.462 119.86 14.744 120.196 14.948C120.544 15.14 120.934 15.236 121.366 15.236C121.81 15.236 122.176 15.14 122.464 14.948C122.764 14.756 122.992 14.504 123.148 14.192H125.632C125.464 14.756 125.176 15.266 124.768 15.722C124.372 16.178 123.886 16.544 123.31 16.82C122.746 17.084 122.104 17.216 121.384 17.216ZM132.128 17V4.4H136.862C137.882 4.4 138.722 4.574 139.382 4.922C140.054 5.258 140.552 5.726 140.876 6.326C141.212 6.914 141.38 7.58 141.38 8.324C141.38 9.02 141.218 9.662 140.894 10.25C140.582 10.838 140.09 11.318 139.418 11.69C138.758 12.05 137.906 12.23 136.862 12.23H134.558V17H132.128ZM134.558 10.268H136.7C137.48 10.268 138.038 10.094 138.374 9.746C138.722 9.386 138.896 8.912 138.896 8.324C138.896 7.712 138.722 7.238 138.374 6.902C138.038 6.554 137.48 6.38 136.7 6.38H134.558V10.268ZM146.976 17.216C146.112 17.216 145.332 17.018 144.636 16.622C143.952 16.214 143.406 15.656 142.998 14.948C142.602 14.24 142.404 13.424 142.404 12.5C142.404 11.564 142.602 10.742 142.998 10.034C143.406 9.326 143.958 8.774 144.654 8.378C145.35 7.97 146.13 7.766 146.994 7.766C147.858 7.766 148.638 7.97 149.334 8.378C150.03 8.774 150.576 9.326 150.972 10.034C151.38 10.742 151.584 11.564 151.584 12.5C151.584 13.424 151.38 14.24 150.972 14.948C150.564 15.656 150.012 16.214 149.316 16.622C148.632 17.018 147.852 17.216 146.976 17.216ZM146.976 15.11C147.372 15.11 147.726 15.014 148.038 14.822C148.362 14.63 148.62 14.342 148.812 13.958C149.004 13.562 149.1 13.076 149.1 12.5C149.1 11.912 149.004 11.426 148.812 11.042C148.632 10.658 148.38 10.37 148.056 10.178C147.744 9.974 147.39 9.872 146.994 9.872C146.61 9.872 146.256 9.974 145.932 10.178C145.608 10.37 145.35 10.658 145.158 11.042C144.966 11.426 144.87 11.912 144.87 12.5C144.87 13.076 144.966 13.562 145.158 13.958C145.35 14.342 145.602 14.63 145.914 14.822C146.238 15.014 146.592 15.11 146.976 15.11ZM153.678 17V7.982H155.838L156.054 9.656C156.282 9.272 156.552 8.942 156.864 8.666C157.188 8.378 157.56 8.156 157.98 8C158.412 7.844 158.88 7.766 159.384 7.766V10.34H158.628C158.256 10.34 157.914 10.382 157.602 10.466C157.302 10.55 157.038 10.688 156.81 10.88C156.582 11.072 156.408 11.33 156.288 11.654C156.168 11.978 156.108 12.386 156.108 12.878V17H153.678ZM165.111 17C164.475 17 163.917 16.904 163.437 16.712C162.969 16.508 162.603 16.178 162.339 15.722C162.075 15.254 161.943 14.618 161.943 13.814V10.016H160.395V7.982H161.943L162.213 5.534H164.373V7.982H166.749V10.016H164.373V13.85C164.373 14.258 164.463 14.54 164.643 14.696C164.823 14.852 165.129 14.93 165.561 14.93H166.713V17H165.111ZM171.891 17.216C171.135 17.216 170.511 17.096 170.019 16.856C169.527 16.604 169.161 16.274 168.921 15.866C168.681 15.446 168.561 14.99 168.561 14.498C168.561 13.946 168.699 13.46 168.975 13.04C169.263 12.62 169.695 12.296 170.271 12.068C170.847 11.828 171.567 11.708 172.431 11.708H174.681C174.681 11.264 174.621 10.898 174.501 10.61C174.381 10.322 174.189 10.106 173.925 9.962C173.673 9.818 173.343 9.746 172.935 9.746C172.479 9.746 172.089 9.848 171.765 10.052C171.441 10.256 171.243 10.562 171.171 10.97H168.795C168.867 10.31 169.083 9.746 169.443 9.278C169.815 8.798 170.301 8.426 170.901 8.162C171.513 7.898 172.197 7.766 172.953 7.766C173.805 7.766 174.543 7.91 175.167 8.198C175.791 8.486 176.271 8.9 176.607 9.44C176.943 9.98 177.111 10.646 177.111 11.438V17H175.059L174.789 15.614C174.657 15.854 174.501 16.07 174.321 16.262C174.141 16.454 173.931 16.622 173.691 16.766C173.451 16.91 173.181 17.018 172.881 17.09C172.581 17.174 172.251 17.216 171.891 17.216ZM172.467 15.344C172.779 15.344 173.055 15.29 173.295 15.182C173.547 15.062 173.763 14.906 173.943 14.714C174.123 14.51 174.261 14.282 174.357 14.03C174.465 13.766 174.537 13.49 174.573 13.202V13.184H172.719C172.347 13.184 172.041 13.232 171.801 13.328C171.573 13.424 171.399 13.556 171.279 13.724C171.171 13.88 171.117 14.066 171.117 14.282C171.117 14.51 171.171 14.702 171.279 14.858C171.399 15.014 171.561 15.134 171.765 15.218C171.969 15.302 172.203 15.344 172.467 15.344ZM179.377 17V4.04H181.807V17H179.377Z" fill="white"/>
<path d="M0.825 36V28.3H3.333C3.94167 28.3 4.44033 28.4027 4.829 28.608C5.225 28.806 5.51467 29.0737 5.698 29.411C5.88867 29.7483 5.984 30.1333 5.984 30.566C5.984 30.984 5.88867 31.3653 5.698 31.71C5.51467 32.0473 5.22867 32.3187 4.84 32.524C4.45133 32.7293 3.949 32.832 3.333 32.832H1.749V36H0.825ZM1.749 32.051H3.322C3.938 32.051 4.378 31.9153 4.642 31.644C4.906 31.3727 5.038 31.0133 5.038 30.566C5.038 30.0893 4.906 29.7227 4.642 29.466C4.378 29.202 3.938 29.07 3.322 29.07H1.749V32.051ZM10.6379 36.132C9.89719 36.132 9.24453 35.967 8.67986 35.637C8.12253 35.2997 7.68619 34.834 7.37086 34.24C7.06286 33.6387 6.90886 32.942 6.90886 32.15C6.90886 31.3653 7.06286 30.676 7.37086 30.082C7.68619 29.4807 8.12253 29.0113 8.67986 28.674C9.24453 28.3367 9.89719 28.168 10.6379 28.168C11.3932 28.168 12.0495 28.3367 12.6069 28.674C13.1642 29.0113 13.5969 29.4807 13.9049 30.082C14.2202 30.676 14.3779 31.3653 14.3779 32.15C14.3779 32.942 14.2202 33.6387 13.9049 34.24C13.5969 34.834 13.1642 35.2997 12.6069 35.637C12.0495 35.967 11.3932 36.132 10.6379 36.132ZM10.6379 35.318C11.1952 35.318 11.6829 35.1933 12.1009 34.944C12.5262 34.6873 12.8525 34.3243 13.0799 33.855C13.3145 33.3783 13.4319 32.81 13.4319 32.15C13.4319 31.49 13.3145 30.9253 13.0799 30.456C12.8525 29.9793 12.5262 29.6163 12.1009 29.367C11.6829 29.1177 11.1952 28.993 10.6379 28.993C10.0879 28.993 9.60019 29.1177 9.17486 29.367C8.75686 29.6163 8.43053 29.9793 8.19586 30.456C7.96853 30.9253 7.85486 31.49 7.85486 32.15C7.85486 32.81 7.96853 33.3783 8.19586 33.855C8.43053 34.3243 8.75686 34.6873 9.17486 34.944C9.60019 35.1933 10.0879 35.318 10.6379 35.318ZM17.0291 36L14.9171 28.3H15.9071L17.5681 34.9L19.4491 28.3H20.4831L22.3201 34.922L24.0031 28.3H24.9931L22.8371 36H21.7811L19.9441 29.631L18.0631 36H17.0291ZM26.0906 36V28.3H30.8536V29.059H27.0146V31.743H30.5236V32.491H27.0146V35.241H30.8536V36H26.0906ZM32.3104 36V28.3H34.7964C35.3977 28.3 35.889 28.4027 36.2704 28.608C36.6517 28.806 36.934 29.0737 37.1174 29.411C37.3007 29.7483 37.3924 30.1297 37.3924 30.555C37.3924 30.9657 37.297 31.3433 37.1064 31.688C36.923 32.0327 36.637 32.3077 36.2484 32.513C35.8597 32.7183 35.361 32.821 34.7524 32.821H33.2344V36H32.3104ZM36.3804 36L34.6864 32.557H35.7204L37.4694 36H36.3804ZM33.2344 32.095H34.7304C35.317 32.095 35.746 31.952 36.0174 31.666C36.296 31.38 36.4354 31.0133 36.4354 30.566C36.4354 30.1113 36.2997 29.752 36.0284 29.488C35.7644 29.2167 35.328 29.081 34.7194 29.081H33.2344V32.095ZM38.8416 36V28.3H43.6046V29.059H39.7656V31.743H43.2746V32.491H39.7656V35.241H43.6046V36H38.8416ZM45.0613 36V28.3H47.3273C48.2293 28.3 48.97 28.4577 49.5493 28.773C50.136 29.081 50.5687 29.5247 50.8473 30.104C51.1333 30.676 51.2763 31.3653 51.2763 32.172C51.2763 32.964 51.1333 33.646 50.8473 34.218C50.5687 34.79 50.136 35.23 49.5493 35.538C48.97 35.846 48.2293 36 47.3273 36H45.0613ZM45.9853 35.23H47.3053C48.0533 35.23 48.6473 35.109 49.0873 34.867C49.5273 34.6177 49.8427 34.2657 50.0333 33.811C50.224 33.349 50.3193 32.8027 50.3193 32.172C50.3193 31.5267 50.224 30.973 50.0333 30.511C49.8427 30.049 49.5273 29.6933 49.0873 29.444C48.6473 29.1947 48.0533 29.07 47.3053 29.07H45.9853V35.23ZM55.5564 36V28.3H58.2624C58.8051 28.3 59.2524 28.388 59.6044 28.564C59.9638 28.7327 60.2314 28.9673 60.4074 29.268C60.5834 29.5613 60.6714 29.8913 60.6714 30.258C60.6714 30.654 60.5834 30.984 60.4074 31.248C60.2388 31.512 60.0151 31.7137 59.7364 31.853C59.4651 31.9923 59.1754 32.0767 58.8674 32.106L59.0214 31.996C59.3514 32.0033 59.6558 32.0913 59.9344 32.26C60.2131 32.4287 60.4331 32.656 60.5944 32.942C60.7631 33.228 60.8474 33.547 60.8474 33.899C60.8474 34.2877 60.7521 34.6433 60.5614 34.966C60.3708 35.2813 60.0884 35.5343 59.7144 35.725C59.3478 35.9083 58.8931 36 58.3504 36H55.5564ZM56.4804 35.23H58.2514C58.7721 35.23 59.1754 35.109 59.4614 34.867C59.7548 34.6177 59.9014 34.273 59.9014 33.833C59.9014 33.4003 59.7511 33.0557 59.4504 32.799C59.1571 32.535 58.7501 32.403 58.2294 32.403H56.4804V35.23ZM56.4804 31.666H58.1964C58.6951 31.666 59.0728 31.5487 59.3294 31.314C59.5934 31.0793 59.7254 30.7603 59.7254 30.357C59.7254 29.9683 59.5934 29.6567 59.3294 29.422C59.0728 29.1873 58.6841 29.07 58.1634 29.07H56.4804V31.666ZM63.7544 36V33.074L61.2464 28.3H62.2914L64.3594 32.469H64.0844L66.1414 28.3H67.1754L64.6784 33.074V36H63.7544Z" fill="white"/>
<path d="M75.9501 34.0399C75.9358 34.0399 75.9073 34.0399 75.893 34.0256L72.057 31.7012C72.0143 31.6727 72 31.6442 72 31.6014V27.2663C72 27.2235 72.0143 27.195 72.057 27.1665C72.0856 27.1522 72.1283 27.1522 72.1711 27.1665L75.9643 29.3911C75.9929 29.4053 76.0214 29.4481 76.0214 29.4766L76.0642 33.9116C76.0642 33.9543 76.0499 33.9829 76.0071 34.0114C75.9786 34.0399 75.9643 34.0399 75.9501 34.0399ZM72.2139 31.5444L75.836 33.7404L75.7932 29.5622L72.2139 27.4659V31.5444Z" fill="white" stroke="white" stroke-width="0.25"/>
<path d="M75.9501 33.9401C75.9073 33.9401 75.8788 33.9258 75.8645 33.8831C75.836 33.826 75.8503 33.769 75.9073 33.7405L78.0464 32.4856L79.1587 31.8439C79.2157 31.8153 79.2727 31.8296 79.3013 31.8866C79.3298 31.9437 79.3155 32.0007 79.2585 32.0292L76.0071 33.9116C75.9929 33.9258 75.9644 33.9401 75.9501 33.9401Z" fill="white" stroke="white" stroke-width="0.25"/>
<path d="M79.7718 40.4998C79.7576 40.4998 79.729 40.4998 79.7148 40.4856L75.9501 38.2467C75.9216 38.2324 75.893 38.1897 75.893 38.1611L75.836 33.9401C75.836 33.8973 75.8503 33.8688 75.893 33.8403C75.9216 33.826 75.9643 33.826 76.0071 33.8403L79.8003 35.9651C79.8289 35.9793 79.8574 36.0221 79.8574 36.0649L79.8859 40.3857C79.8859 40.4285 79.8716 40.457 79.8289 40.4856C79.8003 40.4856 79.7861 40.4998 79.7718 40.4998ZM76.1069 38.0898L79.6577 40.2004L79.6292 36.1219L76.0642 34.1255L76.1069 38.0898Z" fill="white" stroke="white" stroke-width="0.25"/>
<path d="M80.4421 40.486C80.4278 40.486 80.3993 40.486 80.385 40.4717C80.3565 40.4574 80.328 40.4147 80.328 40.3861L80.2709 36.0653C80.2709 36.0225 80.2852 35.994 80.328 35.9655L84.1212 33.7836C84.1497 33.7694 84.1925 33.7694 84.2353 33.7836C84.2638 33.7979 84.2923 33.8407 84.2923 33.8835L84.1925 38.1758C84.1925 38.2186 84.1782 38.2471 84.1355 38.2614L80.4991 40.4717C80.4848 40.486 80.4706 40.486 80.4421 40.486ZM80.4991 36.1223L80.5561 40.1865L83.9786 38.1045L84.0642 34.0546L80.4991 36.1223Z" fill="white" stroke="white" stroke-width="0.25"/>
<path d="M84.1355 33.8834C84.1212 33.8834 84.0927 33.8834 84.0784 33.8691L81.9251 32.6285H81.9109L80.7986 31.9868C80.7415 31.9582 80.7273 31.8869 80.7558 31.8442C80.7843 31.7871 80.8556 31.7728 80.8984 31.8014L84.1782 33.6837C84.2353 33.7122 84.2495 33.7835 84.221 33.8263C84.2068 33.8691 84.164 33.8834 84.1355 33.8834Z" fill="white" stroke="white" stroke-width="0.25"/>
<path d="M84.2068 33.9119C84.1925 33.9119 84.164 33.9119 84.1497 33.8977C84.1212 33.8834 84.0927 33.8406 84.0927 33.8121L84.0356 29.4627C84.0356 29.42 84.0499 29.3914 84.0927 29.3629L87.8289 27.1811C87.8574 27.1668 87.9002 27.1668 87.943 27.1811C87.9715 27.1954 88 27.2381 88 27.2809V31.6303C88 31.6731 87.9857 31.7016 87.943 31.7159L84.2638 33.8977C84.2495 33.9119 84.2353 33.9119 84.2068 33.9119ZM84.2638 29.5198L84.3066 33.6267L87.7718 31.559V27.4521L84.2638 29.5198Z" fill="white" stroke="white" stroke-width="0.25"/>
<path d="M83.9216 28.9493C83.9073 28.9493 83.8788 28.9493 83.8645 28.9351L80.0998 26.796C80.0713 26.7818 80.0428 26.739 80.0428 26.6962C80.0428 26.6534 80.0713 26.6249 80.0998 26.5964L83.9216 24.5429C83.9501 24.5287 83.9929 24.5287 84.0214 24.5429L87.7005 26.5394C87.7291 26.5536 87.7576 26.5964 87.7576 26.6249C87.7576 26.6677 87.7433 26.6962 87.7005 26.7247L83.9786 28.9351C83.9501 28.9493 83.9358 28.9493 83.9216 28.9493ZM80.385 26.7105L83.9216 28.7212L87.4439 26.6249L83.9786 24.7568L80.385 26.7105Z" fill="white" stroke="white" stroke-width="0.25"/>
<path d="M80.0856 30.632C80.0285 30.632 79.9857 30.5892 79.9715 30.5322V29.2488C79.9715 29.2488 79.9715 29.2488 79.9715 29.2345L79.9572 26.7532C79.9572 26.6962 80 26.6392 80.057 26.6392C80.1141 26.6392 80.1569 26.6819 80.1711 26.739L80.1854 30.5179C80.1854 30.5892 80.1426 30.632 80.0856 30.632Z" fill="white" stroke="white" stroke-width="0.25"/>
<path d="M76.3066 28.992C76.2923 28.992 76.2638 28.992 76.2495 28.9777L72.4848 26.8387C72.4563 26.8244 72.4278 26.7816 72.4278 26.7389C72.4278 26.6961 72.4421 26.6676 72.4848 26.639L76.3066 24.5C76.3494 24.5 76.3921 24.5 76.4207 24.5143L80.0998 26.6105C80.1283 26.6248 80.1569 26.6676 80.1569 26.6961C80.1569 26.7246 80.1426 26.7674 80.0998 26.7959L76.3636 28.9777C76.3494 28.992 76.3351 28.992 76.3066 28.992ZM72.77 26.7531L76.3066 28.7781L79.8431 26.7103L76.3636 24.7282L72.77 26.7531Z" fill="white" stroke="white" stroke-width="0.25"/>
<path d="M95.278 36.132C94.7133 36.132 94.222 36.0293 93.804 35.824C93.386 35.6187 93.0633 35.3327 92.836 34.966C92.6087 34.5993 92.495 34.174 92.495 33.69H93.463C93.463 33.9907 93.5327 34.2693 93.672 34.526C93.8113 34.7753 94.013 34.977 94.277 35.131C94.5483 35.2777 94.882 35.351 95.278 35.351C95.6227 35.351 95.916 35.296 96.158 35.186C96.4073 35.0687 96.5943 34.911 96.719 34.713C96.851 34.515 96.917 34.2913 96.917 34.042C96.917 33.7413 96.851 33.4993 96.719 33.316C96.5943 33.1253 96.422 32.9713 96.202 32.854C95.982 32.7367 95.7253 32.634 95.432 32.546C95.146 32.4507 94.8453 32.3517 94.53 32.249C93.9213 32.0437 93.474 31.787 93.188 31.479C92.902 31.171 92.759 30.7713 92.759 30.28C92.759 29.862 92.8543 29.4953 93.045 29.18C93.243 28.8647 93.5217 28.619 93.881 28.443C94.2477 28.2597 94.6803 28.168 95.179 28.168C95.6703 28.168 96.0957 28.2597 96.455 28.443C96.8217 28.6263 97.1077 28.8793 97.313 29.202C97.5183 29.5173 97.621 29.884 97.621 30.302H96.653C96.653 30.0893 96.598 29.8803 96.488 29.675C96.378 29.4697 96.2093 29.301 95.982 29.169C95.762 29.0297 95.4833 28.96 95.146 28.96C94.8673 28.9527 94.618 29.0003 94.398 29.103C94.1853 29.1983 94.0167 29.3377 93.892 29.521C93.7747 29.7043 93.716 29.928 93.716 30.192C93.716 30.4413 93.7673 30.643 93.87 30.797C93.98 30.951 94.134 31.083 94.332 31.193C94.5373 31.2957 94.7757 31.391 95.047 31.479C95.3183 31.567 95.619 31.666 95.949 31.776C96.323 31.9007 96.653 32.0547 96.939 32.238C97.2323 32.414 97.4597 32.6413 97.621 32.92C97.7897 33.1987 97.874 33.5543 97.874 33.987C97.874 34.3537 97.775 34.702 97.577 35.032C97.3863 35.3547 97.1003 35.6187 96.719 35.824C96.3377 36.0293 95.8573 36.132 95.278 36.132ZM98.7109 36L101.549 28.3H102.528L105.355 36H104.376L102.033 29.455L99.6789 36H98.7109ZM100.009 34.02L100.273 33.272H103.76L104.024 34.02H100.009ZM109.381 36.132C108.662 36.132 108.032 35.967 107.489 35.637C106.946 35.2997 106.525 34.834 106.224 34.24C105.923 33.646 105.773 32.953 105.773 32.161C105.773 31.3763 105.923 30.6833 106.224 30.082C106.532 29.4807 106.965 29.0113 107.522 28.674C108.087 28.3367 108.75 28.168 109.513 28.168C110.378 28.168 111.101 28.377 111.68 28.795C112.259 29.2057 112.63 29.7813 112.791 30.522H111.724C111.621 30.06 111.379 29.6933 110.998 29.422C110.617 29.1507 110.122 29.015 109.513 29.015C108.948 29.015 108.453 29.1433 108.028 29.4C107.61 29.6493 107.287 30.0087 107.06 30.478C106.833 30.9473 106.719 31.5083 106.719 32.161C106.719 32.8137 106.833 33.3783 107.06 33.855C107.287 34.3243 107.603 34.6837 108.006 34.933C108.417 35.1823 108.886 35.307 109.414 35.307C110.235 35.307 110.855 35.065 111.273 34.581C111.691 34.097 111.929 33.4407 111.988 32.612H109.766V31.886H112.934V36H112.087L112.01 34.735C111.827 35.0357 111.614 35.2923 111.372 35.505C111.137 35.7103 110.859 35.868 110.536 35.978C110.213 36.0807 109.828 36.132 109.381 36.132ZM114.406 36V28.3H119.169V29.059H115.33V31.743H118.839V32.491H115.33V35.241H119.169V36H114.406ZM123.548 36V28.3H126.254C126.796 28.3 127.244 28.388 127.596 28.564C127.955 28.7327 128.223 28.9673 128.399 29.268C128.575 29.5613 128.663 29.8913 128.663 30.258C128.663 30.654 128.575 30.984 128.399 31.248C128.23 31.512 128.006 31.7137 127.728 31.853C127.456 31.9923 127.167 32.0767 126.859 32.106L127.013 31.996C127.343 32.0033 127.647 32.0913 127.926 32.26C128.204 32.4287 128.424 32.656 128.586 32.942C128.754 33.228 128.839 33.547 128.839 33.899C128.839 34.2877 128.743 34.6433 128.553 34.966C128.362 35.2813 128.08 35.5343 127.706 35.725C127.339 35.9083 126.884 36 126.342 36H123.548ZM124.472 35.23H126.243C126.763 35.23 127.167 35.109 127.453 34.867C127.746 34.6177 127.893 34.273 127.893 33.833C127.893 33.4003 127.742 33.0557 127.442 32.799C127.148 32.535 126.741 32.403 126.221 32.403H124.472V35.23ZM124.472 31.666H126.188C126.686 31.666 127.064 31.5487 127.321 31.314C127.585 31.0793 127.717 30.7603 127.717 30.357C127.717 29.9683 127.585 29.6567 127.321 29.422C127.064 29.1873 126.675 29.07 126.155 29.07H124.472V31.666ZM130.176 36V28.3H131.1V36H130.176ZM136.186 36.132C135.445 36.132 134.792 35.967 134.228 35.637C133.67 35.2997 133.234 34.834 132.919 34.24C132.611 33.6387 132.457 32.942 132.457 32.15C132.457 31.3653 132.611 30.676 132.919 30.082C133.234 29.4807 133.67 29.0113 134.228 28.674C134.792 28.3367 135.445 28.168 136.186 28.168C136.941 28.168 137.597 28.3367 138.155 28.674C138.712 29.0113 139.145 29.4807 139.453 30.082C139.768 30.676 139.926 31.3653 139.926 32.15C139.926 32.942 139.768 33.6387 139.453 34.24C139.145 34.834 138.712 35.2997 138.155 35.637C137.597 35.967 136.941 36.132 136.186 36.132ZM136.186 35.318C136.743 35.318 137.231 35.1933 137.649 34.944C138.074 34.6873 138.4 34.3243 138.628 33.855C138.862 33.3783 138.98 32.81 138.98 32.15C138.98 31.49 138.862 30.9253 138.628 30.456C138.4 29.9793 138.074 29.6163 137.649 29.367C137.231 29.1177 136.743 28.993 136.186 28.993C135.636 28.993 135.148 29.1177 134.723 29.367C134.305 29.6163 133.978 29.9793 133.744 30.456C133.516 30.9253 133.403 31.49 133.403 32.15C133.403 32.81 133.516 33.3783 133.744 33.855C133.978 34.3243 134.305 34.6873 134.723 34.944C135.148 35.1933 135.636 35.318 136.186 35.318ZM141.272 36V28.3H142.196L146.299 34.471V28.3H147.223V36H146.299L142.196 29.829V36H141.272ZM148.878 36V28.3H153.641V29.059H149.802V31.743H153.311V32.491H149.802V35.241H153.641V36H148.878ZM156.901 36V29.059H154.602V28.3H160.124V29.059H157.825V36H156.901ZM162.847 36L160.735 28.3H161.725L163.386 34.9L165.267 28.3H166.301L168.138 34.922L169.821 28.3H170.811L168.655 36H167.599L165.762 29.631L163.881 36H162.847ZM175.062 36.132C174.321 36.132 173.668 35.967 173.104 35.637C172.546 35.2997 172.11 34.834 171.795 34.24C171.487 33.6387 171.333 32.942 171.333 32.15C171.333 31.3653 171.487 30.676 171.795 30.082C172.11 29.4807 172.546 29.0113 173.104 28.674C173.668 28.3367 174.321 28.168 175.062 28.168C175.817 28.168 176.473 28.3367 177.031 28.674C177.588 29.0113 178.021 29.4807 178.329 30.082C178.644 30.676 178.802 31.3653 178.802 32.15C178.802 32.942 178.644 33.6387 178.329 34.24C178.021 34.834 177.588 35.2997 177.031 35.637C176.473 35.967 175.817 36.132 175.062 36.132ZM175.062 35.318C175.619 35.318 176.107 35.1933 176.525 34.944C176.95 34.6873 177.276 34.3243 177.504 33.855C177.738 33.3783 177.856 32.81 177.856 32.15C177.856 31.49 177.738 30.9253 177.504 30.456C177.276 29.9793 176.95 29.6163 176.525 29.367C176.107 29.1177 175.619 28.993 175.062 28.993C174.512 28.993 174.024 29.1177 173.599 29.367C173.181 29.6163 172.854 29.9793 172.62 30.456C172.392 30.9253 172.279 31.49 172.279 32.15C172.279 32.81 172.392 33.3783 172.62 33.855C172.854 34.3243 173.181 34.6873 173.599 34.944C174.024 35.1933 174.512 35.318 175.062 35.318ZM180.148 36V28.3H182.634C183.236 28.3 183.727 28.4027 184.108 28.608C184.49 28.806 184.772 29.0737 184.955 29.411C185.139 29.7483 185.23 30.1297 185.23 30.555C185.23 30.9657 185.135 31.3433 184.944 31.688C184.761 32.0327 184.475 32.3077 184.086 32.513C183.698 32.7183 183.199 32.821 182.59 32.821H181.072V36H180.148ZM184.218 36L182.524 32.557H183.558L185.307 36H184.218ZM181.072 32.095H182.568C183.155 32.095 183.584 31.952 183.855 31.666C184.134 31.38 184.273 31.0133 184.273 30.566C184.273 30.1113 184.138 29.752 183.866 29.488C183.602 29.2167 183.166 29.081 182.557 29.081H181.072V32.095ZM186.679 36V28.3H187.603V31.787L190.815 28.3H191.981L189.121 31.369L192.025 36H190.903L188.461 32.084L187.603 32.997V36H186.679ZM195.556 36.132C194.992 36.132 194.5 36.0293 194.082 35.824C193.664 35.6187 193.342 35.3327 193.114 34.966C192.887 34.5993 192.773 34.174 192.773 33.69H193.741C193.741 33.9907 193.811 34.2693 193.95 34.526C194.09 34.7753 194.291 34.977 194.555 35.131C194.827 35.2777 195.16 35.351 195.556 35.351C195.901 35.351 196.194 35.296 196.436 35.186C196.686 35.0687 196.873 34.911 196.997 34.713C197.129 34.515 197.195 34.2913 197.195 34.042C197.195 33.7413 197.129 33.4993 196.997 33.316C196.873 33.1253 196.7 32.9713 196.48 32.854C196.26 32.7367 196.004 32.634 195.71 32.546C195.424 32.4507 195.124 32.3517 194.808 32.249C194.2 32.0437 193.752 31.787 193.466 31.479C193.18 31.171 193.037 30.7713 193.037 30.28C193.037 29.862 193.133 29.4953 193.323 29.18C193.521 28.8647 193.8 28.619 194.159 28.443C194.526 28.2597 194.959 28.168 195.457 28.168C195.949 28.168 196.374 28.2597 196.733 28.443C197.1 28.6263 197.386 28.8793 197.591 29.202C197.797 29.5173 197.899 29.884 197.899 30.302H196.931C196.931 30.0893 196.876 29.8803 196.766 29.675C196.656 29.4697 196.488 29.301 196.26 29.169C196.04 29.0297 195.762 28.96 195.424 28.96C195.146 28.9527 194.896 29.0003 194.676 29.103C194.464 29.1983 194.295 29.3377 194.17 29.521C194.053 29.7043 193.994 29.928 193.994 30.192C193.994 30.4413 194.046 30.643 194.148 30.797C194.258 30.951 194.412 31.083 194.61 31.193C194.816 31.2957 195.054 31.391 195.325 31.479C195.597 31.567 195.897 31.666 196.227 31.776C196.601 31.9007 196.931 32.0547 197.217 32.238C197.511 32.414 197.738 32.6413 197.899 32.92C198.068 33.1987 198.152 33.5543 198.152 33.987C198.152 34.3537 198.053 34.702 197.855 35.032C197.665 35.3547 197.379 35.6187 196.997 35.824C196.616 36.0293 196.136 36.132 195.556 36.132Z" fill="white"/>
</svg>
