<svg width="378" height="58" viewBox="0 0 378 58" fill="none" xmlns="http://www.w3.org/2000/svg">
<path d="M57.3545 6C57.7472 6 58.1037 6.23006 58.2656 6.58789L67.9111 27.9033C67.9697 28.0328 68 28.1734 68 28.3154V57C68 57.5523 67.5523 58 67 58H9C8.44772 58 8 57.5523 8 57V28.3154C8.00004 28.1734 8.03029 28.0328 8.08887 27.9033L17.7344 6.58789C17.8963 6.23006 18.2527 6 18.6455 6H57.3545ZM29.5 43C28.6716 43 28 43.6716 28 44.5V45.5C28 46.3284 28.6716 47 29.5 47H47.5C48.3284 47 49 46.3284 49 45.5V44.5C49 43.6716 48.3284 43 47.5 43H29.5ZM21.6406 9.5C21.2503 9.50016 20.8956 9.7274 20.7324 10.082L13.1514 26.582C12.847 27.2444 13.3307 27.9997 14.0596 28H61.4785C62.1975 27.9997 62.6808 27.2636 62.3955 26.6035L55.2607 10.1035C55.1024 9.73743 54.7416 9.5 54.3428 9.5H21.6406Z" fill="#38413F"/>
<path d="M0 4L12.0805 28H64.4295L75 4H0Z" fill="url(#paint0_linear_358_323)"/>
<path opacity="0.5" d="M21 3.2076V28H18.3684L11 3L21 3.2076Z" fill="url(#paint1_linear_358_323)"/>
<path opacity="0.5" d="M55 3.2076V28H57.6316L65 3L55 3.2076Z" fill="url(#paint2_linear_358_323)"/>
<path opacity="0.5" d="M31 1L33.7778 28H35.4615L37 1.12351L31 1Z" fill="url(#paint3_linear_358_323)"/>
<path opacity="0.5" d="M28 0L26.4717 28H25.4899L24 0H28Z" fill="url(#paint4_linear_358_323)"/>
<path opacity="0.5" d="M54 0L44.7903 28H41L42.6761 0H54Z" fill="url(#paint5_linear_358_323)"/>
<path d="M97.625 29.3C95.8583 29.3 94.3333 28.925 93.05 28.175C91.7833 27.4083 90.8083 26.35 90.125 25C89.4417 23.6333 89.1 22.0583 89.1 20.275C89.1 18.4917 89.4417 16.9167 90.125 15.55C90.8083 14.1833 91.7833 13.1167 93.05 12.35C94.3333 11.5833 95.8583 11.2 97.625 11.2C99.7583 11.2 101.508 11.7333 102.875 12.8C104.242 13.8667 105.092 15.3667 105.425 17.3H101.575C101.375 16.3667 100.933 15.65 100.25 15.15C99.5833 14.6333 98.7 14.375 97.6 14.375C96.55 14.375 95.6583 14.6167 94.925 15.1C94.1917 15.5667 93.625 16.2417 93.225 17.125C92.8417 18.0083 92.65 19.0583 92.65 20.275C92.65 21.4917 92.8417 22.5417 93.225 23.425C93.625 24.2917 94.1917 24.9667 94.925 25.45C95.6583 25.9167 96.55 26.15 97.6 26.15C98.7 26.15 99.5833 25.9167 100.25 25.45C100.917 24.9667 101.358 24.3 101.575 23.45H105.425C105.092 25.2667 104.242 26.7 102.875 27.75C101.508 28.7833 99.7583 29.3 97.625 29.3ZM108.655 29V11.5H112.155V26.275H119.78V29H108.655ZM121.897 29L128.222 11.5H132.322L138.647 29H134.922L130.247 15.35L125.572 29H121.897ZM124.697 25.025L125.622 22.275H134.622L135.522 25.025H124.697ZM147.346 29.3C146.08 29.3 144.946 29.0833 143.946 28.65C142.963 28.2167 142.18 27.5833 141.596 26.75C141.03 25.9167 140.73 24.9083 140.696 23.725H144.396C144.413 24.225 144.538 24.675 144.771 25.075C145.021 25.475 145.363 25.7917 145.796 26.025C146.23 26.2583 146.746 26.375 147.346 26.375C147.846 26.375 148.28 26.2917 148.646 26.125C149.03 25.9583 149.321 25.725 149.521 25.425C149.738 25.125 149.846 24.7583 149.846 24.325C149.846 23.825 149.721 23.4167 149.471 23.1C149.238 22.7667 148.905 22.4833 148.471 22.25C148.038 22.0167 147.546 21.8083 146.996 21.625C146.446 21.4417 145.871 21.25 145.271 21.05C143.921 20.5833 142.88 19.9833 142.146 19.25C141.43 18.5 141.071 17.4917 141.071 16.225C141.071 15.175 141.321 14.275 141.821 13.525C142.338 12.775 143.046 12.2 143.946 11.8C144.863 11.4 145.896 11.2 147.046 11.2C148.23 11.2 149.271 11.4083 150.171 11.825C151.071 12.225 151.788 12.8083 152.321 13.575C152.855 14.3417 153.13 15.25 153.146 16.3H149.396C149.38 15.9167 149.271 15.5667 149.071 15.25C148.871 14.9167 148.596 14.65 148.246 14.45C147.896 14.25 147.48 14.15 146.996 14.15C146.58 14.1333 146.196 14.2 145.846 14.35C145.513 14.4833 145.246 14.6917 145.046 14.975C144.846 15.2417 144.746 15.5833 144.746 16C144.746 16.4 144.846 16.7417 145.046 17.025C145.246 17.3083 145.521 17.55 145.871 17.75C146.238 17.95 146.663 18.1417 147.146 18.325C147.63 18.4917 148.155 18.6667 148.721 18.85C149.605 19.15 150.413 19.5083 151.146 19.925C151.88 20.325 152.463 20.85 152.896 21.5C153.346 22.15 153.571 23.0083 153.571 24.075C153.571 25.0083 153.33 25.875 152.846 26.675C152.363 27.4583 151.663 28.0917 150.746 28.575C149.83 29.0583 148.696 29.3 147.346 29.3ZM162.837 29.3C161.57 29.3 160.437 29.0833 159.437 28.65C158.453 28.2167 157.67 27.5833 157.087 26.75C156.52 25.9167 156.22 24.9083 156.187 23.725H159.887C159.903 24.225 160.028 24.675 160.262 25.075C160.512 25.475 160.853 25.7917 161.287 26.025C161.72 26.2583 162.237 26.375 162.837 26.375C163.337 26.375 163.77 26.2917 164.137 26.125C164.52 25.9583 164.812 25.725 165.012 25.425C165.228 25.125 165.337 24.7583 165.337 24.325C165.337 23.825 165.212 23.4167 164.962 23.1C164.728 22.7667 164.395 22.4833 163.962 22.25C163.528 22.0167 163.037 21.8083 162.487 21.625C161.937 21.4417 161.362 21.25 160.762 21.05C159.412 20.5833 158.37 19.9833 157.637 19.25C156.92 18.5 156.562 17.4917 156.562 16.225C156.562 15.175 156.812 14.275 157.312 13.525C157.828 12.775 158.537 12.2 159.437 11.8C160.353 11.4 161.387 11.2 162.537 11.2C163.72 11.2 164.762 11.4083 165.662 11.825C166.562 12.225 167.278 12.8083 167.812 13.575C168.345 14.3417 168.62 15.25 168.637 16.3H164.887C164.87 15.9167 164.762 15.5667 164.562 15.25C164.362 14.9167 164.087 14.65 163.737 14.45C163.387 14.25 162.97 14.15 162.487 14.15C162.07 14.1333 161.687 14.2 161.337 14.35C161.003 14.4833 160.737 14.6917 160.537 14.975C160.337 15.2417 160.237 15.5833 160.237 16C160.237 16.4 160.337 16.7417 160.537 17.025C160.737 17.3083 161.012 17.55 161.362 17.75C161.728 17.95 162.153 18.1417 162.637 18.325C163.12 18.4917 163.645 18.6667 164.212 18.85C165.095 19.15 165.903 19.5083 166.637 19.925C167.37 20.325 167.953 20.85 168.387 21.5C168.837 22.15 169.062 23.0083 169.062 24.075C169.062 25.0083 168.82 25.875 168.337 26.675C167.853 27.4583 167.153 28.0917 166.237 28.575C165.32 29.0583 164.187 29.3 162.837 29.3ZM172.252 29V11.5H175.752V29H172.252ZM187.49 29.3C185.724 29.3 184.199 28.925 182.915 28.175C181.649 27.4083 180.674 26.35 179.99 25C179.307 23.6333 178.965 22.0583 178.965 20.275C178.965 18.4917 179.307 16.9167 179.99 15.55C180.674 14.1833 181.649 13.1167 182.915 12.35C184.199 11.5833 185.724 11.2 187.49 11.2C189.624 11.2 191.374 11.7333 192.74 12.8C194.107 13.8667 194.957 15.3667 195.29 17.3H191.44C191.24 16.3667 190.799 15.65 190.115 15.15C189.449 14.6333 188.565 14.375 187.465 14.375C186.415 14.375 185.524 14.6167 184.79 15.1C184.057 15.5667 183.49 16.2417 183.09 17.125C182.707 18.0083 182.515 19.0583 182.515 20.275C182.515 21.4917 182.707 22.5417 183.09 23.425C183.49 24.2917 184.057 24.9667 184.79 25.45C185.524 25.9167 186.415 26.15 187.465 26.15C188.565 26.15 189.449 25.9167 190.115 25.45C190.782 24.9667 191.224 24.3 191.44 23.45H195.29C194.957 25.2667 194.107 26.7 192.74 27.75C191.374 28.7833 189.624 29.3 187.49 29.3ZM204.733 29V11.5H211.408C212.808 11.5 213.975 11.7417 214.908 12.225C215.842 12.6917 216.533 13.3417 216.983 14.175C217.45 14.9917 217.683 15.9167 217.683 16.95C217.683 17.9167 217.458 18.8083 217.008 19.625C216.575 20.4417 215.892 21.1083 214.958 21.625C214.042 22.125 212.858 22.375 211.408 22.375H208.233V29H204.733ZM208.233 19.55H211.183C212.217 19.55 212.958 19.3167 213.408 18.85C213.875 18.3833 214.108 17.75 214.108 16.95C214.108 16.1333 213.875 15.5 213.408 15.05C212.958 14.5833 212.217 14.35 211.183 14.35H208.233V19.55ZM228.816 29.3C227.083 29.3 225.558 28.9167 224.241 28.15C222.924 27.3833 221.891 26.325 221.141 24.975C220.391 23.6083 220.016 22.0333 220.016 20.25C220.016 18.4667 220.391 16.9 221.141 15.55C221.891 14.1833 222.924 13.1167 224.241 12.35C225.558 11.5833 227.083 11.2 228.816 11.2C230.549 11.2 232.074 11.5833 233.391 12.35C234.724 13.1167 235.758 14.1833 236.491 15.55C237.241 16.9 237.616 18.4667 237.616 20.25C237.616 22.0333 237.241 23.6083 236.491 24.975C235.758 26.325 234.724 27.3833 233.391 28.15C232.074 28.9167 230.549 29.3 228.816 29.3ZM228.816 26.15C229.883 26.15 230.808 25.9083 231.591 25.425C232.374 24.9417 232.974 24.2667 233.391 23.4C233.824 22.5167 234.041 21.4667 234.041 20.25C234.041 19.0333 233.824 17.9917 233.391 17.125C232.974 16.2417 232.374 15.5583 231.591 15.075C230.808 14.5917 229.883 14.35 228.816 14.35C227.749 14.35 226.824 14.5917 226.041 15.075C225.258 15.5583 224.649 16.2417 224.216 17.125C223.783 17.9917 223.566 19.0333 223.566 20.25C223.566 21.4667 223.783 22.5167 224.216 23.4C224.649 24.2667 225.258 24.9417 226.041 25.425C226.824 25.9083 227.749 26.15 228.816 26.15ZM240.841 29V11.5H247.466C248.882 11.5 250.049 11.7417 250.966 12.225C251.899 12.7083 252.591 13.3583 253.041 14.175C253.491 14.975 253.716 15.875 253.716 16.875C253.716 17.8083 253.491 18.6833 253.041 19.5C252.607 20.3167 251.924 20.975 250.991 21.475C250.074 21.9583 248.891 22.2 247.441 22.2H244.341V29H240.841ZM249.891 29L246.316 21.325H250.091L253.891 29H249.891ZM244.341 19.65H247.266C248.249 19.65 248.974 19.4083 249.441 18.925C249.907 18.4417 250.141 17.8 250.141 17C250.141 16.2167 249.907 15.5917 249.441 15.125C248.991 14.6583 248.257 14.425 247.241 14.425H244.341V19.65ZM261.139 29V14.325H256.014V11.5H269.714V14.325H264.614V29H261.139ZM269.5 29L275.825 11.5H279.925L286.25 29H282.525L277.85 15.35L273.175 29H269.5ZM272.3 25.025L273.225 22.275H282.225L283.125 25.025H272.3ZM288.874 29V11.5H292.374V26.275H299.999V29H288.874Z" fill="#38413F"/>
<path d="M96.442 51L91.108 45.568C90.6787 45.1387 90.3707 44.7467 90.184 44.392C89.9973 44.0373 89.904 43.6453 89.904 43.216C89.904 42.796 90.0067 42.4227 90.212 42.096C90.4173 41.76 90.7067 41.4987 91.08 41.312C91.4627 41.1253 91.92 41.032 92.452 41.032C92.9653 41.032 93.4087 41.13 93.782 41.326C94.1647 41.5127 94.4587 41.774 94.664 42.11C94.8693 42.446 94.9673 42.8333 94.958 43.272H93.796C93.796 42.852 93.6607 42.5347 93.39 42.32C93.1287 42.096 92.816 41.984 92.452 41.984C92.0227 41.984 91.682 42.1007 91.43 42.334C91.1873 42.558 91.066 42.8473 91.066 43.202C91.066 43.5007 91.15 43.7947 91.318 44.084C91.486 44.3733 91.7287 44.6907 92.046 45.036L97.926 51H96.442ZM91.906 51.168C91.2433 51.168 90.66 51.0467 90.156 50.804C89.6613 50.552 89.274 50.202 88.994 49.754C88.7233 49.306 88.588 48.7787 88.588 48.172C88.588 47.7053 88.6813 47.276 88.868 46.884C89.064 46.4827 89.3533 46.1327 89.736 45.834C90.1187 45.526 90.5853 45.2787 91.136 45.092L91.584 44.938L92.2 45.708L91.668 45.89C91.024 46.1233 90.5433 46.4267 90.226 46.8C89.918 47.1733 89.764 47.6167 89.764 48.13C89.764 48.5127 89.8527 48.858 90.03 49.166C90.2167 49.474 90.4733 49.7167 90.8 49.894C91.1267 50.0713 91.5047 50.16 91.934 50.16C92.4847 50.16 92.97 50.0433 93.39 49.81C93.8193 49.5673 94.2533 49.1753 94.692 48.634C94.888 48.3913 95.0887 48.1113 95.294 47.794C95.4993 47.4673 95.7187 47.1033 95.952 46.702L96.386 45.932H97.632L97.002 47.052C96.75 47.5187 96.498 47.9433 96.246 48.326C96.0033 48.7087 95.756 49.0493 95.504 49.348C94.972 49.992 94.4167 50.4587 93.838 50.748C93.2687 51.028 92.6247 51.168 91.906 51.168ZM109.658 51.168C108.715 51.168 107.885 50.958 107.166 50.538C106.457 50.1087 105.901 49.516 105.5 48.76C105.108 47.9947 104.912 47.108 104.912 46.1C104.912 45.1013 105.108 44.224 105.5 43.468C105.901 42.7027 106.457 42.1053 107.166 41.676C107.885 41.2467 108.715 41.032 109.658 41.032C110.619 41.032 111.455 41.2467 112.164 41.676C112.873 42.1053 113.424 42.7027 113.816 43.468C114.217 44.224 114.418 45.1013 114.418 46.1C114.418 47.108 114.217 47.9947 113.816 48.76C113.424 49.516 112.873 50.1087 112.164 50.538C111.455 50.958 110.619 51.168 109.658 51.168ZM109.658 50.132C110.367 50.132 110.988 49.9733 111.52 49.656C112.061 49.3293 112.477 48.8673 112.766 48.27C113.065 47.6633 113.214 46.94 113.214 46.1C113.214 45.26 113.065 44.5413 112.766 43.944C112.477 43.3373 112.061 42.8753 111.52 42.558C110.988 42.2407 110.367 42.082 109.658 42.082C108.958 42.082 108.337 42.2407 107.796 42.558C107.264 42.8753 106.849 43.3373 106.55 43.944C106.261 44.5413 106.116 45.26 106.116 46.1C106.116 46.94 106.261 47.6633 106.55 48.27C106.849 48.8673 107.264 49.3293 107.796 49.656C108.337 49.9733 108.958 50.132 109.658 50.132ZM117.252 51V41.2H120.444C121.218 41.2 121.853 41.3307 122.348 41.592C122.852 41.844 123.22 42.1847 123.454 42.614C123.696 43.0433 123.818 43.5333 123.818 44.084C123.818 44.616 123.696 45.1013 123.454 45.54C123.22 45.9693 122.856 46.3147 122.362 46.576C121.867 46.8373 121.228 46.968 120.444 46.968H118.428V51H117.252ZM118.428 45.974H120.43C121.214 45.974 121.774 45.8013 122.11 45.456C122.446 45.1107 122.614 44.6533 122.614 44.084C122.614 43.4773 122.446 43.0107 122.11 42.684C121.774 42.348 121.214 42.18 120.43 42.18H118.428V45.974ZM126.493 51V41.2H132.555V42.166H127.669V45.582H132.135V46.534H127.669V50.034H132.555V51H126.493ZM135.529 51V41.2H136.705L141.927 49.054V41.2H143.103V51H141.927L136.705 43.146V51H135.529ZM146.329 51V41.2H149.213C150.361 41.2 151.303 41.4007 152.041 41.802C152.787 42.194 153.338 42.7587 153.693 43.496C154.057 44.224 154.239 45.1013 154.239 46.128C154.239 47.136 154.057 48.004 153.693 48.732C153.338 49.46 152.787 50.02 152.041 50.412C151.303 50.804 150.361 51 149.213 51H146.329ZM147.505 50.02H149.185C150.137 50.02 150.893 49.866 151.453 49.558C152.013 49.2407 152.414 48.7927 152.657 48.214C152.899 47.626 153.021 46.9307 153.021 46.128C153.021 45.3067 152.899 44.602 152.657 44.014C152.414 43.426 152.013 42.9733 151.453 42.656C150.893 42.3387 150.137 42.18 149.185 42.18H147.505V50.02ZM157.087 51V41.2H160.251C161.017 41.2 161.642 41.3307 162.127 41.592C162.613 41.844 162.972 42.1847 163.205 42.614C163.439 43.0433 163.555 43.5287 163.555 44.07C163.555 44.5927 163.434 45.0733 163.191 45.512C162.958 45.9507 162.594 46.3007 162.099 46.562C161.605 46.8233 160.97 46.954 160.195 46.954H158.263V51H157.087ZM162.267 51L160.111 46.618H161.427L163.653 51H162.267ZM158.263 46.03H160.167C160.914 46.03 161.46 45.848 161.805 45.484C162.16 45.12 162.337 44.6533 162.337 44.084C162.337 43.5053 162.165 43.048 161.819 42.712C161.483 42.3667 160.928 42.194 160.153 42.194H158.263V46.03ZM165.89 51L169.502 41.2H170.748L174.346 51H173.1L170.118 42.67L167.122 51H165.89ZM167.542 48.48L167.878 47.528H172.316L172.652 48.48H167.542ZM177.968 51L175.28 41.2H176.54L178.654 49.6L181.048 41.2H182.364L184.702 49.628L186.844 41.2H188.104L185.36 51H184.016L181.678 42.894L179.284 51H177.968ZM190.621 51V41.2H196.683V42.166H191.797V45.582H196.263V46.534H191.797V50.034H196.683V51H190.621ZM199.657 51V41.2H202.821C203.586 41.2 204.212 41.3307 204.697 41.592C205.182 41.844 205.542 42.1847 205.775 42.614C206.008 43.0433 206.125 43.5287 206.125 44.07C206.125 44.5927 206.004 45.0733 205.761 45.512C205.528 45.9507 205.164 46.3007 204.669 46.562C204.174 46.8233 203.54 46.954 202.765 46.954H200.833V51H199.657ZM204.837 51L202.681 46.618H203.997L206.223 51H204.837ZM200.833 46.03H202.737C203.484 46.03 204.03 45.848 204.375 45.484C204.73 45.12 204.907 44.6533 204.907 44.084C204.907 43.5053 204.734 43.048 204.389 42.712C204.053 42.3667 203.498 42.194 202.723 42.194H200.833V46.03ZM213.928 51V41.2H215.3L218.758 48.046L222.23 41.2H223.616V51H222.44V43.3L219.206 49.628H218.324L215.104 43.328V51H213.928ZM226.82 51V41.2H232.882V42.166H227.996V45.582H232.462V46.534H227.996V50.034H232.882V51H226.82ZM238.152 51V42.166H235.226V41.2H242.254V42.166H239.328V51H238.152ZM243.086 51L246.698 41.2H247.944L251.542 51H250.296L247.314 42.67L244.318 51H243.086ZM244.738 48.48L245.074 47.528H249.512L249.848 48.48H244.738ZM254.133 51V41.2H257.017C258.165 41.2 259.108 41.4007 259.845 41.802C260.592 42.194 261.142 42.7587 261.497 43.496C261.861 44.224 262.043 45.1013 262.043 46.128C262.043 47.136 261.861 48.004 261.497 48.732C261.142 49.46 260.592 50.02 259.845 50.412C259.108 50.804 258.165 51 257.017 51H254.133ZM255.309 50.02H256.989C257.941 50.02 258.697 49.866 259.257 49.558C259.817 49.2407 260.218 48.7927 260.461 48.214C260.704 47.626 260.825 46.9307 260.825 46.128C260.825 45.3067 260.704 44.602 260.461 44.014C260.218 43.426 259.817 42.9733 259.257 42.656C258.697 42.3387 257.941 42.18 256.989 42.18H255.309V50.02ZM263.564 51L267.176 41.2H268.422L272.02 51H270.774L267.792 42.67L264.796 51H263.564ZM265.216 48.48L265.552 47.528H269.99L270.326 48.48H265.216ZM275.8 51V42.166H272.874V41.2H279.902V42.166H276.976V51H275.8ZM280.734 51L284.346 41.2H285.592L289.19 51H287.944L284.962 42.67L281.966 51H280.734ZM282.386 48.48L282.722 47.528H287.16L287.496 48.48H282.386ZM300.876 51.168C299.924 51.168 299.098 50.958 298.398 50.538C297.707 50.1087 297.175 49.516 296.802 48.76C296.428 47.9947 296.242 47.108 296.242 46.1C296.242 45.092 296.428 44.21 296.802 43.454C297.175 42.6887 297.707 42.096 298.398 41.676C299.098 41.2467 299.924 41.032 300.876 41.032C301.996 41.032 302.906 41.298 303.606 41.83C304.306 42.362 304.754 43.1133 304.95 44.084H303.648C303.498 43.4773 303.195 42.992 302.738 42.628C302.28 42.2547 301.66 42.068 300.876 42.068C300.176 42.068 299.569 42.2313 299.056 42.558C298.542 42.8753 298.146 43.3373 297.866 43.944C297.586 44.5413 297.446 45.26 297.446 46.1C297.446 46.94 297.586 47.6633 297.866 48.27C298.146 48.8673 298.542 49.3293 299.056 49.656C299.569 49.9733 300.176 50.132 300.876 50.132C301.66 50.132 302.28 49.9547 302.738 49.6C303.195 49.236 303.498 48.7553 303.648 48.158H304.95C304.754 49.1007 304.306 49.838 303.606 50.37C302.906 50.902 301.996 51.168 300.876 51.168ZM306.912 51L310.524 41.2H311.77L315.368 51H314.122L311.14 42.67L308.144 51H306.912ZM308.564 48.48L308.9 47.528H313.338L313.674 48.48H308.564ZM319.148 51V42.166H316.222V41.2H323.25V42.166H320.324V51H319.148ZM324.082 51L327.694 41.2H328.94L332.538 51H331.292L328.31 42.67L325.314 51H324.082ZM325.734 48.48L326.07 47.528H330.508L330.844 48.48H325.734ZM335.129 51V41.2H336.305V50.062H340.869V51H335.129ZM347.084 51.168C346.141 51.168 345.31 50.958 344.592 50.538C343.882 50.1087 343.327 49.516 342.926 48.76C342.534 47.9947 342.338 47.108 342.338 46.1C342.338 45.1013 342.534 44.224 342.926 43.468C343.327 42.7027 343.882 42.1053 344.592 41.676C345.31 41.2467 346.141 41.032 347.084 41.032C348.045 41.032 348.88 41.2467 349.59 41.676C350.299 42.1053 350.85 42.7027 351.242 43.468C351.643 44.224 351.844 45.1013 351.844 46.1C351.844 47.108 351.643 47.9947 351.242 48.76C350.85 49.516 350.299 50.1087 349.59 50.538C348.88 50.958 348.045 51.168 347.084 51.168ZM347.084 50.132C347.793 50.132 348.414 49.9733 348.946 49.656C349.487 49.3293 349.902 48.8673 350.192 48.27C350.49 47.6633 350.64 46.94 350.64 46.1C350.64 45.26 350.49 44.5413 350.192 43.944C349.902 43.3373 349.487 42.8753 348.946 42.558C348.414 42.2407 347.793 42.082 347.084 42.082C346.384 42.082 345.763 42.2407 345.222 42.558C344.69 42.8753 344.274 43.3373 343.976 43.944C343.686 44.5413 343.542 45.26 343.542 46.1C343.542 46.94 343.686 47.6633 343.976 48.27C344.274 48.8673 344.69 49.3293 345.222 49.656C345.763 49.9733 346.384 50.132 347.084 50.132ZM358.892 51.168C357.977 51.168 357.174 50.958 356.484 50.538C355.793 50.1087 355.256 49.516 354.874 48.76C354.491 48.004 354.3 47.122 354.3 46.114C354.3 45.1153 354.491 44.2333 354.874 43.468C355.266 42.7027 355.816 42.1053 356.526 41.676C357.244 41.2467 358.089 41.032 359.06 41.032C360.161 41.032 361.08 41.298 361.818 41.83C362.555 42.3527 363.026 43.0853 363.232 44.028H361.874C361.743 43.44 361.435 42.9733 360.95 42.628C360.464 42.2827 359.834 42.11 359.06 42.11C358.341 42.11 357.711 42.2733 357.17 42.6C356.638 42.9173 356.227 43.3747 355.938 43.972C355.648 44.5693 355.504 45.2833 355.504 46.114C355.504 46.9447 355.648 47.6633 355.938 48.27C356.227 48.8673 356.628 49.3247 357.142 49.642C357.664 49.9593 358.262 50.118 358.934 50.118C359.979 50.118 360.768 49.81 361.3 49.194C361.832 48.578 362.135 47.7427 362.21 46.688H359.382V45.764H363.414V51H362.336L362.238 49.39C362.004 49.7727 361.734 50.0993 361.426 50.37C361.127 50.6313 360.772 50.832 360.362 50.972C359.951 51.1027 359.461 51.168 358.892 51.168Z" fill="#38413F"/>
<defs>
<linearGradient id="paint0_linear_358_323" x1="37.5" y1="4" x2="37.5" y2="28" gradientUnits="userSpaceOnUse">
<stop offset="0.100962" stop-color="#FEEDA7" stop-opacity="0"/>
<stop offset="1" stop-color="#F0C20A"/>
</linearGradient>
<linearGradient id="paint1_linear_358_323" x1="22.8421" y1="3.2076" x2="22.8421" y2="28" gradientUnits="userSpaceOnUse">
<stop stop-color="#FEEDA7" stop-opacity="0"/>
<stop offset="1" stop-color="#F0C20A"/>
</linearGradient>
<linearGradient id="paint2_linear_358_323" x1="53.1579" y1="3.2076" x2="53.1579" y2="28" gradientUnits="userSpaceOnUse">
<stop stop-color="#FEEDA7" stop-opacity="0"/>
<stop offset="1" stop-color="#F0C20A"/>
</linearGradient>
<linearGradient id="paint3_linear_358_323" x1="32.9591" y1="1" x2="32.9591" y2="28" gradientUnits="userSpaceOnUse">
<stop stop-color="#FEEDA7" stop-opacity="0"/>
<stop offset="1" stop-color="#F0C20A"/>
</linearGradient>
<linearGradient id="paint4_linear_358_323" x1="26.3743" y1="0.247875" x2="26.3743" y2="29.8501" gradientUnits="userSpaceOnUse">
<stop stop-color="#FEEDA7" stop-opacity="0"/>
<stop offset="1" stop-color="#F0C20A"/>
</linearGradient>
<linearGradient id="paint5_linear_358_323" x1="44.4142" y1="0.247875" x2="44.4142" y2="29.8501" gradientUnits="userSpaceOnUse">
<stop stop-color="#FEEDA7" stop-opacity="0"/>
<stop offset="1" stop-color="#F0C20A"/>
</linearGradient>
</defs>
</svg>
