<svg width="319" height="117" viewBox="0 0 319 117" fill="none" xmlns="http://www.w3.org/2000/svg">
<g clip-path="url(#clip0_2621_28526)">
<path d="M15.7693 63.52C6.29932 96.99 25.1593 114.02 25.1593 114.02L40.9293 97.55C23.6693 80.26 15.7693 63.55 15.7693 63.55" fill="#FFC629"/>
<path d="M40.0491 17.4C9.04908 49.49 2.60909 93.45 23.8591 115.46L22.8591 116.66C-8.14091 84.57 -7.27092 32.09 23.7091 0L40.0491 17.4Z" fill="#1A73BA"/>
<path d="M67.7899 63.6001H64.4199V88.3301H67.7899V63.6001ZM95.7899 88.2801V63.6001H92.7099V79.8301C92.6991 80.9819 92.7492 82.1335 92.8599 83.2801H92.7899C92.5999 82.9501 91.6799 81.2801 90.4499 79.5401L79.3199 63.6001H76.0199V88.3301H79.0899V71.0301C79.0899 69.7301 78.9799 68.6201 78.9499 68.2101H79.0199C79.2099 68.5401 80.0199 70.1401 81.0199 71.5101L92.6899 88.3301L95.7899 88.2801ZM116.5 81.9501C116.5 77.2001 112.87 75.5301 109.6 73.9501C107.12 72.8001 105.12 71.7601 105.12 69.3901C105.12 67.2401 106.86 65.9101 109.23 65.9101C111.034 65.8954 112.793 66.4791 114.23 67.5701L115.79 65.1301C113.877 63.7189 111.534 63.0124 109.16 63.1301C105.27 63.1301 101.82 65.4601 101.82 69.5401C101.82 73.4701 104.45 75.1301 107.49 76.6201C110.34 78.0201 113.12 79.1701 113.12 81.9901C113.12 84.0601 111.23 85.9201 108.3 85.9201C106.233 85.9624 104.229 85.2026 102.71 83.8001L101.08 86.1801C103.062 87.8889 105.615 88.7886 108.23 88.7001C113.16 88.7001 116.46 85.9201 116.46 81.9201M138.02 66.3901V63.5701H120.72V66.3901H127.72V88.3301H131.1V66.4201L138.02 66.3901ZM147.62 63.5701H144.25V88.3301H147.62V63.5701ZM171.19 66.3901V63.5701H153.87V66.3901H160.87V88.3301H164.24V66.4201L171.19 66.3901ZM196.19 78.7301V63.6001H193.08V79.0901C193.08 83.0901 191.08 85.8701 186.78 85.8701C182.29 85.8701 180.29 83.5401 180.29 78.6101V63.6101H177V78.9901C177 84.9201 179.92 88.7401 186.74 88.7401C193.23 88.7401 196.23 84.9601 196.23 78.7401M219.5 66.4201V63.6001H202.2V66.4201H209.2V88.3301H212.5V66.4201H219.5ZM238.77 88.3301V85.5101H228.84V76.7001H237.32V73.9201H228.84V66.4701H238.5V63.6501H225.5V88.3301H238.77Z" fill="#1A73BA"/>
<path d="M82.3194 50.43L80.8394 48.06C79.1608 49.4623 77.0255 50.199 74.8394 50.13C68.9494 50.13 66.1294 45.28 66.1294 40.01C66.1294 34.74 69.0594 30.16 74.7594 30.16C76.697 30.1117 78.6017 30.6674 80.2094 31.75L81.8394 29.27C79.7605 27.9247 77.3128 27.2638 74.8394 27.38C67.0894 27.38 62.6094 33.38 62.6094 40.09C62.6094 46.8 66.9494 52.95 74.7594 52.95C77.4882 53.0254 80.1557 52.1328 82.2894 50.43M104.559 52.5L98.7094 44.2C97.9914 43.0242 97.1016 41.9624 96.0694 41.05V40.98C99.8094 40.68 102.739 38.61 102.739 34.49C102.739 30.37 99.6694 27.82 94.3694 27.82H87.3694V52.5H90.7494V41.33H91.1194C92.7094 41.33 93.1194 41.62 95.8194 45.48L100.709 52.48L104.559 52.5ZM99.3694 34.6C99.3694 37.24 97.7794 38.72 94.2594 38.72H90.7394V30.57H94.0294C97.6694 30.57 99.3694 31.97 99.3694 34.57M114.189 27.79H110.819V52.47H114.189V27.79ZM137.759 30.61V27.79H120.499V30.61H127.499V52.47H130.879V30.64L137.759 30.61ZM147.359 27.79H143.989V52.47H147.359V27.79ZM174.499 50.43L173.019 48.06C171.341 49.4623 169.206 50.199 167.019 50.13C161.119 50.13 158.309 45.28 158.309 40.01C158.309 34.74 161.229 30.16 166.939 30.16C168.877 30.1117 170.782 30.6674 172.389 31.75L174.019 29.27C171.94 27.926 169.493 27.2652 167.019 27.38C159.269 27.38 154.789 33.38 154.789 40.09C154.789 46.8 159.119 52.95 166.939 52.95C169.679 53.0335 172.358 52.1403 174.499 50.43ZM183.839 46.68H194.839L196.989 52.5H200.619L191.099 27.82H187.869L178.419 52.5H181.759L183.839 46.68ZM193.769 43.91H184.879L187.809 35.91C188.549 33.91 189.289 31.68 189.289 31.65H189.359C189.359 31.65 190.069 33.83 190.849 35.91L193.769 43.91ZM219.559 52.5V49.72H209.929V27.82H206.599V52.5H219.559ZM251.499 35.09C251.499 30.23 247.719 27.82 242.679 27.82H236.119V52.5H239.499V42.76H242.239C248.059 42.76 251.509 40.01 251.509 35.09M248.099 35.16C248.099 38.35 246.389 40.01 242.279 40.01H239.499V30.57H242.389C246.539 30.57 248.099 32.42 248.099 35.16ZM258.579 46.68H269.579L271.729 52.5H275.359L265.839 27.82H262.599L253.149 52.5H256.499L258.579 46.68ZM268.519 43.91H259.619L262.549 35.91C263.289 33.91 264.029 31.68 264.029 31.65H264.109C264.109 31.65 264.809 33.83 265.589 35.91L268.519 43.91ZM292.859 30.64V27.82H275.559V30.64H282.559V52.5H285.939V30.64H292.859ZM318.989 52.5V27.82H315.609V38.12H302.249V27.82H298.869V52.5H302.249V40.94H315.619V52.5H318.989Z" fill="#1A73BA"/>
</g>
<defs>
<clipPath id="clip0_2621_28526">
<rect width="318.99" height="116.67" fill="white"/>
</clipPath>
</defs>
</svg>
