<svg width="216" height="93" viewBox="0 0 216 93" fill="none" xmlns="http://www.w3.org/2000/svg">
<g clip-path="url(#clip0_2621_28532)">
<path d="M215.5 66.417H61.2227V67.022H215.5V66.417Z" fill="black"/>
<path d="M61 80.4971V72.6321H66.6667V73.2371H61.8333V76.0421H66.2222V76.6471H61.8333V80.3871H61V80.4971Z" fill="black"/>
<path d="M70.4991 80.662C70.1102 80.662 69.7214 80.607 69.3325 80.442C68.9991 80.332 68.6658 80.112 68.388 79.892C68.1102 79.672 67.888 79.342 67.7769 78.957C67.6102 78.572 67.5547 78.132 67.5547 77.637C67.5547 77.197 67.6102 76.812 67.7214 76.482C67.8325 76.097 68.0547 75.822 68.2769 75.547C68.4991 75.272 68.8325 75.052 69.2214 74.887C69.6102 74.722 69.9991 74.667 70.4991 74.667C70.9991 74.667 71.4436 74.722 71.7769 74.887C72.1658 75.052 72.4436 75.272 72.7214 75.492C72.9436 75.767 73.1658 76.042 73.2769 76.427C73.388 76.812 73.4436 77.197 73.4436 77.582C73.4436 78.022 73.388 78.462 73.2214 78.792C73.1102 79.177 72.888 79.452 72.6102 79.727C72.3325 80.002 72.0547 80.167 71.6658 80.332C71.3325 80.552 70.9436 80.662 70.4991 80.662ZM72.6658 77.692C72.6658 77.362 72.6102 77.032 72.5547 76.757C72.4991 76.482 72.3325 76.207 72.1658 75.987C71.9991 75.767 71.7769 75.602 71.4991 75.492C71.2214 75.382 70.888 75.327 70.4991 75.327C70.1102 75.327 69.7769 75.382 69.4991 75.547C69.2214 75.657 68.9991 75.877 68.8325 76.097C68.6658 76.317 68.5547 76.592 68.4436 76.867C68.388 77.142 68.3325 77.472 68.3325 77.747C68.3325 78.077 68.388 78.407 68.4991 78.737C68.6102 79.012 68.7214 79.287 68.888 79.507C69.0547 79.727 69.2769 79.892 69.5547 80.002C69.8325 80.112 70.1102 80.167 70.4991 80.167C70.888 80.167 71.2214 80.112 71.4991 79.947C71.7769 79.837 71.9991 79.617 72.1658 79.397C72.3325 79.177 72.4436 78.902 72.5547 78.627C72.6102 78.297 72.6658 77.967 72.6658 77.692Z" fill="black"/>
<path d="M79.2778 74.832H80V80.497H79.2778V79.727C79.1667 79.837 79.0556 79.947 78.9444 80.057C78.8333 80.167 78.6667 80.277 78.5 80.332C78.3333 80.442 78.1667 80.497 77.9444 80.552C77.7222 80.607 77.5 80.662 77.2222 80.662C76.7778 80.662 76.4444 80.607 76.1667 80.497C75.8889 80.387 75.6667 80.222 75.5 80.057C75.3333 79.892 75.2222 79.672 75.1111 79.397C75.0556 79.122 75 78.847 75 78.572V74.832H75.7222V78.517C75.7222 79.012 75.8333 79.397 76.1111 79.617C76.3889 79.892 76.7778 80.002 77.3333 80.002C77.6111 80.002 77.8889 79.947 78.1667 79.837C78.3889 79.727 78.6111 79.562 78.7778 79.397C78.9444 79.232 79.0556 78.957 79.1667 78.737C79.2778 78.462 79.2778 78.187 79.2778 77.857V74.832Z" fill="black"/>
<path d="M82.7222 80.497H82V74.832H82.7222V75.602C83 75.327 83.3333 75.107 83.6111 74.942C83.9444 74.777 84.2778 74.667 84.7222 74.667C85.1111 74.667 85.5 74.722 85.8333 74.832C86.1667 74.942 86.4444 75.162 86.6667 75.437C86.8333 75.657 86.8889 75.822 86.9444 76.042C87 76.262 87 76.482 87 76.702V80.387H86.2778V76.702C86.2778 76.207 86.1667 75.822 85.8889 75.547C85.6111 75.272 85.2222 75.162 84.6111 75.162C84.3889 75.162 84.1667 75.217 84 75.272C83.8333 75.327 83.6667 75.437 83.5 75.492C83.3333 75.547 83.2222 75.712 83.1111 75.822C83 75.932 82.9444 76.097 82.8889 76.262C82.8333 76.427 82.7778 76.592 82.7778 76.757C82.7778 76.922 82.7778 77.087 82.7778 77.307V80.497H82.7222Z" fill="black"/>
<path d="M93.8329 72.6321H94.5551V80.4971H93.8329V79.5071C93.7218 79.6721 93.6107 79.8371 93.444 80.0021C93.2773 80.1671 93.1107 80.2771 92.8885 80.3321C92.6662 80.4421 92.4996 80.4971 92.2773 80.5521C92.0551 80.6071 91.8329 80.6071 91.6662 80.6071C91.1662 80.6071 90.7218 80.5521 90.3329 80.3871C89.9996 80.2221 89.6662 80.0021 89.444 79.7821C89.2218 79.5071 89.0551 79.2321 88.944 78.8471C88.8329 78.4621 88.7773 78.0771 88.7773 77.6921C88.7773 77.3071 88.8329 76.9221 88.944 76.5371C89.0551 76.1521 89.2218 75.8771 89.444 75.6021C89.6662 75.3271 89.944 75.1071 90.3329 74.9421C90.6662 74.7771 91.1107 74.7221 91.6107 74.7221C92.0551 74.7221 92.4996 74.8321 92.8885 74.9971C93.2773 75.1621 93.6107 75.4371 93.8885 75.7671V72.6321H93.8329ZM93.8329 77.6371C93.8329 77.3071 93.7773 77.0321 93.6662 76.7021C93.5551 76.4271 93.444 76.1521 93.2218 75.9321C93.0551 75.7121 92.8329 75.5471 92.5551 75.4371C92.2773 75.3271 91.9996 75.2721 91.6662 75.2721C91.2773 75.2721 90.944 75.3271 90.6662 75.4921C90.3885 75.6021 90.1662 75.8221 89.9996 76.0421C89.8329 76.2621 89.6662 76.5371 89.6107 76.8671C89.5551 77.1971 89.4996 77.5271 89.4996 77.8571C89.4996 78.1871 89.5551 78.5171 89.6662 78.7921C89.7773 79.0671 89.944 79.2871 90.1107 79.5071C90.3329 79.6721 90.5551 79.8371 90.7773 79.9471C91.0551 80.0571 91.3329 80.1121 91.6107 80.1121C91.944 80.1121 92.2773 80.0571 92.5551 79.9471C92.8329 79.8371 93.0551 79.6721 93.2218 79.4521C93.3885 79.2321 93.5551 79.0121 93.6107 78.6821C93.7773 78.2971 93.8329 78.0221 93.8329 77.6371Z" fill="black"/>
<path d="M99.4998 77.197C99.6109 77.197 99.7776 77.142 99.9998 77.142C100.166 77.087 100.333 77.087 100.444 77.032C100.555 76.977 100.666 76.922 100.666 76.757C100.722 76.647 100.722 76.537 100.722 76.427C100.722 76.097 100.611 75.822 100.389 75.602C100.166 75.382 99.722 75.272 99.1664 75.272C98.8887 75.272 98.6664 75.272 98.4442 75.327C98.222 75.382 98.0553 75.437 97.8887 75.547C97.722 75.657 97.6109 75.767 97.4998 75.932C97.3887 76.097 97.3331 76.317 97.2776 76.537H96.5553C96.5553 76.207 96.6665 75.932 96.8331 75.657C96.9998 75.437 97.1665 75.217 97.3887 75.107C97.6109 74.942 97.8887 74.832 98.222 74.777C98.5553 74.722 98.8331 74.667 99.222 74.667C99.5553 74.667 99.8331 74.722 100.111 74.777C100.389 74.832 100.611 74.942 100.833 75.052C101.055 75.162 101.222 75.382 101.333 75.602C101.444 75.822 101.5 76.097 101.5 76.427V79.507C101.5 79.782 101.555 79.947 101.666 80.002C101.778 80.057 102 80.057 102.278 79.947V80.442C102.222 80.442 102.111 80.497 102 80.497C101.889 80.552 101.778 80.552 101.666 80.552C101.555 80.552 101.444 80.552 101.333 80.497C101.222 80.497 101.111 80.442 101.055 80.387C101 80.332 100.944 80.277 100.889 80.167C100.833 80.112 100.833 80.002 100.778 79.892C100.778 79.782 100.778 79.727 100.778 79.617C100.444 79.947 100.111 80.167 99.722 80.332C99.3331 80.497 98.8887 80.552 98.4442 80.552C98.1664 80.552 97.8887 80.497 97.6665 80.442C97.3887 80.387 97.1664 80.277 96.9998 80.112C96.7776 79.947 96.6665 79.782 96.5553 79.617C96.4442 79.397 96.3887 79.177 96.3887 78.902C96.3887 77.967 97.1109 77.362 98.6109 77.197H99.4998ZM100.778 77.527C100.444 77.637 100.166 77.692 99.8331 77.747C99.4998 77.802 99.222 77.802 98.8887 77.857C98.3331 77.912 97.8887 78.022 97.5553 78.187C97.222 78.352 97.1109 78.682 97.1109 79.067C97.1109 79.232 97.1664 79.397 97.222 79.507C97.2776 79.617 97.3887 79.727 97.5553 79.837C97.6664 79.947 97.8331 80.002 97.9998 80.002C98.1664 80.057 98.3331 80.057 98.4998 80.057C98.7776 80.057 99.0553 80.002 99.3331 79.947C99.6109 79.892 99.8331 79.782 100.055 79.672C100.278 79.562 100.444 79.342 100.555 79.177C100.666 78.957 100.778 78.737 100.778 78.462V77.527Z" fill="black"/>
<path d="M105.833 80.497C105.722 80.497 105.611 80.552 105.5 80.552C105.333 80.607 105.167 80.607 105 80.607C104.611 80.607 104.333 80.497 104.167 80.387C104 80.222 103.889 79.947 103.889 79.507V75.382H103V74.832H103.889V73.292H104.611V74.832H105.778V75.382H104.611V79.232C104.611 79.342 104.611 79.507 104.611 79.617C104.611 79.727 104.667 79.782 104.667 79.892C104.722 79.947 104.778 80.002 104.833 80.057C104.944 80.112 105.056 80.112 105.167 80.112C105.278 80.112 105.389 80.112 105.444 80.112C105.556 80.112 105.667 80.057 105.722 80.057V80.497H105.833Z" fill="black"/>
<path d="M107.277 73.6221V72.6321H108.111V73.6221H107.277ZM107.277 80.4971V74.8321H108V80.4971H107.277Z" fill="black"/>
<path d="M112.61 80.662C112.222 80.662 111.833 80.607 111.444 80.442C111.11 80.332 110.777 80.112 110.499 79.892C110.222 79.672 109.999 79.342 109.888 78.957C109.722 78.572 109.666 78.132 109.666 77.637C109.666 77.197 109.722 76.812 109.833 76.482C109.944 76.097 110.166 75.822 110.388 75.547C110.61 75.272 110.944 75.052 111.333 74.887C111.722 74.722 112.11 74.667 112.61 74.667C113.11 74.667 113.555 74.722 113.888 74.887C114.277 75.052 114.555 75.272 114.833 75.492C115.055 75.767 115.277 76.042 115.388 76.427C115.499 76.812 115.555 77.197 115.555 77.582C115.555 78.022 115.499 78.462 115.333 78.792C115.222 79.177 114.999 79.452 114.722 79.727C114.444 80.002 114.166 80.167 113.777 80.332C113.444 80.552 113.055 80.662 112.61 80.662ZM114.777 77.692C114.777 77.362 114.722 77.032 114.666 76.757C114.61 76.482 114.444 76.207 114.277 75.987C114.11 75.767 113.888 75.602 113.61 75.492C113.333 75.382 112.999 75.327 112.61 75.327C112.222 75.327 111.888 75.382 111.61 75.547C111.333 75.657 111.11 75.877 110.944 76.097C110.777 76.317 110.666 76.592 110.555 76.867C110.499 77.142 110.444 77.472 110.444 77.747C110.444 78.077 110.499 78.407 110.61 78.737C110.722 79.012 110.833 79.287 110.999 79.507C111.166 79.727 111.388 79.892 111.666 80.002C111.944 80.112 112.222 80.167 112.61 80.167C112.999 80.167 113.333 80.112 113.61 79.947C113.888 79.837 114.11 79.617 114.277 79.397C114.444 79.177 114.555 78.902 114.666 78.627C114.722 78.297 114.777 77.967 114.777 77.692Z" fill="black"/>
<path d="M117.777 80.497H117.055V74.832H117.777V75.602C118.055 75.327 118.388 75.107 118.666 74.942C118.999 74.777 119.332 74.667 119.777 74.667C120.166 74.667 120.555 74.722 120.888 74.832C121.221 74.942 121.499 75.162 121.721 75.437C121.888 75.657 121.944 75.822 121.999 76.042C122.055 76.262 122.055 76.482 122.055 76.702V80.387H121.332V76.702C121.332 76.207 121.221 75.822 120.944 75.547C120.666 75.272 120.277 75.162 119.666 75.162C119.444 75.162 119.221 75.217 119.055 75.272C118.888 75.327 118.721 75.437 118.555 75.492C118.388 75.602 118.277 75.712 118.166 75.822C118.055 75.932 117.999 76.097 117.944 76.262C117.888 76.427 117.832 76.592 117.832 76.757C117.832 76.922 117.832 77.087 117.832 77.307V80.497H117.777Z" fill="black"/>
<path d="M127 75.382V74.832H127.944V73.952C127.944 73.512 128.056 73.127 128.222 72.907C128.444 72.632 128.778 72.522 129.278 72.522C129.389 72.522 129.5 72.522 129.611 72.522C129.722 72.522 129.833 72.522 129.889 72.577V73.182C129.722 73.127 129.556 73.127 129.444 73.127C129.278 73.127 129.111 73.182 129 73.237C128.889 73.292 128.833 73.402 128.778 73.457C128.722 73.567 128.722 73.677 128.667 73.787C128.667 73.897 128.667 74.062 128.667 74.172V74.887H129.889V75.437H128.667V80.552H127.944V75.437H127V75.382Z" fill="black"/>
<path d="M133.722 80.662C133.333 80.662 132.944 80.607 132.555 80.442C132.222 80.332 131.888 80.112 131.611 79.892C131.333 79.672 131.111 79.342 131 78.957C130.833 78.572 130.777 78.132 130.777 77.637C130.777 77.197 130.833 76.812 130.944 76.482C131.055 76.097 131.277 75.822 131.5 75.547C131.722 75.272 132.055 75.052 132.444 74.887C132.833 74.722 133.222 74.667 133.722 74.667C134.222 74.667 134.666 74.722 135 74.887C135.388 75.052 135.666 75.272 135.944 75.492C136.166 75.767 136.388 76.042 136.5 76.427C136.611 76.812 136.666 77.197 136.666 77.582C136.666 78.022 136.611 78.462 136.444 78.792C136.333 79.177 136.111 79.452 135.833 79.727C135.555 80.002 135.277 80.167 134.888 80.332C134.611 80.552 134.166 80.662 133.722 80.662ZM135.888 77.692C135.888 77.362 135.833 77.032 135.777 76.757C135.722 76.482 135.555 76.207 135.388 75.987C135.222 75.767 135 75.602 134.722 75.492C134.444 75.382 134.111 75.327 133.722 75.327C133.333 75.327 133 75.382 132.722 75.547C132.444 75.657 132.222 75.877 132.055 76.097C131.888 76.317 131.777 76.592 131.666 76.867C131.611 77.142 131.555 77.472 131.555 77.747C131.555 78.077 131.611 78.407 131.722 78.737C131.833 79.012 131.944 79.287 132.111 79.507C132.277 79.727 132.5 79.892 132.777 80.002C133.055 80.112 133.333 80.167 133.722 80.167C134.111 80.167 134.444 80.112 134.722 79.947C135 79.837 135.222 79.617 135.388 79.397C135.555 79.177 135.666 78.902 135.777 78.627C135.833 78.297 135.888 77.967 135.888 77.692Z" fill="black"/>
<path d="M139 80.497H138.277V74.832H139V75.877C139.222 75.437 139.444 75.107 139.777 74.942C140.111 74.777 140.5 74.667 141.055 74.667V75.382C140.666 75.382 140.277 75.437 140.055 75.547C139.777 75.657 139.555 75.822 139.388 76.042C139.222 76.262 139.111 76.482 139.055 76.812C139 77.087 138.944 77.417 138.944 77.692V80.497H139Z" fill="black"/>
<path d="M148.279 80.497C148.168 80.497 148.056 80.552 147.945 80.552C147.779 80.607 147.612 80.607 147.445 80.607C147.056 80.607 146.779 80.497 146.612 80.387C146.445 80.222 146.334 79.947 146.334 79.507V75.382H145.445V74.832H146.334V73.292H147.056V74.832H148.223V75.382H147.056V79.232C147.056 79.342 147.056 79.507 147.056 79.617C147.056 79.727 147.112 79.782 147.112 79.892C147.168 79.947 147.223 80.002 147.279 80.057C147.39 80.112 147.501 80.112 147.612 80.112C147.723 80.112 147.834 80.112 147.89 80.112C148.001 80.112 148.112 80.057 148.168 80.057V80.497H148.279Z" fill="black"/>
<path d="M149.666 80.4971V72.6321H150.388V75.6021C150.666 75.3271 150.999 75.1071 151.277 74.9421C151.61 74.7771 151.944 74.6671 152.388 74.6671C152.777 74.6671 153.166 74.7221 153.499 74.8321C153.833 74.9421 154.11 75.1621 154.333 75.4371C154.499 75.6571 154.555 75.8221 154.61 76.0421C154.61 76.2621 154.666 76.4821 154.666 76.7021V80.3871H153.944V76.7021C153.944 76.2071 153.833 75.8221 153.555 75.5471C153.277 75.2721 152.888 75.1621 152.277 75.1621C152.055 75.1621 151.833 75.2171 151.666 75.2721C151.499 75.3271 151.333 75.4371 151.166 75.4921C150.999 75.6021 150.888 75.7121 150.777 75.8221C150.666 75.9321 150.61 76.0971 150.555 76.2621C150.499 76.4271 150.444 76.5921 150.444 76.7571C150.444 76.9221 150.444 77.0871 150.444 77.3071V80.3321H149.666V80.4971Z" fill="black"/>
<path d="M157.055 77.802C157.055 78.132 157.111 78.407 157.166 78.682C157.277 78.957 157.388 79.177 157.555 79.397C157.722 79.617 157.944 79.782 158.222 79.892C158.5 80.002 158.777 80.057 159.166 80.057C159.666 80.057 160.055 79.947 160.388 79.727C160.722 79.507 160.944 79.177 161.055 78.792H161.888C161.777 79.067 161.666 79.287 161.555 79.562C161.388 79.782 161.222 80.002 161 80.167C160.777 80.332 160.5 80.497 160.222 80.552C159.944 80.662 159.555 80.717 159.166 80.717C158.666 80.717 158.222 80.662 157.833 80.497C157.444 80.332 157.166 80.112 156.944 79.892C156.722 79.617 156.555 79.342 156.444 78.957C156.333 78.572 156.277 78.187 156.277 77.802C156.277 77.362 156.333 76.977 156.5 76.647C156.611 76.262 156.833 75.987 157.055 75.712C157.277 75.437 157.611 75.217 157.944 75.052C158.277 74.887 158.722 74.832 159.166 74.832C160.055 74.832 160.722 75.107 161.222 75.657C161.722 76.207 161.944 76.977 161.944 77.967H157.055V77.802ZM161.222 77.307C161.222 77.032 161.166 76.757 161.111 76.537C161 76.317 160.888 76.097 160.722 75.932C160.555 75.767 160.333 75.602 160.111 75.492C159.833 75.382 159.555 75.327 159.222 75.327C158.888 75.327 158.611 75.382 158.333 75.492C158.111 75.602 157.888 75.767 157.722 75.932C157.555 76.097 157.388 76.317 157.277 76.537C157.166 76.757 157.111 77.032 157.055 77.307H161.222Z" fill="black"/>
<path d="M61.9447 85.6671V92.4871H61.1113V84.6221H62.0558L67.1669 91.4971V84.6221H68.0002V92.4871H67.0558L61.9447 85.6671Z" fill="black"/>
<path d="M72.9451 89.187C73.0562 89.187 73.2229 89.132 73.4451 89.132C73.6118 89.077 73.7784 89.077 73.8895 89.022C74.0007 88.967 74.1118 88.912 74.1118 88.747C74.1673 88.637 74.1673 88.527 74.1673 88.417C74.1673 88.087 74.0562 87.812 73.834 87.592C73.6118 87.372 73.1673 87.262 72.6118 87.262C72.334 87.262 72.1118 87.262 71.8895 87.317C71.6673 87.372 71.5006 87.427 71.334 87.537C71.1673 87.647 71.0562 87.757 70.9451 87.922C70.834 88.087 70.7784 88.307 70.7229 88.527H70.0007C70.0007 88.197 70.1118 87.922 70.2784 87.647C70.4451 87.427 70.6118 87.207 70.834 87.097C71.0562 86.932 71.334 86.822 71.6673 86.767C72.0007 86.712 72.2784 86.657 72.6673 86.657C73.0007 86.657 73.2784 86.712 73.5562 86.767C73.834 86.822 74.0562 86.932 74.2784 87.042C74.5007 87.152 74.6673 87.372 74.7784 87.592C74.8895 87.812 74.9451 88.087 74.9451 88.417V91.497C74.9451 91.772 75.0007 91.937 75.1118 91.992C75.2229 92.047 75.4451 92.047 75.7229 91.937V92.432C75.6673 92.432 75.5562 92.487 75.4451 92.487C75.334 92.542 75.2229 92.542 75.1118 92.542C75.0007 92.542 74.8895 92.542 74.7784 92.487C74.6673 92.487 74.5562 92.432 74.5006 92.377C74.4451 92.322 74.3895 92.267 74.334 92.157C74.2784 92.102 74.2784 91.992 74.2229 91.882C74.2229 91.772 74.2229 91.717 74.2229 91.607C73.8895 91.937 73.5562 92.157 73.1673 92.322C72.7784 92.487 72.334 92.542 71.8895 92.542C71.6118 92.542 71.334 92.487 71.1118 92.432C70.834 92.377 70.6118 92.267 70.4451 92.102C70.2229 91.937 70.1118 91.772 70.0007 91.607C69.8895 91.387 69.834 91.167 69.834 90.892C69.834 89.957 70.5562 89.352 72.0562 89.187H72.9451ZM74.1673 89.517C73.834 89.627 73.5562 89.682 73.2229 89.737C72.8895 89.792 72.6118 89.792 72.2784 89.847C71.7229 89.902 71.2784 90.012 70.9451 90.177C70.6118 90.342 70.5006 90.672 70.5006 91.057C70.5006 91.222 70.5562 91.387 70.6118 91.497C70.6673 91.607 70.7784 91.717 70.9451 91.827C71.0562 91.937 71.2229 91.992 71.3895 91.992C71.5562 92.047 71.7229 92.047 71.8895 92.047C72.1673 92.047 72.4451 91.992 72.7229 91.937C73.0006 91.882 73.2229 91.772 73.4451 91.662C73.6673 91.552 73.834 91.332 73.9451 91.167C74.0562 90.947 74.1673 90.727 74.1673 90.452V89.517Z" fill="black"/>
<path d="M79.222 92.487C79.1109 92.487 78.9998 92.542 78.8887 92.542C78.722 92.597 78.5553 92.597 78.3887 92.597C77.9998 92.597 77.722 92.487 77.5553 92.377C77.3887 92.212 77.2776 91.937 77.2776 91.497V87.372H76.3887V86.822H77.2776V85.282H77.9998V86.822H79.1664V87.372H77.9998V91.222C77.9998 91.332 77.9998 91.497 77.9998 91.607C77.9998 91.717 78.0553 91.772 78.0553 91.882C78.1109 91.937 78.1665 91.992 78.222 92.047C78.3331 92.102 78.4442 92.102 78.5553 92.102C78.6664 92.102 78.7776 92.102 78.8331 92.102C78.9442 92.102 79.0553 92.047 79.1109 92.047V92.487H79.222Z" fill="black"/>
<path d="M80.666 85.6121V84.6221H81.4993V85.6121H80.666ZM80.7216 92.4871V86.8221H81.4438V92.4871H80.7216Z" fill="black"/>
<path d="M85.9991 92.652C85.6102 92.652 85.2214 92.597 84.8325 92.432C84.4991 92.322 84.1658 92.102 83.888 91.882C83.6102 91.662 83.388 91.332 83.2769 90.947C83.1102 90.562 83.0547 90.122 83.0547 89.627C83.0547 89.187 83.1102 88.802 83.2214 88.472C83.3325 88.087 83.5547 87.812 83.7769 87.537C83.9991 87.262 84.3325 87.042 84.7214 86.877C85.1102 86.712 85.4991 86.657 85.9991 86.657C86.4991 86.657 86.9436 86.712 87.2769 86.877C87.6658 87.042 87.9436 87.262 88.2214 87.482C88.4436 87.757 88.6658 88.032 88.7769 88.417C88.888 88.802 88.9436 89.187 88.9436 89.572C88.9436 90.012 88.888 90.452 88.7214 90.782C88.6102 91.167 88.388 91.442 88.1102 91.717C87.8325 91.992 87.5547 92.157 87.1658 92.322C86.8325 92.597 86.4436 92.652 85.9991 92.652ZM88.1658 89.682C88.1658 89.352 88.1102 89.022 88.0547 88.747C87.9991 88.472 87.8325 88.197 87.6658 87.977C87.4991 87.757 87.2769 87.592 86.9991 87.482C86.7213 87.372 86.388 87.317 85.9991 87.317C85.6102 87.317 85.2769 87.372 84.9991 87.537C84.7214 87.647 84.4991 87.867 84.3325 88.087C84.1658 88.307 84.0547 88.582 83.9436 88.857C83.888 89.132 83.8325 89.462 83.8325 89.737C83.8325 90.067 83.888 90.397 83.9991 90.727C84.1102 91.002 84.2214 91.277 84.388 91.497C84.5547 91.717 84.7769 91.882 85.0547 91.992C85.3325 92.102 85.6102 92.157 85.9991 92.157C86.388 92.157 86.7213 92.102 86.9991 91.937C87.2769 91.827 87.4991 91.607 87.6658 91.387C87.8325 91.167 87.9436 90.892 88.0547 90.617C88.1102 90.287 88.1658 89.957 88.1658 89.682Z" fill="black"/>
<path d="M91.2222 92.487H90.5V86.822H91.2222V87.592C91.5 87.317 91.8333 87.097 92.1111 86.932C92.4444 86.767 92.7778 86.657 93.2222 86.657C93.6111 86.657 94 86.712 94.3333 86.822C94.6667 86.932 94.9444 87.152 95.1667 87.427C95.3333 87.647 95.3889 87.812 95.4444 88.032C95.5 88.252 95.5 88.472 95.5 88.692V92.377H94.7778V88.692C94.7778 88.197 94.6667 87.812 94.3889 87.537C94.1111 87.262 93.7222 87.152 93.1111 87.152C92.8889 87.152 92.6667 87.207 92.5 87.262C92.3333 87.317 92.1667 87.427 92 87.482C91.8333 87.592 91.7222 87.702 91.6111 87.812C91.5 87.922 91.4444 88.087 91.3889 88.252C91.3333 88.417 91.2778 88.582 91.2778 88.802C91.2778 88.967 91.2778 89.132 91.2778 89.352V92.487H91.2222Z" fill="black"/>
<path d="M100.388 89.187C100.5 89.187 100.666 89.132 100.888 89.132C101.055 89.077 101.222 89.077 101.333 89.022C101.444 88.967 101.555 88.912 101.555 88.747C101.611 88.637 101.611 88.527 101.611 88.417C101.611 88.087 101.5 87.812 101.277 87.592C101.055 87.372 100.611 87.262 100.055 87.262C99.7773 87.262 99.5551 87.262 99.3329 87.317C99.1107 87.372 98.944 87.427 98.7774 87.537C98.6107 87.647 98.4996 87.757 98.3885 87.922C98.2773 88.087 98.2218 88.307 98.1662 88.527H97.444C97.444 88.197 97.5551 87.922 97.7218 87.647C97.8885 87.427 98.0551 87.207 98.2773 87.097C98.4996 86.932 98.7773 86.822 99.1107 86.767C99.444 86.712 99.7218 86.657 100.111 86.657C100.444 86.657 100.722 86.712 101 86.767C101.277 86.822 101.5 86.932 101.722 87.042C101.944 87.152 102.111 87.372 102.222 87.592C102.333 87.812 102.388 88.087 102.388 88.417V91.497C102.388 91.772 102.444 91.937 102.555 91.992C102.666 92.047 102.888 92.047 103.166 91.937V92.432C103.111 92.432 103 92.487 102.888 92.487C102.777 92.542 102.666 92.542 102.555 92.542C102.444 92.542 102.333 92.542 102.222 92.487C102.111 92.487 102 92.432 101.944 92.377C101.888 92.322 101.833 92.267 101.777 92.157C101.722 92.102 101.722 91.992 101.666 91.882C101.666 91.772 101.666 91.717 101.666 91.607C101.333 91.937 101 92.157 100.611 92.322C100.222 92.487 99.7774 92.542 99.3329 92.542C99.0551 92.542 98.7773 92.487 98.5551 92.432C98.2773 92.377 98.0551 92.267 97.8885 92.102C97.6662 91.937 97.5551 91.772 97.444 91.607C97.3329 91.387 97.2773 91.167 97.2773 90.892C97.2773 89.957 97.9996 89.352 99.4996 89.187H100.388ZM101.611 89.517C101.277 89.627 101 89.682 100.666 89.737C100.333 89.792 100.055 89.792 99.7218 89.847C99.1662 89.902 98.7218 90.012 98.3885 90.177C98.0551 90.342 97.944 90.672 97.944 91.057C97.944 91.222 97.9996 91.387 98.0551 91.497C98.1107 91.607 98.2218 91.717 98.3885 91.827C98.4996 91.937 98.6662 91.992 98.8329 91.992C98.9996 92.047 99.1662 92.047 99.3329 92.047C99.6107 92.047 99.8885 91.992 100.166 91.937C100.444 91.882 100.666 91.772 100.888 91.662C101.111 91.552 101.277 91.332 101.388 91.167C101.5 90.947 101.611 90.727 101.611 90.452V89.517Z" fill="black"/>
<path d="M104.555 92.4871V84.6221H105.277V92.4871H104.555Z" fill="black"/>
<path d="M111.334 92.4871V84.6221H112.167V92.4871H111.334Z" fill="black"/>
<path d="M115.277 92.487H114.555V86.822H115.277V87.592C115.555 87.317 115.888 87.097 116.166 86.932C116.499 86.767 116.832 86.657 117.277 86.657C117.666 86.657 118.055 86.712 118.388 86.822C118.721 86.932 118.999 87.152 119.221 87.427C119.388 87.647 119.444 87.812 119.499 88.032C119.555 88.252 119.555 88.472 119.555 88.692V92.377H118.832V88.692C118.832 88.197 118.721 87.812 118.444 87.537C118.166 87.262 117.777 87.152 117.166 87.152C116.944 87.152 116.721 87.207 116.555 87.262C116.388 87.317 116.221 87.427 116.055 87.482C115.888 87.592 115.777 87.702 115.666 87.812C115.555 87.922 115.499 88.087 115.444 88.252C115.388 88.417 115.332 88.582 115.332 88.802C115.332 88.967 115.332 89.132 115.332 89.352V92.487H115.277Z" fill="black"/>
<path d="M121.945 90.727C122.056 91.222 122.278 91.552 122.556 91.772C122.834 91.992 123.278 92.047 123.834 92.047C124.111 92.047 124.334 91.992 124.556 91.937C124.778 91.882 124.889 91.827 125.056 91.717C125.167 91.607 125.278 91.497 125.334 91.387C125.389 91.277 125.445 91.112 125.445 91.002C125.445 90.727 125.334 90.507 125.167 90.397C124.945 90.287 124.722 90.177 124.389 90.067C124.111 90.012 123.778 89.902 123.389 89.847C123.056 89.792 122.722 89.737 122.389 89.627C122.111 89.517 121.834 89.352 121.611 89.132C121.389 88.912 121.334 88.637 121.334 88.252C121.334 87.757 121.5 87.372 121.889 87.097C122.278 86.822 122.834 86.657 123.556 86.657C124.222 86.657 124.778 86.767 125.222 87.042C125.667 87.317 125.889 87.757 126 88.417H125.278C125.222 87.977 125 87.702 124.722 87.482C124.389 87.317 124.056 87.207 123.556 87.207C123.111 87.207 122.722 87.317 122.5 87.482C122.278 87.647 122.111 87.922 122.111 88.197C122.111 88.472 122.222 88.637 122.389 88.802C122.611 88.912 122.834 89.022 123.167 89.132C123.445 89.242 123.778 89.297 124.167 89.352C124.5 89.407 124.834 89.517 125.167 89.627C125.445 89.737 125.722 89.902 125.945 90.122C126.167 90.342 126.222 90.617 126.222 90.947C126.222 91.222 126.167 91.442 126 91.662C125.889 91.882 125.667 92.047 125.445 92.157C125.222 92.267 124.945 92.377 124.611 92.487C124.278 92.542 123.945 92.597 123.556 92.597C123.167 92.597 122.834 92.542 122.556 92.432C122.278 92.322 122 92.212 121.834 92.047C121.611 91.882 121.445 91.662 121.334 91.442C121.222 91.222 121.167 90.947 121.111 90.672H121.945V90.727Z" fill="black"/>
<path d="M130.056 92.487C129.945 92.487 129.834 92.542 129.723 92.542C129.556 92.597 129.389 92.597 129.223 92.597C128.834 92.597 128.556 92.487 128.389 92.377C128.223 92.212 128.112 91.937 128.112 91.497V87.372H127.223V86.822H128.112V85.282H128.834V86.822H130V87.372H128.834V91.222C128.834 91.332 128.834 91.497 128.834 91.607C128.834 91.717 128.889 91.772 128.889 91.882C128.945 91.937 129 91.992 129.056 92.047C129.167 92.102 129.278 92.102 129.389 92.102C129.5 92.102 129.612 92.102 129.667 92.102C129.778 92.102 129.889 92.047 129.945 92.047V92.487H130.056Z" fill="black"/>
<path d="M131.445 85.6121V84.6221H132.279V85.6121H131.445ZM131.501 92.4871V86.8221H132.223V92.4871H131.501Z" fill="black"/>
<path d="M136.499 92.487C136.388 92.487 136.277 92.542 136.166 92.542C135.999 92.597 135.833 92.597 135.666 92.597C135.277 92.597 134.999 92.487 134.833 92.377C134.666 92.212 134.555 91.937 134.555 91.497V87.372H133.666V86.822H134.555V85.282H135.277V86.822H136.444V87.372H135.277V91.222C135.277 91.332 135.277 91.497 135.277 91.607C135.277 91.717 135.333 91.772 135.333 91.882C135.388 91.937 135.444 91.992 135.499 92.047C135.61 92.102 135.722 92.102 135.888 92.102C135.999 92.102 136.11 92.102 136.166 92.102C136.277 92.102 136.388 92.047 136.444 92.047V92.487H136.499Z" fill="black"/>
<path d="M142.166 86.877H142.889V92.542H142.166V91.772C142.055 91.882 141.944 91.992 141.833 92.102C141.722 92.212 141.555 92.322 141.389 92.377C141.222 92.487 141.055 92.542 140.833 92.597C140.611 92.652 140.389 92.707 140.111 92.707C139.666 92.707 139.333 92.652 139.055 92.542C138.778 92.432 138.555 92.267 138.389 92.102C138.222 91.937 138.111 91.717 138 91.442C137.944 91.167 137.889 90.892 137.889 90.617V86.877H138.611V90.562C138.611 91.057 138.722 91.442 139 91.662C139.278 91.937 139.666 92.047 140.222 92.047C140.5 92.047 140.778 91.992 141.055 91.882C141.278 91.772 141.5 91.607 141.666 91.442C141.833 91.277 141.944 91.002 142.055 90.782C142.166 90.507 142.166 90.232 142.166 89.902V86.877Z" fill="black"/>
<path d="M147.111 92.487C147 92.487 146.888 92.542 146.777 92.542C146.611 92.597 146.444 92.597 146.277 92.597C145.888 92.597 145.611 92.487 145.444 92.377C145.277 92.212 145.166 91.937 145.166 91.497V87.372H144.277V86.822H145.166V85.282H145.888V86.822H147.055V87.372H145.888V91.222C145.888 91.332 145.888 91.497 145.888 91.607C145.888 91.717 145.944 91.772 145.944 91.882C146 91.937 146.055 91.992 146.111 92.047C146.222 92.102 146.333 92.102 146.444 92.102C146.555 92.102 146.666 92.102 146.722 92.102C146.833 92.102 146.944 92.047 147 92.047V92.487H147.111Z" fill="black"/>
<path d="M148.889 89.847C148.889 90.177 148.945 90.452 149 90.727C149.111 91.002 149.222 91.222 149.389 91.442C149.556 91.662 149.778 91.827 150.056 91.937C150.334 92.047 150.611 92.102 151 92.102C151.5 92.102 151.889 91.992 152.222 91.772C152.556 91.552 152.778 91.222 152.889 90.837H153.722C153.611 91.112 153.5 91.332 153.389 91.607C153.222 91.827 153.056 92.047 152.834 92.212C152.611 92.377 152.334 92.542 152.056 92.597C151.778 92.707 151.389 92.762 151 92.762C150.5 92.762 150.056 92.707 149.667 92.542C149.278 92.377 149 92.157 148.778 91.937C148.556 91.662 148.389 91.387 148.278 91.002C148.167 90.617 148.111 90.232 148.111 89.847C148.111 89.407 148.167 89.022 148.334 88.692C148.445 88.307 148.667 88.032 148.889 87.757C149.111 87.482 149.445 87.262 149.778 87.097C150.111 86.932 150.556 86.877 151 86.877C151.889 86.877 152.556 87.152 153.056 87.702C153.556 88.252 153.778 89.022 153.778 90.012H148.889V89.847ZM153.056 89.297C153.056 89.022 153 88.747 152.945 88.527C152.834 88.307 152.722 88.087 152.556 87.922C152.389 87.757 152.167 87.592 151.945 87.482C151.667 87.372 151.389 87.317 151.056 87.317C150.722 87.317 150.445 87.372 150.167 87.482C149.945 87.592 149.722 87.757 149.556 87.922C149.389 88.087 149.222 88.307 149.111 88.527C149 88.747 148.945 89.022 148.889 89.297H153.056Z" fill="black"/>
<path d="M155.888 90.727C155.999 91.222 156.221 91.552 156.499 91.772C156.777 91.992 157.221 92.047 157.777 92.047C158.055 92.047 158.277 91.992 158.499 91.937C158.721 91.882 158.832 91.827 158.999 91.717C159.11 91.607 159.221 91.497 159.277 91.387C159.332 91.277 159.388 91.112 159.388 91.002C159.388 90.727 159.277 90.507 159.11 90.397C158.888 90.287 158.666 90.177 158.332 90.067C158.055 90.012 157.721 89.902 157.332 89.847C156.999 89.792 156.666 89.737 156.332 89.627C156.055 89.517 155.777 89.352 155.555 89.132C155.332 88.912 155.277 88.637 155.277 88.252C155.277 87.757 155.444 87.372 155.832 87.097C156.221 86.822 156.777 86.657 157.499 86.657C158.166 86.657 158.721 86.767 159.166 87.042C159.61 87.317 159.832 87.757 159.944 88.417H159.221C159.166 87.977 158.944 87.702 158.666 87.482C158.332 87.317 157.999 87.207 157.499 87.207C157.055 87.207 156.666 87.317 156.444 87.482C156.221 87.647 156.055 87.922 156.055 88.197C156.055 88.472 156.166 88.637 156.332 88.802C156.555 88.912 156.777 89.022 157.11 89.132C157.388 89.242 157.721 89.297 158.11 89.352C158.444 89.407 158.777 89.517 159.11 89.627C159.388 89.737 159.666 89.902 159.888 90.122C160.11 90.342 160.166 90.617 160.166 90.947C160.166 91.222 160.11 91.442 159.944 91.662C159.832 91.882 159.61 92.047 159.388 92.157C159.166 92.267 158.888 92.377 158.555 92.487C158.221 92.542 157.888 92.597 157.499 92.597C157.11 92.597 156.777 92.542 156.499 92.432C156.221 92.322 155.944 92.212 155.777 92.047C155.555 91.882 155.388 91.662 155.277 91.442C155.166 91.222 155.11 90.947 155.055 90.672H155.888V90.727Z" fill="black"/>
<path d="M167.833 92.652C167.444 92.652 167.055 92.597 166.666 92.432C166.333 92.322 166 92.102 165.722 91.882C165.444 91.662 165.222 91.332 165.111 90.947C164.944 90.562 164.889 90.122 164.889 89.627C164.889 89.187 164.944 88.802 165.055 88.472C165.166 88.087 165.389 87.812 165.611 87.537C165.833 87.262 166.166 87.042 166.555 86.877C166.944 86.712 167.333 86.657 167.833 86.657C168.333 86.657 168.778 86.712 169.111 86.877C169.5 87.042 169.778 87.262 170.055 87.482C170.278 87.757 170.5 88.032 170.611 88.417C170.722 88.802 170.778 89.187 170.778 89.572C170.778 90.012 170.722 90.452 170.555 90.782C170.444 91.167 170.222 91.442 169.944 91.717C169.666 91.992 169.389 92.157 169 92.322C168.666 92.597 168.278 92.652 167.833 92.652ZM170 89.682C170 89.352 169.944 89.022 169.889 88.747C169.833 88.472 169.666 88.197 169.5 87.977C169.333 87.757 169.111 87.592 168.833 87.482C168.555 87.372 168.222 87.317 167.833 87.317C167.444 87.317 167.111 87.372 166.833 87.537C166.555 87.647 166.333 87.867 166.166 88.087C166 88.307 165.889 88.582 165.778 88.857C165.722 89.132 165.666 89.462 165.666 89.737C165.666 90.067 165.722 90.397 165.833 90.727C165.944 91.002 166.055 91.277 166.222 91.497C166.389 91.717 166.611 91.882 166.889 91.992C167.166 92.102 167.444 92.157 167.833 92.157C168.222 92.157 168.555 92.102 168.833 91.937C169.111 91.827 169.333 91.607 169.5 91.387C169.666 91.167 169.778 90.892 169.889 90.617C169.944 90.287 170 89.957 170 89.682Z" fill="black"/>
<path d="M171.666 87.372V86.822H172.61V85.942C172.61 85.502 172.722 85.117 172.888 84.897C173.11 84.622 173.444 84.512 173.944 84.512C174.055 84.512 174.166 84.512 174.277 84.512C174.388 84.512 174.499 84.512 174.555 84.567V85.172C174.388 85.117 174.222 85.117 174.11 85.117C173.944 85.117 173.777 85.172 173.666 85.227C173.555 85.282 173.499 85.392 173.444 85.447C173.388 85.557 173.388 85.667 173.333 85.777C173.333 85.887 173.333 86.052 173.333 86.162V86.877H174.555V87.427H173.333V92.542H172.61V87.427H171.666V87.372Z" fill="black"/>
<path d="M179.555 92.4871V84.6221H180.388V87.9771H185.61V84.6221H186.444V92.4871H185.61V88.6371H180.388V92.4871H179.555Z" fill="black"/>
<path d="M188.944 89.847C188.944 90.177 188.999 90.452 189.055 90.727C189.166 91.002 189.277 91.222 189.444 91.442C189.61 91.662 189.833 91.827 190.11 91.937C190.388 92.047 190.666 92.102 191.055 92.102C191.555 92.102 191.944 91.992 192.277 91.772C192.61 91.552 192.833 91.222 192.944 90.837H193.777C193.666 91.112 193.555 91.332 193.444 91.607C193.277 91.827 193.11 92.047 192.888 92.212C192.666 92.377 192.388 92.542 192.11 92.597C191.833 92.707 191.444 92.762 191.055 92.762C190.555 92.762 190.11 92.707 189.722 92.542C189.333 92.377 189.055 92.157 188.833 91.937C188.61 91.662 188.444 91.387 188.333 91.002C188.222 90.617 188.166 90.232 188.166 89.847C188.166 89.407 188.222 89.022 188.388 88.692C188.499 88.307 188.722 88.032 188.944 87.757C189.166 87.482 189.499 87.262 189.833 87.097C190.166 86.932 190.61 86.877 191.055 86.877C191.944 86.877 192.61 87.152 193.11 87.702C193.61 88.252 193.833 89.022 193.833 90.012H188.944V89.847ZM193.11 89.297C193.11 89.022 193.055 88.747 192.999 88.527C192.888 88.307 192.777 88.087 192.61 87.922C192.444 87.757 192.222 87.592 191.999 87.482C191.722 87.372 191.444 87.317 191.11 87.317C190.777 87.317 190.499 87.372 190.222 87.482C189.999 87.592 189.777 87.757 189.61 87.922C189.444 88.087 189.277 88.307 189.166 88.527C189.055 88.747 188.999 89.022 188.944 89.297H193.11Z" fill="black"/>
<path d="M198.388 89.187C198.5 89.187 198.666 89.132 198.888 89.132C199.055 89.077 199.222 89.077 199.333 89.022C199.444 88.967 199.555 88.912 199.555 88.747C199.611 88.637 199.611 88.527 199.611 88.417C199.611 88.087 199.5 87.812 199.277 87.592C199.055 87.372 198.611 87.262 198.055 87.262C197.777 87.262 197.555 87.262 197.333 87.317C197.111 87.372 196.944 87.427 196.777 87.537C196.611 87.647 196.5 87.757 196.388 87.922C196.277 88.087 196.222 88.307 196.166 88.527H195.444C195.444 88.197 195.555 87.922 195.722 87.647C195.888 87.427 196.055 87.207 196.277 87.097C196.5 86.932 196.777 86.822 197.111 86.767C197.388 86.712 197.722 86.657 198.111 86.657C198.444 86.657 198.722 86.712 199 86.767C199.277 86.822 199.5 86.932 199.722 87.042C199.944 87.152 200.111 87.372 200.222 87.592C200.333 87.812 200.388 88.087 200.388 88.417V91.497C200.388 91.772 200.444 91.937 200.555 91.992C200.666 92.047 200.888 92.047 201.166 91.937V92.432C201.111 92.432 201 92.487 200.888 92.487C200.777 92.542 200.666 92.542 200.555 92.542C200.444 92.542 200.333 92.542 200.222 92.487C200.111 92.487 200 92.432 199.944 92.377C199.888 92.322 199.833 92.267 199.777 92.157C199.722 92.102 199.722 91.992 199.666 91.882C199.666 91.772 199.666 91.717 199.666 91.607C199.333 91.937 199 92.157 198.611 92.322C198.222 92.487 197.777 92.542 197.333 92.542C197.055 92.542 196.777 92.487 196.555 92.432C196.277 92.377 196.055 92.267 195.888 92.102C195.666 91.937 195.555 91.772 195.444 91.607C195.333 91.387 195.277 91.167 195.277 90.892C195.277 89.957 196 89.352 197.5 89.187H198.388ZM199.611 89.517C199.277 89.627 199 89.682 198.666 89.737C198.333 89.792 198.055 89.792 197.722 89.847C197.166 89.902 196.722 90.012 196.388 90.177C196.055 90.342 195.944 90.672 195.944 91.057C195.944 91.222 196 91.387 196.055 91.497C196.111 91.607 196.222 91.717 196.388 91.827C196.5 91.937 196.666 91.992 196.833 91.992C197 92.047 197.166 92.047 197.333 92.047C197.611 92.047 197.888 91.992 198.166 91.937C198.444 91.882 198.666 91.772 198.888 91.662C199.111 91.552 199.277 91.332 199.388 91.167C199.5 90.947 199.611 90.727 199.611 90.452V89.517Z" fill="black"/>
<path d="M202.555 92.4871V84.6221H203.277V92.4871H202.555Z" fill="black"/>
<path d="M207.611 92.487C207.5 92.487 207.388 92.542 207.277 92.542C207.111 92.597 206.944 92.597 206.777 92.597C206.388 92.597 206.111 92.487 205.944 92.377C205.777 92.212 205.666 91.937 205.666 91.497V87.372H204.777V86.822H205.666V85.282H206.388V86.822H207.555V87.372H206.388V91.222C206.388 91.332 206.388 91.497 206.388 91.607C206.388 91.717 206.444 91.772 206.444 91.882C206.5 91.937 206.555 91.992 206.611 92.047C206.722 92.102 206.833 92.102 206.944 92.102C207.055 92.102 207.166 92.102 207.222 92.102C207.333 92.102 207.444 92.047 207.5 92.047V92.487H207.611Z" fill="black"/>
<path d="M208.945 92.4871V84.6221H209.668V87.5921C209.945 87.3171 210.279 87.0971 210.556 86.9321C210.89 86.7671 211.223 86.6571 211.668 86.6571C212.056 86.6571 212.445 86.7121 212.779 86.8221C213.112 86.9321 213.39 87.1521 213.612 87.4271C213.779 87.6471 213.834 87.8121 213.89 88.0321C213.945 88.2521 213.945 88.4721 213.945 88.6921V92.3771H213.223V88.6921C213.223 88.1971 213.112 87.8121 212.834 87.5371C212.556 87.2621 212.168 87.1521 211.556 87.1521C211.334 87.1521 211.112 87.2071 210.945 87.2621C210.779 87.3171 210.612 87.4271 210.445 87.4821C210.279 87.5921 210.168 87.7021 210.056 87.8121C209.945 87.9221 209.89 88.0871 209.834 88.2521C209.779 88.4171 209.723 88.5821 209.723 88.8021C209.723 88.9671 209.723 89.1321 209.723 89.3521V92.3771H208.945V92.4871Z" fill="black"/>
<path d="M62.0918 15.906H98.7261V22.4459H71.4028V33.752H95.4007V39.9039H71.4028V59.0801H62.0918V15.906Z" fill="#006394"/>
<path d="M103.604 15.906H113.413L137.633 47.7185H137.799V15.906H146.667V59.0801H136.857L112.693 27.3785H112.471V59.0801H103.604V15.906Z" fill="#006394"/>
<path d="M154.26 15.906H163.571V59.0801H154.26V15.906Z" fill="#006394"/>
<path d="M173.213 15.906H182.524V33.087H206.688V15.906H215.999V59.0801H206.688V39.6268H182.524V59.0801H173.213V15.906Z" fill="#006394"/>
<path d="M50.0653 43.8946C49.4002 43.4512 31.0554 31.7571 28.5614 30.1498C29.2264 29.7619 29.9469 29.3739 30.5566 28.9859C29.2819 28.21 28.1734 27.4895 27.2312 26.8799C22.9637 29.3739 18.5299 31.9233 14.5949 34.1956C15.7034 34.9161 16.8672 35.6366 17.9203 36.3017C20.248 34.9716 22.6866 33.5306 25.0143 32.145L47.6267 46.3886C47.6267 46.3886 36.3759 52.9284 26.0119 58.9695C23.3517 57.3068 7.94421 47.6079 3.39957 44.7259C3.39957 44.7259 4.17548 44.2825 5.50562 43.5066C4.2309 42.6753 3.06703 41.9548 2.18027 41.3451C1.90316 41.5114 1.73689 41.6223 1.68147 41.6223C0.0742185 42.5644 0.0742188 44.1163 0.0742188 44.4488V45.1693C0.0742188 45.7789 0.240486 46.7766 1.0164 47.2199C1.68147 47.6079 19.2504 58.8587 22.5203 60.9647C15.7588 64.9551 9.93942 68.3359 8.94181 68.9455C6.22611 70.5528 5.50562 74.9866 5.50562 74.9866C5.50562 74.9866 48.1255 50.2682 49.4002 49.4923C51.0075 48.5501 51.0075 46.9982 51.0075 46.6657V45.9452C51.0075 45.3356 50.8412 44.338 50.0653 43.8946Z" fill="#AAC9DE"/>
<path d="M45.7984 16.0725C45.7984 16.0725 43.3598 17.5135 39.6465 19.675C40.6995 20.34 41.808 21.0605 42.861 21.7256C44.6899 19.9521 45.7984 16.0725 45.7984 16.0725Z" fill="#AAC9DE"/>
<path d="M1.01567 31.092C1.68073 31.5354 20.081 43.2295 22.575 44.8368C21.9099 45.2247 21.1894 45.6127 20.5798 46.0006C21.8545 46.7766 22.963 47.4971 23.9051 48.1067C28.1727 45.6127 32.6065 43.0633 36.5415 40.7909C35.433 40.0704 34.2691 39.3499 33.2161 38.6849C30.8884 40.015 28.4498 41.456 26.122 42.8416L3.45425 28.5426C3.45425 28.5426 14.705 22.0027 25.069 15.9617C27.7293 17.6243 43.1367 27.3233 47.626 30.2052C47.626 30.2052 46.85 30.6486 45.5199 31.4245C46.7946 32.2559 47.9585 32.9764 48.8453 33.586C49.1224 33.4198 49.2886 33.3089 49.3441 33.3089C50.9513 32.3667 50.9513 30.8149 50.9513 30.4824V29.7619C50.9513 29.1522 50.785 28.1546 50.0091 27.7112C49.3995 27.3233 31.886 16.0725 28.5606 13.9665C35.3776 10.0315 41.1415 6.6507 42.1946 6.04105C44.9103 4.4338 45.6308 0 45.6308 0C45.6308 0 3.01087 24.7184 1.73616 25.4943C0.128906 26.4365 0.128906 27.9883 0.128906 28.3209V29.0414C0.128906 29.651 0.295173 30.5932 1.01567 31.092Z" fill="#287CB0"/>
<path d="M5.33984 58.9141C5.33984 58.9141 7.77843 57.4731 11.4917 55.367C10.4387 54.702 9.33026 53.9815 8.27723 53.3164C6.44829 55.0345 5.33984 58.9141 5.33984 58.9141Z" fill="#287CB0"/>
<path d="M42.1958 14.1328C44.9115 12.5256 45.632 8.0918 45.632 8.0918C45.632 8.0918 40.1451 11.2509 33.0511 15.4076C33.9933 16.0172 35.1571 16.7377 36.3764 17.5136C39.4247 15.7955 41.5861 14.5208 42.1958 14.1328ZM50.0658 35.803C49.4007 35.4151 31.8318 24.1643 28.5618 22.0583C29.2269 21.6703 29.9474 21.2823 30.6125 20.8944C29.3378 20.1185 28.2293 19.398 27.2871 18.7883C20.4147 22.7788 13.0436 27.0463 7.94469 29.9837C8.99772 30.6487 10.1062 31.3692 11.3255 32.0897C15.3159 29.762 20.3039 26.88 25.0702 24.1089C27.7305 25.7716 43.138 35.4705 47.6826 38.3525C47.6826 38.3525 46.9067 38.7958 45.5765 39.5718C46.8513 40.4031 48.0151 41.1236 48.9019 41.7332C49.179 41.567 49.3453 41.4561 49.4007 41.4561C51.0079 40.5139 51.0079 38.9621 51.0079 38.6296V37.9091C51.0079 37.244 50.8417 36.3018 50.0658 35.803ZM26.0678 50.9334L3.45547 36.6344C3.45547 36.6344 4.23139 36.191 5.61695 35.4151C4.34223 34.5837 3.17836 33.8632 2.2916 33.2536C2.01449 33.4199 1.84822 33.5307 1.7928 33.5307C0.185547 34.4729 0.185547 36.0247 0.185547 36.3573V37.0777C0.185547 37.6874 0.351814 38.685 1.12773 39.1284C1.7928 39.5718 20.1931 51.2659 22.6871 52.8732C22.022 53.2611 21.3015 53.6491 20.6919 54.037C21.9666 54.8129 23.075 55.5334 24.0172 56.1431C28.2847 53.6491 39.3692 47.2201 43.3042 44.9477C42.1958 44.2272 41.0319 43.5068 39.9789 42.8417C37.4849 44.2272 28.451 49.5478 26.0678 50.9334Z" fill="#78A22F"/>
<path d="M8.94205 60.7985C6.22635 62.4057 5.50586 66.8395 5.50586 66.8395C5.50586 66.8395 10.9927 63.6805 18.0868 59.5238C17.1446 58.9141 15.9807 58.1936 14.7614 57.4177C11.7132 59.1912 9.5517 60.466 8.94205 60.7985Z" fill="#78A22F"/>
</g>
<defs>
<clipPath id="clip0_2621_28532">
<rect width="216" height="93" fill="white"/>
</clipPath>
</defs>
</svg>
