<svg width="671" height="338" viewBox="0 0 671 338" fill="none" xmlns="http://www.w3.org/2000/svg">
<g clip-path="url(#clip0_40_6234)">
<path d="M177.815 100.161H180.158V100.583H178.317V101.68H180.081V102.102H178.317V103.444H180.202V103.866H177.815V100.161Z" fill="white"/>
<path d="M183.74 100.283V100.772C183.55 100.681 183.371 100.613 183.202 100.568C183.033 100.524 182.87 100.501 182.713 100.501C182.44 100.501 182.229 100.554 182.08 100.66C181.933 100.766 181.86 100.917 181.86 101.112C181.86 101.276 181.908 101.4 182.006 101.484C182.105 101.567 182.292 101.634 182.567 101.685L182.869 101.747C183.243 101.818 183.519 101.944 183.696 102.124C183.874 102.303 183.964 102.543 183.964 102.844C183.964 103.203 183.843 103.475 183.601 103.66C183.362 103.845 183.009 103.938 182.544 103.938C182.369 103.938 182.182 103.918 181.984 103.878C181.787 103.839 181.583 103.78 181.371 103.702V103.186C181.574 103.3 181.774 103.386 181.969 103.444C182.164 103.502 182.356 103.531 182.544 103.531C182.831 103.531 183.051 103.475 183.207 103.362C183.362 103.25 183.44 103.089 183.44 102.881C183.44 102.699 183.384 102.557 183.271 102.454C183.161 102.352 182.978 102.275 182.723 102.223L182.418 102.164C182.044 102.089 181.774 101.973 181.607 101.814C181.439 101.655 181.356 101.434 181.356 101.151C181.356 100.824 181.471 100.566 181.701 100.377C181.932 100.189 182.251 100.094 182.656 100.094C182.83 100.094 183.007 100.11 183.187 100.142C183.367 100.173 183.552 100.22 183.74 100.283Z" fill="white"/>
<path d="M184.385 100.161H187.519V100.583H186.204V103.866H185.7V100.583H184.385V100.161Z" fill="white"/>
<path d="M188.12 100.161H188.622V103.866H188.12V100.161Z" fill="white"/>
<path d="M189.96 100.161H190.707L191.652 102.682L192.602 100.161H193.349V103.866H192.86V100.613L191.905 103.154H191.402L190.446 100.613V103.866H189.96V100.161Z" fill="white"/>
<path d="M196.356 100.655L195.676 102.499H197.038L196.356 100.655ZM196.073 100.161H196.641L198.053 103.866H197.532L197.194 102.915H195.524L195.187 103.866H194.658L196.073 100.161Z" fill="white"/>
<path d="M198.374 100.161H201.508V100.583H200.193V103.866H199.689V100.583H198.374V100.161Z" fill="white"/>
<path d="M202.109 100.161H204.452V100.583H202.611V101.68H204.375V102.102H202.611V103.444H204.496V103.866H202.109V100.161Z" fill="white"/>
<path d="M206.315 100.573V103.454H206.921C207.432 103.454 207.806 103.338 208.042 103.107C208.28 102.875 208.399 102.509 208.399 102.01C208.399 101.514 208.28 101.151 208.042 100.921C207.806 100.689 207.432 100.573 206.921 100.573H206.315ZM205.814 100.161H206.844C207.562 100.161 208.088 100.311 208.424 100.61C208.76 100.908 208.928 101.375 208.928 102.01C208.928 102.648 208.759 103.117 208.422 103.417C208.084 103.716 207.558 103.866 206.844 103.866H205.814V100.161Z" fill="white"/>
<path d="M213.709 102.129C213.816 102.165 213.921 102.243 214.021 102.362C214.124 102.481 214.227 102.645 214.329 102.853L214.838 103.866H214.299L213.825 102.915C213.703 102.667 213.584 102.503 213.468 102.422C213.354 102.341 213.198 102.3 212.999 102.3H212.453V103.866H211.952V100.161H213.084C213.507 100.161 213.823 100.25 214.031 100.427C214.24 100.604 214.344 100.871 214.344 101.228C214.344 101.462 214.289 101.655 214.18 101.809C214.073 101.963 213.916 102.069 213.709 102.129ZM212.453 100.573V101.888H213.084C213.325 101.888 213.507 101.833 213.629 101.722C213.753 101.61 213.816 101.445 213.816 101.228C213.816 101.012 213.753 100.849 213.629 100.739C213.507 100.629 213.325 100.573 213.084 100.573H212.453Z" fill="white"/>
<path d="M217.169 100.655L216.489 102.499H217.851L217.169 100.655ZM216.886 100.161H217.454L218.866 103.866H218.345L218.007 102.915H216.338L216 103.866H215.472L216.886 100.161Z" fill="white"/>
<path d="M219.879 100.161H220.554L222.197 103.26V100.161H222.683V103.866H222.008L220.365 100.767V103.866H219.879V100.161Z" fill="white"/>
<path d="M226.841 103.337V102.342H226.022V101.931H227.337V103.521C227.143 103.658 226.93 103.762 226.697 103.834C226.464 103.903 226.215 103.938 225.95 103.938C225.371 103.938 224.918 103.769 224.59 103.432C224.264 103.093 224.102 102.621 224.102 102.017C224.102 101.412 224.264 100.941 224.59 100.603C224.918 100.264 225.371 100.094 225.95 100.094C226.192 100.094 226.421 100.124 226.637 100.184C226.856 100.243 227.057 100.331 227.24 100.447V100.98C227.055 100.823 226.858 100.705 226.65 100.625C226.441 100.546 226.222 100.506 225.992 100.506C225.539 100.506 225.198 100.633 224.97 100.886C224.743 101.139 224.63 101.516 224.63 102.017C224.63 102.517 224.743 102.893 224.97 103.146C225.198 103.399 225.539 103.526 225.992 103.526C226.169 103.526 226.327 103.511 226.466 103.481C226.605 103.45 226.73 103.402 226.841 103.337Z" fill="white"/>
<path d="M228.548 100.161H230.89V100.583H229.049V101.68H230.813V102.102H229.049V103.444H230.935V103.866H228.548V100.161Z" fill="white"/>
<path d="M233.985 103.236H234.509V103.866H233.985V103.236ZM233.985 101.238H234.509V101.868H233.985V101.238Z" fill="white"/>
<path d="M238.023 100.491C237.765 100.491 237.571 100.619 237.44 100.874C237.311 101.127 237.247 101.508 237.247 102.017C237.247 102.525 237.311 102.906 237.44 103.161C237.571 103.414 237.765 103.541 238.023 103.541C238.283 103.541 238.477 103.414 238.606 103.161C238.737 102.906 238.802 102.525 238.802 102.017C238.802 101.508 238.737 101.127 238.606 100.874C238.477 100.619 238.283 100.491 238.023 100.491ZM238.023 100.094C238.438 100.094 238.755 100.259 238.973 100.588C239.193 100.916 239.303 101.392 239.303 102.017C239.303 102.641 239.193 103.117 238.973 103.447C238.755 103.774 238.438 103.938 238.023 103.938C237.608 103.938 237.29 103.774 237.07 103.447C236.852 103.117 236.743 102.641 236.743 102.017C236.743 101.392 236.852 100.916 237.07 100.588C237.29 100.259 237.608 100.094 238.023 100.094Z" fill="white"/>
<path d="M242.212 100.161H242.713V101.727L244.375 100.161H245.02L243.182 101.888L245.152 103.866H244.492L242.713 102.082V103.866H242.212V100.161Z" fill="white"/>
<path d="M246.129 100.161H246.876L247.822 102.682L248.772 100.161H249.519V103.866H249.03V100.613L248.075 103.154H247.571L246.616 100.613V103.866H246.129V100.161Z" fill="white"/>
<path d="M125.021 312.03C124.668 312.03 124.314 311.9 124.04 311.633L102.621 290.986C103.132 290.371 103.625 289.729 104.097 289.057C104.177 288.943 104.257 288.828 104.335 288.714L126.002 309.6C126.564 310.142 126.58 311.034 126.038 311.598C125.761 311.886 125.391 312.03 125.021 312.03Z" fill="#F2F8FD"/>
<mask id="mask0_40_6234" style="mask-type:luminance" maskUnits="userSpaceOnUse" x="0" y="190" width="105" height="101">
<path d="M102.62 290.986L78.4319 267.667L61.8805 268.794C61.7885 267.855 61.6473 266.924 61.4778 265.991C61.4778 265.991 61.4775 265.988 61.4772 265.988L75.6861 265.022L51.0301 241.254L37.6265 242.713C37.6257 242.71 37.6251 242.71 37.6243 242.71C36.7407 241.79 35.8078 240.936 34.8396 240.174C34.839 240.171 34.8388 240.171 34.8382 240.171L48.379 238.696L27.984 219.037L2.08358 220.662C2.05365 220.662 2.02317 220.665 1.99378 220.665C1.25303 220.665 0.631212 220.088 0.584405 219.339C0.535149 218.558 1.12758 217.889 1.9067 217.84L25.2246 216.376L1.01437 193.038C0.451878 192.496 0.435826 191.601 0.977913 191.04C1.25494 190.752 1.62531 190.608 1.99596 190.608C2.34891 190.608 2.70241 190.738 2.9759 191.002L27.2381 214.392L28.168 192.88C28.2012 192.11 28.8701 191.53 29.6146 191.53C29.6233 191.53 29.6321 191.53 29.6408 191.53C30.4207 191.563 31.0259 192.222 30.9922 193.003L29.9553 217.01L50.5487 236.862L54.7373 209.404C54.8446 208.702 55.4454 208.204 56.1342 208.204C56.2049 208.204 56.2762 208.207 56.3483 208.217C57.1201 208.337 57.6502 209.058 57.5329 209.828L53.0417 239.268L77.7548 263.09L80.2927 225.332C80.3417 224.592 80.9649 224.012 81.6814 224.012C81.7198 224.012 81.7584 224.012 81.7971 224.015C82.5764 224.066 83.1651 224.741 83.1125 225.52L80.4152 265.654L104.334 288.714C104.256 288.828 104.176 288.943 104.097 289.057C103.624 289.729 103.132 290.371 102.62 290.986ZM18.125 244.558C17.7497 244.34 17.4795 243.954 17.4288 243.488C17.3447 242.713 17.9053 242.013 18.6809 241.929L19.1022 241.886C19.1014 241.886 19.1003 241.888 19.0995 241.891C18.6972 242.724 18.3723 243.619 18.125 244.558Z" fill="white"/>
</mask>
<g mask="url(#mask0_40_6234)">
<path d="M102.62 290.986L78.4319 267.667L61.8805 268.794C61.7885 267.855 61.6473 266.924 61.4778 265.991C61.4778 265.991 61.4775 265.988 61.4772 265.988L75.6861 265.022L51.0301 241.254L37.6265 242.713C37.6257 242.71 37.6251 242.71 37.6243 242.71C36.7407 241.79 35.8078 240.936 34.8396 240.174C34.839 240.171 34.8388 240.171 34.8382 240.171L48.379 238.696L27.984 219.037L2.08358 220.662C2.05365 220.662 2.02317 220.665 1.99378 220.665C1.25303 220.665 0.631212 220.088 0.584405 219.339C0.535149 218.558 1.12758 217.889 1.9067 217.84L25.2246 216.376L1.01437 193.038C0.451878 192.496 0.435826 191.601 0.977913 191.04C1.25494 190.752 1.62531 190.608 1.99596 190.608C2.34891 190.608 2.70241 190.738 2.9759 191.002L27.2381 214.392L28.168 192.88C28.2012 192.11 28.8701 191.53 29.6146 191.53C29.6233 191.53 29.6321 191.53 29.6408 191.53C30.4207 191.563 31.0259 192.222 30.9922 193.003L29.9553 217.01L50.5487 236.862L54.7373 209.404C54.8446 208.702 55.4454 208.204 56.1342 208.204C56.2049 208.204 56.2762 208.207 56.3483 208.217C57.1201 208.337 57.6502 209.058 57.5329 209.828L53.0417 239.268L77.7548 263.09L80.2927 225.332C80.3417 224.592 80.9649 224.012 81.6814 224.012C81.7198 224.012 81.7584 224.012 81.7971 224.015C82.5764 224.066 83.1651 224.741 83.1125 225.52L80.4152 265.654L104.334 288.714C104.256 288.828 104.176 288.943 104.097 289.057C103.624 289.729 103.132 290.371 102.62 290.986ZM18.125 244.558C17.7497 244.34 17.4795 243.954 17.4288 243.488C17.3447 242.713 17.9053 242.013 18.6809 241.929L19.1022 241.886C19.1014 241.886 19.1003 241.888 19.0995 241.891C18.6972 242.724 18.3723 243.619 18.125 244.558Z" fill="url(#paint0_linear_40_6234)"/>
</g>
<mask id="mask1_40_6234" style="mask-type:luminance" maskUnits="userSpaceOnUse" x="-45" y="224" width="130" height="114">
<path d="M79.0622 337.679H74.5812L53.4769 317.331L54.5654 301.14L56.1696 277.192C56.2262 276.416 55.6327 275.744 54.8552 275.687C54.8179 275.684 54.7809 275.684 54.7442 275.684C54.0266 275.684 53.4037 276.264 53.3498 277.002L51.7665 300.552L50.8124 314.765L26.1034 290.94L26.4498 288.692L30.5917 261.504C30.7117 260.733 30.1816 260.012 29.4041 259.893C29.3336 259.882 29.2637 259.876 29.1943 259.876C28.5069 259.876 27.9019 260.372 27.7928 261.079L23.9054 286.608L23.6087 288.537L3.01326 268.682L3.93905 247.29L4.05227 244.675C4.08764 243.897 3.47969 243.241 2.70222 243.205C2.69323 243.205 2.68453 243.205 2.67555 243.205C1.9299 243.205 1.25991 243.785 1.22508 244.555L1.18263 245.472L0.299015 266.07L-23.9643 242.675C-24.2364 242.414 -24.5888 242.283 -24.9418 242.283C-25.3132 242.283 -25.6852 242.427 -25.9644 242.718C-26.5087 243.276 -26.4875 244.174 -25.9291 244.71L-1.71531 268.048L-25.0316 269.51C-25.8161 269.561 -26.4028 270.231 -26.3604 271.009C-26.3109 271.758 -25.689 272.337 -24.9469 272.337H-24.8549L1.04112 270.713L21.4388 290.369L-8.2598 293.604C-9.03728 293.689 -9.5957 294.388 -9.5108 295.158C-9.43324 295.887 -8.81821 296.424 -8.11149 296.424C-8.05488 296.424 -8.00536 296.418 -7.95583 296.418L24.0891 292.927L48.7415 316.695L12.4203 319.168C11.6431 319.217 11.0564 319.898 11.113 320.673C11.1623 321.416 11.7843 321.988 12.5194 321.988H12.6182L51.4908 319.345L70.5101 337.679H-3.72228C-8.06197 333.82 -11.8362 329.354 -14.8117 324.399C-17.3275 320.202 -18.7616 314.948 -16.0049 310.991C-16.0047 310.988 -16.0049 310.988 -16.0047 310.988C-15.5478 310.332 -14.9757 309.714 -14.2745 309.14C-11.5676 306.928 -7.82875 305.915 -4.39362 305.564C-4.62494 305.586 -4.86305 305.597 -5.10824 305.597C-8.94095 305.597 -14.3681 302.873 -17.7093 301.605C-17.865 301.545 -18.0266 301.482 -18.1934 301.414C-24.7496 298.734 -39.3062 289.294 -27.8092 283.138C-25.6703 281.995 -23.4671 281.644 -21.5562 281.644C-20.3642 281.644 -19.2858 281.78 -18.4079 281.946C-17.9681 282.031 -17.5784 282.12 -17.25 282.205C-17.632 282.099 -18.0179 281.995 -18.4079 281.889C-24.7842 280.172 -32.101 278.417 -36.6366 273.434C-39.7142 270.057 -40.0339 265.433 -38.372 262.064C-38.3712 262.061 -38.3701 262.059 -38.3693 262.059C-37.099 259.484 -34.6746 257.645 -31.4408 257.645C-30.3226 257.645 -29.1067 257.865 -27.8092 258.35C-34.1137 253.424 -41.8175 246.365 -43.8884 238.321C-45.4502 232.241 -42.4608 226.037 -36.1209 224.545C-35.1279 224.314 -34.1194 224.205 -33.1087 224.205C-30.0701 224.205 -27.0157 225.182 -24.3319 226.665C-17.6034 230.383 -11.9069 236.59 -7.96291 243.121C-10.267 239.311 -8.81822 232.745 -6.27378 229.493C-5.29928 228.249 -3.9925 227.226 -2.51673 226.687C-2.51564 226.687 -2.51482 226.687 -2.51374 226.687H-2.50666C-1.87069 226.461 -1.20641 226.328 -0.527718 226.298C-0.392738 226.292 -0.258575 226.29 -0.125233 226.29C2.94142 226.29 5.60042 227.754 7.88279 230.037L7.88633 230.04L7.88987 230.045H7.89695C7.94511 230.091 7.99382 230.14 8.04171 230.189C8.04308 230.189 8.04417 230.192 8.04526 230.192C13.6221 235.904 16.8376 246.485 17.7283 252.259C17.3326 249.693 17.4738 246.985 18.1239 244.561C18.1242 244.561 18.1245 244.561 18.1248 244.558C18.3721 243.619 18.697 242.724 19.0993 241.891C19.1001 241.888 19.1012 241.886 19.102 241.886C20.5984 238.737 23.1192 236.525 26.5116 236.525C28.2804 236.525 30.2866 237.126 32.5069 238.511C33.3051 239.006 34.0823 239.564 34.838 240.171C34.8386 240.171 34.8388 240.171 34.8394 240.174C35.8076 240.936 36.7405 241.79 37.6241 242.71C37.6249 242.71 37.6255 242.71 37.6263 242.713C42.763 248.098 46.1122 255.764 44.9814 262.96C45.5399 259.425 46.9109 254.874 49.4131 252.202C50.4287 251.122 51.416 250.675 52.3546 250.675C55.7388 250.675 58.4825 256.483 59.5832 259.305C60.4244 261.474 61.0601 263.713 61.477 265.988C61.4773 265.988 61.4775 265.991 61.4775 265.991C61.6471 266.924 61.7883 267.855 61.8803 268.794L61.8806 268.797C62.368 273.363 62.0077 278.014 60.792 282.48C61.64 279.369 67.1387 274.713 70.2415 274.125C70.6225 274.054 70.9921 274.019 71.3513 274.019C79.9235 274.019 82.4165 293.768 83.3591 301.844C83.3594 301.847 83.3597 301.85 83.3599 301.85C83.4514 302.639 83.5292 303.311 83.5926 303.845C84.9778 315.103 84.6741 327.555 79.0643 337.676C79.0635 337.676 79.0627 337.679 79.0622 337.679Z" fill="white"/>
</mask>
<g mask="url(#mask1_40_6234)">
<path d="M79.0622 337.679H74.5812L53.4769 317.331L54.5654 301.14L56.1696 277.192C56.2262 276.416 55.6327 275.744 54.8552 275.687C54.8179 275.684 54.7809 275.684 54.7442 275.684C54.0266 275.684 53.4037 276.264 53.3498 277.002L51.7665 300.552L50.8124 314.765L26.1034 290.94L26.4498 288.692L30.5917 261.504C30.7117 260.733 30.1816 260.012 29.4041 259.893C29.3336 259.882 29.2637 259.876 29.1943 259.876C28.5069 259.876 27.9019 260.372 27.7928 261.079L23.9054 286.608L23.6087 288.537L3.01326 268.682L3.93905 247.29L4.05227 244.675C4.08764 243.897 3.47969 243.241 2.70222 243.205C2.69323 243.205 2.68453 243.205 2.67555 243.205C1.9299 243.205 1.25991 243.785 1.22508 244.555L1.18263 245.472L0.299015 266.07L-23.9643 242.675C-24.2364 242.414 -24.5888 242.283 -24.9418 242.283C-25.3132 242.283 -25.6852 242.427 -25.9644 242.718C-26.5087 243.276 -26.4875 244.174 -25.9291 244.71L-1.71531 268.048L-25.0316 269.51C-25.8161 269.561 -26.4028 270.231 -26.3604 271.009C-26.3109 271.758 -25.689 272.337 -24.9469 272.337H-24.8549L1.04112 270.713L21.4388 290.369L-8.2598 293.604C-9.03728 293.689 -9.5957 294.388 -9.5108 295.158C-9.43324 295.887 -8.81821 296.424 -8.11149 296.424C-8.05488 296.424 -8.00536 296.418 -7.95583 296.418L24.0891 292.927L48.7415 316.695L12.4203 319.168C11.6431 319.217 11.0564 319.898 11.113 320.673C11.1623 321.416 11.7843 321.988 12.5194 321.988H12.6182L51.4908 319.345L70.5101 337.679H-3.72228C-8.06197 333.82 -11.8362 329.354 -14.8117 324.399C-17.3275 320.202 -18.7616 314.948 -16.0049 310.991C-16.0047 310.988 -16.0049 310.988 -16.0047 310.988C-15.5478 310.332 -14.9757 309.714 -14.2745 309.14C-11.5676 306.928 -7.82875 305.915 -4.39362 305.564C-4.62494 305.586 -4.86305 305.597 -5.10824 305.597C-8.94095 305.597 -14.3681 302.873 -17.7093 301.605C-17.865 301.545 -18.0266 301.482 -18.1934 301.414C-24.7496 298.734 -39.3062 289.294 -27.8092 283.138C-25.6703 281.995 -23.4671 281.644 -21.5562 281.644C-20.3642 281.644 -19.2858 281.78 -18.4079 281.946C-17.9681 282.031 -17.5784 282.12 -17.25 282.205C-17.632 282.099 -18.0179 281.995 -18.4079 281.889C-24.7842 280.172 -32.101 278.417 -36.6366 273.434C-39.7142 270.057 -40.0339 265.433 -38.372 262.064C-38.3712 262.061 -38.3701 262.059 -38.3693 262.059C-37.099 259.484 -34.6746 257.645 -31.4408 257.645C-30.3226 257.645 -29.1067 257.865 -27.8092 258.35C-34.1137 253.424 -41.8175 246.365 -43.8884 238.321C-45.4502 232.241 -42.4608 226.037 -36.1209 224.545C-35.1279 224.314 -34.1194 224.205 -33.1087 224.205C-30.0701 224.205 -27.0157 225.182 -24.3319 226.665C-17.6034 230.383 -11.9069 236.59 -7.96291 243.121C-10.267 239.311 -8.81822 232.745 -6.27378 229.493C-5.29928 228.249 -3.9925 227.226 -2.51673 226.687C-2.51564 226.687 -2.51482 226.687 -2.51374 226.687H-2.50666C-1.87069 226.461 -1.20641 226.328 -0.527718 226.298C-0.392738 226.292 -0.258575 226.29 -0.125233 226.29C2.94142 226.29 5.60042 227.754 7.88279 230.037L7.88633 230.04L7.88987 230.045H7.89695C7.94511 230.091 7.99382 230.14 8.04171 230.189C8.04308 230.189 8.04417 230.192 8.04526 230.192C13.6221 235.904 16.8376 246.485 17.7283 252.259C17.3326 249.693 17.4738 246.985 18.1239 244.561C18.1242 244.561 18.1245 244.561 18.1248 244.558C18.3721 243.619 18.697 242.724 19.0993 241.891C19.1001 241.888 19.1012 241.886 19.102 241.886C20.5984 238.737 23.1192 236.525 26.5116 236.525C28.2804 236.525 30.2866 237.126 32.5069 238.511C33.3051 239.006 34.0823 239.564 34.838 240.171C34.8386 240.171 34.8388 240.171 34.8394 240.174C35.8076 240.936 36.7405 241.79 37.6241 242.71C37.6249 242.71 37.6255 242.71 37.6263 242.713C42.763 248.098 46.1122 255.764 44.9814 262.96C45.5399 259.425 46.9109 254.874 49.4131 252.202C50.4287 251.122 51.416 250.675 52.3546 250.675C55.7388 250.675 58.4825 256.483 59.5832 259.305C60.4244 261.474 61.0601 263.713 61.477 265.988C61.4773 265.988 61.4775 265.991 61.4775 265.991C61.6471 266.924 61.7883 267.855 61.8803 268.794L61.8806 268.797C62.368 273.363 62.0077 278.014 60.792 282.48C61.64 279.369 67.1387 274.713 70.2415 274.125C70.6225 274.054 70.9921 274.019 71.3513 274.019C79.9235 274.019 82.4165 293.768 83.3591 301.844C83.3594 301.847 83.3597 301.85 83.3599 301.85C83.4514 302.639 83.5292 303.311 83.5926 303.845C84.9778 315.103 84.6741 327.555 79.0643 337.676C79.0635 337.676 79.0627 337.679 79.0622 337.679Z" fill="url(#paint1_linear_40_6234)"/>
</g>
<mask id="mask2_40_6234" style="mask-type:luminance" maskUnits="userSpaceOnUse" x="-27" y="242" width="102" height="96">
<path d="M74.5815 337.679H70.5104L51.4911 319.345L12.6184 321.988H12.5196C11.7846 321.988 11.1625 321.416 11.1133 320.673C11.0567 319.898 11.6434 319.217 12.4206 319.168L48.7418 316.695L24.0893 292.927L-7.95557 296.418C-8.0051 296.418 -8.05463 296.424 -8.11123 296.424C-8.81796 296.424 -9.43298 295.887 -9.51054 295.158C-9.59545 294.388 -9.03703 293.689 -8.25955 293.604L21.439 290.369L1.04138 270.713L-24.8547 272.337H-24.9467C-25.6888 272.337 -26.3106 271.758 -26.3601 271.009C-26.4026 270.231 -25.8159 269.561 -25.0313 269.51L-1.71505 268.048L-25.9288 244.71C-26.4872 244.174 -26.5085 243.276 -25.9642 242.718C-25.685 242.427 -25.313 242.283 -24.9415 242.283C-24.5886 242.283 -24.2361 242.414 -23.964 242.675L0.299274 266.07L1.18289 245.472L1.22534 244.555C1.26017 243.785 1.93016 243.205 2.67581 243.205C2.68479 243.205 2.69349 243.205 2.70247 243.205C3.47996 243.241 4.0879 243.897 4.05252 244.675L3.93931 247.29L3.01352 268.682L23.609 288.537L23.9056 286.608L27.793 261.079C27.9022 260.371 28.5071 259.876 29.1945 259.876C29.2639 259.876 29.3339 259.882 29.4043 259.893C30.1818 260.012 30.7119 260.733 30.5919 261.504L26.4501 288.692L26.1036 290.94L50.8127 314.765L51.7668 300.552L53.3501 277.001C53.4039 276.264 54.0268 275.684 54.7445 275.684C54.7812 275.684 54.8182 275.684 54.8555 275.687C55.633 275.744 56.2265 276.416 56.1699 277.192L54.5657 301.14L53.4771 317.331L74.5815 337.679Z" fill="white"/>
</mask>
<g mask="url(#mask2_40_6234)">
<path d="M74.5815 337.679H70.5104L51.4911 319.345L12.6184 321.988H12.5196C11.7846 321.988 11.1625 321.416 11.1133 320.673C11.0567 319.898 11.6434 319.217 12.4206 319.168L48.7418 316.695L24.0893 292.927L-7.95557 296.418C-8.0051 296.418 -8.05463 296.424 -8.11123 296.424C-8.81796 296.424 -9.43298 295.887 -9.51054 295.158C-9.59545 294.388 -9.03703 293.689 -8.25955 293.604L21.439 290.369L1.04138 270.713L-24.8547 272.337H-24.9467C-25.6888 272.337 -26.3106 271.758 -26.3601 271.009C-26.4026 270.231 -25.8159 269.561 -25.0313 269.51L-1.71505 268.048L-25.9288 244.71C-26.4872 244.174 -26.5085 243.276 -25.9642 242.718C-25.685 242.427 -25.313 242.283 -24.9415 242.283C-24.5886 242.283 -24.2361 242.414 -23.964 242.675L0.299274 266.07L1.18289 245.472L1.22534 244.555C1.26017 243.785 1.93016 243.205 2.67581 243.205C2.68479 243.205 2.69349 243.205 2.70247 243.205C3.47996 243.241 4.0879 243.897 4.05252 244.675L3.93931 247.29L3.01352 268.682L23.609 288.537L23.9056 286.608L27.793 261.079C27.9022 260.371 28.5071 259.876 29.1945 259.876C29.2639 259.876 29.3339 259.882 29.4043 259.893C30.1818 260.012 30.7119 260.733 30.5919 261.504L26.4501 288.692L26.1036 290.94L50.8127 314.765L51.7668 300.552L53.3501 277.001C53.4039 276.264 54.0268 275.684 54.7445 275.684C54.7812 275.684 54.8182 275.684 54.8555 275.687C55.633 275.744 56.2265 276.416 56.1699 277.192L54.5657 301.14L53.4771 317.331L74.5815 337.679Z" fill="url(#paint2_linear_40_6234)"/>
</g>
<mask id="mask3_40_6234" style="mask-type:luminance" maskUnits="userSpaceOnUse" x="-18" y="172" width="130" height="130">
<path d="M83.36 301.85C83.3597 301.85 83.3595 301.847 83.3592 301.844C82.4165 293.768 79.9235 274.019 71.3514 274.019C70.9921 274.019 70.6226 274.054 70.2416 274.125C67.1387 274.713 61.64 279.369 60.7921 282.48C62.0077 278.014 62.368 273.363 61.8806 268.797L61.8803 268.794L78.4317 267.667L102.62 290.986C102.568 291.049 102.516 291.112 102.463 291.174C97.476 297.068 90.7312 300.326 83.36 301.85ZM104.334 288.714L80.415 265.654L83.1124 225.52C83.1649 224.741 82.5763 224.066 81.7969 224.015C81.7582 224.012 81.7196 224.012 81.6812 224.012C80.9647 224.012 80.3415 224.592 80.2925 225.332L77.7546 263.09L53.0415 239.268L57.5328 209.829C57.65 209.058 57.1199 208.337 56.3482 208.218C56.276 208.207 56.2048 208.204 56.134 208.204C55.4452 208.204 54.8444 208.702 54.7371 209.404L50.5485 236.862L29.9552 217.01L30.992 193.003C31.0257 192.222 30.4205 191.563 29.6406 191.53C29.6319 191.53 29.6232 191.53 29.6144 191.53C28.8699 191.53 28.201 192.11 28.1678 192.88L27.2379 214.392L2.97571 191.002C2.70222 190.739 2.34872 190.608 1.99577 190.608C1.62512 190.608 1.25475 190.752 0.977722 191.041C0.435635 191.601 0.451687 192.496 1.01418 193.038L25.2244 216.376L1.90651 217.84C1.12739 217.889 0.534958 218.559 0.584213 219.34C0.631021 220.088 1.25284 220.665 1.99359 220.665C2.02298 220.665 2.05346 220.662 2.08339 220.662L27.9838 219.037L48.3788 238.696L34.838 240.171C34.0823 239.564 33.3051 239.006 32.5069 238.511C30.2866 237.126 28.2805 236.525 26.5116 236.525C23.1192 236.525 20.5984 238.737 19.102 241.886L18.6807 241.929C17.9051 242.014 17.3446 242.713 17.4286 243.488C17.4793 243.954 17.7495 244.34 18.1248 244.558C18.1245 244.561 18.1242 244.561 18.1239 244.561C17.4738 246.985 17.3326 249.693 17.7283 252.259C16.8376 246.485 13.6221 235.904 8.04527 230.192C8.04418 230.192 8.04308 230.189 8.04172 230.189C8.89132 230.325 9.59233 230.502 10.0827 230.638C9.36537 230.437 8.63089 230.241 7.88634 230.04L7.8828 230.037C5.60043 227.754 2.94143 226.29 -0.125229 226.29C-0.258574 226.29 -0.392736 226.293 -0.527714 226.298C-1.20641 226.328 -1.87069 226.461 -2.50666 226.687H-2.51373C-2.51482 226.687 -2.51564 226.687 -2.51673 226.687C-4.93027 225.615 -7.16992 224.268 -9.02123 222.461C-9.25254 222.235 -9.47787 222.001 -9.69666 221.762C-15.1211 215.802 -11.9676 205.97 -4.49894 205.97C-3.38047 205.97 -2.16649 206.19 -0.868969 206.677C-7.17481 201.749 -14.8791 194.693 -16.9468 186.646C-18.5091 180.566 -15.5159 174.367 -9.17852 172.873C-8.1866 172.639 -7.17808 172.53 -6.16792 172.53C-3.13011 172.53 -0.0751591 173.51 2.60725 174.99C9.33843 178.71 15.0309 184.918 18.9763 191.443C16.6767 187.639 18.1201 181.072 20.664 177.82C22.0587 176.038 24.1544 174.718 26.4166 174.626C26.55 174.62 26.6836 174.617 26.8156 174.617C29.043 174.617 31.0635 175.393 32.8773 176.691C32.8779 176.694 32.8776 176.694 32.8781 176.694C39.7582 181.625 43.6679 194.121 44.6674 200.584C43.534 193.258 46.8439 184.85 53.4521 184.85C55.2218 184.85 57.2272 185.451 59.4483 186.839C67.2503 191.715 73.3991 201.907 71.9228 211.287C72.4799 207.749 73.8536 203.197 76.3561 200.533C77.3715 199.449 78.3596 199.003 79.2982 199.003C82.6818 199.003 85.4263 204.81 86.5249 207.635C89.3913 214.999 89.812 223.177 87.7326 230.804C88.58 227.697 94.0782 223.038 97.1797 222.455C97.5601 222.382 97.93 222.349 98.2889 222.349C107.696 222.349 109.783 246.117 110.53 252.175C112.047 264.456 111.551 278.166 104.334 288.714ZM61.477 265.988C61.0601 263.713 60.4244 261.474 59.5833 259.305C58.4825 256.483 55.7389 250.675 52.3546 250.675C51.416 250.675 50.4287 251.122 49.4131 252.202C46.9109 254.874 45.5399 259.425 44.9815 262.96C46.1122 255.764 42.7631 248.098 37.6263 242.713L51.0299 241.254L75.6859 265.022L61.477 265.988Z" fill="white"/>
</mask>
<g mask="url(#mask3_40_6234)">
<path d="M83.36 301.85C83.3597 301.85 83.3595 301.847 83.3592 301.844C82.4165 293.768 79.9235 274.019 71.3514 274.019C70.9921 274.019 70.6226 274.054 70.2416 274.125C67.1387 274.713 61.64 279.369 60.7921 282.48C62.0077 278.014 62.368 273.363 61.8806 268.797L61.8803 268.794L78.4317 267.667L102.62 290.986C102.568 291.049 102.516 291.112 102.463 291.174C97.476 297.068 90.7312 300.326 83.36 301.85ZM104.334 288.714L80.415 265.654L83.1124 225.52C83.1649 224.741 82.5763 224.066 81.7969 224.015C81.7582 224.012 81.7196 224.012 81.6812 224.012C80.9647 224.012 80.3415 224.592 80.2925 225.332L77.7546 263.09L53.0415 239.268L57.5328 209.829C57.65 209.058 57.1199 208.337 56.3482 208.218C56.276 208.207 56.2048 208.204 56.134 208.204C55.4452 208.204 54.8444 208.702 54.7371 209.404L50.5485 236.862L29.9552 217.01L30.992 193.003C31.0257 192.222 30.4205 191.563 29.6406 191.53C29.6319 191.53 29.6232 191.53 29.6144 191.53C28.8699 191.53 28.201 192.11 28.1678 192.88L27.2379 214.392L2.97571 191.002C2.70222 190.739 2.34872 190.608 1.99577 190.608C1.62512 190.608 1.25475 190.752 0.977722 191.041C0.435635 191.601 0.451687 192.496 1.01418 193.038L25.2244 216.376L1.90651 217.84C1.12739 217.889 0.534958 218.559 0.584213 219.34C0.631021 220.088 1.25284 220.665 1.99359 220.665C2.02298 220.665 2.05346 220.662 2.08339 220.662L27.9838 219.037L48.3788 238.696L34.838 240.171C34.0823 239.564 33.3051 239.006 32.5069 238.511C30.2866 237.126 28.2805 236.525 26.5116 236.525C23.1192 236.525 20.5984 238.737 19.102 241.886L18.6807 241.929C17.9051 242.014 17.3446 242.713 17.4286 243.488C17.4793 243.954 17.7495 244.34 18.1248 244.558C18.1245 244.561 18.1242 244.561 18.1239 244.561C17.4738 246.985 17.3326 249.693 17.7283 252.259C16.8376 246.485 13.6221 235.904 8.04527 230.192C8.04418 230.192 8.04308 230.189 8.04172 230.189C8.89132 230.325 9.59233 230.502 10.0827 230.638C9.36537 230.437 8.63089 230.241 7.88634 230.04L7.8828 230.037C5.60043 227.754 2.94143 226.29 -0.125229 226.29C-0.258574 226.29 -0.392736 226.293 -0.527714 226.298C-1.20641 226.328 -1.87069 226.461 -2.50666 226.687H-2.51373C-2.51482 226.687 -2.51564 226.687 -2.51673 226.687C-4.93027 225.615 -7.16992 224.268 -9.02123 222.461C-9.25254 222.235 -9.47787 222.001 -9.69666 221.762C-15.1211 215.802 -11.9676 205.97 -4.49894 205.97C-3.38047 205.97 -2.16649 206.19 -0.868969 206.677C-7.17481 201.749 -14.8791 194.693 -16.9468 186.646C-18.5091 180.566 -15.5159 174.367 -9.17852 172.873C-8.1866 172.639 -7.17808 172.53 -6.16792 172.53C-3.13011 172.53 -0.0751591 173.51 2.60725 174.99C9.33843 178.71 15.0309 184.918 18.9763 191.443C16.6767 187.639 18.1201 181.072 20.664 177.82C22.0587 176.038 24.1544 174.718 26.4166 174.626C26.55 174.62 26.6836 174.617 26.8156 174.617C29.043 174.617 31.0635 175.393 32.8773 176.691C32.8779 176.694 32.8776 176.694 32.8781 176.694C39.7582 181.625 43.6679 194.121 44.6674 200.584C43.534 193.258 46.8439 184.85 53.4521 184.85C55.2218 184.85 57.2272 185.451 59.4483 186.839C67.2503 191.715 73.3991 201.907 71.9228 211.287C72.4799 207.749 73.8536 203.197 76.3561 200.533C77.3715 199.449 78.3596 199.003 79.2982 199.003C82.6818 199.003 85.4263 204.81 86.5249 207.635C89.3913 214.999 89.812 223.177 87.7326 230.804C88.58 227.697 94.0782 223.038 97.1797 222.455C97.5601 222.382 97.93 222.349 98.2889 222.349C107.696 222.349 109.783 246.117 110.53 252.175C112.047 264.456 111.551 278.166 104.334 288.714ZM61.477 265.988C61.0601 263.713 60.4244 261.474 59.5833 259.305C58.4825 256.483 55.7389 250.675 52.3546 250.675C51.416 250.675 50.4287 251.122 49.4131 252.202C46.9109 254.874 45.5399 259.425 44.9815 262.96C46.1122 255.764 42.7631 248.098 37.6263 242.713L51.0299 241.254L75.6859 265.022L61.477 265.988Z" fill="url(#paint3_linear_40_6234)"/>
</g>
<path d="M533.961 312.03C533.591 312.03 533.221 311.886 532.943 311.598C532.402 311.034 532.418 310.142 532.981 309.6L554.646 288.714C554.725 288.828 554.806 288.943 554.885 289.057C555.359 289.729 555.851 290.371 556.36 290.986L534.944 311.633C534.669 311.9 534.315 312.03 533.961 312.03Z" fill="#F2F8FD"/>
<mask id="mask4_40_6234" style="mask-type:luminance" maskUnits="userSpaceOnUse" x="554" y="190" width="105" height="101">
<path d="M556.361 290.986C555.852 290.371 555.359 289.729 554.886 289.057C554.807 288.943 554.725 288.828 554.646 288.714L578.567 265.654L575.87 225.52C575.818 224.741 576.406 224.066 577.184 224.015C577.225 224.012 577.263 224.012 577.301 224.012C578.017 224.012 578.64 224.592 578.689 225.332L581.228 263.09L605.941 239.268L601.45 209.828C601.333 209.058 601.861 208.337 602.634 208.217C602.705 208.207 602.778 208.204 602.849 208.204C603.538 208.204 604.136 208.702 604.245 209.404L608.433 236.862L629.028 217.01L627.989 193.003C627.956 192.222 628.563 191.563 629.341 191.53C629.349 191.53 629.358 191.53 629.368 191.53C630.111 191.53 630.781 192.11 630.813 192.88L631.744 214.392L656.007 191.002C656.28 190.738 656.633 190.608 656.987 190.608C657.357 190.608 657.727 190.752 658.005 191.04C658.546 191.601 658.53 192.496 657.967 193.038L633.758 216.376L657.074 217.84C657.855 217.889 658.446 218.558 658.397 219.339C658.35 220.088 657.73 220.665 656.99 220.665C656.96 220.665 656.927 220.662 656.9 220.662L630.998 219.037L610.602 238.696L624.143 240.171C624.143 240.171 624.143 240.171 624.143 240.174C623.175 240.936 622.241 241.79 621.357 242.71C621.357 242.71 621.357 242.71 621.357 242.713L607.952 241.254L583.296 265.022L597.505 265.988V265.991C597.336 266.924 597.194 267.855 597.102 268.794L580.551 267.667L556.361 290.986ZM640.858 244.558C640.61 243.619 640.286 242.724 639.884 241.891C639.881 241.888 639.881 241.886 639.881 241.886L640.303 241.929C641.078 242.013 641.639 242.713 641.554 243.488C641.503 243.954 641.233 244.34 640.858 244.558Z" fill="white"/>
</mask>
<g mask="url(#mask4_40_6234)">
<path d="M556.361 290.986C555.852 290.371 555.359 289.729 554.886 289.057C554.807 288.943 554.725 288.828 554.646 288.714L578.567 265.654L575.87 225.52C575.818 224.741 576.406 224.066 577.184 224.015C577.225 224.012 577.263 224.012 577.301 224.012C578.017 224.012 578.64 224.592 578.689 225.332L581.228 263.09L605.941 239.268L601.45 209.828C601.333 209.058 601.861 208.337 602.634 208.217C602.705 208.207 602.778 208.204 602.849 208.204C603.538 208.204 604.136 208.702 604.245 209.404L608.433 236.862L629.028 217.01L627.989 193.003C627.956 192.222 628.563 191.563 629.341 191.53C629.349 191.53 629.358 191.53 629.368 191.53C630.111 191.53 630.781 192.11 630.813 192.88L631.744 214.392L656.007 191.002C656.28 190.738 656.633 190.608 656.987 190.608C657.357 190.608 657.727 190.752 658.005 191.04C658.546 191.601 658.53 192.496 657.967 193.038L633.758 216.376L657.074 217.84C657.855 217.889 658.446 218.558 658.397 219.339C658.35 220.088 657.73 220.665 656.99 220.665C656.96 220.665 656.927 220.662 656.9 220.662L630.998 219.037L610.602 238.696L624.143 240.171C624.143 240.171 624.143 240.171 624.143 240.174C623.175 240.936 622.241 241.79 621.357 242.71C621.357 242.71 621.357 242.71 621.357 242.713L607.952 241.254L583.296 265.022L597.505 265.988V265.991C597.336 266.924 597.194 267.855 597.102 268.794L580.551 267.667L556.361 290.986ZM640.858 244.558C640.61 243.619 640.286 242.724 639.884 241.891C639.881 241.888 639.881 241.886 639.881 241.886L640.303 241.929C641.078 242.013 641.639 242.713 641.554 243.488C641.503 243.954 641.233 244.34 640.858 244.558Z" fill="url(#paint4_linear_40_6234)"/>
</g>
<mask id="mask5_40_6234" style="mask-type:luminance" maskUnits="userSpaceOnUse" x="574" y="224" width="130" height="114">
<path d="M662.703 337.679H588.471L607.491 319.345L646.362 321.988H646.463C647.197 321.988 647.818 321.416 647.867 320.673C647.924 319.898 647.339 319.217 646.561 319.168L610.239 316.695L634.892 292.927L666.938 296.418C666.987 296.418 667.036 296.424 667.093 296.424C667.798 296.424 668.413 295.887 668.492 295.158C668.576 294.388 668.018 293.689 667.24 293.604L637.542 290.369L657.938 270.713L683.834 272.337H683.927C684.67 272.337 685.29 271.758 685.342 271.009C685.383 270.231 684.798 269.561 684.011 269.51L660.695 268.048L684.909 244.71C685.467 244.174 685.489 243.276 684.945 242.718C684.667 242.427 684.294 242.283 683.922 242.283C683.571 242.283 683.217 242.414 682.945 242.675L658.681 266.07L657.8 245.472L657.756 244.555C657.721 243.785 657.051 243.205 656.306 243.205C656.297 243.205 656.287 243.205 656.278 243.205C655.5 243.241 654.893 243.897 654.929 244.675L655.043 247.29L655.968 268.682L635.373 288.537L635.077 286.608L631.188 261.079C631.079 260.372 630.475 259.876 629.786 259.876C629.718 259.876 629.648 259.882 629.577 259.893C628.799 260.012 628.271 260.733 628.39 261.504L632.532 288.692L632.878 290.94L608.168 314.765L607.213 300.552L605.632 277.002C605.578 276.264 604.954 275.684 604.236 275.684C604.201 275.684 604.162 275.684 604.127 275.687C603.349 275.744 602.756 276.416 602.81 277.192L604.416 301.14L605.504 317.331L584.4 337.679H579.918C579.918 337.679 579.918 337.676 579.915 337.676C574.307 327.555 574.002 315.103 575.387 303.845C575.453 303.311 575.529 302.639 575.621 301.85C575.621 301.85 575.621 301.847 575.621 301.844C576.566 293.768 579.058 274.019 587.63 274.019C587.99 274.019 588.36 274.054 588.738 274.125C591.843 274.713 597.34 279.369 598.189 282.48C596.973 278.014 596.613 273.363 597.101 268.797V268.794C597.193 267.855 597.335 266.924 597.503 265.991V265.988C597.92 263.713 598.557 261.474 599.397 259.305C600.5 256.483 603.243 250.675 606.625 250.675C607.564 250.675 608.552 251.122 609.567 252.202C612.071 254.874 613.442 259.425 614 262.96C612.868 255.764 616.218 248.098 621.356 242.713C621.356 242.71 621.356 242.71 621.356 242.71C622.24 241.79 623.174 240.936 624.142 240.174C624.142 240.171 624.142 240.171 624.142 240.171C624.899 239.564 625.677 239.006 626.475 238.511C628.695 237.126 630.701 236.525 632.47 236.525C635.86 236.525 638.383 238.737 639.88 241.886C639.88 241.886 639.88 241.888 639.882 241.891C640.285 242.724 640.609 243.619 640.857 244.558C640.857 244.561 640.857 244.561 640.857 244.561C641.507 246.985 641.649 249.693 641.251 252.259C642.144 246.485 645.358 235.904 650.936 230.192C650.936 230.192 650.936 230.189 650.939 230.189C650.988 230.14 651.034 230.091 651.083 230.045H651.092L651.094 230.04L651.097 230.037C653.38 227.754 656.039 226.29 659.106 226.29C659.239 226.29 659.373 226.292 659.509 226.298C660.186 226.328 660.85 226.461 661.487 226.687H661.495H661.498C662.973 227.226 664.279 228.249 665.256 229.493C667.798 232.745 669.248 239.311 666.943 243.121C670.886 236.59 676.585 230.383 683.312 226.665C685.998 225.182 689.051 224.205 692.091 224.205C693.101 224.205 694.107 224.314 695.101 224.545C701.441 226.037 704.432 232.241 702.87 238.321C700.799 246.365 693.095 253.424 686.79 258.35C688.088 257.865 689.304 257.645 690.423 257.645C697.893 257.645 701.047 267.477 695.618 273.434C690.804 278.719 682.86 280.373 676.231 282.205C677.216 281.952 678.748 281.644 680.536 281.644C682.449 281.644 684.651 281.995 686.79 283.138C698.579 289.449 682.975 299.216 676.691 301.605C676.008 301.863 675.241 302.185 674.416 302.527C671.202 303.872 667.139 305.597 664.089 305.597C663.844 305.597 663.607 305.586 663.376 305.564C666.81 305.915 670.549 306.928 673.257 309.14C673.295 309.173 673.336 309.206 673.374 309.238C678.166 313.277 676.702 319.547 673.793 324.399C670.816 329.354 667.044 333.82 662.703 337.679Z" fill="white"/>
</mask>
<g mask="url(#mask5_40_6234)">
<path d="M662.703 337.679H588.471L607.491 319.345L646.362 321.988H646.463C647.197 321.988 647.818 321.416 647.867 320.673C647.924 319.898 647.339 319.217 646.561 319.168L610.239 316.695L634.892 292.927L666.938 296.418C666.987 296.418 667.036 296.424 667.093 296.424C667.798 296.424 668.413 295.887 668.492 295.158C668.576 294.388 668.018 293.689 667.24 293.604L637.542 290.369L657.938 270.713L683.834 272.337H683.927C684.67 272.337 685.29 271.758 685.342 271.009C685.383 270.231 684.798 269.561 684.011 269.51L660.695 268.048L684.909 244.71C685.467 244.174 685.489 243.276 684.945 242.718C684.667 242.427 684.294 242.283 683.922 242.283C683.571 242.283 683.217 242.414 682.945 242.675L658.681 266.07L657.8 245.472L657.756 244.555C657.721 243.785 657.051 243.205 656.306 243.205C656.297 243.205 656.287 243.205 656.278 243.205C655.5 243.241 654.893 243.897 654.929 244.675L655.043 247.29L655.968 268.682L635.373 288.537L635.077 286.608L631.188 261.079C631.079 260.372 630.475 259.876 629.786 259.876C629.718 259.876 629.648 259.882 629.577 259.893C628.799 260.012 628.271 260.733 628.39 261.504L632.532 288.692L632.878 290.94L608.168 314.765L607.213 300.552L605.632 277.002C605.578 276.264 604.954 275.684 604.236 275.684C604.201 275.684 604.162 275.684 604.127 275.687C603.349 275.744 602.756 276.416 602.81 277.192L604.416 301.14L605.504 317.331L584.4 337.679H579.918C579.918 337.679 579.918 337.676 579.915 337.676C574.307 327.555 574.002 315.103 575.387 303.845C575.453 303.311 575.529 302.639 575.621 301.85C575.621 301.85 575.621 301.847 575.621 301.844C576.566 293.768 579.058 274.019 587.63 274.019C587.99 274.019 588.36 274.054 588.738 274.125C591.843 274.713 597.34 279.369 598.189 282.48C596.973 278.014 596.613 273.363 597.101 268.797V268.794C597.193 267.855 597.335 266.924 597.503 265.991V265.988C597.92 263.713 598.557 261.474 599.397 259.305C600.5 256.483 603.243 250.675 606.625 250.675C607.564 250.675 608.552 251.122 609.567 252.202C612.071 254.874 613.442 259.425 614 262.96C612.868 255.764 616.218 248.098 621.356 242.713C621.356 242.71 621.356 242.71 621.356 242.71C622.24 241.79 623.174 240.936 624.142 240.174C624.142 240.171 624.142 240.171 624.142 240.171C624.899 239.564 625.677 239.006 626.475 238.511C628.695 237.126 630.701 236.525 632.47 236.525C635.86 236.525 638.383 238.737 639.88 241.886C639.88 241.886 639.88 241.888 639.882 241.891C640.285 242.724 640.609 243.619 640.857 244.558C640.857 244.561 640.857 244.561 640.857 244.561C641.507 246.985 641.649 249.693 641.251 252.259C642.144 246.485 645.358 235.904 650.936 230.192C650.936 230.192 650.936 230.189 650.939 230.189C650.988 230.14 651.034 230.091 651.083 230.045H651.092L651.094 230.04L651.097 230.037C653.38 227.754 656.039 226.29 659.106 226.29C659.239 226.29 659.373 226.292 659.509 226.298C660.186 226.328 660.85 226.461 661.487 226.687H661.495H661.498C662.973 227.226 664.279 228.249 665.256 229.493C667.798 232.745 669.248 239.311 666.943 243.121C670.886 236.59 676.585 230.383 683.312 226.665C685.998 225.182 689.051 224.205 692.091 224.205C693.101 224.205 694.107 224.314 695.101 224.545C701.441 226.037 704.432 232.241 702.87 238.321C700.799 246.365 693.095 253.424 686.79 258.35C688.088 257.865 689.304 257.645 690.423 257.645C697.893 257.645 701.047 267.477 695.618 273.434C690.804 278.719 682.86 280.373 676.231 282.205C677.216 281.952 678.748 281.644 680.536 281.644C682.449 281.644 684.651 281.995 686.79 283.138C698.579 289.449 682.975 299.216 676.691 301.605C676.008 301.863 675.241 302.185 674.416 302.527C671.202 303.872 667.139 305.597 664.089 305.597C663.844 305.597 663.607 305.586 663.376 305.564C666.81 305.915 670.549 306.928 673.257 309.14C673.295 309.173 673.336 309.206 673.374 309.238C678.166 313.277 676.702 319.547 673.793 324.399C670.816 329.354 667.044 333.82 662.703 337.679Z" fill="url(#paint5_linear_40_6234)"/>
</g>
<mask id="mask6_40_6234" style="mask-type:luminance" maskUnits="userSpaceOnUse" x="584" y="242" width="102" height="96">
<path d="M588.472 337.679H584.401L605.505 317.331L604.417 301.14L602.811 277.192C602.757 276.416 603.35 275.744 604.128 275.687C604.164 275.684 604.202 275.684 604.237 275.684C604.955 275.684 605.579 276.264 605.633 277.001L607.214 300.552L608.169 314.765L632.879 290.94L632.533 288.692L628.392 261.504C628.272 260.733 628.8 260.012 629.578 259.893C629.649 259.882 629.72 259.876 629.788 259.876C630.476 259.876 631.08 260.371 631.189 261.079L635.078 286.608L635.374 288.537L655.969 268.682L655.044 247.29L654.93 244.675C654.894 243.897 655.501 243.241 656.28 243.205C656.288 243.205 656.299 243.205 656.307 243.205C657.052 243.205 657.722 243.785 657.757 244.555L657.801 245.472L658.683 266.07L682.946 242.675C683.218 242.414 683.572 242.283 683.923 242.283C684.296 242.283 684.668 242.427 684.946 242.718C685.49 243.276 685.468 244.174 684.911 244.71L660.696 268.048L684.013 269.51C684.799 269.561 685.384 270.231 685.343 271.009C685.292 271.758 684.671 272.337 683.928 272.337H683.836L657.94 270.713L637.543 290.369L667.241 293.604C668.019 293.689 668.577 294.388 668.493 295.158C668.414 295.887 667.799 296.424 667.094 296.424C667.037 296.424 666.988 296.418 666.939 296.418L634.893 292.927L610.24 316.695L646.562 319.168C647.34 319.217 647.925 319.898 647.868 320.673C647.819 321.416 647.199 321.988 646.464 321.988H646.363L607.492 319.345L588.472 337.679Z" fill="white"/>
</mask>
<g mask="url(#mask6_40_6234)">
<path d="M588.472 337.679H584.401L605.505 317.331L604.417 301.14L602.811 277.192C602.757 276.416 603.35 275.744 604.128 275.687C604.164 275.684 604.202 275.684 604.237 275.684C604.955 275.684 605.579 276.264 605.633 277.001L607.214 300.552L608.169 314.765L632.879 290.94L632.533 288.692L628.392 261.504C628.272 260.733 628.8 260.012 629.578 259.893C629.649 259.882 629.72 259.876 629.788 259.876C630.476 259.876 631.08 260.371 631.189 261.079L635.078 286.608L635.374 288.537L655.969 268.682L655.044 247.29L654.93 244.675C654.894 243.897 655.501 243.241 656.28 243.205C656.288 243.205 656.299 243.205 656.307 243.205C657.052 243.205 657.722 243.785 657.757 244.555L657.801 245.472L658.683 266.07L682.946 242.675C683.218 242.414 683.572 242.283 683.923 242.283C684.296 242.283 684.668 242.427 684.946 242.718C685.49 243.276 685.468 244.174 684.911 244.71L660.696 268.048L684.013 269.51C684.799 269.561 685.384 270.231 685.343 271.009C685.292 271.758 684.671 272.337 683.928 272.337H683.836L657.94 270.713L637.543 290.369L667.241 293.604C668.019 293.689 668.577 294.388 668.493 295.158C668.414 295.887 667.799 296.424 667.094 296.424C667.037 296.424 666.988 296.418 666.939 296.418L634.893 292.927L610.24 316.695L646.562 319.168C647.34 319.217 647.925 319.898 647.868 320.673C647.819 321.416 647.199 321.988 646.464 321.988H646.363L607.492 319.345L588.472 337.679Z" fill="url(#paint6_linear_40_6234)"/>
</g>
<mask id="mask7_40_6234" style="mask-type:luminance" maskUnits="userSpaceOnUse" x="547" y="172" width="130" height="130">
<path d="M575.622 301.85C568.25 300.326 561.506 297.068 556.518 291.174C556.466 291.112 556.415 291.049 556.36 290.986L580.55 267.667L597.101 268.794V268.797C596.614 273.363 596.973 278.014 598.19 282.48C597.341 279.369 591.843 274.713 588.738 274.125C588.36 274.054 587.99 274.019 587.631 274.019C579.059 274.019 576.566 293.768 575.622 301.844C575.622 301.847 575.622 301.85 575.622 301.85ZM554.646 288.714C547.429 278.164 546.934 264.456 548.452 252.175C549.198 246.117 551.285 222.349 560.693 222.349C561.052 222.349 561.422 222.382 561.803 222.455C564.902 223.038 570.402 227.697 571.249 230.804C569.169 223.177 569.591 214.999 572.457 207.635C573.556 204.81 576.299 199.003 579.682 199.003C580.621 199.003 581.609 199.449 582.626 200.533C585.127 203.197 586.502 207.749 587.059 211.287C585.582 201.907 591.732 191.715 599.534 186.839C601.755 185.451 603.76 184.85 605.529 184.85C612.136 184.85 615.448 193.258 614.313 200.584C615.576 192.418 621.487 174.617 632.165 174.617C632.299 174.617 632.432 174.62 632.565 174.626C634.827 174.718 636.922 176.038 638.318 177.82C640.863 181.072 642.305 187.639 640.005 191.443C643.951 184.918 649.642 178.71 656.374 174.99C659.057 173.51 662.111 172.53 665.15 172.53C666.16 172.53 667.167 172.639 668.16 172.873C674.498 174.367 677.492 180.566 675.929 186.646C673.861 194.693 666.157 201.749 659.849 206.677C661.147 206.19 662.361 205.97 663.479 205.97C670.949 205.97 674.103 215.802 668.677 221.762C668.459 222.001 668.234 222.235 668.002 222.461C668.002 222.464 668 222.464 668 222.466C666.149 224.271 663.909 225.615 661.498 226.687H661.496H661.487C660.851 226.461 660.187 226.328 659.509 226.298C659.373 226.293 659.24 226.29 659.106 226.29C656.039 226.29 653.381 227.754 651.097 230.037L651.095 230.04C650.349 230.241 649.617 230.437 648.899 230.638C649.389 230.502 650.091 230.325 650.94 230.189C650.937 230.189 650.937 230.192 650.937 230.192C645.358 235.904 642.144 246.485 641.252 252.259C641.649 249.693 641.508 246.985 640.857 244.561C640.857 244.561 640.857 244.561 640.857 244.558C641.233 244.34 641.502 243.954 641.554 243.488C641.638 242.713 641.078 242.014 640.302 241.929L639.88 241.886C638.383 238.737 635.861 236.525 632.47 236.525C630.701 236.525 628.696 237.126 626.475 238.511C625.678 239.006 624.899 239.564 624.143 240.171L610.602 238.696L630.998 219.037L656.899 220.662C656.927 220.662 656.959 220.665 656.989 220.665C657.729 220.665 658.35 220.088 658.396 219.34C658.445 218.559 657.855 217.889 657.074 217.84L633.757 216.376L657.966 193.038C658.529 192.496 658.546 191.601 658.004 191.041C657.727 190.752 657.357 190.608 656.986 190.608C656.633 190.608 656.279 190.739 656.007 191.002L631.743 214.392L630.813 192.88C630.78 192.11 630.111 191.53 629.368 191.53C629.357 191.53 629.349 191.53 629.341 191.53C628.562 191.563 627.955 192.222 627.988 193.003L629.028 217.01L608.433 236.862L604.245 209.404C604.136 208.702 603.537 208.204 602.848 208.204C602.778 208.204 602.704 208.207 602.634 208.218C601.861 208.337 601.333 209.058 601.45 209.829L605.94 239.268L581.228 263.09L578.689 225.332C578.64 224.592 578.016 224.012 577.301 224.012C577.263 224.012 577.225 224.012 577.184 224.015C576.405 224.066 575.818 224.741 575.869 225.52L578.566 265.654L554.646 288.714ZM597.504 265.988L583.296 265.022L607.951 241.254L621.356 242.713C616.218 248.098 612.868 255.764 614 262.96C613.443 259.425 612.071 254.874 609.567 252.202C608.552 251.122 607.565 250.675 606.626 250.675C603.243 250.675 600.5 256.483 599.398 259.305C598.557 261.474 597.92 263.713 597.504 265.988Z" fill="white"/>
</mask>
<g mask="url(#mask7_40_6234)">
<path d="M575.622 301.85C568.25 300.326 561.506 297.068 556.518 291.174C556.466 291.112 556.415 291.049 556.36 290.986L580.55 267.667L597.101 268.794V268.797C596.614 273.363 596.973 278.014 598.19 282.48C597.341 279.369 591.843 274.713 588.738 274.125C588.36 274.054 587.99 274.019 587.631 274.019C579.059 274.019 576.566 293.768 575.622 301.844C575.622 301.847 575.622 301.85 575.622 301.85ZM554.646 288.714C547.429 278.164 546.934 264.456 548.452 252.175C549.198 246.117 551.285 222.349 560.693 222.349C561.052 222.349 561.422 222.382 561.803 222.455C564.902 223.038 570.402 227.697 571.249 230.804C569.169 223.177 569.591 214.999 572.457 207.635C573.556 204.81 576.299 199.003 579.682 199.003C580.621 199.003 581.609 199.449 582.626 200.533C585.127 203.197 586.502 207.749 587.059 211.287C585.582 201.907 591.732 191.715 599.534 186.839C601.755 185.451 603.76 184.85 605.529 184.85C612.136 184.85 615.448 193.258 614.313 200.584C615.576 192.418 621.487 174.617 632.165 174.617C632.299 174.617 632.432 174.62 632.565 174.626C634.827 174.718 636.922 176.038 638.318 177.82C640.863 181.072 642.305 187.639 640.005 191.443C643.951 184.918 649.642 178.71 656.374 174.99C659.057 173.51 662.111 172.53 665.15 172.53C666.16 172.53 667.167 172.639 668.16 172.873C674.498 174.367 677.492 180.566 675.929 186.646C673.861 194.693 666.157 201.749 659.849 206.677C661.147 206.19 662.361 205.97 663.479 205.97C670.949 205.97 674.103 215.802 668.677 221.762C668.459 222.001 668.234 222.235 668.002 222.461C668.002 222.464 668 222.464 668 222.466C666.149 224.271 663.909 225.615 661.498 226.687H661.496H661.487C660.851 226.461 660.187 226.328 659.509 226.298C659.373 226.293 659.24 226.29 659.106 226.29C656.039 226.29 653.381 227.754 651.097 230.037L651.095 230.04C650.349 230.241 649.617 230.437 648.899 230.638C649.389 230.502 650.091 230.325 650.94 230.189C650.937 230.189 650.937 230.192 650.937 230.192C645.358 235.904 642.144 246.485 641.252 252.259C641.649 249.693 641.508 246.985 640.857 244.561C640.857 244.561 640.857 244.561 640.857 244.558C641.233 244.34 641.502 243.954 641.554 243.488C641.638 242.713 641.078 242.014 640.302 241.929L639.88 241.886C638.383 238.737 635.861 236.525 632.47 236.525C630.701 236.525 628.696 237.126 626.475 238.511C625.678 239.006 624.899 239.564 624.143 240.171L610.602 238.696L630.998 219.037L656.899 220.662C656.927 220.662 656.959 220.665 656.989 220.665C657.729 220.665 658.35 220.088 658.396 219.34C658.445 218.559 657.855 217.889 657.074 217.84L633.757 216.376L657.966 193.038C658.529 192.496 658.546 191.601 658.004 191.041C657.727 190.752 657.357 190.608 656.986 190.608C656.633 190.608 656.279 190.739 656.007 191.002L631.743 214.392L630.813 192.88C630.78 192.11 630.111 191.53 629.368 191.53C629.357 191.53 629.349 191.53 629.341 191.53C628.562 191.563 627.955 192.222 627.988 193.003L629.028 217.01L608.433 236.862L604.245 209.404C604.136 208.702 603.537 208.204 602.848 208.204C602.778 208.204 602.704 208.207 602.634 208.218C601.861 208.337 601.333 209.058 601.45 209.829L605.94 239.268L581.228 263.09L578.689 225.332C578.64 224.592 578.016 224.012 577.301 224.012C577.263 224.012 577.225 224.012 577.184 224.015C576.405 224.066 575.818 224.741 575.869 225.52L578.566 265.654L554.646 288.714ZM597.504 265.988L583.296 265.022L607.951 241.254L621.356 242.713C616.218 248.098 612.868 255.764 614 262.96C613.443 259.425 612.071 254.874 609.567 252.202C608.552 251.122 607.565 250.675 606.626 250.675C603.243 250.675 600.5 256.483 599.398 259.305C598.557 261.474 597.92 263.713 597.504 265.988Z" fill="url(#paint7_linear_40_6234)"/>
</g>
<path d="M379.057 324.902L376.801 307.896H376.796L373.506 283.162H297.507L296.13 293.514H296.133L291.956 324.902L291.719 326.655H379.294L379.057 324.902Z" fill="#1D2848"/>
<path d="M393.954 326.657H277.06C275.536 326.657 274.156 327.275 273.163 328.271C272.161 329.267 271.549 330.644 271.549 332.168C271.549 335.216 274.009 337.679 277.06 337.679H393.954C395.481 337.679 396.857 337.061 397.851 336.065C398.847 335.069 399.465 333.692 399.465 332.168C399.465 329.126 396.996 326.657 393.954 326.657Z" fill="#1D2848"/>
<path d="M376.796 307.896L296.133 293.514H296.131L297.508 283.162H373.506L376.796 307.896Z" fill="#404D76"/>
<path d="M379.057 324.902L376.801 307.896L296.133 293.514L291.956 324.902L291.719 326.655H379.294L379.057 324.902Z" fill="#1D2848"/>
<path d="M393.954 337.679H277.06C274.009 337.679 271.549 335.216 271.549 332.168C271.549 330.644 272.161 329.267 273.163 328.271C273.203 328.228 273.247 328.187 273.293 328.146C274.276 327.223 275.601 326.657 277.06 326.657H393.954C396.98 326.657 399.437 329.096 399.465 332.114C399.465 332.133 399.465 332.149 399.465 332.168C399.465 333.692 398.847 335.069 397.851 336.065C396.904 337.015 395.608 337.619 394.169 337.676C394.098 337.679 394.027 337.679 393.954 337.679Z" fill="#404D76"/>
<path d="M141.393 18.4599C141.393 16.7264 142.8 15.3277 144.524 15.3277H526.484C528.21 15.3277 529.611 16.7264 529.611 18.4599V217.614C529.611 219.345 528.21 220.744 526.484 220.744H144.524C142.8 220.744 141.393 219.345 141.393 217.614V18.4599ZM535.065 0.0175171H135.951C130.502 0.0175171 126.084 4.43695 126.084 9.87958V236.054H544.919V9.87958C544.919 4.43695 540.507 0.0175171 535.065 0.0175171Z" fill="#213253"/>
<path d="M529.609 217.611C529.609 219.342 528.21 220.744 526.485 220.744H144.523C142.798 220.744 141.392 219.342 141.392 217.611V18.4572C141.392 16.7265 142.798 15.325 144.523 15.325H526.485C528.21 15.325 529.609 16.7265 529.609 18.4572V217.611ZM535.065 5.66977H135.95C133.625 5.66977 131.738 7.55838 131.738 9.87694V230.396H539.27V9.87694C539.27 7.55838 537.384 5.66977 535.065 5.66977Z" fill="#1D2848"/>
<mask id="mask8_40_6234" style="mask-type:luminance" maskUnits="userSpaceOnUse" x="141" y="15" width="389" height="206">
<path d="M526.485 220.744H144.523C142.798 220.744 141.392 219.342 141.392 217.611V18.4572C141.392 16.7265 142.798 15.325 144.523 15.325H526.485C528.21 15.325 529.609 16.7265 529.609 18.4572V217.611C529.609 219.342 528.21 220.744 526.485 220.744ZM279.55 174.459V179.537H284.628V174.459H279.55Z" fill="white"/>
</mask>
<g mask="url(#mask8_40_6234)">
<path d="M526.485 220.744H144.523C142.798 220.744 141.392 219.342 141.392 217.611V18.4572C141.392 16.7265 142.798 15.325 144.523 15.325H526.485C528.21 15.325 529.609 16.7265 529.609 18.4572V217.611C529.609 219.342 528.21 220.744 526.485 220.744ZM279.55 174.459V179.537H284.628V174.459H279.55Z" fill="url(#paint8_linear_40_6234)"/>
</g>
<path d="M375.068 68.7037C375.068 90.5586 357.352 108.274 335.5 108.274C313.648 108.274 295.932 90.5586 295.932 68.7037C295.932 46.8516 313.648 29.1358 335.5 29.1358C357.352 29.1358 375.068 46.8516 375.068 68.7037Z" fill="#1D2848"/>
<path d="M346.374 56.0987C346.374 62.072 341.533 68.5215 335.557 68.5215C329.584 68.5215 324.743 62.072 324.743 56.0987C324.743 50.1254 329.584 45.8883 335.557 45.8883C341.533 45.8883 346.374 50.1254 346.374 56.0987Z" fill="white"/>
<path d="M322.136 91.522H348.541C351.32 91.522 353.783 89.7259 354.629 87.0781L356.05 82.6369C357.089 79.3849 355.399 75.8662 352.191 74.6933C341.447 70.7638 330.333 71.2672 318.95 75.0553C315.763 76.1166 313.992 79.5291 314.873 82.7729L315.967 86.8059C316.721 89.5898 319.249 91.522 322.136 91.522Z" fill="white"/>
<path d="M393.056 141.009H277.944C276.839 141.009 275.944 140.114 275.944 139.006V123.37C275.944 122.265 276.839 121.37 277.944 121.37H393.056C394.16 121.37 395.058 122.265 395.058 123.37V139.006C395.058 140.114 394.16 141.009 393.056 141.009Z" fill="white"/>
<path d="M302.243 132.946C301.922 132.614 301.761 132.13 301.761 131.496V128.932H302.232V131.477C302.232 131.996 302.346 132.383 302.578 132.639C302.812 132.894 303.146 133.022 303.585 133.022C304.028 133.022 304.366 132.894 304.597 132.639C304.831 132.383 304.945 131.996 304.945 131.477V128.932H305.402V131.496C305.402 132.13 305.242 132.614 304.923 132.946C304.605 133.278 304.159 133.444 303.585 133.444C303.01 133.444 302.564 133.278 302.243 132.946Z" fill="#1D2848"/>
<path d="M307.152 133.321C306.904 133.243 306.711 133.142 306.572 133.022L306.774 132.666C306.915 132.777 307.089 132.867 307.299 132.938C307.511 133.006 307.732 133.041 307.957 133.041C308.262 133.041 308.488 132.995 308.632 132.9C308.777 132.802 308.85 132.668 308.85 132.491C308.85 132.369 308.809 132.271 308.73 132.203C308.651 132.132 308.548 132.078 308.425 132.042C308.303 132.007 308.142 131.969 307.938 131.936C307.669 131.885 307.451 131.833 307.288 131.778C307.122 131.727 306.983 131.637 306.866 131.509C306.752 131.381 306.692 131.204 306.692 130.978C306.692 130.695 306.809 130.467 307.04 130.287C307.272 130.108 307.595 130.018 308.009 130.018C308.224 130.018 308.439 130.048 308.654 130.105C308.869 130.162 309.046 130.238 309.187 130.331L308.989 130.695C308.717 130.505 308.387 130.41 308.009 130.41C307.723 130.41 307.506 130.459 307.359 130.562C307.215 130.663 307.141 130.799 307.141 130.965C307.141 131.093 307.182 131.193 307.266 131.272C307.348 131.348 307.451 131.406 307.574 131.441C307.693 131.476 307.862 131.514 308.077 131.553C308.344 131.604 308.556 131.656 308.717 131.705C308.877 131.757 309.016 131.844 309.13 131.969C309.242 132.091 309.299 132.263 309.299 132.481C309.299 132.774 309.179 133.006 308.937 133.18C308.695 133.351 308.357 133.438 307.927 133.438C307.658 133.438 307.397 133.4 307.152 133.321Z" fill="#1D2848"/>
<path d="M310.929 130.717C310.711 130.924 310.589 131.193 310.559 131.528H312.921C312.891 131.193 312.766 130.924 312.551 130.717C312.333 130.513 312.061 130.41 311.737 130.41C311.416 130.41 311.147 130.513 310.929 130.717ZM313.343 131.866H310.559C310.583 132.217 310.717 132.497 310.959 132.712C311.198 132.93 311.503 133.036 311.871 133.036C312.075 133.036 312.265 132.998 312.439 132.924C312.611 132.851 312.76 132.739 312.888 132.595L313.141 132.889C312.994 133.068 312.809 133.204 312.589 133.297C312.366 133.392 312.124 133.438 311.857 133.438C311.514 133.438 311.212 133.365 310.948 133.218C310.684 133.071 310.48 132.867 310.33 132.608C310.183 132.347 310.11 132.053 310.11 131.724C310.11 131.397 310.181 131.104 310.322 130.842C310.464 130.584 310.657 130.38 310.904 130.235C311.152 130.091 311.43 130.018 311.737 130.018C312.045 130.018 312.32 130.091 312.565 130.235C312.809 130.38 313.003 130.581 313.141 130.84C313.28 131.098 313.351 131.392 313.351 131.724L313.343 131.866Z" fill="#1D2848"/>
<path d="M315.487 130.192C315.694 130.075 315.953 130.018 316.26 130.018V130.459L316.154 130.453C315.803 130.453 315.531 130.562 315.332 130.78C315.134 130.997 315.033 131.302 315.033 131.694V133.406H314.584V130.045H315.014V130.703C315.12 130.478 315.278 130.306 315.487 130.192Z" fill="#1D2848"/>
<path d="M320.081 130.385C320.328 130.63 320.451 130.989 320.451 131.457V133.406H320.002V131.501C320.002 131.153 319.915 130.886 319.743 130.703C319.569 130.518 319.322 130.429 319.003 130.429C318.644 130.429 318.361 130.535 318.151 130.75C317.942 130.965 317.838 131.264 317.838 131.642V133.406H317.389V130.045H317.819V130.663C317.942 130.459 318.111 130.301 318.328 130.186C318.546 130.075 318.796 130.018 319.085 130.018C319.501 130.018 319.833 130.14 320.081 130.385Z" fill="#1D2848"/>
<path d="M323.648 132.905C323.827 132.788 323.963 132.619 324.053 132.396V131.847H323.008C322.437 131.847 322.154 132.048 322.154 132.448C322.154 132.644 322.227 132.799 322.374 132.911C322.521 133.025 322.731 133.079 322.995 133.079C323.248 133.079 323.465 133.022 323.648 132.905ZM324.154 130.347C324.385 130.567 324.502 130.891 324.502 131.321V133.406H324.072V132.883C323.969 133.057 323.822 133.194 323.623 133.292C323.427 133.389 323.196 133.438 322.927 133.438C322.554 133.438 322.26 133.349 322.04 133.169C321.819 132.992 321.71 132.755 321.71 132.462C321.71 132.176 321.814 131.944 322.018 131.77C322.222 131.596 322.548 131.509 322.995 131.509H324.053V131.302C324.053 131.014 323.972 130.793 323.811 130.641C323.651 130.491 323.416 130.415 323.109 130.415C322.897 130.415 322.695 130.45 322.502 130.521C322.306 130.589 322.14 130.687 322.001 130.81L321.8 130.472C321.969 130.328 322.17 130.216 322.407 130.137C322.644 130.059 322.891 130.018 323.153 130.018C323.588 130.018 323.923 130.129 324.154 130.347Z" fill="#1D2848"/>
<path d="M331.176 130.382C331.415 130.625 331.532 130.984 331.532 131.457V133.406H331.083V131.501C331.083 131.153 331.002 130.886 330.833 130.703C330.667 130.518 330.433 130.429 330.128 130.429C329.783 130.429 329.51 130.535 329.312 130.75C329.113 130.965 329.015 131.264 329.015 131.642V133.406H328.566V131.501C328.566 131.153 328.482 130.886 328.316 130.703C328.147 130.518 327.91 130.429 327.603 130.429C327.26 130.429 326.991 130.535 326.789 130.75C326.59 130.965 326.49 131.264 326.49 131.642V133.406H326.041V130.045H326.471V130.657C326.588 130.453 326.754 130.295 326.963 130.184C327.176 130.075 327.418 130.018 327.693 130.018C327.97 130.018 328.212 130.078 328.416 130.197C328.621 130.317 328.773 130.494 328.876 130.728C328.999 130.508 329.173 130.333 329.404 130.205C329.633 130.08 329.897 130.018 330.191 130.018C330.61 130.018 330.936 130.14 331.176 130.382Z" fill="#1D2848"/>
<path d="M333.568 130.717C333.35 130.924 333.227 131.193 333.198 131.528H335.557C335.53 131.193 335.405 130.924 335.187 130.717C334.969 130.513 334.7 130.41 334.373 130.41C334.055 130.41 333.785 130.513 333.568 130.717ZM335.981 131.866H333.198C333.222 132.217 333.355 132.497 333.595 132.712C333.837 132.93 334.142 133.036 334.506 133.036C334.713 133.036 334.904 132.998 335.078 132.924C335.249 132.851 335.399 132.739 335.527 132.595L335.78 132.889C335.63 133.068 335.448 133.204 335.225 133.297C335.005 133.392 334.76 133.438 334.496 133.438C334.153 133.438 333.851 133.365 333.587 133.218C333.323 133.071 333.119 132.867 332.969 132.608C332.822 132.347 332.749 132.053 332.749 131.724C332.749 131.397 332.819 131.104 332.961 130.842C333.102 130.584 333.295 130.38 333.543 130.235C333.788 130.091 334.066 130.018 334.373 130.018C334.683 130.018 334.958 130.091 335.203 130.235C335.448 130.38 335.641 130.581 335.78 130.84C335.919 131.098 335.99 131.392 335.99 131.724L335.981 131.866Z" fill="#1D2848"/>
<path d="M286.486 130.829C287.05 130.546 287.439 129.969 287.439 129.297C287.439 128.347 286.671 127.579 285.722 127.579C284.772 127.579 284.004 128.347 284.004 129.297C284.004 129.969 284.394 130.546 284.957 130.829C283.808 131.161 282.965 132.208 282.965 133.463V134.758H288.478V133.463C288.478 132.208 287.635 131.161 286.486 130.829Z" fill="#1D2848"/>
<path d="M393.056 165.926H277.944C276.839 165.926 275.944 165.027 275.944 163.923V148.286C275.944 147.181 276.839 146.283 277.944 146.283H393.056C394.16 146.283 395.058 147.181 395.058 148.286V163.923C395.058 165.027 394.16 165.926 393.056 165.926Z" fill="white"/>
<path d="M302.597 156.265L303.383 156.714L303.236 156.981L302.447 156.515V157.421H302.156L302.161 156.515L301.369 156.981L301.217 156.714L302.009 156.265L301.217 155.819L301.369 155.544L302.161 156.017L302.156 155.108H302.447V156.017L303.236 155.544L303.383 155.819L302.597 156.265Z" fill="#1D2848"/>
<path d="M305.484 156.265L306.267 156.714L306.123 156.981L305.331 156.515V157.422H305.04L305.046 156.515L304.256 156.981L304.104 156.714L304.896 156.265L304.104 155.819L304.256 155.544L305.046 156.017L305.04 155.109H305.331V156.017L306.123 155.544L306.267 155.819L305.484 156.265Z" fill="#1D2848"/>
<path d="M308.368 156.265L309.155 156.714L309.008 156.981L308.219 156.515V157.422H307.928L307.933 156.515L307.141 156.981L306.989 156.714L307.781 156.265L306.989 155.819L307.141 155.544L307.933 156.017L307.928 155.109H308.219V156.017L309.008 155.544L309.155 155.819L308.368 156.265Z" fill="#1D2848"/>
<path d="M311.256 156.265L312.04 156.714L311.895 156.981L311.104 156.515V157.422H310.812L310.818 156.515L310.029 156.981L309.876 156.714L310.665 156.265L309.876 155.819L310.029 155.544L310.818 156.017L310.812 155.109H311.104V156.017L311.895 155.544L312.04 155.819L311.256 156.265Z" fill="#1D2848"/>
<path d="M314.14 156.265L314.927 156.714L314.78 156.981L313.991 156.515V157.422H313.699L313.705 156.515L312.913 156.981L312.76 156.714L313.552 156.265L312.76 155.819L312.913 155.544L313.705 156.017L313.699 155.109H313.991V156.017L314.78 155.544L314.927 155.819L314.14 156.265Z" fill="#1D2848"/>
<path d="M317.028 156.265L317.812 156.714L317.668 156.981L316.876 156.515V157.421H316.585L316.59 156.515L315.801 156.981L315.648 156.714L316.438 156.265L315.648 155.819L315.801 155.544L316.59 156.017L316.585 155.108H316.876V156.017L317.668 155.544L317.812 155.819L317.028 156.265Z" fill="#1D2848"/>
<path d="M319.912 156.265L320.698 156.714L320.551 156.981L319.76 156.515V157.422H319.468L319.477 156.515L318.685 156.981L318.532 156.714L319.324 156.265L318.532 155.819L318.685 155.544L319.477 156.017L319.468 155.109H319.76V156.017L320.551 155.544L320.698 155.819L319.912 156.265Z" fill="#1D2848"/>
<path d="M322.799 156.265L323.583 156.714L323.439 156.981L322.647 156.515V157.422H322.356L322.361 156.515L321.572 156.981L321.42 156.714L322.209 156.265L321.42 155.819L321.572 155.544L322.361 156.017L322.356 155.109H322.647V156.017L323.439 155.544L323.583 155.819L322.799 156.265Z" fill="#1D2848"/>
<path d="M325.684 156.265L326.468 156.714L326.324 156.981L325.532 156.515V157.422H325.241L325.249 156.515L324.457 156.981L324.305 156.714L325.097 156.265L324.305 155.819L324.457 155.544L325.249 156.017L325.241 155.109H325.532V156.017L326.324 155.544L326.468 155.819L325.684 156.265Z" fill="#1D2848"/>
<path d="M328.571 156.265L329.355 156.714L329.208 156.981L328.419 156.515V157.421H328.128L328.133 156.515L327.341 156.981L327.191 156.714L327.981 156.265L327.191 155.819L327.341 155.544L328.133 156.017L328.128 155.108H328.419V156.017L329.208 155.544L329.355 155.819L328.571 156.265Z" fill="#1D2848"/>
<path d="M331.456 156.265L332.24 156.714L332.095 156.981L331.303 156.515V157.421H331.012L331.02 156.515L330.229 156.981L330.076 156.714L330.868 156.265L330.076 155.819L330.229 155.544L331.02 156.017L331.012 155.108H331.303V156.017L332.095 155.544L332.24 155.819L331.456 156.265Z" fill="#1D2848"/>
<path d="M334.341 156.265L335.127 156.714L334.98 156.981L334.191 156.515V157.421H333.897L333.905 156.515L333.113 156.981L332.961 156.714L333.753 156.265L332.961 155.819L333.113 155.544L333.905 156.017L333.897 155.108H334.191V156.017L334.98 155.544L335.127 155.819L334.341 156.265Z" fill="#1D2848"/>
<path d="M285.84 157.81V158.809C285.84 158.85 285.804 158.883 285.761 158.883H285.285C285.247 158.883 285.211 158.85 285.211 158.809V157.81C284.885 157.683 284.648 157.367 284.648 156.994C284.648 156.51 285.042 156.115 285.527 156.115C286.011 156.115 286.403 156.51 286.403 156.994C286.403 157.367 286.166 157.683 285.84 157.81ZM284.368 153.734C284.368 153.127 284.863 152.634 285.47 152.634C286.077 152.634 286.569 153.127 286.569 153.734V154.335H284.368V153.734ZM287.96 154.335H287.478V153.734C287.478 152.626 286.577 151.726 285.47 151.726C284.362 151.726 283.459 152.626 283.459 153.734V154.335H282.977C282.601 154.335 282.294 154.643 282.294 155.018V158.929C282.294 159.313 282.601 159.62 282.977 159.62H287.96C288.341 159.62 288.651 159.313 288.651 158.929V155.018C288.651 154.643 288.341 154.335 287.96 154.335Z" fill="#1D2848"/>
<path d="M393.056 206.93H277.944C276.839 206.93 275.944 206.035 275.944 204.93V189.294C275.944 188.186 276.839 187.291 277.944 187.291H393.056C394.16 187.291 395.058 188.186 395.058 189.294V204.93C395.058 206.035 394.16 206.93 393.056 206.93Z" fill="#1D2848"/>
<path d="M319.615 194.293H320.72V199.357H323.828V200.299H319.615V194.293Z" fill="white"/>
<path d="M329.549 199.136C329.865 198.957 330.115 198.706 330.295 198.383C330.477 198.059 330.567 197.697 330.567 197.297C330.567 196.897 330.477 196.535 330.295 196.211C330.115 195.887 329.865 195.637 329.549 195.457C329.23 195.275 328.874 195.185 328.477 195.185C328.082 195.185 327.726 195.275 327.407 195.457C327.089 195.637 326.841 195.887 326.659 196.211C326.476 196.535 326.387 196.897 326.387 197.297C326.387 197.697 326.476 198.059 326.659 198.383C326.841 198.706 327.089 198.957 327.407 199.136C327.726 199.319 328.082 199.406 328.477 199.406C328.874 199.406 329.23 199.319 329.549 199.136ZM326.838 199.988C326.351 199.721 325.968 199.351 325.69 198.881C325.412 198.407 325.274 197.879 325.274 197.297C325.274 196.712 325.412 196.187 325.69 195.713C325.968 195.239 326.351 194.872 326.838 194.605C327.326 194.339 327.87 194.205 328.477 194.205C329.084 194.205 329.631 194.339 330.118 194.605C330.605 194.872 330.986 195.239 331.263 195.708C331.541 196.178 331.68 196.706 331.68 197.297C331.68 197.885 331.541 198.415 331.263 198.883C330.986 199.354 330.605 199.721 330.118 199.988C329.631 200.252 329.084 200.385 328.477 200.385C327.87 200.385 327.326 200.252 326.838 199.988Z" fill="white"/>
<path d="M338.017 197.229H339.062V199.624C338.757 199.868 338.401 200.056 337.992 200.19C337.584 200.32 337.165 200.385 336.735 200.385C336.128 200.385 335.581 200.252 335.094 199.988C334.607 199.721 334.226 199.354 333.949 198.883C333.671 198.415 333.532 197.885 333.532 197.297C333.532 196.706 333.671 196.178 333.949 195.708C334.226 195.239 334.61 194.872 335.1 194.605C335.59 194.339 336.139 194.205 336.752 194.205C337.25 194.205 337.704 194.29 338.109 194.456C338.518 194.622 338.861 194.864 339.138 195.185L338.441 195.871C337.99 195.416 337.443 195.185 336.803 195.185C336.384 195.185 336.011 195.275 335.685 195.452C335.361 195.629 335.105 195.879 334.92 196.197C334.738 196.519 334.645 196.886 334.645 197.297C334.645 197.697 334.738 198.056 334.92 198.377C335.105 198.698 335.361 198.951 335.685 199.134C336.011 199.316 336.381 199.406 336.795 199.406C337.258 199.406 337.666 199.305 338.017 199.098V197.229Z" fill="white"/>
<path d="M341.618 194.293H342.723V200.299H341.618V194.293Z" fill="white"/>
<path d="M350.718 194.293V200.299H349.809L346.53 196.233V200.299H345.433V194.293H346.345L349.621 198.361V194.293H350.718Z" fill="white"/>
<path d="M544.922 236.051V277.459C544.922 282.066 541.191 285.797 536.584 285.797H134.424C129.819 285.797 126.088 282.066 126.088 277.459V236.051H544.922Z" fill="#1D2848"/>
<path d="M77.4007 133.691H15.3777C9.41334 133.691 4.57837 128.858 4.57837 122.892V121.785C4.57837 125.004 6.58806 127.753 9.42069 128.849C10.2697 129.179 11.1879 129.361 12.1537 129.361H73.0694L77.4007 133.691Z" fill="#29634A"/>
<path d="M99.486 74.132V146.163C99.486 149.706 95.211 151.485 92.7031 148.998L92.6857 148.982L77.4006 133.691L73.0693 129.361H12.1537C11.1879 129.361 10.2697 129.179 9.42068 128.85C6.58806 127.753 4.57837 125.004 4.57837 121.785V74.132C4.57837 69.9494 7.96995 66.5559 12.1537 66.5559H91.915C95.1286 66.5559 97.879 68.5615 98.9749 71.3944C99.3039 72.2434 99.486 73.166 99.486 74.132Z" fill="url(#paint9_linear_40_6234)"/>
<path d="M91.915 66.5557C98.4884 66.5557 103.817 71.8868 103.817 78.4588V150.492C103.817 154.043 99.5249 155.826 97.0172 153.314L92.7031 148.998C95.2111 151.485 99.486 149.706 99.486 146.162V74.1319C99.486 73.1658 99.304 72.2433 98.975 71.3942C97.8791 68.5613 95.1286 66.5557 91.915 66.5557Z" fill="#29634A"/>
<path d="M68.0461 97.5922C68.0461 100.752 70.6083 103.315 73.7685 103.315C76.9291 103.315 79.4912 100.752 79.4912 97.5922C79.4912 94.4301 76.9291 91.8693 73.7685 91.8693C70.6083 91.8693 68.0461 94.4301 68.0461 97.5922Z" fill="white"/>
<path d="M47.4756 97.5924C47.4756 100.755 50.0374 103.317 53.198 103.317C56.3585 103.317 58.9206 100.755 58.9206 97.5924C58.9206 94.43 56.3585 91.8674 53.198 91.8674C50.0374 91.8674 47.4756 94.43 47.4756 97.5924Z" fill="white"/>
<path d="M26.9043 97.5922C26.9043 100.752 29.4664 103.315 32.627 103.315C35.7875 103.315 38.3494 100.752 38.3494 97.5922C38.3494 94.4301 35.7875 91.8693 32.627 91.8693C29.4664 91.8693 26.9043 94.4301 26.9043 97.5922Z" fill="white"/>
<path d="M570.126 28.7785V100.809C570.126 104.352 574.402 106.132 576.908 103.645L576.924 103.628L592.21 88.34L596.542 84.0076H657.456C658.422 84.0076 659.342 83.8253 660.191 83.496C663.024 82.4021 665.033 79.6508 665.033 76.4315V28.7785C665.033 24.5959 661.642 21.2051 657.456 21.2051H577.697C574.483 21.2051 571.732 23.2107 570.635 26.0436C570.306 26.8899 570.126 27.8125 570.126 28.7785Z" fill="url(#paint10_linear_40_6234)"/>
<path d="M577.697 21.2053C571.122 21.2053 565.794 26.5336 565.794 33.1056V105.142C565.794 108.693 570.085 110.473 572.595 107.961L576.908 103.645C574.401 106.132 570.126 104.352 570.126 100.809V28.7787C570.126 27.8126 570.306 26.8901 570.635 26.0438C571.732 23.2109 574.483 21.2053 577.697 21.2053Z" fill="#3D54AE"/>
<path d="M600.564 51.6755C600.564 54.835 598.003 57.3984 594.841 57.3984C591.681 57.3984 589.121 54.835 589.121 51.6755C589.121 48.5161 591.681 45.9526 594.841 45.9526C598.003 45.9526 600.564 48.5161 600.564 51.6755Z" fill="white"/>
<path d="M621.135 51.6755C621.135 54.835 618.574 57.3984 615.415 57.3984C612.253 57.3984 609.692 54.835 609.692 51.6755C609.692 48.5161 612.253 45.9526 615.415 45.9526C618.574 45.9526 621.135 48.5161 621.135 51.6755Z" fill="white"/>
<path d="M641.708 51.6755C641.708 54.835 639.144 57.3984 635.985 57.3984C632.823 57.3984 630.262 54.835 630.262 51.6755C630.262 48.5161 632.823 45.9526 635.985 45.9526C639.144 45.9526 641.708 48.5161 641.708 51.6755Z" fill="white"/>
<path d="M592.21 88.3401H654.235C660.197 88.3401 665.033 83.5043 665.033 77.5392V76.4316C665.033 79.6509 663.025 82.4022 660.192 83.4961C659.343 83.8254 658.423 84.0077 657.457 84.0077H596.543L592.21 88.3401Z" fill="#3D54AE"/>
<path d="M510.683 125.451L510.68 125.315C509.529 125.326 508.383 125.381 507.257 125.481L507.268 125.617L507.281 125.481C506.19 125.386 505.082 125.332 503.972 125.321L503.969 125.457L503.977 125.593C504.179 125.585 504.377 125.585 504.582 125.585H510.179C510.345 125.585 510.514 125.585 510.677 125.587L510.683 125.451L510.686 125.315C510.517 125.313 510.345 125.313 510.179 125.313H504.582C504.377 125.313 504.173 125.313 503.964 125.321L503.969 125.593C505.074 125.604 506.174 125.658 507.257 125.753H507.268H507.281C508.4 125.653 509.54 125.598 510.683 125.587L510.686 125.315L510.683 125.451Z" fill="#773E1A"/>
<path d="M510.683 125.451L510.68 125.315C509.529 125.326 508.383 125.381 507.257 125.481L507.268 125.617L507.281 125.481C506.19 125.386 505.082 125.332 503.972 125.321L503.969 125.457L503.977 125.593C504.179 125.585 504.377 125.585 504.582 125.585H510.179C510.345 125.585 510.514 125.585 510.677 125.587L510.683 125.451L510.686 125.315C510.517 125.313 510.345 125.313 510.179 125.313H504.582C504.377 125.313 504.173 125.313 503.964 125.321L503.969 125.593C505.074 125.604 506.174 125.658 507.257 125.753H507.268H507.281C508.4 125.653 509.54 125.598 510.683 125.587L510.686 125.315L510.683 125.451Z" fill="#773E1A"/>
<path d="M510.683 125.451L510.68 125.315C509.529 125.326 508.383 125.381 507.257 125.481L507.268 125.617L507.281 125.481C506.19 125.386 505.082 125.332 503.972 125.321L503.969 125.457L503.977 125.593C504.179 125.585 504.377 125.585 504.582 125.585H510.179C510.345 125.585 510.514 125.585 510.677 125.587L510.683 125.451L510.686 125.315C510.517 125.313 510.345 125.313 510.179 125.313H504.582C504.377 125.313 504.173 125.313 503.964 125.321L503.969 125.593C505.074 125.604 506.174 125.658 507.257 125.753H507.268H507.281C508.4 125.653 509.54 125.598 510.683 125.587L510.686 125.315L510.683 125.451Z" fill="#773E1A"/>
<path d="M573.251 170.476V236.337H566.426V170.476C566.426 135.912 538.628 107.845 504.17 107.409C504.306 107.404 504.445 107.404 504.581 107.404H510.179C545.015 107.404 573.251 135.643 573.251 170.476Z" fill="#AFC5E7"/>
<path d="M566.426 170.476V236.337H548.381V170.476C548.381 146.963 530.273 127.607 507.267 125.617C508.391 125.517 509.534 125.462 510.682 125.451C510.516 125.449 510.345 125.449 510.179 125.449H504.581C504.377 125.449 504.176 125.449 503.969 125.457C479.42 125.778 459.554 145.85 459.554 170.476V236.337H441.509V170.476C441.509 135.912 469.308 107.844 503.765 107.409C503.901 107.404 504.034 107.409 504.17 107.409C538.628 107.844 566.426 135.912 566.426 170.476Z" fill="#8895D3"/>
<path d="M507.267 125.617C484.264 127.607 466.153 146.963 466.153 170.476V236.337H459.554V170.476C459.554 145.85 479.42 125.778 503.969 125.457C505.076 125.468 506.181 125.522 507.267 125.617Z" fill="#6A71C0"/>
<path d="M570.446 329.939V332.19C570.446 335.224 567.985 337.679 564.951 337.679H430.654C427.622 337.679 425.165 335.224 425.165 332.19V227.784C425.165 224.758 427.622 222.298 430.654 222.298H435.19V324.453C435.19 327.485 437.65 329.939 440.682 329.939H570.446Z" fill="url(#paint11_linear_40_6234)"/>
<path d="M570.445 227.784V329.939H440.682C437.65 329.939 435.19 327.485 435.19 324.453V222.297H564.951C567.985 222.297 570.445 224.758 570.445 227.784Z" fill="#F8CD50"/>
<path d="M590.839 224.934V335.042C590.839 336.5 589.661 337.679 588.202 337.679H564.951C567.985 337.679 570.446 335.224 570.446 332.19V227.784C570.446 224.758 567.985 222.298 564.951 222.298H588.202C589.661 222.298 590.839 223.476 590.839 224.934Z" fill="url(#paint12_linear_40_6234)"/>
<path d="M502.379 281.685L506.407 298.116H483.477L487.505 281.69C485.039 279.589 483.477 276.463 483.477 272.963C483.477 266.631 488.607 261.498 494.939 261.498C501.277 261.498 506.407 266.631 506.407 272.963C506.407 276.457 504.845 279.584 502.379 281.685Z" fill="#773E1A"/>
<rect x="277.055" y="173.954" width="10" height="7.625" fill="#5D8BCF"/>
<path fill-rule="evenodd" clip-rule="evenodd" d="M76.8049 170.079H174.805C189.164 170.079 200.805 181.719 200.805 196.079V386.579C200.805 400.938 189.164 412.579 174.805 412.579H76.8049C62.4455 412.579 50.8049 400.938 50.8049 386.579V196.079C50.8049 181.719 62.4455 170.079 76.8049 170.079ZM76.8049 182.079C69.0729 182.079 62.8049 188.347 62.8049 196.079V386.579C62.8049 394.311 69.0729 400.579 76.8049 400.579H174.805C182.537 400.579 188.805 394.311 188.805 386.579V196.079C188.805 188.347 182.537 182.079 174.805 182.079H76.8049Z" fill="#1D2848"/>
<rect x="58.3049" y="176.579" width="133" height="225.5" rx="17.5" stroke="#213253" stroke-width="7"/>
<path d="M61.8049 194.079C61.8049 186.347 68.0729 180.079 75.8049 180.079H173.805C181.537 180.079 187.805 186.347 187.805 194.079V384.579C187.805 392.311 181.537 398.579 173.805 398.579H75.8049C68.0729 398.579 61.8049 392.311 61.8049 384.579V194.079Z" fill="url(#paint13_linear_40_6234)"/>
<path d="M61.8049 194.079C61.8049 186.347 68.0729 180.079 75.8049 180.079H173.805C181.537 180.079 187.805 186.347 187.805 194.079V384.579C187.805 392.311 181.537 398.579 173.805 398.579H75.8049C68.0729 398.579 61.8049 392.311 61.8049 384.579V194.079Z" fill="black" fill-opacity="0.05"/>
<path d="M131.426 253.993C135.626 248.758 134.787 241.109 129.552 236.909C124.317 232.709 116.669 233.548 112.469 238.783C108.269 244.018 109.108 251.666 114.343 255.866C119.578 260.066 127.226 259.227 131.426 253.993Z" fill="white"/>
<path d="M121.942 246.391L130.644 243.222C130.898 243.919 131.067 244.644 131.148 245.382C131.702 250.432 128.002 255.044 122.952 255.597C117.902 256.151 113.29 252.451 112.737 247.401C112.184 242.351 115.883 237.739 120.933 237.186L121.942 246.391Z" fill="#469285"/>
<path d="M93.717 295.402H74.3154C73.5447 295.402 72.9202 294.779 72.9202 294.009V274.832C72.9202 274.062 73.5447 273.436 74.3154 273.436H93.717C94.4877 273.436 95.1125 274.062 95.1125 274.832V294.009C95.1125 294.779 94.4877 295.402 93.717 295.402Z" fill="#A3BBE6"/>
<path d="M85.8208 284.406L89.2831 286.354L88.3813 287.954L84.8604 285.889L84.8896 289.845H83.1436L83.1727 285.889L79.6521 287.954L78.75 286.354L82.2414 284.406L78.75 282.484L79.6521 280.854L83.1727 282.922L83.1436 278.993H84.8896L84.8604 282.922L88.3813 280.854L89.2831 282.484L85.8208 284.406Z" fill="#33488D"/>
<path d="M120.909 295.402H101.508C100.737 295.402 100.113 294.779 100.113 294.009V274.832C100.113 274.062 100.737 273.436 101.508 273.436H120.909C121.68 273.436 122.305 274.062 122.305 274.832V294.009C122.305 294.779 121.68 295.402 120.909 295.402Z" fill="#A3BBE6"/>
<path d="M113.013 284.406L116.475 286.354L115.573 287.954L112.052 285.889L112.082 289.845H110.336L110.365 285.889L106.844 287.954L105.942 286.354L109.434 284.406L105.942 282.484L106.844 280.854L110.365 282.922L110.336 278.993H112.082L112.052 282.922L115.573 280.854L116.475 282.484L113.013 284.406Z" fill="#33488D"/>
<path d="M148.102 295.402H128.7C127.929 295.402 127.305 294.779 127.305 294.009V274.832C127.305 274.062 127.929 273.436 128.7 273.436H148.102C148.872 273.436 149.497 274.062 149.497 274.832V294.009C149.497 294.779 148.872 295.402 148.102 295.402Z" fill="#A3BBE6"/>
<path d="M140.205 284.406L143.667 286.354L142.766 287.954L139.245 285.889L139.274 289.845H137.528L137.557 285.889L134.036 287.954L133.135 286.354L136.626 284.406L133.135 282.484L134.036 280.854L137.557 282.922L137.528 278.993H139.274L139.245 282.922L142.766 280.854L143.667 282.484L140.205 284.406Z" fill="#33488D"/>
<path d="M175.293 295.402H155.893C155.123 295.402 154.497 294.779 154.497 294.009V274.832C154.497 274.062 155.123 273.436 155.893 273.436H175.293C176.064 273.436 176.689 274.062 176.689 274.832V294.009C176.689 294.779 176.064 295.402 175.293 295.402Z" fill="#A3BBE6"/>
<path d="M167.399 284.406L170.861 286.354L169.957 287.954L166.438 285.889L166.466 289.845H164.721L164.749 285.889L161.23 287.954L160.326 286.354L163.818 284.406L160.326 282.484L161.23 280.854L164.749 282.922L164.721 278.993H166.466L166.438 282.922L169.957 280.854L170.861 282.484L167.399 284.406Z" fill="#33488D"/>
<path d="M91.9105 211.287L88.7707 218.541H87.1127L83.9834 211.287H85.7969L88.004 216.468L90.2421 211.287H91.9105Z" fill="#33488D"/>
<path d="M98.1796 217.193V218.541H92.5632V211.287H98.0448V212.635H94.2317V214.209H97.5992V215.516H94.2317V217.193H98.1796Z" fill="#33488D"/>
<path d="M102.615 212.655H101.247V215.184H102.615C103.641 215.184 104.159 214.708 104.159 213.918C104.159 213.121 103.641 212.655 102.615 212.655ZM104.19 218.541L102.791 216.521H101.247V218.541H99.5684V211.287H102.708C104.646 211.287 105.858 212.292 105.858 213.918C105.858 215.006 105.309 215.806 104.366 216.21L105.993 218.541H104.19Z" fill="#33488D"/>
<path d="M107.236 211.287H108.915V218.541H107.236V211.287Z" fill="#33488D"/>
<path d="M112.366 212.635V214.551H115.723V215.899H112.366V218.541H110.687V211.287H116.169V212.635H112.366Z" fill="#33488D"/>
<path d="M117.361 211.287H119.039V218.541H117.361V211.287Z" fill="#33488D"/>
<path d="M120.355 214.914C120.355 212.727 122.033 211.163 124.293 211.163C125.546 211.163 126.593 211.619 127.277 212.447L126.199 213.442C125.712 212.884 125.101 212.593 124.375 212.593C123.018 212.593 122.054 213.545 122.054 214.914C122.054 216.282 123.018 217.234 124.375 217.234C125.101 217.234 125.712 216.946 126.199 216.375L127.277 217.37C126.593 218.209 125.546 218.665 124.282 218.665C122.034 218.665 120.355 217.1 120.355 214.914Z" fill="#33488D"/>
<path d="M132.562 215.711L131.411 212.935L130.261 215.711H132.562ZM133.09 216.987H129.722L129.08 218.541H127.36L130.593 211.287H132.251L135.494 218.541H133.733L133.09 216.987Z" fill="#33488D"/>
<path d="M137.443 212.655H135.122V211.287H141.443V212.655H139.121V218.541H137.443V212.655Z" fill="#33488D"/>
<path d="M142.396 211.287H144.075V218.541H142.396V211.287Z" fill="#33488D"/>
<path d="M151.629 214.914C151.629 213.535 150.654 212.593 149.36 212.593C148.064 212.593 147.09 213.535 147.09 214.914C147.09 216.293 148.064 217.234 149.36 217.234C150.654 217.234 151.629 216.293 151.629 214.914ZM145.391 214.914C145.391 212.758 147.069 211.163 149.36 211.163C151.639 211.163 153.327 212.748 153.327 214.914C153.327 217.08 151.639 218.665 149.36 218.665C147.069 218.665 145.391 217.069 145.391 214.914Z" fill="#33488D"/>
<path d="M161.296 211.287V218.541H159.919L156.303 214.137V218.541H154.644V211.287H156.033L159.639 215.691V211.287H161.296Z" fill="#33488D"/>
<rect x="107.751" y="185.75" width="37.054" height="6.25" rx="3.125" fill="#213253" fill-opacity="0.2"/>
</g>
<defs>
<linearGradient id="paint0_linear_40_6234" x1="44.4494" y1="293.582" x2="48.0735" y2="191.704" gradientUnits="userSpaceOnUse">
<stop stop-color="#8BD0AE"/>
<stop offset="1" stop-color="#B7E39D"/>
</linearGradient>
<linearGradient id="paint1_linear_40_6234" x1="22.0467" y1="331.939" x2="18.7129" y2="238.222" gradientUnits="userSpaceOnUse">
<stop stop-color="#319669"/>
<stop offset="1" stop-color="#6FC94B"/>
</linearGradient>
<linearGradient id="paint2_linear_40_6234" x1="22.047" y1="331.939" x2="18.7132" y2="238.222" gradientUnits="userSpaceOnUse">
<stop stop-color="#8BD0AE"/>
<stop offset="1" stop-color="#B7E39D"/>
</linearGradient>
<linearGradient id="paint3_linear_40_6234" x1="44.4492" y1="293.582" x2="48.0733" y2="191.704" gradientUnits="userSpaceOnUse">
<stop stop-color="#319669"/>
<stop offset="1" stop-color="#6FC94B"/>
</linearGradient>
<linearGradient id="paint4_linear_40_6234" x1="614.532" y1="293.582" x2="610.908" y2="191.704" gradientUnits="userSpaceOnUse">
<stop stop-color="#8BD0AE"/>
<stop offset="1" stop-color="#B7E39D"/>
</linearGradient>
<linearGradient id="paint5_linear_40_6234" x1="636.935" y1="331.939" x2="640.269" y2="238.222" gradientUnits="userSpaceOnUse">
<stop stop-color="#319669"/>
<stop offset="1" stop-color="#6FC94B"/>
</linearGradient>
<linearGradient id="paint6_linear_40_6234" x1="636.936" y1="331.939" x2="640.27" y2="238.222" gradientUnits="userSpaceOnUse">
<stop stop-color="#8BD0AE"/>
<stop offset="1" stop-color="#B7E39D"/>
</linearGradient>
<linearGradient id="paint7_linear_40_6234" x1="614.531" y1="293.582" x2="610.907" y2="191.704" gradientUnits="userSpaceOnUse">
<stop stop-color="#319669"/>
<stop offset="1" stop-color="#6FC94B"/>
</linearGradient>
<linearGradient id="paint8_linear_40_6234" x1="335.5" y1="222.703" x2="335.5" y2="30.2854" gradientUnits="userSpaceOnUse">
<stop stop-color="#6092D3"/>
<stop offset="1" stop-color="#5377C4"/>
</linearGradient>
<linearGradient id="paint9_linear_40_6234" x1="52.0322" y1="62.1991" x2="52.0322" y2="145.987" gradientUnits="userSpaceOnUse">
<stop stop-color="#60C786"/>
<stop offset="1" stop-color="#39B567"/>
</linearGradient>
<linearGradient id="paint10_linear_40_6234" x1="617.578" y1="16.8456" x2="617.578" y2="100.634" gradientUnits="userSpaceOnUse">
<stop stop-color="#6092D3"/>
<stop offset="1" stop-color="#5377C4"/>
</linearGradient>
<linearGradient id="paint11_linear_40_6234" x1="497.805" y1="219.228" x2="497.805" y2="333.097" gradientUnits="userSpaceOnUse">
<stop stop-color="#F7C433"/>
<stop offset="1" stop-color="#F89C28"/>
</linearGradient>
<linearGradient id="paint12_linear_40_6234" x1="577.896" y1="221.9" x2="577.896" y2="329.155" gradientUnits="userSpaceOnUse">
<stop stop-color="#F6A10E"/>
<stop offset="1" stop-color="#CD6C1C"/>
</linearGradient>
<linearGradient id="paint13_linear_40_6234" x1="124.805" y1="180.079" x2="124.805" y2="398.579" gradientUnits="userSpaceOnUse">
<stop stop-color="#F5FBFE"/>
<stop offset="1" stop-color="#E6F3FA"/>
</linearGradient>
<clipPath id="clip0_40_6234">
<rect width="671" height="338" fill="white"/>
</clipPath>
</defs>
</svg>
