<svg width="48" height="30" viewBox="0 0 48 30" fill="none" xmlns="http://www.w3.org/2000/svg">
<path d="M14.2382 15.9918L3.1597 14.7118C2.89197 14.6808 2.85595 14.3065 3.11287 14.2251L48 0L14.3741 15.9693C14.3318 15.9893 14.2847 15.9972 14.2382 15.9918Z" fill="#FEFEFE"/>
<path d="M39.0616 18.7983L44.2781 1.72633C44.3486 1.49565 44.0838 1.30878 43.89 1.45249L23.4986 16.5793C23.3178 16.7134 23.3924 16.9995 23.6157 17.0281L38.7908 18.9732C38.9116 18.9887 39.026 18.9148 39.0616 18.7983Z" fill="#FEFEFE"/>
<path d="M21.6264 17.5248L16.076 27.9208C15.9479 28.1608 16.2412 28.4039 16.4532 28.2333L28.2214 18.77C28.3912 18.6335 28.3173 18.3602 28.1019 18.3279L21.884 17.3953C21.7794 17.3796 21.6762 17.4314 21.6264 17.5248Z" fill="#9FBBCE"/>
<path d="M14.0199 16.0267L15.4176 28.2781C15.4446 28.5144 15.7551 28.5831 15.8793 28.3803L22.6593 17.3021C22.6758 17.2752 22.6972 17.2516 22.7224 17.2327L42.8378 2.12402C43.0808 1.94148 42.8491 1.5652 42.5767 1.70009L14.1573 15.7744C14.0629 15.8211 14.008 15.922 14.0199 16.0267Z" fill="#9FBBCE"/>
<path d="M22.4151 17.1825L38.7922 19.4711C38.9123 19.4879 39.0271 19.416 39.0646 19.3006L44.9999 1.00008M22.4151 17.1825L44.9999 1.00008M22.4151 17.1825L15.8635 29.3261C15.7486 29.5389 15.4286 29.4809 15.3958 29.2414L13.5905 16.0871M44.9999 1.00008L1.3483 14.0235C1.09158 14.1001 1.11884 14.4721 1.38397 14.5105L5.06876 15.0436L13.5905 16.0871M44.9999 1.00008L13.5905 16.0871" stroke="#2A2A2A"/>
<path d="M15.5 29.5L29 18" stroke="#2A2A2A"/>
</svg>