<svg width="18" height="18" viewBox="0 0 18 18" fill="none" xmlns="http://www.w3.org/2000/svg">
<path d="M2.03504 14.9299L3.42743 12.1451C3.47549 12.049 3.53875 11.9613 3.61475 11.8853L13.7929 1.70711C14.1834 1.31658 14.8166 1.31658 15.2071 1.70711L16.7929 3.29289C17.1834 3.68342 17.1834 4.31658 16.7929 4.70711L6.17827 15.3217C6.06126 15.4387 5.91703 15.5249 5.75851 15.5724L3.21682 16.335C2.37741 16.5868 1.64312 15.7138 2.03504 14.9299Z" fill="#E7BDBD"/>
<path d="M16.8717 2.30283C16.6017 1.90683 16.2957 1.52883 15.9177 1.16883C15.6657 0.916828 15.2877 0.610828 14.8017 0.268828C14.2077 -0.145172 13.4157 -0.073172 12.9117 0.430828L1.64365 11.6988C1.58965 11.7528 1.55365 11.8248 1.51765 11.8968L0.0416537 16.0548C-0.0483463 16.3248 0.00565366 16.6308 0.221654 16.8288C0.365654 16.9728 0.563654 17.0448 0.743654 17.0448C0.833654 17.0448 0.905654 17.0268 0.995654 17.0088L5.17165 15.5508C5.24365 15.5328 5.31565 15.4788 5.36965 15.4248L16.6737 4.12083C17.1597 3.63483 17.2497 2.86083 16.8717 2.30283ZM2.27365 12.9048C2.99365 13.4268 3.62365 14.0748 4.16365 14.7948L2.29165 15.4608C2.21965 15.3348 2.11165 15.1908 2.00365 15.0828C1.87765 14.9568 1.75165 14.8668 1.62565 14.7948L2.27365 12.9048ZM15.9357 3.38283L5.06365 14.2548C4.45165 13.3908 3.67765 12.6348 2.81365 12.0048L13.6497 1.16883C13.7937 1.02483 14.0277 1.00683 14.1897 1.13283C14.6217 1.43883 14.9637 1.69083 15.1617 1.90683C15.4857 2.23083 15.7557 2.55483 15.9897 2.89683C16.0977 3.02283 16.0617 3.25683 15.9357 3.38283Z" fill="#3B4141"/>
</svg>