
<svg width="53" height="44" viewBox="0 0 53 44" fill="none" xmlns="http://www.w3.org/2000/svg">
<path d="M8.17128 31.7621L1.18359 35.2559" stroke="#2A2A2A" stroke-linecap="round"/>
<path d="M14.1609 28.7673L10.168 30.7638" stroke="#2A2A2A" stroke-linecap="round"/>
<path d="M4.7296 29.8661L11.7173 26.3722" stroke="#2A2A2A" stroke-linecap="round"/>
<path d="M7.17257 25.9729L11.1655 23.9764" stroke="#2A2A2A" stroke-linecap="round"/>
<path d="M37.1434 39.5931L44.2021 16.9509L24.0479 27.5254L31.8397 42.3759L37.1434 39.5931Z" stroke="#2A2A2A"/>
<path d="M15.5614 0.864937L36.3608 7.53778L17.9523 17.1964L10.7171 3.40668L15.5614 0.864937Z" stroke="#2A2A2A"/>
<path d="M36.7121 3.80334C36.9828 3.67212 37.2867 3.62532 37.5843 3.66901L50.6449 5.58625C51.6659 5.73612 52.2341 6.84816 51.7574 7.76332L45.8643 19.0765C45.7232 19.3474 45.5028 19.5687 45.2325 19.7109L23.6155 31.0851C22.8599 31.4827 21.9252 31.1703 21.5606 30.3982L14.7977 16.0767C14.4465 15.333 14.7597 14.4452 15.4998 14.0864L36.7121 3.80334Z" fill="#9FBBCE" stroke="#2A2A2A"/>
<path d="M13.177 21.5348L16.0454 18.8332L20.6688 28.3894L16.7702 28.9617L13.177 21.5348Z" fill="#C4C4C4" stroke="#2A2A2A"/>
<circle cx="38.6456" cy="12.6455" r="3.86722" transform="rotate(111.073 38.6456 12.6455)" fill="white" stroke="#2A2A2A"/>
</svg>