<svg width="479" height="251" viewBox="0 0 479 251" fill="none" xmlns="http://www.w3.org/2000/svg">
<path fill-rule="evenodd" clip-rule="evenodd" d="M411.324 9.54244C411.189 9.49172 411.057 9.43519 410.928 9.37323L408.377 29.9082C409.397 29.6613 410.508 29.7133 411.599 30.1218C413.252 30.7407 414.522 32.0516 415.196 33.6296L438.053 32.2684C438.701 31.0895 440.076 30.5439 441.393 31.0369C442.923 31.6099 443.796 33.3689 443.341 34.9657C442.886 36.5626 441.277 37.3926 439.746 36.8196C438.342 36.294 437.492 34.7704 437.712 33.2894L415.529 34.6105C415.807 35.6955 415.815 36.8575 415.495 37.9793C414.586 41.173 411.367 42.833 408.306 41.6871C406.636 41.0618 405.358 39.7303 404.689 38.1306L395.802 43.7784C396.763 44.7559 397.197 46.2384 396.804 47.6197C396.312 49.3466 394.695 50.3261 393.036 49.9996L395.153 62.8314C396.584 62.2725 398.227 62.2299 399.833 62.8313C403.507 64.2064 405.6 68.428 404.509 72.2604C404.376 72.728 404.201 73.1681 403.991 73.5781L436.894 97.3422C438.94 93.7101 443.16 91.9967 447.257 93.3873L456.486 75.4067C455.047 73.7697 454.295 71.5347 454.532 69.3112L440.912 64.9507C440.889 65.093 440.857 65.2349 440.817 65.3758C440.271 67.292 438.34 68.288 436.503 67.6004C434.667 66.9128 433.62 64.802 434.166 62.8858C434.711 60.9696 436.642 59.9736 438.479 60.6612C439.852 61.1751 440.783 62.4841 440.939 63.9126L454.705 68.3198C454.719 68.2628 454.733 68.2058 454.749 68.149C454.758 68.1135 454.768 68.0781 454.778 68.0427C455.259 66.3536 456.278 65.0219 457.582 64.1786L453.009 48.1832C451.207 47.4741 450.187 45.3868 450.727 43.4901C451.273 41.5739 453.204 40.5779 455.041 41.2654C456.877 41.953 457.924 44.0638 457.378 45.98C456.937 47.5306 455.588 48.4786 454.117 48.4197L458.484 63.6934C459.97 63.0416 461.707 62.958 463.405 63.5935C467.078 64.9686 469.172 69.1902 468.081 73.0226C466.99 76.855 463.127 78.847 459.454 77.4718C458.625 77.1617 457.877 76.7067 457.228 76.144L448.187 93.7585C450.536 94.8418 452.335 96.823 453.317 99.1647L516 88.9999L516.16 89.987L453.667 100.121C454.258 102.01 454.333 104.073 453.768 106.058C452.621 110.087 449.177 112.591 445.37 112.571L446.053 124.655C447.189 124.439 448.409 124.529 449.609 124.978C453.282 126.353 455.375 130.575 454.284 134.407C454.049 135.233 453.685 135.973 453.223 136.613L479.555 154.168L479 155L452.573 137.382C450.831 139.148 448.199 139.808 445.658 138.857C441.984 137.481 439.891 133.26 440.982 129.427C441.611 127.217 443.162 125.619 445.068 124.926L444.366 112.507C443.669 112.422 442.965 112.252 442.266 111.991C437.368 110.157 434.577 104.528 436.032 99.4184C436.147 99.0127 436.286 98.6225 436.446 98.2488L403.471 74.4325C401.791 76.7854 398.777 77.7937 395.882 76.7097C392.208 75.3346 390.115 71.113 391.206 67.2806C391.712 65.5039 392.813 64.1228 394.215 63.2893L391.956 49.5927C391.132 49.1187 390.521 48.3377 390.219 47.4446L358.259 55.0961C358.544 55.8202 358.513 56.6566 358.105 57.3379C357.436 58.4532 356.012 58.7304 354.923 57.957C354.464 57.6308 354.138 57.1698 353.965 56.662L323.737 66.2457C323.737 67.2303 323.489 68.2124 322.967 69.0821C321.464 71.5916 318.26 72.2152 315.81 70.4751C315.384 70.1721 315.008 69.8174 314.687 69.425L283.879 90.8542C284.812 92.7141 285.115 94.858 284.695 96.8728L337.773 104.922C337.707 103.821 337.949 102.706 338.532 101.733C340.035 99.2232 343.24 98.5995 345.689 100.34C348.139 102.08 348.906 105.525 347.402 108.034C346.934 108.816 346.3 109.415 345.575 109.817L351.908 124.753C352.586 124.462 353.402 124.533 354.086 125.019C355.175 125.792 355.516 127.323 354.848 128.439C354.179 129.554 352.755 129.831 351.667 129.058C350.578 128.284 350.237 126.753 350.905 125.638C350.961 125.546 351.021 125.459 351.087 125.378L344.654 110.206C343.236 110.637 341.621 110.405 340.245 109.427C339.045 108.575 338.249 107.314 337.926 105.954L284.433 97.8422C284.244 98.4051 283.995 98.952 283.683 99.4729C283.3 100.112 282.846 100.673 282.337 101.152L287.137 108.091C287.875 107.536 288.913 107.507 289.752 108.104C290.841 108.877 291.182 110.408 290.514 111.523C289.845 112.639 288.421 112.916 287.333 112.143C286.299 111.408 285.94 109.991 286.478 108.895L281.563 101.789C280.336 102.668 278.884 103.14 277.389 103.172L274.923 157.003C275.729 157.305 276.518 157.721 277.269 158.255C279.318 159.71 280.744 161.798 281.45 164.084L293.59 160.596C292.981 158.579 293.164 156.349 294.272 154.499C296.276 151.153 300.549 150.322 303.815 152.642C304.469 153.107 305.032 153.662 305.5 154.281L320.817 141.542C320.194 140.719 320.083 139.56 320.617 138.668C321.286 137.553 322.71 137.276 323.798 138.049C324.887 138.823 325.228 140.354 324.56 141.469C324.504 141.562 324.443 141.649 324.378 141.73L346.38 167.425C346.459 167.348 346.54 167.271 346.623 167.197C349.586 164.532 353.916 164.9 356.295 168.018C358.674 171.137 358.201 175.825 355.238 178.49C353.959 179.64 352.425 180.225 350.904 180.268L352.247 196.543C355.086 196.759 357.814 198.161 359.742 200.688C360.015 201.046 360.264 201.416 360.49 201.797L421.352 155.782C419.734 153.304 419.137 150.145 419.986 147.163C420.125 146.672 420.299 146.204 420.503 145.76L398.098 133.088C395.934 137.785 390.721 140.048 385.741 138.183C383.633 137.394 381.872 135.98 380.592 134.213L377.869 135.975C378.92 137.266 379.359 139.056 378.881 140.734C378.153 143.289 375.578 144.617 373.129 143.7C370.681 142.784 369.285 139.969 370.012 137.414C370.74 134.859 373.315 133.531 375.764 134.448C376.275 134.639 376.74 134.913 377.149 135.25L380.04 133.38C378.39 130.649 377.812 127.253 378.727 124.039C379.39 121.712 380.733 119.838 382.463 118.567L365.216 87.4198C364.265 87.6025 363.245 87.5284 362.241 87.1527C359.988 86.3092 358.448 84.1805 358.155 81.8419L347.246 81.5779C347.42 82.3872 347.407 83.2427 347.171 84.0709C346.444 86.6258 343.869 87.9538 341.42 87.0371C338.971 86.1203 337.575 83.3059 338.303 80.751C339.03 78.196 341.605 76.868 344.054 77.7848C345.37 78.2774 346.382 79.3177 346.923 80.5714L358.107 80.842C358.122 80.3254 358.199 79.8061 358.345 79.2951C359.254 76.1014 362.473 74.4414 365.534 75.5873C365.911 75.7285 366.268 75.9055 366.602 76.1135L370.714 72.3614C370.519 71.7617 370.491 71.1037 370.671 70.4711C371.125 68.8742 372.735 68.0442 374.265 68.6172C375.796 69.1902 376.668 70.9492 376.214 72.546C375.759 74.1429 374.15 74.9729 372.619 74.3999C372.029 74.1791 371.537 73.7823 371.181 73.2866L367.419 76.7201C369.257 78.3327 370.131 80.985 369.43 83.445C368.925 85.2197 367.707 86.5208 366.198 87.13L383.301 118.017C385.724 116.6 388.736 116.268 391.668 117.365C397.178 119.428 400.318 125.76 398.681 131.509C398.619 131.729 398.55 131.945 398.476 132.156L420.969 144.878C423.105 141.309 427.385 139.694 431.488 141.231C436.386 143.064 439.177 148.693 437.722 153.803C436.268 158.913 431.118 161.569 426.22 159.735C424.503 159.092 423.045 157.983 421.938 156.593L360.969 202.689C363.304 207.536 362.201 213.751 358.047 217.487C357.11 218.329 356.088 218.983 355.022 219.451L371.198 234.512C372.611 232.616 375.081 231.816 377.457 232.705C379.222 233.366 380.55 234.816 381.183 236.538L432.388 224.278C432.291 223.947 432.219 223.608 432.171 223.265L413.52 220.507C413.535 220.899 413.489 221.297 413.378 221.687C412.833 223.603 410.902 224.599 409.065 223.912C407.228 223.224 406.182 221.113 406.727 219.197C407.273 217.281 409.204 216.285 411.041 216.972C412.168 217.394 412.997 218.352 413.344 219.473L432.106 222.246C432.112 221.655 432.195 221.06 432.361 220.475C433.162 217.662 435.65 215.97 438.33 216.171L450.152 171.991C448.064 170.745 446.965 168.102 447.655 165.678C448.432 162.95 451.181 161.532 453.797 162.511C456.412 163.49 457.902 166.495 457.125 169.224C456.357 171.922 453.66 173.339 451.071 172.423L439.323 216.331C439.546 216.387 439.769 216.456 439.991 216.54C443.24 217.756 445.092 221.49 444.127 224.879C443.91 225.639 443.571 226.318 443.137 226.899L458.077 237.149C459.091 234.645 461.785 233.409 464.355 234.371C467.11 235.403 468.68 238.569 467.862 241.443C467.044 244.318 464.147 245.812 461.392 244.78C458.778 243.802 457.231 240.902 457.778 238.153L442.47 227.65C441.367 228.693 439.897 229.258 438.35 229.194L439.625 251.759L438.625 251.764L437.343 229.064C437.061 229.003 436.778 228.92 436.497 228.814C434.788 228.175 433.466 226.839 432.737 225.223L381.458 237.5C381.663 238.496 381.643 239.546 381.353 240.563C380.444 243.756 377.225 245.416 374.164 244.27C371.103 243.124 369.359 239.606 370.268 236.413C370.371 236.049 370.505 235.704 370.665 235.382L353.978 219.846C349.886 221.154 345.353 219.867 342.532 216.169C341.639 214.999 340.997 213.691 340.597 212.319L299.506 225.152C299.728 226.456 299.519 227.822 298.821 228.987C297.317 231.496 294.113 232.12 291.664 230.38C289.214 228.64 288.447 225.195 289.951 222.685C290.546 221.691 291.409 220.993 292.385 220.621L274.955 176.992C272.366 177.663 269.47 177.185 266.985 175.42C266.318 174.946 265.718 174.406 265.187 173.814L228.415 214.639C228.683 214.77 228.947 214.925 229.202 215.106C230.358 215.928 231.14 217.13 231.484 218.434L254.857 208.378C254.545 207.64 254.567 206.775 254.986 206.075C255.655 204.959 257.079 204.682 258.167 205.455C259.256 206.229 259.597 207.76 258.929 208.875C258.26 209.991 256.836 210.268 255.748 209.494C255.632 209.412 255.524 209.321 255.425 209.222L231.661 219.446C231.763 220.601 231.527 221.778 230.914 222.801C230.497 223.497 229.949 224.048 229.322 224.444L238.252 237.703C239.241 237.332 240.404 237.46 241.385 238.157C243.018 239.317 243.529 241.613 242.527 243.286C241.525 244.959 239.388 245.375 237.755 244.215C236.122 243.055 235.611 240.758 236.613 239.085C236.824 238.733 237.085 238.437 237.382 238.199L228.417 224.889C226.942 225.428 225.215 225.23 223.757 224.194C222.92 223.599 222.279 222.805 221.858 221.917L201.388 223.659C201.28 224.814 200.928 225.947 200.313 226.972C198.142 230.597 193.513 231.498 189.975 228.984C189.487 228.638 189.045 228.244 188.652 227.814L173.372 237.999C174.209 239.72 174.215 241.805 173.214 243.475C171.71 245.985 168.506 246.609 166.056 244.868C163.607 243.128 162.84 239.683 164.344 237.174C165.847 234.664 169.052 234.041 171.501 235.781C172.036 236.161 172.491 236.623 172.86 237.138L188.02 227.034C186.461 224.859 185.969 222.019 186.765 219.506L164.884 203.961C163.278 206.059 160.339 206.49 158.056 204.868C155.607 203.128 154.84 199.683 156.344 197.174C157.847 194.664 161.052 194.041 163.501 195.781C165.835 197.439 166.641 200.644 165.412 203.113L187.139 218.549C187.248 218.318 187.368 218.092 187.501 217.87C188.743 215.797 190.788 214.615 192.973 214.453L191.88 206.808C191.335 206.739 190.79 206.531 190.291 206.177C188.658 205.017 188.147 202.721 189.15 201.048C190.152 199.375 192.288 198.959 193.921 200.119C195.554 201.279 196.065 203.576 195.063 205.249C194.556 206.094 193.76 206.618 192.886 206.781L193.982 214.45C195.301 214.541 196.634 215.001 197.839 215.858C200.087 217.455 201.354 220.046 201.422 222.653L221.496 220.945C221.084 219.466 221.236 217.848 222.044 216.499C223.198 214.573 225.354 213.758 227.401 214.27L264.546 173.031C264.032 172.34 263.602 171.595 263.26 170.815L231.182 175.828C231.351 176.719 231.218 177.661 230.739 178.46C229.737 180.133 227.6 180.548 225.967 179.388C224.334 178.228 223.823 175.932 224.826 174.259C225.828 172.586 227.964 172.17 229.597 173.33C230.161 173.73 230.591 174.266 230.871 174.865L262.891 169.861C261.963 167.1 262.095 164.02 263.461 161.401L223.012 132.664C221.405 134.761 218.467 135.193 216.184 133.571C215.981 133.427 215.79 133.271 215.611 133.105L190.297 141.428C190.353 142.181 190.194 142.946 189.794 143.613C189.565 143.996 189.275 144.314 188.946 144.561L195.219 153.631C195.957 153.076 196.996 153.048 197.835 153.644C198.923 154.417 199.264 155.948 198.596 157.064C197.928 158.179 196.504 158.456 195.415 157.683C194.381 156.948 194.022 155.531 194.56 154.435L188.056 145.031C187.159 145.334 186.131 145.233 185.23 144.679L173.164 168.452C173.716 168.615 174.245 168.922 174.699 169.373C176.137 170.802 176.276 173.136 175.009 174.586C173.743 176.036 171.551 176.054 170.113 174.625C169.812 174.326 169.568 173.987 169.382 173.626L113.847 184.536C113.899 185.213 113.834 185.892 113.652 186.537L133.233 194.75C133.361 194.497 133.52 194.257 133.711 194.038C134.978 192.588 137.17 192.571 138.608 193.999C140.045 195.428 140.184 197.762 138.918 199.212C137.651 200.662 135.459 200.68 134.021 199.251C133.058 198.293 132.677 196.929 132.913 195.697L113.294 187.467C113.1 187.855 112.858 188.222 112.565 188.557C110.954 190.402 108.343 190.701 106.271 189.441L97.2088 197.75C97.9451 199.679 97.6639 201.91 96.3067 203.464C94.4071 205.639 91.1187 205.665 88.962 203.522C88.8336 203.395 88.7121 203.262 88.5976 203.126L53.2431 216.683C53.8494 218.433 53.8852 220.335 53.3302 222.048L68.3782 232.011C68.5195 231.669 68.7148 231.349 68.9648 231.062C70.2312 229.612 72.4235 229.595 73.8613 231.023C74.5121 231.67 74.8968 232.502 75.0055 233.354L92.7021 228.1C92.4182 227.265 92.5553 226.32 93.1367 225.654C93.9809 224.687 95.4424 224.676 96.4009 225.628C97.3594 226.581 97.452 228.137 96.6078 229.104C95.7635 230.07 94.302 230.082 93.3435 229.13C93.2984 229.085 93.2552 229.039 93.2139 228.991L74.9994 234.399C74.9042 235.071 74.63 235.711 74.1715 236.236C72.9051 237.687 70.7129 237.704 69.2751 236.275C68.3927 235.399 67.9995 234.181 68.1201 233.036L52.9535 222.994C52.6661 223.596 52.2976 224.164 51.8471 224.68C49.1032 227.822 44.3533 227.86 41.2381 224.764C40.8603 224.389 40.5239 223.985 40.2294 223.559L11.329 237.912C11.87 239.897 11.4832 242.07 10.1212 243.63C8.01042 246.047 4.3567 246.076 1.96036 243.695C-0.435984 241.314 -0.6675 237.424 1.44325 235.007C3.554 232.59 7.20772 232.561 9.60406 234.942C10.2028 235.537 10.6664 236.226 10.9921 236.963L39.7077 222.701C38.1244 219.721 38.3711 215.983 40.5658 213.47C41.1443 212.807 41.8118 212.283 42.5344 211.897L33.471 197.416C31.5355 199.177 28.5385 199.065 26.5264 197.066C24.3697 194.923 24.1614 191.422 26.061 189.247C27.9606 187.071 31.2489 187.045 33.4056 189.188C35.4444 191.214 35.7421 194.453 34.1638 196.639L43.4578 211.488C45.9962 210.583 48.9882 211.212 51.1749 213.385C51.8839 214.09 52.4472 214.896 52.8619 215.758L88.0064 202.281C86.7972 200.19 86.9307 197.496 88.4966 195.703C90.3963 193.527 93.6846 193.501 95.8414 195.644C96.1996 196 96.5041 196.394 96.7541 196.812L105.454 188.835C105.375 188.765 105.297 188.692 105.221 188.615C103.064 186.472 102.855 182.971 104.755 180.796C105.07 180.436 105.422 180.134 105.802 179.892L100.596 164.05C99.5581 164.224 98.4319 163.886 97.5741 163.034C96.1363 161.605 95.9974 159.271 97.2639 157.821C98.5303 156.371 100.723 156.353 102.16 157.782C103.598 159.211 103.737 161.545 102.471 162.995C102.199 163.306 101.884 163.552 101.544 163.731L106.706 179.443C108.475 178.789 110.571 179.219 112.1 180.738C112.901 181.533 113.433 182.516 113.688 183.549L169.026 172.677C168.985 172.507 168.961 172.334 168.954 172.16C168.862 171.173 169.14 170.171 169.803 169.412C170.419 168.706 171.255 168.34 172.116 168.314L184.441 144.032C183.282 142.791 183.01 140.866 183.881 139.412C184.883 137.739 187.02 137.323 188.653 138.483C189.346 138.976 189.837 139.673 190.096 140.441L214.882 132.292C213.514 130.442 213.28 127.865 214.471 125.876C215.975 123.367 219.179 122.743 221.629 124.484C223.962 126.141 224.769 129.347 223.54 131.816L263.968 160.538C266.207 157.129 270.176 155.722 273.938 156.692L276.392 103.128C275.074 102.983 273.753 102.495 272.549 101.64C271.033 100.562 269.931 99.0643 269.301 97.4053L253.262 103.479C253.928 105.121 253.865 107.028 252.936 108.579C251.433 111.088 248.229 111.712 245.779 109.972C243.33 108.232 242.563 104.787 244.066 102.277C245.57 99.7677 248.774 99.1441 251.224 100.884C251.874 101.346 252.406 101.928 252.808 102.581L268.996 96.4516C268.401 94.1877 268.653 91.727 269.885 89.6703C272.224 85.7667 277.209 84.7967 281.019 87.5036C281.977 88.1841 282.769 89.0322 283.382 89.9827L314.121 68.6011C313.107 66.8203 313.029 64.5641 314.097 62.7805C315.601 60.2711 318.805 59.6474 321.255 61.3876C322.561 62.3154 323.388 63.7279 323.649 65.2248L353.824 55.6576C353.845 55.2675 353.955 54.8824 354.162 54.5372C354.83 53.4219 356.255 53.1447 357.343 53.9181C357.466 54.005 357.579 54.1016 357.682 54.2061L390.019 46.4642C389.985 46.0223 390.027 45.5709 390.152 45.1298C390.698 43.2136 392.629 42.2176 394.466 42.9052C394.636 42.9689 394.8 43.0449 394.956 43.1318L404.364 37.1522C404.098 36.0804 404.095 34.9355 404.41 33.8295L404.426 33.7728L375.755 11.5654C374.594 12.6715 372.889 13.0712 371.241 12.4542C368.792 11.5375 367.396 8.72307 368.124 6.16814C368.851 3.6132 371.426 2.28522 373.875 3.202C376.324 4.11879 377.719 6.93318 376.992 9.48812C376.855 9.97143 376.651 10.4108 376.394 10.7995L404.804 32.8044C405.369 31.6642 406.263 30.7965 407.325 30.2844L409.996 8.78642C408.404 7.5155 407.625 5.30269 408.207 3.25631C408.935 0.70136 411.509 -0.626636 413.958 0.290147C416.407 1.20693 417.803 4.02132 417.076 6.57627C416.348 9.13122 413.773 10.4592 411.324 9.54244ZM344.227 199.37C340.846 202.411 339.486 207.095 340.357 211.347L299.257 224.182C298.865 223.049 298.134 222.021 297.108 221.292C295.941 220.463 294.603 220.171 293.359 220.363L275.91 176.687C277.753 175.983 279.38 174.665 280.504 172.789C281.911 170.441 282.265 167.66 281.703 165.052L293.938 161.536C294.496 162.795 295.38 163.924 296.555 164.759C298.613 166.22 301.069 166.431 303.107 165.551L310.115 177.304C309.466 178.417 309.809 179.933 310.89 180.701C311.979 181.474 313.403 181.197 314.071 180.082C314.739 178.967 314.399 177.435 313.31 176.662C312.522 176.102 311.557 176.093 310.832 176.554L303.991 165.083C304.82 164.556 305.546 163.824 306.099 162.902C307.528 160.516 307.418 157.497 306.054 155.119L321.573 142.213C322.224 142.59 322.967 142.619 323.588 142.341L345.711 168.177C343.59 170.906 343.458 174.904 345.567 177.668C346.691 179.142 348.251 180.002 349.897 180.217L351.242 196.516C348.781 196.57 346.296 197.509 344.227 199.37Z" fill="url(#paint0_linear_239_10537)"/>
<defs>
<linearGradient id="paint0_linear_239_10537" x1="245.774" y1="0" x2="245.774" y2="251.764" gradientUnits="userSpaceOnUse">
<stop stop-color="#EDB456"/>
<stop offset="1" stop-color="#E58B6B"/>
</linearGradient>
</defs>
</svg>
