<svg width="96" height="96" viewBox="0 0 96 96" fill="none" xmlns="http://www.w3.org/2000/svg">
<circle cx="48" cy="48" r="47.5" fill="white" stroke="#2A2A2A"/>
<circle cx="48" cy="48" r="47.5" fill="white" stroke="#2A2A2A"/>
<path d="M36.2382 49.9918L25.1597 48.7118C24.892 48.6808 24.856 48.3065 25.1129 48.2251L70 34L36.3741 49.9693C36.3318 49.9893 36.2847 49.9972 36.2382 49.9918Z" fill="#FEFEFE"/>
<path d="M61.0616 52.7983L66.2781 35.7263C66.3486 35.4957 66.0838 35.3088 65.89 35.4525L45.4986 50.5793C45.3178 50.7134 45.3924 50.9995 45.6157 51.0281L60.7908 52.9732C60.9116 52.9887 61.026 52.9148 61.0616 52.7983Z" fill="#FEFEFE"/>
<path d="M43.6264 51.5248L38.076 61.9208C37.9479 62.1608 38.2412 62.4039 38.4532 62.2333L50.2214 52.77C50.3912 52.6335 50.3173 52.3602 50.1019 52.3279L43.884 51.3953C43.7794 51.3796 43.6762 51.4314 43.6264 51.5248Z" fill="#9FBBCE"/>
<path d="M36.0199 50.0267L37.4176 62.2781C37.4446 62.5144 37.7551 62.5831 37.8793 62.3803L44.6593 51.3021C44.6758 51.2752 44.6972 51.2516 44.7224 51.2327L64.8378 36.124C65.0808 35.9415 64.8491 35.5652 64.5767 35.7001L36.1573 49.7744C36.0629 49.8211 36.008 49.922 36.0199 50.0267Z" fill="#9FBBCE"/>
<path d="M44.4151 51.1825L60.7922 53.4711C60.9123 53.4879 61.0271 53.416 61.0646 53.3006L66.9999 35.0001M44.4151 51.1825L66.9999 35.0001M44.4151 51.1825L37.8635 63.3261C37.7486 63.5389 37.4286 63.4809 37.3958 63.2414L35.5905 50.0871M66.9999 35.0001L23.3483 48.0235C23.0916 48.1001 23.1188 48.4721 23.384 48.5105L27.0688 49.0436L35.5905 50.0871M66.9999 35.0001L35.5905 50.0871" stroke="#2A2A2A"/>
<path d="M37.5 63.5L51 52" stroke="#2A2A2A"/>
</svg>