<svg width="134" height="132" viewBox="0 0 134 132" fill="none" xmlns="http://www.w3.org/2000/svg">
<circle cx="66" cy="66" r="65.5" stroke="black"/>
<path d="M114.928 92.4041C115.126 92.187 115.468 92.187 115.666 92.4041L119.883 97.0199C119.994 97.1408 120.156 97.1999 120.319 97.1783L126.516 96.353C126.807 96.3142 127.069 96.5339 127.082 96.8276L127.345 103.074C127.352 103.238 127.438 103.387 127.577 103.475L132.855 106.827C133.103 106.984 133.162 107.321 132.983 107.554L129.169 112.508C129.07 112.638 129.04 112.808 129.089 112.964L130.978 118.924C131.067 119.204 130.896 119.5 130.609 119.564L124.503 120.908C124.343 120.943 124.21 121.054 124.148 121.205L121.764 126.985C121.652 127.257 121.331 127.374 121.07 127.238L115.529 124.343C115.384 124.267 115.211 124.267 115.066 124.343L109.524 127.238C109.264 127.374 108.943 127.257 108.831 126.985L106.447 121.205C106.384 121.054 106.252 120.943 106.092 120.908L99.9859 119.564C99.6988 119.5 99.5279 119.204 99.6167 118.924L101.506 112.964C101.555 112.808 101.525 112.638 101.425 112.508L97.6118 107.554C97.4325 107.321 97.4919 106.984 97.74 106.827L103.018 103.475C103.156 103.387 103.243 103.238 103.25 103.074L103.513 96.8276C103.525 96.5339 103.787 96.3142 104.079 96.353L110.276 97.1783C110.438 97.1999 110.601 97.1408 110.711 97.0199L114.928 92.4041Z" fill="#2A2A2A"/>
<path d="M108.436 109.725L113.697 115.279L123.303 105.723" stroke="#FEFEFE" stroke-width="2"/>
</svg>
