<svg width="103" height="96" viewBox="0 0 103 96" fill="none" xmlns="http://www.w3.org/2000/svg">
<circle cx="48" cy="48" r="47.5" fill="white" stroke="#2A2A2A"/>
<path d="M29.1713 61.7621L22.1836 65.2559" stroke="#2A2A2A" stroke-linecap="round"/>
<path d="M35.1609 58.7673L31.168 60.7638" stroke="#2A2A2A" stroke-linecap="round"/>
<path d="M25.7296 59.8661L32.7173 56.3722" stroke="#2A2A2A" stroke-linecap="round"/>
<path d="M28.1726 55.9729L32.1655 53.9764" stroke="#2A2A2A" stroke-linecap="round"/>
<path d="M58.1434 69.5931L65.2021 46.9509L45.0479 57.5254L52.8397 72.3759L58.1434 69.5931Z" stroke="#2A2A2A"/>
<path d="M36.5614 30.8649L57.3608 37.5378L38.9523 47.1964L31.7171 33.4067L36.5614 30.8649Z" stroke="#2A2A2A"/>
<path d="M57.7121 33.8033C57.9828 33.6721 58.2867 33.6253 58.5843 33.669L71.6449 35.5862C72.6659 35.7361 73.2341 36.8482 72.7574 37.7633L66.8643 49.0765C66.7232 49.3474 66.5028 49.5687 66.2325 49.7109L44.6155 61.0851C43.8599 61.4827 42.9252 61.1703 42.5606 60.3982L35.7977 46.0767C35.4465 45.333 35.7597 44.4452 36.4998 44.0864L57.7121 33.8033Z" fill="#9FBBCE" stroke="#2A2A2A"/>
<path d="M34.177 51.5348L37.0454 48.8332L41.6688 58.3894L37.7702 58.9617L34.177 51.5348Z" fill="#C4C4C4" stroke="#2A2A2A"/>
<circle cx="59.6456" cy="42.6455" r="3.86722" transform="rotate(111.073 59.6456 42.6455)" fill="white" stroke="#2A2A2A"/>
<path d="M83.9282 58.4041C84.1264 58.187 84.4682 58.187 84.6665 58.4041L88.8835 63.0199C88.9939 63.1408 89.1564 63.1999 89.3186 63.1783L95.5161 62.353C95.8075 62.3142 96.0693 62.5339 96.0817 62.8276L96.3451 69.0742C96.352 69.2377 96.4384 69.3875 96.5766 69.4752L101.855 72.8266C102.103 72.9842 102.162 73.3208 101.983 73.5537L98.1694 78.5082C98.0695 78.6379 98.0395 78.8082 98.089 78.9643L99.9779 84.9243C100.067 85.2045 99.8958 85.5004 99.6088 85.5636L93.5028 86.9078C93.3429 86.9429 93.2104 87.0541 93.148 87.2054L90.764 92.9852C90.652 93.257 90.3308 93.3738 90.0703 93.2377L84.5288 90.3425C84.3838 90.2668 84.2108 90.2668 84.0658 90.3425L78.5243 93.2377C78.2638 93.3738 77.9427 93.257 77.8306 92.9852L75.4466 87.2054C75.3842 87.0541 75.2517 86.9429 75.0919 86.9078L68.9859 85.5636C68.6988 85.5004 68.5279 85.2045 68.6167 84.9243L70.5057 78.9643C70.5551 78.8082 70.5251 78.6379 70.4253 78.5082L66.6118 73.5537C66.4325 73.3208 66.4919 72.9842 66.74 72.8266L72.018 69.4752C72.1562 69.3875 72.2427 69.2377 72.2496 69.0742L72.513 62.8276C72.5254 62.5339 72.7872 62.3142 73.0785 62.353L79.276 63.1783C79.4382 63.1999 79.6007 63.1408 79.7111 63.0199L83.9282 58.4041Z" fill="#2A2A2A"/>
<path d="M77.436 75.7253L82.6971 81.2788L92.3027 71.7228" stroke="#FEFEFE" stroke-width="2"/>
</svg>