<svg version="1.1" id="Layer_1" xmlns="http://www.w3.org/2000/svg" xmlns:xlink="http://www.w3.org/1999/xlink" x="0px" y="0px"
	 width="100%" viewBox="0 0 130 140" enable-background="new 0 0 130 140" xml:space="preserve">
<path fill="#FEFFFE" opacity="1.000000" stroke="none" 
	d="
M69.000000,141.000000 
	C46.000004,141.000000 23.500006,141.000000 1.000006,141.000000 
	C1.000004,94.333344 1.000004,47.666683 1.000002,1.000019 
	C44.333317,1.000012 87.666634,1.000012 130.999969,1.000006 
	C130.999969,47.666645 130.999969,94.333290 130.999985,140.999969 
	C110.500000,141.000000 90.000000,141.000000 69.000000,141.000000 
M86.095100,7.199425 
	C74.972595,5.509750 63.892231,5.293189 52.879929,8.054502 
	C27.054989,14.530054 8.111754,37.189465 6.120296,64.016541 
	C4.033482,92.128166 17.866962,116.665909 42.389286,126.496429 
	C67.153214,136.423828 90.867615,132.981903 113.522034,119.245384 
	C119.862053,115.401115 122.633904,111.050583 122.218864,103.290520 
	C121.457359,89.052567 122.001823,74.744759 122.001823,60.341537 
	C104.166977,60.341537 86.801224,60.341537 69.340485,60.341537 
	C69.340485,67.945107 69.340485,75.203499 69.340485,83.004578 
	C78.287529,83.004578 87.015663,83.004578 96.153755,83.004578 
	C96.153755,87.834427 95.961929,92.140396 96.218231,96.419525 
	C96.402565,99.497093 95.392754,101.369507 92.585136,102.671120 
	C78.623184,109.143829 64.587868,110.376862 51.085236,102.035561 
	C38.027836,93.969299 33.415272,81.226410 34.130348,66.486404 
	C35.089893,46.707150 50.891148,29.001297 72.876099,30.809362 
	C83.660667,31.696301 92.589417,36.143303 100.924622,43.192501 
	C106.569260,36.284657 112.004524,29.633053 117.590553,22.796936 
	C108.587173,14.549322 98.448807,9.610992 86.095100,7.199425 
z"/>
<path fill="#4FB84A" opacity="1.000000" stroke="none" 
	d="
M86.511841,7.298004 
	C98.448807,9.610992 108.587173,14.549322 117.590553,22.796936 
	C112.004524,29.633053 106.569260,36.284657 100.924622,43.192501 
	C92.589417,36.143303 83.660667,31.696301 72.876099,30.809362 
	C50.891148,29.001297 35.089893,46.707150 34.130348,66.486404 
	C33.415272,81.226410 38.027836,93.969299 51.085236,102.035561 
	C64.587868,110.376862 78.623184,109.143829 92.585136,102.671120 
	C95.392754,101.369507 96.402565,99.497093 96.218231,96.419525 
	C95.961929,92.140396 96.153755,87.834427 96.153755,83.004578 
	C87.015663,83.004578 78.287529,83.004578 69.340485,83.004578 
	C69.340485,75.203499 69.340485,67.945107 69.340485,60.341537 
	C86.801224,60.341537 104.166977,60.341537 122.001823,60.341537 
	C122.001823,74.744759 121.457359,89.052567 122.218864,103.290520 
	C122.633904,111.050583 119.862053,115.401115 113.522034,119.245384 
	C90.867615,132.981903 67.153214,136.423828 42.389286,126.496429 
	C17.866962,116.665909 4.033482,92.128166 6.120296,64.016541 
	C8.111754,37.189465 27.054989,14.530054 52.879929,8.054502 
	C63.892231,5.293189 74.972595,5.509750 86.511841,7.298004 
z"/>
</svg>