<?xml version="1.0" standalone="no"?>
<!DOCTYPE svg PUBLIC "-//W3C//DTD SVG 20010904//EN"
 "http://www.w3.org/TR/2001/REC-SVG-20010904/DTD/svg10.dtd">
<svg version="1.0" xmlns="http://www.w3.org/2000/svg"
 width="260.000000pt" height="260.000000pt" viewBox="0 0 260.000000 260.000000"
 preserveAspectRatio="xMidYMid meet">
<metadata>
Created by potrace 1.14, written by Peter Selinger 2001-2017
</metadata>
<g transform="translate(0.000000,260.000000) scale(0.100000,-0.100000)"
fill="#26881F" stroke="none">
<path d="M1265 2344 c-5 -2 -44 -8 -85 -13 -80 -10 -152 -26 -185 -40 -11 -5
-42 -17 -68 -27 -26 -9 -50 -21 -53 -25 -3 -5 -12 -9 -20 -9 -28 0 -179 -108
-256 -183 -43 -42 -78 -79 -78 -82 0 -3 -11 -18 -25 -33 -14 -15 -25 -32 -25
-39 0 -7 -3 -13 -8 -13 -4 0 -16 -17 -27 -37 -11 -21 -23 -40 -26 -43 -11 -9
-79 -188 -90 -237 -6 -26 -15 -77 -21 -113 -13 -80 -4 -378 11 -393 6 -6 11
-24 11 -39 0 -16 7 -45 15 -65 8 -19 15 -44 15 -54 0 -11 5 -19 10 -19 6 0 10
-6 10 -14 0 -22 85 -172 130 -230 35 -44 149 -156 159 -156 6 0 11 -4 11 -9 0
-9 102 -75 160 -103 117 -56 145 -65 305 -99 200 -41 501 -13 690 66 17 7 50
21 75 31 25 10 47 21 50 24 3 3 24 14 47 25 24 11 43 23 43 28 0 4 5 7 10 7
12 0 110 70 148 105 l22 21 -2 434 -3 435 -437 3 -438 2 0 -190 0 -190 223 -2
222 -3 3 -139 c2 -119 0 -141 -14 -157 -10 -11 -23 -19 -30 -19 -7 0 -14 -3
-16 -7 -4 -11 -75 -43 -93 -43 -8 0 -15 -4 -15 -9 0 -4 -19 -11 -42 -15 -24
-3 -65 -10 -93 -15 -27 -6 -75 -10 -105 -10 -64 -1 -230 28 -230 41 0 4 -7 8
-16 8 -20 0 -134 62 -134 72 0 5 -5 8 -11 8 -14 0 -113 105 -130 138 -7 15
-23 43 -34 62 -20 33 -41 93 -64 186 -6 23 -11 80 -11 127 0 174 65 337 185
461 70 73 141 126 170 126 8 0 15 4 15 9 0 18 96 34 225 38 154 5 201 -5 340
-75 51 -25 154 -97 167 -116 8 -12 40 18 98 94 19 25 39 50 45 56 5 7 26 31
44 54 19 23 41 48 48 56 7 7 13 17 13 23 0 6 3 11 8 11 4 0 13 9 20 20 11 18
8 24 -20 50 -18 16 -36 30 -40 30 -5 0 -18 9 -31 20 -72 63 -246 139 -387 169
-104 23 -352 39 -385 25z"/>
</g>
</svg>
