<svg width="148" height="123" viewBox="0 0 148 123" fill="none" xmlns="http://www.w3.org/2000/svg">
<g id="logo">
<path id="Vector" d="M87.7 4.79688C56.3 4.79688 30.8 30.2969 30.8 61.6969C30.8 93.0969 56.3 118.597 87.7 118.597C119.1 118.597 144.6 93.0969 144.6 61.6969C144.6 30.2969 119.1 4.79688 87.7 4.79688ZM87.7 108.297C61.9 108.297 41 87.3969 41 61.5969C41 35.7969 61.9 14.9969 87.6 14.9969C113.3 14.9969 134.2 35.8969 134.2 61.5969C134.2 87.2969 113.4 108.297 87.7 108.297Z" fill="url(#paint0_linear_830_26767)"/>
<g id="Group" opacity="0.8">
<path id="Vector_2" d="M56.2 46.697C63.2 28.297 85.4 20.797 102.9 29.497C130.1 43.097 129.3 82.397 101.3 94.597C87.7 100.697 70 96.497 61.4 84.397C66.8 88.997 73.2 91.997 79.9 92.797C105.5 95.997 124.3 69.397 111.6 46.697C99.0999 25.397 69.3 26.297 56.2 46.697Z" fill="#5168B1"/>
</g>
<g id="Group_2">
<path id="Vector_3" d="M14.3 48.7959L24.2001 69.9959H21.9L18.6 62.9959H9.40005L6.10005 69.9959H3.80005L13.8 48.7959H14.3ZM14 53.2959L10.4 60.9959H17.6L14 53.2959Z" fill="white"/>
<path id="Vector_4" d="M27.4 48.7959H29.5V67.8959H37.6V69.8959H27.4V48.7959Z" fill="white"/>
<path id="Vector_5" d="M41 48.7959H43.1V67.8959H51.2V69.8959H41V48.7959Z" fill="white"/>
<path id="Vector_6" d="M66.7 65.5959H58.9001L57.4001 69.9959H52.8L60.4001 48.7959H65.4001L72.9001 69.9959H68.1L66.7 65.5959ZM65.5 61.8959L62.9001 53.5959L60.2001 61.8959H65.5Z" fill="white"/>
<path id="Vector_7" d="M75.6001 48.6963H80.0001V66.0963H90.5001V69.8963H75.6001V48.6963Z" fill="white"/>
<path id="Vector_8" d="M101.3 66.8963C102.3 66.8963 103.2 66.7963 103.8 66.5963C105 66.1963 105.7 65.2963 105.7 64.0963C105.7 63.3963 105.4 62.8963 104.8 62.4963C104.2 62.0963 103.2 61.7963 101.9 61.4963L99.7001 60.9963C97.5001 60.4963 96.0001 59.9963 95.1001 59.3963C93.7001 58.3963 93.0001 56.8963 93.0001 54.7963C93.0001 52.8963 93.7001 51.2963 95.1001 50.0963C96.5001 48.7963 98.5001 48.1963 101.2 48.1963C103.4 48.1963 105.3 48.7963 106.9 49.9963C108.5 51.1963 109.3 52.8963 109.4 55.1963H105C104.9 53.8963 104.4 52.9963 103.3 52.4963C102.6 52.0963 101.8 51.9963 100.7 51.9963C99.6001 51.9963 98.6001 52.1963 98.0001 52.6963C97.3001 53.1963 97.0001 53.7963 97.0001 54.5963C97.0001 55.3963 97.3001 55.8963 98.0001 56.2963C98.4001 56.4963 99.4001 56.7963 100.8 57.1963L104.5 58.0963C106.1 58.4963 107.3 58.9963 108.1 59.5963C109.4 60.5963 110 61.9963 110 63.8963C110 65.7963 109.3 67.3963 107.8 68.6963C106.3 69.9963 104.2 70.5963 101.5 70.5963C98.7001 70.5963 96.6001 69.9963 95.0001 68.6963C93.4001 67.3963 92.6001 65.6963 92.6001 63.4963H96.8001C96.9001 64.4963 97.2001 65.1963 97.6001 65.6963C98.3001 66.3963 99.5001 66.8963 101.3 66.8963Z" fill="white"/>
</g>
<g id="Group_3">
<path id="Vector_9" d="M7.60005 72.9961L10.7 79.6961H10L9.00005 77.4961H6.10005L5.10005 79.6961H4.30005L7.60005 72.9961ZM7.50005 74.4961L6.40005 76.8961H8.70005L7.50005 74.4961Z" fill="white"/>
<path id="Vector_10" d="M16.9 75.7967L16.4 76.0967C16 75.4967 15.4 75.1967 14.6 75.1967C14 75.1967 13.5 75.3967 13.1 75.7967C12.7 76.1967 12.5 76.6967 12.5 77.1967C12.5 77.5967 12.6 77.8967 12.8 78.1967C13 78.4967 13.2 78.7967 13.6 78.8967C13.9 79.0967 14.3 79.1967 14.7 79.1967C15.4 79.1967 16 78.8967 16.5 78.2967L17 78.5967C16.8 78.9967 16.4 79.1967 16 79.3967C15.6 79.5967 15.1 79.6967 14.6 79.6967C13.8 79.6967 13.2 79.4967 12.6 78.9967C12.1 78.4967 11.8 77.8967 11.8 77.1967C11.8 76.6967 11.9 76.2967 12.2 75.8967C12.4 75.4967 12.8 75.1967 13.2 74.8967C13.6 74.5967 14.1 74.5967 14.6 74.5967C14.9 74.5967 15.2 74.5967 15.6 74.7967C16 74.9967 16.2 74.9967 16.4 75.1967C16.6 75.3967 16.8 75.5967 16.9 75.7967Z" fill="white"/>
<path id="Vector_11" d="M23.4 75.7963L22.9 76.0963C22.5 75.4963 21.9 75.1963 21.1 75.1963C20.5001 75.1963 20 75.3963 19.6 75.7963C19.2 76.1963 19 76.6963 19 77.2963C19 77.6963 19.1 77.9963 19.3 78.2963C19.5 78.5963 19.7 78.8963 20.1 78.9963C20.4 79.1963 20.8001 79.2963 21.2001 79.2963C21.9001 79.2963 22.5 78.9963 23 78.3963L23.5 78.6963C23.3 79.0963 22.9 79.2963 22.5 79.4963C22.1 79.6963 21.6 79.7963 21.1 79.7963C20.3001 79.7963 19.7 79.5963 19.1 79.0963C18.6 78.5963 18.3 77.9963 18.3 77.2963C18.3 76.7963 18.4001 76.3963 18.7001 75.9963C18.9001 75.5963 19.3001 75.2963 19.7001 74.9963C20.1001 74.6963 20.6 74.6963 21.1 74.6963C21.4 74.6963 21.7 74.6963 22.1 74.8963C22.5001 75.0963 22.7 75.0963 22.9 75.2963C23.1 75.4963 23.2 75.5963 23.4 75.7963Z" fill="white"/>
<path id="Vector_12" d="M29.2001 78.0963L29.7001 78.3963C29.5001 78.6963 29.3001 78.9963 29.1001 79.1963C28.9001 79.3963 28.6001 79.5963 28.3001 79.6963C28.0001 79.7963 27.7001 79.8963 27.3001 79.8963C26.5001 79.8963 25.9001 79.5963 25.4001 79.0963C24.9001 78.5963 24.7001 77.9963 24.7001 77.2963C24.7001 76.6963 24.9001 76.0963 25.3001 75.5963C25.8001 74.9963 26.4001 74.6963 27.3001 74.6963C28.1001 74.6963 28.8001 74.9963 29.3001 75.6963C29.7001 76.1963 29.8001 76.6963 29.8001 77.3963H25.3001C25.3001 77.9963 25.5001 78.3963 25.9001 78.7963C26.3001 79.1963 26.7001 79.3963 27.2001 79.3963C27.5001 79.3963 27.7001 79.3963 27.9001 79.2963C28.1001 79.1963 28.3001 79.0963 28.5001 78.9963C28.7001 78.8963 29.0001 78.3963 29.2001 78.0963ZM29.2001 76.7963C29.1001 76.4963 29.0001 76.1963 28.8001 75.9963C28.6001 75.7963 28.4001 75.5963 28.2001 75.4963C27.9001 75.3963 27.7001 75.2963 27.4001 75.2963C26.9001 75.2963 26.5001 75.4963 26.1001 75.7963C25.8001 75.9963 25.7001 76.3963 25.5001 76.7963H29.2001Z" fill="white"/>
<path id="Vector_13" d="M34.0001 75.2967L33.6001 75.6967C33.3001 75.3967 32.9001 75.1967 32.6001 75.1967C32.4001 75.1967 32.2001 75.2967 32.1001 75.3967C32.0001 75.4967 31.9001 75.6967 31.9001 75.8967C31.9001 76.0967 32.0001 76.1967 32.1001 76.3967C32.2001 76.4967 32.5001 76.6967 32.9001 76.8967C33.4001 77.0967 33.7001 77.3967 33.9001 77.5967C34.0001 77.8967 34.0001 78.0967 34.0001 78.3967C34.0001 78.7967 33.9001 79.1967 33.6001 79.3967C33.3001 79.6967 33.0001 79.7967 32.5001 79.7967C32.2001 79.7967 31.9001 79.6967 31.7001 79.5967C31.4001 79.4967 31.2001 79.2967 31.1001 79.0967L31.5001 78.5967C31.8001 78.9967 32.2001 79.1967 32.5001 79.1967C32.8001 79.1967 33.0001 79.0967 33.2001 78.9967C33.4001 78.7967 33.5001 78.5967 33.5001 78.3967C33.5001 78.1967 33.4001 78.0967 33.3001 77.8967C33.2001 77.7967 32.9001 77.5967 32.5001 77.3967C32.1001 77.1967 31.7001 76.8967 31.6001 76.6967C31.4001 76.4967 31.4001 76.1967 31.4001 75.8967C31.4001 75.4967 31.5001 75.1967 31.8001 74.9967C32.1001 74.7967 32.4001 74.5967 32.8001 74.5967C33.1001 74.6967 33.6001 74.8967 34.0001 75.2967Z" fill="white"/>
<path id="Vector_14" d="M38.1 75.2967L37.7 75.6967C37.4 75.3967 37 75.1967 36.7 75.1967C36.5 75.1967 36.3 75.2967 36.2 75.3967C36.1 75.4967 36 75.6967 36 75.8967C36 76.0967 36.1 76.1967 36.2 76.3967C36.3 76.4967 36.6 76.6967 37 76.8967C37.5 77.0967 37.8 77.3967 38 77.5967C38.2 77.7967 38.3 78.0967 38.3 78.3967C38.3 78.7967 38.2 79.1967 37.9 79.3967C37.6 79.6967 37.3 79.7967 36.8 79.7967C36.5 79.7967 36.2 79.6967 36 79.5967C35.7 79.4967 35.5 79.2967 35.4 79.0967L35.8 78.5967C36.1 78.9967 36.5 79.1967 36.8 79.1967C37.1 79.1967 37.3 79.0967 37.5 78.9967C37.7 78.7967 37.8 78.5967 37.8 78.3967C37.8 78.1967 37.7 78.0967 37.6 77.8967C37.5 77.7967 37.2 77.5967 36.8 77.3967C36.4 77.1967 36 76.8967 35.9 76.6967C35.7 76.4967 35.7 76.1967 35.7 75.8967C35.7 75.4967 35.8 75.1967 36.1 74.9967C36.4 74.7967 36.7 74.5967 37.1 74.5967C37.2 74.6967 37.6 74.8967 38.1 75.2967Z" fill="white"/>
<path id="Vector_15" d="M44.7001 72.8963V73.4963C44.5001 73.3963 44.3 73.2963 44.1 73.2963C44 73.2963 43.9 73.2963 43.8 73.3963C43.7 73.3963 43.7 73.4963 43.6 73.5963C43.6 73.6963 43.6 73.7963 43.6 74.0963V74.7963H44.6V75.3963H43.6V79.7963H43V75.3963H42.3V74.7963H43V73.9963C43 73.5963 43 73.3963 43.1 73.1963C43.2 72.9963 43.3001 72.8963 43.4001 72.7963C43.6001 72.6963 43.7 72.6963 44 72.6963C44.1 72.6963 44.4001 72.7963 44.7001 72.8963Z" fill="white"/>
<path id="Vector_16" d="M48.3001 74.6963C49.1001 74.6963 49.7001 74.9963 50.2001 75.4963C50.7001 75.9963 50.9001 76.5963 50.9001 77.2963C50.9001 77.9963 50.7001 78.5963 50.2001 79.0963C49.7001 79.5963 49.1001 79.8963 48.3001 79.8963C47.5001 79.8963 46.9001 79.5963 46.4001 79.0963C45.9001 78.5963 45.7001 77.9963 45.7001 77.2963C45.7001 76.5963 45.9001 75.9963 46.4001 75.4963C46.9001 74.8963 47.6001 74.6963 48.3001 74.6963ZM48.3001 75.2963C47.8001 75.2963 47.3001 75.4963 46.9001 75.8963C46.5001 76.2963 46.3001 76.7963 46.3001 77.2963C46.3001 77.6963 46.4001 77.9963 46.6001 78.2963C46.8001 78.5963 47.0001 78.7963 47.3001 78.9963C47.6001 79.1963 47.9001 79.2963 48.3001 79.2963C48.7001 79.2963 49.0001 79.1963 49.3001 78.9963C49.6001 78.7963 49.8001 78.5963 50.0001 78.2963C50.2001 77.9963 50.3001 77.6963 50.3001 77.2963C50.3001 76.6963 50.1001 76.2963 49.7001 75.8963C49.3001 75.4963 48.9001 75.2963 48.3001 75.2963Z" fill="white"/>
<path id="Vector_17" d="M52.3 74.7963H53V75.4963C53.2 75.1963 53.4 74.9963 53.6 74.8963C53.8 74.7963 54 74.6963 54.3 74.6963C54.5 74.6963 54.7001 74.7963 54.9001 74.8963L54.6 75.3963C54.5 75.2963 54.4 75.2963 54.3 75.2963C54.1 75.2963 53.9001 75.3963 53.7001 75.5963C53.5001 75.7963 53.4001 75.9963 53.2001 76.3963C53.1001 76.6963 53.1 77.2963 53.1 78.0963V79.7963H52.4001V74.7963H52.3Z" fill="white"/>
<path id="Vector_18" d="M61.6 72.9961L64.7 79.6961H64L63 77.4961H60.1L59.1 79.6961H58.4L61.6 72.9961ZM61.5 74.4961L60.4 76.8961H62.7L61.5 74.4961Z" fill="white"/>
<path id="Vector_19" d="M66.2001 72.9961H66.9001V79.0961H69.5001V79.6961H66.2001V72.9961Z" fill="white"/>
<path id="Vector_20" d="M70.9 72.9961H71.6V79.0961H74.2V79.6961H70.9V72.9961Z" fill="white"/>
<path id="Vector_21" d="M78.8001 72.6963C78.9001 72.6963 79.1001 72.7963 79.2001 72.8963C79.3001 72.9963 79.4001 73.0963 79.4001 73.2963C79.4001 73.3963 79.3001 73.5963 79.2001 73.6963C79.1001 73.7963 79.0001 73.8963 78.8001 73.8963C78.7001 73.8963 78.5001 73.7963 78.4001 73.6963C78.3001 73.5963 78.2001 73.4963 78.2001 73.2963C78.2001 73.1963 78.3001 72.9963 78.4001 72.8963C78.5001 72.7963 78.7001 72.6963 78.8001 72.6963ZM78.5001 74.7963H79.1001V79.7963H78.5001V74.7963Z" fill="white"/>
<path id="Vector_22" d="M80.9 74.7967H81.5V75.6967C81.8 75.3967 82 75.0967 82.3 74.8967C82.6 74.6967 82.9 74.5967 83.3 74.5967C83.7 74.5967 84 74.6967 84.3 74.8967C84.6 75.0967 84.8 75.2967 84.9 75.6967C85 76.0967 85.1 76.4967 85.1 77.1967V79.7967H84.5V77.3967C84.5 76.7967 84.5 76.3967 84.4 76.2967C84.3 75.9967 84.2 75.6967 84 75.5967C83.8 75.3967 83.5 75.3967 83.2 75.3967C82.8 75.3967 82.5 75.4967 82.2 75.7967C81.9 76.0967 81.7 76.3967 81.6 76.6967C81.5 76.8967 81.5 77.3967 81.5 77.9967V79.7967H80.9V74.7967Z" fill="white"/>
<path id="Vector_23" d="M92.8 72.9961L95.9 79.6961H95.2L94.1 77.4961H91.2L90.2 79.6961H89.5L92.8 72.9961ZM92.8 74.4961L91.6 76.8961H93.9L92.8 74.4961Z" fill="white"/>
<path id="Vector_24" d="M97.4 72.9961H98.1V79.0961H100.7V79.6961H97.4V72.9961Z" fill="white"/>
<path id="Vector_25" d="M101.5 78.4959L102.1 78.1959C102.5 78.8959 103 79.2959 103.5 79.2959C103.7 79.2959 103.9 79.1959 104.1 79.0959C104.3 78.9959 104.4 78.8959 104.6 78.6959C104.7 78.4959 104.8 78.2959 104.8 78.0959C104.8 77.8959 104.7 77.6959 104.6 77.3959C104.4 77.0959 104 76.6959 103.5 76.2959C102.9 75.8959 102.6 75.5959 102.5 75.3959C102.3 75.0959 102.1 74.6959 102.1 74.3959C102.1 74.0959 102.2 73.7959 102.3 73.5959C102.4 73.3959 102.6 73.1959 102.9 72.9959C103.2 72.8959 103.4 72.7959 103.7 72.7959C104 72.7959 104.3 72.8959 104.6 72.9959C104.9 73.1959 105.2 73.3959 105.5 73.8959L105 74.2959C104.7 73.9959 104.5 73.6959 104.4 73.5959C104.2 73.4959 104 73.3959 103.8 73.3959C103.5 73.3959 103.3 73.4959 103.1 73.5959C102.9 73.6959 102.8 73.9959 102.8 74.1959C102.8 74.2959 102.8 74.4959 102.9 74.5959C103 74.6959 103.1 74.8959 103.2 74.9959C103.3 75.0959 103.6 75.2959 104.1 75.6959C104.7 76.0959 105.1 76.4959 105.3 76.7959C105.5 77.0959 105.6 77.4959 105.6 77.7959C105.6 78.2959 105.4 78.6959 105 79.0959C104.6 79.4959 104.2 79.5959 103.7 79.5959C103.3 79.5959 102.9 79.4959 102.6 79.2959C102.1 79.3959 101.7 78.9959 101.5 78.4959Z" fill="white"/>
</g>
<path id="Vector_26" d="M3.80005 83.5967H105.4" stroke="#26A9E0" stroke-width="0.4558" stroke-miterlimit="10"/>
</g>
<defs>
<linearGradient id="paint0_linear_830_26767" x1="31.6569" y1="71.5788" x2="143.743" y2="51.815" gradientUnits="userSpaceOnUse">
<stop stop-color="#9CCCEE" stop-opacity="0"/>
<stop offset="0.177" stop-color="#9CCCEE" stop-opacity="0.1"/>
<stop offset="1" stop-color="#9CCCEE" stop-opacity="0.8"/>
</linearGradient>
</defs>
</svg>
