<svg width="25" height="26" viewBox="0 0 25 26" fill="none" xmlns="http://www.w3.org/2000/svg">
<g id="Icons/dataset">
<g id="shape">
<path id="Datasets" d="M6.00908 18.5741H10.5461V14.037H6.00908V18.5741ZM13.7869 18.5741H18.3239V14.037H13.7869V18.5741ZM6.00908 10.7963H10.5461V6.25926H6.00908V10.7963ZM13.7869 10.7963H18.3239V6.25926H13.7869V10.7963ZM2.44426 24.0833C1.92574 24.0833 1.47204 23.8889 1.08315 23.5C0.694261 23.1111 0.499817 22.6574 0.499817 22.1389V2.69444C0.499817 2.17593 0.694261 1.72222 1.08315 1.33333C1.47204 0.944444 1.92574 0.75 2.44426 0.75H21.8887C22.4072 0.75 22.8609 0.944444 23.2498 1.33333C23.6387 1.72222 23.8331 2.17593 23.8331 2.69444V22.1389C23.8331 22.6574 23.6387 23.1111 23.2498 23.5C22.8609 23.8889 22.4072 24.0833 21.8887 24.0833H2.44426Z" fill="currentColor"/>
</g>
</g>
</svg>
