<svg width="26" height="26" viewBox="0 0 26 26" fill="none" xmlns="http://www.w3.org/2000/svg">
<g id="shape">
<path id="Vector" fill-rule="evenodd" clip-rule="evenodd" d="M3.93735 5.05652C3.93735 4.36401 4.90368 3.6839 6.46575 3.14437C8.19071 2.54866 10.5885 2.18018 13.25 2.18018C15.9115 2.18018 18.3093 2.54866 20.0338 3.14445C21.5962 3.68396 22.5622 4.36409 22.5622 5.05661C22.5622 5.74913 21.5959 6.42923 20.0334 6.96876C18.3088 7.56455 15.9109 7.93304 13.2496 7.93304C10.5883 7.93304 8.19027 7.56455 6.46575 6.96876C4.90387 6.42917 3.93735 5.74929 3.93735 5.05652ZM13.25 19.5633C10.4814 19.5633 7.96263 19.1715 6.12891 18.5381C5.22918 18.2274 4.4845 17.85 3.93735 17.4206V20.9429C3.93735 21.6354 4.90368 22.3155 6.46575 22.8551C8.19071 23.4509 10.5883 23.8193 13.2496 23.8193C15.9109 23.8193 18.3089 23.4509 20.0334 22.8551C21.5958 22.3156 22.5618 21.6354 22.5618 20.9429L22.562 17.4208C22.0151 17.85 21.2701 18.2275 20.3704 18.5383C18.5373 19.1717 16.0186 19.5633 13.25 19.5633L13.25 19.5633ZM13.25 8.9726C10.4814 8.9726 7.96263 8.58074 6.12891 7.94738C5.22918 7.63648 4.4845 7.25898 3.93735 6.82987V10.352C3.93735 11.0445 4.90368 11.7246 6.46617 12.2644C8.19079 12.8601 10.5887 13.2286 13.25 13.2286C15.9113 13.2286 18.3093 12.8601 20.0338 12.2643C21.596 11.7245 22.5627 11.0447 22.5627 10.3519V6.82999C22.0158 7.25919 21.2707 7.63669 20.3711 7.94751C18.5375 8.58087 16.0186 8.97256 13.25 8.97256V8.9726ZM13.25 14.2682C10.4814 14.2682 7.96263 13.8763 6.12891 13.243C5.22918 12.9323 4.4845 12.5546 3.93735 12.1254V15.6476C3.93735 16.3401 4.90368 17.0202 6.46575 17.5597C8.19071 18.1555 10.5883 18.524 13.2496 18.524C15.9109 18.524 18.3089 18.1555 20.0334 17.5597C21.5958 17.0202 22.5618 16.3401 22.5618 15.6476L22.562 12.1254C22.0151 12.5546 21.2701 12.9324 20.3704 13.243C18.5373 13.8763 16.0186 14.2682 13.25 14.2682H13.25Z" fill="currentColor"/>
</g>
</svg>
