<svg width="26" height="26" viewBox="0 0 26 26" fill="none" xmlns="http://www.w3.org/2000/svg">
<g id="projects">
<path id="Vector" d="M13.25 9.8501C11.5103 9.8501 10.1 11.2604 10.1 13.0001C10.1 14.7398 11.5103 16.1501 13.25 16.1501C14.9897 16.1501 16.4 14.7398 16.4 13.0001C16.4 11.2604 14.9897 9.8501 13.25 9.8501Z" fill="currentColor"/>
<path id="Vector_2" fill-rule="evenodd" clip-rule="evenodd" d="M13.2501 2.5C11.5103 2.5 10.1001 3.91028 10.1001 5.65C10.1001 5.78174 10.1082 5.91168 10.1239 6.03915L7.6887 7.25673C7.1806 6.90563 6.56429 6.69998 5.9 6.69998C4.16028 6.69998 2.75 8.11025 2.75 9.84998C2.75 11.2215 3.62658 12.3885 4.85 12.8206V14.2291C3.62658 14.6615 2.75 15.8284 2.75 17.1998C2.75 18.9395 4.16028 20.3498 5.9 20.3498C6.92432 20.3498 7.83446 19.8608 8.40971 19.1036L10.1238 19.9606C10.1081 20.0881 10.1 20.218 10.1 20.3498C10.1 22.0895 11.5102 23.4998 13.25 23.4998C14.9897 23.4998 16.4 22.0895 16.4 20.3498C16.4 20.218 16.3918 20.0881 16.3761 19.9606L18.0901 19.1036C18.6654 19.8608 19.5755 20.3498 20.6001 20.3498C22.3398 20.3498 23.7501 18.9395 23.7501 17.1998C23.7501 15.8283 22.8736 14.6613 21.6501 14.2291V12.8206C22.8736 12.3882 23.7501 11.2214 23.7501 9.84998C23.7501 8.11025 22.3398 6.69998 20.6001 6.69998C19.9357 6.69998 19.3195 6.90563 18.8114 7.25673L16.3762 6.03915C16.3919 5.91167 16.4001 5.78173 16.4001 5.65C16.4001 3.91028 14.9898 2.5 13.2501 2.5ZM19.5501 14.2293V12.8209C18.3266 12.3885 17.4501 11.2216 17.4501 9.85021C17.4501 9.54997 17.4921 9.2595 17.5705 8.98438L15.4367 7.91756C14.8701 8.46404 14.0993 8.80021 13.2499 8.80021C12.4006 8.80021 11.6298 8.46404 11.0632 7.91756L8.92941 8.98438C9.00791 9.25952 9.04991 9.54999 9.04991 9.85021C9.04991 11.2217 8.17333 12.3887 6.94991 12.8209V14.2293C8.13599 14.6486 8.99603 15.7579 9.04746 17.0748L11.0632 18.0828C11.6298 17.5363 12.4006 17.2 13.2499 17.2C14.0993 17.2 14.87 17.5363 15.4367 18.0828L17.4523 17.0748C17.5038 15.7578 18.3639 14.6485 19.55 14.2293H19.5501Z" fill="currentColor"/>
</g>
</svg>
