<?xml version="1.0" encoding="UTF-8" standalone="no"?>
<svg
   version="1.2"
   viewBox="0 0 432.29999 535.79999"
   width="432.29999"
   height="535.79999"
   id="svg4"
   sodipodi:docname="favicon.svg"
   inkscape:version="1.4.2 (ebf0e940, 2025-05-08)"
   xmlns:inkscape="http://www.inkscape.org/namespaces/inkscape"
   xmlns:sodipodi="http://sodipodi.sourceforge.net/DTD/sodipodi-0.dtd"
   xmlns="http://www.w3.org/2000/svg"
   xmlns:svg="http://www.w3.org/2000/svg">
  <defs
     id="defs4" />
  <sodipodi:namedview
     id="namedview4"
     pagecolor="#ffffff"
     bordercolor="#000000"
     borderopacity="0.25"
     inkscape:showpageshadow="2"
     inkscape:pageopacity="0.0"
     inkscape:pagecheckerboard="0"
     inkscape:deskcolor="#d1d1d1"
     inkscape:zoom="0.25465675"
     inkscape:cx="394.64887"
     inkscape:cy="333.78263"
     inkscape:window-width="1240"
     inkscape:window-height="583"
     inkscape:window-x="0"
     inkscape:window-y="38"
     inkscape:window-maximized="0"
     inkscape:current-layer="svg4" />
  <style
     id="style1">.a{fill:#faaf41}.b{fill:#282b6c}.c{fill:#424142}</style>
  <path
     fill-rule="evenodd"
     class="a"
     d="m 432.2,218.5 v 5.4 c -259,0 -301.9,228.5 -301.9,291.7 0,20.2 -68.6,19.8 -47.2,-35.6 C 187.2,166.2 432.2,218.5 432.2,218.5 Z"
     id="path1" />
  <path
     fill-rule="evenodd"
     class="b"
     d="m 413.5,218 c -20.6,0 -41.2,2.1 -61.4,6.2 l 28.4,77.2 c 3,10.7 8.4,20.5 15.8,28.7 5.1,4.8 11.9,7.2 18.8,6.8 h 7.7 v 20.5 H 293.9 v -20.3 l 3.2,-0.2 c 4.1,-0.3 8.1,-0.5 12.1,-0.5 5.1,0.5 10.2,-0.2 14.9,-2.2 4,-2.2 6.5,-6.2 6.6,-10.7 -1.3,-8.7 -3.7,-17.3 -7,-25.5 L 303.5,238.2 C 193.6,279.2 108.4,378.5 92,494.5 c 0.4,4.7 1.9,9.2 4.4,13.1 4.5,5.7 11.5,8.7 18.7,8 h 15.3 l 0.4,20.2 H 0 v -20.2 h 1.7 c 33.7,0 37.9,-12.1 71,-106.5 10.6,-30.2 23.7,-67.8 41.7,-116 L 224.9,0 h 43.7 l 0.5,1.1 76.3,205.1 c 22,-4.1 44.3,-6.2 66.7,-6.2 4.6,0 9.3,0.1 13.9,0.3 l 6.3,0.2 v 18.1 l -7,-0.3 c -3.9,-0.2 -7.9,-0.2 -11.8,-0.3 z m -116.9,0.9 -7.8,-19.3 -52.6,-147.3 -89.4,248.3 c -2.66667,8.06667 -5.36667,16.03333 -8.1,23.9 9.7,-11.2 20,-21.8 31,-31.6 36.8,-33.1 80,-58.3 126.9,-74 z"
     id="path3"
     sodipodi:nodetypes="ccccccccccccccccccccccsccccccscccccccccccc" />
</svg>
