<svg width="264" height="183" viewBox="0 0 264 183" fill="none" xmlns="http://www.w3.org/2000/svg">
<rect width="264" height="183" fill="#F5F5F5"/>
<path d="M-425 -1165C-425 -1166.1 -424.105 -1167 -423 -1167H41978C41979.1 -1167 41980 -1166.1 41980 -1165V6483C41980 6484.1 41979.1 6485 41978 6485H-423.001C-424.105 6485 -425 6484.1 -425 6483V-1165Z" fill="#F9F9F9" fill-opacity="0.666667"/>
<path d="M-423 -1166H41978V-1168H-423V-1166ZM41979 -1165V6483H41981V-1165H41979ZM41978 6484H-423.001V6486H41978V6484ZM-424 6483V-1165H-426V6483H-424ZM-423.001 6484C-423.553 6484 -424 6483.55 -424 6483H-426C-426 6484.66 -424.658 6486 -423.001 6486V6484ZM41979 6483C41979 6483.55 41978.6 6484 41978 6484V6486C41979.7 6486 41981 6484.66 41981 6483H41979ZM41978 -1166C41978.6 -1166 41979 -1165.55 41979 -1165H41981C41981 -1166.66 41979.7 -1168 41978 -1168V-1166ZM-423 -1168C-424.657 -1168 -426 -1166.66 -426 -1165H-424C-424 -1165.55 -423.552 -1166 -423 -1166V-1168Z" fill="black" fill-opacity="0.1"/>
<path d="M-180 -1065C-180 -1066.1 -179.105 -1067 -178 -1067H1619C1620.1 -1067 1621 -1066.1 1621 -1065V4099C1621 4100.1 1620.1 4101 1619 4101H-178C-179.105 4101 -180 4100.1 -180 4099V-1065Z" fill="#F1F1F1"/>
<path d="M-178 -1066H1619V-1068H-178V-1066ZM1620 -1065V4099H1622V-1065H1620ZM1619 4100H-178V4102H1619V4100ZM-179 4099V-1065H-181V4099H-179ZM-178 4100C-178.552 4100 -179 4099.55 -179 4099H-181C-181 4100.66 -179.657 4102 -178 4102V4100ZM1620 4099C1620 4099.55 1619.55 4100 1619 4100V4102C1620.66 4102 1622 4100.66 1622 4099H1620ZM1619 -1066C1619.55 -1066 1620 -1065.55 1620 -1065H1622C1622 -1066.66 1620.66 -1068 1619 -1068V-1066ZM-178 -1068C-179.657 -1068 -181 -1066.66 -181 -1065H-179C-179 -1065.55 -178.552 -1066 -178 -1066V-1068Z" fill="black" fill-opacity="0.1"/>
<rect width="1600" height="4735.1" transform="translate(-80 -883)" fill="white"/>
<rect width="1600" height="459" transform="translate(-80 -183)" fill="white"/>
<g clip-path="url(#clip0_0_1)">
<g clip-path="url(#clip1_0_1)">
<path d="M263.255 172.103H0V172.234H263.255V172.103Z" fill="#EBEBEB"/>
<path d="M236.877 180.548H219.438V180.679H236.877V180.548Z" fill="#EBEBEB"/>
<path d="M174.391 181.972H169.814V182.103H174.391V181.972Z" fill="#EBEBEB"/>
<path d="M218.911 175.675H208.807V175.806H218.911V175.675Z" fill="#EBEBEB"/>
<path d="M50.3615 176.557H27.62V176.688H50.3615V176.557Z" fill="#EBEBEB"/>
<path d="M58.3841 176.557H55.0497V176.688H58.3841V176.557Z" fill="#EBEBEB"/>
<path d="M118.542 178.773H69.2208V178.905H118.542V178.773Z" fill="#EBEBEB"/>
<path d="M124.79 148.7H23.1215C21.4646 148.7 20.1162 147.357 20.1162 145.705V3.27833C20.1162 1.62702 21.4646 0.283203 23.1215 0.283203H124.79C126.446 0.283203 127.795 1.62702 127.795 3.27833V145.705C127.795 147.357 126.446 148.7 124.79 148.7ZM23.1215 0.414909C21.5367 0.414909 20.2478 1.69943 20.2478 3.27885V145.706C20.2478 147.285 21.5367 148.57 23.1215 148.57H124.79C126.374 148.57 127.663 147.285 127.663 145.706V3.27833C127.663 1.69943 126.374 0.414384 124.79 0.414384L23.1215 0.414909Z" fill="#EBEBEB"/>
<path d="M238.672 148.7H137.004C135.347 148.7 133.999 147.357 133.999 145.705V3.27833C133.999 1.62702 135.348 0.283203 137.004 0.283203H238.672C240.33 0.283203 241.677 1.62702 241.677 3.27833V145.705C241.678 147.357 240.33 148.7 238.672 148.7ZM137.004 0.414909C135.42 0.414909 134.131 1.69943 134.131 3.27885V145.706C134.131 147.285 135.42 148.57 137.004 148.57H238.672C240.257 148.57 241.546 147.285 241.546 145.706V3.27833C241.546 1.69943 240.257 0.414384 238.672 0.414384L137.004 0.414909Z" fill="#EBEBEB"/>
<path d="M217.873 90.308V25.5234L174.416 25.5234V90.308L217.873 90.308Z" fill="#E6E6E6"/>
<path d="M216.555 90.308V25.5234L173.098 25.5234V90.308L216.555 90.308Z" fill="#F5F5F5"/>
<path d="M210.971 31.0894H178.683V84.7419H210.971V31.0894Z" fill="white"/>
<path d="M179.417 84.7419V31.0894H178.683V84.7419H179.417Z" fill="#E6E6E6"/>
<path d="M113.105 172.103L131.534 172.103L131.532 112.867L113.104 112.868L113.105 172.103Z" fill="#E6E6E6"/>
<path d="M116.606 172.103H113.106L113.105 163.699L120.276 163.698L116.606 172.103Z" fill="#F0F0F0"/>
<path d="M211.579 172.102L230.007 172.102L230.006 112.866L211.577 112.867L211.579 172.102Z" fill="#E6E6E6"/>
<path d="M113.105 170.872L214.633 170.87L214.632 112.867L113.104 112.869L113.105 170.872Z" fill="#F0F0F0"/>
<path d="M115.819 116.399L115.82 129.73L177.493 129.728L177.492 116.397L115.819 116.399Z" fill="#E6E6E6"/>
<path d="M179.842 116.397L179.843 129.729L211.917 129.727L211.917 116.396L179.842 116.397Z" fill="#E6E6E6"/>
<path d="M192.707 118.009H199.052C201.808 118.009 204.444 117.353 206.339 116.195L185.419 116.195C187.315 117.353 189.95 118.009 192.707 118.009Z" fill="#F0F0F0"/>
<path d="M128.36 118.009H164.304C167.06 118.009 169.696 117.353 171.591 116.195L121.072 116.195C122.968 117.353 125.603 118.01 128.36 118.009Z" fill="#F0F0F0"/>
<path d="M115.82 133.549L115.82 146.881L177.493 146.879L177.493 133.547L115.82 133.549Z" fill="#E6E6E6"/>
<path d="M179.842 133.548L179.843 146.88L211.917 146.879L211.917 133.547L179.842 133.548Z" fill="#E6E6E6"/>
<path d="M192.707 135.16H199.053C201.809 135.16 204.444 134.504 206.339 133.345L185.42 133.346C187.316 134.504 189.951 135.16 192.707 135.16Z" fill="#F0F0F0"/>
<path d="M128.36 135.16H164.304C167.061 135.16 169.696 134.503 171.591 133.345L121.073 133.346C122.969 134.504 125.604 135.16 128.36 135.16Z" fill="#F0F0F0"/>
<path d="M115.82 150.7L115.82 164.031L177.494 164.029L177.493 150.697L115.82 150.7Z" fill="#E6E6E6"/>
<path d="M179.843 150.7L179.844 164.031L211.918 164.03L211.918 150.698L179.843 150.7Z" fill="#E6E6E6"/>
<path d="M192.707 152.311H199.053C201.809 152.311 204.444 151.654 206.34 150.496L185.42 150.497C187.316 151.655 189.951 152.311 192.707 152.311Z" fill="#F0F0F0"/>
<path d="M128.361 152.312H164.305C167.061 152.312 169.697 151.655 171.592 150.497L121.074 150.498C122.969 151.656 125.604 152.312 128.361 152.312Z" fill="#F0F0F0"/>
<path d="M211.134 172.102H214.634L214.634 163.697H207.464L211.134 172.102Z" fill="#F0F0F0"/>
<path d="M220.726 102.324C220.726 102.324 220.192 108.342 199.697 108.343C179.202 108.344 178.667 102.325 178.667 102.325L220.726 102.324Z" fill="#FAFAFA"/>
<path d="M220.726 106.848C220.726 106.848 220.191 112.866 199.696 112.867C179.201 112.868 178.667 106.85 178.667 106.85L220.726 106.848Z" fill="#EBEBEB"/>
<path d="M77.1833 172.103H98.2511L92.0099 118.094H77.1833V172.103Z" fill="#E6E6E6"/>
<path d="M41.6184 172.103H88.4799L93.4254 108.89H46.5639L41.6184 172.103Z" fill="#E0E0E0"/>
<path d="M38.248 172.103H87.0113L91.9568 108.89H43.1936L38.248 172.103Z" fill="#F5F5F5"/>
<path d="M82.403 167.122L86.5687 113.872H47.8023L43.6366 167.122H82.403Z" fill="white"/>
<path d="M152.171 11.1641H32.762V97.8984H152.171V11.1641Z" fill="#EBEBEB"/>
<path d="M148.084 15.7534H36.8496V93.3093H148.084V15.7534Z" fill="#FAFAFA"/>
<path d="M60.7872 93.3093H49.1118L60.1053 15.7534H71.7807L60.7872 93.3093Z" fill="white"/>
<path d="M89.6325 93.3093H77.9572L88.9512 15.7534H100.627L89.6325 93.3093Z" fill="white"/>
<path d="M126.819 93.3093H120.981L131.975 15.7534H137.813L126.819 93.3093Z" fill="white"/>
<path d="M99.9 93.3093H94.062L105.056 15.7534H110.893L99.9 93.3093Z" fill="white"/>
<path d="M74.1386 15.7534H68.6366V93.3093H74.1386V15.7534Z" fill="#EBEBEB"/>
<path d="M74.1386 93.3086H75.3649L75.3649 15.7527H74.1386L74.1386 93.3086Z" fill="#E0E0E0"/>
<path d="M152.171 97.8984H153.051V11.1641H152.171V97.8984Z" fill="#E0E0E0"/>
<path d="M156.153 174.678L162.826 170.837L166.901 178.968L161.33 182.186L156.153 174.678Z" fill="#FFC3BD"/>
<path opacity="0.2" d="M156.156 174.68L162.832 170.838L165.112 175.392L159.054 178.886L156.156 174.68Z" fill="black"/>
<path d="M158.552 148.464C163.28 137.548 171.068 124.867 167.877 113.161L146.629 109.813C146.629 109.813 142.236 135.975 143.107 146.705C144.012 157.862 157.226 177.667 157.226 177.667L164.836 173.215C164.836 173.215 161.527 156.286 158.552 148.464Z" fill="#407BFF"/>
<g opacity="0.4">
<path d="M158.552 148.464C163.28 137.548 171.068 124.867 167.877 113.161L146.629 109.813C146.629 109.813 142.236 135.975 143.107 146.705C144.012 157.862 157.226 177.667 157.226 177.667L164.836 173.215C164.836 173.215 161.527 156.286 158.552 148.464Z" fill="black"/>
</g>
<path d="M165.603 173.126L156.909 178.242L154.142 174.657L164.387 169.251L165.603 173.126Z" fill="#407BFF"/>
<path opacity="0.2" d="M160.108 145.015C162.663 139.49 165.615 133.606 167.283 127.688C162.264 128.54 158.011 132.602 160.108 145.015Z" fill="black"/>
<path d="M166.684 177.041C166.553 176.874 166.277 176.891 166.173 177.069C165.077 178.94 161.921 180.738 160.702 181.383C160.404 181.541 160.204 181.802 160.107 182.099C159.512 183.927 157.155 186.654 157.155 186.654C157.155 186.654 157.284 187.261 157.584 187.871C157.837 188.386 158.499 188.541 158.945 188.18L168.643 180.329C168.994 180.045 169.017 179.521 168.691 179.21C168.141 178.683 167.328 177.865 166.684 177.041Z" fill="#263238"/>
<path d="M168.687 178.384L176.393 178.458L175.693 187.524L169.254 187.473L168.687 178.384Z" fill="#FFC3BD"/>
<path opacity="0.2" d="M168.689 178.387L176.397 178.46L176.004 183.537L169.005 183.477L168.689 178.387Z" fill="black"/>
<path d="M181.27 147.84C183.671 136.435 187.996 121.611 184.95 115.727L160.073 111.888C160.073 111.888 163.167 135.478 163.984 146.468C164.831 157.894 168.186 181.5 168.186 181.5L176.525 181.522C176.525 181.522 182.329 161.441 181.27 147.84Z" fill="#407BFF"/>
<path opacity="0.4" d="M181.27 147.84C183.671 136.435 187.996 121.611 184.95 115.727L160.073 111.888C160.073 111.888 163.167 135.478 163.984 146.468C164.831 157.894 168.186 181.5 168.186 181.5L176.525 181.522C176.525 181.522 182.329 161.441 181.27 147.84Z" fill="black"/>
<path d="M177.435 181.835H167.402L167.247 177.672L178.295 177.85L177.435 181.835Z" fill="#407BFF"/>
<path d="M166.643 75.8757L166.008 76.3836L165.418 76.8427C165.026 77.1429 164.628 77.4273 164.231 77.7138C163.44 78.2873 162.624 78.8199 161.806 79.3514C160.155 80.394 158.462 81.3884 156.673 82.2705C154.891 83.1667 153.031 83.9763 151.042 84.6433C149.06 85.3238 146.934 85.8465 144.592 86.071L144.162 86.1125C143.031 86.2211 141.953 85.8785 141.117 85.2404C139.375 83.905 138.303 82.2715 137.601 80.7781C137.238 80.0257 136.964 79.2753 136.756 78.5433C136.546 77.8114 136.368 77.0946 136.251 76.3873C136.138 75.6783 136.055 74.981 135.999 74.2936C135.948 73.6057 135.94 72.9235 135.941 72.2503C135.948 71.5761 135.992 70.907 136.051 70.2422L136.171 69.2431L136.346 68.1958C136.595 66.7087 138.006 65.7049 139.498 65.9526C140.451 66.111 141.207 66.7428 141.563 67.5666L141.781 68.0824C141.864 68.2766 141.959 68.5731 142.051 68.8244L142.327 69.611C142.506 70.1346 142.704 70.651 142.898 71.1573C143.289 72.1685 143.701 73.1392 144.158 74.0108C144.592 74.885 145.102 75.6584 145.573 76.2209C146.044 76.8055 146.528 77.0668 146.747 77.115L143.272 76.2844C144.524 76.0037 145.902 75.5041 147.306 74.8934C148.006 74.5901 148.713 74.2375 149.418 73.8707C150.128 73.5149 150.839 73.1229 151.546 72.7173C152.957 71.8967 154.376 71.0272 155.769 70.1032C156.47 69.6477 157.158 69.1676 157.848 68.6985L158.868 67.9843L159.812 67.3137L160.025 67.1621C162.492 65.4105 165.917 65.983 167.675 68.4419C169.369 70.81 168.885 74.0743 166.643 75.8757Z" fill="#FFC3BD"/>
<path d="M141.551 67.9668L138.831 69.7356C135.497 70.4645 135.298 66.0311 135.298 66.0311L134.339 63.9374C134.013 63.228 134.328 62.3417 135.081 61.8438L136.973 60.5928C137.836 60.0225 138.956 60.1631 139.457 60.9045L140.582 62.5705C140.91 63.0554 141.112 63.6131 141.171 64.1945L141.551 67.9668Z" fill="#FFC3BD"/>
<path d="M166.462 64.8542C161.249 64.5446 150.537 71.2443 150.537 71.2443C149.303 75.1592 151.453 82.5809 154.593 84.4159C154.593 84.4159 162.568 81.001 166.322 77.6811C170.858 73.668 177.006 65.4802 166.462 64.8542Z" fill="#263238"/>
<path d="M166.945 64.8619C173.327 65.1788 181.705 66.5515 188.073 68.4662C192.048 69.661 194.524 72.6242 192.744 80.8413C189.131 97.5103 189.428 111.129 186.339 116.846C186.339 116.846 150.174 119.073 145.339 110.76C146.319 90.1788 156.218 74.4943 160.632 68.0097C162.044 65.9365 164.433 64.737 166.945 64.8619Z" fill="#263238"/>
<path d="M168.993 67.1415C169.927 66.4751 170.701 67.0665 171.279 65.9362C171.587 65.1056 171.602 64.1889 171.259 63.1263L181.704 59.4307C180.965 62.9358 180.389 65.7048 181.741 67.3514C181.789 70.0563 175.519 72.5278 170.22 71.5245C165.556 70.6409 167.65 68.1002 168.993 67.1415Z" fill="#FFC3BD"/>
<path opacity="0.2" d="M171.354 63.4476L179.26 62.7251C176.869 65.4437 173.148 66.5593 171.401 65.5429C171.56 64.9027 171.554 64.2153 171.354 63.4476Z" fill="black"/>
<path d="M170.588 53.5828C170.171 49.5488 174.116 44.4437 177.413 46.2042C180.71 47.9646 170.588 53.5828 170.588 53.5828Z" fill="#263238"/>
<path d="M184.492 55.8849C182.402 60.481 180.884 63.5574 177.383 64.5051C170.429 66.3883 168.14 62.5804 168.812 57.4407C169.417 52.8148 172.733 46.0757 178.065 46.0012C183.317 45.9288 186.582 51.2889 184.492 55.8849Z" fill="#FFC3BD"/>
<path d="M183.287 59.5681C180.902 59.2234 179.158 54.9327 181.653 52.6879C184.148 50.4437 183.287 48.2871 181.476 47.649C179.665 47.011 176.376 47.4732 175.625 45.8665C174.874 44.2603 179.886 43.0939 182.801 44.9425C185.715 46.7911 185.561 45.6687 185.561 45.6687C185.561 45.6687 186.168 46.6148 185.015 46.8131C187.305 48.3317 189.844 51.9843 187.482 53.4803C190.462 55.1526 185.847 59.1205 183.287 59.5681Z" fill="#263238"/>
<path d="M186.746 53.2265C188.335 53.7439 189.012 52.5449 189.012 52.5449C189.012 52.5449 189.513 54.499 186.746 53.2265Z" fill="#263238"/>
<path d="M175.062 58.0964C175.273 58.0057 175.489 57.8918 175.705 57.7496C175.763 57.7113 175.776 57.6336 175.731 57.5764C175.688 57.5198 175.607 57.504 175.546 57.5429C173.966 58.5834 172.4 57.991 172.384 57.9847C172.315 57.9574 172.239 57.9873 172.214 58.0508C172.189 58.1143 172.224 58.1872 172.293 58.214C172.354 58.2381 173.615 58.7161 175.062 58.0964Z" fill="#263238"/>
<path opacity="0.2" d="M177.865 54.4766C177.865 54.4766 178.893 54.2494 179.58 54.7946C178.615 54.8077 177.865 54.4766 177.865 54.4766Z" fill="black"/>
<path opacity="0.2" d="M177.816 54.8887C177.816 54.8887 178.777 54.8803 179.25 55.5546C178.396 55.3672 177.816 54.8887 177.816 54.8887Z" fill="black"/>
<path d="M184.202 60.8612C183.197 61.7758 181.86 62.1374 180.74 62.0623C179.056 61.9495 179.275 60.6283 180.201 59.3327C181.034 58.1668 182.399 56.5008 183.869 57.2527C185.317 57.9936 185.351 59.8155 184.202 60.8612Z" fill="#FFC3BD"/>
<path d="M176.889 54.3272C176.743 54.7108 176.42 54.9422 176.169 54.8441C175.918 54.7465 175.834 54.3561 175.98 53.9725C176.127 53.5889 176.449 53.3575 176.7 53.4556C176.951 53.5538 177.036 53.9442 176.889 54.3272Z" fill="#263238"/>
<path d="M172.439 52.6011C172.293 52.9847 171.97 53.2161 171.72 53.118C171.468 53.0204 171.384 52.63 171.531 52.2464C171.677 51.8628 171.999 51.6314 172.25 51.7296C172.501 51.8277 172.586 52.2176 172.439 52.6011Z" fill="#263238"/>
<path d="M173.829 53.2271L172.707 56.5848C172.707 56.5848 171.541 56.9883 170.475 55.8449C171.59 54.1186 173.829 53.2271 173.829 53.2271Z" fill="#ED847E"/>
<path d="M178.933 52.0958C178.971 52.109 179.013 52.1121 179.055 52.1042C179.185 52.0796 179.271 51.9526 179.245 51.8214C178.989 50.5065 177.961 50.0699 177.917 50.0515C177.793 50.0006 177.653 50.0594 177.603 50.1832C177.554 50.3065 177.613 50.4472 177.735 50.4986C177.769 50.5127 178.567 50.8622 178.772 51.9111C178.79 52.0003 178.853 52.0686 178.933 52.0958Z" fill="#263238"/>
<path d="M170.769 50.8088C170.844 50.8293 170.928 50.8125 170.991 50.7569C171.784 50.0511 172.629 50.2647 172.665 50.2746C172.794 50.3087 172.925 50.2332 172.959 50.1046C172.993 49.9761 172.917 49.8444 172.788 49.8087C172.741 49.7971 171.663 49.5106 170.668 50.3948C170.569 50.483 170.561 50.6356 170.65 50.7359C170.683 50.7721 170.724 50.7967 170.769 50.8088Z" fill="#263238"/>
<path d="M115.012 81.1103L112.725 87.3262C112.309 88.4565 111.386 89.2283 110.244 89.4004L79.8838 93.9839C77.9246 94.2798 76.7658 96.2832 77.296 98.4587L87.9262 142.091C88.4564 144.267 90.474 145.79 92.4337 145.495L164.71 134.583C166.669 134.287 167.828 132.284 167.298 130.109L154.489 77.5348C153.958 75.3593 151.941 73.8355 149.981 74.1315L117.492 79.0361C116.351 79.2082 115.427 79.9806 115.012 81.1103Z" fill="#407BFF"/>
<path opacity="0.3" d="M115.012 81.1103L112.725 87.3262C112.309 88.4565 111.386 89.2283 110.244 89.4004L79.8838 93.9839C77.9246 94.2798 76.7658 96.2832 77.296 98.4587L87.9262 142.091C88.4564 144.267 90.474 145.79 92.4337 145.495L164.71 134.583C166.669 134.287 167.828 132.284 167.298 130.109L154.489 77.5348C153.958 75.3593 151.941 73.8355 149.981 74.1315L117.492 79.0361C116.351 79.2082 115.427 79.9806 115.012 81.1103Z" fill="black"/>
<path d="M99.4321 17.3166C100.152 17.3166 100.862 17.3549 101.562 17.4274C106.219 11.0142 113.787 6.83789 122.337 6.83789C133.199 6.83789 142.476 13.5738 146.21 23.0797C154.518 24.4912 160.843 31.6967 160.843 40.3783C160.843 50.0731 152.957 57.9324 143.229 57.9324H99.4316C88.1774 57.9324 79.0546 48.84 79.0546 37.6245C79.0551 26.4085 88.1779 17.3166 99.4321 17.3166Z" fill="#407BFF"/>
<path d="M101.32 50.832V101.463H138.579V61.8533L127.52 50.832H101.32Z" fill="#407BFF"/>
<path opacity="0.6" d="M101.32 50.832V101.463H138.579V61.8533L127.52 50.832H101.32Z" fill="white"/>
<path opacity="0.4" d="M127.52 61.8533V50.832L138.579 61.8533H127.52Z" fill="#407BFF"/>
<path d="M102.515 145.316L99.8751 145.713L99.9542 146.235L102.594 145.838L102.515 145.316Z" fill="#407BFF"/>
<path d="M114.695 143.479L105.476 144.867L105.555 145.389L114.774 144.001L114.695 143.479Z" fill="#407BFF"/>
<path d="M128.298 86.0842L124.861 91.8016C124.236 92.8411 123.188 93.5595 122.046 93.7321L91.6858 98.3156C89.7267 98.6115 88.2098 100.46 88.2977 102.444L90.0615 142.237C90.1494 144.221 91.809 145.59 93.7681 145.294L166.045 134.382C168.004 134.087 169.521 132.238 169.433 130.254L167.307 82.3067C167.219 80.3228 165.56 78.9538 163.601 79.2497L131.112 84.1543C129.971 84.3264 128.923 85.0448 128.298 86.0842Z" fill="#407BFF"/>
<path d="M129.356 43.4896C129.189 43.4896 129.022 43.4261 128.894 43.2986C128.638 43.0441 128.638 42.6317 128.894 42.3772C133.826 37.4616 133.826 29.4637 128.894 24.5481C126.505 22.1669 123.328 20.8556 119.949 20.8556C116.57 20.8556 113.393 22.1669 111.004 24.5481C108.615 26.9293 107.299 30.095 107.299 33.4627C107.299 36.8303 108.615 39.996 111.004 42.3772C111.259 42.6317 111.259 43.0441 111.004 43.2986C110.749 43.5526 110.335 43.5526 110.08 43.2986C107.444 40.6713 105.992 37.1782 105.992 33.4627C105.992 29.7471 107.443 26.254 110.08 23.6267C112.716 20.9994 116.221 19.5527 119.949 19.5527C123.677 19.5527 127.182 20.9994 129.818 23.6267C135.26 29.0502 135.26 37.8751 129.818 43.2986C129.69 43.4261 129.524 43.4896 129.356 43.4896Z" fill="white"/>
<path d="M125.547 47.3888V32.8686C125.547 31.56 124.483 30.4995 123.17 30.4995H116.727C115.415 30.4995 114.35 31.56 114.35 32.8686V47.3888H111.927L119.949 54.2753L127.97 47.3888H125.547Z" fill="white"/>
<path d="M190.491 83.4593L190.171 84.1803L189.869 84.8383C189.666 85.2717 189.451 85.6931 189.238 86.116C188.814 86.9608 188.351 87.7815 187.885 88.6027C186.934 90.2335 185.922 91.8402 184.786 93.3955C184.218 94.1742 183.635 94.9476 183.016 95.7095C182.385 96.4641 181.738 97.2118 181.041 97.9438C179.661 99.4146 178.099 100.815 176.253 102.078L175.89 102.326C175.706 102.452 175.498 102.558 175.298 102.636C173.109 103.472 171.287 103.617 169.537 103.719C167.801 103.798 166.16 103.68 164.561 103.52C162.963 103.332 161.407 103.075 159.877 102.734C158.336 102.385 156.869 102 155.323 101.458C153.882 100.952 153.124 99.3768 153.632 97.9396C154.005 96.8854 154.955 96.198 156.004 96.1073L156.118 96.0984L160.386 95.7342C161.805 95.6077 163.206 95.4713 164.566 95.2903C165.244 95.199 165.912 95.1113 166.564 94.9996C167.212 94.8831 167.842 94.753 168.443 94.6244C169.621 94.3568 170.74 93.9564 171.27 93.6143L170.316 94.1721C171.272 93.321 172.222 92.2484 173.149 91.0836C173.611 90.5011 174.058 89.8777 174.496 89.2455C174.944 88.6179 175.376 87.962 175.801 87.2977C176.64 85.9586 177.47 84.5828 178.251 83.1681C178.649 82.4655 179.024 81.7482 179.408 81.0398L180.477 78.9839L180.605 78.7368C181.998 76.057 185.309 75.0097 187.997 76.3986C190.581 77.7309 191.645 80.842 190.491 83.4593Z" fill="#FFC3BD"/>
<path d="M192.167 74.1848C194.699 83.252 188.271 92.2647 188.271 92.2647C184.861 93.2375 175.887 89.7513 173.981 86.4151C173.981 86.4151 177.11 77.8421 180.83 73.2844C184.275 69.064 190.684 68.8709 192.167 74.1848Z" fill="#263238"/>
<path d="M157.065 96.3135L157.567 99.5117C156.865 102.84 152.727 101.2 152.727 101.2L150.418 101.213C149.635 101.217 148.953 100.568 148.807 99.6786L148.44 97.4453C148.272 96.4274 148.86 95.4671 149.744 95.316L151.73 94.977C152.308 94.8784 152.902 94.924 153.458 95.1093L157.065 96.3135Z" fill="#FFC3BD"/>
</g>
</g>
<defs>
<clipPath id="clip0_0_1">
<rect width="280" height="319" fill="white" transform="translate(0 -123)"/>
</clipPath>
<clipPath id="clip1_0_1">
<rect width="263.255" height="196" fill="white"/>
</clipPath>
</defs>
</svg>
