<svg width="302" height="360" viewBox="0 0 302 360" fill="none" xmlns="http://www.w3.org/2000/svg">
<g clip-path="url(#clip0_12_497)">
<path opacity="0.25" fill-rule="evenodd" clip-rule="evenodd" d="M275.429 38.0984C276.962 40.0318 278.262 42.2985 279.329 44.8985C280.396 47.4985 281.229 50.3318 281.829 53.3985C282.429 56.5318 282.896 59.8985 283.229 63.4985C283.496 67.0318 283.629 70.7651 283.629 74.6984C283.629 78.5651 283.596 82.5985 283.529 86.7985C283.396 90.9318 283.229 95.1651 283.029 99.4984C282.829 103.832 282.662 108.165 282.529 112.498C282.329 116.898 282.229 121.265 282.229 125.598C282.162 129.865 282.229 134.098 282.429 138.298C282.629 142.498 282.962 146.565 283.429 150.498C283.896 154.432 284.496 158.265 285.229 161.998C285.896 165.732 286.662 169.365 287.529 172.898C288.396 176.432 289.329 179.832 290.329 183.098C291.262 186.432 292.196 189.698 293.129 192.898C294.062 196.032 294.996 199.098 295.929 202.098C296.796 205.098 297.596 207.998 298.329 210.798C299.062 213.665 299.696 216.465 300.229 219.198C300.696 221.932 301.029 224.598 301.229 227.198C301.429 229.865 301.462 232.465 301.329 234.998C301.129 237.532 300.729 239.998 300.129 242.398C299.529 244.865 298.729 247.298 297.729 249.698C296.729 252.032 295.529 254.298 294.129 256.498C292.729 258.765 291.162 260.965 289.429 263.098C287.696 265.165 285.829 267.198 283.829 269.198C281.829 271.132 279.729 272.998 277.529 274.798C275.262 276.532 272.896 278.198 270.429 279.798C268.029 281.398 265.529 282.865 262.929 284.198C260.329 285.532 257.662 286.765 254.929 287.898C252.196 289.032 249.429 290.032 246.629 290.898C243.829 291.765 241.029 292.498 238.229 293.098C235.362 293.698 232.496 294.198 229.629 294.598C226.762 294.998 223.862 295.298 220.929 295.498C217.996 295.765 215.029 295.965 212.029 296.098C209.029 296.165 205.996 296.265 202.929 296.398C199.862 296.465 196.762 296.532 193.629 296.598C190.496 296.732 187.296 296.865 184.029 296.998C180.762 297.198 177.462 297.465 174.129 297.798C170.729 298.065 167.296 298.465 163.829 298.998C160.362 299.532 156.829 300.165 153.229 300.898C149.629 301.632 145.962 302.532 142.229 303.598C138.496 304.665 134.696 305.832 130.829 307.098C127.029 308.298 123.162 309.598 119.229 310.998C115.362 312.398 111.496 313.798 107.629 315.198C103.696 316.665 99.7957 318.065 95.9291 319.398C92.0624 320.732 88.2291 321.998 84.4291 323.198C80.6291 324.398 76.8957 325.465 73.2291 326.398C69.5624 327.332 65.9624 328.098 62.4291 328.698C58.8957 329.232 55.4624 329.565 52.1291 329.698C48.8624 329.898 45.6624 329.798 42.5291 329.398C39.4624 328.998 36.5291 328.298 33.7291 327.298C30.9957 326.298 28.3624 324.998 25.8291 323.398C23.3624 321.865 21.0624 320.098 18.9291 318.098C16.7957 316.032 14.8291 313.798 13.0291 311.398C11.2957 308.932 9.72908 306.332 8.32908 303.598C6.92908 300.865 5.72908 297.998 4.72908 294.998C3.72908 291.998 2.96241 288.898 2.42908 285.698C1.89575 282.565 1.56241 279.365 1.42908 276.098C1.36241 272.832 1.52908 269.565 1.92908 266.298C2.32908 263.032 2.96241 259.798 3.82908 256.598C4.69574 253.465 5.86241 250.332 7.32908 247.198C8.72908 244.132 10.3291 241.132 12.1291 238.198C13.9957 235.265 15.9957 232.365 18.1291 229.498C20.2624 226.632 22.5291 223.798 24.9291 220.998C27.3291 218.198 29.7624 215.398 32.2291 212.598C34.6957 209.798 37.1624 207.032 39.6291 204.298C42.1624 201.498 44.6291 198.698 47.0291 195.898C49.3624 193.098 51.6291 190.265 53.8291 187.398C56.0291 184.532 58.0624 181.632 59.9291 178.698C61.7957 175.765 63.4624 172.798 64.9291 169.798C66.3957 166.732 67.6291 163.598 68.6291 160.398C69.6291 157.265 70.3957 154.065 70.9291 150.798C71.5291 147.532 71.9291 144.265 72.1291 140.998C72.3958 137.732 72.5291 134.465 72.5291 131.198C72.5957 127.932 72.5624 124.698 72.4291 121.498C72.3624 118.298 72.2624 115.165 72.1291 112.098C71.9958 109.032 71.9291 106.065 71.9291 103.198C71.8624 100.332 71.8958 97.5651 72.0291 94.8985C72.1624 92.2318 72.4624 89.7318 72.9291 87.3985C73.3291 84.9985 73.9291 82.7985 74.7291 80.7985C75.5291 78.7985 76.5624 76.9651 77.8291 75.2985C79.0957 73.6318 80.5957 72.1318 82.3291 70.7985C83.9957 69.5318 85.8957 68.3651 88.0291 67.2985C90.1624 66.2318 92.4957 65.2985 95.0291 64.4985C97.4957 63.6318 100.162 62.8651 103.029 62.1984C105.896 61.4651 108.929 60.7984 112.129 60.1984C115.262 59.5984 118.562 58.9985 122.029 58.3985C125.496 57.7985 129.096 57.1984 132.829 56.5984C136.562 55.9984 140.396 55.3318 144.329 54.5984C148.262 53.8651 152.262 53.0318 156.329 52.0984C160.462 51.2318 164.662 50.2318 168.929 49.0984C173.196 48.0318 177.496 46.8651 181.829 45.5984C186.229 44.3984 190.596 43.1651 194.929 41.8985C199.262 40.6318 203.562 39.3985 207.829 38.1985C212.096 37.0651 216.262 35.9651 220.329 34.8985C224.462 33.8985 228.462 32.9985 232.329 32.1985C236.196 31.3985 239.929 30.7985 243.529 30.3985C247.062 29.9985 250.429 29.7985 253.629 29.7985C256.829 29.7985 259.762 30.0984 262.429 30.6984C265.162 31.2984 267.629 32.1985 269.829 33.3985C271.962 34.5985 273.829 36.1651 275.429 38.0984Z" fill="#D7DEE4"/>
<path d="M259.193 196.5L255.761 202L153.278 200.5L141.5 39L162 0.5H255.5L271.5 24L259.193 196.5Z" fill="#B0BDC9"/>
<path d="M196.723 94.1722C196.723 93.7607 196.805 93.3531 196.964 92.9729C197.124 92.5927 197.358 92.2472 197.653 91.9562C197.948 91.6652 198.298 91.4344 198.684 91.277C199.069 91.1196 199.483 91.0386 199.9 91.0388H212.433C212.851 91.0381 213.265 91.1187 213.651 91.2758C214.037 91.433 214.388 91.6637 214.683 91.9547C214.979 92.2458 215.213 92.5914 215.373 92.9719C215.533 93.3524 215.616 93.7603 215.615 94.1722V95.0291H244.445V51.78H166.541V95.0291H196.723V94.1722Z" fill="#223549"/>
<path d="M269.512 51.7803H248.491V95.0293H266.34L269.512 51.7803Z" fill="#223549"/>
<path d="M244.444 0.5V47.7849H219.115C205.974 47.783 193.31 42.928 183.617 34.1762C173.924 25.4245 167.905 13.4103 166.745 0.5H244.444Z" fill="#223549"/>
<path d="M272.642 9.17516L269.804 47.7849H248.49V0.5H264.468C265.594 0.500569 266.709 0.730136 267.742 1.17438C268.774 1.61862 269.703 2.26799 270.47 3.082C271.237 3.896 271.826 4.85716 272.199 5.90551C272.573 6.95385 272.724 8.06688 272.642 9.17516Z" fill="#223549"/>
<path d="M265.357 108.339L261.959 171.382L261.933 171.838L260.838 192.165C260.667 196.791 258.684 201.171 255.305 204.385C251.926 207.598 247.416 209.393 242.722 209.393H168.935C165.911 209.397 162.934 208.651 160.278 207.223C160.232 207.198 160.186 207.173 160.145 207.152C159.708 206.914 159.286 206.655 158.875 206.387C158.772 206.316 158.669 206.25 158.566 206.179C156.261 204.596 154.361 202.505 153.016 200.073C151.672 197.641 150.92 194.933 150.819 192.165L146.3 108.339H265.357Z" fill="#223549"/>
<path d="M139.576 16.6745L141.86 47.7847H162.49V0.5H154.757C154.688 0.5 154.62 0.500304 154.551 0.500909C152.471 0.532082 150.42 0.982566 148.523 1.82466C146.626 2.66675 144.924 3.88264 143.521 5.39756C142.119 6.91248 141.045 8.69439 140.366 10.6337C139.688 12.573 139.419 14.6288 139.576 16.6745Z" fill="#223549"/>
<path d="M145.325 95.0293H162.49V51.7803H142.153L145.325 95.0293Z" fill="#223549"/>
<path d="M244.321 5.06323H244.444V46.6391H244.321C238.731 46.6391 233.369 44.4489 229.417 40.5504C225.464 36.652 223.243 31.3645 223.243 25.8512C223.243 20.3379 225.464 15.0504 229.417 11.1519C233.369 7.25338 238.731 5.06323 244.321 5.06323Z" fill="#F8E9C2"/>
<path d="M265.398 25.8512C265.397 30.6509 263.713 35.3025 260.631 39.0173C257.549 42.7322 253.26 45.2816 248.49 46.2335V5.46887C253.26 6.42074 257.549 8.97021 260.631 12.685C263.713 16.3999 265.397 21.0515 265.398 25.8512Z" fill="#F8E9C2"/>
<path d="M173.421 150.819C173.965 150.819 174.405 150.385 174.405 149.849C174.405 149.313 173.965 148.878 173.421 148.878C172.878 148.878 172.437 149.313 172.437 149.849C172.437 150.385 172.878 150.819 173.421 150.819Z" fill="#D7DEE4"/>
<path d="M203.752 26.0659C204.565 26.0659 205.224 25.4159 205.224 24.6141C205.224 23.8122 204.565 23.1622 203.752 23.1622C202.939 23.1622 202.28 23.8122 202.28 24.6141C202.28 25.4159 202.939 26.0659 203.752 26.0659Z" fill="#D7DEE4"/>
<path opacity="0.25" d="M230.262 142.835C231.075 142.835 231.734 142.185 231.734 141.383C231.734 140.581 231.075 139.931 230.262 139.931C229.449 139.931 228.79 140.581 228.79 141.383C228.79 142.185 229.449 142.835 230.262 142.835Z" fill="#D7DEE4"/>
<path opacity="0.25" d="M256.189 65.6137C257.002 65.6137 257.661 64.9636 257.661 64.1618C257.661 63.36 257.002 62.71 256.189 62.71C255.376 62.71 254.717 63.36 254.717 64.1618C254.717 64.9636 255.376 65.6137 256.189 65.6137Z" fill="#D7DEE4"/>
<path d="M241.572 181.876C242.385 181.876 243.044 181.226 243.044 180.424C243.044 179.622 242.385 178.972 241.572 178.972C240.759 178.972 240.1 179.622 240.1 180.424C240.1 181.226 240.759 181.876 241.572 181.876Z" fill="#D7DEE4"/>
<path d="M210.949 199.494C211.493 199.494 211.934 199.059 211.934 198.523C211.934 197.987 211.493 197.552 210.949 197.552C210.406 197.552 209.965 197.987 209.965 198.523C209.965 199.059 210.406 199.494 210.949 199.494Z" fill="#D7DEE4"/>
<path d="M244.365 126.482C244.908 126.482 245.349 126.048 245.349 125.512C245.349 124.975 244.908 124.541 244.365 124.541C243.821 124.541 243.38 124.975 243.38 125.512C243.38 126.048 243.821 126.482 244.365 126.482Z" fill="#D7DEE4"/>
<path d="M196.873 124.634C197.417 124.634 197.857 124.199 197.857 123.663C197.857 123.127 197.417 122.692 196.873 122.692C196.329 122.692 195.889 123.127 195.889 123.663C195.889 124.199 196.329 124.634 196.873 124.634Z" fill="#D7DEE4"/>
<path opacity="0.5" d="M231.317 62.7771C231.86 62.7771 232.301 62.3425 232.301 61.8064C232.301 61.2703 231.86 60.8357 231.317 60.8357C230.773 60.8357 230.332 61.2703 230.332 61.8064C230.332 62.3425 230.773 62.7771 231.317 62.7771Z" fill="#D7DEE4"/>
<path d="M187.816 71.2168C188.359 71.2168 188.8 70.7822 188.8 70.2461C188.8 69.71 188.359 69.2754 187.816 69.2754C187.272 69.2754 186.831 69.71 186.831 70.2461C186.831 70.7822 187.272 71.2168 187.816 71.2168Z" fill="#D7DEE4"/>
<path d="M249.853 165.565C250.031 165.687 250.204 165.817 250.371 165.955L249.878 165.56L249.853 165.565Z" fill="#F2F2F2"/>
<path d="M179.969 184.025C179.251 184.338 178.637 184.844 178.196 185.485C172.047 192.867 165.898 200.249 159.749 207.631C168.276 201.259 175.392 193.235 180.662 184.052L179.969 184.025Z" fill="#F2F2F2"/>
<path d="M125.974 155.894L137.993 155.538C141.24 162.58 137.266 177.813 137.266 177.813L132.797 209.149C133.505 209.748 134.04 210.52 134.35 211.388C134.659 212.256 134.731 213.189 134.558 214.093C134.386 214.997 133.975 215.84 133.367 216.537C132.759 217.235 131.975 217.762 131.095 218.066C130.214 218.37 129.269 218.44 128.352 218.268C127.436 218.097 126.581 217.691 125.875 217.09C125.168 216.49 124.635 215.716 124.328 214.848C124.021 213.979 123.951 213.046 124.126 212.143L121.132 177.771L125.974 155.894Z" fill="#FFB8B8"/>
<path d="M125.453 158.608L127.974 141.486L134.661 135.146C135.979 133.906 137.622 133.054 139.404 132.687C141.187 132.32 143.038 132.451 144.748 133.067C147.062 133.917 148.961 135.602 150.063 137.781C151.165 139.96 151.387 142.47 150.684 144.803C148.546 151.88 144.924 160.582 139.804 161.852L139.753 161.864L125.453 158.608Z" fill="#469285"/>
<path d="M176.279 352.343H182.837L185.957 327.396L176.278 327.396L176.279 352.343Z" fill="#FFB6B6"/>
<path d="M174.609 350.231V358.612H195.753V358.348C195.753 356.196 194.885 354.131 193.342 352.609C191.798 351.087 189.705 350.231 187.522 350.231L183.657 347.341L183.456 347.422L176.454 350.231H174.609Z" fill="#2E4761"/>
<path d="M131.554 352.343H138.112L141.231 327.396L131.553 327.396L131.554 352.343Z" fill="#FFB6B6"/>
<path d="M129.883 350.231V358.612H151.028V358.348C151.027 356.196 150.16 354.131 148.617 352.609C147.073 351.087 144.98 350.231 142.797 350.231L138.931 347.341L138.731 347.422L131.729 350.231H129.883Z" fill="#2E4761"/>
<path d="M180.671 199.139L135.428 196.526C135.428 196.526 126.081 213.956 129.166 226.632C132.25 239.308 133.322 264.617 131.501 266.666C129.68 268.715 129.166 265.166 131.222 269.222C133.302 273.324 132.764 268.208 132.764 271.757C132.677 274.091 131.973 276.363 130.724 278.348V339.659L146.612 338.652C146.612 338.652 150.903 336.584 147.232 333.071C143.56 329.558 141.21 332.32 143.413 327.897C145.617 323.473 146.645 328.544 145.617 323.473C144.588 318.403 157.521 242.287 157.521 242.287C157.521 242.287 162.481 258.018 164.638 272.264C168.351 296.792 170.328 325.887 171.809 327.407C174.148 329.811 175.69 326.769 174.148 329.811C172.606 332.853 169.153 332.203 171.394 334.049C173.634 335.895 173.634 333.36 173.634 335.895C173.652 337.511 173.884 339.117 174.326 340.673L187.444 339.805L186.743 273.785L180.671 199.139Z" fill="#2E4761"/>
<path d="M167.801 120.865L153.293 119.162L149.578 126.853C149.578 126.853 129.227 137.687 129.967 140.33C130.708 142.973 136.363 154.128 134.821 157.17C133.279 160.212 129.263 161.224 132.299 164.014C135.335 166.804 137.391 167.818 136.363 170.353C135.335 172.888 135.849 182.014 135.849 182.014C135.849 182.014 129.879 192.823 131.836 195.024C133.793 197.225 135.335 195.065 133.793 198.173C132.25 201.281 120.386 204.84 131.716 205.089C143.046 205.337 145.617 198.239 154.356 203.816C163.095 209.393 180.388 204.175 180.388 204.175C180.388 204.175 181.392 198.239 180.983 194.69C180.574 191.141 179.618 192.903 180.353 186.951C181.088 181 182.292 166.895 182.292 166.895C182.292 166.895 188.97 137.689 187.257 134.861C185.545 132.033 170.479 128.29 170.479 128.29L167.801 120.865Z" fill="#469285"/>
<path d="M177.753 163.722L188.142 157.749C194.404 162.408 198.287 177.663 198.287 177.663L209.531 207.301C210.443 207.494 211.288 207.92 211.98 208.537C212.671 209.154 213.186 209.939 213.472 210.815C213.758 211.69 213.805 212.625 213.609 213.524C213.412 214.423 212.979 215.255 212.353 215.937C211.726 216.619 210.929 217.125 210.041 217.406C209.153 217.688 208.206 217.733 207.294 217.538C206.383 217.343 205.539 216.915 204.849 216.296C204.159 215.678 203.646 214.891 203.362 214.015L184.091 185.224L177.753 163.722Z" fill="#FFB8B8"/>
<path d="M178.61 166.352L172.535 150.12L175.342 141.401C175.899 139.691 176.93 138.169 178.319 137.007C179.707 135.845 181.397 135.089 183.198 134.824C188.27 134.114 188.717 135.868 189.781 140.81C191.328 148.034 191.964 151.801 192.79 162.443L192.751 162.479L178.61 166.352Z" fill="#469285"/>
<path d="M161.991 116.37C169.552 116.37 175.682 110.324 175.682 102.867C175.682 95.4096 169.552 89.3641 161.991 89.3641C154.43 89.3641 148.3 95.4096 148.3 102.867C148.3 110.324 154.43 116.37 161.991 116.37Z" fill="#FFB8B8"/>
<path d="M159.001 115.989C162.845 115.18 163.014 114.111 166.858 113.302C168.082 113.045 169.505 112.622 169.907 111.452C170.193 110.62 169.825 109.7 169.309 108.983C168.732 108.313 168.194 107.612 167.698 106.882C167.373 106.298 167.197 105.645 167.185 104.98C167.173 104.314 167.326 103.655 167.63 103.06C167.934 102.466 168.38 101.953 168.93 101.567C169.48 101.181 170.117 100.932 170.787 100.843C171.972 100.685 173.177 101.036 174.369 100.928C176.003 100.78 178.61 94.9101 177.611 93.6253C176.64 92.3747 174.999 91.5915 174.492 90.0973C174.16 89.1201 174.399 88.0486 174.273 87.0257C174.085 85.509 170.841 89.5771 171.305 88.1195C172.445 84.5439 155.369 83.3789 153.423 87.9493C152.696 89.6575 150.886 89.8698 149.456 91.0712C148.518 91.8586 146.253 94.404 145.888 95.8056C145.576 97.2249 145.573 98.6935 145.881 100.114C147.064 106.763 149.201 112.694 155.349 115.661" fill="#2E4761"/>
</g>
<defs>
<clipPath id="clip0_12_497">
<rect width="301" height="359" fill="white" transform="translate(0.5 0.5)"/>
</clipPath>
</defs>
</svg>
