<svg width="140" height="66" viewBox="0 0 140 66" fill="none" xmlns="http://www.w3.org/2000/svg">
<g clip-path="url(#clip0_57_11221)">
<path d="M0 7.91895L12.7704 15.2436V0.814819L0 7.91895Z" fill="white"/>
<path d="M0.366211 36.9684L25.4459 22.5267V36.938L13.0273 44.2143L0.366211 36.9684Z" fill="white"/>
<path d="M0 7.91333V22.3799L12.7704 15.2436L0 7.91333Z" fill="#F0F0F0"/>
<path d="M0 22.3788L12.8515 29.8035L12.7704 15.2436L0 22.3788Z" fill="#CFCFCF"/>
<path d="M12.7704 15.2739L12.8106 29.8338L25.4459 22.5413L12.7704 15.2739Z" fill="#ADADAD"/>
<path d="M0.182037 51.4106L13.0274 44.2143L0.368473 36.9615L0.182037 51.4106Z" fill="#ADADAD"/>
<path d="M0.177155 51.4078L12.8692 58.6796L13.0274 44.2143L0.177155 51.4078Z" fill="#CFCFCF"/>
<path d="M12.8682 58.679L25.842 51.4638L13.0273 44.2143L12.8682 58.679Z" fill="#F0F0F0"/>
<path d="M12.8682 58.681L25.6386 66.0057L25.842 51.4639L12.8682 58.681Z" fill="white"/>
<path d="M38.6361 22.5698H43.1296V36.867H38.6361V22.5698Z" fill="white"/>
<path d="M46.1017 36.867V22.5698H53.5744C54.96 22.5698 56.019 22.6868 56.7514 22.9209C57.4839 23.1549 58.0743 23.5889 58.5231 24.2228C58.9716 24.8567 59.1961 25.6288 59.1961 26.539C59.1961 27.3323 59.0245 28.0165 58.681 28.5919C58.3377 29.1673 57.8655 29.6339 57.2649 29.9914C56.8821 30.2191 56.3572 30.4076 55.6903 30.5571C56.2245 30.733 56.6134 30.9087 56.8574 31.0842C57.0223 31.2014 57.2613 31.4519 57.5747 31.8358C57.8878 32.2199 58.0971 32.5159 58.2025 32.7242L60.374 36.867H55.3079L52.9113 32.4978C52.6076 31.9322 52.3372 31.5649 52.0997 31.3958C51.7762 31.1748 51.41 31.0642 51.001 31.0642H50.6051V36.867H46.1017ZM50.6051 28.3628H52.4955C52.7 28.3628 53.0959 28.2978 53.6832 28.1677C53.9802 28.1092 54.2225 27.9597 54.4106 27.7191C54.5986 27.4786 54.6928 27.2022 54.6928 26.8902C54.6928 26.4286 54.5443 26.0743 54.2474 25.8271C53.9505 25.5801 53.3928 25.4565 52.5747 25.4565H50.6051V28.3628Z" fill="white"/>
<path d="M61.5643 22.5698H68.2253C69.5383 22.5698 70.599 22.7453 71.4075 23.0964C72.2157 23.4475 72.8837 23.9514 73.4116 24.608C73.9395 25.2648 74.3222 26.0287 74.5597 26.8999C74.7972 27.7712 74.916 28.6944 74.916 29.6696C74.916 31.1975 74.7395 32.3825 74.3866 33.2244C74.0334 34.0664 73.5436 34.7718 72.9167 35.3407C72.2898 35.9097 71.6167 36.2883 70.8976 36.4769C69.9144 36.737 69.0236 36.867 68.2253 36.867H61.5643L61.5643 22.5698ZM66.0479 25.8076V33.6194H67.1465C68.0833 33.6194 68.7499 33.517 69.1458 33.3122C69.5417 33.1074 69.8519 32.7499 70.0762 32.2394C70.3004 31.7291 70.4127 30.9018 70.4127 29.7574C70.4127 28.2426 70.1619 27.2056 69.6604 26.6463C69.1591 26.0872 68.3277 25.8076 67.1663 25.8076H66.0479Z" fill="white"/>
<path d="M76.8489 22.5698H80.8772V25.2712H76.8489V22.5698ZM76.8489 26.5098H80.8772V36.867H76.8489V26.5098Z" fill="white"/>
<path d="M83.473 36.867V22.5698H90.9456C92.3313 22.5698 93.3903 22.6868 94.1227 22.9209C94.8551 23.1549 95.4456 23.5889 95.8944 24.2228C96.3431 24.8567 96.5674 25.6288 96.5674 26.539C96.5674 27.3323 96.3958 28.0165 96.0525 28.5919C95.7092 29.1673 95.2371 29.6339 94.6365 29.9914C94.2536 30.2191 93.7285 30.4076 93.0618 30.5571C93.5958 30.733 93.9849 30.9087 94.229 31.0842C94.3939 31.2014 94.6326 31.4519 94.9459 31.8358C95.2593 32.2199 95.4686 32.5159 95.5741 32.7242L97.7452 36.867H92.6792L90.2825 32.4978C89.9791 31.9322 89.7085 31.5649 89.4709 31.3958C89.1477 31.1748 88.7815 31.0642 88.3723 31.0642H87.9764V36.867H83.473ZM87.9764 28.3628H89.8668C90.0713 28.3628 90.4672 28.2978 91.0545 28.1677C91.3515 28.1092 91.5941 27.9597 91.7821 27.7191C91.9702 27.4786 92.0641 27.2022 92.0641 26.8902C92.0641 26.4286 91.9156 26.0743 91.6187 25.8271C91.3217 25.5801 90.7641 25.4565 89.946 25.4565H87.9764V28.3628Z" fill="white"/>
<path d="M108.17 31.0154L112.099 32.1857C111.835 33.2716 111.42 34.1786 110.852 34.9067C110.285 35.6349 109.58 36.1843 108.739 36.5549C107.898 36.9255 106.827 37.1108 105.528 37.1108C103.95 37.1108 102.662 36.8849 101.662 36.4334C100.663 35.9818 99.8 35.1877 99.0744 34.0506C98.3485 32.9135 97.9857 31.4581 97.9857 29.6842C97.9857 27.3192 98.6239 25.5016 99.9007 24.2314C101.177 22.961 102.984 22.3259 105.32 22.3259C107.147 22.3259 108.584 22.6901 109.63 23.4182C110.676 24.1464 111.453 25.2648 111.961 26.7731L108.002 27.6411C107.863 27.2055 107.718 26.8869 107.566 26.6853C107.316 26.3473 107.009 26.0872 106.646 25.9051C106.283 25.7231 105.877 25.632 105.429 25.632C104.412 25.632 103.634 26.0347 103.093 26.8399C102.684 27.4374 102.479 28.3758 102.479 29.655C102.479 31.2396 102.723 32.3257 103.212 32.9134C103.7 33.5011 104.386 33.7949 105.27 33.7949C106.128 33.7949 106.776 33.5576 107.215 33.0829C107.654 32.6084 107.972 31.9192 108.17 31.0154Z" fill="white"/>
<path d="M39.218 52.158V46.9273H41.5717C42.0449 46.9273 42.4045 46.9743 42.6508 47.0682C42.897 47.1622 43.0937 47.3281 43.241 47.566C43.3882 47.8039 43.4619 48.0667 43.4619 48.3545C43.4619 48.7256 43.34 49.0384 43.0962 49.2929C42.8523 49.5474 42.4757 49.7092 41.9664 49.7781C42.1523 49.8661 42.2935 49.953 42.3901 50.0386C42.5953 50.2241 42.7896 50.4561 42.973 50.7343L43.8964 52.158H43.0129L42.3104 51.0697C42.1052 50.7557 41.9362 50.5155 41.8035 50.349C41.6707 50.1825 41.5518 50.0659 41.4468 49.9993C41.3418 49.9327 41.235 49.8863 41.1263 49.8602C41.0467 49.8435 40.9163 49.8352 40.7353 49.8352H39.9205V52.158L39.218 52.158ZM39.9205 49.2358H41.4305C41.7515 49.2358 42.0026 49.2031 42.1837 49.1377C42.3647 49.0723 42.5023 48.9676 42.5964 48.8237C42.6906 48.6798 42.7377 48.5234 42.7377 48.3545C42.7377 48.1071 42.6465 47.9037 42.4643 47.7444C42.282 47.585 41.9941 47.5053 41.6006 47.5053H39.9205L39.9205 49.2358Z" fill="white"/>
<path d="M47.0911 52.158V46.9273H50.9294V47.5446H47.7936V49.1466H50.7303V49.7603H47.7936V51.5407H51.0525V52.158H47.0911Z" fill="white"/>
<path d="M58.3246 50.324L59.027 50.4989C58.8798 51.0674 58.6148 51.5009 58.2322 51.7994C57.8496 52.0979 57.3819 52.2472 56.8291 52.2472C56.2569 52.2472 55.7916 52.1324 55.4332 51.9029C55.0747 51.6733 54.8019 51.3409 54.6148 50.9056C54.4277 50.4704 54.3342 50.0029 54.3342 49.5034C54.3342 48.9587 54.4398 48.4836 54.651 48.078C54.8622 47.6724 55.1628 47.3644 55.5526 47.1539C55.9425 46.9434 56.3716 46.8381 56.8399 46.8381C57.371 46.8381 57.8176 46.9713 58.1797 47.2377C58.5418 47.5041 58.7941 47.8788 58.9365 48.3617L58.2449 48.5222C58.1218 48.1416 57.9431 47.8645 57.7089 47.6909C57.4748 47.5172 57.1803 47.4304 56.8254 47.4304C56.4174 47.4304 56.0765 47.5268 55.8025 47.7194C55.5285 47.9121 55.336 48.1708 55.2249 48.4955C55.1139 48.8202 55.0584 49.1549 55.0584 49.4999C55.0584 49.9447 55.1241 50.333 55.2557 50.6648C55.3872 50.9966 55.5919 51.2446 55.8695 51.4087C56.1471 51.5728 56.4476 51.6549 56.7711 51.6549C57.1646 51.6549 57.4977 51.5431 57.7705 51.3195C58.0433 51.0959 58.228 50.7641 58.3246 50.324Z" fill="white"/>
<path d="M62.1928 49.6104C62.1928 48.7422 62.4294 48.0625 62.9025 47.5713C63.3757 47.0801 63.9864 46.8345 64.7348 46.8345C65.2248 46.8345 65.6666 46.9499 66.0601 47.1806C66.4535 47.4114 66.7535 47.7331 66.9599 48.1458C67.1663 48.5585 67.2695 49.0265 67.2695 49.5498C67.2695 50.0802 67.1608 50.5548 66.9436 50.9734C66.7263 51.392 66.4185 51.709 66.0202 51.9243C65.6219 52.1395 65.1922 52.2472 64.7311 52.2472C64.2314 52.2472 63.7848 52.1282 63.3913 51.8904C62.9978 51.6525 62.6997 51.3278 62.4969 50.9163C62.2941 50.5048 62.1928 50.0695 62.1928 49.6104ZM62.917 49.6211C62.917 50.2515 63.089 50.748 63.433 51.1108C63.777 51.4735 64.2085 51.6549 64.7275 51.6549C65.2562 51.6549 65.6913 51.4717 66.0329 51.1054C66.3745 50.7391 66.5453 50.2193 66.5453 49.5462C66.5453 49.1204 66.4723 48.7487 66.3262 48.4312C66.1802 48.1136 65.9665 47.8674 65.6853 47.6926C65.4041 47.5178 65.0884 47.4304 64.7384 47.4304C64.2411 47.4304 63.8132 47.5987 63.4547 47.9352C63.0963 48.2718 62.917 48.8338 62.917 49.6211Z" fill="white"/>
<path d="M73.1728 50.1064V49.4927L75.4215 49.4892V51.4302C75.0763 51.7013 74.7202 51.9053 74.3533 52.0421C73.9863 52.1788 73.6098 52.2472 73.2235 52.2472C72.7021 52.2472 72.2283 52.1372 71.8023 51.9172C71.3762 51.6972 71.0545 51.379 70.8373 50.9627C70.62 50.5465 70.5114 50.0814 70.5114 49.5677C70.5114 49.0586 70.6194 48.5835 70.8354 48.1422C71.0515 47.701 71.3623 47.3733 71.7679 47.1593C72.1734 46.9452 72.6405 46.8381 73.1692 46.8381C73.553 46.8381 73.9 46.8994 74.2102 47.0219C74.5204 47.1444 74.7636 47.3151 74.9399 47.5339C75.1161 47.7528 75.2501 48.0382 75.3418 48.3902L74.7081 48.5615C74.6285 48.2951 74.5295 48.0858 74.4112 47.9335C74.2929 47.7813 74.1239 47.6594 73.9042 47.5678C73.6846 47.4762 73.4408 47.4304 73.1728 47.4304C72.8517 47.4304 72.5741 47.4786 72.34 47.5749C72.1058 47.6713 71.9169 47.7979 71.7733 47.9549C71.6296 48.1119 71.518 48.2844 71.4383 48.4723C71.3031 48.7958 71.2355 49.1466 71.2355 49.5248C71.2355 49.9911 71.317 50.3812 71.48 50.6951C71.6429 51.0091 71.8801 51.2422 72.1915 51.3945C72.5029 51.5467 72.8336 51.6228 73.1837 51.6228C73.4878 51.6228 73.7847 51.5651 74.0744 51.4498C74.3641 51.3344 74.5838 51.2113 74.7335 51.0805V50.1065L73.1728 50.1064Z" fill="white"/>
<path d="M78.9639 52.158V46.9273H79.6844L82.4726 51.0341V46.9273H83.1461V52.158H82.4256L79.6374 48.0477V52.158H78.9639Z" fill="white"/>
<path d="M86.9601 52.158V46.9273H87.6626V52.158H86.9601Z" fill="white"/>
<path d="M90.9913 52.158V51.5157L93.7107 48.1654C93.9038 47.9275 94.0873 47.7206 94.2611 47.5446H91.2991V46.9273H95.1012V47.5446L92.1211 51.1732L91.7988 51.5407H95.1881V52.158L90.9913 52.158Z" fill="white"/>
<path d="M98.4733 52.158V46.9273H102.312V47.5446H99.1757V49.1466H102.112V49.7603H99.1757V51.5407H102.435V52.158H98.4733Z" fill="white"/>
<path d="M105.919 52.158V46.9273H107.748C108.16 46.9273 108.476 46.9523 108.693 47.0022C108.997 47.0712 109.256 47.1961 109.471 47.3769C109.751 47.61 109.961 47.9079 110.1 48.2706C110.238 48.6334 110.308 49.0479 110.308 49.5141C110.308 49.9113 110.261 50.2634 110.167 50.5702C110.072 50.877 109.952 51.131 109.804 51.332C109.657 51.533 109.496 51.6911 109.321 51.8065C109.146 51.9219 108.935 52.0093 108.687 52.0688C108.44 52.1282 108.156 52.158 107.835 52.158L105.919 52.158ZM106.622 51.5407H107.755C108.105 51.5407 108.38 51.5086 108.579 51.4444C108.778 51.3801 108.937 51.2898 109.055 51.1732C109.221 51.0091 109.351 50.7885 109.444 50.5113C109.537 50.2342 109.584 49.8982 109.584 49.5034C109.584 48.9563 109.492 48.5358 109.31 48.2421C109.128 47.9483 108.906 47.7515 108.646 47.6516C108.457 47.5802 108.154 47.5445 107.737 47.5445H106.622V51.5407Z" fill="white"/>
<path d="M39.1782 60.6701V55.4395H41.4341C42.0014 55.4395 42.4136 55.4864 42.6706 55.5804C42.9277 55.6743 43.1335 55.8415 43.288 56.0817C43.4425 56.3219 43.5198 56.5967 43.5198 56.9059C43.5198 57.2984 43.4027 57.6225 43.1686 57.8782C42.9344 58.1339 42.5844 58.295 42.1185 58.3616C42.3502 58.4949 42.5415 58.6412 42.6924 58.8005C42.8433 58.9599 43.0467 59.243 43.3026 59.6497L43.9507 60.6702H42.6689L41.894 59.532C41.6188 59.1252 41.4305 58.8689 41.3291 58.7631C41.2277 58.6572 41.1203 58.5847 41.0068 58.5454C40.8934 58.5061 40.7135 58.4865 40.4673 58.4865H40.25V60.6701H39.1782ZM40.25 57.6516H41.043C41.5572 57.6516 41.8783 57.6302 42.0062 57.5874C42.1342 57.5446 42.2343 57.4708 42.3068 57.3662C42.3792 57.2615 42.4154 57.1307 42.4154 56.9737C42.4154 56.7977 42.3677 56.6556 42.2724 56.5473C42.177 56.4391 42.0424 56.3707 41.8686 56.3422C41.7817 56.3303 41.521 56.3243 41.0865 56.3243H40.25V57.6516Z" fill="white"/>
<path d="M47.0441 60.6701V55.4395H50.9801V56.3243H48.1159V57.4839H50.781V58.3652H48.1159V59.7888H51.0815V60.6701H47.0441Z" fill="white"/>
<path d="M54.2328 58.9682L55.2757 58.8683C55.3384 59.2132 55.4658 59.4665 55.6577 59.6282C55.8496 59.79 56.1085 59.8709 56.4344 59.8709C56.7796 59.8709 57.0397 59.7989 57.2147 59.655C57.3898 59.5111 57.4773 59.3428 57.4773 59.1501C57.4773 59.0264 57.4405 58.9212 57.3668 58.8344C57.2932 58.7475 57.1646 58.672 56.9812 58.6078C56.8556 58.565 56.5696 58.4889 56.123 58.3794C55.5484 58.2391 55.1453 58.0666 54.9135 57.8621C54.5876 57.5743 54.4247 57.2234 54.4247 56.8095C54.4247 56.5431 54.5014 56.2939 54.6547 56.062C54.8079 55.8301 55.0288 55.6535 55.3173 55.5322C55.6058 55.4109 55.954 55.3502 56.362 55.3502C57.0283 55.3502 57.5298 55.4941 57.8665 55.782C58.2033 56.0698 58.3801 56.4539 58.397 56.9344L57.3252 56.9808C57.2793 56.712 57.1809 56.5187 57.0301 56.401C56.8792 56.2832 56.6529 56.2244 56.3511 56.2244C56.0397 56.2244 55.7959 56.2874 55.6197 56.4135C55.5062 56.4943 55.4495 56.6026 55.4495 56.7382C55.4495 56.8618 55.5026 56.9677 55.6088 57.0557C55.744 57.1675 56.0723 57.2841 56.5937 57.4054C57.1152 57.5267 57.5008 57.6521 57.7507 57.7818C58.0005 57.9114 58.1961 58.0886 58.3373 58.3134C58.4785 58.5382 58.5491 58.8159 58.5491 59.1465C58.5491 59.4463 58.4646 59.7269 58.2956 59.9886C58.1266 60.2502 57.8876 60.4447 57.5786 60.5719C57.2696 60.6992 56.8846 60.7628 56.4235 60.7628C55.7524 60.7628 55.237 60.61 54.8773 60.3043C54.5176 59.9987 54.3028 59.5533 54.2328 58.9682Z" fill="white"/>
<path d="M61.7474 58.0869C61.7474 57.5541 61.8282 57.1069 61.99 56.7454C62.1107 56.4789 62.2754 56.2399 62.4842 56.0282C62.693 55.8165 62.9218 55.6595 63.1704 55.5572C63.5012 55.4193 63.8826 55.3503 64.3147 55.3503C65.0968 55.3503 65.7227 55.5893 66.1922 56.0674C66.6617 56.5455 66.8965 57.2104 66.8965 58.062C66.8965 58.9064 66.6635 59.567 66.1976 60.044C65.7317 60.5209 65.1089 60.7594 64.3292 60.7594C63.5398 60.7594 62.9121 60.5221 62.4462 60.0475C61.9803 59.573 61.7474 58.9195 61.7474 58.0869ZM62.8518 58.0512C62.8518 58.6435 62.9906 59.0925 63.2682 59.3982C63.5458 59.7038 63.8983 59.8566 64.3256 59.8566C64.7528 59.8566 65.1035 59.705 65.3775 59.4017C65.6515 59.0984 65.7885 58.6435 65.7885 58.037C65.7885 57.4375 65.6551 56.9903 65.3883 56.6954C65.1216 56.4005 64.7673 56.253 64.3256 56.253C63.8838 56.253 63.5277 56.4022 63.2573 56.7008C62.987 56.9993 62.8518 57.4494 62.8518 58.0512Z" fill="white"/>
<path d="M70.2398 55.4395H71.3116V58.2725C71.3116 58.722 71.3249 59.0134 71.3514 59.1466C71.3973 59.3607 71.5065 59.5326 71.6791 59.6622C71.8518 59.7918 72.0877 59.8566 72.3871 59.8566C72.6912 59.8566 72.9206 59.7954 73.0751 59.6729C73.2296 59.5504 73.3225 59.3999 73.3539 59.2215C73.3852 59.0431 73.4009 58.747 73.4009 58.3331V55.4395H74.4728V58.1868C74.4728 58.8148 74.4438 59.2584 74.3858 59.5177C74.3279 59.777 74.2211 59.9958 74.0654 60.1742C73.9097 60.3526 73.7015 60.4947 73.4407 60.6006C73.18 60.7064 72.8397 60.7594 72.4196 60.7594C71.9126 60.7594 71.5282 60.7017 71.2663 60.5863C71.0044 60.471 70.7974 60.3211 70.6453 60.1368C70.4932 59.9524 70.393 59.7591 70.3448 59.5569C70.2748 59.2572 70.2397 58.8148 70.2397 58.2297L70.2398 55.4395Z" fill="white"/>
<path d="M78.1202 60.6701V55.4395H80.3761C80.9434 55.4395 81.3556 55.4864 81.6127 55.5804C81.8698 55.6743 82.0756 55.8415 82.2301 56.0817C82.3846 56.3219 82.4618 56.5967 82.4618 56.9059C82.4618 57.2984 82.3447 57.6225 82.1106 57.8782C81.8764 58.1339 81.5264 58.295 81.0605 58.3616C81.2922 58.4949 81.4835 58.6412 81.6344 58.8005C81.7853 58.9599 81.9887 59.243 82.2446 59.6497L82.8927 60.6702H81.6109L80.836 59.532C80.5608 59.1252 80.3725 58.8689 80.2711 58.7631C80.1697 58.6572 80.0623 58.5847 79.9488 58.5454C79.8354 58.5061 79.6555 58.4865 79.4093 58.4865H79.1921V60.6701H78.1202ZM79.192 57.6516H79.985C80.4992 57.6516 80.8203 57.6302 80.9482 57.5874C81.0761 57.5446 81.1763 57.4708 81.2487 57.3662C81.3212 57.2615 81.3574 57.1307 81.3574 56.9737C81.3574 56.7977 81.3097 56.6556 81.2144 56.5473C81.119 56.4391 80.9844 56.3707 80.8106 56.3422C80.7237 56.3303 80.463 56.3243 80.0285 56.3243H79.192V57.6516Z" fill="white"/>
<path d="M89.3825 58.7469L90.4218 59.0716C90.2625 59.6425 89.9975 60.0665 89.627 60.3436C89.2564 60.6207 88.7863 60.7593 88.2166 60.7593C87.5117 60.7593 86.9323 60.522 86.4785 60.0475C86.0246 59.5729 85.7977 58.9241 85.7977 58.1011C85.7977 57.2305 86.0259 56.5544 86.4821 56.0727C86.9384 55.5911 87.5383 55.3502 88.2818 55.3502C88.9312 55.3502 89.4586 55.5393 89.8642 55.9175C90.1056 56.1411 90.2866 56.4622 90.4073 56.8809L89.3464 57.1307C89.2836 56.8595 89.1527 56.6454 88.9535 56.4884C88.7543 56.3314 88.5123 56.2529 88.2275 56.2529C87.834 56.2529 87.5147 56.3921 87.2697 56.6704C87.0247 56.9487 86.9022 57.3995 86.9022 58.0227C86.9022 58.6839 87.0229 59.1549 87.2643 59.4356C87.5057 59.7163 87.8195 59.8566 88.2057 59.8566C88.4906 59.8566 88.7356 59.7674 88.9408 59.589C89.146 59.4106 89.2932 59.1299 89.3825 58.7469Z" fill="white"/>
<path d="M93.8555 60.6701V55.4395H97.7916V56.3243H94.9273V57.4839H97.5924V58.3652H94.9273V59.7888H97.8929V60.6701H93.8555Z" fill="white"/>
<path d="M101.044 58.9682L102.087 58.8683C102.15 59.2132 102.277 59.4665 102.469 59.6282C102.661 59.79 102.92 59.8709 103.246 59.8709C103.591 59.8709 103.851 59.7989 104.026 59.655C104.201 59.5111 104.289 59.3428 104.289 59.1501C104.289 59.0264 104.252 58.9212 104.178 58.8344C104.105 58.7475 103.976 58.672 103.793 58.6078C103.667 58.565 103.381 58.4889 102.934 58.3794C102.36 58.2391 101.957 58.0666 101.725 57.8621C101.399 57.5743 101.236 57.2234 101.236 56.8095C101.236 56.5431 101.313 56.2939 101.466 56.062C101.619 55.8301 101.84 55.6535 102.129 55.5322C102.417 55.4109 102.765 55.3502 103.173 55.3502C103.84 55.3502 104.341 55.4941 104.678 55.782C105.015 56.0698 105.191 56.4539 105.208 56.9344L104.137 56.9808C104.091 56.712 103.992 56.5187 103.841 56.401C103.691 56.2832 103.464 56.2244 103.163 56.2244C102.851 56.2244 102.607 56.2874 102.431 56.4135C102.318 56.4943 102.261 56.6026 102.261 56.7382C102.261 56.8618 102.314 56.9677 102.42 57.0557C102.555 57.1675 102.884 57.2841 103.405 57.4054C103.927 57.5267 104.312 57.6521 104.562 57.7818C104.812 57.9114 105.007 58.0886 105.149 58.3134C105.29 58.5382 105.36 58.8159 105.36 59.1465C105.36 59.4463 105.276 59.7269 105.107 59.9886C104.938 60.2502 104.699 60.4447 104.39 60.5719C104.081 60.6992 103.696 60.7628 103.235 60.7628C102.564 60.7628 102.048 60.61 101.689 60.3043C101.329 59.9987 101.114 59.5533 101.044 58.9682Z" fill="white"/>
<path d="M121.923 54.5989C121.752 54.049 121.929 53.4814 122.239 53.2223C122.739 52.804 123.344 52.566 124.068 52.4398C124.915 52.2922 124.953 52.5215 125.358 53.5505C125.547 54.0281 125.801 54.483 126.038 54.9416C126.291 55.4294 126.666 55.4921 126.944 55.0699C127.251 54.6057 127.481 54.0938 127.781 53.6249C128.795 52.0375 129.866 50.4887 130.958 48.9507C131.679 47.9358 132.401 46.9297 133.142 45.9153C133.456 45.4859 133.827 45.0185 134.153 44.6409C134.953 43.7135 135.621 42.7559 136.723 42.15C137.666 41.632 138.691 41.5146 139.73 41.9719C139.993 42.0876 140.064 42.2214 139.942 42.417C139.823 42.6062 139.658 42.8188 139.51 42.9831C138.285 44.3394 137.012 45.5684 135.711 47.0552C134.536 48.3995 133.554 50.0671 132.484 51.4942C131.413 52.9233 130.665 54.3153 129.663 55.7873C128.995 56.7682 128.348 57.6568 127.749 58.6967C127.053 59.9054 125.184 60.6545 124.035 59.8585C123.871 59.745 123.738 59.5228 123.647 59.3221C123.069 58.0468 122.583 56.7276 122.178 55.3903C122.083 55.0739 121.975 54.7557 121.923 54.5989Z" fill="white"/>
<path d="M132.843 45.5808L133.67 44.114C132.063 43.2353 130.411 42.8372 128.443 42.8372C122.262 42.8372 117.252 47.7744 117.252 53.8647C117.252 59.9551 122.262 64.8922 128.443 64.8922C134.624 64.8922 139.635 59.955 139.635 53.8647C139.635 51.1278 138.62 48.6258 136.945 46.6981L135.652 47.7892C137.122 49.4811 137.932 51.6387 137.932 53.8647C137.932 59.0202 133.675 63.2146 128.443 63.2146C123.211 63.2146 118.954 59.0203 118.954 53.8647C118.954 48.7091 123.211 44.5148 128.443 44.5148C130.138 44.5148 131.495 44.8436 132.843 45.5808Z" fill="white"/>
</g>
<defs>
<clipPath id="clip0_57_11221">
<rect width="140" height="65.1908" fill="white" transform="translate(0 0.814819)"/>
</clipPath>
</defs>
</svg>
