<svg width="138" height="36" viewBox="0 0 138 36" fill="none" xmlns="http://www.w3.org/2000/svg">
<g clip-path="url(#clip0_1232_18546)">
<path d="M65.4004 1.14937C67.5501 7.3247 69.9891 13.3066 72.2407 19.3607C72.6089 20.3506 73.1907 21.0389 74.2984 21.2421C75.4029 21.4454 76.4909 20.6325 76.4909 19.5148C76.4909 17.0105 76.4909 14.5063 76.4777 12.0021C76.4646 9.22254 76.4416 6.44626 76.4284 3.6667C76.4251 2.83415 76.1162 2.19498 75.3273 1.83115C75.1432 1.74592 75.1465 1.73609 75.1695 1.36242C75.2812 1.35587 75.3996 1.33948 75.5146 1.34931C76.4317 1.41815 77.3521 1.4247 78.2692 1.34604C78.5124 1.32309 78.6439 1.40504 78.7556 1.62465C80.8495 5.7317 82.9499 9.8322 85.0503 13.9327C85.665 15.1324 86.2797 16.332 86.8976 17.5317C86.9305 17.5973 86.9765 17.6595 87.039 17.7579C89.4024 12.2676 91.7526 6.81337 94.116 1.32637C95.3322 1.45092 96.5484 1.38209 97.7547 1.33948C97.8369 1.62792 97.7777 1.77215 97.5148 1.89342C96.7949 2.22448 96.5451 2.88004 96.5451 3.60442C96.5319 8.90131 96.5319 14.1982 96.5451 19.4951C96.5451 20.2818 96.9527 20.8652 97.6857 21.1864C97.8993 21.2815 98.0078 21.3831 97.9158 21.6388H92.4462C92.3673 21.4159 92.4199 21.2979 92.6565 21.1995C93.5046 20.8455 93.9582 20.2621 93.9516 19.2689C93.9122 14.916 93.922 10.5631 93.9122 6.21354C93.9122 6.16437 93.9122 6.11192 93.9122 6.02015C93.738 6.12831 93.7182 6.28892 93.6591 6.42331C91.4633 11.376 89.2676 16.3288 87.0751 21.2782C86.9864 21.4781 86.9469 21.7174 86.6281 21.665C86.2862 21.6093 85.9214 21.7994 85.6749 21.3011C83.1274 16.1649 80.5504 11.045 77.9635 5.88904C77.8714 6.00704 77.9109 6.12176 77.9109 6.22337C77.9109 10.7074 77.9109 15.1914 77.9109 19.6754C77.9109 20.3998 78.3974 20.9308 79.3572 21.2126C79.5938 21.2815 79.7056 21.3667 79.6168 21.6388H68.5954C68.4902 21.3864 68.5625 21.2553 68.8288 21.1405C69.4632 20.8685 69.6736 20.426 69.4829 19.777C69.0852 18.4331 68.4837 17.1646 67.9873 15.8568C67.9249 15.6929 67.8164 15.6863 67.6783 15.6863C65.1144 15.6863 62.5506 15.6863 59.9867 15.6863C59.8223 15.6863 59.727 15.7289 59.6612 15.8961C59.1846 17.099 58.6028 18.2626 58.2643 19.518C58.0309 20.3834 58.2084 20.78 59.0367 21.1373C59.2898 21.2454 59.395 21.3667 59.2898 21.6486H54.6485C54.5828 21.4126 54.5926 21.252 54.8655 21.1536C55.6445 20.875 56.1277 20.2883 56.4367 19.5443C57.6693 16.5582 58.9052 13.5721 60.1346 10.5828C61.101 8.23592 62.0674 5.88904 63.0305 3.54215C63.3033 2.87676 63.5169 2.18842 63.6977 1.49026C63.7635 1.22804 63.8818 1.13298 64.1579 1.14937C64.5885 1.17559 65.0224 1.15592 65.384 1.15592L65.4004 1.14937ZM67.4384 14.3031C66.2912 11.3301 65.1539 8.3867 63.9903 5.36459C62.7478 8.3867 61.5381 11.3334 60.3187 14.3031H67.4417H67.4384Z" fill="white"/>
<path d="M21.2293 1.3854C21.8176 1.3854 22.3797 1.36573 22.9418 1.38868C24.7825 1.46735 26.6167 1.2379 28.4542 1.21823C30.262 1.19857 31.9713 1.53946 33.4768 2.62768C36.0702 4.50257 36.7079 9.68473 32.5728 11.8055C32.0469 12.0742 31.4881 12.2676 30.8734 12.4545C31.1627 12.8806 31.4355 13.287 31.7149 13.6902C32.9475 15.4831 34.1703 17.2826 35.4194 19.0657C36.251 20.2523 37.385 21.016 38.8248 21.2782C39.4789 21.3962 40.1067 21.252 40.6984 20.9734C41.106 20.78 41.3196 20.4162 41.3821 19.977C41.4149 19.7573 41.4215 19.5345 41.4215 19.3116C41.4215 14.1196 41.4215 8.92757 41.4215 3.73885C41.4215 2.66373 41.0435 2.14257 40.0081 1.78201C39.9424 1.6509 39.9555 1.51323 39.9982 1.34607C40.1396 1.34607 40.2842 1.34607 40.4255 1.34607C44.0939 1.34607 47.7622 1.34607 51.4305 1.34607C51.9203 1.34607 52.4002 1.3264 52.8604 1.13301C53.0116 1.07073 53.1694 1.09696 53.3239 1.11335V4.7189C53.0806 4.73857 52.913 4.8074 52.8012 4.5124C52.3641 3.35534 51.4799 2.76207 50.2636 2.7424C48.2914 2.70962 46.3192 2.73257 44.347 2.73257C44.3108 2.73257 44.2747 2.75223 44.2155 2.76862V10.3272C44.3601 10.4091 44.4916 10.3763 44.6198 10.3763C46.145 10.3763 47.6702 10.3698 49.1954 10.3829C49.9547 10.3895 50.6022 10.1993 50.9901 9.48479C51.0986 9.28484 51.2629 9.3209 51.4667 9.34057V12.7101C51.2235 12.7953 51.0657 12.72 50.9276 12.4905C50.6121 11.9661 50.1223 11.7038 49.5175 11.7006C47.7951 11.6907 46.0727 11.6973 44.3503 11.6973C44.3141 11.6973 44.278 11.717 44.2188 11.7366V20.2228C44.2747 20.2359 44.324 20.2588 44.3733 20.2588C46.4112 20.2556 48.4492 20.249 50.4839 20.2392C51.8973 20.2326 53.0642 19.7836 53.6559 18.3938C53.8169 18.3938 53.9418 18.4036 54.0865 18.4856C53.9353 19.5771 53.7841 20.6718 53.6329 21.7666C52.7486 21.724 51.8973 21.6519 51.046 21.6486C47.7326 21.6388 44.4193 21.6552 41.106 21.6552C39.8306 21.6552 38.5651 21.8486 37.293 21.8617C35.5377 21.8813 34.1177 21.1996 33.0626 19.7672C31.4059 17.5186 29.723 15.2897 28.0597 13.0445C27.8724 12.7888 27.685 12.6741 27.353 12.6773C26.7515 12.6839 26.1532 12.6216 25.5517 12.5888C25.4564 12.7298 25.4991 12.8773 25.4991 13.015C25.4958 15.1521 25.4958 17.2892 25.4991 19.4263C25.4991 20.2818 25.8936 20.862 26.6989 21.1733C26.9257 21.2618 27.0769 21.3471 26.952 21.6388H21.2983C21.1964 21.3831 21.2818 21.2717 21.5317 21.1766C22.2811 20.898 22.692 20.2851 22.692 19.482C22.692 14.172 22.692 8.86201 22.692 3.55529C22.692 2.7424 22.2975 2.16551 21.5152 1.87707C21.2588 1.78201 21.1372 1.67057 21.2325 1.3854H21.2293ZM25.4958 6.91173C25.4958 8.27201 25.5024 9.63557 25.4893 10.9958C25.4893 11.2777 25.5681 11.3859 25.8541 11.4154C26.6923 11.4973 27.5305 11.5596 28.3687 11.5268C29.9169 11.4678 31.2481 10.9598 32.1258 9.60279C32.7437 8.64896 32.8654 7.5804 32.7865 6.47579C32.6451 4.52223 31.4191 3.02101 29.529 2.49984C28.326 2.16879 27.113 2.26712 25.8968 2.43757C25.5912 2.48018 25.4827 2.58834 25.486 2.90629C25.5024 4.24034 25.4925 5.57768 25.4925 6.91173H25.4958Z" fill="white"/>
<path d="M0.731414 1.26089C2.19415 1.26089 3.66345 1.26744 5.13276 1.26089C6.75984 1.25106 8.38692 1.13306 10.014 1.27072C12.5549 1.48706 14.915 2.17211 16.8346 3.95522C18.3302 5.34172 19.1454 7.08878 19.4281 9.07511C19.885 12.307 19.2013 15.2799 17.1699 17.8759C15.4705 20.0458 13.1959 21.2324 10.4643 21.5798C9.90225 21.6519 9.34016 21.6618 8.77479 21.6651C6.22734 21.6651 3.6766 21.6388 1.12915 21.7306C1.00095 21.7339 0.86947 21.7306 0.741275 21.7306C0.662386 21.5405 0.698544 21.3766 0.708405 21.2094C0.75771 21.1865 0.807016 21.1603 0.853035 21.1439C1.74382 20.7964 2.13169 20.2622 2.13498 19.328C2.13827 14.0868 2.13498 8.84567 2.13498 3.60122C2.13498 2.72278 1.77341 2.18522 0.964794 1.88367C0.695257 1.78206 0.609794 1.65095 0.731414 1.26745V1.26089ZM5.06373 11.1041C5.06373 13.8705 5.06373 16.6337 5.06373 19.4001C5.06373 20.3474 5.33655 20.6326 6.28651 20.7047C7.16743 20.7702 8.04507 20.7309 8.926 20.6981C11.9468 20.5899 14.1129 19.1248 15.4212 16.4599C16.9036 13.4509 16.9661 10.3272 15.8353 7.19367C14.8953 4.58783 13.0216 2.99811 10.2868 2.43761C8.68933 2.10983 7.08197 2.08033 5.46475 2.20161C5.13276 2.22783 5.05715 2.33272 5.05715 2.64411C5.06702 5.463 5.06373 8.27861 5.06373 11.0975V11.1041Z" fill="white"/>
<path d="M66.7285 27.4077C67.2314 27.2864 67.5634 27.447 67.8823 27.8534C69.0623 29.3579 70.2884 30.8297 71.4947 32.3145C71.5407 32.3702 71.59 32.4259 71.6952 32.5472V27.4011H72.5827C72.6583 27.6797 72.6912 33.4584 72.6156 34.2648C72.1751 34.3762 71.8366 34.2812 71.5309 33.8944C70.3475 32.4063 69.1379 30.9411 67.9381 29.4661C67.8658 29.3776 67.7869 29.2891 67.639 29.1154V34.2812H66.7318V27.4044L66.7285 27.4077Z" fill="white"/>
<path d="M82.2301 28.1943C82.1874 28.2631 82.1578 28.3058 82.1315 28.3516C81.7897 28.8859 81.7897 28.8892 81.244 28.5844C80.6162 28.2304 79.9391 28.1124 79.2324 28.1976C77.7335 28.3779 76.8197 29.5841 76.9972 31.1246C77.2306 33.1536 79.3244 34.2156 81.1586 33.2388C81.2868 33.17 81.3262 33.1011 81.3229 32.97C81.3196 32.5669 81.3229 32.1604 81.3229 31.7015C81.0435 31.7015 80.7871 31.7015 80.5307 31.7015C80.0081 31.7015 80.0015 31.6917 80.0048 31.1804C80.0048 31.1148 80.0114 31.0525 80.0147 30.9575H82.2959C82.2959 31.8031 82.2959 32.6619 82.2959 33.5207C82.2959 33.6453 82.1874 33.6911 82.1019 33.7501C80.7411 34.6548 78.4369 34.5663 77.1582 33.56C76.0472 32.6849 75.6166 31.1214 76.0801 29.6431C76.5041 28.2959 77.6809 27.4044 79.1699 27.3093C80.0475 27.2536 80.9022 27.3257 81.6845 27.7748C81.8784 27.8862 82.0691 27.9944 82.2301 28.1943Z" fill="white"/>
<path d="M27.3004 30.4233H31.1068V27.4175C31.4684 27.3422 31.8037 27.388 32.1652 27.3848V34.2714C31.83 34.3304 31.5078 34.2976 31.1331 34.2943V31.187H27.3136V34.2648C26.9454 34.3271 26.6134 34.2976 26.2617 34.291V27.3913H27.3004V30.4233V30.4233Z" fill="white"/>
<path d="M41.8392 34.2746C41.8162 34.2812 41.8063 34.2877 41.7932 34.2877C40.5803 34.3172 40.8531 34.3598 40.4521 33.4486C40.3042 33.1143 40.2779 32.6488 39.9919 32.4817C39.7289 32.3243 39.3049 32.4358 38.9499 32.4358C38.3582 32.4358 37.7666 32.4555 37.1782 32.426C36.9021 32.4128 36.787 32.5177 36.7016 32.7603C36.5767 33.1176 36.3926 33.4552 36.2841 33.8157C36.1691 34.1992 35.9456 34.3467 35.5577 34.3008C35.39 34.2812 35.2191 34.3008 34.9956 34.3008C35.2619 33.665 35.5117 33.0651 35.7615 32.4653C36.4255 30.8887 37.096 29.3121 37.7436 27.7289C37.8553 27.4536 37.9934 27.3323 38.2892 27.3716C38.4437 27.3913 38.6048 27.388 38.7625 27.3716C38.94 27.3552 39.0189 27.4372 39.0814 27.588C39.9985 29.7808 40.9221 31.9736 41.8392 34.1632C41.8491 34.1861 41.8392 34.2123 41.8392 34.2746ZM39.7388 31.6885C39.2983 30.5904 38.871 29.5284 38.4404 28.4598C38.0098 29.535 37.5825 30.597 37.1453 31.6885H39.7388Z" fill="white"/>
<path d="M63.4448 27.4044V28.1747H60.0362V30.3839H62.7578V31.187H60.0329V33.4421H63.4087C63.5073 33.7273 63.458 33.9829 63.4514 34.2681H58.958V27.4044H63.4448V27.4044Z" fill="white"/>
<path d="M85.662 34.2746V27.3945H90.1324V28.1779H86.7434V30.3806H89.4782V31.2033H86.7401V33.4388H90.1488V34.2746H85.6587H85.662Z" fill="white"/>
<path d="M23.1193 28.1911C23.0469 28.2927 22.9812 28.3746 22.9319 28.4631C22.7544 28.7876 22.544 28.8269 22.2285 28.6172C21.65 28.2238 20.9991 28.0993 20.3121 28.2009C18.7837 28.4271 18.1295 29.6431 18.2249 31.0526C18.3103 32.3178 18.9283 33.1241 19.9769 33.3929C20.7197 33.583 21.4659 33.5469 22.1463 33.1339C22.7577 32.7603 22.7511 32.7504 23.2179 33.3109C22.2712 34.5827 19.7237 34.7564 18.3531 33.6453C16.9002 32.4686 16.6931 29.8726 17.9389 28.4664C19.2175 27.0242 21.719 26.8767 23.116 28.1943L23.1193 28.1911Z" fill="white"/>
<path d="M92.8145 33.4519C92.8473 33.3929 92.8736 33.347 92.8999 33.3044C93.2516 32.7242 93.2648 32.7209 93.8236 33.0913C94.3988 33.4716 95.0135 33.6322 95.6939 33.4486C96.2132 33.3077 96.5321 32.934 96.5649 32.4128C96.5978 31.9376 96.3907 31.6229 95.8484 31.4131C95.4211 31.2492 94.974 31.1378 94.5401 30.987C93.4751 30.6166 93.0643 30.0463 93.1267 29.0498C93.1793 28.2206 93.817 27.5355 94.7867 27.3552C95.7432 27.1782 96.6373 27.3388 97.4229 28.0009C97.3506 28.1419 97.2848 28.2664 97.2256 28.3943C97.0942 28.6729 96.9101 28.7122 96.657 28.5418C96.1705 28.2107 95.638 28.0665 95.0529 28.1681C94.5204 28.2599 94.1884 28.5746 94.1293 29.0433C94.0767 29.4563 94.2706 29.7677 94.7932 29.9906C95.2271 30.1741 95.684 30.2987 96.1278 30.4593C97.2322 30.8624 97.6069 31.3476 97.5708 32.3342C97.5379 33.2585 96.9167 33.996 95.947 34.2681C94.8787 34.5663 93.6 34.2386 92.8177 33.4519H92.8145Z" fill="white"/>
<path d="M52.8701 33.4224H55.96V34.2779H51.8413V27.3945H52.8701V33.4224Z" fill="white"/>
<path d="M44.7217 27.3881H45.7308V33.4225H48.8502V34.2681H44.7217V27.3881Z" fill="white"/>
<path d="M129.116 27.0013C128.886 26.1884 128.712 25.3624 128.64 24.5167C130.944 25.2116 133.094 26.1753 134.744 28.0043C135.611 28.9679 136.134 30.0857 136.236 31.3935C136.289 32.0458 136.289 32.0589 135.582 31.9606C135.539 30.6789 134.882 29.7349 133.869 28.9909C133.36 28.6139 132.814 28.3026 132.242 28.0403C131.236 27.5814 130.198 27.2307 129.116 27.0013V27.0013Z" fill="white"/>
<path d="M110.472 27.2471C111.287 27.0177 112.116 26.8439 112.951 26.6997C112.244 29.0532 111.228 31.2296 109.296 32.8554C108.191 33.783 106.695 34.291 105.535 34.1665C105.489 33.9567 105.506 33.7437 105.529 33.5142C107.659 33.4028 108.618 31.895 109.437 30.243C109.907 29.2924 110.232 28.2796 110.469 27.2438L110.472 27.2471Z" fill="white"/>
<path d="M110.472 27.2471C108.941 27.6699 107.445 28.1878 106.091 29.04C104.967 29.748 104.027 30.6133 103.688 31.9671C103.54 32.013 103.402 32.0228 103.234 31.9441C103.192 30.7182 103.556 29.6103 104.26 28.6106C105.345 27.0701 106.883 26.1195 108.559 25.3492C109.368 24.9756 110.223 24.7265 111.054 24.4118C111.945 24.2118 112.832 24.0086 113.723 23.8087C114.657 23.6579 115.59 23.5235 116.53 23.4383C119.689 23.1498 122.825 23.2744 125.944 23.848C126.155 24.7232 126.365 25.5983 126.576 26.4735C124.192 26.1621 121.803 25.9982 119.4 26.0671C117.237 26.1293 115.084 26.3129 112.954 26.703C112.119 26.8472 111.291 27.0209 110.476 27.2503L110.472 27.2471Z" fill="white"/>
<path d="M113.723 23.8054C112.832 24.0054 111.945 24.2086 111.054 24.4085C111.412 21.8355 111.527 19.2526 111.425 16.6599C111.347 14.726 111.169 12.7986 110.798 10.8943C110.61 9.90764 110.416 8.92431 110.124 7.96065C109.68 6.50531 109.154 5.08603 108.29 3.81753C107.609 2.82109 106.787 2.00492 105.552 1.70009C105.483 1.57226 105.512 1.43131 105.532 1.24776C106.041 1.18876 106.538 1.27398 107.027 1.39853C108.503 1.77548 109.624 2.67031 110.551 3.8372C111.675 5.24992 112.379 6.87898 112.938 8.57687C112.957 8.63587 112.99 8.69159 113.016 8.75059C113.253 9.74376 113.559 10.7173 113.703 11.7301C114.275 14.844 114.348 17.9743 114.065 21.1209C113.983 22.0223 113.805 22.9073 113.72 23.8054H113.723Z" fill="white"/>
<path d="M126.576 26.4702C126.365 25.5951 126.155 24.7199 125.945 23.8447C125.228 19.7573 125.218 15.67 125.948 11.5858C126.914 11.3925 127.871 11.1401 128.821 10.8844C128.462 12.9887 128.255 15.1095 128.193 17.2433C128.14 18.9871 128.199 20.7243 128.367 22.4615C128.433 23.1498 128.472 23.8447 128.64 24.52C128.712 25.3656 128.886 26.1883 129.117 27.0045C129.521 28.7909 130.106 30.5052 131.243 31.9769C132.009 32.9701 132.65 33.3011 134.1 33.5273C134.159 33.724 134.129 33.9272 134.113 34.1796C133.505 34.2353 132.92 34.1337 132.348 33.9534C130.612 33.4093 129.432 32.1965 128.472 30.7281C127.611 29.4137 127.059 27.9616 126.576 26.4768V26.4702Z" fill="white"/>
<path d="M128.821 10.8811C127.868 11.1368 126.914 11.3892 125.948 11.5826C124.913 11.753 123.88 11.9071 122.835 11.9956C119.936 12.248 117.05 12.1627 114.177 11.6842C114.026 11.658 113.848 11.5465 113.707 11.7301C113.562 10.7172 113.257 9.74046 113.02 8.75057C114.46 8.97019 115.903 9.16357 117.359 9.26191C119.788 9.4258 122.217 9.40941 124.64 9.16685C125.304 9.1013 125.974 9.06524 126.622 8.89152C127.578 8.81941 128.505 8.5998 129.426 8.34085C131.158 7.91802 132.811 7.31819 134.205 6.16113C134.994 5.50557 135.49 4.68613 135.569 3.64707C135.572 3.5848 135.589 3.52252 135.599 3.46024C135.806 3.41108 136 3.41763 136.236 3.46024C136.302 4.1453 136.167 4.80413 135.937 5.44002C135.375 7.00024 134.258 8.0983 132.91 8.99641C131.736 9.7798 130.445 10.3239 129.113 10.7762C129.015 10.809 128.919 10.8484 128.821 10.8844V10.8811Z" fill="white"/>
<path d="M129.425 8.3408C128.505 8.59974 127.578 8.81936 126.622 8.89147C127.309 6.59702 128.268 4.45008 130.076 2.78824C131.082 1.86391 132.269 1.32635 133.646 1.2313C133.787 1.22147 133.929 1.2313 134.06 1.2313C134.159 1.39191 134.136 1.52958 134.1 1.69347C132.768 2.02124 131.901 2.9423 131.197 4.04691C130.356 5.37113 129.817 6.82647 129.425 8.33752V8.3408Z" fill="white"/>
<path d="M110.124 7.9606C110.417 8.92099 110.607 9.9076 110.798 10.8942C108.566 10.2092 106.479 9.26844 104.838 7.53777C103.76 6.40038 103.139 4.81394 103.248 3.48316C103.376 3.39138 103.517 3.42744 103.678 3.4471C104.099 5.06305 105.312 5.97427 106.683 6.72816C107.672 7.27227 108.73 7.6656 109.812 7.98027C109.914 8.00977 110.029 8.11466 110.121 7.9606H110.124Z" fill="white"/>
<path d="M136.092 35.3562C135.487 35.3431 135.036 34.8777 135.043 34.268C135.05 33.6747 135.533 33.2027 136.128 33.2093C136.739 33.2126 137.222 33.7141 137.203 34.3205C137.183 34.917 136.696 35.3694 136.095 35.3562H136.092Z" fill="white"/>
<path d="M103.234 35.2547C102.639 35.2547 102.156 34.7892 102.146 34.1959C102.136 33.5896 102.619 33.111 103.247 33.1143C103.852 33.1176 104.312 33.583 104.309 34.1894C104.306 34.7892 103.839 35.2514 103.234 35.2547V35.2547Z" fill="white"/>
<path d="M103.225 0.169329C103.836 0.166051 104.303 0.618385 104.306 1.21822C104.306 1.82788 103.859 2.29661 103.257 2.30644C102.639 2.31627 102.146 1.841 102.143 1.23461C102.143 0.651162 102.626 0.175885 103.221 0.169329H103.225Z" fill="white"/>
<path d="M137.318 1.23131C137.318 1.86064 136.854 2.31298 136.223 2.30642C135.621 2.29987 135.168 1.82787 135.174 1.22148C135.181 0.618367 135.641 0.169312 136.256 0.169312C136.867 0.169312 137.318 0.621645 137.318 1.23131V1.23131Z" fill="white"/>
</g>
<defs>
<clipPath id="clip0_1232_18546">
<rect width="138" height="36" fill="white"/>
</clipPath>
</defs>
</svg>
