<svg width="183" height="36" viewBox="0 0 183 36" fill="none" xmlns="http://www.w3.org/2000/svg">
<path d="M48.3859 13.0083C48.334 13.1266 48.2502 13.2281 48.144 13.3016C48.0447 13.3609 47.9307 13.3909 47.8151 13.3881C47.6626 13.3801 47.5153 13.3302 47.3893 13.2439C47.2313 13.1478 47.0442 13.039 46.828 12.9174C46.5867 12.7863 46.3341 12.677 46.0733 12.591C45.743 12.4879 45.3983 12.4392 45.0524 12.4468C44.7395 12.4401 44.4274 12.4822 44.1274 12.5716C43.8859 12.6458 43.6612 12.7664 43.466 12.9267C43.2925 13.0671 43.1549 13.2467 43.0644 13.4507C42.975 13.6704 42.9306 13.9057 42.9338 14.1429C42.924 14.4346 43.0207 14.7199 43.2059 14.9455C43.4053 15.1744 43.6489 15.3608 43.922 15.4934C44.249 15.6555 44.5888 15.7905 44.9379 15.8972C45.3188 16.0158 45.7058 16.1428 46.0988 16.2781C46.4944 16.4167 46.882 16.5772 47.2598 16.7588C47.631 16.9317 47.9736 17.1602 48.2757 17.4366C48.5799 17.7195 48.8234 18.0612 48.9915 18.4411C49.1843 18.8968 49.277 19.3885 49.2636 19.8831C49.2677 20.4749 49.1594 21.0621 48.9444 21.6135C48.7375 22.1418 48.4203 22.6199 48.014 23.016C47.5866 23.4359 47.0771 23.7631 46.5176 23.9772C45.871 24.2176 45.1852 24.335 44.4955 24.3233C44.0619 24.3244 43.6293 24.2826 43.204 24.1984C42.7871 24.1148 42.379 23.9925 41.9848 23.833C41.6032 23.6795 41.2374 23.4895 40.8924 23.2655C40.5651 23.0541 40.2618 22.8078 39.9878 22.5309L40.7278 21.3147C40.7982 21.2269 40.8834 21.152 40.9795 21.0935C41.0784 21.0327 41.1924 21.001 41.3084 21.0021C41.495 21.0122 41.6741 21.0794 41.8213 21.1945C42.0052 21.3227 42.2213 21.4653 42.4696 21.6222C42.7484 21.7932 43.0433 21.9364 43.3501 22.0499C43.7414 22.1877 44.1545 22.2528 44.5692 22.2422C45.173 22.2769 45.7691 22.0926 46.2479 21.7231C46.4519 21.5377 46.6116 21.3088 46.7152 21.0534C46.8188 20.7979 46.8637 20.5225 46.8465 20.2474C46.8594 19.9332 46.7633 19.6241 46.5744 19.3727C46.3789 19.1336 46.1348 18.9389 45.8583 18.8013C45.5337 18.6375 45.1933 18.5071 44.8424 18.412C44.4615 18.3062 44.0761 18.1892 43.6861 18.061C43.2917 17.9345 42.9055 17.7835 42.5298 17.6091C42.1557 17.4373 41.8125 17.2051 41.5139 16.9218C41.207 16.6187 40.9662 16.2554 40.8065 15.8547C40.6118 15.3542 40.5193 14.8198 40.5344 14.283C40.536 13.7762 40.6406 13.2751 40.8417 12.8099C41.0428 12.3448 41.3363 11.9253 41.7043 11.5769C42.1138 11.1963 42.5935 10.8991 43.1166 10.7017C43.7257 10.4715 44.3728 10.3586 45.0239 10.3692C45.7868 10.3604 46.5452 10.4873 47.2636 10.7441C47.9116 10.9742 48.5058 11.3341 49.01 11.8017L48.3859 13.0083Z" fill="white"/>
<path d="M58.8287 24.1579H57.7739C57.5943 24.1658 57.4153 24.1313 57.2515 24.057C57.1799 24.0127 57.1178 23.9547 57.0688 23.8862C57.0198 23.8177 56.9849 23.7402 56.9661 23.6581L56.758 22.9709C56.5277 23.1788 56.2854 23.373 56.0324 23.5526C55.8015 23.7152 55.5555 23.8553 55.2978 23.9707C55.0389 24.0856 54.7679 24.1711 54.49 24.2254C54.1712 24.2864 53.8471 24.3154 53.5225 24.3119C53.1375 24.316 52.7541 24.261 52.3858 24.1487C52.0573 24.0525 51.7525 23.8887 51.4909 23.6679C51.2357 23.4418 51.0352 23.1607 50.9046 22.8457C50.7588 22.4824 50.6879 22.0933 50.6959 21.7019C50.7001 21.3227 50.8 20.9507 50.9862 20.6204C51.2219 20.2231 51.5548 19.8923 51.9537 19.6592C52.5109 19.3275 53.1169 19.0858 53.7494 18.9431C54.6617 18.7361 55.5958 18.6409 56.5311 18.6596V18.0632C56.5716 17.5488 56.4257 17.037 56.12 16.6212C55.9679 16.4575 55.7814 16.3295 55.5739 16.2464C55.3665 16.1633 55.1432 16.1271 54.9201 16.1405C54.5926 16.1291 54.2656 16.173 53.9526 16.2702C53.7241 16.3482 53.5037 16.4484 53.2948 16.5695L52.7778 16.8688C52.6179 16.9565 52.4379 17.0012 52.2555 16.9986C52.1106 17.0028 51.9682 16.9607 51.849 16.8783C51.7358 16.7978 51.6415 16.6938 51.5723 16.5733L51.1514 15.8523C52.2546 14.8415 53.7044 14.2938 55.2004 14.3227C55.7217 14.314 56.2396 14.4088 56.724 14.6016C57.1534 14.7739 57.541 15.0362 57.8607 15.3708C58.177 15.7108 58.4181 16.1137 58.5681 16.5532C58.7339 17.0389 58.8157 17.5492 58.81 18.0624L58.8287 24.1579ZM54.2764 22.7159C54.4995 22.7166 54.722 22.6939 54.9403 22.6482C55.1393 22.6057 55.3326 22.5395 55.516 22.4512C55.7005 22.3616 55.8755 22.2537 56.0384 22.1291C56.21 21.99 56.3716 21.8389 56.5221 21.6772V20.0581C55.9486 20.0499 55.3754 20.0933 54.8097 20.1878C54.428 20.2492 54.0558 20.359 53.7018 20.5143C53.4632 20.6171 53.2574 20.7834 53.1068 20.9951C52.9915 21.167 52.9308 21.3698 52.9326 21.5768C52.9169 21.743 52.9422 21.9106 53.0062 22.0648C53.0703 22.219 53.1713 22.3552 53.3002 22.4613C53.5835 22.6421 53.9171 22.7279 54.2525 22.7061L54.2764 22.7159Z" fill="white"/>
<path d="M64.572 14.322C64.9671 14.3189 65.3614 14.3608 65.7471 14.4469C66.0976 14.5248 66.4362 14.6492 66.7537 14.8169H69.5547V15.6821C69.5619 15.8066 69.5203 15.929 69.4386 16.0233C69.3309 16.1192 69.1953 16.1782 69.0517 16.1914L68.181 16.35C68.245 16.5183 68.2935 16.6921 68.326 16.8691C68.3624 17.0592 68.3806 17.2524 68.3805 17.4459C68.3867 17.8953 68.2873 18.3398 68.0902 18.7437C67.897 19.1186 67.624 19.4466 67.2905 19.7047C66.931 19.9856 66.5226 20.1977 66.0861 20.3305C65.5958 20.4818 65.0851 20.5564 64.572 20.5516C64.2114 20.5517 63.8517 20.5163 63.4981 20.4458C63.195 20.6285 63.0435 20.8335 63.0435 21.061C63.0435 21.1514 63.0691 21.2399 63.1172 21.3165C63.1653 21.393 63.2341 21.4544 63.3155 21.4936C63.5402 21.5971 63.7806 21.6621 64.0267 21.6859C64.359 21.7264 64.6935 21.7456 65.0282 21.7436C65.4024 21.7436 65.7846 21.7597 66.1748 21.7918C66.56 21.8217 66.943 21.8762 67.3213 21.955C67.673 22.0257 68.0111 22.1523 68.3228 22.3299C68.6214 22.5082 68.8683 22.7614 69.0389 23.0645C69.2326 23.4085 69.3268 23.7997 69.311 24.1942C69.3082 24.6314 69.1975 25.0613 68.9885 25.4454C68.7618 25.8653 68.4486 26.2322 68.0695 26.522C67.6249 26.858 67.1258 27.1149 66.594 27.2814C65.9493 27.4833 65.2764 27.5807 64.6008 27.5698C63.9495 27.5812 63.2993 27.5101 62.6658 27.3584C62.1867 27.2441 61.7294 27.0522 61.3123 26.7903C60.9845 26.5769 60.7123 26.2885 60.5181 25.949C60.3457 25.6579 60.2536 25.3262 60.2512 24.9878C60.239 24.5688 60.3878 24.1611 60.6672 23.8486C60.9876 23.5139 61.3843 23.2618 61.8235 23.114C61.5892 22.9885 61.3897 22.8069 61.2429 22.5854C61.0876 22.3279 61.0119 22.0302 61.0252 21.7297C61.0274 21.5775 61.0537 21.4266 61.1033 21.2827C61.1563 21.1118 61.2345 20.9497 61.3354 20.802C61.447 20.6431 61.5787 20.4994 61.7272 20.3743C61.8984 20.2297 62.087 20.107 62.2885 20.0089C61.8162 19.7632 61.4161 19.3987 61.1275 18.9513C60.8393 18.4872 60.693 17.9491 60.7066 17.4029C60.6983 16.9628 60.7928 16.5269 60.9826 16.1297C61.1724 15.7325 61.4522 15.3851 61.7998 15.1151C62.1651 14.8315 62.5804 14.6192 63.0242 14.4893C63.5289 14.3568 64.0506 14.3004 64.572 14.322ZM67.1406 24.5696C67.1457 24.4823 67.1333 24.3948 67.1042 24.3123C67.0752 24.2297 67.03 24.1538 66.9714 24.0889C66.8367 23.955 66.6703 23.8575 66.4876 23.8054C66.2644 23.7321 66.0342 23.6821 65.8007 23.6563C65.5229 23.6233 65.2435 23.6072 64.9638 23.6081H64.0542C63.7496 23.6084 63.4459 23.5729 63.1496 23.5023C62.9096 23.6349 62.6976 23.8129 62.5254 24.0263C62.3667 24.2181 62.281 24.4599 62.2836 24.7089C62.2824 24.8775 62.3258 25.0433 62.4093 25.1897C62.5086 25.3504 62.6489 25.4819 62.8157 25.5706C63.0428 25.6919 63.2878 25.7763 63.5414 25.8206C63.9003 25.8862 64.2648 25.9168 64.6297 25.912C65.0079 25.9173 65.3856 25.8834 65.7569 25.8111C66.0309 25.7593 66.2953 25.6652 66.5404 25.5322C66.7248 25.433 66.8798 25.2871 66.9902 25.1091C67.0884 24.9463 67.1404 24.7598 67.1406 24.5696ZM64.572 19.0901C64.8303 19.0946 65.0874 19.0539 65.3316 18.9698C65.5318 18.9004 65.7149 18.7891 65.8687 18.6433C66.0106 18.5087 66.1212 18.3446 66.1927 18.1626C66.268 17.9579 66.3057 17.7413 66.304 17.5232C66.3147 17.3146 66.2819 17.1061 66.2078 16.9109C66.1337 16.7156 66.0199 16.5379 65.8736 16.3889C65.4971 16.1165 65.0442 15.9699 64.5795 15.9699C64.1147 15.9699 63.6619 16.1165 63.2853 16.3889C63.139 16.5379 63.0252 16.7156 62.9511 16.9109C62.877 17.1061 62.8443 17.3146 62.8549 17.5232C62.8536 17.7384 62.8912 17.9521 62.9659 18.1539C63.0387 18.3353 63.1491 18.4991 63.29 18.6346C63.4439 18.7838 63.6289 18.897 63.8317 18.9663C64.0696 19.0492 64.32 19.0911 64.572 19.0901Z" fill="white"/>
<path d="M75.1447 14.3362C75.7222 14.3303 76.296 14.4297 76.8379 14.6295C77.3406 14.8132 77.7977 15.1034 78.1778 15.4803C78.5613 15.8723 78.858 16.3407 79.0484 16.8551C79.2663 17.4502 79.3729 18.0804 79.363 18.7141C79.3725 18.8598 79.3725 19.006 79.363 19.1516C79.3531 19.248 79.3235 19.3412 79.2759 19.4256C79.2375 19.4881 79.1804 19.5368 79.1127 19.5649C79.0275 19.5962 78.9372 19.6109 78.8466 19.6082H72.7984C72.7944 20.4108 73.0813 21.1878 73.6062 21.7951C73.8527 22.0307 74.1444 22.214 74.4637 22.3338C74.783 22.4536 75.1232 22.5075 75.4639 22.4921C75.7911 22.4981 76.1173 22.4543 76.4314 22.3624C76.6795 22.2852 76.9206 22.1871 77.1521 22.0691L77.6941 21.7758C77.8301 21.694 77.9851 21.6492 78.1438 21.646C78.2297 21.6431 78.3149 21.663 78.3906 21.7037C78.4613 21.7425 78.5225 21.7967 78.5696 21.8623L79.2517 22.7082C79.0007 23.0031 78.7073 23.259 78.3811 23.4675C78.0635 23.6658 77.7242 23.8271 77.37 23.9483C77.0215 24.0701 76.6618 24.1571 76.2962 24.2078C75.9452 24.2578 75.5912 24.2835 75.2367 24.2848C74.5925 24.2898 73.9529 24.1757 73.3501 23.9483C72.7781 23.732 72.2598 23.3943 71.8309 22.9585C71.3835 22.495 71.0375 21.9434 70.815 21.3388C70.5545 20.6216 70.4279 19.8626 70.4414 19.0997C70.4386 18.4651 70.5492 17.8352 70.7679 17.2395C70.9709 16.6769 71.2846 16.1606 71.6905 15.7213C72.0987 15.2837 72.5927 14.9349 73.1417 14.6967C73.7765 14.4367 74.4591 14.3138 75.1447 14.3362ZM75.1932 16.004C74.9012 15.9877 74.609 16.0303 74.3339 16.1294C74.0588 16.2285 73.8065 16.3821 73.592 16.5808C73.1774 17.0302 72.9196 17.602 72.8574 18.2103H77.2596C77.2608 17.9203 77.2184 17.6319 77.1339 17.3546C77.0573 17.0974 76.9288 16.8586 76.7565 16.6529C76.5809 16.4463 76.3609 16.282 76.113 16.1722C75.8218 16.0513 75.5081 15.9941 75.1929 16.0043L75.1932 16.004Z" fill="white"/>
<path d="M82.0938 24.157V10.8178H85.9637C86.6335 10.8062 87.3019 10.8821 87.952 11.0436C88.4551 11.1673 88.9274 11.393 89.3396 11.7069C89.6996 11.9893 89.9825 12.358 90.1621 12.7789C90.3507 13.2358 90.4433 13.7267 90.4342 14.2209C90.4352 14.5689 90.3729 14.9141 90.2502 15.2398C90.1241 15.5701 89.9419 15.8763 89.7118 16.1447C89.4662 16.4306 89.1753 16.6742 88.8507 16.8657C88.4909 17.0845 88.0998 17.247 87.6908 17.3476C88.5857 17.4394 89.4305 17.8053 90.1096 18.3953C90.3944 18.6716 90.6176 19.005 90.7643 19.3737C90.9111 19.7424 90.9782 20.1379 90.9612 20.5344C90.9691 21.0597 90.8653 21.5807 90.6564 22.0629C90.4575 22.5003 90.1595 22.8854 89.7858 23.1876C89.3644 23.5202 88.8808 23.7653 88.3634 23.9086C87.7339 24.0852 87.0821 24.1694 86.4284 24.1586L82.0938 24.157ZM83.0612 17.0578H85.9637C86.5038 17.0707 87.0421 16.991 87.5553 16.8222C87.9544 16.69 88.3229 16.4792 88.639 16.2021C88.9086 15.9609 89.1203 15.6619 89.2583 15.3274C89.3896 15.0071 89.457 14.6642 89.4566 14.318C89.4824 13.934 89.418 13.5493 89.2687 13.1947C89.1193 12.84 88.889 12.5251 88.5963 12.2753C88.0249 11.8139 87.141 11.5831 85.9444 11.5831H83.0419L83.0612 17.0578ZM83.0612 17.7652V23.3832H86.4469C87.4002 23.4523 88.3473 23.1834 89.1222 22.6239C89.4248 22.3601 89.6631 22.0308 89.8191 21.6609C89.975 21.2911 90.0444 20.8905 90.022 20.4897C90.0279 20.0982 89.9452 19.7105 89.7801 19.3555C89.6188 19.0179 89.3802 18.7232 89.0836 18.4952C88.7495 18.2438 88.3701 18.0591 87.9662 17.951C87.4741 17.8194 86.9663 17.7564 86.457 17.7636L83.0612 17.7652Z" fill="white"/>
<path d="M95.4673 11.529C95.4678 11.639 95.4427 11.7477 95.3938 11.8462C95.3474 11.9424 95.2852 12.0301 95.2099 12.1058C95.1332 12.1813 95.0429 12.2417 94.9438 12.2837C94.8421 12.327 94.7327 12.3493 94.6221 12.3493C94.5115 12.3493 94.4021 12.327 94.3004 12.2837C94.2012 12.2418 94.1109 12.1814 94.0343 12.1058C93.9594 12.0308 93.8987 11.9429 93.8553 11.8462C93.8105 11.7465 93.7877 11.6383 93.7886 11.529C93.7888 11.4167 93.8118 11.3056 93.8563 11.2025C93.9409 11.0012 94.1005 10.8407 94.3015 10.7552C94.4032 10.712 94.5126 10.6897 94.6232 10.6897C94.7337 10.6897 94.8432 10.712 94.9449 10.7552C95.0439 10.7974 95.1342 10.8578 95.211 10.9332C95.2881 11.011 95.3504 11.1021 95.3949 11.2022C95.4427 11.3045 95.4674 11.4161 95.4673 11.529ZM95.0706 14.764V24.1606H94.1695V14.783L95.0706 14.764Z" fill="white"/>
<path d="M102.1 14.6271C102.723 14.6169 103.342 14.7347 103.919 14.9731C104.437 15.1872 104.899 15.5161 105.272 15.9349C105.653 16.3804 105.939 16.8988 106.114 17.4585C106.5 18.7587 106.5 20.1429 106.114 21.443C105.939 22.0049 105.65 22.5251 105.267 22.9716C104.896 23.3912 104.433 23.7199 103.914 23.932C102.745 24.3843 101.45 24.3843 100.281 23.932C99.7604 23.7193 99.2951 23.3905 98.9207 22.9707C98.5392 22.5273 98.2527 22.0103 98.0789 21.4518C97.6925 20.1517 97.6925 18.7673 98.0789 17.4672C98.2521 16.9071 98.5387 16.3885 98.9207 15.9436C99.2963 15.5253 99.7612 15.1967 100.281 14.9824C100.857 14.7408 101.476 14.6199 102.1 14.6271ZM102.1 23.572C102.599 23.5796 103.093 23.4813 103.551 23.2836C103.965 23.098 104.327 22.8141 104.606 22.4568C104.9 22.0706 105.114 21.6293 105.234 21.159C105.521 20.0507 105.533 18.8891 105.268 17.7752C105.148 17.302 104.934 16.8575 104.639 16.4679C104.361 16.108 103.999 15.8211 103.585 15.6321C102.64 15.2449 101.58 15.2449 100.634 15.6321C100.22 15.8214 99.8581 16.1084 99.5794 16.4685C99.2811 16.8578 99.0625 17.302 98.9359 17.7758C98.6515 18.8907 98.6515 20.0591 98.9359 21.174C99.0595 21.6441 99.2749 22.0852 99.5696 22.4718C99.8487 22.829 100.211 23.1128 100.624 23.2986C101.09 23.4967 101.594 23.5921 102.1 23.5783V23.572Z" fill="white"/>
<path d="M108.86 24.1613V14.7837H109.344C109.379 14.7798 109.413 14.7828 109.447 14.7926C109.48 14.8024 109.511 14.8188 109.538 14.8409C109.564 14.8628 109.586 14.89 109.602 14.9206C109.618 14.9513 109.627 14.9849 109.63 15.0194L109.717 16.4325C110.131 15.9057 110.642 15.4621 111.221 15.1252C111.811 14.7932 112.479 14.6266 113.156 14.6431C113.624 14.6341 114.089 14.7173 114.525 14.8879C114.9 15.0423 115.232 15.285 115.493 15.5953C115.763 15.9216 115.963 16.2994 116.083 16.7057C116.222 17.1834 116.288 17.6791 116.281 18.1765V24.1613H115.381V18.1675C115.425 17.4272 115.209 16.6949 114.772 16.0959C114.541 15.8361 114.253 15.6332 113.931 15.5031C113.609 15.373 113.261 15.3193 112.914 15.3461C112.305 15.3444 111.708 15.5106 111.187 15.8266C110.633 16.166 110.15 16.61 109.765 17.1339V24.1613H108.86Z" fill="white"/>
<path d="M122.779 14.6271C123.284 14.6218 123.785 14.7149 124.254 14.9011C124.699 15.0791 125.1 15.3513 125.43 15.699C125.776 16.0699 126.041 16.5086 126.209 16.9873C126.405 17.5511 126.5 18.1449 126.49 18.7416C126.498 18.8404 126.477 18.9394 126.427 19.0251C126.402 19.0518 126.372 19.0726 126.339 19.0859C126.305 19.0993 126.269 19.1048 126.233 19.1021H119.422V19.2795C119.411 19.9068 119.494 20.5321 119.668 21.1348C119.809 21.626 120.048 22.0838 120.37 22.4807C120.667 22.8371 121.045 23.117 121.473 23.297C121.933 23.486 122.427 23.5792 122.924 23.5709C123.34 23.579 123.756 23.5272 124.158 23.4172C124.461 23.3303 124.754 23.2127 125.033 23.0662C125.23 22.9624 125.419 22.8451 125.599 22.7153C125.685 22.6374 125.79 22.5843 125.904 22.5615C125.941 22.5602 125.978 22.5683 126.01 22.5851C126.043 22.6019 126.072 22.6269 126.092 22.6576L126.339 22.9604C126.166 23.1671 125.962 23.3455 125.734 23.489C125.471 23.6585 125.191 23.7987 124.897 23.9072C124.583 24.0267 124.26 24.12 123.93 24.1861C123.581 24.2557 123.226 24.2911 122.87 24.2919C122.265 24.299 121.665 24.1845 121.105 23.9554C120.582 23.7419 120.114 23.4133 119.736 22.9941C119.319 22.5326 119.004 21.9891 118.811 21.3984C118.594 20.7122 118.489 19.9953 118.501 19.2757C118.495 18.6439 118.594 18.0153 118.793 17.4156C118.969 16.8746 119.252 16.3744 119.625 15.9447C119.996 15.5304 120.453 15.2023 120.965 14.9835C121.538 14.7382 122.156 14.6167 122.779 14.6271ZM122.779 15.2953C122.333 15.2881 121.89 15.3647 121.473 15.5211C121.097 15.6646 120.756 15.8859 120.471 16.1705C120.183 16.4648 119.951 16.8104 119.789 17.1895C119.609 17.6137 119.493 18.0625 119.446 18.521H125.662C125.669 18.0623 125.598 17.6058 125.454 17.1704C125.33 16.7957 125.131 16.4505 124.868 16.1561C124.615 15.8804 124.305 15.6638 123.959 15.5217C123.589 15.3715 123.193 15.2964 122.793 15.3005L122.779 15.2953Z" fill="white"/>
<path d="M131.585 24.3127C131.314 24.3293 131.042 24.291 130.786 24.2002C130.531 24.1094 130.295 23.9678 130.095 23.7841C129.903 23.5616 129.756 23.3029 129.665 23.0231C129.573 22.7433 129.539 22.448 129.563 22.1547V15.7427H128.209C128.147 15.7443 128.087 15.7239 128.039 15.685C128.017 15.6653 127.999 15.6408 127.987 15.6134C127.976 15.5859 127.97 15.5562 127.971 15.5264V15.1754L129.582 15.0601L129.81 11.6967C129.817 11.64 129.842 11.5872 129.882 11.5465C129.903 11.5241 129.929 11.5065 129.957 11.4949C129.986 11.4832 130.016 11.4778 130.047 11.479H130.468V15.0601H133.438V15.7283H130.468V22.1016C130.464 22.3269 130.498 22.5512 130.569 22.7649C130.623 22.9441 130.718 23.1085 130.845 23.2457C130.96 23.3642 131.101 23.4547 131.256 23.5101C131.421 23.5683 131.594 23.5976 131.769 23.5966C131.97 23.6009 132.171 23.5666 132.359 23.4957C132.508 23.4376 132.65 23.3652 132.785 23.2794C132.888 23.2139 132.987 23.1417 133.08 23.0631C133.127 23.0109 133.19 22.9755 133.259 22.9622C133.29 22.9661 133.319 22.9767 133.345 22.9934C133.371 23.01 133.393 23.0321 133.409 23.0582L133.656 23.4524C133.4 23.7267 133.088 23.943 132.742 24.0869C132.376 24.2412 131.982 24.3181 131.585 24.3127Z" fill="white"/>
<path d="M134.544 14.7828H135.261C135.339 14.7801 135.417 14.8056 135.478 14.8549C135.53 14.8943 135.571 14.9475 135.594 15.0086L137.974 22.4115C138.017 22.5471 138.053 22.6848 138.081 22.8242L138.159 23.2184C138.192 23.0887 138.226 22.954 138.265 22.8242C138.304 22.6944 138.347 22.5551 138.396 22.4109L140.93 14.946C140.942 14.8855 140.976 14.8313 141.025 14.7934C141.074 14.7557 141.134 14.7364 141.196 14.739H141.55C141.613 14.7358 141.675 14.755 141.726 14.7934C141.776 14.8311 141.811 14.8857 141.825 14.9471L144.321 22.4115C144.412 22.6811 144.488 22.9554 144.549 23.2334C144.574 23.1021 144.602 22.9691 144.63 22.8345C144.662 22.6927 144.702 22.5531 144.751 22.4164L147.141 15.0135C147.161 14.9441 147.203 14.8835 147.262 14.8424C147.322 14.8012 147.394 14.782 147.466 14.788H148.129L144.936 24.1604H144.273C144.171 24.1604 144.099 24.0932 144.055 23.9634L141.482 16.3353C141.45 16.2424 141.421 16.1479 141.395 16.0518C141.369 15.9556 141.347 15.8611 141.327 15.7683C141.308 15.8611 141.287 15.9556 141.265 16.0518C141.242 16.1476 141.215 16.2422 141.183 16.3353L138.566 23.9533C138.558 24.0077 138.531 24.0574 138.489 24.0934C138.447 24.1296 138.394 24.1497 138.339 24.1503H137.703L134.544 14.7828Z" fill="white"/>
<path d="M153.553 14.6271C154.177 14.6169 154.796 14.7347 155.373 14.9731C155.891 15.187 156.354 15.5156 156.727 15.9344C157.108 16.3798 157.394 16.8982 157.569 17.458C157.955 18.7581 157.955 20.1424 157.569 21.4425C157.394 22.0006 157.107 22.5174 156.727 22.9615C156.355 23.3816 155.892 23.7106 155.373 23.9227C154.204 24.375 152.908 24.375 151.74 23.9227C151.219 23.71 150.754 23.3812 150.379 22.9615C149.998 22.518 149.711 22.001 149.537 21.4425C149.151 20.1424 149.151 18.7581 149.537 17.458C149.711 16.8978 149.997 16.3792 150.379 15.9344C150.755 15.516 151.22 15.1875 151.74 14.9731C152.314 14.7354 152.932 14.6176 153.553 14.6271ZM153.553 23.572C154.052 23.5796 154.547 23.4813 155.005 23.2836C155.419 23.1004 155.783 22.8186 156.064 22.4628C156.358 22.0766 156.572 21.6353 156.693 21.165C156.971 20.0493 156.971 18.8825 156.693 17.7668C156.572 17.2936 156.359 16.8491 156.064 16.4595C155.786 16.0993 155.424 15.8123 155.01 15.6231C154.064 15.2359 153.004 15.2359 152.059 15.6231C151.645 15.8123 151.283 16.0991 151.004 16.4589C150.715 16.8535 150.506 17.301 150.39 17.776C150.105 18.8909 150.105 20.0594 150.39 21.1742C150.513 21.6444 150.729 22.0854 151.023 22.472C151.303 22.8291 151.665 23.1129 152.078 23.2986C152.544 23.4967 153.047 23.592 153.553 23.5783V23.572Z" fill="white"/>
<path d="M160.314 24.1588V14.7813H160.798C160.881 14.7741 160.963 14.798 161.03 14.8485C161.085 14.9107 161.114 14.9914 161.111 15.0743L161.189 17.0547C161.441 16.3682 161.858 15.7542 162.404 15.2669C162.93 14.8259 163.6 14.5948 164.286 14.6181C164.552 14.6164 164.817 14.6471 165.075 14.7095C165.312 14.7688 165.54 14.8563 165.755 14.9701L165.63 15.5902C165.627 15.6123 165.621 15.6338 165.61 15.6533C165.599 15.6729 165.584 15.6901 165.567 15.7039C165.549 15.7178 165.529 15.7281 165.508 15.7341C165.486 15.7402 165.463 15.7419 165.441 15.7393C165.386 15.7349 165.332 15.722 165.281 15.7009L165.02 15.6144C164.895 15.5778 164.768 15.5489 164.639 15.5279C164.467 15.501 164.292 15.4882 164.117 15.4895C163.793 15.4773 163.47 15.5302 163.167 15.6449C162.863 15.7597 162.586 15.9341 162.351 16.1577C161.833 16.7003 161.452 17.3589 161.239 18.0786V24.1588H160.314Z" fill="white"/>
<path d="M168.941 10.4386V18.8019H169.376C169.461 18.8021 169.546 18.7891 169.627 18.7635C169.727 18.7248 169.816 18.664 169.889 18.5856L173.676 15.0143C173.741 14.9501 173.812 14.8936 173.889 14.8462C173.975 14.7985 174.072 14.7753 174.17 14.779H174.968L170.803 18.7096L170.624 18.8827C170.567 18.9355 170.504 18.9807 170.436 19.0173C170.53 19.0628 170.616 19.1228 170.692 19.1953L170.909 19.4211L175.263 24.1552H174.474C174.392 24.1563 174.31 24.1383 174.237 24.1024C174.158 24.0611 174.088 24.0058 174.029 23.9391L170.092 19.6959C170.008 19.6016 169.908 19.5234 169.796 19.4652C169.663 19.4168 169.522 19.3955 169.38 19.4026H168.955V24.1367H168.055V10.4386H168.941Z" fill="white"/>
<path d="M182.575 15.9473C182.557 15.9873 182.528 16.0212 182.491 16.0443C182.454 16.0675 182.41 16.0789 182.367 16.0771C182.266 16.0647 182.172 16.0228 182.095 15.9568C181.955 15.8603 181.81 15.772 181.659 15.6924C181.448 15.5822 181.226 15.4936 180.997 15.4279C180.682 15.3418 180.356 15.3015 180.029 15.3082C179.712 15.304 179.396 15.3527 179.095 15.4524C178.834 15.5387 178.591 15.6705 178.376 15.8417C178.176 15.9941 178.011 16.1874 177.892 16.4087C177.783 16.6198 177.727 16.854 177.729 17.0914C177.718 17.355 177.799 17.6143 177.956 17.826C178.122 18.0247 178.325 18.1881 178.555 18.3067C178.823 18.4529 179.105 18.5721 179.397 18.6623L180.364 18.9651C180.687 19.0645 181.009 19.1767 181.332 19.3017C181.632 19.4238 181.915 19.5855 182.173 19.7824C182.417 19.9612 182.621 20.1888 182.772 20.4507C182.931 20.7456 183.009 21.0771 182.999 21.4119C183.003 21.8025 182.927 22.1897 182.777 22.5502C182.632 22.8979 182.412 23.2096 182.134 23.4636C181.831 23.7331 181.478 23.9404 181.095 24.0739C180.644 24.231 180.169 24.3075 179.692 24.2997C179.104 24.3136 178.519 24.2056 177.974 23.9824C177.503 23.7777 177.067 23.4992 176.683 23.1572L176.9 22.8351C176.927 22.7894 176.963 22.7501 177.007 22.7197C177.055 22.6919 177.111 22.6786 177.166 22.6814C177.282 22.6959 177.389 22.7484 177.471 22.8305C177.624 22.9516 177.785 23.0607 177.955 23.157C178.183 23.2901 178.425 23.3995 178.676 23.4835C179.021 23.5922 179.383 23.6426 179.745 23.6326C180.103 23.64 180.46 23.5847 180.799 23.4693C181.08 23.3733 181.339 23.2213 181.559 23.0223C181.767 22.8401 181.932 22.6138 182.042 22.3598C182.147 22.1034 182.199 21.829 182.197 21.5523C182.208 21.2734 182.128 20.9985 181.97 20.7687C181.809 20.5527 181.605 20.3727 181.371 20.2401C181.105 20.0864 180.823 19.9624 180.529 19.8701L179.562 19.5672C179.239 19.4675 178.916 19.3567 178.593 19.235C178.293 19.1236 178.01 18.9715 177.752 18.7831C177.509 18.6056 177.305 18.3797 177.153 18.1198C176.994 17.8249 176.915 17.4935 176.924 17.1586C176.924 16.8259 176.999 16.4974 177.142 16.1973C177.279 15.8835 177.48 15.6018 177.732 15.3705C178.018 15.1269 178.346 14.938 178.7 14.813C179.119 14.6694 179.559 14.5992 180.002 14.6057C180.524 14.597 181.043 14.6817 181.535 14.8557C181.99 15.0271 182.407 15.2852 182.763 15.6156L182.575 15.9473Z" fill="white"/>
<path d="M8.51589 20.7097L8.23974 21.1663C8.32043 21.2151 8.41262 21.2417 8.50691 21.2432C8.6012 21.2448 8.69423 21.2214 8.77652 21.1753C8.85881 21.1293 8.92742 21.0622 8.97536 20.981C9.0233 20.8998 9.04886 20.8073 9.04943 20.713L8.51589 20.7097ZM8.57031 11.5436L9.10384 11.5466C9.1044 11.4521 9.07985 11.3592 9.03272 11.2773C8.98559 11.1954 8.91756 11.1275 8.83558 11.0805L8.57031 11.5436ZM0.533536 6.93903L0.798807 6.4765C0.717644 6.42999 0.625679 6.40564 0.532135 6.40589C0.43859 6.40613 0.346755 6.43097 0.265837 6.4779C0.184919 6.52484 0.117764 6.59222 0.0711057 6.6733C0.0244472 6.75438 -7.4293e-05 6.8463 1.69079e-07 6.93984L0.533536 6.93903ZM0.547956 15.8889H0.01442C0.0144429 15.9807 0.0381715 16.071 0.0833093 16.151C0.128447 16.231 0.193466 16.2979 0.272073 16.3454L0.547956 15.8889ZM9.04916 20.7127L9.10357 11.5466L8.0365 11.5403L7.98208 20.7065L9.04916 20.7127ZM8.83422 11.0813L0.798807 6.47623L0.268264 7.40128L8.3034 12.0067L8.83422 11.0813ZM1.69079e-07 6.93984L0.01442 15.8897L1.08149 15.8881L1.06707 6.93821L1.69079e-07 6.93984ZM0.272073 16.3454L8.23947 21.1663L8.79177 20.2535L0.82411 15.4323L0.272073 16.3454Z" fill="white"/>
<path d="M8.30677 20.2481C8.18341 20.3174 8.09266 20.4329 8.05447 20.5692C8.01628 20.7054 8.03378 20.8513 8.10312 20.9746C8.17247 21.098 8.28797 21.1888 8.42423 21.2269C8.56049 21.2651 8.70634 21.2476 8.82969 21.1783L8.30677 20.2481ZM15.5779 16.7718L15.8399 17.2365C15.9607 17.1658 16.0488 17.0505 16.0854 16.9154C16.1219 16.7803 16.1039 16.6363 16.0352 16.5143C15.9666 16.3924 15.8527 16.3023 15.7183 16.2635C15.5839 16.2247 15.4395 16.2402 15.3165 16.3068L15.5779 16.7718ZM12.9358 17.6479C12.8747 17.6823 12.821 17.7284 12.7778 17.7835C12.7345 17.8387 12.7025 17.9018 12.6837 17.9694C12.6648 18.0369 12.6594 18.1075 12.6679 18.177C12.6763 18.2466 12.6983 18.3139 12.7327 18.375C12.7671 18.4361 12.8132 18.4898 12.8684 18.533C12.9236 18.5763 12.9867 18.6083 13.0542 18.6271C13.1217 18.646 13.1923 18.6514 13.2619 18.6429C13.3315 18.6345 13.3988 18.6125 13.4598 18.5781L12.9358 17.6479ZM8.82969 21.1783L15.8394 17.2368L15.3165 16.3068L8.30677 20.2481L8.82969 21.1783ZM15.3159 16.3082L12.9361 17.6481L13.4598 18.5781L15.8399 17.2368L15.3159 16.3082Z" fill="white"/>
<path d="M16.5403 34.7147L16.2639 35.1713C16.3446 35.2202 16.4367 35.2468 16.5311 35.2484C16.6254 35.25 16.7184 35.2266 16.8008 35.1806C16.8831 35.1346 16.9517 35.0675 16.9997 34.9863C17.0477 34.9051 17.0733 34.8126 17.0738 34.7183L16.5403 34.7147ZM16.5983 25.5486L17.1318 25.5519C17.1324 25.4573 17.1079 25.3643 17.0607 25.2824C17.0136 25.2005 16.9455 25.1325 16.8635 25.0855L16.5983 25.5486ZM8.55795 20.944L8.82322 20.4815C8.74204 20.435 8.65005 20.4106 8.55648 20.4109C8.46291 20.4111 8.37106 20.436 8.29013 20.483C8.20921 20.5299 8.14206 20.5974 8.09542 20.6785C8.04878 20.7596 8.02429 20.8516 8.02441 20.9451L8.55795 20.944ZM8.57727 29.8939H8.04373C8.04393 29.9854 8.06769 30.0754 8.11272 30.1551C8.15775 30.2348 8.22253 30.3016 8.30084 30.3491L8.57727 29.8939ZM17.0736 34.7183L17.1315 25.5521L16.0645 25.5453L16.0065 34.7115L17.0736 34.7183ZM16.8633 25.0869L8.82322 20.481L8.29295 21.406L16.333 26.0117L16.8633 25.0869ZM8.02441 20.9451L8.04373 29.895L9.1108 29.8928L9.09149 20.9429L8.02441 20.9451ZM8.30084 30.3501L16.2636 35.1713L16.8165 34.259L8.85369 29.4373L8.30084 30.3501Z" fill="white"/>
<path d="M26.252 21.056L26.7853 21.0688C26.7875 20.9745 26.7647 20.8813 26.7192 20.7986C26.6737 20.716 26.6071 20.6469 26.5262 20.5984C26.4453 20.5499 26.3529 20.5237 26.2586 20.5225C26.1643 20.5213 26.0713 20.5452 25.9892 20.5916L26.252 21.056ZM18.2362 25.5934L17.9733 25.129C17.8911 25.1755 17.8227 25.2431 17.7752 25.3247C17.7276 25.4064 17.7026 25.4992 17.7026 25.5937L18.2362 25.5934ZM18.2411 34.8064H17.7075C17.7075 34.9 17.7321 34.9919 17.7789 35.073C17.8256 35.1541 17.8929 35.2214 17.9739 35.2683C18.0549 35.3151 18.1469 35.3399 18.2405 35.34C18.3341 35.3401 18.426 35.3156 18.5072 35.2689L18.2411 34.8064ZM26.0294 30.3231L26.2958 30.7857C26.3752 30.74 26.4415 30.6746 26.4883 30.5959C26.5351 30.5172 26.5608 30.4277 26.563 30.3362L26.0294 30.3231ZM25.9892 20.5916L17.9733 25.129L18.499 26.0576L26.5148 21.5205L25.9892 20.5916ZM17.7026 25.5937L17.7075 34.8077H18.7746L18.7697 25.5931L17.7026 25.5937ZM18.5072 35.2689L26.2958 30.7854L25.7634 29.8603L17.9747 34.3452L18.5072 35.2689ZM26.563 30.3359L26.7855 21.0688L25.7187 21.0433L25.4962 30.3103L26.563 30.3359Z" fill="white"/>
<path d="M25.9809 21.2988C26.103 21.3703 26.2485 21.3904 26.3854 21.3547C26.5224 21.3189 26.6395 21.2303 26.711 21.1082C26.7826 20.9861 26.8027 20.8406 26.7669 20.7036C26.7312 20.5667 26.6425 20.4496 26.5204 20.3781L25.9809 21.2988ZM19.3135 16.7717L19.5831 16.3114C19.461 16.2398 19.3155 16.2197 19.1786 16.2555C19.0417 16.2912 18.9245 16.3799 18.853 16.502C18.7815 16.6241 18.7613 16.7696 18.7971 16.9065C18.8328 17.0434 18.9215 17.1605 19.0436 17.2321L19.3135 16.7717ZM21.3997 18.6118C21.5217 18.6812 21.6662 18.6998 21.8018 18.6635C21.9374 18.6272 22.0532 18.5389 22.1241 18.4178C22.1951 18.2966 22.2154 18.1524 22.1808 18.0164C22.1461 17.8804 22.0592 17.7635 21.939 17.6911L21.3997 18.6118ZM26.5204 20.3778L19.5834 16.3114L19.0436 17.2321L25.9809 21.2988L26.5204 20.3778ZM19.0439 17.2321L21.3997 18.6115L21.939 17.6908L19.5831 16.3114L19.0439 17.2321Z" fill="white"/>
<path d="M34.4414 7.14683L34.9747 7.15962C34.977 7.06534 34.9542 6.97215 34.9087 6.88955C34.8632 6.80694 34.7966 6.73787 34.7157 6.68937C34.6348 6.64087 34.5425 6.61467 34.4482 6.61345C34.3539 6.61223 34.261 6.63602 34.1789 6.68241L34.4414 7.14683ZM26.4256 11.6793L26.1642 11.2149C26.0817 11.2612 26.013 11.3287 25.9652 11.4104C25.9174 11.492 25.8922 11.5849 25.8921 11.6796L26.4256 11.6793ZM26.4305 20.8971H25.897C25.8969 20.9908 25.9215 21.0828 25.9683 21.1639C26.0151 21.245 26.0824 21.3124 26.1634 21.3593C26.2445 21.4061 26.3365 21.4308 26.4301 21.4309C26.5237 21.431 26.6158 21.4064 26.6969 21.3597L26.4305 20.8971ZM34.2189 16.4079L34.4853 16.8705C34.5646 16.8247 34.6308 16.7594 34.6775 16.6807C34.7243 16.6019 34.75 16.5125 34.7522 16.421L34.2189 16.4079ZM34.1789 6.68241L26.1642 11.2149L26.6893 12.1437L34.704 7.61126L34.1789 6.68241ZM25.8921 11.6796L25.897 20.8985H26.9641L26.9592 11.679L25.8921 11.6796ZM26.6969 21.3597L34.4855 16.8705L33.9525 15.9454L26.1642 20.436L26.6969 21.3597ZM34.7524 16.4218L34.975 7.15962L33.9082 7.13405L33.6856 16.3962L34.7524 16.4218Z" fill="white"/>
<path d="M17.7239 5.72474L17.4695 5.25569C17.3863 5.30084 17.3166 5.36732 17.2676 5.4483C17.2185 5.52929 17.1919 5.62186 17.1905 5.71653C17.1891 5.81119 17.2128 5.90453 17.2594 5.98697C17.3059 6.06941 17.3736 6.13798 17.4554 6.18564L17.7239 5.72474ZM25.6818 10.3582L25.4132 10.8193C25.4943 10.8665 25.5864 10.8916 25.6802 10.8918C25.774 10.8921 25.8662 10.8677 25.9476 10.8209L25.6818 10.3582ZM33.7123 5.74379L33.9781 6.20631C34.0594 6.15955 34.127 6.09217 34.174 6.01096C34.2209 5.92976 34.2457 5.8376 34.2457 5.74379C34.2457 5.64997 34.2209 5.55782 34.174 5.47661C34.127 5.39541 34.0594 5.32803 33.9781 5.28126L33.7123 5.74379ZM25.9092 1.28342L26.174 0.820896C26.0951 0.775824 26.006 0.751643 25.9151 0.750643C25.8243 0.749643 25.7347 0.771858 25.6548 0.815182L25.9092 1.28342ZM17.4554 6.18564L25.4132 10.8193L25.9511 9.89699L17.9924 5.26358L17.4554 6.18564ZM25.9476 10.8207L33.9773 6.20659L33.4457 5.28154L25.416 9.89563L25.9476 10.8207ZM33.9773 5.28072L26.174 0.820352L25.6445 1.7454L33.4476 6.20577L33.9773 5.28072ZM25.6548 0.814366L17.4695 5.25569L17.9794 6.19353L26.1636 1.75247L25.6548 0.814366Z" fill="white"/>
<path d="M18.0631 5.82849C18.0637 5.75843 18.0506 5.68892 18.0243 5.62395C17.9981 5.55897 17.9594 5.49979 17.9103 5.44979C17.8111 5.34882 17.6759 5.29136 17.5344 5.29006C17.4644 5.28942 17.3949 5.30258 17.3299 5.3288C17.2649 5.35502 17.2057 5.39378 17.1557 5.44287C17.0548 5.54201 16.9973 5.6772 16.996 5.8187L18.0631 5.82849ZM17.4569 13.8264L16.9234 13.8217C16.9221 13.9632 16.9771 14.0994 17.0763 14.2004C17.1754 14.3013 17.3106 14.3588 17.4521 14.36C17.5936 14.3613 17.7298 14.3063 17.8308 14.2071C17.9317 14.108 17.9892 13.9728 17.9904 13.8313L17.4569 13.8264ZM18.0146 11.1154C18.0159 10.9739 17.9609 10.8377 17.8617 10.7368C17.7626 10.6358 17.6274 10.5784 17.4859 10.5771C17.3444 10.5759 17.2082 10.6309 17.1072 10.73C17.0063 10.8292 16.9488 10.9644 16.9476 11.1059L18.0146 11.1154ZM16.996 5.8187L16.9234 13.8217L17.9904 13.8315L18.0631 5.82849L16.996 5.8187ZM17.9904 13.8313L18.0146 11.1157L16.9476 11.1062L16.9234 13.8217L17.9904 13.8313Z" fill="white"/>
<path d="M1.49891 5.63417L1.24452 5.16511C1.16126 5.21027 1.09151 5.27678 1.04246 5.3578C0.993404 5.43883 0.966804 5.53145 0.965391 5.62616C0.963979 5.72087 0.987804 5.81425 1.03442 5.8967C1.08104 5.97916 1.14876 6.04771 1.23064 6.09533L1.49891 5.63417ZM9.46168 10.2676L9.19341 10.7287C9.27446 10.7759 9.36651 10.8008 9.46027 10.8011C9.55403 10.8013 9.6462 10.7768 9.72749 10.7301L9.46168 10.2676ZM17.4922 5.65321L17.758 6.11574C17.8393 6.06897 17.9069 6.00159 17.9539 5.92039C18.0009 5.83918 18.0256 5.74703 18.0256 5.65321C18.0256 5.5594 18.0009 5.46724 17.9539 5.38604C17.9069 5.30483 17.8393 5.23745 17.758 5.19069L17.4922 5.65321ZM9.68423 1.19284L9.94896 0.73032C9.87008 0.685248 9.78099 0.661066 9.69014 0.660066C9.5993 0.659067 9.5097 0.681282 9.42984 0.724606L9.68423 1.19284ZM1.23064 6.09533L9.19314 10.7287L9.72994 9.80641L1.76717 5.173L1.23064 6.09533ZM9.72613 10.7301L17.7577 6.11601L17.2261 5.19096L9.19586 9.80505L9.72613 10.7301ZM17.7566 5.19015L9.94869 0.729504L9.4195 1.65619L17.228 6.11655L17.7566 5.19015ZM9.42984 0.72379L1.24452 5.16511L1.75438 6.10295L9.93862 1.6619L9.42984 0.72379Z" fill="white"/>
</svg>
