<svg width="593" height="134" viewBox="0 0 593 134" fill="none" xmlns="http://www.w3.org/2000/svg">
<g clip-path="url(#clip0_1220_930)">
<path d="M36.4718 104.751C41.0009 104.751 44.6725 101.087 44.6725 96.5662C44.6725 92.0457 41.0009 88.3811 36.4718 88.3811C31.9426 88.3811 28.271 92.0457 28.271 96.5662C28.271 101.087 31.9426 104.751 36.4718 104.751Z" fill="#F5B33C"/>
<path d="M52.8846 132.039C54.3275 132.039 55.4971 130.871 55.4971 129.431C55.4971 127.991 54.3275 126.824 52.8846 126.824C51.4418 126.824 50.2722 127.991 50.2722 129.431C50.2722 130.871 51.4418 132.039 52.8846 132.039Z" fill="#F9CC7D"/>
<path d="M71.3988 110.499C72.8416 110.499 74.0112 109.332 74.0112 107.892C74.0112 106.452 72.8416 105.284 71.3988 105.284C69.956 105.284 68.7864 106.452 68.7864 107.892C68.7864 109.332 69.956 110.499 71.3988 110.499Z" fill="#F9CC7D"/>
<path d="M70.4901 82.316C71.9329 82.316 73.1025 81.1486 73.1025 79.7085C73.1025 78.2685 71.9329 77.1011 70.4901 77.1011C69.0473 77.1011 67.8777 78.2685 67.8777 79.7085C67.8777 81.1486 69.0473 82.316 70.4901 82.316Z" fill="#F9CC7D"/>
<path d="M47.2395 64.3472C48.6823 64.3472 49.8519 63.1798 49.8519 61.7398C49.8519 60.2997 48.6823 59.1323 47.2395 59.1323C45.7967 59.1323 44.6271 60.2997 44.6271 61.7398C44.6271 63.1798 45.7967 64.3472 47.2395 64.3472Z" fill="#F9CC7D"/>
<path d="M20.7859 66.2518C22.2287 66.2518 23.3983 65.0844 23.3983 63.6443C23.3983 62.2043 22.2287 61.0369 20.7859 61.0369C19.3431 61.0369 18.1735 62.2043 18.1735 63.6443C18.1735 65.0844 19.3431 66.2518 20.7859 66.2518Z" fill="#F9CC7D"/>
<path d="M2.61243 87.2134C4.05523 87.2134 5.22486 86.046 5.22486 84.606C5.22486 83.1659 4.05523 81.9985 2.61243 81.9985C1.16962 81.9985 0 83.1659 0 84.606C0 86.046 1.16962 87.2134 2.61243 87.2134Z" fill="#F9CC7D"/>
<path d="M4.69104 115.861C6.13385 115.861 7.30347 114.694 7.30347 113.254C7.30347 111.814 6.13385 110.646 4.69104 110.646C3.24824 110.646 2.07861 111.814 2.07861 113.254C2.07861 114.694 3.24824 115.861 4.69104 115.861Z" fill="#F9CC7D"/>
<path d="M25.704 134C27.1468 134 28.3164 132.833 28.3164 131.393C28.3164 129.953 27.1468 128.785 25.704 128.785C24.2612 128.785 23.0916 129.953 23.0916 131.393C23.0916 132.833 24.2612 134 25.704 134Z" fill="#F9CC7D"/>
<path d="M37.8348 116.44C40.0993 116.44 41.9351 114.607 41.9351 112.347C41.9351 110.087 40.0993 108.254 37.8348 108.254C35.5702 108.254 33.7344 110.087 33.7344 112.347C33.7344 114.607 35.5702 116.44 37.8348 116.44Z" fill="#C5BFDF"/>
<path d="M47.5348 127.311C47.7626 127.295 47.9841 127.229 48.1835 127.118C48.3829 127.007 48.5554 126.854 48.6888 126.669C48.8221 126.484 48.913 126.272 48.955 126.048C48.997 125.824 48.9892 125.593 48.9319 125.373C48.3281 122.983 46.9004 120.882 44.8993 119.438C42.8982 117.995 40.4516 117.301 37.9889 117.478C35.5262 117.655 33.2047 118.692 31.4318 120.408C29.6589 122.123 28.5479 124.406 28.2937 126.858C28.2681 127.084 28.2928 127.314 28.3661 127.53C28.4394 127.746 28.5595 127.943 28.7178 128.108C28.8761 128.272 29.0687 128.4 29.2821 128.482C29.4954 128.563 29.7241 128.597 29.9521 128.581L47.5348 127.311Z" fill="#C5BFDF"/>
<path d="M20.6382 101.804C22.9028 101.804 24.7386 99.9715 24.7386 97.7112C24.7386 95.451 22.9028 93.6187 20.6382 93.6187C18.3736 93.6187 16.5378 95.451 16.5378 97.7112C16.5378 99.9715 18.3736 101.804 20.6382 101.804Z" fill="#7B73AF"/>
<path d="M5.54283 107.506C5.56238 107.733 5.63103 107.953 5.74405 108.151C5.85706 108.349 6.01176 108.52 6.19748 108.653C6.38319 108.786 6.59549 108.876 6.81976 108.919C7.04402 108.962 7.2749 108.955 7.49647 108.901C9.89081 108.297 11.9956 106.871 13.4414 104.873C14.8872 102.874 15.5816 100.432 15.4027 97.9735C15.2237 95.5152 14.1829 93.1983 12.463 91.4296C10.743 89.661 8.45376 88.5535 5.99717 88.3017C5.77056 88.2759 5.54103 88.3004 5.32506 88.3737C5.1091 88.4469 4.91205 88.5669 4.74808 88.7251C4.58411 88.8834 4.45729 89.0759 4.37671 89.2889C4.29613 89.5018 4.26381 89.73 4.28205 89.9569L5.54283 107.506Z" fill="#7B73AF"/>
<path d="M52.294 99.2984C54.5586 99.2984 56.3944 97.4661 56.3944 95.2058C56.3944 92.9456 54.5586 91.1133 52.294 91.1133C50.0294 91.1133 48.1936 92.9456 48.1936 95.2058C48.1936 97.4661 50.0294 99.2984 52.294 99.2984Z" fill="#7B73AF"/>
<path d="M67.4234 86.0117C67.415 85.7842 67.3569 85.5614 67.2533 85.3586C67.1497 85.1559 67.003 84.9782 66.8235 84.8379C66.6439 84.6976 66.4359 84.598 66.2139 84.5462C65.9918 84.4944 65.7611 84.4916 65.5379 84.5379C63.1201 85.0462 60.9592 86.3888 59.4349 88.3297C57.9106 90.2705 57.1203 92.6855 57.203 95.1502C57.2858 97.6149 58.2361 99.9717 59.8872 101.806C61.5383 103.641 63.7843 104.836 66.2308 105.182C66.4569 105.214 66.6871 105.195 66.9054 105.129C67.1237 105.062 67.3248 104.949 67.4947 104.797C67.6645 104.644 67.799 104.457 67.8887 104.247C67.9784 104.038 68.0212 103.811 68.014 103.584L67.4234 86.0117Z" fill="#7B73AF"/>
<path d="M46.8533 88.6758C49.1179 88.6758 50.9537 86.8435 50.9537 84.5833C50.9537 82.323 49.1179 80.4907 46.8533 80.4907C44.5887 80.4907 42.7529 82.323 42.7529 84.5833C42.7529 86.8435 44.5887 88.6758 46.8533 88.6758Z" fill="#C5BFDF"/>
<path d="M50.7038 67.2266C50.5313 67.077 50.3279 66.9671 50.1081 66.9048C49.8883 66.8425 49.6574 66.8293 49.4319 66.866C49.2064 66.9028 48.9917 66.9888 48.8032 67.1177C48.6147 67.2466 48.457 67.4154 48.3412 67.6121C47.0794 69.7274 46.6035 72.2184 46.9967 74.6488C47.39 77.0792 48.6275 79.2939 50.4924 80.9052C52.3573 82.5165 54.7307 83.4215 57.197 83.4618C59.6632 83.502 62.065 82.675 63.9817 81.1255C64.158 80.9797 64.2999 80.797 64.3972 80.5902C64.4946 80.3835 64.5451 80.1579 64.5451 79.9294C64.5451 79.701 64.4946 79.4754 64.3972 79.2686C64.2999 79.0619 64.158 78.8791 63.9817 78.7334L50.7038 67.2266Z" fill="#C5BFDF"/>
<path d="M24.6023 90.127C26.8669 90.127 28.7027 88.2947 28.7027 86.0345C28.7027 83.7742 26.8669 81.9419 24.6023 81.9419C22.3378 81.9419 20.502 83.7742 20.502 86.0345C20.502 88.2947 22.3378 90.127 24.6023 90.127Z" fill="#C5BFDF"/>
<path d="M7.54192 82.656C7.39283 82.8307 7.28404 83.0359 7.22327 83.2571C7.16249 83.4784 7.15121 83.7102 7.19023 83.9363C7.22925 84.1624 7.31761 84.3772 7.44905 84.5654C7.58049 84.7536 7.75179 84.9106 7.95082 85.0254C10.0723 86.2835 12.5698 86.7561 15.0055 86.3604C17.4411 85.9646 19.6595 84.7258 21.2717 82.8611C22.8839 80.9965 23.7871 78.6248 23.8228 76.1621C23.8586 73.6994 23.0247 71.3026 21.4673 69.3921C21.3191 69.2196 21.1352 69.0812 20.9284 68.9863C20.7216 68.8914 20.4966 68.8423 20.269 68.8423C20.0413 68.8423 19.8164 68.8914 19.6096 68.9863C19.4027 69.0812 19.2189 69.2196 19.0707 69.3921L7.54192 82.656Z" fill="#C5BFDF"/>
<path d="M35.5404 84.8326C37.805 84.8326 39.6408 83.0003 39.6408 80.74C39.6408 78.4798 37.805 76.6475 35.5404 76.6475C33.2759 76.6475 31.4401 78.4798 31.4401 80.74C31.4401 83.0003 33.2759 84.8326 35.5404 84.8326Z" fill="#5A488F"/>
<path d="M25.6359 65.9116C25.4077 65.9292 25.1861 65.9965 24.9867 66.1087C24.7873 66.221 24.615 66.3755 24.4818 66.5613C24.3486 66.7472 24.2579 66.9599 24.2159 67.1845C24.1739 67.4091 24.1818 67.6402 24.2388 67.8615C24.8435 70.2512 26.2723 72.352 28.2744 73.7951C30.2764 75.2381 32.7237 75.9312 35.1868 75.7526C37.6498 75.574 39.9711 74.5352 41.7431 72.8185C43.5152 71.1018 44.6247 68.8169 44.877 66.365C44.9055 66.1319 44.8811 65.8953 44.8055 65.6729C44.7299 65.4505 44.6051 65.2479 44.4403 65.0802C44.2756 64.9125 44.0751 64.784 43.8538 64.7042C43.6325 64.6244 43.396 64.5953 43.1619 64.6192L25.6359 65.9116Z" fill="#5A488F"/>
<path d="M26.0789 112.642C28.3435 112.642 30.1793 110.809 30.1793 108.549C30.1793 106.289 28.3435 104.457 26.0789 104.457C23.8143 104.457 21.9785 106.289 21.9785 108.549C21.9785 110.809 23.8143 112.642 26.0789 112.642Z" fill="#5A488F"/>
<path d="M22.7167 126.087C22.8902 126.237 23.0944 126.347 23.3151 126.409C23.5358 126.471 23.7675 126.485 23.9939 126.448C24.2203 126.411 24.4358 126.325 24.6253 126.196C24.8148 126.067 24.9737 125.898 25.0906 125.701C26.3498 123.582 26.8209 121.087 26.4212 118.656C26.0216 116.224 24.7767 114.01 22.9051 112.403C21.0334 110.796 18.6545 109.899 16.1859 109.868C13.7172 109.836 11.3164 110.674 9.40468 112.233C9.23018 112.38 9.08993 112.563 8.99372 112.77C8.8975 112.977 8.84766 113.202 8.84766 113.429C8.84766 113.657 8.8975 113.882 8.99372 114.089C9.08993 114.295 9.23018 114.479 9.40468 114.625L22.7167 126.087Z" fill="#5A488F"/>
<path d="M48.6139 110.862C50.8785 110.862 52.7143 109.03 52.7143 106.769C52.7143 104.509 50.8785 102.677 48.6139 102.677C46.3494 102.677 44.5135 104.509 44.5135 106.769C44.5135 109.03 46.3494 110.862 48.6139 110.862Z" fill="#5A488F"/>
<path d="M66.5261 110.612C66.6741 110.44 66.7826 110.236 66.8439 110.017C66.9052 109.798 66.9179 109.569 66.8812 109.344C66.8444 109.12 66.759 108.906 66.631 108.718C66.503 108.529 66.3354 108.371 66.1399 108.254C64.0206 106.995 61.5248 106.52 59.0898 106.913C56.6548 107.305 54.4358 108.54 52.8214 110.402C51.2071 112.263 50.3003 114.632 50.26 117.093C50.2196 119.555 51.0482 121.952 52.6007 123.865C52.7467 124.041 52.9298 124.183 53.137 124.28C53.3441 124.377 53.5702 124.427 53.799 124.427C54.0279 124.427 54.254 124.377 54.4611 124.28C54.6682 124.183 54.8513 124.041 54.9973 123.865L66.5261 110.612Z" fill="#5A488F"/>
<path d="M43.9115 24.85C46.2953 24.85 48.2277 22.9213 48.2277 20.5421C48.2277 18.1629 46.2953 16.2341 43.9115 16.2341C41.5278 16.2341 39.5953 18.1629 39.5953 20.5421C39.5953 22.9213 41.5278 24.85 43.9115 24.85Z" fill="#F5B33C"/>
<path d="M56.1105 6.90413C56.8695 6.90413 57.4848 6.28998 57.4848 5.53239C57.4848 4.77479 56.8695 4.16064 56.1105 4.16064C55.3514 4.16064 54.7361 4.77479 54.7361 5.53239C54.7361 6.28998 55.3514 6.90413 56.1105 6.90413Z" fill="#F9CC7D"/>
<path d="M41.742 2.74349C42.5011 2.74349 43.1164 2.12934 43.1164 1.37174C43.1164 0.61415 42.5011 0 41.742 0C40.983 0 40.3677 0.61415 40.3677 1.37174C40.3677 2.12934 40.983 2.74349 41.742 2.74349Z" fill="#F9CC7D"/>
<path d="M28.4187 9.31868C29.1777 9.31868 29.793 8.70453 29.793 7.94694C29.793 7.18935 29.1777 6.5752 28.4187 6.5752C27.6596 6.5752 27.0443 7.18935 27.0443 7.94694C27.0443 8.70453 27.6596 9.31868 28.4187 9.31868Z" fill="#F9CC7D"/>
<path d="M24.8635 24.3399C25.6225 24.3399 26.2379 23.7258 26.2379 22.9682C26.2379 22.2106 25.6225 21.5964 24.8635 21.5964C24.1045 21.5964 23.4891 22.2106 23.4891 22.9682C23.4891 23.7258 24.1045 24.3399 24.8635 24.3399Z" fill="#F9CC7D"/>
<path d="M31.5422 36.5723C32.3013 36.5723 32.9166 35.9582 32.9166 35.2006C32.9166 34.443 32.3013 33.8289 31.5422 33.8289C30.7832 33.8289 30.1678 34.443 30.1678 35.2006C30.1678 35.9582 30.7832 36.5723 31.5422 36.5723Z" fill="#F9CC7D"/>
<path d="M45.5471 40.6876C46.3061 40.6876 46.9215 40.0734 46.9215 39.3158C46.9215 38.5582 46.3061 37.9441 45.5471 37.9441C44.7881 37.9441 44.1727 38.5582 44.1727 39.3158C44.1727 40.0734 44.7881 40.6876 45.5471 40.6876Z" fill="#F9CC7D"/>
<path d="M58.8478 33.4659C59.6068 33.4659 60.2221 32.8517 60.2221 32.0942C60.2221 31.3366 59.6068 30.7224 58.8478 30.7224C58.0887 30.7224 57.4734 31.3366 57.4734 32.0942C57.4734 32.8517 58.0887 33.4659 58.8478 33.4659Z" fill="#F9CC7D"/>
<path d="M62.9709 19.4764C63.73 19.4764 64.3453 18.8622 64.3453 18.1047C64.3453 17.3471 63.73 16.7329 62.9709 16.7329C62.2119 16.7329 61.5966 17.3471 61.5966 18.1047C61.5966 18.8622 62.2119 19.4764 62.9709 19.4764Z" fill="#F9CC7D"/>
<path d="M47.9097 30.0084C49.1016 30.0084 50.0678 29.044 50.0678 27.8544C50.0678 26.6648 49.1016 25.7004 47.9097 25.7004C46.7178 25.7004 45.7516 26.6648 45.7516 27.8544C45.7516 29.044 46.7178 30.0084 47.9097 30.0084Z" fill="#20AB9F"/>
<path d="M55.8947 32.9332C55.9929 32.8745 56.0779 32.7962 56.1444 32.7032C56.2108 32.6102 56.2572 32.5044 56.2807 32.3926C56.3042 32.2808 56.3042 32.1653 56.2808 32.0535C56.2573 31.9416 56.211 31.8359 56.1446 31.7428C55.3345 30.7362 54.1965 30.0448 52.9286 29.7888C51.6607 29.5328 50.343 29.7285 49.2046 30.3417C48.0663 30.955 47.1792 31.947 46.6978 33.1454C46.2163 34.3438 46.1709 35.6727 46.5694 36.901C46.6103 37.0084 46.6728 37.1063 46.7531 37.1885C46.8335 37.2708 46.9298 37.3358 47.0363 37.3793C47.1428 37.4229 47.2571 37.4442 47.3722 37.4419C47.4873 37.4395 47.6006 37.4137 47.7053 37.3658L55.8947 32.9332Z" fill="#20AB9F"/>
<path d="M39.8112 15.4178C41.003 15.4178 41.9693 14.4534 41.9693 13.2638C41.9693 12.0742 41.003 11.1099 39.8112 11.1099C38.6193 11.1099 37.6531 12.0742 37.6531 13.2638C37.6531 14.4534 38.6193 15.4178 39.8112 15.4178Z" fill="#20AB9F"/>
<path d="M32.1101 8.03777C32.0008 8.08941 31.9043 8.16462 31.8276 8.25796C31.751 8.3513 31.696 8.46045 31.6666 8.57755C31.6373 8.69466 31.6344 8.8168 31.658 8.93518C31.6817 9.05355 31.7313 9.16522 31.8034 9.26213C32.5731 10.309 33.6877 11.0516 34.9516 11.3595C36.2154 11.6673 37.5475 11.5208 38.7138 10.9455C39.8801 10.3702 40.8059 9.4031 41.3286 8.21405C41.8513 7.025 41.9373 5.69013 41.5716 4.44403C41.537 4.33158 41.4788 4.22779 41.4008 4.13959C41.3228 4.05138 41.2268 3.98079 41.1193 3.93251C41.0119 3.88423 40.8953 3.85939 40.7774 3.85962C40.6596 3.85986 40.5431 3.88517 40.4358 3.93387L32.1101 8.03777Z" fill="#20AB9F"/>
<path d="M51.1923 18.6036C52.3842 18.6036 53.3504 17.6392 53.3504 16.4496C53.3504 15.26 52.3842 14.2957 51.1923 14.2957C50.0004 14.2957 49.0342 15.26 49.0342 16.4496C49.0342 17.6392 50.0004 18.6036 51.1923 18.6036Z" fill="#85D0CE"/>
<path d="M56.2581 8.54791C56.1989 8.44391 56.1178 8.35396 56.0205 8.28425C55.9231 8.21454 55.8117 8.16672 55.6941 8.14409C55.5764 8.12147 55.4552 8.12457 55.3388 8.15318C55.2225 8.18179 55.1137 8.23524 55.0201 8.30983C54.0242 9.12317 53.3435 10.2576 53.0953 11.5178C52.8471 12.7781 53.0469 14.0852 53.6603 15.2143C54.2736 16.3434 55.2622 17.2237 56.4558 17.7036C57.6493 18.1836 58.9732 18.2333 60.1995 17.844C60.3093 17.8061 60.4097 17.7454 60.4941 17.6657C60.5785 17.5861 60.6449 17.4895 60.689 17.3822C60.733 17.2749 60.7537 17.1596 60.7496 17.0437C60.7455 16.9279 60.7167 16.8142 60.6652 16.7103L56.2581 8.54791Z" fill="#85D0CE"/>
<path d="M35.9038 20.338C37.0957 20.338 38.0619 19.3736 38.0619 18.184C38.0619 16.9944 37.0957 16.03 35.9038 16.03C34.7119 16.03 33.7457 16.9944 33.7457 18.184C33.7457 19.3736 34.7119 20.338 35.9038 20.338Z" fill="#85D0CE"/>
<path d="M26.7377 20.1226C26.7037 20.2378 26.6956 20.3591 26.7139 20.4779C26.7323 20.5966 26.7767 20.7098 26.844 20.8094C26.9112 20.909 26.9997 20.9926 27.1031 21.0542C27.2064 21.1157 27.3221 21.1538 27.4419 21.1656C28.7346 21.3144 30.0384 21.0027 31.1232 20.2854C32.208 19.5681 33.0041 18.4914 33.3709 17.2453C33.7377 15.9992 33.6517 14.6638 33.128 13.4748C32.6043 12.2859 31.6766 11.3198 30.5087 10.7471C30.4024 10.6963 30.2863 10.669 30.1685 10.6671C30.0507 10.6652 29.9338 10.6887 29.8259 10.7361C29.7181 10.7835 29.6217 10.8536 29.5435 10.9416C29.4653 11.0296 29.4071 11.1334 29.3728 11.2459L26.7377 20.1226Z" fill="#85D0CE"/>
<path d="M41.4468 30.6544C42.6387 30.6544 43.6049 29.69 43.6049 28.5004C43.6049 27.3108 42.6387 26.3464 41.4468 26.3464C40.2549 26.3464 39.2887 27.3108 39.2887 28.5004C39.2887 29.69 40.2549 30.6544 41.4468 30.6544Z" fill="#85D0CE"/>
<path d="M43.5367 37.4113C43.652 37.4451 43.7733 37.4534 43.8921 37.4358C44.011 37.4182 44.1246 37.375 44.225 37.3092C44.3255 37.2434 44.4104 37.1567 44.474 37.0549C44.5375 36.9531 44.5782 36.8387 44.593 36.7197C44.7373 35.4304 44.4221 34.1316 43.7026 33.0511C42.9832 31.9706 41.9055 31.1775 40.6587 30.8109C39.4118 30.4443 38.0755 30.5277 36.8841 31.0464C35.6927 31.5651 34.7224 32.486 34.1433 33.6475C34.0943 33.7538 34.0685 33.8694 34.0675 33.9864C34.0666 34.1035 34.0905 34.2194 34.1377 34.3265C34.185 34.4337 34.2544 34.5296 34.3415 34.608C34.4287 34.6863 34.5314 34.7454 34.6431 34.7812L43.5367 37.4113Z" fill="#85D0CE"/>
<path d="M36.5286 26.5733C37.7205 26.5733 38.6867 25.609 38.6867 24.4194C38.6867 23.2298 37.7205 22.2654 36.5286 22.2654C35.3367 22.2654 34.3705 23.2298 34.3705 24.4194C34.3705 25.609 35.3367 26.5733 36.5286 26.5733Z" fill="#18736B"/>
<path d="M31.565 32.3891C31.6232 32.494 31.7035 32.585 31.8004 32.6558C31.8974 32.7266 32.0085 32.7756 32.1263 32.7993C32.244 32.8231 32.3655 32.821 32.4824 32.7932C32.5992 32.7654 32.7087 32.7126 32.8031 32.6385C33.8139 31.828 34.5073 30.6888 34.7622 29.42C35.0171 28.1511 34.8174 26.8332 34.1978 25.6964C33.5783 24.5596 32.5783 23.6761 31.3726 23.2002C30.1668 22.7244 28.8319 22.6864 27.6009 23.093C27.4912 23.1309 27.3907 23.1916 27.3063 23.2713C27.2219 23.3509 27.1555 23.4475 27.1114 23.5548C27.0674 23.662 27.0467 23.7774 27.0508 23.8933C27.0549 24.0091 27.0837 24.1228 27.1352 24.2267L31.565 32.3891Z" fill="#18736B"/>
<path d="M51.9306 25.0428C53.1224 25.0428 54.0886 24.0784 54.0886 22.8888C54.0886 21.6992 53.1224 20.7349 51.9306 20.7349C50.7387 20.7349 49.7725 21.6992 49.7725 22.8888C49.7725 24.0784 50.7387 25.0428 51.9306 25.0428Z" fill="#18736B"/>
<path d="M61.0854 20.6894C61.1194 20.5742 61.1275 20.4529 61.1092 20.3342C61.0908 20.2154 61.0464 20.1022 60.9791 20.0026C60.9119 19.903 60.8234 19.8194 60.72 19.7578C60.6167 19.6963 60.501 19.6582 60.3812 19.6465C59.0939 19.5098 57.7994 19.8281 56.7231 20.5459C55.6467 21.2637 54.8567 22.3356 54.4905 23.5749C54.1244 24.8142 54.2053 26.1424 54.7192 27.3283C55.2331 28.5141 56.1475 29.4826 57.3031 30.0649C57.4094 30.1157 57.5254 30.143 57.6432 30.1449C57.7611 30.1468 57.8779 30.1233 57.9858 30.0759C58.0937 30.0285 58.19 29.9584 58.2682 29.8705C58.3464 29.7825 58.4047 29.6786 58.4389 29.5661L61.0854 20.6894Z" fill="#18736B"/>
<path d="M46.1605 14.6583C47.3524 14.6583 48.3186 13.6939 48.3186 12.5043C48.3186 11.3147 47.3524 10.3503 46.1605 10.3503C44.9686 10.3503 44.0024 11.3147 44.0024 12.5043C44.0024 13.6939 44.9686 14.6583 46.1605 14.6583Z" fill="#18736B"/>
<path d="M44.1046 3.10618C43.9892 3.07429 43.8682 3.06772 43.75 3.08693C43.6318 3.10614 43.5192 3.15068 43.4199 3.21747C43.3206 3.28426 43.237 3.37172 43.1748 3.47385C43.1126 3.57597 43.0733 3.69033 43.0596 3.80906C42.9227 5.09386 43.2416 6.3859 43.9608 7.46021C44.68 8.53452 45.7539 9.32305 46.9955 9.6885C48.2372 10.054 49.568 9.97317 50.7561 9.46024C51.9442 8.9473 52.9145 8.03469 53.498 6.88131C53.5509 6.77553 53.5799 6.65941 53.5828 6.54121C53.5856 6.423 53.5624 6.30561 53.5147 6.19738C53.467 6.08915 53.396 5.99274 53.3067 5.91501C53.2174 5.83728 53.1121 5.78013 52.9982 5.74764L44.1046 3.10618Z" fill="#18736B"/>
<path d="M86.2102 54.3142C89.3153 54.3142 91.8326 51.8017 91.8326 48.7025C91.8326 45.6033 89.3153 43.0908 86.2102 43.0908C83.105 43.0908 80.5878 45.6033 80.5878 48.7025C80.5878 51.8017 83.105 54.3142 86.2102 54.3142Z" fill="#F5B33C"/>
<path d="M65.8446 65.3676C66.8357 65.3676 67.6392 64.5656 67.6392 63.5764C67.6392 62.5871 66.8357 61.7852 65.8446 61.7852C64.8534 61.7852 64.0499 62.5871 64.0499 63.5764C64.0499 64.5656 64.8534 65.3676 65.8446 65.3676Z" fill="#F9CC7D"/>
<path d="M82.5755 75.3778C83.5667 75.3778 84.3701 74.5759 84.3701 73.5866C84.3701 72.5974 83.5667 71.7954 82.5755 71.7954C81.5844 71.7954 80.7809 72.5974 80.7809 73.5866C80.7809 74.5759 81.5844 75.3778 82.5755 75.3778Z" fill="#F9CC7D"/>
<path d="M101.555 71.5121C102.547 71.5121 103.35 70.7101 103.35 69.7209C103.35 68.7316 102.547 67.9297 101.555 67.9297C100.564 67.9297 99.7607 68.7316 99.7607 69.7209C99.7607 70.7101 100.564 71.5121 101.555 71.5121Z" fill="#F9CC7D"/>
<path d="M111.04 53.736C112.031 53.736 112.834 52.934 112.834 51.9448C112.834 50.9555 112.031 50.1536 111.04 50.1536C110.048 50.1536 109.245 50.9555 109.245 51.9448C109.245 52.934 110.048 53.736 111.04 53.736Z" fill="#F9CC7D"/>
<path d="M106.689 36.1075C107.68 36.1075 108.484 35.3056 108.484 34.3163C108.484 33.3271 107.68 32.5251 106.689 32.5251C105.698 32.5251 104.895 33.3271 104.895 34.3163C104.895 35.3056 105.698 36.1075 106.689 36.1075Z" fill="#F9CC7D"/>
<path d="M90.3901 26.2672C91.3812 26.2672 92.1847 25.4653 92.1847 24.476C92.1847 23.4868 91.3812 22.6848 90.3901 22.6848C89.3989 22.6848 88.5955 23.4868 88.5955 24.476C88.5955 25.4653 89.3989 26.2672 90.3901 26.2672Z" fill="#F9CC7D"/>
<path d="M71.2171 30.9833C72.2083 30.9833 73.0117 30.1813 73.0117 29.1921C73.0117 28.2028 72.2083 27.4009 71.2171 27.4009C70.226 27.4009 69.4225 28.2028 69.4225 29.1921C69.4225 30.1813 70.226 30.9833 71.2171 30.9833Z" fill="#F9CC7D"/>
<path d="M61.3693 47.2514C62.3605 47.2514 63.164 46.4494 63.164 45.4601C63.164 44.4709 62.3605 43.6689 61.3693 43.6689C60.3782 43.6689 59.5747 44.4709 59.5747 45.4601C59.5747 46.4494 60.3782 47.2514 61.3693 47.2514Z" fill="#F9CC7D"/>
<path d="M83.5978 40.9709C85.1535 40.9709 86.4146 39.7122 86.4146 38.1594C86.4146 36.6067 85.1535 35.3479 83.5978 35.3479C82.042 35.3479 80.7809 36.6067 80.7809 38.1594C80.7809 39.7122 82.042 40.9709 83.5978 40.9709Z" fill="#688EC5"/>
<path d="M75.2153 29.1015C75.0633 29.1391 74.9215 29.2096 74.7999 29.3081C74.6783 29.4065 74.5798 29.5304 74.5115 29.671C74.4433 29.8117 74.4068 29.9656 74.4048 30.1218C74.4027 30.2781 74.4351 30.4329 74.4997 30.5752C75.1815 32.127 76.3906 33.3885 77.9136 34.1369C79.4366 34.8854 81.1756 35.0728 82.8236 34.666C84.4716 34.2592 85.9226 33.2844 86.9204 31.9136C87.9183 30.5428 88.3989 28.8643 88.2774 27.1742C88.2669 27.0193 88.2226 26.8685 88.1476 26.7324C88.0726 26.5963 87.9687 26.4783 87.8432 26.3865C87.7177 26.2947 87.5736 26.2314 87.421 26.201C87.2684 26.1706 87.111 26.1739 86.9598 26.2106L75.2153 29.1015Z" fill="#688EC5"/>
<path d="M88.9589 62.0459C90.5146 62.0459 91.7757 60.7871 91.7757 59.2344C91.7757 57.6816 90.5146 56.4229 88.9589 56.4229C87.4031 56.4229 86.142 57.6816 86.142 59.2344C86.142 60.7871 87.4031 62.0459 88.9589 62.0459Z" fill="#688EC5"/>
<path d="M96.9324 68.3718C97.0827 68.3286 97.2224 68.2548 97.3428 68.1551C97.4632 68.0555 97.5617 67.932 97.6321 67.7926C97.7025 67.6532 97.7432 67.5008 97.7518 67.3449C97.7604 67.189 97.7367 67.033 97.6821 66.8867C97.0518 65.3217 95.8909 64.0272 94.402 63.2293C92.9131 62.4314 91.1907 62.1806 89.5355 62.5207C87.8802 62.8608 86.3972 63.7703 85.3452 65.0904C84.2932 66.4104 83.739 68.0573 83.7794 69.7436C83.7828 69.8998 83.8206 70.0534 83.8902 70.1934C83.9597 70.3334 84.0592 70.4565 84.1817 70.5538C84.3041 70.6512 84.4466 70.7205 84.5989 70.7568C84.7511 70.7931 84.9096 70.7955 85.0629 70.7639L96.9324 68.3718Z" fill="#688EC5"/>
<path d="M75.6695 54.2688C77.2253 54.2688 78.4864 53.01 78.4864 51.4573C78.4864 49.9045 77.2253 48.6458 75.6695 48.6458C74.1138 48.6458 72.8527 49.9045 72.8527 51.4573C72.8527 53.01 74.1138 54.2688 75.6695 54.2688Z" fill="#9CC4E9"/>
<path d="M66.651 59.7218C66.6874 59.8745 66.7571 60.0173 66.8551 60.14C66.9532 60.2627 67.0772 60.3622 67.2182 60.4315C67.3593 60.5008 67.5139 60.5382 67.6711 60.5409C67.8284 60.5437 67.9842 60.5117 68.1276 60.4474C69.6823 59.7669 70.9462 58.5601 71.6961 57.04C72.446 55.5199 72.6338 53.7842 72.2262 52.1394C71.8186 50.4945 70.8419 49.0463 69.4686 48.0503C68.0952 47.0543 66.4134 46.5746 64.7201 46.6959C64.5641 46.7044 64.4119 46.7474 64.2746 46.8217C64.1372 46.896 64.018 46.9997 63.9257 47.1255C63.8334 47.2513 63.7701 47.396 63.7405 47.5491C63.711 47.7022 63.7158 47.86 63.7547 48.011L66.651 59.7218Z" fill="#9CC4E9"/>
<path d="M95.524 57.1372C97.0797 57.1372 98.3409 55.8784 98.3409 54.3257C98.3409 52.7729 97.0797 51.5142 95.524 51.5142C93.9683 51.5142 92.7072 52.7729 92.7072 54.3257C92.7072 55.8784 93.9683 57.1372 95.524 57.1372Z" fill="#9CC4E9"/>
<path d="M107.723 54.9152C107.805 54.7823 107.856 54.6329 107.873 54.4777C107.89 54.3226 107.873 54.1656 107.822 54.0181C107.771 53.8706 107.687 53.7363 107.578 53.6248C107.469 53.5133 107.336 53.4274 107.189 53.3734C105.609 52.7611 103.864 52.7246 102.26 53.2701C100.656 53.8157 99.2957 54.9084 98.4192 56.3561C97.5427 57.8037 97.2058 59.5136 97.4678 61.1847C97.7298 62.8558 98.5739 64.3811 99.8516 65.4923C99.969 65.5963 100.108 65.6731 100.258 65.7173C100.409 65.7616 100.567 65.7722 100.722 65.7483C100.877 65.7245 101.025 65.6669 101.156 65.5795C101.286 65.4922 101.395 65.3773 101.476 65.2429L107.723 54.9152Z" fill="#9CC4E9"/>
<path d="M91.9689 42.2973C93.5246 42.2973 94.7857 41.0386 94.7857 39.4858C94.7857 37.9331 93.5246 36.6743 91.9689 36.6743C90.4131 36.6743 89.152 37.9331 89.152 39.4858C89.152 41.0386 90.4131 42.2973 91.9689 42.2973Z" fill="#9CC4E9"/>
<path d="M92.2869 27.5821C92.1528 27.5003 92.0023 27.449 91.8461 27.4319C91.6899 27.4148 91.5319 27.4323 91.3832 27.4832C91.2346 27.5341 91.0991 27.6171 90.9863 27.7263C90.8735 27.8355 90.7862 27.9682 90.7308 28.115C90.1173 29.6917 90.0807 31.4339 90.6273 33.0349C91.1739 34.636 92.2688 35.9933 93.7192 36.8682C95.1696 37.743 96.8827 38.0792 98.557 37.8177C100.231 37.5562 101.76 36.7137 102.873 35.4385C102.977 35.3213 103.054 35.1827 103.098 35.0325C103.143 34.8823 103.153 34.7241 103.129 34.5693C103.106 34.4146 103.048 34.2669 102.96 34.1369C102.873 34.007 102.758 33.8978 102.623 33.8173L92.2869 27.5821Z" fill="#9CC4E9"/>
<path d="M96.8188 49.0654C98.3745 49.0654 99.6357 47.8066 99.6357 46.2539C99.6357 44.7011 98.3745 43.4424 96.8188 43.4424C95.2631 43.4424 94.002 44.7011 94.002 46.2539C94.002 47.8066 95.2631 49.0654 96.8188 49.0654Z" fill="#3B588F"/>
<path d="M105.713 37.8532C105.667 37.7066 105.591 37.5708 105.491 37.4541C105.391 37.3375 105.268 37.2423 105.13 37.1744C104.992 37.1066 104.842 37.0674 104.688 37.0594C104.534 37.0514 104.38 37.0746 104.236 37.1277C102.687 37.8137 101.429 39.0223 100.684 40.5413C99.9387 42.0603 99.7529 43.7927 100.159 45.4348C100.566 47.0768 101.539 48.5235 102.907 49.5211C104.276 50.5187 105.953 51.0035 107.643 50.8905C107.797 50.8714 107.944 50.8213 108.077 50.7433C108.211 50.6654 108.326 50.5611 108.418 50.437C108.509 50.3129 108.574 50.1714 108.609 50.0214C108.644 49.8713 108.648 49.7157 108.62 49.5641L105.713 37.8532Z" fill="#3B588F"/>
<path d="M76.8849 45.8911C78.4406 45.8911 79.7018 44.6323 79.7018 43.0796C79.7018 41.5268 78.4406 40.2681 76.8849 40.2681C75.3292 40.2681 74.068 41.5268 74.068 43.0796C74.068 44.6323 75.3292 45.8911 76.8849 45.8911Z" fill="#3B588F"/>
<path d="M64.6065 42.8187C64.5356 42.9549 64.4931 43.1041 64.4817 43.2572C64.4702 43.4103 64.4901 43.5642 64.54 43.7094C64.5899 43.8547 64.6689 43.9883 64.7721 44.1021C64.8753 44.216 65.0006 44.3077 65.1404 44.3718C66.7187 44.9729 68.4583 45.0021 70.0558 44.4541C71.6534 43.9062 73.0076 42.816 73.8823 41.3735C74.757 39.9311 75.0967 38.228 74.8421 36.5612C74.5875 34.8944 73.7548 33.3696 72.4893 32.2528C72.3726 32.1484 72.2344 32.0709 72.0844 32.0258C71.9344 31.9807 71.7762 31.9691 71.6212 31.9918C71.4662 32.0145 71.3181 32.071 71.1874 32.1573C71.0567 32.2435 70.9466 32.3574 70.865 32.4909L64.6065 42.8187Z" fill="#3B588F"/>
<path d="M80.7013 60.9008C82.257 60.9008 83.5182 59.6421 83.5182 58.0893C83.5182 56.5366 82.257 55.2778 80.7013 55.2778C79.1456 55.2778 77.8844 56.5366 77.8844 58.0893C77.8844 59.6421 79.1456 60.9008 80.7013 60.9008Z" fill="#3B588F"/>
<path d="M80.1675 70.6164C80.3012 70.6962 80.4507 70.7458 80.6056 70.7618C80.7605 70.7778 80.917 70.7597 81.0642 70.709C81.2114 70.6582 81.3457 70.5759 81.4576 70.4679C81.5696 70.3598 81.6565 70.2287 81.7123 70.0836C82.3146 68.5083 82.3438 66.772 81.7948 65.1775C81.2458 63.5829 80.1535 62.2313 78.7083 61.3583C77.2631 60.4853 75.5567 60.1463 73.8867 60.4003C72.2167 60.6544 70.6891 61.4855 69.5702 62.7487C69.4661 62.8659 69.3891 63.0045 69.3448 63.1547C69.3004 63.3049 69.2898 63.4631 69.3137 63.6179C69.3375 63.7726 69.3953 63.9203 69.4828 64.0502C69.5703 64.1802 69.6855 64.2893 69.8201 64.3699L80.1675 70.6164Z" fill="#3B588F"/>
</g>
<path d="M592.245 89.288V112.568H590.725V89.288H592.245Z" fill="#2F3442"/>
<path d="M584.875 112.568C584.555 112.568 584.357 112.419 584.283 112.12L584.059 110.088C583.621 110.515 583.184 110.899 582.746 111.24C582.32 111.581 581.872 111.869 581.402 112.104C580.933 112.339 580.427 112.515 579.883 112.632C579.339 112.76 578.741 112.824 578.09 112.824C577.546 112.824 577.019 112.744 576.507 112.584C575.995 112.424 575.541 112.179 575.146 111.848C574.752 111.517 574.432 111.096 574.186 110.584C573.952 110.061 573.835 109.437 573.835 108.712C573.835 108.04 574.026 107.416 574.41 106.84C574.794 106.264 575.392 105.763 576.202 105.336C577.024 104.909 578.074 104.568 579.354 104.312C580.645 104.056 582.192 103.907 583.995 103.864V102.2C583.995 100.728 583.674 99.5973 583.034 98.808C582.405 98.008 581.467 97.608 580.219 97.608C579.451 97.608 578.794 97.7146 578.25 97.928C577.717 98.1413 577.264 98.376 576.891 98.632C576.517 98.888 576.213 99.1226 575.978 99.336C575.744 99.5493 575.547 99.656 575.387 99.656C575.173 99.656 575.013 99.56 574.906 99.368L574.634 98.904C575.466 98.072 576.341 97.4426 577.258 97.016C578.176 96.5893 579.216 96.376 580.379 96.376C581.232 96.376 581.978 96.5146 582.618 96.792C583.258 97.0586 583.786 97.448 584.202 97.96C584.629 98.4613 584.949 99.0746 585.163 99.8C585.376 100.515 585.482 101.315 585.482 102.2V112.568H584.875ZM578.474 111.72C579.093 111.72 579.659 111.656 580.171 111.528C580.693 111.389 581.173 111.203 581.611 110.968C582.059 110.723 582.474 110.435 582.858 110.104C583.242 109.773 583.621 109.416 583.995 109.032V104.888C582.48 104.931 581.173 105.048 580.074 105.24C578.986 105.421 578.085 105.672 577.37 105.992C576.666 106.312 576.144 106.696 575.802 107.144C575.472 107.581 575.306 108.083 575.306 108.648C575.306 109.181 575.392 109.645 575.562 110.04C575.744 110.424 575.979 110.744 576.267 111C576.555 111.245 576.891 111.427 577.275 111.544C577.659 111.661 578.058 111.72 578.474 111.72Z" fill="#2F3442"/>
<path d="M567.66 112.824C566.583 112.824 565.74 112.525 565.132 111.928C564.535 111.331 564.236 110.408 564.236 109.16V98.28H561.948C561.831 98.28 561.735 98.248 561.66 98.184C561.586 98.12 561.548 98.0293 561.548 97.912V97.32L564.268 97.128L564.652 91.432C564.663 91.336 564.7 91.2506 564.764 91.176C564.839 91.1013 564.935 91.064 565.052 91.064H565.772V97.144H570.78V98.28H565.772V109.08C565.772 109.517 565.826 109.896 565.932 110.216C566.05 110.525 566.204 110.781 566.396 110.984C566.599 111.187 566.834 111.336 567.1 111.432C567.367 111.528 567.655 111.576 567.964 111.576C568.348 111.576 568.679 111.523 568.956 111.416C569.234 111.299 569.474 111.176 569.676 111.048C569.879 110.909 570.044 110.787 570.172 110.68C570.3 110.563 570.402 110.504 570.476 110.504C570.562 110.504 570.647 110.557 570.732 110.664L571.148 111.336C570.743 111.784 570.226 112.147 569.596 112.424C568.978 112.691 568.332 112.824 567.66 112.824Z" fill="#2F3442"/>
<path d="M550.59 112.568V96.648H551.389C551.571 96.648 551.699 96.6853 551.773 96.76C551.859 96.8346 551.907 96.9626 551.918 97.144L552.046 100.504C552.558 99.2133 553.24 98.2053 554.094 97.48C554.947 96.744 555.997 96.376 557.245 96.376C557.725 96.376 558.168 96.4293 558.573 96.536C558.979 96.632 559.363 96.776 559.725 96.968L559.517 98.024C559.485 98.1946 559.379 98.28 559.198 98.28C559.134 98.28 559.043 98.2586 558.926 98.216C558.808 98.1733 558.659 98.1253 558.478 98.072C558.307 98.0186 558.093 97.9706 557.837 97.928C557.581 97.8853 557.288 97.864 556.957 97.864C555.752 97.864 554.76 98.2373 553.982 98.984C553.214 99.7306 552.589 100.808 552.109 102.216V112.568H550.59Z" fill="#2F3442"/>
<path d="M539.341 96.392C540.482 96.392 541.501 96.5893 542.397 96.984C543.304 97.368 544.066 97.9173 544.685 98.632C545.304 99.3466 545.773 100.211 546.093 101.224C546.424 102.227 546.589 103.352 546.589 104.6C546.589 105.848 546.424 106.973 546.093 107.976C545.773 108.979 545.304 109.837 544.685 110.552C544.066 111.267 543.304 111.816 542.397 112.2C541.501 112.584 540.482 112.776 539.341 112.776C538.2 112.776 537.176 112.584 536.269 112.2C535.373 111.816 534.61 111.267 533.981 110.552C533.362 109.837 532.888 108.979 532.557 107.976C532.237 106.973 532.077 105.848 532.077 104.6C532.077 103.352 532.237 102.227 532.557 101.224C532.888 100.211 533.362 99.3466 533.981 98.632C534.61 97.9173 535.373 97.368 536.269 96.984C537.176 96.5893 538.2 96.392 539.341 96.392ZM539.341 111.576C540.29 111.576 541.117 111.416 541.821 111.096C542.536 110.765 543.128 110.296 543.597 109.688C544.077 109.08 544.434 108.349 544.669 107.496C544.904 106.632 545.021 105.667 545.021 104.6C545.021 103.544 544.904 102.584 544.669 101.72C544.434 100.856 544.077 100.12 543.597 99.512C543.128 98.8933 542.536 98.4186 541.821 98.088C541.117 97.7573 540.29 97.592 539.341 97.592C538.392 97.592 537.56 97.7573 536.845 98.088C536.141 98.4186 535.549 98.8933 535.069 99.512C534.6 100.12 534.242 100.856 533.997 101.72C533.762 102.584 533.645 103.544 533.645 104.6C533.645 105.667 533.762 106.632 533.997 107.496C534.242 108.349 534.6 109.08 535.069 109.688C535.549 110.296 536.141 110.765 536.845 111.096C537.56 111.416 538.392 111.576 539.341 111.576Z" fill="#2F3442"/>
<path d="M517.626 103.448V112.568H515.994V89.928H521.834C524.49 89.928 526.49 90.5093 527.834 91.672C529.188 92.8346 529.866 94.4933 529.866 96.648C529.866 97.64 529.679 98.552 529.306 99.384C528.943 100.216 528.415 100.936 527.722 101.544C527.028 102.141 526.186 102.611 525.194 102.952C524.202 103.283 523.082 103.448 521.834 103.448H517.626ZM517.626 102.136H521.834C522.836 102.136 523.732 101.997 524.522 101.72C525.311 101.443 525.978 101.059 526.522 100.568C527.076 100.077 527.498 99.5013 527.786 98.84C528.084 98.168 528.234 97.4373 528.234 96.648C528.234 94.9093 527.695 93.5706 526.618 92.632C525.551 91.6933 523.956 91.224 521.834 91.224H517.626V102.136Z" fill="#2F3442"/>
<path d="M498.215 96.392C499.111 96.392 499.937 96.5466 500.694 96.856C501.462 97.1653 502.124 97.6186 502.678 98.216C503.244 98.8026 503.681 99.528 503.991 100.392C504.311 101.256 504.47 102.248 504.47 103.368C504.47 103.603 504.433 103.763 504.358 103.848C504.294 103.933 504.188 103.976 504.039 103.976H492.534V104.28C492.534 105.475 492.673 106.525 492.951 107.432C493.228 108.339 493.622 109.101 494.134 109.72C494.646 110.328 495.265 110.787 495.991 111.096C496.716 111.405 497.526 111.56 498.422 111.56C499.222 111.56 499.916 111.475 500.503 111.304C501.089 111.123 501.58 110.925 501.974 110.712C502.38 110.488 502.7 110.291 502.935 110.12C503.169 109.939 503.34 109.848 503.447 109.848C503.585 109.848 503.692 109.901 503.767 110.008L504.182 110.52C503.926 110.84 503.585 111.139 503.159 111.416C502.743 111.693 502.273 111.933 501.75 112.136C501.238 112.328 500.684 112.483 500.086 112.6C499.5 112.717 498.908 112.776 498.31 112.776C497.222 112.776 496.231 112.589 495.335 112.216C494.439 111.832 493.67 111.277 493.03 110.552C492.39 109.827 491.895 108.941 491.543 107.896C491.201 106.84 491.03 105.635 491.03 104.28C491.03 103.139 491.19 102.088 491.51 101.128C491.841 100.157 492.31 99.3253 492.918 98.632C493.537 97.928 494.289 97.3786 495.174 96.984C496.07 96.5893 497.084 96.392 498.215 96.392ZM498.23 97.528C497.409 97.528 496.673 97.656 496.022 97.912C495.372 98.168 494.807 98.536 494.327 99.016C493.857 99.496 493.473 100.072 493.174 100.744C492.886 101.416 492.695 102.168 492.599 103H503.095C503.095 102.147 502.977 101.384 502.742 100.712C502.508 100.029 502.177 99.4533 501.75 98.984C501.324 98.5146 500.812 98.1573 500.215 97.912C499.617 97.656 498.956 97.528 498.23 97.528Z" fill="#2F3442"/>
<path d="M481.306 96.376C482 96.376 482.64 96.4613 483.226 96.632C483.824 96.8026 484.357 97.0426 484.826 97.352H488.906V97.88C488.906 98.1466 488.757 98.2906 488.458 98.312L486.042 98.488C486.341 98.8933 486.57 99.352 486.73 99.864C486.89 100.365 486.97 100.904 486.97 101.48C486.97 102.248 486.832 102.947 486.554 103.576C486.277 104.195 485.888 104.728 485.386 105.176C484.896 105.613 484.304 105.955 483.61 106.2C482.917 106.445 482.149 106.568 481.306 106.568C480.389 106.568 479.557 106.429 478.81 106.152C478.362 106.408 478.01 106.712 477.754 107.064C477.498 107.416 477.37 107.757 477.37 108.088C477.37 108.547 477.53 108.899 477.85 109.144C478.17 109.389 478.592 109.571 479.114 109.688C479.648 109.795 480.25 109.864 480.922 109.896C481.605 109.928 482.293 109.965 482.986 110.008C483.69 110.04 484.378 110.104 485.05 110.2C485.733 110.296 486.336 110.467 486.858 110.712C487.392 110.947 487.818 111.283 488.138 111.72C488.458 112.147 488.618 112.717 488.618 113.432C488.618 114.093 488.453 114.728 488.122 115.336C487.792 115.944 487.312 116.483 486.682 116.952C486.064 117.421 485.312 117.795 484.426 118.072C483.541 118.36 482.549 118.504 481.45 118.504C480.33 118.504 479.349 118.387 478.506 118.152C477.664 117.928 476.954 117.619 476.378 117.224C475.813 116.84 475.386 116.392 475.098 115.88C474.81 115.368 474.666 114.824 474.666 114.248C474.666 113.405 474.944 112.68 475.498 112.072C476.053 111.464 476.816 110.995 477.786 110.664C477.253 110.483 476.826 110.221 476.506 109.88C476.197 109.539 476.042 109.064 476.042 108.456C476.042 108.232 476.085 107.997 476.17 107.752C476.256 107.507 476.384 107.267 476.554 107.032C476.725 106.787 476.928 106.557 477.162 106.344C477.408 106.131 477.69 105.939 478.01 105.768C477.253 105.331 476.661 104.749 476.234 104.024C475.818 103.299 475.61 102.451 475.61 101.48C475.61 100.712 475.744 100.019 476.01 99.4C476.288 98.7706 476.672 98.232 477.162 97.784C477.664 97.336 478.266 96.9893 478.97 96.744C479.674 96.4986 480.453 96.376 481.306 96.376ZM487.21 113.64C487.21 113.139 487.077 112.739 486.81 112.44C486.554 112.131 486.208 111.891 485.77 111.72C485.333 111.549 484.826 111.432 484.25 111.368C483.685 111.293 483.088 111.24 482.458 111.208C481.84 111.176 481.216 111.144 480.586 111.112C479.957 111.08 479.37 111.016 478.826 110.92C478.421 111.08 478.042 111.267 477.69 111.48C477.349 111.683 477.056 111.917 476.81 112.184C476.565 112.44 476.373 112.723 476.234 113.032C476.096 113.352 476.026 113.699 476.026 114.072C476.026 114.541 476.144 114.973 476.378 115.368C476.624 115.773 476.976 116.12 477.434 116.408C477.904 116.707 478.474 116.941 479.146 117.112C479.818 117.283 480.592 117.368 481.466 117.368C482.277 117.368 483.029 117.277 483.722 117.096C484.426 116.915 485.034 116.659 485.546 116.328C486.069 115.997 486.474 115.603 486.762 115.144C487.061 114.685 487.21 114.184 487.21 113.64ZM481.306 105.528C481.989 105.528 482.597 105.432 483.13 105.24C483.664 105.037 484.112 104.76 484.474 104.408C484.837 104.056 485.109 103.635 485.29 103.144C485.482 102.653 485.578 102.109 485.578 101.512C485.578 100.915 485.482 100.371 485.29 99.88C485.098 99.3786 484.816 98.952 484.442 98.6C484.08 98.248 483.632 97.976 483.098 97.784C482.576 97.592 481.978 97.496 481.306 97.496C480.634 97.496 480.032 97.592 479.498 97.784C478.965 97.976 478.512 98.248 478.138 98.6C477.776 98.952 477.498 99.3786 477.306 99.88C477.114 100.371 477.018 100.915 477.018 101.512C477.018 102.109 477.114 102.653 477.306 103.144C477.498 103.635 477.776 104.056 478.138 104.408C478.512 104.76 478.965 105.037 479.498 105.24C480.032 105.432 480.634 105.528 481.306 105.528Z" fill="#2F3442"/>
<path d="M469.87 112.568C469.603 112.568 469.448 112.429 469.405 112.152L469.245 109.64C468.541 110.6 467.715 111.363 466.766 111.928C465.827 112.493 464.771 112.776 463.598 112.776C461.646 112.776 460.12 112.099 459.021 110.744C457.933 109.389 457.389 107.357 457.389 104.648C457.389 103.485 457.539 102.403 457.837 101.4C458.147 100.387 458.595 99.512 459.181 98.776C459.779 98.0293 460.504 97.4426 461.357 97.016C462.221 96.5893 463.213 96.376 464.333 96.376C465.411 96.376 466.344 96.5786 467.133 96.984C467.923 97.3786 468.605 97.96 469.181 98.728V89.288H470.717V112.568H469.87ZM464.03 111.544C465.086 111.544 466.04 111.272 466.893 110.728C467.747 110.184 468.509 109.427 469.181 108.456V100.056C468.563 99.1493 467.88 98.5093 467.133 98.136C466.397 97.7626 465.56 97.576 464.621 97.576C463.683 97.576 462.862 97.7466 462.158 98.088C461.454 98.4293 460.862 98.9146 460.382 99.544C459.912 100.163 459.555 100.909 459.31 101.784C459.075 102.648 458.957 103.603 458.957 104.648C458.957 107.016 459.395 108.76 460.27 109.88C461.144 110.989 462.398 111.544 464.03 111.544Z" fill="#2F3442"/>
<path d="M448.246 96.392C449.142 96.392 449.968 96.5466 450.726 96.856C451.494 97.1653 452.155 97.6186 452.71 98.216C453.275 98.8026 453.712 99.528 454.022 100.392C454.342 101.256 454.502 102.248 454.502 103.368C454.502 103.603 454.464 103.763 454.39 103.848C454.326 103.933 454.219 103.976 454.07 103.976H442.566V104.28C442.566 105.475 442.704 106.525 442.982 107.432C443.259 108.339 443.654 109.101 444.166 109.72C444.678 110.328 445.296 110.787 446.022 111.096C446.747 111.405 447.558 111.56 448.454 111.56C449.254 111.56 449.947 111.475 450.534 111.304C451.12 111.123 451.611 110.925 452.006 110.712C452.411 110.488 452.731 110.291 452.966 110.12C453.2 109.939 453.371 109.848 453.478 109.848C453.616 109.848 453.723 109.901 453.798 110.008L454.214 110.52C453.958 110.84 453.616 111.139 453.19 111.416C452.774 111.693 452.304 111.933 451.782 112.136C451.27 112.328 450.715 112.483 450.118 112.6C449.531 112.717 448.939 112.776 448.342 112.776C447.254 112.776 446.262 112.589 445.366 112.216C444.47 111.832 443.702 111.277 443.062 110.552C442.422 109.827 441.926 108.941 441.574 107.896C441.232 106.84 441.062 105.635 441.062 104.28C441.062 103.139 441.222 102.088 441.542 101.128C441.872 100.157 442.342 99.3253 442.95 98.632C443.568 97.928 444.32 97.3786 445.206 96.984C446.102 96.5893 447.115 96.392 448.246 96.392ZM448.262 97.528C447.44 97.528 446.704 97.656 446.054 97.912C445.403 98.168 444.838 98.536 444.358 99.016C443.888 99.496 443.504 100.072 443.206 100.744C442.918 101.416 442.726 102.168 442.63 103H453.126C453.126 102.147 453.008 101.384 452.774 100.712C452.539 100.029 452.208 99.4533 451.782 98.984C451.355 98.5146 450.843 98.1573 450.246 97.912C449.648 97.656 448.987 97.528 448.262 97.528Z" fill="#2F3442"/>
<path d="M436.62 89.288V112.568H435.1V89.288H436.62Z" fill="#2F3442"/>
<path d="M408.818 96.648H409.986C410.136 96.648 410.258 96.6907 410.354 96.776C410.45 96.8507 410.514 96.936 410.546 97.032L414.562 109.592C414.637 109.837 414.696 110.072 414.738 110.296C414.781 110.52 414.824 110.744 414.866 110.968C414.92 110.744 414.978 110.52 415.042 110.296C415.106 110.072 415.181 109.837 415.266 109.592L419.538 96.92C419.613 96.6853 419.762 96.568 419.986 96.568H420.61C420.845 96.568 421 96.6853 421.074 96.92L425.282 109.592C425.442 110.072 425.57 110.536 425.666 110.984C425.709 110.76 425.752 110.536 425.794 110.312C425.848 110.077 425.917 109.837 426.002 109.592L430.034 97.032C430.12 96.776 430.301 96.648 430.578 96.648H431.698L426.37 112.568H425.25C425.08 112.568 424.957 112.456 424.882 112.232L420.514 99.304C420.461 99.144 420.413 98.984 420.37 98.824C420.328 98.664 420.29 98.504 420.258 98.344C420.226 98.504 420.189 98.664 420.146 98.824C420.114 98.984 420.072 99.144 420.018 99.304L415.602 112.232C415.538 112.456 415.41 112.568 415.218 112.568H414.146L408.818 96.648Z" fill="#2F3442"/>
<path d="M399.81 96.392C400.951 96.392 401.97 96.5893 402.866 96.984C403.772 97.368 404.535 97.9173 405.154 98.632C405.772 99.3466 406.242 100.211 406.562 101.224C406.892 102.227 407.058 103.352 407.058 104.6C407.058 105.848 406.892 106.973 406.562 107.976C406.242 108.979 405.772 109.837 405.154 110.552C404.535 111.267 403.772 111.816 402.866 112.2C401.97 112.584 400.951 112.776 399.81 112.776C398.668 112.776 397.644 112.584 396.738 112.2C395.842 111.816 395.079 111.267 394.45 110.552C393.831 109.837 393.356 108.979 393.026 107.976C392.706 106.973 392.546 105.848 392.546 104.6C392.546 103.352 392.706 102.227 393.026 101.224C393.356 100.211 393.831 99.3466 394.45 98.632C395.079 97.9173 395.842 97.368 396.738 96.984C397.644 96.5893 398.668 96.392 399.81 96.392ZM399.81 111.576C400.759 111.576 401.586 111.416 402.29 111.096C403.004 110.765 403.596 110.296 404.066 109.688C404.546 109.08 404.903 108.349 405.138 107.496C405.372 106.632 405.49 105.667 405.49 104.6C405.49 103.544 405.372 102.584 405.138 101.72C404.903 100.856 404.546 100.12 404.066 99.512C403.596 98.8933 403.004 98.4186 402.29 98.088C401.586 97.7573 400.759 97.592 399.81 97.592C398.86 97.592 398.028 97.7573 397.314 98.088C396.61 98.4186 396.018 98.8933 395.538 99.512C395.068 100.12 394.711 100.856 394.466 101.72C394.231 102.584 394.114 103.544 394.114 104.6C394.114 105.667 394.231 106.632 394.466 107.496C394.711 108.349 395.068 109.08 395.538 109.688C396.018 110.296 396.61 110.765 397.314 111.096C398.028 111.416 398.86 111.576 399.81 111.576Z" fill="#2F3442"/>
<path d="M376.433 112.568V96.648H377.265C377.543 96.648 377.703 96.7813 377.745 97.048L377.889 99.448C378.615 98.5306 379.457 97.7946 380.417 97.24C381.388 96.6746 382.465 96.392 383.649 96.392C384.524 96.392 385.292 96.5306 385.953 96.808C386.625 97.0853 387.18 97.4853 387.617 98.008C388.055 98.5306 388.385 99.16 388.609 99.896C388.833 100.632 388.945 101.464 388.945 102.392V112.568H387.425V102.392C387.425 100.899 387.084 99.7306 386.401 98.888C385.719 98.0346 384.673 97.608 383.265 97.608C382.22 97.608 381.249 97.88 380.353 98.424C379.457 98.9573 378.657 99.6933 377.953 100.632V112.568H376.433Z" fill="#2F3442"/>
<path d="M358.188 100.376H359.532C359.735 100.376 359.911 100.371 360.06 100.36C360.21 100.339 360.343 100.307 360.46 100.264C360.588 100.211 360.706 100.147 360.812 100.072C360.919 99.9973 361.031 99.9013 361.148 99.784L370.284 90.392C370.455 90.2213 370.61 90.104 370.748 90.04C370.898 89.9653 371.079 89.928 371.292 89.928H372.62L362.732 100.088C362.53 100.301 362.348 100.467 362.188 100.584C362.039 100.701 361.868 100.797 361.676 100.872C361.9 100.936 362.098 101.037 362.268 101.176C362.45 101.304 362.631 101.475 362.812 101.688L373.244 112.568H371.916C371.639 112.568 371.442 112.531 371.324 112.456C371.207 112.371 371.084 112.264 370.956 112.136L361.372 102.344C361.255 102.227 361.148 102.125 361.052 102.04C360.956 101.955 360.844 101.885 360.716 101.832C360.599 101.768 360.455 101.725 360.284 101.704C360.114 101.672 359.9 101.656 359.644 101.656H358.188V112.568H356.556V89.896H358.188V100.376Z" fill="#2F3442"/>
<path d="M337.242 117.352C337.146 117.565 337.023 117.736 336.874 117.864C336.735 117.992 336.516 118.056 336.218 118.056H334.106L337.066 111.624L330.378 96.36H332.842C333.087 96.36 333.279 96.424 333.418 96.552C333.556 96.6693 333.658 96.8027 333.722 96.952L338.058 107.16C338.154 107.395 338.234 107.629 338.298 107.864C338.372 108.099 338.436 108.339 338.49 108.584C338.564 108.339 338.639 108.099 338.714 107.864C338.788 107.629 338.874 107.389 338.97 107.144L343.178 96.952C343.242 96.7813 343.348 96.6427 343.498 96.536C343.658 96.4187 343.828 96.36 344.01 96.36H346.282L337.242 117.352Z" fill="#2F3442"/>
<path d="M325.464 112.824C324.184 112.824 323.198 112.467 322.504 111.752C321.822 111.037 321.48 110.008 321.48 108.664V98.7439H319.528C319.358 98.7439 319.214 98.6959 319.096 98.5999C318.979 98.4933 318.92 98.3333 318.92 98.1199V96.9839L321.576 96.6479L322.232 91.6399C322.254 91.4799 322.323 91.3519 322.44 91.2559C322.558 91.1493 322.707 91.0959 322.888 91.0959H324.328V96.6799H328.968V98.7439H324.328V108.472C324.328 109.155 324.494 109.661 324.824 109.992C325.155 110.323 325.582 110.488 326.104 110.488C326.403 110.488 326.659 110.451 326.872 110.376C327.096 110.291 327.288 110.2 327.448 110.104C327.608 110.008 327.742 109.923 327.848 109.848C327.966 109.763 328.067 109.72 328.152 109.72C328.302 109.72 328.435 109.811 328.552 109.992L329.384 111.352C328.894 111.811 328.302 112.173 327.608 112.44C326.915 112.696 326.2 112.824 325.464 112.824Z" fill="#2F3442"/>
<path d="M315.533 96.36V112.568H312.685V96.36H315.533ZM316.173 91.272C316.173 91.5493 316.114 91.8107 315.997 92.056C315.89 92.2907 315.741 92.504 315.549 92.696C315.367 92.8773 315.154 93.0213 314.909 93.128C314.663 93.2347 314.402 93.288 314.125 93.288C313.847 93.288 313.586 93.2347 313.341 93.128C313.106 93.0213 312.893 92.8773 312.701 92.696C312.519 92.504 312.375 92.2907 312.269 92.056C312.162 91.8107 312.109 91.5493 312.109 91.272C312.109 90.9947 312.162 90.7333 312.269 90.488C312.375 90.232 312.519 90.0133 312.701 89.832C312.893 89.64 313.106 89.4907 313.341 89.384C313.586 89.2773 313.847 89.224 314.125 89.224C314.402 89.224 314.663 89.2773 314.909 89.384C315.154 89.4907 315.367 89.64 315.549 89.832C315.741 90.0133 315.89 90.232 315.997 90.488C316.114 90.7333 316.173 90.9947 316.173 91.272Z" fill="#2F3442"/>
<path d="M300.032 104.264L294.576 96.36H297.312C297.546 96.36 297.717 96.3973 297.824 96.472C297.93 96.5467 298.026 96.6533 298.112 96.792L302.08 102.872C302.176 102.573 302.314 102.275 302.496 101.976L305.984 96.856C306.09 96.7067 306.197 96.5893 306.304 96.504C306.41 96.408 306.544 96.36 306.704 96.36H309.328L303.872 104.104L309.552 112.568H306.816C306.581 112.568 306.394 112.509 306.256 112.392C306.128 112.264 306.021 112.125 305.936 111.976L301.856 105.624C301.781 105.933 301.669 106.211 301.52 106.456L297.744 111.976C297.637 112.125 297.52 112.264 297.392 112.392C297.274 112.509 297.109 112.568 296.896 112.568H294.352L300.032 104.264Z" fill="#2F3442"/>
<path d="M286.843 96.104C287.814 96.104 288.71 96.2693 289.531 96.6C290.353 96.92 291.062 97.3893 291.659 98.008C292.257 98.616 292.721 99.3733 293.051 100.28C293.393 101.176 293.563 102.2 293.563 103.352C293.563 103.8 293.515 104.099 293.419 104.248C293.323 104.397 293.142 104.472 292.875 104.472H282.091C282.113 105.496 282.251 106.387 282.507 107.144C282.763 107.901 283.115 108.536 283.563 109.048C284.011 109.549 284.545 109.928 285.163 110.184C285.782 110.429 286.475 110.552 287.243 110.552C287.958 110.552 288.571 110.472 289.083 110.312C289.606 110.141 290.054 109.96 290.427 109.768C290.801 109.576 291.11 109.4 291.355 109.24C291.611 109.069 291.83 108.984 292.011 108.984C292.246 108.984 292.427 109.075 292.555 109.256L293.355 110.296C293.003 110.723 292.582 111.096 292.091 111.416C291.601 111.725 291.073 111.981 290.507 112.184C289.953 112.387 289.377 112.536 288.779 112.632C288.182 112.739 287.59 112.792 287.003 112.792C285.883 112.792 284.849 112.605 283.899 112.232C282.961 111.848 282.145 111.293 281.451 110.568C280.769 109.832 280.235 108.925 279.851 107.848C279.467 106.771 279.275 105.533 279.275 104.136C279.275 103.005 279.446 101.949 279.787 100.968C280.139 99.9867 280.641 99.1387 281.291 98.424C281.942 97.6987 282.737 97.1333 283.675 96.728C284.614 96.312 285.67 96.104 286.843 96.104ZM286.907 98.2C285.531 98.2 284.449 98.6 283.659 99.4C282.87 100.189 282.379 101.288 282.187 102.696H291.003C291.003 102.035 290.913 101.432 290.731 100.888C290.55 100.333 290.283 99.8587 289.931 99.464C289.579 99.0587 289.147 98.7493 288.635 98.536C288.134 98.312 287.558 98.2 286.907 98.2Z" fill="#2F3442"/>
<path d="M275.408 89V112.568H272.56V89H275.408Z" fill="#2F3442"/>
<path d="M254.583 118.056V96.36H256.279C256.685 96.36 256.941 96.5574 257.048 96.952L257.287 98.872C257.981 98.0294 258.77 97.352 259.656 96.84C260.552 96.328 261.581 96.072 262.743 96.072C263.671 96.072 264.514 96.2534 265.271 96.616C266.029 96.968 266.674 97.496 267.208 98.2C267.741 98.8934 268.151 99.7574 268.439 100.792C268.727 101.827 268.871 103.016 268.871 104.36C268.871 105.555 268.711 106.669 268.391 107.704C268.071 108.728 267.613 109.619 267.016 110.376C266.418 111.123 265.682 111.715 264.807 112.152C263.943 112.579 262.968 112.792 261.88 112.792C260.877 112.792 260.018 112.627 259.303 112.296C258.599 111.965 257.976 111.496 257.432 110.888V118.056H254.583ZM261.799 98.376C260.872 98.376 260.056 98.5894 259.352 99.016C258.658 99.4427 258.018 100.045 257.432 100.824V108.664C257.954 109.368 258.525 109.864 259.143 110.152C259.773 110.44 260.472 110.584 261.24 110.584C262.744 110.584 263.901 110.045 264.712 108.968C265.522 107.891 265.927 106.355 265.927 104.36C265.927 103.304 265.831 102.397 265.639 101.64C265.458 100.883 265.191 100.264 264.839 99.784C264.487 99.2934 264.056 98.936 263.544 98.712C263.032 98.488 262.45 98.376 261.799 98.376Z" fill="#2F3442"/>
<path d="M228.302 112.568V96.36H229.998C230.404 96.36 230.66 96.5573 230.766 96.952L230.974 98.616C231.572 97.88 232.238 97.2773 232.974 96.808C233.721 96.3387 234.585 96.104 235.566 96.104C236.665 96.104 237.55 96.408 238.222 97.016C238.905 97.624 239.396 98.4453 239.694 99.48C239.918 98.8933 240.212 98.3867 240.574 97.96C240.948 97.5333 241.364 97.1813 241.822 96.904C242.281 96.6267 242.766 96.424 243.278 96.296C243.801 96.168 244.329 96.104 244.862 96.104C245.716 96.104 246.473 96.2427 247.134 96.52C247.806 96.7867 248.372 97.1813 248.83 97.704C249.3 98.2267 249.657 98.872 249.902 99.64C250.148 100.397 250.27 101.267 250.27 102.248V112.568H247.422V102.248C247.422 100.979 247.145 100.019 246.59 99.368C246.036 98.7067 245.23 98.376 244.174 98.376C243.705 98.376 243.257 98.4613 242.83 98.632C242.414 98.792 242.046 99.032 241.726 99.352C241.406 99.672 241.15 100.077 240.958 100.568C240.777 101.048 240.686 101.608 240.686 102.248V112.568H237.838V102.248C237.838 100.947 237.577 99.976 237.054 99.336C236.532 98.696 235.769 98.376 234.766 98.376C234.062 98.376 233.406 98.568 232.798 98.952C232.201 99.3253 231.652 99.8373 231.15 100.488V112.568H228.302Z" fill="#2F3442"/>
<path d="M217.081 96.104C218.265 96.104 219.332 96.3013 220.281 96.696C221.241 97.0907 222.052 97.6507 222.713 98.376C223.385 99.1013 223.897 99.9813 224.249 101.016C224.612 102.04 224.793 103.187 224.793 104.456C224.793 105.736 224.612 106.888 224.249 107.912C223.897 108.936 223.385 109.811 222.713 110.536C222.052 111.261 221.241 111.821 220.281 112.216C219.332 112.6 218.265 112.792 217.081 112.792C215.897 112.792 214.825 112.6 213.865 112.216C212.916 111.821 212.105 111.261 211.433 110.536C210.761 109.811 210.244 108.936 209.881 107.912C209.518 106.888 209.337 105.736 209.337 104.456C209.337 103.187 209.518 102.04 209.881 101.016C210.244 99.9813 210.761 99.1013 211.433 98.376C212.105 97.6507 212.916 97.0907 213.865 96.696C214.825 96.3013 215.897 96.104 217.081 96.104ZM217.081 110.568C218.681 110.568 219.876 110.035 220.665 108.968C221.454 107.891 221.849 106.392 221.849 104.472C221.849 102.541 221.454 101.037 220.665 99.96C219.876 98.8827 218.681 98.344 217.081 98.344C216.27 98.344 215.566 98.4827 214.969 98.76C214.372 99.0373 213.87 99.4373 213.465 99.96C213.07 100.483 212.772 101.128 212.569 101.896C212.377 102.653 212.281 103.512 212.281 104.472C212.281 105.432 212.377 106.291 212.569 107.048C212.772 107.805 213.07 108.445 213.465 108.968C213.87 109.48 214.372 109.875 214.969 110.152C215.566 110.429 216.27 110.568 217.081 110.568Z" fill="#2F3442"/>
<path d="M205.223 107.832C205.393 107.832 205.548 107.901 205.687 108.04L206.903 109.368C205.964 110.456 204.823 111.304 203.479 111.912C202.145 112.52 200.535 112.824 198.647 112.824C196.993 112.824 195.495 112.541 194.151 111.976C192.807 111.4 191.66 110.6 190.711 109.576C189.761 108.541 189.025 107.304 188.503 105.864C187.98 104.424 187.719 102.84 187.719 101.112C187.719 99.384 187.996 97.8 188.551 96.36C189.116 94.92 189.905 93.6827 190.919 92.648C191.932 91.6134 193.143 90.8134 194.551 90.248C195.969 89.672 197.532 89.384 199.239 89.384C200.924 89.384 202.375 89.6454 203.591 90.168C204.817 90.6907 205.905 91.4 206.855 92.296L205.847 93.72C205.772 93.8267 205.687 93.9174 205.591 93.992C205.495 94.056 205.356 94.088 205.175 94.088C205.036 94.088 204.887 94.04 204.727 93.944C204.577 93.8374 204.396 93.7094 204.183 93.56C203.969 93.4107 203.719 93.2507 203.431 93.08C203.143 92.9094 202.801 92.7494 202.407 92.6C202.012 92.4507 201.553 92.328 201.031 92.232C200.508 92.1254 199.905 92.072 199.223 92.072C197.996 92.072 196.871 92.2854 195.847 92.712C194.833 93.128 193.959 93.7254 193.223 94.504C192.487 95.2827 191.911 96.232 191.495 97.352C191.089 98.472 190.887 99.7254 190.887 101.112C190.887 102.541 191.089 103.816 191.495 104.936C191.911 106.056 192.471 107.005 193.175 107.784C193.889 108.552 194.732 109.139 195.703 109.544C196.673 109.949 197.719 110.152 198.839 110.152C199.521 110.152 200.135 110.115 200.679 110.04C201.223 109.955 201.724 109.827 202.183 109.656C202.652 109.485 203.084 109.272 203.479 109.016C203.884 108.749 204.289 108.435 204.695 108.072C204.876 107.912 205.052 107.832 205.223 107.832Z" fill="#2F3442"/>
<path d="M169.521 112.568V96.36H171.153C171.462 96.36 171.676 96.4187 171.793 96.536C171.91 96.6534 171.99 96.856 172.033 97.144L172.225 99.672C172.78 98.5414 173.462 97.6614 174.273 97.032C175.094 96.392 176.054 96.072 177.153 96.072C177.601 96.072 178.006 96.1254 178.369 96.232C178.732 96.328 179.068 96.4667 179.377 96.648L179.009 98.776C178.934 99.0427 178.769 99.176 178.513 99.176C178.364 99.176 178.134 99.128 177.825 99.032C177.516 98.9254 177.084 98.872 176.529 98.872C175.537 98.872 174.705 99.16 174.033 99.736C173.372 100.312 172.817 101.149 172.369 102.248V112.568H169.521Z" fill="#2F3442"/>
<path d="M159.156 96.104C160.126 96.104 161.022 96.2693 161.844 96.6C162.665 96.92 163.374 97.3893 163.972 98.008C164.569 98.616 165.033 99.3733 165.364 100.28C165.705 101.176 165.876 102.2 165.876 103.352C165.876 103.8 165.828 104.099 165.732 104.248C165.636 104.397 165.454 104.472 165.188 104.472H154.404C154.425 105.496 154.564 106.387 154.82 107.144C155.076 107.901 155.428 108.536 155.876 109.048C156.324 109.549 156.857 109.928 157.476 110.184C158.094 110.429 158.788 110.552 159.556 110.552C160.27 110.552 160.884 110.472 161.396 110.312C161.918 110.141 162.366 109.96 162.74 109.768C163.113 109.576 163.422 109.4 163.668 109.24C163.924 109.069 164.142 108.984 164.324 108.984C164.558 108.984 164.74 109.075 164.868 109.256L165.668 110.296C165.316 110.723 164.894 111.096 164.404 111.416C163.913 111.725 163.385 111.981 162.82 112.184C162.265 112.387 161.689 112.536 161.092 112.632C160.494 112.739 159.902 112.792 159.316 112.792C158.196 112.792 157.161 112.605 156.212 112.232C155.273 111.848 154.457 111.293 153.764 110.568C153.081 109.832 152.548 108.925 152.164 107.848C151.78 106.771 151.588 105.533 151.588 104.136C151.588 103.005 151.758 101.949 152.1 100.968C152.452 99.9867 152.953 99.1387 153.604 98.424C154.254 97.6987 155.049 97.1333 155.988 96.728C156.926 96.312 157.982 96.104 159.156 96.104ZM159.22 98.2C157.844 98.2 156.761 98.6 155.972 99.4C155.182 100.189 154.692 101.288 154.5 102.696H163.316C163.316 102.035 163.225 101.432 163.044 100.888C162.862 100.333 162.596 99.8587 162.244 99.464C161.892 99.0587 161.46 98.7493 160.948 98.536C160.446 98.312 159.87 98.2 159.22 98.2Z" fill="#2F3442"/>
<path d="M148.858 99.24C148.773 99.3573 148.688 99.448 148.602 99.512C148.517 99.576 148.394 99.608 148.234 99.608C148.074 99.608 147.898 99.544 147.706 99.416C147.525 99.2773 147.29 99.128 147.002 98.968C146.714 98.808 146.362 98.664 145.946 98.536C145.541 98.3973 145.04 98.328 144.442 98.328C143.653 98.328 142.954 98.472 142.346 98.76C141.738 99.0373 141.226 99.4427 140.81 99.976C140.405 100.509 140.096 101.155 139.882 101.912C139.68 102.669 139.578 103.517 139.578 104.456C139.578 105.437 139.69 106.312 139.914 107.08C140.138 107.837 140.453 108.477 140.858 109C141.264 109.512 141.754 109.907 142.33 110.184C142.917 110.451 143.573 110.584 144.298 110.584C144.992 110.584 145.562 110.504 146.01 110.344C146.458 110.173 146.832 109.987 147.13 109.784C147.429 109.581 147.674 109.4 147.866 109.24C148.058 109.069 148.25 108.984 148.442 108.984C148.688 108.984 148.869 109.075 148.986 109.256L149.786 110.296C149.082 111.16 148.202 111.795 147.146 112.2C146.09 112.595 144.976 112.792 143.802 112.792C142.789 112.792 141.845 112.605 140.97 112.232C140.106 111.859 139.354 111.32 138.714 110.616C138.074 109.901 137.568 109.027 137.194 107.992C136.832 106.957 136.65 105.779 136.65 104.456C136.65 103.251 136.816 102.136 137.146 101.112C137.488 100.088 137.978 99.208 138.618 98.472C139.269 97.7253 140.069 97.144 141.018 96.728C141.968 96.312 143.056 96.104 144.282 96.104C145.413 96.104 146.416 96.2907 147.29 96.664C148.165 97.0267 148.938 97.544 149.61 98.216L148.858 99.24Z" fill="#2F3442"/>
<path d="M120.021 112.568V96.36H121.717C122.122 96.36 122.378 96.5573 122.485 96.952L122.709 98.712C123.413 97.9333 124.197 97.304 125.061 96.824C125.936 96.344 126.944 96.104 128.085 96.104C128.97 96.104 129.749 96.2533 130.421 96.552C131.104 96.84 131.669 97.256 132.117 97.8C132.576 98.3333 132.922 98.9787 133.157 99.736C133.392 100.493 133.509 101.331 133.509 102.248V112.568H130.661V102.248C130.661 101.021 130.378 100.072 129.813 99.4C129.258 98.7173 128.405 98.376 127.253 98.376C126.41 98.376 125.621 98.5787 124.885 98.984C124.16 99.3893 123.488 99.9387 122.869 100.632V112.568H120.021Z" fill="#2F3442"/>
<path d="M115.706 112.568H114.442C114.165 112.568 113.941 112.525 113.77 112.44C113.6 112.355 113.488 112.173 113.434 111.896L113.114 110.392C112.688 110.776 112.272 111.123 111.866 111.432C111.461 111.731 111.034 111.987 110.586 112.2C110.138 112.403 109.658 112.557 109.146 112.664C108.645 112.771 108.085 112.824 107.466 112.824C106.837 112.824 106.245 112.739 105.69 112.568C105.146 112.387 104.672 112.12 104.266 111.768C103.861 111.416 103.536 110.973 103.29 110.44C103.056 109.896 102.938 109.256 102.938 108.52C102.938 107.88 103.114 107.267 103.466 106.68C103.818 106.083 104.384 105.555 105.162 105.096C105.952 104.637 106.981 104.264 108.25 103.976C109.52 103.677 111.072 103.507 112.906 103.464V102.2C112.906 100.941 112.634 99.992 112.09 99.352C111.557 98.7014 110.762 98.376 109.706 98.376C109.013 98.376 108.426 98.4667 107.946 98.648C107.477 98.8187 107.066 99.016 106.714 99.24C106.373 99.4534 106.074 99.6507 105.818 99.832C105.573 100.003 105.328 100.088 105.082 100.088C104.89 100.088 104.72 100.04 104.57 99.944C104.432 99.8374 104.32 99.7094 104.234 99.56L103.722 98.648C104.618 97.784 105.584 97.1387 106.618 96.712C107.653 96.2854 108.8 96.072 110.058 96.072C110.965 96.072 111.77 96.2214 112.474 96.52C113.178 96.8187 113.77 97.2347 114.25 97.768C114.73 98.3014 115.093 98.9467 115.338 99.704C115.584 100.461 115.706 101.293 115.706 102.2V112.568ZM108.314 110.824C108.816 110.824 109.274 110.776 109.69 110.68C110.106 110.573 110.496 110.429 110.858 110.248C111.232 110.056 111.584 109.827 111.914 109.56C112.256 109.293 112.586 108.989 112.906 108.648V105.272C111.594 105.315 110.48 105.421 109.562 105.592C108.645 105.752 107.898 105.965 107.322 106.232C106.746 106.499 106.325 106.813 106.058 107.176C105.802 107.539 105.674 107.944 105.674 108.392C105.674 108.819 105.744 109.187 105.882 109.496C106.021 109.805 106.208 110.061 106.442 110.264C106.677 110.456 106.954 110.6 107.274 110.696C107.594 110.781 107.941 110.824 108.314 110.824Z" fill="#2F3442"/>
<path d="M98.504 107.832C98.6747 107.832 98.8293 107.901 98.968 108.04L100.184 109.368C99.2453 110.456 98.104 111.304 96.76 111.912C95.4267 112.52 93.816 112.824 91.928 112.824C90.2747 112.824 88.776 112.541 87.432 111.976C86.088 111.4 84.9413 110.6 83.992 109.576C83.0427 108.541 82.3067 107.304 81.784 105.864C81.2613 104.424 81 102.84 81 101.112C81 99.384 81.2773 97.8 81.832 96.36C82.3973 94.92 83.1867 93.6827 84.2 92.648C85.2133 91.6134 86.424 90.8134 87.832 90.248C89.2507 89.672 90.8133 89.384 92.52 89.384C94.2053 89.384 95.656 89.6454 96.872 90.168C98.0987 90.6907 99.1867 91.4 100.136 92.296L99.128 93.72C99.0533 93.8267 98.968 93.9174 98.872 93.992C98.776 94.056 98.6373 94.088 98.456 94.088C98.3173 94.088 98.168 94.04 98.008 93.944C97.8587 93.8374 97.6773 93.7094 97.464 93.56C97.2507 93.4107 97 93.2507 96.712 93.08C96.424 92.9094 96.0827 92.7494 95.688 92.6C95.2933 92.4507 94.8347 92.328 94.312 92.232C93.7893 92.1254 93.1867 92.072 92.504 92.072C91.2773 92.072 90.152 92.2854 89.128 92.712C88.1147 93.128 87.24 93.7254 86.504 94.504C85.768 95.2827 85.192 96.232 84.776 97.352C84.3707 98.472 84.168 99.7254 84.168 101.112C84.168 102.541 84.3707 103.816 84.776 104.936C85.192 106.056 85.752 107.005 86.456 107.784C87.1707 108.552 88.0133 109.139 88.984 109.544C89.9547 109.949 91 110.152 92.12 110.152C92.8027 110.152 93.416 110.115 93.96 110.04C94.504 109.955 95.0053 109.827 95.464 109.656C95.9333 109.485 96.3653 109.272 96.76 109.016C97.1653 108.749 97.5707 108.435 97.976 108.072C98.1573 107.912 98.3333 107.832 98.504 107.832Z" fill="#2F3442"/>
<defs>
<clipPath id="clip0_1220_930">
<rect width="113" height="134" fill="white"/>
</clipPath>
</defs>
</svg>
