<svg width="57" height="57" viewBox="0 0 57 57" fill="none" xmlns="http://www.w3.org/2000/svg">
<path d="M9.5 13L4 16.5L4.5 23L1 28.5L4.5 34.5L3 40L9.5 44L12 50.5H17.5L22.5 55.5L28.5 53.5L35 55.5L39.5 50.5H45.5L48 44L53.5 40L53 33.5L56 28.5L52.5 23L53 16.5L47.5 13.5L45.5 7.5L38.5 6.5L34 2L28 4L22.5 2L17.5 6.5L11 7.5L9.5 13Z" fill="white"/>
<path d="M12.3129 15.6721L9.44211 17.5502C8.83281 17.9488 8.48827 18.647 8.5426 19.3731L8.81509 23.0148C8.84664 23.4364 8.74376 23.8572 8.52123 24.2167L6.62415 27.2814C6.23933 27.9031 6.2244 28.6852 6.58523 29.3211L8.46055 32.6261C8.71891 33.0814 8.78844 33.6199 8.6542 34.1259L8.01266 36.5442C7.78871 37.3884 8.13844 38.2802 8.87652 38.7472L12.3863 40.9676C12.755 41.2008 13.0373 41.5483 13.1902 41.9569L14.5139 45.4952C14.8063 46.2766 15.5529 46.7944 16.3871 46.7944H18.6553C19.1954 46.7944 19.7124 47.0128 20.089 47.3999L22.7075 50.0918C23.2469 50.6463 24.0577 50.84 24.7895 50.5893L27.8767 49.5314C28.2815 49.3926 28.7202 49.3874 29.1282 49.5165L32.5715 50.6056C33.3289 50.8452 34.1562 50.6139 34.6795 50.0162L36.9024 47.477C37.2822 47.0432 37.8307 46.7944 38.4072 46.7944H41.022C41.8562 46.7944 42.6028 46.2766 42.8952 45.4952L44.2489 41.8767C44.3832 41.5179 44.6177 41.2051 44.9245 40.9757L48.0759 38.6196C48.6232 38.2104 48.9237 37.55 48.8727 36.8685L48.5919 33.1155C48.5616 32.7116 48.6548 32.308 48.859 31.9582L50.3939 29.3282C50.7669 28.6892 50.7566 27.8965 50.3672 27.2674L48.4788 24.2167C48.2562 23.8572 48.1534 23.4364 48.1849 23.0148L48.4504 19.4668C48.5084 18.6917 48.1121 17.9533 47.4342 17.5731L44.7283 16.0558C44.2893 15.8096 43.9592 15.407 43.804 14.9282L42.7922 11.8076C42.5576 11.0841 41.9328 10.5562 41.1803 10.4457L37.3523 9.88352C36.9175 9.81965 36.5158 9.61432 36.2093 9.29927L33.8834 6.90819C33.344 6.35368 32.5332 6.15995 31.8014 6.41072L28.7686 7.45002C28.3304 7.60016 27.8537 7.59358 27.4199 7.4314L24.7451 6.43146C24.0374 6.16691 23.241 6.32372 22.6865 6.83681L19.9459 9.37252C19.6552 9.64147 19.2912 9.81807 18.9 9.87994L15.4685 10.4227C14.6863 10.5464 14.0508 11.1199 13.8478 11.8853L13.1511 14.5113C13.0246 14.9884 12.726 15.4018 12.3129 15.6721Z" fill="#395979"/>
<path d="M55.022 32.368C55.9809 31.2627 57 30.0347 57 28.5613C57 27.0877 55.921 25.7983 55.022 24.7546C54.4226 24.0179 53.7634 23.281 53.6433 22.7283C53.5236 22.053 53.7631 21.132 54.0029 20.1496C54.3625 18.7989 54.7822 17.2639 54.1828 15.913C53.5236 14.5623 52.085 13.9483 50.8264 13.3956C49.9873 13.0273 49.0882 12.6589 48.6688 12.1676C48.2493 11.6764 48.1293 10.694 47.9496 9.71165C47.7098 8.29935 47.4101 6.703 46.2713 5.782C45.1324 4.861 43.5741 4.92234 42.1955 4.98369C41.2366 5.04505 40.2776 5.10641 39.6783 4.79941C39.1388 4.55377 38.5394 3.69411 37.9999 2.95741C37.1608 1.79076 36.2617 0.440063 34.8232 0.133063C33.4445 -0.173937 32.126 0.562781 30.8674 1.23837C30.0883 1.72965 29.1893 2.15937 28.53 2.15937C27.8708 2.15937 26.9717 1.66808 26.1326 1.17702C24.874 0.501667 23.5552 -0.235286 22.1768 0.0717141C20.7383 0.378714 19.8392 1.72941 19.0001 2.89606C18.4606 3.69437 17.9211 4.49241 17.3217 4.73806C16.7224 5.04506 15.7634 4.9837 14.8045 4.92234C13.4259 4.86099 11.8676 4.79963 10.7287 5.72065C9.58987 6.64165 9.35007 8.238 9.05039 9.6503C8.8705 10.5713 8.69081 11.615 8.33125 12.1063C7.97167 12.5976 7.07263 12.9659 6.17358 13.3343C4.91496 13.8869 3.41655 14.5009 2.81718 15.8516C2.21781 17.2023 2.63729 18.7373 2.99707 20.0883C3.23686 21.0093 3.53655 21.9916 3.35665 22.667C3.23686 23.281 2.57737 24.0177 1.97801 24.6933C1.01907 25.7986 0 27.0266 0 28.5C0 29.9736 1.07896 31.263 1.97801 32.3067C2.57737 33.0434 3.23663 33.7803 3.35665 34.333C3.47644 35.0083 3.23686 35.9293 2.99707 36.9117C2.63749 38.2624 2.2178 39.7974 2.81718 41.1483C3.47643 42.499 4.91496 43.113 6.17358 43.6657C7.01275 44.034 7.91179 44.4024 8.33125 44.8937C8.75073 45.385 8.87073 46.3673 9.05039 47.3497C9.29018 48.762 9.58987 50.3583 10.7287 51.2793C11.8676 52.2003 13.4259 52.139 14.8045 52.0776C15.7634 52.0163 16.7224 51.9549 17.3217 52.2619C17.8612 52.5076 18.4606 53.3672 19.0001 54.1039C19.8392 55.2706 20.7383 56.6213 22.1768 56.9283C22.4166 56.9896 22.6564 56.9896 22.896 56.9896C24.0348 56.9896 25.1135 56.3756 26.1925 55.823C27.0316 55.3317 27.9307 54.8406 28.5899 54.8406C29.2492 54.8406 30.1482 55.3319 30.9874 55.823C32.246 56.4983 33.5648 57.2353 34.9432 56.9283C36.3817 56.6213 37.2807 55.2706 38.1199 54.1039C38.6594 53.3056 39.1989 52.5076 39.7982 52.2619C40.3976 51.9549 41.3565 52.0163 42.3155 52.0777C43.6941 52.139 45.2524 52.2004 46.3913 51.2794C47.5301 50.3584 47.7699 48.762 48.0696 47.3497C48.2495 46.3674 48.4292 45.385 48.7887 44.8937C49.1483 44.4024 50.0473 44.034 50.9464 43.6657C52.205 43.1131 53.7034 42.4991 54.3028 41.1484C54.9022 39.7977 54.4827 38.2627 54.1229 36.9117C53.8831 35.9907 53.5834 35.0084 53.7633 34.333C53.7633 33.8417 54.4226 33.105 55.0219 32.3681L55.022 32.368ZM53.4637 30.9559C52.6844 31.8769 51.8455 32.7979 51.6057 33.9646C51.3659 35.1312 51.6656 36.3592 52.0252 37.5872C52.3249 38.6309 52.6245 39.7362 52.3249 40.2889C52.0252 40.9029 51.0064 41.3326 50.0472 41.7625C48.9682 42.2538 47.7695 42.7449 47.0503 43.6659C46.3312 44.5869 46.0914 45.8762 45.9115 47.0429C45.7316 48.1482 45.5519 49.2532 45.0124 49.6832C44.5329 50.1129 43.3943 50.0516 42.3153 49.9902C41.1166 49.9288 39.8579 49.8675 38.779 50.4199C37.7602 50.9112 37.0408 51.9549 36.3216 52.9373C35.6624 53.8583 35.063 54.7793 34.4038 54.902C33.8044 55.0247 32.8455 54.5336 31.8865 53.981C30.8076 53.367 29.7289 52.753 28.5301 52.753C27.3314 52.753 26.2524 53.367 25.1737 53.981C24.2747 54.4722 23.3157 55.0247 22.6565 54.902C21.9972 54.7177 21.338 53.7967 20.7386 52.9373C20.0195 51.9549 19.3001 50.911 18.2813 50.4199C17.5621 50.0516 16.7828 49.9902 15.9437 49.9902C15.5242 49.9902 15.1644 49.9902 14.7449 50.0516C13.666 50.1129 12.5873 50.1743 12.0478 49.7446C11.5083 49.3148 11.3287 48.2096 11.1488 47.1043C10.909 45.8763 10.7293 44.6483 10.0099 43.7273C9.29077 42.8063 8.15192 42.315 7.01308 41.8239C5.99425 41.3942 4.97518 40.9643 4.73538 40.3503C4.4357 39.7363 4.73538 38.6926 5.03507 37.6486C5.33475 36.4206 5.69432 35.1926 5.45454 34.026C5.21477 32.8593 4.37558 31.9383 3.59656 31.0173C2.87722 30.1577 2.15803 29.298 2.15803 28.5613C2.15803 27.8246 2.87717 26.965 3.59656 26.1667C4.37583 25.2457 5.21475 24.3247 5.45454 23.158C5.69433 21.9913 5.39465 20.7633 5.03507 19.5353C4.73538 18.4917 4.4357 17.3863 4.73538 16.8337C5.03507 16.2197 6.05389 15.79 7.01308 15.36C8.09203 14.8688 9.29077 14.3777 10.0099 13.4567C10.729 12.5357 10.9688 11.2464 11.1488 10.0797C11.3286 8.9744 11.5083 7.86935 12.0478 7.4394C12.5274 7.00968 13.666 7.07104 14.7449 7.1324C15.9437 7.19376 17.2023 7.25511 18.2813 6.70268C19.3001 6.2114 20.0195 5.16768 20.7386 4.18533C21.3979 3.26433 21.9972 2.34333 22.6565 2.22063C23.2559 2.09791 24.2148 2.58899 25.1737 3.14163C26.2527 3.75563 27.3314 4.36963 28.5301 4.36963C29.7289 4.36963 30.8078 3.75563 31.8865 3.14163C32.7856 2.65035 33.7445 2.09793 34.4038 2.22063C35.063 2.34335 35.7223 3.32593 36.3216 4.18533C37.0408 5.16768 37.7602 6.21163 38.779 6.70268C39.8579 7.19396 41.0567 7.1324 42.3153 7.1324C43.3943 7.07104 44.473 7.00968 45.0124 7.4394C45.5519 7.86911 45.7316 8.9744 45.9115 10.0797C46.1513 11.3077 46.331 12.5357 47.0503 13.4567C47.7695 14.3777 48.9083 14.869 50.0472 15.36C51.066 15.7898 52.0851 16.2197 52.3249 16.8337C52.6245 17.4477 52.3249 18.4914 52.0252 19.5353C51.7255 20.7633 51.3659 21.9913 51.6057 23.158C51.8455 24.3247 52.6847 25.2457 53.4637 26.1667C54.1828 27.0263 54.9022 27.886 54.9022 28.5613C54.9022 29.298 54.1831 30.1576 53.4637 30.9559Z" fill="#395979"/>
<path d="M34.008 33.968C34.136 33.968 34.264 33.9947 34.392 34.048C34.52 34.0907 34.6427 34.1707 34.76 34.288L36.904 36.544C35.9653 37.7707 34.7867 38.6987 33.368 39.328C31.96 39.9467 30.2907 40.256 28.36 40.256C26.5893 40.256 25 39.9573 23.592 39.36C22.1947 38.752 21.0053 37.92 20.024 36.864C19.0533 35.7973 18.3067 34.5387 17.784 33.088C17.2613 31.6267 17 30.0427 17 28.336C17 26.5973 17.2987 25.0027 17.896 23.552C18.4933 22.0907 19.3253 20.832 20.392 19.776C21.4693 18.72 22.7547 17.8987 24.248 17.312C25.7413 16.7253 27.3893 16.432 29.192 16.432C30.0667 16.432 30.888 16.512 31.656 16.672C32.4347 16.8213 33.16 17.0347 33.832 17.312C34.504 17.5787 35.1227 17.904 35.688 18.288C36.2533 18.6613 36.7547 19.0773 37.192 19.536L35.368 21.984C35.2507 22.1333 35.112 22.272 34.952 22.4C34.792 22.5173 34.568 22.576 34.28 22.576C34.088 22.576 33.9067 22.5333 33.736 22.448C33.5653 22.3627 33.384 22.2613 33.192 22.144C33 22.016 32.7867 21.8827 32.552 21.744C32.328 21.5947 32.056 21.4613 31.736 21.344C31.4267 21.216 31.0587 21.1093 30.632 21.024C30.216 20.9387 29.7253 20.896 29.16 20.896C28.1787 20.896 27.2827 21.072 26.472 21.424C25.6613 21.7653 24.9627 22.2613 24.376 22.912C23.8 23.552 23.3467 24.3307 23.016 25.248C22.696 26.1653 22.536 27.1947 22.536 28.336C22.536 29.5307 22.696 30.592 23.016 31.52C23.3467 32.448 23.7893 33.232 24.344 33.872C24.9093 34.5013 25.5653 34.9813 26.312 35.312C27.0587 35.6427 27.8587 35.808 28.712 35.808C29.2027 35.808 29.6507 35.7867 30.056 35.744C30.4613 35.6907 30.8347 35.6053 31.176 35.488C31.528 35.3707 31.8587 35.2213 32.168 35.04C32.488 34.848 32.808 34.6133 33.128 34.336C33.256 34.2293 33.3947 34.144 33.544 34.08C33.6933 34.0053 33.848 33.968 34.008 33.968Z" fill="white"/>
</svg>
