<svg width="117" height="67" viewBox="0 0 117 67" fill="none" xmlns="http://www.w3.org/2000/svg">
<path fill-rule="evenodd" clip-rule="evenodd" d="M67.6551 21.1654H78.1441V31.888H83.4473C85.8969 31.888 88.4157 31.4517 90.735 30.6659C91.8749 30.2792 93.1538 29.7416 94.2781 29.065C92.7974 27.132 92.0414 24.6911 91.8194 22.2852C91.5166 19.0122 92.1772 14.7526 94.3919 12.1911L95.4946 10.9159L96.8084 11.9723C100.116 14.6296 102.898 18.3434 103.389 22.5769C107.372 21.4054 112.048 21.6824 115.559 23.7086L116.999 24.5398L116.242 26.0196C113.272 31.8141 107.064 33.6095 100.996 33.2916C91.9143 55.9105 72.1432 66.6189 48.171 66.6189C35.7857 66.6189 24.4232 61.989 17.9526 51.0009L17.8466 50.822L16.9039 48.9036C14.7168 44.0669 13.9902 38.7683 14.4828 33.4738L14.631 31.888H23.6007V21.1654H34.0893V10.6764H55.0678V0.187378H67.6551V21.1654Z" fill="#223549"/>
<path fill-rule="evenodd" clip-rule="evenodd" d="M101.637 25.1325C102.34 19.6664 98.2499 15.3733 95.7132 13.3347C92.7897 16.7145 92.3356 25.5724 96.9219 29.3018C94.3622 31.5752 88.9691 33.6357 83.4466 33.6357H16.2238C15.6871 39.4004 16.6991 44.7092 19.0105 49.2528L19.7752 50.6518C20.2594 51.473 20.7885 52.2669 21.3601 53.0298C24.1239 53.2074 26.672 53.2684 29.0032 53.217H29.0042C33.5854 53.1161 37.3235 52.5748 40.1565 51.5931C40.3568 51.5308 40.5734 51.5489 40.7607 51.6435C40.9479 51.738 41.091 51.9017 41.1597 52.0999C41.2284 52.2981 41.2173 52.5152 41.1288 52.7054C41.0403 52.8955 40.8813 53.0438 40.6854 53.1188C40.3083 53.25 39.9157 53.372 39.5102 53.4881H39.5088C37.278 54.1253 34.8858 54.5537 31.7996 54.7441C31.9831 54.7473 31.6088 54.7716 31.6078 54.7716C31.5028 54.7785 31.3707 54.7936 31.2652 54.7991C30.0505 54.8675 28.7395 54.8817 27.3991 54.8817C25.933 54.8817 24.4895 54.8542 22.8752 54.7716L22.834 54.7991C28.4349 61.0945 37.1927 64.8703 48.1708 64.8703C71.4039 64.8703 91.1104 54.5711 99.837 31.4495C106.028 32.0848 111.978 30.5059 114.684 25.2224C110.373 22.7348 104.829 23.5279 101.637 25.1325Z" fill="#617A94"/>
<path fill-rule="evenodd" clip-rule="evenodd" d="M101.638 25.1325C102.342 19.6664 98.2512 15.3733 95.7145 13.3347C92.7911 16.7145 92.3369 25.5724 96.9232 29.3018C94.3636 31.5752 88.9704 33.6357 83.4479 33.6357H20.2059C19.9316 42.4642 23.2077 49.1656 29.0041 53.217H29.0055C33.5867 53.1161 37.3248 52.5748 40.1578 51.5931C40.3581 51.5308 40.5748 51.5489 40.762 51.6435C40.9492 51.738 41.0923 51.9017 41.161 52.0999C41.2297 52.2981 41.2186 52.5152 41.1301 52.7054C41.0416 52.8955 40.8826 53.0438 40.6867 53.1188C40.3097 53.25 39.917 53.372 39.5115 53.4881H39.5101C37.2794 54.1253 34.6816 54.6087 31.5954 54.7991C31.5945 54.7991 31.5206 54.728 31.5197 54.728C39.4266 58.784 50.8913 58.7693 64.0359 53.7202C78.7745 48.0578 92.4897 37.2706 102.059 24.9325C101.915 24.9976 101.775 25.0641 101.638 25.1325Z" fill="#889BAF"/>
<path fill-rule="evenodd" clip-rule="evenodd" d="M16.3516 40.6399C16.769 43.728 17.6727 46.6193 19.0121 49.2528L19.7768 50.6519C20.2609 51.4731 20.79 52.267 21.3617 53.0299C24.1259 53.2074 26.6741 53.2684 29.0057 53.217C33.587 53.1161 37.325 52.5748 40.1581 51.5932C40.3584 51.5309 40.575 51.5489 40.7622 51.6435C40.9495 51.738 41.0926 51.9017 41.1613 52.0999C41.23 52.2981 41.2189 52.5152 41.1304 52.7054C41.0419 52.8955 40.8829 53.0438 40.687 53.1188C40.3099 53.25 39.9173 53.3721 39.5118 53.4881H39.5104C37.2796 54.1253 34.6957 54.5812 31.6094 54.7721C31.5035 54.7785 31.3186 54.7799 31.2117 54.7858C29.998 54.8537 28.7002 54.8955 27.3594 54.8955C25.8938 54.8955 24.3947 54.8675 22.7814 54.7854C28.3823 61.0808 37.1943 64.8703 48.1723 64.8703C68.0623 64.8703 85.367 57.3207 95.4106 40.6399H16.3516Z" fill="#223549"/>
<path fill-rule="evenodd" clip-rule="evenodd" d="M20.811 40.6399C22 46.0619 24.8574 50.3184 29.0056 53.217C33.5868 53.1161 37.3249 52.5748 40.1579 51.5932C40.3582 51.5309 40.5749 51.5489 40.7621 51.6435C40.9493 51.738 41.0924 51.9017 41.1611 52.0999C41.2298 52.2981 41.2187 52.5152 41.1302 52.7054C41.0417 52.8955 40.8827 53.0438 40.6868 53.1188C40.3097 53.25 39.9171 53.3721 39.5116 53.4881H39.5102C37.2795 54.1253 34.6409 54.5812 31.5542 54.7721C39.4607 58.8271 50.8924 58.7689 64.036 53.7202C71.9874 50.6652 79.6402 46.1174 86.5058 40.6399H20.811Z" fill="#395979"/>
<path fill-rule="evenodd" clip-rule="evenodd" d="M25.3491 22.9136H34.44V32.0045H25.3491V22.9136ZM26.1065 23.6714H26.8239V31.2471H26.1065V23.6714ZM27.4551 23.6714H28.2014V31.2471H27.4556V23.6714H27.4551ZM28.8322 23.6714H29.5785V31.2471H28.8322V23.6714ZM30.2102 23.6714H30.956V31.2471H30.2102V23.6714ZM31.5877 23.6714H32.3336V31.2471H31.5877V23.6714ZM32.9647 23.6714H33.6826V31.2471H32.9647V23.6714ZM35.8382 12.4246H44.9295V21.515H35.8377V12.4246H35.8382ZM36.596 13.1824H37.3129V20.7576H36.596V13.1824ZM37.9446 13.1824H38.6905V20.7576H37.945V13.1824H37.9446ZM39.3217 13.1824H40.0675V20.7576H39.3217V13.1824ZM40.6992 13.1824H41.4451V20.7576H40.6992V13.1824ZM42.0767 13.1824H42.823V20.7576H42.0767V13.1824ZM43.4538 13.1824H44.1721V20.7576H43.4538V13.1824Z" fill="#2E4761"/>
<path fill-rule="evenodd" clip-rule="evenodd" d="M35.8379 22.9136H44.9292V32.0044H35.8374V22.9136H35.8379ZM36.5957 23.6714H37.3126V31.2471H36.5957V23.6714ZM37.9443 23.6714H38.6902V31.2471H37.9448V23.6714H37.9443ZM39.3214 23.6714H40.0672V31.2471H39.3214V23.6714ZM40.6989 23.6714H41.4448V31.2471H40.6989V23.6714ZM42.0764 23.6714H42.8228V31.2471H42.0764V23.6714ZM43.4535 23.6714H44.1718V31.2471H43.4535V23.6714Z" fill="#395979"/>
<path fill-rule="evenodd" clip-rule="evenodd" d="M46.3271 22.9136H55.418V32.0044H46.3271V22.9136ZM47.0845 23.6714H47.8015V31.2471H47.0845V23.6714ZM48.4331 23.6714H49.179V31.2471H48.4331V23.6714ZM49.8107 23.6714H50.5565V31.2471H49.8107V23.6714ZM51.1882 23.6714H51.9341V31.2471H51.1882V23.6714ZM52.5653 23.6714H53.312V31.2471H52.5653V23.6714ZM53.9428 23.6714H54.6602V31.2471H53.9428V23.6714Z" fill="#2E4761"/>
<path fill-rule="evenodd" clip-rule="evenodd" d="M46.3271 12.4246H55.418V21.515H46.3271V12.4246ZM47.0845 13.1824H47.8015V20.7576H47.0845V13.1824ZM48.4331 13.1824H49.179V20.7576H48.4331V13.1824ZM49.8106 13.1824H50.5565V20.7576H49.8106V13.1824ZM51.1882 13.1824H51.9341V20.7576H51.1882V13.1824ZM52.5653 13.1824H53.312V20.7576H52.5653V13.1824ZM53.9428 13.1824H54.6602V20.7576H53.9428V13.1824ZM56.8162 22.9136H65.907V32.0045H56.8162V22.9136ZM57.574 23.6714H58.291V31.2471H57.574V23.6714ZM58.9226 23.6714H59.6685V31.2471H58.9226V23.6714ZM60.2997 23.6714H61.0456V31.2471H60.2997V23.6714ZM61.6772 23.6714H62.4235V31.2471H61.6772V23.6714ZM63.0547 23.6714H63.8011V31.2471H63.0547V23.6714ZM64.4323 23.6714H65.1497V31.2471H64.4323V23.6714Z" fill="#395979"/>
<path fill-rule="evenodd" clip-rule="evenodd" d="M56.8159 12.4246H65.9068V21.515H56.8159V12.4246ZM57.5737 13.1824H58.2907V20.7576H57.5737V13.1824ZM58.9224 13.1824H59.6682V20.7576H58.9224V13.1824ZM60.2994 13.1824H61.0453V20.7576H60.2994V13.1824ZM61.6769 13.1824H62.4233V20.7576H61.6769V13.1824ZM63.0545 13.1824H63.8008V20.7576H63.0545V13.1824ZM64.432 13.1824H65.1494V20.7576H64.432V13.1824Z" fill="#2E4761"/>
<path fill-rule="evenodd" clip-rule="evenodd" d="M56.8159 1.93506H65.9068V11.0268H56.8159V1.93506ZM57.5737 2.6924H58.2907V10.2686H57.5737V2.69194V2.6924ZM58.9224 2.6924H59.6682V10.2686H58.9224V2.69194V2.6924ZM60.2994 2.6924H61.0453V10.2686H60.2994V2.69194V2.6924ZM61.6769 2.6924H62.4233V10.2686H61.6769V2.69194V2.6924ZM63.0545 2.6924H63.8008V10.2686H63.0545V2.69194V2.6924ZM64.432 2.6924H65.1494V10.2686H64.432V2.69194V2.6924Z" fill="#395979"/>
<path fill-rule="evenodd" clip-rule="evenodd" d="M67.3052 22.9136H76.396V32.0044H67.3052V22.9136ZM68.0621 23.6714H68.78V31.2471H68.0625V23.6714H68.0621ZM69.4107 23.6714H70.157V31.2471H69.4111V23.6714H69.4107ZM70.7887 23.6714H71.535V31.2471H70.7887V23.6714ZM72.1657 23.6714H72.9121V31.2471H72.1657V23.6714ZM73.5437 23.6714H74.2896V31.2471H73.5437V23.6714ZM74.9208 23.6714H75.6382V31.2471H74.9208V23.6714Z" fill="#2E4761"/>
<path fill-rule="evenodd" clip-rule="evenodd" d="M44.3601 46.7435C44.6923 46.7391 45.0221 46.8007 45.3303 46.9248C45.6385 47.0489 45.919 47.2329 46.1554 47.4663C46.3919 47.6997 46.5797 47.9777 46.7078 48.2843C46.8359 48.5908 46.9018 48.9198 46.9018 49.252C46.9017 49.5843 46.8357 49.9132 46.7074 50.2197C46.5792 50.5262 46.3913 50.8041 46.1548 51.0374C45.9182 51.2707 45.6377 51.4547 45.3294 51.5787C45.0212 51.7026 44.6914 51.7641 44.3591 51.7596C43.6999 51.7506 43.0706 51.4823 42.6076 51.0128C42.1446 50.5433 41.8851 49.9105 41.8853 49.2511C41.8854 48.5917 42.1451 47.9589 42.6083 47.4896C43.0714 47.0204 43.7008 46.7523 44.3601 46.7435Z" fill="#B0BDC9"/>
<path fill-rule="evenodd" clip-rule="evenodd" d="M44.3598 47.4549C44.5892 47.4549 44.808 47.4981 45.0098 47.5765C44.8705 47.6574 44.7618 47.7818 44.7003 47.9307C44.6388 48.0795 44.6281 48.2445 44.6698 48.4001C44.7114 48.5556 44.8032 48.6932 44.9308 48.7914C45.0584 48.8896 45.2148 48.9431 45.3759 48.9435C45.6534 48.9435 45.8942 48.7898 46.019 48.5623C46.1667 48.9182 46.1961 49.3121 46.1027 49.6859C46.0094 50.0598 45.7982 50.3937 45.5006 50.6383C45.2029 50.8829 44.8344 51.0254 44.4495 51.0445C44.0647 51.0636 43.6839 50.9585 43.3634 50.7446C43.0429 50.5307 42.7997 50.2194 42.6697 49.8566C42.5398 49.4939 42.5299 49.099 42.6416 48.7302C42.7533 48.3615 42.9806 48.0384 43.29 47.8087C43.5994 47.5791 43.9745 47.4551 44.3598 47.4549ZM0 41.5462H116.664C114.124 40.9022 108.628 40.0315 109.534 36.7021C104.915 42.0471 93.7756 40.4522 90.9641 37.8168C87.8339 42.3572 69.609 40.6311 68.3379 37.0939C64.4131 41.6999 52.2521 41.6999 48.3273 37.0939C47.0552 40.6311 28.8309 42.3572 25.7001 37.8164C22.8891 40.4522 11.7505 42.0471 7.13122 36.7026C8.03765 40.0315 2.54084 40.9022 0 41.5467" fill="#172430"/>
<path fill-rule="evenodd" clip-rule="evenodd" d="M51.0254 64.8161C44.8144 61.8688 41.4057 57.8619 39.5089 53.4885C37.2015 54.1468 34.4286 54.5679 31.2061 54.7486C29.9923 54.8165 28.7152 54.8514 27.3758 54.8514C25.8308 54.8514 24.2028 54.8055 22.4937 54.7151C28.1895 60.4078 35.1965 64.7904 48.1708 64.8702C49.1286 64.8702 50.0791 64.8519 51.0254 64.8161Z" fill="#889BAF"/>
<path fill-rule="evenodd" clip-rule="evenodd" d="M41.8167 57.5243C40.9575 56.3577 40.124 54.8917 39.5112 53.4875C37.2038 54.1467 34.43 54.5678 31.207 54.749C33.4208 55.9504 36.5864 57.0637 41.8172 57.5243" fill="#B0BDC9"/>
</svg>
