<svg width="162" height="84" viewBox="0 0 162 84" fill="none" xmlns="http://www.w3.org/2000/svg">
<g clip-path="url(#clip0_3573_26387)">
<path d="M112.081 74.0114L110.195 76.9851L111.294 73.1138C108.974 70.6865 105.763 68.9109 105.763 68.9109C105.763 68.9109 101.81 75.428 102.874 79.437C103.938 83.4459 106.686 84.2112 109.617 83.4285C112.548 82.6458 114.553 80.6116 113.489 76.6027C113.252 75.7104 112.737 74.8344 112.081 74.0114Z" fill="#F2F2F2"/>
<path d="M109.586 77.2816L109.638 77.4792C110.236 79.7792 110.325 81.6745 109.903 83.1388C109.897 83.1603 109.89 83.181 109.884 83.2024L109.785 83.1732L109.691 83.144C110.17 81.5568 109.956 79.5512 109.435 77.5449C109.419 77.48 109.402 77.4143 109.384 77.349C109.156 76.5016 108.877 75.6575 108.572 74.8462C108.549 74.7831 108.525 74.7194 108.501 74.6557C108.094 73.5869 107.649 72.5805 107.237 71.7131C107.209 71.6517 107.179 71.5905 107.149 71.5303C106.446 70.065 105.85 69.0268 105.716 68.7976C105.7 68.7693 105.69 68.754 105.688 68.7504L105.774 68.6992L105.775 68.698L105.861 68.6465C105.863 68.6502 105.895 68.7015 105.95 68.7979C106.157 69.1575 106.707 70.1367 107.342 71.4527C107.37 71.5122 107.4 71.5734 107.429 71.6348C107.764 72.3384 108.119 73.1298 108.457 73.9698C108.542 74.1807 108.624 74.3894 108.701 74.5959C108.727 74.6594 108.751 74.7231 108.774 74.7861C109.103 75.6631 109.373 76.4949 109.586 77.2816Z" fill="white"/>
<path d="M107.342 71.4527C107.279 71.479 107.215 71.5055 107.149 71.5303C106.972 71.598 106.79 71.6565 106.607 71.7056C105.824 71.9157 105.004 71.947 104.208 71.7972C104.181 71.86 104.153 71.9227 104.125 71.9868C104.965 72.1522 105.832 72.1229 106.659 71.9012C106.855 71.8488 107.048 71.786 107.238 71.7131C107.302 71.6886 107.366 71.6621 107.429 71.6348C107.948 71.4132 108.43 71.1138 108.859 70.7469C108.803 70.7043 108.748 70.6624 108.694 70.6213C108.287 70.9637 107.831 71.2439 107.342 71.4527Z" fill="white"/>
<path d="M108.702 74.596C108.635 74.6178 108.569 74.6378 108.501 74.6557C108.481 74.6622 108.46 74.6679 108.439 74.6734C107.591 74.8999 106.7 74.9174 105.844 74.7242C104.987 74.531 104.19 74.1329 103.52 73.5639C103.496 73.632 103.472 73.7002 103.45 73.769C104.142 74.3408 104.961 74.7389 105.838 74.9302C106.714 75.1215 107.624 75.1005 108.491 74.869C108.518 74.8618 108.546 74.8545 108.573 74.8462C108.641 74.827 108.707 74.807 108.774 74.7861C109.801 74.4546 110.711 73.8333 111.396 72.9966C111.349 72.9472 111.303 72.8978 111.255 72.8487C110.592 73.6679 109.704 74.2752 108.702 74.596Z" fill="white"/>
<path d="M109.586 77.2815C109.519 77.3056 109.452 77.3278 109.384 77.349C109.312 77.3714 109.239 77.3929 109.166 77.4124C108.026 77.7155 106.818 77.64 105.724 77.1971C104.63 76.7542 103.708 75.9679 103.097 74.9557C103.074 75.0467 103.051 75.1367 103.03 75.2271C103.681 76.2259 104.63 76.9935 105.74 77.4209C106.851 77.8484 108.068 77.9139 109.218 77.6081C109.291 77.5886 109.364 77.5681 109.435 77.5449C109.504 77.5244 109.571 77.5023 109.638 77.4792C110.988 77.0027 112.108 76.0294 112.77 74.7563C112.73 74.6894 112.687 74.6242 112.645 74.5581C112.017 75.8304 110.92 76.8072 109.586 77.2815Z" fill="white"/>
<path d="M102.364 6.28963L100.478 9.26341L101.577 5.39209C99.2574 2.9648 96.0465 1.18915 96.0465 1.18915C96.0465 1.18915 92.0928 7.7063 93.1569 11.7152C94.2211 15.7242 96.9688 16.4894 99.9001 15.7068C102.831 14.9241 104.836 12.8898 103.772 8.88092C103.535 7.98862 103.02 7.11261 102.364 6.28963Z" fill="#F2F2F2"/>
<path d="M99.8692 9.55982L99.9217 9.75742C100.52 12.0575 100.609 13.9528 100.186 15.4171C100.18 15.4385 100.173 15.4592 100.168 15.4807L100.069 15.4515L99.9746 15.4223C100.454 13.8351 100.24 11.8295 99.7188 9.82314C99.7026 9.75831 99.6862 9.69251 99.6678 9.62723C99.4397 8.77986 99.1603 7.93575 98.8562 7.12441C98.8332 7.06141 98.809 6.99769 98.7847 6.93397C98.3778 5.86515 97.9331 4.85878 97.5211 3.99139C97.4923 3.92995 97.4624 3.86877 97.4329 3.80857C96.7295 2.34329 96.1333 1.30511 95.9993 1.07584C95.9835 1.04759 95.9742 1.03227 95.9722 1.02862L96.0578 0.977463L96.0585 0.976223L96.1452 0.924805C96.1472 0.92846 96.1786 0.979796 96.2334 1.0762C96.4406 1.43571 96.9909 2.41493 97.6254 3.73099C97.6537 3.79047 97.6835 3.85165 97.7123 3.91309C98.0474 4.61664 98.4027 5.40804 98.7406 6.24807C98.8258 6.45894 98.9073 6.66764 98.9851 6.87419C99.0103 6.93764 99.0345 7.00137 99.0575 7.06437C99.3864 7.94138 99.657 8.7732 99.8692 9.55982Z" fill="white"/>
<path d="M97.625 3.73099C97.562 3.75726 97.498 3.78377 97.4325 3.80858C97.2548 3.87625 97.0737 3.93474 96.8899 3.98383C96.1072 4.19395 95.2874 4.22525 94.491 4.07544C94.4638 4.13822 94.4366 4.20101 94.4087 4.26503C95.2486 4.43045 96.115 4.40119 96.9419 4.17948C97.138 4.12705 97.3312 4.06427 97.5207 3.99139C97.5852 3.96683 97.6492 3.94032 97.712 3.91309C98.2308 3.69145 98.7131 3.39208 99.1423 3.0252C99.086 2.98259 99.0311 2.94071 98.9773 2.89954C98.5698 3.24196 98.1141 3.52214 97.625 3.73099Z" fill="white"/>
<path d="M98.9848 6.87416C98.9185 6.89605 98.8518 6.91597 98.7845 6.93395C98.7642 6.94039 98.7428 6.94612 98.7223 6.95159C97.8739 7.17815 96.9834 7.19558 96.1268 7.00239C95.2702 6.8092 94.4728 6.41113 93.8027 5.84211C93.7791 5.91024 93.7554 5.97838 93.7329 6.04723C94.4257 6.61904 95.2443 7.01707 96.121 7.20837C96.9977 7.39966 97.9072 7.37871 98.7742 7.14724C98.8015 7.13995 98.8289 7.13266 98.8559 7.12438C98.9239 7.10518 98.9907 7.08525 99.0572 7.06435C100.084 6.73277 100.995 6.11149 101.679 5.27477C101.633 5.2254 101.586 5.17601 101.539 5.12689C100.875 5.94613 99.9874 6.55337 98.9848 6.87416Z" fill="white"/>
<path d="M99.8688 9.55981C99.8021 9.58391 99.7349 9.60605 99.6674 9.62722C99.595 9.64969 99.5224 9.67118 99.4492 9.69071C98.3088 9.99381 97.1012 9.91826 96.0071 9.47539C94.9131 9.03251 93.9915 8.24613 93.3804 7.23398C93.3575 7.32494 93.3344 7.41492 93.3135 7.50536C93.9645 8.50414 94.9127 9.27177 96.0235 9.6992C97.1343 10.1266 98.3511 10.1921 99.5012 9.88636C99.5743 9.86683 99.6472 9.84632 99.7184 9.82313C99.7871 9.80268 99.8543 9.78054 99.9213 9.75742C101.272 9.28098 102.391 8.30768 103.053 7.03458C103.013 6.96767 102.971 6.9025 102.928 6.83636C102.3 8.10862 101.203 9.08551 99.8688 9.55981Z" fill="white"/>
<path d="M50.5032 79.0031L46.9892 79.0191L50.8305 77.8535C51.613 74.5844 51.3669 70.9152 51.3669 70.9152C51.3669 70.9152 43.7629 71.1016 40.9752 74.1664C38.1875 77.2312 39.0307 79.9635 41.2717 82.0139C43.5126 84.0643 46.3025 84.6563 49.0903 81.5915C49.7108 80.9093 50.1675 80.0017 50.5032 79.0031Z" fill="#F2F2F2"/>
<path d="M46.4111 78.6651L46.2737 78.8162C44.6675 80.564 43.126 81.6639 41.6691 82.0985C41.6479 82.1052 41.6268 82.1105 41.6056 82.1172L41.5768 82.0182L41.5503 81.9227C43.1407 81.469 44.7075 80.2046 46.1089 78.6804C46.1545 78.6318 46.2008 78.5823 46.2457 78.5316C46.8332 77.8811 47.3903 77.1891 47.9065 76.4939C47.9469 76.4404 47.9873 76.3855 48.0276 76.3307C48.7042 75.4096 49.3081 74.4904 49.813 73.6739C49.849 73.6163 49.8842 73.5581 49.9187 73.5006C50.7677 72.1151 51.3163 71.0509 51.4362 70.8139C51.4513 70.7852 51.4592 70.7691 51.4611 70.7654L51.5503 70.8101L51.5518 70.81L51.6417 70.8553C51.6397 70.859 51.6136 70.9132 51.5624 71.0116C51.3728 71.3807 50.8488 72.3744 50.0878 73.6211C50.0532 73.6772 50.018 73.7354 49.9821 73.7929C49.573 74.456 49.1011 75.1835 48.5791 75.9226C48.4483 76.1085 48.3173 76.2901 48.1861 76.4674C48.1464 76.523 48.1061 76.5779 48.0657 76.6313C47.5077 77.3829 46.9562 78.0608 46.4111 78.6651Z" fill="white"/>
<path d="M50.0878 73.6211C50.0317 73.5821 49.9749 73.5425 49.9187 73.5006C49.7658 73.3872 49.6189 73.266 49.4784 73.1375C48.8791 72.5906 48.4097 71.9158 48.1049 71.1628C48.0375 71.1738 47.9702 71.1848 47.9014 71.1958C48.2166 71.9939 48.7094 72.7092 49.3423 73.2871C49.4923 73.4243 49.6494 73.5534 49.813 73.6739C49.8685 73.7151 49.9253 73.7547 49.9821 73.7929C50.4484 74.111 50.9602 74.3561 51.5 74.5199C51.5053 74.4495 51.5107 74.3804 51.5162 74.3128C51.0087 74.1541 50.5274 73.921 50.0878 73.6211Z" fill="white"/>
<path d="M48.186 76.4674C48.1318 76.4233 48.079 76.3778 48.0275 76.3307C48.0112 76.3171 47.9948 76.3021 47.9791 76.2878C47.3305 75.6943 46.8345 74.9523 46.5336 74.1251C46.2326 73.2978 46.1356 72.4099 46.2507 71.5369C46.1808 71.5537 46.1108 71.5705 46.0409 71.5888C45.9357 72.4824 46.0443 73.3884 46.3577 74.2315C46.6711 75.0747 47.1803 75.8309 47.8431 76.4373C47.8639 76.4564 47.8848 76.4756 47.9064 76.4939C47.9593 76.5409 48.0121 76.5865 48.0656 76.6313C48.8989 77.3189 49.9121 77.7512 50.9839 77.8765C51.0002 77.8105 51.0165 77.7445 51.032 77.6779C49.9861 77.5608 48.997 77.1401 48.186 76.4674Z" fill="white"/>
<path d="M46.4112 78.6651C46.3549 78.6218 46.3 78.5771 46.2458 78.5316C46.1878 78.4826 46.1305 78.433 46.0746 78.3818C45.2039 77.5833 44.6146 76.5234 44.3947 75.3609C44.1749 74.1983 44.3364 72.9956 44.8551 71.9329C44.7665 71.9627 44.6785 71.9919 44.5913 72.0231C44.1054 73.1123 43.974 74.3273 44.2158 75.4957C44.4577 76.664 45.0605 77.7262 45.9386 78.5314C45.9945 78.5825 46.0511 78.633 46.109 78.6805C46.1633 78.7274 46.2182 78.7722 46.2738 78.8162C47.4033 79.6981 48.8248 80.1166 50.2505 79.9868C50.2851 79.9172 50.3169 79.8462 50.3493 79.7745C48.9427 79.9324 47.5301 79.5344 46.4112 78.6651Z" fill="white"/>
<path d="M38.8372 81.7684L40.8563 81.7683L41.8168 73.9575L38.8369 73.9576L38.8372 81.7684Z" fill="#FFB6B6"/>
<path d="M38.3218 81.1072L42.298 81.1071H42.2982C42.9702 81.1071 43.6147 81.3749 44.0899 81.8515C44.5651 82.3281 44.8321 82.9745 44.8322 83.6485V83.7311L38.3219 83.7313L38.3218 81.1072Z" fill="#2F2E41"/>
<path d="M22.8621 81.7684L24.8812 81.7683L25.8417 73.9575L22.8618 73.9576L22.8621 81.7684Z" fill="#FFB6B6"/>
<path d="M22.3472 81.1072L26.3234 81.1071H26.3236C26.9956 81.1071 27.6401 81.3749 28.1153 81.8515C28.5905 82.3281 28.8575 82.9745 28.8575 83.6485V83.7311L22.3473 83.7313L22.3472 81.1072Z" fill="#2F2E41"/>
<path d="M26.2864 49.6844L24.9256 50.9406L23.3918 66.1162L22.3594 78.1999L25.4794 78.622L33.0472 57.9752L38.5845 78.524L42.3176 78.622L39.8399 51.7987L26.2864 49.6844Z" fill="#2F2E41"/>
<path d="M32.8625 27.2448C35.0032 27.2448 36.7386 25.5042 36.7386 23.3571C36.7386 21.2101 35.0032 19.4695 32.8625 19.4695C30.7217 19.4695 28.9863 21.2101 28.9863 23.3571C28.9863 25.5042 30.7217 27.2448 32.8625 27.2448Z" fill="#FFB9B9"/>
<path d="M30.8788 21.552C30.8788 21.552 30.4167 22.555 32.2652 22.1538C32.2652 22.1538 32.9584 22.555 32.9584 21.9532C32.9584 21.9532 33.8826 22.9562 34.1137 22.3544C34.3447 21.7526 34.8068 22.555 34.8068 22.555L35.2689 21.552L35.7311 22.1538H37.3485C37.3485 22.1538 37.8106 18.1417 32.2652 18.5429C26.7198 18.9441 29.4478 25.3009 29.4478 25.3009C29.4478 25.3009 29.4925 24.1599 29.9546 24.7617C30.4167 25.3635 30.8788 21.552 30.8788 21.552Z" fill="#2F2E41"/>
<path d="M35.8161 28.5135L30.3503 28.1703L25.4795 29.4662L26.2178 42.0547L24.9258 50.9406C24.9258 50.9406 32.0147 55.2868 40.0612 51.8662L39.297 49.8497C39.297 49.8497 39.2707 46.7634 38.6251 46.1593C37.9794 45.5551 38.0309 40.5737 38.0309 40.5737L40.4304 31.3175L35.8161 28.5135Z" fill="#3F3D56"/>
<path d="M26.7805 29.8635L25.4794 29.4662C25.4794 29.4662 23.453 29.5341 22.3994 31.8461C21.3458 34.1581 20.687 37.4616 20.687 37.4616L27.3789 37.7043L26.7805 29.8635Z" fill="#3F3D56"/>
<path d="M42.3133 51.9318L42.0967 38.2874L39.2056 38.7224L39.8441 51.6496C39.5813 51.866 39.3878 52.1552 39.2879 52.4812C39.188 52.8072 39.186 53.1555 39.2822 53.4826C39.3785 53.8097 39.5687 54.1012 39.829 54.3205C40.0894 54.5399 40.4084 54.6775 40.7463 54.7161C41.0842 54.7547 41.4259 54.6927 41.7288 54.5377C42.0317 54.3827 42.2824 54.1417 42.4496 53.8447C42.6167 53.5477 42.6929 53.2079 42.6687 52.8677C42.6445 52.5275 42.5209 52.202 42.3133 51.9318Z" fill="#FFB9B9"/>
<path d="M38.8028 32.5063L40.4303 31.3175C40.4303 31.3175 43.5576 33.7705 43.5682 39.1673L39.2055 40.2286L36.7388 36.6702L38.8028 32.5063Z" fill="#3F3D56"/>
<path d="M126.575 81.7607L128.594 81.7605L129.554 73.9497L126.574 73.9499L126.575 81.7607Z" fill="#9E616A"/>
<path d="M126.06 81.0994L130.036 81.0992C130.708 81.0993 131.353 81.367 131.828 81.8436C132.303 82.3202 132.57 82.9666 132.57 83.6407V83.7233L126.06 83.7235L126.06 81.0994Z" fill="#2F2E41"/>
<path d="M114.624 80.0385L116.549 80.6493L119.814 73.4928L116.973 72.5914L114.624 80.0385Z" fill="#9E616A"/>
<path d="M114.332 79.2524L118.123 80.4551C118.764 80.6585 119.298 81.1088 119.608 81.7069C119.917 82.3051 119.978 83.0021 119.775 83.6448L119.75 83.7235L113.543 81.7544L114.332 79.2524Z" fill="#2F2E41"/>
<path d="M119.17 46.0878L118.049 49.2571L118.018 66.3672L114.84 78.0818L118.741 79.1735L123.049 68.1277L124.431 58.4256L126.252 68.1841L126.001 79.7828H130.094L130.403 61.9091C130.489 56.8894 129.614 51.8997 127.823 47.2115L119.17 46.0878Z" fill="#2F2E41"/>
<path d="M117.836 33.2496H124.451L127.215 36.0217L128.04 47.4801L118.05 49.0923L114.841 38.1596L116.588 33.513L117.836 33.2496Z" fill="#6C63FF"/>
<path d="M115.457 38.2689L105.272 34.4258L105.007 32.8371L111.43 27.3864L113.568 28.9945L109.693 33.2496L116.588 33.513L115.457 38.2689Z" fill="#6C63FF"/>
<path d="M112.665 29.6158C113.575 29.6158 114.312 28.8762 114.312 27.964C114.312 27.0518 113.575 26.3123 112.665 26.3123C111.756 26.3123 111.019 27.0518 111.019 27.964C111.019 28.8762 111.756 29.6158 112.665 29.6158Z" fill="#9E616A"/>
<path d="M116.485 30.0448L117.229 26.6792C117.495 25.4841 118.222 24.4435 119.252 23.7861C120.282 23.1288 121.53 22.9085 122.722 23.1736C123.914 23.4386 124.952 24.1675 125.609 25.1999C126.265 26.2323 126.486 27.4839 126.223 28.6795L125.479 32.0451C125.443 32.2057 125.345 32.3455 125.207 32.4339C125.068 32.5223 124.901 32.552 124.741 32.5166L116.955 30.785C116.795 30.7492 116.656 30.6512 116.568 30.5124C116.48 30.3736 116.45 30.2055 116.485 30.0448Z" fill="#2F2E41"/>
<path d="M120.672 31.4473C122.537 31.4473 124.049 29.9309 124.049 28.0604C124.049 26.1899 122.537 24.6736 120.672 24.6736C118.807 24.6736 117.295 26.1899 117.295 28.0604C117.295 29.9309 118.807 31.4473 120.672 31.4473Z" fill="#9E616A"/>
<path d="M116.106 26.7119C116.316 25.7663 116.892 24.9429 117.706 24.4224C118.521 23.9019 119.508 23.7268 120.452 23.9355L121.123 24.0848C122.066 24.2956 122.887 24.8729 123.405 25.6901C123.924 26.5072 124.099 27.4974 123.891 28.4435L123.876 28.5108L122.458 28.1953L122.274 26.7291L121.877 28.0662L121.144 27.9032L121.052 27.1634L120.851 27.838L116.091 26.7792L116.106 26.7119Z" fill="#2F2E41"/>
<path d="M119.515 31.7516C119.469 31.6464 119.453 31.5301 119.469 31.4161C119.486 31.3021 119.534 31.1951 119.608 31.1074C120.619 29.9089 122.17 27.6234 121.19 25.7833L121.119 25.6511L124.956 26.5045L123.679 32.2826L120.057 32.1242C120.02 32.1226 119.983 32.1178 119.948 32.1098C119.852 32.0887 119.764 32.0452 119.688 31.9829C119.613 31.9206 119.554 31.8414 119.515 31.7516Z" fill="#2F2E41"/>
<path d="M161.804 83.9248H0.196012C0.144103 83.9247 0.0943724 83.9039 0.0577206 83.867C0.0210689 83.8302 0.000488281 83.7802 0.000488281 83.7282C0.000488281 83.6761 0.0210689 83.6262 0.0577206 83.5893C0.0943724 83.5524 0.144103 83.5316 0.196012 83.5315H161.804C161.856 83.5315 161.906 83.5522 161.942 83.5891C161.979 83.626 162 83.676 162 83.7282C162 83.7803 161.979 83.8303 161.942 83.8672C161.906 83.9041 161.856 83.9248 161.804 83.9248Z" fill="#CACACA"/>
<path d="M81.6788 35.235H29.4207C29.024 35.235 28.6312 35.3134 28.2647 35.4657C27.8982 35.6179 27.5652 35.8411 27.2847 36.1224C27.0042 36.4038 26.7817 36.7378 26.6298 37.1053C26.478 37.4729 26.3999 37.8669 26.3999 38.2648V50.8701C26.3999 51.268 26.478 51.6619 26.6298 52.0295C26.7817 52.3971 27.0042 52.7311 27.2847 53.0124C27.5652 53.2938 27.8982 53.5169 28.2647 53.6692C28.6312 53.8215 29.024 53.8998 29.4207 53.8998H30.1877V56.1772C30.1877 56.3154 30.2286 56.4505 30.3051 56.5654C30.3817 56.6803 30.4905 56.7698 30.6178 56.8227C30.7451 56.8756 30.8852 56.8894 31.0203 56.8625C31.1554 56.8355 31.2796 56.769 31.377 56.6712L34.1403 53.8998H81.6788C82.0755 53.8998 82.4683 53.8215 82.8348 53.6692C83.2013 53.5169 83.5343 53.2938 83.8149 53.0124C84.0954 52.7311 84.3179 52.3971 84.4697 52.0295C84.6215 51.6619 84.6996 51.268 84.6996 50.8701V38.2648C84.6996 37.8669 84.6215 37.4729 84.4697 37.1053C84.3179 36.7378 84.0954 36.4038 83.8148 36.1224C83.5343 35.8411 83.2013 35.6179 82.8348 35.4657C82.4683 35.3134 82.0755 35.235 81.6788 35.235Z" fill="#E6E6E6"/>
<path d="M69.1106 52.3306H29.4207C29.0346 52.3302 28.6644 52.1762 28.3914 51.9024C28.1184 51.6285 27.9648 51.2573 27.9644 50.87V38.2648C27.9648 37.8776 28.1184 37.5063 28.3914 37.2325C28.6644 36.9587 29.0345 36.8047 29.4206 36.8043H81.6787C82.0648 36.8047 82.435 36.9587 82.708 37.2325C82.981 37.5064 83.1346 37.8776 83.135 38.2649C83.1308 41.9941 81.6519 45.5693 79.0227 48.2062C76.3935 50.8432 72.8288 52.3264 69.1106 52.3306Z" fill="white"/>
<path d="M66.6389 39.5296H44.5706C44.0249 39.5296 43.5825 39.9733 43.5825 40.5207V40.5207C43.5825 41.068 44.0249 41.5117 44.5706 41.5117H66.6389C67.1846 41.5117 67.627 41.068 67.627 40.5207C67.627 39.9733 67.1846 39.5296 66.6389 39.5296Z" fill="#6C63FF"/>
<path d="M71.3323 43.4938H39.8768C39.3311 43.4938 38.8887 43.9375 38.8887 44.4849V44.4849C38.8887 45.0322 39.3311 45.4759 39.8768 45.4759H71.3323C71.878 45.4759 72.3204 45.0322 72.3204 44.4849C72.3204 43.9375 71.878 43.4938 71.3323 43.4938Z" fill="#E6E6E6"/>
<path d="M71.3323 47.458H39.8768C39.3311 47.458 38.8887 47.9017 38.8887 48.4491V48.4491C38.8887 48.9964 39.3311 49.4401 39.8768 49.4401H71.3323C71.878 49.4401 72.3204 48.9964 72.3204 48.4491C72.3204 47.9017 71.878 47.458 71.3323 47.458Z" fill="#E6E6E6"/>
<path d="M156.131 44.0119H118.34C118.053 44.0119 117.769 44.0686 117.504 44.1787C117.239 44.2888 116.998 44.4502 116.795 44.6536C116.592 44.8571 116.431 45.0986 116.322 45.3644C116.212 45.6303 116.155 45.9152 116.155 46.2029V55.3186C116.155 55.6063 116.212 55.8912 116.322 56.1571C116.431 56.4229 116.592 56.6644 116.795 56.8679C116.998 57.0713 117.239 57.2327 117.504 57.3428C117.769 57.4529 118.053 57.5096 118.34 57.5096H118.894V59.1565C118.894 59.2565 118.924 59.3541 118.979 59.4372C119.035 59.5203 119.113 59.5851 119.206 59.6233C119.298 59.6616 119.399 59.6716 119.497 59.6521C119.594 59.6326 119.684 59.5845 119.755 59.5138L121.753 57.5096H156.131C156.418 57.5096 156.702 57.4529 156.967 57.3428C157.232 57.2327 157.473 57.0713 157.676 56.8679C157.879 56.6644 158.039 56.4229 158.149 56.1571C158.259 55.8912 158.316 55.6063 158.316 55.3186V46.2029C158.316 45.9152 158.259 45.6303 158.149 45.3644C158.039 45.0986 157.879 44.8571 157.676 44.6536C157.473 44.4502 157.232 44.2888 156.967 44.1787C156.702 44.0686 156.418 44.0119 156.131 44.0119Z" fill="#E6E6E6"/>
<path d="M156.131 56.3977H118.34C118.054 56.3974 117.781 56.2836 117.579 56.0813C117.377 55.879 117.264 55.6047 117.264 55.3186V46.2028C117.264 45.9167 117.377 45.6424 117.579 45.4401C117.781 45.2378 118.054 45.124 118.34 45.1237H147.042C149.737 45.1268 152.321 46.2019 154.226 48.1131C156.132 50.0244 157.204 52.6157 157.207 55.3186C157.206 55.6047 157.093 55.879 156.891 56.0813C156.69 56.2836 156.416 56.3974 156.131 56.3977Z" fill="white"/>
<path d="M145.255 47.1176H129.296C128.901 47.1176 128.581 47.4384 128.581 47.8342C128.581 48.2301 128.901 48.5509 129.296 48.5509H145.255C145.649 48.5509 145.969 48.2301 145.969 47.8342C145.969 47.4384 145.649 47.1176 145.255 47.1176Z" fill="#6C63FF"/>
<path d="M148.649 49.9843H125.901C125.506 49.9843 125.187 50.3052 125.187 50.701C125.187 51.0968 125.506 51.4177 125.901 51.4177H148.649C149.043 51.4177 149.363 51.0968 149.363 50.701C149.363 50.3052 149.043 49.9843 148.649 49.9843Z" fill="#E6E6E6"/>
<path d="M148.649 52.8511H125.901C125.506 52.8511 125.187 53.1719 125.187 53.5678C125.187 53.9636 125.506 54.2845 125.901 54.2845H148.649C149.043 54.2845 149.363 53.9636 149.363 53.5678C149.363 53.1719 149.043 52.8511 148.649 52.8511Z" fill="#E6E6E6"/>
<path d="M75.5205 11.9679H113.312C113.599 11.9679 113.883 12.0246 114.148 12.1347C114.413 12.2448 114.653 12.4062 114.856 12.6096C115.059 12.8131 115.22 13.0546 115.33 13.3204C115.44 13.5863 115.496 13.8712 115.496 14.1589V23.2746C115.496 23.5623 115.44 23.8472 115.33 24.1131C115.22 24.3789 115.059 24.6204 114.856 24.8239C114.653 25.0273 114.413 25.1887 114.148 25.2988C113.883 25.4089 113.599 25.4656 113.312 25.4656H112.757V27.1125C112.757 27.2124 112.727 27.3101 112.672 27.3932C112.617 27.4763 112.538 27.5411 112.446 27.5793C112.354 27.6176 112.253 27.6276 112.155 27.6081C112.057 27.5886 111.967 27.5404 111.897 27.4698L109.899 25.4656H75.5205C75.2336 25.4656 74.9495 25.4089 74.6845 25.2988C74.4194 25.1887 74.1786 25.0273 73.9758 24.8239C73.7729 24.6204 73.612 24.3789 73.5022 24.1131C73.3924 23.8472 73.3359 23.5623 73.3359 23.2746V14.1589C73.3359 13.8712 73.3924 13.5863 73.5022 13.3204C73.612 13.0546 73.7729 12.8131 73.9758 12.6096C74.1786 12.4062 74.4194 12.2448 74.6845 12.1347C74.9495 12.0246 75.2336 11.9679 75.5205 11.9679Z" fill="#E6E6E6"/>
<path d="M113.312 24.3537H84.6097C81.9147 24.3506 79.3311 23.2756 77.4255 21.3644C75.5198 19.4532 74.4479 16.8619 74.4448 14.159C74.4451 13.8729 74.5586 13.5986 74.7603 13.3962C74.962 13.1939 75.2355 13.0801 75.5208 13.0798H113.312C113.597 13.0801 113.871 13.1939 114.072 13.3962C114.274 13.5985 114.388 13.8728 114.388 14.1589V23.2746C114.388 23.5607 114.274 23.835 114.072 24.0373C113.871 24.2396 113.597 24.3534 113.312 24.3537Z" fill="white"/>
<path d="M86.3968 16.507L102.356 16.507C102.75 16.507 103.07 16.1861 103.07 15.7903C103.07 15.3944 102.75 15.0736 102.356 15.0736L86.3968 15.0736C86.0021 15.0736 85.6822 15.3944 85.6822 15.7903C85.6822 16.1861 86.0021 16.507 86.3968 16.507Z" fill="#6C63FF"/>
<path d="M83.0028 19.3737L105.75 19.3737C106.145 19.3737 106.465 19.0528 106.465 18.657C106.465 18.2612 106.145 17.9403 105.75 17.9403L83.0028 17.9403C82.6081 17.9403 82.2882 18.2612 82.2882 18.657C82.2882 19.0528 82.6081 19.3737 83.0028 19.3737Z" fill="#E6E6E6"/>
<path d="M83.0028 22.2405L105.75 22.2405C106.145 22.2405 106.465 21.9196 106.465 21.5238C106.465 21.128 106.145 20.8071 105.75 20.8071L83.0028 20.8071C82.6081 20.8071 82.2882 21.128 82.2882 21.5238C82.2882 21.9196 82.6081 22.2405 83.0028 22.2405Z" fill="#E6E6E6"/>
<path d="M31.968 34.9839C31.968 34.5239 31.7858 34.0828 31.4615 33.7575C31.1372 33.4323 30.6974 33.2496 30.2388 33.2496C29.7801 33.2496 29.3403 33.4323 29.016 33.7575C28.6917 34.0828 28.5095 34.5239 28.5095 34.9839C28.5095 35.0008 28.5115 35.0172 28.512 35.0341L25.4792 38.0759L25.7098 37.5441L22.2514 37.3789L21.7468 41.0412C21.7026 41.3793 21.7642 41.7228 21.923 42.0243C22.0818 42.3258 22.3299 42.5705 22.6333 42.7244C22.9366 42.8784 23.2801 42.9342 23.6164 42.884C23.9527 42.8338 24.2651 42.6801 24.5106 42.4442L30.4888 36.6981C30.8995 36.6381 31.275 36.4319 31.5466 36.1172C31.8182 35.8024 31.9678 35.4002 31.968 34.9839Z" fill="#FFB9B9"/>
<path d="M124.187 33.3189L134.96 34.8552L135.562 36.3484L130.471 43.0666L128.037 41.9617L130.899 36.965L124.111 38.2078L124.187 33.3189Z" fill="#6C63FF"/>
<path d="M128.97 44.977C129.879 44.977 130.617 44.2375 130.617 43.3253C130.617 42.413 129.879 41.6735 128.97 41.6735C128.06 41.6735 127.323 42.413 127.323 43.3253C127.323 44.2375 128.06 44.977 128.97 44.977Z" fill="#9E616A"/>
</g>
<defs>
<clipPath id="clip0_3573_26387">
<rect width="162" height="83" fill="white" transform="translate(0 0.924805)"/>
</clipPath>
</defs>
</svg>
