<svg width="127" height="72" viewBox="0 0 127 72" fill="none" xmlns="http://www.w3.org/2000/svg">
<path d="M26.7274 71.6542H7.32491C7.32491 71.6542 6.93161 65.8859 9.25853 65.8203C11.5854 65.7548 11.3233 68.3767 14.2403 64.7715C17.1572 61.1663 20.6968 61.363 21.1556 63.4934C21.6144 65.6238 20.2708 67.3279 22.7288 66.8035C25.1868 66.2791 28.7266 67.6557 26.7274 71.6542Z" fill="#EAECEE"/>
<path d="M16.6989 71.6555L16.6333 71.6529C16.7861 67.8552 17.5813 65.4154 18.2218 64.0368C18.917 62.5403 19.587 61.9345 19.5938 61.9286L19.6374 61.9776C19.6308 61.9835 18.9686 62.5832 18.2789 64.0696C17.6421 65.4419 16.8511 67.872 16.6989 71.6555Z" fill="white"/>
<path d="M23.7211 71.6632L23.6582 71.6449C24.1462 70.0353 25.0258 68.572 26.2182 67.3859L26.2622 67.4344C25.0786 68.6123 24.2055 70.0652 23.7211 71.6632Z" fill="white"/>
<path d="M10.3802 71.6587L10.3152 71.6497C10.5267 70.2259 10.3029 68.7713 9.67306 67.4769C9.41487 66.934 9.07308 66.435 8.66016 65.9981L8.70556 65.9508C9.12407 66.393 9.47057 66.8981 9.7324 67.4478C10.3679 68.754 10.5937 70.2218 10.3802 71.6587Z" fill="white"/>
<path d="M29.3603 71.7418H5.23203L5.22651 71.6601C5.21271 71.4568 4.90484 66.6607 6.45883 64.9494C6.61301 64.7686 6.80333 64.6221 7.01754 64.5193C7.23175 64.4165 7.46511 64.3597 7.70261 64.3525C8.71551 64.3237 9.35209 64.7032 9.86558 65.0076C10.8334 65.5817 11.4726 65.961 13.7971 63.088C16.3152 59.9758 19.0322 59.3061 20.5941 59.6784C21.6033 59.9191 22.2988 60.599 22.5023 61.5441C22.6955 62.439 22.6337 63.2799 22.5843 63.9556C22.5314 64.6786 22.4898 65.2495 22.7867 65.5084C23.0351 65.7244 23.5293 65.744 24.3435 65.5702C25.9995 65.2169 28.3106 65.5192 29.4705 67.018C30.0945 67.8243 30.5862 69.2898 29.3845 71.6933L29.3603 71.7418ZM5.39666 71.5664H29.2516C30.1471 69.7496 30.1751 68.2148 29.3318 67.1253C28.2677 65.7504 26.0353 65.3886 24.3801 65.7417C23.4953 65.9305 22.9683 65.8993 22.6715 65.6407C22.3084 65.3244 22.353 64.7148 22.4093 63.9434C22.4579 63.2789 22.5182 62.4519 22.3308 61.5815C22.142 60.7051 21.4941 60.0738 20.5532 59.8495C19.0412 59.4888 16.3995 60.1499 13.9333 63.1987C11.5137 66.1894 10.7846 65.7572 9.77602 65.1583C9.25618 64.85 8.66611 64.5005 7.70743 64.5276C7.49362 64.5345 7.28361 64.5861 7.09091 64.679C6.89821 64.7719 6.72709 64.9041 6.58855 65.0671C5.19229 66.6052 5.36258 70.9179 5.3968 71.5664H5.39666Z" fill="#223549"/>
<path d="M108.199 71.8392H84.4333L84.4287 71.706L83.2939 39.2517H109.338L108.199 71.8392ZM84.6999 71.5632H107.932L109.052 39.5277H83.5796L84.6999 71.5632Z" fill="#395979"/>
<path d="M90.1045 45.265H88.2969V67.634H90.1045V45.265Z" fill="#395979"/>
<path d="M97.2217 45.265H95.4141V67.634H97.2217V45.265Z" fill="#395979"/>
<path d="M104.339 45.265H102.531V67.634H104.339V45.265Z" fill="#395979"/>
<path d="M124.44 48.7819L124.323 48.7082L94.8037 30.0532L97.3643 26.0013L97.4811 26.0751L127.001 44.73L124.44 48.7819ZM95.1845 29.9674L124.354 48.4011L126.62 44.8159L97.4503 26.382L95.1845 29.9674Z" fill="#395979"/>
<path d="M117.312 28.5497C116.454 28.0067 115.459 27.7212 114.443 27.7271C113.428 27.7331 112.435 28.0303 111.584 28.5833C110.732 29.1364 110.057 29.9222 109.638 30.8474C109.22 31.7727 109.076 32.7985 109.223 33.8033L110.631 34.6928C110.277 33.8714 110.195 32.9584 110.398 32.0874C110.601 31.2164 111.077 30.4331 111.757 29.8523C112.437 29.2715 113.285 28.9237 114.177 28.8598C115.069 28.7958 115.958 29.0192 116.714 29.497C117.47 29.9749 118.053 30.6823 118.378 31.5155C118.703 32.3487 118.752 33.264 118.519 34.1274C118.286 34.9908 117.783 35.757 117.083 36.3136C116.383 36.8703 115.523 37.1883 114.63 37.2211L116.037 38.1106C117.008 37.8126 117.873 37.2423 118.529 36.4675C119.186 35.6927 119.606 34.7458 119.74 33.7393C119.875 32.7328 119.718 31.7088 119.287 30.7889C118.857 29.8691 118.172 29.0919 117.314 28.5497H117.312Z" fill="#395979"/>
<path d="M125.44 71.6488H0V71.9248H125.44V71.6488Z" fill="#223549"/>
<path d="M54.7896 69.7656H52.7798L51.8232 62.0137H54.7902L54.7896 69.7656Z" fill="#FEB8B8"/>
<path d="M48.9033 71.6315H55.2196V69.1912H51.3099C50.6716 69.1912 50.0595 69.4447 49.6082 69.896C49.1569 70.3473 48.9033 70.9595 48.9033 71.5977V71.6315Z" fill="#223549"/>
<path d="M54.084 57.7535L55.4703 59.2087L61.7426 54.5544L59.6966 52.4067L54.084 57.7535Z" fill="#FEB8B8"/>
<path d="M56.8972 59.8755L54.1994 57.0448L52.4326 58.7286L56.7909 63.3016L56.8153 63.2783C57.0441 63.0603 57.2278 62.7993 57.3557 62.5102C57.4836 62.2212 57.5534 61.9098 57.561 61.5938C57.5686 61.2779 57.5139 60.9635 57.4 60.6686C57.2861 60.3738 57.1152 60.1043 56.8972 59.8755Z" fill="#223549"/>
<path d="M40.0946 36.5159C39.9674 36.3113 39.8866 36.0813 39.8579 35.842C39.8292 35.6028 39.8533 35.3602 39.9285 35.1313C40.0037 34.9024 40.1281 34.6927 40.2931 34.5171C40.4581 34.3415 40.6595 34.2041 40.8833 34.1148L48.7738 14.0048L51.8495 15.8463L43.0842 35.1384C43.2094 35.5244 43.1888 35.9429 43.026 36.3146C42.8633 36.6864 42.5699 36.9855 42.2013 37.1553C41.8328 37.3251 41.4148 37.3538 41.0265 37.236C40.6382 37.1181 40.3066 36.8619 40.0946 36.5159Z" fill="#FEB8B8"/>
<path d="M70.0453 37.9573C69.8049 37.9401 69.5711 37.8704 69.3606 37.7531C69.15 37.6358 68.9677 37.4738 68.8266 37.2784C68.6855 37.083 68.5889 36.859 68.5437 36.6223C68.4985 36.3855 68.5058 36.1417 68.565 35.9081L56.9243 17.7104L60.2212 16.3029L70.6864 34.7287C71.0729 34.8537 71.4 35.1161 71.6057 35.4664C71.8114 35.8166 71.8814 36.2301 71.8023 36.6285C71.7232 37.0269 71.5005 37.3823 71.1767 37.6274C70.8528 37.8725 70.4502 37.9901 70.0453 37.9579V37.9573Z" fill="#FEB8B8"/>
<path d="M48.8521 34.5022L50.9125 65.1257L55.8365 64.6913L56.8503 42.0981L59.6019 51.8012L65.5397 52.2356L63.1895 33.054L48.8521 34.5022Z" fill="#223549"/>
<path d="M60.4704 50.3531L59.601 51.8014L53.519 56.0013L57.8638 58.3185C57.8638 58.3185 66.2635 53.6841 65.5395 52.2359L60.4704 50.3531Z" fill="#223549"/>
<path d="M44.5396 22.1123L46.2536 17.2824C46.635 16.2077 47.2257 15.2194 47.9915 14.3745C48.7574 13.5296 49.6832 12.845 50.7154 12.3603C53.0354 11.5056 55.5586 11.3675 57.958 11.9638L58.5818 12.1187C60.2451 12.5218 61.8035 13.2745 63.1534 14.3266C64.2096 15.1593 65.1599 16.2136 65.2445 17.3477C65.2449 17.3501 65.2456 17.3525 65.2465 17.3547C65.5391 18.637 65.6838 25.2988 65.6838 25.2988H63.1033L63.5115 34.278L63.4785 34.213C63.4785 34.213 48.5946 37.0296 48.5946 35.5813V26.3123L48.2895 22.9562L44.5396 22.1123Z" fill="#889BAF"/>
<path d="M58.4317 10.7083C60.7097 10.7083 62.5564 8.86168 62.5564 6.58372C62.5564 4.30576 60.7097 2.45911 58.4317 2.45911C56.1538 2.45911 54.3071 4.30576 54.3071 6.58372C54.3071 8.86168 56.1538 10.7083 58.4317 10.7083Z" fill="#FEB8B8"/>
<path d="M59.0492 4.73395L62.2518 4.86229C62.6548 4.86105 63.0947 4.84684 63.4016 4.5863C63.8639 4.19314 63.7865 3.45126 63.5389 2.89707C62.8489 1.35397 61.3099 0.801156 59.6198 0.846557C57.9297 0.891959 56.1588 1.46479 55.2487 2.88892C54.3386 4.31306 54.0927 6.11145 54.4355 7.76632C54.8318 6.92484 55.4418 6.20202 56.2048 5.67002C56.9678 5.13802 57.8569 4.81545 58.7835 4.73451L59.0492 4.73395Z" fill="#223549"/>
<path d="M78.0675 45.0785L66.4755 36.9542C66.3678 36.8784 66.2945 36.763 66.2717 36.6333C66.2489 36.5036 66.2784 36.3701 66.3538 36.2621L75.4521 23.2803C75.5279 23.1726 75.6433 23.0993 75.773 23.0765C75.9027 23.0537 76.0362 23.0832 76.1442 23.1586L87.7362 31.2829C87.8439 31.3587 87.9172 31.4741 87.94 31.6038C87.9628 31.7335 87.9333 31.8669 87.8579 31.9749L78.7598 44.9564C78.684 45.0643 78.5686 45.1376 78.4389 45.1605C78.3091 45.1834 78.1756 45.1539 78.0675 45.0785Z" fill="#EDC766"/>
<path d="M80.6737 36.263L73.8717 31.4958C73.7931 31.4406 73.726 31.3705 73.6744 31.2895C73.6229 31.2085 73.5878 31.1181 73.5711 31.0235C73.5545 30.9289 73.5566 30.8319 73.5775 30.7381C73.5983 30.6444 73.6374 30.5556 73.6925 30.4769C73.7477 30.3983 73.8177 30.3312 73.8988 30.2797C73.9798 30.2281 74.0702 30.193 74.1648 30.1763C74.2594 30.1597 74.3564 30.1619 74.4502 30.1827C74.5439 30.2035 74.6327 30.2426 74.7113 30.2977L81.5134 35.065C81.6722 35.1763 81.7804 35.3462 81.814 35.5373C81.8476 35.7283 81.8039 35.9249 81.6925 36.0838C81.5812 36.2427 81.4113 36.3508 81.2202 36.3844C81.0292 36.418 80.8326 36.3743 80.6737 36.263Z" fill="white"/>
<path d="M79.1137 38.4904L72.3117 33.7232C72.2329 33.6681 72.1658 33.598 72.1141 33.517C72.0625 33.4359 72.0273 33.3455 72.0106 33.2508C71.9939 33.1562 71.9961 33.0592 72.0169 32.9653C72.0377 32.8715 72.0768 32.7827 72.132 32.704C72.1871 32.6253 72.2573 32.5582 72.3384 32.5066C72.4195 32.455 72.5099 32.4199 72.6046 32.4033C72.6993 32.3867 72.7963 32.3889 72.8901 32.4098C72.9839 32.4307 73.0727 32.4699 73.1513 32.5252L79.9533 37.2924C80.112 37.4038 80.22 37.5737 80.2535 37.7646C80.287 37.9556 80.2433 38.1521 80.132 38.3108C80.0207 38.4696 79.851 38.5777 79.66 38.6114C79.4691 38.6451 79.2726 38.6015 79.1137 38.4904Z" fill="white"/>
<path d="M77.536 40.7418L70.734 35.9745C70.6554 35.9194 70.5883 35.8493 70.5368 35.7683C70.4852 35.6872 70.4501 35.5968 70.4334 35.5022C70.4168 35.4076 70.4189 35.3107 70.4398 35.2169C70.4606 35.1231 70.4997 35.0344 70.5548 34.9557C70.61 34.877 70.68 34.81 70.7611 34.7584C70.8421 34.7069 70.9325 34.6717 71.0271 34.6551C71.1217 34.6385 71.2187 34.6406 71.3125 34.6615C71.4062 34.6823 71.495 34.7214 71.5737 34.7765L78.3757 39.5437C78.5345 39.6551 78.6427 39.825 78.6763 40.016C78.7099 40.2071 78.6662 40.4037 78.5548 40.5626C78.4435 40.7214 78.2736 40.8296 78.0826 40.8632C77.8915 40.8968 77.6949 40.8531 77.536 40.7418Z" fill="white"/>
<path d="M80.6548 31.8568L78.0202 30.0103C77.9414 29.9552 77.8743 29.8851 77.8226 29.8041C77.771 29.723 77.7358 29.6326 77.7191 29.5379C77.7024 29.4433 77.7046 29.3463 77.7254 29.2524C77.7462 29.1586 77.7853 29.0698 77.8405 28.9911C77.8956 28.9124 77.9658 28.8453 78.0469 28.7937C78.128 28.7422 78.2184 28.7071 78.3131 28.6904C78.4078 28.6738 78.5048 28.6761 78.5986 28.697C78.6924 28.7179 78.7812 28.757 78.8598 28.8123L81.4944 30.6588C81.6533 30.7701 81.7614 30.94 81.795 31.1311C81.8286 31.3221 81.785 31.5187 81.6736 31.6776C81.5623 31.8364 81.3924 31.9446 81.2013 31.9782C81.0103 32.0118 80.8137 31.9681 80.6548 31.8568Z" fill="white"/>
</svg>
