<svg width="251" height="67" viewBox="0 0 251 67" fill="none" xmlns="http://www.w3.org/2000/svg">
<g clip-path="url(#clip0_210_2688)">
<path d="M73.4915 18.8468V48.3349H68.3331V35.0138H54.8607V48.3349H49.7024V18.8468H54.8607V30.5936H68.3331V18.8468H73.4915ZM44.4833 48.3349H39.3249V18.8468H44.4833V48.3349ZM34.2273 48.3349H28.7655L15.293 26.6578H15.1717V48.3349H10.256V18.8468H15.7178L29.1903 40.5844H29.251V18.8468H34.1666V48.3349H34.2273ZM91.7582 33.5L73.4308 0.5H6.06866C2.7309 0.5 0 3.22477 0 6.55505V60.445C0 63.7752 2.7309 66.5 6.06866 66.5H73.3701L91.7582 33.5Z" fill="white"/>
<path d="M77.9823 66.5L96.3097 33.5L78.043 0.5H82.5945C85.0827 0.5 88.117 2.31651 89.3307 4.49633L105.413 33.5L89.2701 62.5642C88.0563 64.744 85.022 66.5605 82.5338 66.5605L77.9823 66.5Z" fill="white"/>
<path d="M77.9823 66.5L96.3097 33.5L78.043 0.5H82.5945C85.0827 0.5 88.117 2.31651 89.3307 4.49633L105.413 33.5L89.2701 62.5642C88.0563 64.744 85.022 66.5605 82.5338 66.5605L77.9823 66.5Z" fill="#005395"/>
<path d="M111.967 16.122H114.394L120.402 25.7495H120.463V16.122H122.648V29.2009H120.22L114.273 19.5734H114.212V29.2009H112.028L111.967 16.122Z" fill="white"/>
<path d="M132.843 27.0816C132.843 27.566 132.964 27.8082 133.329 27.8082C133.45 27.8082 133.632 27.8082 133.814 27.7477V29.2009C133.511 29.322 132.843 29.4431 132.479 29.4431C131.629 29.4431 131.022 29.1403 130.84 28.2926C129.991 29.0798 128.656 29.4431 127.563 29.4431C125.864 29.4431 124.286 28.5348 124.286 26.6578C124.286 24.2963 126.168 23.933 127.927 23.6908C129.445 23.388 130.78 23.5697 130.78 22.3587C130.78 21.2688 129.687 21.0871 128.838 21.0871C127.685 21.0871 126.835 21.5715 126.714 22.6009H124.59C124.711 20.1789 126.835 19.4523 128.898 19.4523C130.78 19.4523 132.722 20.1789 132.722 22.177V27.0816H132.843ZM130.719 24.478C130.051 24.9018 129.08 24.9018 128.17 25.0229C127.26 25.144 126.471 25.5073 126.471 26.5972C126.471 27.5055 127.685 27.8082 128.413 27.8082C129.323 27.8082 130.78 27.3238 130.78 25.9917L130.719 24.478Z" fill="white"/>
<path d="M133.935 19.755H135.513V16.9092H137.637V19.755H139.519V21.3294H137.637V26.4156C137.637 27.2633 137.698 27.7477 138.669 27.7477C138.972 27.7477 139.276 27.7477 139.579 27.6872V29.322C139.094 29.3826 138.669 29.4431 138.244 29.4431C136.059 29.4431 135.635 28.5954 135.635 27.0211V21.4505H134.057V19.755H133.935Z" fill="white"/>
<path d="M140.854 16.122H142.978V18.1202H140.854V16.122ZM140.854 19.755H142.978V29.2615H140.854V19.755Z" fill="white"/>
<path d="M144.616 24.478C144.616 21.5715 146.376 19.5128 149.411 19.5128C152.445 19.5128 154.205 21.5715 154.205 24.478C154.205 27.3844 152.445 29.5036 149.411 29.5036C146.376 29.5036 144.616 27.3844 144.616 24.478ZM152.141 24.478C152.141 22.8431 151.292 21.1477 149.411 21.1477C147.529 21.1477 146.74 22.8431 146.74 24.478C146.74 26.1128 147.59 27.8082 149.411 27.8082C151.231 27.8082 152.141 26.1128 152.141 24.478Z" fill="white"/>
<path d="M155.783 19.755H157.785V21.1477L157.846 21.2082C158.453 20.1789 159.545 19.5128 160.82 19.5128C162.883 19.5128 164.157 20.6027 164.157 22.722V29.2009H162.033V23.2669C161.973 21.7532 161.426 21.1477 160.152 21.1477C158.756 21.1477 157.846 22.2376 157.846 23.6302V29.2009H155.722V19.755H155.783Z" fill="white"/>
<path d="M174.11 27.0816C174.11 27.566 174.231 27.8082 174.595 27.8082C174.717 27.8082 174.899 27.8082 175.081 27.7477V29.2009C174.778 29.322 174.11 29.4431 173.746 29.4431C172.896 29.4431 172.289 29.1403 172.107 28.2926C171.258 29.0798 169.923 29.4431 168.83 29.4431C167.131 29.4431 165.553 28.5348 165.553 26.6578C165.553 24.2963 167.434 23.933 169.194 23.6908C170.712 23.388 172.047 23.5697 172.047 22.3587C172.047 21.2688 170.954 21.0871 170.105 21.0871C168.952 21.0871 168.102 21.5715 167.981 22.6009H165.857C165.978 20.1789 168.102 19.4523 170.165 19.4523C172.047 19.4523 173.989 20.1789 173.989 22.177V27.0816H174.11ZM171.986 24.478C171.318 24.9018 170.347 24.9018 169.437 25.0229C168.527 25.144 167.738 25.5073 167.738 26.5972C167.738 27.5055 168.952 27.8082 169.68 27.8082C170.59 27.8082 172.047 27.3238 172.047 25.9917V24.478H171.986Z" fill="white"/>
<path d="M176.234 16.122H178.358V29.2009H176.234V16.122Z" fill="white"/>
<path d="M185.64 16.122H187.947V29.2009H185.64V16.122Z" fill="white"/>
<path d="M190.253 19.755H192.255V21.1477L192.316 21.2082C192.923 20.1789 194.015 19.5128 195.29 19.5128C197.353 19.5128 198.627 20.6027 198.627 22.722V29.2009H196.503V23.2669C196.443 21.7532 195.896 21.1477 194.622 21.1477C193.226 21.1477 192.316 22.2376 192.316 23.6302V29.2009H190.192V19.755H190.253Z" fill="white"/>
<path d="M202.208 26.1734C202.329 27.3844 203.24 27.8082 204.332 27.8082C205.121 27.8082 206.517 27.6266 206.456 26.5367C206.395 25.4468 204.878 25.3257 203.361 24.9624C201.844 24.6596 200.327 24.0541 200.327 22.177C200.327 20.1183 202.572 19.4523 204.271 19.4523C206.213 19.4523 207.973 20.2394 208.216 22.3587H206.031C205.849 21.3899 204.999 21.0871 204.089 21.0871C203.482 21.0871 202.39 21.2082 202.39 22.0559C202.39 23.0853 203.907 23.2064 205.485 23.5697C207.002 23.933 208.58 24.478 208.58 26.355C208.58 28.5954 206.274 29.4431 204.332 29.4431C201.965 29.4431 200.145 28.3532 200.145 26.1128L202.208 26.1734Z" fill="white"/>
<path d="M209.005 19.755H210.583V16.9092H212.707V19.755H214.588V21.3294H212.707V26.4156C212.707 27.2633 212.767 27.7477 213.738 27.7477C214.042 27.7477 214.345 27.7477 214.649 27.6872V29.322C214.163 29.3826 213.738 29.4431 213.314 29.4431C211.129 29.4431 210.704 28.5954 210.704 27.0211V21.4505H209.126V19.755H209.005Z" fill="white"/>
<path d="M215.923 16.122H218.047V18.1202H215.923V16.122ZM215.923 19.755H218.047V29.2615H215.923V19.755Z" fill="white"/>
<path d="M219.139 19.755H220.717V16.9092H222.841V19.755H224.723V21.3294H222.841V26.4156C222.841 27.2633 222.902 27.7477 223.873 27.7477C224.176 27.7477 224.48 27.7477 224.783 27.6872V29.322C224.298 29.3826 223.873 29.4431 223.448 29.4431C221.264 29.4431 220.839 28.5954 220.839 27.0211V21.4505H219.261V19.755H219.139Z" fill="white"/>
<path d="M234.372 29.2009H232.309V27.8688H232.248C231.762 28.8376 230.609 29.4431 229.517 29.4431C227.029 29.4431 225.997 28.1715 225.997 25.7495V19.755H228.121V25.5678C228.121 27.2633 228.789 27.8688 229.942 27.8688C231.702 27.8688 232.248 26.7789 232.248 25.2651V19.755H234.372V29.2009Z" fill="white"/>
<path d="M235.464 19.755H237.042V16.9092H239.166V19.755H241.047V21.3294H239.105V26.4156C239.105 27.2633 239.166 27.7477 240.137 27.7477C240.441 27.7477 240.744 27.7477 241.047 27.6872V29.322C240.562 29.3826 240.137 29.4431 239.712 29.4431C237.528 29.4431 237.103 28.5954 237.103 27.0211V21.4505H235.464V19.755Z" fill="white"/>
<path d="M243.96 25.0229C243.96 26.5367 244.749 27.8082 246.509 27.8082C247.723 27.8082 248.451 27.2633 248.815 26.2339H250.818C250.332 28.2926 248.573 29.4431 246.509 29.4431C243.536 29.4431 241.836 27.3844 241.836 24.478C241.836 21.7532 243.596 19.4523 246.448 19.4523C249.422 19.4523 251.303 22.1165 250.939 24.9624L243.96 25.0229ZM248.876 23.6303C248.815 22.2981 247.905 21.1477 246.509 21.1477C245.053 21.1477 244.082 22.2376 244.021 23.6303H248.876Z" fill="white"/>
<path d="M111.36 46.7C111.36 43.7936 113.12 41.7349 116.154 41.7349C119.189 41.7349 120.948 43.7936 120.948 46.7C120.948 49.6064 119.189 51.7257 116.154 51.7257C113.12 51.7257 111.36 49.6064 111.36 46.7ZM118.824 46.7C118.824 45.0651 117.975 43.3697 116.094 43.3697C114.212 43.3697 113.423 45.0651 113.423 46.7C113.423 48.3349 114.273 50.0303 116.094 50.0303C118.036 50.0908 118.824 48.3349 118.824 46.7Z" fill="white"/>
<path d="M122.526 41.9771H124.529V43.3697L124.59 43.4303C125.197 42.4009 126.289 41.7349 127.563 41.7349C129.627 41.7349 130.901 42.8248 130.901 44.944V51.4229H128.777V45.489C128.716 43.9752 128.17 43.3697 126.896 43.3697C125.5 43.3697 124.59 44.4596 124.59 45.8523V51.4229H122.466V41.9771H122.526Z" fill="white"/>
<path d="M141.582 38.344H144.009L149.046 51.4229H146.558L145.345 47.9715H140.125L138.912 51.4229H136.545L141.582 38.344ZM140.793 46.2761H144.798L142.856 40.6449H142.796L140.793 46.2761Z" fill="white"/>
<path d="M158.635 50.9385C158.635 53.7844 156.936 55.1771 153.962 55.1771C152.081 55.1771 149.896 54.4505 149.714 52.2101H151.838C152.081 53.4211 153.052 53.6027 154.144 53.6027C155.843 53.6027 156.572 52.755 156.572 51.1807V49.7275H156.511C155.904 50.7569 154.812 51.4229 153.659 51.4229C150.624 51.4229 149.411 49.122 149.411 46.4578C149.411 43.9147 150.988 41.7349 153.719 41.7349C154.933 41.7349 156.025 42.2193 156.511 43.3092H156.572V42.0376H158.696V50.9385H158.635ZM156.511 46.5183C156.511 44.8835 155.783 43.3697 153.962 43.3697C152.081 43.3697 151.474 45.0651 151.474 46.7C151.474 48.2743 152.202 49.8486 153.962 49.8486C155.843 49.7881 156.511 48.0927 156.511 46.5183Z" fill="white"/>
<path d="M160.577 38.344H162.701V40.3422H160.577V38.344ZM160.577 41.977H162.701V51.4834H160.577V41.977Z" fill="white"/>
<path d="M164.764 41.9771H166.767V43.3697L166.828 43.4303C167.434 42.4009 168.527 41.7349 169.801 41.7349C171.865 41.7349 173.139 42.8248 173.139 44.944V51.4229H171.015V45.489C170.954 43.9752 170.408 43.3697 169.134 43.3697C167.738 43.3697 166.828 44.4596 166.828 45.8523V51.4229H164.704V41.9771H164.764Z" fill="white"/>
<path d="M183.941 50.9385C183.941 53.7844 182.242 55.1771 179.268 55.1771C177.387 55.1771 175.202 54.4505 175.02 52.2101H177.144C177.387 53.4211 178.358 53.6027 179.45 53.6027C181.15 53.6027 181.878 52.755 181.878 51.1807V49.7275H181.817C181.21 50.7569 180.118 51.4229 178.965 51.4229C175.931 51.4229 174.717 49.122 174.717 46.4578C174.717 43.9147 176.295 41.7349 179.026 41.7349C180.239 41.7349 181.332 42.2193 181.817 43.3092H181.878V42.0376H184.002L183.941 50.9385ZM181.817 46.5183C181.817 44.8835 181.089 43.3697 179.268 43.3697C177.387 43.3697 176.78 45.0651 176.78 46.7C176.78 48.2743 177.508 49.8486 179.268 49.8486C181.15 49.7881 181.817 48.0927 181.817 46.5183Z" fill="white"/>
</g>
<defs>
<clipPath id="clip0_210_2688">
<rect width="251" height="66" fill="white" transform="translate(0 0.5)"/>
</clipPath>
</defs>
</svg>
