<svg width="251" height="66" viewBox="0 0 251 66" fill="none" xmlns="http://www.w3.org/2000/svg">
<g clip-path="url(#clip0_75_4584)">
<path d="M73.4915 18.3468V47.8349H68.3331V34.5138H54.8607V47.8349H49.7024V18.3468H54.8607V30.0936H68.3331V18.3468H73.4915ZM44.4833 47.8349H39.3249V18.3468H44.4833V47.8349ZM34.2273 47.8349H28.7655L15.293 26.1578H15.1717V47.8349H10.256V18.3468H15.7178L29.1903 40.0844H29.251V18.3468H34.1666V47.8349H34.2273ZM91.7582 33L73.4308 0H6.06866C2.7309 0 0 2.72477 0 6.05505V59.945C0 63.2752 2.7309 66 6.06866 66H73.3701L91.7582 33Z" fill="#636569"/>
<path d="M77.9823 66L96.3097 33L78.043 0H82.5945C85.0827 0 88.117 1.81651 89.3307 3.99633L105.413 33L89.2701 62.0642C88.0563 64.244 85.022 66.0605 82.5338 66.0605L77.9823 66Z" fill="#636569"/>
<path d="M77.9823 66L96.3097 33L78.043 0H82.5945C85.0827 0 88.117 1.81651 89.3307 3.99633L105.413 33L89.2701 62.0642C88.0563 64.244 85.022 66.0605 82.5338 66.0605L77.9823 66Z" fill="#005395"/>
<path d="M111.967 15.6221H114.394L120.402 25.2496H120.463V15.6221H122.648V28.701H120.22L114.273 19.0734H114.212V28.701H112.028L111.967 15.6221Z" fill="#636569"/>
<path d="M132.843 26.5815C132.843 27.0659 132.964 27.3081 133.329 27.3081C133.45 27.3081 133.632 27.3081 133.814 27.2476V28.7008C133.511 28.8219 132.843 28.943 132.479 28.943C131.629 28.943 131.022 28.6402 130.84 27.7925C129.991 28.5797 128.656 28.943 127.563 28.943C125.864 28.943 124.286 28.0347 124.286 26.1576C124.286 23.7962 126.168 23.4329 127.927 23.1907C129.445 22.8879 130.78 23.0696 130.78 21.8586C130.78 20.7687 129.687 20.587 128.838 20.587C127.685 20.587 126.835 21.0714 126.714 22.1008H124.59C124.711 19.6788 126.835 18.9521 128.898 18.9521C130.78 18.9521 132.722 19.6788 132.722 21.6769V26.5815H132.843ZM130.719 23.9778C130.051 24.4017 129.08 24.4017 128.17 24.5228C127.26 24.6439 126.471 25.0072 126.471 26.0971C126.471 27.0054 127.685 27.3081 128.413 27.3081C129.323 27.3081 130.78 26.8237 130.78 25.4916L130.719 23.9778Z" fill="#636569"/>
<path d="M133.935 19.255H135.513V16.4092H137.637V19.255H139.519V20.8294H137.637V25.9156C137.637 26.7633 137.698 27.2477 138.669 27.2477C138.972 27.2477 139.276 27.2477 139.579 27.1872V28.822C139.094 28.8826 138.669 28.9431 138.244 28.9431C136.059 28.9431 135.635 28.0954 135.635 26.5211V20.9505H134.057V19.255H133.935Z" fill="#636569"/>
<path d="M140.854 15.6221H142.978V17.6202H140.854V15.6221ZM140.854 19.2551H142.978V28.7615H140.854V19.2551Z" fill="#636569"/>
<path d="M144.616 23.9778C144.616 21.0714 146.376 19.0127 149.411 19.0127C152.445 19.0127 154.205 21.0714 154.205 23.9778C154.205 26.8843 152.445 29.0035 149.411 29.0035C146.376 29.0035 144.616 26.8843 144.616 23.9778ZM152.141 23.9778C152.141 22.343 151.292 20.6476 149.411 20.6476C147.529 20.6476 146.74 22.343 146.74 23.9778C146.74 25.6127 147.59 27.3081 149.411 27.3081C151.231 27.3081 152.141 25.6127 152.141 23.9778Z" fill="#636569"/>
<path d="M155.783 19.2549H157.785V20.6476L157.846 20.7081C158.453 19.6788 159.545 19.0127 160.82 19.0127C162.883 19.0127 164.157 20.1026 164.157 22.2219V28.7008H162.033V22.7668C161.973 21.2531 161.426 20.6476 160.152 20.6476C158.756 20.6476 157.846 21.7375 157.846 23.1301V28.7008H155.722V19.2549H155.783Z" fill="#636569"/>
<path d="M174.11 26.5815C174.11 27.0659 174.231 27.3081 174.595 27.3081C174.717 27.3081 174.899 27.3081 175.081 27.2476V28.7008C174.778 28.8219 174.11 28.943 173.746 28.943C172.896 28.943 172.289 28.6402 172.107 27.7925C171.258 28.5797 169.923 28.943 168.83 28.943C167.131 28.943 165.553 28.0347 165.553 26.1576C165.553 23.7962 167.434 23.4329 169.194 23.1907C170.712 22.8879 172.047 23.0696 172.047 21.8586C172.047 20.7687 170.954 20.587 170.105 20.587C168.952 20.587 168.102 21.0714 167.981 22.1008H165.857C165.978 19.6788 168.102 18.9521 170.165 18.9521C172.047 18.9521 173.989 19.6788 173.989 21.6769V26.5815H174.11ZM171.986 23.9778C171.318 24.4017 170.347 24.4017 169.437 24.5228C168.527 24.6439 167.738 25.0072 167.738 26.0971C167.738 27.0054 168.952 27.3081 169.68 27.3081C170.59 27.3081 172.047 26.8237 172.047 25.4916V23.9778H171.986Z" fill="#636569"/>
<path d="M176.234 15.6221H178.358V28.701H176.234V15.6221Z" fill="#636569"/>
<path d="M185.64 15.6221H187.947V28.701H185.64V15.6221Z" fill="#636569"/>
<path d="M190.253 19.2549H192.255V20.6476L192.316 20.7081C192.923 19.6788 194.015 19.0127 195.29 19.0127C197.353 19.0127 198.627 20.1026 198.627 22.2219V28.7008H196.503V22.7668C196.443 21.2531 195.896 20.6476 194.622 20.6476C193.226 20.6476 192.316 21.7375 192.316 23.1301V28.7008H190.192V19.2549H190.253Z" fill="#636569"/>
<path d="M202.208 25.6732C202.329 26.8843 203.24 27.3081 204.332 27.3081C205.121 27.3081 206.517 27.1265 206.456 26.0365C206.395 24.9466 204.878 24.8255 203.361 24.4622C201.844 24.1595 200.327 23.554 200.327 21.6769C200.327 19.6182 202.572 18.9521 204.271 18.9521C206.213 18.9521 207.973 19.7393 208.216 21.8586H206.031C205.849 20.8898 204.999 20.587 204.089 20.587C203.482 20.587 202.39 20.7081 202.39 21.5558C202.39 22.5852 203.907 22.7063 205.485 23.0696C207.002 23.4329 208.58 23.9778 208.58 25.8549C208.58 28.0953 206.274 28.943 204.332 28.943C201.965 28.943 200.145 27.8531 200.145 25.6127L202.208 25.6732Z" fill="#636569"/>
<path d="M209.005 19.255H210.583V16.4092H212.707V19.255H214.588V20.8294H212.707V25.9156C212.707 26.7633 212.767 27.2477 213.738 27.2477C214.042 27.2477 214.345 27.2477 214.649 27.1872V28.822C214.163 28.8826 213.738 28.9431 213.314 28.9431C211.129 28.9431 210.704 28.0954 210.704 26.5211V20.9505H209.126V19.255H209.005Z" fill="#636569"/>
<path d="M215.923 15.6221H218.047V17.6202H215.923V15.6221ZM215.923 19.2551H218.047V28.7615H215.923V19.2551Z" fill="#636569"/>
<path d="M219.139 19.255H220.717V16.4092H222.841V19.255H224.723V20.8294H222.841V25.9156C222.841 26.7633 222.902 27.2477 223.873 27.2477C224.176 27.2477 224.48 27.2477 224.783 27.1872V28.822C224.298 28.8826 223.873 28.9431 223.448 28.9431C221.264 28.9431 220.839 28.0954 220.839 26.5211V20.9505H219.261V19.255H219.139Z" fill="#636569"/>
<path d="M234.372 28.7008H232.309V27.3686H232.248C231.762 28.3375 230.609 28.943 229.517 28.943C227.029 28.943 225.997 27.6714 225.997 25.2494V19.2549H228.121V25.0677C228.121 26.7631 228.789 27.3686 229.942 27.3686C231.702 27.3686 232.248 26.2787 232.248 24.765V19.2549H234.372V28.7008Z" fill="#636569"/>
<path d="M235.464 19.255H237.042V16.4092H239.166V19.255H241.047V20.8294H239.105V25.9156C239.105 26.7633 239.166 27.2477 240.137 27.2477C240.441 27.2477 240.744 27.2477 241.047 27.1872V28.822C240.562 28.8826 240.137 28.9431 239.712 28.9431C237.528 28.9431 237.103 28.0954 237.103 26.5211V20.9505H235.464V19.255Z" fill="#636569"/>
<path d="M243.96 24.5228C243.96 26.0365 244.749 27.3081 246.509 27.3081C247.723 27.3081 248.451 26.7632 248.815 25.7338H250.818C250.332 27.7925 248.573 28.943 246.509 28.943C243.536 28.943 241.836 26.8843 241.836 23.9778C241.836 21.2531 243.596 18.9521 246.448 18.9521C249.422 18.9521 251.303 21.6164 250.939 24.4622L243.96 24.5228ZM248.876 23.1301C248.815 21.798 247.905 20.6476 246.509 20.6476C245.053 20.6476 244.082 21.7375 244.021 23.1301H248.876Z" fill="#636569"/>
<path d="M111.36 46.2C111.36 43.2936 113.12 41.2349 116.154 41.2349C119.189 41.2349 120.948 43.2936 120.948 46.2C120.948 49.1064 119.189 51.2257 116.154 51.2257C113.12 51.2257 111.36 49.1064 111.36 46.2ZM118.824 46.2C118.824 44.5651 117.975 42.8697 116.094 42.8697C114.212 42.8697 113.423 44.5651 113.423 46.2C113.423 47.8349 114.273 49.5303 116.094 49.5303C118.036 49.5908 118.824 47.8349 118.824 46.2Z" fill="#636569"/>
<path d="M122.526 41.4771H124.529V42.8697L124.59 42.9303C125.197 41.9009 126.289 41.2349 127.563 41.2349C129.627 41.2349 130.901 42.3248 130.901 44.444V50.9229H128.777V44.989C128.716 43.4752 128.17 42.8697 126.896 42.8697C125.5 42.8697 124.59 43.9596 124.59 45.3523V50.9229H122.466V41.4771H122.526Z" fill="#636569"/>
<path d="M141.582 37.8442H144.009L149.046 50.9231H146.558L145.345 47.4718H140.125L138.912 50.9231H136.545L141.582 37.8442ZM140.793 45.7763H144.798L142.856 40.1452H142.796L140.793 45.7763Z" fill="#636569"/>
<path d="M158.635 50.4385C158.635 53.2844 156.936 54.6771 153.962 54.6771C152.081 54.6771 149.896 53.9505 149.714 51.7101H151.838C152.081 52.9211 153.052 53.1027 154.144 53.1027C155.843 53.1027 156.572 52.255 156.572 50.6807V49.2275H156.511C155.904 50.2569 154.812 50.9229 153.659 50.9229C150.624 50.9229 149.411 48.622 149.411 45.9578C149.411 43.4147 150.988 41.2349 153.719 41.2349C154.933 41.2349 156.025 41.7193 156.511 42.8092H156.572V41.5376H158.696V50.4385H158.635ZM156.511 46.0183C156.511 44.3835 155.783 42.8697 153.962 42.8697C152.081 42.8697 151.474 44.5651 151.474 46.2C151.474 47.7743 152.202 49.3486 153.962 49.3486C155.843 49.2881 156.511 47.5927 156.511 46.0183Z" fill="#636569"/>
<path d="M160.577 37.8442H162.701V39.8424H160.577V37.8442ZM160.577 41.4773H162.701V50.9837H160.577V41.4773Z" fill="#636569"/>
<path d="M164.764 41.4771H166.767V42.8697L166.828 42.9303C167.434 41.9009 168.527 41.2349 169.801 41.2349C171.865 41.2349 173.139 42.3248 173.139 44.444V50.9229H171.015V44.989C170.954 43.4752 170.408 42.8697 169.134 42.8697C167.738 42.8697 166.828 43.9596 166.828 45.3523V50.9229H164.704V41.4771H164.764Z" fill="#636569"/>
<path d="M183.941 50.4385C183.941 53.2844 182.242 54.6771 179.268 54.6771C177.387 54.6771 175.202 53.9505 175.02 51.7101H177.144C177.387 52.9211 178.358 53.1027 179.45 53.1027C181.15 53.1027 181.878 52.255 181.878 50.6807V49.2275H181.817C181.21 50.2569 180.118 50.9229 178.965 50.9229C175.931 50.9229 174.717 48.622 174.717 45.9578C174.717 43.4147 176.295 41.2349 179.026 41.2349C180.239 41.2349 181.332 41.7193 181.817 42.8092H181.878V41.5376H184.002L183.941 50.4385ZM181.817 46.0183C181.817 44.3835 181.089 42.8697 179.268 42.8697C177.387 42.8697 176.78 44.5651 176.78 46.2C176.78 47.7743 177.508 49.3486 179.268 49.3486C181.15 49.2881 181.817 47.5927 181.817 46.0183Z" fill="#636569"/>
</g>
<defs>
<clipPath id="clip0_75_4584">
<rect width="251" height="66" fill="white"/>
</clipPath>
</defs>
</svg>
