<svg width="359" height="61" viewBox="0 0 359 61" fill="none" xmlns="http://www.w3.org/2000/svg">
<g clip-path="url(#clip0_75_4579)">
<path d="M51.78 6.67008C37.65 -1.94992 15.37 -1.46992 1.12002 6.67008V29.3001C1.00002 41.5201 8.79002 52.8901 19.44 58.0401C21.84 59.2401 23.99 59.9601 26.51 60.5501C29.02 59.9501 31.18 59.1101 33.58 58.0401C44.23 52.7701 52.02 41.4001 51.9 29.3001L51.78 6.67008Z" fill="white"/>
<path d="M65.31 40.0798H64.23L64.11 31.3398H65.31C66.27 36.3698 68.78 38.8798 72.62 38.8798C75.85 38.8798 77.77 37.1998 77.77 34.5698C77.77 33.2498 77.29 32.2898 76.45 31.6998C75.37 30.9798 73.7 30.6198 71.54 30.0198C66.75 28.6998 64.35 27.5098 64.35 23.5498C64.35 19.8398 66.86 17.4398 70.82 17.4398C72.98 17.4398 74.89 18.1598 76.45 19.5998L77.65 17.7998H78.73L79.09 25.5798H77.89C76.69 21.1498 74.42 18.8698 70.82 18.8698C68.19 18.8698 66.63 20.1898 66.63 22.4598C66.63 25.3298 68.91 25.6898 72.86 26.6498C75.02 27.2498 76.81 27.6098 78.25 28.9298C79.45 30.0098 80.05 31.6798 80.05 33.5998C80.05 37.7898 77.42 40.3098 72.63 40.3098C70.23 40.3098 68.08 39.4698 66.64 38.0298L65.31 40.0798ZM80.4 27.1498V25.9498C82.91 25.7098 84.23 23.6698 84.47 19.7198H85.79V25.8298H90.1V27.1498H85.67V35.8898C85.67 37.5698 86.03 38.3998 87.47 38.3998C89.15 38.3998 89.87 37.0798 89.98 34.3298H91.06C91.06 34.4498 91.06 34.5698 91.06 34.6898C91.06 38.2798 89.38 40.3198 86.39 40.3198C83.64 40.3198 82.92 38.9998 82.92 36.1298V27.1498H80.4ZM98.48 25.2298C102.43 25.2298 105.19 28.2198 105.19 32.6498C105.19 37.0798 102.44 40.0698 98.48 40.0698C94.53 40.0698 91.65 37.0798 91.65 32.6498C91.65 28.2198 94.53 25.2298 98.48 25.2298ZM98.48 38.9998C101.11 38.9998 102.19 37.0798 102.19 32.7698C102.19 28.4598 101.11 26.5398 98.48 26.5398C95.85 26.5398 94.77 28.5798 94.77 32.7698C94.77 36.9598 95.85 38.9998 98.48 38.9998ZM105.91 38.3998L107.23 38.2798C108.07 38.2798 108.19 38.0398 108.19 37.1998V28.0998C108.19 27.1398 107.83 26.8998 106.51 26.8998C106.27 26.8998 105.91 26.8998 105.55 26.8998V25.6998L110.7 25.3398V28.2098C112.02 26.1698 113.57 25.3398 115.61 25.3398C118.48 25.3398 120.16 27.0198 120.16 30.1298V37.1998C120.16 38.0398 120.4 38.2798 121.12 38.2798L122.44 38.3998V39.7198H115.13V38.3998L116.45 38.2798C117.29 38.2798 117.41 38.0398 117.41 37.1998V30.0098C117.41 28.2098 116.45 27.1398 114.66 27.1398C112.15 27.1398 110.83 28.8198 110.83 32.1698V37.1998C110.83 38.0398 110.95 38.2798 111.79 38.2798L113.11 38.3998V39.7198H105.8V38.3998H105.91ZM124.11 28.3398C123.87 27.8598 123.63 27.4998 123.39 27.3798C123.03 27.1398 122.43 27.0198 121.71 27.0198V25.6998H128.78V27.0198C128.42 27.0198 128.18 27.0198 128.06 27.0198C127.22 27.0198 126.86 27.1398 126.86 27.6198C126.86 27.8598 126.98 28.0998 127.22 28.5798L130.45 35.8898L133.44 28.6998C133.56 28.4598 133.56 28.3398 133.56 27.9798C133.56 27.1398 132.96 27.0198 131.4 26.8998V25.5798H137.27V26.8998C136.19 26.8998 135.47 27.3798 134.99 28.5798L129.84 40.4398C128.28 44.0298 126.61 45.9498 123.97 45.9498C122.17 45.9498 121.22 44.9898 121.22 43.6698C121.22 42.7098 121.94 41.8698 123.02 41.8698C123.98 41.8698 124.58 42.4698 124.58 43.3098C124.58 43.7898 124.34 44.0298 124.34 44.1498C124.34 44.3898 124.58 44.5098 124.94 44.5098C125.9 44.5098 127.45 42.9498 128.65 39.7198L128.89 39.2398L124.11 28.3398ZM142.68 38.2798H144.24C145.44 38.2798 145.8 38.0398 145.8 36.8398V20.7998C145.8 19.5998 145.44 19.3598 144.24 19.3598H142.68V17.9198H154.06C158.37 17.9198 160.53 19.8398 160.53 23.1898C160.53 25.8198 158.85 27.4998 155.5 28.2198C159.69 28.8198 161.73 30.6198 161.73 33.8498C161.73 37.4398 158.86 39.7198 153.71 39.7198H142.69V38.2798H142.68ZM149.02 27.7498H151.42C155.25 27.7498 157.05 26.7898 157.05 23.5598C157.05 20.5698 155.73 19.3698 152.5 19.3698H150.58C149.38 19.3698 149.02 19.7298 149.02 20.6898V27.7498ZM149.02 36.8498C149.02 37.9298 149.38 38.2898 150.7 38.2898H152.86C156.45 38.2898 158.01 36.9698 158.01 33.7398C158.01 30.2698 156.09 29.0698 151.78 29.0698H149.03C149.02 29.0598 149.02 36.8498 149.02 36.8498ZM168.66 38.3998L170.46 38.5198V39.8398H162.56V38.5198L164 38.3998C164.84 38.3998 164.96 38.1598 164.96 37.3198V28.2198C164.96 27.1398 164.6 27.0198 163.16 27.0198C162.92 27.0198 162.56 27.0198 162.2 27.0198V25.8198L167.47 25.4598V29.6498C168.43 26.7798 169.98 25.3398 171.9 25.3398C173.58 25.3398 174.65 26.4198 174.65 27.8498C174.65 28.9298 173.93 29.7698 172.85 29.7698C171.77 29.7698 171.05 29.0498 171.05 28.0898C171.05 27.4898 171.29 27.0098 171.65 26.7698C171.53 26.7698 171.53 26.7698 171.41 26.7698C169.49 26.7698 167.58 29.6398 167.58 34.0798V37.3098C167.58 38.1598 167.82 38.3998 168.66 38.3998ZM181.72 25.2298C185.67 25.2298 188.43 28.2198 188.43 32.6498C188.43 37.0798 185.68 40.0698 181.72 40.0698C177.77 40.0698 174.89 37.0798 174.89 32.6498C174.89 28.2198 177.76 25.2298 181.72 25.2298ZM181.72 38.9998C184.35 38.9998 185.43 37.0798 185.43 32.7698C185.43 28.4598 184.35 26.5398 181.72 26.5398C179.09 26.5398 178.01 28.5798 178.01 32.7698C178.12 36.9698 179.2 38.9998 181.72 38.9998ZM196.69 25.2298C200.64 25.2298 203.4 28.2198 203.4 32.6498C203.4 37.0798 200.65 40.0698 196.69 40.0698C192.74 40.0698 189.86 37.0798 189.86 32.6498C189.86 28.2198 192.73 25.2298 196.69 25.2298ZM196.57 38.9998C199.2 38.9998 200.28 37.0798 200.28 32.7698C200.28 28.4598 199.2 26.5398 196.57 26.5398C193.94 26.5398 192.86 28.5798 192.86 32.7698C192.97 36.9698 194.05 38.9998 196.57 38.9998ZM203.51 38.3998L204.83 38.2798C205.67 38.2798 205.91 38.0398 205.91 37.1998V20.0798C205.91 19.1198 205.55 18.8798 204.23 18.8798C203.99 18.8798 203.63 18.8798 203.39 18.8798V17.6798L208.66 17.3198V32.2998L213.33 28.1098C213.57 27.8698 213.69 27.6298 213.69 27.3898C213.69 27.0298 213.21 26.9098 212.13 26.9098H211.17V25.7098H218.83V26.9098C218.71 26.9098 218.71 26.9098 218.59 26.9098C216.67 26.9098 215.48 27.8698 213.92 29.3098L212.36 30.7498L217.15 37.0998C217.87 38.1798 218.71 38.5398 220.14 38.5398V39.8598H212.36V38.5398L213.32 38.4198C214.04 38.4198 214.4 38.2998 214.4 37.9398C214.4 37.6998 214.28 37.5798 214.16 37.3398L210.57 32.4298L208.77 34.1098V37.3398C208.77 38.1798 209.01 38.4198 209.85 38.4198L211.17 38.5398V39.8598H203.75V38.3998H203.51Z" fill="black"/>
<path d="M234.77 17.9298V19.3698H233.21C232.01 19.3698 231.65 19.7298 231.65 20.8098V33.0298C231.65 36.8598 233.57 38.6598 237.64 38.6598C240.39 38.6598 242.19 37.6998 243.03 35.9098C243.39 35.0698 243.51 33.6298 243.51 31.7198V22.2598C243.51 20.4598 243.15 19.5098 241.35 19.5098H240.03V17.9498H248.29V19.3898H247.21C245.53 19.3898 245.05 20.2298 245.05 22.1398V31.7198C245.05 37.5898 242.89 40.2198 236.67 40.2198C231.16 40.2198 228.41 37.8198 228.41 32.9098V20.7998C228.41 19.5998 228.05 19.3598 226.85 19.3598H224.93V17.9198H234.77V17.9298ZM246.74 38.3998L248.06 38.2798C248.9 38.2798 249.02 38.0398 249.02 37.1998V28.0998C249.02 27.1398 248.66 26.8998 247.34 26.8998C247.1 26.8998 246.74 26.8998 246.38 26.8998V25.6998L251.53 25.3398V28.2098C252.85 26.1698 254.4 25.3398 256.44 25.3398C259.31 25.3398 260.99 27.0198 260.99 30.1298V37.1998C260.99 38.0398 261.23 38.2798 261.95 38.2798L263.27 38.3998V39.7198H255.96V38.3998L257.28 38.2798C258.12 38.2798 258.24 38.0398 258.24 37.1998V30.0098C258.24 28.2098 257.28 27.1398 255.49 27.1398C252.98 27.1398 251.66 28.8198 251.66 32.1698V37.1998C251.66 38.0398 251.78 38.2798 252.62 38.2798L253.94 38.3998V39.7198H246.63V38.3998H246.74ZM263.99 38.3998L265.43 38.2798C266.27 38.2798 266.51 38.0398 266.51 37.1998V28.0998C266.51 27.1398 266.15 26.8998 264.83 26.8998C264.59 26.8998 264.23 26.8998 263.99 26.8998V25.6998L269.26 25.3398V37.1998C269.26 38.0398 269.5 38.2798 270.34 38.2798L271.66 38.3998V39.7198H264.12V38.3998H263.99ZM269.62 19.7198C269.62 20.6798 268.78 21.5198 267.82 21.5198C266.86 21.5198 266.02 20.6798 266.02 19.7198C266.02 18.7598 266.86 17.9198 267.82 17.9198C268.78 17.9198 269.62 18.7598 269.62 19.7198ZM278.36 40.1998L273.09 28.2198C272.73 27.2598 272.25 27.0198 271.17 27.0198C271.05 27.0198 271.05 27.0198 270.93 27.0198V25.6998H277.64V27.0198C276.32 27.0198 275.84 27.1398 275.84 27.7398C275.84 27.9798 275.96 28.2198 276.2 28.6998L279.43 36.2398L282.06 29.2898C282.3 28.8098 282.42 28.4498 282.42 28.0898C282.42 27.4898 281.82 27.0098 280.74 27.0098C280.62 27.0098 280.5 27.0098 280.38 27.0098V25.6898H286.25V27.0098C284.93 27.0098 284.21 27.7298 283.74 29.1698L279.31 40.1898H278.36V40.1998ZM289.14 33.6098C289.14 36.8398 290.82 38.6398 293.09 38.6398C295.13 38.6398 296.8 37.5598 297.88 35.4098L298.96 36.0098C297.64 38.8798 295.49 40.1998 292.61 40.1998C288.78 40.1998 286.02 37.3298 286.02 32.7798C286.02 28.3498 288.77 25.3598 292.61 25.3598C296.45 25.3598 298.96 27.9898 298.96 32.5498C298.96 32.7898 298.96 32.9098 298.96 33.1498H289.14C289.14 33.1298 289.14 33.3698 289.14 33.6098ZM294.77 31.6998C295.61 31.6998 295.85 31.4598 295.85 30.7398C295.85 27.9898 294.65 26.5498 292.62 26.5498C290.34 26.5498 289.27 28.2298 289.15 31.6998H294.77ZM305.79 38.3998L307.59 38.5198V39.8398H299.69V38.5198L301.13 38.3998C301.97 38.3998 302.09 38.1598 302.09 37.3198V28.2198C302.09 27.1398 301.73 27.0198 300.29 27.0198C300.05 27.0198 299.69 27.0198 299.33 27.0198V25.8198L304.6 25.4598V29.6498C305.56 26.7798 307.11 25.3398 309.03 25.3398C310.71 25.3398 311.78 26.4198 311.78 27.8498C311.78 28.9298 311.06 29.7698 309.98 29.7698C308.9 29.7698 308.18 29.0498 308.18 28.0898C308.18 27.4898 308.42 27.0098 308.78 26.7698C308.66 26.7698 308.66 26.7698 308.54 26.7698C306.62 26.7698 304.71 29.6398 304.71 34.0798V37.3098C304.71 38.1598 304.95 38.3998 305.79 38.3998ZM313.69 34.2098C314.41 37.3198 316.2 38.9998 318.6 38.9998C320.52 38.9998 321.71 38.0398 321.71 36.4898C321.71 34.9398 320.51 34.5698 318.6 34.2098C315.01 33.4898 312.73 32.7698 312.73 29.4198C312.73 26.9098 314.41 25.3498 316.92 25.3498C318.36 25.3498 319.43 25.5898 320.75 26.5498L321.59 25.4698H322.55V30.4998H321.59C320.75 27.8698 319.19 26.5498 317.16 26.5498C315.48 26.5498 314.41 27.5098 314.41 28.5898C314.41 30.3898 315.73 30.6298 318.12 31.0998C321.71 31.8198 323.51 32.6598 323.51 35.6498C323.51 38.5198 321.59 40.3198 318.48 40.3198C317.04 40.3198 315.85 39.8398 314.53 38.8798L313.57 40.3198H312.61V34.3298H313.69V34.2098ZM324.59 38.3998L326.03 38.2798C326.87 38.2798 327.11 38.0398 327.11 37.1998V28.0998C327.11 27.1398 326.75 26.8998 325.43 26.8998C325.19 26.8998 324.83 26.8998 324.59 26.8998V25.6998L329.86 25.3398V37.1998C329.86 38.0398 330.1 38.2798 330.94 38.2798L332.26 38.3998V39.7198H324.72V38.3998H324.59ZM330.22 19.7198C330.22 20.6798 329.38 21.5198 328.42 21.5198C327.46 21.5198 326.62 20.6798 326.62 19.7198C326.62 18.7598 327.46 17.9198 328.42 17.9198C329.26 17.9298 330.22 18.7598 330.22 19.7198ZM331.89 27.1498V25.9498C334.4 25.7098 335.72 23.6698 335.96 19.7198H337.28V25.8298H341.59V27.1498H337.16V35.8898C337.16 37.5698 337.52 38.3998 338.96 38.3998C340.64 38.3998 341.36 37.0798 341.47 34.3298H342.55C342.55 34.4498 342.55 34.5698 342.55 34.6898C342.55 38.2798 340.87 40.3198 337.88 40.3198C335.13 40.3198 334.41 38.9998 334.41 36.1298V27.1498H331.89ZM344.83 28.3398C344.59 27.8598 344.35 27.4998 344.11 27.3798C343.75 27.1398 343.15 27.0198 342.43 27.0198V25.6998H349.5V27.0198C349.14 27.0198 348.9 27.0198 348.78 27.0198C347.94 27.0198 347.58 27.1398 347.58 27.6198C347.58 27.8598 347.7 28.0998 347.94 28.5798L351.17 35.8898L354.16 28.6998C354.28 28.4598 354.28 28.3398 354.28 27.9798C354.28 27.1398 353.68 27.0198 352.12 26.8998V25.5798H358V26.8998C356.92 26.8998 356.2 27.3798 355.72 28.5798L350.57 40.4398C349.01 44.0298 347.34 45.9498 344.7 45.9498C342.9 45.9498 341.95 44.9898 341.95 43.6698C341.95 42.7098 342.67 41.8698 343.75 41.8698C344.71 41.8698 345.31 42.4698 345.31 43.3098C345.31 43.7898 345.07 44.0298 345.07 44.1498C345.07 44.3898 345.31 44.5098 345.67 44.5098C346.63 44.5098 348.18 42.9498 349.38 39.7198L349.62 39.2398L344.83 28.3398ZM43.64 50.3798L32.98 0.559824C32.5 0.559824 32.02 0.439824 31.66 0.439824L40.52 53.3698C41.6 52.4198 42.68 51.4598 43.64 50.3798ZM51.78 31.0998L39.44 1.63982C38.96 1.51982 38.48 1.39982 38 1.39982L51.05 36.1298C51.54 34.4498 51.66 32.7798 51.78 31.0998ZM33.46 58.1598C34.3 57.7998 35.02 57.3198 35.86 56.8398L29.74 0.319824C29.26 0.319824 28.78 0.319824 28.3 0.319824L32.01 58.7598C32.5 58.6398 32.98 58.3998 33.46 58.1598ZM49.14 41.8798L36.09 1.03982C35.61 0.919824 35.13 0.919824 34.77 0.799824L47.11 45.7098C47.83 44.5098 48.55 43.1898 49.14 41.8798ZM51.9 6.54982C48.79 4.62982 45.19 3.19982 41.48 2.11982L51.9 23.9198V6.54982ZM1.00002 6.54982V29.1798C0.880025 41.5198 8.67002 52.8898 19.32 58.1598C21.72 59.3598 23.87 60.0798 26.39 60.6698V0.319824C17.29 0.319824 8.19002 2.47982 1.00002 6.54982ZM16.69 27.3898L18.13 31.6998L14.42 28.9498L10.7 31.6998L12.14 27.3898L8.43003 24.7598H12.98L14.42 20.4498L15.86 24.7598H20.41L16.69 27.3898Z" fill="#990000"/>
</g>
<defs>
<clipPath id="clip0_75_4579">
<rect width="359" height="61" fill="white"/>
</clipPath>
</defs>
</svg>
