<svg width="223" height="54" viewBox="0 0 223 54" fill="none" xmlns="http://www.w3.org/2000/svg">
<path fill-rule="evenodd" clip-rule="evenodd" d="M94.2074 23.2143L10.5406 42.9459L10.4438 42.4983L94.1107 22.7667L94.2074 23.2143Z" fill="#D0D4D9"/>
<path fill-rule="evenodd" clip-rule="evenodd" d="M32.5006 48.9113L3.07446 28.2619L3.31934 27.881L32.7455 48.5303L32.5006 48.9113Z" fill="#D0D4D9"/>
<path fill-rule="evenodd" clip-rule="evenodd" d="M60.1696 43.4047L26.3515 9.67739L26.6548 9.34546L60.4729 43.0727L60.1696 43.4047Z" fill="#D0D4D9"/>
<path fill-rule="evenodd" clip-rule="evenodd" d="M60.1699 10.1364L32.5005 48.4524L32.1499 48.176L59.8193 9.86001L60.1699 10.1364Z" fill="#D0D4D9"/>
<path fill-rule="evenodd" clip-rule="evenodd" d="M100.576 27.1147L59.7303 2.79431L59.9478 2.39563L100.793 26.716L100.576 27.1147Z" fill="#D0D4D9"/>
<path fill-rule="evenodd" clip-rule="evenodd" d="M60.1696 10.5952L100.576 26.6558L100.419 27.0847L60.0134 11.0241L60.1696 10.5952Z" fill="#D0D4D9"/>
<path fill-rule="evenodd" clip-rule="evenodd" d="M59.7307 10.5952V2.79431H60.1699V10.5952H59.7307Z" fill="#D0D4D9"/>
<path fill-rule="evenodd" clip-rule="evenodd" d="M88.0587 34.2272L59.7305 2.79431L60.0503 2.47974L88.3784 33.9126L88.0587 34.2272Z" fill="#D0D4D9"/>
<path fill-rule="evenodd" clip-rule="evenodd" d="M60.1698 43.4047L100.576 26.6557L100.738 27.0823L60.3317 43.8312L60.1698 43.4047Z" fill="#D0D4D9"/>
<path fill-rule="evenodd" clip-rule="evenodd" d="M60.6088 50.7468L100.576 25.9676L100.8 26.3622L60.833 51.1414L60.6088 50.7468Z" fill="#D0D4D9"/>
<path fill-rule="evenodd" clip-rule="evenodd" d="M73.3454 38.3572L43.4801 26.6559L43.6343 26.2262L73.4996 37.9275L73.3454 38.3572Z" fill="#D0D4D9"/>
<path fill-rule="evenodd" clip-rule="evenodd" d="M60.1697 43.4047V51.2056H59.7305V43.4047H60.1697Z" fill="#D0D4D9"/>
<path fill-rule="evenodd" clip-rule="evenodd" d="M71.1494 14.7251L60.1695 43.4048L59.7617 43.2344L70.7416 14.5547L71.1494 14.7251Z" fill="#D0D4D9"/>
<path fill-rule="evenodd" clip-rule="evenodd" d="M72.6866 10.1363L71.1494 14.7251L70.7349 14.5735L72.2721 9.98474L72.6866 10.1363Z" fill="#D0D4D9"/>
<path d="M28.5477 9.67743C28.5477 10.9446 27.5645 11.9718 26.3517 11.9718C25.1389 11.9718 24.1558 10.9446 24.1558 9.67743C24.1558 8.41028 25.1389 7.38306 26.3517 7.38306C27.5645 7.38306 28.5477 8.41028 28.5477 9.67743Z" fill="#275A6D"/>
<path d="M61.9266 2.79437C61.9266 4.06152 60.9435 5.08874 59.7306 5.08874C58.5178 5.08874 57.5347 4.06152 57.5347 2.79437C57.5347 1.52723 58.5178 0.5 59.7306 0.5C60.9435 0.5 61.9266 1.52723 61.9266 2.79437Z" fill="#307485"/>
<path d="M61.9266 10.5953C61.9266 11.8624 60.9435 12.8896 59.7306 12.8896C58.5178 12.8896 57.5347 11.8624 57.5347 10.5953C57.5347 9.32813 58.5178 8.3009 59.7306 8.3009C60.9435 8.3009 61.9266 9.32813 61.9266 10.5953Z" fill="#307485"/>
<path d="M72.6869 14.7252C72.6869 15.9923 71.7037 17.0195 70.4909 17.0195C69.2781 17.0195 68.2949 15.9923 68.2949 14.7252C68.2949 13.458 69.2781 12.4308 70.4909 12.4308C71.7037 12.4308 72.6869 13.458 72.6869 14.7252Z" fill="#307485"/>
<path d="M102.333 26.6558C102.333 27.923 101.35 28.9502 100.137 28.9502C98.9241 28.9502 97.9409 27.923 97.9409 26.6558C97.9409 25.3887 98.9241 24.3615 100.137 24.3615C101.35 24.3615 102.333 25.3887 102.333 26.6558Z" fill="#3A909B"/>
<path d="M90.2548 34.2272C90.2548 35.4944 89.2716 36.5216 88.0588 36.5216C86.846 36.5216 85.8628 35.4944 85.8628 34.2272C85.8628 32.9601 86.846 31.9329 88.0588 31.9329C89.2716 31.9329 90.2548 32.9601 90.2548 34.2272Z" fill="#3A909B"/>
<path d="M82.7884 25.5086C82.7884 26.7758 81.8053 27.803 80.5925 27.803C79.3797 27.803 78.3965 26.7758 78.3965 25.5086C78.3965 24.2415 79.3797 23.2142 80.5925 23.2142C81.8053 23.2142 82.7884 24.2415 82.7884 25.5086Z" fill="#3A909B"/>
<path d="M67.1971 30.0974C67.1971 31.3645 66.214 32.3917 65.0012 32.3917C63.7883 32.3917 62.8052 31.3645 62.8052 30.0974C62.8052 28.8302 63.7883 27.803 65.0012 27.803C66.214 27.803 67.1971 28.8302 67.1971 30.0974Z" fill="#307485"/>
<path d="M75.5419 37.8983C75.5419 39.1654 74.5587 40.1926 73.3459 40.1926C72.1331 40.1926 71.1499 39.1654 71.1499 37.8983C71.1499 36.6311 72.1331 35.6039 73.3459 35.6039C74.5587 35.6039 75.5419 36.6311 75.5419 37.8983Z" fill="#3A909B"/>
<path d="M62.3661 43.4047C62.3661 44.6719 61.3829 45.6991 60.1701 45.6991C58.9573 45.6991 57.9741 44.6719 57.9741 43.4047C57.9741 42.1376 58.9573 41.1104 60.1701 41.1104C61.3829 41.1104 62.3661 42.1376 62.3661 43.4047Z" fill="#307485"/>
<path d="M62.3661 51.2056C62.3661 52.4728 61.3829 53.5 60.1701 53.5C58.9573 53.5 57.9741 52.4728 57.9741 51.2056C57.9741 49.9385 58.9573 48.9113 60.1701 48.9113C61.3829 48.9113 62.3661 49.9385 62.3661 51.2056Z" fill="#307485"/>
<path d="M34.6966 48.9112C34.6966 50.1783 33.7135 51.2056 32.5007 51.2056C31.2879 51.2056 30.3047 50.1783 30.3047 48.9112C30.3047 47.644 31.2879 46.6168 32.5007 46.6168C33.7135 46.6168 34.6966 47.644 34.6966 48.9112Z" fill="#275A6D"/>
<path d="M45.6766 26.6558C45.6766 27.923 44.6935 28.9502 43.4806 28.9502C42.2678 28.9502 41.2847 27.923 41.2847 26.6558C41.2847 25.3887 42.2678 24.3615 43.4806 24.3615C44.6935 24.3615 45.6766 25.3887 45.6766 26.6558Z" fill="#275A6D"/>
<path d="M4.39196 27.803C4.39196 29.0702 3.40879 30.0974 2.19598 30.0974C0.983174 30.0974 0 29.0702 0 27.803C0 26.5359 0.983174 25.5087 2.19598 25.5087C3.40879 25.5087 4.39196 26.5359 4.39196 27.803Z" fill="#275A6D"/>
<path d="M10.5409 43.4047C10.5409 44.6719 9.55771 45.6991 8.34491 45.6991C7.1321 45.6991 6.14893 44.6719 6.14893 43.4047C6.14893 42.1376 7.1321 41.1104 8.34491 41.1104C9.55771 41.1104 10.5409 42.1376 10.5409 43.4047Z" fill="#275A6D"/>
<path d="M121.543 18.9936C121.61 18.9936 121.666 19.018 121.713 19.0668L122.112 19.5167C121.819 19.8445 121.5 20.1409 121.154 20.4059C120.814 20.664 120.438 20.8872 120.026 21.0755C119.62 21.2568 119.171 21.3963 118.678 21.494C118.193 21.5986 117.657 21.6509 117.071 21.6509C116.093 21.6509 115.195 21.473 114.377 21.1173C113.565 20.7546 112.866 20.2455 112.281 19.5899C111.695 18.9273 111.239 18.1287 110.913 17.1941C110.594 16.2595 110.434 15.2203 110.434 14.0765C110.434 12.9536 110.6 11.9283 110.933 11.0007C111.266 10.0731 111.732 9.27799 112.33 8.61541C112.929 7.94585 113.648 7.42973 114.486 7.06705C115.325 6.6974 116.25 6.51257 117.261 6.51257C118.226 6.51257 119.081 6.6695 119.826 6.98336C120.572 7.29721 121.25 7.7401 121.862 8.31201L121.553 8.7828C121.5 8.86649 121.417 8.90834 121.303 8.90834C121.224 8.90834 121.094 8.83162 120.914 8.67818C120.735 8.52474 120.485 8.35735 120.166 8.17601C119.846 7.9877 119.447 7.81682 118.968 7.66338C118.495 7.50994 117.927 7.43322 117.261 7.43322C116.409 7.43322 115.628 7.58666 114.916 7.89354C114.21 8.20042 113.601 8.63982 113.089 9.21173C112.583 9.78365 112.187 10.4811 111.901 11.3041C111.615 12.1271 111.472 13.0512 111.472 14.0765C111.472 15.1227 111.615 16.0573 111.901 16.8803C112.194 17.7033 112.593 18.4007 113.099 18.9726C113.605 19.5376 114.2 19.9735 114.886 20.2804C115.578 20.5803 116.323 20.7302 117.121 20.7302C117.627 20.7302 118.076 20.6954 118.469 20.6256C118.868 20.5559 119.234 20.4513 119.567 20.3118C119.899 20.1723 120.209 20.0014 120.495 19.7991C120.781 19.5969 121.064 19.3597 121.343 19.0877C121.377 19.0598 121.41 19.0389 121.443 19.025C121.476 19.004 121.51 18.9936 121.543 18.9936Z" fill="#3A909B"/>
<path d="M135.742 6.67996V21.4835H134.714V14.3904H125.87V21.4835H124.842V6.67996H125.87V13.5848H134.714V6.67996H135.742Z" fill="#3A909B"/>
<path d="M147.527 16.1061L144.652 8.62587C144.553 8.38176 144.456 8.08883 144.363 7.74707C144.323 7.91446 144.28 8.07488 144.233 8.22832C144.187 8.37478 144.137 8.51079 144.084 8.63633L141.209 16.1061H147.527ZM150.651 21.4835H149.863C149.769 21.4835 149.693 21.4591 149.633 21.4103C149.573 21.3545 149.527 21.2847 149.493 21.201L147.836 16.9012H140.9L139.243 21.201C139.216 21.2777 139.17 21.344 139.103 21.3998C139.036 21.4556 138.957 21.4835 138.863 21.4835H138.085L143.864 6.67996H144.872L150.651 21.4835Z" fill="#3A909B"/>
<path d="M160.708 20.5733V21.4835H152.992V6.67996H154.02V20.5733H160.708Z" fill="#3A909B"/>
<path d="M170.806 20.5733V21.4835H163.09V6.67996H164.118V20.5733H170.806Z" fill="#3A909B"/>
<path d="M181.672 20.5942L181.652 21.4835H173.188V6.67996H181.652V7.56922H174.216V13.5534H180.405V14.4217H174.216V20.5942H181.672Z" fill="#3A909B"/>
<path d="M195.667 6.67996V21.4835H195.188C195.102 21.4835 195.028 21.4695 194.969 21.4416C194.915 21.4068 194.862 21.351 194.809 21.2743L185.636 8.42709C185.656 8.63633 185.666 8.83511 185.666 9.02342V21.4835H184.768V6.67996H185.277C185.37 6.67996 185.44 6.69391 185.486 6.72181C185.54 6.74273 185.596 6.79504 185.656 6.87874L194.809 19.6945C194.789 19.4853 194.779 19.2865 194.779 19.0982V6.67996H195.667Z" fill="#3A909B"/>
<path d="M211.116 14.767V20.0293C210.41 20.5524 209.658 20.9534 208.86 21.2324C208.061 21.5114 207.163 21.6509 206.165 21.6509C205.047 21.6509 204.042 21.473 203.151 21.1173C202.259 20.7546 201.497 20.2455 200.865 19.5899C200.24 18.9273 199.757 18.1287 199.418 17.1941C199.085 16.2595 198.919 15.2203 198.919 14.0765C198.919 12.9327 199.082 11.8969 199.408 10.9693C199.74 10.0347 200.213 9.23963 200.825 8.58402C201.444 7.92144 202.189 7.41229 203.061 7.05659C203.933 6.69391 204.914 6.51257 206.005 6.51257C206.544 6.51257 207.04 6.55093 207.492 6.62765C207.952 6.70437 208.377 6.81945 208.77 6.9729C209.163 7.11936 209.529 7.30419 209.868 7.52737C210.207 7.74359 210.533 7.99467 210.846 8.28063L210.567 8.74095C210.473 8.90834 210.334 8.9467 210.147 8.85603C210.048 8.81418 209.905 8.71654 209.718 8.5631C209.532 8.40966 209.276 8.24924 208.95 8.08185C208.624 7.91446 208.218 7.76451 207.732 7.63199C207.253 7.49948 206.667 7.43322 205.975 7.43322C205.057 7.43322 204.225 7.58666 203.48 7.89354C202.741 8.20042 202.109 8.63982 201.584 9.21173C201.065 9.78365 200.662 10.4811 200.376 11.3041C200.096 12.1271 199.957 13.0512 199.957 14.0765C199.957 15.1157 200.096 16.0503 200.376 16.8803C200.662 17.7102 201.071 18.4147 201.604 18.9936C202.143 19.5725 202.795 20.0153 203.56 20.3222C204.325 20.6291 205.187 20.7825 206.145 20.7825C206.564 20.7825 206.95 20.7546 207.303 20.6989C207.662 20.6431 208.001 20.5663 208.321 20.4687C208.647 20.3641 208.96 20.2385 209.259 20.0921C209.565 19.9386 209.875 19.7677 210.187 19.5794V15.5935H207.482C207.409 15.5935 207.346 15.5691 207.293 15.5202C207.246 15.4714 207.223 15.4156 207.223 15.3528V14.767H211.116Z" fill="#3A909B"/>
<path d="M223 20.5942L222.98 21.4835H214.516V6.67996H222.98V7.56922H215.544V13.5534H221.732V14.4217H215.544V20.5942H223Z" fill="#3A909B"/>
<path d="M115.005 40.5093C115.624 40.5093 116.18 40.4186 116.672 40.2373C117.165 40.056 117.581 39.8049 117.92 39.484C118.266 39.1632 118.529 38.7866 118.708 38.3542C118.895 37.9148 118.988 37.437 118.988 36.9209C118.988 35.784 118.655 34.9087 117.99 34.295C117.324 33.6812 116.33 33.3743 115.005 33.3743H112.38V40.5093H115.005ZM115.005 32.5269C116.662 32.5269 117.91 32.907 118.748 33.6672C119.593 34.4275 120.016 35.512 120.016 36.9209C120.016 37.5695 119.899 38.1658 119.667 38.7099C119.434 39.2539 119.101 39.7247 118.668 40.1222C118.236 40.5128 117.71 40.8197 117.091 41.0429C116.473 41.2591 115.777 41.3672 115.005 41.3672H112.38V47.3304H111.352V32.5269H115.005Z" fill="#3A909B"/>
<path d="M135.439 39.9234C135.439 41.0673 135.276 42.1065 134.95 43.0411C134.624 43.9687 134.165 44.7638 133.573 45.4264C132.981 46.082 132.269 46.5911 131.437 46.9538C130.612 47.3095 129.7 47.4874 128.702 47.4874C127.704 47.4874 126.792 47.3095 125.967 46.9538C125.142 46.5911 124.433 46.082 123.841 45.4264C123.249 44.7638 122.79 43.9687 122.464 43.0411C122.138 42.1065 121.975 41.0673 121.975 39.9234C121.975 38.7866 122.138 37.7544 122.464 36.8267C122.79 35.8921 123.249 35.097 123.841 34.4414C124.433 33.7788 125.142 33.2662 125.967 32.9035C126.792 32.5409 127.704 32.3595 128.702 32.3595C129.7 32.3595 130.612 32.5409 131.437 32.9035C132.269 33.2592 132.981 33.7684 133.573 34.431C134.165 35.0935 134.624 35.8921 134.95 36.8267C135.276 37.7544 135.439 38.7866 135.439 39.9234ZM134.381 39.9234C134.381 38.8912 134.245 37.9636 133.972 37.1406C133.699 36.3176 133.313 35.6201 132.814 35.0482C132.315 34.4763 131.716 34.0404 131.018 33.7405C130.319 33.4336 129.547 33.2802 128.702 33.2802C127.864 33.2802 127.095 33.4336 126.396 33.7405C125.698 34.0404 125.095 34.4763 124.59 35.0482C124.091 35.6201 123.701 36.3176 123.422 37.1406C123.149 37.9636 123.013 38.8912 123.013 39.9234C123.013 40.9627 123.149 41.8938 123.422 42.7168C123.701 43.5328 124.091 44.2268 124.59 44.7987C125.095 45.3706 125.698 45.8065 126.396 46.1064C127.095 46.4063 127.864 46.5563 128.702 46.5563C129.547 46.5563 130.319 46.4063 131.018 46.1064C131.716 45.8065 132.315 45.3706 132.814 44.7987C133.313 44.2268 133.699 43.5328 133.972 42.7168C134.245 41.8938 134.381 40.9627 134.381 39.9234Z" fill="#3A909B"/>
<path d="M142.157 39.8397C142.782 39.8397 143.341 39.763 143.834 39.6096C144.333 39.4492 144.752 39.2225 145.091 38.9296C145.437 38.6366 145.7 38.2844 145.88 37.8729C146.059 37.4614 146.149 36.9976 146.149 36.4815C146.149 35.4283 145.82 34.6472 145.161 34.138C144.509 33.6289 143.554 33.3743 142.296 33.3743H139.711V39.8397H142.157ZM148.425 47.3304H147.547C147.433 47.3304 147.337 47.313 147.257 47.2781C147.184 47.2363 147.114 47.163 147.047 47.0584L142.516 41.0533C142.463 40.9766 142.406 40.9103 142.346 40.8545C142.293 40.7987 142.23 40.7569 142.157 40.729C142.09 40.6941 142.007 40.6697 141.907 40.6558C141.814 40.6418 141.698 40.6348 141.558 40.6348H139.711V47.3304H138.683V32.5269H142.296C143.92 32.5269 145.134 32.8582 145.94 33.5208C146.751 34.1764 147.157 35.1424 147.157 36.4187C147.157 36.9837 147.064 37.4998 146.878 37.9671C146.691 38.4344 146.422 38.8459 146.069 39.2016C145.723 39.5503 145.301 39.8363 144.802 40.0594C144.309 40.2826 143.754 40.4326 143.135 40.5093C143.295 40.6139 143.438 40.7534 143.564 40.9278L148.425 47.3304Z" fill="#3A909B"/>
<path d="M159.407 33.4371H154.446V47.3304H153.418V33.4371H148.427V32.5269H159.407V33.4371Z" fill="#3A909B"/>
<path d="M168.016 41.953L165.141 34.4728C165.041 34.2287 164.945 33.9358 164.852 33.594C164.812 33.7614 164.768 33.9218 164.722 34.0753C164.675 34.2217 164.625 34.3577 164.572 34.4833L161.698 41.953H168.016ZM171.14 47.3304H170.351C170.258 47.3304 170.181 47.306 170.122 47.2572C170.062 47.2014 170.015 47.1317 169.982 47.048L168.325 42.7481H161.388L159.731 47.048C159.705 47.1247 159.658 47.1909 159.592 47.2467C159.525 47.3025 159.445 47.3304 159.352 47.3304H158.573L164.352 32.5269H165.361L171.14 47.3304Z" fill="#3A909B"/>
<path d="M181.196 46.4203V47.3304H173.481V32.5269H174.509V46.4203H181.196Z" fill="#3A909B"/>
</svg>
