<svg width="617" height="408" viewBox="0 0 617 408" fill="none" xmlns="http://www.w3.org/2000/svg">
<g clip-path="url(#clip0_0_1)">
<path d="M273.312 288.5C272.855 288.5 272.482 288.112 272.478 287.63C272.474 287.146 272.845 286.749 273.305 286.745L320.214 286.307H320.222C320.679 286.307 321.052 286.694 321.056 287.176C321.06 287.661 320.689 288.057 320.229 288.062L273.32 288.5H273.312Z" fill="#94C7D4"/>
<path d="M320.358 288.209C319.944 288.209 319.584 287.886 319.531 287.441L316.478 261.904C316.421 261.424 316.744 260.983 317.202 260.924C317.663 260.862 318.078 261.203 318.134 261.686L321.188 287.223C321.244 287.703 320.922 288.143 320.463 288.203C320.428 288.207 320.392 288.209 320.358 288.209Z" fill="#EB8231"/>
<path d="M256.936 263.546C256.48 263.546 256.109 263.161 256.103 262.681C256.096 262.197 256.465 261.798 256.926 261.791L259.43 261.754H259.443C259.9 261.754 260.27 262.139 260.277 262.619C260.283 263.104 259.914 263.502 259.454 263.509L256.949 263.546H256.936Z" fill="#F6B60D"/>
<path d="M264.474 263.438C264.017 263.438 263.646 263.053 263.64 262.573C263.634 262.089 264.003 261.69 264.463 261.683L269.496 261.611H269.509C269.965 261.611 270.336 261.996 270.342 262.476C270.348 262.961 269.98 263.359 269.519 263.366L264.486 263.438H264.474ZM274.539 263.293C274.083 263.293 273.712 262.908 273.706 262.428C273.699 261.943 274.068 261.545 274.529 261.538L279.561 261.465H279.574C280.03 261.465 280.401 261.851 280.407 262.331C280.414 262.815 280.045 263.214 279.584 263.22L274.552 263.293H274.539ZM284.604 263.146C284.148 263.146 283.777 262.76 283.771 262.28C283.765 261.796 284.133 261.397 284.594 261.391L289.627 261.318H289.639C290.096 261.318 290.466 261.703 290.473 262.183C290.479 262.668 290.11 263.066 289.65 263.073L284.617 263.146H284.604ZM294.672 263C294.215 263 293.845 262.615 293.838 262.135C293.832 261.65 294.201 261.252 294.661 261.245L299.694 261.173H299.707C300.163 261.173 300.534 261.558 300.54 262.038C300.546 262.522 300.178 262.921 299.717 262.928L294.684 263H294.672ZM304.737 262.855C304.281 262.855 303.91 262.47 303.904 261.99C303.897 261.505 304.266 261.106 304.727 261.1L309.759 261.027C310.22 261.027 310.599 261.408 310.606 261.893C310.612 262.377 310.243 262.776 309.782 262.782L304.75 262.855H304.737Z" fill="#F6B60D"/>
<path d="M314.802 262.707C314.346 262.707 313.975 262.322 313.969 261.842C313.963 261.358 314.331 260.959 314.792 260.952L317.297 260.915H317.309C317.766 260.915 318.137 261.3 318.143 261.78C318.149 262.265 317.781 262.663 317.32 262.67L314.815 262.707H314.802Z" fill="#F6B60D"/>
<path d="M262.071 306.011C261.656 306.011 261.298 305.687 261.244 305.244L256.108 262.782C256.05 262.302 256.374 261.862 256.831 261.8C257.292 261.741 257.706 262.08 257.765 262.56L262.9 305.022C262.959 305.502 262.634 305.942 262.178 306.004C262.142 306.008 262.107 306.011 262.071 306.011Z" fill="#94C7D4"/>
<path d="M356.582 306.011H354.077C353.616 306.011 353.241 305.619 353.241 305.132C353.241 304.645 353.614 304.253 354.077 304.253H356.582C357.042 304.253 357.417 304.645 357.417 305.132C357.417 305.619 357.045 306.011 356.582 306.011Z" fill="#EB8231"/>
<path d="M348.814 306.011H343.549C343.088 306.011 342.713 305.619 342.713 305.132C342.713 304.645 343.086 304.253 343.549 304.253H348.814C349.275 304.253 349.65 304.645 349.65 305.132C349.65 305.619 349.277 306.011 348.814 306.011ZM338.284 306.011H333.019C332.558 306.011 332.183 305.619 332.183 305.132C332.183 304.645 332.556 304.253 333.019 304.253H338.284C338.745 304.253 339.119 304.645 339.119 305.132C339.119 305.619 338.747 306.011 338.284 306.011ZM327.754 306.011H322.488C322.028 306.011 321.653 305.619 321.653 305.132C321.653 304.645 322.026 304.253 322.488 304.253H327.754C328.214 304.253 328.589 304.645 328.589 305.132C328.589 305.619 328.216 306.011 327.754 306.011ZM317.223 306.011H311.958C311.497 306.011 311.122 305.619 311.122 305.132C311.122 304.645 311.495 304.253 311.958 304.253H317.223C317.684 304.253 318.059 304.645 318.059 305.132C318.059 305.619 317.686 306.011 317.223 306.011ZM306.695 306.011H301.43C300.969 306.011 300.594 305.619 300.594 305.132C300.594 304.645 300.967 304.253 301.43 304.253H306.695C307.156 304.253 307.531 304.645 307.531 305.132C307.531 305.619 307.158 306.011 306.695 306.011ZM296.165 306.011H290.9C290.439 306.011 290.064 305.619 290.064 305.132C290.064 304.645 290.437 304.253 290.9 304.253H296.165C296.625 304.253 297 304.645 297 305.132C297 305.619 296.628 306.011 296.165 306.011ZM285.634 306.011H280.369C279.909 306.011 279.534 305.619 279.534 305.132C279.534 304.645 279.906 304.253 280.369 304.253H285.634C286.095 304.253 286.47 304.645 286.47 305.132C286.47 305.619 286.097 306.011 285.634 306.011ZM275.104 306.011H269.839C269.378 306.011 269.003 305.619 269.003 305.132C269.003 304.645 269.376 304.253 269.839 304.253H275.104C275.565 304.253 275.94 304.645 275.94 305.132C275.94 305.619 275.567 306.011 275.104 306.011Z" fill="#EB8231"/>
<path d="M264.576 306.011H262.071C261.61 306.011 261.235 305.619 261.235 305.132C261.235 304.645 261.608 304.253 262.071 304.253H264.576C265.037 304.253 265.411 304.645 265.411 305.132C265.411 305.619 265.039 306.011 264.576 306.011Z" fill="#EB8231"/>
<path d="M356.582 306.01C356.193 306.01 355.843 305.722 355.765 305.304L343.553 241.099C343.463 240.623 343.757 240.161 344.209 240.066C344.661 239.971 345.101 240.28 345.191 240.755L357.403 304.96C357.493 305.436 357.2 305.898 356.748 305.993C356.693 306.004 356.637 306.01 356.582 306.01Z" fill="#EB8231"/>
<path d="M344.37 241.806H198.649C198.188 241.806 197.813 241.414 197.813 240.927C197.813 240.44 198.186 240.048 198.649 240.048H344.37C344.831 240.048 345.206 240.44 345.206 240.927C345.206 241.414 344.833 241.806 344.37 241.806Z" fill="#94C7D4"/>
<path d="M363.523 351.538H212.398C211.979 351.538 211.625 351.212 211.571 350.776L197.819 241.044C197.759 240.564 198.081 240.124 198.538 240.06C198.996 239.996 199.413 240.335 199.474 240.815L213.129 349.785H363.52C363.981 349.785 364.356 350.177 364.356 350.664C364.356 351.151 363.983 351.542 363.52 351.542L363.523 351.538Z" fill="#F6B60D"/>
<path d="M303.145 350.954C302.741 350.954 302.387 350.646 302.322 350.214L295.528 305.271C295.457 304.793 295.767 304.341 296.221 304.266C296.676 304.192 297.105 304.517 297.176 304.995L303.97 349.939C304.044 350.417 303.732 350.868 303.277 350.943C303.233 350.95 303.189 350.954 303.145 350.954Z" fill="#EB8231"/>
<path d="M292.464 262.914C292.056 262.914 291.7 262.6 291.639 262.164L288.772 241.442C288.705 240.962 289.021 240.518 289.477 240.447C289.934 240.377 290.357 240.709 290.424 241.189L293.291 261.91C293.358 262.39 293.042 262.835 292.585 262.906C292.546 262.912 292.504 262.914 292.464 262.914Z" fill="#94C7D4"/>
<path d="M318.65 268.459C318.189 268.459 317.816 268.067 317.814 267.585C317.814 267.1 318.185 266.706 318.645 266.704L349.641 266.607H349.644C350.104 266.607 350.477 266.999 350.479 267.481C350.479 267.966 350.108 268.36 349.648 268.362L318.652 268.459H318.65Z" fill="#EB8231"/>
<path d="M285.894 305.72C285.484 305.72 285.126 305.401 285.069 304.96L282.849 287.839C282.786 287.359 283.107 286.917 283.563 286.851C284.022 286.787 284.441 287.121 284.504 287.601L286.724 304.722C286.787 305.202 286.466 305.645 286.01 305.711C285.972 305.715 285.934 305.72 285.896 305.72H285.894Z" fill="#94C7D4"/>
<path d="M203.644 280.425C203.183 280.425 202.81 280.033 202.808 279.549C202.808 279.064 203.181 278.67 203.642 278.67L258.599 278.573C259.06 278.573 259.432 278.965 259.435 279.45C259.435 279.934 259.062 280.328 258.601 280.328L203.644 280.425Z" fill="#94C7D4"/>
<path d="M246.95 78.8814C245.166 81.6274 244.902 90.8539 243.331 93.7254C241.679 96.7642 240.309 103.007 236.11 109.529C231.911 116.056 219.944 127.615 219.944 127.615C219.944 127.615 206.28 120.524 201.116 113.46C196.315 106.898 196.213 93.3026 191.151 85.3775C203.566 80.3744 208.712 81.1143 209.721 79.0224C210.821 76.7389 215.642 61.525 215.642 61.525C212.869 58.8099 212.239 52.1069 212.027 46.5842C212.027 46.5842 213.862 33.002 227.037 32.9095C240.213 32.817 242.898 38.7229 241.691 46.811C240.489 54.8969 236.399 58.8121 236.399 58.8121C236.399 58.8121 236.386 73.623 238.043 76.3007C238.87 77.6417 241.844 78.0403 246.95 78.8837V78.8814Z" fill="#916B5C"/>
<path d="M217.782 39.5354C217.782 39.5354 222.56 41.8432 228.916 41.7881C235.27 41.733 238.395 39.7182 238.395 39.7182C240.495 43.3097 240.979 47.4517 240.55 51.8999C240.55 51.8999 246.035 52.1024 249.662 50.5918C250.45 50.2637 251.21 49.8696 251.918 49.4556C254.54 47.9186 255.503 44.5054 254.039 42.0347C251.897 38.4168 248.437 33.2244 244.477 29.7804C238.143 24.2709 233.117 22.9695 228.528 24.7355C228.528 24.7355 225.485 21.1374 218.457 23.0069C211.428 24.8765 204.835 27.8272 197.285 35.8734C195.379 37.9059 193.943 39.5729 192.862 40.9271C190.646 43.7061 191.287 47.6719 194.171 49.1913C196.003 50.158 198.364 51.2084 201.22 52.0892C209.428 54.6194 214.394 54.4652 214.394 54.4652C214.394 54.4652 214.532 50.4047 215.282 46.7052C216.289 41.7286 217.782 39.5376 217.782 39.5376V39.5354Z" fill="#292F44"/>
<path d="M326.876 169.037L275.14 173.221L264.878 125.794C264.878 125.794 260.809 144.229 260.147 150.012C259.988 151.399 259.565 154.107 259.014 157.428C253.929 158.366 238.376 161.044 222.656 161.889C204.126 162.889 187.252 161.592 172.468 160.123C172.294 152.912 171.004 145.039 170.296 141.203L152.425 183.298L106.867 184.898C107.828 174.868 111.397 158.351 129.974 129.797C148.546 101.25 177.62 90.3209 187.53 86.9144C188.799 86.3507 190.008 85.8354 191.151 85.3752C197.315 92.7916 202.679 103.06 208.922 108.906C215.263 114.849 220.252 122.493 220.252 122.493C220.252 122.493 224.82 114.876 229.999 109.107C234.705 103.857 237.317 97.3741 239.396 92.2235C240.621 89.2001 245.168 81.6251 246.953 78.8792C252.036 79.7225 259.23 81.0063 268.524 84.1068C287.141 90.3121 305.602 105.227 316.656 128.579C327.712 151.932 326.876 169.037 326.876 169.037Z" fill="#6DB56D"/>
<path d="M198.745 150.987C198.621 150.987 198.498 150.928 198.414 150.818C198.274 150.626 198.305 150.351 198.487 150.201L211.514 139.567L201.738 128.509C201.581 128.33 201.591 128.053 201.759 127.888C201.928 127.723 202.192 127.734 202.349 127.91L212.436 139.319C212.515 139.409 212.555 139.53 212.547 139.653C212.538 139.777 212.48 139.889 212.387 139.964L199.001 150.892C198.925 150.954 198.835 150.985 198.745 150.985V150.987Z" fill="#100C27"/>
<path d="M237.49 148.549C237.367 148.549 237.243 148.49 237.159 148.38C237.019 148.188 237.05 147.913 237.233 147.763L250.259 137.13L240.483 126.071C240.326 125.893 240.336 125.615 240.504 125.45C240.674 125.285 240.937 125.296 241.095 125.472L251.181 136.881C251.26 136.971 251.3 137.092 251.292 137.216C251.283 137.339 251.225 137.451 251.133 137.526L237.746 148.455C237.67 148.516 237.58 148.547 237.49 148.547V148.549Z" fill="#100C27"/>
<path d="M259.014 157.428C257.267 167.963 254.226 184.643 254.226 184.643L171.37 184.192C171.37 184.192 172.411 172.616 172.486 162.158C172.491 161.491 172.486 160.808 172.465 160.123C187.247 161.592 204.123 162.889 222.654 161.889C238.376 161.044 253.926 158.366 259.011 157.428H259.014Z" fill="#292F44"/>
<path d="M275.14 173.223C258.643 175.421 230.33 181.342 218.472 183.806C206.614 186.27 199.445 229.377 199.445 229.377C199.445 229.377 242.353 231.353 274.931 227.332C307.508 223.311 319.77 210.792 322.807 202.191C325.844 193.59 326.975 177.172 326.876 169.037C326.876 169.037 317.617 167.535 299.296 169.372C280.973 171.211 275.142 173.221 275.142 173.221L275.14 173.223Z" fill="#775649"/>
<path d="M223.601 217.348C227.657 222.289 236.024 222.6 238.514 219.206C241.002 215.813 231.716 205.159 231.716 205.159L223.624 209.797L223.601 217.348Z" fill="#C6B7B0"/>
<path d="M240.058 232.595L210.385 163.083C211.933 161.132 213.86 160.11 216.193 160.068L245.865 229.58L246.663 240.046L240.06 232.595H240.058Z" fill="#94C7D4"/>
<path d="M106.867 184.901C109.877 183.077 121.09 181.362 130.87 180.756C140.648 180.151 148.913 182.976 152.425 183.3C155.937 183.621 178.317 183.87 185.8 183.76C193.281 183.65 220.914 180.413 228.895 185.744C236.877 191.073 241.258 196.851 244.829 203.18C248.4 209.508 247.08 217.784 244.05 219.803C241.017 221.82 239.388 221.373 237.683 219.955C235.978 218.537 229.521 208.035 229.521 208.035C229.521 208.035 232.34 212.787 228.365 216.511C224.392 220.237 220.336 218.149 220.336 218.149C220.336 218.149 223.364 219.422 221.653 224.588C219.942 229.752 215.6 230.172 210.744 230.186C205.887 230.199 176.65 229.503 158.591 229.029C140.531 228.554 116.62 228.638 110.3 213.688C103.979 198.738 106.867 184.903 106.867 184.903V184.901Z" fill="#916B5C"/>
<path d="M264.878 126.234C264.687 126.234 264.515 126.097 264.471 125.895C262.291 115.99 259.445 108.32 259.416 108.246C259.332 108.021 259.437 107.765 259.652 107.677C259.868 107.589 260.109 107.699 260.193 107.926C260.222 108.003 263.089 115.728 265.284 125.699C265.336 125.935 265.196 126.17 264.972 126.225C264.94 126.234 264.909 126.236 264.878 126.236V126.234Z" fill="#292F44"/>
<path d="M170.296 141.644C170.235 141.644 170.174 141.631 170.116 141.6C169.908 141.494 169.82 141.232 169.919 141.014C175.844 128.004 183.559 107.832 183.637 107.629C183.722 107.404 183.965 107.294 184.179 107.385C184.393 107.475 184.497 107.73 184.411 107.955C184.334 108.158 176.61 128.357 170.671 141.393C170.599 141.549 170.449 141.642 170.294 141.642L170.296 141.644Z" fill="#292F44"/>
<path d="M149.761 180.926C149.687 180.926 149.614 180.906 149.547 180.864C146.799 179.134 132.231 174.921 120.798 176.749C120.57 176.786 120.359 176.621 120.323 176.381C120.287 176.141 120.444 175.919 120.673 175.881C132.296 174.023 147.166 178.341 149.976 180.111C150.173 180.237 150.238 180.505 150.121 180.712C150.044 180.849 149.905 180.926 149.763 180.926H149.761Z" fill="#292F44"/>
<path d="M277.528 170.748C277.375 170.748 277.226 170.66 277.153 170.506C277.05 170.29 277.134 170.026 277.339 169.918C283.886 166.487 305.801 161.013 315.753 162.772C315.982 162.812 316.134 163.039 316.095 163.277C316.055 163.514 315.841 163.677 315.615 163.636C305.992 161.936 284.012 167.399 277.712 170.702C277.651 170.733 277.588 170.748 277.526 170.748H277.528Z" fill="#292F44"/>
<path d="M225.218 65.3456C220.593 65.3456 217.889 64.3502 215.357 61.8465C215.19 61.6814 215.182 61.4017 215.339 61.2255C215.498 61.0494 215.762 61.0406 215.929 61.2057C218.639 63.8834 221.46 64.696 227.1 64.4185C232.451 64.1565 236.018 58.6227 236.054 58.5655C236.181 58.3629 236.441 58.31 236.632 58.4444C236.824 58.5787 236.877 58.8517 236.749 59.0521C236.596 59.2944 232.918 65.013 227.14 65.2949C226.464 65.3279 225.825 65.3456 225.22 65.3456H225.218Z" fill="#442A2A"/>
<path d="M220.334 50.3012C219.902 50.2858 219.72 49.9445 219.795 49.2883C219.871 48.6343 220.128 48.3084 220.56 48.3238C220.991 48.3392 221.173 48.6805 221.098 49.3367C221.023 49.9907 220.765 50.3166 220.334 50.3012Z" fill="#303336"/>
<path d="M235.151 50.125C234.72 50.1096 234.537 49.7683 234.613 49.1121C234.688 48.4581 234.946 48.1322 235.377 48.1476C235.809 48.163 235.991 48.5043 235.915 49.1606C235.84 49.8146 235.582 50.1405 235.151 50.125Z" fill="#303336"/>
<path d="M223.802 46.5379C223.752 46.5379 223.699 46.5291 223.651 46.5071C222.48 46.0249 219.917 46.0029 218.57 46.4631C218.35 46.5379 218.116 46.4124 218.045 46.1812C217.973 45.95 218.093 45.7034 218.313 45.6285C219.856 45.1022 222.598 45.133 223.955 45.6902C224.17 45.7782 224.275 46.0337 224.191 46.2583C224.126 46.4323 223.969 46.5379 223.802 46.5379Z" fill="#292F44"/>
<path d="M231.746 46.8793C231.603 46.8793 231.465 46.8022 231.385 46.6635C231.268 46.4543 231.333 46.1856 231.532 46.0623C233.356 44.9239 237.09 44.7565 238.441 45.4656C238.647 45.5735 238.73 45.8377 238.628 46.0535C238.525 46.2693 238.274 46.3574 238.068 46.2495C237.032 45.7056 233.622 45.7804 231.959 46.8154C231.892 46.8572 231.819 46.8771 231.748 46.8771L231.746 46.8793Z" fill="#292F44"/>
<path d="M228.152 55.0246C227.934 55.0246 227.749 54.8462 227.735 54.6128C227.72 54.3706 227.896 54.1636 228.124 54.1482C228.43 54.1261 228.836 54.005 228.929 53.8663C228.935 53.8553 228.945 53.8421 228.929 53.7848C228.681 52.8996 228.535 49.8938 228.945 48.4977C229.014 48.2665 229.249 48.1366 229.467 48.2093C229.687 48.2819 229.81 48.5264 229.741 48.7576C229.383 49.9687 229.515 52.7763 229.729 53.5382C229.812 53.8421 229.773 54.1283 229.611 54.3706C229.241 54.9255 228.35 55.0114 228.175 55.0224C228.166 55.0224 228.158 55.0224 228.147 55.0224L228.152 55.0246Z" fill="#442A2A"/>
<path d="M226.874 57.7991C224.933 57.7991 223.391 57.286 222.453 56.8655C222.241 56.7708 222.143 56.5131 222.233 56.2885C222.323 56.0661 222.568 55.9626 222.782 56.0573C224.216 56.7025 227.165 57.5723 230.818 56.1652C231.033 56.0815 231.274 56.1982 231.354 56.425C231.433 56.6519 231.322 56.9051 231.107 56.9888C229.565 57.5833 228.137 57.7991 226.876 57.7991H226.874Z" fill="#442A2A"/>
<path d="M218.616 56.3744C217.596 56.5572 217.008 55.8768 216.87 54.3552C216.731 52.8336 217.18 51.966 218.2 51.7832C219.22 51.6004 219.808 52.2809 219.946 53.8025C220.084 55.3241 219.636 56.1917 218.616 56.3744Z" fill="#442A2A"/>
<path d="M234.014 56.6893C233.054 56.4052 232.83 55.5046 233.35 54.016C233.869 52.5274 234.623 51.9153 235.584 52.1993C236.543 52.4834 236.768 53.384 236.248 54.8726C235.729 56.3612 234.975 56.9733 234.014 56.6893Z" fill="#442A2A"/>
<path d="M195.308 44.4416C195.212 44.4416 195.114 44.4064 195.034 44.3337C194.86 44.1751 194.841 43.8977 194.994 43.7149C200.743 36.7697 206.695 31.3835 211.749 28.5495C220.26 23.7755 225.787 25.6494 227.278 26.3364C227.49 26.4333 227.586 26.6932 227.492 26.9156C227.4 27.138 227.153 27.2371 226.943 27.1402C225.538 26.4928 220.321 24.7334 212.141 29.3224C207.173 32.108 201.307 37.4259 195.623 44.2896C195.541 44.3887 195.424 44.4394 195.308 44.4394V44.4416Z" fill="#100C27"/>
<path d="M251.574 47.1787C251.386 47.1787 251.216 47.0444 251.17 46.844C251.118 46.6216 249.842 41.3477 244.588 34.9442C239.641 28.9172 231.705 26.4399 230.005 27.3053C229.798 27.411 229.548 27.3207 229.448 27.1027C229.347 26.8847 229.433 26.6227 229.64 26.517C231.787 25.4226 240.028 28.0496 245.218 34.3716C247.371 36.9943 249.126 39.7314 250.433 42.5082C251.53 44.8379 251.914 46.3551 251.979 46.637C252.033 46.8726 251.897 47.1104 251.673 47.1677C251.639 47.1765 251.606 47.1809 251.572 47.1809L251.574 47.1787Z" fill="#100C27"/>
<path d="M199.083 48.7928C199.015 48.7928 198.948 48.7752 198.886 48.7422C198.682 48.6277 198.605 48.3612 198.714 48.1476C199.342 46.9079 203.43 40.7113 208.66 35.9703C214.063 31.073 221.542 28.2764 223.871 28.2126C224.106 28.2038 224.294 28.3975 224.298 28.6398C224.302 28.882 224.122 29.0846 223.892 29.089C221.93 29.144 214.566 31.7755 209.204 36.6332C204.063 41.2927 200.063 47.3483 199.449 48.5594C199.374 48.7069 199.229 48.7928 199.08 48.7928H199.083Z" fill="#100C27"/>
<path d="M206.664 50.4531C206.603 50.4531 206.54 50.4399 206.482 50.4091C206.274 50.3034 206.189 50.0392 206.289 49.8212C207.988 46.1658 212.562 37.3026 218.338 33.9511C218.541 33.8344 218.794 33.9114 218.905 34.1228C219.016 34.3342 218.943 34.6029 218.742 34.7196C213.173 37.95 208.704 46.626 207.039 50.2065C206.968 50.3629 206.819 50.4531 206.664 50.4531Z" fill="#100C27"/>
<path d="M246.152 49.8828C245.933 49.8828 245.746 49.7001 245.736 49.4667C245.277 39.7755 238.51 32.8875 234.353 30.8242C234.144 30.7207 234.056 30.4587 234.154 30.2407C234.252 30.0227 234.502 29.928 234.709 30.0315C239.042 32.1829 246.092 39.3483 246.569 49.4248C246.58 49.667 246.404 49.8718 246.173 49.885C246.167 49.885 246.159 49.885 246.152 49.885V49.8828Z" fill="#100C27"/>
<path d="M219.632 39.3152C219.571 39.3152 219.51 39.302 219.452 39.2712C219.244 39.1655 219.156 38.9034 219.257 38.6854C219.919 37.2387 222.87 32.6937 226.696 28.7432C226.861 28.5737 227.125 28.5759 227.287 28.7476C227.448 28.9194 227.446 29.1991 227.28 29.3686C223.701 33.0658 220.689 37.5778 220.009 39.0664C219.938 39.2227 219.787 39.3152 219.632 39.3152Z" fill="#100C27"/>
<path d="M235.595 39.3263C235.404 39.3263 235.232 39.1875 235.188 38.9849C234.273 34.7394 231.115 30.778 229.268 29.4391C229.077 29.3026 229.031 29.0273 229.161 28.8292C229.291 28.6288 229.553 28.5803 229.741 28.7169C231.695 30.135 235.038 34.3166 236.003 38.7912C236.053 39.0268 235.913 39.2624 235.689 39.3153C235.658 39.3219 235.626 39.3263 235.597 39.3263H235.595Z" fill="#100C27"/>
<path d="M224.118 40.4977C224.078 40.4977 224.039 40.4911 223.999 40.4801C223.779 40.4096 223.653 40.1652 223.72 39.934C223.783 39.716 225.272 34.5302 227.151 30.9695C227.262 30.7581 227.517 30.681 227.718 30.7978C227.919 30.9145 227.993 31.1831 227.882 31.3945C226.049 34.8715 224.535 40.1322 224.52 40.185C224.466 40.3744 224.3 40.4977 224.12 40.4977H224.118Z" fill="#100C27"/>
<path d="M230.489 40.5153C230.489 40.5153 230.482 40.5153 230.48 40.5153C230.25 40.5109 230.066 40.3106 230.07 40.0683C230.095 38.593 229.743 33.83 228.972 31.6962C228.891 31.4694 229 31.2161 229.213 31.1303C229.429 31.0444 229.67 31.1567 229.752 31.3835C230.56 33.6208 230.931 38.5599 230.903 40.0837C230.899 40.3238 230.713 40.5153 230.487 40.5153H230.489Z" fill="#100C27"/>
<path d="M229.521 208.469C229.358 208.469 229.203 208.368 229.136 208.2C228.887 207.579 228.65 206.954 228.396 206.293C226.537 201.423 224.43 195.9 218.048 192.266C217.845 192.152 217.77 191.886 217.881 191.672C217.99 191.458 218.243 191.379 218.446 191.496C225.092 195.281 227.259 200.958 229.171 205.968C229.423 206.624 229.659 207.245 229.904 207.859C229.994 208.082 229.894 208.339 229.682 208.434C229.63 208.458 229.576 208.469 229.521 208.469Z" fill="#442A2A"/>
<path d="M220.336 218.585C220.233 218.585 220.128 218.546 220.047 218.464C215.544 213.952 212.587 212.574 208.842 210.83L208.819 210.819C208.607 210.72 208.513 210.462 208.607 210.239C208.702 210.017 208.947 209.918 209.158 210.017L209.181 210.028C212.848 211.737 216.015 213.212 220.625 217.83C220.792 217.997 220.798 218.275 220.639 218.451C220.558 218.541 220.447 218.587 220.338 218.587L220.336 218.585Z" fill="#442A2A"/>
<path d="M240.562 221.318C240.416 221.318 240.275 221.236 240.198 221.093C240.135 220.974 238.644 218.121 238.757 213.41C238.864 208.942 241.086 205.965 245.185 204.803C245.407 204.739 245.637 204.878 245.696 205.111C245.754 205.344 245.624 205.587 245.402 205.648C241.645 206.716 239.689 209.334 239.593 213.432C239.486 217.885 240.914 220.638 240.929 220.664C241.04 220.875 240.969 221.142 240.768 221.261C240.703 221.298 240.634 221.316 240.565 221.316L240.562 221.318Z" fill="#442A2A"/>
<path d="M344.787 279.888C345.48 285.287 347.702 286.454 350.894 287.331C354.086 288.207 363.106 286.602 363.106 286.602L359.452 268.556L344.787 279.89V279.888Z" fill="#A9694F"/>
<path d="M419.313 99.3845C423.756 96.4668 426.252 98.801 430.139 99.6774C434.024 100.554 460.486 96.4162 487.873 106.682C519.793 118.648 544.908 150.677 554.211 176.432C562.538 199.487 567.535 255.229 527.982 274.929C488.428 294.628 423.894 293.316 416.4 293.316L361.026 239.91L349.369 158.485C349.369 158.485 356.031 157.173 370.187 153.231C384.342 149.291 387.258 148.853 387.258 148.853L388.506 162.863C388.506 162.863 391.004 147.541 394.334 140.098C397.664 132.655 405.16 119.086 405.16 119.086L419.316 99.3867L419.313 99.3845Z" fill="#F7E5DD"/>
<path d="M393.22 233.925C393.011 233.925 392.831 233.76 392.805 233.537C391.432 221.263 388.118 163.468 388.085 162.887C388.07 162.645 388.246 162.438 388.476 162.422C388.709 162.409 388.904 162.592 388.918 162.834C388.952 163.415 392.265 221.186 393.635 233.436C393.662 233.676 393.499 233.894 393.268 233.922C393.252 233.922 393.235 233.925 393.218 233.925H393.22Z" fill="#100C27"/>
<path d="M388.567 162.484C388.525 162.726 388.504 162.86 388.504 162.86L387.256 148.851C387.256 148.851 384.34 149.289 370.185 153.229C356.029 157.168 349.367 158.483 349.367 158.483L352.555 180.745C358.704 181.776 385.13 177.665 389.059 174.388L388.567 162.484Z" fill="#94C7D4"/>
<path d="M442.906 222.249C440.408 216.705 427.224 165.778 425.559 148.706C423.992 132.655 427.58 108.994 429.628 99.5498C426.026 98.6029 423.557 96.5946 419.314 99.3846L411.529 110.219L403.631 122.878C403.631 122.878 401.133 161.401 403.769 181.393C406.406 201.383 412.235 225.315 412.235 225.315L427.825 224.099L442.906 222.252V222.249Z" fill="#94C7D4"/>
<path d="M334.692 293.871L364.013 220.988C366.333 220.86 368.254 221.69 369.751 223.54L340.431 296.423L333.704 304.44L334.69 293.871H334.692Z" fill="#EB8231"/>
<path d="M366.39 83.6246C365.28 88.6826 366.945 93.7407 368.796 96.4646C370.648 99.1886 371.295 100.842 371.295 103.031C371.295 105.22 370.74 106.971 371.573 107.409C372.407 107.847 376.847 105.22 376.847 105.22C376.847 105.22 379.622 108.431 382.399 110.474C385.174 112.517 389.061 113.392 392.253 112.37C392.253 112.37 397.665 118.353 400.025 121.854C400.666 122.805 401.912 124.977 403.386 127.632C404.289 129.257 406.624 128.722 407.102 130.757C408.953 138.636 412.93 145.35 412.93 145.35L411.542 131.851L413.068 127.767L412.652 125.65C419.32 115.134 422.464 107.387 424.449 100.552C424.449 100.552 406.685 88.0022 405.296 86.1063C403.908 84.2103 387.67 73.7022 378.512 76.3292C369.351 78.9562 366.392 83.6246 366.392 83.6246H366.39Z" fill="#BA7C63"/>
<path d="M355.659 71.2711C354.473 72.5615 355.288 78.1789 359.175 81.4864C359.175 81.4864 357.694 82.1668 358.436 84.1134C359.175 86.06 366.3 87.9075 366.3 87.9075C366.3 87.9075 367.873 84.6001 370.093 82.5566C372.313 80.5131 375.171 78.5379 376.2 78.6656C376.939 82.5566 378.338 84.7256 380.734 85.6703C384.435 87.1302 388.043 91.1181 388.043 91.1181L390.263 89.1715C390.263 89.1715 387.857 84.3072 389.8 81.4864C391.201 79.4539 393.317 79.2491 395.074 80.1255C396.831 81.0019 398.312 83.9196 398.035 87.1302C398.035 87.1302 401.828 88.1035 403.493 88.0066C405.158 87.9097 406.917 87.7138 406.917 87.7138C406.917 87.7138 406.178 79.9318 403.124 74.8737C400.071 69.8156 393.317 65.6317 390.171 64.9513C387.025 64.2709 384.898 64.4646 384.898 64.4646C384.898 64.4646 383.325 62.4212 380.918 62.8109C378.512 63.2007 377.773 66.4112 377.773 66.4112C377.773 66.4112 377.218 61.4501 374.256 61.6438C371.295 61.8376 371.203 66.3144 371.203 66.3144C371.203 66.3144 371.295 61.5469 367.502 61.9367C363.709 62.3265 365.651 71.4693 365.651 71.4693C365.651 71.4693 363.799 69.1352 363.152 66.605C362.505 64.0749 359.544 65.1451 359.359 67.2855C359.175 69.4258 360.561 73.8035 360.561 73.8035C360.561 73.8035 358.341 68.3556 355.659 71.2733V71.2711Z" fill="#292F44"/>
<path d="M374.248 96.1432C373.898 96.3832 373.55 96.2335 373.215 95.694C372.88 95.1567 372.886 94.7603 373.236 94.5203C373.586 94.2803 373.934 94.43 374.269 94.9695C374.604 95.5068 374.597 95.9032 374.248 96.1432Z" fill="#303336"/>
<path d="M369.536 94.7889C369.475 94.7889 369.412 94.7801 369.351 94.7603C369.02 94.6524 368.836 94.2847 368.937 93.9367C369.846 90.8319 372.149 89.8123 373.804 89.3147C374.135 89.2134 374.482 89.416 374.579 89.7661C374.673 90.1162 374.48 90.4796 374.149 90.5808C371.936 91.2459 370.698 92.3997 370.135 94.3243C370.053 94.6084 369.804 94.7889 369.536 94.7889Z" fill="#292F44"/>
<path d="M380.085 108.677C379.944 108.677 379.806 108.602 379.729 108.468C379.609 108.261 379.67 107.99 379.867 107.865C381.438 106.856 383.879 103.163 383.905 103.126C384.037 102.928 384.296 102.877 384.485 103.016C384.673 103.154 384.721 103.427 384.589 103.626C384.485 103.784 382.022 107.508 380.3 108.615C380.233 108.659 380.158 108.679 380.082 108.679L380.085 108.677Z" fill="#976A66"/>
<path d="M385.136 98.6315C383.953 99.4946 382.738 99.0058 381.536 97.1847C380.334 95.3614 380.326 93.9962 381.509 93.133C382.692 92.2698 383.907 92.7586 385.109 94.5797C386.311 96.403 386.32 97.7683 385.136 98.6315Z" fill="#976A66"/>
<path d="M393.683 90.8736C393.493 90.8736 393.321 90.7349 393.277 90.5323C393.222 90.2813 391.966 84.3424 392.923 81.6251C393.002 81.3983 393.243 81.2816 393.459 81.3652C393.675 81.4489 393.786 81.7021 393.706 81.9289C392.835 84.4018 394.079 90.2791 394.092 90.3385C394.142 90.5741 394.001 90.8098 393.777 90.8626C393.746 90.8692 393.717 90.8736 393.685 90.8736H393.683Z" fill="#976A66"/>
<path d="M394.054 93.4038C393.851 93.4038 393.673 93.2474 393.641 93.0316C393.606 92.7916 393.763 92.567 393.991 92.5317C395.541 92.2807 397.183 91.4373 397.618 87.0817C397.644 86.8417 397.845 86.6677 398.077 86.6919C398.305 86.7184 398.473 86.9342 398.448 87.1742C398.058 91.0586 396.724 92.9766 394.119 93.3994C394.098 93.4038 394.077 93.4038 394.054 93.4038Z" fill="#976A66"/>
<path d="M392.251 112.81C392.085 112.81 391.928 112.705 391.863 112.533C391.78 112.308 391.884 112.053 392.098 111.963C398.513 109.296 399.947 103.328 400.023 98.7922C400.027 98.5522 400.213 98.3606 400.44 98.3606C400.442 98.3606 400.444 98.3606 400.448 98.3606C400.678 98.365 400.863 98.5654 400.858 98.8076C400.779 103.61 399.25 109.934 392.406 112.78C392.355 112.802 392.303 112.81 392.253 112.81H392.251Z" fill="#976A66"/>
<path d="M399.327 231.491C394.146 231.685 378.788 230.518 369.536 234.215C360.283 237.912 351.032 247.835 346.59 256.007C342.148 264.178 337.708 267.876 338.447 274.294C339.187 280.716 345.202 281.493 347.422 280.52C349.642 279.546 352.787 274.488 352.787 274.488C352.787 274.488 354.731 280.13 359.541 279.546C359.541 279.546 358.247 285.188 361.393 288.885C364.538 292.582 371.94 293.36 377.492 292.97C383.044 292.58 391.185 291.609 391.185 291.609L399.327 231.489V231.491Z" fill="#BA7C63"/>
<path d="M399.143 226.044L427.825 224.099L416.398 293.314L388.41 294.139L399.143 226.044Z" fill="#B5D8E1"/>
<path d="M429.999 166.802C429.775 166.802 429.588 166.615 429.582 166.377C429.067 148.637 435.413 127.659 436.303 124.811L432.131 121.931C432.03 121.861 431.963 121.751 431.946 121.625C431.93 121.5 431.965 121.372 432.045 121.277L436.548 115.825C437.658 109.179 439.982 100.091 440.005 100.001C440.066 99.7677 440.294 99.6289 440.516 99.6928C440.738 99.7567 440.87 99.9967 440.81 100.23C440.787 100.323 438.443 109.481 437.348 116.096C437.335 116.175 437.302 116.248 437.251 116.309L432.985 121.475L437.027 124.265C437.186 124.375 437.256 124.585 437.193 124.774C437.119 124.999 429.869 147.539 430.416 166.353C430.422 166.595 430.242 166.798 430.011 166.804C430.007 166.804 430.003 166.804 429.999 166.804V166.802Z" fill="#100C27"/>
<path d="M442.906 222.688C442.695 222.688 442.515 222.52 442.492 222.296C442.467 222.056 442.632 221.838 442.862 221.813L492.525 216.203C490.467 213.223 481.3 200.07 474.376 191.896C472.991 190.26 471.262 188.312 469.257 186.052C460.019 175.637 446.058 159.894 445.129 151.086C445.103 150.846 445.269 150.628 445.497 150.602C445.721 150.573 445.933 150.749 445.958 150.989C446.858 159.507 460.706 175.121 469.869 185.453C471.875 187.715 473.609 189.67 475 191.313C482.835 200.562 493.518 216.145 493.625 216.302C493.713 216.429 493.727 216.595 493.667 216.738C493.606 216.881 493.478 216.978 493.329 216.995L442.95 222.685C442.936 222.685 442.921 222.688 442.906 222.688Z" fill="#100C27"/>
<path d="M493.283 216.998C493.072 216.998 492.892 216.83 492.869 216.603C492.844 216.363 493.011 216.148 493.239 216.121L533.069 211.743C533.3 211.717 533.503 211.893 533.528 212.133C533.553 212.373 533.386 212.589 533.157 212.615L493.327 216.993C493.313 216.993 493.298 216.995 493.283 216.995V216.998Z" fill="#100C27"/>
<path d="M387.254 148.851C387.254 148.851 382.257 154.396 371.571 157.023C360.886 159.65 354.362 159.066 354.362 159.066C354.362 159.066 354.224 164.32 355.055 169.427C355.889 174.534 357.137 178.911 353.529 179.788C349.92 180.664 345.48 177.599 343.258 168.405C341.038 159.212 340.066 158.921 340.066 158.921C340.066 158.921 335.486 155.127 331.877 155.71C328.269 156.294 323.134 160.817 319.525 165.195C315.917 169.572 310.365 181.1 303.843 180.955C297.319 180.809 302.178 170.303 304.398 167.093C306.618 163.882 311.615 153.522 312.725 151.771C312.725 151.771 302.595 154.253 297.459 153.667C292.324 153.083 287.884 152.645 288.854 147.829C289.825 143.014 295.792 143.452 299.401 143.159C303.009 142.866 308.838 141.115 308.838 141.115C308.838 141.115 297.736 138.634 294.82 135.278C291.905 131.922 290.657 127.399 292.877 125.355C295.097 123.312 299.26 124.917 300.787 126.377C302.314 127.837 313.14 130.755 317.58 130.755C322.019 130.755 343.532 128.711 357.271 129.295C371.01 129.878 377.396 134.111 381.142 137.757C384.889 141.406 387.249 148.847 387.249 148.847L387.254 148.851Z" fill="#BA7C63"/>
<path d="M354.362 159.505C354.17 159.505 353.996 159.361 353.954 159.154C353.908 158.917 354.052 158.685 354.278 158.637C354.404 158.611 366.803 155.781 368.943 144.535C368.989 144.297 369.209 144.143 369.433 144.192C369.659 144.24 369.806 144.471 369.76 144.707C368.828 149.606 365.881 153.718 361.236 156.6C357.747 158.765 354.58 159.469 354.446 159.498C354.417 159.505 354.389 159.507 354.36 159.507L354.362 159.505Z" fill="#976A66"/>
<path d="M312.727 152.209C312.658 152.209 312.589 152.192 312.524 152.154C312.323 152.035 312.249 151.769 312.362 151.557C315.713 145.216 320.719 139.79 324.264 138.656C324.484 138.585 324.719 138.715 324.786 138.949C324.853 139.18 324.729 139.426 324.507 139.497C321.697 140.395 316.742 145.079 313.093 151.985C313.018 152.13 312.875 152.211 312.729 152.211L312.727 152.209Z" fill="#976A66"/>
<path d="M308.842 141.556C308.674 141.556 308.515 141.448 308.452 141.274C308.371 141.047 308.477 140.794 308.693 140.708C311.569 139.55 313.86 138.328 315.881 137.251C318.377 135.919 320.35 134.868 322.128 134.699C322.361 134.674 322.562 134.855 322.583 135.095C322.604 135.337 322.434 135.549 322.206 135.571C320.587 135.725 318.679 136.744 316.26 138.033C314.321 139.065 311.908 140.354 308.993 141.527C308.944 141.547 308.892 141.556 308.844 141.556H308.842Z" fill="#976A66"/>
<path d="M353.531 180.226C353.37 180.226 353.217 180.127 353.148 179.962C351.347 175.591 352.052 171.006 354.825 169.061C355.018 168.927 355.276 168.982 355.403 169.183C355.531 169.383 355.479 169.656 355.288 169.79C352.85 171.499 352.272 175.63 353.912 179.611C354.004 179.834 353.906 180.091 353.694 180.188C353.64 180.213 353.583 180.226 353.529 180.226H353.531Z" fill="#976A66"/>
<path d="M299.901 129.786C299.753 129.786 299.602 129.782 299.451 129.771C297.007 129.594 294.364 128.009 292.557 125.633C292.412 125.444 292.441 125.168 292.622 125.016C292.802 124.864 293.063 124.895 293.208 125.085C294.875 127.276 297.29 128.736 299.508 128.894C300.89 128.993 302.101 128.568 303.003 127.668C303.171 127.5 303.435 127.507 303.594 127.683C303.753 127.859 303.747 128.137 303.579 128.304C302.603 129.279 301.34 129.786 299.904 129.786H299.901Z" fill="#976A66"/>
<path d="M294.272 148.626C292.116 148.626 290.112 147.931 288.971 146.675C288.812 146.499 288.818 146.222 288.985 146.055C289.151 145.887 289.417 145.894 289.576 146.07C291.015 147.655 294.096 148.202 296.904 147.369C299.319 146.653 300.942 145.086 301.357 143.069C301.405 142.831 301.629 142.681 301.853 142.732C302.079 142.782 302.222 143.016 302.173 143.254C301.692 145.599 299.853 147.407 297.13 148.213C296.19 148.49 295.216 148.624 294.272 148.624V148.626Z" fill="#976A66"/>
<path d="M301.432 179.219C301.303 179.219 301.171 179.215 301.037 179.204C300.806 179.186 300.634 178.975 300.653 178.733C300.67 178.491 300.867 178.31 301.101 178.33C304.323 178.594 306.291 174.855 307.489 172.023C308.67 169.229 306.113 167.388 305.301 166.89C305.102 166.769 305.035 166.498 305.15 166.289C305.267 166.08 305.523 166.009 305.722 166.131C307.707 167.348 309.414 169.63 308.251 172.38C306.997 175.346 304.942 179.222 301.432 179.222V179.219Z" fill="#976A66"/>
<path d="M340.485 278.139C340.343 278.139 340.205 278.062 340.127 277.926C340.01 277.717 340.075 277.448 340.272 277.325C343.164 275.517 345.198 272.187 345.455 268.84C345.596 267.015 345.258 264.396 342.854 262.28C342.678 262.124 342.653 261.849 342.802 261.661C342.95 261.477 343.212 261.45 343.39 261.606C345.478 263.445 346.507 266.039 346.287 268.911C346.008 272.533 343.815 276.131 340.699 278.08C340.632 278.122 340.559 278.142 340.485 278.142V278.139Z" fill="#976A66"/>
<path d="M358.951 280.302C357.162 280.302 355.26 279.157 353.669 277.102C352.456 275.536 352.117 273.18 352.684 270.287C354.019 263.487 359.753 255.59 365.734 252.312C365.939 252.199 366.191 252.283 366.298 252.499C366.404 252.715 366.325 252.979 366.12 253.091C360.429 256.209 354.768 264.004 353.501 270.465C352.986 273.092 353.267 275.195 354.316 276.549C355.774 278.432 357.474 279.454 359.034 279.425C361.342 270.87 370.723 267.583 375.789 265.808C376.007 265.731 376.244 265.856 376.317 266.085C376.39 266.314 376.271 266.563 376.053 266.64C368.658 269.232 361.566 272.639 359.763 279.954C359.719 280.13 359.577 280.26 359.403 280.28C359.254 280.297 359.104 280.304 358.951 280.304V280.302Z" fill="#976A66"/>
<path d="M425.002 133.386C424.933 133.386 424.866 133.369 424.801 133.331L413.837 126.983C413.636 126.866 413.561 126.599 413.674 126.386C413.785 126.175 414.038 126.095 414.241 126.214L425.205 132.563C425.406 132.679 425.482 132.946 425.369 133.159C425.293 133.305 425.151 133.386 425.002 133.386Z" fill="#292F44"/>
<path d="M403.145 138.273C403.085 138.273 403.024 138.259 402.965 138.228C402.758 138.125 402.67 137.863 402.768 137.643L405.753 131.076C405.851 130.858 406.103 130.764 406.31 130.869C406.517 130.973 406.605 131.235 406.507 131.455L403.522 138.021C403.451 138.18 403.3 138.27 403.145 138.27V138.273Z" fill="#292F44"/>
<path d="M341.733 205.292C341.583 205.292 341.432 205.25 341.298 205.164L329.68 197.717L317.259 203.556C316.97 203.693 316.631 203.644 316.386 203.431C316.141 203.217 316.032 202.878 316.107 202.552L319.253 188.633L310.132 178.017C309.918 177.768 309.858 177.416 309.975 177.105C310.092 176.795 310.367 176.581 310.683 176.555L324.246 175.401L331.029 162.999C331.188 162.711 331.486 162.541 331.806 162.561C332.122 162.583 332.401 162.79 332.525 163.098L337.76 176.304L351.076 179.257C351.386 179.325 351.633 179.574 351.713 179.898C351.792 180.221 351.688 180.565 351.447 180.781L341.12 190.097L342.565 204.325C342.598 204.657 342.45 204.981 342.181 205.159C342.045 205.25 341.89 205.296 341.735 205.296L341.733 205.292ZM329.741 195.849C329.892 195.849 330.043 195.893 330.177 195.977L340.726 202.739L339.415 189.822C339.386 189.536 339.492 189.252 339.702 189.063L349.078 180.602L336.99 177.922C336.722 177.863 336.497 177.667 336.391 177.401L331.637 165.41L325.477 176.672C325.341 176.923 325.094 177.086 324.822 177.11L312.507 178.158L320.788 187.799C320.972 188.012 321.043 188.309 320.981 188.589L318.124 201.227L329.402 195.924C329.511 195.873 329.626 195.847 329.743 195.847L329.741 195.849Z" fill="#F6B60D"/>
<path d="M159.881 278.965C172.648 278.575 178.571 276.631 180.051 280.716C181.532 284.801 170.059 285.97 170.059 285.97C170.059 285.97 182.642 283.052 184.123 286.164C185.603 289.277 184.862 291.418 182.458 291.805C180.051 292.195 169.691 293.166 169.691 293.166C169.691 293.166 181.348 292.583 181.534 295.113C181.719 297.643 180.054 299.783 176.724 299.977C173.394 300.171 171.542 300.754 168.026 301.144C164.509 301.534 154.702 306.398 154.702 306.398L141.564 290.444L159.883 278.965H159.881Z" fill="#E8DACF"/>
<path d="M177.057 323.065C176.898 323.065 176.738 323.054 176.579 323.032C175.599 322.9 174.726 322.374 174.123 321.553L137.577 271.82C136.328 270.122 136.628 267.673 138.243 266.361L173.023 238.106C173.804 237.47 174.776 237.192 175.756 237.327C176.736 237.459 177.61 237.985 178.213 238.807L214.759 288.54C216.007 290.237 215.708 292.686 214.093 293.998L179.312 322.253C178.659 322.786 177.872 323.065 177.057 323.065ZM175.44 320.48C175.771 320.932 176.251 321.22 176.789 321.293C177.327 321.365 177.859 321.213 178.288 320.863L213.069 292.609C213.955 291.889 214.118 290.546 213.433 289.612L176.887 239.879C176.556 239.428 176.077 239.139 175.538 239.066C175 238.994 174.468 239.146 174.039 239.496L139.258 267.75C138.373 268.47 138.209 269.813 138.894 270.747L175.44 320.48Z" fill="#94C7D4"/>
<path d="M200.731 290.766C200.481 290.766 200.234 290.649 200.069 290.424L172.334 252.684C172.051 252.301 172.118 251.75 172.484 251.453C172.849 251.156 173.374 251.226 173.655 251.611L201.39 289.352C201.673 289.735 201.606 290.286 201.239 290.583C201.087 290.706 200.909 290.766 200.731 290.766Z" fill="#292F44"/>
<path d="M192.265 297.48C192.016 297.48 191.769 297.363 191.603 297.139L163.868 259.398C163.586 259.015 163.653 258.464 164.019 258.167C164.383 257.87 164.907 257.94 165.19 258.325L192.925 296.066C193.208 296.449 193.141 297 192.774 297.297C192.621 297.42 192.443 297.48 192.265 297.48Z" fill="#292F44"/>
<path d="M183.383 303.899C183.134 303.899 182.887 303.782 182.721 303.558L154.986 265.817C154.704 265.434 154.773 264.883 155.137 264.586C155.501 264.289 156.025 264.359 156.308 264.744L184.043 302.485C184.326 302.868 184.259 303.419 183.892 303.716C183.739 303.839 183.561 303.899 183.383 303.899Z" fill="#292F44"/>
<path d="M136.751 286.164C141.47 281.202 144.8 276.825 148.963 275.658C153.127 274.491 165.062 272.74 165.894 277.118C166.727 281.495 162.009 284.413 157.567 285.58C153.125 286.747 150.628 286.456 150.628 286.456L145.91 293.461L136.749 286.166L136.751 286.164Z" fill="#F7E5DD"/>
<path d="M8.5152 294.335C1.85314 299.589 -10.3589 307.175 -7.0289 324.102C-3.69892 341.03 6.29521 349.201 16.5637 351.828C26.8343 354.455 44.3198 347.451 44.3198 347.451L53.7569 310.386L8.5131 294.335H8.5152Z" fill="#F7E5DD"/>
<path d="M258.898 345.286L203.307 291.942C203.964 289.599 205.351 287.971 207.508 287.102L263.1 340.446L268.049 349.785L258.898 345.286Z" fill="#F6B60D"/>
<path d="M177.552 356.789C177.552 356.789 213.636 330.816 224.74 324.979C235.842 319.141 244.447 313.889 252.219 317.391C259.991 320.892 263.045 329.94 261.935 332.567C260.825 335.194 258.326 335.778 256.661 334.901C254.996 334.025 251.943 327.897 251.943 327.897L247.779 325.562C247.779 325.562 253.331 329.064 251.664 333.734C249.999 338.405 249.999 341.322 249.999 341.322C249.999 341.322 253.608 342.489 251.109 347.743C248.611 352.998 240.007 360.584 229.737 369.339C219.466 378.094 191.155 399.106 176.445 404.651C161.734 410.195 144.525 408.735 137.029 401.149C129.536 393.561 125.927 381.305 125.927 381.305L177.555 356.789H177.552Z" fill="#F7E5DD"/>
<path d="M105.524 237.133C104.553 244.138 98.4456 254.498 96.3639 258.145C94.2821 261.794 92.8936 263.835 92.8936 263.835C92.8936 263.835 100.387 271.13 106.077 273.467C111.768 275.801 116.486 274.634 116.486 274.634L125.506 250.995C125.506 250.995 129.808 252.455 132.03 249.535C134.25 246.617 138.414 241.072 139.247 240.634C139.247 240.634 142.577 241.511 143.273 240.634C143.966 239.758 141.608 232.172 141.608 232.172C141.608 232.172 144.523 228.232 144.938 224.438C145.354 220.644 145.076 213.787 142.301 210.429C139.526 207.071 119.68 205.906 114.266 211.012C108.854 216.119 105.522 237.133 105.522 237.133H105.524Z" fill="#F7E5DD"/>
<path d="M146.27 205.545C143.153 201.02 137.557 201.887 136.064 199.703C134.568 197.518 134.958 190.963 132.428 187.81C129.898 184.654 125.351 180.587 118.767 182.782C112.182 184.978 106.651 184.482 104.385 181.499C102.119 178.515 103.007 169.806 98.5523 166.333C94.0977 162.86 87.5739 159.692 79.2552 163.829C74.5932 166.148 68.683 171.136 63.3257 170.217C57.9684 169.299 53.3442 165.032 52.3556 158.89C51.365 152.749 41.7814 149.549 36.4911 152.982C31.1987 156.415 27.3117 156.263 22.3062 153.863C17.8767 151.74 7.42184 150.976 7.01973 161.48C6.68464 170.237 14.1698 169.537 12.7624 175.465C11.355 181.393 7.96637 186.557 13.6629 189.604C19.3595 192.652 22.0696 188.988 25.8331 190.69C29.5945 192.392 31.0836 194.673 31.8564 201.185C32.6313 207.698 43.9218 210.462 50.0749 205.545C56.2281 200.628 66.0211 206.71 63.198 214.073C60.3748 221.437 67.9521 232.524 74.1346 229.56C80.317 226.596 83.714 225.925 87.6765 227.448C91.6389 228.974 88.9289 232.636 94.0411 236.023C99.1534 239.408 103.162 238.058 103.162 238.058C103.162 238.058 109.043 235.946 112.021 233.577C112.911 232.868 113.73 232.064 114.446 231.282C114.446 231.201 114.457 231.117 114.478 231.031C114.551 230.729 114.622 230.428 114.695 230.126C115.001 228.384 115.435 226.669 116.076 225.022C116.111 224.932 116.153 224.854 116.199 224.784C115.958 223.174 116.151 221.118 117.78 219.153C121.175 215.062 125.781 218.402 126.516 219.64C127.251 220.878 126.151 224.148 127.567 225.592C128.983 227.037 129.963 226.977 130.887 225.889C131.81 224.799 132.175 220.292 133.861 218.394C135.547 216.493 137.632 216.533 140.133 216.61C142.634 216.687 144.778 216 144.778 216C144.778 216 149.39 210.066 146.274 205.54L146.27 205.545Z" fill="#EB8231"/>
<path d="M104.553 241.658C104.553 241.658 110.243 239.031 113.018 236.404C115.793 233.777 117.737 230.13 117.737 230.13C117.737 230.13 114.545 225.898 117.598 221.52C120.652 217.143 125.509 220.061 126.342 221.228C127.176 222.395 126.342 225.751 127.869 227.065C129.396 228.378 130.367 228.232 131.199 227.065C132.032 225.898 132.032 221.375 133.559 219.332C135.086 217.288 137.168 217.143 139.666 216.998C142.165 216.852 144.247 215.976 144.247 215.976C144.247 215.976 148.364 209.652 144.894 205.421C141.423 201.189 135.92 202.552 134.255 200.509C132.59 198.465 132.451 191.899 129.674 188.981C126.897 186.063 122.04 182.415 115.657 185.187C109.273 187.959 103.721 187.959 101.223 185.187C98.7242 182.415 98.9106 173.659 94.1921 170.594C89.4736 167.529 82.7194 164.952 74.763 169.817C70.3042 172.543 64.8171 178.037 59.4053 177.599C53.9936 177.16 49.0426 173.318 47.5619 167.287C46.0812 161.255 36.2735 158.921 31.2785 162.812C26.2814 166.703 22.3965 166.897 17.2151 164.952C12.6306 163.23 2.15269 163.4 2.59669 173.901C2.96739 182.657 10.3687 181.296 9.44305 187.327C8.51735 193.359 5.55807 198.806 11.4787 201.337C17.3994 203.867 19.8058 199.976 23.6908 201.337C27.5757 202.697 29.2428 204.838 30.5371 211.259C31.8314 217.68 43.3041 219.431 49.0405 213.983C54.7769 208.535 63.4746 215.54 61.2525 223.128C59.0325 230.716 69.0246 239.276 74.9452 235.774C80.8659 232.273 84.198 231.3 88.2694 232.467C92.3407 233.634 89.9343 237.525 95.3 240.445C100.666 243.363 104.553 241.66 104.553 241.66V241.658Z" fill="#EB8231"/>
<path d="M138.037 232.183C137.687 231.947 137.677 231.555 138.003 231.016C138.33 230.478 138.676 230.322 139.023 230.558C139.373 230.793 139.383 231.185 139.057 231.725C138.73 232.262 138.384 232.418 138.037 232.183Z" fill="#303336"/>
<path d="M136.403 243.92C136.3 243.92 136.198 243.88 136.116 243.801C134.92 242.618 132.688 239.353 132.593 239.214C132.459 239.018 132.501 238.743 132.69 238.602C132.876 238.461 133.138 238.505 133.272 238.703C133.295 238.736 135.553 242.037 136.688 243.162C136.855 243.327 136.864 243.607 136.707 243.783C136.625 243.876 136.514 243.922 136.403 243.922V243.92Z" fill="#EB8231"/>
<path d="M142.439 229.84C142.223 229.84 142.041 229.666 142.024 229.435C142.016 229.34 141.75 226.995 137.582 226.995C137.352 226.995 137.166 226.799 137.166 226.557C137.166 226.314 137.352 226.118 137.582 226.118C142.561 226.118 142.845 229.236 142.856 229.369C142.873 229.611 142.701 229.822 142.473 229.84C142.462 229.84 142.452 229.84 142.441 229.84H142.439Z" fill="#292F44"/>
<path d="M122.596 233.196C122.583 233.196 122.57 233.196 122.558 233.196C122.424 233.183 119.234 232.859 117.408 230.401C117.265 230.21 117.299 229.935 117.479 229.785C117.661 229.635 117.923 229.67 118.065 229.86C119.663 232.011 122.602 232.317 122.631 232.319C122.861 232.341 123.029 232.555 123.008 232.795C122.989 233.024 122.807 233.194 122.593 233.194L122.596 233.196Z" fill="#EB8231"/>
<path d="M123.01 230.276C122.87 230.276 122.734 230.201 122.654 230.067C122.038 229.014 121.414 225.363 121.343 222.406C121.337 222.163 121.519 221.963 121.749 221.956C121.98 221.952 122.17 222.141 122.176 222.384C122.248 225.383 122.884 228.787 123.364 229.606C123.485 229.813 123.423 230.082 123.228 230.21C123.159 230.254 123.083 230.276 123.01 230.276Z" fill="#EB8231"/>
<path d="M125.508 251.435C125.479 251.435 125.45 251.433 125.42 251.424C123.483 250.984 120.553 248.478 117.604 239.049L117.55 238.877C117.477 238.648 117.596 238.399 117.814 238.322C118.032 238.245 118.268 238.37 118.342 238.6L118.396 238.776C120.57 245.721 123.194 250.019 125.596 250.568C125.823 250.618 125.965 250.852 125.917 251.089C125.875 251.294 125.701 251.435 125.508 251.435Z" fill="#EB8231"/>
<path d="M128.728 237.937C127.628 236.959 127.762 235.6 129.126 233.907C130.489 232.214 131.741 231.85 132.841 232.828C133.94 233.806 133.806 235.164 132.443 236.858C131.08 238.551 129.827 238.914 128.728 237.937Z" fill="#FE9074"/>
<path d="M59.5876 270.404C36.8265 275.658 23.5045 281.493 7.68182 292.582C7.68182 292.582 6.01683 301.045 10.1804 315.054C14.3439 329.064 19.3409 335.192 19.3409 335.192L43.2121 326.729L34.885 373.716C34.885 373.716 52.6491 384.515 80.1288 385.099C107.608 385.682 120.099 378.387 120.099 378.387L122.598 384.225C122.598 384.225 139.528 381.598 153.131 375.176C166.733 368.755 177.557 356.789 177.557 356.789C177.557 356.789 168.951 327.896 162.846 315.347C156.739 302.798 147.026 284.413 122.321 276.241C97.6185 268.069 59.5918 270.404 59.5918 270.404H59.5876Z" fill="#94C7D4"/>
<path d="M98.7244 259.898C89.3355 255.042 58.1279 237.503 47.0971 243.554C40.7136 247.055 38.4936 260.481 42.3786 267.486C46.2635 274.491 75.3831 276.265 86.5123 277.118C101.778 278.285 122.319 276.241 122.319 276.241C122.319 276.241 115.657 268.653 98.7265 259.898H98.7244Z" fill="#F6B60D"/>
<path d="M120.097 378.823C119.927 378.823 119.766 378.713 119.705 378.535C115.422 366.19 106.622 330.891 104.972 317.886C104.94 317.646 105.102 317.426 105.33 317.393C105.558 317.362 105.768 317.529 105.799 317.769C107.443 330.733 116.218 365.924 120.489 378.235C120.568 378.462 120.455 378.715 120.239 378.797C120.191 378.814 120.143 378.823 120.097 378.823Z" fill="#292F44"/>
<path d="M43.21 327.168C43.1807 327.168 43.1493 327.163 43.1178 327.157C42.8938 327.104 42.7513 326.87 42.8016 326.633C47.0552 306.574 51.2292 289.434 51.2711 289.264C51.3276 289.028 51.5559 288.887 51.78 288.947C52.0041 289.006 52.1381 289.246 52.0816 289.482C52.0397 289.652 47.8699 306.781 43.6184 326.824C43.5744 327.029 43.4027 327.168 43.2121 327.168H43.21Z" fill="#292F44"/>
<path d="M112.046 274.929C112.029 274.929 112.012 274.929 111.994 274.924C109.508 274.603 51.0215 266.971 43.8023 261.717C43.6139 261.578 43.5657 261.305 43.6976 261.107C43.8296 260.906 44.0893 260.858 44.2778 260.996C51.3294 266.129 111.489 273.975 112.094 274.055C112.322 274.083 112.486 274.303 112.457 274.543C112.431 274.766 112.251 274.929 112.042 274.929H112.046Z" fill="#292F44"/>
<path d="M45.4342 196.836C44.1315 196.836 42.7912 196.578 41.566 196.054C38.4287 194.709 36.305 191.813 35.5825 187.895C35.0379 184.938 33.4902 182.547 30.9812 180.792C26.8512 177.903 21.0855 177.467 17.2027 178.319C16.9765 178.367 16.7566 178.215 16.7084 177.98C16.6602 177.744 16.8068 177.511 17.0309 177.46C21.0834 176.573 27.1109 177.033 31.442 180.061C34.1437 181.95 35.8128 184.531 36.4014 187.728C37.2537 192.363 39.8507 194.372 41.8801 195.241C44.5022 196.365 47.6898 196.162 49.6333 194.748C49.8239 194.61 50.0836 194.66 50.2135 194.858C50.3454 195.057 50.2972 195.332 50.1087 195.468C48.8689 196.371 47.1851 196.836 45.4342 196.836Z" fill="#292F44"/>
<path d="M102.655 200.007C100.687 200.007 98.521 199.615 96.5733 198.633C93.8046 197.234 91.8736 194.918 90.8348 191.749C89.639 188.105 87.1844 185.544 83.9194 184.537C80.7213 183.551 77.1337 184.266 74.5556 186.407C74.3755 186.557 74.1116 186.526 73.9692 186.334C73.8268 186.145 73.8582 185.867 74.0383 185.718C76.8657 183.37 80.648 182.615 84.1539 183.696C87.685 184.784 90.3385 187.543 91.6244 191.465C92.5878 194.405 94.3763 196.552 96.9356 197.844C100.28 199.535 104.308 199.364 106.632 198.492C106.85 198.41 107.089 198.529 107.166 198.758C107.244 198.987 107.131 199.238 106.913 199.32C105.786 199.742 104.289 200.011 102.655 200.011V200.007Z" fill="#292F44"/>
<path d="M138.416 211.307C138.213 211.307 138.035 211.151 138.003 210.935C137.725 209.028 136.433 208.861 133.769 208.687C132.2 208.586 130.422 208.471 128.562 207.78C125.733 206.729 125.106 204.078 124.65 202.14C124.26 200.493 124.017 199.632 123.148 199.632C122.918 199.632 122.731 199.436 122.731 199.194C122.731 198.952 122.918 198.756 123.148 198.756C124.711 198.756 125.075 200.297 125.458 201.929C125.915 203.865 126.432 206.06 128.836 206.952C130.587 207.601 132.303 207.714 133.817 207.811C136.292 207.971 138.431 208.11 138.824 210.801C138.86 211.041 138.703 211.263 138.475 211.301C138.454 211.305 138.431 211.305 138.41 211.305L138.416 211.307Z" fill="#292F44"/>
<path d="M100.111 230.569C99.941 230.569 99.7798 230.459 99.719 230.28C98.6321 227.167 96.4184 224.738 93.3167 223.256C89.1636 221.274 83.6095 221.155 79.1653 222.95C78.9496 223.036 78.7087 222.923 78.625 222.699C78.5412 222.472 78.6501 222.219 78.8637 222.13C83.5048 220.254 89.3123 220.382 93.6581 222.456C96.9692 224.037 99.3337 226.638 100.5 229.979C100.58 230.205 100.469 230.459 100.251 230.542C100.203 230.56 100.155 230.569 100.106 230.569H100.111Z" fill="#292F44"/>
<path d="M72.6328 212.182C72.4024 212.182 72.2161 211.986 72.2161 211.743C72.2161 209.374 71.0537 206.873 69.0285 204.88C67.0619 202.946 64.6283 201.832 62.668 201.966C62.4376 201.982 62.2387 201.799 62.224 201.557C62.2093 201.315 62.3832 201.105 62.6136 201.09C64.7917 200.938 67.4703 202.143 69.5981 204.237C71.793 206.395 73.0496 209.13 73.0496 211.741C73.0496 211.983 72.8632 212.179 72.6328 212.179V212.182Z" fill="#292F44"/>
<path d="M102.511 216.868C100.226 216.868 98.4121 215.991 97.1806 215.132C94.3659 213.166 92.793 210.143 92.4831 208.018C92.4475 207.778 92.6045 207.555 92.8328 207.518C93.0611 207.483 93.2747 207.646 93.3082 207.886C93.5826 209.757 95.0549 212.596 97.6435 214.404C99.1409 215.45 101.587 216.524 104.731 215.698C105.594 215.472 106.385 215.258 107.116 215.06C112.105 213.712 114.381 213.098 117.921 214.051C118.145 214.111 118.279 214.351 118.222 214.584C118.166 214.82 117.938 214.961 117.716 214.901C114.386 214.003 112.172 214.602 107.326 215.91C106.593 216.108 105.799 216.322 104.936 216.548C104.079 216.773 103.271 216.87 102.515 216.87L102.511 216.868Z" fill="#292F44"/>
<path d="M247.776 326.001C247.696 326.001 247.616 325.976 247.545 325.928C245.719 324.659 243.773 324.096 241.763 324.257C240.255 324.375 239.275 324.88 239.264 324.884C239.059 324.992 238.808 324.904 238.705 324.686C238.602 324.47 238.686 324.206 238.891 324.098C239.067 324.006 243.233 321.883 248.006 325.195C248.199 325.329 248.251 325.6 248.125 325.802C248.046 325.93 247.912 326.001 247.776 326.001Z" fill="#EB8231"/>
<path d="M259.803 334.659C259.723 334.659 259.644 334.635 259.573 334.586C257.702 333.276 257.642 328.581 259.453 325.617C259.577 325.413 259.836 325.353 260.029 325.485C260.224 325.615 260.278 325.888 260.155 326.091C258.488 328.817 258.68 332.906 260.035 333.855C260.228 333.99 260.278 334.263 260.151 334.463C260.071 334.591 259.937 334.659 259.803 334.659Z" fill="#EB8231"/>
<path d="M65.6335 139.703H62.0648C58.6845 139.703 55.9368 136.812 55.9368 133.26V117.255C50.6172 114.126 47.3689 108.049 47.6244 101.617C47.9762 92.7204 54.8875 85.5439 63.3549 85.2775C67.7928 85.141 71.9814 86.8475 75.1606 90.0911C78.3398 93.3347 80.0907 97.6882 80.0907 102.343C80.0907 108.566 76.9136 114.23 71.7636 117.253V133.258C71.7636 136.812 69.0138 139.701 65.6356 139.701L65.6335 139.703ZM63.8512 87.0237C63.7025 87.0237 63.5518 87.0259 63.4031 87.0303C55.8069 87.2681 49.6077 93.7069 49.2915 101.687C49.0569 107.619 52.1419 113.217 57.1557 115.95C57.4321 116.102 57.606 116.401 57.606 116.729V133.258C57.606 135.843 59.606 137.946 62.0648 137.946H65.6335C68.0923 137.946 70.0923 135.843 70.0923 133.258V116.729C70.0923 116.401 70.2662 116.102 70.5426 115.95C75.4015 113.301 78.4194 108.088 78.4194 102.343C78.4194 98.1638 76.8487 94.2596 73.9962 91.3507C71.2526 88.5519 67.665 87.0237 63.8533 87.0237H63.8512Z" fill="#F6B60D"/>
<path d="M59.407 125.839C59.0322 125.839 58.6929 125.573 58.5986 125.174C58.4876 124.703 58.7578 124.227 59.206 124.11L68.088 121.776C68.5362 121.657 68.9886 121.944 69.0996 122.415C69.2106 122.886 68.9404 123.362 68.4922 123.478L59.6102 125.813C59.5432 125.83 59.4741 125.839 59.407 125.839Z" fill="#F6B60D"/>
<path d="M59.407 133.137C59.0322 133.137 58.6929 132.87 58.5986 132.472C58.4876 132 58.7578 131.525 59.206 131.408L68.088 129.074C68.5362 128.957 68.9886 129.243 69.0996 129.712C69.2106 130.184 68.9404 130.659 68.4922 130.776L59.6102 133.11C59.5432 133.128 59.4741 133.137 59.407 133.137Z" fill="#F6B60D"/>
<path d="M53.3001 105.556C52.898 105.556 52.542 105.248 52.477 104.816C52.4037 104.338 52.7137 103.887 53.1703 103.812L56.0269 103.332L56.6385 98.58C56.6741 98.307 56.8291 98.067 57.0573 97.9326C57.2856 97.7983 57.56 97.7829 57.8008 97.893L61.6397 99.659L64.7121 95.3959C64.8713 95.1735 65.1226 95.0414 65.3865 95.048C65.6504 95.0502 65.8975 95.1845 66.0546 95.4113L68.5594 99.0469L72.5093 97.0342C72.769 96.9021 73.0727 96.9197 73.3156 97.0804C73.5585 97.2412 73.7072 97.5209 73.7072 97.8247V102.931C73.7072 103.416 73.3345 103.81 72.8716 103.81C72.4088 103.81 72.036 103.418 72.036 102.931V99.2252L68.6557 100.949C68.2913 101.134 67.8536 101.02 67.6148 100.674L65.3613 97.4019L62.5717 101.273C62.3392 101.597 61.9267 101.709 61.5727 101.546L58.1443 99.9695L57.5977 104.215C57.5474 104.598 57.2668 104.902 56.9024 104.964L53.4321 105.547C53.3881 105.554 53.342 105.558 53.3001 105.558V105.556Z" fill="#F6B60D"/>
<path d="M439.298 79.2491C434.399 79.2491 430.414 75.0586 430.414 69.9081C430.414 64.7575 434.399 60.567 439.298 60.567C444.196 60.567 448.182 64.7575 448.182 69.9081C448.182 75.0586 444.196 79.2491 439.298 79.2491ZM439.298 62.322C435.318 62.322 432.083 65.7242 432.083 69.9081C432.083 74.0919 435.318 77.4941 439.298 77.4941C443.277 77.4941 446.513 74.0919 446.513 69.9081C446.513 65.7242 443.277 62.322 439.298 62.322Z" fill="#EB8231"/>
<path d="M144.209 85.7142C144.033 85.7142 143.855 85.6547 143.702 85.5336C143.335 85.2386 143.266 84.688 143.545 84.3027C144.45 83.0585 146.667 79.6564 147.725 74.966C148.699 70.6434 148.341 66.7613 146.655 63.4296C145.034 60.2256 142.408 57.3123 139.302 55.2336C137.808 59.8491 134.652 63.1741 131.693 64.9181C128.34 66.8934 125.029 67.1312 123.05 65.5413C121.112 63.9845 119.362 60.4965 119.935 57.1009C120.279 55.0596 121.573 52.3401 125.777 50.966C129.867 49.6294 134.305 50.4728 138.244 52.5911C138.514 51.107 138.594 49.5017 138.424 47.7841C137.907 42.5366 135.576 38.3418 131.494 35.3184C127.961 32.7001 123.201 31.1301 118.095 30.8967C117.634 30.8747 117.278 30.4651 117.297 29.9828C117.315 29.5006 117.705 29.1218 118.166 29.1439C123.588 29.3905 128.663 31.075 132.455 33.8848C136.885 37.1681 139.524 41.9113 140.083 47.6057C140.292 49.7263 140.156 51.6927 139.769 53.494C143.317 55.7709 146.332 59.0585 148.127 62.6104C149.981 66.2768 150.404 70.6919 149.348 75.3756C148.217 80.3941 145.84 84.0384 144.871 85.3729C144.707 85.5997 144.458 85.7186 144.207 85.7186L144.209 85.7142ZM129.89 52.0825C128.631 52.0825 127.416 52.2674 126.269 52.6418C123.578 53.5204 121.954 55.1697 121.577 57.407C121.136 60.023 122.495 62.8879 124.061 64.1474C125.458 65.2705 128.198 64.9644 130.876 63.3877C133.609 61.778 136.531 58.6644 137.825 54.3286C137.798 54.3131 137.769 54.2977 137.741 54.2823C135.103 52.8268 132.411 52.0825 129.89 52.0825Z" fill="#EB8231"/>
</g>
<path d="M569.214 162.673C568.852 162.673 568.521 162.43 568.427 162.065C567.442 158.278 568.18 154.461 570.452 151.591C572.449 149.067 575.339 147.66 578.378 147.723C580.846 147.774 584.378 147.513 587.172 145.97C590.055 144.379 591.615 141.705 591.807 138.022C592.068 133.007 593.554 129.288 596.223 126.967C598.518 124.971 601.569 124.121 605.291 124.441C608.596 124.725 611.234 123.978 612.922 122.281C614.598 120.597 615.327 118.041 615.035 114.889C614.994 114.442 615.323 114.047 615.771 114.004C616.221 113.961 616.615 114.291 616.658 114.738C616.997 118.386 616.104 121.391 614.079 123.425C612.039 125.473 608.953 126.385 605.154 126.059C601.888 125.779 599.246 126.495 597.296 128.191C594.972 130.213 593.673 133.546 593.436 138.104C593.213 142.384 591.371 145.509 587.963 147.39C584.852 149.108 581.016 149.402 578.347 149.345C575.815 149.296 573.411 150.477 571.734 152.597C569.782 155.063 569.152 158.364 570.009 161.653C570.121 162.087 569.862 162.532 569.424 162.644C569.355 162.663 569.287 162.671 569.22 162.671L569.214 162.673Z" fill="#F7BB29"/>
<path d="M504.628 307.849C503.291 307.849 502.125 307.422 501.152 306.58C499.631 305.262 498.947 303.203 498.644 301.792C496.842 303.25 493.177 305.711 489.3 305.37C486.754 305.146 484.573 303.756 482.816 301.245C481.209 298.948 480.666 296.557 481.197 294.137C482.117 289.967 485.988 286.929 487.672 285.781C486.758 284.508 485.123 281.735 485.366 278.489C485.554 275.958 486.84 273.685 489.184 271.737C492.809 268.721 495.961 268.736 497.966 269.278C500.864 270.064 503.167 272.367 504.458 274.629C505.311 273.128 506.905 270.978 509.431 269.939C511.756 268.982 514.358 269.168 517.166 270.492C519.753 271.712 521.38 273.491 522.001 275.782C522.935 279.228 521.307 282.865 520.354 284.589C521.343 284.853 522.827 285.358 524.274 286.277C526.585 287.743 529.216 290.549 528.621 295.592C528.208 299.103 526.344 301.633 523.375 302.716C519.766 304.032 515.398 302.965 512.697 301.065C511.875 303.183 509.664 307.477 505.135 307.83C504.961 307.845 504.792 307.851 504.624 307.851L504.628 307.849ZM500.038 300.143C500.04 300.178 500.291 303.683 502.225 305.354C502.989 306.015 503.901 306.294 505.012 306.206C509.76 305.837 511.497 299.554 511.515 299.488C511.589 299.213 511.803 298.995 512.079 298.917C512.355 298.838 512.652 298.909 512.86 299.105C514.973 301.082 519.381 302.44 522.819 301.186C525.216 300.311 526.665 298.311 527.006 295.4C527.955 287.356 519.324 285.997 518.956 285.944C518.678 285.903 518.439 285.722 518.327 285.465C518.214 285.207 518.241 284.91 518.4 284.679C518.431 284.634 521.491 280.101 520.43 276.2C519.937 274.393 518.607 272.967 516.473 271.961C514.103 270.843 511.946 270.668 510.064 271.439C506.713 272.812 505.231 276.763 505.217 276.804C505.098 277.125 504.794 277.339 504.452 277.339C504.109 277.339 503.804 277.125 503.688 276.802C502.997 274.891 500.79 271.728 497.543 270.849C495.168 270.206 492.707 270.927 490.23 272.987C488.242 274.64 487.155 276.529 486.995 278.6C486.713 282.28 489.448 285.414 489.476 285.444C489.638 285.626 489.709 285.873 489.67 286.113C489.631 286.354 489.488 286.564 489.278 286.687C489.223 286.719 483.793 289.936 482.791 294.494C482.362 296.449 482.82 298.407 484.154 300.315C485.622 302.412 487.4 303.567 489.441 303.75C494.025 304.158 498.607 299.666 498.652 299.621C498.879 299.397 499.216 299.323 499.517 299.437C499.815 299.55 500.02 299.827 500.04 300.145L500.038 300.143Z" fill="#76B66E"/>
<defs>
<clipPath id="clip0_0_1">
<rect width="579" height="408" fill="white" transform="translate(-19)"/>
</clipPath>
</defs>
</svg>
