<svg width="471" height="328" viewBox="0 0 471 328" fill="none" xmlns="http://www.w3.org/2000/svg">
<path d="M276.33 127.174C275.992 127.174 275.691 126.934 275.627 126.59L259.268 40.6893C259.234 40.5031 259.273 40.31 259.378 40.1515C259.484 39.9929 259.649 39.8848 259.838 39.8504L264.706 38.9218C265.097 38.8483 265.472 39.1034 265.545 39.4918L281.904 125.392C281.939 125.578 281.899 125.771 281.794 125.93C281.688 126.089 281.523 126.197 281.334 126.231L276.466 127.16C276.42 127.169 276.376 127.174 276.33 127.174ZM260.81 41.126L276.9 125.617L280.36 124.958L264.27 40.4663L260.81 41.126Z" fill="#6DB56D"/>
<path d="M276.33 127.173C276.142 127.173 275.956 127.1 275.816 126.955C275.653 126.787 271.781 122.754 267.299 115.75C263.163 109.287 257.741 98.9951 255.392 86.6687C254.097 79.8678 253.088 68.7734 255.641 54.5509C257.166 46.0468 259.28 40.3629 259.303 40.3054C259.443 39.9354 259.854 39.7469 260.227 39.8871C260.596 40.0273 260.785 40.4387 260.645 40.811C260.562 41.0317 252.389 63.2342 256.801 86.3998C261.21 109.552 276.691 125.799 276.847 125.96C277.123 126.245 277.114 126.698 276.829 126.973C276.689 127.109 276.51 127.176 276.33 127.176V127.173Z" fill="#6DB56D"/>
<path d="M268.231 168.331H252.297C247.826 168.331 244.191 164.693 244.191 160.22V103.484C244.191 97.1013 245.34 92.7918 247.806 89.9234C249.979 87.3928 252.833 86.3516 255.81 85.4231L256.238 86.7929C253.361 87.6893 250.822 88.6133 248.895 90.8588C246.666 93.4537 245.627 97.4644 245.627 103.486V160.222C245.627 163.904 248.621 166.897 252.3 166.897H266.8V163.44H252.3C250.526 163.44 249.083 161.997 249.083 160.222V103.486C249.083 98.4114 249.878 95.0166 251.516 93.1135C252.824 91.592 254.77 90.8841 256.819 90.2359L257.251 91.6035C255.337 92.2103 253.664 92.8125 252.603 94.049C251.199 95.6832 250.517 98.7699 250.517 103.486V160.222C250.517 161.206 251.316 162.006 252.3 162.006H268.234V168.331H268.231Z" fill="#6DB56D"/>
<path d="M302.491 168.267H271.91L274.446 162.006H299.954L302.491 168.267ZM274.037 166.832H300.363L298.989 163.44H275.414L274.04 166.832H274.037Z" fill="#6DB56D"/>
<path d="M350.178 180.168H208.101C207.705 180.168 207.384 179.846 207.384 179.451V168.161C207.384 167.766 207.705 167.444 208.101 167.444H350.178C350.573 167.444 350.894 167.766 350.894 168.161V179.451C350.894 179.846 350.573 180.168 350.178 180.168ZM208.817 178.734H349.461V168.878H208.817V178.734Z" fill="#FE7654"/>
<path d="M209.532 322.687C209.509 322.687 209.489 322.687 209.466 322.685C209.07 322.648 208.781 322.299 208.818 321.906L221.928 179.304C221.964 178.911 222.314 178.616 222.707 178.655C223.102 178.692 223.391 179.042 223.355 179.435L210.244 322.037C210.21 322.409 209.897 322.687 209.532 322.687Z" fill="#EB8231"/>
<path d="M217.16 322.687C217.137 322.687 217.116 322.687 217.093 322.685C216.698 322.648 216.409 322.299 216.446 321.906L229.556 179.304C229.592 178.911 229.942 178.616 230.335 178.655C230.73 178.692 231.019 179.042 230.982 179.435L217.872 322.037C217.838 322.409 217.525 322.687 217.16 322.687Z" fill="#EB8231"/>
<path d="M352.56 322.687C352.195 322.687 351.883 322.407 351.848 322.037L338.738 179.435C338.701 179.039 338.993 178.69 339.386 178.655C339.783 178.616 340.13 178.911 340.165 179.304L353.275 321.906C353.312 322.301 353.02 322.65 352.627 322.685C352.604 322.685 352.583 322.687 352.56 322.687Z" fill="#EB8231"/>
<path d="M344.932 322.687C344.567 322.687 344.255 322.407 344.22 322.037L331.11 179.435C331.073 179.039 331.365 178.69 331.758 178.655C332.155 178.616 332.502 178.911 332.537 179.304L345.647 321.906C345.684 322.301 345.392 322.65 344.999 322.685C344.976 322.685 344.955 322.687 344.932 322.687Z" fill="#EB8231"/>
<path d="M417.37 230.58C399.688 230.58 386.242 229.456 379.653 227.316C369.773 224.112 369.215 205.918 373.702 190.427C378.605 173.506 399.876 167.425 407.886 165.138C415.751 162.89 430.306 162.354 433.46 162.265C434.331 157.305 440.252 124.47 446.304 113.031C452.928 100.513 464.016 92.145 475.245 91.1889C488.89 90.0282 491.951 93.0781 492.633 94.4434C493.237 95.65 493.763 112.681 493.274 131.388C492.449 162.91 489.513 178.907 487.197 186.777C483.902 197.961 480.384 208.653 473.613 216.555C466.344 225.039 456.211 229.302 441.727 229.975C432.992 230.382 424.805 230.58 417.37 230.58ZM480.773 92.3702C479.174 92.3702 477.377 92.4461 475.366 92.6185C464.621 93.5332 453.969 101.612 447.572 113.702C441.263 125.624 434.837 162.715 434.772 163.087C434.715 163.425 434.425 163.676 434.081 163.683C433.908 163.687 416.766 164.092 408.279 166.517C400.478 168.746 379.761 174.667 375.078 190.827C372.714 198.984 371.887 207.083 372.746 213.636C373.624 220.327 376.234 224.703 380.094 225.953C389.298 228.939 412.313 229.907 441.661 228.541C471.534 227.151 478.808 210.186 485.823 186.37C488.102 178.636 490.992 162.89 491.831 131.799C492.36 112.226 491.737 96.3488 491.342 95.0617C490.634 93.701 487.44 92.3679 480.775 92.3679L480.773 92.3702Z" fill="#F6B60D"/>
<path d="M442.527 216.861H372.799C372.404 216.861 372.082 216.539 372.082 216.144C372.082 215.748 372.404 215.427 372.799 215.427H442.527C449.955 215.427 457.28 213.011 463.15 208.623C469.994 203.507 474.863 195.741 477.232 186.163C482.22 165.974 482.868 149.58 483.55 132.224L483.647 129.79C484.354 112.12 484.598 92.3311 484.6 92.1334C484.605 91.7404 484.924 91.4255 485.317 91.4255C485.319 91.4255 485.324 91.4255 485.326 91.4255C485.722 91.4301 486.039 91.7542 486.034 92.1518C486.032 92.3495 485.788 112.159 485.081 129.85L484.984 132.284C484.297 149.715 483.647 166.181 478.624 186.51C476.177 196.414 471.123 204.459 464.009 209.775C457.893 214.346 450.265 216.863 442.529 216.863L442.527 216.861Z" fill="#F6B60D"/>
<path d="M430.352 297.461C429.956 297.461 429.635 297.139 429.635 296.744V229.895C429.635 229.5 429.956 229.178 430.352 229.178C430.747 229.178 431.068 229.5 431.068 229.895V296.744C431.068 297.139 430.747 297.461 430.352 297.461Z" fill="#75ACBA"/>
<path d="M421.409 297.461C421.014 297.461 420.692 297.139 420.692 296.744V229.895C420.692 229.5 421.014 229.178 421.409 229.178C421.804 229.178 422.126 229.5 422.126 229.895V296.744C422.126 297.139 421.804 297.461 421.409 297.461Z" fill="#75ACBA"/>
<path d="M475.564 320.424C472.501 320.424 470.008 317.931 470.008 314.867C470.008 310.656 466.583 307.229 462.373 307.229H389.746C385.537 307.229 382.111 310.656 382.111 314.867C382.111 317.931 379.618 320.424 376.556 320.424C373.493 320.424 371 317.931 371 314.867C371 304.526 379.409 296.114 389.746 296.114H462.373C472.71 296.114 481.12 304.526 481.12 314.867C481.12 317.931 478.627 320.424 475.564 320.424ZM389.746 305.795H462.373C467.373 305.795 471.442 309.866 471.442 314.867C471.442 317.14 473.292 318.99 475.564 318.99C477.836 318.99 479.686 317.14 479.686 314.867C479.686 305.317 471.92 297.548 462.373 297.548H389.746C380.2 297.548 372.434 305.317 372.434 314.867C372.434 317.14 374.283 318.99 376.556 318.99C378.828 318.99 380.678 317.14 380.678 314.867C380.678 309.866 384.747 305.795 389.746 305.795Z" fill="#75ACBA"/>
<path d="M461.202 322.978C457.039 322.978 453.652 319.59 453.652 315.425C453.652 311.261 457.039 307.873 461.202 307.873C465.365 307.873 468.752 311.261 468.752 315.425C468.752 319.59 465.365 322.978 461.202 322.978ZM461.202 309.305C457.829 309.305 455.086 312.049 455.086 315.423C455.086 318.797 457.829 321.542 461.202 321.542C464.575 321.542 467.318 318.797 467.318 315.423C467.318 312.049 464.575 309.305 461.202 309.305Z" fill="#292F44"/>
<path d="M461.201 318.618C459.442 318.618 458.008 317.186 458.008 315.423C458.008 313.66 459.439 312.228 461.201 312.228C462.964 312.228 464.395 313.66 464.395 315.423C464.395 317.186 462.964 318.618 461.201 318.618ZM461.201 313.665C460.232 313.665 459.442 314.453 459.442 315.425C459.442 316.398 460.23 317.186 461.201 317.186C462.173 317.186 462.961 316.398 462.961 315.425C462.961 314.453 462.173 313.665 461.201 313.665Z" fill="#292F44"/>
<path d="M390.521 322.978C386.357 322.978 382.971 319.59 382.971 315.425C382.971 311.261 386.357 307.873 390.521 307.873C394.684 307.873 398.071 311.261 398.071 315.425C398.071 319.59 394.684 322.978 390.521 322.978ZM390.521 309.305C387.148 309.305 384.404 312.049 384.404 315.423C384.404 318.797 387.148 321.542 390.521 321.542C393.894 321.542 396.637 318.797 396.637 315.423C396.637 312.049 393.894 309.305 390.521 309.305Z" fill="#292F44"/>
<path d="M390.52 318.556C388.795 318.556 387.391 317.151 387.391 315.425C387.391 313.699 388.795 312.295 390.52 312.295C392.246 312.295 393.65 313.699 393.65 315.425C393.65 317.151 392.246 318.556 390.52 318.556ZM390.52 313.727C389.585 313.727 388.825 314.488 388.825 315.423C388.825 316.358 389.585 317.119 390.52 317.119C391.456 317.119 392.216 316.358 392.216 315.423C392.216 314.488 391.456 313.727 390.52 313.727Z" fill="#292F44"/>
<path d="M88.8539 147.99C88.1995 145.59 88.3863 143.102 89.4261 140.904C90.6405 138.342 92.8393 136.559 95.4589 136.014C104.656 134.097 105.755 128.98 105.056 125.025C104.287 120.664 104.825 117.177 106.655 114.653C108.23 112.486 110.677 111.152 113.934 110.69C116.824 110.281 118.939 109.116 120.052 107.325C121.156 105.547 121.276 103.209 120.401 100.557C120.278 100.185 120.481 99.7752 120.857 99.6513C121.233 99.5274 121.638 99.7311 121.762 100.107C122.775 103.175 122.604 105.931 121.27 108.081C119.926 110.245 117.458 111.637 114.135 112.109C111.28 112.514 109.153 113.653 107.816 115.494C106.223 117.691 105.768 120.813 106.467 124.776C107.125 128.497 106.164 131.545 103.611 133.837C101.281 135.927 98.0504 136.939 95.7489 137.418C93.5734 137.871 91.7393 139.366 90.7203 141.518C89.5331 144.023 89.6467 146.984 91.033 149.64C91.2172 149.992 91.0802 150.424 90.7294 150.606C90.3793 150.789 89.9443 150.653 89.7629 150.303C89.3696 149.55 89.0672 148.773 88.8539 147.99Z" fill="#FE8263"/>
<path d="M236.549 152.858C236.51 152.858 236.468 152.856 236.429 152.849C233.029 152.277 230.221 150.307 228.73 147.448C227.418 144.933 227.324 142.104 228.468 139.686C232.487 131.194 229.068 127.231 225.493 125.402C221.552 123.386 219.094 120.851 218.186 117.867C217.405 115.305 217.819 112.547 219.416 109.671C220.831 107.118 221.18 104.73 220.422 102.762C219.671 100.809 217.876 99.3009 215.234 98.3999C214.859 98.2712 214.66 97.8644 214.786 97.4897C214.915 97.1151 215.321 96.9152 215.696 97.0416C218.754 98.085 220.849 99.8847 221.759 102.245C222.674 104.622 222.297 107.43 220.668 110.365C219.269 112.889 218.894 115.27 219.558 117.447C220.348 120.042 222.566 122.289 226.148 124.121C229.511 125.843 231.363 128.449 231.653 131.867C231.915 134.986 230.773 138.174 229.766 140.297C228.815 142.306 228.902 144.671 230.005 146.784C231.287 149.241 233.718 150.937 236.673 151.433C237.064 151.5 237.325 151.87 237.261 152.258C237.201 152.608 236.898 152.856 236.556 152.856L236.549 152.858Z" fill="#F6B60D"/>
<path d="M314.973 114.985C310.766 114.985 307.343 111.561 307.343 107.352C307.343 103.144 310.766 99.7192 314.973 99.7192C319.18 99.7192 322.603 103.144 322.603 107.352C322.603 111.561 319.18 114.985 314.973 114.985ZM314.973 101.153C311.557 101.153 308.776 103.935 308.776 107.352C308.776 110.77 311.557 113.551 314.973 113.551C318.39 113.551 321.17 110.77 321.17 107.352C321.17 103.935 318.39 101.153 314.973 101.153Z" fill="#94C7D4"/>
<path d="M5.89497 47.6522C5.68589 47.6522 5.4814 47.5626 5.33895 47.3879C0.309491 41.2213 -3.03582 31.2485 4.08905 23.4455C5.25393 22.1676 6.52221 21.193 7.83185 20.4668C7.20001 16.9755 7.47802 13.2797 8.61304 10.2182C9.78252 7.05559 12.2203 4.40093 15.6575 2.54612C19.3405 0.558006 22.8995 0.10292 24.2597 0.00179081C24.6549 -0.02579 24.9995 0.268406 25.0294 0.663731C25.0593 1.05906 24.7629 1.40382 24.3677 1.4337C23.0994 1.53023 19.7817 1.95313 16.3399 3.81024C13.1669 5.52255 11.0209 7.84623 9.95943 10.7192C8.81982 13.8014 8.63601 16.9663 9.13 19.8393C12.7855 18.2833 16.6064 18.4993 19.352 19.4463C22.4538 20.5173 24.478 22.5008 24.6388 24.6223C24.7951 26.7 23.6738 29.6994 21.2889 31.1704C19.8552 32.053 17.4726 32.6988 14.2514 30.7613C11.1197 28.8766 9.11391 25.5945 8.1604 21.9423C7.1104 22.5721 6.09486 23.3857 5.15055 24.4177C2.26476 27.5803 1.04702 31.329 1.52952 35.5626C1.94769 39.2286 3.69616 43.1083 6.45329 46.4892C6.70372 46.7972 6.65778 47.2477 6.3499 47.4982C6.21664 47.6063 6.0558 47.6591 5.89727 47.6591L5.89497 47.6522ZM9.43329 21.2666C10.3868 24.9555 12.4615 28.0055 14.9866 29.527C17.0452 30.7659 18.9637 30.9107 20.533 29.9454C22.3665 28.8145 23.3315 26.4058 23.2051 24.728C23.0925 23.2317 21.3556 21.6527 18.881 20.8C16.3514 19.9266 12.7993 19.7473 9.43557 21.2689L9.43329 21.2666Z" fill="#F7B920"/>
<path d="M255.957 267.989C255.902 267.989 255.844 267.982 255.789 267.968C255.406 267.876 255.167 267.487 255.258 267.104L258.016 255.612C258.073 255.377 258.241 255.186 258.468 255.106L268.242 251.546L275.006 241.398C275.14 241.198 275.362 241.079 275.604 241.079H275.611C275.852 241.079 276.077 241.205 276.208 241.408L284.647 254.534L293.373 253.079C293.725 253.019 294.065 253.228 294.173 253.566L296.801 261.748L302.366 262.891C302.755 262.971 303.005 263.35 302.925 263.736C302.844 264.125 302.467 264.373 302.079 264.295L296.105 263.07C295.853 263.017 295.646 262.833 295.568 262.587L292.999 254.596L284.417 256.025C284.135 256.074 283.852 255.947 283.696 255.706L275.595 243.104L269.308 252.536C269.223 252.663 269.102 252.759 268.957 252.812L259.323 256.32L256.655 267.437C256.577 267.766 256.283 267.986 255.959 267.986L255.957 267.989Z" fill="#94C7D4"/>
<path d="M275.259 264.311C275.213 264.311 275.167 264.307 275.122 264.297L264.245 262.153C263.856 262.077 263.604 261.7 263.679 261.309C263.755 260.921 264.13 260.668 264.523 260.744L274.641 262.739L275.776 253.24C275.822 252.847 276.176 252.562 276.574 252.612C276.966 252.658 277.247 253.017 277.201 253.41L275.976 263.677C275.953 263.874 275.848 264.054 275.687 264.171C275.563 264.261 275.416 264.309 275.266 264.309L275.259 264.311Z" fill="#94C7D4"/>
<path d="M301.103 327.423L252.485 327.292C252.125 327.292 251.821 327.023 251.775 326.664L242.006 250.008C241.955 249.615 242.233 249.257 242.626 249.206C243.017 249.153 243.378 249.434 243.428 249.827L253.117 325.86L300.471 325.986L310.162 249.985C310.213 249.592 310.573 249.314 310.964 249.365C311.357 249.415 311.635 249.774 311.584 250.167L301.813 326.798C301.767 327.156 301.463 327.425 301.103 327.425V327.423Z" fill="#F6B60D"/>
<path d="M276.95 274.502C276.891 274.502 276.833 274.502 276.773 274.502C265.373 274.479 256.649 272.293 250.843 268.007C244.968 263.67 241.999 257.156 242.015 248.647C242.031 240.139 245.027 233.637 250.918 229.323C256.711 225.082 265.384 222.931 276.695 222.931C276.755 222.931 276.815 222.931 276.874 222.931C288.275 222.954 296.999 225.139 302.805 229.426C308.68 233.763 311.649 240.277 311.633 248.785C311.617 257.294 308.62 263.796 302.729 268.11C296.937 272.351 288.264 274.502 276.95 274.502ZM276.695 224.367C265.694 224.367 257.308 226.424 251.766 230.481C246.263 234.51 243.465 240.624 243.449 248.65C243.433 256.676 246.206 262.801 251.693 266.853C257.248 270.956 265.687 273.045 276.776 273.068C276.833 273.068 276.895 273.068 276.953 273.068C298.984 273.068 310.167 264.899 310.199 248.783C310.231 232.625 299.019 224.411 276.872 224.367C276.812 224.367 276.755 224.367 276.695 224.367Z" fill="#F6B60D"/>
<path d="M276.946 272.075C276.888 272.075 276.833 272.075 276.776 272.075C266.211 272.054 258.124 270.078 252.738 266.198C247.279 262.268 244.52 256.363 244.536 248.652C244.552 240.941 247.334 235.048 252.809 231.138C258.181 227.302 266.218 225.358 276.7 225.358C276.757 225.358 276.812 225.358 276.868 225.358C287.432 225.378 295.52 227.355 300.905 231.235C306.364 235.165 309.124 241.07 309.108 248.781C309.091 256.492 306.309 262.385 300.834 266.295C295.462 270.131 287.425 272.075 276.943 272.075H276.946ZM276.7 226.792C266.521 226.792 258.765 228.647 253.643 232.306C248.566 235.93 245.986 241.433 245.972 248.654C245.958 255.878 248.517 261.39 253.579 265.035C258.714 268.733 266.521 270.62 276.78 270.641C276.835 270.641 276.893 270.641 276.948 270.641C287.124 270.641 294.881 268.786 300.004 265.127C305.082 261.502 307.662 256 307.676 248.776C307.69 241.552 305.13 236.041 300.069 232.395C294.934 228.697 287.126 226.81 276.868 226.79C276.812 226.79 276.755 226.79 276.7 226.79V226.792Z" fill="#F6B60D"/>
<path d="M277.557 288.217C276.233 288.217 275.156 287.139 275.156 285.815C275.156 284.491 276.233 283.413 277.557 283.413C278.88 283.413 279.958 284.491 279.958 285.815C279.958 287.139 278.88 288.217 277.557 288.217ZM277.557 284.845C277.024 284.845 276.589 285.279 276.589 285.813C276.589 286.346 277.024 286.78 277.557 286.78C278.09 286.78 278.524 286.346 278.524 285.813C278.524 285.279 278.09 284.845 277.557 284.845Z" fill="#F6B60D"/>
<path d="M277.557 302.887C276.233 302.887 275.156 301.809 275.156 300.486C275.156 299.162 276.233 298.084 277.557 298.084C278.88 298.084 279.958 299.162 279.958 300.486C279.958 301.809 278.88 302.887 277.557 302.887ZM277.557 299.516C277.024 299.516 276.589 299.95 276.589 300.483C276.589 301.016 277.024 301.451 277.557 301.451C278.09 301.451 278.524 301.016 278.524 300.483C278.524 299.95 278.09 299.516 277.557 299.516Z" fill="#F6B60D"/>
<path d="M277.557 317.558C276.233 317.558 275.156 316.48 275.156 315.156C275.156 313.832 276.233 312.752 277.557 312.752C278.88 312.752 279.958 313.83 279.958 315.156C279.958 316.483 278.88 317.558 277.557 317.558ZM277.557 314.186C277.024 314.186 276.589 314.621 276.589 315.154C276.589 315.687 277.024 316.122 277.557 316.122C278.09 316.122 278.524 315.687 278.524 315.154C278.524 314.621 278.09 314.186 277.557 314.186Z" fill="#F6B60D"/>
<path d="M289.736 287.219C288.413 287.219 287.335 286.141 287.335 284.817C287.335 283.493 288.413 282.416 289.736 282.416C291.06 282.416 292.137 283.493 292.137 284.817C292.137 286.141 291.06 287.219 289.736 287.219ZM289.736 283.85C289.203 283.85 288.769 284.284 288.769 284.817C288.769 285.351 289.203 285.785 289.736 285.785C290.27 285.785 290.704 285.351 290.704 284.817C290.704 284.284 290.27 283.85 289.736 283.85Z" fill="#F6B60D"/>
<path d="M288.806 301.906C287.482 301.906 286.405 300.828 286.405 299.504C286.405 298.18 287.482 297.102 288.806 297.102C290.129 297.102 291.207 298.18 291.207 299.504C291.207 300.828 290.129 301.906 288.806 301.906ZM288.806 298.534C288.273 298.534 287.838 298.969 287.838 299.502C287.838 300.035 288.273 300.469 288.806 300.469C289.339 300.469 289.773 300.035 289.773 299.502C289.773 298.969 289.339 298.534 288.806 298.534Z" fill="#F6B60D"/>
<path d="M288.28 316.797C286.956 316.797 285.879 315.719 285.879 314.395C285.879 313.072 286.956 311.994 288.28 311.994C289.603 311.994 290.681 313.072 290.681 314.395C290.681 315.719 289.603 316.797 288.28 316.797ZM288.28 313.426C287.747 313.426 287.313 313.86 287.313 314.393C287.313 314.926 287.747 315.361 288.28 315.361C288.813 315.361 289.247 314.926 289.247 314.393C289.247 313.86 288.813 313.426 288.28 313.426Z" fill="#F6B60D"/>
<path d="M300.609 284.654C300.549 284.654 300.489 284.654 300.429 284.647C299.791 284.601 299.207 284.307 298.787 283.822C298.366 283.337 298.162 282.717 298.208 282.075C298.304 280.754 299.457 279.756 300.776 279.853C301.417 279.899 301.999 280.193 302.419 280.678C302.839 281.163 303.044 281.784 302.998 282.422C302.952 283.064 302.658 283.645 302.173 284.066C301.732 284.447 301.183 284.65 300.606 284.65L300.609 284.654ZM300.604 281.282C300.101 281.282 299.676 281.671 299.639 282.181C299.621 282.439 299.703 282.689 299.871 282.884C300.041 283.08 300.275 283.199 300.533 283.218C300.79 283.236 301.04 283.153 301.236 282.986C301.431 282.816 301.551 282.581 301.569 282.324C301.587 282.066 301.505 281.816 301.337 281.62C301.167 281.425 300.932 281.305 300.675 281.287C300.652 281.287 300.627 281.285 300.604 281.285V281.282Z" fill="#F6B60D"/>
<path d="M299.274 300.391C299.214 300.391 299.154 300.391 299.094 300.384C298.453 300.338 297.872 300.044 297.452 299.559C297.031 299.074 296.827 298.454 296.873 297.815C296.919 297.174 297.213 296.592 297.697 296.171C298.182 295.751 298.8 295.546 299.441 295.592C300.082 295.638 300.664 295.932 301.084 296.417C301.505 296.902 301.709 297.523 301.663 298.162C301.617 298.803 301.323 299.385 300.838 299.805C300.397 300.187 299.848 300.389 299.271 300.389L299.274 300.391ZM299.267 297.02C299.035 297.02 298.812 297.102 298.635 297.256C298.44 297.426 298.32 297.661 298.302 297.918C298.283 298.176 298.366 298.426 298.534 298.622C298.704 298.817 298.938 298.936 299.195 298.955C299.724 298.992 300.193 298.592 300.232 298.058C300.25 297.801 300.167 297.551 300 297.355C299.83 297.16 299.595 297.04 299.338 297.022C299.315 297.022 299.29 297.02 299.267 297.02Z" fill="#F6B60D"/>
<path d="M297.962 315.483C297.902 315.483 297.843 315.483 297.783 315.476C297.142 315.43 296.561 315.136 296.14 314.651C295.72 314.166 295.515 313.545 295.561 312.906C295.607 312.265 295.901 311.683 296.386 311.263C296.871 310.842 297.489 310.638 298.132 310.684C298.771 310.73 299.354 311.024 299.775 311.509C300.195 311.994 300.4 312.614 300.354 313.253C300.308 313.894 300.014 314.476 299.529 314.897C299.088 315.278 298.539 315.48 297.962 315.48V315.483ZM297.957 312.113C297.725 312.113 297.503 312.196 297.326 312.35C297.13 312.52 297.011 312.754 296.992 313.012C296.974 313.269 297.057 313.52 297.225 313.715C297.395 313.911 297.629 314.03 297.886 314.048C298.144 314.065 298.394 313.984 298.589 313.816C298.785 313.646 298.904 313.412 298.922 313.154C298.941 312.897 298.858 312.646 298.69 312.451C298.523 312.256 298.286 312.136 298.029 312.118C298.006 312.118 297.98 312.116 297.957 312.116V312.113Z" fill="#F6B60D"/>
<path d="M266.861 287.399C265.538 287.399 264.46 286.321 264.46 284.997C264.46 283.673 265.538 282.595 266.861 282.595C268.185 282.595 269.262 283.673 269.262 284.997C269.262 286.321 268.185 287.399 266.861 287.399ZM266.861 284.027C266.328 284.027 265.894 284.461 265.894 284.994C265.894 285.528 266.328 285.962 266.861 285.962C267.394 285.962 267.829 285.528 267.829 284.994C267.829 284.461 267.394 284.027 266.861 284.027Z" fill="#F6B60D"/>
<path d="M267.792 302.085C266.469 302.085 265.391 301.007 265.391 299.683C265.391 298.36 266.469 297.282 267.792 297.282C269.116 297.282 270.193 298.36 270.193 299.683C270.193 301.007 269.116 302.085 267.792 302.085ZM267.792 298.714C267.259 298.714 266.825 299.148 266.825 299.681C266.825 300.214 267.259 300.649 267.792 300.649C268.325 300.649 268.759 300.214 268.759 299.681C268.759 299.148 268.325 298.714 267.792 298.714Z" fill="#F6B60D"/>
<path d="M268.318 316.974C266.995 316.974 265.917 315.896 265.917 314.572C265.917 313.249 266.995 312.171 268.318 312.171C269.641 312.171 270.721 313.249 270.721 314.572C270.721 315.896 269.644 316.974 268.318 316.974ZM268.318 313.603C267.785 313.603 267.351 314.037 267.351 314.57C267.351 315.103 267.785 315.538 268.318 315.538C268.851 315.538 269.285 315.103 269.285 314.57C269.285 314.037 268.851 313.603 268.318 313.603Z" fill="#F6B60D"/>
<path d="M255.989 284.833C255.412 284.833 254.863 284.629 254.422 284.25C253.937 283.829 253.643 283.245 253.597 282.606C253.501 281.285 254.498 280.131 255.819 280.037C256.458 279.988 257.078 280.195 257.565 280.616C258.05 281.036 258.344 281.62 258.39 282.259C258.436 282.9 258.232 283.519 257.811 284.004C257.391 284.489 256.807 284.783 256.168 284.829C256.109 284.833 256.049 284.836 255.989 284.836V284.833ZM255.994 281.462C255.971 281.462 255.945 281.462 255.922 281.464C255.389 281.503 254.987 281.967 255.026 282.501C255.045 282.758 255.164 282.995 255.36 283.162C255.555 283.333 255.805 283.413 256.063 283.397C256.32 283.379 256.557 283.259 256.724 283.064C256.894 282.868 256.977 282.618 256.956 282.36C256.92 281.852 256.495 281.462 255.991 281.462H255.994Z" fill="#F6B60D"/>
<path d="M257.324 300.571C256.747 300.571 256.198 300.366 255.757 299.987C255.272 299.566 254.978 298.982 254.932 298.343C254.836 297.022 255.833 295.868 257.154 295.772C258.471 295.673 259.629 296.672 259.725 297.994C259.771 298.633 259.566 299.254 259.146 299.741C258.726 300.226 258.142 300.52 257.503 300.566C257.444 300.571 257.384 300.573 257.326 300.573L257.324 300.571ZM257.329 297.199C257.306 297.199 257.28 297.199 257.257 297.201C256.724 297.24 256.322 297.704 256.361 298.238C256.4 298.771 256.865 299.171 257.398 299.134C257.655 299.116 257.892 298.996 258.059 298.801C258.229 298.605 258.312 298.355 258.291 298.097C258.255 297.59 257.829 297.199 257.326 297.199H257.329Z" fill="#F6B60D"/>
<path d="M258.636 315.662C258.059 315.662 257.51 315.457 257.069 315.078C256.584 314.658 256.29 314.074 256.244 313.435C256.198 312.794 256.403 312.175 256.823 311.688C257.244 311.203 257.827 310.909 258.466 310.863C259.787 310.762 260.94 311.764 261.035 313.085C261.131 314.407 260.134 315.561 258.813 315.657C258.753 315.662 258.693 315.664 258.634 315.664L258.636 315.662ZM258.641 312.29C258.618 312.29 258.592 312.29 258.569 312.292C258.036 312.332 257.634 312.796 257.673 313.329C257.692 313.586 257.811 313.823 258.006 313.991C258.202 314.161 258.452 314.242 258.709 314.225C259.243 314.186 259.642 313.722 259.606 313.189C259.587 312.931 259.468 312.695 259.272 312.527C259.095 312.373 258.873 312.29 258.641 312.29Z" fill="#F6B60D"/>
<path d="M322.362 76.8295H290.18C289.785 76.8295 289.463 76.5077 289.463 76.1124C289.463 75.717 289.785 75.3953 290.18 75.3953H322.362C322.757 75.3953 323.079 75.717 323.079 76.1124C323.079 76.5077 322.757 76.8295 322.362 76.8295Z" fill="#F6B60D"/>
<path d="M315.927 133.347H295.903C295.508 133.347 295.187 133.025 295.187 132.63C295.187 132.235 295.508 131.913 295.903 131.913H315.927C316.322 131.913 316.644 132.235 316.644 132.63C316.644 133.025 316.322 133.347 315.927 133.347Z" fill="#F6B60D"/>
<path d="M181.602 62.5349C181.48 62.5349 181.358 62.505 181.245 62.4407L146.361 42.4653C146.016 42.2676 145.899 41.8309 146.094 41.4861C146.292 41.1414 146.728 41.0219 147.073 41.2195L181.958 61.1949C182.302 61.3926 182.419 61.8293 182.224 62.174C182.091 62.4062 181.85 62.5349 181.602 62.5349Z" fill="#F6B60D"/>
<path d="M189.827 45.0946C189.567 45.0946 189.317 44.9544 189.19 44.7085L177.309 21.8164C177.128 21.4648 177.264 21.0327 177.615 20.8488C177.967 20.6672 178.399 20.8029 178.582 21.1545L190.463 44.0466C190.645 44.3982 190.509 44.8303 190.158 45.0142C190.052 45.0694 189.939 45.0946 189.829 45.0946H189.827Z" fill="#F6B60D"/>
<path d="M215.473 48.0481C215.082 48.0481 214.763 47.7355 214.756 47.3448L214.151 14.6616C214.145 14.2662 214.459 13.9376 214.855 13.9307C214.859 13.9307 214.864 13.9307 214.868 13.9307C215.259 13.9307 215.578 14.2432 215.585 14.634L216.189 47.3172C216.196 47.7126 215.882 48.0412 215.486 48.0481C215.482 48.0481 215.477 48.0481 215.473 48.0481Z" fill="#F6B60D"/>
</svg>
