<svg width="423" height="81" viewBox="0 0 423 81" fill="none" xmlns="http://www.w3.org/2000/svg">
<path d="M64.0013 80L368.898 76.6667M0.0107422 74.2857L399.011 70" stroke="#EB8231" stroke-width="2" stroke-linejoin="bevel"/>
<path d="M413.637 33.9965C413.511 33.9965 413.385 33.9632 413.273 33.8949L403.551 27.97L393.156 32.616C392.914 32.7246 392.63 32.6861 392.425 32.5162C392.22 32.3462 392.129 32.0764 392.192 31.8172L394.824 20.7435L387.191 12.2977C387.013 12.0997 386.962 11.8194 387.06 11.5724C387.158 11.3254 387.388 11.1555 387.652 11.1345L399.003 10.2165L404.679 0.349868C404.813 0.120372 405.062 -0.0145212 405.33 0.00124569C405.594 0.0187645 405.827 0.183442 405.931 0.428705L410.313 10.9347L421.456 13.284C421.715 13.3383 421.922 13.5363 421.989 13.7938C422.055 14.0513 421.968 14.3246 421.766 14.4963L413.124 21.9085L414.333 33.2274C414.361 33.492 414.237 33.7495 414.012 33.8914C413.898 33.9632 413.769 34 413.639 34L413.637 33.9965ZM403.602 26.4844C403.728 26.4844 403.854 26.5195 403.966 26.586L412.794 31.9661L411.697 21.6895C411.673 21.4618 411.762 21.2358 411.937 21.0851L419.784 14.3544L409.668 12.2224C409.443 12.1751 409.256 12.0192 409.166 11.8072L405.188 2.26818L400.033 11.2273C399.919 11.427 399.712 11.5567 399.485 11.5759L389.179 12.4098L396.109 20.0796C396.263 20.2495 396.323 20.486 396.27 20.7085L393.88 30.7625L403.318 26.544C403.409 26.5037 403.505 26.4827 403.603 26.4827L403.602 26.4844Z" fill="#F6B60D"/>
</svg>
