<svg width="126" height="89" viewBox="0 0 126 89" fill="none" xmlns="http://www.w3.org/2000/svg">
<path d="M102.386 56.1143H21.6505C21.0994 56.1137 20.571 55.8945 20.1813 55.5048C19.7916 55.1151 19.5724 54.5867 19.5718 54.0356V4.25267C19.5722 3.84891 19.7328 3.46182 20.0183 3.17631C20.3038 2.8908 20.6909 2.7302 21.0947 2.72974H102.915C103.326 2.7302 103.72 2.89358 104.01 3.18402C104.301 3.47447 104.464 3.86826 104.464 4.279V54.0356C104.464 54.5867 104.245 55.1151 103.855 55.5048C103.465 55.8945 102.937 56.1137 102.386 56.1143Z" fill="#D7DEE4"/>
<path d="M99.4402 53.1706H24.1971C23.0941 53.1706 22.1968 52.3303 22.1968 51.2975V7.94584C22.1968 7.17985 22.8617 6.55664 23.6791 6.55664H99.9337C100.765 6.55664 101.441 7.19013 101.441 7.96873V51.2975C101.441 52.3303 100.543 53.1706 99.4402 53.1706Z" fill="white"/>
<path d="M104.435 4.1338H19.542V3.07548C19.5428 2.52253 19.7629 1.99247 20.154 1.60159C20.5451 1.21071 21.0753 0.990935 21.6283 0.990479H102.349C102.902 0.990933 103.432 1.21071 103.823 1.60159C104.214 1.99246 104.434 2.52253 104.435 3.07548V4.1338Z" fill="#B0BDC9"/>
<path d="M23.3341 3.10492C23.6321 3.10492 23.8737 2.86331 23.8737 2.56528C23.8737 2.26724 23.6321 2.02563 23.3341 2.02563C23.036 2.02563 22.7944 2.26724 22.7944 2.56528C22.7944 2.86331 23.036 3.10492 23.3341 3.10492Z" fill="white"/>
<path d="M25.3824 3.10492C25.6805 3.10492 25.9221 2.86331 25.9221 2.56528C25.9221 2.26724 25.6805 2.02563 25.3824 2.02563C25.0844 2.02563 24.8428 2.26724 24.8428 2.56528C24.8428 2.86331 25.0844 3.10492 25.3824 3.10492Z" fill="white"/>
<path d="M27.4303 3.10492C27.7283 3.10492 27.9699 2.86331 27.9699 2.56528C27.9699 2.26724 27.7283 2.02563 27.4303 2.02563C27.1322 2.02563 26.8906 2.26724 26.8906 2.56528C26.8906 2.86331 27.1322 3.10492 27.4303 3.10492Z" fill="white"/>
<path d="M91.1584 45.8997H32.8483C32.2637 45.8991 31.7034 45.6666 31.29 45.2533C30.8767 44.84 30.6442 44.2796 30.6436 43.695V15.5813C30.644 15.1441 30.8179 14.725 31.127 14.4159C31.4361 14.1068 31.8553 13.9329 32.2924 13.9324H91.6879C92.132 13.9329 92.5578 14.1095 92.8719 14.4236C93.1859 14.7377 93.3626 15.1635 93.3631 15.6076V43.695C93.3624 44.2796 93.1299 44.84 92.7166 45.2533C92.3033 45.6666 91.7429 45.8991 91.1584 45.8997ZM32.2924 14.1843C31.9221 14.1848 31.567 14.3321 31.3051 14.594C31.0432 14.8559 30.8959 15.2109 30.8955 15.5813V43.695C30.8961 44.2128 31.102 44.7091 31.4681 45.0752C31.8342 45.4413 32.3305 45.6472 32.8483 45.6478H91.1584C91.6761 45.6472 92.1724 45.4413 92.5385 45.0752C92.9046 44.7091 93.1105 44.2128 93.1111 43.695V15.6076C93.1107 15.2303 92.9606 14.8685 92.6938 14.6017C92.427 14.3349 92.0652 14.1848 91.6879 14.1843H32.2924Z" fill="#F8E9C2"/>
<path d="M34.8639 43.6951H89.1425C89.6771 43.6951 90.1898 43.4827 90.5678 43.1047C90.9459 42.7267 91.1582 42.214 91.1582 41.6793V18.1774C91.1582 17.6428 90.9459 17.13 90.5678 16.752C90.1898 16.374 89.6771 16.1616 89.1425 16.1616H34.8639C34.3293 16.1616 33.8166 16.374 33.4385 16.752C33.0605 17.13 32.8481 17.6428 32.8481 18.1774V41.6793C32.8481 42.214 33.0605 42.7267 33.4385 43.1047C33.8166 43.4827 34.3293 43.6951 34.8639 43.6951Z" fill="#FBF4E0"/>
<path d="M41.0269 22.9992C41.6531 22.9992 42.1608 22.4915 42.1608 21.8653C42.1608 21.2391 41.6531 20.7314 41.0269 20.7314C40.4007 20.7314 39.8931 21.2391 39.8931 21.8653C39.8931 22.4915 40.4007 22.9992 41.0269 22.9992Z" fill="#F1D285"/>
<path d="M41.0269 27.2826C41.6531 27.2826 42.1608 26.775 42.1608 26.1487C42.1608 25.5225 41.6531 25.0149 41.0269 25.0149C40.4007 25.0149 39.8931 25.5225 39.8931 26.1487C39.8931 26.775 40.4007 27.2826 41.0269 27.2826Z" fill="#F1D285"/>
<path d="M41.0269 31.566C41.6531 31.566 42.1608 31.0584 42.1608 30.4322C42.1608 29.806 41.6531 29.2983 41.0269 29.2983C40.4007 29.2983 39.8931 29.806 39.8931 30.4322C39.8931 31.0584 40.4007 31.566 41.0269 31.566Z" fill="#F1D285"/>
<path d="M41.0269 35.8495C41.6531 35.8495 42.1608 35.3418 42.1608 34.7156C42.1608 34.0894 41.6531 33.5818 41.0269 33.5818C40.4007 33.5818 39.8931 34.0894 39.8931 34.7156C39.8931 35.3418 40.4007 35.8495 41.0269 35.8495Z" fill="#F1D285"/>
<path d="M83.9875 21.9912H46.6963C46.6629 21.9912 46.6308 21.978 46.6072 21.9543C46.5836 21.9307 46.5703 21.8987 46.5703 21.8652C46.5703 21.8318 46.5836 21.7998 46.6072 21.7762C46.6308 21.7525 46.6629 21.7393 46.6963 21.7393H83.9875C84.0209 21.7393 84.0529 21.7525 84.0766 21.7762C84.1002 21.7998 84.1135 21.8318 84.1135 21.8652C84.1135 21.8987 84.1002 21.9307 84.0766 21.9543C84.0529 21.978 84.0209 21.9912 83.9875 21.9912Z" fill="#F4DDA3"/>
<path d="M83.9875 26.2747H46.6963C46.6629 26.2747 46.6308 26.2614 46.6072 26.2378C46.5836 26.2141 46.5703 26.1821 46.5703 26.1487C46.5703 26.1153 46.5836 26.0832 46.6072 26.0596C46.6308 26.036 46.6629 26.0227 46.6963 26.0227H83.9875C84.0209 26.0227 84.0529 26.036 84.0766 26.0596C84.1002 26.0832 84.1135 26.1153 84.1135 26.1487C84.1135 26.1821 84.1002 26.2141 84.0766 26.2378C84.0529 26.2614 84.0209 26.2747 83.9875 26.2747Z" fill="#F4DDA3"/>
<path d="M83.9875 30.5581H46.6963C46.6629 30.5581 46.6308 30.5448 46.6072 30.5212C46.5836 30.4976 46.5703 30.4655 46.5703 30.4321C46.5703 30.3987 46.5836 30.3667 46.6072 30.3431C46.6308 30.3194 46.6629 30.3062 46.6963 30.3062H83.9875C84.0209 30.3062 84.0529 30.3194 84.0766 30.3431C84.1002 30.3667 84.1135 30.3987 84.1135 30.4321C84.1135 30.4655 84.1002 30.4976 84.0766 30.5212C84.0529 30.5448 84.0209 30.5581 83.9875 30.5581Z" fill="#F4DDA3"/>
<path d="M83.9875 34.8416H46.6963C46.6629 34.8416 46.6308 34.8283 46.6072 34.8047C46.5836 34.781 46.5703 34.749 46.5703 34.7156C46.5703 34.6822 46.5836 34.6501 46.6072 34.6265C46.6308 34.6029 46.6629 34.5896 46.6963 34.5896H83.9875C84.0209 34.5896 84.0529 34.6029 84.0766 34.6265C84.1002 34.6501 84.1135 34.6822 84.1135 34.7156C84.1135 34.749 84.1002 34.781 84.0766 34.8047C84.0529 34.8283 84.0209 34.8416 83.9875 34.8416Z" fill="#F4DDA3"/>
<path d="M53.7512 39.1253H50.0977C49.9307 39.1251 49.7706 39.0586 49.6525 38.9406C49.5344 38.8225 49.468 38.6623 49.4678 38.4953V35.0938C49.468 34.9268 49.5344 34.7667 49.6525 34.6486C49.7706 34.5305 49.9307 34.4641 50.0977 34.4639H53.7512C53.9182 34.4641 54.0783 34.5305 54.1964 34.6486C54.3145 34.7667 54.3809 34.9268 54.3811 35.0938V38.4953C54.3809 38.6623 54.3145 38.8225 54.1964 38.9406C54.0783 39.0586 53.9182 39.1251 53.7512 39.1253Z" fill="#EDC766"/>
<path d="M61.9402 39.125H58.2867C58.1197 39.1248 57.9595 39.0584 57.8414 38.9403C57.7234 38.8222 57.6569 38.6621 57.6567 38.4951V30.8101C57.6569 30.6431 57.7234 30.483 57.8414 30.3649C57.9595 30.2468 58.1197 30.1804 58.2867 30.1802H61.9402C62.1072 30.1804 62.2673 30.2468 62.3854 30.3649C62.5035 30.483 62.5699 30.6431 62.5701 30.8101V38.4951C62.5699 38.6621 62.5035 38.8222 62.3854 38.9403C62.2673 39.0584 62.1072 39.1248 61.9402 39.125Z" fill="#EDC766"/>
<path d="M70.2551 39.125H66.6016C66.4346 39.1248 66.2745 39.0584 66.1564 38.9403C66.0383 38.8222 65.9719 38.6621 65.9717 38.4951V26.5266C65.9719 26.3596 66.0383 26.1995 66.1564 26.0814C66.2745 25.9633 66.4346 25.8969 66.6016 25.8967H70.2551C70.4221 25.8969 70.5822 25.9633 70.7003 26.0814C70.8184 26.1995 70.8849 26.3596 70.885 26.5266V38.4951C70.8849 38.6621 70.8184 38.8222 70.7003 38.9403C70.5822 39.0584 70.4221 39.1248 70.2551 39.125Z" fill="#EDC766"/>
<path d="M78.822 39.125H75.1685C75.0015 39.1248 74.8414 39.0584 74.7233 38.9403C74.6052 38.8222 74.5388 38.6621 74.5386 38.4951V22.3692C74.5388 22.2022 74.6052 22.0421 74.7233 21.924C74.8414 21.8059 75.0015 21.7394 75.1685 21.7393H78.822C78.989 21.7394 79.1491 21.8059 79.2672 21.924C79.3853 22.0421 79.4517 22.2022 79.4519 22.3692V38.4951C79.4517 38.6621 79.3853 38.8222 79.2672 38.9403C79.1491 39.0584 78.989 39.1248 78.822 39.125Z" fill="#EDC766"/>
<path d="M83.9875 39.1253H46.6963C46.6629 39.1253 46.6308 39.112 46.6072 39.0884C46.5836 39.0647 46.5703 39.0327 46.5703 38.9993C46.5703 38.9659 46.5836 38.9338 46.6072 38.9102C46.6308 38.8866 46.6629 38.8733 46.6963 38.8733H83.9875C84.0209 38.8733 84.0529 38.8866 84.0766 38.9102C84.1002 38.9338 84.1135 38.9659 84.1135 38.9993C84.1135 39.0327 84.1002 39.0647 84.0766 39.0884C84.0529 39.112 84.0209 39.1253 83.9875 39.1253Z" fill="#F4DDA3"/>
<path d="M100.371 62.6271C100.473 62.4726 100.608 62.3423 100.766 62.2455C100.924 62.1487 101.101 62.0876 101.285 62.0667C101.469 62.0458 101.655 62.0654 101.831 62.1243C102.007 62.1832 102.167 62.2798 102.301 62.4075L106.302 60.3428L106.053 62.669L102.292 64.273C102.063 64.4843 101.764 64.604 101.452 64.6096C101.141 64.6152 100.838 64.5062 100.601 64.3033C100.364 64.1005 100.21 63.8178 100.168 63.5088C100.125 63.1999 100.198 62.8862 100.371 62.6271Z" fill="#FFB8B8"/>
<path d="M103.814 63.4946C103.723 63.4234 103.656 63.3263 103.622 63.216L103.303 62.1881C103.269 62.0767 103.27 61.9575 103.306 61.8466C103.342 61.7357 103.41 61.6385 103.503 61.5681L106.746 59.1189L110.258 52.604C110.405 52.4146 110.588 52.2559 110.796 52.1372C111.004 52.0185 111.234 51.9419 111.472 51.912C111.71 51.8821 111.952 51.8993 112.183 51.9627C112.414 52.0261 112.631 52.1344 112.82 52.2815C113.01 52.4286 113.168 52.6116 113.287 52.82C113.406 53.0284 113.482 53.2581 113.512 53.4961C113.542 53.7341 113.525 53.9756 113.462 54.2069C113.398 54.4382 113.29 54.6548 113.143 54.8442L111.145 59.0609C110.539 60.3408 109.488 61.357 108.189 61.9203L104.389 63.5685C104.316 63.6002 104.237 63.6161 104.157 63.6152C104.077 63.6144 103.999 63.5968 103.927 63.5636C103.886 63.5451 103.848 63.522 103.814 63.4946Z" fill="#889BAF"/>
<path d="M113.231 49.8851C114.94 49.8851 116.325 48.4998 116.325 46.7908C116.325 45.0819 114.94 43.6965 113.231 43.6965C111.522 43.6965 110.137 45.0819 110.137 46.7908C110.137 48.4998 111.522 49.8851 113.231 49.8851Z" fill="#FFB8B8"/>
<path d="M111.976 87.3822L110.431 87.3821L109.697 81.4246L111.976 81.4247L111.976 87.3822Z" fill="#FFB8B8"/>
<path d="M109.328 86.9407H112.307V88.8162H107.453C107.453 88.5699 107.501 88.326 107.595 88.0984C107.69 87.8709 107.828 87.6641 108.002 87.49C108.176 87.3158 108.383 87.1777 108.61 87.0834C108.838 86.9892 109.082 86.9407 109.328 86.9407Z" fill="#223549"/>
<path d="M117.015 87.3823L115.471 87.3822L114.736 81.4246L117.016 81.4248L117.015 87.3823Z" fill="#FFB8B8"/>
<path d="M114.367 86.9409H117.346V88.8164H112.492C112.492 88.5701 112.54 88.3262 112.634 88.0987C112.729 87.8712 112.867 87.6644 113.041 87.4902C113.215 87.3161 113.422 87.1779 113.649 87.0837C113.877 86.9894 114.121 86.9409 114.367 86.9409Z" fill="#223549"/>
<path d="M117.128 85.8707L115.318 85.8707C115.194 85.8705 115.072 85.8293 114.973 85.7535C114.875 85.6777 114.803 85.5715 114.771 85.4512L112.165 75.7881C112.161 75.7731 112.152 75.7601 112.139 75.7516C112.126 75.7432 112.11 75.7399 112.095 75.7424C112.079 75.7449 112.065 75.753 112.055 75.7652C112.046 75.7774 112.041 75.7927 112.042 75.8083L112.568 84.9727C112.573 85.0537 112.56 85.1348 112.531 85.2104C112.501 85.2861 112.456 85.3546 112.398 85.4112C112.34 85.4678 112.27 85.5113 112.194 85.5387C112.117 85.5662 112.036 85.5768 111.955 85.5701L109.921 85.4004C109.79 85.3893 109.668 85.3335 109.574 85.2425C109.48 85.1516 109.42 85.0309 109.405 84.901L107.551 65.6577L108.268 66.0879L114.987 64.9473L117.69 85.2289C117.701 85.309 117.694 85.3904 117.671 85.4677C117.647 85.545 117.608 85.6165 117.555 85.6773C117.501 85.738 117.436 85.7867 117.362 85.8201C117.289 85.8535 117.209 85.8707 117.128 85.8707H117.128Z" fill="#223549"/>
<path d="M109.798 67.6888C109.057 67.6828 108.331 67.4785 107.695 67.0969C107.597 67.0389 107.519 66.9527 107.471 66.8495C107.423 66.7463 107.407 66.631 107.426 66.5188C107.662 65.0717 108.898 57.6485 110.022 53.6017C110.48 51.9535 111.493 51.0658 113.032 50.9632C115.283 50.8156 117.284 52.5767 117.492 54.8939C117.86 58.9819 116.367 64.79 115.708 67.0974C115.682 67.1865 115.635 67.268 115.571 67.3347C115.506 67.4014 115.427 67.4513 115.338 67.48C115.25 67.5086 115.156 67.5153 115.065 67.4992C114.974 67.4832 114.888 67.445 114.815 67.388L113.472 66.3431C113.389 66.28 113.287 66.2477 113.183 66.2521C113.079 66.2564 112.98 66.297 112.903 66.3668C111.77 67.3766 110.695 67.6888 109.798 67.6888Z" fill="#889BAF"/>
<path opacity="0.2" d="M114.24 56.8943L115.374 61.6818L113.736 65.7131L114.87 61.8078L114.24 56.8943Z" fill="#2E4761"/>
<path d="M114.996 49.3352C115.271 49.3403 115.545 49.2908 115.801 49.1896C115.914 49.1462 116.031 49.1105 116.143 49.0671C117.136 48.6835 117.79 47.626 117.814 46.5618C117.837 45.4976 117.286 44.4646 116.468 43.7838C115.649 43.103 114.589 42.7535 113.528 42.6726C112.385 42.5855 111.097 42.8754 110.458 43.8276C110.288 44.081 110.169 44.3885 110.27 44.6945C110.3 44.7869 110.354 44.8697 110.426 44.9346C110.712 45.1885 110.996 44.9976 111.287 44.9808C111.687 44.9576 112.046 45.2812 112.175 45.6603C112.304 46.0394 112.247 46.4568 112.143 46.8434C112.063 47.0761 112.013 47.3177 111.994 47.5628C111.985 47.6856 112.008 47.8086 112.061 47.9201C112.113 48.0315 112.193 48.1277 112.293 48.1996C112.543 48.3506 112.871 48.2632 113.121 48.1125C113.371 47.9617 113.587 47.7521 113.857 47.6412C114.127 47.5303 114.49 47.5549 114.647 47.8009C114.697 47.8904 114.731 47.988 114.747 48.0892C114.888 48.7311 114.855 48.6933 114.996 49.3352Z" fill="#395979"/>
<path d="M110.2 83.0603L90.8247 76.3125C90.4922 76.1963 90.2194 75.9529 90.0661 75.6358C89.9129 75.3187 89.8916 74.9538 90.0071 74.621L95.0421 60.1634C95.1272 59.9198 95.3055 59.7199 95.5378 59.6076C95.7701 59.4953 96.0375 59.4798 96.2812 59.5643L116.312 66.5402C116.56 66.6268 116.763 66.8082 116.877 67.0445C116.992 67.2809 117.007 67.5528 116.921 67.8008L111.892 82.2426C111.776 82.5751 111.532 82.8479 111.215 83.0012C110.898 83.1545 110.533 83.1757 110.2 83.0603Z" fill="#D7DEE4"/>
<path d="M92.4783 75.4817L109.421 81.3821C109.744 81.4945 110.098 81.4741 110.405 81.3254C110.713 81.1767 110.949 80.9119 111.061 80.5893L115.127 68.9148C115.239 68.5921 115.219 68.2381 115.07 67.9305C114.922 67.6229 114.657 67.387 114.334 67.2746L97.3913 61.3741C97.0687 61.2618 96.7146 61.2822 96.4071 61.4309C96.0995 61.5796 95.8635 61.8444 95.7512 62.167L91.6854 73.8415C91.6298 74.0012 91.6062 74.1704 91.6159 74.3393C91.6256 74.5082 91.6685 74.6735 91.7422 74.8258C91.8158 74.9781 91.9187 75.1144 92.045 75.2269C92.1713 75.3395 92.3185 75.426 92.4783 75.4817Z" fill="white"/>
<path d="M96.9615 68.6165L96.1224 68.3242C96.0769 68.3083 96.0396 68.275 96.0186 68.2317C95.9977 68.1883 95.9947 68.1384 96.0105 68.0928L96.3028 67.2538C96.3187 67.2083 96.3519 67.1709 96.3953 67.15C96.4387 67.129 96.4886 67.1261 96.5342 67.1419L97.3732 67.4341C97.4187 67.45 97.4561 67.4833 97.477 67.5267C97.498 67.5701 97.5009 67.62 97.4851 67.6655L97.1929 68.5046C97.177 68.5501 97.1437 68.5874 97.1003 68.6084C97.0569 68.6294 97.007 68.6323 96.9615 68.6165Z" fill="#EDC766"/>
<path d="M96.2047 70.7905L95.3656 70.4983C95.3201 70.4824 95.2828 70.4491 95.2618 70.4057C95.2408 70.3624 95.2379 70.3124 95.2537 70.2669L95.5459 69.4278C95.5618 69.3823 95.5951 69.345 95.6385 69.324C95.6819 69.3031 95.7318 69.3002 95.7773 69.316L96.6164 69.6082C96.6619 69.6241 96.6992 69.6574 96.7202 69.7008C96.7412 69.7441 96.7441 69.7941 96.7283 69.8396L96.4361 70.6787C96.4202 70.7242 96.3869 70.7615 96.3435 70.7825C96.3001 70.8034 96.2502 70.8063 96.2047 70.7905Z" fill="#F4DDA3"/>
<path d="M102.6 70.1096L98.5575 68.7017C98.5349 68.6939 98.514 68.6817 98.4962 68.6658C98.4783 68.65 98.4637 68.6307 98.4533 68.6092C98.4428 68.5877 98.4368 68.5643 98.4354 68.5405C98.434 68.5166 98.4373 68.4927 98.4452 68.4701C98.453 68.4475 98.4653 68.4267 98.4812 68.4089C98.4971 68.3911 98.5164 68.3765 98.5379 68.3662C98.5595 68.3558 98.5828 68.3498 98.6067 68.3484C98.6306 68.3471 98.6545 68.3505 98.677 68.3584L102.72 69.7664C102.742 69.7742 102.763 69.7864 102.781 69.8022C102.799 69.8181 102.814 69.8373 102.824 69.8589C102.835 69.8804 102.841 69.9037 102.842 69.9276C102.843 69.9515 102.84 69.9754 102.832 69.9979C102.824 70.0205 102.812 70.0413 102.796 70.0592C102.78 70.077 102.761 70.0915 102.739 70.1019C102.718 70.1123 102.695 70.1183 102.671 70.1196C102.647 70.121 102.623 70.1176 102.6 70.1096Z" fill="#395979"/>
<path d="M101.843 72.2838L97.8002 70.8758C97.7547 70.86 97.7173 70.8267 97.6963 70.7833C97.6754 70.7399 97.6725 70.6899 97.6883 70.6444C97.7042 70.5989 97.7375 70.5616 97.7809 70.5406C97.8243 70.5196 97.8742 70.5167 97.9197 70.5326L101.963 71.9405C101.985 71.9483 102.006 71.9605 102.024 71.9764C102.042 71.9923 102.056 72.0115 102.067 72.033C102.077 72.0545 102.083 72.0779 102.085 72.1017C102.086 72.1256 102.083 72.1495 102.075 72.1721C102.067 72.1946 102.055 72.2154 102.039 72.2333C102.023 72.2511 102.004 72.2656 101.982 72.276C101.961 72.2864 101.937 72.2924 101.913 72.2938C101.889 72.2951 101.866 72.2917 101.843 72.2838Z" fill="#395979"/>
<path d="M111.616 74.2982C111.645 74.2275 111.673 74.1557 111.698 74.0825C112.031 73.1283 111.97 72.0813 111.531 71.1716C111.091 70.2619 110.308 69.5642 109.354 69.2319L108.025 73.0476L111.616 74.2982Z" fill="#EDC766"/>
<path d="M107.639 73.2799L108.967 69.4642C108.265 69.2196 107.507 69.1859 106.785 69.3672C106.064 69.5485 105.412 69.9369 104.909 70.4846C104.406 71.0322 104.074 71.7151 103.954 72.449C103.835 73.183 103.933 73.9359 104.236 74.6149C104.539 75.294 105.034 75.8694 105.661 76.2703C106.287 76.6712 107.017 76.88 107.76 76.8711C108.504 76.8621 109.229 76.6357 109.845 76.2197C110.462 75.8038 110.943 75.2166 111.229 74.5304L107.639 73.2799Z" fill="#F4DDA3"/>
<path d="M112.396 67.8064C112.381 67.6218 112.406 67.4361 112.471 67.2625C112.535 67.0889 112.637 66.9315 112.769 66.8015C112.901 66.6714 113.06 66.5719 113.234 66.5098C113.409 66.4478 113.595 66.4248 113.779 66.4424L115.653 62.3489L116.893 64.3328L114.923 67.916C114.873 68.2237 114.712 68.5024 114.47 68.6992C114.228 68.896 113.922 68.9972 113.611 68.9837C113.299 68.9702 113.003 68.8429 112.78 68.6259C112.556 68.4089 112.419 68.1173 112.396 67.8064Z" fill="#FFB8B8"/>
<path d="M115.639 66.3646C115.524 66.3646 115.411 66.3294 115.317 66.2638L114.432 65.6513C114.336 65.5848 114.263 65.4905 114.223 65.3811C114.183 65.2718 114.177 65.1528 114.206 65.0401L115.246 61.1119L113.989 53.8183C113.988 53.5783 114.034 53.3403 114.124 53.1181C114.215 52.8958 114.348 52.6936 114.517 52.5229C114.686 52.3523 114.887 52.2166 115.108 52.1236C115.329 52.0306 115.567 51.9821 115.807 51.981C116.047 51.9798 116.285 52.026 116.507 52.1168C116.729 52.2077 116.931 52.3414 117.102 52.5104C117.272 52.6794 117.407 52.8803 117.5 53.1017C117.593 53.3231 117.641 53.5606 117.642 53.8006L118.672 58.3516C118.985 59.7328 118.785 61.1806 118.111 62.4257L116.138 66.0677C116.1 66.1377 116.047 66.199 115.984 66.2474C115.921 66.2959 115.848 66.3305 115.771 66.3491C115.728 66.3594 115.684 66.3646 115.639 66.3646Z" fill="#889BAF"/>
<path d="M125.228 88.887H101.291C101.258 88.887 101.226 88.8737 101.202 88.8501C101.178 88.8264 101.165 88.7944 101.165 88.761C101.165 88.7276 101.178 88.6955 101.202 88.6719C101.226 88.6483 101.258 88.635 101.291 88.635H125.228C125.261 88.635 125.293 88.6483 125.317 88.6719C125.341 88.6955 125.354 88.7276 125.354 88.761C125.354 88.7944 125.341 88.8264 125.317 88.8501C125.293 88.8737 125.261 88.887 125.228 88.887Z" fill="#D7DEE4"/>
<path d="M61.8001 87.3193L63.3446 87.3192L64.0794 81.3618H61.7998L61.8001 87.3193Z" fill="#A0616A"/>
<path d="M61.4062 86.8151L64.448 86.8149H64.4481C64.7027 86.8149 64.9547 86.8651 65.1899 86.9625C65.4251 87.0599 65.6388 87.2027 65.8188 87.3827C65.9988 87.5627 66.1416 87.7764 66.239 88.0115C66.3364 88.2467 66.3865 88.4988 66.3865 88.7534V88.8163L61.4063 88.8165L61.4062 86.8151Z" fill="#223549"/>
<path d="M55.6272 87.3193L57.1718 87.3192L57.9065 81.3618H55.627L55.6272 87.3193Z" fill="#A0616A"/>
<path d="M55.2334 86.8151L58.2751 86.8149H58.2752C58.5298 86.8149 58.7819 86.8651 59.0171 86.9625C59.2522 87.0599 59.4659 87.2027 59.6459 87.3827C59.8259 87.5627 59.9687 87.7764 60.0661 88.0115C60.1636 88.2467 60.2137 88.4988 60.2137 88.7534V88.8163L55.2335 88.8165L55.2334 86.8151Z" fill="#223549"/>
<path d="M62.1084 46.0748C63.8174 46.0748 65.2027 44.6894 65.2027 42.9805C65.2027 41.2716 63.8174 39.8862 62.1084 39.8862C60.3995 39.8862 59.0142 41.2716 59.0142 42.9805C59.0142 44.6894 60.3995 46.0748 62.1084 46.0748Z" fill="#A0616A"/>
<path d="M64.1892 86.0335H61.3229C61.2479 86.0335 61.1736 86.0186 61.1044 85.9897C61.0352 85.9608 60.9724 85.9184 60.9197 85.865C60.8669 85.8116 60.8253 85.7483 60.7972 85.6788C60.7692 85.6092 60.7552 85.5347 60.7561 85.4597L60.9226 71.8495C60.9232 71.8012 60.9053 71.7545 60.8725 71.7189C60.8397 71.6834 60.7945 71.6618 60.7463 71.6586C60.698 71.6554 60.6504 71.6707 60.6132 71.7016C60.5759 71.7324 60.5519 71.7763 60.5461 71.8243L58.8779 85.5351C58.8611 85.6726 58.7946 85.7991 58.6909 85.8909C58.5873 85.9827 58.4536 86.0334 58.3152 86.0335H55.4214C55.3432 86.0335 55.2659 86.0174 55.1943 85.9861C55.1227 85.9547 55.0583 85.9089 55.0052 85.8516C54.9521 85.7942 54.9115 85.7264 54.8858 85.6526C54.8602 85.5787 54.8501 85.5004 54.8562 85.4224L56.7671 60.9721L56.819 60.9665L65.9691 59.9783L64.7555 85.4935C64.7487 85.6391 64.6861 85.7765 64.5806 85.8771C64.4751 85.9777 64.3349 86.0337 64.1892 86.0335Z" fill="#223549"/>
<path d="M56.8787 62.4732C56.7317 62.4728 56.5906 62.4154 56.4852 62.3129C56.3798 62.2104 56.3183 62.071 56.3138 61.9241C56.2639 60.3781 56.1783 55.0287 57.1733 51.1014C57.4448 50.0286 58.0544 49.0716 58.9118 48.3719C59.7692 47.6723 60.829 47.2671 61.9345 47.2162C63.0227 47.1568 64.1019 47.4415 65.0191 48.03C65.9362 48.6185 66.6448 49.4809 67.0443 50.4947C68.7168 54.7408 70.2969 59.9745 68.3269 60.7954C65.7449 61.8712 58.9382 62.3507 56.9135 62.4721C56.9018 62.4728 56.8903 62.4732 56.8787 62.4732Z" fill="#889BAF"/>
<path d="M68.705 39.853C68.7536 39.9029 68.8061 39.949 68.8619 39.9907L68.5371 46.2302L67.186 46.9219L67.9635 49.0973L70.4743 48.1052C70.6771 48.0251 70.8485 47.8813 70.9626 47.6955C71.0768 47.5096 71.1276 47.2918 71.1074 47.0746L70.4497 39.9969C70.6649 39.8363 70.8262 39.614 70.912 39.3595C70.9978 39.1051 71.0041 38.8305 70.93 38.5723C70.856 38.3142 70.7051 38.0847 70.4975 37.9144C70.2898 37.7441 70.0352 37.6411 69.7676 37.619C69.4999 37.5969 69.2319 37.6568 68.9992 37.7908C68.7664 37.9247 68.5799 38.1264 68.4646 38.3689C68.3492 38.6114 68.3104 38.8833 68.3534 39.1484C68.3963 39.4135 68.5189 39.6593 68.705 39.853Z" fill="#A0616A"/>
<path d="M68.5622 46.4625L69.5127 49.1634C69.5397 49.2403 69.5499 49.3221 69.5425 49.4032C69.535 49.4843 69.5102 49.5629 69.4697 49.6336C69.4292 49.7043 69.3739 49.7654 69.3077 49.8128C69.2414 49.8601 69.1657 49.8927 69.0857 49.9082L66.2831 50.4509C65.8892 50.5871 65.4573 50.5615 65.0821 50.3797C64.707 50.1979 64.4193 49.8747 64.2821 49.4811C64.1449 49.0875 64.1693 48.6555 64.3502 48.2799C64.531 47.9043 64.8533 47.6157 65.2466 47.4775L67.763 46.1492C67.835 46.1112 67.9144 46.0892 67.9958 46.0846C68.0771 46.0801 68.1585 46.0931 68.2343 46.1228C68.3102 46.1526 68.3787 46.1983 68.4353 46.2569C68.4919 46.3155 68.5352 46.3856 68.5622 46.4625V46.4625Z" fill="#889BAF"/>
<path d="M55.3018 39.853C55.2532 39.9029 55.2007 39.949 55.1449 39.9907L55.4697 46.2302L56.8207 46.9219L56.0433 49.0973L53.5325 48.1052C53.3297 48.0251 53.1583 47.8813 53.0441 47.6955C52.93 47.5096 52.8792 47.2918 52.8993 47.0746L53.5571 39.9969C53.3419 39.8363 53.1806 39.614 53.0948 39.3595C53.009 39.1051 53.0027 38.8305 53.0768 38.5723C53.1508 38.3142 53.3017 38.0847 53.5093 37.9144C53.717 37.7441 53.9716 37.6411 54.2392 37.619C54.5069 37.5969 54.7749 37.6568 55.0076 37.7908C55.2404 37.9247 55.4268 38.1264 55.5422 38.3689C55.6576 38.6114 55.6963 38.8833 55.6534 39.1484C55.6105 39.4135 55.4878 39.6593 55.3018 39.853H55.3018Z" fill="#A0616A"/>
<path d="M55.772 46.1229C55.8478 46.0931 55.9292 46.0801 56.0105 46.0846C56.0918 46.0892 56.1712 46.1112 56.2433 46.1493L58.7596 47.4775C59.1529 47.6158 59.4753 47.9043 59.6561 48.2799C59.8369 48.6555 59.8614 49.0875 59.7242 49.4811C59.5869 49.8748 59.2992 50.1979 58.9241 50.3797C58.549 50.5615 58.1171 50.5871 57.7231 50.451L54.9205 49.9082C54.8406 49.8927 54.7648 49.8602 54.6986 49.8128C54.6323 49.7654 54.577 49.7043 54.5365 49.6336C54.496 49.5629 54.4712 49.4844 54.4638 49.4032C54.4564 49.3221 54.4665 49.2403 54.4936 49.1635L55.444 46.4625C55.471 46.3857 55.5143 46.3155 55.5709 46.2569C55.6275 46.1983 55.6961 46.1526 55.772 46.1229Z" fill="#889BAF"/>
<path d="M63.3104 43.508C63.2941 43.1133 63.3932 42.7224 63.5955 42.383C63.7977 42.0437 64.0944 41.7706 64.4493 41.5971C65.3899 41.1116 65.9808 40.0759 65.7219 39.1301C65.3905 37.9195 63.7429 37.1344 62.4079 37.5509C62.0466 37.6792 61.6981 37.8411 61.3671 38.0346L60.4949 38.5021C60.1224 38.6887 59.7631 38.9007 59.4198 39.1368C58.9056 39.5158 58.5025 40.0259 58.2527 40.6138C58.003 41.2017 57.9157 41.846 57.9999 42.4792C58.1717 43.7099 58.9776 44.8385 60.0809 45.6113C60.5028 45.9266 60.9901 46.1432 61.5069 46.2451C62.0357 46.3323 62.6244 46.2332 63.011 45.9043C63.6153 45.3904 63.5529 44.5298 63.3574 43.8109C63.3316 43.7118 63.3158 43.6103 63.3104 43.508Z" fill="#395979"/>
<path d="M73.8261 88.887H49.8892C49.8558 88.887 49.8237 88.8737 49.8001 88.8501C49.7765 88.8264 49.7632 88.7944 49.7632 88.761C49.7632 88.7276 49.7765 88.6955 49.8001 88.6719C49.8237 88.6483 49.8558 88.635 49.8892 88.635H73.8261C73.8595 88.635 73.8915 88.6483 73.9151 88.6719C73.9388 88.6955 73.9521 88.7276 73.9521 88.761C73.9521 88.7944 73.9388 88.8264 73.9151 88.8501C73.8915 88.8737 73.8595 88.887 73.8261 88.887Z" fill="#D7DEE4"/>
<path d="M34.7605 65.9041L15.0091 74.007C14.6699 74.1457 14.2895 74.1442 13.9514 74.0028C13.6133 73.8614 13.3451 73.5917 13.2056 73.2528L7.15942 58.5148C7.05779 58.2663 7.05889 57.9877 7.16247 57.74C7.26605 57.4923 7.46365 57.2958 7.71193 57.1936L28.131 48.8167C28.3838 48.7133 28.6673 48.7145 28.9193 48.8198C29.1713 48.9252 29.3712 49.1263 29.4751 49.3788L35.5147 64.1006C35.6534 64.4398 35.6519 64.8202 35.5105 65.1583C35.3691 65.4964 35.0994 65.7646 34.7605 65.9041Z" fill="#D7DEE4"/>
<path d="M15.7236 72.2193L32.9948 65.1338C33.3237 64.9989 33.5855 64.7389 33.7226 64.4109C33.8598 64.0829 33.861 63.7139 33.7261 63.385L28.8438 51.4842C28.777 51.3214 28.6788 51.1733 28.5548 51.0484C28.4307 50.9235 28.2833 50.8243 28.1209 50.7564C27.9585 50.6885 27.7843 50.6532 27.6083 50.6526C27.4323 50.652 27.2579 50.6861 27.095 50.7529L9.82383 57.8383C9.66098 57.9051 9.51288 58.0034 9.388 58.1274C9.26311 58.2515 9.16388 58.3989 9.09596 58.5613C9.02805 58.7237 8.99279 58.8979 8.9922 59.0739C8.9916 59.2499 9.02568 59.4243 9.09249 59.5872L13.9747 71.488C14.0416 71.6508 14.1398 71.7989 14.2638 71.9238C14.3879 72.0487 14.5353 72.1479 14.6977 72.2158C14.8601 72.2837 15.0343 72.319 15.2103 72.3196C15.3863 72.3202 15.5607 72.2861 15.7236 72.2193Z" fill="white"/>
<path d="M28.749 54.7298L28.4951 54.834L28.5125 54.8763L28.7664 54.7721L28.749 54.7298Z" fill="#889BAF"/>
<path d="M27.9997 55.0868L27.4867 55.2972L27.4693 55.2549L27.9823 55.0444L27.9997 55.0868ZM26.9737 55.5076L26.4607 55.7181L26.4434 55.6758L26.9563 55.4653L26.9737 55.5076ZM25.9478 55.9285L25.4348 56.139L25.4174 56.0967L25.9304 55.8862L25.9478 55.9285ZM24.9218 56.3494L24.4088 56.5599L24.3915 56.5176L24.9045 56.3071L24.9218 56.3494ZM23.8959 56.7703L23.3829 56.9808L23.3655 56.9384L23.8785 56.728L23.8959 56.7703ZM22.8699 57.1912L22.3569 57.4017L22.3396 57.3593L22.8526 57.1489L22.8699 57.1912ZM21.844 57.6121L21.331 57.8226L21.3136 57.7802L21.8266 57.5698L21.844 57.6121ZM20.818 58.033L20.305 58.2435L20.2877 58.2011L20.8007 57.9907L20.818 58.033ZM19.7921 58.4539L19.2791 58.6643L19.2617 58.622L19.7747 58.4116L19.7921 58.4539ZM18.7661 58.8748L18.2531 59.0852L18.2358 59.0429L18.7488 58.8325L18.7661 58.8748ZM17.7402 59.2957L17.2272 59.5061L17.2098 59.4638L17.7228 59.2534L17.7402 59.2957ZM16.7142 59.7166L16.2012 59.927L16.1839 59.8847L16.6969 59.6743L16.7142 59.7166ZM15.6883 60.1375L15.1753 60.3479L15.1579 60.3056L15.6709 60.0952L15.6883 60.1375ZM14.6623 60.5584L14.1493 60.7688L14.132 60.7265L14.645 60.516L14.6623 60.5584ZM13.6364 60.9793L13.1234 61.1897L13.106 61.1474L13.619 60.9369L13.6364 60.9793ZM12.6104 61.4002L12.0974 61.6106L12.0801 61.5683L12.5931 61.3578L12.6104 61.4002Z" fill="#889BAF"/>
<path d="M11.5664 61.7786L11.3125 61.8828L11.3299 61.9251L11.5838 61.821L11.5664 61.7786Z" fill="#889BAF"/>
<path d="M22.0269 62.0858L21.7729 62.1899L21.7903 62.2323L22.0442 62.1281L22.0269 62.0858Z" fill="#889BAF"/>
<path d="M21.2842 62.4398L20.7789 62.6471L20.7615 62.6048L21.2669 62.3975L21.2842 62.4398ZM20.2735 62.8544L19.7682 63.0617L19.7508 63.0194L20.2561 62.8121L20.2735 62.8544ZM19.2628 63.2691L18.7574 63.4764L18.7401 63.4341L19.2454 63.2267L19.2628 63.2691ZM18.2521 63.6837L17.7467 63.891L17.7294 63.8487L18.2347 63.6414L18.2521 63.6837ZM17.2414 64.0984L16.736 64.3057L16.7187 64.2634L17.224 64.056L17.2414 64.0984ZM16.2307 64.513L15.7253 64.7203L15.7079 64.678L16.2133 64.4707L16.2307 64.513ZM15.22 64.9276L14.7146 65.135L14.6972 65.0926L15.2026 64.8853L15.22 64.9276ZM14.2092 65.3423L13.7039 65.5496L13.6865 65.5073L14.1919 65.3L14.2092 65.3423Z" fill="#889BAF"/>
<path d="M13.1812 65.7144L12.9272 65.8186L12.9446 65.8609L13.1985 65.7568L13.1812 65.7144Z" fill="#889BAF"/>
<path d="M17.8389 65.9793L17.585 66.0835L17.6023 66.1258L17.8562 66.0216L17.8389 65.9793Z" fill="#889BAF"/>
<path d="M17.0824 66.3392L16.5624 66.5525L16.5451 66.5102L17.065 66.2969L17.0824 66.3392ZM16.0425 66.7658L15.5226 66.9791L15.5052 66.9368L16.0251 66.7235L16.0425 66.7658ZM15.0026 67.1924L14.4827 67.4057L14.4653 67.3634L14.9853 67.1501L15.0026 67.1924Z" fill="#889BAF"/>
<path d="M13.9453 67.5765L13.6914 67.6807L13.7088 67.723L13.9627 67.6188L13.9453 67.5765Z" fill="#889BAF"/>
<path d="M19.1426 69.1571L18.8887 69.2612L18.906 69.3036L19.16 69.1994L19.1426 69.1571Z" fill="#889BAF"/>
<path d="M18.3861 69.5169L17.8661 69.7302L17.8488 69.6879L18.3687 69.4746L18.3861 69.5169ZM17.3462 69.9435L16.8263 70.1568L16.8089 70.1145L17.3288 69.9012L17.3462 69.9435ZM16.3063 70.3701L15.7864 70.5834L15.769 70.5411L16.289 70.3278L16.3063 70.3701Z" fill="#889BAF"/>
<path d="M15.2495 70.7542L14.9956 70.8584L15.013 70.9007L15.2669 70.7965L15.2495 70.7542Z" fill="#889BAF"/>
<path d="M16.458 70.346L31.0942 64.3416C31.4484 64.1958 31.7303 63.9155 31.8781 63.5621C32.0259 63.2087 32.0275 62.8111 31.8825 62.4566L28.9253 55.2483L28.8967 55.261L25.305 63.8489L22.6411 62.7352C22.592 62.7145 22.5387 62.7055 22.4855 62.7088C22.4322 62.7121 22.3805 62.7277 22.3343 62.7544C22.2649 62.7961 22.2113 62.8596 22.1816 62.9349L20.2992 67.4352L18.3515 66.6211C18.3095 66.6035 18.2644 66.5944 18.2189 66.5942C18.1733 66.594 18.1282 66.6029 18.086 66.6201C18.0439 66.6374 18.0055 66.6629 17.9732 66.695C17.9409 66.7271 17.9152 66.7653 17.8977 66.8073C17.8852 66.8379 16.6843 69.7844 16.458 70.346Z" fill="#EDC766"/>
<path d="M16.4123 70.4138L16.3701 70.3961L17.8762 66.7947C17.9161 66.6997 17.992 66.6243 18.0874 66.5852C18.1828 66.5461 18.2898 66.5464 18.3849 66.586L20.2941 67.3844L22.1658 62.9089C22.2056 62.8138 22.2816 62.7385 22.377 62.6993C22.4723 62.6602 22.5793 62.6605 22.6745 62.7002L25.2999 63.7981L28.9101 55.1653L28.9523 55.1829L25.3244 63.858L22.6568 62.7424C22.6153 62.725 22.5707 62.716 22.5256 62.7158C22.4806 62.7157 22.4359 62.7244 22.3943 62.7415C22.3526 62.7586 22.3147 62.7837 22.2827 62.8155C22.2507 62.8472 22.2253 62.885 22.208 62.9265L20.3187 67.4443L18.3673 66.6282C18.2833 66.5932 18.1889 66.593 18.1048 66.6275C18.0206 66.662 17.9536 66.7285 17.9184 66.8124L16.4123 70.4138Z" fill="#223549"/>
<path d="M17.8475 66.3208C18.0244 66.3208 18.1677 66.1775 18.1677 66.0006C18.1677 65.8238 18.0244 65.6804 17.8475 65.6804C17.6707 65.6804 17.5273 65.8238 17.5273 66.0006C17.5273 66.1775 17.6707 66.3208 17.8475 66.3208Z" fill="#223549"/>
<path d="M22.035 62.4273C22.2119 62.4273 22.3552 62.2839 22.3552 62.1071C22.3552 61.9302 22.2119 61.7869 22.035 61.7869C21.8582 61.7869 21.7148 61.9302 21.7148 62.1071C21.7148 62.2839 21.8582 62.4273 22.035 62.4273Z" fill="#223549"/>
<path d="M28.5556 55.0598C28.7324 55.0598 28.8758 54.9165 28.8758 54.7396C28.8758 54.5628 28.7324 54.4194 28.5556 54.4194C28.3787 54.4194 28.2354 54.5628 28.2354 54.7396C28.2354 54.9165 28.3787 55.0598 28.5556 55.0598Z" fill="#223549"/>
<path d="M10.6331 65.6371C10.7996 65.5543 10.9458 65.436 11.0616 65.2905C11.1774 65.145 11.2599 64.9759 11.3032 64.7951C11.3466 64.6143 11.3498 64.4262 11.3126 64.244C11.2754 64.0619 11.1987 63.8901 11.0879 63.7408L12.0389 54.4426H9.98369L9.22791 63.5218C8.98939 63.7245 8.83353 64.0077 8.78985 64.3177C8.74618 64.6276 8.81772 64.9429 8.99093 65.2036C9.16414 65.4644 9.42698 65.6525 9.72965 65.7324C10.0323 65.8123 10.3538 65.7784 10.6331 65.6371Z" fill="#FFB8B8"/>
<path d="M12.52 49.3113C14.1259 49.3113 15.4277 48.0094 15.4277 46.4036C15.4277 44.7977 14.1259 43.4958 12.52 43.4958C10.9141 43.4958 9.6123 44.7977 9.6123 46.4036C9.6123 48.0094 10.9141 49.3113 12.52 49.3113Z" fill="#FFB8B8"/>
<path d="M13.0679 59.8576C12.9515 59.8576 12.8383 59.8193 12.7458 59.7488C12.6532 59.6783 12.5863 59.5793 12.5554 59.4671C12.3224 58.6207 11.7163 57.1896 10.754 55.2135C10.5368 54.7667 10.4166 54.2792 10.4011 53.7827C10.3857 53.2863 10.4753 52.7922 10.6643 52.3328C10.8532 51.8734 11.1371 51.4592 11.4974 51.1173C11.8577 50.7754 12.2862 50.5135 12.7548 50.3489C13.1989 50.1921 13.6699 50.1259 14.14 50.1544C14.6101 50.1828 15.0697 50.3052 15.4916 50.5144C15.9136 50.7236 16.2893 51.0153 16.5965 51.3722C16.9038 51.7291 17.1363 52.144 17.2804 52.5924C18.0263 54.931 17.9903 57.4361 17.9402 58.4045C17.934 58.5211 17.8897 58.6325 17.8141 58.7215C17.7385 58.8106 17.6359 58.8724 17.5218 58.8976L13.1822 59.8452C13.1446 59.8535 13.1063 59.8576 13.0679 59.8576Z" fill="#889BAF"/>
<path d="M17.2703 87.4689H18.7216L19.4121 81.8706L17.27 81.8707L17.2703 87.4689Z" fill="#FFB8B8"/>
<path d="M21.5205 88.8164L16.959 88.8166L16.9589 87.0542L19.758 87.0541C19.9895 87.0541 20.2186 87.0996 20.4325 87.1882C20.6463 87.2768 20.8406 87.4066 21.0043 87.5702C21.1679 87.7339 21.2977 87.9281 21.3863 88.142C21.4749 88.3558 21.5205 88.585 21.5205 88.8164Z" fill="#223549"/>
<path d="M2.75684 85.5879L4.02877 86.2871L7.33105 81.7142L5.45402 80.6821L2.75684 85.5879Z" fill="#FFB8B8"/>
<path d="M5.83252 88.8167L1.83524 86.619L2.68432 85.0746L5.13719 86.4232C5.54679 86.6484 5.85016 87.027 5.98056 87.4759C6.11096 87.9248 6.05771 88.407 5.83252 88.8167Z" fill="#223549"/>
<path d="M17.2023 84.3617C17.073 84.3616 16.9481 84.3144 16.851 84.229C16.7539 84.1436 16.6912 84.0257 16.6745 83.8975L14.8594 69.9102C14.8514 69.8484 14.824 69.7906 14.7812 69.7452C14.7384 69.6998 14.6823 69.6691 14.621 69.6575C14.5598 69.6459 14.4963 69.6539 14.4399 69.6805C14.3834 69.707 14.3368 69.7507 14.3067 69.8054L6.74192 83.5301C6.6795 83.6421 6.57894 83.7281 6.45852 83.7723C6.3381 83.8165 6.20582 83.816 6.08573 83.7709L4.43683 83.1427C4.37051 83.1174 4.3099 83.0791 4.25858 83.0301C4.20725 82.9811 4.16623 82.9223 4.13793 82.8573C4.10963 82.7922 4.09462 82.7221 4.09379 82.6511C4.09295 82.5802 4.10631 82.5097 4.13306 82.444L9.37338 69.5709C9.38665 69.5382 9.39564 69.5039 9.40014 69.4689C10.1099 63.9754 11.9158 61.1817 12.4524 60.4564C12.4916 60.4031 12.5174 60.3411 12.5276 60.2757C12.5378 60.2103 12.5321 60.1435 12.5111 60.0807L12.4373 59.8595C12.4079 59.7716 12.4018 59.6776 12.4198 59.5868C12.4378 59.4959 12.4791 59.4113 12.5398 59.3413C14.4733 57.1391 17.8431 58.3408 17.8769 58.3532L17.8938 58.3594L17.9044 58.3738C21.683 63.5559 20.2859 80.3873 19.9675 83.7087C19.9556 83.8335 19.9 83.9501 19.8104 84.0379C19.7208 84.1256 19.6031 84.1788 19.4781 84.1881L17.2437 84.3602C17.2298 84.3612 17.216 84.3617 17.2023 84.3617Z" fill="#223549"/>
<path d="M23.8241 49.7812C23.8096 49.8451 23.8001 49.91 23.7958 49.9754L18.7102 52.9093L17.474 52.1976L16.1562 53.9228L18.2221 55.3953C18.389 55.5142 18.59 55.5758 18.7949 55.5708C18.9998 55.5658 19.1975 55.4945 19.3585 55.3676L24.6026 51.2304C24.8393 51.318 25.097 51.3315 25.3415 51.2691C25.586 51.2066 25.8057 51.0712 25.9714 50.8809C26.1371 50.6905 26.2409 50.4542 26.269 50.2034C26.2971 49.9526 26.2482 49.6992 26.1288 49.4769C26.0093 49.2546 25.8251 49.0739 25.6004 48.9589C25.3758 48.8438 25.1215 48.7999 24.8713 48.833C24.6211 48.866 24.3869 48.9744 24.1999 49.1438C24.0128 49.3132 23.8817 49.5355 23.8241 49.7812Z" fill="#FFB8B8"/>
<path d="M18.5406 53.0481L16.8969 55.1784C16.8502 55.239 16.7909 55.2888 16.7231 55.3245C16.6554 55.3601 16.5807 55.3807 16.5043 55.3849C16.4278 55.3891 16.3514 55.3768 16.2802 55.3487C16.2089 55.3207 16.1445 55.2777 16.0914 55.2225L14.2307 53.2903C13.922 53.0493 13.7214 52.6956 13.673 52.307C13.6246 51.9183 13.7322 51.5262 13.9724 51.2168C14.2126 50.9074 14.5657 50.7059 14.9542 50.6564C15.3428 50.6069 15.7351 50.7135 16.0452 50.9529L18.3789 52.2578C18.4458 52.2952 18.5037 52.3465 18.5489 52.4083C18.5941 52.4701 18.6254 52.541 18.6407 52.616C18.6561 52.691 18.6551 52.7684 18.6378 52.843C18.6205 52.9176 18.5874 52.9875 18.5406 53.0481Z" fill="#889BAF"/>
<path d="M12.1699 56.7492L9.52206 56.2711C9.44672 56.2575 9.3752 56.2278 9.31237 56.184C9.24954 56.1403 9.19687 56.0835 9.15795 56.0176C9.11903 55.9517 9.09478 55.8781 9.08685 55.802C9.07892 55.7258 9.08749 55.6489 9.11198 55.5764L9.97036 53.0349C10.0421 52.6498 10.2637 52.3089 10.5864 52.0869C10.9092 51.8649 11.3067 51.78 11.692 51.8507C12.0773 51.9215 12.4188 52.1421 12.6416 52.4643C12.8645 52.7864 12.9505 53.1838 12.8808 53.5692L12.797 56.2417C12.7946 56.3183 12.7757 56.3934 12.7417 56.4619C12.7076 56.5305 12.6592 56.5909 12.5996 56.6391C12.5401 56.6872 12.4709 56.722 12.3968 56.741C12.3226 56.76 12.2452 56.7628 12.1699 56.7492H12.1699Z" fill="#889BAF"/>
<path d="M12.9799 45.7347C13.7273 46.2462 14.7086 46.772 15.4719 46.2273C15.7106 46.0455 15.8841 45.7912 15.9663 45.5026C16.0484 45.2139 16.0349 44.9064 15.9277 44.6261C15.5622 43.5809 14.5581 43.1208 13.5978 42.7681C12.3495 42.3096 10.9902 41.9448 9.70155 42.2732C8.41286 42.6015 7.27395 43.8492 7.50658 45.1586C7.69366 46.2116 8.6869 47.0877 8.5459 48.1478C8.40399 49.2148 7.20412 49.7764 6.14483 49.967C5.08554 50.1577 3.90017 50.219 3.13889 50.9799C2.16775 51.9505 2.41026 53.6854 3.32407 54.7102C4.23787 55.735 5.61685 56.1995 6.95308 56.5153C8.72351 56.9337 10.6384 57.1536 12.3198 56.4592C14.0013 55.7648 15.3098 53.8956 14.8227 52.1428C14.6169 51.4025 14.1323 50.7768 13.6638 50.1676C13.1954 49.5585 12.7211 48.9215 12.5424 48.1741C12.3935 47.5513 12.5037 46.8282 12.9167 46.361C12.9919 46.2793 13.0391 46.1758 13.0518 46.0655C13.0644 45.9552 13.0418 45.8437 12.9871 45.747L12.9799 45.7347Z" fill="#395979"/>
<path d="M24.0629 88.887H0.125984C0.0925707 88.887 0.0605262 88.8737 0.0368997 88.8501C0.0132731 88.8264 0 88.7944 0 88.761C0 88.7276 0.0132731 88.6955 0.0368997 88.6719C0.0605262 88.6483 0.0925707 88.635 0.125984 88.635H24.0629C24.0963 88.635 24.1283 88.6483 24.152 88.6719C24.1756 88.6955 24.1889 88.7276 24.1889 88.761C24.1889 88.7944 24.1756 88.8264 24.152 88.8501C24.1283 88.8737 24.0963 88.887 24.0629 88.887Z" fill="#D7DEE4"/>
</svg>
