<svg width="103" height="91" viewBox="0 0 103 91" fill="none" xmlns="http://www.w3.org/2000/svg">
<g clip-path="url(#clip0_3493_26219)">
<path d="M97.4301 82.1596L97.5893 78.5797C99.2491 77.6925 101.1 77.2239 102.982 77.2145C100.392 79.3322 100.716 83.4142 98.9597 86.2619C98.4052 87.1459 97.6589 87.8937 96.7761 88.4501C95.8933 89.0064 94.8966 89.3569 93.8599 89.4757L91.6924 90.8028C91.3949 89.1448 91.4605 87.4419 91.8846 85.8116C92.3086 84.1814 93.081 82.6624 94.1487 81.3594C94.7548 80.6343 95.4499 79.9885 96.2174 79.4371C96.7366 80.806 97.4301 82.1596 97.4301 82.1596Z" fill="#F2F2F2"/>
<path d="M84.5589 90.5856C89.3562 90.5856 93.2452 86.6966 93.2452 81.8992C93.2452 77.1019 89.3562 73.2129 84.5589 73.2129C79.7616 73.2129 75.8726 77.1019 75.8726 81.8992C75.8726 86.6966 79.7616 90.5856 84.5589 90.5856Z" fill="#6C63FF"/>
<path d="M81.0138 78.5016C80.8946 79.1421 80.6991 79.7661 80.4315 80.3601C78.8993 83.6016 83.2629 82.5451 84.8223 82.5451C86.5273 82.5451 88.1587 83.4416 87.9095 79.4579C87.8031 77.7562 86.5273 76.3707 84.8223 76.3707C83.366 76.3707 81.3184 77.018 81.0138 78.5016Z" fill="#2F2E41"/>
<path d="M84.5673 82.5443C85.9528 82.5443 87.0759 81.4211 87.0759 80.0356C87.0759 78.6501 85.9528 77.5269 84.5673 77.5269C83.1818 77.5269 82.0586 78.6501 82.0586 80.0356C82.0586 81.4211 83.1818 82.5443 84.5673 82.5443Z" fill="#FFB6B6"/>
<path d="M82.8633 77.4783C83.3029 77.2104 83.8064 77.0654 84.3212 77.0586C84.836 77.0518 85.3432 77.1835 85.7897 77.4398C86.2362 77.6961 86.6057 78.0676 86.8594 78.5156C87.1132 78.9636 87.2419 79.4715 87.2322 79.9863C85.9539 80.3072 84.611 80.5528 83.2477 80.063L82.9258 79.2751L82.736 80.0636C82.3209 80.2333 81.9046 80.3769 81.4884 80.062C81.4714 79.5487 81.5895 79.0399 81.8307 78.5865C82.072 78.1331 82.4281 77.751 82.8633 77.4783Z" fill="#2F2E41"/>
<path d="M91.3129 87.6751C89.808 89.3874 87.6901 90.4393 85.4164 90.6036C83.1427 90.7679 80.8956 90.0315 79.1602 88.5534L79.9052 86.4744C80.0736 86.1052 80.3393 85.7887 80.6738 85.559C81.0084 85.3293 81.3991 85.1949 81.8042 85.1704L82.2782 85.1413L83.4084 84.1665C83.4084 84.1665 86.4537 84.0578 86.4085 84.0057L88.2531 85.1153L88.2516 85.1076L88.9767 85.152C89.3818 85.1765 89.7726 85.3107 90.1072 85.5405C90.4417 85.7702 90.7074 86.0867 90.8757 86.456L91.3129 87.6751Z" fill="#3F3D56"/>
<path d="M17.3727 20.672C17.3696 22.39 16.8572 24.0685 15.9002 25.4952C14.9432 26.922 13.5846 28.0329 11.9962 28.6876C10.4078 29.3422 8.66101 29.5111 6.97662 29.173C5.29223 28.8348 3.74594 28.0048 2.53329 26.7878C1.32064 25.5709 0.496095 24.0216 0.163919 22.3361C-0.168258 20.6505 0.00685595 18.9043 0.667118 17.3182C1.32738 15.7322 2.44313 14.3775 3.87328 13.4256C5.30344 12.4736 6.98375 11.9672 8.70175 11.9702C9.84329 11.9693 10.9738 12.1939 12.0282 12.6313C13.0826 13.0687 14.0403 13.7101 14.846 14.5187C15.6518 15.3273 16.2898 16.2872 16.7234 17.3432C17.157 18.3992 17.3777 19.5304 17.3727 20.672Z" fill="#F2F2F2"/>
<path d="M4.66051 17.8309C5.01969 16.6862 5.83647 15.6364 6.96605 15.2494C8.09571 14.8624 9.74981 15.4519 10.5991 16.2983C12.1525 17.8465 12.5316 23.165 11.4643 24.8458C11.252 24.8345 10.5195 24.8262 10.3047 24.8182L10.0007 23.8052V24.8082C9.65842 24.7976 9.31345 24.7903 8.96579 24.7863C7.80018 24.7718 6.68556 24.306 5.85626 23.4868C5.02697 22.6676 4.54761 21.5587 4.51893 20.3933C4.49113 19.2785 4.51897 18.282 4.66051 17.8309Z" fill="#CCCCCC"/>
<path d="M8.55758 21.6247C9.92479 21.6247 11.0331 20.5163 11.0331 19.1491C11.0331 17.7819 9.92479 16.6736 8.55758 16.6736C7.19037 16.6736 6.08203 17.7819 6.08203 19.1491C6.08203 20.5163 7.19037 21.6247 8.55758 21.6247Z" fill="#CCCCCC"/>
<path d="M6.4209 16.975L9.27125 15.5477C9.85399 15.8103 10.3559 16.224 10.7248 16.746C11.0938 17.2679 11.3164 17.879 11.3696 18.516L11.4406 19.367L10.247 19.0632L10.1163 17.975L9.91358 18.9783L9.36275 18.8381L9.36799 17.1487L8.81682 18.8369L6.84948 18.3849L6.4209 16.975Z" fill="#CCCCCC"/>
<path d="M15.1323 26.4049C13.6274 28.1172 11.5095 29.169 9.23578 29.3334C6.96208 29.4977 4.71495 28.7613 2.97949 27.2831L3.72454 25.2042C3.89291 24.835 4.15861 24.5185 4.49315 24.2888C4.82769 24.0591 5.21845 23.9247 5.62353 23.9002L6.09751 23.8711L7.22771 22.8963C7.22771 22.8963 10.273 22.7876 10.2278 22.7355L12.0724 23.8451L12.0709 23.8374L12.796 23.8818C13.2011 23.9062 13.592 24.0405 13.9265 24.2703C14.2611 24.5 14.5267 24.8165 14.695 25.1858L15.1323 26.4049Z" fill="#CCCCCC"/>
<path d="M8.74836 69.2365C13.5457 69.2365 17.4347 65.3475 17.4347 60.5502C17.4347 55.7528 13.5457 51.8638 8.74836 51.8638C3.95102 51.8638 0.0620117 55.7528 0.0620117 60.5502C0.0620117 65.3475 3.95102 69.2365 8.74836 69.2365Z" fill="#F2F2F2"/>
<path d="M5.20329 57.1526C5.08406 57.7931 4.88858 58.417 4.62099 59.0111C3.08871 62.2526 7.45235 61.196 9.01178 61.196C10.7168 61.196 12.3481 62.0926 12.0989 58.1088C11.9925 56.4072 10.7168 55.0217 9.01178 55.0217C7.55543 55.0217 5.50781 55.669 5.20329 57.1526Z" fill="#CCCCCC"/>
<path d="M8.75624 61.1953C10.1417 61.1953 11.2649 60.0721 11.2649 58.6866C11.2649 57.3011 10.1417 56.1779 8.75624 56.1779C7.37073 56.1779 6.24756 57.3011 6.24756 58.6866C6.24756 60.0721 7.37073 61.1953 8.75624 61.1953Z" fill="#CCCCCC"/>
<path d="M7.05275 56.1294C7.49234 55.8614 7.99587 55.7164 8.51067 55.7096C9.02548 55.7028 9.53265 55.8345 9.97916 56.0908C10.4257 56.3471 10.7951 56.7187 11.0489 57.1666C11.3026 57.6146 11.4314 58.1225 11.4217 58.6373C10.1433 58.9582 8.80041 59.2038 7.4372 58.714L7.11526 57.9261L6.92546 58.7146C6.51032 58.8843 6.09409 59.0279 5.67788 58.713C5.66088 58.1997 5.77892 57.6909 6.02019 57.2375C6.26146 56.7841 6.61751 56.402 7.05275 56.1294Z" fill="#CCCCCC"/>
<path d="M15.5024 66.3261C13.9975 68.0384 11.8796 69.0903 9.6059 69.2546C7.3322 69.4189 5.08507 68.6825 3.34961 67.2044L4.09465 65.1254C4.26302 64.7562 4.52872 64.4397 4.86326 64.21C5.1978 63.9803 5.58856 63.8459 5.99364 63.8214L6.46762 63.7923L7.59783 62.8175C7.59783 62.8175 10.6431 62.7088 10.5979 62.6567L12.4425 63.7663L12.441 63.7586L13.1662 63.803C13.5713 63.8274 13.9621 63.9617 14.2966 64.1915C14.6312 64.4212 14.8969 64.7377 15.0651 65.107L15.5024 66.3261Z" fill="#CCCCCC"/>
<path d="M46.1191 61.2977C53.8864 61.2977 60.183 55.0011 60.183 47.2338C60.183 39.4665 53.8864 33.1699 46.1191 33.1699C38.3518 33.1699 32.0552 39.4665 32.0552 47.2338C32.0552 55.0011 38.3518 61.2977 46.1191 61.2977Z" fill="#F2F2F2"/>
<path d="M46.6924 48.6684C49.2252 48.6684 51.2784 46.6152 51.2784 44.0824C51.2784 41.5496 49.2252 39.4964 46.6924 39.4964C44.1597 39.4964 42.1064 41.5496 42.1064 44.0824C42.1064 46.6152 44.1597 48.6684 46.6924 48.6684Z" fill="#CCCCCC"/>
<path d="M50.7302 41.0528C50.7302 41.0528 51.9242 38.7702 49.2973 38.5627C49.2973 38.5627 47.0579 36.5312 44.7752 38.1913C44.7752 38.1913 43.5302 38.1913 42.8493 39.6002C42.8493 39.6002 41.8701 39.2289 41.6549 40.2228C41.6549 40.2228 40.9383 42.2979 41.6549 44.1655C42.3714 46.0331 42.6094 46.2406 42.6094 46.2406C42.6094 46.2406 42.1067 43.923 44.9727 43.7155C47.8386 43.508 50.4679 41.7126 50.7067 43.9952C50.9455 46.2778 51.2081 45.2467 51.2081 45.2467C51.2081 45.2467 53.4766 41.9866 50.7302 41.0528Z" fill="#CCCCCC"/>
<path d="M56.6182 56.5854C54.1817 59.3578 50.7527 61.0609 47.0713 61.3269C43.39 61.593 39.7517 60.4007 36.9419 58.0074L38.1482 54.6415C38.4208 54.0436 38.851 53.5313 39.3926 53.1593C39.9343 52.7874 40.567 52.5699 41.2228 52.5302L41.9902 52.483L43.8201 50.9048C43.8201 50.9048 48.7507 50.7288 48.6775 50.6445L51.6641 52.4409L51.6616 52.4285L52.8357 52.5004C53.4916 52.54 54.1243 52.7574 54.666 53.1294C55.2077 53.5013 55.6379 54.0138 55.9103 54.6117L56.6182 56.5854Z" fill="#CCCCCC"/>
<path d="M22.9559 47.2802C27.7532 47.2802 31.6422 43.3912 31.6422 38.5938C31.6422 33.7965 27.7532 29.9075 22.9559 29.9075C18.1585 29.9075 14.2695 33.7965 14.2695 38.5938C14.2695 43.3912 18.1585 47.2802 22.9559 47.2802Z" fill="#F2F2F2"/>
<path d="M22.7161 39.6699C24.2475 39.6699 25.4889 38.4285 25.4889 36.8971C25.4889 35.3657 24.2475 34.1243 22.7161 34.1243C21.1848 34.1243 19.9434 35.3657 19.9434 36.8971C19.9434 38.4285 21.1848 39.6699 22.7161 39.6699Z" fill="#CCCCCC"/>
<path d="M29.4726 44.4057C27.9677 46.118 25.8498 47.1698 23.5761 47.3342C21.3024 47.4985 19.0553 46.7621 17.3198 45.2839L18.0649 43.205C18.2332 42.8358 18.4989 42.5193 18.8335 42.2896C19.168 42.0599 19.5588 41.9255 19.9639 41.901L20.4378 41.8719L21.568 40.8971C21.568 40.8971 24.6133 40.7884 24.5681 40.7363L26.4128 41.8458L26.4112 41.8382L27.1364 41.8826C27.5415 41.907 27.9323 42.0413 28.2668 42.2711C28.6014 42.5008 28.8671 42.8173 29.0354 43.1866L29.4726 44.4057Z" fill="#CCCCCC"/>
<path d="M25.6402 35.1775C25.4059 34.3389 24.8736 33.6146 24.1431 33.1406C23.561 32.7683 22.8346 32.5782 22.1751 32.7751C21.5156 32.972 20.9696 33.6192 21.0127 34.3185C20.8906 34.2864 20.7618 34.2891 20.6411 34.3264C20.5204 34.3637 20.4126 34.434 20.3298 34.5294C20.1643 34.7247 20.0493 34.9576 19.9947 35.2078C19.7831 35.9918 19.7971 36.8196 20.0352 37.596L20.0221 37.7075C20.3438 37.6543 20.5879 37.3782 20.7396 37.0841C20.8914 36.7899 20.9787 36.4636 21.1432 36.1767C21.3077 35.8897 21.5808 35.6338 21.9067 35.6248L21.878 36.1229L22.719 35.6896C22.6523 35.8491 22.5856 36.0086 22.5189 36.1681C22.7637 36.0658 23.0086 35.9635 23.2534 35.8612C23.226 36.0145 23.1987 36.1679 23.1713 36.3213C23.2355 36.1882 23.326 36.0694 23.4374 35.9723C23.5488 35.8751 23.6788 35.8016 23.8194 35.7561C23.9601 35.7107 24.1085 35.6942 24.2557 35.7077C24.4028 35.7213 24.5458 35.7645 24.6758 35.8349C24.9685 36.0319 25.1796 36.3287 25.2694 36.67C25.3583 37.0105 25.406 37.3604 25.4116 37.7122C25.7899 36.9222 25.871 36.0224 25.6402 35.1775Z" fill="#CCCCCC"/>
<path d="M41.3895 45.59V45.5952C41.3817 45.5762 41.3764 45.5562 41.374 45.5358L41.3895 45.59Z" fill="#F2F2F2"/>
<path d="M41.3893 45.5952C41.4022 45.6495 41.4177 45.7037 41.4332 45.7554C41.412 45.7612 41.3905 45.7655 41.3687 45.7683L41.3893 45.5952Z" fill="#F2F2F2"/>
<path d="M60.1829 47.2048C60.1823 50.8389 58.775 54.3316 56.256 56.9509C53.7369 59.5701 50.3017 61.1125 46.6704 61.2547V33.155C50.3019 33.2964 53.7376 34.8386 56.2568 37.458C58.776 40.0774 60.1831 43.5706 60.1829 47.2048Z" fill="#6C63FF"/>
<path d="M41.374 45.5358L41.3895 45.59V45.5952C41.3817 45.5762 41.3764 45.5562 41.374 45.5358Z" fill="#FFB6B6"/>
<path d="M50.2203 44.4584C50.2211 44.8296 50.1751 45.1994 50.0834 45.5591V45.5616C49.8769 46.3729 49.448 47.1103 48.845 47.691C48.242 48.2716 47.4889 48.6723 46.6704 48.848V40.0662C47.6751 40.2822 48.5754 40.8359 49.2214 41.6351C49.8674 42.4343 50.2199 43.4308 50.2203 44.4584Z" fill="#A0616A"/>
<path d="M56.6691 56.6144C55.4138 58.0464 53.8797 59.2074 52.1605 60.0265C50.4414 60.8457 48.5733 61.3057 46.6704 61.3787V50.8193C47.7685 50.7676 48.7632 50.7134 48.7296 50.6746L51.7163 52.4703L51.7137 52.4573L52.8866 52.5297C53.5426 52.5686 54.1756 52.7858 54.7173 53.1577C55.2591 53.5297 55.6891 54.0423 55.9612 54.6405L56.6407 56.5343L56.6691 56.6144Z" fill="#3F3D56"/>
<path d="M41.3893 45.5952C41.4022 45.6495 41.4177 45.7037 41.4332 45.7554C41.412 45.7612 41.3905 45.7655 41.3687 45.7683L41.3893 45.5952Z" fill="#2F2E41"/>
<path d="M50.0963 45.7761C50.0912 45.7037 50.0886 45.6339 50.0834 45.5616V45.559C50.0684 45.0622 49.9956 44.5689 49.8664 44.0889C49.6984 43.5464 49.3832 43.0271 48.9053 42.7377C48.1896 42.3036 47.1846 42.5387 46.6704 43.1898V37.7719C47.157 37.8991 47.6202 38.1032 48.0423 38.3765C49.2249 39.1434 50.0867 40.3157 50.4658 41.6732C50.839 43.0409 50.7079 44.4971 50.0963 45.7761Z" fill="#2F2E41"/>
<path d="M46.4774 90.9248C46.4327 90.927 46.3891 90.9115 46.3559 90.8816C46.3227 90.8517 46.3027 90.8098 46.3003 90.7652V1.08437C46.3049 1.04059 46.3255 1.00005 46.3582 0.970583C46.3909 0.941114 46.4333 0.924805 46.4774 0.924805C46.5214 0.924805 46.5638 0.941114 46.5965 0.970583C46.6292 1.00005 46.6499 1.04059 46.6544 1.08437V90.7652C46.652 90.8098 46.632 90.8517 46.5988 90.8816C46.5656 90.9115 46.522 90.927 46.4774 90.9248Z" fill="#2F2E41"/>
<path d="M64.1204 42.8444L59.2282 41.6443L52.7056 36.0991L53.7917 34.3748L59.7005 38.1389C59.7005 38.1389 63.6096 39.1314 64.9467 40.2759L64.1204 42.8444Z" fill="#FFB6B6"/>
<path d="M52.9326 36.204C53.5908 36.204 54.1244 35.6703 54.1244 35.0121C54.1244 34.3539 53.5908 33.8203 52.9326 33.8203C52.2743 33.8203 51.7407 34.3539 51.7407 35.0121C51.7407 35.6703 52.2743 36.204 52.9326 36.204Z" fill="#FFB6B6"/>
<path d="M64.3501 39.6355L59.8133 37.7855L57.6328 40.3748L59.2527 41.7094L63.6686 42.8571L63.6718 42.8687C63.9819 44.0118 65.9762 44.7879 67.5946 45.2376C68.1284 45.3855 68.6984 45.3252 69.1894 45.0688C69.6804 44.8125 70.0558 44.3793 70.2396 43.8569C70.3726 43.4705 70.3949 43.0547 70.304 42.6563C70.213 42.258 70.0125 41.893 69.725 41.6027L68.2553 40.129L64.3501 39.6355Z" fill="#E6E6E6"/>
<path d="M51.8058 86.1301L50.2158 85.525L51.7927 79.1045L54.1393 79.9975L51.8058 86.1301Z" fill="#FFB6B6"/>
<path d="M52.4087 85.7653L51.9612 85.595L50.4843 84.2197L49.2775 84.5738C48.7483 84.3725 48.1606 84.3896 47.644 84.6215C47.1274 84.8533 46.7241 85.2808 46.5227 85.81L46.498 85.8749L51.6247 87.8256L52.4087 85.7653Z" fill="#2F2E41"/>
<path d="M67.8786 88.7956L66.1775 88.7954L65.3682 82.2339L67.8789 82.234L67.8786 88.7956Z" fill="#FFB6B6"/>
<path d="M68.3125 88.2402L67.8337 88.2402L65.9643 87.4799L64.9623 88.2401C64.3961 88.2401 63.8529 88.465 63.4525 88.8654C63.0521 89.2658 62.8272 89.8088 62.8271 90.375V90.4444L68.3124 90.4446L68.3125 88.2402Z" fill="#2F2E41"/>
<path d="M70.4725 60.5323C70.4725 60.5323 70.6712 62.916 70.1746 65.2004C69.8633 66.6323 69.7471 69.6947 69.7038 71.7807C69.678 73.0225 69.1195 73.2204 69.1195 73.2204L69.4899 76.0761L68.5854 86.455L65.3079 86.1571L64.414 65.2004L58.5229 69.8585L58.6864 70.4033C58.7658 70.6681 58.1797 70.6342 57.9453 70.7809L57.3673 72.1218C57.3787 72.3434 57.3218 72.5632 57.2044 72.7516C57.087 72.9399 56.9147 73.0877 56.7107 73.1752L53.6407 82.3078L51.2471 80.8716L52.0449 72.5737L53.162 68.7439L57.6601 63.2139L57.7595 61.6248L58.2064 61.6432L58.434 60.9792L58.852 59.837L70.4725 60.5323Z" fill="#2F2E41"/>
<path d="M70.6442 61.033L70.6619 61.0082C71.6073 59.6846 70.1854 56.5041 69.971 56.043C70.2256 55.9604 70.4438 55.792 70.5882 55.5666C70.7327 55.3412 70.7945 55.0727 70.7633 54.8068L70.6708 54.021L70.5745 53.2502L71.2648 52.5598L71.2667 52.5426L71.664 49.0664L72.2417 46.7575C72.4593 45.8847 72.4408 44.9696 72.1879 44.1063C71.9351 43.243 71.4571 42.4626 70.8029 41.845L69.4677 40.5861L67.845 38.1851H65.2282L64.331 39.8799C63.4611 40.0809 62.6893 40.5808 62.1501 41.2923C61.6109 42.0039 61.3383 42.8821 61.38 43.7739L61.5833 48.2188L60.7873 53.753L60.7868 54.7546L60.3722 55.2154C60.2228 55.3814 60.1143 55.5799 60.0552 55.7953C59.9962 56.0106 59.9882 56.2368 60.032 56.4557L60.0866 56.7283C59.8758 56.8186 59.6898 56.9582 59.5441 57.1352C59.3985 57.3123 59.2974 57.5216 59.2493 57.7458L59.1037 58.4254C58.9791 58.5898 58.1567 59.6863 58.1567 59.986C58.1567 60.031 58.19 60.0745 58.2613 60.1228C58.8217 60.5023 61.9192 61.2759 63.2902 60.7274C64.7505 60.1435 70.5556 61.0194 70.614 61.0283L70.6442 61.033Z" fill="#E6E6E6"/>
<path d="M66.1985 37.4101C68.1125 37.4101 69.6641 35.8585 69.6641 33.9445C69.6641 32.0305 68.1125 30.4789 66.1985 30.4789C64.2845 30.4789 62.7329 32.0305 62.7329 33.9445C62.7329 35.8585 64.2845 37.4101 66.1985 37.4101Z" fill="#FFB6B6"/>
<path d="M65.0682 49.1681L62.6608 53.5929L55.6361 58.4865L54.2456 56.9967L59.3915 52.2426C59.3915 52.2426 61.3477 48.7156 62.7952 47.7144L65.0682 49.1681Z" fill="#FFB6B6"/>
<path d="M54.643 59.1818C55.3013 59.1818 55.8349 58.6482 55.8349 57.9899C55.8349 57.3317 55.3013 56.7981 54.643 56.7981C53.9848 56.7981 53.4512 57.3317 53.4512 57.9899C53.4512 58.6482 53.9848 59.1818 54.643 59.1818Z" fill="#FFB6B6"/>
<path d="M64.8515 49.758L66.3654 46.1245L65.8178 44.1166C65.7089 43.7228 65.492 43.3673 65.1916 43.0903C64.8912 42.8133 64.5194 42.6258 64.1181 42.5491C63.5734 42.4487 63.0108 42.5589 62.5443 42.8574C62.0777 43.1559 61.7419 43.6204 61.6047 44.1571C61.1901 45.7849 60.8717 47.9011 61.7091 48.7386L61.7176 48.7471L59.2256 51.997L62.8958 54.0715L64.8515 49.758Z" fill="#E6E6E6"/>
<path d="M69.6226 31.5563C69.3408 31.1765 68.9358 30.9065 68.626 30.5492C68.47 30.3419 68.3023 30.1437 68.1238 29.9555C67.7495 29.6444 67.2772 29.4756 66.7905 29.4791C66.2625 29.4656 65.7387 29.5765 65.2615 29.803C64.7843 30.0294 64.3672 30.365 64.0438 30.7826C63.792 30.635 63.5402 30.4873 63.2883 30.3397C63.1888 30.6015 63.0893 30.8634 62.9899 31.1253C62.9082 31.0543 62.8041 31.0145 62.6959 31.013C62.5877 31.0115 62.4825 31.0483 62.3989 31.117C62.3153 31.1856 62.2587 31.2816 62.2391 31.388C62.2195 31.4944 62.2383 31.6043 62.292 31.6982C62.2321 31.5131 61.9575 31.4738 61.8061 31.5961C61.736 31.664 61.684 31.7483 61.6548 31.8414C61.6256 31.9345 61.6201 32.0334 61.6389 32.1292C61.6699 32.341 61.7635 32.5387 61.9078 32.6969C62.052 32.8551 62.2403 32.9665 62.4483 33.0168C62.7769 33.09 63.1594 33.0131 63.4225 33.2233C63.6333 33.3918 63.697 33.6986 63.9122 33.8615C64.1774 34.0623 64.5522 33.9694 64.8818 34.0138C65.1692 34.0631 65.4276 34.2183 65.6061 34.4489C65.7846 34.6794 65.8701 34.9685 65.8458 35.259C65.8861 35.0732 65.9627 34.8972 66.0713 34.741C66.1269 34.6639 66.2036 34.6045 66.2923 34.5701C66.381 34.5357 66.4777 34.5278 66.5708 34.5472C66.871 34.6372 66.9201 35.0465 66.8474 35.3513C66.6544 36.1599 65.923 37.4668 65.923 37.4668C66.8727 37.8414 68.0041 37.4872 68.7368 36.7764C69.4696 36.0655 69.8512 35.059 70.0174 34.0517C70.1584 33.1976 70.1384 32.2515 69.6226 31.5563Z" fill="#2F2E41"/>
<path d="M100.993 90.5753C100.993 90.6003 100.988 90.625 100.979 90.6481C100.969 90.6712 100.955 90.6921 100.938 90.7098C100.92 90.7274 100.899 90.7414 100.876 90.7509C100.853 90.7604 100.828 90.7653 100.803 90.7652H56.0761C56.0258 90.7652 55.9775 90.7452 55.9419 90.7096C55.9062 90.674 55.8862 90.6257 55.8862 90.5753C55.8862 90.525 55.9062 90.4767 55.9419 90.4411C55.9775 90.4054 56.0258 90.3854 56.0761 90.3854H100.803C100.828 90.3854 100.853 90.3902 100.876 90.3997C100.899 90.4093 100.92 90.4232 100.938 90.4409C100.955 90.4585 100.969 90.4795 100.979 90.5026C100.988 90.5256 100.993 90.5504 100.993 90.5753Z" fill="#CCCCCC"/>
</g>
<defs>
<clipPath id="clip0_3493_26219">
<rect width="102.982" height="90" fill="white" transform="translate(0 0.924805)"/>
</clipPath>
</defs>
</svg>
