<svg 
width="1953" 
height="1758" viewBox="0 0 1953 1758" fill="none" xmlns="http://www.w3.org/2000/svg">
<g clip-path="url(#clip0_5043_879)">
<path d="M364.483 207.557C364.483 207.557 338.359 1114.26 505.428 1815C505.428 1815 1484.72 1630.29 1787 1652.06L1657.65 481.379C1545.27 354.055 1403.03 193.63 1313.34 95.1431C1053.53 97.7983 613.998 127.619 364.483 207.557Z" fill="white"/>
<path d="M1313.34 95.1431C1405.13 196.936 1554.12 342.119 1657.65 481.379L1316.86 456.18C1316.86 456.18 1311.56 306.171 1313.35 95.1431H1313.34Z" fill="#D3D5FC"/>
<path d="M669.396 664.016L1005.62 635.459" stroke="#172430" stroke-width="15" stroke-miterlimit="10" stroke-linecap="round"/>
<path d="M1153.14 622.924L1510.62 592.554" stroke="#172430" stroke-width="15" stroke-miterlimit="10" stroke-linecap="round"/>
<path d="M616.24 751.703L703.748 744.273" stroke="#F95F6A" stroke-width="15" stroke-miterlimit="10" stroke-linecap="round"/>
<path d="M748.887 740.431L1517.64 675.123" stroke="#172430" stroke-width="15" stroke-miterlimit="10" stroke-linecap="round"/>
<path d="M535.37 841.739L951.936 806.34" stroke="#172430" stroke-width="15" stroke-miterlimit="10" stroke-linecap="round"/>
<path d="M1065.93 796.663L1167.16 788.059" stroke="#172430" stroke-width="15" stroke-miterlimit="10" stroke-linecap="round"/>
<path d="M542.391 924.306L1114.07 875.733" stroke="#172430" stroke-width="15" stroke-miterlimit="10" stroke-linecap="round"/>
<path d="M1234.95 865.47L1531.67 840.258" stroke="#172430" stroke-width="15" stroke-miterlimit="10" stroke-linecap="round"/>
<path d="M769.026 1319.46L1105.25 1290.91" stroke="#172430" stroke-width="15" stroke-miterlimit="10" stroke-linecap="round"/>
<path d="M1252.77 1278.37L1610.25 1248" stroke="#172430" stroke-width="15" stroke-miterlimit="10" stroke-linecap="round"/>
<path d="M715.87 1407.15L803.378 1399.72" stroke="#F95F6A" stroke-width="15" stroke-miterlimit="10" stroke-linecap="round"/>
<path d="M848.517 1395.88L1617.27 1330.57" stroke="#172430" stroke-width="15" stroke-miterlimit="10" stroke-linecap="round"/>
<path d="M635 1497.18L1051.57 1461.79" stroke="#172430" stroke-width="15" stroke-miterlimit="10" stroke-linecap="round"/>
<path d="M1165.56 1452.11L1266.79 1443.5" stroke="#172430" stroke-width="15" stroke-miterlimit="10" stroke-linecap="round"/>
<path d="M642.021 1579.75L1213.7 1531.18" stroke="#172430" stroke-width="15" stroke-miterlimit="10" stroke-linecap="round"/>
<path d="M1334.58 1520.92L1631.3 1495.7" stroke="#172430" stroke-width="15" stroke-miterlimit="10" stroke-linecap="round"/>
<path d="M697.455 994.288L1033.68 965.731" stroke="#172430" stroke-width="15" stroke-miterlimit="10" stroke-linecap="round"/>
<path d="M1181.19 953.195L1538.68 922.826" stroke="#172430" stroke-width="15" stroke-miterlimit="10" stroke-linecap="round"/>
<path d="M563.429 1172.01L800.639 1151.85" stroke="#172430" stroke-width="15" stroke-miterlimit="10" stroke-linecap="round"/>
<path d="M776.946 1070.7L1545.7 1005.39" stroke="#172430" stroke-width="15" stroke-miterlimit="10" stroke-linecap="round"/>
<path d="M882.964 1144.86L1299.52 1109.47" stroke="#172430" stroke-width="15" stroke-miterlimit="10" stroke-linecap="round"/>
<path d="M1413.51 1099.78L1552.71 1087.96" stroke="#172430" stroke-width="15" stroke-miterlimit="10" stroke-linecap="round"/>
<path d="M1263.01 1195.74L1559.73 1170.53" stroke="#172430" stroke-width="15" stroke-miterlimit="10" stroke-linecap="round"/>
<path d="M735.34 575L1503.34 509" stroke="#172430" stroke-width="15" stroke-miterlimit="10" stroke-linecap="round"/>
<path d="M562 312L1330 246" stroke="#172430" stroke-width="15" stroke-miterlimit="10" stroke-linecap="round"/>
<path d="M1738.09 76.6544L1358.65 44L1326 423.432L1612.03 448.056C1654.56 429.942 1690.41 398.462 1713.83 358.455L1738.09 76.6799V76.6544Z" fill="#FDC854"/>
<path d="M1612.03 448.044L1620.57 348.855L1713.96 356.897C1713.96 356.897 1693.33 420.649 1612.03 448.044Z" fill="#F89F4F"/>
<path d="M1456.98 139.257L1657.92 156.555" stroke="#1C1A3D" stroke-width="10" stroke-miterlimit="10" stroke-linecap="round"/>
<path d="M1412.97 207.553L1657.55 228.604" stroke="#1C1A3D" stroke-width="10" stroke-miterlimit="10" stroke-linecap="round"/>
<path d="M780.814 153.991L761.664 192.468L733.24 178.321C724.484 173.964 720.914 163.318 725.271 154.562L728.631 147.812C732.989 139.056 743.635 135.486 752.39 139.844L780.814 153.991Z" fill="#CE3A5E"/>
<path d="M777.22 161.36L749.25 147.44C740.49 143.08 729.85 146.65 725.49 155.41L723.91 158.59C722.14 166.38 725.83 174.65 733.3 178.36L761.73 192.5L777.23 161.35L777.22 161.36Z" fill="#CE3A5E"/>
<path d="M812.065 169.564L792.921 208.045L755.944 189.65C747.188 185.294 743.616 174.648 747.972 165.892L751.33 159.141C755.686 150.385 766.332 146.813 775.088 151.169L812.065 169.564Z" fill="#EFEEFE"/>
<path d="M792.88 207.99L807.26 179.09C790.16 170.48 773.06 161.87 755.96 153.26C755.73 153.45 755.5 153.64 755.28 153.85C755.28 153.85 755.26 153.86 755.26 153.87C755.05 154.06 754.84 154.26 754.63 154.47C754.61 154.49 754.6 154.5 754.58 154.52C754.39 154.72 754.2 154.92 754.01 155.12C753.98 155.15 753.96 155.18 753.93 155.2C753.76 155.39 753.59 155.59 753.42 155.8C753.39 155.84 753.35 155.88 753.32 155.93C753.17 156.12 753.02 156.32 752.87 156.52C752.83 156.58 752.79 156.63 752.75 156.69C752.61 156.88 752.48 157.07 752.35 157.27C752.31 157.34 752.26 157.4 752.22 157.47C752.09 157.67 751.98 157.87 751.86 158.07C751.82 158.14 751.78 158.21 751.74 158.28C751.59 158.55 751.44 158.83 751.3 159.11L747.94 165.87C747.81 166.14 747.68 166.41 747.56 166.68C747.52 166.78 747.48 166.88 747.44 166.97C747.37 167.15 747.29 167.32 747.22 167.5C747.18 167.61 747.14 167.73 747.1 167.84C747.04 168 746.98 168.16 746.93 168.33C746.89 168.45 746.86 168.58 746.82 168.7C746.77 168.85 746.73 169.01 746.68 169.17C746.65 169.3 746.62 169.43 746.58 169.56C746.54 169.71 746.5 169.86 746.47 170.01C746.44 170.14 746.42 170.27 746.39 170.4C746.36 170.55 746.33 170.7 746.31 170.85C746.29 170.98 746.27 171.12 746.25 171.25C746.23 171.4 746.21 171.55 746.19 171.69C746.17 171.83 746.16 171.96 746.15 172.1C746.14 172.25 746.12 172.39 746.11 172.54C746.11 172.68 746.1 172.82 746.09 172.95C746.09 173.09 746.08 173.24 746.07 173.38C746.07 173.52 746.07 173.66 746.07 173.8C746.07 173.94 746.07 174.08 746.07 174.22C746.07 174.36 746.08 174.5 746.09 174.64C746.09 174.78 746.1 174.92 746.12 175.06C746.13 175.2 746.14 175.34 746.16 175.49C746.17 175.63 746.19 175.76 746.2 175.9C746.22 176.04 746.24 176.19 746.26 176.33C746.28 176.46 746.3 176.6 746.32 176.73C746.34 176.87 746.37 177.02 746.4 177.16C746.43 177.29 746.45 177.42 746.48 177.55C746.51 177.69 746.55 177.84 746.58 177.98C746.61 178.11 746.64 178.23 746.68 178.36C746.72 178.5 746.76 178.65 746.8 178.79C746.84 178.91 746.87 179.04 746.91 179.16C746.96 179.3 747 179.45 747.05 179.59C747.09 179.71 747.13 179.83 747.18 179.95C747.23 180.09 747.29 180.24 747.34 180.38C747.39 180.5 747.43 180.61 747.48 180.72C747.54 180.86 747.6 181 747.67 181.14C747.72 181.25 747.77 181.36 747.83 181.47C747.9 181.61 747.97 181.75 748.04 181.89C748.09 182 748.15 182.1 748.21 182.21C748.29 182.35 748.36 182.49 748.44 182.63C748.5 182.73 748.56 182.83 748.62 182.93C748.71 183.07 748.79 183.21 748.88 183.35C748.94 183.44 749 183.54 749.07 183.63C749.16 183.77 749.26 183.91 749.35 184.05C749.41 184.14 749.48 184.23 749.55 184.31C749.65 184.45 749.75 184.59 749.86 184.72C749.92 184.8 749.99 184.88 750.06 184.96C750.17 185.1 750.29 185.24 750.4 185.37C750.46 185.44 750.53 185.51 750.59 185.58C750.72 185.72 750.84 185.86 750.97 186C751.03 186.06 751.09 186.12 751.15 186.18C751.29 186.32 751.43 186.47 751.58 186.6C751.63 186.65 751.68 186.69 751.73 186.73C751.89 186.88 752.05 187.03 752.22 187.17C752.24 187.19 752.27 187.21 752.29 187.23C753.13 187.95 754.05 188.59 755.04 189.15L792.88 207.98V207.99Z" fill="#EFEEFE"/>
<path d="M899.35 260.47L779.85 201.54C771.09 197.18 767.52 186.54 771.88 177.78L775.24 171.03C779.6 162.27 790.24 158.7 799 163.06L918.7 222.09L899.35 260.47Z" fill="#FDC854"/>
<path d="M899.64 260.61L779.89 201.55C771.11 197.18 767.52 186.53 771.88 177.77L775.24 171.02C776.44 168.6 778.13 166.58 780.12 165.01C819.91 185.05 874.34 211.84 914.13 231.87L899.64 260.61Z" fill="#FDC854"/>
<path d="M944.36 255.591L918.74 222.101C916.05 223.451 907.47 228.161 902.46 238.661C897.76 248.511 899.03 257.531 899.59 260.581C913.64 260.661 927.7 260.741 941.75 260.821C944.45 260.841 946 257.741 944.35 255.591H944.36Z" fill="#F26D6D"/>
<path d="M899.6 260.581C912.86 260.651 926.12 260.731 939.37 260.801C937.92 258.331 936.48 255.851 935.03 253.381C925.93 245.801 916.83 238.221 907.73 230.641C905.22 233.581 900.18 240.341 899.12 250.131C898.67 254.261 899.05 257.841 899.6 260.571V260.581Z" fill="#FB9C98"/>
<path d="M945.1 256.36L935.97 244.43C934.55 245.37 931.28 247.83 929.3 252.33C927.72 255.93 927.69 259.17 927.8 260.85C932.81 260.88 937.81 260.91 942.82 260.93C945.19 260.94 946.54 258.23 945.1 256.35V256.36Z" fill="#172430"/>
<path d="M75.7898 818.71C75.7898 818.71 66.4298 861.67 69.1398 877.13C70.5698 885.27 80.4398 886.77 86.2398 884.6C90.6198 882.96 89.0298 872.57 93.6898 870.12L94.0498 868.92C94.0498 868.92 84.2298 883.81 95.7298 889.99C111.23 898.32 131.03 869.74 140.07 850.74C165.71 796.82 122.91 722.5 122.91 722.5L58.4198 735.04C34.6898 790.67 42.4498 831.59 49.4698 840.1C56.4898 848.61 73.1698 853.68 73.1698 853.68" fill="#F69995"/>
<path d="M68.8698 850.58C68.8698 850.58 78.5098 821.19 66.2398 814.4C53.9698 807.61 48.5698 828.66 48.5698 828.66" stroke="#8C4130" stroke-width="4.52" stroke-miterlimit="10" stroke-linecap="round"/>
<path d="M90.3398 880.55L99.1498 849.85" stroke="#8C4130" stroke-width="4.52" stroke-miterlimit="10" stroke-linecap="round"/>
<path d="M70.37 824.74C70.37 824.74 57.77 837.01 52.46 819.55" stroke="#8C4130" stroke-width="4.52" stroke-miterlimit="10" stroke-linecap="round"/>
<path d="M95.3097 799.78C86.6797 795.75 59.6697 780.87 66.2997 755.15" stroke="#8C4130" stroke-width="4.52" stroke-miterlimit="10" stroke-linecap="round"/>
<path d="M99.8299 773.15C99.8299 773.15 91.0099 818.15 89.3699 857.45C88.8599 869.64 96.9799 871.06 108.42 867.22L118.71 841.47C118.71 841.47 130.27 814.14 129.77 791.26" fill="#F69995"/>
<path d="M99.8299 773.15C99.8299 773.15 91.0099 818.15 89.3699 857.45C88.8599 869.64 96.9799 871.06 108.42 867.22L118.71 841.47C118.71 841.47 130.27 814.14 129.77 791.26" stroke="#8C4130" stroke-width="4.52" stroke-miterlimit="10" stroke-linecap="round"/>
<path d="M113.76 853.84C113.76 853.84 107.24 847.24 103.34 853.7C99.4398 860.16 97.3198 869.03 97.3198 869.03" stroke="#8C4130" stroke-width="4.52" stroke-miterlimit="10" stroke-linecap="round"/>
<path d="M503.23 481.18C505.65 483.04 623.37 565.06 669.81 566.49C716.24 567.92 822.97 298.56 822.97 298.56L772.55 266.39C772.55 266.39 676.41 391.82 663.51 428.25L578.03 380.57L503.23 481.19V481.18Z" fill="#F69995"/>
<path d="M123.66 734.64L129 570.78L288.82 403.68L158.92 349.77L30.33 499.71C30.33 499.71 1.86002 518.17 60.24 745.29L123.65 734.64H123.66Z" fill="#F69995"/>
<path d="M578.38 1554.71C589.84 1596.93 596.4 1665.13 595.88 1677.97L542.21 1674.59C534.4 1655.42 512.79 1600.74 507.15 1576.91C531.02 1569.88 553.15 1554.92 578.37 1554.71H578.38Z" fill="#F69995"/>
<path d="M614.48 1663.77L632.55 1688.38C650.74 1692.69 679.53 1705.86 685.92 1723.43L692.35 1741.11L521.65 1740.71C521.65 1740.71 500.74 1706.28 538.32 1662.25C538.32 1662.25 536.25 1673.74 577.64 1663.73C594.36 1659.69 597.8 1659.59 614.49 1663.78L614.48 1663.77Z" fill="#EEECFE"/>
<path d="M695.485 1724.84L507.125 1724.42L507.061 1752.98L695.42 1753.4L695.485 1724.84Z" fill="#EEECFE"/>
<path d="M694.16 1724.85H511.99" stroke="#172430" stroke-width="5.93" stroke-miterlimit="10" stroke-linecap="round"/>
<path d="M215.32 1606.81C203.8 1645.55 195.81 1672.73 192.34 1685.11L140.9 1669.43C140.95 1650.71 140.95 1628.17 140.97 1603.69C165.82 1602.36 190.73 1601.19 215.32 1606.81Z" fill="#F69995"/>
<path d="M214.82 1663.77L232.89 1688.38C251.08 1692.69 263.18 1705.86 269.57 1723.43L276 1741.11L121.99 1740.71C121.99 1740.71 101.08 1706.28 138.66 1662.25C138.66 1662.25 136.59 1673.74 177.98 1663.73C194.7 1659.69 198.14 1659.59 214.83 1663.78L214.82 1663.77Z" fill="#EEECFE"/>
<path d="M279.225 1724.84L107.556 1724.42L107.486 1752.98L279.155 1753.4L279.225 1724.84Z" fill="#EEECFE"/>
<path d="M277.81 1724.85H112.33" stroke="#172430" stroke-width="5.93" stroke-miterlimit="10" stroke-linecap="round"/>
<path d="M442.68 592.87C442.68 592.87 478.63 727.17 485.12 816.69C491.61 906.21 120.26 892.31 120.26 892.31C120.26 892.31 115.1 810.24 123.97 731.82C130.22 676.6 132.79 650.27 158.3 598.57" fill="#2E4761"/>
<path d="M119.99 886.56L123.12 1628.69C141.48 1634.53 155.68 1639.92 188.15 1640.36C221.29 1640.81 224.96 1640.8 243.64 1635.31C271.09 1384.5 293.49 1140.93 306.63 889.57L119.99 886.56Z" fill="#2E4761"/>
<path d="M471.43 719.95L601.26 1610.27C601.26 1610.27 549.69 1643.13 485.99 1644.85L220.64 750.42L471.43 719.95Z" fill="#2E4761"/>
<path d="M139.74 642.02C139.74 642.02 330 698.93 477.99 712.03C497.7 619.03 526.73 472.12 526.73 472.12L233.71 382.23L139.73 642.01L139.74 642.02Z" fill="#F9E0D2"/>
<path d="M92.02 390.69C117.92 364.82 156.59 331.67 209.42 302.68C264.33 272.55 326.64 259.98 363.2 252.19L443.98 284.35L651.7 413.99L583.19 541.12L340.45 436.55L220.19 482.3L92.02 390.69Z" fill="#F9E0D2"/>
<path d="M363.47 255.23C359.6 253.75 400.03 186.16 400.03 186.16L451.33 209.53C456.46 211.87 459.35 217.4 458.32 222.95L449.96 288.15C449.96 288.15 404.26 270.81 363.46 255.23H363.47Z" fill="#F69995"/>
<path d="M491.31 97.94C498.04 111.35 504.24 121.83 508.71 129C518.75 145.1 526.42 154.68 522.9 162.81C521.48 166.09 518.7 168.07 516.61 169.22C513.85 171.41 511.09 173.61 508.32 175.8C508.32 175.8 513.19 211.88 501.02 227.57C488.85 243.26 437.65 229.94 437.65 229.94C437.65 229.94 410.53 211.04 402.07 195.33C393.61 179.63 380.57 142.93 401.89 121.52C423.22 100.11 458.11 86.73 458.11 86.73C469.17 90.47 480.24 94.2 491.3 97.94H491.31Z" fill="#F69995"/>
<path d="M438.04 198.29C432.9 200.72 420.44 206.61 408.83 201.72C380.44 189.75 368.98 118.32 401.48 97.0502C421.04 84.2502 455.31 90.4102 470.14 111.32C490.24 139.64 467.21 184.51 438.04 198.29Z" fill="#172430"/>
<path d="M491.73 58.9802C471.52 61.8202 463.27 48.8902 444.11 51.6702C419.84 55.1902 396.83 81.1902 401.48 97.0502C404.85 108.55 422.17 112.69 433.59 115.41C439.03 116.71 504.88 131.52 527.26 92.3102C539.96 70.0502 530.97 43.8602 528.13 36.4702C520.76 45.1402 508.54 56.6202 491.73 58.9902V58.9802Z" fill="#172430"/>
<path d="M477.86 176.73C477.4 167.32 468.17 141.62 462.11 141.3C456.05 140.98 451.51 148.34 451.97 157.75C452.43 167.16 457.71 175.05 463.77 175.37C469.83 175.69 478.32 186.14 477.86 176.73Z" fill="#F69995"/>
<path d="M500.07 122.58C496.69 124.73 493.31 126.87 489.93 129.02C497.19 128.8 504.44 128.57 511.7 128.35C511.7 128.35 515.33 125.69 515.16 123.29C515.1 122.47 514.62 121.98 514.42 121.78C511.89 119.22 501.62 122.13 500.07 122.58Z" fill="#172430"/>
<path d="M493.3 140.16C493.66 139.61 497.84 133.33 503.76 133.4C507.22 133.44 509.43 135.63 510.21 136.5C510.21 136.5 510 136.7 509.6 136.97C509.6 136.97 508.8 137.52 507.86 137.83C506.93 138.13 501.19 139.11 493.31 140.16H493.3Z" fill="#19173D"/>
<path d="M455.48 233.82L459.43 220.2" stroke="#8C4130" stroke-width="4.52" stroke-miterlimit="10" stroke-linecap="round"/>
<path d="M202.18 469.42L218.38 413.64" stroke="#172430" stroke-width="4.52" stroke-miterlimit="10" stroke-linecap="round"/>
<path d="M199.65 880.55C209.03 881.31 239.77 883.78 264.36 884.12C276.26 927.71 288.16 971.31 300.06 1014.9" stroke="#172430" stroke-width="5.93" stroke-miterlimit="10" stroke-linecap="round"/>
<path d="M35.4702 505.14C35.4702 505.14 48.3102 502.1 51.8402 511.89" stroke="#8C4130" stroke-width="4.52" stroke-miterlimit="10" stroke-linecap="round"/>
<path d="M456.21 732.771C456.21 732.771 462.28 795.22 441.72 827.19" stroke="#172430" stroke-width="4.52" stroke-miterlimit="10" stroke-linecap="round"/>
<path d="M869.09 261.28C869.09 261.28 907.07 249.79 918.07 240.87C923.86 236.17 920.71 227.73 916.45 224.1C913.23 221.37 905.74 227.18 901.77 224.59L900.66 224.83C900.66 224.83 916.71 226.03 916.53 214.25C916.29 198.37 885.06 195.31 866.11 196.53C812.34 200 772.54 266.38 772.54 266.38L810.75 311.72C865.03 306 893.89 281.91 897.51 272.64C901.14 263.37 897.81 247.99 897.81 247.99" fill="#F69995"/>
<path d="M897.26 252.74C897.26 252.74 889.43 254.26 882.14 257.6" stroke="#8C4130" stroke-width="4.52" stroke-miterlimit="10" stroke-linecap="round"/>
<path d="M911.46 222.66L883.39 229.19" stroke="#8C4130" stroke-width="4.52" stroke-miterlimit="10" stroke-linecap="round"/>
<path d="M511.84 527.03C511.84 527.03 517.81 466.43 526.74 453.58" stroke="#172430" stroke-width="4.52" stroke-miterlimit="10" stroke-linecap="round"/>
<path d="M3 1754H1953" stroke="#172430" stroke-width="35" stroke-miterlimit="10" stroke-linecap="round"/>
</g>
<defs>
<clipPath id="clip0_5043_879">
<rect width="1953" height="1757.4" fill="white"/>
</clipPath>
</defs>
</svg>
