<svg width="133" height="71" viewBox="0 0 133 71" fill="none" xmlns="http://www.w3.org/2000/svg">
<g clip-path="url(#clip0_3491_26513)">
<path d="M40.4974 4.54207C40.998 2.93733 42.1364 1.46552 43.7108 0.923031C45.2853 0.380542 47.5907 1.20693 48.7744 2.39347C50.9395 4.56388 51.4679 12.02 49.9803 14.3763C49.6844 14.3605 48.6635 14.3489 48.364 14.3376L47.9404 12.9174V14.3236C45.603 14.2509 43.1696 14.2964 40.7349 14.3435C40.5167 12.6752 39.9968 6.14681 40.4974 4.54207Z" fill="#223549"/>
<path d="M63.6361 29.371C63.4258 29.3427 63.2243 29.2683 63.0456 29.1532C62.867 29.038 62.7156 28.8849 62.6022 28.7046C62.4888 28.5242 62.416 28.321 62.3891 28.1093C62.3622 27.8977 62.3817 27.6826 62.4464 27.4794L58.3208 24.3664L60.8437 23.4568L64.3746 26.5523C64.7069 26.6842 64.9795 26.9341 65.1409 27.2546C65.3022 27.5752 65.3411 27.9442 65.25 28.2916C65.159 28.639 64.9444 28.9408 64.647 29.1397C64.3495 29.3387 63.9899 29.421 63.6361 29.371Z" fill="#9E616A"/>
<path d="M47.2476 13.0548L47.6423 11.6501C47.6423 11.6501 48.6266 11.3273 50.3062 12.5526C51.9859 13.7779 62.3541 24.7154 62.3541 24.7154L59.2673 25.1495L49.8331 18.3705L47.2476 13.0548Z" fill="#889BAF"/>
<path d="M111.84 66.7048C118.154 63.4617 123.181 56.9592 123.042 49.8295C117.139 54.8178 109.672 57.5451 101.962 57.529C98.989 57.5119 95.6836 57.1815 93.3728 59.0636C91.9349 60.2346 91.1812 62.0897 90.9581 63.937C90.735 65.7843 90.9854 67.6526 91.2354 69.4965L91.0803 69.9341C98.1533 70.4222 105.526 69.9479 111.84 66.7048Z" fill="#F1F3F5"/>
<path d="M122.894 49.8122C120.144 54.9559 115.742 59.2492 110.495 61.7699C109.36 62.3149 108.162 62.7684 106.909 62.9333C105.687 63.0846 104.447 62.904 103.318 62.4101C102.255 61.971 101.219 61.398 100.07 61.2262C98.8575 61.0451 97.699 61.4444 96.7592 62.2148C95.6095 63.1574 94.865 64.4594 94.181 65.7581C93.4215 67.2 92.6553 68.7098 91.3138 69.6948C91.1513 69.8142 91.3449 70.0609 91.5072 69.9417C93.8411 68.2279 94.4031 65.1395 96.3141 63.0664C97.2058 62.099 98.3927 61.3961 99.7419 61.5047C100.922 61.5996 101.99 62.1895 103.062 62.6436C104.187 63.1203 105.328 63.3842 106.555 63.2867C107.81 63.187 109.028 62.7797 110.172 62.2663C112.756 61.0826 115.139 59.4976 117.233 57.5693C119.636 55.382 121.649 52.7973 123.185 49.9272C123.28 49.7495 122.989 49.6357 122.894 49.8122Z" fill="white"/>
<path d="M112.243 61.041C112.793 61.8733 113.619 62.482 114.574 62.7581C115.529 63.0343 116.55 62.9601 117.456 62.5487C117.639 62.4649 117.518 62.175 117.335 62.259C116.492 62.6436 115.541 62.7126 114.652 62.4536C113.763 62.1946 112.996 61.6246 112.488 60.8465C112.378 60.6775 112.133 60.873 112.243 61.041Z" fill="white"/>
<path d="M103.827 62.7042C104.21 60.6979 105.332 58.9107 106.967 57.6989C107.129 57.579 106.935 57.3322 106.773 57.452C105.074 58.7162 103.911 60.5785 103.517 62.6671C103.479 62.8662 103.79 62.9022 103.827 62.7042H103.827Z" fill="white"/>
<path d="M119.259 55.2095C118.979 54.932 118.773 54.5891 118.657 54.2115C118.542 53.8338 118.522 53.4334 118.599 53.046C118.639 52.8474 118.328 52.8117 118.289 53.009C118.206 53.4373 118.229 53.8796 118.355 54.2971C118.481 54.7146 118.707 55.0946 119.013 55.404C119.04 55.4356 119.077 55.4559 119.118 55.4607C119.159 55.4656 119.2 55.4547 119.233 55.4302C119.265 55.4043 119.286 55.3666 119.291 55.3252C119.296 55.2839 119.284 55.2423 119.259 55.2095H119.259Z" fill="white"/>
<path d="M104.248 34.8087C104.22 34.932 104.192 35.0552 104.161 35.1795C103.77 36.8345 103.246 38.4549 102.594 40.0245C102.545 40.1467 102.494 40.2698 102.442 40.3903C100.832 44.1551 98.5405 47.5865 95.6846 50.51C94.5471 51.6723 93.3233 52.7458 92.0239 53.7213C90.2292 55.0684 88.1768 56.3854 86.9651 58.1969C86.8366 58.3844 86.7197 58.5798 86.6152 58.7819L90.5613 69.7098C90.5827 69.7301 90.6016 69.7514 90.623 69.7718L90.7607 70.2154C90.8312 70.1698 90.9034 70.121 90.9739 70.0754C91.0149 70.0491 91.055 70.0204 91.0961 69.9941C91.1231 69.9758 91.1502 69.9574 91.1756 69.9424C91.1846 69.9364 91.1936 69.9302 91.2002 69.925C91.2257 69.9101 91.2477 69.8935 91.2707 69.8794C91.6748 69.6077 92.0777 69.3325 92.4794 69.0541C92.4819 69.0532 92.4818 69.0532 92.4835 69.0499C95.5388 66.9204 98.4442 64.5157 100.894 61.7439C100.968 61.6604 101.044 61.5762 101.116 61.4878C102.214 60.2323 103.207 58.8886 104.087 57.4701C104.567 56.6919 105.006 55.8898 105.405 55.0668C106.431 52.9384 107.118 50.6609 107.44 48.3178C108.082 43.6467 107.232 38.8212 104.463 35.0916C104.392 34.9962 104.322 34.9032 104.248 34.8087Z" fill="#F1F3F5"/>
<path d="M104.12 34.8836C105.002 40.6562 104.058 46.7498 101.377 51.9403C100.797 53.0624 100.112 54.15 99.2104 55.0403C98.3251 55.9013 97.2267 56.5081 96.0294 56.7977C94.9184 57.0903 93.7483 57.2602 92.7274 57.8193C91.6512 58.4087 90.9652 59.4292 90.676 60.6134C90.3222 62.0623 90.5071 63.5527 90.7383 65.0039C90.995 66.6151 91.287 68.2846 90.8055 69.8834C90.7472 70.0772 91.0495 70.1569 91.1077 69.9635C91.9454 67.1817 90.5454 64.3754 90.8303 61.5629C90.9632 60.2505 91.4902 58.9705 92.6324 58.2402C93.6313 57.6015 94.8377 57.4253 95.9652 57.1388C97.149 56.838 98.2181 56.3577 99.1392 55.537C100.081 54.6974 100.81 53.6345 101.416 52.5321C102.771 50.0221 103.725 47.3135 104.243 44.5055C104.852 41.3039 104.912 38.0212 104.421 34.7993C104.39 34.5999 104.089 34.6855 104.12 34.8836V34.8836Z" fill="white"/>
<path d="M102.336 50.2994C103.274 50.6309 104.298 50.6165 105.225 50.2588C106.153 49.901 106.924 49.2232 107.401 48.3463C107.497 48.1686 107.227 48.0104 107.131 48.1884C106.688 49.0057 105.97 49.637 105.105 49.9684C104.241 50.2998 103.287 50.3094 102.416 49.9954C102.227 49.9274 102.148 50.2318 102.336 50.2994Z" fill="white"/>
<path d="M96.612 56.724C95.7172 54.89 95.5426 52.7841 96.1229 50.8263C96.1805 50.6323 95.8783 50.5526 95.8207 50.7463C95.2206 52.7848 95.4068 54.9759 96.3421 56.8824C96.4314 57.064 96.7008 56.9047 96.612 56.724Z" fill="white"/>
<path d="M104.448 41.3947C104.058 41.3424 103.688 41.1937 103.37 40.962C103.052 40.7302 102.796 40.4226 102.626 40.0669C102.539 39.8842 102.269 40.0437 102.356 40.2252C102.546 40.6174 102.829 40.9567 103.18 41.2136C103.531 41.4704 103.938 41.637 104.368 41.6986C104.408 41.7079 104.45 41.7014 104.485 41.6806C104.521 41.6598 104.547 41.6262 104.559 41.5867C104.569 41.5464 104.563 41.5036 104.542 41.4677C104.522 41.4317 104.488 41.4055 104.448 41.3947V41.3947Z" fill="white"/>
<path d="M35.8956 15.1353C30.4868 10.5251 22.5838 8.36575 16.0967 11.2425C22.9482 14.7986 28.3283 20.6777 31.2852 27.8396C32.4155 30.6058 33.3865 33.8009 36.0037 35.2202C37.6322 36.1033 39.6245 36.0879 41.4052 35.5829C43.1859 35.0779 44.8033 34.1254 46.3985 33.1826L46.8597 33.158C44.5812 26.4051 41.3045 19.7456 35.8956 15.1353Z" fill="#F1F3F5"/>
<path d="M16.1379 11.3863C21.9167 11.9564 27.5519 14.3871 31.887 18.2858C32.8242 19.1287 33.702 20.0657 34.3361 21.1648C34.9461 22.2409 35.2584 23.4616 35.2406 24.7001C35.2472 25.8552 35.1208 27.0376 35.4064 28.171C35.7074 29.3657 36.5203 30.2871 37.5893 30.8623C38.8972 31.5661 40.3786 31.7552 41.8336 31.8895C43.4491 32.0386 45.1295 32.1678 46.5502 33.0331C46.7223 33.138 46.874 32.8632 46.7021 32.7585C44.2303 31.2529 41.1804 31.9218 38.5421 30.9472C37.311 30.4925 36.2087 29.6618 35.7882 28.3678C35.4206 27.2362 35.5498 26.0168 35.5532 24.8472C35.5569 23.619 35.3591 22.4582 34.7969 21.3573C34.2217 20.231 33.3785 19.2575 32.4668 18.3942C30.3849 16.452 28.0124 14.8513 25.4361 13.6505C22.5034 12.2636 19.3564 11.3915 16.1313 11.0721C15.9317 11.0524 15.9396 11.3668 16.1379 11.3863L16.1379 11.3863Z" fill="white"/>
<path d="M30.5441 16.9437C31.0957 16.1124 31.3356 15.111 31.2209 14.1183C31.1062 13.1256 30.6444 12.2062 29.918 11.5243C29.7705 11.3869 29.5512 11.6109 29.6989 11.7485C30.3765 12.3822 30.8066 13.2387 30.9115 14.1633C31.0164 15.088 30.7893 16.0199 30.2711 16.7909C30.1587 16.9585 30.4324 17.1104 30.5441 16.9437V16.9437Z" fill="white"/>
<path d="M35.3138 24.1139C33.3256 24.5314 31.2539 24.1798 29.512 23.1292C29.3395 23.0249 29.1877 23.2997 29.36 23.4038C31.1748 24.4937 33.3314 24.8552 35.3995 24.4162C35.5966 24.3742 35.5099 24.0721 35.3138 24.1139V24.1139Z" fill="white"/>
<path d="M22.4906 12.6801C22.3438 13.0464 22.1088 13.3704 21.8068 13.6228C21.5047 13.8753 21.1451 14.0483 20.7602 14.1264C20.5626 14.1659 20.6495 14.4679 20.8458 14.4287C21.2707 14.3404 21.6676 14.1488 22.002 13.8706C22.3363 13.5925 22.5978 13.2362 22.7636 12.8329C22.7824 12.7962 22.7866 12.7537 22.7753 12.714C22.7641 12.6743 22.7382 12.6404 22.703 12.6192C22.6668 12.5991 22.6241 12.5943 22.5843 12.6057C22.5446 12.6171 22.5109 12.6438 22.4906 12.6801V12.6801Z" fill="white"/>
<path d="M9.56104 34.4749C9.68507 34.4538 9.8091 34.4327 9.93501 34.4135C11.604 34.1384 13.2924 34.0002 14.9837 34.0002C15.1144 33.9981 15.247 33.998 15.3775 33.9996C19.4521 34.0433 23.4832 34.8474 27.2659 36.3712C28.7705 36.979 30.227 37.701 31.6228 38.531C33.5504 39.6774 35.5496 41.0747 37.6784 41.5011C37.9 41.5481 38.1243 41.5812 38.35 41.6003L46.854 33.7258C46.8643 33.6981 46.8766 33.6723 46.8871 33.6446L47.2409 33.3458C47.1719 33.2979 47.0993 33.2498 47.0303 33.2019C46.9904 33.174 46.9486 33.1478 46.9087 33.1199C46.8814 33.1018 46.8541 33.0838 46.8306 33.066C46.8216 33.0599 46.8124 33.054 46.8052 33.0498C46.7816 33.032 46.7579 33.0179 46.7362 33.002C46.3311 32.7317 45.9234 32.4638 45.5132 32.1983C45.5114 32.1964 45.5114 32.1964 45.5077 32.1962C42.3765 30.1813 39.0506 28.4116 35.5634 27.2059C35.4585 27.1697 35.3519 27.1314 35.2431 27.0988C33.6682 26.5641 32.0525 26.1598 30.4122 25.8898C29.5135 25.7449 28.6081 25.6459 27.6995 25.5931C25.3514 25.4612 22.9974 25.7016 20.7236 26.3055C16.191 27.51 12.0919 30.1592 9.7379 34.1669C9.67776 34.2695 9.61939 34.3704 9.56104 34.4749Z" fill="#F1F3F5"/>
<path d="M9.67921 34.5657C14.6345 31.5213 20.5888 30.0495 26.3838 30.5372C27.6366 30.6426 28.8984 30.8592 30.0626 31.3527C31.1937 31.8425 32.1737 32.628 32.9009 33.6277C33.5975 34.546 34.2044 35.5666 35.1109 36.2986C36.0663 37.0702 37.2669 37.3136 38.4647 37.1255C39.9303 36.8954 41.2263 36.1494 42.4684 35.3755C43.8476 34.5162 45.2665 33.6017 46.9189 33.4323C47.1191 33.4117 47.0757 33.1005 46.8758 33.121C44.001 33.4158 41.9662 35.7967 39.2763 36.6164C38.0211 36.9988 36.6438 37.0031 35.5335 36.2245C34.5626 35.5436 33.9359 34.4918 33.2385 33.5558C32.5063 32.573 31.6536 31.766 30.5457 31.2274C29.4123 30.6764 28.1563 30.4097 26.9116 30.2726C24.0868 29.9827 21.2343 30.1413 18.4585 30.7427C15.2867 31.4113 12.2521 32.6208 9.4858 34.3188C9.31463 34.424 9.50914 34.6702 9.6792 34.5657L9.67921 34.5657Z" fill="white"/>
<path d="M24.5086 30.2788C24.4515 29.281 24.0436 28.3362 23.3578 27.613C22.672 26.8899 21.753 26.4354 20.7648 26.3309C20.5648 26.3105 20.5238 26.6221 20.7241 26.6426C21.6444 26.7382 22.5005 27.1616 23.1377 27.8364C23.7749 28.5111 24.1514 29.3927 24.1991 30.3221C24.2098 30.5241 24.5192 30.4796 24.5086 30.2788V30.2788Z" fill="white"/>
<path d="M32.6089 33.1153C31.2713 34.6527 29.4068 35.6265 27.387 35.8426C27.1869 35.8638 27.2302 36.1751 27.4301 36.1539C29.5315 35.9251 31.4698 34.9077 32.8582 33.3048C32.9905 33.1519 32.7405 32.9633 32.6089 33.1153V33.1153Z" fill="white"/>
<path d="M15.5259 31.7517C15.628 32.1331 15.6343 32.5341 15.5443 32.9185C15.4542 33.303 15.2706 33.659 15.01 33.9545C14.8759 34.1056 15.1261 34.2941 15.2593 34.1439C15.5458 33.8161 15.748 33.4228 15.8484 32.9982C15.9488 32.5736 15.9444 32.1308 15.8354 31.7084C15.8284 31.6677 15.8063 31.6312 15.7736 31.6063C15.7409 31.5814 15.6999 31.57 15.6591 31.5744C15.6182 31.5803 15.5812 31.6023 15.5563 31.6355C15.5313 31.6687 15.5204 31.7105 15.5259 31.7517V31.7517Z" fill="white"/>
<path d="M93.361 42.7301C93.3386 42.3331 93.1772 41.957 92.9053 41.6683C92.6334 41.3797 92.2687 41.1972 91.8758 41.1533L67.7021 38.4097C67.4703 38.383 67.2355 38.4055 67.0128 38.4756L61.4674 40.222L58.2856 41.225L52.4137 43.0738C52.0593 43.1858 51.7518 43.413 51.5396 43.7197C51.3273 44.0265 51.2223 44.3954 51.2409 44.7686L52.2321 68.4666C52.2532 68.8517 52.4042 69.2181 52.6603 69.5053C52.9163 69.7924 53.2621 69.9831 53.6405 70.0459L78.3229 70.1001C78.4388 70.119 78.5564 70.1253 78.6736 70.1188C78.8445 70.1105 79.0131 70.0758 79.1736 70.0161L93.6374 69.9156C93.9744 69.7907 94.2624 69.5599 94.4587 69.2574C94.655 68.9549 94.7491 68.5968 94.7271 68.2362L93.361 42.7301Z" fill="white"/>
<path d="M53.8733 68.5887L78.5555 68.6423C78.5916 68.6484 78.6286 68.645 78.663 68.6323L93.1249 68.5325C93.1674 68.5172 93.2036 68.4883 93.2283 68.4503C93.2529 68.4124 93.2646 68.3673 93.2615 68.3221L91.8972 42.8154C91.8939 42.766 91.8735 42.7194 91.8397 42.6834C91.8059 42.6474 91.7607 42.6244 91.7119 42.6183L91.5492 42.599L67.5372 39.8766C67.5262 39.8752 67.5151 39.8749 67.504 39.8757C67.486 39.8762 67.468 39.8791 67.4507 39.8842L53.9252 44.1446L52.8517 44.4818C52.8077 44.4962 52.7697 44.5247 52.7434 44.5629C52.717 44.6011 52.7038 44.6469 52.7058 44.6933L53.6973 68.3905C53.6997 68.4387 53.7185 68.4847 53.7505 68.5208C53.7825 68.5569 53.8259 68.5808 53.8733 68.5887Z" fill="#F1D285"/>
<path d="M53.9253 44.1446L67.4508 39.8842C67.4682 39.8791 67.4861 39.8762 67.5042 39.8757C67.5152 39.8749 67.5263 39.8752 67.5373 39.8766L91.5494 42.599L85.7664 44.4918L83.6019 45.1991L77.4433 47.2135C77.425 47.2183 77.4065 47.2221 77.3879 47.2246C77.376 47.2236 77.364 47.2226 77.3498 47.2219L53.9253 44.1446Z" fill="#EDC766"/>
<path d="M53.6403 70.0472L78.3226 70.1008C78.4387 70.1195 78.5565 70.1251 78.6739 70.1174C78.8449 70.1096 79.0137 70.0758 79.1747 70.0171L93.6366 69.9172C93.9737 69.792 94.2618 69.561 94.4583 69.2583C94.6547 68.9556 94.749 68.5974 94.7273 68.2366L93.3607 42.7301C93.3434 42.4314 93.2478 42.1426 93.0837 41.893C93.0611 41.86 93.0384 41.8269 93.0137 41.7966C92.8438 41.573 92.6198 41.3968 92.3631 41.2849C92.2082 41.2166 92.044 41.1723 91.876 41.1534L91.8472 41.1496L67.7033 38.4092C67.6049 38.3993 67.506 38.3964 67.4072 38.4005C67.273 38.4098 67.1403 38.4354 67.0122 38.4768L61.4673 40.2212L58.2862 41.2258L52.4132 43.0744C52.1729 43.1498 51.9527 43.279 51.7693 43.4524C51.7547 43.4638 51.7411 43.4765 51.7287 43.4903C51.7198 43.4994 51.7114 43.5091 51.7037 43.5193C51.5465 43.6848 51.4244 43.8807 51.3449 44.0952C51.2654 44.3097 51.2301 44.5382 51.2413 44.7668L52.2308 68.4666C52.252 68.852 52.4032 69.2186 52.6594 69.506C52.9157 69.7934 53.2617 69.9842 53.6403 70.0472ZM51.6592 44.7472C51.6478 44.5102 51.7038 44.2748 51.8205 44.0686C51.8551 44.0029 51.8963 43.9409 51.9434 43.8835C52.0716 43.7246 52.2365 43.5997 52.4237 43.5196C52.4606 43.5033 52.4984 43.4895 52.537 43.4781L62.4256 40.365L67.1381 38.8779C67.1699 38.8671 67.1999 38.8612 67.2297 38.8531C67.3022 38.836 67.3761 38.8259 67.4505 38.8229C67.5184 38.8174 67.5866 38.8191 67.6541 38.828L91.8268 41.5722C91.846 41.5748 91.8628 41.5776 91.882 41.5801C92.1035 41.6131 92.3117 41.7066 92.484 41.8504C92.6193 41.9597 92.7301 42.0966 92.8092 42.252C92.8883 42.4073 92.9339 42.5778 92.943 42.7521L94.3075 68.2611C94.3239 68.5312 94.2535 68.7995 94.1067 69.0263C93.9599 69.2531 93.7446 69.4264 93.4924 69.5207L79.0281 69.6208C78.8236 69.6962 78.6033 69.7175 78.3883 69.6825L53.7064 69.6312C53.423 69.5834 53.1642 69.4401 52.9724 69.2249C52.7807 69.0097 52.6674 68.7353 52.651 68.4467L51.6592 44.7472Z" fill="#F4DDA3"/>
<path d="M78.7485 70.1643C78.6933 70.1671 78.6392 70.1479 78.598 70.1108C78.5569 70.0737 78.5319 70.0218 78.5287 69.9663L77.1683 47.0255C77.165 46.9697 77.1839 46.9148 77.2208 46.873C77.2577 46.8312 77.3096 46.8058 77.3651 46.8025L77.367 46.8024C77.4222 46.7996 77.4763 46.8188 77.5174 46.8559C77.5586 46.893 77.5835 46.9449 77.5868 47.0004L78.9471 69.9412C78.9504 69.9971 78.9316 70.0519 78.8947 70.0937C78.8578 70.1355 78.8059 70.1609 78.7504 70.1642L78.7485 70.1643Z" fill="#F4DDA3"/>
<path d="M87.2818 68.6125L84.9136 68.5964L82.6665 45.0614C82.6665 45.0614 85.5111 43.8912 85.6358 44.0903C85.7117 44.2089 87.2731 68.4666 87.2818 68.6125Z" fill="#F4DDA3"/>
<path d="M92.6069 42.0511L92.436 41.9103C92.2599 41.7648 92.0456 41.674 91.819 41.6491L67.6466 38.9049C67.5133 38.8902 67.3784 38.8977 67.2475 38.9272L67.1569 38.9497L67.1387 38.5859L71.1475 34.1254C71.3862 33.861 71.6824 33.6556 72.013 33.5251C72.3435 33.3947 72.6996 33.3428 73.0534 33.3734L89.3947 34.8277C89.8829 34.8695 90.3449 35.0679 90.7124 35.3938C91.08 35.7196 91.3338 36.1556 91.4364 36.6375L92.6069 42.0511Z" fill="#F4DDA3"/>
<path d="M56.0708 60.0001C56.0966 59.9959 56.1227 59.9945 56.1488 59.9961L63.5886 60.4497C63.6817 60.4553 63.7688 60.498 63.8307 60.5682C63.8926 60.6385 63.9242 60.7306 63.9186 60.8242C63.913 60.9179 63.8706 61.0055 63.8007 61.0678C63.7309 61.13 63.6393 61.1618 63.5462 61.1562L56.1064 60.7026C56.02 60.6973 55.9386 60.6602 55.8777 60.5984C55.8168 60.5365 55.7807 60.4543 55.7763 60.3674C55.7719 60.2804 55.7995 60.1949 55.8538 60.1272C55.9082 60.0594 55.9854 60.0141 56.0708 60.0001Z" fill="white"/>
<path d="M56.1958 62.629C56.2216 62.6248 56.2477 62.6235 56.2738 62.625L63.7136 63.0786C63.8067 63.0842 63.8938 63.1269 63.9557 63.1971C64.0176 63.2674 64.0492 63.3595 64.0436 63.4531C64.038 63.5468 63.9956 63.6344 63.9257 63.6967C63.8559 63.7589 63.7643 63.7907 63.6712 63.785L56.2314 63.3315C56.145 63.3262 56.0636 63.2891 56.0027 63.2273C55.9418 63.1654 55.9057 63.0832 55.9013 62.9963C55.8969 62.9093 55.9245 62.8238 55.9788 62.7561C56.0332 62.6883 56.1104 62.6431 56.1958 62.629Z" fill="white"/>
<path d="M91.7801 31.2393L77.4293 39.0984L71.5332 28.2061L85.8841 20.3469L91.7801 31.2393Z" fill="white"/>
<path d="M91.7801 31.2393L77.4293 39.0984L71.5332 28.2061L85.8841 20.3469L91.7801 31.2393ZM77.5495 38.6884L91.3725 31.1184L85.7638 20.757L71.9409 28.327L77.5495 38.6884Z" fill="#D7DEE4"/>
<path d="M85.5969 24.3502L75.0317 30.1361L75.4152 30.8446L85.9804 25.0587L85.5969 24.3502Z" fill="#D7DEE4"/>
<path d="M86.7473 26.4754L76.1821 32.2614L76.5656 32.9698L87.1308 27.1839L86.7473 26.4754Z" fill="#D7DEE4"/>
<path d="M87.8977 28.6008L77.3325 34.3867L77.716 35.0952L88.2812 29.3093L87.8977 28.6008Z" fill="#D7DEE4"/>
<path d="M59.0777 21.6406C58.9294 21.4735 58.8789 21.4565 58.8263 21.493L50.6596 27.1605C50.6076 27.1967 50.6045 27.25 50.7055 27.4464C50.9725 27.862 51.2987 28.3527 51.6558 28.8733L62.1632 44.1914C63.1481 45.6272 64.0038 46.7577 64.0705 46.7114L72.2371 41.0439C72.3038 40.9976 71.5569 39.7917 70.572 38.3559L60.0645 23.0378C59.7083 22.5184 59.3688 22.0386 59.0777 21.6406Z" fill="white"/>
<path d="M60.1656 23.0744C59.98 22.8126 59.8031 22.5698 59.645 22.3582C59.4548 22.1048 59.2989 21.9039 59.1805 21.7603C59.1415 21.7136 59.108 21.6735 59.0777 21.6406C58.9294 21.4735 58.8789 21.4565 58.8263 21.493L50.6596 27.1605C50.6076 27.1967 50.6045 27.25 50.7055 27.4464C50.7263 27.4867 50.7519 27.5341 50.7823 27.5885C50.8733 27.7502 51.0047 27.9681 51.1731 28.2376C51.455 28.6862 51.8257 29.2468 52.2167 29.8168L62.1947 44.3632C62.6479 45.0237 63.0872 45.6365 63.4316 46.0895C64.005 46.8437 64.0471 46.8145 64.1109 46.7702L72.2775 41.1027C72.3412 41.0585 72.3833 41.0293 71.8859 40.2223C71.5872 39.7377 71.1736 39.107 70.7204 38.4465L60.7424 23.9001C60.5467 23.6148 60.3515 23.3353 60.1656 23.0744ZM52.3336 29.7356C51.9439 29.1674 51.574 28.608 51.2937 28.1617C51.1259 27.8944 50.9959 27.6773 50.9065 27.5179C50.8559 27.4337 50.8117 27.3456 50.7742 27.2546L58.873 21.6342C58.9443 21.7017 59.0104 21.7745 59.0708 21.8521C59.1295 21.9225 59.1974 22.0073 59.2747 22.1065C59.3516 22.2059 59.4372 22.3187 59.5317 22.4447C59.847 22.8666 60.2353 23.4125 60.6254 23.9813L70.6035 38.5276C71.5505 39.9082 72.096 40.818 72.1635 41.0082L64.0635 46.6295C63.9107 46.4985 63.2587 45.6625 62.3117 44.282L52.3336 29.7356Z" fill="#D7DEE4"/>
<path d="M57.3315 26.3522L55.7853 27.4252C55.7078 27.479 55.6547 27.5616 55.6377 27.6548C55.6207 27.748 55.6412 27.8442 55.6946 27.9222L56.6186 29.2692C56.6722 29.3471 56.7543 29.4004 56.8469 29.4175C56.9396 29.4346 57.0351 29.4141 57.1127 29.3604L58.6589 28.2874C58.7363 28.2334 58.7892 28.1508 58.8062 28.0577C58.8232 27.9645 58.8028 27.8684 58.7496 27.7903L57.8256 26.4433C57.772 26.3655 57.6899 26.3122 57.5973 26.2951C57.5047 26.278 57.4091 26.2985 57.3315 26.3522Z" fill="#D7DEE4"/>
<path d="M61.1837 27.8341L55.7948 31.5739C55.7774 31.586 55.7625 31.6014 55.751 31.6193C55.7395 31.6372 55.7316 31.6572 55.7277 31.6782C55.7239 31.6991 55.7242 31.7206 55.7287 31.7414C55.7331 31.7623 55.7416 31.782 55.7536 31.7996C55.7657 31.8171 55.781 31.8321 55.7988 31.8436C55.8166 31.8552 55.8364 31.8631 55.8573 31.867C55.8781 31.8708 55.8995 31.8705 55.9202 31.866C55.9409 31.8616 55.9605 31.8531 55.978 31.841L61.3668 28.1012C61.3843 28.0891 61.3992 28.0736 61.4107 28.0558C61.4222 28.0379 61.4301 28.0179 61.4339 27.9969C61.4377 27.976 61.4374 27.9545 61.4329 27.9336C61.4285 27.9128 61.42 27.8931 61.408 27.8755C61.396 27.858 61.3806 27.843 61.3628 27.8314C61.3451 27.8199 61.3252 27.8119 61.3044 27.8081C61.2835 27.8042 61.2621 27.8046 61.2414 27.809C61.2207 27.8135 61.2011 27.822 61.1837 27.8341Z" fill="#D7DEE4"/>
<path d="M58.2708 30.7793L56.224 32.1997C56.2066 32.2118 56.1917 32.2273 56.1802 32.2452C56.1687 32.263 56.1608 32.283 56.1569 32.304C56.1531 32.3249 56.1534 32.3465 56.1579 32.3673C56.1623 32.3881 56.1708 32.4079 56.1828 32.4254C56.1949 32.4429 56.2102 32.4579 56.228 32.4695C56.2458 32.481 56.2656 32.489 56.2865 32.4928C56.3073 32.4967 56.3287 32.4963 56.3494 32.4919C56.3701 32.4874 56.3897 32.4789 56.4072 32.4668L58.454 31.0464C58.4892 31.0219 58.5133 30.9844 58.521 30.9421C58.5287 30.8998 58.5194 30.8561 58.4951 30.8207C58.4708 30.7853 58.4335 30.761 58.3915 30.7533C58.3494 30.7455 58.306 30.7549 58.2708 30.7793V30.7793Z" fill="#D7DEE4"/>
<path d="M61.3261 32.1754L59.7799 33.2484C59.7024 33.3023 59.6493 33.3849 59.6323 33.4781C59.6153 33.5713 59.6358 33.6675 59.6893 33.7455L60.6132 35.0925C60.6668 35.1703 60.7489 35.2237 60.8416 35.2408C60.9342 35.2578 61.0298 35.2373 61.1074 35.1836L62.6536 34.1106C62.7309 34.0566 62.7838 33.974 62.8008 33.8809C62.8178 33.7878 62.7975 33.6917 62.7442 33.6136L61.8203 32.2666C61.7666 32.1887 61.6845 32.1354 61.5919 32.1183C61.4993 32.1012 61.4037 32.1217 61.3261 32.1754Z" fill="#D7DEE4"/>
<path d="M65.1783 33.6574L59.7894 37.3971C59.7542 37.4216 59.7301 37.4591 59.7224 37.5014C59.7147 37.5437 59.724 37.5874 59.7483 37.6228C59.7725 37.6582 59.8098 37.6825 59.8519 37.6902C59.894 37.698 59.9374 37.6886 59.9726 37.6642L65.3615 33.9244C65.3789 33.9123 65.3938 33.8969 65.4053 33.879C65.4168 33.8611 65.4247 33.8411 65.4285 33.8202C65.4323 33.7992 65.432 33.7777 65.4276 33.7569C65.4231 33.736 65.4147 33.7163 65.4026 33.6988C65.3906 33.6812 65.3753 33.6662 65.3575 33.6547C65.3397 33.6431 65.3198 33.6352 65.299 33.6313C65.2781 33.6275 65.2568 33.6278 65.2361 33.6323C65.2154 33.6367 65.1957 33.6453 65.1783 33.6574Z" fill="#D7DEE4"/>
<path d="M62.2654 36.6026L60.2186 38.023C60.1834 38.0474 60.1593 38.0849 60.1516 38.1272C60.1439 38.1696 60.1532 38.2132 60.1775 38.2486C60.2017 38.284 60.239 38.3083 60.2811 38.3161C60.3232 38.3238 60.3666 38.3145 60.4018 38.29L62.4486 36.8696C62.466 36.8575 62.4809 36.8421 62.4924 36.8242C62.5039 36.8063 62.5118 36.7863 62.5156 36.7653C62.5194 36.7444 62.5191 36.7229 62.5147 36.7021C62.5102 36.6812 62.5018 36.6615 62.4897 36.644C62.4777 36.6264 62.4624 36.6114 62.4446 36.5999C62.4268 36.5883 62.4069 36.5804 62.3861 36.5765C62.3653 36.5727 62.3439 36.573 62.3232 36.5775C62.3025 36.5819 62.2828 36.5905 62.2654 36.6026Z" fill="#D7DEE4"/>
<path d="M65.3207 37.9986L63.7745 39.0717C63.697 39.1255 63.6439 39.2081 63.6269 39.3013C63.6099 39.3945 63.6304 39.4907 63.6839 39.5687L64.6079 40.9157C64.6615 40.9936 64.7436 41.0469 64.8362 41.064C64.9288 41.0811 65.0244 41.0606 65.102 41.0069L66.6482 39.9339C66.7255 39.8799 66.7784 39.7973 66.7954 39.7041C66.8124 39.611 66.7921 39.5149 66.7388 39.4368L65.8149 38.0898C65.7613 38.012 65.6792 37.9586 65.5865 37.9415C65.4939 37.9245 65.3983 37.945 65.3207 37.9986Z" fill="#EDC766"/>
<path d="M69.1729 39.4806L63.784 43.2204C63.7666 43.2325 63.7517 43.2479 63.7402 43.2658C63.7287 43.2837 63.7208 43.3037 63.717 43.3246C63.7132 43.3456 63.7135 43.3671 63.7179 43.3879C63.7224 43.4088 63.7309 43.4285 63.7429 43.446C63.7549 43.4636 63.7703 43.4786 63.788 43.4901C63.8058 43.5017 63.8257 43.5096 63.8465 43.5135C63.8674 43.5173 63.8887 43.517 63.9095 43.5125C63.9302 43.5081 63.9498 43.4995 63.9672 43.4874L69.3561 39.7477C69.3913 39.7232 69.4154 39.6857 69.4231 39.6434C69.4309 39.6011 69.4215 39.5574 69.3973 39.522C69.373 39.4866 69.3357 39.4623 69.2936 39.4546C69.2515 39.4468 69.2081 39.4562 69.1729 39.4806V39.4806Z" fill="#D7DEE4"/>
<path d="M66.26 42.4259L64.2132 43.8463C64.1958 43.8584 64.1809 43.8739 64.1694 43.8918C64.1579 43.9097 64.15 43.9296 64.1462 43.9506C64.1424 43.9716 64.1427 43.9931 64.1471 44.0139C64.1516 44.0347 64.1601 44.0545 64.1721 44.072C64.1841 44.0895 64.1995 44.1045 64.2172 44.1161C64.235 44.1277 64.2549 44.1356 64.2757 44.1394C64.2966 44.1433 64.3179 44.143 64.3386 44.1385C64.3594 44.134 64.379 44.1255 64.3964 44.1134L66.4432 42.693C66.4784 42.6685 66.5025 42.631 66.5102 42.5887C66.518 42.5464 66.5087 42.5027 66.4844 42.4673C66.4601 42.4319 66.4228 42.4076 66.3807 42.3999C66.3386 42.3921 66.2952 42.4015 66.26 42.4259Z" fill="#D7DEE4"/>
<path d="M83.4019 28.4786C83.3695 27.6813 83.3203 27.1674 83.2633 27.1674H62.4234C62.3665 27.1674 62.3172 27.6813 62.2849 28.4786C62.2634 29.0344 62.2495 29.728 62.2495 30.4788V45.0838L62.3342 45.0947L65.7603 45.5436L69.3311 46.0142L70.9626 46.2279L74.4518 46.6861L77.35 47.067C77.3638 47.0685 77.3761 47.0685 77.3884 47.0701C77.4069 47.067 77.4254 47.0639 77.4423 47.0592L78.5828 46.6861L79.8988 46.2557L83.3526 45.1256L83.4373 45.0978V30.4788C83.4373 29.728 83.4234 29.0344 83.4019 28.4786Z" fill="white"/>
<path d="M83.4713 28.1335C83.4605 27.926 83.4498 27.7588 83.4374 27.6257C83.4288 27.4865 83.4093 27.3483 83.379 27.2123C83.3451 27.0823 83.3066 27.0823 83.2635 27.0823H62.4236C62.3805 27.0823 62.342 27.0823 62.3082 27.2123C62.2784 27.3552 62.2588 27.5001 62.2497 27.6458C62.2389 27.7758 62.2281 27.9368 62.2174 28.1335C62.1835 28.7604 62.165 29.5933 62.165 30.4789V45.0715L62.2497 45.0839L62.3343 45.0947V30.4789C62.3343 29.7079 62.3482 29.0546 62.3682 28.5391C62.372 28.1078 62.4064 27.6773 62.4713 27.251H83.2173C83.2823 27.6768 83.3168 28.1067 83.3205 28.5375C83.3389 29.053 83.3528 29.7063 83.3528 30.4789V45.1257L83.5221 45.0699V30.4789C83.5221 29.5933 83.5036 28.7604 83.4713 28.1335Z" fill="#D7DEE4"/>
<path d="M68.8279 31.6198H66.1698C66.1038 31.6196 66.0384 31.6325 65.9774 31.6578C65.9163 31.6831 65.8609 31.7203 65.8141 31.7671C65.7674 31.814 65.7303 31.8697 65.705 31.931C65.6796 31.9923 65.6666 32.0581 65.6665 32.1244V34.4404C65.6664 34.5069 65.6794 34.5728 65.7046 34.6343C65.7299 34.6958 65.7669 34.7516 65.8137 34.7986C65.8604 34.8457 65.916 34.8829 65.9771 34.9084C66.0382 34.9338 66.1037 34.9468 66.1698 34.9467H68.8279C68.9614 34.9466 69.0893 34.8933 69.1837 34.7983C69.2781 34.7034 69.3311 34.5747 69.3312 34.4404V32.1244C69.3308 31.9904 69.2776 31.862 69.1833 31.7674C69.0889 31.6728 68.9611 31.6197 68.8279 31.6198Z" fill="#D7DEE4"/>
<path d="M79.7927 32.5161H70.5271C70.4667 32.5161 70.4088 32.5403 70.366 32.5832C70.3233 32.6262 70.2993 32.6845 70.2993 32.7452C70.2993 32.806 70.3233 32.8643 70.366 32.9073C70.4088 32.9502 70.4667 32.9744 70.5271 32.9744H79.7927C79.8531 32.9744 79.9111 32.9502 79.9538 32.9073C79.9965 32.8643 80.0205 32.806 80.0205 32.7452C80.0205 32.6845 79.9965 32.6262 79.9538 32.5832C79.9111 32.5403 79.8531 32.5161 79.7927 32.5161Z" fill="#D7DEE4"/>
<path d="M74.0456 33.5922H70.5271C70.4667 33.5922 70.4088 33.6163 70.366 33.6593C70.3233 33.7022 70.2993 33.7605 70.2993 33.8213C70.2993 33.8821 70.3233 33.9403 70.366 33.9833C70.4088 34.0263 70.4667 34.0504 70.5271 34.0504H74.0456C74.106 34.0504 74.1639 34.0263 74.2066 33.9833C74.2494 33.9403 74.2734 33.8821 74.2734 33.8213C74.2734 33.7605 74.2494 33.7022 74.2066 33.6593C74.1639 33.6163 74.106 33.5922 74.0456 33.5922Z" fill="#D7DEE4"/>
<path d="M68.8279 38.4749H66.1698C66.0363 38.4749 65.9083 38.5283 65.814 38.6232C65.7196 38.7181 65.6666 38.8468 65.6665 38.9811V41.2971C65.6666 41.4313 65.7196 41.5601 65.814 41.655C65.9083 41.7499 66.0363 41.8033 66.1698 41.8033H68.8279C68.9613 41.803 69.0891 41.7496 69.1834 41.6547C69.2778 41.5598 69.3309 41.4313 69.3312 41.2971V38.9811C69.3309 38.8469 69.2777 38.7183 69.1834 38.6235C69.0891 38.5286 68.9613 38.4752 68.8279 38.4749Z" fill="#D7DEE4"/>
<path d="M79.7925 39.3712H70.5269C70.4663 39.3712 70.4081 39.3954 70.3653 39.4386C70.3224 39.4817 70.2983 39.5401 70.2983 39.6011C70.2983 39.6621 70.3224 39.7206 70.3653 39.7637C70.4081 39.8068 70.4663 39.831 70.5269 39.831H79.7925C79.8531 39.831 79.9113 39.8068 79.9541 39.7637C79.997 39.7206 80.0211 39.6621 80.0211 39.6011C80.0211 39.5401 79.997 39.4817 79.9541 39.4386C79.9113 39.3954 79.8531 39.3712 79.7925 39.3712Z" fill="#D7DEE4"/>
<path d="M74.0454 40.4473H70.5269C70.4663 40.4473 70.4081 40.4715 70.3653 40.5146C70.3224 40.5577 70.2983 40.6162 70.2983 40.6772C70.2983 40.7381 70.3224 40.7966 70.3653 40.8397C70.4081 40.8828 70.4663 40.9071 70.5269 40.9071H74.0454C74.106 40.9071 74.1641 40.8828 74.207 40.8397C74.2498 40.7966 74.2739 40.7381 74.2739 40.6772C74.2739 40.6162 74.2498 40.5577 74.207 40.5146C74.1641 40.4715 74.106 40.4473 74.0454 40.4473Z" fill="#D7DEE4"/>
<path d="M69.2587 45.5777C69.2143 45.5026 69.1512 45.4404 69.0757 45.3972C69.0001 45.354 68.9146 45.3314 68.8278 45.3315H66.1697C66.0895 45.3314 66.0105 45.3505 65.9393 45.3874C65.868 45.4243 65.8066 45.4779 65.7603 45.5436L69.331 46.0143V45.8362C69.3312 45.745 69.3062 45.6555 69.2587 45.5777Z" fill="#D7DEE4"/>
<path d="M79.7924 46.2279H70.9624L74.4516 46.6862H78.5827L79.8986 46.2558C79.8664 46.237 79.8297 46.2274 79.7924 46.2279Z" fill="#D7DEE4"/>
<path d="M92.7754 42.1904C92.7585 42.2014 92.7404 42.2102 92.7215 42.2168L91.9565 42.466L85.7661 44.4925L83.6021 45.1984L83.5221 45.2248L83.3528 45.2805L79.899 46.4106L78.583 46.841L77.4425 47.2141C77.4256 47.2188 77.4071 47.2218 77.3886 47.2249C77.3763 47.2234 77.364 47.2234 77.3501 47.2218L74.452 46.841L70.9627 46.3828L69.3313 46.1691L65.7605 45.6985L62.3343 45.2495L62.2497 45.2387L62.165 45.2263L51.9436 43.8841L51.8574 43.8717C51.8375 43.8699 51.8182 43.8641 51.8005 43.8547C51.7593 43.8361 51.7252 43.8047 51.703 43.7651C51.6808 43.7256 51.6719 43.6799 51.6774 43.6348C51.6814 43.5971 51.6958 43.5612 51.7189 43.5311C51.7282 43.5218 51.7358 43.5125 51.7451 43.5048C51.7528 43.5002 51.762 43.4909 51.7712 43.4862C51.8126 43.4576 51.8631 43.4454 51.9128 43.4522L52.4238 43.5203L62.165 44.8006L62.2497 44.8114L62.3343 44.8222L67.3812 45.4864L69.2589 45.7325L74.2011 46.3828L77.3578 46.7977L78.6276 46.3828L82.6663 45.0622L83.3528 44.8377L83.4374 44.8099L83.5221 44.782L85.6353 44.0915L91.9212 42.0341L92.4845 41.8499L92.5938 41.8143C92.6408 41.7993 92.6916 41.8015 92.7372 41.8205C92.7828 41.8394 92.8203 41.874 92.8431 41.918C92.8486 41.9284 92.8533 41.9393 92.8569 41.9505C92.8707 41.994 92.8702 42.0408 92.8556 42.084C92.8409 42.1272 92.8127 42.1645 92.7754 42.1904Z" fill="#F4DDA3"/>
<path d="M71.5211 56.7492C71.386 56.7492 71.251 56.7387 71.1175 56.7177L55.6638 54.2902C55.1332 54.2051 54.6407 53.9599 54.2517 53.5871C53.8627 53.2142 53.5955 52.7313 53.4854 52.2023L51.7607 43.7821L51.8669 43.7951L77.701 46.9363L73.9237 55.203C73.7112 55.6641 73.3722 56.0546 72.9466 56.3285C72.521 56.6024 72.0264 56.7484 71.5211 56.7492Z" fill="#F4DDA3"/>
<path d="M44.6959 66.5044L46.5778 66.1097L45.9601 58.6206L43.1826 59.2032L44.6959 66.5044Z" fill="#9E616A"/>
<path d="M43.8643 65.704L44.4268 70.3017L44.428 70.311L44.4719 70.3017L45.7637 70.0304L45.7394 68.7125L46.6122 69.8534L47.4479 69.6788V69.6776L49.1355 69.3237L49.2721 69.2958L49.793 69.1863L50.1541 69.1107C50.2894 69.082 50.4151 69.0192 50.5195 68.9282C50.624 68.8372 50.7037 68.721 50.7511 68.5904C50.7986 68.4599 50.8123 68.3193 50.7908 68.182C50.7694 68.0447 50.7136 67.9152 50.6287 67.8055C50.5636 67.7225 50.4835 67.6526 50.3926 67.5995C50.381 67.5936 50.3694 67.5866 50.3578 67.5808H50.3567C50.3393 67.5715 50.3219 67.5634 50.3035 67.5552L50.2722 67.5412L49.7201 67.3072L49.7178 67.3061L48.2604 66.689L47.0682 66.1837L46.8032 64.9019L46.4849 64.9892L44.4939 65.5317L43.8643 65.704Z" fill="#223549"/>
<path d="M31.7622 60.3901L33.2238 61.6464L38.7363 56.5741L36.5794 54.7201L31.7622 60.3901Z" fill="#9E616A"/>
<path d="M29.641 63.3973L30.6631 62.5713L30.3006 63.9632L33.0509 66.3274C33.1311 66.397 33.2244 66.4499 33.3252 66.4828C33.4012 66.5075 33.4804 66.521 33.5603 66.5228C33.6865 66.5259 33.8116 66.4995 33.9258 66.4455C34.0401 66.3915 34.1402 66.3116 34.2184 66.2119C34.2966 66.1123 34.3507 65.9957 34.3763 65.8715C34.4019 65.7472 34.3985 65.6186 34.3662 65.4959L33.4657 62.082L34.312 61.0868L34.0486 60.8872L32.4036 59.6349L31.8832 59.2391L28.6045 62.505L29.641 63.3973Z" fill="#223549"/>
<path d="M39.1548 30.4865L48.2149 30.136L48.5558 20.8896L40.9002 21.1369L39.1548 30.4865Z" fill="#889BAF"/>
<path d="M45.9289 9.86053C47.8344 9.86053 49.3792 8.30674 49.3792 6.39004C49.3792 4.47335 47.8344 2.91956 45.9289 2.91956C44.0233 2.91956 42.4785 4.47335 42.4785 6.39004C42.4785 8.30674 44.0233 9.86053 45.9289 9.86053Z" fill="#9E616A"/>
<path d="M42.9512 3.34217L46.9239 1.34131C47.7361 1.70944 48.4356 2.28943 48.9499 3.02112C49.4641 3.75281 49.7744 4.60956 49.8485 5.50251L49.9475 6.69555L48.2839 6.2696L48.1017 4.74407L47.8192 6.15061L47.0514 5.95412L47.0587 3.58575L46.2905 5.95243L43.5485 5.31879L42.9512 3.34217Z" fill="#223549"/>
<path d="M48.3893 28.0331C48.3893 28.0331 51.4078 33.3103 48.4936 41.3172L44.3725 51.8871L37.2119 59.1758L33.3638 56.8877L40.5185 50.7861L37.3278 39.9067C36.5931 37.4411 36.3666 34.8506 36.6621 32.2939C36.8921 30.3807 38.6086 28.8879 39.7828 27.0823C43.7038 29.6261 48.22 29.2168 48.3893 28.0331Z" fill="#223549"/>
<path d="M44.3774 49.2142L47.0641 61.7674L43.1776 62.5044L40.9644 51.9516L44.3774 49.2142Z" fill="#223549"/>
<path d="M43.4001 11.021L47.861 11.0808L49.3129 12.9352C50.0063 13.0996 50.6364 13.4655 51.1248 13.9872C51.6131 14.509 51.9383 15.1636 52.0597 15.8697L52.1967 16.6658C52.4801 18.3128 51.9573 20.0407 51.1248 21.4873L50.5 22.2529L48.7414 24.2558C48.7998 24.3625 48.817 24.4872 48.7896 24.6058C48.7623 24.7244 48.6923 24.8287 48.5933 24.8987C48.6768 25.1108 48.6865 25.345 48.6208 25.5634L48.7896 28.7529C48.7896 28.7529 43 30.7529 40.1204 27.2529C39 27.2529 40.2861 24.6322 40.1446 24.4874C40.0031 24.3427 39.9869 24.1724 39.8861 23.9542C39.7769 23.7178 39.7999 23.6784 39.7769 23.5342C39.7539 23.39 39.7577 23.3115 39.7577 23.1505L39.7769 23.1119L39.7577 22.9365C39.7577 22.7998 39.7655 22.8654 39.7587 22.6982C39.7519 22.5311 39.6424 22.2842 39.6424 22.0749L39.6177 16.6453C39.5045 15.8306 39.6827 15.0018 40.1206 14.307C40.5585 13.6122 41.2276 13.0964 42.0085 12.8518L43.4001 11.021Z" fill="#889BAF"/>
<path d="M56.0897 34.2329C56.0874 34.0195 56.0386 33.8092 55.9468 33.6168C55.855 33.4244 55.7224 33.2546 55.5583 33.1194C55.3942 32.9841 55.2026 32.8867 54.997 32.834C54.7914 32.7813 54.5768 32.7745 54.3683 32.8142L51.8004 28.3156L50.5947 30.7231L53.2182 34.626C53.3077 34.9738 53.521 35.2765 53.8176 35.4768C54.1142 35.677 54.4735 35.7608 54.8275 35.7123C55.1814 35.6639 55.5054 35.4865 55.738 35.2139C55.9707 34.9412 56.0958 34.5922 56.0897 34.2329V34.2329Z" fill="#9E616A"/>
<path d="M41.9901 15.8796L40.5559 16.1022C40.5559 16.1022 40.1172 17.0454 41.1212 18.8718C42.1252 20.6983 51.6518 32.3844 51.6518 32.3844L52.4571 29.3558L46.9198 19.1099L41.9901 15.8796Z" fill="#889BAF"/>
<path d="M132.44 70.3394H0.183221C0.134708 70.3392 0.0882322 70.3197 0.0539785 70.2852C0.0197248 70.2506 0.000488281 70.2038 0.000488281 70.155C0.000488281 70.1062 0.0197248 70.0594 0.0539785 70.0249C0.0882322 69.9903 0.134708 69.9708 0.183221 69.9707H132.44C132.489 69.9707 132.535 69.9901 132.57 70.0247C132.604 70.0593 132.623 70.1061 132.623 70.155C132.623 70.2039 132.604 70.2508 132.57 70.2854C132.535 70.3199 132.489 70.3394 132.44 70.3394Z" fill="#EAECEE"/>
</g>
<defs>
<clipPath id="clip0_3491_26513">
<rect width="132.624" height="69.5864" fill="white" transform="translate(0 0.75293)"/>
</clipPath>
</defs>
</svg>
