<svg width="125" height="87" viewBox="0 0 125 87" fill="none" xmlns="http://www.w3.org/2000/svg">
<g clip-path="url(#clip0_3491_26863)">
<path d="M28.9093 1.92963H28.6865V15.3272H28.9093V1.92963Z" fill="#D7DEE4"/>
<path d="M56.6486 1.92963H56.4258V15.3272H56.6486V1.92963Z" fill="#D7DEE4"/>
<path d="M42.68 4.54376C41.8714 4.54376 41.081 4.78405 40.4087 5.23425C39.7364 5.68445 39.2124 6.32433 38.903 7.07298C38.5936 7.82164 38.5126 8.64543 38.6704 9.44019C38.8281 10.235 39.2175 10.965 39.7892 11.538C40.3609 12.111 41.0894 12.5012 41.8824 12.6593C42.6755 12.8174 43.4975 12.7362 44.2445 12.4261C44.9915 12.116 45.63 11.5909 46.0792 10.9171C46.5284 10.2434 46.7682 9.45122 46.7682 8.64089C46.7682 7.55426 46.3375 6.51214 45.5708 5.74378C44.8041 4.97542 43.7643 4.54376 42.68 4.54376ZM42.68 5.7729C42.9226 5.7729 43.1597 5.84499 43.3614 5.98005C43.5631 6.11511 43.7203 6.30707 43.8131 6.53167C43.9059 6.75626 43.9302 7.0034 43.8829 7.24183C43.8356 7.48026 43.7188 7.69927 43.5472 7.87117C43.3757 8.04307 43.1572 8.16013 42.9193 8.20756C42.6814 8.25498 42.4348 8.23064 42.2106 8.13761C41.9865 8.04458 41.795 7.88704 41.6602 7.68491C41.5255 7.48278 41.4535 7.24514 41.4535 7.00204C41.4536 6.67608 41.5828 6.36349 41.8128 6.13302C42.0428 5.90254 42.3547 5.77307 42.68 5.77307V5.7729ZM42.68 11.6902C42.1955 11.6879 41.7188 11.5673 41.2914 11.3387C40.864 11.1101 40.4986 10.7804 40.2271 10.3782C40.2467 9.55881 41.8624 9.10779 42.68 9.10779C43.4976 9.10779 45.1133 9.55881 45.1329 10.3782C44.8611 10.7801 44.4957 11.1095 44.0683 11.3381C43.6409 11.5667 43.1644 11.6875 42.68 11.6902Z" fill="#F1D285"/>
<path d="M46.4277 21.947H38.9327C38.3682 21.947 37.9106 22.4055 37.9106 22.9712V30.4826C37.9106 31.0483 38.3682 31.5069 38.9327 31.5069H46.4277C46.9922 31.5069 47.4498 31.0483 47.4498 30.4826V22.9712C47.4498 22.4055 46.9922 21.947 46.4277 21.947Z" fill="#EDC766"/>
<path d="M102.099 86.9248C114.747 86.9248 125 85.549 125 83.852C125 82.1549 114.747 80.7791 102.099 80.7791C89.4517 80.7791 79.1987 82.1549 79.1987 83.852C79.1987 85.549 89.4517 86.9248 102.099 86.9248Z" fill="#EAECEE"/>
<path d="M74.1421 21.9163H66.647C66.0826 21.9163 65.625 22.3748 65.625 22.9405V30.4519C65.625 31.0176 66.0826 31.4762 66.647 31.4762H74.1421C74.7065 31.4762 75.1641 31.0176 75.1641 30.4519V22.9405C75.1641 22.3748 74.7065 21.9163 74.1421 21.9163Z" fill="#F4DDA3"/>
<path d="M73.9374 23.2446H66.9878V30.2093H73.9374V23.2446Z" fill="white"/>
<path d="M42.2325 28.2113L41.0273 26.6578L41.7281 26.1115L42.2988 26.8468L44.2267 24.8074L44.8714 25.4194L42.2325 28.2113Z" fill="white"/>
<path d="M69.9923 28.2113L68.7871 26.6578L69.4879 26.1115L70.0585 26.8468L71.9863 24.8074L72.631 25.4194L69.9923 28.2113Z" fill="#F4DDA3"/>
<path d="M18.688 21.9163H11.1929C10.6285 21.9163 10.1709 22.3748 10.1709 22.9405V30.4519C10.1709 31.0176 10.6285 31.4762 11.1929 31.4762H18.688C19.2524 31.4762 19.71 31.0176 19.71 30.4519V22.9405C19.71 22.3748 19.2524 21.9163 18.688 21.9163Z" fill="#F4DDA3"/>
<path d="M18.4833 23.2446H11.5337V30.2093H18.4833V23.2446Z" fill="white"/>
<path d="M14.5382 28.2113L13.333 26.6578L14.0338 26.1115L14.6044 26.8468L16.5322 24.8074L17.1769 25.4194L14.5382 28.2113Z" fill="#F4DDA3"/>
<path d="M117.537 81.4223H115.292L114.224 72.7438H117.538L117.537 81.4223Z" fill="#FFB8B8"/>
<path d="M113.687 80.7793H118.017V83.5107H110.962C110.962 82.7863 111.249 82.0915 111.76 81.5793C112.271 81.0671 112.965 80.7793 113.687 80.7793Z" fill="#223549"/>
<path d="M94.6004 81.4223H92.3553L91.2876 72.7438H94.6011L94.6004 81.4223Z" fill="#FFB8B8"/>
<path d="M90.7515 80.7793H95.0813V83.5107H88.0254C88.0254 82.7863 88.3125 82.0915 88.8237 81.5793C89.3348 81.0671 90.028 80.7793 90.7509 80.7793H90.7515Z" fill="#223549"/>
<path d="M102.099 17.0478V16.0637C102.099 14.3803 102.766 12.7659 103.954 11.5756C105.142 10.3853 106.753 9.71655 108.432 9.71655C110.112 9.71655 111.723 10.3853 112.911 11.5756C114.098 12.7659 114.766 14.3803 114.766 16.0637V17.0477C114.766 18.2611 114.285 19.4248 113.429 20.2828C112.572 21.1408 111.411 21.6228 110.201 21.6228H106.665C105.454 21.6228 104.293 21.1408 103.437 20.2828C102.581 19.4248 102.1 18.2611 102.1 17.0477L102.099 17.0478Z" fill="#223549"/>
<path d="M108.433 21.9623C111.097 21.9623 113.256 19.7981 113.256 17.1284C113.256 14.4587 111.097 12.2945 108.433 12.2945C105.769 12.2945 103.609 14.4587 103.609 17.1284C103.609 19.7981 105.769 21.9623 108.433 21.9623Z" fill="#FFB8B8"/>
<path d="M82.1967 33.7411C82.3924 33.5559 82.6263 33.4159 82.8819 33.3311C83.1374 33.2463 83.4084 33.2186 83.6758 33.2501C83.9431 33.2816 84.2003 33.3714 84.4293 33.5133C84.6583 33.6552 84.8534 33.8456 85.001 34.0712L89.1357 33.2875L90.2239 35.6894L84.3692 36.7137C83.9746 36.9366 83.5122 37.0067 83.0694 36.9108C82.6267 36.815 82.2343 36.5598 81.9667 36.1936C81.699 35.8274 81.5746 35.3755 81.617 34.9236C81.6594 34.4716 81.8656 34.0509 82.1967 33.7411Z" fill="#FFB8B8"/>
<path d="M104.672 25.0063L104.726 25.0884L97.9468 29.5647L86.506 33.226C86.3543 33.2748 86.2242 33.3748 86.1379 33.509C86.0515 33.6431 86.0142 33.8031 86.0323 33.9617L86.2818 36.1162C86.2929 36.2115 86.3238 36.3035 86.3724 36.3862C86.421 36.4689 86.4863 36.5405 86.5642 36.5965C86.642 36.6524 86.7307 36.6914 86.8244 36.711C86.9182 36.7306 87.015 36.7303 87.1087 36.7102L97.8763 34.3972C98.3975 34.286 98.8903 34.0685 99.3242 33.7584L106.94 28.3272C107.358 28.0286 107.643 27.5776 107.732 27.071C107.822 26.5645 107.709 26.0429 107.419 25.6185C107.129 25.1942 106.684 24.9009 106.181 24.8019C105.677 24.7028 105.154 24.8059 104.726 25.0889L104.672 25.0063Z" fill="#889BAF"/>
<path d="M115.332 78.9597C115.16 78.9597 114.991 78.9094 114.847 78.815C114.702 78.7206 114.589 78.586 114.519 78.4279L104.227 52.9404C104.203 52.8851 104.163 52.8385 104.112 52.8068C104.06 52.7752 104.001 52.7601 103.941 52.7635C103.881 52.7668 103.823 52.7886 103.776 52.8258C103.728 52.863 103.693 52.9138 103.676 52.9714L95.2786 77.7846C95.2432 77.9001 95.1845 78.0071 95.1063 78.099C95.0281 78.1909 94.9319 78.2658 94.8237 78.3191C94.7155 78.3724 94.5976 78.403 94.4772 78.4089C94.3568 78.4148 94.2364 78.396 94.1236 78.3536L91.3078 77.2952C91.155 77.2383 91.0209 77.14 90.9204 77.0113C90.82 76.8826 90.7571 76.7285 90.7389 76.5661C89.472 65.5069 100.519 37.5922 100.63 37.3112L100.661 37.2335L110.731 39.4659L110.752 39.4888C114.77 43.8813 118.072 71.585 118.693 77.0941C118.716 77.2931 118.671 77.494 118.565 77.6638C118.459 77.8336 118.299 77.9622 118.11 78.0282L115.624 78.9091C115.531 78.9425 115.432 78.9597 115.332 78.9597Z" fill="#223549"/>
<path d="M106.656 40.3652C104.216 40.3652 101.496 39.8777 100.659 37.8656L100.639 37.8194L100.665 37.7765C101.326 36.6898 102.2 34.8361 101.73 34.4881C100.805 33.8028 100.357 32.6754 100.396 31.1373C100.483 27.7983 102.753 24.8337 106.046 23.7604C106.964 23.4657 107.9 23.2243 108.846 23.0376C109.537 22.8981 110.249 22.9134 110.933 23.0826C111.616 23.2518 112.254 23.5706 112.8 24.0162C113.353 24.4646 113.8 25.0302 114.109 25.6724C114.418 26.3145 114.581 27.0172 114.586 27.73C114.62 31.2979 114.073 36.2683 111.265 39.68C111.133 39.8383 110.95 39.945 110.747 39.9813C109.397 40.2263 108.028 40.3547 106.656 40.3652Z" fill="#889BAF"/>
<path d="M105.748 40.2309C105.881 39.7536 106.196 39.3481 106.626 39.1025C107.055 38.8569 107.564 38.791 108.042 38.9193C108.139 38.9466 108.234 38.9819 108.326 39.0248L111.465 36.1614L113.649 37.6356L109.159 41.6173C108.956 41.9835 108.637 42.2713 108.252 42.4349C107.868 42.5985 107.439 42.6284 107.036 42.52C106.8 42.4555 106.58 42.3449 106.388 42.1947C106.196 42.0444 106.035 41.8574 105.915 41.6446C105.796 41.4317 105.719 41.1972 105.691 40.9545C105.662 40.7119 105.681 40.4659 105.748 40.2309Z" fill="#FFB8B8"/>
<path d="M110.968 40.2671C110.764 40.2671 110.566 40.1963 110.409 40.0667L109.171 39.0528C109.067 38.9683 108.985 38.8614 108.929 38.7403C108.872 38.6192 108.844 38.4869 108.846 38.3533C108.848 38.2197 108.881 38.0884 108.94 37.969C109 37.8497 109.086 37.7455 109.192 37.6642L114.385 33.6729C114.446 33.6254 114.487 33.5555 114.497 33.4783C114.508 33.4011 114.487 33.3229 114.441 33.2607L111.236 29.0142C110.863 28.5224 110.676 27.9145 110.708 27.2981C110.74 26.6816 110.989 26.0963 111.41 25.6458C111.853 25.1658 112.461 24.8704 113.111 24.8182C113.762 24.7661 114.409 24.961 114.923 25.3643L114.943 25.3858L118.29 30.1885C118.651 30.4729 118.943 30.8372 119.141 31.2531C119.339 31.669 119.439 32.1252 119.432 32.5861C119.425 33.0469 119.312 33.4999 119.102 33.9097C118.891 34.3195 118.589 34.6751 118.219 34.9485L111.494 40.0928C111.341 40.2055 111.157 40.2664 110.968 40.2664L110.968 40.2671Z" fill="#889BAF"/>
<path d="M104.16 15.7685V13.3702L108.433 11.4998L112.507 13.3695V15.7678C112.507 15.8195 112.496 15.8707 112.477 15.9185C112.457 15.9662 112.428 16.0096 112.392 16.0462C112.355 16.0827 112.312 16.1117 112.264 16.1315C112.216 16.1513 112.165 16.1615 112.114 16.1615H104.553C104.501 16.1615 104.45 16.1513 104.403 16.1315C104.355 16.1117 104.312 16.0827 104.275 16.0462C104.239 16.0096 104.21 15.9662 104.19 15.9185C104.17 15.8707 104.16 15.8195 104.16 15.7678V15.7685Z" fill="#223549"/>
<path d="M112.088 12.1467C113.567 12.1467 114.766 10.945 114.766 9.46271C114.766 7.9804 113.567 6.77875 112.088 6.77875C110.609 6.77875 109.41 7.9804 109.41 9.46271C109.41 10.945 110.609 12.1467 112.088 12.1467Z" fill="#223549"/>
<path d="M109.616 8.02288C109.615 7.6258 109.703 7.23363 109.872 6.87467C110.042 6.5157 110.289 6.1989 110.595 5.94711C110.901 5.69532 111.26 5.51483 111.644 5.41866C112.029 5.32249 112.429 5.31304 112.818 5.39099C112.475 5.22907 112.102 5.14198 111.723 5.13546C111.344 5.12895 110.968 5.20318 110.62 5.35322C110.271 5.50327 109.959 5.72571 109.703 6.00584C109.447 6.28597 109.253 6.61739 109.134 6.97817C109.016 7.33895 108.975 7.72087 109.015 8.09865C109.054 8.47643 109.174 8.84146 109.365 9.16958C109.556 9.4977 109.814 9.78144 110.123 10.002C110.431 10.2226 110.783 10.375 111.155 10.4491C110.695 10.2327 110.306 9.88965 110.034 9.46002C109.761 9.03039 109.616 8.53192 109.616 8.02288H109.616Z" fill="#223549"/>
</g>
<defs>
<clipPath id="clip0_3491_26863">
<rect width="125" height="86" fill="white" transform="translate(0 0.924805)"/>
</clipPath>
</defs>
</svg>
