<svg width="145" height="75" viewBox="0 0 145 75" fill="none" xmlns="http://www.w3.org/2000/svg">
<path d="M100.222 66.0646L98.5355 68.716L99.5178 65.2644C97.4438 63.1003 94.5726 61.5172 94.5726 61.5172C94.5726 61.5172 91.0372 67.3277 91.9888 70.9019C92.9403 74.4761 95.3974 75.1584 98.0185 74.4606C100.64 73.7628 102.432 71.9492 101.481 68.3749C101.269 67.5794 100.809 66.7984 100.222 66.0646Z" fill="#F2F2F2"/>
<path d="M97.9911 68.9802L98.038 69.1564C98.5728 71.207 98.6528 72.8968 98.2746 74.2023C98.2694 74.2214 98.2631 74.2399 98.258 74.259L98.1698 74.233L98.0853 74.2069C98.5137 72.7918 98.3225 71.0037 97.8566 69.2149C97.8421 69.1571 97.8274 69.0985 97.811 69.0403C97.607 68.2848 97.3572 67.5322 97.0852 66.8089C97.0647 66.7527 97.043 66.6959 97.0213 66.6391C96.6574 65.6861 96.2598 64.7889 95.8914 64.0156C95.8656 63.9608 95.8389 63.9062 95.8125 63.8526C95.1836 62.5462 94.6504 61.6206 94.5306 61.4161C94.5165 61.391 94.5081 61.3773 94.5063 61.374L94.5829 61.3284L94.5836 61.3273L94.661 61.2815C94.6628 61.2848 94.6909 61.3305 94.7399 61.4165C94.9252 61.737 95.4173 62.61 95.9846 63.7834C96.01 63.8364 96.0366 63.891 96.0624 63.9457C96.362 64.573 96.6797 65.2786 96.9818 66.0275C97.058 66.2155 97.1309 66.4016 97.2005 66.5858C97.223 66.6423 97.2447 66.6991 97.2652 66.7553C97.5593 67.5372 97.8013 68.2789 97.9911 68.9802Z" fill="white"/>
<path d="M95.9849 63.7834C95.9286 63.8068 95.8713 63.8305 95.8128 63.8526C95.6538 63.9129 95.4919 63.9651 95.3276 64.0088C94.6277 64.1962 93.8946 64.2241 93.1825 64.0905C93.1582 64.1465 93.1339 64.2025 93.1089 64.2595C93.8599 64.407 94.6347 64.3809 95.374 64.1833C95.5494 64.1365 95.7222 64.0806 95.8917 64.0156C95.9493 63.9937 96.0066 63.97 96.0627 63.9458C96.5266 63.7482 96.9579 63.4812 97.3416 63.1542C97.2914 63.1162 97.2422 63.0788 97.1941 63.0421C96.8298 63.3474 96.4223 63.5972 95.9849 63.7834Z" fill="white"/>
<path d="M97.2001 66.5858C97.1409 66.6053 97.0812 66.623 97.021 66.6391C97.0029 66.6448 96.9837 66.6499 96.9654 66.6548C96.2067 66.8568 95.4105 66.8723 94.6445 66.7001C93.8785 66.5278 93.1655 66.1729 92.5664 65.6656C92.5452 65.7264 92.524 65.7871 92.5039 65.8485C93.1234 66.3583 93.8554 66.7132 94.6393 66.8837C95.4233 67.0543 96.2366 67.0356 97.0118 66.8292C97.0363 66.8227 97.0607 66.8162 97.0849 66.8088C97.1457 66.7917 97.2054 66.774 97.2649 66.7553C98.1834 66.4597 98.9974 65.9058 99.6094 65.1598C99.5678 65.1158 99.5262 65.0717 99.4837 65.028C98.8903 65.7584 98.0967 66.2998 97.2001 66.5858Z" fill="white"/>
<path d="M97.9902 68.9801C97.9306 69.0016 97.8704 69.0214 97.8101 69.0402C97.7454 69.0603 97.6804 69.0794 97.615 69.0968C96.5952 69.3671 95.5154 69.2997 94.5371 68.9049C93.5588 68.51 92.7347 67.8089 92.1882 66.9065C92.1678 66.9876 92.1471 67.0678 92.1284 67.1485C92.7105 68.0389 93.5585 68.7233 94.5517 69.1044C95.545 69.4855 96.6331 69.5439 97.6615 69.2713C97.7269 69.2539 97.792 69.2356 97.8557 69.2149C97.9171 69.1967 97.9773 69.1769 98.0371 69.1563C99.2446 68.7315 100.246 67.8638 100.837 66.7287C100.802 66.6691 100.764 66.611 100.726 66.552C100.164 67.6863 99.1831 68.5573 97.9902 68.9801Z" fill="white"/>
<path d="M91.5329 5.68621L89.8465 8.33753L90.8288 4.88599C88.7548 2.7219 85.8837 1.13879 85.8837 1.13879C85.8837 1.13879 82.3483 6.94926 83.2998 10.5235C84.2514 14.0977 86.7084 14.78 89.3295 14.0822C91.9506 13.3844 93.7432 11.5707 92.7916 7.99652C92.5798 7.20097 92.1198 6.41996 91.5329 5.68621Z" fill="#F2F2F2"/>
<path d="M89.3022 8.60176L89.3491 8.77794C89.8838 10.8286 89.9638 12.5184 89.5856 13.8239C89.5805 13.843 89.5742 13.8615 89.569 13.8806L89.4808 13.8546L89.3963 13.8285C89.8247 12.4134 89.6335 10.6253 89.1676 8.83653C89.1531 8.77873 89.1384 8.72006 89.122 8.66186C88.9181 7.90638 88.6682 7.1538 88.3963 6.43044C88.3757 6.37427 88.354 6.31746 88.3324 6.26064C87.9685 5.30772 87.5708 4.41048 87.2024 3.63714C87.1766 3.58236 87.15 3.52782 87.1235 3.47414C86.4946 2.16775 85.9615 1.24214 85.8417 1.03773C85.8275 1.01255 85.8192 0.998888 85.8174 0.995633L85.894 0.950024L85.8946 0.948919L85.9721 0.903076C85.9739 0.906335 86.0019 0.952104 86.051 1.03805C86.2362 1.35859 86.7283 2.23162 87.2957 3.40497C87.321 3.45801 87.3477 3.51255 87.3734 3.56733C87.6731 4.19459 87.9907 4.90018 88.2929 5.64912C88.3691 5.83712 88.442 6.02319 88.5115 6.20734C88.5341 6.26392 88.5557 6.32074 88.5763 6.3769C88.8704 7.15882 89.1123 7.90044 89.3022 8.60176Z" fill="white"/>
<path d="M87.2964 3.405C87.2401 3.42841 87.1829 3.45205 87.1243 3.47417C86.9654 3.5345 86.8034 3.58665 86.6391 3.63041C85.9392 3.81775 85.2062 3.84566 84.494 3.71209C84.4697 3.76806 84.4454 3.82404 84.4204 3.88112C85.1714 4.02861 85.9462 4.00252 86.6856 3.80485C86.8609 3.75811 87.0337 3.70213 87.2032 3.63716C87.2609 3.61526 87.3181 3.59162 87.3742 3.56735C87.8381 3.36974 88.2694 3.10283 88.6532 2.77573C88.6029 2.73775 88.5537 2.7004 88.5057 2.6637C88.1413 2.96899 87.7338 3.21879 87.2964 3.405Z" fill="white"/>
<path d="M88.5112 6.20735C88.4519 6.22685 88.3922 6.24462 88.332 6.26064C88.3139 6.26639 88.2948 6.2715 88.2765 6.27638C87.5178 6.47837 86.7215 6.49391 85.9555 6.32167C85.1895 6.14943 84.4766 5.79452 83.8774 5.2872C83.8562 5.34794 83.835 5.40869 83.8149 5.47007C84.4344 5.97988 85.1664 6.33476 85.9504 6.50531C86.7343 6.67586 87.5476 6.65718 88.3229 6.45081C88.3473 6.44431 88.3717 6.43781 88.3959 6.43043C88.4567 6.41331 88.5164 6.39554 88.5759 6.37691C89.4945 6.08129 90.3084 5.52737 90.9204 4.78138C90.8788 4.73736 90.8372 4.69333 90.7947 4.64954C90.2014 5.37994 89.4077 5.92134 88.5112 6.20735Z" fill="white"/>
<path d="M89.3032 8.60172C89.2436 8.6232 89.1834 8.64294 89.1231 8.66182C89.0584 8.68185 88.9934 8.70101 88.928 8.71842C87.9082 8.98865 86.8284 8.9213 85.8501 8.52645C84.8718 8.13159 84.0477 7.43048 83.5012 6.52808C83.4808 6.60918 83.4601 6.68941 83.4414 6.77004C84.0235 7.66051 84.8715 8.34491 85.8647 8.72599C86.858 9.10707 87.9461 9.16546 88.9744 8.89286C89.0399 8.87544 89.105 8.85716 89.1686 8.83649C89.2301 8.81825 89.2902 8.79851 89.3501 8.7779C90.5576 8.35312 91.5585 7.48536 92.1503 6.35031C92.1148 6.29065 92.0769 6.23255 92.0388 6.17358C91.4773 7.30788 90.4961 8.17885 89.3032 8.60172Z" fill="white"/>
<path d="M45.1593 70.5151L42.0172 70.5293L45.452 69.4902C46.1517 66.5755 45.9317 63.3042 45.9317 63.3042C45.9317 63.3042 39.1322 63.4704 36.6395 66.2029C34.1467 68.9353 34.9007 71.3714 36.9045 73.1994C38.9083 75.0275 41.4031 75.5553 43.8959 72.8228C44.4508 72.2146 44.8592 71.4054 45.1593 70.5151Z" fill="#F2F2F2"/>
<path d="M41.5003 70.2137L41.3775 70.3484C39.9412 71.9067 38.5628 72.8874 37.26 73.2749C37.2411 73.2808 37.2222 73.2855 37.2033 73.2915L37.1775 73.2033L37.1538 73.1181C38.5759 72.7136 39.977 71.5863 41.2301 70.2274C41.2709 70.184 41.3123 70.1399 41.3524 70.0947C41.8778 69.5147 42.3759 68.8977 42.8375 68.2779C42.8737 68.2303 42.9097 68.1813 42.9458 68.1324C43.5509 67.3112 44.0908 66.4917 44.5423 65.7637C44.5745 65.7124 44.6059 65.6605 44.6368 65.6092C45.396 64.374 45.8866 63.4251 45.9938 63.2138C46.0073 63.1883 46.0143 63.1739 46.0161 63.1707L46.0959 63.2104L46.0971 63.2104L46.1776 63.2508C46.1758 63.2541 46.1525 63.3024 46.1066 63.3901C45.9371 63.7192 45.4686 64.6051 44.7881 65.7167C44.7571 65.7666 44.7256 65.8186 44.6935 65.8699C44.3277 66.461 43.9058 67.1096 43.439 67.7686C43.322 67.9344 43.2048 68.0963 43.0875 68.2543C43.0521 68.3039 43.016 68.3528 42.9799 68.4005C42.481 69.0705 41.9878 69.675 41.5003 70.2137Z" fill="white"/>
<path d="M44.7872 65.7167C44.737 65.6819 44.6862 65.6466 44.6359 65.6093C44.4993 65.5081 44.3678 65.4001 44.2422 65.2855C43.7063 64.7979 43.2866 64.1963 43.014 63.5249C42.9538 63.5347 42.8935 63.5445 42.832 63.5543C43.1139 64.2659 43.5546 64.9036 44.1206 65.4189C44.2547 65.5412 44.3952 65.6563 44.5414 65.7637C44.591 65.8004 44.6418 65.8358 44.6926 65.8699C45.1096 66.1534 45.5673 66.3719 46.0499 66.518C46.0547 66.4552 46.0595 66.3937 46.0644 66.3334C45.6106 66.1918 45.1802 65.984 44.7872 65.7167Z" fill="white"/>
<path d="M43.0872 68.2543C43.0388 68.215 42.9915 68.1744 42.9455 68.1324C42.9309 68.1203 42.9163 68.1069 42.9023 68.0941C42.3222 67.565 41.8788 66.9035 41.6097 66.1659C41.3405 65.4284 41.2538 64.6367 41.3567 63.8584C41.2942 63.8734 41.2316 63.8884 41.1691 63.9047C41.075 64.7014 41.1721 65.5091 41.4524 66.2609C41.7326 67.0126 42.1879 67.6868 42.7806 68.2275C42.7993 68.2445 42.8179 68.2616 42.8372 68.2779C42.8845 68.3198 42.9317 68.3605 42.9796 68.4005C43.7247 69.0135 44.6307 69.3989 45.5892 69.5106C45.6037 69.4518 45.6183 69.393 45.6321 69.3335C44.6969 69.2291 43.8124 68.854 43.0872 68.2543Z" fill="white"/>
<path d="M41.4999 70.2137C41.4496 70.1751 41.4005 70.1352 41.352 70.0946C41.3002 70.051 41.2489 70.0067 41.1989 69.9611C40.4204 69.2492 39.8934 68.3042 39.6968 67.2677C39.5002 66.2312 39.6447 65.159 40.1085 64.2114C40.0292 64.2381 39.9505 64.264 39.8726 64.2919C39.4381 65.263 39.3206 66.3463 39.5368 67.3879C39.7531 68.4296 40.2921 69.3766 41.0773 70.0944C41.1273 70.1401 41.1779 70.185 41.2297 70.2274C41.2782 70.2692 41.3273 70.3091 41.3771 70.3484C42.3871 71.1347 43.6582 71.5078 44.933 71.3921C44.964 71.33 44.9924 71.2667 45.0214 71.2028C43.7636 71.3435 42.5005 70.9887 41.4999 70.2137Z" fill="white"/>
<path d="M34.7273 72.9805L36.5328 72.9803L37.3917 66.0165L34.7271 66.0166L34.7273 72.9805Z" fill="#FFB6B6"/>
<path d="M34.2661 72.391L37.8217 72.3909H37.8218C38.4228 72.3909 38.9991 72.6296 39.424 73.0546C39.8489 73.4795 40.0877 74.0558 40.0877 74.6567V74.7303L34.2662 74.7306L34.2661 72.391Z" fill="#223549"/>
<path d="M20.4427 72.9805L22.2481 72.9803L23.107 66.0165L20.4424 66.0166L20.4427 72.9805Z" fill="#FFB6B6"/>
<path d="M19.9829 72.391L23.5385 72.3909H23.5386C24.1395 72.3909 24.7159 72.6296 25.1408 73.0546C25.5657 73.4795 25.8044 74.0558 25.8045 74.6567V74.7303L19.983 74.7306L19.9829 72.391Z" fill="#223549"/>
<path d="M23.5042 44.3755L22.2874 45.4954L20.9159 59.0255L19.9927 69.7989L22.7826 70.1752L29.5497 51.7673L34.5012 70.0879L37.8394 70.1752L35.6238 46.2605L23.5042 44.3755Z" fill="#223549"/>
<path d="M29.385 24.369C31.2993 24.369 32.8511 22.8172 32.8511 20.9029C32.8511 18.9887 31.2993 17.4369 29.385 17.4369C27.4708 17.4369 25.9189 18.9887 25.9189 20.9029C25.9189 22.8172 27.4708 24.369 29.385 24.369Z" fill="#FFB9B9"/>
<path d="M27.611 19.2936C27.611 19.2936 27.1978 20.1879 28.8507 19.8302C28.8507 19.8302 29.4705 20.1879 29.4705 19.6513C29.4705 19.6513 30.297 20.5456 30.5036 20.009C30.7102 19.4725 31.1234 20.1879 31.1234 20.1879L31.5367 19.2936L31.9499 19.8302H33.3962C33.3962 19.8302 33.8094 16.2531 28.8507 16.6108C23.892 16.9685 26.3314 22.636 26.3314 22.636C26.3314 22.636 26.3714 21.6187 26.7846 22.1553C27.1978 22.6918 27.611 19.2936 27.611 19.2936Z" fill="#223549"/>
<path d="M32.0257 25.5003L27.1382 25.1943L22.7828 26.3497L23.443 37.5731L22.2876 45.4955C22.2876 45.4955 28.6265 49.3704 35.8217 46.3208L35.1383 44.5229C35.1383 44.5229 35.1148 41.7713 34.5375 41.2326C33.9602 40.694 34.0062 36.2527 34.0062 36.2527L36.1518 28.0002L32.0257 25.5003Z" fill="#889BAF"/>
<path d="M23.9468 26.7038L22.7834 26.3496C22.7834 26.3496 20.9714 26.4101 20.0293 28.4714C19.0871 30.5327 18.498 33.478 18.498 33.478L24.482 33.6944L23.9468 26.7038Z" fill="#889BAF"/>
<path d="M37.8361 46.3793L37.6424 34.2144L35.0571 34.6022L35.6281 46.1276C35.3931 46.3205 35.2201 46.5784 35.1308 46.8691C35.0414 47.1597 35.0396 47.4702 35.1257 47.7619C35.2118 48.0535 35.3818 48.3134 35.6146 48.5089C35.8475 48.7045 36.1327 48.8272 36.4349 48.8616C36.737 48.8961 37.0425 48.8407 37.3134 48.7026C37.5843 48.5644 37.8084 48.3495 37.9579 48.0847C38.1074 47.8199 38.1755 47.5169 38.1539 47.2136C38.1322 46.9103 38.0217 46.6201 37.8361 46.3793Z" fill="#FFB9B9"/>
<path d="M34.6972 29.06L36.1526 28.0001C36.1526 28.0001 38.9489 30.1871 38.9584 34.9987L35.0573 35.945L32.8516 32.7724L34.6972 29.06Z" fill="#889BAF"/>
<path d="M113.182 72.9735L114.987 72.9734L115.846 66.0095L113.182 66.0097L113.182 72.9735Z" fill="#9E616A"/>
<path d="M112.722 72.3841L116.278 72.3839H116.278C116.879 72.3839 117.455 72.6227 117.88 73.0476C118.305 73.4725 118.544 74.0488 118.544 74.6498V74.7234L112.722 74.7236L112.722 72.3841Z" fill="#223549"/>
<path d="M102.496 71.4383L104.217 71.9829L107.137 65.6023L104.596 64.7987L102.496 71.4383Z" fill="#9E616A"/>
<path d="M102.236 70.7373L105.626 71.8096L105.626 71.8096C106.199 71.9909 106.676 72.3923 106.953 72.9256C107.23 73.4589 107.284 74.0804 107.103 74.6534L107.081 74.7236L101.53 72.9679L102.236 70.7373Z" fill="#223549"/>
<path d="M106.562 41.1688L105.56 43.9945L105.532 59.2493L102.69 69.6936L106.178 70.667L110.031 60.8189L111.266 52.1688L112.895 60.8692L112.671 71.2102H116.33L116.606 55.2746C116.684 50.7992 115.901 46.3506 114.3 42.1707L106.562 41.1688Z" fill="#223549"/>
<path d="M105.369 29.7228H111.284L113.755 32.1943L114.493 42.4102L105.56 43.8476L102.69 34.1004L104.253 29.9577L105.369 29.7228Z" fill="#889BAF"/>
<path d="M103.241 34.1978L94.1346 30.7714L93.8975 29.355L99.6408 24.4952L101.552 25.929L98.0876 29.7227L104.253 29.9576L103.241 34.1978Z" fill="#889BAF"/>
<path d="M100.745 26.4829C101.558 26.4829 102.217 25.8236 102.217 25.0102C102.217 24.1969 101.558 23.5376 100.745 23.5376C99.9313 23.5376 99.272 24.1969 99.272 25.0102C99.272 25.8236 99.9313 26.4829 100.745 26.4829Z" fill="#9E616A"/>
<path d="M104.16 26.8655L104.826 23.8648C105.063 22.7993 105.714 21.8715 106.635 21.2855C107.556 20.6994 108.672 20.503 109.738 20.7393C110.803 20.9757 111.732 21.6255 112.319 22.5459C112.906 23.4664 113.103 24.5823 112.868 25.6482L112.202 28.6489C112.17 28.7921 112.083 28.9167 111.959 28.9955C111.836 29.0743 111.686 29.1009 111.542 29.0693L104.581 27.5254C104.438 27.4935 104.313 27.4061 104.234 27.2824C104.155 27.1587 104.129 27.0088 104.16 26.8655Z" fill="#223549"/>
<path d="M107.904 28.1159C109.572 28.1159 110.924 26.7639 110.924 25.0963C110.924 23.4286 109.572 22.0767 107.904 22.0767C106.237 22.0767 104.885 23.4286 104.885 25.0963C104.885 26.7639 106.237 28.1159 107.904 28.1159Z" fill="#9E616A"/>
<path d="M103.821 23.894C104.009 23.0509 104.524 22.3168 105.252 21.8527C105.981 21.3887 106.864 21.2326 107.707 21.4186L108.307 21.5517C109.15 21.7397 109.884 22.2544 110.348 22.9829C110.812 23.7114 110.969 24.5943 110.782 25.4378L110.769 25.4978L109.501 25.2165L109.337 23.9093L108.982 25.1014L108.326 24.9561L108.244 24.2965L108.064 24.898L103.808 23.954L103.821 23.894Z" fill="#223549"/>
<path d="M106.87 28.3872C106.828 28.2933 106.814 28.1897 106.829 28.088C106.844 27.9864 106.887 27.891 106.953 27.8128C107.857 26.7442 109.243 24.7066 108.367 23.066L108.304 22.9481L111.736 23.7091L110.593 28.8606L107.354 28.7193C107.321 28.7179 107.289 28.7136 107.257 28.7066C107.172 28.6877 107.092 28.6489 107.025 28.5934C106.958 28.5379 106.905 28.4672 106.87 28.3872Z" fill="#223549"/>
<path d="M144.685 74.9031H0.174837C0.128421 74.9029 0.0839512 74.8844 0.0511772 74.8515C0.0184032 74.8186 0 74.7741 0 74.7277C0 74.6813 0.0184032 74.6368 0.0511772 74.6039C0.0839512 74.571 0.128421 74.5525 0.174837 74.5524H144.685C144.731 74.5524 144.776 74.5708 144.809 74.6037C144.841 74.6366 144.86 74.6812 144.86 74.7277C144.86 74.7742 144.841 74.8188 144.809 74.8517C144.776 74.8846 144.731 74.9031 144.685 74.9031Z" fill="#DFE2E6"/>
<path d="M73.0364 31.4929H26.3072C25.9524 31.4929 25.6012 31.5628 25.2735 31.6985C24.9457 31.8343 24.648 32.0333 24.3971 32.2841C24.1463 32.5349 23.9473 32.8327 23.8116 33.1604C23.6758 33.4881 23.606 33.8394 23.606 34.1941V45.4326C23.606 45.7873 23.6758 46.1386 23.8116 46.4663C23.9473 46.794 24.1463 47.0918 24.3971 47.3426C24.6479 47.5935 24.9457 47.7924 25.2735 47.9282C25.6012 48.0639 25.9524 48.1338 26.3072 48.1338H26.993V50.1642C26.993 50.2874 27.0296 50.4079 27.098 50.5103C27.1665 50.6128 27.2638 50.6926 27.3776 50.7398C27.4914 50.7869 27.6167 50.7992 27.7375 50.7752C27.8584 50.7512 27.9694 50.6918 28.0565 50.6047L30.5274 48.1338H73.0364C73.3911 48.1338 73.7424 48.0639 74.0701 47.9282C74.3978 47.7924 74.6956 47.5935 74.9464 47.3426C75.1973 47.0918 75.3962 46.794 75.532 46.4663C75.6677 46.1386 75.7376 45.7873 75.7376 45.4326V34.1941C75.7376 33.8394 75.6677 33.4881 75.532 33.1604C75.3962 32.8327 75.1973 32.5349 74.9464 32.2841C74.6956 32.0333 74.3978 31.8343 74.0701 31.6985C73.7424 31.5628 73.3911 31.4929 73.0364 31.4929Z" fill="#F8E9C2"/>
<path d="M61.7983 46.7348H26.3076C25.9623 46.7344 25.6313 46.597 25.3872 46.3529C25.1431 46.1088 25.0058 45.7778 25.0054 45.4325V34.1941C25.0058 33.8489 25.1431 33.5179 25.3872 33.2738C25.6313 33.0297 25.9623 32.8924 26.3075 32.892H73.0367C73.382 32.8924 73.713 33.0297 73.9571 33.2738C74.2013 33.5179 74.3386 33.8489 74.339 34.1942C74.3352 37.519 73.0128 40.7066 70.6617 43.0576C68.3107 45.4086 65.1232 46.731 61.7983 46.7348Z" fill="white"/>
<path d="M59.5877 35.3218H39.8543C39.3663 35.3218 38.9707 35.7174 38.9707 36.2054V36.2054C38.9707 36.6934 39.3663 37.089 39.8543 37.089H59.5877C60.0757 37.089 60.4713 36.6934 60.4713 36.2054C60.4713 35.7174 60.0757 35.3218 59.5877 35.3218Z" fill="#EDC766"/>
<path d="M63.785 38.8562H35.6575C35.1695 38.8562 34.7739 39.2518 34.7739 39.7398V39.7398C34.7739 40.2278 35.1695 40.6234 35.6575 40.6234H63.785C64.273 40.6234 64.6686 40.2278 64.6686 39.7398C64.6686 39.2518 64.273 38.8562 63.785 38.8562Z" fill="#F8E9C2"/>
<path d="M63.785 42.3905H35.6575C35.1695 42.3905 34.7739 42.7861 34.7739 43.2741V43.2741C34.7739 43.7621 35.1695 44.1577 35.6575 44.1577H63.785C64.273 44.1577 64.6686 43.7621 64.6686 43.2741C64.6686 42.7861 64.273 42.3905 63.785 42.3905Z" fill="#F8E9C2"/>
<path d="M139.611 39.3181H105.818C105.562 39.3181 105.308 39.3686 105.071 39.4668C104.834 39.565 104.618 39.7089 104.437 39.8903C104.255 40.0716 104.112 40.287 104.013 40.524C103.915 40.761 103.865 41.015 103.865 41.2715V49.3988C103.865 49.6553 103.915 49.9093 104.013 50.1463C104.112 50.3833 104.255 50.5987 104.437 50.7801C104.618 50.9615 104.834 51.1053 105.071 51.2035C105.308 51.3017 105.562 51.3522 105.818 51.3522H106.314V52.8205C106.314 52.9096 106.341 52.9967 106.39 53.0708C106.44 53.1449 106.51 53.2026 106.592 53.2367C106.675 53.2708 106.765 53.2798 106.853 53.2624C106.94 53.245 107.02 53.2021 107.083 53.1391L108.87 51.3522H139.611C139.868 51.3522 140.122 51.3017 140.359 51.2035C140.596 51.1053 140.811 50.9615 140.992 50.7801C141.174 50.5987 141.318 50.3833 141.416 50.1463C141.514 49.9093 141.564 49.6553 141.564 49.3988V41.2715C141.564 41.015 141.514 40.761 141.416 40.524C141.318 40.287 141.174 40.0716 140.992 39.8903C140.811 39.7089 140.596 39.565 140.359 39.4668C140.122 39.3686 139.868 39.3181 139.611 39.3181Z" fill="#F8E9C2"/>
<path d="M139.611 50.3608H105.818C105.563 50.3606 105.318 50.2591 105.138 50.0787C104.958 49.8984 104.856 49.6538 104.856 49.3987V41.2714C104.856 41.0164 104.958 40.7718 105.138 40.5914C105.318 40.4111 105.563 40.3096 105.818 40.3093H131.484C133.894 40.3121 136.204 41.2706 137.908 42.9746C139.612 44.6786 140.57 46.9889 140.573 49.3987C140.573 49.6538 140.471 49.8984 140.291 50.0787C140.111 50.2591 139.866 50.3606 139.611 50.3608Z" fill="white"/>
<path d="M129.885 42.0869H115.615C115.262 42.0869 114.976 42.373 114.976 42.7259C114.976 43.0788 115.262 43.3649 115.615 43.3649H129.885C130.238 43.3649 130.524 43.0788 130.524 42.7259C130.524 42.373 130.238 42.0869 129.885 42.0869Z" fill="#EDC766"/>
<path d="M132.92 44.6428H112.579C112.227 44.6428 111.94 44.9289 111.94 45.2818C111.94 45.6347 112.227 45.9208 112.579 45.9208H132.92C133.273 45.9208 133.559 45.6347 133.559 45.2818C133.559 44.9289 133.273 44.6428 132.92 44.6428Z" fill="#F8E9C2"/>
<path d="M132.92 47.1989H112.579C112.227 47.1989 111.94 47.4849 111.94 47.8378C111.94 48.1907 112.227 48.4768 112.579 48.4768H132.92C133.273 48.4768 133.559 48.1907 133.559 47.8378C133.559 47.4849 133.273 47.1989 132.92 47.1989Z" fill="#F8E9C2"/>
<path d="M67.5296 10.7488H101.322C101.579 10.7488 101.833 10.7993 102.07 10.8975C102.307 10.9956 102.522 11.1395 102.704 11.3209C102.885 11.5023 103.029 11.7177 103.127 11.9547C103.225 12.1917 103.276 12.4457 103.276 12.7022V20.8295C103.276 21.086 103.225 21.34 103.127 21.577C103.029 21.814 102.885 22.0293 102.704 22.2107C102.522 22.3921 102.307 22.536 102.07 22.6342C101.833 22.7323 101.579 22.7829 101.322 22.7829H100.826V24.2512C100.826 24.3403 100.8 24.4274 100.751 24.5015C100.701 24.5756 100.631 24.6333 100.548 24.6674C100.466 24.7015 100.375 24.7104 100.288 24.693C100.201 24.6756 100.12 24.6327 100.057 24.5697L98.2705 22.7829H67.5296C67.2731 22.7829 67.019 22.7323 66.782 22.6342C66.545 22.536 66.3297 22.3921 66.1483 22.2107C65.9669 22.0293 65.823 21.814 65.7249 21.577C65.6267 21.34 65.5762 21.086 65.5762 20.8295V12.7022C65.5762 12.4457 65.6267 12.1917 65.7249 11.9547C65.823 11.7177 65.9669 11.5023 66.1483 11.3209C66.3297 11.1395 66.545 10.9956 66.782 10.8975C67.019 10.7993 67.2731 10.7488 67.5296 10.7488Z" fill="#F8E9C2"/>
<path d="M101.322 21.7914H75.6568C73.247 21.7887 70.9367 20.8302 69.2327 19.1263C67.5287 17.4223 66.5701 15.112 66.5674 12.7022C66.5677 12.4471 66.6691 12.2025 66.8495 12.0221C67.0298 11.8418 67.2744 11.7403 67.5295 11.74H101.322C101.577 11.7403 101.822 11.8417 102.002 12.0221C102.183 12.2025 102.284 12.447 102.284 12.7021V20.8293C102.284 21.0844 102.183 21.329 102.002 21.5093C101.822 21.6897 101.577 21.7912 101.322 21.7914Z" fill="white"/>
<path d="M77.2555 14.7957L91.5261 14.7957C91.879 14.7957 92.165 14.5096 92.165 14.1567C92.165 13.8038 91.879 13.5177 91.5261 13.5177L77.2555 13.5177C76.9026 13.5177 76.6166 13.8038 76.6166 14.1567C76.6166 14.5096 76.9026 14.7957 77.2555 14.7957Z" fill="#EDC766"/>
<path d="M74.2204 17.3516L94.5612 17.3516C94.9141 17.3516 95.2002 17.0655 95.2002 16.7126C95.2002 16.3597 94.9141 16.0736 94.5612 16.0736L74.2204 16.0736C73.8675 16.0736 73.5814 16.3597 73.5814 16.7126C73.5814 17.0655 73.8675 17.3516 74.2204 17.3516Z" fill="#F8E9C2"/>
<path d="M74.2204 19.9075L94.5612 19.9075C94.9141 19.9075 95.2002 19.6214 95.2002 19.2685C95.2002 18.9156 94.9141 18.6295 94.5612 18.6295L74.2204 18.6295C73.8675 18.6295 73.5814 18.9156 73.5814 19.2685C73.5814 19.6214 73.8675 19.9075 74.2204 19.9075Z" fill="#F8E9C2"/>
<path d="M28.5853 31.2691C28.5853 30.859 28.4224 30.4657 28.1324 30.1757C27.8424 29.8857 27.4491 29.7228 27.039 29.7228C26.6289 29.7228 26.2356 29.8857 25.9457 30.1757C25.6557 30.4657 25.4928 30.859 25.4928 31.2691C25.4928 31.2841 25.4946 31.2988 25.495 31.3138L22.783 34.0257L22.9893 33.5517L19.8967 33.4044L19.4456 36.6695C19.406 36.971 19.4611 37.2772 19.6031 37.546C19.745 37.8149 19.967 38.033 20.2382 38.1703C20.5095 38.3075 20.8166 38.3572 21.1173 38.3125C21.418 38.2677 21.6974 38.1307 21.9169 37.9204L27.2627 32.7973C27.6299 32.7439 27.9656 32.56 28.2085 32.2794C28.4514 31.9988 28.5851 31.6402 28.5853 31.2691Z" fill="#FFB9B9"/>
<path d="M111.047 29.7845L120.681 31.1543L121.219 32.4855L116.667 38.4752L114.49 37.4902L117.049 33.0353L110.979 34.1433L111.047 29.7845Z" fill="#889BAF"/>
<path d="M115.324 40.1786C116.138 40.1786 116.797 39.5192 116.797 38.7059C116.797 37.8926 116.138 37.2333 115.324 37.2333C114.511 37.2333 113.852 37.8926 113.852 38.7059C113.852 39.5192 114.511 40.1786 115.324 40.1786Z" fill="#9E616A"/>
</svg>
