<svg width="88" height="91" viewBox="0 0 88 91" fill="none" xmlns="http://www.w3.org/2000/svg">
<circle cx="44" cy="45.5829" r="44" fill="#F4DDA3"/>
<path opacity="0.4" d="M0.0449219 48C0.0449219 48 12.4174 80.5 44.0003 80.5C75.5832 80.5 87.9556 48 87.9556 48C86.91 71.3723 67.6305 90 44.0003 90C20.37 90 1.0905 71.3723 0.0449219 48Z" fill="#F1D285"/>
<path d="M38.2116 7.94229C37.6854 8.3824 37.3141 8.94668 36.7363 9.34376C36.0405 9.82321 35.1271 10.0052 34.2776 10.2621C33.4281 10.519 32.5565 10.9223 32.2148 11.6218C31.9246 12.2205 32.0918 12.9151 31.8459 13.5273C31.5816 14.1776 30.8957 14.6337 30.3707 15.1586C29.3331 16.1938 28.8721 17.6174 29.1414 18.9451C29.327 19.8634 29.8347 20.7117 30.1359 21.6079C30.5047 22.7044 30.5563 23.8539 30.608 24.9911C30.7039 27.1265 30.7985 29.2828 30.3179 31.3837C30.1949 31.9111 29.863 39.9302 29.22 39.9143C30.9264 39.768 32.6426 39.752 34.3575 39.7348L60.0512 39.4889C58.8673 37.9399 58.1112 28.7861 57.8604 26.9605C57.4277 23.8133 58.4751 20.6625 58.5981 17.4944C58.6153 17.0863 58.6153 16.6671 58.4468 16.2835C58.2698 15.8815 57.9158 15.5385 57.7977 15.1218C57.6281 14.5255 57.9686 13.9145 57.9797 13.3023C58.0018 12.0729 56.7503 11.13 55.7582 10.2191C54.8018 9.34253 54.0064 8.34675 53.0192 7.49235C52.032 6.63794 50.7916 5.91385 49.3803 5.78231C48.221 5.67535 47.0691 5.97655 45.959 6.27405C44.635 6.62811 43.3773 7.07559 41.9722 7.05346C40.422 7.02642 39.4668 7.1555 38.2116 7.94229Z" fill="#2F2E41"/>
<g opacity="0.1">
<path d="M55.9098 12.7847C55.9456 12.9192 55.9976 13.0488 56.0647 13.1707C56.0482 12.8941 55.9811 12.6229 55.8668 12.3704C55.8615 12.5099 55.876 12.6493 55.9098 12.7847Z" fill="black"/>
<path d="M30.9917 32.5246L30.8491 32.5369C30.897 32.5379 30.9448 32.5337 30.9917 32.5246Z" fill="black"/>
</g>
<path d="M57.6723 76.8258C57.5156 76.9473 57.3285 77.0234 57.1314 77.0458C53.9879 77.6912 50.8162 78.242 47.6113 78.4166C44.7837 78.5715 41.9476 78.4326 39.1188 78.2936C36.2901 78.1547 33.4638 78.0146 30.7026 77.4429C31.8467 75.1393 32.5671 72.6487 32.8294 70.0901C32.9456 68.9671 32.9739 67.8368 32.9143 66.7094C32.9051 66.5738 32.8887 66.4388 32.8651 66.3049C32.7335 65.496 32.409 64.3244 32.704 63.7392C33.0827 62.9869 34.537 62.9623 35.2476 62.8221C36.4548 62.5849 37.6682 62.3869 38.8865 62.221C43.7216 61.5633 48.6058 61.4133 53.4778 61.267C54.1318 61.2473 54.9112 61.2916 55.2517 61.8509C55.4423 62.1644 55.4324 62.5554 55.4226 62.9229C55.4005 63.7187 55.4083 64.5146 55.446 65.3104C55.6169 68.8391 56.3721 72.315 57.6809 75.5964C57.8432 75.9984 57.992 76.5246 57.6723 76.8258Z" fill="#FBBEBE"/>
<path d="M38.5438 33.0471C38.0299 33.6802 37.3058 34.1055 36.5768 34.4793C35.7059 34.9292 34.8089 35.3266 33.8906 35.6693C33.705 35.9508 33.8525 36.3245 34.0136 36.6245C35.4556 39.425 37.3857 42.2083 40.2968 43.4118C41.7905 44.0265 43.4292 44.1802 45.0397 44.324C45.5413 44.3682 46.0527 44.4125 46.542 44.292C47.0313 44.1715 47.4861 43.8802 47.8943 43.5716C50.5615 41.5533 52.3179 38.5583 52.7773 35.2452C52.8166 34.9513 52.8166 34.5911 52.5646 34.4338C52.4109 34.3391 52.2155 34.3576 52.0347 34.3588C50.8558 34.3711 49.8108 33.4982 49.2662 32.4545C48.7216 31.4108 48.5766 30.2072 48.4426 29.0357C48.4426 29.0099 41.5114 28.8636 40.8857 28.8586C39.9096 28.85 39.5875 28.9644 39.4928 29.9651C39.3932 31.069 39.2703 32.1472 38.5438 33.0471Z" fill="#FBBEBE"/>
<path opacity="0.1" d="M38.5438 33.0471C38.0299 33.6802 37.3058 34.1055 36.5768 34.4793C35.7059 34.9292 34.8089 35.3266 33.8906 35.6693C33.705 35.9508 33.8525 36.3245 34.0136 36.6245C35.4556 39.425 37.3857 42.2083 40.2968 43.4118C41.7905 44.0265 43.4292 44.1802 45.0397 44.324C45.5413 44.3682 46.0527 44.4125 46.542 44.292C47.0313 44.1715 47.4861 43.8802 47.8943 43.5716C50.5615 41.5533 52.3179 38.5583 52.7773 35.2452C52.8166 34.9513 52.8166 34.5911 52.5646 34.4338C52.4109 34.3391 52.2155 34.3576 52.0347 34.3588C50.8558 34.3711 49.8108 33.4982 49.2662 32.4545C48.7216 31.4108 48.5766 30.2072 48.4426 29.0357C48.4426 29.0099 41.5114 28.8636 40.8857 28.8586C39.9096 28.85 39.5875 28.9644 39.4928 29.9651C39.3932 31.069 39.2703 32.1472 38.5438 33.0471Z" fill="black"/>
<path d="M44.0525 31.7378C49.2805 31.7378 53.5186 27.4997 53.5186 22.2717C53.5186 17.0438 49.2805 12.8057 44.0525 12.8057C38.8245 12.8057 34.5864 17.0438 34.5864 22.2717C34.5864 27.4997 38.8245 31.7378 44.0525 31.7378Z" fill="#FBBEBE"/>
<path d="M50.9947 33.4946C51.0992 34.8223 36.83 36.0651 36.2915 34.4276C35.9719 34.8051 35.3855 34.8358 34.9183 34.6735C34.4512 34.5112 34.0578 34.199 33.6152 33.9691C32.8776 33.5843 32.0466 33.4417 31.229 33.3028C29.8976 33.0778 28.3511 32.9131 27.3652 33.8363C27.0246 34.1547 26.7923 34.5739 26.4505 34.8936C25.853 35.4492 25.0085 35.6226 24.2377 35.8771C23.1251 36.2459 22.0998 36.836 21.0487 37.3523C18.5944 38.5607 15.9777 39.4063 13.2804 39.8626C12.7063 39.9598 12.1285 40.0384 11.5593 40.1749C10.7602 40.3667 9.96111 40.6949 9.4165 41.3108C10.0533 42.1247 10.968 42.5685 11.9502 42.8893L21.4286 45.9873C22.8546 46.4532 24.3028 46.929 25.5506 47.7637C27.6295 49.1505 28.9818 51.4297 29.7218 53.8159C30.4619 56.2021 30.6525 68.9865 30.8369 71.4784C30.9168 72.5614 30.9893 73.6912 30.564 74.6944C32.7718 74.9545 35.0045 74.9177 37.2025 74.585C39.3182 74.2629 41.4106 73.6654 43.5509 73.6851C45.8867 73.7084 48.15 74.4657 50.4525 74.8751C52.7551 75.2845 55.2962 75.2968 57.2362 73.99C56.8231 73.4331 56.7604 72.6377 56.7444 71.9468L56.6952 58.4063C56.6733 58.0112 56.6997 57.6148 56.7739 57.2261C56.9386 56.5254 57.4021 55.9378 57.6984 55.2825C58.2701 54.0175 58.1901 52.5718 58.2221 51.1838C58.2541 49.7959 58.4483 48.3047 59.3863 47.2892C60.001 46.6266 60.8615 46.2504 61.7344 46.018C63.2268 45.6197 64.7881 45.5939 66.3297 45.4845C71.3558 45.1242 76.2728 43.8436 80.8362 41.7067C80.5633 41.1301 79.9289 40.8031 79.3499 40.5351C77.9804 39.902 76.5297 39.2529 75.0275 39.3943C74.3009 39.4631 73.5817 39.7163 72.8576 39.6241C72.1717 39.5356 71.5643 39.1472 70.898 38.9615C70.3928 38.8214 69.8641 38.8005 69.3454 38.7218C68.148 38.5386 67.0243 38.0456 65.9167 37.5576L63.1186 36.3282C62.381 36.0024 61.6127 35.6545 61.1062 35.0251C60.9414 34.8198 60.8087 34.5887 60.6292 34.3957C60.3206 34.065 59.8916 33.8695 59.4625 33.7331C58.9235 33.5455 58.3489 33.4824 57.782 33.5486C57.3931 33.6259 57.0093 33.7265 56.6325 33.8498C54.7836 34.349 52.8756 33.8302 50.9947 33.4946Z" fill="#889BAF"/>
<path d="M62.5 85.3496C58 87.3496 54.671 89.0065 49.5 89.3496L44.5 89.8496L37.5 89.3496L33.4873 88.3496C31.1638 88.1914 28.2563 86.1749 26 85.8496C26.6658 83.8677 28.1937 80.7474 29.3407 78.9993C29.5242 78.752 29.6677 78.4773 29.7661 78.1855C29.8201 77.9138 29.8477 77.6375 29.8484 77.3606C29.9082 76.5122 30.2373 75.7051 30.7877 75.0567C31.0434 75.1961 31.3015 75.3301 31.5622 75.4587C34.5149 76.9254 37.7305 77.7885 41.0209 77.9974C42.7517 78.0861 44.4866 78.0512 46.2124 77.8929C50.1046 77.5794 54.1516 76.8565 57.2865 74.5613C57.4181 74.4654 57.5484 74.3658 57.6774 74.2638C59.2006 75.6161 60.0821 77.6888 60.7127 79.6263C61.0877 80.7597 62.1128 84.2333 62.5 85.3496Z" fill="#223549"/>
<path opacity="0.1" d="M44.0005 75.1858C43.9392 75.3843 43.9242 75.5942 43.9566 75.7994C43.989 76.0047 44.0679 76.1997 44.1874 76.3697C44.2671 76.192 44.2908 75.9941 44.2552 75.8026C44.2197 75.611 44.1265 75.4349 43.9882 75.2977L44.0005 75.1858Z" fill="black"/>
<path d="M38.6223 35.4455C39.0993 35.1849 39.6144 34.9538 40.1578 34.9464C40.9741 34.939 41.7043 35.4381 42.3092 35.9889C42.8683 36.4939 43.3742 37.055 43.8188 37.6633C44.0401 37.9645 44.2516 38.2952 44.2848 38.6677C44.3179 39.0402 44.1139 39.4594 43.75 39.5479C43.5201 39.5867 43.2841 39.5389 43.0874 39.4139C42.2465 38.9517 41.6232 37.8932 40.6692 37.9964C40.0152 38.0665 39.5726 38.675 39.2149 39.2258C38.8965 39.7175 38.5744 40.2228 38.4318 40.7908C38.2892 41.3587 38.358 42.0201 38.7539 42.448C39.0612 42.7836 39.5099 42.9397 39.9291 43.1143C40.8564 43.498 41.7052 44.0489 42.4333 44.7395C42.7862 45.0763 43.1218 45.4771 43.171 45.9688C43.2201 46.4606 42.8476 47.0015 42.3608 46.9671C42.1413 46.9327 41.9343 46.8426 41.7596 46.7052C40.8794 46.1237 39.9808 45.514 38.9481 45.3001C37.897 45.0825 36.8115 45.3001 35.7518 45.4623C34.5896 45.6361 33.4217 45.7599 32.2481 45.8336C31.8998 45.8736 31.5471 45.8507 31.2068 45.766C30.0463 45.407 29.7082 43.9306 29.8435 42.8635C29.9873 41.7226 30.827 41.4632 31.7047 40.8965C34.1733 39.2811 36.005 36.8716 38.6223 35.4455Z" fill="#FBBEBE"/>
<path d="M47.716 35.4455C47.2378 35.1849 46.7239 34.9538 46.1793 34.9464C45.363 34.939 44.6328 35.4381 44.0279 35.9889C43.4692 36.494 42.9637 37.0551 42.5195 37.6633C42.2994 37.9645 42.088 38.2952 42.0548 38.6677C42.0216 39.0402 42.2244 39.4594 42.5883 39.5479C42.8186 39.5866 43.055 39.5389 43.2522 39.4139C44.0931 38.9517 44.7164 37.8932 45.6691 37.9964C46.3244 38.0665 46.7669 38.675 47.1234 39.2258C47.4419 39.7175 47.7652 40.2228 47.9065 40.7908C48.0479 41.3587 47.9803 42.0201 47.5845 42.448C47.2783 42.7836 46.8284 42.9397 46.4092 43.1143C45.4817 43.4982 44.6325 44.0491 43.9038 44.7395C43.5509 45.0763 43.2165 45.4771 43.1661 45.9688C43.1157 46.4606 43.4895 47.0015 43.9763 46.9671C44.1959 46.9329 44.4029 46.8428 44.5774 46.7052C45.4577 46.1237 46.3563 45.514 47.389 45.3001C48.4401 45.0825 49.5256 45.3001 50.5853 45.4623C51.7446 45.6443 52.9137 45.7709 54.0853 45.841C54.4341 45.8809 54.7871 45.858 55.1278 45.7734C56.2871 45.4144 56.6252 43.9379 56.4912 42.8709C56.3461 41.73 55.5077 41.4706 54.6287 40.9039C52.1651 39.2811 50.3345 36.8716 47.716 35.4455Z" fill="#FBBEBE"/>
<path d="M37.5071 18.8516C38.0579 17.9812 38.7119 17.0371 39.6056 16.9363C40.8534 16.7949 41.8283 18.3549 43.07 18.5566C44.6681 18.8172 46.2393 16.7715 47.7415 17.519C48.4792 17.8878 49.0299 18.9106 49.8315 18.8909C50.3859 18.8786 50.8371 18.3586 51.2047 17.8484C51.8249 16.9883 52.3738 16.0788 52.8458 15.1291C51.3202 13.3797 49.1012 12.9802 47.0297 12.6618L43.547 12.127C42.7085 11.9979 41.8554 11.8701 41.0219 12.0483C40.2683 12.2094 39.5651 12.6151 38.8828 13.0416C38.0689 13.5531 36.1548 14.3743 35.6557 15.3258C35.3078 15.986 35.786 16.2933 36.2347 16.9584C36.6568 17.5895 37.0809 18.2205 37.5071 18.8516Z" fill="#2F2E41"/>
<path opacity="0.1" d="M32.2323 40.2179C30.7215 40.5196 29.1788 40.6295 27.6406 40.5449C27.037 40.513 26.4309 40.4503 25.8298 40.5068C25.1044 40.5757 24.4074 40.8154 23.7005 40.99C20.0382 41.8911 16.2112 41.0109 12.4728 40.5167C11.8126 40.4294 11.1377 40.3544 10.4836 40.4822C9.88495 40.599 9.33174 40.8793 8.80188 41.1805C7.94339 41.6687 7.12163 42.2189 6.34316 42.8266C5.5281 43.4634 4.70566 44.2748 4.6491 45.3062C4.59993 46.1938 5.14085 47.0114 5.7961 47.615C7.56637 49.2537 10.1947 49.7467 12.565 49.3029C13.4661 49.1345 14.3451 48.8443 15.256 48.7435C16.1891 48.6403 17.132 48.7435 18.07 48.6993C19.9755 48.6145 21.7999 47.9518 23.6501 47.4908C26.5393 46.7714 29.528 46.5371 32.4941 46.7975C32.4683 46.8086 32.4404 46.814 32.4123 46.8131C32.3842 46.8122 32.3566 46.805 32.3316 46.7922C32.3065 46.7794 32.2847 46.7612 32.2675 46.739C32.2503 46.7167 32.2383 46.6909 32.2323 46.6635C32.0147 46.0635 32.0036 45.4107 32.0073 44.7727C32.0171 43.2249 32.0897 41.7595 32.2323 40.2179Z" fill="black"/>
<path d="M31.9862 40.3409C30.4755 40.6425 28.9327 40.7524 27.3945 40.6679C26.7909 40.6359 26.1848 40.5732 25.5837 40.6298C24.8583 40.6986 24.1613 40.9383 23.4544 41.1129C19.7921 42.014 15.9651 41.1338 12.2267 40.6396C11.5665 40.5523 10.8916 40.4773 10.2376 40.6052C9.63885 40.722 9.08564 41.0022 8.55579 41.3034C7.69729 41.7916 6.87554 42.3418 6.09707 42.9496C5.282 43.5864 4.45956 44.3977 4.40301 45.4292C4.35384 46.3168 4.89475 47.1343 5.55 47.7379C7.32028 49.3766 9.94865 49.8696 12.3189 49.4258C13.22 49.2574 14.099 48.9673 15.0099 48.8665C15.943 48.7632 16.8859 48.8665 17.8239 48.8222C19.7294 48.7374 21.5538 48.0748 23.404 47.6137C26.2933 46.8944 29.282 46.66 32.248 46.9204C32.2222 46.9316 32.1943 46.9369 32.1662 46.936C32.1381 46.9351 32.1105 46.928 32.0855 46.9152C32.0604 46.9024 32.0386 46.8842 32.0214 46.8619C32.0042 46.8396 31.9922 46.8138 31.9862 46.7864C31.7686 46.1865 31.7575 45.5337 31.7612 44.8956C31.771 43.3479 31.8436 41.8825 31.9862 40.3409Z" fill="#B0BDC9"/>
<path opacity="0.1" d="M54.3911 39.5602C56.2647 39.9868 60.7739 40.1749 62.6942 40.111C63.5707 40.0839 64.4448 40.0052 65.3214 40.0077C66.8236 40.0077 68.3235 40.2536 69.822 40.154C71.7583 40.0212 73.6601 39.3094 75.5914 39.4926C76.5405 39.5836 77.4539 39.886 78.3587 40.1884C79.2635 40.4908 80.2495 40.8326 80.8863 41.5677C81.4764 42.2488 81.6915 43.1659 81.887 44.0461C81.9964 44.5379 82.1058 45.0456 82.0099 45.5386C81.8267 46.4741 80.965 47.1072 80.1376 47.5793C79.1541 48.1399 78.0747 48.6218 76.9413 48.596C76.2688 48.5812 75.6148 48.387 74.9743 48.1854C73.1389 47.6088 71.2629 46.956 69.3451 47.0999C68.0038 47.2031 66.6638 47.6973 65.3447 47.4306C64.569 47.2732 63.8695 46.8626 63.1319 46.5897C61.3345 45.932 56.7724 46.1065 54.8669 46.2885C54.9775 45.2177 54.964 44.1383 55.0746 43.0663C55.1607 42.2464 55.2431 41.3969 54.98 40.615C54.8152 40.1466 54.7599 39.8921 54.3911 39.5602Z" fill="black"/>
<path d="M54.5142 39.8061C56.3877 40.2327 60.897 40.4208 62.8173 40.3568C63.6938 40.3298 64.5679 40.2511 65.4444 40.2536C66.9467 40.2536 68.4465 40.4994 69.9451 40.3999C71.8813 40.2671 73.7832 39.5553 75.7145 39.7385C76.6635 39.8294 77.577 40.1319 78.4818 40.4343C79.3866 40.7367 80.3725 41.0785 81.0093 41.8136C81.5994 42.4947 81.8146 43.4118 82.01 44.292C82.1194 44.7838 82.2289 45.2915 82.133 45.7845C81.9498 46.72 81.088 47.3531 80.2606 47.8252C79.2772 48.3858 78.1978 48.8677 77.0643 48.8419C76.3919 48.8271 75.7378 48.6329 75.0973 48.4313C73.2619 47.8547 71.3859 47.2019 69.4681 47.3457C68.1269 47.449 66.7869 47.9432 65.4678 47.6764C64.692 47.5191 63.9925 47.1085 63.2549 46.8356C61.4576 46.1779 56.8954 46.3524 54.9899 46.5344C55.1006 45.4636 55.087 44.3842 55.1977 43.3122C55.2837 42.4922 55.3661 41.6427 55.103 40.8609C54.9383 40.3925 54.883 40.138 54.5142 39.8061Z" fill="#B0BDC9"/>
<path d="M34.9808 21.0854C34.6932 21.0104 34.5825 20.6465 34.3231 20.5002C34.0637 20.3539 33.7392 20.4695 33.5523 20.6871C33.3787 20.9173 33.2847 21.1978 33.2843 21.4861C33.2612 22.108 33.4307 22.7218 33.7695 23.2437C34.1084 23.7656 34.6001 24.1702 35.1775 24.4022C34.9205 23.2831 34.8212 22.1336 34.8825 20.987L34.9808 21.0854Z" fill="#FBBEBE"/>
<path d="M53.1227 21.0854C53.4104 21.0104 53.5198 20.6465 53.7792 20.5002C54.0386 20.3539 54.3632 20.4695 54.55 20.6871C54.7242 20.917 54.8183 21.1977 54.818 21.4861C54.8411 22.108 54.6716 22.7218 54.3328 23.2437C53.9939 23.7656 53.5022 24.1702 52.9248 24.4022C53.1819 23.2831 53.2812 22.1336 53.2198 20.987L53.1227 21.0854Z" fill="#FBBEBE"/>
<g opacity="0.1">
<path d="M41.3393 48.3464C41.5737 49.2034 41.6874 50.0889 41.6773 50.9773C41.6773 52.5226 41.3737 53.8712 40.9213 54.5953C40.8832 54.9395 40.8401 55.2813 40.7983 55.6169C41.4364 55.1251 41.9048 53.5097 41.9048 51.5919C41.8998 50.2814 41.681 49.1123 41.3393 48.3464Z" fill="black"/>
</g>
<g opacity="0.1">
<path d="M44.8023 48.3464C44.5675 49.2033 44.4533 50.0888 44.463 50.9773C44.463 52.5226 44.7679 53.8712 45.2203 54.5953C45.2584 54.9395 45.3002 55.2813 45.3432 55.6169C44.7052 55.1251 44.2368 53.5097 44.2368 51.5919C44.2356 50.2814 44.4544 49.1123 44.8023 48.3464Z" fill="black"/>
</g>
<path opacity="0.1" d="M51.1948 17.2338C50.8259 17.744 50.376 18.264 49.8216 18.2763C49.0188 18.296 48.4693 17.2756 47.7316 16.9043C46.2355 16.1569 44.6681 18.2025 43.0601 17.9419C41.8184 17.7403 40.8472 16.1802 39.5957 16.3216C38.702 16.4224 38.048 17.3666 37.4972 18.2369C37.071 17.6067 36.6453 16.9756 36.2199 16.3437C35.974 15.9749 35.7073 15.7106 35.588 15.4377C35.3495 16.0229 35.797 16.3327 36.2199 16.9584C36.6428 17.5842 37.0706 18.221 37.4972 18.8516C38.048 17.9812 38.702 17.0371 39.5957 16.9363C40.8435 16.7949 41.8184 18.355 43.0601 18.5566C44.6582 18.8172 46.2294 16.7715 47.7316 17.519C48.4693 17.8878 49.02 18.9106 49.8216 18.891C50.376 18.8787 50.8272 18.3587 51.1948 17.8485C51.815 16.9883 52.3639 16.0788 52.8359 15.1291C52.7696 15.0529 52.7007 14.9791 52.6306 14.9078C52.2067 15.7156 51.7269 16.4928 51.1948 17.2338Z" fill="black"/>
</svg>
