<svg width="105" height="120" viewBox="0 0 105 120" fill="none" xmlns="http://www.w3.org/2000/svg">
<g clip-path="url(#clip0_3491_26471)">
<path d="M83.9615 49.4441V54.9028C83.2814 56.2183 82.6142 57.928 81.9611 60.0691C81.9611 60.0691 82.9617 63.4098 83.9615 67.4464V78.992H58.9892L57.2546 81.4524H52.5V92.2668H60.2521V117.158H61.8625V92.2668H66.4148V117.158H68.0252V92.2668H83.8072V117.158H85.4176V92.2668H91.5371V117.158H93.1475L93.0831 92.2668H94.7759V49.4441H83.9615Z" fill="#DFE2E6"/>
<path d="M27.1544 100.874C27.0023 100.617 26.3445 100.892 26.2236 100.659C26.1031 100.427 26.7143 100.074 27.0634 99.2672C27.1264 99.1216 27.5232 98.2046 27.2294 97.9216C26.6727 97.3852 24.1248 99.5987 23.2331 98.8744C23.0374 98.7154 22.9007 98.398 22.3085 97.8828C22.0729 97.6778 21.9304 97.5853 21.7925 97.6197C21.5969 97.6686 21.5814 97.9304 21.3716 98.4452C21.057 99.2173 20.8709 99.1707 20.6876 99.7867C20.5515 100.244 20.5826 100.51 20.4224 100.562C20.1958 100.635 19.9873 100.15 19.7001 100.193C19.4071 100.238 19.2299 100.802 19.1739 101.225C19.0689 102.019 19.3603 102.542 19.5218 103.093C19.6974 103.691 19.8015 104.601 19.3962 105.889L15.3843 117.193C16.27 114.873 18.8345 108.515 19.9121 106.152C20.2232 105.47 20.5667 104.778 21.272 104.505C21.951 104.243 22.8836 104.399 24.0725 104.113C24.2113 104.08 24.5966 103.982 24.6451 103.755C24.6852 103.568 24.4586 103.463 24.4934 103.288C24.5401 103.052 24.9858 103.049 25.5335 102.778C25.9197 102.586 26.1603 102.358 26.3672 102.163C26.4296 102.104 27.3568 101.215 27.1544 100.874H27.1544L27.1544 100.874H27.1544Z" fill="#EAECEE"/>
<path d="M11.3705 106.824C11.2008 106.825 11.1458 107.227 10.9967 107.219C10.8481 107.212 10.8511 106.81 10.5558 106.405C10.5025 106.333 10.1669 105.873 9.94324 105.936C9.51934 106.054 9.87058 107.943 9.25778 108.172C9.12331 108.222 8.9281 108.198 8.50434 108.34C8.33576 108.396 8.24923 108.44 8.22635 108.517C8.19388 108.627 8.31791 108.71 8.51007 108.962C8.79824 109.339 8.72167 109.417 8.97112 109.685C9.1563 109.883 9.29576 109.945 9.27497 110.038C9.24557 110.171 8.94733 110.133 8.88578 110.287C8.82299 110.443 9.04905 110.693 9.24044 110.843C9.59959 111.123 9.94065 111.131 10.2575 111.211C10.6018 111.297 11.0784 111.509 11.5937 112.079L15.984 117.31C15.1012 116.206 12.7204 113.113 11.8717 111.902C11.6267 111.553 11.3862 111.184 11.4557 110.759C11.5226 110.35 11.8687 109.938 12.0712 109.272C12.0948 109.194 12.1579 108.976 12.0606 108.887C11.9802 108.814 11.8635 108.895 11.7874 108.827C11.6854 108.736 11.8126 108.516 11.8373 108.169C11.8548 107.924 11.8124 107.741 11.776 107.583C11.765 107.535 11.5964 106.824 11.3705 106.824V106.824L11.3705 106.824Z" fill="#EAECEE"/>
<path d="M14.7561 107.584L14.6538 106.672L14.7005 106.602C14.9167 106.283 15.0269 105.97 15.0282 105.673C15.0284 105.626 15.0262 105.579 15.024 105.531C15.0152 105.341 15.0042 105.104 15.1276 104.828C15.1968 104.674 15.3911 104.318 15.6833 104.362C15.762 104.373 15.8215 104.409 15.8667 104.452C15.8733 104.441 15.8801 104.431 15.8874 104.419C15.9784 104.28 16.0504 104.221 16.1199 104.164C16.1732 104.119 16.2283 104.074 16.3147 103.967C16.3526 103.919 16.3821 103.878 16.407 103.843C16.4826 103.738 16.5813 103.612 16.7554 103.614C16.9414 103.623 17.0388 103.777 17.1033 103.879C17.2186 104.06 17.2708 104.191 17.3054 104.278C17.318 104.31 17.3323 104.346 17.3396 104.357C17.3995 104.445 17.8867 104.362 18.0703 104.332C18.4826 104.264 18.8393 104.204 18.9863 104.464C19.0916 104.65 19.0134 104.896 18.7468 105.215C18.6637 105.314 18.5753 105.389 18.4969 105.448C18.5619 105.487 18.6201 105.547 18.6436 105.64C18.6992 105.861 18.509 106.083 18.0786 106.3C17.9718 106.354 17.8279 106.426 17.6262 106.461C17.5313 106.477 17.4458 106.481 17.3726 106.483C17.3711 106.526 17.3611 106.572 17.3354 106.619C17.2598 106.758 17.1025 106.824 16.8653 106.808C16.6044 106.794 16.3896 106.744 16.2001 106.701C16.0346 106.663 15.892 106.631 15.7801 106.638C15.5725 106.655 15.4125 106.821 15.2248 107.037L14.7561 107.584H14.7561L14.7561 107.584Z" fill="#EAECEE"/>
<path d="M15.2305 102.15L14.3736 102.48L14.2948 102.453C13.9305 102.325 13.6003 102.298 13.313 102.371C13.2674 102.383 13.2223 102.397 13.1764 102.412C12.9945 102.468 12.7683 102.539 12.4702 102.49C12.3039 102.462 11.9101 102.364 11.8786 102.07C11.8693 101.991 11.8892 101.925 11.9187 101.87C11.9067 101.867 11.8948 101.863 11.8818 101.859C11.7245 101.806 11.6487 101.751 11.5756 101.699C11.5195 101.658 11.4616 101.616 11.3357 101.56C11.2804 101.535 11.2329 101.517 11.1929 101.502C11.0718 101.456 10.9253 101.392 10.8832 101.223C10.8446 101.041 10.9687 100.908 11.0508 100.819C11.1972 100.662 11.3105 100.578 11.3858 100.523C11.4133 100.502 11.4442 100.48 11.453 100.47C11.523 100.389 11.3197 99.939 11.2442 99.7691C11.0731 99.3877 10.9251 99.0577 11.1393 98.8496C11.2925 98.7005 11.5502 98.7138 11.9261 98.8909C12.0431 98.9461 12.1384 99.0125 12.2154 99.0734C12.2364 99.0006 12.2792 98.9293 12.3636 98.8828C12.5635 98.7729 12.8262 98.9007 13.1451 99.2619C13.2246 99.3516 13.3311 99.4724 13.4159 99.6586C13.4557 99.7464 13.4813 99.8281 13.502 99.8983C13.5433 99.889 13.5901 99.887 13.6423 99.9C13.7957 99.9379 13.8996 100.073 13.9444 100.307C13.9973 100.563 14.0037 100.783 14.0095 100.977C14.0149 101.147 14.0199 101.293 14.0555 101.399C14.1244 101.596 14.3257 101.709 14.5818 101.836L15.2306 102.15H15.2305V102.15Z" fill="#EAECEE"/>
<path d="M14.7561 99.4611L14.6538 98.5484L14.7005 98.4792C14.9167 98.1592 15.0269 97.8467 15.0282 97.5501C15.0284 97.503 15.0262 97.4558 15.024 97.4078C15.0152 97.2174 15.0042 96.9807 15.1276 96.7048C15.1968 96.551 15.3911 96.1949 15.6833 96.239C15.762 96.25 15.8215 96.2862 15.8667 96.3285C15.8733 96.3179 15.8801 96.3073 15.8874 96.2959C15.9784 96.157 16.0504 96.0975 16.1199 96.0402C16.1732 95.9962 16.2283 95.9508 16.3147 95.8432C16.3526 95.7961 16.3821 95.7547 16.407 95.7198C16.4826 95.6145 16.5813 95.4889 16.7554 95.4911C16.9414 95.4999 17.0388 95.6537 17.1033 95.7555C17.2186 95.9371 17.2708 96.068 17.3054 96.1548C17.318 96.1866 17.3323 96.2223 17.3396 96.2333C17.3995 96.3214 17.8867 96.239 18.0703 96.2091C18.4826 96.1403 18.8393 96.0808 18.9863 96.3408C19.0916 96.5268 19.0134 96.7727 18.7468 97.0914C18.6637 97.1905 18.5753 97.2659 18.4969 97.325C18.5619 97.3637 18.6201 97.4232 18.6436 97.5167C18.6992 97.7379 18.509 97.9596 18.0786 98.1764C17.9718 98.2306 17.8279 98.3029 17.6262 98.3377C17.5313 98.354 17.4458 98.358 17.3726 98.3602C17.3711 98.4025 17.3611 98.4483 17.3354 98.4955C17.2598 98.6343 17.1025 98.7004 16.8653 98.6846C16.6044 98.6709 16.3896 98.6211 16.2001 98.5775C16.0346 98.5396 15.892 98.5074 15.7801 98.5149C15.5725 98.5317 15.4125 98.6978 15.2248 98.9133L14.7561 99.4611H14.7561L14.7561 99.4611Z" fill="#EAECEE"/>
<path d="M15.6903 117.178L15.499 117.058L15.4527 116.837L15.499 117.058L15.276 117.084C15.2725 117.063 15.2604 117.015 15.2421 116.941C15.1423 116.533 14.8379 115.291 14.5841 113.335C14.4069 111.97 14.3067 110.566 14.2859 109.162C14.2652 107.756 14.3318 106.692 14.3851 105.837C14.4254 105.191 14.4743 104.577 14.5224 103.978C14.6502 102.38 14.7707 100.869 14.681 99.1971C14.6612 98.8238 14.6196 98.0468 14.1656 97.22C13.9023 96.7405 13.5396 96.3148 13.0874 95.9551L13.3686 95.6017C13.8677 95.9992 14.269 96.4708 14.5614 97.0032C15.0647 97.9199 15.1101 98.7665 15.1319 99.1733C15.2231 100.875 15.1013 102.4 14.9721 104.014C14.9245 104.61 14.8756 105.222 14.8355 105.865C14.7826 106.712 14.7167 107.767 14.7372 109.155C14.7575 110.542 14.8567 111.929 15.0314 113.277C15.2822 115.208 15.5821 116.431 15.6806 116.833C15.733 117.048 15.7441 117.093 15.6903 117.178H15.6903H15.6903Z" fill="#EAECEE"/>
<path d="M12.2597 96.6722C12.2412 96.6722 12.2225 96.6718 12.2035 96.6705C11.8192 96.6497 11.4633 96.4197 11.1456 95.9869C10.9966 95.7833 10.9204 95.551 10.7683 95.0878C10.7448 95.0164 10.6302 94.6542 10.5605 94.1557C10.5149 93.83 10.5206 93.6938 10.5852 93.5735C10.6568 93.4396 10.7727 93.3461 10.9032 93.2831C10.8975 93.2399 10.9021 93.1954 10.9208 93.15C10.9977 92.9618 11.2022 92.9865 11.3128 92.9984C11.3688 93.0054 11.4387 93.0147 11.514 93.0107C11.6326 93.005 11.6963 92.9697 11.7928 92.9169C11.8851 92.8662 11.9999 92.8032 12.1703 92.7683C12.5061 92.6983 12.7875 92.7935 12.8803 92.8247C13.3684 92.9874 13.609 93.3668 13.8875 93.8062C13.943 93.8944 14.1337 94.2152 14.2595 94.655C14.3503 94.9724 14.3375 95.1134 14.3102 95.2183C14.2546 95.4338 14.1235 95.5572 13.7906 95.8296C13.4428 96.1147 13.2683 96.2575 13.1185 96.3443C12.7696 96.5457 12.5506 96.6722 12.2597 96.6722H12.2597Z" fill="#EAECEE"/>
<path d="M105 117.153C105 117.236 104.932 117.304 104.849 117.304H0V117.002H104.849C104.932 117.002 105 117.069 105 117.153Z" fill="#EAECEE"/>
<path d="M47.2856 36.0546C46.2197 34.8093 44.7132 34.3498 43.9208 35.0283C43.1284 35.7067 43.3502 37.2659 44.4166 38.5116C44.8357 39.015 45.3694 39.4107 45.9728 39.6656L50.5555 44.885L52.959 42.6823L48.1861 37.7707C48.0273 37.135 47.7185 36.5465 47.2856 36.0546Z" fill="#E1A887"/>
<path d="M81.6829 42.4195C81.6829 42.4195 82.6853 47.0075 78.7069 48.4705C74.7285 49.9334 64.419 55.5506 63.6559 55.2931C62.8927 55.0357 60.3961 56.2924 57.4494 53.6115C54.5027 50.9307 47.3838 42.8483 47.3838 42.8483L50.3121 38.8713L61.337 46.4875C61.337 46.4875 61.5728 46.4175 62.6179 46.3091C63.663 46.2008 62.8456 46.8601 64.4803 45.5415C66.115 44.223 76.5487 39.4977 76.5487 39.4977C76.5487 39.4977 79.6104 37.9806 81.6829 42.4195L81.6829 42.4195V42.4195Z" fill="#223549"/>
<path d="M55.668 106.42L57.2888 111.643L52.7866 114.704L49.5449 111.823C49.5449 111.823 50.8056 107.321 50.2653 106.24L55.668 106.42Z" fill="#E1A887"/>
<path d="M78.5394 32.4031L81.1217 38.0993L73.5664 42.7959L73.1367 36.0049L78.5394 32.4031Z" fill="#E1A887"/>
<path opacity="0.1" d="M78.5394 32.4031L81.1217 38.0993L73.5664 42.7959L73.1367 36.0049L78.5394 32.4031Z" fill="black"/>
<path d="M75.5698 37.4812C78.5999 37.4812 81.0562 35.0249 81.0562 31.9949C81.0562 28.9649 78.5999 26.5085 75.5698 26.5085C72.5398 26.5085 70.0835 28.9649 70.0835 31.9949C70.0835 35.0249 72.5398 37.4812 75.5698 37.4812Z" fill="#E1A887"/>
<path d="M73.4965 41.5876L81.2404 36.365L79.9798 80.4872C79.9798 80.4872 73.5866 69.4116 68.7241 68.8713C68.7241 68.8713 69.2644 67.6107 69.6246 66.8903C69.9848 66.17 70.525 62.5682 70.525 62.5682L73.0463 43.1184L73.4965 41.5876V41.5876Z" fill="#889BAF"/>
<path d="M79.7097 87.2406L72.8662 63.1084C72.8662 63.1084 73.9468 43.6587 81.2404 36.365L82.9513 38.9763C82.9513 38.9763 84.643 39.2273 84.3374 40.3624C84.0318 41.4976 91.0554 83.2786 91.0554 83.2786H83.7759C83.7759 83.2786 83.1314 87.2406 79.7097 87.2406Z" fill="#223549"/>
<path d="M73.4966 41.5875V40.8672C73.4966 40.8672 70.1649 41.1373 69.9848 43.1183C69.8047 45.0993 68.364 52.8432 69.8047 57.5256L68.0038 60.407L66.7432 67.2504L70.7052 68.331L72.8662 51.7123C72.8662 51.7123 74.307 42.9382 73.4966 41.5875V41.5875Z" fill="#223549"/>
<path d="M79.8898 75.8949C79.8898 75.8949 82.9513 84.7193 76.4681 84.8994C69.9848 85.0795 59.8849 85.0795 59.8849 85.0795L54.8572 87.7809L56.2979 107.411L46.2129 107.591C46.2129 107.591 42.9712 83.4587 45.8527 80.5773C48.7341 77.6958 57.0183 74.6343 57.0183 74.6343L66.5631 69.7718L69.2474 66.5132L79.8898 75.8949Z" fill="#223549"/>
<path d="M80.2573 35.1944C80.6399 35.0584 84.221 30.8613 81.2405 28.0808C81.2405 28.0808 80.0792 24.6841 75.4475 25.0403C70.8158 25.3966 69.5688 27.9299 69.5688 29.2463C69.5688 30.5627 70.7953 32.0428 70.7953 32.0428C70.7953 32.0428 69.9251 28.425 71.8847 28.6032C73.8442 28.7813 73.3098 29.4939 74.7349 29.1376C76.1601 28.7813 77.5852 29.3157 77.5852 29.3157L79.0103 29.8501V32.0236C79.0103 32.0236 79.6317 31.525 79.6773 32.0236C79.7229 32.5223 80.2573 35.1944 80.2573 35.1944Z" fill="#223549"/>
<path d="M49.2744 79.6767L49.0943 85.2595L42.0708 83.9989C42.0708 83.9989 45.0865 79.0358 44.6592 77.6454L49.2744 79.6767Z" fill="#E1A887"/>
<path d="M48.5542 84.1016C48.5542 84.1016 49.8149 84.1016 49.8149 84.822C49.8149 85.5424 51.7958 91.1252 48.0139 91.3053C44.232 91.4853 44.4121 90.765 44.4121 90.765C44.4121 90.765 33.7868 95.6274 30.0049 88.4238C30.0049 88.4238 29.1044 86.6229 31.2655 86.2627C33.4266 85.9025 42.071 82.8871 42.071 82.8871C42.071 82.8871 47.1135 84.822 48.5542 84.1016Z" fill="#2E4761"/>
<path d="M55.8474 111.746C55.8474 111.746 57.1081 110.218 57.2881 110.352C57.4682 110.485 61.4302 114.987 58.7289 116.248C56.0275 117.508 54.5868 118.049 54.5868 118.049L53.8664 116.968C53.8664 116.968 48.4637 122.191 40.1795 118.589C40.1795 118.589 39.4592 116.968 41.08 116.608C42.7008 116.248 49.5443 110.76 49.5443 110.76C49.5443 110.76 52.4257 112.826 53.8664 112.466C55.3072 112.106 55.8474 111.746 55.8474 111.746Z" fill="#2E4761"/>
<path d="M68.7241 68.3309C68.7241 68.3309 51.8857 59.7766 50.445 59.7766C49.0042 59.7766 46.2504 60.3694 45.6463 63.1345C45.0422 65.8997 41.4404 79.2264 41.4404 79.2264L50.2649 81.3875L53.6866 71.8427L59.2694 76.8852L68.7241 71.2471V68.3309Z" fill="#223549"/>
<path d="M60.7955 65.0264C59.1737 65.2644 57.982 66.2941 58.1336 67.3262C58.2853 68.3583 59.7228 69.0018 61.3451 68.7634C61.9945 68.6771 62.6137 68.4365 63.1511 68.0618L70.0099 66.9665L69.4273 63.7588L62.7275 65.1792C62.105 64.9747 61.4425 64.9223 60.7955 65.0264Z" fill="#E1A887"/>
<path d="M84.5155 39.3156C84.5155 39.3156 88.9317 40.913 88.0489 45.0589C87.1662 49.2048 86.4236 60.9217 85.7991 61.4302C85.1745 61.9387 84.907 64.7209 81.0681 65.7852C77.2291 66.8494 66.2129 71.56 66.2129 71.56L64.792 63.9672L77.1125 58.6986C77.1125 58.6986 77.179 58.4618 77.6444 57.5198C78.1098 56.5778 78.2319 57.6207 77.9877 55.5348C77.7434 53.4489 79.3067 42.1022 79.3067 42.1022C79.3067 42.1022 79.655 38.703 84.5155 39.3155L84.5155 39.3156Z" fill="#223549"/>
</g>
<path d="M43.3009 6.74107C43.8996 4.89845 46.5064 4.89844 47.1051 6.74106L49.6868 14.6866C49.9545 15.5107 50.7224 16.0686 51.5889 16.0686H59.9433C61.8808 16.0686 62.6863 18.5478 61.1189 19.6866L54.36 24.5972C53.659 25.1065 53.3657 26.0093 53.6335 26.8333L56.2151 34.7789C56.8138 36.6215 54.7049 38.1537 53.1374 37.0149L46.3786 32.1043C45.6776 31.595 44.7284 31.595 44.0274 32.1043L37.2685 37.0149C35.7011 38.1537 33.5921 36.6215 34.1908 34.7789L36.7725 26.8333C37.0403 26.0093 36.7469 25.1065 36.046 24.5972L29.2871 19.6866C27.7196 18.5478 28.5252 16.0686 30.4626 16.0686H38.8171C39.6835 16.0686 40.4515 15.5107 40.7192 14.6866L43.3009 6.74107Z" fill="#EDC766"/>
<defs>
<clipPath id="clip0_3491_26471">
<rect width="105" height="116.525" fill="white" transform="translate(0 3.22827)"/>
</clipPath>
</defs>
</svg>
