<svg width="133" height="89" viewBox="0 0 133 89" fill="none" xmlns="http://www.w3.org/2000/svg">
<path d="M84.4729 49.5247C84.9385 49.4274 85.3471 49.151 85.6107 48.7552C85.8744 48.3594 85.9719 47.8758 85.8822 47.4087C85.8622 47.3055 85.833 47.2043 85.7951 47.1063L90.6302 42.9382L87.4691 42.0439L83.3622 46.1391C82.9308 46.3449 82.5977 46.7121 82.4349 47.1615C82.2721 47.6109 82.2928 48.1063 82.4923 48.5406C82.6618 48.905 82.9502 49.2009 83.3102 49.3798C83.6701 49.5586 84.0801 49.6097 84.4729 49.5247L84.4729 49.5247Z" fill="#FFB6B6"/>
<path d="M115.871 79.0832L116.047 75.1317C117.879 74.1525 119.922 73.6352 121.999 73.6249C119.14 75.9623 119.498 80.468 117.559 83.6113C116.947 84.587 116.123 85.4125 115.149 86.0266C114.175 86.6407 113.074 87.0276 111.93 87.1587L109.538 88.6235C109.209 86.7934 109.282 84.9138 109.75 83.1143C110.218 81.3148 111.07 79.6382 112.249 78.1999C112.918 77.3996 113.685 76.6868 114.532 76.0782C115.105 77.5891 115.871 79.0832 115.871 79.0832Z" fill="#F1F3F5"/>
<path d="M109.707 86.59L107.54 86.5898L106.51 78.2339L109.707 78.234L109.707 86.59Z" fill="#FFB6B6"/>
<path d="M110.259 88.69L103.273 88.6897V88.6014C103.273 87.8803 103.56 87.1888 104.07 86.6789C104.58 86.1691 105.271 85.8826 105.992 85.8826H105.992L107.268 84.9146L109.649 85.8827L110.259 85.8827L110.259 88.69Z" fill="#223549"/>
<path d="M99.6422 86.59L97.4759 86.5898L96.4453 78.2339L99.6427 78.234L99.6422 86.59Z" fill="#FFB6B6"/>
<path d="M100.194 88.69L93.209 88.6897V88.6014C93.209 87.8803 93.4955 87.1888 94.0054 86.6789C94.5152 86.1691 95.2068 85.8826 95.9278 85.8826H95.928L97.204 84.9146L99.5846 85.8827L100.194 85.8827L100.194 88.69Z" fill="#223549"/>
<path d="M98.7039 40.9072L112.795 41.2595C115.471 42.7131 115.512 45.8591 114.635 49.5944C114.635 49.5944 114.931 51.8145 114.339 52.4065C113.747 52.9985 113.451 52.9985 113.747 54.0346C114.043 55.0707 112.479 56.7628 112.669 56.9528C112.859 57.1428 113.303 58.1788 113.303 58.1788L111.823 66.6153C111.823 66.6153 110.787 81.2681 110.491 81.5641C110.195 81.8601 109.899 81.5641 110.195 82.3041C110.491 83.0442 110.787 82.7481 110.491 83.0442C110.228 83.3269 109.981 83.6233 109.751 83.9322H106.172C106.172 83.9322 105.902 82.4521 105.902 82.3041C105.902 82.1561 105.606 81.2681 105.606 81.12C105.606 80.972 105.868 80.7104 105.868 80.7104C105.958 80.4095 106.02 80.1006 106.05 79.788C106.05 79.492 106.938 68.0954 106.938 68.0954L105.162 53.2946L100.87 67.7993C100.87 67.7993 100.87 80.528 100.574 80.824C100.278 81.12 100.278 80.972 100.426 81.5641C100.574 82.1561 101.166 82.0081 100.722 82.4521C100.278 82.8961 100.13 82.1561 100.278 82.8961L100.426 83.6362L95.9859 83.6997C95.9859 83.6997 95.3938 82.4521 95.6899 82.0081C95.9859 81.5641 95.9681 81.6853 95.607 80.9586C95.2458 80.232 95.0978 80.084 95.2458 79.936C95.3938 79.788 95.3938 79.0007 95.3938 79.0007L96.1339 64.8392C96.1339 64.8392 96.2819 49.8904 96.2819 49.4464C96.293 49.2179 96.251 48.9899 96.1589 48.7805V48.1778L96.7259 46.0422L98.7039 40.9072Z" fill="#223549"/>
<path d="M84.3101 44.7169L86.6915 46.6374L99.6739 36.5741L98.9057 19.0593C98.1756 19.6434 97.5685 20.3665 97.1196 21.1867C96.6707 22.0069 96.3888 22.908 96.2904 23.8379L94.0661 33.7318L84.3101 44.7169Z" fill="#889BAF"/>
<path d="M96.6011 45.3315C101.196 45.9188 105.43 44.1395 109.43 42.7964C111.235 42.1901 113.054 42.8231 114.73 41.7978C114.006 34.6587 114.709 26.6171 116.249 18.0474C116.337 17.5623 116.245 17.0618 115.991 16.6392C115.737 16.2167 115.338 15.901 114.868 15.7511L109.907 14.3277L108.38 12.6427L104.435 13.6441L103.054 16.1402L98.3083 19.3466C98.0314 19.5337 97.8143 19.7968 97.6833 20.1042C97.5523 20.4117 97.5128 20.7504 97.5697 21.0798C98.9954 29.1392 98.665 37.4114 96.6011 45.3315Z" fill="#889BAF"/>
<path d="M111.267 47.5411C111.689 47.3204 112.006 46.943 112.152 46.4903C112.298 46.0375 112.259 45.5457 112.046 45.1208C111.998 45.027 111.943 44.9376 111.879 44.8536L115.394 39.5244L112.109 39.5266L109.275 44.587C108.916 44.9027 108.696 45.3469 108.662 45.8236C108.628 46.3004 108.783 46.7714 109.093 47.1347C109.356 47.4391 109.714 47.6451 110.109 47.7189C110.504 47.7927 110.913 47.73 111.267 47.5411L111.267 47.5411Z" fill="#FFB6B6"/>
<path d="M110.275 42.566L112.426 45.3315L119.954 34.1159L119.303 22.7216C119.22 21.2703 118.771 19.8636 117.999 18.6324C117.226 17.4011 116.155 16.3853 114.884 15.6793L115.038 33.1941L110.275 42.566Z" fill="#889BAF"/>
<path d="M104.87 11.9908C107.529 11.9908 109.684 9.83539 109.684 7.17651C109.684 4.51763 107.529 2.36218 104.87 2.36218C102.211 2.36218 100.056 4.51763 100.056 7.17651C100.056 9.83539 102.211 11.9908 104.87 11.9908Z" fill="#FFB6B6"/>
<path d="M101.803 4.35111C101.989 4.35257 102.174 4.3769 102.355 4.42356C102.71 4.50903 103.071 4.56958 103.435 4.60476C104.55 4.70961 105.597 5.18493 106.41 5.95478C107.222 6.72463 107.754 7.74462 107.919 8.85184C108.198 8.60793 108.835 8.15928 109.357 8.57625C109.365 8.58287 109.369 8.58628 109.388 8.57758C109.734 8.41321 110.349 6.38992 110.368 4.60845C110.378 3.66291 110.229 2.4555 109.464 2.07314L109.424 2.05299L109.413 2.00921C109.362 1.79651 108.791 1.43345 107.799 1.15086C105.996 0.637333 103.309 -0.363036 101.796 1.10918C101.681 1.6055 101.308 2.66762 100.932 2.78801C100.515 2.92127 100.155 3.03627 100.099 3.54753C100.051 4.27509 100.055 5.00508 100.109 5.73216C100.25 5.28725 100.527 4.89784 100.901 4.61876C101.168 4.43965 101.482 4.34625 101.803 4.35111Z" fill="#223549"/>
<path d="M133 88.7203C133 88.7443 132.995 88.7681 132.986 88.7904C132.977 88.8126 132.964 88.8328 132.947 88.8498C132.93 88.8667 132.909 88.8802 132.887 88.8894C132.865 88.8985 132.841 88.9032 132.817 88.9031H0.18283C0.13434 88.9031 0.0878388 88.8839 0.0535516 88.8496C0.0192644 88.8153 0 88.7688 0 88.7203C0 88.6718 0.0192644 88.6253 0.0535516 88.591C0.0878388 88.5567 0.13434 88.5375 0.18283 88.5375H132.817C132.841 88.5374 132.865 88.5421 132.887 88.5512C132.909 88.5604 132.93 88.5739 132.947 88.5909C132.964 88.6079 132.977 88.628 132.986 88.6503C132.995 88.6725 133 88.6963 133 88.7203Z" fill="#F1F3F5"/>
<path d="M54.8916 15.8757L36.8199 19.9415C36.3357 20.051 35.9147 20.3481 35.6493 20.7676C35.3839 21.1871 35.2957 21.6948 35.4041 22.1792L40.3596 44.2055L61.5928 39.4284C61.7673 39.3898 61.9269 39.3017 62.0527 39.1747L57.1294 17.2915C57.0199 16.8073 56.7228 16.3863 56.3032 16.1209C55.8837 15.8555 55.3761 15.7673 54.8916 15.8757Z" fill="#889BAF"/>
<path d="M48.3268 18.9086L38.4231 21.1367C37.9822 21.2364 37.5988 21.5068 37.357 21.8888C37.1152 22.2707 37.0348 22.733 37.1334 23.1741L41.7924 43.883L60.6506 39.6403L57.2576 24.5589C56.8205 22.6265 55.6348 20.9464 53.9605 19.8872C52.2863 18.8279 50.2602 18.476 48.3268 18.9086Z" fill="white"/>
<path d="M57.0242 38.5239L44.5916 41.321C44.5383 41.3329 44.4878 41.3552 44.4431 41.3866C44.3985 41.418 44.3604 41.4579 44.3312 41.504C44.3019 41.5501 44.2821 41.6016 44.2727 41.6554C44.2634 41.7092 44.2647 41.7643 44.2767 41.8176C44.2887 41.8708 44.3111 41.9212 44.3426 41.9659C44.3741 42.0105 44.414 42.0485 44.4602 42.0776C44.5064 42.1068 44.5579 42.1265 44.6117 42.1358C44.6655 42.145 44.7206 42.1435 44.7739 42.1314L57.2065 39.3344C57.2599 39.3225 57.3103 39.3003 57.3551 39.2689C57.3998 39.2375 57.4379 39.1976 57.4671 39.1514C57.4964 39.1053 57.5163 39.0539 57.5257 39C57.535 38.9462 57.5337 38.891 57.5217 38.8377C57.5097 38.7844 57.4873 38.734 57.4558 38.6894C57.4243 38.6447 57.3843 38.6067 57.3381 38.5776C57.2918 38.5484 57.2403 38.5287 57.1865 38.5195C57.1326 38.5103 57.0775 38.5118 57.0242 38.5239Z" fill="#E4E4E4"/>
<path d="M56.6634 36.9213L44.2308 39.7184C44.1232 39.7426 44.0296 39.8085 43.9707 39.9017C43.9117 39.9949 43.8922 40.1077 43.9164 40.2152C43.9406 40.3228 44.0065 40.4164 44.0997 40.4753C44.1929 40.5343 44.3057 40.5538 44.4133 40.5296L56.8459 37.7325C56.8992 37.7205 56.9496 37.6982 56.9942 37.6667C57.0388 37.6353 57.0768 37.5953 57.106 37.5492C57.1352 37.503 57.155 37.4516 57.1643 37.3978C57.1736 37.344 57.1723 37.2889 57.1603 37.2356C57.1483 37.1824 57.1259 37.132 57.0945 37.0874C57.063 37.0427 57.0231 37.0047 56.9769 36.9755C56.9308 36.9464 56.8794 36.9265 56.8256 36.9172C56.7718 36.9079 56.7167 36.9093 56.6634 36.9213H56.6634Z" fill="#E4E4E4"/>
<path d="M49.2599 36.9041L43.8706 38.1165C43.7631 38.1407 43.6696 38.2066 43.6107 38.2997C43.5518 38.3928 43.5323 38.5055 43.5565 38.6129C43.5807 38.7204 43.6466 38.8139 43.7397 38.8728C43.8327 38.9316 43.9454 38.9512 44.0529 38.927L49.4422 37.7145C49.4956 37.7026 49.5461 37.6804 49.5908 37.649C49.6355 37.6176 49.6736 37.5777 49.7029 37.5316C49.7321 37.4854 49.752 37.434 49.7614 37.3801C49.7707 37.3263 49.7694 37.2712 49.7574 37.2179C49.7454 37.1645 49.723 37.1141 49.6915 37.0695C49.66 37.0249 49.62 36.9869 49.5738 36.9577C49.5276 36.9286 49.476 36.9088 49.4222 36.8996C49.3683 36.8904 49.3132 36.8919 49.2599 36.9041Z" fill="#E4E4E4"/>
<path d="M55.5482 31.9636L43.1155 34.7607C43.0623 34.7727 43.0119 34.7951 42.9672 34.8265C42.9226 34.858 42.8846 34.8979 42.8554 34.9441C42.7965 35.0372 42.777 35.15 42.8012 35.2576C42.8254 35.3652 42.8913 35.4587 42.9845 35.5177C43.0777 35.5767 43.1905 35.5962 43.298 35.572L55.7307 32.7749C55.7839 32.7629 55.8343 32.7405 55.879 32.7091C55.9236 32.6776 55.9616 32.6377 55.9908 32.5916C56.02 32.5454 56.0398 32.494 56.0491 32.4402C56.0584 32.3864 56.057 32.3313 56.045 32.278C56.0331 32.2247 56.0107 32.1743 55.9792 32.1297C55.9478 32.0851 55.9078 32.0471 55.8617 32.0179C55.8156 31.9887 55.7641 31.9689 55.7103 31.9596C55.6565 31.9503 55.6014 31.9516 55.5482 31.9636Z" fill="#889BAF"/>
<path d="M55.1883 30.3618L42.7556 33.1589C42.7023 33.1707 42.6519 33.193 42.6072 33.2244C42.5625 33.2558 42.5245 33.2957 42.4952 33.3419C42.466 33.388 42.4461 33.4394 42.4368 33.4932C42.4274 33.547 42.4288 33.6021 42.4408 33.6554C42.4528 33.7087 42.4752 33.7591 42.5066 33.8037C42.5381 33.8483 42.5781 33.8863 42.6243 33.9155C42.6705 33.9446 42.7219 33.9644 42.7758 33.9736C42.8296 33.9828 42.8847 33.9814 42.938 33.9693L55.3706 31.1722C55.4238 31.1603 55.4742 31.138 55.5189 31.1066C55.5635 31.0751 55.6015 31.0352 55.6307 30.9891C55.6599 30.943 55.6797 30.8916 55.689 30.8378C55.6984 30.7841 55.697 30.729 55.685 30.6757C55.673 30.6225 55.6507 30.5721 55.6192 30.5275C55.5878 30.4829 55.5478 30.445 55.5017 30.4158C55.4556 30.3867 55.4041 30.3669 55.3504 30.3576C55.2966 30.3483 55.2415 30.3497 55.1883 30.3618Z" fill="#889BAF"/>
<path d="M47.7842 30.3438L42.3948 31.5562C42.3415 31.5682 42.2912 31.5906 42.2465 31.622C42.2019 31.6535 42.1639 31.6934 42.1347 31.7396C42.1055 31.7857 42.0857 31.8372 42.0764 31.891C42.0671 31.9448 42.0685 31.9999 42.0805 32.0531C42.0924 32.1064 42.1148 32.1568 42.1463 32.2014C42.1777 32.246 42.2176 32.284 42.2638 32.3132C42.3099 32.3424 42.3614 32.3622 42.4152 32.3716C42.469 32.3809 42.5241 32.3795 42.5773 32.3675L47.9667 31.155C48.02 31.143 48.0703 31.1207 48.115 31.0892C48.1596 31.0578 48.1976 31.0178 48.2268 30.9717C48.256 30.9255 48.2758 30.8741 48.2851 30.8203C48.2944 30.7665 48.293 30.7114 48.2811 30.6581C48.2691 30.6049 48.2467 30.5545 48.2153 30.5098C48.1838 30.4652 48.1439 30.4272 48.0977 30.398C48.0516 30.3688 48.0001 30.349 47.9463 30.3397C47.8925 30.3304 47.8374 30.3318 47.7842 30.3438Z" fill="#889BAF"/>
<path d="M54.0726 25.4032L41.6399 28.2003C41.5324 28.2245 41.4388 28.2904 41.3798 28.3836C41.3209 28.4768 41.3014 28.5896 41.3256 28.6972C41.3498 28.8048 41.4157 28.8983 41.5089 28.9573C41.6021 29.0162 41.7149 29.0357 41.8225 29.0115L54.2551 26.2145C54.3084 26.2025 54.3587 26.1801 54.4034 26.1487C54.448 26.1172 54.486 26.0773 54.5152 26.0311C54.5444 25.985 54.5642 25.9335 54.5735 25.8797C54.5828 25.8259 54.5814 25.7708 54.5695 25.7176C54.5575 25.6643 54.5351 25.6139 54.5037 25.5693C54.4722 25.5247 54.4323 25.4867 54.3861 25.4575C54.34 25.4283 54.2885 25.4085 54.2347 25.3992C54.1809 25.3898 54.1258 25.3912 54.0726 25.4032Z" fill="#889BAF"/>
<path d="M53.7112 23.8014L41.2786 26.5985C41.2253 26.6105 41.175 26.6328 41.1303 26.6643C41.0857 26.6957 41.0477 26.7357 41.0185 26.7818C40.9596 26.875 40.94 26.9878 40.9642 27.0954C40.9884 27.203 41.0544 27.2965 41.1476 27.3555C41.2408 27.4144 41.3535 27.4339 41.4611 27.4097L53.8938 24.6127C53.947 24.6007 53.9974 24.5783 54.042 24.5469C54.0867 24.5154 54.1247 24.4755 54.1538 24.4293C54.183 24.3832 54.2029 24.3317 54.2122 24.2779C54.2215 24.2241 54.2201 24.169 54.2081 24.1158C54.1961 24.0625 54.1738 24.0121 54.1423 23.9675C54.1109 23.9229 54.0709 23.8849 54.0248 23.8557C53.9786 23.8265 53.9272 23.8067 53.8734 23.7974C53.8196 23.788 53.7645 23.7894 53.7112 23.8014Z" fill="#889BAF"/>
<path d="M46.3076 23.7833L40.9183 24.9958C40.8107 25.02 40.7171 25.086 40.6582 25.1792C40.5992 25.2723 40.5797 25.3851 40.6039 25.4927C40.6281 25.6003 40.694 25.6938 40.7872 25.7528C40.8804 25.8118 40.9932 25.8313 41.1008 25.8071L46.4901 24.5946C46.5434 24.5826 46.5938 24.5602 46.6384 24.5288C46.683 24.4973 46.721 24.4574 46.7502 24.4112C46.7794 24.3651 46.7992 24.3137 46.8085 24.2599C46.8179 24.2061 46.8165 24.151 46.8045 24.0977C46.7925 24.0444 46.7701 23.994 46.7387 23.9494C46.7072 23.9048 46.6673 23.8668 46.6212 23.8376C46.575 23.8084 46.5236 23.7886 46.4698 23.7793C46.416 23.77 46.3609 23.7713 46.3076 23.7833Z" fill="#889BAF"/>
<path d="M18.8379 41.3394C18.7201 41.3395 18.6071 41.3863 18.5238 41.4696C18.4405 41.5529 18.3937 41.6659 18.3936 41.7837V87.7288C18.3937 87.8466 18.4405 87.9596 18.5238 88.0429C18.6071 88.1262 18.7201 88.1731 18.8379 88.1732H76.4439C76.5617 88.173 76.6746 88.1262 76.7579 88.0429C76.8412 87.9595 76.888 87.8466 76.8882 87.7288V49.1589C76.888 49.041 76.8412 48.9281 76.7579 48.8448C76.6746 48.7615 76.5617 48.7146 76.4439 48.7144H43.3818C43.0462 48.7147 42.7226 48.5897 42.4743 48.3638L35.0415 41.6102C34.8497 41.4357 34.5997 41.3391 34.3405 41.3394H18.8379Z" fill="#F4DDA3"/>
<path d="M87.5858 29.4148L56.741 16.1541C55.9139 15.7997 54.9801 15.7878 54.1443 16.121C53.3085 16.4542 52.6389 17.1054 52.2826 17.9316L36.1201 55.5261L72.361 71.1066C72.6582 71.2355 72.9862 71.2761 73.3058 71.2235L89.3633 33.8732C89.7178 33.0461 89.7297 32.1123 89.3964 31.2765C89.0632 30.4406 88.4121 29.7711 87.5858 29.4148Z" fill="#B0BDC9"/>
<path d="M74.7257 26.8813L57.8219 19.6142C57.0689 19.2913 56.2185 19.2803 55.4574 19.5835C54.6963 19.8867 54.0865 20.4795 53.7617 21.2317L38.5659 56.5777L70.7531 70.4155L81.8195 44.6745C83.2341 41.3739 83.2816 37.6469 81.9517 34.3112C80.6218 30.9755 78.0231 28.3035 74.7257 26.8813Z" fill="white"/>
<path d="M66.619 64.9189L45.3989 55.7961C45.3081 55.7568 45.2104 55.7359 45.1114 55.7345C45.0125 55.733 44.9142 55.7511 44.8222 55.7877C44.7303 55.8243 44.6464 55.8786 44.5755 55.9476C44.5046 56.0166 44.4479 56.0989 44.4089 56.1899C44.3698 56.2808 44.349 56.3785 44.3477 56.4775C44.3464 56.5764 44.3647 56.6747 44.4014 56.7666C44.4381 56.8585 44.4926 56.9422 44.5617 57.013C44.6309 57.0839 44.7133 57.1404 44.8043 57.1793L66.0243 66.3021C66.1152 66.3414 66.2129 66.3623 66.3118 66.3638C66.4108 66.3652 66.5091 66.3471 66.601 66.3105C66.693 66.274 66.7768 66.2196 66.8477 66.1506C66.9187 66.0816 66.9753 65.9993 67.0144 65.9083C67.0535 65.8174 67.0743 65.7197 67.0755 65.6207C67.0768 65.5218 67.0586 65.4235 67.0219 65.3316C66.9851 65.2397 66.9306 65.156 66.8615 65.0852C66.7924 65.0143 66.71 64.9578 66.619 64.9189Z" fill="#E4E4E4"/>
<path d="M67.7949 62.1835L46.5749 53.0607C46.3913 52.9818 46.1839 52.9791 45.9983 53.0532C45.8127 53.1272 45.6641 53.2719 45.5852 53.4555C45.5063 53.639 45.5035 53.8464 45.5775 54.0321C45.6514 54.2177 45.7961 54.3663 45.9796 54.4453L67.1996 63.5682C67.2906 63.6072 67.3883 63.628 67.4873 63.6294C67.5862 63.6307 67.6844 63.6125 67.7764 63.5758C67.8683 63.5392 67.9521 63.4848 68.023 63.4158C68.0939 63.3467 68.1505 63.2644 68.1896 63.1735C68.2287 63.0826 68.2495 62.9848 68.2508 62.8859C68.2521 62.7869 68.234 62.6887 68.1973 62.5967C68.1607 62.5048 68.1063 62.421 68.0372 62.3501C67.9682 62.2792 67.8859 62.2226 67.7949 62.1835H67.7949Z" fill="#E4E4E4"/>
<path d="M56.9485 54.2812L47.75 50.3266C47.6591 50.2875 47.5615 50.2666 47.4626 50.2652C47.3637 50.2638 47.2655 50.2819 47.1736 50.3185C47.0817 50.3551 46.9979 50.4095 46.927 50.4785C46.8561 50.5475 46.7995 50.6297 46.7604 50.7206C46.7214 50.8115 46.7006 50.9092 46.6993 51.0081C46.698 51.107 46.7162 51.2052 46.7529 51.2971C46.7895 51.3889 46.844 51.4727 46.913 51.5435C46.9821 51.6143 47.0644 51.6709 47.1553 51.7098L56.3539 55.6644C56.4447 55.7036 56.5424 55.7245 56.6413 55.7258C56.7402 55.7272 56.8384 55.7091 56.9303 55.6725C57.0222 55.6359 57.106 55.5816 57.1769 55.5126C57.2478 55.4436 57.3044 55.3613 57.3434 55.2704C57.3825 55.1795 57.4033 55.0819 57.4046 54.983C57.4059 54.884 57.3876 54.7859 57.351 54.694C57.3143 54.6021 57.2599 54.5184 57.1908 54.4475C57.1218 54.3767 57.0394 54.3202 56.9485 54.2812Z" fill="#B0BDC9"/>
<path d="M71.4326 53.7217L50.2126 44.5989C50.029 44.5202 49.8217 44.5176 49.6362 44.5917C49.4508 44.6658 49.3023 44.8104 49.2234 44.9939C49.1445 45.1774 49.1417 45.3847 49.2155 45.5703C49.2894 45.7558 49.4339 45.9045 49.6173 45.9836L70.8373 55.1064C70.9283 55.1456 71.0261 55.1666 71.1251 55.168C71.2242 55.1694 71.3225 55.1513 71.4146 55.1147C71.5066 55.0781 71.5905 55.0237 71.6615 54.9546C71.7325 54.8855 71.7892 54.8031 71.8283 54.7121C71.8674 54.6211 71.8882 54.5233 71.8895 54.4243C71.8908 54.3252 71.8725 54.2269 71.8358 54.1349C71.799 54.0429 71.7445 53.9591 71.6753 53.8882C71.6062 53.8173 71.5237 53.7607 71.4326 53.7217Z" fill="#B0BDC9"/>
<path d="M72.6092 50.9878L51.3892 41.8649C51.2983 41.8257 51.2006 41.8047 51.1017 41.8033C51.0027 41.8019 50.9044 41.8199 50.8125 41.8565C50.7205 41.8931 50.6367 41.9474 50.5657 42.0165C50.4948 42.0855 50.4382 42.1678 50.3991 42.2587C50.36 42.3496 50.3392 42.4474 50.338 42.5463C50.3367 42.6453 50.3549 42.7435 50.3916 42.8354C50.4284 42.9273 50.4829 43.0111 50.552 43.0819C50.6211 43.1527 50.7035 43.2092 50.7945 43.2482L72.0146 52.371C72.1054 52.4102 72.2031 52.4312 72.3021 52.4326C72.401 52.434 72.4993 52.416 72.5912 52.3794C72.6832 52.3428 72.767 52.2885 72.838 52.2194C72.9089 52.1504 72.9655 52.0681 73.0046 51.9772C73.0437 51.8863 73.0645 51.7885 73.0658 51.6896C73.0671 51.5906 73.0488 51.4924 73.0121 51.4005C72.9754 51.3086 72.9209 51.2248 72.8517 51.154C72.7826 51.0832 72.7002 51.0267 72.6092 50.9878Z" fill="#B0BDC9"/>
<path d="M61.7632 43.084L52.5646 39.1294C52.381 39.0505 52.1736 39.0478 51.988 39.1219C51.8024 39.1959 51.6539 39.3406 51.5749 39.5242C51.496 39.7078 51.4932 39.9152 51.5672 40.1008C51.6412 40.2864 51.7858 40.435 51.9693 40.514L61.1679 44.4686C61.2588 44.5078 61.3566 44.5286 61.4555 44.53C61.5545 44.5313 61.6528 44.5131 61.7448 44.4765C61.8367 44.4399 61.9206 44.3855 61.9915 44.3164C62.0624 44.2474 62.119 44.165 62.1581 44.0741C62.1972 43.9831 62.218 43.8854 62.2193 43.7864C62.2207 43.6874 62.2025 43.5892 62.1658 43.4972C62.1291 43.4053 62.0747 43.3215 62.0056 43.2506C61.9365 43.1796 61.8541 43.1231 61.7632 43.084Z" fill="#B0BDC9"/>
<path d="M76.2469 42.5245L55.0268 33.4017C54.8433 33.3231 54.636 33.3205 54.4506 33.3946C54.2651 33.4687 54.1167 33.6133 54.0378 33.7968C53.959 33.9802 53.9561 34.1875 54.0299 34.373C54.1038 34.5585 54.2482 34.7072 54.4315 34.7863L75.6516 43.9092C75.7425 43.9483 75.8403 43.9691 75.9392 43.9705C76.0382 43.9718 76.1365 43.9537 76.2284 43.917C76.3204 43.8804 76.4042 43.826 76.4752 43.7569C76.5461 43.6879 76.6027 43.6055 76.6418 43.5146C76.6809 43.4236 76.7017 43.3259 76.703 43.2269C76.7043 43.1279 76.6861 43.0297 76.6495 42.9377C76.6128 42.8458 76.5583 42.762 76.4893 42.6911C76.4202 42.6202 76.3378 42.5636 76.2469 42.5245Z" fill="#B0BDC9"/>
<path d="M77.4219 39.7905L56.2018 30.6676C56.0183 30.5889 55.811 30.5864 55.6255 30.6604C55.44 30.7345 55.2915 30.8792 55.2126 31.0626C55.1338 31.2461 55.1309 31.4534 55.2048 31.639C55.2787 31.8245 55.4232 31.9732 55.6066 32.0523L76.8266 41.1751C76.9176 41.2145 77.0154 41.2356 77.1146 41.2372C77.2137 41.2387 77.3122 41.2207 77.4043 41.1841C77.4965 41.1475 77.5805 41.0931 77.6516 41.024C77.7227 40.9549 77.7795 40.8724 77.8186 40.7813C77.8578 40.6902 77.8786 40.5923 77.8798 40.4932C77.8811 40.394 77.8627 40.2956 77.8259 40.2036C77.789 40.1115 77.7344 40.0276 77.6651 39.9568C77.5957 39.8859 77.5131 39.8294 77.4219 39.7905Z" fill="#B0BDC9"/>
<path d="M66.5767 31.8868L57.3781 27.9322C57.1945 27.8534 56.9871 27.8507 56.8015 27.9247C56.6159 27.9988 56.4673 28.1435 56.3884 28.327C56.3095 28.5106 56.3067 28.718 56.3807 28.9036C56.4546 29.0893 56.5993 29.2379 56.7828 29.3169L65.9814 33.2715C66.0723 33.3106 66.17 33.3315 66.269 33.3328C66.368 33.3342 66.4663 33.316 66.5582 33.2794C66.6502 33.2427 66.734 33.1883 66.805 33.1193C66.8759 33.0502 66.9325 32.9679 66.9716 32.8769C67.0107 32.786 67.0315 32.6882 67.0328 32.5893C67.0341 32.4903 67.0159 32.392 66.9793 32.3001C66.9426 32.2081 66.8881 32.1243 66.8191 32.0534C66.75 31.9825 66.6676 31.9259 66.5767 31.8868V31.8868Z" fill="#B0BDC9"/>
<path d="M43.6758 43.0695L25.6041 47.1353C25.1199 47.2448 24.6989 47.5419 24.4335 47.9614C24.1681 48.381 24.0799 48.8886 24.1883 49.3731L29.1438 71.3993L50.377 66.6223C50.5515 66.5836 50.7111 66.4955 50.8368 66.3685L45.9136 44.4853C45.804 44.0011 45.5069 43.5801 45.0874 43.3147C44.6679 43.0493 44.1603 42.9611 43.6758 43.0695Z" fill="#D7DEE4"/>
<path d="M37.112 46.1026L27.2082 48.3307C26.7673 48.4304 26.3839 48.7008 26.1422 49.0828C25.9004 49.4647 25.82 49.9269 25.9185 50.3681L30.5776 71.077L49.4358 66.8343L46.0428 51.7529C45.6057 49.8205 44.4199 48.1404 42.7457 47.0811C41.0714 46.0219 39.0454 45.6699 37.112 46.1026Z" fill="white"/>
<path d="M45.8084 65.7179L33.3757 68.515C33.3224 68.5269 33.272 68.5492 33.2273 68.5806C33.1826 68.612 33.1446 68.6519 33.1153 68.698C33.0861 68.7441 33.0662 68.7955 33.0569 68.8493C33.0476 68.9031 33.0489 68.9583 33.0609 69.0115C33.0729 69.0648 33.0953 69.1152 33.1268 69.1598C33.1582 69.2045 33.1982 69.2424 33.2444 69.2716C33.2906 69.3007 33.342 69.3205 33.3959 69.3297C33.4497 69.339 33.5048 69.3375 33.5581 69.3254L45.9907 66.5283C46.044 66.5165 46.0945 66.4942 46.1392 66.4628C46.184 66.4315 46.2221 66.3915 46.2513 66.3454C46.2806 66.2993 46.3005 66.2478 46.3098 66.194C46.3192 66.1402 46.3179 66.085 46.3059 66.0317C46.2939 65.9784 46.2715 65.928 46.24 65.8833C46.2084 65.8387 46.1684 65.8007 46.1222 65.7716C46.076 65.7424 46.0245 65.7227 45.9706 65.7135C45.9168 65.7043 45.8616 65.7058 45.8084 65.7179Z" fill="#E4E4E4"/>
<path d="M45.4481 64.1152L33.0154 66.9123C32.9078 66.9365 32.8143 67.0025 32.7553 67.0957C32.6964 67.1889 32.6769 67.3016 32.7011 67.4092C32.7253 67.5168 32.7912 67.6104 32.8844 67.6693C32.9776 67.7283 33.0904 67.7478 33.1979 67.7236L45.6306 64.9265C45.7382 64.9023 45.8317 64.8364 45.8907 64.7432C45.9496 64.65 45.9691 64.5372 45.9449 64.4296C45.9207 64.322 45.8548 64.2285 45.7616 64.1695C45.6684 64.1106 45.5556 64.091 45.4481 64.1152Z" fill="#E4E4E4"/>
<path d="M38.0441 64.098L32.6547 65.3105C32.6015 65.3225 32.5512 65.3448 32.5066 65.3763C32.462 65.4077 32.4241 65.4476 32.3949 65.4937C32.3658 65.5398 32.346 65.5911 32.3367 65.6449C32.3273 65.6986 32.3287 65.7537 32.3407 65.8069C32.3527 65.8601 32.375 65.9104 32.4064 65.955C32.4379 65.9996 32.4777 66.0376 32.5238 66.0667C32.5699 66.0959 32.6213 66.1157 32.6751 66.125C32.7288 66.1343 32.7839 66.1329 32.8371 66.1209L38.2264 64.9085C38.2798 64.8966 38.3302 64.8744 38.375 64.843C38.4197 64.8116 38.4578 64.7717 38.4871 64.7255C38.5163 64.6794 38.5362 64.6279 38.5456 64.5741C38.5549 64.5203 38.5536 64.4651 38.5416 64.4118C38.5296 64.3585 38.5072 64.3081 38.4757 64.2635C38.4442 64.2188 38.4042 64.1808 38.3579 64.1517C38.3117 64.1225 38.2602 64.1028 38.2064 64.0936C38.1525 64.0844 38.0974 64.0859 38.0441 64.098Z" fill="#E4E4E4"/>
<path d="M44.3328 59.1576L31.9002 61.9547C31.8469 61.9667 31.7965 61.989 31.7519 62.0205C31.7073 62.0519 31.6693 62.0919 31.6401 62.138C31.5811 62.2312 31.5616 62.344 31.5858 62.4516C31.61 62.5591 31.676 62.6527 31.7692 62.7117C31.8623 62.7706 31.9751 62.7901 32.0827 62.7659L44.5153 59.9689C44.6229 59.9447 44.7165 59.8787 44.7754 59.7855C44.8344 59.6923 44.8539 59.5795 44.8297 59.472C44.8055 59.3644 44.7396 59.2708 44.6464 59.2119C44.5532 59.1529 44.4404 59.1334 44.3328 59.1576Z" fill="#E4E4E4"/>
<path d="M43.9719 57.5557L31.5393 60.3528C31.486 60.3647 31.4356 60.387 31.3909 60.4184C31.3462 60.4498 31.3082 60.4897 31.2789 60.5358C31.2497 60.5819 31.2298 60.6334 31.2205 60.6872C31.2111 60.741 31.2125 60.7961 31.2245 60.8494C31.2365 60.9027 31.2588 60.9531 31.2903 60.9977C31.3218 61.0423 31.3618 61.0803 31.408 61.1094C31.4541 61.1386 31.5056 61.1583 31.5594 61.1676C31.6133 61.1768 31.6684 61.1753 31.7216 61.1633L44.1543 58.3662C44.2075 58.3542 44.2579 58.3319 44.3025 58.3005C44.3472 58.2691 44.3852 58.2292 44.4144 58.1831C44.4436 58.137 44.4634 58.0856 44.4727 58.0318C44.4821 57.978 44.4807 57.923 44.4687 57.8697C44.4567 57.8165 44.4344 57.7661 44.4029 57.7215C44.3715 57.6769 44.3315 57.6389 44.2854 57.6098C44.2393 57.5806 44.1878 57.5608 44.134 57.5516C44.0803 57.5423 44.0252 57.5437 43.9719 57.5557Z" fill="#E4E4E4"/>
<path d="M36.5679 57.5376L31.1785 58.7501C31.0709 58.7743 30.9774 58.8402 30.9184 58.9334C30.8595 59.0266 30.8399 59.1394 30.8641 59.247C30.8883 59.3546 30.9543 59.4481 31.0475 59.5071C31.1407 59.566 31.2535 59.5856 31.361 59.5613L36.7504 58.3489C36.858 58.3247 36.9515 58.2587 37.0105 58.1655C37.0694 58.0723 37.089 57.9596 37.0647 57.852C37.0405 57.7444 36.9746 57.6508 36.8814 57.5919C36.7882 57.5329 36.6754 57.5134 36.5679 57.5376Z" fill="#E4E4E4"/>
<path d="M42.8563 52.5972L30.4236 55.3943C30.3704 55.4062 30.32 55.4286 30.2753 55.4601C30.2307 55.4915 30.1927 55.5315 30.1635 55.5776C30.1046 55.6708 30.0851 55.7836 30.1093 55.8912C30.1335 55.9987 30.1994 56.0923 30.2926 56.1512C30.3858 56.2102 30.4986 56.2297 30.6061 56.2055L43.0388 53.4084C43.092 53.3964 43.1424 53.3741 43.1871 53.3426C43.2317 53.3112 43.2697 53.2712 43.2989 53.2251C43.3281 53.179 43.3479 53.1275 43.3572 53.0737C43.3665 53.0199 43.3651 52.9648 43.3531 52.9115C43.3412 52.8583 43.3188 52.8079 43.2873 52.7633C43.2559 52.7186 43.216 52.6806 43.1698 52.6514C43.1237 52.6223 43.0722 52.6024 43.0184 52.5931C42.9646 52.5838 42.9095 52.5852 42.8563 52.5972H42.8563Z" fill="#D7DEE4"/>
<path d="M42.4964 50.9954L30.0638 53.7925C30.0105 53.8044 29.9601 53.8268 29.9155 53.8583C29.8709 53.8897 29.8329 53.9297 29.8037 53.9758C29.7447 54.069 29.7252 54.1818 29.7494 54.2893C29.7736 54.3969 29.8396 54.4905 29.9327 54.5494C30.0259 54.6084 30.1387 54.6279 30.2463 54.6037L42.6789 51.8066C42.7865 51.7824 42.88 51.7165 42.939 51.6233C42.998 51.5301 43.0175 51.4173 42.9933 51.3097C42.9691 51.2022 42.9031 51.1086 42.8099 51.0496C42.7168 50.9907 42.604 50.9712 42.4964 50.9954H42.4964Z" fill="#D7DEE4"/>
<path d="M35.0923 50.9773L29.7029 52.1898C29.5953 52.214 29.5018 52.2799 29.4428 52.3731C29.3839 52.4663 29.3644 52.5791 29.3886 52.6867C29.4128 52.7943 29.4787 52.8878 29.5719 52.9468C29.6651 53.0057 29.7779 53.0253 29.8854 53.001L35.2748 51.7886C35.3281 51.7766 35.3784 51.7542 35.4231 51.7228C35.4677 51.6913 35.5057 51.6514 35.5349 51.6052C35.5641 51.5591 35.5839 51.5076 35.5932 51.4538C35.6025 51.4 35.6011 51.3449 35.5892 51.2917C35.5772 51.2384 35.5548 51.188 35.5234 51.1434C35.4919 51.0988 35.452 51.0608 35.4058 51.0316C35.3597 51.0024 35.3082 50.9826 35.2544 50.9733C35.2006 50.9639 35.1455 50.9653 35.0923 50.9773Z" fill="#D7DEE4"/>
<path d="M18.4571 53.407C18.3987 53.407 18.3409 53.4185 18.287 53.4408C18.2331 53.4631 18.1841 53.4958 18.1429 53.5371C18.1016 53.5783 18.0689 53.6273 18.0465 53.6812C18.0242 53.7351 18.0127 53.7928 18.0127 53.8512C18.0127 53.8678 18.0264 88.0859 18.0264 88.0859C18.0385 88.1945 18.0903 88.2947 18.1718 88.3675C18.2532 88.4403 18.3587 88.4805 18.4679 88.4805H80.3492C80.4584 88.4806 80.5639 88.4404 80.6454 88.3676C80.7268 88.2948 80.7786 88.1945 80.7907 88.0859L84.6425 53.9011C84.6495 53.8389 84.6433 53.776 84.6243 53.7164C84.6054 53.6568 84.574 53.6019 84.5324 53.5552C84.4909 53.5083 84.4399 53.4709 84.3828 53.4453C84.3256 53.4197 84.2637 53.4067 84.2011 53.407L18.4571 53.407Z" fill="#F4DDA3"/>
<path d="M22.8232 55.3939C22.1954 55.3957 21.5935 55.6445 21.1476 56.0865C20.7018 56.5285 20.4477 57.1281 20.4404 57.7559L20.5177 84.275C20.5149 84.5897 20.5745 84.9018 20.6931 85.1933C20.8116 85.4848 20.9867 85.7499 21.2082 85.9734C21.4297 86.1969 21.6934 86.3742 21.9838 86.4953C22.2743 86.6163 22.5858 86.6786 22.9005 86.6786H62.1823C66.6876 86.6816 71.0358 85.0235 74.3951 82.0214C77.7545 79.0193 79.889 74.884 80.3905 70.4068L81.7835 58.0435C81.8211 57.7102 81.7879 57.3727 81.686 57.0531C81.5842 56.7335 81.416 56.439 81.1925 56.1889C80.9689 55.9388 80.6951 55.7387 80.389 55.6017C80.0828 55.4647 79.7511 55.3939 79.4157 55.3939H22.8232ZM83.0203 55.3939L83.0133 55.2402H83.0203V55.3939Z" fill="#F1D285"/>
</svg>
