<svg width="93" height="106" viewBox="0 0 93 106" fill="none" xmlns="http://www.w3.org/2000/svg">
<path d="M65.1093 8.56762L23.1782 38.3462L23.3597 38.6018L65.2908 8.82322L65.1093 8.56762Z" fill="#889BAF"/>
<path d="M66.0579 8.65503H21.4058V8.96849H66.0579V8.65503Z" fill="#D7DEE4"/>
<path d="M66.0579 15.8645H21.4058V16.178H66.0579V15.8645Z" fill="#D7DEE4"/>
<path d="M66.0579 23.0742H21.4058V23.3877H66.0579V23.0742Z" fill="#D7DEE4"/>
<path d="M66.0579 30.2837H21.4058V30.5972H66.0579V30.2837Z" fill="#D7DEE4"/>
<path d="M66.0579 37.4932H21.4058V37.8066H66.0579V37.4932Z" fill="#D7DEE4"/>
<path d="M70.0946 45.1592H21.186V0.0751953H21.4995V31.9513C21.4995 35.3711 22.858 38.6509 25.2762 41.0691C27.6944 43.4873 30.9742 44.8458 34.394 44.8458H70.0946V45.1592Z" fill="#889BAF"/>
<path d="M44.5388 38.4738C51.8963 38.4738 57.8608 32.5094 57.8608 25.1518C57.8608 17.7943 51.8963 11.8298 44.5388 11.8298C37.1813 11.8298 31.2168 17.7943 31.2168 25.1518C31.2168 32.5094 37.1813 38.4738 44.5388 38.4738Z" fill="#EDC766"/>
<path d="M63.8417 24.3617L74.0193 32.2379C74.4515 32.5703 74.9971 32.7194 75.5382 32.6531C76.0794 32.5869 76.5729 32.3105 76.9121 31.8836C77.0875 31.6628 77.2162 31.4085 77.2902 31.1363C77.3642 30.8641 77.382 30.5797 77.3425 30.3005C77.303 30.0212 77.207 29.7529 77.0605 29.5119C76.9139 29.2709 76.7198 29.0623 76.49 28.8988L65.6671 21.0415L59.2919 15.9899C59.3913 15.6312 59.3779 15.2506 59.2535 14.8998C59.129 14.549 58.8996 14.245 58.5964 14.0291C58.2932 13.8133 57.9309 13.696 57.5587 13.6932C57.1865 13.6904 56.8224 13.8022 56.516 14.0135C56.2096 14.2249 55.9757 14.5254 55.846 14.8743C55.7163 15.2232 55.6972 15.6035 55.7912 15.9637C55.8852 16.3238 56.0878 16.6463 56.3715 16.8873C56.6552 17.1283 57.0062 17.2761 57.3768 17.3106L63.8417 24.3617Z" fill="#FFB6B6"/>
<path d="M47.8303 35.6528C45.1645 35.6528 42.5585 34.8623 40.3419 33.3812C38.1253 31.9001 36.3978 29.795 35.3776 27.3321C34.3574 24.8692 34.0905 22.1591 34.6106 19.5445C35.1306 16.9298 36.4144 14.5282 38.2994 12.6431C40.1844 10.7581 42.5861 9.47437 45.2007 8.95429C47.8153 8.43421 50.5255 8.70114 52.9884 9.72131C55.4513 10.7415 57.5564 12.4691 59.0375 14.6857C60.5185 16.9022 61.309 19.5082 61.309 22.174C61.305 25.7476 59.8836 29.1736 57.3567 31.7005C54.8299 34.2273 51.4038 35.6487 47.8303 35.6528ZM47.8303 9.00876C48.8511 14.0601 34.665 14.9147 34.665 22.174C34.669 25.6645 36.0573 29.0108 38.5254 31.4789C40.9935 33.9471 44.3399 35.3354 47.8303 35.3393C55.0897 35.3393 61.1463 29.4318 60.9956 22.174C60.8446 14.9035 46.8095 3.95739 47.8303 9.00877V9.00876Z" fill="#395979"/>
<path d="M72.276 23.8755C75.0812 23.8755 77.3552 21.6015 77.3552 18.7963C77.3552 15.9911 75.0812 13.717 72.276 13.717C69.4708 13.717 67.1968 15.9911 67.1968 18.7963C67.1968 21.6015 69.4708 23.8755 72.276 23.8755Z" fill="#FFB6B6"/>
<path d="M57.3124 101.46L55.5135 101.46L54.6577 94.5212H57.3127L57.3124 101.46Z" fill="#FFB6B6"/>
<path d="M51.8832 104.114C51.8841 104.315 51.9644 104.508 52.1067 104.651C52.2491 104.794 52.442 104.874 52.6435 104.876H56.0298L56.1347 104.658L56.6137 103.67L56.7992 104.658L56.8403 104.876H58.1176L58.0993 104.657L57.7587 100.572L57.3132 100.545L55.3881 100.431L54.9152 100.402V101.622C54.5564 102.003 51.7403 103.446 51.8832 104.114Z" fill="#223549"/>
<path d="M89.4448 93.5321L88.0719 94.6944L82.9355 89.9517L84.9619 88.2363L89.4448 93.5321Z" fill="#FFB6B6"/>
<path d="M87.0161 99.0659C87.147 99.2192 87.333 99.3146 87.5338 99.3315C87.7346 99.3484 87.934 99.2854 88.0886 99.1561L90.6731 96.9681L90.6127 96.7343L90.3397 95.6705L91.1199 96.305L91.2917 96.4444L92.2665 95.6191L92.1111 95.4638L89.2122 92.5667L88.8544 92.8336L87.3115 93.9905L86.9319 94.274L87.7199 95.2047C87.6926 95.7279 86.4757 98.6488 87.0161 99.0659Z" fill="#223549"/>
<path d="M42.5081 102.303C42.4353 102.306 42.3632 102.287 42.3016 102.248C42.2399 102.209 42.1918 102.152 42.1637 102.085C42.1355 102.018 42.1288 101.943 42.1443 101.872C42.1598 101.801 42.1968 101.736 42.2504 101.687L42.2747 101.59C42.2715 101.582 42.2683 101.574 42.2651 101.566C42.1917 101.393 42.0687 101.245 41.9116 101.142C41.7544 101.038 41.5702 100.983 41.382 100.984C41.1937 100.984 41.0099 101.041 40.8535 101.146C40.6972 101.25 40.5753 101.399 40.5032 101.573C40.215 102.267 39.8482 102.962 39.7578 103.696C39.718 104.02 39.7348 104.349 39.8074 104.668C39.1306 103.191 38.7792 101.587 38.7769 99.9627C38.7768 99.5551 38.7994 99.1479 38.8447 98.7428C38.8822 98.4108 38.9342 98.0811 39.0006 97.7538C39.3634 95.9779 40.1422 94.3133 41.2732 92.8968C41.8206 92.5982 42.2633 92.1389 42.5416 91.5809C42.6425 91.3803 42.7137 91.1661 42.7532 90.9451C42.6915 90.9532 42.5204 90.0128 42.567 89.9551C42.4809 89.8245 42.3269 89.7596 42.2329 89.6322C41.7655 88.9985 41.1215 89.1091 40.7853 89.9703C40.0671 90.3328 40.0602 90.9339 40.5008 91.512C40.7812 91.8798 40.8197 92.3775 41.0657 92.7713C41.0404 92.8037 41.0141 92.8351 40.9888 92.8675C40.5262 93.4624 40.1229 94.1011 39.7849 94.7747C39.8671 94.0201 39.769 93.2568 39.4987 92.5476C39.2247 91.8866 38.7111 91.3299 38.2589 90.7585C38.1393 90.605 37.9768 90.4904 37.7921 90.4293C37.6074 90.3681 37.4087 90.363 37.221 90.4147C37.0334 90.4664 36.8654 90.5726 36.7381 90.7198C36.6108 90.867 36.5301 91.0487 36.506 91.2418C36.5051 91.2502 36.5042 91.2586 36.5033 91.2671C36.5705 91.3049 36.6362 91.3452 36.7006 91.3877C36.7814 91.4417 36.844 91.5189 36.8802 91.6091C36.9165 91.6993 36.9246 91.7983 36.9036 91.8932C36.8825 91.9881 36.8333 92.0745 36.7624 92.1409C36.6915 92.2074 36.6021 92.2509 36.5061 92.2657L36.4962 92.2672C36.5202 92.5093 36.5624 92.7492 36.6228 92.9849C36.0426 95.2286 37.2951 96.0458 39.0836 96.0825C39.1231 96.1028 39.1616 96.123 39.2011 96.1423C38.8615 97.1047 38.6485 98.1071 38.5674 99.1245C38.5215 99.7247 38.5242 100.328 38.5755 100.927L38.5724 100.906C38.4429 100.239 38.0871 99.6374 37.5652 99.2024C36.7901 98.5657 35.695 98.3312 34.8588 97.8194C34.7699 97.7623 34.6665 97.7319 34.5609 97.7316C34.4553 97.7314 34.3518 97.7613 34.2627 97.8179C34.1735 97.8746 34.1025 97.9555 34.0578 98.0512C34.0131 98.1469 33.9968 98.2534 34.0107 98.3581L34.0141 98.3804C34.1387 98.4312 34.2601 98.4897 34.3775 98.5556C34.4447 98.5935 34.5104 98.6337 34.5748 98.6762C34.6556 98.7302 34.7182 98.8074 34.7544 98.8976C34.7906 98.9878 34.7988 99.0868 34.7778 99.1817C34.7567 99.2766 34.7075 99.363 34.6366 99.4294C34.5657 99.4959 34.4763 99.5394 34.3802 99.5542L34.3704 99.5557C34.3633 99.5567 34.3572 99.5577 34.3502 99.5588C34.5631 100.067 34.8621 100.535 35.2339 100.943C35.5967 102.901 37.1548 103.087 38.8215 102.517H38.8225C39.0053 103.311 39.2703 104.085 39.6131 104.825H42.4374C42.4475 104.793 42.4566 104.761 42.4657 104.73C42.2043 104.746 41.9418 104.73 41.6842 104.683C41.8938 104.426 42.1033 104.167 42.3129 103.91C42.3175 103.905 42.3219 103.9 42.326 103.894C42.4323 103.763 42.5396 103.632 42.6459 103.501L42.646 103.5C42.6516 103.097 42.6054 102.695 42.5082 102.303L42.5081 102.303Z" fill="#D7DEE4"/>
<path d="M34.1089 104.889C34.1088 104.913 34.1136 104.937 34.1229 104.96C34.1323 104.983 34.146 105.003 34.1634 105.021C34.1807 105.038 34.2013 105.052 34.2239 105.061C34.2466 105.07 34.2709 105.075 34.2954 105.075H73.9934C74.0429 105.075 74.0903 105.056 74.1253 105.021C74.1603 104.986 74.1799 104.938 74.1799 104.889C74.1799 104.839 74.1603 104.792 74.1253 104.757C74.0903 104.722 74.0429 104.702 73.9934 104.702H34.2954C34.2709 104.702 34.2466 104.707 34.2239 104.716C34.2013 104.726 34.1807 104.739 34.1634 104.757C34.146 104.774 34.1323 104.795 34.1229 104.817C34.1136 104.84 34.1088 104.864 34.1089 104.889Z" fill="#889BAF"/>
<path d="M47.9402 18.3567C47.9314 18.3347 47.9162 18.3157 47.8965 18.3024C47.8768 18.2891 47.8536 18.282 47.8299 18.282C47.8061 18.282 47.7829 18.2891 47.7633 18.3024C47.7436 18.3158 47.7284 18.3347 47.7196 18.3567C47.4282 19.0879 47.0522 19.7824 46.5991 20.4261C46.584 20.4468 46.576 20.4718 46.5762 20.4974C46.5764 20.523 46.5848 20.5479 46.6003 20.5684C46.6157 20.5888 46.6373 20.6038 46.6619 20.611C46.6865 20.6182 46.7127 20.6173 46.7368 20.6085L47.6731 20.2697V26.0662H47.9866V20.2697L48.9233 20.6085C48.9474 20.6174 48.9736 20.6182 48.9982 20.611C49.0228 20.6038 49.0444 20.5888 49.0598 20.5684C49.0752 20.5479 49.0837 20.5231 49.0839 20.4974C49.0841 20.4718 49.076 20.4468 49.0609 20.4261C48.6079 19.7824 48.2317 19.0879 47.9402 18.3567Z" fill="#395979"/>
<path d="M74.2772 48.1437L62.0032 44.9678C62.0032 44.9678 55.9797 52.5797 55.6662 61.67C55.6502 62.1355 55.8957 62.7186 55.6243 63.2914C55.3528 63.8642 55.9869 64.9466 55.5915 65.4241C55.196 65.9017 55.0155 66.3112 55.576 66.8901C56.1364 67.469 54.5988 92.3444 54.0221 93.2799C53.3153 94.4265 54.6369 95.3187 53.9761 95.8129C53.3153 96.3072 53.9422 97.7178 53.9422 97.7178H57.3902L62.3188 79.5071C62.3188 79.5071 65.4252 71.0538 64.896 69.9847C64.3668 68.9156 65.2998 68.4928 65.2998 68.4928C65.2998 68.4928 66.106 68.1505 65.6282 67.2792C65.1504 66.4079 66.6373 63.5507 66.6373 63.5507C65.9675 63.4637 66.9584 72.3313 70.9534 80.3179C73.8759 86.1604 78.9019 87.7351 79.1756 88.7842C79.7821 91.1085 82.733 88.5634 81.84 90.3515C80.9471 92.1396 83.7208 91.9188 83.7208 91.9188L86.8554 89.4111L77.2949 77.6564L76.2652 65.1566C76.2652 65.1566 75.7174 64.9853 76.0359 64.3464C76.3545 63.7075 75.2908 63.7809 75.6659 63.0389C76.041 62.2969 75.0409 62.3335 75.3059 61.7666C75.5709 61.1998 74.994 60.6645 74.994 60.6645C74.994 60.6645 76.5023 55.5397 73.7248 51.8263L74.2772 48.1437Z" fill="#223549"/>
<path d="M58.7246 50.578C58.7246 50.578 60.9188 45.5627 61.5457 44.9357C62.1727 44.3088 64.2864 43.1757 63.8162 42.7055C63.346 42.2353 62.4117 42.5155 63.1924 41.6701C63.973 40.8248 64.5733 39.1822 64.5733 39.1822L63.8967 31.3003L67.5015 26.7551L69.7719 24.5249L75.3109 24.1658L75.621 27.3469C75.621 27.3469 80.7376 29.9919 79.5648 35.0949C78.3921 40.1978 76.2783 40.8608 76.9052 47.13C76.975 47.8282 74.1925 46.9533 74.7873 47.2507C75.1008 47.4074 76.5384 50.2242 75.5981 50.8511C75.0107 51.238 74.3793 51.5537 73.7173 51.7915C68.9027 47.9888 63.9769 46.2505 58.7246 50.578Z" fill="#889BAF"/>
<path d="M56.1916 34.9174L68.5411 31.2968C69.0639 31.1419 69.5047 30.7876 69.7686 30.3105C70.0325 29.8334 70.0981 29.2716 69.9515 28.7465C69.8756 28.4748 69.7452 28.2215 69.5682 28.0018C69.3912 27.7822 69.1714 27.6009 68.9221 27.4691C68.6727 27.3372 68.3991 27.2575 68.118 27.2348C67.8368 27.2121 67.554 27.2469 67.2868 27.337L54.574 31.4911L46.7428 33.6897C46.5107 33.3987 46.1946 33.1863 45.8375 33.0812C45.4804 32.9762 45.0997 32.9836 44.7469 33.1025C44.3942 33.2213 44.0866 33.4459 43.866 33.7457C43.6453 34.0454 43.5223 34.4059 43.5137 34.778C43.505 35.1501 43.6111 35.5159 43.8175 35.8256C44.024 36.1353 44.3208 36.3739 44.6676 36.5091C45.0144 36.6443 45.3944 36.6694 45.756 36.5811C46.1176 36.4928 46.4432 36.2953 46.6886 36.0155L56.1916 34.9174Z" fill="#FFB6B6"/>
<path d="M78.0237 15.5452C78.7304 12.9688 71.0284 10.7594 69.5316 12.8342C69.3235 12.5392 68.5544 12.3601 68.2015 12.4505C67.856 12.5652 67.5368 12.7473 67.2622 12.9862C66.8641 13.2921 66.4515 13.6088 66.2071 14.0485C65.961 14.4865 65.923 15.0837 66.2542 15.4638C66.5166 15.766 66.9777 17.372 67.3722 17.4516C67.6473 17.5077 67.879 17.553 68.078 17.5856C68.2554 17.3268 68.7077 17.0017 68.6751 16.6886C68.9429 16.8659 68.8451 17.178 68.7911 17.4969C68.6113 18.5588 64.56 26.7792 66.8804 24.3569C67.1482 24.5093 67.43 24.636 67.7219 24.7351C68.2993 23.8527 68.7415 22.8889 69.034 21.8757L69.0361 21.8948C69.092 22.3344 69.2762 22.7478 69.5658 23.0833C69.8553 23.4188 70.2373 23.6616 70.664 23.7812C74.147 24.7902 76.9644 23.3096 77.9336 20.6396C77.5788 19.9193 77.4242 19.9975 77.456 19.9761C77.5601 19.9066 77.6786 19.8614 77.8026 19.8439C77.9266 19.8264 78.0529 19.837 78.1722 19.8751C78.2915 19.9131 78.4007 19.9775 78.4918 20.0635C78.5828 20.1495 78.6533 20.2549 78.698 20.3718C78.7541 20.519 78.8051 20.6446 78.8493 20.7391C79.3542 18.933 79.9547 19.1937 78.0237 15.5452Z" fill="#223549"/>
<path d="M75.6207 13.6758L75.265 11.8569C75.2188 11.7069 75.2226 11.5461 75.2756 11.3984C75.3281 11.3129 75.4056 11.2454 75.4975 11.2051C75.5895 11.1649 75.6915 11.1537 75.79 11.1731C75.9881 11.2017 76.1363 11.3827 76.3334 11.4175C77.0188 11.5387 77.9247 10.8618 78.1703 12.5743C78.2726 13.2883 79.412 13.3637 79.7925 13.9765C80.173 14.5893 80.2197 15.4739 79.7004 15.9745C79.2857 16.3743 78.6196 16.4205 78.081 16.2162C77.5423 16.012 77.11 15.5994 76.7324 15.1644C76.3548 14.7293 76.0128 14.2585 75.5772 13.8815" fill="#223549"/>
<path d="M78.2953 16.4424C76.9055 16.2482 75.9582 15.7427 75.4796 14.9401C74.8533 13.8895 75.2729 12.7326 75.291 12.6838L75.5848 12.793C75.5809 12.8037 75.2003 13.8627 75.7506 14.7823C76.1786 15.4977 77.0494 15.9518 78.3387 16.132L78.2953 16.4424Z" fill="#EDC766"/>
<path d="M4.56982 70.0289C5.43486 68.2337 7.67908 67.2339 9.59224 67.7914C10.67 68.1055 11.5739 68.8271 12.5649 69.3544C13.5558 69.8818 14.7853 70.2093 15.7821 69.6931C17.4955 68.8059 17.3911 66.1569 18.8814 64.9314C19.8733 64.1156 21.3289 64.1537 22.5549 64.5362C23.7809 64.9186 24.9021 65.5938 26.1361 65.9497C27.2911 66.271 28.5068 66.3081 29.6793 66.058C30.8518 65.8079 31.9464 65.278 32.8699 64.5134C32.8881 64.4979 32.9061 64.4824 32.9239 64.4668C33.1243 64.2886 33.3725 64.1729 33.6378 64.1339C33.9032 64.095 34.1741 64.1345 34.4173 64.2477C34.6604 64.3608 34.8652 64.5426 35.0063 64.7707C35.1475 64.9987 35.2188 65.2631 35.2116 65.5311L34.9804 73.9309H4.73164L4.56982 70.0289Z" fill="#D7DEE4"/>
<path d="M31.1167 68.5151C31.1388 68.5063 31.1577 68.4911 31.171 68.4715C31.1843 68.4518 31.1914 68.4286 31.1914 68.4048C31.1914 68.3811 31.1843 68.3579 31.171 68.3382C31.1576 68.3186 31.1387 68.3034 31.1167 68.2946C30.3855 68.0032 29.691 67.6271 29.0473 67.1741C29.0267 67.159 29.0016 67.1509 28.976 67.1511C28.9504 67.1513 28.9255 67.1598 28.9051 67.1752C28.8846 67.1906 28.8697 67.2122 28.8624 67.2368C28.8552 67.2614 28.8561 67.2877 28.8649 67.3117L29.2037 68.2481H23.4072V68.5615H29.2037L28.8649 69.4983C28.856 69.5223 28.8552 69.5486 28.8624 69.5732C28.8696 69.5977 28.8846 69.6193 28.905 69.6348C28.9255 69.6502 28.9504 69.6586 28.976 69.6588C29.0016 69.659 29.0266 69.651 29.0473 69.6359C29.691 69.1828 30.3855 68.8067 31.1167 68.5151Z" fill="#395979"/>
<path d="M18.0762 67.0055C18.0885 66.9852 18.0943 66.9616 18.093 66.9379C18.0917 66.9142 18.0833 66.8914 18.069 66.8725C18.0546 66.8536 18.0348 66.8395 18.0123 66.8319C17.9898 66.8243 17.9656 66.8237 17.9427 66.83C17.1843 67.0408 16.4039 67.162 15.6174 67.1911C15.5917 67.1917 15.567 67.2004 15.5467 67.2161C15.5264 67.2317 15.5117 67.2535 15.5048 67.2782C15.4979 67.3028 15.499 67.3291 15.5082 67.353C15.5173 67.377 15.5339 67.3973 15.5555 67.4111L16.3921 67.9512L11.7788 71.4608L11.9686 71.7103L16.5819 68.2007L16.8794 69.1513C16.8869 69.1758 16.9021 69.1973 16.9227 69.2125C16.9433 69.2277 16.9683 69.2358 16.9939 69.2357C17.0196 69.2356 17.0445 69.2273 17.065 69.2119C17.0855 69.1965 17.1005 69.175 17.1078 69.1504C17.3458 68.4001 17.6708 67.6803 18.0762 67.0055Z" fill="#395979"/>
<path d="M36.1716 54.6724H3.47313C2.55246 54.673 1.66967 55.0389 1.01851 55.6898C0.367357 56.3406 0.00105142 57.2233 0 58.1439V75.9061C0.00093028 76.8271 0.367096 77.7101 1.01819 78.3615C1.66928 79.0129 2.55214 79.3794 3.47313 79.3808H36.1716C37.0927 79.3797 37.9757 79.0132 38.6268 78.3618C39.278 77.7103 39.6441 76.8271 39.6447 75.9061V58.1439C39.6439 57.2232 39.2777 56.3404 38.6265 55.6895C37.9753 55.0386 37.0923 54.6727 36.1716 54.6724ZM39.2623 75.9061C39.262 76.7257 38.9362 77.5116 38.3567 78.0912C37.7771 78.6707 36.9912 78.9965 36.1716 78.9968H8.80663C8.43078 78.9971 8.05533 78.972 7.68288 78.9215H7.68131C7.6531 78.9184 7.62332 78.9137 7.59511 78.909C3.51544 78.3244 0.38242 62.7455 0.38242 58.5044V58.1439C0.383868 57.3248 0.710008 56.5397 1.28936 55.9606C1.86871 55.3816 2.65401 55.0558 3.47313 55.0548H36.1716C36.9908 55.0556 37.7762 55.3812 38.3556 55.9603C38.9351 56.5394 39.2611 57.3247 39.2623 58.1439V75.9061Z" fill="#889BAF"/>
<path d="M33.9378 66.5611C35.4216 66.5611 36.6246 65.3582 36.6246 63.8743C36.6246 62.3904 35.4216 61.1875 33.9378 61.1875C32.4539 61.1875 31.251 62.3904 31.251 63.8743C31.251 65.3582 32.4539 66.5611 33.9378 66.5611Z" fill="#EDC766"/>
<path opacity="0.7" d="M20.7727 66.5611C22.2566 66.5611 23.4595 65.3582 23.4595 63.8743C23.4595 62.3904 22.2566 61.1875 20.7727 61.1875C19.2889 61.1875 18.0859 62.3904 18.0859 63.8743C18.0859 65.3582 19.2889 66.5611 20.7727 66.5611Z" fill="#EDC766"/>
<path opacity="0.25" d="M8.8616 69.0686C10.3455 69.0686 11.5484 67.8657 11.5484 66.3819C11.5484 64.898 10.3455 63.6951 8.8616 63.6951C7.37772 63.6951 6.1748 64.898 6.1748 66.3819C6.1748 67.8657 7.37772 69.0686 8.8616 69.0686Z" fill="#EDC766"/>
</svg>
