<svg width="120" height="85" viewBox="0 0 120 85" fill="none" xmlns="http://www.w3.org/2000/svg">
<path d="M118.724 55.6041H35.7073C35.4097 55.6038 35.1245 55.4854 34.9141 55.275C34.7036 55.0646 34.5853 54.7793 34.585 54.4818V3.06396H119.847V54.4818C119.846 54.7793 119.728 55.0646 119.517 55.275C119.307 55.4854 119.022 55.6038 118.724 55.6041Z" fill="#F8E9C2"/>
<path d="M116.29 52.3909H38.1414C37.8406 52.3905 37.5522 52.2709 37.3395 52.0582C37.1268 51.8455 37.0072 51.5571 37.0068 51.2563V8.91189C37.0072 8.6111 37.1268 8.32272 37.3395 8.11003C37.5522 7.89733 37.8406 7.77769 38.1414 7.77734H116.29C116.591 7.77768 116.879 7.89731 117.092 8.11001C117.304 8.32271 117.424 8.61109 117.424 8.91189V51.2563C117.424 51.5571 117.304 51.8455 117.092 52.0582C116.879 52.2709 116.591 52.3905 116.29 52.3909Z" fill="white"/>
<path d="M119.809 4.65171H34.5479V2.02542C34.5482 1.72786 34.6665 1.44258 34.8769 1.23217C35.0874 1.02176 35.3726 0.903408 35.6702 0.903076H118.687C118.985 0.903408 119.27 1.02176 119.48 1.23217C119.691 1.44258 119.809 1.72786 119.809 2.02542L119.809 4.65171Z" fill="#F1D285"/>
<path d="M37.3017 3.48845C37.6719 3.48845 37.972 3.18834 37.972 2.81814C37.972 2.44794 37.6719 2.14783 37.3017 2.14783C36.9315 2.14783 36.6313 2.44794 36.6313 2.81814C36.6313 3.18834 36.9315 3.48845 37.3017 3.48845Z" fill="white"/>
<path d="M39.8461 3.48845C40.2163 3.48845 40.5164 3.18834 40.5164 2.81814C40.5164 2.44794 40.2163 2.14783 39.8461 2.14783C39.4759 2.14783 39.1758 2.44794 39.1758 2.81814C39.1758 3.18834 39.4759 3.48845 39.8461 3.48845Z" fill="white"/>
<path d="M42.3905 3.48845C42.7607 3.48845 43.0608 3.18834 43.0608 2.81814C43.0608 2.44794 42.7607 2.14783 42.3905 2.14783C42.0203 2.14783 41.7202 2.44794 41.7202 2.81814C41.7202 3.18834 42.0203 3.48845 42.3905 3.48845Z" fill="white"/>
<path d="M36.9839 7.71204V52.4736H117.528V7.71204L36.9839 7.71204ZM117.264 11.4202H109.5V7.97612H117.264V11.4202ZM69.3601 37.377V33.933H85.1521V37.377H69.3601ZM85.1521 37.6411V41.0852H69.3601V37.6411H85.1521ZM85.1521 22.8086V26.2526H69.3601V22.8086H85.1521ZM69.3601 22.5446V19.1005H85.1521V22.5446H69.3601ZM69.3601 29.9608V26.5167H85.1521V29.9608H69.3601ZM85.1521 30.2249V33.6689H69.3601V30.2249H85.1521ZM69.0961 26.2526H61.3321V22.8086H69.0961V26.2526ZM69.0961 26.5167V29.9608H61.3321V26.5167H69.0961ZM69.0961 30.2249V33.6689H61.3321V30.2249H69.0961ZM69.0961 33.933V37.377H61.3321V33.933H69.0961ZM85.4162 33.933H93.1801V37.377H85.4162L85.4162 33.933ZM85.4162 33.6689V30.2249H93.1801V33.6689H85.4162ZM85.4162 29.9608V26.5167H93.1801V29.9608H85.4162ZM85.4162 26.2526V22.8086H93.1801V26.2526H85.4162ZM85.4162 22.5446V19.1005H93.1801V22.5446H85.4162ZM85.4162 18.8364V15.3923H93.1801V18.8364H85.4162ZM85.1521 18.8364H69.3601V15.3923H85.1521L85.1521 18.8364ZM69.0961 18.8364H61.3321V15.3923H69.0961V18.8364ZM69.0961 19.1005V22.5446H61.3321V19.1005H69.0961ZM61.0681 22.5446H53.304V19.1005H61.068L61.0681 22.5446ZM61.0681 22.8086V26.2526H53.304V22.8086H61.0681ZM61.0681 26.5167V29.9608H53.304V26.5167H61.0681ZM61.0681 30.2249V33.6689H53.304V30.2249H61.0681ZM61.0681 33.933V37.377H53.304V33.933H61.0681ZM61.0681 37.6411V41.0852H53.304V37.6411H61.0681ZM61.3321 37.6411H69.0961V41.0852H61.3321V37.6411ZM69.0961 41.3492V44.7932H61.3321V41.3492H69.0961ZM69.3601 41.3492H85.1521V44.7932H69.3601V41.3492ZM85.4162 41.3492H93.1801V44.7932H85.4162L85.4162 41.3492ZM85.4162 41.0852V37.6411H93.1801V41.0852H85.4162ZM93.4442 37.6411H101.208V41.0852H93.4442L93.4442 37.6411ZM93.4442 37.377V33.933H101.208V37.377H93.4442ZM93.4442 33.6689V30.2249H101.208V33.6689H93.4442ZM93.4442 29.9608V26.5167H101.208V29.9608H93.4442ZM93.4442 26.2526V22.8086H101.208V26.2526H93.4442ZM93.4442 22.5446V19.1005H101.208V22.5446H93.4442ZM93.4442 18.8364V15.3923H101.208V18.8364H93.4442ZM93.4442 15.1283V11.6843H101.208V15.1283H93.4442ZM93.1801 15.1283H85.4162V11.6843H93.1801L93.1801 15.1283ZM85.1521 15.1283H69.3601V11.6843H85.1521L85.1521 15.1283ZM69.0961 15.1283H61.3321V11.6843H69.0961V15.1283ZM61.0681 15.1283H53.304V11.6843H61.068L61.0681 15.1283ZM61.0681 15.3923V18.8364H53.304V15.3923H61.0681ZM53.0399 18.8364H45.276V15.3923H53.0399V18.8364ZM53.0399 19.1005V22.5446H45.276V19.1005H53.0399ZM53.0399 22.8086V26.2526H45.276V22.8086H53.0399ZM53.0399 26.5167V29.9608H45.276V26.5167H53.0399ZM53.0399 30.2249V33.6689H45.276V30.2249H53.0399ZM53.0399 33.933V37.377H45.276V33.933H53.0399ZM53.0399 37.6411V41.0852H45.276V37.6411H53.0399ZM53.0399 41.3492V44.7932H45.276V41.3492H53.0399ZM53.304 41.3492H61.0681V44.7932H53.304L53.304 41.3492ZM61.0681 45.0573V48.5015H53.304V45.0573H61.0681ZM61.3321 45.0573H69.0961V48.5015H61.3321V45.0573ZM69.3601 45.0573H85.1521V48.5015H69.3601V45.0573ZM85.4162 45.0573H93.1801V48.5015H85.4162L85.4162 45.0573ZM93.4442 45.0573H101.208V48.5015H93.4442L93.4442 45.0573ZM93.4442 44.7932V41.3492H101.208V44.7932H93.4442ZM101.472 41.3492H109.236V44.7932H101.472V41.3492ZM101.472 41.0852V37.6411H109.236V41.0852H101.472ZM101.472 37.377V33.933H109.236V37.377H101.472ZM101.472 33.6689V30.2249H109.236V33.6689H101.472ZM101.472 29.9608V26.5167H109.236V29.9608H101.472ZM101.472 26.2526V22.8086H109.236V26.2526H101.472ZM101.472 22.5446V19.1005H109.236V22.5446H101.472ZM101.472 18.8364V15.3923H109.236V18.8364H101.472ZM101.472 15.1283V11.6843H109.236V15.1283H101.472ZM101.472 11.4202V7.97612H109.236V11.4202L101.472 11.4202ZM101.208 11.4202H93.4442V7.97612H101.208L101.208 11.4202ZM93.1801 11.4202H85.4162V7.97612H93.1801L93.1801 11.4202ZM85.1521 11.4202H69.3601V7.97612H85.1521L85.1521 11.4202ZM69.0961 11.4202H61.3321V7.97612H69.0961V11.4202ZM61.0681 11.4202H53.304V7.97612H61.068L61.0681 11.4202ZM53.0399 11.4202H45.276V7.97612H53.0399V11.4202ZM53.0399 11.6843V15.1283H45.276V11.6843H53.0399ZM45.0119 15.1283H37.248V11.6843H45.0119L45.0119 15.1283ZM45.0119 15.3923V18.8364H37.248V15.3923H45.0119ZM45.0119 19.1005V22.5446H37.248V19.1005H45.0119ZM45.0119 22.8086V26.2526H37.248V22.8086H45.0119ZM45.0119 26.5167V29.9608H37.248V26.5167H45.0119ZM45.0119 30.2249V33.6689H37.248V30.2249H45.0119ZM45.0119 33.933V37.377H37.248V33.933H45.0119ZM45.0119 37.6411V41.0852H37.248V37.6411H45.0119ZM45.0119 41.3492V44.7932H37.248V41.3492H45.0119ZM45.0119 45.0573V48.5015H37.248V45.0573H45.0119ZM45.276 45.0573H53.0399V48.5015H45.276L45.276 45.0573ZM53.0399 48.7655V52.2095H45.276V48.7655H53.0399ZM53.304 48.7655H61.0681V52.2095H53.304L53.304 48.7655ZM61.3321 48.7655H69.0961V52.2095H61.3321L61.3321 48.7655ZM69.3601 48.7655H85.1521V52.2095H69.3601L69.3601 48.7655ZM85.4162 48.7655H93.1801V52.2095H85.4162V48.7655ZM93.4442 48.7655H101.208V52.2095H93.4442L93.4442 48.7655ZM101.472 48.7655H109.236V52.2095H101.472V48.7655ZM101.472 48.5015V45.0573H109.236V48.5015H101.472ZM109.5 45.0573H117.264V48.5015H109.5V45.0573ZM109.5 44.7932V41.3492H117.264V44.7932H109.5ZM109.5 41.0852V37.6411H117.264V41.0852H109.5ZM109.5 37.377V33.933H117.264V37.377H109.5ZM109.5 33.6689V30.2249H117.264V33.6689H109.5ZM109.5 29.9608V26.5167H117.264V29.9608H109.5ZM109.5 26.2526V22.8086H117.264V26.2526H109.5ZM109.5 22.5446V19.1005H117.264V22.5446H109.5ZM109.5 18.8364V15.3923H117.264V18.8364H109.5ZM109.5 15.1283V11.6843H117.264V15.1283H109.5ZM45.0119 7.97612V11.4202H37.248V7.97612H45.0119ZM37.248 48.7655H45.0119V52.2095H37.248V48.7655ZM109.5 52.2095V48.7655H117.264V52.2095H109.5Z" fill="#F4DDA3"/>
<path d="M15.0579 31.9651C15.0579 31.9651 10.9832 31.0261 8.74212 32.7475C6.50103 34.4689 11.5944 38.3811 11.5944 38.3811L15.0579 31.9651Z" fill="#223549"/>
<path d="M19.2723 54.4187C19.1907 54.2036 19.1572 53.9732 19.1742 53.7438C19.1913 53.5144 19.2584 53.2915 19.3709 53.0908C19.4834 52.8902 19.6385 52.7166 19.8253 52.5824C20.0122 52.4481 20.2262 52.3565 20.4522 52.3139L21.2757 46.7827L23.4396 48.7223L22.3259 53.6774C22.3723 54.062 22.276 54.4502 22.0553 54.7684C21.8345 55.0867 21.5047 55.313 21.1284 55.4044C20.752 55.4957 20.3551 55.4459 20.0131 55.2642C19.671 55.0825 19.4074 54.7817 19.2723 54.4187H19.2723Z" fill="#FFB8B8"/>
<path d="M10.7429 83.1327L12.6572 83.0056L13.0782 75.5614L10.2529 75.7489L10.7429 83.1327Z" fill="#FFB8B8"/>
<path d="M16.397 84.7405H10.3673V82.4108H14.0673C14.6852 82.4108 15.2777 82.6563 15.7146 83.0932C16.1515 83.5301 16.397 84.1226 16.397 84.7405Z" fill="#223549"/>
<path d="M14.0508 80.4827L15.8506 81.147L19.2697 74.5209L16.6133 73.5405L14.0508 80.4827Z" fill="#FFB8B8"/>
<path d="M18.7051 84.0996L13.0485 82.0116L13.8552 79.8261L17.3263 81.1074C17.9059 81.3213 18.3768 81.7568 18.6354 82.3179C18.894 82.8791 18.919 83.52 18.7051 84.0996L18.7051 84.0996Z" fill="#223549"/>
<path d="M19.2841 51.8841C19.2841 51.8841 21.2228 52.928 20.6263 57.1037L20.0298 72.9114L16.7342 80.1177L13.9007 79.372L15.705 73.508L13.3189 63.218L13.006 81.9072L10.3216 82.3546L6.45898 51.2876L11.3803 49.0507L19.2841 51.8841Z" fill="#223549"/>
<path d="M12.3548 30.191C14.4775 30.191 16.1983 28.4702 16.1983 26.3475C16.1983 24.2247 14.4775 22.5039 12.3548 22.5039C10.232 22.5039 8.51123 24.2247 8.51123 26.3475C8.51123 28.4702 10.232 30.191 12.3548 30.191Z" fill="#FFB8B8"/>
<path d="M14.5865 31.2297L12.6479 34.3615L9.81439 31.528L4.51726 35.236C4.33142 35.3657 4.19505 35.5547 4.13044 35.7719C4.06583 35.9892 4.07679 36.2219 4.16152 36.4321C4.97634 38.4469 7.06293 44.4026 6.45897 51.2877C6.45897 51.2877 10.4855 50.2438 14.6611 51.4368C18.8367 52.6299 19.8807 52.1825 19.8807 52.1825C19.8807 52.1825 18.8367 44.5769 19.4333 42.9364C19.9281 41.5757 20.9359 37.0341 21.2652 35.5249C21.2963 35.3823 21.2807 35.2336 21.2208 35.1006C21.1609 34.9675 21.0597 34.8573 20.9324 34.7862L14.5865 31.2297Z" fill="#889CAF"/>
<path d="M20.7799 34.8042C20.9439 34.7808 21.1108 34.8179 21.2494 34.9086C21.388 34.9993 21.4888 35.1373 21.533 35.297L24.0574 44.4129L23.4609 49.9307L20.6274 49.4833L20.9257 45.6059L18.8379 40.6847L20.2161 35.3096C20.2496 35.179 20.321 35.0614 20.4214 34.9714C20.5217 34.8815 20.6465 34.8233 20.7799 34.8042Z" fill="#889CAF"/>
<path d="M9.38266 20.952C9.63895 20.5169 10.0105 20.1612 10.4562 19.924C10.902 19.6869 11.4046 19.5775 11.9086 19.608C12.4358 19.6741 12.9502 19.8182 13.4351 20.0353L15.9477 21.0155C16.5979 21.2691 17.31 21.5797 17.5921 22.2181C17.854 22.8105 17.6586 23.4947 17.4608 24.1115L16.5208 27.0434C16.4166 26.3799 16.2379 25.7302 15.988 25.1067C15.715 24.4937 15.2831 23.9284 14.686 23.6221C14.0334 23.2873 13.2641 23.2942 12.5314 23.3295C11.4938 23.3794 10.3656 23.5114 9.62829 24.2433C9.23693 24.659 8.97159 25.1772 8.86314 25.7377C8.7564 26.2952 8.70268 26.8616 8.70269 27.4292C8.27717 26.6978 7.91874 25.9294 7.63176 25.1333C7.3957 24.5406 7.26118 23.9123 7.23386 23.2748C7.20919 22.6319 7.4225 22.0025 7.83295 21.5071C8.25744 21.0327 8.9491 20.7765 9.55738 20.9644" fill="#223549"/>
<path d="M7.24495 56.6095C7.32658 56.3944 7.36006 56.164 7.34303 55.9346C7.326 55.7052 7.25888 55.4823 7.14639 55.2816C7.03389 55.081 6.87877 54.9074 6.69194 54.7731C6.50511 54.6389 6.29112 54.5473 6.06504 54.5047L5.24157 48.9735L3.07764 50.9131L4.19137 55.8682C4.145 56.2528 4.24129 56.641 4.46201 56.9592C4.68272 57.2775 5.01253 57.5038 5.38892 57.5952C5.76531 57.6865 6.16214 57.6367 6.50422 57.455C6.8463 57.2733 7.10985 56.9725 7.24495 56.6095Z" fill="#FFB8B8"/>
<path d="M4.57117 35.1832C4.34533 35.2208 4.13915 35.3346 3.98684 35.5055C3.83454 35.6765 3.74526 35.8944 3.73383 36.123L2.87939 53.2116H6.01112L7.05503 44.1147L5.72652 36.0108C5.70516 35.8805 5.65831 35.7557 5.58865 35.6436C5.51899 35.5314 5.42789 35.4341 5.32056 35.3573C5.21324 35.2804 5.0918 35.2254 4.96321 35.1956C4.83461 35.1657 4.70139 35.1615 4.57117 35.1832Z" fill="#889CAF"/>
<path d="M26.8752 84.903H0V84.5735H26.935L26.8752 84.903Z" fill="#D7DEE4"/>
</svg>
