<svg width="130" height="88" viewBox="0 0 130 88" fill="none" xmlns="http://www.w3.org/2000/svg">
<path d="M8.74868 66.3243C8.13137 66.3243 7.5128 66.3498 6.90872 66.4011L6.8208 66.4085C2.81391 66.7628 -0.116951 68.8177 0.00358654 71.1887L0.0268893 71.6175C0.0422563 71.8885 0.0586293 72.1798 0.072106 72.5031C0.0794052 72.6625 0.296939 72.7849 0.567617 72.7849H99.1275C106.077 72.7427 113 72.6896 119.705 72.627C120.963 72.6296 122.22 72.5645 123.47 72.4319C125.334 72.2114 126.627 71.7743 127.424 71.0955H127.425C128.416 70.2538 128.448 69.1939 128.388 67.9964C128.266 65.5783 128.144 63.0381 128.023 60.5056C127.917 58.2736 127.81 56.0476 127.704 53.9164C127.638 52.6517 127.492 51.5354 126.366 50.6822C125.145 49.7594 122.919 49.2917 119.748 49.2917C119.71 49.2917 119.672 49.2917 119.633 49.2919C109.698 49.3272 99.8535 52.7435 95.137 57.7928C94.5939 58.3743 94.0878 58.9968 93.5984 59.5989C92.8751 60.4883 92.1274 61.4078 91.2352 62.2302C90.7521 62.6814 90.2296 63.0887 89.6741 63.447C89.6358 63.4735 89.592 63.5019 89.5456 63.5288C89.4395 63.5979 89.3287 63.6645 89.2206 63.7239C88.5879 64.0893 87.9211 64.3924 87.2298 64.629L87.16 64.6524C87.1075 64.6712 87.0506 64.6899 86.9936 64.7071C86.5943 64.8353 86.1796 64.9461 85.764 65.0357C83.9661 65.432 81.9218 65.527 79.6879 65.3178C77.6365 65.1206 75.6115 64.7079 73.6465 64.0867C71.5779 63.4329 69.6417 62.6178 67.7693 61.8297C66.9468 61.4833 66.0961 61.1253 65.2465 60.786C65.0868 60.7222 64.9297 60.6598 64.7703 60.5974C63.7327 60.193 62.7919 59.859 61.8943 59.5763C59.6707 58.8732 57.3688 58.4469 55.0408 58.3069C52.5698 58.1716 50.3923 58.4268 48.5703 59.0635C48.0679 59.2384 47.5788 59.4492 47.1067 59.6941C44.9485 60.8149 43.6181 62.4689 42.3316 64.0685C40.7312 66.0581 39.0762 68.1156 35.8084 69.1822C32.0377 70.4141 26.5337 69.9023 22.6397 69.0123C21.4154 68.7325 20.1926 68.4105 19.01 68.0991C18.5324 67.9732 18.0544 67.8483 17.5761 67.7242C16.6363 67.4815 15.8671 67.2956 15.1554 67.1387L14.9303 67.0886C14.8051 67.0614 14.6798 67.0342 14.5522 67.0083C13.7069 66.8308 12.9198 66.6912 12.1447 66.5814L11.9613 66.5546C11.5936 66.5061 11.2499 66.4659 10.9126 66.432L10.7779 66.4186C10.1173 66.3557 9.43362 66.3243 8.74868 66.3243Z" fill="#F2F2F2"/>
<path d="M110.665 68.9703C113.439 66.4712 117.564 65.2146 121.024 66.6159C117.475 68.5865 114.737 71.7491 113.294 75.544C112.744 77.0096 112.284 78.697 110.929 79.4816C110.086 79.9699 109.037 79.9937 108.092 79.758C107.146 79.5223 106.28 79.0498 105.425 78.5821L105.182 78.5766C106.274 75.0066 107.892 71.4694 110.665 68.9703Z" fill="#889BAF"/>
<path d="M121.004 66.692C117.94 67.088 115.078 68.4395 112.825 70.5546C112.332 71.0014 111.913 71.523 111.582 72.1004C111.278 72.6732 111.133 73.317 111.162 73.9648C111.177 74.5693 111.263 75.186 111.13 75.7836C111.058 76.0885 110.922 76.3747 110.732 76.6235C110.541 76.8722 110.3 77.0778 110.024 77.2268C109.347 77.6161 108.571 77.7388 107.807 77.8324C106.959 77.9363 106.077 78.0308 105.343 78.5064C105.254 78.564 105.17 78.4227 105.258 78.3652C106.535 77.5377 108.151 77.8388 109.524 77.2866C110.165 77.0289 110.732 76.5766 110.933 75.8927C111.108 75.2947 111.021 74.6587 111 74.0467C110.963 73.4152 111.08 72.7841 111.343 72.2085C111.643 71.6161 112.042 71.0792 112.522 70.6207C113.587 69.571 114.81 68.6954 116.147 68.0257C117.668 67.253 119.31 66.7463 121.003 66.5274C121.107 66.5139 121.108 66.6785 121.004 66.692H121.004Z" fill="white"/>
<path d="M113.511 69.8309C113.207 69.4048 113.065 68.8846 113.11 68.3633C113.154 67.8421 113.383 67.3536 113.754 66.9851C113.829 66.9108 113.948 67.0245 113.873 67.0989C113.526 67.4414 113.314 67.8964 113.273 68.3819C113.233 68.8675 113.367 69.3514 113.652 69.7466C113.714 69.8325 113.572 69.9164 113.511 69.8309V69.8309Z" fill="white"/>
<path d="M111.115 73.6593C112.168 73.8459 113.253 73.6287 114.153 73.051C114.242 72.9937 114.327 73.135 114.238 73.1923C113.3 73.7917 112.17 74.0154 111.075 73.8188C110.971 73.8 111.011 73.6406 111.115 73.6593Z" fill="white"/>
<path d="M117.682 67.4708C117.765 67.6602 117.894 67.8259 118.057 67.9532C118.22 68.0804 118.412 68.1652 118.616 68.1999C118.72 68.2174 118.679 68.3768 118.575 68.3595C118.35 68.3201 118.138 68.2262 117.958 68.086C117.777 67.9458 117.634 67.7636 117.54 67.5552C117.53 67.5363 117.527 67.5141 117.532 67.4932C117.538 67.4722 117.551 67.4541 117.569 67.4424C117.588 67.4313 117.61 67.4281 117.631 67.4334C117.652 67.4388 117.67 67.4522 117.682 67.4708Z" fill="white"/>
<path d="M124.834 78.6679C124.768 78.6589 124.703 78.6498 124.636 78.6418C123.753 78.5246 122.862 78.4794 121.972 78.5065C121.903 78.5075 121.834 78.5095 121.765 78.5125C119.621 78.6007 117.512 79.0861 115.546 79.9441C114.764 80.2862 114.008 80.6873 113.287 81.144C112.291 81.7748 111.261 82.538 110.147 82.7952C110.031 82.8234 109.914 82.8443 109.795 82.8579L105.194 78.8738C105.188 78.8595 105.181 78.8462 105.175 78.8319L104.984 78.6812C105.02 78.6551 105.057 78.6287 105.093 78.6025C105.113 78.5873 105.135 78.5729 105.156 78.5577C105.17 78.5478 105.184 78.5379 105.196 78.5282C105.201 78.5249 105.205 78.5216 105.209 78.5194C105.221 78.5096 105.233 78.5019 105.245 78.4932C105.453 78.3453 105.664 78.1986 105.875 78.0531C105.876 78.052 105.876 78.052 105.878 78.0519C107.481 76.9278 109.211 75.9977 111.033 75.2812C111.087 75.2606 111.143 75.2388 111.199 75.22C112.02 74.915 112.864 74.6775 113.723 74.51C114.193 74.4198 114.668 74.3534 115.146 74.3112C116.379 74.2046 117.622 74.2926 118.829 74.5721C121.233 75.1298 123.433 76.4503 124.736 78.5096C124.769 78.5623 124.802 78.6142 124.834 78.6679Z" fill="#889BAF"/>
<path d="M124.773 78.7173C122.088 77.1884 118.989 76.5446 115.917 76.8771C115.255 76.937 114.606 77.1009 113.994 77.3628C113.406 77.6373 112.903 78.064 112.536 78.5987C112.184 79.0905 111.881 79.6342 111.416 80.0318C111.175 80.2317 110.894 80.3785 110.592 80.4623C110.29 80.5461 109.974 80.5652 109.664 80.5182C108.889 80.4213 108.195 80.0517 107.529 79.6667C106.789 79.2392 106.028 78.7834 105.155 78.7212C105.05 78.7137 105.068 78.5501 105.173 78.5576C106.691 78.6658 107.8 79.8791 109.229 80.2648C109.895 80.4448 110.62 80.425 111.192 79.9998C111.692 79.6279 112.005 79.0675 112.358 78.5666C112.708 78.0397 113.182 77.6065 113.738 77.305C114.334 77.0128 114.976 76.8241 115.635 76.7471C117.117 76.5502 118.621 76.5874 120.092 76.8576C121.772 77.1566 123.388 77.7409 124.871 78.585C124.963 78.6373 124.864 78.7692 124.773 78.7173V78.7173Z" fill="white"/>
<path d="M116.9 76.7118C116.914 76.1888 117.114 75.6879 117.463 75.2985C117.813 74.9091 118.289 74.6566 118.807 74.586C118.912 74.5721 118.939 74.7346 118.834 74.7485C118.351 74.8133 117.907 75.0486 117.583 75.4118C117.258 75.7751 117.074 76.2425 117.064 76.7296C117.061 76.8354 116.898 76.8171 116.9 76.7118V76.7118Z" fill="white"/>
<path d="M112.682 78.3258C113.41 79.1089 114.407 79.5885 115.473 79.6692C115.579 79.6771 115.561 79.8407 115.456 79.8328C114.346 79.7468 113.31 79.2455 112.553 78.429C112.481 78.3511 112.61 78.2484 112.682 78.3258H112.682Z" fill="white"/>
<path d="M121.651 77.3385C121.603 77.5397 121.606 77.7496 121.659 77.9493C121.713 78.149 121.815 78.3324 121.957 78.4828C122.03 78.5597 121.901 78.6624 121.829 78.5859C121.673 78.419 121.56 78.2164 121.501 77.9959C121.441 77.7753 121.436 77.5435 121.487 77.3207C121.49 77.2993 121.501 77.2799 121.518 77.2663C121.535 77.2528 121.556 77.2462 121.578 77.2478C121.599 77.2503 121.619 77.2612 121.633 77.2781C121.646 77.2951 121.653 77.3168 121.651 77.3385Z" fill="white"/>
<path d="M38.0666 71.4559C40.3375 68.0115 44.3997 65.52 48.4903 66.0561C45.2424 69.1512 43.1939 73.2953 42.7073 77.7553C42.5258 79.476 42.5032 81.4087 41.2724 82.6249C40.5066 83.3816 39.3914 83.6989 38.3149 83.7098C37.2384 83.7206 36.1802 83.4564 35.1361 83.1938L34.8745 83.2556C35.0488 79.1337 35.7957 74.9003 38.0666 71.4559Z" fill="#889BAF"/>
<path d="M48.4908 66.1427C45.3234 67.4188 42.6385 69.6605 40.8177 72.5493C40.4147 73.1643 40.1111 73.8389 39.9181 74.5484C39.7525 75.2456 39.7766 75.9744 39.9879 76.6592C40.1721 77.3016 40.4349 77.9374 40.4598 78.6134C40.4673 78.9596 40.4016 79.3035 40.267 79.6225C40.1323 79.9416 39.9317 80.2285 39.6784 80.4646C39.0624 81.0693 38.2659 81.4166 37.4752 81.7292C36.5973 82.0762 35.6799 82.4228 35.0272 83.1356C34.9481 83.222 34.8187 83.0942 34.8977 83.008C36.0332 81.7678 37.8452 81.6403 39.1601 80.6676C39.7737 80.2138 40.2542 79.5723 40.2785 78.7851C40.2998 78.0966 40.0294 77.4408 39.8373 76.7919C39.6213 76.127 39.5715 75.4193 39.6921 74.7306C39.8483 74.0136 40.1254 73.3284 40.5115 72.7043C41.3583 71.2855 42.423 70.0087 43.6664 68.9206C45.0787 67.6709 46.6943 66.672 48.4434 65.9671C48.5517 65.9235 48.5984 66.0994 48.4908 66.1427L48.4908 66.1427Z" fill="white"/>
<path d="M41.3488 71.5847C40.9056 71.2134 40.6088 70.6966 40.5114 70.1267C40.414 69.5568 40.5224 68.9708 40.8172 68.4734C40.8772 68.373 41.0361 68.4615 40.976 68.562C40.7006 69.0247 40.5997 69.5706 40.6915 70.1011C40.7833 70.6316 41.0616 71.1119 41.4764 71.4552C41.5665 71.5299 41.4383 71.659 41.3488 71.5847Z" fill="white"/>
<path d="M39.8514 76.3456C41.0297 76.2522 42.1294 75.7181 42.9313 74.8499C43.0107 74.7638 43.1401 74.8915 43.0609 74.9775C42.2246 75.8794 41.0791 76.4329 39.8527 76.5274C39.7359 76.5364 39.7352 76.3545 39.8514 76.3456H39.8514Z" fill="white"/>
<path d="M45.153 67.9C45.2946 68.0794 45.4785 68.2208 45.6882 68.3116C45.8979 68.4023 46.1269 68.4396 46.3546 68.42C46.4713 68.4096 46.4719 68.5915 46.3559 68.6018C46.1043 68.6223 45.8514 68.5809 45.6195 68.4811C45.3876 68.3813 45.1836 68.2263 45.0254 68.0295C45.009 68.0122 44.9997 67.9893 44.9995 67.9654C44.9993 67.9415 45.0083 67.9185 45.0245 67.9009C45.0415 67.8839 45.0645 67.8742 45.0886 67.874C45.1126 67.8738 45.1358 67.8832 45.153 67.9H45.153Z" fill="white"/>
<path d="M55.9184 77.8858C55.8457 77.8944 55.773 77.903 55.6995 77.9129C54.7228 78.0332 53.7574 78.2326 52.8129 78.5092C52.7396 78.5294 52.6655 78.551 52.5929 78.5733C50.3245 79.264 48.2041 80.3699 46.3395 81.8346C45.598 82.4182 44.902 83.0573 44.2576 83.7464C43.3675 84.6982 42.4783 85.801 41.3588 86.3859C41.2427 86.4482 41.1228 86.5033 40.9999 86.5509L34.9703 83.5698C34.96 83.5562 34.9489 83.5439 34.9386 83.5302L34.6924 83.4221C34.7231 83.3843 34.7559 83.3457 34.7866 83.3078C34.8044 83.2858 34.8234 83.2644 34.8412 83.2424C34.8535 83.2279 34.8658 83.2134 34.876 83.1997C34.8801 83.1948 34.8842 83.19 34.8876 83.1865C34.8978 83.1728 34.9088 83.1611 34.9184 83.1487C35.1006 82.9324 35.2847 82.7169 35.4707 82.5024C35.4713 82.5011 35.4713 82.5011 35.4734 82.5004C36.8943 80.8695 38.4639 79.343 40.2152 78.1032C40.2679 78.0659 40.3213 78.0272 40.3767 77.9913C41.1693 77.4368 42.0058 76.9481 42.8779 76.5299C43.3563 76.3024 43.8458 76.0994 44.3446 75.9214C45.6344 75.4641 46.9881 75.2125 48.3561 75.1759C51.0832 75.1033 53.8032 75.9037 55.7695 77.7438C55.8198 77.7909 55.8688 77.8373 55.9184 77.8858Z" fill="#889BAF"/>
<path d="M55.8667 77.9558C52.5694 77.0677 49.0761 77.2411 45.8829 78.4514C45.1909 78.6997 44.5423 79.0556 43.9611 79.5059C43.4091 79.9629 42.9895 80.5593 42.746 81.2333C42.5063 81.8571 42.3334 82.523 41.9462 83.0777C41.7438 83.3587 41.4843 83.5937 41.1847 83.7674C40.8851 83.941 40.5521 84.0494 40.2077 84.0854C39.3518 84.1974 38.5068 83.9951 37.6872 83.7686C36.7773 83.5171 35.8362 83.2415 34.8859 83.4177C34.7707 83.439 34.7443 83.2591 34.8593 83.2378C36.5127 82.9312 38.0362 83.9203 39.6717 83.9354C40.4348 83.9425 41.2047 83.7196 41.6981 83.1057C42.1296 82.5688 42.3085 81.8824 42.5458 81.2486C42.7737 80.5877 43.16 79.9926 43.671 79.5154C44.2274 79.0369 44.8612 78.6567 45.5452 78.3908C47.0755 77.7678 48.6943 77.3893 50.3422 77.2692C52.2223 77.1216 54.1136 77.2968 55.9346 77.787C56.0473 77.8174 55.9787 77.986 55.8667 77.9558Z" fill="white"/>
<path d="M46.8884 78.0011C46.7581 77.4378 46.8322 76.8465 47.0976 76.3328C47.363 75.8191 47.8023 75.4165 48.3372 75.1968C48.4455 75.1527 48.5191 75.3191 48.4106 75.3632C47.9122 75.5668 47.503 75.9419 47.2568 76.4208C47.0107 76.8996 46.9438 77.4507 47.0683 77.9745C47.0952 78.0884 46.9152 78.1143 46.8884 78.0011H46.8884Z" fill="white"/>
<path d="M42.826 80.9009C43.823 81.5357 45.0226 81.7714 46.1857 81.561C46.3009 81.5401 46.3273 81.72 46.2122 81.7409C45.0015 81.9576 43.7536 81.7098 42.7176 81.0469C42.6189 80.9837 42.7278 80.838 42.826 80.9009V80.9009Z" fill="white"/>
<path d="M52.1444 77.3495C52.1494 77.578 52.211 77.8016 52.3239 78.0004C52.4367 78.1991 52.5971 78.3667 52.7907 78.4881C52.8901 78.5501 52.7811 78.6957 52.6822 78.6341C52.469 78.499 52.2921 78.3137 52.1669 78.0944C52.0418 77.8751 51.9723 77.6285 51.9645 77.3761C51.9618 77.3524 51.9682 77.3285 51.9824 77.3093C51.9966 77.2902 52.0176 77.2771 52.0411 77.2729C52.065 77.2695 52.0892 77.2756 52.1085 77.29C52.1278 77.3043 52.1407 77.3258 52.1444 77.3496V77.3495Z" fill="white"/>
<path d="M54.2285 45.6323C54.3792 45.4824 54.4952 45.3013 54.5683 45.1017C54.6414 44.9021 54.6698 44.6889 54.6516 44.4771C54.6334 44.2654 54.569 44.0602 54.4629 43.876C54.3568 43.6918 54.2117 43.5331 54.0376 43.4111L56.4109 31.925L53.8504 32.7328L51.9409 43.8447C51.7554 44.1506 51.6885 44.5141 51.7529 44.8661C51.8174 45.2181 52.0087 45.5342 52.2907 45.7545C52.5727 45.9749 52.9257 46.0842 53.2828 46.0616C53.64 46.0391 53.9765 45.8863 54.2285 45.6323Z" fill="#FFB6B6"/>
<path d="M59.7135 14.9297L58.1274 13.7325C58.1274 13.7325 56.7282 13.6334 56.4804 16.1567C56.2326 18.6799 54.681 28.3642 54.681 28.3642L52.2539 39.6054L55.6136 40.3428L58.2132 28.2116L60.8154 19.8423L59.7135 14.9297Z" fill="#889BAF"/>
<path d="M58.5056 35.7301L50.8973 29.8142C50.7788 29.7219 50.7018 29.5863 50.6831 29.4372C50.6644 29.2881 50.7057 29.1377 50.7978 29.019L55.9744 22.3614C56.0668 22.2429 56.2023 22.1659 56.3514 22.1472C56.5005 22.1286 56.6509 22.1698 56.7696 22.2619L64.3779 28.1777C64.4964 28.2701 64.5734 28.4057 64.5921 28.5548C64.6108 28.7039 64.5695 28.8542 64.4774 28.973L59.3008 35.6306C59.2085 35.7491 59.0729 35.8261 58.9238 35.8447C58.7747 35.8634 58.6243 35.8221 58.5056 35.7301Z" fill="#395979"/>
<path d="M58.4641 35.1179L51.5012 29.7039C51.396 29.6219 51.3276 29.5015 51.311 29.3691C51.2945 29.2367 51.3311 29.1032 51.4129 28.9978L56.1057 22.9624C56.1877 22.8572 56.3081 22.7888 56.4405 22.7722C56.5728 22.7556 56.7064 22.7923 56.8118 22.874L63.7746 28.288C63.8799 28.37 63.9483 28.4904 63.9648 28.6228C63.9814 28.7552 63.9448 28.8887 63.863 28.9941L59.1702 35.0295C59.0882 35.1347 58.9678 35.2031 58.8354 35.2197C58.703 35.2362 58.5695 35.1996 58.4641 35.1179Z" fill="white"/>
<path d="M52.4137 29.5503C52.3874 29.5298 52.3703 29.4997 52.3662 29.4666C52.3621 29.4335 52.3712 29.4001 52.3917 29.3738L54.7591 26.3291C54.7795 26.3028 54.8096 26.2856 54.8427 26.2815C54.8591 26.2794 54.8758 26.2806 54.8917 26.285C54.9076 26.2894 54.9225 26.2969 54.9356 26.307C54.9486 26.3171 54.9595 26.3298 54.9677 26.3441C54.9759 26.3585 54.9811 26.3743 54.9832 26.3907C54.9852 26.4071 54.984 26.4237 54.9796 26.4396C54.9753 26.4556 54.9678 26.4705 54.9577 26.4835L52.5903 29.5282C52.5698 29.5545 52.5397 29.5716 52.5066 29.5757C52.4735 29.5799 52.4401 29.5707 52.4137 29.5503Z" fill="#E4E4E4"/>
<path d="M52.8063 29.8552C52.78 29.8347 52.7629 29.8046 52.7588 29.7715C52.7546 29.7384 52.7638 29.7051 52.7842 29.6787L55.1516 26.634C55.1721 26.6077 55.2022 26.5906 55.2353 26.5864C55.2684 26.5823 55.3018 26.5915 55.3282 26.6119C55.3545 26.6324 55.3716 26.6625 55.3758 26.6956C55.3799 26.7287 55.3707 26.7621 55.3502 26.7884L52.9828 29.8331C52.9623 29.8594 52.9322 29.8765 52.8992 29.8807C52.8661 29.8848 52.8327 29.8757 52.8063 29.8552Z" fill="#E4E4E4"/>
<path d="M54.5397 28.4354C54.5134 28.4149 54.4963 28.3848 54.4922 28.3517C54.488 28.3187 54.4972 28.2853 54.5176 28.2589L55.5438 26.9391C55.554 26.9261 55.5666 26.9151 55.5809 26.9069C55.5953 26.8987 55.6112 26.8934 55.6276 26.8914C55.644 26.8893 55.6606 26.8905 55.6766 26.8949C55.6925 26.8992 55.7074 26.9067 55.7205 26.9169C55.7335 26.927 55.7445 26.9396 55.7526 26.954C55.7608 26.9684 55.7661 26.9842 55.7681 27.0007C55.7701 27.0171 55.7689 27.0337 55.7645 27.0497C55.7601 27.0656 55.7526 27.0805 55.7425 27.0935L54.7162 28.4133C54.6957 28.4396 54.6656 28.4567 54.6326 28.4609C54.5995 28.465 54.5661 28.4559 54.5397 28.4354Z" fill="#E4E4E4"/>
<path d="M55.069 31.0253C55.0427 31.0048 55.0256 30.9747 55.0215 30.9417C55.0173 30.9086 55.0265 30.8752 55.0469 30.8488L58.7843 26.0422C58.7945 26.0292 58.8071 26.0183 58.8214 26.0101C58.8358 26.0019 58.8516 25.9967 58.868 25.9946C58.8844 25.9926 58.901 25.9938 58.917 25.9981C58.9329 26.0025 58.9478 26.01 58.9608 26.0201C58.9739 26.0303 58.9848 26.0429 58.993 26.0572C59.0011 26.0716 59.0064 26.0874 59.0084 26.1038C59.0105 26.1202 59.0093 26.1368 59.0049 26.1528C59.0005 26.1687 58.9931 26.1836 58.9829 26.1966L55.2455 31.0033C55.225 31.0296 55.1949 31.0467 55.1618 31.0508C55.1288 31.0549 55.0954 31.0458 55.069 31.0253Z" fill="#E4E4E4"/>
<path d="M55.4611 31.3305C55.4348 31.31 55.4177 31.2799 55.4136 31.2468C55.4094 31.2137 55.4186 31.1804 55.439 31.154L59.1764 26.3474C59.1866 26.3344 59.1992 26.3234 59.2135 26.3153C59.2279 26.3071 59.2437 26.3019 59.2601 26.2998C59.2765 26.2978 59.2931 26.2989 59.3091 26.3033C59.325 26.3077 59.3399 26.3152 59.3529 26.3253C59.366 26.3355 59.3769 26.3481 59.3851 26.3624C59.3932 26.3768 59.3985 26.3926 59.4005 26.409C59.4026 26.4254 59.4014 26.442 59.397 26.458C59.3926 26.4739 59.3852 26.4888 59.375 26.5018L55.6376 31.3084C55.6171 31.3347 55.587 31.3518 55.5539 31.356C55.5209 31.3601 55.4875 31.351 55.4611 31.3305Z" fill="#E4E4E4"/>
<path d="M56.3517 32.0231C56.3254 32.0026 56.3083 31.9725 56.3042 31.9395C56.3001 31.9064 56.3092 31.873 56.3297 31.8466L60.067 27.04C60.0772 27.027 60.0898 27.0161 60.1041 27.0079C60.1185 26.9997 60.1343 26.9945 60.1507 26.9924C60.1671 26.9904 60.1837 26.9916 60.1997 26.996C60.2156 27.0003 60.2305 27.0078 60.2435 27.0179C60.2566 27.0281 60.2675 27.0407 60.2757 27.055C60.2838 27.0694 60.2891 27.0852 60.2912 27.1016C60.2932 27.118 60.292 27.1346 60.2876 27.1506C60.2832 27.1665 60.2758 27.1814 60.2656 27.1944L56.5283 32.0011C56.5077 32.0274 56.4777 32.0445 56.4446 32.0486C56.4115 32.0527 56.3781 32.0436 56.3517 32.0231Z" fill="#E4E4E4"/>
<path d="M56.7443 32.3283C56.718 32.3078 56.7009 32.2777 56.6968 32.2446C56.6926 32.2116 56.7018 32.1782 56.7222 32.1518L60.4596 27.3452C60.4698 27.3322 60.4824 27.3213 60.4967 27.3131C60.5111 27.3049 60.5269 27.2997 60.5433 27.2976C60.5597 27.2956 60.5763 27.2968 60.5923 27.3011C60.6082 27.3055 60.6231 27.313 60.6361 27.3231C60.6492 27.3333 60.6601 27.3459 60.6683 27.3602C60.6764 27.3746 60.6817 27.3904 60.6837 27.4068C60.6858 27.4232 60.6846 27.4398 60.6802 27.4558C60.6758 27.4717 60.6684 27.4866 60.6582 27.4996L56.9208 32.3062C56.9003 32.3325 56.8702 32.3496 56.8371 32.3538C56.8041 32.3579 56.7707 32.3488 56.7443 32.3283Z" fill="#E4E4E4"/>
<path d="M57.6345 33.0207C57.6082 33.0002 57.5911 32.9701 57.5869 32.937C57.5828 32.9039 57.5919 32.8705 57.6124 32.8442L61.3498 28.0376C61.3599 28.0245 61.3725 28.0136 61.3869 28.0055C61.4012 27.9973 61.417 27.992 61.4334 27.99C61.4498 27.9879 61.4665 27.9891 61.4824 27.9935C61.4983 27.9979 61.5132 28.0054 61.5263 28.0155C61.5393 28.0256 61.5502 28.0382 61.5584 28.0526C61.5665 28.067 61.5718 28.0828 61.5739 28.0992C61.5759 28.1156 61.5747 28.1322 61.5703 28.1481C61.566 28.1641 61.5585 28.179 61.5484 28.192L57.811 32.9986C57.7905 33.0249 57.7604 33.042 57.7273 33.0462C57.6942 33.0503 57.6608 33.0411 57.6345 33.0207Z" fill="#E4E4E4"/>
<path d="M58.0275 33.3258C58.0012 33.3053 57.9841 33.2752 57.98 33.2421C57.9758 33.209 57.985 33.1756 58.0054 33.1493L61.7428 28.3427C61.7633 28.3165 61.7934 28.2995 61.8265 28.2954C61.8595 28.2913 61.8928 28.3005 61.9191 28.3209C61.9454 28.3414 61.9625 28.3714 61.9667 28.4044C61.9709 28.4374 61.9618 28.4708 61.9414 28.4971L58.204 33.3037C58.1835 33.33 58.1534 33.3471 58.1204 33.3513C58.0873 33.3554 58.0539 33.3462 58.0275 33.3258Z" fill="#E4E4E4"/>
<path d="M51.7806 38.908C51.8092 38.908 51.8323 38.8849 51.8323 38.8563C51.8323 38.8278 51.8092 38.8047 51.7806 38.8047C51.7521 38.8047 51.729 38.8278 51.729 38.8563C51.729 38.8849 51.7521 38.908 51.7806 38.908Z" fill="white"/>
<path d="M59.3058 3.32204C59.1242 4.29801 58.8263 5.24872 58.4186 6.15386C56.0838 11.093 62.7328 9.48308 65.1089 9.48308C67.7068 9.48308 70.1924 10.8492 69.8128 4.77914C69.6506 2.18629 67.7068 0.0751953 65.1089 0.0751953C62.8898 0.0751953 59.7699 1.06152 59.3058 3.32204Z" fill="#223549"/>
<path d="M67.5309 75.7612H65.3175L64.2642 67.2236H67.5309V75.7612Z" fill="#FFB6B6"/>
<path d="M68.699 79.596H67.1117L66.8284 78.0974L66.1027 79.596H61.8927C61.6909 79.5961 61.4944 79.5316 61.3318 79.412C61.1693 79.2924 61.0492 79.124 60.9892 78.9313C60.9291 78.7386 60.9322 78.5318 60.998 78.3411C61.0638 78.1503 61.1889 77.9856 61.355 77.8709L64.7169 75.549V74.0339L68.2531 74.245L68.699 79.596Z" fill="#223549"/>
<path d="M80.6812 72.9677L78.9049 74.2885L72.9653 68.0662L75.5868 66.1167L80.6812 72.9677Z" fill="#FFB6B6"/>
<path d="M83.9065 75.3482L82.6327 76.2954L81.5111 75.2619L81.823 76.8975L78.4447 79.4096C78.2828 79.5301 78.0866 79.5956 77.8848 79.5966C77.683 79.5976 77.4862 79.5341 77.323 79.4154C77.1599 79.2966 77.0389 79.1288 76.9779 78.9365C76.9169 78.7441 76.9189 78.5373 76.9838 78.3462L78.2961 74.4768L77.392 73.2611L80.3556 71.3203L83.9065 75.3482Z" fill="#223549"/>
<path d="M60.2812 36.4688L70.7884 34.8323L68.6989 28.5464H60.2812V36.4688Z" fill="#FFB6B6"/>
<path d="M70.1078 31.7122C70.1078 31.7122 74.3075 35.3405 72.3698 45.6839L70.0042 55.8186L76.4493 67.0081L73.1721 68.7957L65.2297 57.7568L61.5953 49.2316L59.6729 34.2904L70.1078 31.7122Z" fill="#223549"/>
<path d="M63.5988 51.6614L63.3462 55.5733L64.0856 67.1574L67.7567 68.4214L68.4519 56.5523L63.5988 51.6614Z" fill="#223549"/>
<path d="M62.4698 10.7849L66.5313 10.9434L68.1499 13.6303L71.843 14.3512L69.6383 25.5046L70.0438 31.8529L66.3665 31.8305C63.7163 31.8143 61.1535 32.7771 59.1695 34.5342L59.2795 26.2936L57.6978 20.1421L58.0532 13.6918L61.0241 13.3204L62.4698 10.7849Z" fill="#889BAF"/>
<path d="M64.7199 9.48188C66.831 9.48188 68.5424 7.7705 68.5424 5.6594C68.5424 3.5483 66.831 1.83691 64.7199 1.83691C62.6088 1.83691 60.8975 3.5483 60.8975 5.6594C60.8975 7.7705 62.6088 9.48188 64.7199 9.48188Z" fill="#FFB6B6"/>
<path d="M62.1242 1.76301C62.794 1.35466 63.5612 1.13377 64.3456 1.12343C65.1301 1.11309 65.9028 1.31368 66.5832 1.70422C67.2635 2.09477 67.8265 2.66092 68.2131 3.34349C68.5998 4.02606 68.7959 4.79997 68.7811 5.58431C66.8334 6.07333 64.7871 6.44757 62.71 5.70128L62.2194 4.50074L61.9303 5.70217C61.2977 5.96072 60.6635 6.17948 60.0293 5.69967C60.0034 4.91755 60.1833 4.14233 60.5509 3.4515C60.9185 2.76067 61.461 2.17844 62.1242 1.76301Z" fill="#223549"/>
<path d="M71.1361 39.5595L71.6513 44.2359C71.6872 44.3525 71.7596 44.4546 71.8578 44.5272C71.956 44.5997 72.0748 44.6388 72.1969 44.6388H74.5722C74.6942 44.6388 74.8131 44.5997 74.9113 44.5272C75.0095 44.4546 75.0819 44.3525 75.1178 44.2359L75.5446 40.6517C75.6678 40.7121 75.8035 40.7424 75.9407 40.7401C76.0779 40.7378 76.2126 40.7029 76.3337 40.6385C76.4548 40.574 76.5588 40.4816 76.6373 40.3691C76.7158 40.2566 76.7664 40.127 76.785 39.9911C76.8036 39.8551 76.7898 39.7167 76.7445 39.5872C76.6992 39.4577 76.6238 39.3408 76.5245 39.2461C76.4252 39.1514 76.3049 39.0816 76.1734 39.0425C76.0419 39.0033 75.903 38.996 75.7681 39.021C75.7148 38.9581 75.6485 38.9076 75.5737 38.873C75.4989 38.8384 75.4174 38.8206 75.335 38.8208H71.6817C71.5924 38.8208 71.5043 38.8418 71.4245 38.882C71.3448 38.9223 71.2756 38.9807 71.2225 39.0525C71.1694 39.1244 71.134 39.2077 71.119 39.2957C71.1039 39.3838 71.1098 39.4741 71.1361 39.5595ZM75.6192 40.4093L75.8806 39.5595C75.9108 39.4615 75.9138 39.357 75.8892 39.2574C75.9004 39.2568 75.9109 39.2541 75.9222 39.2541C76.0864 39.2541 76.2438 39.3193 76.3599 39.4353C76.4759 39.5514 76.5412 39.7088 76.5412 39.873C76.5412 40.0371 76.4759 40.1946 76.3599 40.3107C76.2438 40.4267 76.0864 40.4919 75.9222 40.4919C75.8157 40.4913 75.7112 40.4628 75.6192 40.4093Z" fill="#EDC766"/>
<path d="M74.7177 44.642C74.5678 44.4913 74.4527 44.3096 74.3806 44.1096C74.3085 43.9097 74.2812 43.6964 74.3005 43.4847C74.3197 43.273 74.3852 43.0681 74.4922 42.8845C74.5992 42.7008 74.7452 42.5429 74.9199 42.4218L72.605 30.9238L75.1613 31.7446L77.0143 42.866C77.1983 43.1729 77.2634 43.5367 77.1971 43.8883C77.1309 44.24 76.9379 44.5551 76.6548 44.7741C76.3717 44.993 76.0182 45.1004 75.6612 45.0761C75.3041 45.0518 74.9684 44.8973 74.7177 44.642Z" fill="#FFB6B6"/>
<path d="M70.2567 15.5486L71.8428 14.3514C71.8428 14.3514 73.242 14.2523 73.4898 16.7755C73.7376 19.2988 75.2892 28.9831 75.2892 28.9831L77.7163 40.2243L74.3566 40.9617L71.757 28.8305L69.1548 20.4612L70.2567 15.5486Z" fill="#889BAF"/>
<path d="M56.5683 26.0152C57.0641 26.0152 57.4661 25.6132 57.4661 25.1173C57.4661 24.6215 57.0641 24.2195 56.5683 24.2195C56.0724 24.2195 55.6704 24.6215 55.6704 25.1173C55.6704 25.6132 56.0724 26.0152 56.5683 26.0152Z" fill="#EDC766"/>
<path d="M27.9378 86.1767L29.8089 86.1766L30.6991 78.9595L27.9375 78.9596L27.9378 86.1767Z" fill="#FFB6B6"/>
<path d="M27.46 85.5657L27.9866 85.5657L30.0428 84.7295L31.1449 85.5656H31.145C31.7678 85.5656 32.3651 85.813 32.8055 86.2534C33.2459 86.6938 33.4933 87.291 33.4933 87.9138V87.9902L27.4601 87.9904L27.46 85.5657Z" fill="#223549"/>
<path d="M35.188 84.9976L37.0132 85.4098L39.4713 78.566L36.7774 77.9578L35.188 84.9976Z" fill="#FFB6B6"/>
<path d="M34.8572 84.2965L35.371 84.4125L37.5608 84.0498L38.4516 85.1081L38.4518 85.1081C39.0593 85.2453 39.5874 85.6183 39.92 86.1448C40.2525 86.6714 40.3623 87.3085 40.2252 87.916L40.2083 87.9904L34.3232 86.6617L34.8572 84.2965Z" fill="#223549"/>
<path d="M24.5117 49.0528L26.2037 68.0099C26.2037 68.0099 25.5697 79.3908 27.6155 83.3956H30.5823L32.0513 66.9705L32.2357 55.9459L38.5964 65.2469L34.5451 83.1271L38.1966 83.4535L44.7707 64.0494L37.5482 45.8335L24.5117 49.0528Z" fill="#223549"/>
<path d="M26.2845 18.8641C28.6944 18.8641 30.648 16.9105 30.648 14.5005C30.648 12.0906 28.6944 10.137 26.2845 10.137C23.8745 10.137 21.9209 12.0906 21.9209 14.5005C21.9209 16.9105 23.8745 18.8641 26.2845 18.8641Z" fill="#FFB8B8"/>
<path d="M33.955 23.0223L30.3751 21.4863L28.6325 19.6379L24.279 20.3401L23.1239 22.3206L19.3848 25.7974L23.7656 45.6055L23.633 49.9318C23.633 49.9318 26.4369 51.1941 38.5967 48.2878C38.7425 48.253 38.4373 48.1003 38.4373 48.1003L33.955 23.0223Z" fill="#395979"/>
<path d="M21.7467 16.9766C21.7163 16.9351 21.6861 16.8933 21.6563 16.8511C21.6443 16.8764 21.6348 16.9026 21.6211 16.9273L21.7467 16.9766Z" fill="#223549"/>
<path d="M30.6243 11.3087C30.3326 10.6733 29.8126 10.1708 29.1675 9.90126C28.5281 9.64336 27.8135 9.64399 27.1745 9.903C26.5976 9.53853 25.9567 9.24959 25.2817 9.2138C24.6066 9.17801 23.8929 9.42844 23.477 9.9797C23.3841 10.1252 23.2786 10.2623 23.1616 10.3893C22.8273 10.699 22.3191 10.6543 21.8747 10.591C22.074 10.7619 22.2734 10.9327 22.4728 11.1036C22.2315 11.1666 21.9902 11.2296 21.7489 11.2927C22.0305 11.4635 22.3121 11.6343 22.5936 11.8051C21.7761 12.2957 21.4046 13.3667 21.5027 14.3394C21.5956 15.2603 22.0402 16.1024 22.5717 16.8509C22.7837 16.4035 22.738 15.8681 22.7345 15.3642C22.7308 14.8318 22.825 14.2272 23.2517 13.9296C23.5395 13.7289 23.9096 13.7199 24.2566 13.7218C26.0072 13.7314 27.7558 13.8406 29.494 14.0488C29.7299 14.059 29.9599 14.1257 30.1646 14.2433C30.549 14.5055 30.6239 15.0467 30.6625 15.5215C30.8655 14.7375 30.9649 13.9304 30.9581 13.1206C30.9752 12.4999 30.8615 11.8825 30.6243 11.3087Z" fill="#223549"/>
<path d="M31.9827 62.3416C35.7758 62.3416 38.8507 59.2668 38.8507 55.4737C38.8507 51.6806 35.7758 48.6057 31.9827 48.6057C28.1896 48.6057 25.1147 51.6806 25.1147 55.4737C25.1147 59.2668 28.1896 62.3416 31.9827 62.3416Z" fill="white"/>
<path d="M31.9825 48.4531C31.6295 48.4532 31.2769 48.4797 30.9279 48.5325C30.7493 48.5584 30.5754 48.592 30.4029 48.6332C29.1358 48.9253 27.9749 49.5636 27.0495 50.477C26.1241 51.3905 25.4708 52.543 25.1623 53.8061C24.8538 55.0693 24.9023 56.3933 25.3024 57.6304C25.7026 58.8675 26.4386 59.9692 27.4283 60.8124C27.5458 60.9116 27.6648 61.0078 27.7885 61.0993C28.6795 61.7637 29.7155 62.2069 30.8113 62.3926C31.9071 62.5783 33.0313 62.5011 34.0914 62.1674C35.1516 61.8337 36.1173 61.2531 36.9092 60.4732C37.701 59.6934 38.2964 58.7366 38.6463 57.6817C38.9961 56.6268 39.0905 55.5039 38.9215 54.4054C38.7526 53.3069 38.3253 52.2642 37.6746 51.3631C37.024 50.4621 36.1687 49.7284 35.1791 49.2225C34.1895 48.7166 33.0939 48.4529 31.9825 48.4531V48.4531ZM31.9825 62.1891C30.5546 62.1906 29.1638 61.7343 28.0143 60.8872C27.8892 60.7956 27.7686 60.701 27.6511 60.6003C26.6868 59.7868 25.9713 58.7181 25.5867 57.5166C25.2021 56.3151 25.1639 55.0295 25.4765 53.8073C25.7891 52.5851 26.4398 51.4757 27.3541 50.6065C28.2684 49.7372 29.4092 49.1432 30.6456 48.8927C30.8165 48.8576 30.9874 48.8301 31.1614 48.8087C31.4338 48.775 31.708 48.7582 31.9825 48.7584C33.7635 48.7584 35.4716 49.4659 36.731 50.7252C37.9903 51.9846 38.6979 53.6927 38.6979 55.4737C38.6979 57.2547 37.9903 58.9628 36.731 60.2222C35.4716 61.4816 33.7635 62.1891 31.9825 62.1891Z" fill="#395979"/>
<path d="M28.6142 54.1001H35.3515C35.5983 54.1001 35.7983 53.9 35.7983 53.6532V53.6313C35.7983 53.3845 35.5983 53.1844 35.3515 53.1844H28.6142C28.3673 53.1844 28.1673 53.3845 28.1673 53.6313V53.6532C28.1673 53.9 28.3673 54.1001 28.6142 54.1001Z" fill="#EDC766"/>
<path d="M28.6142 55.9316H35.3515C35.5983 55.9316 35.7983 55.7316 35.7983 55.4848V55.4628C35.7983 55.216 35.5983 55.0159 35.3515 55.0159H28.6142C28.3673 55.0159 28.1673 55.216 28.1673 55.4628V55.4848C28.1673 55.7316 28.3673 55.9316 28.6142 55.9316Z" fill="#EDC766"/>
<path d="M28.6142 57.7632H35.3515C35.5983 57.7632 35.7983 57.5631 35.7983 57.3163V57.2943C35.7983 57.0475 35.5983 56.8475 35.3515 56.8475H28.6142C28.3673 56.8475 28.1673 57.0475 28.1673 57.2943V57.3163C28.1673 57.5631 28.3673 57.7632 28.6142 57.7632Z" fill="#EDC766"/>
<path d="M108.821 85.9438L106.859 85.9436L105.925 78.376L108.821 78.3761L108.821 85.9438Z" fill="#9E616A"/>
<path d="M99.5383 85.9438L97.5765 85.9436L96.6431 78.376L99.5388 78.3761L99.5383 85.9438Z" fill="#9E616A"/>
<path d="M99.607 87.9904L93.5737 87.9901V87.9138C93.5738 87.291 93.8212 86.6938 94.2616 86.2534C94.702 85.813 95.2992 85.5656 95.922 85.5656H95.9222L97.0242 84.7295L99.0804 85.5657L99.6071 85.5657L99.607 87.9904Z" fill="#223549"/>
<path d="M109.141 87.9904L103.108 87.9901V87.9138C103.108 87.291 103.355 86.6938 103.796 86.2534C104.236 85.813 104.833 85.5656 105.456 85.5656H105.456L106.558 84.7295L108.615 85.5657L109.141 85.5657L109.141 87.9904Z" fill="#223549"/>
<path d="M97.614 41.1561L94.6323 59.3123L95.4437 62.0179L94.3789 63.9341L95.9426 80.7625L95.3079 82.1599L97.0814 83.2537H100.69L100.882 68.0188L101.773 65.782V64.5492L103.588 55.2594L103.922 68.2693L104.45 70.5096L104.006 72.1047L104.586 73.2222L106.125 83.5856H110.171L109.858 81.1746C110.211 80.9961 110.494 80.7056 110.663 80.3487C110.833 79.9917 110.879 79.5886 110.794 79.2027L110.562 78.1459L111.09 75.0212L112.052 57.589L111.78 43.5234L107.047 39.9036L97.614 41.1561Z" fill="#223549"/>
<path d="M104.45 17.8413C106.526 17.8413 108.21 16.1581 108.21 14.0817C108.21 12.0053 106.526 10.322 104.45 10.322C102.374 10.322 100.69 12.0053 100.69 14.0817C100.69 16.1581 102.374 17.8413 104.45 17.8413Z" fill="#9E616A"/>
<path d="M96.2361 48.361C96.3997 48.192 96.5243 47.9891 96.601 47.7667C96.6778 47.5443 96.7048 47.3078 96.6802 47.0738C96.6557 46.8398 96.5801 46.6141 96.4588 46.4125C96.3376 46.2109 96.1736 46.0383 95.9784 45.9069L97.4404 40.3782L94.6237 41.3256L93.6672 46.4305C93.4682 46.773 93.4018 47.1766 93.4805 47.5648C93.5592 47.953 93.7776 48.2988 94.0942 48.5368C94.4109 48.7748 94.8038 48.8883 95.1986 48.8559C95.5933 48.8235 95.9625 48.6474 96.2361 48.361H96.2361Z" fill="#9E616A"/>
<path d="M97.774 21.8166L97.1694 21.6912L96.6538 21.9767C96.6538 21.9767 95.2135 23.8971 95.2135 25.6574C95.2135 27.4178 93.4531 44.3813 93.4531 44.3813L96.6538 45.8216L99.2143 32.5389L97.774 21.8166Z" fill="#889BAF"/>
<path d="M107.742 11.3251C107.742 11.3251 108.726 9.44523 106.562 9.27434C106.562 9.27434 104.718 7.60135 102.838 8.96849C102.838 8.96849 101.813 8.96849 101.252 10.1288C101.252 10.1288 100.446 9.82296 100.269 10.6415C100.269 10.6415 99.6785 12.3504 100.269 13.8885C100.859 15.4265 101.055 15.5974 101.055 15.5974C101.055 15.5974 100.085 12.3728 102.445 12.2019C104.805 12.031 107.447 10.556 107.643 12.4359C107.84 14.3157 108.136 14.7789 108.136 14.7789C108.136 14.7789 110.004 12.0941 107.742 11.3251Z" fill="#223549"/>
<path d="M121.476 63.934C121.192 63.9344 120.919 63.8299 120.707 63.6406L109.329 53.5124C109.1 53.3078 108.961 53.0207 108.943 52.7139C108.926 52.4072 109.03 52.1059 109.234 51.8761L116.523 43.688C116.728 43.4586 117.015 43.3198 117.321 43.302C117.628 43.2842 117.93 43.3888 118.159 43.5928L129.537 53.7212C129.767 53.9255 129.906 54.2127 129.924 54.5195C129.941 54.8264 129.837 55.1277 129.632 55.3573L122.343 63.5454C122.243 63.6595 122.12 63.7524 121.983 63.8187C121.846 63.8851 121.697 63.9236 121.545 63.932C121.522 63.9334 121.499 63.934 121.476 63.934Z" fill="white"/>
<path d="M121.476 64.0086C121.174 64.0091 120.882 63.8979 120.657 63.6965L109.279 53.5683C109.035 53.3505 108.888 53.0449 108.869 52.7184C108.85 52.3919 108.961 52.0712 109.178 51.8267L116.467 43.6385C116.685 43.3946 116.99 43.2469 117.317 43.2279C117.643 43.2089 117.964 43.3202 118.209 43.5373L129.587 53.6656C129.831 53.8831 129.979 54.1888 129.998 54.5154C130.017 54.8419 129.905 55.1627 129.688 55.407L122.399 63.5952C122.291 63.7166 122.161 63.8154 122.015 63.886C121.869 63.9566 121.711 63.9976 121.549 64.0066C121.525 64.0079 121.5 64.0086 121.476 64.0086ZM117.389 43.5235C117.257 43.5233 117.126 43.551 117.006 43.605C116.885 43.659 116.777 43.7379 116.69 43.8367L109.401 52.0248C109.236 52.2103 109.152 52.4535 109.166 52.7011C109.18 52.9488 109.292 53.1806 109.478 53.3457L120.855 63.4739C120.947 63.5556 121.054 63.6184 121.17 63.6588C121.286 63.6991 121.409 63.7162 121.532 63.7091C121.654 63.702 121.775 63.6707 121.885 63.6172C121.996 63.5637 122.095 63.4889 122.176 63.3971L129.465 55.2089C129.63 55.0236 129.715 54.7803 129.7 54.5327C129.686 54.285 129.574 54.0531 129.388 53.8882L118.01 43.7598C117.839 43.6073 117.618 43.5232 117.389 43.5235H117.389Z" fill="#395979"/>
<path d="M125.602 56.1793C125.479 56.1795 125.36 56.1344 125.268 56.0526L116.337 48.1023C116.288 48.0586 116.247 48.0055 116.219 47.9462C116.19 47.8868 116.173 47.8224 116.169 47.7565C116.165 47.6906 116.174 47.6246 116.196 47.5623C116.217 47.4999 116.251 47.4424 116.295 47.3932C116.339 47.3439 116.392 47.3037 116.451 47.275C116.511 47.2463 116.575 47.2296 116.641 47.2259C116.707 47.2222 116.773 47.2315 116.835 47.2533C116.898 47.2752 116.955 47.3091 117.004 47.3531L125.935 55.3034C126.011 55.371 126.065 55.4601 126.089 55.5589C126.113 55.6577 126.107 55.7615 126.071 55.8565C126.034 55.9515 125.97 56.0333 125.886 56.0909C125.803 56.1486 125.703 56.1794 125.602 56.1793Z" fill="#EDC766"/>
<path d="M123.899 58.0931C123.776 58.0933 123.657 58.0482 123.566 57.9664L114.634 50.0161C114.585 49.9723 114.545 49.9193 114.516 49.86C114.488 49.8007 114.471 49.7364 114.467 49.6706C114.463 49.6049 114.473 49.539 114.494 49.4768C114.516 49.4146 114.549 49.3573 114.593 49.3081C114.637 49.259 114.69 49.2189 114.749 49.1902C114.809 49.1615 114.873 49.1448 114.939 49.141C115.004 49.1372 115.07 49.1463 115.133 49.168C115.195 49.1896 115.252 49.2233 115.301 49.2671L124.233 57.2174C124.309 57.285 124.362 57.3741 124.386 57.4729C124.41 57.5716 124.404 57.6754 124.368 57.7704C124.332 57.8654 124.267 57.9472 124.184 58.0048C124.1 58.0625 124 58.0933 123.899 58.0931H123.899Z" fill="#EDC766"/>
<path d="M122.195 60.007C122.072 60.0072 121.953 59.962 121.861 59.8801L112.93 51.93C112.881 51.8862 112.841 51.8331 112.812 51.7738C112.783 51.7145 112.766 51.6501 112.763 51.5843C112.759 51.5185 112.768 51.4526 112.79 51.3904C112.811 51.3281 112.845 51.2707 112.889 51.2215C112.932 51.1723 112.986 51.1322 113.045 51.1035C113.104 51.0748 113.169 51.0581 113.234 51.0543C113.3 51.0505 113.366 51.0597 113.428 51.0814C113.491 51.1031 113.548 51.1369 113.597 51.1808L122.528 59.1311C122.604 59.1987 122.658 59.2878 122.682 59.3865C122.706 59.4853 122.7 59.5891 122.664 59.6841C122.627 59.7791 122.563 59.8609 122.48 59.9186C122.396 59.9763 122.296 60.0071 122.195 60.007H122.195Z" fill="#EDC766"/>
<path d="M111.981 48.6873C111.867 48.4818 111.798 48.2537 111.782 48.0191C111.765 47.7844 111.799 47.5489 111.883 47.3292C111.967 47.1094 112.098 46.9107 112.267 46.747C112.436 46.5834 112.639 46.4588 112.862 46.3821L112.871 40.6633L115.349 42.3035L114.96 47.4827C115.064 47.8649 115.025 48.2719 114.849 48.6268C114.673 48.9817 114.373 49.2597 114.006 49.4082C113.639 49.5567 113.23 49.5653 112.857 49.4324C112.483 49.2996 112.172 49.0344 111.981 48.6873H111.981Z" fill="#9E616A"/>
<path d="M112.21 23.3838L113.317 22.3167L114.13 22.9037C114.13 22.9037 114.931 23.8639 115.571 26.7445C116.211 29.6251 115.571 45.4684 115.571 45.4684L112.05 44.9883L112.53 36.6665L111.09 29.6251L112.21 23.3838Z" fill="#889BAF"/>
<path d="M113.845 22.577L110.115 20.7953L107.583 18.4464L102.965 18.4119L101.475 20.3484L97.5427 21.6843L98.1982 35.2447L97.7513 36.2874C97.7513 36.2874 98.0626 36.5687 98.2049 36.726C98.3471 36.8833 98.0083 38.2002 98.0083 38.2002L97.8173 39.6329L98.3471 40.0115L97.6583 40.8252L97.4873 42.1077C97.4873 42.1077 109.511 39.1192 111.783 44.0699C111.903 44.3315 111.607 41.7751 111.607 41.7751L111.312 39.9037L111.605 38.224L112.052 37.7771L111.302 37.0276L111.783 33.4712L113.845 22.577Z" fill="#395979"/>
<path d="M29.2579 52.6393C29.3505 52.4043 29.3904 52.1518 29.3748 51.8997C29.3593 51.6476 29.2886 51.4019 29.1679 51.1801C29.0471 50.9582 28.8791 50.7655 28.6758 50.6156C28.4725 50.4656 28.2389 50.3621 27.9912 50.3122L27.1626 44.228L24.7603 46.328L25.9154 51.7838C25.8592 52.2053 25.9596 52.6328 26.1976 52.9853C26.4356 53.3378 26.7946 53.5907 27.2066 53.6962C27.6187 53.8017 28.055 53.7523 28.4331 53.5575C28.8112 53.3627 29.1046 53.036 29.2579 52.6393V52.6393Z" fill="#FFB8B8"/>
<path d="M19.8457 25.6863L19.1946 25.811L18.8009 26.3066C18.8009 26.3066 18.1642 28.8041 18.8896 30.5495C19.6149 32.295 24.8594 49.8398 24.8594 49.8398L28.6264 49.949L25.6919 35.724L19.8457 25.6863Z" fill="#395979"/>
<path d="M34.6954 51.7466C34.5219 51.5631 34.3907 51.3437 34.3112 51.1039C34.2316 50.8642 34.2056 50.6099 34.2349 50.359C34.2642 50.1081 34.3482 49.8667 34.481 49.6518C34.6137 49.4368 34.7919 49.2536 35.0031 49.1151L33.5034 43.1606L36.5156 44.2135L37.4779 49.7065C37.6872 50.0767 37.7535 50.5108 37.6641 50.9266C37.5747 51.3424 37.3358 51.711 36.9929 51.9625C36.6499 52.2139 36.2266 52.3309 35.8031 52.2911C35.3797 52.2513 34.9856 52.0576 34.6954 51.7466Z" fill="#FFB8B8"/>
<path d="M33.3798 23.2279L34.0305 23.1008L34.5805 23.4139C34.5805 23.4139 36.1026 25.4939 36.0803 27.3839C36.058 29.274 37.7334 47.5091 37.7334 47.5091L34.2788 49.015L31.6978 34.7216L33.3798 23.2279Z" fill="#395979"/>
</svg>
