<svg width="170" height="101" viewBox="0 0 170 101" fill="none" xmlns="http://www.w3.org/2000/svg">
<path d="M136.22 73.7789H33.7562C30.5672 73.7789 27.9819 71.1936 27.9819 68.0046V5.47333C27.9819 2.45078 30.4322 0 33.4553 0H136.521C139.544 0 141.994 2.45032 141.994 5.47333V68.005C141.994 71.1941 139.409 73.7789 136.22 73.7789Z" fill="#D8E2E7"/>
<path d="M136.687 4.98689H33.2883V63.1281H136.687V4.98689Z" fill="#384457"/>
<path opacity="0.5" d="M100.873 47.3056L84.9882 20.5541L81.2634 26.8375L93.1917 47.3056H100.873Z" fill="#C3CAD5"/>
<path opacity="0.7" d="M69.1021 47.3056L84.9875 20.5541L87.9495 25.5529L88.766 26.9279L76.7823 47.3056H69.1021Z" fill="#6A707B"/>
<path d="M84.9877 20.5541L81.2704 26.814L81.2598 26.8321L85.024 33.2913L88.7692 26.9226L84.9877 20.5541Z" fill="#8F97A3"/>
<path d="M136.521 75.305H33.4553C30.4322 75.305 27.9819 72.8547 27.9819 69.8317V63.1281H141.994V69.8321C141.994 72.8547 139.543 75.305 136.521 75.305Z" fill="#7C8B96"/>
<path d="M93.162 75.305H76.8134L73.7649 91.3252H96.211L93.162 75.305Z" fill="#CAD6DD"/>
<path d="M101.257 91.3252H68.7192V95.6365H101.257V91.3252Z" fill="#A6B3BD"/>
<path d="M88.1394 69.2163C88.1394 70.9567 86.7282 72.3678 84.9879 72.3678C83.2475 72.3678 81.8364 70.9567 81.8364 69.2163C81.8364 67.4759 83.2475 66.0648 84.9879 66.0648C86.7282 66.0653 88.1394 67.4759 88.1394 69.2163Z" fill="#384457"/>
<path d="M111.418 99.0833H104.917L112.277 40.069H118.777L111.418 99.0833Z" fill="#32302D"/>
<path d="M161.955 99.0833H168.456L161.096 40.069H154.595L161.955 99.0833Z" fill="#32302D"/>
<path d="M166.702 21.9017H106.672V49.1575H166.702V21.9017Z" fill="#FFCB3D"/>
<path d="M166.702 36.0105H106.672V49.1575H166.702V36.0105Z" fill="#FFCB3D"/>
<path d="M166.702 36.0105H106.672V49.1575H166.702V36.0105Z" fill="black" fill-opacity="0.1"/>
<path d="M169.815 60.0796H103.559V67.4282H169.815V60.0796Z" fill="#FFCB3D"/>
<path d="M111.228 60.0796L108.313 67.4287H104.151L107.066 60.0796H111.228Z" fill="#32302D"/>
<path d="M118.452 60.0796L115.537 67.4287H111.375L114.29 60.0796H118.452Z" fill="#32302D"/>
<path d="M125.675 60.0796L122.761 67.4287H118.599L121.513 60.0796H125.675Z" fill="#32302D"/>
<path d="M132.899 60.0796L129.984 67.4287H125.823L128.737 60.0796H132.899Z" fill="#32302D"/>
<path d="M140.122 60.0796L137.208 67.4287H133.046L135.96 60.0796H140.122Z" fill="#32302D"/>
<path d="M147.346 60.0796L144.432 67.4287H140.27L143.184 60.0796H147.346Z" fill="#32302D"/>
<path d="M154.57 60.0796L151.655 67.4287H147.493L150.408 60.0796H154.57Z" fill="#32302D"/>
<path d="M161.794 60.0796L158.879 67.4287H154.717L157.632 60.0796H161.794Z" fill="#32302D"/>
<path d="M169.017 60.0796L166.103 67.4287H161.941L164.855 60.0796H169.017Z" fill="#32302D"/>
<path d="M169.815 78.6271H103.559V85.9757H169.815V78.6271Z" fill="#FFCB3D"/>
<path d="M111.228 78.6271L108.313 85.9757H104.151L107.066 78.6271H111.228Z" fill="#32302D"/>
<path d="M118.452 78.6271L115.537 85.9757H111.375L114.29 78.6271H118.452Z" fill="#32302D"/>
<path d="M125.675 78.6271L122.761 85.9757H118.599L121.513 78.6271H125.675Z" fill="#32302D"/>
<path d="M132.899 78.6271L129.984 85.9757H125.823L128.737 78.6271H132.899Z" fill="#32302D"/>
<path d="M140.122 78.6271L137.208 85.9757H133.046L135.96 78.6271H140.122Z" fill="#32302D"/>
<path d="M147.346 78.6271L144.432 85.9757H140.27L143.184 78.6271H147.346Z" fill="#32302D"/>
<path d="M154.57 78.6271L151.655 85.9757H147.493L150.408 78.6271H154.57Z" fill="#32302D"/>
<path d="M161.794 78.6271L158.879 85.9757H154.717L157.632 78.6271H161.794Z" fill="#32302D"/>
<path d="M169.017 78.6271L166.103 85.9757H161.941L164.855 78.6271H169.017Z" fill="#32302D"/>
<path d="M111.611 25.2071C111.611 25.8929 111.055 26.4489 110.369 26.4489C109.683 26.4489 109.128 25.8929 109.128 25.2071C109.128 24.5212 109.684 23.9657 110.369 23.9657C111.055 23.9657 111.611 24.5212 111.611 25.2071Z" fill="#32302D"/>
<path d="M111.611 45.8516C111.611 46.5374 111.055 47.0934 110.369 47.0934C109.683 47.0934 109.128 46.5374 109.128 45.8516C109.128 45.1657 109.684 44.6097 110.369 44.6097C111.055 44.6102 111.611 45.1657 111.611 45.8516Z" fill="#32302D"/>
<path d="M164.041 25.2071C164.041 25.8929 163.485 26.4489 162.799 26.4489C162.113 26.4489 161.557 25.8929 161.557 25.2071C161.557 24.5212 162.113 23.9657 162.799 23.9657C163.485 23.9657 164.041 24.5212 164.041 25.2071Z" fill="#32302D"/>
<path d="M164.041 45.8516C164.041 46.5374 163.485 47.0934 162.799 47.0934C162.113 47.0934 161.557 46.5374 161.557 45.8516C161.557 45.1657 162.113 44.6097 162.799 44.6097C163.485 44.6102 164.041 45.1657 164.041 45.8516Z" fill="#32302D"/>
<path d="M44.3514 94.6882H0V100.091H44.3514V94.6882Z" fill="#DD730A"/>
<path d="M39.2825 94.6882H5.06665L5.75899 92.7493L7.6737 87.4003L9.95662 81.0143L12.3675 74.2704L14.6504 67.8845L17.0618 61.1405L19.3447 54.7546L21.9518 47.4672H22.3974L25.0044 54.7546L27.2874 61.1405L29.6987 67.8845L31.9816 74.2704L34.3925 81.0143L36.6754 87.4003L38.5901 92.7493L39.2825 94.6882Z" fill="#FD9227"/>
<path d="M27.2873 61.1405H17.0618L19.3447 54.7546H25.0044L27.2873 61.1405Z" fill="#FFF7F5"/>
<path d="M31.9815 74.2704H12.3674L14.6503 67.8845H29.6986L31.9815 74.2704Z" fill="#FFF7F5"/>
<path d="M36.6753 87.4003H7.67358L9.9565 81.0143H34.3924L36.6753 87.4003Z" fill="#FFF7F5"/>
</svg>
