<svg width="97" height="93" viewBox="0 0 97 93" fill="none" xmlns="http://www.w3.org/2000/svg">
<path d="M94.0703 67.1606H18.9036C17.5091 67.159 16.3791 66.029 16.3774 64.6344V3.42926C16.3791 2.03475 17.5091 0.904689 18.9036 0.903076H94.0703C95.4648 0.904691 96.5948 2.03476 96.5965 3.42926V64.6344C96.5948 66.029 95.4648 67.159 94.0703 67.1606Z" fill="#F8E9C2"/>
<path d="M86.7652 65.4567H20.6063C19.2118 65.4551 18.0817 64.325 18.0801 62.9305V5.13458C18.0817 3.74008 19.2118 2.61001 20.6063 2.6084H92.3646C93.7591 2.61001 94.8892 3.74008 94.8908 5.13458V57.3311C94.8857 61.8167 91.2507 65.4517 86.7652 65.4567Z" fill="white"/>
<path d="M68.5854 15.677H38.3742C38.0143 15.677 37.7227 15.3854 37.7227 15.0255C37.7227 14.6657 38.0143 14.374 38.3742 14.374H68.5854C68.9452 14.374 69.2369 14.6657 69.2369 15.0255C69.2369 15.3854 68.9452 15.677 68.5854 15.677Z" fill="#F1D285"/>
<path d="M83.8789 22.6282H38.3742C38.0143 22.6282 37.7227 22.3365 37.7227 21.9767C37.7227 21.6169 38.0143 21.3252 38.3742 21.3252H83.8789C84.2387 21.3252 84.5304 21.6169 84.5304 21.9767C84.5304 22.3365 84.2387 22.6282 83.8789 22.6282Z" fill="#FBF4E0"/>
<path d="M83.8789 29.5793H38.3742C38.0143 29.5793 37.7227 29.2876 37.7227 28.9278C37.7227 28.5679 38.0143 28.2762 38.3742 28.2762H83.8789C84.2387 28.2762 84.5304 28.5679 84.5304 28.9278C84.5304 29.2876 84.2387 29.5793 83.8789 29.5793Z" fill="#FBF4E0"/>
<path d="M83.8789 36.5304H38.3742C38.0143 36.5304 37.7227 36.2387 37.7227 35.8789C37.7227 35.5191 38.0143 35.2274 38.3742 35.2274H83.8789C84.2387 35.2274 84.5304 35.5191 84.5304 35.8789C84.5304 36.2387 84.2387 36.5304 83.8789 36.5304Z" fill="#FBF4E0"/>
<path d="M83.8789 43.4816H38.3742C38.0143 43.4816 37.7227 43.1899 37.7227 42.8301C37.7227 42.4703 38.0143 42.1786 38.3742 42.1786H83.8789C84.2387 42.1786 84.5304 42.4703 84.5304 42.8301C84.5304 43.1899 84.2387 43.4816 83.8789 43.4816Z" fill="#FBF4E0"/>
<path d="M81.8326 54.5587C80.0107 54.5587 78.5337 53.0817 78.5337 51.2597C78.5337 49.4378 80.0107 47.9608 81.8326 47.9608C83.6546 47.9608 85.1316 49.4378 85.1316 51.2598C85.1316 53.0817 83.6546 54.5587 81.8326 54.5587Z" fill="#F1D285"/>
<path d="M83.6886 51.103L82.7533 49.7379C82.6671 49.6113 82.4945 49.5786 82.3679 49.6649C82.2414 49.7511 82.2086 49.9237 82.2949 50.0503L82.2957 50.0515L82.9006 50.9343H80.531C80.3513 50.9338 80.2051 51.079 80.2046 51.2587C80.2041 51.4385 80.3493 51.5846 80.529 51.5851H82.9303L82.2957 52.5114C82.2097 52.6381 82.2427 52.8106 82.3694 52.8967C82.4954 52.9822 82.6667 52.9502 82.7533 52.8249L83.6886 51.4599C83.7505 51.349 83.7505 51.2139 83.6886 51.103H83.6886Z" fill="white"/>
<path d="M24.1095 57.9865C24.6089 57.5687 24.675 56.8251 24.2572 56.3257C24.2127 56.2725 24.1635 56.2232 24.1103 56.1786L23.395 49.9983L21.124 50.5241L22.3861 56.3826C21.9997 56.9111 22.1149 57.6527 22.6433 58.0392C23.0855 58.3625 23.6916 58.3407 24.1095 57.9865Z" fill="#FFB6B6"/>
<path d="M23.8757 51.0061L21.2465 52.6463C21.2465 52.6463 21.0865 53.6076 20.9057 51.1917C20.8868 50.9395 21.0628 50.5002 21.0434 50.2414C21.0216 49.9494 20.1852 49.8165 20.1632 49.5211C20.1475 49.3108 20.3893 49.1237 20.3737 48.9139C20.35 48.5962 20.3265 48.2803 20.3035 47.9694C20.2842 47.7094 19.9961 47.5445 19.9776 47.2936C19.9588 47.0405 20.2096 46.7013 20.1919 46.4615C20.0594 44.6631 20.5177 40.1385 20.5177 40.0464C20.4823 39.8154 20.3858 39.5981 20.2383 39.4168L20.3786 38.9971L20.2858 38.2096C20.1639 37.1748 20.3814 36.1283 20.9057 35.2279L21.5734 34.7906L24.6544 39.9728C23.3579 44.4571 22.5116 46.2185 23.8757 51.0061H23.8757Z" fill="#889CAF"/>
<path d="M21.8232 89.645H23.4137L24.1707 83.5103H21.8232V89.645Z" fill="#FFB6B6"/>
<path d="M21.3043 88.5557L23.8452 88.4041V89.4927L26.261 91.1611C26.5701 91.3745 26.6476 91.798 26.4342 92.1071C26.3073 92.291 26.0981 92.4007 25.8746 92.4007H22.8495L22.3281 91.3239L22.1245 92.4007H20.9839L21.3043 88.5557H21.3043Z" fill="#072A4F"/>
<path d="M30.7573 89.645H32.3478L33.1046 83.5103H30.7573V89.645Z" fill="#FFB6B6"/>
<path d="M30.2384 88.5557L32.7793 88.4041V89.4927L35.1951 91.1611C35.5041 91.3745 35.5817 91.798 35.3683 92.1071C35.2413 92.291 35.0321 92.4007 34.8087 92.4007H31.7836L31.2621 91.3239L31.0586 92.4007H29.918L30.2384 88.5557H30.2384Z" fill="#072A4F"/>
<path d="M21.1487 84.3548H21.1549L21.4608 69.7451C21.0587 68.9696 21.0716 68.0444 21.495 67.2803L21.5388 67.201L21.4252 66.6747C21.2794 65.9985 21.3463 65.2937 21.6168 64.657L21.9022 55.3524C20.8827 48.7455 25.7411 44.4368 25.7411 44.4368H33.0191L34.5816 49.8051C35.6145 59.8688 35.4271 74.3104 33.788 83.8115L33.8326 83.8341C34.0087 83.9323 34.0766 84.1515 33.9868 84.332C33.9111 84.5514 33.7193 84.6843 33.5584 84.6287L29.7148 84.495C29.5387 84.3969 29.4708 84.1777 29.5606 83.9972C29.6363 83.7777 29.8282 83.6449 29.9891 83.7004L30.2504 83.8326L29.9807 83.2837C29.65 82.6104 29.714 81.8101 30.1474 81.1979L30.1002 79.9895C29.6916 79.511 29.5557 78.8569 29.7401 78.2552L29.9993 77.409L29.6931 69.5724L29.7549 67.8143L29.6275 65.8198L29.0383 56.8484L26.8083 67.8807L24.5304 84.4658C24.6419 84.5664 24.6908 84.7191 24.6586 84.8657C24.6102 85.0625 24.4319 85.1994 24.2293 85.1954H21.1376C20.905 85.1952 20.7166 85.0064 20.7168 84.7738C20.7168 84.7361 20.7219 84.6986 20.732 84.6622C20.7856 84.4774 20.9563 84.3515 21.1487 84.3548Z" fill="#072A4F"/>
<path d="M38.8353 55.585C39.2462 55.0799 39.1699 54.3373 38.6648 53.9264C38.6109 53.8826 38.5533 53.8436 38.4926 53.8099L36.616 47.8781L34.4863 48.8258L36.8386 54.3378C36.5596 54.93 36.8136 55.6363 37.4059 55.9153C37.9014 56.1487 38.4924 56.0121 38.8353 55.585H38.8353H38.8353Z" fill="#FFB6B6"/>
<path d="M31.1119 36.727C31.1119 36.727 33.2521 44.3009 33.1552 45.066C32.9553 46.6438 23.1203 51.4937 22.3889 49.3354L22.4806 48.626C22.1111 47.887 24.3655 44.9541 24.4749 44.5704C24.6139 44.0798 23.9844 42.4692 23.9844 42.4692C23.9844 42.4692 24.4195 40.9989 24.35 40.0886C24.2792 39.1784 24.0693 39.3187 23.2994 38.7574C22.5295 38.1973 21.269 35.6069 21.269 35.6069C21.269 35.6069 21.8291 33.086 21.8291 32.5954C21.8291 32.1049 24.1298 31.2693 24.4092 30.9899C24.5309 30.8276 24.6333 30.6518 24.7144 30.4659C24.771 30.3526 24.735 30.09 24.7955 29.9599C24.8341 29.875 24.9693 29.9277 25.0092 29.8402C25.0478 29.7552 25.0144 29.6574 25.053 29.5737C25.1032 29.463 25.2242 29.3664 25.2719 29.2621C25.4907 28.7832 25.6774 28.3931 25.7354 28.3931C25.8744 28.3931 30.3574 29.0239 30.3574 29.0239C30.6014 29.4013 30.8827 29.7533 31.1969 30.0745C31.6874 30.5638 33.983 31.7547 33.983 31.7547L31.1119 36.727H31.1119Z" fill="#889CAF"/>
<path d="M37.1661 49.469C36.8159 49.8192 35.083 51.4271 35.0122 51.0061C34.9426 50.5864 34.9048 50.5362 34.6241 50.3972C34.3434 50.2568 34.3434 50.1873 34.2739 49.6968C34.2044 49.2062 33.5735 48.7157 33.6443 48.5058C33.7139 48.296 33.649 48.563 33.649 48.3518C33.649 48.142 33.4391 47.372 33.1584 47.2317C32.879 47.0914 32.458 46.9523 32.6692 46.6021C32.879 46.2519 30.6929 35.746 30.6929 35.746L32.6537 31.8951L33.9837 31.7548C33.9837 31.7548 34.3878 31.986 34.5144 34.0707C34.5209 34.1763 34.636 34.3701 34.6409 34.4854C34.645 34.5812 34.5391 34.597 34.542 34.6999C34.5426 34.7218 34.5432 34.7439 34.5438 34.7662C34.5464 34.8684 34.8224 34.9436 34.8265 35.0423C34.8339 35.2185 34.9423 36.3425 34.954 36.5077C34.9672 36.6939 34.9827 36.8733 35.0007 37.0459C35.1942 38.9246 35.2635 39.0833 35.3834 39.6829C35.569 40.611 36.3385 46.0317 36.3385 46.0317C36.3385 46.0317 36.8986 46.1708 36.8986 46.6613C36.8986 47.1519 37.5163 48.1378 37.2369 48.6978C36.9562 49.2592 37.5163 49.1189 37.1661 49.469H37.1661Z" fill="#889CAF"/>
<path d="M27.635 28.2494C29.4694 28.2494 30.9565 26.7623 30.9565 24.9278C30.9565 23.0934 29.4694 21.6063 27.635 21.6063C25.8006 21.6063 24.3135 23.0934 24.3135 24.9278C24.3135 26.7623 25.8006 28.2494 27.635 28.2494Z" fill="#FFB8B8"/>
<path d="M20.4773 31.9083C19.7744 31.6592 19.0715 31.4097 18.3687 31.1596C18.4898 30.9564 18.6441 30.7748 18.8251 30.6224C19.4944 30.0636 20.4181 29.9626 21.2677 29.7741C22.1187 29.5856 23.0424 29.1991 23.3535 28.3858C23.6766 27.5402 23.2081 26.6272 22.9361 25.7655C22.5343 24.5567 22.5831 23.2435 23.0734 22.0679C23.5811 20.8911 24.6081 20.0179 25.8513 19.7061C27.082 19.4328 28.473 19.8785 29.2297 20.8857C30.2387 20.583 31.3149 21.0812 31.7369 22.0464C31.9316 22.4898 31.9016 22.9997 31.6561 23.4171C31.3936 23.8144 30.8321 24.0177 30.4093 23.7969L30.6543 23.1748C29.8962 23.432 29.4034 24.8027 29.5057 25.5972C29.6067 26.3903 30.0699 27.0851 30.5399 27.7327C31.0098 28.3804 31.5107 29.0348 31.7127 29.8091C32.0035 30.9226 31.6104 32.1399 30.8832 33.0326C30.1561 33.9254 29.1314 34.5313 28.0703 34.977C27.2761 35.311 26.4507 35.5654 25.6062 35.7365C25.757 35.4429 25.9065 35.1494 26.0573 34.8559L24.2678 35.9385C23.9217 35.9721 23.573 35.9923 23.2242 35.999C22.2089 36.0166 21.1735 35.9102 20.2444 35.5049C19.3139 35.0982 18.4966 34.3617 18.1599 33.4043C18.052 33.0946 18.0009 32.768 18.0092 32.4402C18.8319 32.2625 19.6546 32.0852 20.4773 31.9083H20.4773Z" fill="#072A4F"/>
<path d="M52.5746 92.6537H46.4143L46.3878 92.6057C46.3091 92.4628 46.233 92.3115 46.162 92.1559C45.5274 90.7974 45.2592 89.2437 45.0225 87.8729L44.8443 86.8397C44.7845 86.4924 45.0174 86.1624 45.3646 86.1025C45.5346 86.0732 45.7092 86.114 45.8486 86.2155C46.7848 86.8968 47.7214 87.5773 48.6583 88.2572C49.0131 88.5154 49.4182 88.8141 49.8062 89.137C49.8437 88.9551 49.8828 88.7728 49.922 88.593C49.9969 88.2484 50.3369 88.0299 50.6814 88.1048C50.8501 88.1415 50.9967 88.2449 51.0878 88.3914L51.8086 89.5494C52.3343 90.395 52.7983 91.2283 52.7037 92.1271C52.7042 92.138 52.7034 92.149 52.7013 92.1597C52.6824 92.3074 52.6473 92.4525 52.5967 92.5924L52.5746 92.6537H52.5746Z" fill="#F0F0F0"/>
<path d="M58.7585 92.787L0.219874 92.8441C0.0978076 92.8434 -0.000631788 92.7439 3.05341e-06 92.6219C0.000637895 92.5007 0.0987079 92.4027 0.219874 92.402L58.7585 92.345C58.8805 92.3456 58.979 92.4451 58.9783 92.5671C58.9777 92.6883 58.8797 92.7864 58.7585 92.787Z" fill="#EAECEE"/>
</svg>
