<?xml version="1.0" encoding="UTF-8" standalone="no"?>
<!DOCTYPE svg PUBLIC "-//W3C//DTD SVG 1.1//EN"
 "http://www.w3.org/Graphics/SVG/1.1/DTD/svg11.dtd">
<!-- Generated by graphviz version 2.43.0 (0)
 -->
<!-- Title: G Pages: 1 -->
<svg width="2681pt" height="2172pt"
 viewBox="0.00 0.00 2681.20 2171.70" xmlns="http://www.w3.org/2000/svg" xmlns:xlink="http://www.w3.org/1999/xlink">
<g id="graph0" class="graph" transform="scale(1 1) rotate(0) translate(21.6 2150.1)">
<title>G</title>
<polygon fill="#111111" stroke="transparent" points="-21.6,21.6 -21.6,-2150.1 2659.6,-2150.1 2659.6,21.6 -21.6,21.6"/>
<!-- ../../assets/GoogleIcon24.tsx -->
<g id="node1" class="node">
<title>../../assets/GoogleIcon24.tsx</title>
<path fill="none" stroke="#cfffac" d="M1143.83,-1570C1143.83,-1570 971.17,-1570 971.17,-1570 967.33,-1570 963.5,-1566.17 963.5,-1562.33 963.5,-1562.33 963.5,-1554.67 963.5,-1554.67 963.5,-1550.83 967.33,-1547 971.17,-1547 971.17,-1547 1143.83,-1547 1143.83,-1547 1147.67,-1547 1151.5,-1550.83 1151.5,-1554.67 1151.5,-1554.67 1151.5,-1562.33 1151.5,-1562.33 1151.5,-1566.17 1147.67,-1570 1143.83,-1570"/>
<text text-anchor="middle" x="1057.5" y="-1554.8" font-family="Arial" font-size="14.00" fill="#cfffac">../../assets/GoogleIcon24.tsx</text>
</g>
<!-- ../../assets/icons/CertifiedUser.tsx -->
<g id="node2" class="node">
<title>../../assets/icons/CertifiedUser.tsx</title>
<path fill="none" stroke="#cfffac" d="M1158.33,-960C1158.33,-960 956.67,-960 956.67,-960 952.83,-960 949,-956.17 949,-952.33 949,-952.33 949,-944.67 949,-944.67 949,-940.83 952.83,-937 956.67,-937 956.67,-937 1158.33,-937 1158.33,-937 1162.17,-937 1166,-940.83 1166,-944.67 1166,-944.67 1166,-952.33 1166,-952.33 1166,-956.17 1162.17,-960 1158.33,-960"/>
<text text-anchor="middle" x="1057.5" y="-944.8" font-family="Arial" font-size="14.00" fill="#cfffac">../../assets/icons/CertifiedUser.tsx</text>
</g>
<!-- ../../assets/icons/CreateVersion.tsx -->
<g id="node3" class="node">
<title>../../assets/icons/CreateVersion.tsx</title>
<path fill="none" stroke="#cfffac" d="M1161.83,-1529C1161.83,-1529 953.17,-1529 953.17,-1529 949.33,-1529 945.5,-1525.17 945.5,-1521.33 945.5,-1521.33 945.5,-1513.67 945.5,-1513.67 945.5,-1509.83 949.33,-1506 953.17,-1506 953.17,-1506 1161.83,-1506 1161.83,-1506 1165.67,-1506 1169.5,-1509.83 1169.5,-1513.67 1169.5,-1513.67 1169.5,-1521.33 1169.5,-1521.33 1169.5,-1525.17 1165.67,-1529 1161.83,-1529"/>
<text text-anchor="middle" x="1057.5" y="-1513.8" font-family="Arial" font-size="14.00" fill="#cfffac">../../assets/icons/CreateVersion.tsx</text>
</g>
<!-- ../../assets/icons/IconCopy.tsx -->
<g id="node4" class="node">
<title>../../assets/icons/IconCopy.tsx</title>
<path fill="none" stroke="#cfffac" d="M783.83,-851C783.83,-851 605.17,-851 605.17,-851 601.33,-851 597.5,-847.17 597.5,-843.33 597.5,-843.33 597.5,-835.67 597.5,-835.67 597.5,-831.83 601.33,-828 605.17,-828 605.17,-828 783.83,-828 783.83,-828 787.67,-828 791.5,-831.83 791.5,-835.67 791.5,-835.67 791.5,-843.33 791.5,-843.33 791.5,-847.17 787.67,-851 783.83,-851"/>
<text text-anchor="middle" x="694.5" y="-835.8" font-family="Arial" font-size="14.00" fill="#cfffac">../../assets/icons/IconCopy.tsx</text>
</g>
<!-- ../../assets/icons/ORCIDIcon.tsx -->
<g id="node5" class="node">
<title>../../assets/icons/ORCIDIcon.tsx</title>
<path fill="none" stroke="#cfffac" d="M1153.83,-1488C1153.83,-1488 961.17,-1488 961.17,-1488 957.33,-1488 953.5,-1484.17 953.5,-1480.33 953.5,-1480.33 953.5,-1472.67 953.5,-1472.67 953.5,-1468.83 957.33,-1465 961.17,-1465 961.17,-1465 1153.83,-1465 1153.83,-1465 1157.67,-1465 1161.5,-1468.83 1161.5,-1472.67 1161.5,-1472.67 1161.5,-1480.33 1161.5,-1480.33 1161.5,-1484.17 1157.67,-1488 1153.83,-1488"/>
<text text-anchor="middle" x="1057.5" y="-1472.8" font-family="Arial" font-size="14.00" fill="#cfffac">../../assets/icons/ORCIDIcon.tsx</text>
</g>
<!-- ../../assets/icons/ValidatedProfile.tsx -->
<g id="node6" class="node">
<title>../../assets/icons/ValidatedProfile.tsx</title>
<path fill="none" stroke="#cfffac" d="M803.33,-810C803.33,-810 585.67,-810 585.67,-810 581.83,-810 578,-806.17 578,-802.33 578,-802.33 578,-794.67 578,-794.67 578,-790.83 581.83,-787 585.67,-787 585.67,-787 803.33,-787 803.33,-787 807.17,-787 811,-790.83 811,-794.67 811,-794.67 811,-802.33 811,-802.33 811,-806.17 807.17,-810 803.33,-810"/>
<text text-anchor="middle" x="694.5" y="-794.8" font-family="Arial" font-size="14.00" fill="#cfffac">../../assets/icons/ValidatedProfile.tsx</text>
</g>
<!-- ../../assets/mui_components/AccessManagement.tsx -->
<g id="node7" class="node">
<title>../../assets/mui_components/AccessManagement.tsx</title>
<path fill="none" stroke="#cfffac" d="M1217.33,-1447C1217.33,-1447 897.67,-1447 897.67,-1447 893.83,-1447 890,-1443.17 890,-1439.33 890,-1439.33 890,-1431.67 890,-1431.67 890,-1427.83 893.83,-1424 897.67,-1424 897.67,-1424 1217.33,-1424 1217.33,-1424 1221.17,-1424 1225,-1427.83 1225,-1431.67 1225,-1431.67 1225,-1439.33 1225,-1439.33 1225,-1443.17 1221.17,-1447 1217.33,-1447"/>
<text text-anchor="middle" x="1057.5" y="-1431.8" font-family="Arial" font-size="14.00" fill="#cfffac">../../assets/mui_components/AccessManagement.tsx</text>
</g>
<!-- ../../assets/mui_components/AccountCertified.tsx -->
<g id="node8" class="node">
<title>../../assets/mui_components/AccountCertified.tsx</title>
<path fill="none" stroke="#cfffac" d="M1204.83,-1406C1204.83,-1406 910.17,-1406 910.17,-1406 906.33,-1406 902.5,-1402.17 902.5,-1398.33 902.5,-1398.33 902.5,-1390.67 902.5,-1390.67 902.5,-1386.83 906.33,-1383 910.17,-1383 910.17,-1383 1204.83,-1383 1204.83,-1383 1208.67,-1383 1212.5,-1386.83 1212.5,-1390.67 1212.5,-1390.67 1212.5,-1398.33 1212.5,-1398.33 1212.5,-1402.17 1208.67,-1406 1204.83,-1406"/>
<text text-anchor="middle" x="1057.5" y="-1390.8" font-family="Arial" font-size="14.00" fill="#cfffac">../../assets/mui_components/AccountCertified.tsx</text>
</g>
<!-- ../../assets/mui_components/AccountRegistered.tsx -->
<g id="node9" class="node">
<title>../../assets/mui_components/AccountRegistered.tsx</title>
<path fill="none" stroke="#cfffac" d="M1212.33,-1365C1212.33,-1365 902.67,-1365 902.67,-1365 898.83,-1365 895,-1361.17 895,-1357.33 895,-1357.33 895,-1349.67 895,-1349.67 895,-1345.83 898.83,-1342 902.67,-1342 902.67,-1342 1212.33,-1342 1212.33,-1342 1216.17,-1342 1220,-1345.83 1220,-1349.67 1220,-1349.67 1220,-1357.33 1220,-1357.33 1220,-1361.17 1216.17,-1365 1212.33,-1365"/>
<text text-anchor="middle" x="1057.5" y="-1349.8" font-family="Arial" font-size="14.00" fill="#cfffac">../../assets/mui_components/AccountRegistered.tsx</text>
</g>
<!-- ../../assets/mui_components/AccountValidated.tsx -->
<g id="node10" class="node">
<title>../../assets/mui_components/AccountValidated.tsx</title>
<path fill="none" stroke="#cfffac" d="M1207.83,-1324C1207.83,-1324 907.17,-1324 907.17,-1324 903.33,-1324 899.5,-1320.17 899.5,-1316.33 899.5,-1316.33 899.5,-1308.67 899.5,-1308.67 899.5,-1304.83 903.33,-1301 907.17,-1301 907.17,-1301 1207.83,-1301 1207.83,-1301 1211.67,-1301 1215.5,-1304.83 1215.5,-1308.67 1215.5,-1308.67 1215.5,-1316.33 1215.5,-1316.33 1215.5,-1320.17 1211.67,-1324 1207.83,-1324"/>
<text text-anchor="middle" x="1057.5" y="-1308.8" font-family="Arial" font-size="14.00" fill="#cfffac">../../assets/mui_components/AccountValidated.tsx</text>
</g>
<!-- ../../assets/mui_components/ActionKey.tsx -->
<g id="node11" class="node">
<title>../../assets/mui_components/ActionKey.tsx</title>
<path fill="none" stroke="#cfffac" d="M1185.33,-1283C1185.33,-1283 929.67,-1283 929.67,-1283 925.83,-1283 922,-1279.17 922,-1275.33 922,-1275.33 922,-1267.67 922,-1267.67 922,-1263.83 925.83,-1260 929.67,-1260 929.67,-1260 1185.33,-1260 1185.33,-1260 1189.17,-1260 1193,-1263.83 1193,-1267.67 1193,-1267.67 1193,-1275.33 1193,-1275.33 1193,-1279.17 1189.17,-1283 1185.33,-1283"/>
<text text-anchor="middle" x="1057.5" y="-1267.8" font-family="Arial" font-size="14.00" fill="#cfffac">../../assets/mui_components/ActionKey.tsx</text>
</g>
<!-- ../../assets/mui_components/Chromatin.tsx -->
<g id="node12" class="node">
<title>../../assets/mui_components/Chromatin.tsx</title>
<path fill="none" stroke="#cfffac" d="M1186.83,-1242C1186.83,-1242 928.17,-1242 928.17,-1242 924.33,-1242 920.5,-1238.17 920.5,-1234.33 920.5,-1234.33 920.5,-1226.67 920.5,-1226.67 920.5,-1222.83 924.33,-1219 928.17,-1219 928.17,-1219 1186.83,-1219 1186.83,-1219 1190.67,-1219 1194.5,-1222.83 1194.5,-1226.67 1194.5,-1226.67 1194.5,-1234.33 1194.5,-1234.33 1194.5,-1238.17 1190.67,-1242 1186.83,-1242"/>
<text text-anchor="middle" x="1057.5" y="-1226.8" font-family="Arial" font-size="14.00" fill="#cfffac">../../assets/mui_components/Chromatin.tsx</text>
</g>
<!-- ../../assets/mui_components/Clinical.tsx -->
<g id="node13" class="node">
<title>../../assets/mui_components/Clinical.tsx</title>
<path fill="none" stroke="#cfffac" d="M1176.83,-1201C1176.83,-1201 938.17,-1201 938.17,-1201 934.33,-1201 930.5,-1197.17 930.5,-1193.33 930.5,-1193.33 930.5,-1185.67 930.5,-1185.67 930.5,-1181.83 934.33,-1178 938.17,-1178 938.17,-1178 1176.83,-1178 1176.83,-1178 1180.67,-1178 1184.5,-1181.83 1184.5,-1185.67 1184.5,-1185.67 1184.5,-1193.33 1184.5,-1193.33 1184.5,-1197.17 1180.67,-1201 1176.83,-1201"/>
<text text-anchor="middle" x="1057.5" y="-1185.8" font-family="Arial" font-size="14.00" fill="#cfffac">../../assets/mui_components/Clinical.tsx</text>
</g>
<!-- ../../assets/mui_components/Data.tsx -->
<g id="node14" class="node">
<title>../../assets/mui_components/Data.tsx</title>
<path fill="none" stroke="#cfffac" d="M1169.33,-1160C1169.33,-1160 945.67,-1160 945.67,-1160 941.83,-1160 938,-1156.17 938,-1152.33 938,-1152.33 938,-1144.67 938,-1144.67 938,-1140.83 941.83,-1137 945.67,-1137 945.67,-1137 1169.33,-1137 1169.33,-1137 1173.17,-1137 1177,-1140.83 1177,-1144.67 1177,-1144.67 1177,-1152.33 1177,-1152.33 1177,-1156.17 1173.17,-1160 1169.33,-1160"/>
<text text-anchor="middle" x="1057.5" y="-1144.8" font-family="Arial" font-size="14.00" fill="#cfffac">../../assets/mui_components/Data.tsx</text>
</g>
<!-- ../../assets/mui_components/DataLocked.tsx -->
<g id="node15" class="node">
<title>../../assets/mui_components/DataLocked.tsx</title>
<path fill="none" stroke="#cfffac" d="M1191.33,-1119C1191.33,-1119 923.67,-1119 923.67,-1119 919.83,-1119 916,-1115.17 916,-1111.33 916,-1111.33 916,-1103.67 916,-1103.67 916,-1099.83 919.83,-1096 923.67,-1096 923.67,-1096 1191.33,-1096 1191.33,-1096 1195.17,-1096 1199,-1099.83 1199,-1103.67 1199,-1103.67 1199,-1111.33 1199,-1111.33 1199,-1115.17 1195.17,-1119 1191.33,-1119"/>
<text text-anchor="middle" x="1057.5" y="-1103.8" font-family="Arial" font-size="14.00" fill="#cfffac">../../assets/mui_components/DataLocked.tsx</text>
</g>
<!-- ../../assets/mui_components/Dataset.tsx -->
<g id="node16" class="node">
<title>../../assets/mui_components/Dataset.tsx</title>
<path fill="none" stroke="#cfffac" d="M1178.33,-1078C1178.33,-1078 936.67,-1078 936.67,-1078 932.83,-1078 929,-1074.17 929,-1070.33 929,-1070.33 929,-1062.67 929,-1062.67 929,-1058.83 932.83,-1055 936.67,-1055 936.67,-1055 1178.33,-1055 1178.33,-1055 1182.17,-1055 1186,-1058.83 1186,-1062.67 1186,-1062.67 1186,-1070.33 1186,-1070.33 1186,-1074.17 1182.17,-1078 1178.33,-1078"/>
<text text-anchor="middle" x="1057.5" y="-1062.8" font-family="Arial" font-size="14.00" fill="#cfffac">../../assets/mui_components/Dataset.tsx</text>
</g>
<!-- ../../assets/mui_components/DatasetCollection.tsx -->
<g id="node17" class="node">
<title>../../assets/mui_components/DatasetCollection.tsx</title>
<path fill="none" stroke="#cfffac" d="M1208.33,-2062C1208.33,-2062 906.67,-2062 906.67,-2062 902.83,-2062 899,-2058.17 899,-2054.33 899,-2054.33 899,-2046.67 899,-2046.67 899,-2042.83 902.83,-2039 906.67,-2039 906.67,-2039 1208.33,-2039 1208.33,-2039 1212.17,-2039 1216,-2042.83 1216,-2046.67 1216,-2046.67 1216,-2054.33 1216,-2054.33 1216,-2058.17 1212.17,-2062 1208.33,-2062"/>
<text text-anchor="middle" x="1057.5" y="-2046.8" font-family="Arial" font-size="14.00" fill="#cfffac">../../assets/mui_components/DatasetCollection.tsx</text>
</g>
<!-- ../../assets/mui_components/Docker.tsx -->
<g id="node18" class="node">
<title>../../assets/mui_components/Docker.tsx</title>
<path fill="none" stroke="#cfffac" d="M1176.83,-2021C1176.83,-2021 938.17,-2021 938.17,-2021 934.33,-2021 930.5,-2017.17 930.5,-2013.33 930.5,-2013.33 930.5,-2005.67 930.5,-2005.67 930.5,-2001.83 934.33,-1998 938.17,-1998 938.17,-1998 1176.83,-1998 1176.83,-1998 1180.67,-1998 1184.5,-2001.83 1184.5,-2005.67 1184.5,-2005.67 1184.5,-2013.33 1184.5,-2013.33 1184.5,-2017.17 1180.67,-2021 1176.83,-2021"/>
<text text-anchor="middle" x="1057.5" y="-2005.8" font-family="Arial" font-size="14.00" fill="#cfffac">../../assets/mui_components/Docker.tsx</text>
</g>
<!-- ../../assets/mui_components/GeneExpression.tsx -->
<g id="node19" class="node">
<title>../../assets/mui_components/GeneExpression.tsx</title>
<path fill="none" stroke="#cfffac" d="M1205.33,-1980C1205.33,-1980 909.67,-1980 909.67,-1980 905.83,-1980 902,-1976.17 902,-1972.33 902,-1972.33 902,-1964.67 902,-1964.67 902,-1960.83 905.83,-1957 909.67,-1957 909.67,-1957 1205.33,-1957 1205.33,-1957 1209.17,-1957 1213,-1960.83 1213,-1964.67 1213,-1964.67 1213,-1972.33 1213,-1972.33 1213,-1976.17 1209.17,-1980 1205.33,-1980"/>
<text text-anchor="middle" x="1057.5" y="-1964.8" font-family="Arial" font-size="14.00" fill="#cfffac">../../assets/mui_components/GeneExpression.tsx</text>
</g>
<!-- ../../assets/mui_components/GeneVariants.tsx -->
<g id="node20" class="node">
<title>../../assets/mui_components/GeneVariants.tsx</title>
<path fill="none" stroke="#cfffac" d="M1196.83,-1939C1196.83,-1939 918.17,-1939 918.17,-1939 914.33,-1939 910.5,-1935.17 910.5,-1931.33 910.5,-1931.33 910.5,-1923.67 910.5,-1923.67 910.5,-1919.83 914.33,-1916 918.17,-1916 918.17,-1916 1196.83,-1916 1196.83,-1916 1200.67,-1916 1204.5,-1919.83 1204.5,-1923.67 1204.5,-1923.67 1204.5,-1931.33 1204.5,-1931.33 1204.5,-1935.17 1200.67,-1939 1196.83,-1939"/>
<text text-anchor="middle" x="1057.5" y="-1923.8" font-family="Arial" font-size="14.00" fill="#cfffac">../../assets/mui_components/GeneVariants.tsx</text>
</g>
<!-- ../../assets/mui_components/HelpChatBubble.tsx -->
<g id="node21" class="node">
<title>../../assets/mui_components/HelpChatBubble.tsx</title>
<path fill="none" stroke="#cfffac" d="M1204.33,-1898C1204.33,-1898 910.67,-1898 910.67,-1898 906.83,-1898 903,-1894.17 903,-1890.33 903,-1890.33 903,-1882.67 903,-1882.67 903,-1878.83 906.83,-1875 910.67,-1875 910.67,-1875 1204.33,-1875 1204.33,-1875 1208.17,-1875 1212,-1878.83 1212,-1882.67 1212,-1882.67 1212,-1890.33 1212,-1890.33 1212,-1894.17 1208.17,-1898 1204.33,-1898"/>
<text text-anchor="middle" x="1057.5" y="-1882.8" font-family="Arial" font-size="14.00" fill="#cfffac">../../assets/mui_components/HelpChatBubble.tsx</text>
</g>
<!-- ../../assets/mui_components/Imaging.tsx -->
<g id="node22" class="node">
<title>../../assets/mui_components/Imaging.tsx</title>
<path fill="none" stroke="#cfffac" d="M1179.83,-1857C1179.83,-1857 935.17,-1857 935.17,-1857 931.33,-1857 927.5,-1853.17 927.5,-1849.33 927.5,-1849.33 927.5,-1841.67 927.5,-1841.67 927.5,-1837.83 931.33,-1834 935.17,-1834 935.17,-1834 1179.83,-1834 1179.83,-1834 1183.67,-1834 1187.5,-1837.83 1187.5,-1841.67 1187.5,-1841.67 1187.5,-1849.33 1187.5,-1849.33 1187.5,-1853.17 1183.67,-1857 1179.83,-1857"/>
<text text-anchor="middle" x="1057.5" y="-1841.8" font-family="Arial" font-size="14.00" fill="#cfffac">../../assets/mui_components/Imaging.tsx</text>
</g>
<!-- ../../assets/mui_components/Kinomics.tsx -->
<g id="node23" class="node">
<title>../../assets/mui_components/Kinomics.tsx</title>
<path fill="none" stroke="#cfffac" d="M1182.83,-1816C1182.83,-1816 932.17,-1816 932.17,-1816 928.33,-1816 924.5,-1812.17 924.5,-1808.33 924.5,-1808.33 924.5,-1800.67 924.5,-1800.67 924.5,-1796.83 928.33,-1793 932.17,-1793 932.17,-1793 1182.83,-1793 1182.83,-1793 1186.67,-1793 1190.5,-1796.83 1190.5,-1800.67 1190.5,-1800.67 1190.5,-1808.33 1190.5,-1808.33 1190.5,-1812.17 1186.67,-1816 1182.83,-1816"/>
<text text-anchor="middle" x="1057.5" y="-1800.8" font-family="Arial" font-size="14.00" fill="#cfffac">../../assets/mui_components/Kinomics.tsx</text>
</g>
<!-- ../../assets/mui_components/LineGraph.tsx -->
<g id="node24" class="node">
<title>../../assets/mui_components/LineGraph.tsx</title>
<path fill="none" stroke="#cfffac" d="M1187.33,-1775C1187.33,-1775 927.67,-1775 927.67,-1775 923.83,-1775 920,-1771.17 920,-1767.33 920,-1767.33 920,-1759.67 920,-1759.67 920,-1755.83 923.83,-1752 927.67,-1752 927.67,-1752 1187.33,-1752 1187.33,-1752 1191.17,-1752 1195,-1755.83 1195,-1759.67 1195,-1759.67 1195,-1767.33 1195,-1767.33 1195,-1771.17 1191.17,-1775 1187.33,-1775"/>
<text text-anchor="middle" x="1057.5" y="-1759.8" font-family="Arial" font-size="14.00" fill="#cfffac">../../assets/mui_components/LineGraph.tsx</text>
</g>
<!-- ../../assets/mui_components/Other.tsx -->
<g id="node25" class="node">
<title>../../assets/mui_components/Other.tsx</title>
<path fill="none" stroke="#cfffac" d="M1172.33,-1734C1172.33,-1734 942.67,-1734 942.67,-1734 938.83,-1734 935,-1730.17 935,-1726.33 935,-1726.33 935,-1718.67 935,-1718.67 935,-1714.83 938.83,-1711 942.67,-1711 942.67,-1711 1172.33,-1711 1172.33,-1711 1176.17,-1711 1180,-1714.83 1180,-1718.67 1180,-1718.67 1180,-1726.33 1180,-1726.33 1180,-1730.17 1176.17,-1734 1172.33,-1734"/>
<text text-anchor="middle" x="1057.5" y="-1718.8" font-family="Arial" font-size="14.00" fill="#cfffac">../../assets/mui_components/Other.tsx</text>
</g>
<!-- ../../assets/mui_components/PackagableFile.tsx -->
<g id="node26" class="node">
<title>../../assets/mui_components/PackagableFile.tsx</title>
<path fill="none" stroke="#cfffac" d="M1201.33,-1693C1201.33,-1693 913.67,-1693 913.67,-1693 909.83,-1693 906,-1689.17 906,-1685.33 906,-1685.33 906,-1677.67 906,-1677.67 906,-1673.83 909.83,-1670 913.67,-1670 913.67,-1670 1201.33,-1670 1201.33,-1670 1205.17,-1670 1209,-1673.83 1209,-1677.67 1209,-1677.67 1209,-1685.33 1209,-1685.33 1209,-1689.17 1205.17,-1693 1201.33,-1693"/>
<text text-anchor="middle" x="1057.5" y="-1677.8" font-family="Arial" font-size="14.00" fill="#cfffac">../../assets/mui_components/PackagableFile.tsx</text>
</g>
<!-- ../../assets/mui_components/Proteomics.tsx -->
<g id="node27" class="node">
<title>../../assets/mui_components/Proteomics.tsx</title>
<path fill="none" stroke="#cfffac" d="M1189.33,-1652C1189.33,-1652 925.67,-1652 925.67,-1652 921.83,-1652 918,-1648.17 918,-1644.33 918,-1644.33 918,-1636.67 918,-1636.67 918,-1632.83 921.83,-1629 925.67,-1629 925.67,-1629 1189.33,-1629 1189.33,-1629 1193.17,-1629 1197,-1632.83 1197,-1636.67 1197,-1636.67 1197,-1644.33 1197,-1644.33 1197,-1648.17 1193.17,-1652 1189.33,-1652"/>
<text text-anchor="middle" x="1057.5" y="-1636.8" font-family="Arial" font-size="14.00" fill="#cfffac">../../assets/mui_components/Proteomics.tsx</text>
</g>
<!-- ../../assets/mui_components/Rat.tsx -->
<g id="node28" class="node">
<title>../../assets/mui_components/Rat.tsx</title>
<path fill="none" stroke="#cfffac" d="M1165.83,-1611C1165.83,-1611 949.17,-1611 949.17,-1611 945.33,-1611 941.5,-1607.17 941.5,-1603.33 941.5,-1603.33 941.5,-1595.67 941.5,-1595.67 941.5,-1591.83 945.33,-1588 949.17,-1588 949.17,-1588 1165.83,-1588 1165.83,-1588 1169.67,-1588 1173.5,-1591.83 1173.5,-1595.67 1173.5,-1595.67 1173.5,-1603.33 1173.5,-1603.33 1173.5,-1607.17 1169.67,-1611 1165.83,-1611"/>
<text text-anchor="middle" x="1057.5" y="-1595.8" font-family="Arial" font-size="14.00" fill="#cfffac">../../assets/mui_components/Rat.tsx</text>
</g>
<!-- ../../synapse&#45;client/HttpClient.ts -->
<g id="node29" class="node">
<title>../../synapse&#45;client/HttpClient.ts</title>
<path fill="none" stroke="#c6c5fe" d="M2060.83,-162C2060.83,-162 1873.17,-162 1873.17,-162 1869.33,-162 1865.5,-158.17 1865.5,-154.33 1865.5,-154.33 1865.5,-146.67 1865.5,-146.67 1865.5,-142.83 1869.33,-139 1873.17,-139 1873.17,-139 2060.83,-139 2060.83,-139 2064.67,-139 2068.5,-142.83 2068.5,-146.67 2068.5,-146.67 2068.5,-154.33 2068.5,-154.33 2068.5,-158.17 2064.67,-162 2060.83,-162"/>
<text text-anchor="middle" x="1967" y="-146.8" font-family="Arial" font-size="14.00" fill="#c6c5fe">../../synapse&#45;client/HttpClient.ts</text>
</g>
<!-- ../../utils/functions/getEndpoint.ts -->
<g id="node30" class="node">
<title>../../utils/functions/getEndpoint.ts</title>
<path fill="none" stroke="#c6c5fe" d="M2391.33,-476C2391.33,-476 2195.67,-476 2195.67,-476 2191.83,-476 2188,-472.17 2188,-468.33 2188,-468.33 2188,-460.67 2188,-460.67 2188,-456.83 2191.83,-453 2195.67,-453 2195.67,-453 2391.33,-453 2391.33,-453 2395.17,-453 2399,-456.83 2399,-460.67 2399,-460.67 2399,-468.33 2399,-468.33 2399,-472.17 2395.17,-476 2391.33,-476"/>
<text text-anchor="middle" x="2293.5" y="-460.8" font-family="Arial" font-size="14.00" fill="#c6c5fe">../../utils/functions/getEndpoint.ts</text>
</g>
<!-- ../../synapse&#45;client/HttpClient.ts&#45;&gt;../../utils/functions/getEndpoint.ts -->
<g id="edge1" class="edge">
<title>../../synapse&#45;client/HttpClient.ts&#45;&gt;../../utils/functions/getEndpoint.ts</title>
<path fill="none" stroke="#757575" d="M2037.99,-162.1C2072.5,-170.62 2113.03,-185.12 2143,-209.5 2222.95,-274.53 2269.46,-394.44 2285.8,-443.12"/>
<polygon fill="#757575" stroke="#757575" points="2282.56,-444.47 2288.99,-452.89 2289.21,-442.3 2282.56,-444.47"/>
</g>
<!-- ../../utils/SynapseConstants.ts -->
<g id="node35" class="node">
<title>../../utils/SynapseConstants.ts</title>
<path fill="none" stroke="#cfffac" d="M2630.33,-912C2630.33,-912 2451.67,-912 2451.67,-912 2447.83,-912 2444,-908.17 2444,-904.33 2444,-904.33 2444,-896.67 2444,-896.67 2444,-892.83 2447.83,-889 2451.67,-889 2451.67,-889 2630.33,-889 2630.33,-889 2634.17,-889 2638,-892.83 2638,-896.67 2638,-896.67 2638,-904.33 2638,-904.33 2638,-908.17 2634.17,-912 2630.33,-912"/>
<text text-anchor="middle" x="2541" y="-896.8" font-family="Arial" font-size="14.00" fill="#cfffac">../../utils/SynapseConstants.ts</text>
</g>
<!-- ../../utils/functions/getEndpoint.ts&#45;&gt;../../utils/SynapseConstants.ts -->
<g id="edge37" class="edge">
<title>../../utils/functions/getEndpoint.ts&#45;&gt;../../utils/SynapseConstants.ts</title>
<path fill="none" stroke="#757575" d="M2360.32,-476.01C2377.66,-481.79 2395.1,-490.47 2408,-503.5 2516.21,-612.8 2535.72,-812.9 2539.23,-878.81"/>
<polygon fill="#757575" stroke="#757575" points="2535.74,-879.03 2539.69,-888.86 2542.73,-878.71 2535.74,-879.03"/>
</g>
<!-- ../../synapse&#45;client/SynapseClient.ts -->
<g id="node31" class="node">
<title>../../synapse&#45;client/SynapseClient.ts</title>
<path fill="none" stroke="#c6c5fe" d="M1747.33,-406C1747.33,-406 1532.67,-406 1532.67,-406 1528.83,-406 1525,-402.17 1525,-398.33 1525,-398.33 1525,-390.67 1525,-390.67 1525,-386.83 1528.83,-383 1532.67,-383 1532.67,-383 1747.33,-383 1747.33,-383 1751.17,-383 1755,-386.83 1755,-390.67 1755,-390.67 1755,-398.33 1755,-398.33 1755,-402.17 1751.17,-406 1747.33,-406"/>
<text text-anchor="middle" x="1640" y="-390.8" font-family="Arial" font-size="14.00" fill="#c6c5fe">../../synapse&#45;client/SynapseClient.ts</text>
</g>
<!-- ../../synapse&#45;client/SynapseClient.ts&#45;&gt;../../synapse&#45;client/HttpClient.ts -->
<g id="edge2" class="edge">
<title>../../synapse&#45;client/SynapseClient.ts&#45;&gt;../../synapse&#45;client/HttpClient.ts</title>
<path fill="none" stroke="#757575" d="M1657.82,-382.86C1682.55,-364.92 1728.61,-328.19 1755,-286.5 1782.51,-243.04 1751.69,-209.68 1791,-176.5 1808.97,-161.33 1831.85,-152.91 1855.08,-148.56"/>
<polygon fill="#757575" stroke="#757575" points="1855.74,-152 1865.05,-146.93 1854.62,-145.09 1855.74,-152"/>
</g>
<!-- ../../synapse&#45;client/SynapseClient.ts&#45;&gt;../../utils/functions/getEndpoint.ts -->
<g id="edge12" class="edge">
<title>../../synapse&#45;client/SynapseClient.ts&#45;&gt;../../utils/functions/getEndpoint.ts</title>
<path fill="none" stroke="#757575" d="M1723.85,-406.05C1745.68,-408.95 1769.21,-411.96 1791,-414.5 1923.47,-429.93 2075.98,-444.71 2177.7,-454.15"/>
<polygon fill="#757575" stroke="#757575" points="2177.41,-457.63 2187.69,-455.07 2178.06,-450.66 2177.41,-457.63"/>
</g>
<!-- ../../synapse&#45;client/SynapseClientUtils.ts -->
<g id="node32" class="node">
<title>../../synapse&#45;client/SynapseClientUtils.ts</title>
<path fill="none" stroke="#cfffac" d="M2087.83,-566C2087.83,-566 1846.17,-566 1846.17,-566 1842.33,-566 1838.5,-562.17 1838.5,-558.33 1838.5,-558.33 1838.5,-550.67 1838.5,-550.67 1838.5,-546.83 1842.33,-543 1846.17,-543 1846.17,-543 2087.83,-543 2087.83,-543 2091.67,-543 2095.5,-546.83 2095.5,-550.67 2095.5,-550.67 2095.5,-558.33 2095.5,-558.33 2095.5,-562.17 2091.67,-566 2087.83,-566"/>
<text text-anchor="middle" x="1967" y="-550.8" font-family="Arial" font-size="14.00" fill="#cfffac">../../synapse&#45;client/SynapseClientUtils.ts</text>
</g>
<!-- ../../synapse&#45;client/SynapseClient.ts&#45;&gt;../../synapse&#45;client/SynapseClientUtils.ts -->
<g id="edge3" class="edge">
<title>../../synapse&#45;client/SynapseClient.ts&#45;&gt;../../synapse&#45;client/SynapseClientUtils.ts</title>
<path fill="none" stroke="#757575" d="M1650,-406.27C1671.22,-433.09 1727.45,-498.71 1791,-528.5 1802.75,-534.01 1815.38,-538.4 1828.29,-541.91"/>
<polygon fill="#757575" stroke="#757575" points="1827.65,-545.35 1838.2,-544.41 1829.37,-538.57 1827.65,-545.35"/>
</g>
<!-- ../../utils/APIConstants.ts -->
<g id="node33" class="node">
<title>../../utils/APIConstants.ts</title>
<path fill="none" stroke="#c6c5fe" d="M2041.33,-486C2041.33,-486 1892.67,-486 1892.67,-486 1888.83,-486 1885,-482.17 1885,-478.33 1885,-478.33 1885,-470.67 1885,-470.67 1885,-466.83 1888.83,-463 1892.67,-463 1892.67,-463 2041.33,-463 2041.33,-463 2045.17,-463 2049,-466.83 2049,-470.67 2049,-470.67 2049,-478.33 2049,-478.33 2049,-482.17 2045.17,-486 2041.33,-486"/>
<text text-anchor="middle" x="1967" y="-470.8" font-family="Arial" font-size="14.00" fill="#c6c5fe">../../utils/APIConstants.ts</text>
</g>
<!-- ../../synapse&#45;client/SynapseClient.ts&#45;&gt;../../utils/APIConstants.ts -->
<g id="edge4" class="edge">
<title>../../synapse&#45;client/SynapseClient.ts&#45;&gt;../../utils/APIConstants.ts</title>
<path fill="none" stroke="#757575" d="M1667.87,-406.01C1697.5,-418.26 1746.85,-437.39 1791,-448.5 1817.81,-455.25 1847.4,-460.46 1874.5,-464.39"/>
<polygon fill="#757575" stroke="#757575" points="1874.36,-467.91 1884.75,-465.83 1875.34,-460.97 1874.36,-467.91"/>
</g>
<!-- ../../utils/AppUtils/AppUtils.ts -->
<g id="node34" class="node">
<title>../../utils/AppUtils/AppUtils.ts</title>
<path fill="none" stroke="#c6c5fe" d="M2378.33,-536C2378.33,-536 2208.67,-536 2208.67,-536 2204.83,-536 2201,-532.17 2201,-528.33 2201,-528.33 2201,-520.67 2201,-520.67 2201,-516.83 2204.83,-513 2208.67,-513 2208.67,-513 2378.33,-513 2378.33,-513 2382.17,-513 2386,-516.83 2386,-520.67 2386,-520.67 2386,-528.33 2386,-528.33 2386,-532.17 2382.17,-536 2378.33,-536"/>
<text text-anchor="middle" x="2293.5" y="-520.8" font-family="Arial" font-size="14.00" fill="#c6c5fe">../../utils/AppUtils/AppUtils.ts</text>
</g>
<!-- ../../synapse&#45;client/SynapseClient.ts&#45;&gt;../../utils/AppUtils/AppUtils.ts -->
<g id="edge5" class="edge">
<title>../../synapse&#45;client/SynapseClient.ts&#45;&gt;../../utils/AppUtils/AppUtils.ts</title>
<path fill="none" stroke="#757575" d="M1653.38,-406.2C1677.56,-428.2 1733.74,-475.28 1791,-494.5 1862.43,-518.48 2065.86,-523.76 2190.59,-524.65"/>
<polygon fill="#757575" stroke="#757575" points="2190.89,-528.15 2200.92,-524.72 2190.94,-521.15 2190.89,-528.15"/>
</g>
<!-- ../../synapse&#45;client/SynapseClient.ts&#45;&gt;../../utils/SynapseConstants.ts -->
<g id="edge6" class="edge">
<title>../../synapse&#45;client/SynapseClient.ts&#45;&gt;../../utils/SynapseConstants.ts</title>
<path fill="none" stroke="#757575" d="M1657.29,-382.92C1681.32,-365.14 1726.52,-329.01 1755,-289.5 1777.8,-257.87 1758.26,-230.67 1791,-209.5 1856.69,-167.03 2069.84,-181.82 2143,-209.5 2289.96,-265.1 2323.96,-310.74 2408,-443.5 2502.14,-592.22 2531.02,-810.08 2538.05,-878.86"/>
<polygon fill="#757575" stroke="#757575" points="2534.58,-879.31 2539.03,-888.93 2541.55,-878.63 2534.58,-879.31"/>
</g>
<!-- ../../utils/appendFinalQueryParamKey.ts -->
<g id="node36" class="node">
<title>../../utils/appendFinalQueryParamKey.ts</title>
<path fill="none" stroke="#cfffac" d="M2087.33,-406C2087.33,-406 1846.67,-406 1846.67,-406 1842.83,-406 1839,-402.17 1839,-398.33 1839,-398.33 1839,-390.67 1839,-390.67 1839,-386.83 1842.83,-383 1846.67,-383 1846.67,-383 2087.33,-383 2087.33,-383 2091.17,-383 2095,-386.83 2095,-390.67 2095,-390.67 2095,-398.33 2095,-398.33 2095,-402.17 2091.17,-406 2087.33,-406"/>
<text text-anchor="middle" x="1967" y="-390.8" font-family="Arial" font-size="14.00" fill="#cfffac">../../utils/appendFinalQueryParamKey.ts</text>
</g>
<!-- ../../synapse&#45;client/SynapseClient.ts&#45;&gt;../../utils/appendFinalQueryParamKey.ts -->
<g id="edge7" class="edge">
<title>../../synapse&#45;client/SynapseClient.ts&#45;&gt;../../utils/appendFinalQueryParamKey.ts</title>
<path fill="none" stroke="#757575" d="M1755.13,-394.5C1778.92,-394.5 1804.23,-394.5 1828.76,-394.5"/>
<polygon fill="#757575" stroke="#757575" points="1828.84,-398 1838.84,-394.5 1828.84,-391 1828.84,-398"/>
</g>
<!-- ../../utils/functions/ObjectUtils.ts -->
<g id="node37" class="node">
<title>../../utils/functions/ObjectUtils.ts</title>
<path fill="none" stroke="#cfffac" d="M2061.83,-607C2061.83,-607 1872.17,-607 1872.17,-607 1868.33,-607 1864.5,-603.17 1864.5,-599.33 1864.5,-599.33 1864.5,-591.67 1864.5,-591.67 1864.5,-587.83 1868.33,-584 1872.17,-584 1872.17,-584 2061.83,-584 2061.83,-584 2065.67,-584 2069.5,-587.83 2069.5,-591.67 2069.5,-591.67 2069.5,-599.33 2069.5,-599.33 2069.5,-603.17 2065.67,-607 2061.83,-607"/>
<text text-anchor="middle" x="1967" y="-591.8" font-family="Arial" font-size="14.00" fill="#cfffac">../../utils/functions/ObjectUtils.ts</text>
</g>
<!-- ../../synapse&#45;client/SynapseClient.ts&#45;&gt;../../utils/functions/ObjectUtils.ts -->
<g id="edge8" class="edge">
<title>../../synapse&#45;client/SynapseClient.ts&#45;&gt;../../utils/functions/ObjectUtils.ts</title>
<path fill="none" stroke="#757575" d="M1646.76,-406.37C1663.59,-439.62 1716.3,-533.91 1791,-574.5 1810.24,-584.95 1832.39,-591.2 1854.32,-594.78"/>
<polygon fill="#757575" stroke="#757575" points="1853.98,-598.27 1864.38,-596.25 1854.98,-591.34 1853.98,-598.27"/>
</g>
<!-- ../../utils/functions/SanitizeHtmlUtils.ts -->
<g id="node38" class="node">
<title>../../utils/functions/SanitizeHtmlUtils.ts</title>
<path fill="none" stroke="#cfffac" d="M2080.33,-365C2080.33,-365 1853.67,-365 1853.67,-365 1849.83,-365 1846,-361.17 1846,-357.33 1846,-357.33 1846,-349.67 1846,-349.67 1846,-345.83 1849.83,-342 1853.67,-342 1853.67,-342 2080.33,-342 2080.33,-342 2084.17,-342 2088,-345.83 2088,-349.67 2088,-349.67 2088,-357.33 2088,-357.33 2088,-361.17 2084.17,-365 2080.33,-365"/>
<text text-anchor="middle" x="1967" y="-349.8" font-family="Arial" font-size="14.00" fill="#cfffac">../../utils/functions/SanitizeHtmlUtils.ts</text>
</g>
<!-- ../../synapse&#45;client/SynapseClient.ts&#45;&gt;../../utils/functions/SanitizeHtmlUtils.ts -->
<g id="edge9" class="edge">
<title>../../synapse&#45;client/SynapseClient.ts&#45;&gt;../../utils/functions/SanitizeHtmlUtils.ts</title>
<path fill="none" stroke="#757575" d="M1720.74,-382.95C1743.43,-379.77 1768.18,-376.4 1791,-373.5 1810.46,-371.03 1831.16,-368.54 1851.26,-366.19"/>
<polygon fill="#757575" stroke="#757575" points="1851.85,-369.65 1861.38,-365.02 1851.04,-362.69 1851.85,-369.65"/>
</g>
<!-- ../../utils/functions/calculateFriendlyFileSize.ts -->
<g id="node39" class="node">
<title>../../utils/functions/calculateFriendlyFileSize.ts</title>
<path fill="none" stroke="#cfffac" d="M2103.33,-324C2103.33,-324 1830.67,-324 1830.67,-324 1826.83,-324 1823,-320.17 1823,-316.33 1823,-316.33 1823,-308.67 1823,-308.67 1823,-304.83 1826.83,-301 1830.67,-301 1830.67,-301 2103.33,-301 2103.33,-301 2107.17,-301 2111,-304.83 2111,-308.67 2111,-308.67 2111,-316.33 2111,-316.33 2111,-320.17 2107.17,-324 2103.33,-324"/>
<text text-anchor="middle" x="1967" y="-308.8" font-family="Arial" font-size="14.00" fill="#cfffac">../../utils/functions/calculateFriendlyFileSize.ts</text>
</g>
<!-- ../../synapse&#45;client/SynapseClient.ts&#45;&gt;../../utils/functions/calculateFriendlyFileSize.ts -->
<g id="edge10" class="edge">
<title>../../synapse&#45;client/SynapseClient.ts&#45;&gt;../../utils/functions/calculateFriendlyFileSize.ts</title>
<path fill="none" stroke="#757575" d="M1663.69,-382.77C1692.49,-368.45 1744.07,-344.63 1791,-332.5 1800.87,-329.95 1811.14,-327.72 1821.54,-325.78"/>
<polygon fill="#757575" stroke="#757575" points="1822.3,-329.2 1831.53,-324.01 1821.08,-322.31 1822.3,-329.2"/>
</g>
<!-- ../../utils/functions/dispatchDownloadListChangeEvent.ts -->
<g id="node40" class="node">
<title>../../utils/functions/dispatchDownloadListChangeEvent.ts</title>
<path fill="none" stroke="#cfffac" d="M2135.33,-283C2135.33,-283 1798.67,-283 1798.67,-283 1794.83,-283 1791,-279.17 1791,-275.33 1791,-275.33 1791,-267.67 1791,-267.67 1791,-263.83 1794.83,-260 1798.67,-260 1798.67,-260 2135.33,-260 2135.33,-260 2139.17,-260 2143,-263.83 2143,-267.67 2143,-267.67 2143,-275.33 2143,-275.33 2143,-279.17 2139.17,-283 2135.33,-283"/>
<text text-anchor="middle" x="1967" y="-267.8" font-family="Arial" font-size="14.00" fill="#cfffac">../../utils/functions/dispatchDownloadListChangeEvent.ts</text>
</g>
<!-- ../../synapse&#45;client/SynapseClient.ts&#45;&gt;../../utils/functions/dispatchDownloadListChangeEvent.ts -->
<g id="edge11" class="edge">
<title>../../synapse&#45;client/SynapseClient.ts&#45;&gt;../../utils/functions/dispatchDownloadListChangeEvent.ts</title>
<path fill="none" stroke="#757575" d="M1653.41,-382.74C1677.64,-360.55 1733.89,-312.85 1791,-291.5 1796.6,-289.41 1802.36,-287.52 1808.23,-285.81"/>
<polygon fill="#757575" stroke="#757575" points="1809.46,-289.11 1818.2,-283.11 1807.63,-282.35 1809.46,-289.11"/>
</g>
<!-- ../../utils/types/OAuth2State.ts -->
<g id="node41" class="node">
<title>../../utils/types/OAuth2State.ts</title>
<path fill="none" stroke="#cfffac" d="M2056.83,-242C2056.83,-242 1877.17,-242 1877.17,-242 1873.33,-242 1869.5,-238.17 1869.5,-234.33 1869.5,-234.33 1869.5,-226.67 1869.5,-226.67 1869.5,-222.83 1873.33,-219 1877.17,-219 1877.17,-219 2056.83,-219 2056.83,-219 2060.67,-219 2064.5,-222.83 2064.5,-226.67 2064.5,-226.67 2064.5,-234.33 2064.5,-234.33 2064.5,-238.17 2060.67,-242 2056.83,-242"/>
<text text-anchor="middle" x="1967" y="-226.8" font-family="Arial" font-size="14.00" fill="#cfffac">../../utils/types/OAuth2State.ts</text>
</g>
<!-- ../../synapse&#45;client/SynapseClient.ts&#45;&gt;../../utils/types/OAuth2State.ts -->
<g id="edge13" class="edge">
<title>../../synapse&#45;client/SynapseClient.ts&#45;&gt;../../utils/types/OAuth2State.ts</title>
<path fill="none" stroke="#757575" d="M1653.42,-382.94C1674.48,-363.3 1718.47,-322.06 1755,-286.5 1771.21,-270.72 1770.62,-260.33 1791,-250.5 1811.97,-240.38 1835.94,-234.51 1859.27,-231.26"/>
<polygon fill="#757575" stroke="#757575" points="1859.73,-234.73 1869.22,-230.02 1858.87,-227.79 1859.73,-234.73"/>
</g>
<!-- ../../utils/APIConstants.ts&#45;&gt;../../utils/functions/getEndpoint.ts -->
<g id="edge28" class="edge">
<title>../../utils/APIConstants.ts&#45;&gt;../../utils/functions/getEndpoint.ts</title>
<path fill="none" stroke="#757575" d="M2049.05,-472C2087.98,-470.8 2135.31,-469.34 2177.85,-468.03"/>
<polygon fill="#757575" stroke="#757575" points="2178.1,-471.53 2187.98,-467.72 2177.88,-464.53 2178.1,-471.53"/>
</g>
<!-- ../../utils/AppUtils/AppUtils.ts&#45;&gt;../../utils/SynapseConstants.ts -->
<g id="edge29" class="edge">
<title>../../utils/AppUtils/AppUtils.ts&#45;&gt;../../utils/SynapseConstants.ts</title>
<path fill="none" stroke="#757575" d="M2302.22,-536.24C2320.59,-564.16 2368.32,-636.75 2408,-697.5 2451.47,-764.06 2502.75,-843.05 2526.57,-879.79"/>
<polygon fill="#757575" stroke="#757575" points="2523.9,-882.1 2532.28,-888.59 2529.78,-878.3 2523.9,-882.1"/>
</g>
<!-- ../../synapse&#45;client/index.ts -->
<g id="node42" class="node">
<title>../../synapse&#45;client/index.ts</title>
<path fill="none" stroke="#c6c5fe" d="M1455.33,-530C1455.33,-530 1294.67,-530 1294.67,-530 1290.83,-530 1287,-526.17 1287,-522.33 1287,-522.33 1287,-514.67 1287,-514.67 1287,-510.83 1290.83,-507 1294.67,-507 1294.67,-507 1455.33,-507 1455.33,-507 1459.17,-507 1463,-510.83 1463,-514.67 1463,-514.67 1463,-522.33 1463,-522.33 1463,-526.17 1459.17,-530 1455.33,-530"/>
<text text-anchor="middle" x="1375" y="-514.8" font-family="Arial" font-size="14.00" fill="#c6c5fe">../../synapse&#45;client/index.ts</text>
</g>
<!-- ../../synapse&#45;client/index.ts&#45;&gt;../../synapse&#45;client/HttpClient.ts -->
<g id="edge14" class="edge">
<title>../../synapse&#45;client/index.ts&#45;&gt;../../synapse&#45;client/HttpClient.ts</title>
<path fill="none" stroke="#757575" d="M1385.32,-506.89C1426.5,-456.54 1598.63,-256.13 1791,-176.5 1811.06,-168.2 1833.38,-162.5 1855.18,-158.6"/>
<polygon fill="#757575" stroke="#757575" points="1855.87,-162.03 1865.16,-156.93 1854.72,-155.13 1855.87,-162.03"/>
</g>
<!-- ../../synapse&#45;client/index.ts&#45;&gt;../../synapse&#45;client/SynapseClient.ts -->
<g id="edge15" class="edge">
<title>../../synapse&#45;client/index.ts&#45;&gt;../../synapse&#45;client/SynapseClient.ts</title>
<path fill="none" stroke="#757575" d="M1400.74,-506.83C1448.15,-484.48 1551.83,-435.6 1605.42,-410.33"/>
<polygon fill="#757575" stroke="#757575" points="1606.96,-413.47 1614.51,-406.04 1603.98,-407.14 1606.96,-413.47"/>
</g>
<!-- ../../synapse&#45;client/index.ts&#45;&gt;../../synapse&#45;client/SynapseClientUtils.ts -->
<g id="edge16" class="edge">
<title>../../synapse&#45;client/index.ts&#45;&gt;../../synapse&#45;client/SynapseClientUtils.ts</title>
<path fill="none" stroke="#757575" d="M1463.06,-523.81C1559.28,-529.68 1715.56,-539.22 1828.4,-546.1"/>
<polygon fill="#757575" stroke="#757575" points="1828.3,-549.6 1838.49,-546.72 1828.72,-542.62 1828.3,-549.6"/>
</g>
<!-- ../../synapse&#45;queries/KeyFactory.ts -->
<g id="node43" class="node">
<title>../../synapse&#45;queries/KeyFactory.ts</title>
<path fill="none" stroke="#c6c5fe" d="M1479.33,-607C1479.33,-607 1270.67,-607 1270.67,-607 1266.83,-607 1263,-603.17 1263,-599.33 1263,-599.33 1263,-591.67 1263,-591.67 1263,-587.83 1266.83,-584 1270.67,-584 1270.67,-584 1479.33,-584 1479.33,-584 1483.17,-584 1487,-587.83 1487,-591.67 1487,-591.67 1487,-599.33 1487,-599.33 1487,-603.17 1483.17,-607 1479.33,-607"/>
<text text-anchor="middle" x="1375" y="-591.8" font-family="Arial" font-size="14.00" fill="#c6c5fe">../../synapse&#45;queries/KeyFactory.ts</text>
</g>
<!-- ../../synapse&#45;queries/KeyFactory.ts&#45;&gt;../../utils/SynapseConstants.ts -->
<g id="edge17" class="edge">
<title>../../synapse&#45;queries/KeyFactory.ts&#45;&gt;../../utils/SynapseConstants.ts</title>
<path fill="none" stroke="#757575" d="M1460.43,-607C1639.38,-633.04 2068.24,-704.26 2408,-830.5 2446.28,-844.72 2487.4,-867.93 2513.39,-883.69"/>
<polygon fill="#757575" stroke="#757575" points="2511.57,-886.67 2521.92,-888.92 2515.23,-880.71 2511.57,-886.67"/>
</g>
<!-- ../../utils/functions/ArrayUtils.ts -->
<g id="node44" class="node">
<title>../../utils/functions/ArrayUtils.ts</title>
<path fill="none" stroke="#c6c5fe" d="M1730.83,-607C1730.83,-607 1549.17,-607 1549.17,-607 1545.33,-607 1541.5,-603.17 1541.5,-599.33 1541.5,-599.33 1541.5,-591.67 1541.5,-591.67 1541.5,-587.83 1545.33,-584 1549.17,-584 1549.17,-584 1730.83,-584 1730.83,-584 1734.67,-584 1738.5,-587.83 1738.5,-591.67 1738.5,-591.67 1738.5,-599.33 1738.5,-599.33 1738.5,-603.17 1734.67,-607 1730.83,-607"/>
<text text-anchor="middle" x="1640" y="-591.8" font-family="Arial" font-size="14.00" fill="#c6c5fe">../../utils/functions/ArrayUtils.ts</text>
</g>
<!-- ../../synapse&#45;queries/KeyFactory.ts&#45;&gt;../../utils/functions/ArrayUtils.ts -->
<g id="edge18" class="edge">
<title>../../synapse&#45;queries/KeyFactory.ts&#45;&gt;../../utils/functions/ArrayUtils.ts</title>
<path fill="none" stroke="#757575" d="M1487.15,-595.5C1501.59,-595.5 1516.37,-595.5 1530.76,-595.5"/>
<polygon fill="#757575" stroke="#757575" points="1531.16,-599 1541.16,-595.5 1531.16,-592 1531.16,-599"/>
</g>
<!-- ../../utils/functions/StringUtils.ts -->
<g id="node45" class="node">
<title>../../utils/functions/StringUtils.ts</title>
<path fill="none" stroke="#c6c5fe" d="M1732.33,-103C1732.33,-103 1547.67,-103 1547.67,-103 1543.83,-103 1540,-99.17 1540,-95.33 1540,-95.33 1540,-87.67 1540,-87.67 1540,-83.83 1543.83,-80 1547.67,-80 1547.67,-80 1732.33,-80 1732.33,-80 1736.17,-80 1740,-83.83 1740,-87.67 1740,-87.67 1740,-95.33 1740,-95.33 1740,-99.17 1736.17,-103 1732.33,-103"/>
<text text-anchor="middle" x="1640" y="-87.8" font-family="Arial" font-size="14.00" fill="#c6c5fe">../../utils/functions/StringUtils.ts</text>
</g>
<!-- ../../synapse&#45;queries/KeyFactory.ts&#45;&gt;../../utils/functions/StringUtils.ts -->
<g id="edge19" class="edge">
<title>../../synapse&#45;queries/KeyFactory.ts&#45;&gt;../../utils/functions/StringUtils.ts</title>
<path fill="none" stroke="#757575" d="M1418.74,-583.98C1442.86,-575.31 1471.57,-560.99 1489,-538.5 1534.97,-479.17 1502.86,-445.22 1525,-373.5 1556,-273.11 1607.67,-158.44 1629.16,-112.31"/>
<polygon fill="#757575" stroke="#757575" points="1632.42,-113.6 1633.49,-103.06 1626.08,-110.63 1632.42,-113.6"/>
</g>
<!-- ../../utils/functions/ArrayUtils.ts&#45;&gt;../../utils/functions/ObjectUtils.ts -->
<g id="edge33" class="edge">
<title>../../utils/functions/ArrayUtils.ts&#45;&gt;../../utils/functions/ObjectUtils.ts</title>
<path fill="none" stroke="#757575" d="M1738.51,-595.5C1774.83,-595.5 1816.33,-595.5 1853.86,-595.5"/>
<polygon fill="#757575" stroke="#757575" points="1854.33,-599 1864.33,-595.5 1854.33,-592 1854.33,-599"/>
</g>
<!-- ../../utils/functions/RegularExpressions.ts -->
<g id="node54" class="node">
<title>../../utils/functions/RegularExpressions.ts</title>
<path fill="none" stroke="#c6c5fe" d="M2089.33,-23C2089.33,-23 1844.67,-23 1844.67,-23 1840.83,-23 1837,-19.17 1837,-15.33 1837,-15.33 1837,-7.67 1837,-7.67 1837,-3.83 1840.83,0 1844.67,0 1844.67,0 2089.33,0 2089.33,0 2093.17,0 2097,-3.83 2097,-7.67 2097,-7.67 2097,-15.33 2097,-15.33 2097,-19.17 2093.17,-23 2089.33,-23"/>
<text text-anchor="middle" x="1967" y="-7.8" font-family="Arial" font-size="14.00" fill="#c6c5fe">../../utils/functions/RegularExpressions.ts</text>
</g>
<!-- ../../utils/functions/StringUtils.ts&#45;&gt;../../utils/functions/RegularExpressions.ts -->
<g id="edge36" class="edge">
<title>../../utils/functions/StringUtils.ts&#45;&gt;../../utils/functions/RegularExpressions.ts</title>
<path fill="none" stroke="#757575" d="M1687.91,-79.95C1746.48,-65.54 1846.58,-40.9 1909.36,-25.44"/>
<polygon fill="#757575" stroke="#757575" points="1910.23,-28.83 1919.1,-23.04 1908.56,-22.04 1910.23,-28.83"/>
</g>
<!-- ../../synapse&#45;queries/file/useFiles.ts -->
<g id="node46" class="node">
<title>../../synapse&#45;queries/file/useFiles.ts</title>
<path fill="none" stroke="#c6c5fe" d="M491.33,-608C491.33,-608 279.67,-608 279.67,-608 275.83,-608 272,-604.17 272,-600.33 272,-600.33 272,-592.67 272,-592.67 272,-588.83 275.83,-585 279.67,-585 279.67,-585 491.33,-585 491.33,-585 495.17,-585 499,-588.83 499,-592.67 499,-592.67 499,-600.33 499,-600.33 499,-604.17 495.17,-608 491.33,-608"/>
<text text-anchor="middle" x="385.5" y="-592.8" font-family="Arial" font-size="14.00" fill="#c6c5fe">../../synapse&#45;queries/file/useFiles.ts</text>
</g>
<!-- ../../synapse&#45;queries/file/useFiles.ts&#45;&gt;../../synapse&#45;client/index.ts -->
<g id="edge20" class="edge">
<title>../../synapse&#45;queries/file/useFiles.ts&#45;&gt;../../synapse&#45;client/index.ts</title>
<path fill="none" stroke="#757575" d="M499.12,-588.53C660.12,-577 965.34,-554.61 1225,-532.5 1241.77,-531.07 1259.6,-529.47 1276.87,-527.87"/>
<polygon fill="#757575" stroke="#757575" points="1277.33,-531.35 1286.96,-526.94 1276.68,-524.38 1277.33,-531.35"/>
</g>
<!-- ../../utils/context/SynapseContext.tsx -->
<g id="node47" class="node">
<title>../../utils/context/SynapseContext.tsx</title>
<path fill="none" stroke="#ff6c60" d="M1166.83,-663C1166.83,-663 948.17,-663 948.17,-663 944.33,-663 940.5,-659.17 940.5,-655.33 940.5,-655.33 940.5,-647.67 940.5,-647.67 940.5,-643.83 944.33,-640 948.17,-640 948.17,-640 1166.83,-640 1166.83,-640 1170.67,-640 1174.5,-643.83 1174.5,-647.67 1174.5,-647.67 1174.5,-655.33 1174.5,-655.33 1174.5,-659.17 1170.67,-663 1166.83,-663"/>
<text text-anchor="middle" x="1057.5" y="-647.8" font-family="Arial" font-size="14.00" fill="#ff6c60">../../utils/context/SynapseContext.tsx</text>
</g>
<!-- ../../synapse&#45;queries/file/useFiles.ts&#45;&gt;../../utils/context/SynapseContext.tsx -->
<g id="edge21" class="edge">
<title>../../synapse&#45;queries/file/useFiles.ts&#45;&gt;../../utils/context/SynapseContext.tsx</title>
<path fill="none" stroke="#757575" d="M499.23,-596.82C594.12,-598.1 733.27,-602.38 854,-615.5 900.96,-620.6 953.46,-630.05 993.24,-637.98"/>
<polygon fill="#757575" stroke="#757575" points="992.57,-641.42 1003.06,-639.96 993.95,-634.55 992.57,-641.42"/>
</g>
<!-- ../../utils/hooks/usePreFetchResource.ts -->
<g id="node48" class="node">
<title>../../utils/hooks/usePreFetchResource.ts</title>
<path fill="none" stroke="#cfffac" d="M814.33,-648C814.33,-648 574.67,-648 574.67,-648 570.83,-648 567,-644.17 567,-640.33 567,-640.33 567,-632.67 567,-632.67 567,-628.83 570.83,-625 574.67,-625 574.67,-625 814.33,-625 814.33,-625 818.17,-625 822,-628.83 822,-632.67 822,-632.67 822,-640.33 822,-640.33 822,-644.17 818.17,-648 814.33,-648"/>
<text text-anchor="middle" x="694.5" y="-632.8" font-family="Arial" font-size="14.00" fill="#cfffac">../../utils/hooks/usePreFetchResource.ts</text>
</g>
<!-- ../../synapse&#45;queries/file/useFiles.ts&#45;&gt;../../utils/hooks/usePreFetchResource.ts -->
<g id="edge22" class="edge">
<title>../../synapse&#45;queries/file/useFiles.ts&#45;&gt;../../utils/hooks/usePreFetchResource.ts</title>
<path fill="none" stroke="#757575" d="M474.89,-608.02C512.45,-612.91 556.39,-618.64 595,-623.67"/>
<polygon fill="#757575" stroke="#757575" points="594.84,-627.17 605.21,-625 595.74,-620.23 594.84,-627.17"/>
</g>
<!-- ../../utils/context/SynapseContext.tsx&#45;&gt;../../utils/functions/getEndpoint.ts -->
<g id="edge31" class="edge">
<title>../../utils/context/SynapseContext.tsx&#45;&gt;../../utils/functions/getEndpoint.ts</title>
<path fill="none" stroke="#757575" d="M1174.55,-651.21C1446.49,-650.05 2104.88,-644.27 2143,-615.5 2184.73,-584 2142.4,-540.84 2179,-503.5 2189.37,-492.92 2202.73,-485.21 2216.63,-479.59"/>
<polygon fill="#757575" stroke="#757575" points="2218.13,-482.77 2226.3,-476.02 2215.71,-476.2 2218.13,-482.77"/>
</g>
<!-- ../../utils/context/SynapseContext.tsx&#45;&gt;../../synapse&#45;queries/KeyFactory.ts -->
<g id="edge30" class="edge">
<title>../../utils/context/SynapseContext.tsx&#45;&gt;../../synapse&#45;queries/KeyFactory.ts</title>
<path fill="none" stroke="#757575" d="M1123.49,-639.96C1174.5,-630.91 1245.58,-618.29 1299,-608.81"/>
<polygon fill="#757575" stroke="#757575" points="1299.86,-612.21 1309.1,-607.02 1298.64,-605.32 1299.86,-612.21"/>
</g>
<!-- ../error/ErrorBanner.tsx -->
<g id="node51" class="node">
<title>../error/ErrorBanner.tsx</title>
<path fill="none" stroke="#ff6c60" d="M1444.83,-763C1444.83,-763 1305.17,-763 1305.17,-763 1301.33,-763 1297.5,-759.17 1297.5,-755.33 1297.5,-755.33 1297.5,-747.67 1297.5,-747.67 1297.5,-743.83 1301.33,-740 1305.17,-740 1305.17,-740 1444.83,-740 1444.83,-740 1448.67,-740 1452.5,-743.83 1452.5,-747.67 1452.5,-747.67 1452.5,-755.33 1452.5,-755.33 1452.5,-759.17 1448.67,-763 1444.83,-763"/>
<text text-anchor="middle" x="1375" y="-747.8" font-family="Arial" font-size="14.00" fill="#ff6c60">../error/ErrorBanner.tsx</text>
</g>
<!-- ../../utils/context/SynapseContext.tsx&#45;&gt;../error/ErrorBanner.tsx -->
<g id="edge32" class="edge">
<title>../../utils/context/SynapseContext.tsx&#45;&gt;../error/ErrorBanner.tsx</title>
<path fill="none" stroke="#757575" d="M1111.31,-663.05C1176.37,-681.35 1285.03,-716.06 1339.97,-736.33"/>
<polygon fill="#757575" stroke="#757575" points="1338.99,-739.7 1349.59,-739.94 1341.45,-733.15 1338.99,-739.7"/>
</g>
<!-- ../../synapse&#45;queries/user/useUserBundle.ts -->
<g id="node49" class="node">
<title>../../synapse&#45;queries/user/useUserBundle.ts</title>
<path fill="none" stroke="#ff6c60" d="M825.83,-689C825.83,-689 563.17,-689 563.17,-689 559.33,-689 555.5,-685.17 555.5,-681.33 555.5,-681.33 555.5,-673.67 555.5,-673.67 555.5,-669.83 559.33,-666 563.17,-666 563.17,-666 825.83,-666 825.83,-666 829.67,-666 833.5,-669.83 833.5,-673.67 833.5,-673.67 833.5,-681.33 833.5,-681.33 833.5,-685.17 829.67,-689 825.83,-689"/>
<text text-anchor="middle" x="694.5" y="-673.8" font-family="Arial" font-size="14.00" fill="#ff6c60">../../synapse&#45;queries/user/useUserBundle.ts</text>
</g>
<!-- ../../synapse&#45;queries/user/useUserBundle.ts&#45;&gt;../../utils/SynapseConstants.ts -->
<g id="edge24" class="edge">
<title>../../synapse&#45;queries/user/useUserBundle.ts&#45;&gt;../../utils/SynapseConstants.ts</title>
<path fill="none" stroke="#757575" d="M744.93,-689.1C777.81,-698.39 820.88,-713.68 854,-736.5 873.97,-750.26 869.82,-764.06 890,-777.5 1034.81,-873.96 1089.63,-872.4 1261,-902.5 1690.44,-977.92 2213.56,-936.47 2434.01,-913.06"/>
<polygon fill="#757575" stroke="#757575" points="2434.38,-916.54 2443.95,-911.99 2433.64,-909.58 2434.38,-916.54"/>
</g>
<!-- ../../synapse&#45;queries/user/useUserBundle.ts&#45;&gt;../../synapse&#45;client/index.ts -->
<g id="edge23" class="edge">
<title>../../synapse&#45;queries/user/useUserBundle.ts&#45;&gt;../../synapse&#45;client/index.ts</title>
<path fill="none" stroke="#757575" d="M824.49,-665.92C834.63,-663.35 844.59,-660.24 854,-656.5 872.34,-649.2 871.81,-638.16 890,-630.5 1029.27,-571.87 1078.96,-611.28 1225,-572.5 1264.06,-562.13 1307.36,-545.88 1337.16,-533.91"/>
<polygon fill="#757575" stroke="#757575" points="1338.78,-537.03 1346.73,-530.03 1336.15,-530.55 1338.78,-537.03"/>
</g>
<!-- ../../synapse&#45;queries/user/useUserBundle.ts&#45;&gt;../../utils/context/SynapseContext.tsx -->
<g id="edge25" class="edge">
<title>../../synapse&#45;queries/user/useUserBundle.ts&#45;&gt;../../utils/context/SynapseContext.tsx</title>
<path fill="none" stroke="#757575" d="M833.52,-667.56C865.31,-665.27 898.97,-662.85 930.23,-660.59"/>
<polygon fill="#757575" stroke="#757575" points="930.57,-664.08 940.29,-659.87 930.07,-657.1 930.57,-664.08"/>
</g>
<!-- ../../synapse&#45;queries/user/useUserGroupHeader.ts -->
<g id="node50" class="node">
<title>../../synapse&#45;queries/user/useUserGroupHeader.ts</title>
<path fill="none" stroke="#c6c5fe" d="M846.33,-530C846.33,-530 542.67,-530 542.67,-530 538.83,-530 535,-526.17 535,-522.33 535,-522.33 535,-514.67 535,-514.67 535,-510.83 538.83,-507 542.67,-507 542.67,-507 846.33,-507 846.33,-507 850.17,-507 854,-510.83 854,-514.67 854,-514.67 854,-522.33 854,-522.33 854,-526.17 850.17,-530 846.33,-530"/>
<text text-anchor="middle" x="694.5" y="-514.8" font-family="Arial" font-size="14.00" fill="#c6c5fe">../../synapse&#45;queries/user/useUserGroupHeader.ts</text>
</g>
<!-- ../../synapse&#45;queries/user/useUserGroupHeader.ts&#45;&gt;../../synapse&#45;client/index.ts -->
<g id="edge26" class="edge">
<title>../../synapse&#45;queries/user/useUserGroupHeader.ts&#45;&gt;../../synapse&#45;client/index.ts</title>
<path fill="none" stroke="#757575" d="M854.15,-518.5C984.98,-518.5 1166.4,-518.5 1276.69,-518.5"/>
<polygon fill="#757575" stroke="#757575" points="1276.81,-522 1286.81,-518.5 1276.81,-515 1276.81,-522"/>
</g>
<!-- ../../synapse&#45;queries/user/useUserGroupHeader.ts&#45;&gt;../../utils/context/SynapseContext.tsx -->
<g id="edge27" class="edge">
<title>../../synapse&#45;queries/user/useUserGroupHeader.ts&#45;&gt;../../utils/context/SynapseContext.tsx</title>
<path fill="none" stroke="#757575" d="M726.9,-530.07C792.19,-554.12 942.54,-609.52 1015.42,-636.36"/>
<polygon fill="#757575" stroke="#757575" points="1014.57,-639.78 1025.17,-639.96 1016.99,-633.22 1014.57,-639.78"/>
</g>
<!-- ../error/ErrorBanner.tsx&#45;&gt;../../utils/context/SynapseContext.tsx -->
<g id="edge70" class="edge">
<title>../error/ErrorBanner.tsx&#45;&gt;../../utils/context/SynapseContext.tsx</title>
<path fill="none" stroke="#757575" d="M1321.14,-739.94C1256.1,-721.64 1147.56,-686.97 1092.61,-666.7"/>
<polygon fill="#757575" stroke="#757575" points="1093.59,-663.33 1082.99,-663.09 1091.13,-669.88 1093.59,-663.33"/>
</g>
<!-- ../../utils/types/Optional.ts -->
<g id="node57" class="node">
<title>../../utils/types/Optional.ts</title>
<path fill="none" stroke="#cfffac" d="M1716.33,-763C1716.33,-763 1563.67,-763 1563.67,-763 1559.83,-763 1556,-759.17 1556,-755.33 1556,-755.33 1556,-747.67 1556,-747.67 1556,-743.83 1559.83,-740 1563.67,-740 1563.67,-740 1716.33,-740 1716.33,-740 1720.17,-740 1724,-743.83 1724,-747.67 1724,-747.67 1724,-755.33 1724,-755.33 1724,-759.17 1720.17,-763 1716.33,-763"/>
<text text-anchor="middle" x="1640" y="-747.8" font-family="Arial" font-size="14.00" fill="#cfffac">../../utils/types/Optional.ts</text>
</g>
<!-- ../error/ErrorBanner.tsx&#45;&gt;../../utils/types/Optional.ts -->
<g id="edge71" class="edge">
<title>../error/ErrorBanner.tsx&#45;&gt;../../utils/types/Optional.ts</title>
<path fill="none" stroke="#757575" d="M1452.78,-751.5C1481.79,-751.5 1515.13,-751.5 1545.51,-751.5"/>
<polygon fill="#757575" stroke="#757575" points="1545.69,-755 1555.69,-751.5 1545.69,-748 1545.69,-755"/>
</g>
<!-- ../FullWidthAlert/index.ts -->
<g id="node59" class="node">
<title>../FullWidthAlert/index.ts</title>
<path fill="none" stroke="#c6c5fe" d="M1713.83,-843C1713.83,-843 1566.17,-843 1566.17,-843 1562.33,-843 1558.5,-839.17 1558.5,-835.33 1558.5,-835.33 1558.5,-827.67 1558.5,-827.67 1558.5,-823.83 1562.33,-820 1566.17,-820 1566.17,-820 1713.83,-820 1713.83,-820 1717.67,-820 1721.5,-823.83 1721.5,-827.67 1721.5,-827.67 1721.5,-835.33 1721.5,-835.33 1721.5,-839.17 1717.67,-843 1713.83,-843"/>
<text text-anchor="middle" x="1640" y="-827.8" font-family="Arial" font-size="14.00" fill="#c6c5fe">../FullWidthAlert/index.ts</text>
</g>
<!-- ../error/ErrorBanner.tsx&#45;&gt;../FullWidthAlert/index.ts -->
<g id="edge72" class="edge">
<title>../error/ErrorBanner.tsx&#45;&gt;../FullWidthAlert/index.ts</title>
<path fill="none" stroke="#757575" d="M1444.16,-763.03C1459.32,-766.89 1475.03,-771.94 1489,-778.5 1507.1,-787 1506.85,-797.09 1525,-805.5 1535.19,-810.22 1546.29,-814.11 1557.44,-817.32"/>
<polygon fill="#757575" stroke="#757575" points="1556.67,-820.73 1567.23,-819.96 1558.49,-813.97 1556.67,-820.73"/>
</g>
<!-- ../JiraIssueCollector.tsx -->
<g id="node61" class="node">
<title>../JiraIssueCollector.tsx</title>
<path fill="none" stroke="#ff6c60" d="M1710.33,-884C1710.33,-884 1569.67,-884 1569.67,-884 1565.83,-884 1562,-880.17 1562,-876.33 1562,-876.33 1562,-868.67 1562,-868.67 1562,-864.83 1565.83,-861 1569.67,-861 1569.67,-861 1710.33,-861 1710.33,-861 1714.17,-861 1718,-864.83 1718,-868.67 1718,-868.67 1718,-876.33 1718,-876.33 1718,-880.17 1714.17,-884 1710.33,-884"/>
<text text-anchor="middle" x="1640" y="-868.8" font-family="Arial" font-size="14.00" fill="#ff6c60">../JiraIssueCollector.tsx</text>
</g>
<!-- ../error/ErrorBanner.tsx&#45;&gt;../JiraIssueCollector.tsx -->
<g id="edge73" class="edge">
<title>../error/ErrorBanner.tsx&#45;&gt;../JiraIssueCollector.tsx</title>
<path fill="none" stroke="#757575" d="M1452.6,-760.09C1465.7,-764.16 1478.46,-770.04 1489,-778.5 1517.52,-801.39 1495.79,-830.49 1525,-852.5 1533.06,-858.58 1542.35,-863.04 1552.08,-866.29"/>
<polygon fill="#757575" stroke="#757575" points="1551.34,-869.72 1561.92,-869.14 1553.29,-862.99 1551.34,-869.72"/>
</g>
<!-- ../SignInButton.tsx -->
<g id="node62" class="node">
<title>../SignInButton.tsx</title>
<path fill="none" stroke="#c6c5fe" d="M2348.83,-862C2348.83,-862 2238.17,-862 2238.17,-862 2234.33,-862 2230.5,-858.17 2230.5,-854.33 2230.5,-854.33 2230.5,-846.67 2230.5,-846.67 2230.5,-842.83 2234.33,-839 2238.17,-839 2238.17,-839 2348.83,-839 2348.83,-839 2352.67,-839 2356.5,-842.83 2356.5,-846.67 2356.5,-846.67 2356.5,-854.33 2356.5,-854.33 2356.5,-858.17 2352.67,-862 2348.83,-862"/>
<text text-anchor="middle" x="2293.5" y="-846.8" font-family="Arial" font-size="14.00" fill="#c6c5fe">../SignInButton.tsx</text>
</g>
<!-- ../error/ErrorBanner.tsx&#45;&gt;../SignInButton.tsx -->
<g id="edge74" class="edge">
<title>../error/ErrorBanner.tsx&#45;&gt;../SignInButton.tsx</title>
<path fill="none" stroke="#757575" d="M1452.51,-762.23C1475.77,-765.37 1501.41,-768.7 1525,-771.5 1780.07,-801.74 2083.64,-831 2219.94,-843.78"/>
<polygon fill="#757575" stroke="#757575" points="2219.97,-847.3 2230.25,-844.75 2220.62,-840.33 2219.97,-847.3"/>
</g>
<!-- ../../utils/functions/EntityTypeUtils.ts -->
<g id="node52" class="node">
<title>../../utils/functions/EntityTypeUtils.ts</title>
<path fill="none" stroke="#c6c5fe" d="M2400.33,-23C2400.33,-23 2186.67,-23 2186.67,-23 2182.83,-23 2179,-19.17 2179,-15.33 2179,-15.33 2179,-7.67 2179,-7.67 2179,-3.83 2182.83,0 2186.67,0 2186.67,0 2400.33,0 2400.33,0 2404.17,0 2408,-3.83 2408,-7.67 2408,-7.67 2408,-15.33 2408,-15.33 2408,-19.17 2404.17,-23 2400.33,-23"/>
<text text-anchor="middle" x="2293.5" y="-7.8" font-family="Arial" font-size="14.00" fill="#c6c5fe">../../utils/functions/EntityTypeUtils.ts</text>
</g>
<!-- ../../utils/types/IsType.ts -->
<g id="node53" class="node">
<title>../../utils/types/IsType.ts</title>
<path fill="none" stroke="#cfffac" d="M2612.33,-23C2612.33,-23 2469.67,-23 2469.67,-23 2465.83,-23 2462,-19.17 2462,-15.33 2462,-15.33 2462,-7.67 2462,-7.67 2462,-3.83 2465.83,0 2469.67,0 2469.67,0 2612.33,0 2612.33,0 2616.17,0 2620,-3.83 2620,-7.67 2620,-7.67 2620,-15.33 2620,-15.33 2620,-19.17 2616.17,-23 2612.33,-23"/>
<text text-anchor="middle" x="2541" y="-7.8" font-family="Arial" font-size="14.00" fill="#cfffac">../../utils/types/IsType.ts</text>
</g>
<!-- ../../utils/functions/EntityTypeUtils.ts&#45;&gt;../../utils/types/IsType.ts -->
<g id="edge34" class="edge">
<title>../../utils/functions/EntityTypeUtils.ts&#45;&gt;../../utils/types/IsType.ts</title>
<path fill="none" stroke="#757575" d="M2408.27,-11.5C2422.8,-11.5 2437.5,-11.5 2451.55,-11.5"/>
<polygon fill="#757575" stroke="#757575" points="2451.66,-15 2461.66,-11.5 2451.66,-8 2451.66,-15"/>
</g>
<!-- ../../utils/functions/RegularExpressions.ts&#45;&gt;../../utils/functions/EntityTypeUtils.ts -->
<g id="edge35" class="edge">
<title>../../utils/functions/RegularExpressions.ts&#45;&gt;../../utils/functions/EntityTypeUtils.ts</title>
<path fill="none" stroke="#757575" d="M2097.18,-11.5C2120.74,-11.5 2145.27,-11.5 2168.66,-11.5"/>
<polygon fill="#757575" stroke="#757575" points="2168.97,-15 2178.97,-11.5 2168.97,-8 2168.97,-15"/>
</g>
<!-- ../../utils/functions/getUserData.ts -->
<g id="node55" class="node">
<title>../../utils/functions/getUserData.ts</title>
<path fill="none" stroke="#c6c5fe" d="M1157.33,-490C1157.33,-490 957.67,-490 957.67,-490 953.83,-490 950,-486.17 950,-482.33 950,-482.33 950,-474.67 950,-474.67 950,-470.83 953.83,-467 957.67,-467 957.67,-467 1157.33,-467 1157.33,-467 1161.17,-467 1165,-470.83 1165,-474.67 1165,-474.67 1165,-482.33 1165,-482.33 1165,-486.17 1161.17,-490 1157.33,-490"/>
<text text-anchor="middle" x="1057.5" y="-474.8" font-family="Arial" font-size="14.00" fill="#c6c5fe">../../utils/functions/getUserData.ts</text>
</g>
<!-- ../../utils/functions/getUserData.ts&#45;&gt;../../utils/functions/getEndpoint.ts -->
<g id="edge39" class="edge">
<title>../../utils/functions/getUserData.ts&#45;&gt;../../utils/functions/getEndpoint.ts</title>
<path fill="none" stroke="#757575" d="M1165.04,-474.68C1185.56,-471.3 1206.42,-465.92 1225,-457.5 1387.31,-383.96 1366.71,-273.34 1525,-191.5 1632.83,-135.75 1670.4,-143.37 1791,-129.5 1946.42,-111.63 2011.76,-44.35 2143,-129.5 2254.91,-202.11 2283.77,-380.17 2290.57,-442.51"/>
<polygon fill="#757575" stroke="#757575" points="2287.12,-443.15 2291.6,-452.75 2294.08,-442.45 2287.12,-443.15"/>
</g>
<!-- ../../utils/functions/getUserData.ts&#45;&gt;../../synapse&#45;client/index.ts -->
<g id="edge38" class="edge">
<title>../../utils/functions/getUserData.ts&#45;&gt;../../synapse&#45;client/index.ts</title>
<path fill="none" stroke="#757575" d="M1149.33,-490.02C1189.19,-495.07 1236.04,-501.01 1276.62,-506.15"/>
<polygon fill="#757575" stroke="#757575" points="1276.43,-509.66 1286.79,-507.44 1277.31,-502.71 1276.43,-509.66"/>
</g>
<!-- ../../utils/hooks/useOverlay.tsx -->
<g id="node56" class="node">
<title>../../utils/hooks/useOverlay.tsx</title>
<path fill="none" stroke="#cfffac" d="M1147.83,-449C1147.83,-449 967.17,-449 967.17,-449 963.33,-449 959.5,-445.17 959.5,-441.33 959.5,-441.33 959.5,-433.67 959.5,-433.67 959.5,-429.83 963.33,-426 967.17,-426 967.17,-426 1147.83,-426 1147.83,-426 1151.67,-426 1155.5,-429.83 1155.5,-433.67 1155.5,-433.67 1155.5,-441.33 1155.5,-441.33 1155.5,-445.17 1151.67,-449 1147.83,-449"/>
<text text-anchor="middle" x="1057.5" y="-433.8" font-family="Arial" font-size="14.00" fill="#cfffac">../../utils/hooks/useOverlay.tsx</text>
</g>
<!-- ../FullWidthAlert/FullWidthAlert.tsx -->
<g id="node58" class="node">
<title>../FullWidthAlert/FullWidthAlert.tsx</title>
<path fill="none" stroke="#cfffac" d="M2070.33,-883C2070.33,-883 1863.67,-883 1863.67,-883 1859.83,-883 1856,-879.17 1856,-875.33 1856,-875.33 1856,-867.67 1856,-867.67 1856,-863.83 1859.83,-860 1863.67,-860 1863.67,-860 2070.33,-860 2070.33,-860 2074.17,-860 2078,-863.83 2078,-867.67 2078,-867.67 2078,-875.33 2078,-875.33 2078,-879.17 2074.17,-883 2070.33,-883"/>
<text text-anchor="middle" x="1967" y="-867.8" font-family="Arial" font-size="14.00" fill="#cfffac">../FullWidthAlert/FullWidthAlert.tsx</text>
</g>
<!-- ../FullWidthAlert/index.ts&#45;&gt;../FullWidthAlert/FullWidthAlert.tsx -->
<g id="edge40" class="edge">
<title>../FullWidthAlert/index.ts&#45;&gt;../FullWidthAlert/FullWidthAlert.tsx</title>
<path fill="none" stroke="#757575" d="M1721.75,-841.44C1764.23,-846.67 1816.77,-853.13 1862.23,-858.73"/>
<polygon fill="#757575" stroke="#757575" points="1862.06,-862.23 1872.41,-859.98 1862.92,-855.29 1862.06,-862.23"/>
</g>
<!-- ../IconSvg/IconSvg.tsx -->
<g id="node60" class="node">
<title>../IconSvg/IconSvg.tsx</title>
<path fill="none" stroke="#c6c5fe" d="M761.83,-1570C761.83,-1570 627.17,-1570 627.17,-1570 623.33,-1570 619.5,-1566.17 619.5,-1562.33 619.5,-1562.33 619.5,-1554.67 619.5,-1554.67 619.5,-1550.83 623.33,-1547 627.17,-1547 627.17,-1547 761.83,-1547 761.83,-1547 765.67,-1547 769.5,-1550.83 769.5,-1554.67 769.5,-1554.67 769.5,-1562.33 769.5,-1562.33 769.5,-1566.17 765.67,-1570 761.83,-1570"/>
<text text-anchor="middle" x="694.5" y="-1554.8" font-family="Arial" font-size="14.00" fill="#c6c5fe">../IconSvg/IconSvg.tsx</text>
</g>
<!-- ../IconSvg/IconSvg.tsx&#45;&gt;../../assets/GoogleIcon24.tsx -->
<g id="edge41" class="edge">
<title>../IconSvg/IconSvg.tsx&#45;&gt;../../assets/GoogleIcon24.tsx</title>
<path fill="none" stroke="#757575" d="M769.86,-1558.5C822.84,-1558.5 894.73,-1558.5 953.26,-1558.5"/>
<polygon fill="#757575" stroke="#757575" points="953.27,-1562 963.27,-1558.5 953.27,-1555 953.27,-1562"/>
</g>
<!-- ../IconSvg/IconSvg.tsx&#45;&gt;../../assets/icons/CreateVersion.tsx -->
<g id="edge42" class="edge">
<title>../IconSvg/IconSvg.tsx&#45;&gt;../../assets/icons/CreateVersion.tsx</title>
<path fill="none" stroke="#757575" d="M769.86,-1550.05C820.39,-1544.32 888.13,-1536.62 945.07,-1530.16"/>
<polygon fill="#757575" stroke="#757575" points="945.66,-1533.61 955.2,-1529 944.87,-1526.66 945.66,-1533.61"/>
</g>
<!-- ../IconSvg/IconSvg.tsx&#45;&gt;../../assets/icons/ORCIDIcon.tsx -->
<g id="edge43" class="edge">
<title>../IconSvg/IconSvg.tsx&#45;&gt;../../assets/icons/ORCIDIcon.tsx</title>
<path fill="none" stroke="#757575" d="M726.37,-1546.93C764.35,-1533.14 831.05,-1510.35 890,-1497.5 907.17,-1493.76 925.5,-1490.61 943.48,-1487.99"/>
<polygon fill="#757575" stroke="#757575" points="944.01,-1491.45 953.42,-1486.59 943.03,-1484.52 944.01,-1491.45"/>
</g>
<!-- ../IconSvg/IconSvg.tsx&#45;&gt;../../assets/mui_components/AccessManagement.tsx -->
<g id="edge44" class="edge">
<title>../IconSvg/IconSvg.tsx&#45;&gt;../../assets/mui_components/AccessManagement.tsx</title>
<path fill="none" stroke="#757575" d="M712.54,-1546.84C745.28,-1525.08 819.97,-1478.49 890,-1456.5 898.97,-1453.68 908.33,-1451.24 917.84,-1449.13"/>
<polygon fill="#757575" stroke="#757575" points="918.72,-1452.52 927.78,-1447.04 917.28,-1445.67 918.72,-1452.52"/>
</g>
<!-- ../IconSvg/IconSvg.tsx&#45;&gt;../../assets/mui_components/AccountCertified.tsx -->
<g id="edge45" class="edge">
<title>../IconSvg/IconSvg.tsx&#45;&gt;../../assets/mui_components/AccountCertified.tsx</title>
<path fill="none" stroke="#757575" d="M706.9,-1546.71C734.98,-1518.48 810.98,-1447.04 890,-1415.5 896.27,-1413 902.77,-1410.77 909.41,-1408.8"/>
<polygon fill="#757575" stroke="#757575" points="910.52,-1412.13 919.22,-1406.09 908.65,-1405.38 910.52,-1412.13"/>
</g>
<!-- ../IconSvg/IconSvg.tsx&#45;&gt;../../assets/mui_components/AccountRegistered.tsx -->
<g id="edge46" class="edge">
<title>../IconSvg/IconSvg.tsx&#45;&gt;../../assets/mui_components/AccountRegistered.tsx</title>
<path fill="none" stroke="#757575" d="M703.53,-1546.85C727.4,-1513.31 801.75,-1416.22 890,-1374.5 894.74,-1372.26 899.63,-1370.23 904.63,-1368.4"/>
<polygon fill="#757575" stroke="#757575" points="906.02,-1371.62 914.37,-1365.1 903.78,-1364.99 906.02,-1371.62"/>
</g>
<!-- ../IconSvg/IconSvg.tsx&#45;&gt;../../assets/mui_components/AccountValidated.tsx -->
<g id="edge47" class="edge">
<title>../IconSvg/IconSvg.tsx&#45;&gt;../../assets/mui_components/AccountValidated.tsx</title>
<path fill="none" stroke="#757575" d="M701.48,-1546.8C721.79,-1508.42 792.37,-1385.79 890,-1333.5 893.83,-1331.45 897.78,-1329.57 901.81,-1327.84"/>
<polygon fill="#757575" stroke="#757575" points="903.36,-1330.99 911.39,-1324.08 900.81,-1324.48 903.36,-1330.99"/>
</g>
<!-- ../IconSvg/IconSvg.tsx&#45;&gt;../../assets/mui_components/ActionKey.tsx -->
<g id="edge48" class="edge">
<title>../IconSvg/IconSvg.tsx&#45;&gt;../../assets/mui_components/ActionKey.tsx</title>
<path fill="none" stroke="#757575" d="M699.98,-1546.84C717.06,-1504.19 782.55,-1355.81 890,-1292.5 897.05,-1288.35 904.56,-1284.85 912.33,-1281.92"/>
<polygon fill="#757575" stroke="#757575" points="913.62,-1285.18 921.94,-1278.62 911.35,-1278.56 913.62,-1285.18"/>
</g>
<!-- ../IconSvg/IconSvg.tsx&#45;&gt;../../assets/mui_components/Chromatin.tsx -->
<g id="edge49" class="edge">
<title>../IconSvg/IconSvg.tsx&#45;&gt;../../assets/mui_components/Chromatin.tsx</title>
<path fill="none" stroke="#757575" d="M698.91,-1546.73C713.13,-1499.94 772.55,-1326.08 890,-1251.5 896.43,-1247.42 903.27,-1243.95 910.39,-1241.02"/>
<polygon fill="#757575" stroke="#757575" points="912.11,-1244.11 920.25,-1237.34 909.66,-1237.56 912.11,-1244.11"/>
</g>
<!-- ../IconSvg/IconSvg.tsx&#45;&gt;../../assets/mui_components/Clinical.tsx -->
<g id="edge50" class="edge">
<title>../IconSvg/IconSvg.tsx&#45;&gt;../../assets/mui_components/Clinical.tsx</title>
<path fill="none" stroke="#757575" d="M697.98,-1546.94C709.42,-1496.81 762.03,-1296.79 890,-1210.5 899.44,-1204.14 909.87,-1199.23 920.77,-1195.48"/>
<polygon fill="#757575" stroke="#757575" points="921.95,-1198.77 930.46,-1192.47 919.88,-1192.09 921.95,-1198.77"/>
</g>
<!-- ../IconSvg/IconSvg.tsx&#45;&gt;../../assets/mui_components/Data.tsx -->
<g id="edge51" class="edge">
<title>../IconSvg/IconSvg.tsx&#45;&gt;../../assets/mui_components/Data.tsx</title>
<path fill="none" stroke="#757575" d="M697.33,-1546.73C706.38,-1492.77 751.68,-1267.48 890,-1169.5 901.38,-1161.44 914.33,-1155.66 927.86,-1151.58"/>
<polygon fill="#757575" stroke="#757575" points="929.06,-1154.89 937.81,-1148.91 927.24,-1148.13 929.06,-1154.89"/>
</g>
<!-- ../IconSvg/IconSvg.tsx&#45;&gt;../../assets/mui_components/DataLocked.tsx -->
<g id="edge52" class="edge">
<title>../IconSvg/IconSvg.tsx&#45;&gt;../../assets/mui_components/DataLocked.tsx</title>
<path fill="none" stroke="#757575" d="M696.75,-1546.7C703.49,-1489.39 741,-1238.45 890,-1128.5 895.15,-1124.7 900.65,-1121.39 906.39,-1118.53"/>
<polygon fill="#757575" stroke="#757575" points="907.92,-1121.68 915.61,-1114.38 905.05,-1115.29 907.92,-1121.68"/>
</g>
<!-- ../IconSvg/IconSvg.tsx&#45;&gt;../../assets/mui_components/Dataset.tsx -->
<g id="edge53" class="edge">
<title>../IconSvg/IconSvg.tsx&#45;&gt;../../assets/mui_components/Dataset.tsx</title>
<path fill="none" stroke="#757575" d="M696.25,-1546.83C700.78,-1486.67 730.06,-1209.67 890,-1087.5 898.77,-1080.8 908.6,-1075.62 918.97,-1071.66"/>
<polygon fill="#757575" stroke="#757575" points="920.31,-1074.9 928.64,-1068.36 918.04,-1068.28 920.31,-1074.9"/>
</g>
<!-- ../IconSvg/IconSvg.tsx&#45;&gt;../../assets/mui_components/DatasetCollection.tsx -->
<g id="edge54" class="edge">
<title>../IconSvg/IconSvg.tsx&#45;&gt;../../assets/mui_components/DatasetCollection.tsx</title>
<path fill="none" stroke="#757575" d="M696.23,-1570.21C700.65,-1630.58 729.45,-1908.52 890,-2030.5 891.39,-2031.56 892.82,-2032.58 894.26,-2033.56"/>
<polygon fill="#757575" stroke="#757575" points="892.44,-2036.55 902.79,-2038.79 896.1,-2030.58 892.44,-2036.55"/>
</g>
<!-- ../IconSvg/IconSvg.tsx&#45;&gt;../../assets/mui_components/Docker.tsx -->
<g id="edge55" class="edge">
<title>../IconSvg/IconSvg.tsx&#45;&gt;../../assets/mui_components/Docker.tsx</title>
<path fill="none" stroke="#757575" d="M696.73,-1570.35C703.36,-1627.87 740.44,-1879.71 890,-1989.5 899.26,-1996.3 909.62,-2001.47 920.51,-2005.37"/>
<polygon fill="#757575" stroke="#757575" points="919.63,-2008.76 930.22,-2008.47 921.76,-2002.09 919.63,-2008.76"/>
</g>
<!-- ../IconSvg/IconSvg.tsx&#45;&gt;../../assets/mui_components/GeneExpression.tsx -->
<g id="edge56" class="edge">
<title>../IconSvg/IconSvg.tsx&#45;&gt;../../assets/mui_components/GeneExpression.tsx</title>
<path fill="none" stroke="#757575" d="M697.3,-1570.32C706.25,-1624.49 751.15,-1850.66 890,-1948.5 891.65,-1949.66 893.33,-1950.78 895.05,-1951.85"/>
<polygon fill="#757575" stroke="#757575" points="893.42,-1954.95 903.85,-1956.81 896.86,-1948.85 893.42,-1954.95"/>
</g>
<!-- ../IconSvg/IconSvg.tsx&#45;&gt;../../assets/mui_components/GeneVariants.tsx -->
<g id="edge57" class="edge">
<title>../IconSvg/IconSvg.tsx&#45;&gt;../../assets/mui_components/GeneVariants.tsx</title>
<path fill="none" stroke="#757575" d="M697.96,-1570.11C709.3,-1620.46 761.55,-1821.32 890,-1907.5 893.6,-1909.92 897.35,-1912.12 901.22,-1914.13"/>
<polygon fill="#757575" stroke="#757575" points="899.89,-1917.37 910.43,-1918.46 902.87,-1911.04 899.89,-1917.37"/>
</g>
<!-- ../IconSvg/IconSvg.tsx&#45;&gt;../../assets/mui_components/HelpChatBubble.tsx -->
<g id="edge58" class="edge">
<title>../IconSvg/IconSvg.tsx&#45;&gt;../../assets/mui_components/HelpChatBubble.tsx</title>
<path fill="none" stroke="#757575" d="M698.79,-1570.01C712.74,-1616.55 771.85,-1791.84 890,-1866.5 892.21,-1867.89 894.46,-1869.22 896.77,-1870.47"/>
<polygon fill="#757575" stroke="#757575" points="895.33,-1873.66 905.84,-1874.96 898.43,-1867.39 895.33,-1873.66"/>
</g>
<!-- ../IconSvg/IconSvg.tsx&#45;&gt;../../assets/mui_components/Imaging.tsx -->
<g id="edge59" class="edge">
<title>../IconSvg/IconSvg.tsx&#45;&gt;../../assets/mui_components/Imaging.tsx</title>
<path fill="none" stroke="#757575" d="M699.96,-1570.22C716.94,-1613.11 782.15,-1762.26 890,-1825.5 898.57,-1830.53 907.81,-1834.57 917.4,-1837.8"/>
<polygon fill="#757575" stroke="#757575" points="916.5,-1841.18 927.09,-1840.76 918.55,-1834.49 916.5,-1841.18"/>
</g>
<!-- ../IconSvg/IconSvg.tsx&#45;&gt;../../assets/mui_components/Kinomics.tsx -->
<g id="edge60" class="edge">
<title>../IconSvg/IconSvg.tsx&#45;&gt;../../assets/mui_components/Kinomics.tsx</title>
<path fill="none" stroke="#757575" d="M701.31,-1570C721.35,-1608.32 791.79,-1732.13 890,-1784.5 897.75,-1788.63 905.98,-1792.07 914.47,-1794.91"/>
<polygon fill="#757575" stroke="#757575" points="913.58,-1798.3 924.16,-1797.88 915.63,-1791.6 913.58,-1798.3"/>
</g>
<!-- ../IconSvg/IconSvg.tsx&#45;&gt;../../assets/mui_components/LineGraph.tsx -->
<g id="edge61" class="edge">
<title>../IconSvg/IconSvg.tsx&#45;&gt;../../assets/mui_components/LineGraph.tsx</title>
<path fill="none" stroke="#757575" d="M703.51,-1570.24C727.3,-1604.03 801.45,-1701.82 890,-1743.5 896.52,-1746.57 903.33,-1749.23 910.33,-1751.54"/>
<polygon fill="#757575" stroke="#757575" points="909.38,-1754.91 919.96,-1754.47 911.41,-1748.21 909.38,-1754.91"/>
</g>
<!-- ../IconSvg/IconSvg.tsx&#45;&gt;../../assets/mui_components/Other.tsx -->
<g id="edge62" class="edge">
<title>../IconSvg/IconSvg.tsx&#45;&gt;../../assets/mui_components/Other.tsx</title>
<path fill="none" stroke="#757575" d="M706.87,-1570.41C734.88,-1598.91 810.74,-1670.99 890,-1702.5 900.99,-1706.87 912.69,-1710.36 924.59,-1713.13"/>
<polygon fill="#757575" stroke="#757575" points="924.11,-1716.61 934.62,-1715.3 925.58,-1709.76 924.11,-1716.61"/>
</g>
<!-- ../IconSvg/IconSvg.tsx&#45;&gt;../../assets/mui_components/PackagableFile.tsx -->
<g id="edge63" class="edge">
<title>../IconSvg/IconSvg.tsx&#45;&gt;../../assets/mui_components/PackagableFile.tsx</title>
<path fill="none" stroke="#757575" d="M712.25,-1570.14C744.81,-1592.12 819.62,-1639.48 890,-1661.5 897.61,-1663.88 905.49,-1665.98 913.5,-1667.83"/>
<polygon fill="#757575" stroke="#757575" points="912.81,-1671.26 923.33,-1669.97 914.3,-1664.42 912.81,-1671.26"/>
</g>
<!-- ../IconSvg/IconSvg.tsx&#45;&gt;../../assets/mui_components/Proteomics.tsx -->
<g id="edge64" class="edge">
<title>../IconSvg/IconSvg.tsx&#45;&gt;../../assets/mui_components/Proteomics.tsx</title>
<path fill="none" stroke="#757575" d="M725.67,-1570.09C763.5,-1584.15 830.61,-1607.59 890,-1620.5 902.01,-1623.11 914.59,-1625.4 927.22,-1627.41"/>
<polygon fill="#757575" stroke="#757575" points="926.93,-1630.91 937.35,-1628.97 927.99,-1623.99 926.93,-1630.91"/>
</g>
<!-- ../IconSvg/IconSvg.tsx&#45;&gt;../../assets/mui_components/Rat.tsx -->
<g id="edge65" class="edge">
<title>../IconSvg/IconSvg.tsx&#45;&gt;../../assets/mui_components/Rat.tsx</title>
<path fill="none" stroke="#757575" d="M769.86,-1566.95C820.39,-1572.68 888.13,-1580.38 945.07,-1586.84"/>
<polygon fill="#757575" stroke="#757575" points="944.87,-1590.34 955.2,-1588 945.66,-1583.39 944.87,-1590.34"/>
</g>
<!-- ../JiraIssueCollector.tsx&#45;&gt;../../utils/context/SynapseContext.tsx -->
<g id="edge67" class="edge">
<title>../JiraIssueCollector.tsx&#45;&gt;../../utils/context/SynapseContext.tsx</title>
<path fill="none" stroke="#757575" d="M1561.84,-865.43C1549.1,-862.46 1536.36,-858.31 1525,-852.5 1505.13,-842.34 1508.74,-827.91 1489,-817.5 1397.56,-769.29 1357.49,-808.59 1261,-771.5 1191.73,-744.87 1118.83,-695.63 1082.31,-669.26"/>
<polygon fill="#757575" stroke="#757575" points="1083.98,-666.15 1073.84,-663.08 1079.85,-671.8 1083.98,-666.15"/>
</g>
<!-- ../JiraIssueCollector.tsx&#45;&gt;../../synapse&#45;queries/user/useUserBundle.ts -->
<g id="edge66" class="edge">
<title>../JiraIssueCollector.tsx&#45;&gt;../../synapse&#45;queries/user/useUserBundle.ts</title>
<path fill="none" stroke="#757575" d="M1562.73,-860.96C1486.21,-849.06 1365.09,-829.35 1261,-808.5 1073.04,-770.85 852.19,-716.83 751.1,-691.55"/>
<polygon fill="#757575" stroke="#757575" points="751.66,-688.08 741.11,-689.05 749.96,-694.87 751.66,-688.08"/>
</g>
<!-- ../SignInButton.tsx&#45;&gt;../../utils/SynapseConstants.ts -->
<g id="edge68" class="edge">
<title>../SignInButton.tsx&#45;&gt;../../utils/SynapseConstants.ts</title>
<path fill="none" stroke="#757575" d="M2351.13,-862.03C2387.53,-869.45 2434.98,-879.11 2473.21,-886.9"/>
<polygon fill="#757575" stroke="#757575" points="2472.73,-890.37 2483.23,-888.94 2474.13,-883.51 2472.73,-890.37"/>
</g>
<!-- ../Skeleton/SkeletonTable.tsx -->
<g id="node63" class="node">
<title>../Skeleton/SkeletonTable.tsx</title>
<path fill="none" stroke="#cfffac" d="M781.83,-769C781.83,-769 607.17,-769 607.17,-769 603.33,-769 599.5,-765.17 599.5,-761.33 599.5,-761.33 599.5,-753.67 599.5,-753.67 599.5,-749.83 603.33,-746 607.17,-746 607.17,-746 781.83,-746 781.83,-746 785.67,-746 789.5,-749.83 789.5,-753.67 789.5,-753.67 789.5,-761.33 789.5,-761.33 789.5,-765.17 785.67,-769 781.83,-769"/>
<text text-anchor="middle" x="694.5" y="-753.8" font-family="Arial" font-size="14.00" fill="#cfffac">../Skeleton/SkeletonTable.tsx</text>
</g>
<!-- ../ToastMessage/ToastMessage.tsx -->
<g id="node64" class="node">
<title>../ToastMessage/ToastMessage.tsx</title>
<path fill="none" stroke="#c6c5fe" d="M1481.33,-893C1481.33,-893 1268.67,-893 1268.67,-893 1264.83,-893 1261,-889.17 1261,-885.33 1261,-885.33 1261,-877.67 1261,-877.67 1261,-873.83 1264.83,-870 1268.67,-870 1268.67,-870 1481.33,-870 1481.33,-870 1485.17,-870 1489,-873.83 1489,-877.67 1489,-877.67 1489,-885.33 1489,-885.33 1489,-889.17 1485.17,-893 1481.33,-893"/>
<text text-anchor="middle" x="1375" y="-877.8" font-family="Arial" font-size="14.00" fill="#c6c5fe">../ToastMessage/ToastMessage.tsx</text>
</g>
<!-- ../ToastMessage/ToastMessage.tsx&#45;&gt;../FullWidthAlert/FullWidthAlert.tsx -->
<g id="edge69" class="edge">
<title>../ToastMessage/ToastMessage.tsx&#45;&gt;../FullWidthAlert/FullWidthAlert.tsx</title>
<path fill="none" stroke="#757575" d="M1489.03,-891.56C1501.16,-892.36 1513.33,-893.03 1525,-893.5 1627.14,-897.61 1652.92,-898.81 1755,-893.5 1791.07,-891.62 1830.47,-887.96 1865.35,-884.15"/>
<polygon fill="#757575" stroke="#757575" points="1865.99,-887.6 1875.55,-883.02 1865.22,-880.64 1865.99,-887.6"/>
</g>
<!-- Avatar.tsx -->
<g id="node65" class="node">
<title>Avatar.tsx</title>
<path fill="none" stroke="#ff6c60" d="M725.33,-489C725.33,-489 663.67,-489 663.67,-489 659.83,-489 656,-485.17 656,-481.33 656,-481.33 656,-473.67 656,-473.67 656,-469.83 659.83,-466 663.67,-466 663.67,-466 725.33,-466 725.33,-466 729.17,-466 733,-469.83 733,-473.67 733,-473.67 733,-481.33 733,-481.33 733,-485.17 729.17,-489 725.33,-489"/>
<text text-anchor="middle" x="694.5" y="-473.8" font-family="Arial" font-size="14.00" fill="#ff6c60">Avatar.tsx</text>
</g>
<!-- Avatar.tsx&#45;&gt;../../utils/functions/getUserData.ts -->
<g id="edge75" class="edge">
<title>Avatar.tsx&#45;&gt;../../utils/functions/getUserData.ts</title>
<path fill="none" stroke="#757575" d="M733.11,-477.6C781.56,-477.74 868.04,-477.98 939.38,-478.18"/>
<polygon fill="#757575" stroke="#757575" points="939.79,-481.68 949.79,-478.2 939.8,-474.68 939.79,-481.68"/>
</g>
<!-- Avatar.tsx&#45;&gt;../../utils/hooks/useOverlay.tsx -->
<g id="edge76" class="edge">
<title>Avatar.tsx&#45;&gt;../../utils/hooks/useOverlay.tsx</title>
<path fill="none" stroke="#757575" d="M733.11,-473.33C783.82,-467.71 876.17,-457.48 949.24,-449.38"/>
<polygon fill="#757575" stroke="#757575" points="949.87,-452.84 959.42,-448.26 949.09,-445.88 949.87,-452.84"/>
</g>
<!-- UserCardMedium.tsx -->
<g id="node66" class="node">
<title>UserCardMedium.tsx</title>
<path fill="none" stroke="#ff6c60" d="M450.33,-810C450.33,-810 320.67,-810 320.67,-810 316.83,-810 313,-806.17 313,-802.33 313,-802.33 313,-794.67 313,-794.67 313,-790.83 316.83,-787 320.67,-787 320.67,-787 450.33,-787 450.33,-787 454.17,-787 458,-790.83 458,-794.67 458,-794.67 458,-802.33 458,-802.33 458,-806.17 454.17,-810 450.33,-810"/>
<text text-anchor="middle" x="385.5" y="-794.8" font-family="Arial" font-size="14.00" fill="#ff6c60">UserCardMedium.tsx</text>
</g>
<!-- Avatar.tsx&#45;&gt;UserCardMedium.tsx -->
<g id="edge77" class="edge">
<title>Avatar.tsx&#45;&gt;UserCardMedium.tsx</title>
<path fill="none" stroke="#757575" d="M655.98,-478.49C620.68,-477.24 568.38,-478.32 535,-506.5 492.78,-542.15 521.72,-575.13 499,-625.5 472.48,-684.31 430.16,-747.09 405.69,-778.57"/>
<polygon fill="#757575" stroke="#757575" points="402.79,-776.6 399.29,-786.6 408.26,-780.96 402.79,-776.6"/>
</g>
<!-- UserCardMedium.tsx&#45;&gt;../../assets/icons/IconCopy.tsx -->
<g id="edge96" class="edge">
<title>UserCardMedium.tsx&#45;&gt;../../assets/icons/IconCopy.tsx</title>
<path fill="none" stroke="#757575" d="M458.23,-808.86C482.58,-812.32 509.97,-816.15 535,-819.5 552.86,-821.89 571.86,-824.35 590.28,-826.7"/>
<polygon fill="#757575" stroke="#757575" points="590.08,-830.2 600.44,-827.99 590.96,-823.26 590.08,-830.2"/>
</g>
<!-- UserCardMedium.tsx&#45;&gt;../../assets/icons/ValidatedProfile.tsx -->
<g id="edge97" class="edge">
<title>UserCardMedium.tsx&#45;&gt;../../assets/icons/ValidatedProfile.tsx</title>
<path fill="none" stroke="#757575" d="M458.09,-798.5C490.64,-798.5 530.15,-798.5 567.42,-798.5"/>
<polygon fill="#757575" stroke="#757575" points="567.87,-802 577.87,-798.5 567.87,-795 567.87,-802"/>
</g>
<!-- UserCardMedium.tsx&#45;&gt;../../utils/functions/getEndpoint.ts -->
<g id="edge100" class="edge">
<title>UserCardMedium.tsx&#45;&gt;../../utils/functions/getEndpoint.ts</title>
<path fill="none" stroke="#757575" d="M407.87,-786.85C436.05,-772.14 487.63,-747.42 535,-736.5 709.39,-696.29 2004.8,-757.2 2143,-643.5 2192.61,-602.68 2135.41,-550.69 2179,-503.5 2188.76,-492.93 2201.52,-485.22 2214.94,-479.61"/>
<polygon fill="#757575" stroke="#757575" points="2216.21,-482.87 2224.31,-476.04 2213.72,-476.33 2216.21,-482.87"/>
</g>
<!-- UserCardMedium.tsx&#45;&gt;../../utils/SynapseConstants.ts -->
<g id="edge99" class="edge">
<title>UserCardMedium.tsx&#45;&gt;../../utils/SynapseConstants.ts</title>
<path fill="none" stroke="#757575" d="M458.25,-797C473.15,-799.86 487.73,-805.43 499,-815.5 544.99,-856.59 487.14,-910.61 535,-949.5 554.24,-965.13 1265.84,-988.5 1374,-988.5 1374,-988.5 1374,-988.5 1968,-988.5 2164.81,-988.5 2214.98,-976.97 2408,-938.5 2437.83,-932.55 2470.71,-923.1 2496.19,-915.11"/>
<polygon fill="#757575" stroke="#757575" points="2497.45,-918.38 2505.92,-912.01 2495.33,-911.71 2497.45,-918.38"/>
</g>
<!-- UserCardMedium.tsx&#45;&gt;../../synapse&#45;queries/user/useUserBundle.ts -->
<g id="edge98" class="edge">
<title>UserCardMedium.tsx&#45;&gt;../../synapse&#45;queries/user/useUserBundle.ts</title>
<path fill="none" stroke="#757575" d="M404.68,-786.86C444.27,-761.52 534.78,-703.59 535,-703.5 548.12,-698.47 562.21,-694.42 576.39,-691.15"/>
<polygon fill="#757575" stroke="#757575" points="577.18,-694.56 586.2,-689.01 575.69,-687.72 577.18,-694.56"/>
</g>
<!-- UserCardMedium.tsx&#45;&gt;../IconSvg/IconSvg.tsx -->
<g id="edge101" class="edge">
<title>UserCardMedium.tsx&#45;&gt;../IconSvg/IconSvg.tsx</title>
<path fill="none" stroke="#757575" d="M391.2,-810.13C425.69,-895.52 639.66,-1425.21 685.05,-1537.57"/>
<polygon fill="#757575" stroke="#757575" points="681.8,-1538.88 688.79,-1546.85 688.29,-1536.26 681.8,-1538.88"/>
</g>
<!-- UserCardMedium.tsx&#45;&gt;../Skeleton/SkeletonTable.tsx -->
<g id="edge102" class="edge">
<title>UserCardMedium.tsx&#45;&gt;../Skeleton/SkeletonTable.tsx</title>
<path fill="none" stroke="#757575" d="M458.25,-788.8C482.61,-785.52 509.99,-781.84 535,-778.5 554.77,-775.86 575.93,-773.05 596.14,-770.37"/>
<polygon fill="#757575" stroke="#757575" points="596.84,-773.8 606.29,-769.02 595.92,-766.86 596.84,-773.8"/>
</g>
<!-- UserCardMedium.tsx&#45;&gt;../ToastMessage/ToastMessage.tsx -->
<g id="edge103" class="edge">
<title>UserCardMedium.tsx&#45;&gt;../ToastMessage/ToastMessage.tsx</title>
<path fill="none" stroke="#757575" d="M458.21,-801.21C472.39,-803.94 486.68,-808.4 499,-815.5 521.19,-828.29 512.06,-849.12 535,-860.5 657.1,-921.08 1048.85,-904.33 1250.9,-890.92"/>
<polygon fill="#757575" stroke="#757575" points="1251.22,-894.41 1260.97,-890.25 1250.75,-887.42 1251.22,-894.41"/>
</g>
<!-- UserCardMedium.tsx&#45;&gt;Avatar.tsx -->
<g id="edge104" class="edge">
<title>UserCardMedium.tsx&#45;&gt;Avatar.tsx</title>
<path fill="none" stroke="#757575" d="M392.46,-786.69C410.72,-756.99 466.62,-679.29 499,-607.5 521.72,-557.13 492.78,-524.15 535,-488.5 567.59,-460.97 618.24,-459.31 653.48,-464.31"/>
<polygon fill="#757575" stroke="#757575" points="652.99,-467.78 663.43,-465.97 654.14,-460.87 652.99,-467.78"/>
</g>
<!-- UserCardContextMenu.tsx -->
<g id="node69" class="node">
<title>UserCardContextMenu.tsx</title>
<path fill="none" stroke="#c6c5fe" d="M774.83,-1039C774.83,-1039 614.17,-1039 614.17,-1039 610.33,-1039 606.5,-1035.17 606.5,-1031.33 606.5,-1031.33 606.5,-1023.67 606.5,-1023.67 606.5,-1019.83 610.33,-1016 614.17,-1016 614.17,-1016 774.83,-1016 774.83,-1016 778.67,-1016 782.5,-1019.83 782.5,-1023.67 782.5,-1023.67 782.5,-1031.33 782.5,-1031.33 782.5,-1035.17 778.67,-1039 774.83,-1039"/>
<text text-anchor="middle" x="694.5" y="-1023.8" font-family="Arial" font-size="14.00" fill="#c6c5fe">UserCardContextMenu.tsx</text>
</g>
<!-- UserCardMedium.tsx&#45;&gt;UserCardContextMenu.tsx -->
<g id="edge105" class="edge">
<title>UserCardMedium.tsx&#45;&gt;UserCardContextMenu.tsx</title>
<path fill="none" stroke="#757575" d="M401.08,-810.31C424.44,-829.86 470.5,-871.12 499,-914.5 521.98,-949.48 502.21,-975.5 535,-1001.5 552.43,-1015.32 574.39,-1023.06 596.36,-1027.15"/>
<polygon fill="#757575" stroke="#757575" points="596.01,-1030.64 606.45,-1028.79 597.13,-1023.73 596.01,-1030.64"/>
</g>
<!-- UserCardLarge.tsx -->
<g id="node70" class="node">
<title>UserCardLarge.tsx</title>
<path fill="none" stroke="#c6c5fe" d="M751.83,-940C751.83,-940 637.17,-940 637.17,-940 633.33,-940 629.5,-936.17 629.5,-932.33 629.5,-932.33 629.5,-924.67 629.5,-924.67 629.5,-920.83 633.33,-917 637.17,-917 637.17,-917 751.83,-917 751.83,-917 755.67,-917 759.5,-920.83 759.5,-924.67 759.5,-924.67 759.5,-932.33 759.5,-932.33 759.5,-936.17 755.67,-940 751.83,-940"/>
<text text-anchor="middle" x="694.5" y="-924.8" font-family="Arial" font-size="14.00" fill="#c6c5fe">UserCardLarge.tsx</text>
</g>
<!-- UserCardMedium.tsx&#45;&gt;UserCardLarge.tsx -->
<g id="edge106" class="edge">
<title>UserCardMedium.tsx&#45;&gt;UserCardLarge.tsx</title>
<path fill="none" stroke="#757575" d="M400.71,-810.06C426.09,-830.12 481.57,-871.34 535,-893.5 561.66,-904.56 592.36,-912.37 619.6,-917.77"/>
<polygon fill="#757575" stroke="#757575" points="618.98,-921.21 629.46,-919.64 620.29,-914.33 618.98,-921.21"/>
</g>
<!-- UserBadge.tsx -->
<g id="node67" class="node">
<title>UserBadge.tsx</title>
<path fill="none" stroke="#ff6c60" d="M97.33,-648C97.33,-648 7.67,-648 7.67,-648 3.83,-648 0,-644.17 0,-640.33 0,-640.33 0,-632.67 0,-632.67 0,-628.83 3.83,-625 7.67,-625 7.67,-625 97.33,-625 97.33,-625 101.17,-625 105,-628.83 105,-632.67 105,-632.67 105,-640.33 105,-640.33 105,-644.17 101.17,-648 97.33,-648"/>
<text text-anchor="middle" x="52.5" y="-632.8" font-family="Arial" font-size="14.00" fill="#ff6c60">UserBadge.tsx</text>
</g>
<!-- UserBadge.tsx&#45;&gt;../../utils/functions/getEndpoint.ts -->
<g id="edge81" class="edge">
<title>UserBadge.tsx&#45;&gt;../../utils/functions/getEndpoint.ts</title>
<path fill="none" stroke="#757575" d="M54.32,-624.81C60.8,-542.36 110.86,-51.5 384.5,-51.5 384.5,-51.5 384.5,-51.5 1641,-51.5 1752.78,-51.5 2052.69,-17.62 2143,-83.5 2264.82,-172.37 2287.41,-375.73 2291.57,-442.68"/>
<polygon fill="#757575" stroke="#757575" points="2288.08,-443.09 2292.12,-452.88 2295.07,-442.71 2288.08,-443.09"/>
</g>
<!-- UserBadge.tsx&#45;&gt;../../utils/SynapseConstants.ts -->
<g id="edge80" class="edge">
<title>UserBadge.tsx&#45;&gt;../../utils/SynapseConstants.ts</title>
<path fill="none" stroke="#757575" d="M53.48,-648.08C53.54,-786.95 62.46,-2128.5 384.5,-2128.5 384.5,-2128.5 384.5,-2128.5 1968,-2128.5 2189.07,-2128.5 2298.43,-2088.51 2408,-1896.5 2507.76,-1721.68 2534.93,-1052.61 2539.31,-922.5"/>
<polygon fill="#757575" stroke="#757575" points="2542.82,-922.33 2539.65,-912.22 2535.82,-922.1 2542.82,-922.33"/>
</g>
<!-- UserBadge.tsx&#45;&gt;../../synapse&#45;queries/user/useUserBundle.ts -->
<g id="edge78" class="edge">
<title>UserBadge.tsx&#45;&gt;../../synapse&#45;queries/user/useUserBundle.ts</title>
<path fill="none" stroke="#757575" d="M105.06,-639.8C199.65,-645.86 404.11,-658.96 545.25,-668"/>
<polygon fill="#757575" stroke="#757575" points="545.09,-671.5 555.3,-668.65 545.54,-664.51 545.09,-671.5"/>
</g>
<!-- UserBadge.tsx&#45;&gt;../../synapse&#45;queries/user/useUserGroupHeader.ts -->
<g id="edge79" class="edge">
<title>UserBadge.tsx&#45;&gt;../../synapse&#45;queries/user/useUserGroupHeader.ts</title>
<path fill="none" stroke="#757575" d="M89.09,-624.93C132.03,-611.35 206.62,-588.98 272,-575.5 369.64,-555.37 481.53,-540.62 565.48,-531.17"/>
<polygon fill="#757575" stroke="#757575" points="566.02,-534.63 575.57,-530.04 565.25,-527.67 566.02,-534.63"/>
</g>
<!-- UserBadge.tsx&#45;&gt;../../utils/hooks/useOverlay.tsx -->
<g id="edge82" class="edge">
<title>UserBadge.tsx&#45;&gt;../../utils/hooks/useOverlay.tsx</title>
<path fill="none" stroke="#757575" d="M60.93,-624.8C74.42,-604.48 104.91,-562.63 141,-539.5 192.36,-506.57 212.61,-512.46 272,-498.5 509.08,-442.78 796.42,-435.08 949.04,-435.55"/>
<polygon fill="#757575" stroke="#757575" points="949.33,-439.05 959.34,-435.59 949.36,-432.05 949.33,-439.05"/>
</g>
<!-- UserBadge.tsx&#45;&gt;../IconSvg/IconSvg.tsx -->
<g id="edge83" class="edge">
<title>UserBadge.tsx&#45;&gt;../IconSvg/IconSvg.tsx</title>
<path fill="none" stroke="#757575" d="M61.59,-648.16C128.72,-744.86 592.94,-1413.63 679.59,-1538.46"/>
<polygon fill="#757575" stroke="#757575" points="676.8,-1540.57 685.37,-1546.79 682.55,-1536.58 676.8,-1540.57"/>
</g>
<!-- UserBadge.tsx&#45;&gt;Avatar.tsx -->
<g id="edge84" class="edge">
<title>UserBadge.tsx&#45;&gt;Avatar.tsx</title>
<path fill="none" stroke="#757575" d="M68.94,-624.95C85.92,-612.67 114.32,-593.28 141,-580.5 302.4,-503.2 357.71,-521.83 535,-497.5 572.03,-492.42 614,-487.14 645.44,-483.29"/>
<polygon fill="#757575" stroke="#757575" points="646.18,-486.73 655.68,-482.04 645.33,-479.78 646.18,-486.73"/>
</g>
<!-- UserCard.tsx -->
<g id="node68" class="node">
<title>UserCard.tsx</title>
<path fill="none" stroke="#ff6c60" d="M228.33,-688C228.33,-688 148.67,-688 148.67,-688 144.83,-688 141,-684.17 141,-680.33 141,-680.33 141,-672.67 141,-672.67 141,-668.83 144.83,-665 148.67,-665 148.67,-665 228.33,-665 228.33,-665 232.17,-665 236,-668.83 236,-672.67 236,-672.67 236,-680.33 236,-680.33 236,-684.17 232.17,-688 228.33,-688"/>
<text text-anchor="middle" x="188.5" y="-672.8" font-family="Arial" font-size="14.00" fill="#ff6c60">UserCard.tsx</text>
</g>
<!-- UserBadge.tsx&#45;&gt;UserCard.tsx -->
<g id="edge85" class="edge">
<title>UserBadge.tsx&#45;&gt;UserCard.tsx</title>
<path fill="none" stroke="#757575" d="M105.31,-645.37C122.59,-650.17 141.29,-656.02 156.48,-661.44"/>
<polygon fill="#757575" stroke="#757575" points="155.31,-664.74 165.91,-664.93 157.74,-658.18 155.31,-664.74"/>
</g>
<!-- UserCard.tsx&#45;&gt;../../utils/SynapseConstants.ts -->
<g id="edge88" class="edge">
<title>UserCard.tsx&#45;&gt;../../utils/SynapseConstants.ts</title>
<path fill="none" stroke="#757575" d="M190.61,-688.2C202.45,-804.99 316.28,-1763.64 890,-2071.5 984.85,-2122.39 1266.36,-2090.5 1374,-2090.5 1374,-2090.5 1374,-2090.5 1968,-2090.5 2507.48,-2090.5 2538.48,-1084.72 2539.97,-922.48"/>
<polygon fill="#757575" stroke="#757575" points="2543.47,-922.3 2540.03,-912.28 2536.47,-922.26 2543.47,-922.3"/>
</g>
<!-- UserCard.tsx&#45;&gt;../../synapse&#45;queries/file/useFiles.ts -->
<g id="edge86" class="edge">
<title>UserCard.tsx&#45;&gt;../../synapse&#45;queries/file/useFiles.ts</title>
<path fill="none" stroke="#757575" d="M217.85,-664.87C251.89,-650.9 309.08,-627.44 346.81,-611.96"/>
<polygon fill="#757575" stroke="#757575" points="348.5,-615.05 356.43,-608.02 345.85,-608.57 348.5,-615.05"/>
</g>
<!-- UserCard.tsx&#45;&gt;../../utils/hooks/usePreFetchResource.ts -->
<g id="edge89" class="edge">
<title>UserCard.tsx&#45;&gt;../../utils/hooks/usePreFetchResource.ts</title>
<path fill="none" stroke="#757575" d="M236.01,-672.81C308.19,-667.08 449.97,-655.83 556.66,-647.36"/>
<polygon fill="#757575" stroke="#757575" points="557.18,-650.83 566.87,-646.55 556.62,-643.85 557.18,-650.83"/>
</g>
<!-- UserCard.tsx&#45;&gt;../../synapse&#45;queries/user/useUserBundle.ts -->
<g id="edge87" class="edge">
<title>UserCard.tsx&#45;&gt;../../synapse&#45;queries/user/useUserBundle.ts</title>
<path fill="none" stroke="#757575" d="M236.06,-684.47C247.75,-686.14 260.31,-687.65 272,-688.5 362.5,-695.05 464.17,-692.68 544.98,-688.49"/>
<polygon fill="#757575" stroke="#757575" points="545.44,-691.97 555.24,-687.94 545.06,-684.98 545.44,-691.97"/>
</g>
<!-- UserCard.tsx&#45;&gt;Avatar.tsx -->
<g id="edge90" class="edge">
<title>UserCard.tsx&#45;&gt;Avatar.tsx</title>
<path fill="none" stroke="#757575" d="M195.79,-664.91C207.79,-643.89 236,-599.45 272,-575.5 373.51,-507.96 415.68,-522.55 535,-497.5 571.7,-489.8 613.85,-484.65 645.45,-481.51"/>
<polygon fill="#757575" stroke="#757575" points="646.13,-484.96 655.74,-480.52 645.46,-477.99 646.13,-484.96"/>
</g>
<!-- UserCard.tsx&#45;&gt;UserCardMedium.tsx -->
<g id="edge93" class="edge">
<title>UserCard.tsx&#45;&gt;UserCardMedium.tsx</title>
<path fill="none" stroke="#757575" d="M208.2,-688.2C242.85,-709.88 317.17,-756.37 357.36,-781.52"/>
<polygon fill="#757575" stroke="#757575" points="355.53,-784.5 365.86,-786.84 359.24,-778.57 355.53,-784.5"/>
</g>
<!-- UserCard.tsx&#45;&gt;UserBadge.tsx -->
<g id="edge91" class="edge">
<title>UserCard.tsx&#45;&gt;UserBadge.tsx</title>
<path fill="none" stroke="#757575" d="M140.75,-669.01C122.24,-664.02 101.44,-657.59 84.8,-651.66"/>
<polygon fill="#757575" stroke="#757575" points="85.62,-648.23 75.03,-648.04 83.19,-654.79 85.62,-648.23"/>
</g>
<!-- UserCard.tsx&#45;&gt;UserCardContextMenu.tsx -->
<g id="edge92" class="edge">
<title>UserCard.tsx&#45;&gt;UserCardContextMenu.tsx</title>
<path fill="none" stroke="#757575" d="M194.2,-688.37C204.94,-714.41 233.36,-777.55 272,-819.5 368.31,-924.05 403.2,-948.25 535,-1001.5 554.22,-1009.27 575.64,-1014.71 596.37,-1018.53"/>
<polygon fill="#757575" stroke="#757575" points="596.02,-1022.03 606.47,-1020.28 597.21,-1015.13 596.02,-1022.03"/>
</g>
<!-- UserCardContextMenu.tsx&#45;&gt;../../utils/SynapseConstants.ts -->
<g id="edge94" class="edge">
<title>UserCardContextMenu.tsx&#45;&gt;../../utils/SynapseConstants.ts</title>
<path fill="none" stroke="#757575" d="M782.52,-1027.29C911.63,-1027 1161.53,-1026.5 1374,-1026.5 1374,-1026.5 1374,-1026.5 1968,-1026.5 2163.85,-1026.5 2224.45,-1070.79 2408,-1002.5 2455.31,-984.9 2499.39,-943.98 2522.7,-919.66"/>
<polygon fill="#757575" stroke="#757575" points="2525.5,-921.79 2529.79,-912.1 2520.4,-917 2525.5,-921.79"/>
</g>
<!-- UserCardLarge.tsx&#45;&gt;../../assets/icons/CertifiedUser.tsx -->
<g id="edge95" class="edge">
<title>UserCardLarge.tsx&#45;&gt;../../assets/icons/CertifiedUser.tsx</title>
<path fill="none" stroke="#757575" d="M759.62,-932.05C809.13,-934.8 879.01,-938.67 938.53,-941.96"/>
<polygon fill="#757575" stroke="#757575" points="938.58,-945.47 948.75,-942.53 938.96,-938.48 938.58,-945.47"/>
</g>
</g>
</svg>
