<svg width="350" height="42" viewBox="0 0 500 40" fill="none" xmlns="http://www.w3.org/2000/svg">
<path d="M442.319 10.0259H445.829V28.5059H456.599V31.8659H442.319V10.0259Z" fill="#424242"/>
<path d="M419.08 31.866L428.74 9.12598H428.95L438.61 31.866H434.59L427.78 14.616L430.3 12.906L422.53 31.866H419.08ZM425.14 23.766H432.61L433.81 26.736H424.09L425.14 23.766Z" fill="#424242"/>
<path d="M404.057 10.0259H418.667V13.3859H413.027V31.8659H409.547V13.3859H404.057V10.0259Z" fill="#424242"/>
<path d="M392.038 10.0259C393.238 10.0259 394.339 10.1859 395.339 10.5059C396.339 10.8059 397.188 11.2559 397.888 11.8559C398.588 12.4559 399.128 13.1959 399.508 14.0759C399.908 14.9359 400.108 15.9259 400.108 17.0459C400.108 17.9059 399.978 18.7659 399.718 19.6259C399.458 20.4859 399.028 21.2659 398.428 21.9659C397.848 22.6659 397.078 23.2259 396.118 23.6459C395.158 24.0659 393.968 24.2759 392.548 24.2759H389.398V31.8659H385.888V10.0259H392.038ZM392.518 20.9159C393.298 20.9159 393.948 20.7959 394.468 20.5559C394.988 20.2959 395.388 19.9759 395.668 19.5959C395.968 19.2159 396.178 18.8159 396.298 18.3959C396.438 17.9559 396.508 17.5459 396.508 17.1659C396.508 16.8059 396.448 16.4159 396.328 15.9959C396.208 15.5559 396.008 15.1459 395.728 14.7659C395.448 14.3659 395.049 14.0359 394.529 13.7759C394.029 13.5159 393.398 13.3859 392.638 13.3859H389.398V20.9159H392.518ZM396.298 22.9859L401.878 31.8659H397.828L392.128 23.0759L396.298 22.9859Z" fill="#424242"/>
<path d="M358.892 20.9761C358.892 19.4561 359.182 18.0261 359.762 16.6861C360.342 15.3461 361.142 14.1561 362.162 13.1161C363.182 12.0761 364.362 11.2661 365.702 10.6861C367.062 10.0861 368.512 9.78613 370.052 9.78613C371.572 9.78613 373.002 10.0861 374.342 10.6861C375.702 11.2661 376.892 12.0761 377.912 13.1161C378.952 14.1561 379.762 15.3461 380.342 16.6861C380.942 18.0261 381.242 19.4561 381.242 20.9761C381.242 22.5161 380.942 23.9561 380.342 25.2961C379.762 26.6361 378.952 27.8261 377.912 28.8661C376.892 29.8861 375.702 30.6861 374.342 31.2661C373.002 31.8261 371.572 32.1061 370.052 32.1061C368.492 32.1061 367.042 31.8261 365.702 31.2661C364.362 30.6861 363.182 29.8961 362.162 28.8961C361.142 27.8761 360.342 26.6961 359.762 25.3561C359.182 23.9961 358.892 22.5361 358.892 20.9761ZM362.492 20.9761C362.492 22.0561 362.682 23.0661 363.062 24.0061C363.462 24.9461 364.012 25.7761 364.712 26.4961C365.412 27.1961 366.222 27.7461 367.142 28.1461C368.062 28.5461 369.062 28.7461 370.142 28.7461C371.182 28.7461 372.152 28.5461 373.052 28.1461C373.972 27.7461 374.772 27.1961 375.452 26.4961C376.132 25.7761 376.662 24.9461 377.042 24.0061C377.442 23.0661 377.642 22.0561 377.642 20.9761C377.642 19.8761 377.442 18.8561 377.042 17.9161C376.642 16.9761 376.102 16.1461 375.422 15.4261C374.742 14.7061 373.942 14.1461 373.022 13.7461C372.102 13.3461 371.112 13.1461 370.052 13.1461C368.992 13.1461 368.002 13.3461 367.082 13.7461C366.162 14.1461 365.352 14.7061 364.652 15.4261C363.972 16.1461 363.442 16.9861 363.062 17.9461C362.682 18.8861 362.492 19.8961 362.492 20.9761Z" fill="#424242"/>
<path d="M348.101 10.0259C349.761 10.0259 351.181 10.3059 352.361 10.8659C353.541 11.4259 354.441 12.2259 355.061 13.2659C355.701 14.3059 356.021 15.5659 356.021 17.0459C356.021 17.9059 355.881 18.7659 355.601 19.6259C355.341 20.4859 354.921 21.2659 354.341 21.9659C353.781 22.6659 353.021 23.2359 352.061 23.6759C351.121 24.0959 349.961 24.3059 348.581 24.3059H345.431V31.8659H341.921V10.0259H348.101ZM348.581 20.9159C349.341 20.9159 349.981 20.7859 350.501 20.5259C351.021 20.2659 351.421 19.9359 351.701 19.5359C352.001 19.1359 352.211 18.7259 352.331 18.3059C352.471 17.8659 352.541 17.4759 352.541 17.1359C352.541 16.7759 352.481 16.3859 352.361 15.9659C352.241 15.5259 352.041 15.1159 351.761 14.7359C351.481 14.3359 351.091 14.0159 350.591 13.7759C350.091 13.5159 349.451 13.3859 348.671 13.3859H345.431V20.9159H348.581Z" fill="#424242"/>
<path d="M312.601 10.0259H327.091V13.3859H316.111V19.2059H325.891V22.5959H316.111V28.5059H327.511V31.8659H312.601V10.0259Z" fill="#424242"/>
<path d="M307.313 29.8561C307.033 30.1361 306.613 30.4061 306.053 30.6661C305.513 30.9261 304.903 31.1661 304.223 31.3861C303.543 31.6061 302.843 31.7761 302.123 31.8961C301.403 32.0361 300.723 32.1061 300.083 32.1061C298.323 32.1061 296.733 31.8361 295.313 31.2961C293.913 30.7561 292.703 30.0161 291.683 29.0761C290.683 28.1161 289.913 26.9861 289.373 25.6861C288.853 24.3861 288.593 22.9761 288.593 21.4561C288.593 19.5561 288.893 17.8861 289.493 16.4461C290.093 14.9861 290.913 13.7661 291.953 12.7861C292.993 11.7861 294.183 11.0361 295.523 10.5361C296.883 10.0361 298.313 9.78613 299.813 9.78613C301.133 9.78613 302.353 9.93613 303.473 10.2361C304.613 10.5361 305.583 10.9161 306.383 11.3761L305.243 14.6161C304.863 14.3961 304.373 14.1861 303.773 13.9861C303.173 13.7661 302.563 13.5961 301.943 13.4761C301.343 13.3561 300.783 13.2961 300.263 13.2961C299.003 13.2961 297.873 13.4761 296.873 13.8361C295.893 14.1761 295.053 14.6861 294.353 15.3661C293.653 16.0461 293.113 16.8761 292.733 17.8561C292.373 18.8161 292.193 19.9161 292.193 21.1561C292.193 22.2761 292.383 23.2961 292.763 24.2161C293.163 25.1361 293.713 25.9261 294.413 26.5861C295.133 27.2461 295.973 27.7561 296.933 28.1161C297.913 28.4561 298.993 28.6261 300.173 28.6261C300.853 28.6261 301.513 28.5661 302.153 28.4461C302.793 28.3261 303.333 28.1361 303.773 27.8761V24.2461H299.693V20.8861H307.313V29.8561Z" fill="#424242"/>
<path d="M267.139 31.8659V10.0259H273.349C275.529 10.0259 277.379 10.3559 278.899 11.0159C280.419 11.6559 281.649 12.5259 282.589 13.6259C283.529 14.7059 284.209 15.9159 284.629 17.2559C285.069 18.5759 285.289 19.9059 285.289 21.2459C285.289 22.8859 284.999 24.3559 284.419 25.6559C283.839 26.9559 283.049 28.0759 282.049 29.0159C281.049 29.9359 279.889 30.6459 278.569 31.1459C277.269 31.6259 275.879 31.8659 274.399 31.8659H267.139ZM270.649 28.5059H273.769C274.929 28.5059 275.989 28.3459 276.949 28.0259C277.909 27.6859 278.739 27.2059 279.439 26.5859C280.159 25.9459 280.709 25.1559 281.089 24.2159C281.489 23.2759 281.689 22.2059 281.689 21.0059C281.689 19.6459 281.459 18.4859 280.999 17.5259C280.559 16.5459 279.969 15.7559 279.229 15.1559C278.509 14.5359 277.719 14.0859 276.859 13.8059C275.999 13.5259 275.149 13.3859 274.309 13.3859H270.649V28.5059Z" fill="#424242"/>
<path d="M247.411 10.0259H261.901V13.3859H250.921V19.2059H260.701V22.5959H250.921V28.5059H262.321V31.8659H247.411V10.0259Z" fill="#424242"/>
<path d="M228.532 10.0259H232.042V28.5059H242.812V31.8659H228.532V10.0259Z" fill="#424242"/>
<path d="M196.25 10.146H200.33L205.73 25.626L205.16 25.386L209.36 14.616L210.98 19.356L204.98 32.886L196.25 10.146ZM206.96 10.146H210.41L216.41 25.296L215.72 25.176L220.7 10.146H224.45L215.93 32.826L206.96 10.146Z" fill="#424242"/>
<path d="M172.814 20.9761C172.814 19.4561 173.104 18.0261 173.684 16.6861C174.264 15.3461 175.064 14.1561 176.084 13.1161C177.104 12.0761 178.284 11.2661 179.624 10.6861C180.984 10.0861 182.434 9.78613 183.974 9.78613C185.494 9.78613 186.924 10.0861 188.264 10.6861C189.624 11.2661 190.814 12.0761 191.834 13.1161C192.874 14.1561 193.684 15.3461 194.264 16.6861C194.864 18.0261 195.164 19.4561 195.164 20.9761C195.164 22.5161 194.864 23.9561 194.264 25.2961C193.684 26.6361 192.874 27.8261 191.834 28.8661C190.814 29.8861 189.624 30.6861 188.264 31.2661C186.924 31.8261 185.494 32.1061 183.974 32.1061C182.414 32.1061 180.964 31.8261 179.624 31.2661C178.284 30.6861 177.104 29.8961 176.084 28.8961C175.064 27.8761 174.264 26.6961 173.684 25.3561C173.104 23.9961 172.814 22.5361 172.814 20.9761ZM176.414 20.9761C176.414 22.0561 176.604 23.0661 176.984 24.0061C177.384 24.9461 177.934 25.7761 178.634 26.4961C179.334 27.1961 180.144 27.7461 181.064 28.1461C181.984 28.5461 182.984 28.7461 184.064 28.7461C185.104 28.7461 186.074 28.5461 186.974 28.1461C187.894 27.7461 188.694 27.1961 189.374 26.4961C190.054 25.7761 190.584 24.9461 190.964 24.0061C191.364 23.0661 191.564 22.0561 191.564 20.9761C191.564 19.8761 191.364 18.8561 190.964 17.9161C190.564 16.9761 190.024 16.1461 189.344 15.4261C188.664 14.7061 187.864 14.1461 186.944 13.7461C186.024 13.3461 185.034 13.1461 183.974 13.1461C182.914 13.1461 181.924 13.3461 181.004 13.7461C180.084 14.1461 179.274 14.7061 178.574 15.4261C177.894 16.1461 177.364 16.9861 176.984 17.9461C176.604 18.8861 176.414 19.8961 176.414 20.9761Z" fill="#424242"/>
<path d="M168.07 32.6459L151.3 16.3859L152.32 16.8059L152.41 31.8659H148.87V9.27588H149.02L165.55 25.5359L164.74 25.2959L164.68 10.0259H168.16V32.6459H168.07Z" fill="#424242"/>
<path d="M131.744 18.3959L131.654 19.5059L132.134 18.8159L140.324 10.0259H144.854L135.824 19.5659L145.184 31.8659H140.744L133.274 21.7859L131.744 23.2859V31.8659H128.204V10.0259H131.744V18.3959Z" fill="#424242"/>
<path d="M112.63 14.4658C111.85 14.0658 111.02 13.7258 110.14 13.4458C109.26 13.1458 108.42 12.9958 107.62 12.9958C106.54 12.9958 105.68 13.2358 105.04 13.7158C104.42 14.1958 104.11 14.8558 104.11 15.6958C104.11 16.2958 104.33 16.8258 104.77 17.2858C105.21 17.7258 105.77 18.1158 106.45 18.4558C107.13 18.7758 107.85 19.0858 108.61 19.3858C109.27 19.6258 109.92 19.9158 110.56 20.2558C111.22 20.5758 111.81 20.9758 112.33 21.4558C112.85 21.9358 113.26 22.5358 113.56 23.2558C113.88 23.9558 114.04 24.8258 114.04 25.8658C114.04 27.0058 113.75 28.0558 113.17 29.0158C112.59 29.9558 111.76 30.7058 110.68 31.2658C109.6 31.8258 108.28 32.1058 106.72 32.1058C105.82 32.1058 104.93 32.0058 104.05 31.8058C103.19 31.6058 102.37 31.3358 101.59 30.9958C100.81 30.6358 100.09 30.2358 99.4298 29.7958L100.99 27.0658C101.47 27.4258 102.02 27.7558 102.64 28.0558C103.26 28.3558 103.9 28.5958 104.56 28.7758C105.22 28.9358 105.84 29.0158 106.42 29.0158C107.04 29.0158 107.65 28.9158 108.25 28.7158C108.87 28.5158 109.38 28.1858 109.78 27.7258C110.2 27.2658 110.41 26.6558 110.41 25.8958C110.41 25.2758 110.23 24.7458 109.87 24.3058C109.51 23.8658 109.04 23.4858 108.46 23.1658C107.9 22.8258 107.28 22.5258 106.6 22.2658C105.92 22.0058 105.22 21.7158 104.5 21.3958C103.8 21.0758 103.15 20.6858 102.55 20.2258C101.95 19.7458 101.46 19.1658 101.08 18.4858C100.7 17.8058 100.51 16.9658 100.51 15.9658C100.51 14.7658 100.79 13.7258 101.35 12.8458C101.91 11.9658 102.68 11.2658 103.66 10.7458C104.66 10.2258 105.81 9.94576 107.11 9.90576C108.65 9.90576 109.96 10.0958 111.04 10.4758C112.14 10.8358 113.11 11.2758 113.95 11.7958L112.63 14.4658Z" fill="#424242"/>
<path d="M82.2913 10.0259H85.8013V28.5059H96.5713V31.8659H82.2913V10.0259Z" fill="#424242"/>
<path d="M59.0527 31.866L68.7127 9.12598H68.9227L78.5827 31.866H74.5627L67.7527 14.616L70.2727 12.906L62.5027 31.866H59.0527ZM65.1127 23.766H72.5827L73.7827 26.736H64.0627L65.1127 23.766Z" fill="#424242"/>
<path d="M49.8811 42L24.9412 0L19.0934 9.86485L37.8209 42H49.8811Z" fill="#4F6FC2"/>
<path d="M0 42L24.9403 0L29.5906 7.84813L30.8724 10.0068L12.058 42H0Z" fill="#254699"/>
<path d="M24.9406 0L19.1045 9.82806L19.0878 9.85641L24.9976 19.9973L30.8777 9.99848L24.9406 0Z" fill="#0C1F77"/>
</svg>
