<?xml version="1.0" encoding="UTF-8"?>
<svg id="Layer_1" xmlns="http://www.w3.org/2000/svg" version="1.1" viewBox="0 0 323.77 90.47">
  <!-- Generator: Adobe Illustrator 29.2.1, SVG Export Plug-In . SVG Version: 2.1.0 Build 116)  -->
  <defs>
    <style>
      .st0 {
        fill: #6d6e71;
      }

      .st1 {
        fill: none;
        stroke: #6d6e71;
        stroke-linecap: round;
        stroke-miterlimit: 10;
        stroke-width: 3.61px;
      }

      .st2 {
        fill: #f7941d;
      }
    </style>
  </defs>
  <g>
    <path class="st0" d="M68.47,39.98V9.17h5.32v25.7h17.86v5.12h-23.19Z"/>
    <path class="st0" d="M106.42,40.52c-2.72,0-5.04-.46-6.95-1.39s-3.37-2.31-4.37-4.15-1.51-4.12-1.51-6.84.51-4.99,1.51-6.82,2.46-3.2,4.37-4.13,4.23-1.39,6.95-1.39,5.08.46,6.99,1.39,3.37,2.3,4.37,4.13,1.51,4.09,1.51,6.82-.51,5-1.51,6.84c-1,1.84-2.46,3.22-4.37,4.15s-4.24,1.39-6.99,1.39h0ZM106.42,36.4c1.6,0,2.98-.29,4.17-.86s2.09-1.42,2.74-2.58.97-2.61.97-4.37v-.9c0-1.76-.32-3.22-.97-4.35s-1.56-1.99-2.74-2.56c-1.19-.57-2.57-.86-4.17-.86s-2.94.29-4.13.86-2.09,1.42-2.74,2.56-.97,2.59-.97,4.35v.9c0,1.76.32,3.22.97,4.37s1.56,2.01,2.74,2.58c1.19.57,2.56.86,4.13.86Z"/>
    <path class="st0" d="M122.92,39.98v-23.64h3.88l.33,4.13h.37c.79-1.23,1.71-2.17,2.74-2.83s2.11-1.12,3.26-1.41c1.14-.29,2.24-.42,3.28-.42,2.01,0,3.68.33,5.01.99s2.34,1.67,3.03,3.02c.69,1.36,1.03,3.14,1.03,5.31v14.84h-4.83v-13.94c0-1.13-.14-2.08-.43-2.85-.29-.76-.69-1.36-1.2-1.79-.51-.43-1.12-.73-1.84-.9s-1.52-.25-2.39-.25c-1.27,0-2.47.29-3.59.88s-2.05,1.39-2.76,2.42-1.07,2.24-1.07,3.61v12.83h-4.83,0Z"/>
    <path class="st0" d="M154.77,48.68c-1.24,0-2.38-.21-3.42-.61-1.04-.4-1.89-1.03-2.52-1.89-.63-.86-.95-1.97-.95-3.34,0-1.17.37-2.22,1.11-3.14.74-.93,1.69-1.6,2.85-2.02-.83-.44-1.43-1.05-1.82-1.82-.38-.76-.58-1.59-.58-2.49,0-1.1.36-2.1,1.07-2.98s1.72-1.42,3.01-1.64c-1.1-.66-1.95-1.46-2.54-2.42-.59-.96-.89-1.99-.89-3.09,0-1.7.42-3.1,1.28-4.2s2.15-1.91,3.88-2.44c1.73-.54,3.91-.8,6.52-.8,1.1,0,2.11.06,3.03.18.92.12,1.77.29,2.58.5,1.29-.51,2.31-1.13,3.05-1.89s1.2-1.51,1.36-2.29h4.58c-.05,1.02-.3,1.92-.72,2.71-.42.79-1.02,1.45-1.79,1.99s-1.72.93-2.85,1.17c.83.6,1.44,1.32,1.86,2.18s.62,1.82.62,2.89c0,1.59-.39,2.93-1.18,4.03s-1.97,1.94-3.55,2.52c-1.59.57-3.6.86-6.04.86h-5.69c-.79,0-1.43.18-1.92.52-.48.34-.72.83-.72,1.45s.25,1.12.74,1.47,1.21.54,2.15.54h12.46c2.01,0,3.56.64,4.64,1.93s1.63,2.9,1.63,4.85c0,1.43-.34,2.7-1.01,3.79-.67,1.09-1.58,1.94-2.72,2.56-1.14.61-2.41.92-3.82.92h-13.7v.03ZM155.6,44.92h12.67c.53,0,1-.12,1.44-.38s.79-.61,1.05-1.05.39-.96.39-1.53c0-.9-.26-1.6-.78-2.1-.53-.51-1.17-.76-1.94-.76h-12.71c-.83,0-1.52.26-2.08.76s-.85,1.21-.85,2.1.27,1.58.8,2.13,1.21.83,2,.83h0ZM161.79,26.89c2.2,0,3.89-.29,5.05-.86s1.75-1.5,1.75-2.78-.59-2.27-1.75-2.85-2.86-.88-5.05-.88-3.88.29-5.03.88-1.73,1.54-1.73,2.85c0,.9.26,1.62.76,2.16s1.27.92,2.27,1.14c1,.23,2.25.34,3.73.34h0Z"/>
    <path class="st0" d="M190.09,40.52c-2.72,0-5.05-.44-6.99-1.32s-3.43-2.24-4.48-4.06-1.57-4.14-1.57-6.95.51-5.04,1.53-6.88c1.02-1.84,2.5-3.22,4.43-4.13,1.94-.91,4.26-1.37,6.95-1.37,2.84,0,5.19.46,7.08,1.39s3.29,2.26,4.23,3.99,1.4,3.79,1.4,6.15v2.2h-20.55c.05,1.67.42,3.01,1.11,4.01.69,1,1.64,1.72,2.87,2.18,1.23.44,2.62.67,4.19.67.86,0,1.7-.11,2.54-.34s1.6-.53,2.29-.92,1.25-.86,1.69-1.41.7-1.16.78-1.82h4.87c0,1.1-.26,2.18-.78,3.21s-1.3,1.95-2.33,2.75-2.32,1.45-3.86,1.93-3.34.72-5.4.72h0ZM182.13,25.9h15.43c0-1.1-.21-2.03-.62-2.78s-.97-1.35-1.67-1.82-1.52-.8-2.43-1.03c-.92-.23-1.88-.34-2.87-.34-1.45,0-2.75.22-3.9.65s-2.05,1.09-2.72,1.97c-.67.89-1.08,1.99-1.22,3.34h0Z"/>
    <path class="st0" d="M213.73,39.98l-10.27-23.64h5.24l5.03,12.02c.2.44.43,1.04.72,1.79s.59,1.51.91,2.29.59,1.47.8,2.1h.33c.22-.6.46-1.27.72-2.02.26-.74.54-1.51.83-2.27.29-.76.55-1.39.76-1.91l5.03-12.02h5.07l-10.27,23.64h-4.91Z"/>
    <path class="st0" d="M230.56,12.13v-4.62h4.83v4.62h-4.83ZM230.56,39.98v-23.64h4.83v23.64h-4.83Z"/>
    <path class="st0" d="M247.89,40.52c-1.43,0-2.59-.22-3.47-.65-.88-.43-1.54-1.16-1.96-2.18s-.64-2.37-.64-4.08v-13.14h-4.13v-4.13h4.25l.99-6.82h3.71v6.82h5.82v4.13h-5.82v12.51c0,1.13.18,1.99.52,2.56.34.57,1.14.86,2.41.86h2.89v3.36c-.36.15-.81.29-1.38.4-.57.12-1.12.21-1.69.27-.57.06-1.06.09-1.51.09h0Z"/>
    <path class="st0" d="M258.2,48.68c-.69,0-1.33-.05-1.92-.15s-1.14-.26-1.67-.47v-3.5h2.6c1.32,0,2.37-.17,3.16-.5s1.41-.83,1.88-1.51c.46-.67.94-1.54,1.4-2.58l-10.69-23.64h5.32l4.99,11.88c.28.54.58,1.22.91,2.04.33.83.67,1.67,1.03,2.54s.66,1.62.91,2.24h.33c.03-.14.13-.48.31-1.01.18-.53.4-1.14.66-1.86.26-.72.53-1.45.8-2.2s.53-1.4.74-1.97l4.37-11.66h5.07l-8.95,22.15c-.69,1.64-1.36,3.1-2.02,4.37-.66,1.27-1.39,2.34-2.21,3.21s-1.78,1.52-2.93,1.95-2.51.65-4.1.65h0Z"/>
    <path class="st0" d="M84.39,81.18c-3.76,0-6.93-.61-9.49-1.82s-4.48-3-5.76-5.38c-1.28-2.37-1.92-5.3-1.92-8.77,0-5.08,1.47-9,4.41-11.77s7.17-4.15,12.67-4.15c3.17,0,5.95.47,8.37,1.41,2.42.94,4.3,2.32,5.65,4.13s2.02,4.03,2.02,6.66h-5.24c0-1.67-.45-3.05-1.36-4.13-.91-1.07-2.18-1.88-3.82-2.4-1.64-.53-3.56-.78-5.76-.78s-4.29.39-6.02,1.19-3.08,1.97-4.04,3.52c-.96,1.56-1.44,3.47-1.44,5.74v1.12c0,2.33.48,4.28,1.46,5.85.98,1.57,2.34,2.74,4.08,3.52s3.77,1.17,6.09,1.17,4.2-.26,5.82-.76c1.62-.51,2.88-1.31,3.77-2.4.9-1.09,1.34-2.44,1.34-4.05h5.16c0,2.57-.67,4.76-2.02,6.57-1.35,1.8-3.22,3.19-5.61,4.13s-5.19,1.41-8.37,1.41Z"/>
    <path class="st0" d="M116.74,81.18c-2.72,0-5.04-.46-6.95-1.39-1.91-.93-3.37-2.31-4.37-4.15s-1.51-4.12-1.51-6.84.51-4.99,1.51-6.82c1-1.83,2.46-3.2,4.37-4.13s4.23-1.39,6.95-1.39,5.08.46,6.99,1.39,3.37,2.3,4.37,4.13,1.51,4.09,1.51,6.82-.51,5-1.51,6.84-2.47,3.22-4.37,4.15c-1.91.93-4.24,1.39-6.99,1.39h0ZM116.74,77.06c1.6,0,2.98-.29,4.17-.86s2.09-1.42,2.74-2.58.97-2.61.97-4.37v-.9c0-1.76-.32-3.22-.97-4.35s-1.56-1.99-2.74-2.56-2.57-.86-4.17-.86-2.94.29-4.13.86-2.09,1.42-2.74,2.56-.97,2.59-.97,4.35v.9c0,1.76.32,3.22.97,4.37s1.56,2.01,2.74,2.58c1.19.57,2.56.86,4.13.86Z"/>
    <path class="st0" d="M133.24,80.65v-23.64h3.88l.33,4.13h.37c.79-1.23,1.71-2.17,2.74-2.83s2.11-1.12,3.26-1.41c1.14-.29,2.24-.42,3.28-.42,2.01,0,3.68.33,5.01.99s2.34,1.67,3.03,3.02c.69,1.36,1.03,3.14,1.03,5.31v14.84h-4.83v-13.94c0-1.13-.14-2.08-.43-2.85s-.69-1.36-1.2-1.79-1.12-.73-1.84-.9-1.52-.25-2.39-.25c-1.27,0-2.47.29-3.59.88-1.12.59-2.05,1.39-2.76,2.42s-1.07,2.24-1.07,3.61v12.83h-4.83,0Z"/>
    <path class="st0" d="M170.57,81.18c-1.6,0-3.09-.14-4.5-.42-1.4-.28-2.63-.71-3.69-1.28s-1.89-1.3-2.5-2.2c-.61-.9-.91-1.96-.91-3.19,0-.14,0-.29.02-.42.01-.13.03-.26.06-.38h4.95s0,.09-.02.21c-.01.1-.02.19-.02.25,0,.93.32,1.64.97,2.16.65.51,1.47.87,2.5,1.07,1.02.21,2.09.31,3.22.31s2.24-.08,3.26-.25,1.85-.47,2.48-.92.95-1.09.95-1.93c0-.93-.32-1.6-.97-2.02s-1.59-.74-2.83-.97c-1.24-.23-2.72-.47-4.46-.74-1.37-.21-2.62-.47-3.73-.8s-2.09-.74-2.93-1.26c-.84-.51-1.47-1.17-1.92-1.97-.44-.8-.66-1.79-.66-2.96s.25-2.23.74-3.09,1.21-1.59,2.15-2.16c.94-.57,2.09-1,3.47-1.3,1.37-.3,2.97-.44,4.79-.44,1.6,0,3.03.15,4.31.44,1.28.3,2.38.74,3.32,1.32.94.59,1.66,1.29,2.17,2.1.51.83.76,1.74.76,2.75v.34c0,.1-.01.23-.04.38h-4.95v-.23c0-.84-.26-1.49-.78-1.95s-1.21-.79-2.06-.99-1.77-.29-2.76-.29c-.46,0-1.05.02-1.75.06-.7.04-1.39.15-2.08.34-.69.18-1.26.43-1.71.76s-.68.8-.68,1.43c0,.74.34,1.32,1.03,1.7.69.39,1.59.68,2.7.88s2.32.39,3.61.61c1.37.21,2.67.45,3.9.72s2.3.65,3.22,1.14c.92.5,1.65,1.19,2.19,2.06.54.89.8,2.02.8,3.43s-.26,2.59-.76,3.57c-.51.97-1.26,1.76-2.25,2.37-.99.61-2.2,1.05-3.63,1.32-1.43.27-3.08.4-4.95.4h0Z"/>
    <path class="st0" d="M197.39,81.18c-2.72,0-5.04-.46-6.95-1.39-1.91-.93-3.37-2.31-4.37-4.15s-1.51-4.12-1.51-6.84.51-4.99,1.51-6.82c1-1.83,2.47-3.2,4.37-4.13,1.91-.93,4.23-1.39,6.95-1.39s5.08.46,6.99,1.39,3.37,2.3,4.37,4.13,1.51,4.09,1.51,6.82-.51,5-1.51,6.84-2.47,3.22-4.37,4.15c-1.91.93-4.24,1.39-6.99,1.39ZM197.39,77.06c1.6,0,2.98-.29,4.17-.86s2.09-1.42,2.74-2.58.97-2.61.97-4.37v-.9c0-1.76-.32-3.22-.97-4.35s-1.56-1.99-2.74-2.56-2.57-.86-4.17-.86-2.94.29-4.13.86-2.09,1.42-2.74,2.56-.97,2.59-.97,4.35v.9c0,1.76.32,3.22.97,4.37s1.56,2.01,2.74,2.58,2.56.86,4.13.86Z"/>
    <path class="st0" d="M213.89,80.65v-23.64h3.88l.33,4.3h.33c.25-.77.64-1.54,1.18-2.27.54-.73,1.24-1.34,2.1-1.84.87-.5,1.89-.74,3.07-.74.46,0,.94.04,1.4.11.46.07.88.18,1.24.29v4.62h-2.48c-1.19,0-2.18.23-2.97.67-.79.44-1.43,1.05-1.9,1.82s-.81,1.58-1.03,2.44c-.22.87-.33,1.75-.33,2.65v11.57h-4.83Z"/>
    <path class="st0" d="M239.22,81.18c-1.43,0-2.59-.22-3.47-.65-.88-.43-1.54-1.16-1.96-2.18s-.64-2.37-.64-4.08v-13.14h-4.13v-4.13h4.25l.99-6.82h3.71v6.82h5.82v4.13h-5.82v12.51c0,1.13.18,1.99.52,2.56s1.14.86,2.41.86h2.89v3.36c-.36.15-.81.29-1.38.4-.57.12-1.12.21-1.69.27-.57.06-1.06.09-1.51.09h0Z"/>
    <path class="st0" d="M247.1,52.79v-4.62h4.83v4.62h-4.83ZM247.1,80.65v-23.64h4.83v23.64h-4.83Z"/>
    <path class="st0" d="M265.21,81.18c-2.97,0-5.22-.74-6.75-2.22-1.53-1.47-2.29-3.84-2.29-7.06v-14.89h4.83v13.94c0,1.17.13,2.12.41,2.87.28.75.67,1.34,1.2,1.77s1.14.73,1.86.9,1.5.25,2.35.25c1.27,0,2.47-.28,3.61-.86,1.14-.57,2.07-1.37,2.78-2.42s1.07-2.26,1.07-3.63v-12.83h4.83v23.64h-3.88l-.37-4.08h-.37c-.77,1.2-1.68,2.12-2.72,2.78s-2.12,1.12-3.24,1.41c-1.11.29-2.22.42-3.32.42h0Z"/>
    <path class="st0" d="M283.53,80.65v-23.64h3.88l.33,4.13h.37c.79-1.23,1.7-2.17,2.7-2.83s2.05-1.12,3.16-1.41,2.18-.42,3.22-.42c2.03,0,3.72.37,5.05,1.1,1.33.73,2.29,1.92,2.87,3.57h.37c.79-1.2,1.7-2.13,2.72-2.81,1.02-.67,2.08-1.16,3.2-1.43s2.2-.42,3.24-.42c1.9,0,3.49.33,4.76.99s2.25,1.67,2.91,3.02c.66,1.36.99,3.14.99,5.31v14.84h-4.83v-13.94c0-1.13-.13-2.08-.41-2.85s-.66-1.36-1.16-1.79c-.5-.43-1.08-.73-1.75-.9-.67-.16-1.41-.25-2.21-.25-1.21,0-2.36.29-3.44.88-1.08.59-1.97,1.39-2.66,2.42-.69,1.03-1.03,2.24-1.03,3.61v12.83h-4.79v-13.94c0-1.13-.13-2.08-.41-2.85s-.66-1.36-1.16-1.79c-.5-.43-1.08-.73-1.75-.9s-1.42-.25-2.25-.25c-1.21,0-2.36.29-3.44.88-1.08.59-1.97,1.39-2.64,2.42s-1.01,2.24-1.01,3.61v12.83h-4.83v-.02Z"/>
  </g>
  <line class="st1" x1="3.25" y1="5.8" x2="26.86" y2="5.8"/>
  <line class="st1" x1="6.96" y1="12.46" x2="19.67" y2="12.46"/>
  <path class="st2" d="M9.7,46.61c0,4.13,10.23,12.66,13.77,12.66,3.29,0,13.55-8.52,13.55-12.84v-1.97H9.69v2.16h.01Z"/>
  <path class="st0" d="M14.67,22.32c-.55.38-1.27.39-1.82.02C8.48,19.38.4,12.7.4,3.86v-1.94C.4,1.03,1.12.31,2.01.31h2.41c.89,0,1.61.72,1.61,1.61v1.94c0,6.9,8.25,12.72,10.78,14.34h0c.91.65.9,1.99-.01,2.63l-2.13,1.5h.01Z"/>
  <path class="st0" d="M23.58,69.5c-3.39,0-11.18-3.98-16.57-9.33C2.66,55.83.35,51.12.35,46.52c0-.84.04-4.25.04-4.25,0-7.03,9.96-13.73,21.5-21.48,8.06-5.4,19.08-12.82,19.08-16.92v-1.73c0-1,.81-1.82,1.82-1.82h2.01c1,0,1.82.81,1.82,1.82v1.73c0,7.12-9.99,13.83-21.58,21.61-8.02,5.38-19.01,12.77-19.01,16.83,0,.04-.04,3.4-.04,4.22,0,9.28,14.86,17.21,17.6,17.34,3.28-.02,17.34-8.18,17.34-17.6,0-.57.04-3.99.04-3.99,0-3.29-1.04-4.19-5.03-7.13-1.22-.9-4.68-3.79-6.81-5.58-.9-.75-.85-2.13.08-2.84l1.5-1.12c.67-.5,1.59-.48,2.23.04,2.24,1.83,4.81,3.83,6.34,4.95,4.09,3.01,7.32,5.39,7.32,11.71,0,.04-.04,3.39-.04,3.95,0,12.6-16.67,23.2-22.96,23.24h-.03.02Z"/>
  <path class="st0" d="M44.74,89.52h-1.89c-1.04,0-1.88-.85-1.88-1.88v-.4c0-9.29-14.77-17.33-17.48-17.47-3.3,0-17.45,8.06-17.45,17.47v.4c0,1.04-.85,1.88-1.88,1.88h-1.89c-1.04,0-1.88-.85-1.88-1.88v-.4c0-12.61,16.78-23.11,23.11-23.11,4.83,0,23.11,9.83,23.11,23.11v.4c0,1.04-.85,1.88-1.88,1.88h-.01Z"/>
  <circle class="st0" cx="26.67" cy="12.46" r="1.97"/>
  <circle class="st2" cx="23.57" cy="39.9" r="1.97"/>
  <circle class="st2" cx="23.57" cy="33.37" r="1.97"/>
  <circle class="st0" cx="23.57" cy="26.84" r="1.97"/>
  <circle class="st0" cx="33.86" cy="5.8" r="1.97"/>
  <line class="st1" x1="42.95" y1="83.54" x2="19.34" y2="83.54"/>
  <line class="st1" x1="39.24" y1="76.87" x2="26.53" y2="76.87"/>
  <circle class="st0" cx="19.54" cy="76.87" r="1.97"/>
  <circle class="st0" cx="12.35" cy="83.54" r="1.97"/>
</svg>