<svg width="1027" height="203" viewBox="0 0 1027 203" fill="none" xmlns="http://www.w3.org/2000/svg">
<path fill-rule="evenodd" clip-rule="evenodd" d="M107.88 80.7272L121.489 73.6691V45.5624L105.599 40.3157L92.3809 45.578V73.6847L107.88 80.7272Z" fill="#F0EFF0"/>
<path fill-rule="evenodd" clip-rule="evenodd" d="M99.225 134.522C101.527 135.986 104.2 136.76 106.928 136.755C110.781 136.746 114.473 135.215 117.199 132.493C119.925 129.772 121.462 126.083 121.474 122.233V73.6706C120.345 74.2403 119.098 74.5371 117.834 74.5371C116.569 74.5371 115.322 74.2403 114.193 73.6706C113.067 73.1013 111.823 72.8044 110.56 72.8044C109.299 72.8044 108.054 73.1013 106.928 73.6706C105.799 74.2403 104.552 74.5371 103.287 74.5371C102.023 74.5371 100.776 74.2403 99.6471 73.6706C98.5207 73.1013 97.2766 72.8044 96.0144 72.8044C94.7521 72.8044 93.5076 73.1013 92.3817 73.6706V104.635C91.71 122.655 90.4128 129.307 99.225 134.522Z" fill="#21AB9F"/>
<path fill-rule="evenodd" clip-rule="evenodd" d="M92.3832 45.5788H123.132C123.519 45.5744 123.888 45.4181 124.161 45.1434C124.433 44.8686 124.585 44.4974 124.585 44.1109V33.8831C124.585 33.498 124.432 33.1286 124.159 32.8563C123.887 32.5839 123.517 32.4309 123.132 32.4309H90.6957C90.309 32.4309 89.938 32.5834 89.6626 32.8553C89.3877 33.1272 89.2313 33.4965 89.2273 33.8831V44.1109C89.2273 44.5002 89.3821 44.8734 89.6574 45.1486C89.9328 45.4242 90.3062 45.5788 90.6957 45.5788H92.3832Z" fill="#CED2DB"/>
<path fill-rule="evenodd" clip-rule="evenodd" d="M59.4414 131.398C74.9406 128.509 85.0186 127.915 99.143 120.467C97.9422 114.799 95.6441 109.42 92.3776 104.634C88.9423 99.1647 83.7873 94.9907 77.7219 92.7663C76.2844 92.3135 75.0503 91.923 75.0503 90.9862V70.5619L61.6913 65.3152L47.6292 70.5619V90.9705C47.6292 91.9073 46.3952 92.3135 44.9577 92.7663C34.0205 96.2485 25.9896 108.694 23.5835 120.42L59.4414 131.398Z" fill="#F0EFF0"/>
<path fill-rule="evenodd" clip-rule="evenodd" d="M47.6314 70.5622H76.1144C76.504 70.5622 76.8774 70.4075 77.1532 70.1319C77.4285 69.8567 77.5833 69.4835 77.5833 69.0942V58.8664C77.5833 58.6744 77.5451 58.4844 77.4711 58.3072C77.3972 58.13 77.2886 57.9689 77.152 57.834C77.0153 57.699 76.8533 57.5925 76.6752 57.5202C76.4971 57.4483 76.3066 57.4121 76.1144 57.4141H46.5533C46.1678 57.4141 45.7983 57.5672 45.5258 57.8396C45.2533 58.112 45.1001 58.4812 45.1001 58.8664V69.0942C45.1001 69.4807 45.2529 69.8519 45.5246 70.1267C45.7967 70.4015 46.1665 70.5578 46.5533 70.5622H47.6314Z" fill="#CED2DB"/>
<path fill-rule="evenodd" clip-rule="evenodd" d="M64.2077 166.267C72.7256 165.563 80.7737 162.07 87.1041 156.331C93.434 150.591 97.6938 142.926 99.2221 134.522C99.637 132.208 99.846 129.861 99.8468 127.51C99.8311 125.133 99.5747 122.763 99.0814 120.437C96.3464 121.934 93.2781 122.718 90.1599 122.718C87.0417 122.718 83.9734 121.934 81.2384 120.437C78.0265 118.602 74.3914 117.637 70.692 117.637C66.9926 117.637 63.3571 118.602 60.1457 120.437C57.4424 121.945 54.3982 122.737 51.3021 122.737C48.2061 122.737 45.1619 121.945 42.4587 120.437C32.7716 115.284 25.2719 118.142 23.5845 120.437C23.0952 122.768 22.8439 125.144 22.8345 127.526C22.8206 137.278 26.4786 146.679 33.0816 153.859C39.6846 161.04 48.7491 165.475 58.4738 166.282L64.2077 166.267Z" fill="#6CB46C"/>
<path fill-rule="evenodd" clip-rule="evenodd" d="M68.3652 134.865C68.3467 135.799 68.608 136.717 69.1149 137.501C69.6222 138.285 70.3522 138.9 71.2116 139.267C72.0706 139.633 73.0201 139.735 73.9374 139.558C74.8551 139.382 75.6989 138.935 76.3606 138.276C77.0222 137.617 77.472 136.776 77.6517 135.859C77.8314 134.943 77.7329 133.994 77.3687 133.134C77.0049 132.274 76.3923 131.542 75.6093 131.032C74.8262 130.523 73.9089 130.259 72.9747 130.274C71.7547 130.274 70.5849 130.758 69.7211 131.618C68.8568 132.479 68.3696 133.646 68.3652 134.865Z" fill="#85C185"/>
<path fill-rule="evenodd" clip-rule="evenodd" d="M51.3524 145.545C52.4161 145.545 53.4556 145.229 54.34 144.639C55.2243 144.048 55.9129 143.208 56.3193 142.226C56.7257 141.243 56.8314 140.162 56.6228 139.12C56.4138 138.077 55.9004 137.12 55.1471 136.37C54.3942 135.619 53.4347 135.109 52.3912 134.903C51.3476 134.698 50.2663 134.806 49.2846 135.215C48.3026 135.624 47.4645 136.315 46.8756 137.201C46.2871 138.086 45.9743 139.126 45.9776 140.189C45.9816 141.611 46.5496 142.973 47.5573 143.977C48.5647 144.981 49.9294 145.545 51.3524 145.545Z" fill="#85C185"/>
<path fill-rule="evenodd" clip-rule="evenodd" d="M105.301 91.8145C106.197 91.8145 107.073 91.5489 107.818 91.0511C108.563 90.5534 109.144 89.8463 109.487 89.0188C109.83 88.1916 109.919 87.2809 109.745 86.4027C109.57 85.5241 109.138 84.7174 108.505 84.0838C107.871 83.4507 107.064 83.0192 106.185 82.8449C105.306 82.6701 104.395 82.7597 103.567 83.1024C102.739 83.4451 102.031 84.0256 101.533 84.7704C101.035 85.5148 100.77 86.3902 100.77 87.2861C100.77 88.4869 101.247 89.6386 102.097 90.4879C102.947 91.3372 104.099 91.8145 105.301 91.8145Z" fill="#3ABDAD"/>
<path fill-rule="evenodd" clip-rule="evenodd" d="M108.752 109.74C109.648 109.737 110.522 109.469 111.265 108.969C112.008 108.469 112.587 107.761 112.927 106.934C113.268 106.106 113.355 105.196 113.179 104.318C113.002 103.441 112.57 102.636 111.935 102.004C111.301 101.372 110.493 100.943 109.615 100.769C108.736 100.595 107.826 100.686 106.999 101.029C106.172 101.372 105.465 101.953 104.968 102.697C104.471 103.442 104.206 104.316 104.206 105.211C104.206 105.808 104.323 106.398 104.552 106.948C104.781 107.498 105.116 107.998 105.538 108.419C105.961 108.84 106.462 109.173 107.013 109.4C107.565 109.626 108.156 109.742 108.752 109.74Z" fill="#3ABDAD"/>
<path d="M36.1328 3.68367C37.0721 2.60192 38.2199 1.72037 39.5076 1.09159C40.7926 0.464404 42.1893 0.0981913 43.617 0.0141642C45.0352 -0.0592349 46.4537 0.153175 47.7883 0.638762C49.1337 1.13406 50.3662 1.89327 51.4134 2.87169L72.8188 22.7807C73.8877 23.76 74.7483 24.9442 75.3501 26.2628C76.5841 28.9396 76.7297 31.9909 75.7561 34.7729C75.2906 36.1421 74.5578 37.4052 73.5998 38.4893C72.6548 39.5715 71.5019 40.4529 70.2095 41.0812C68.932 41.7119 67.5388 42.0735 66.1158 42.143C64.6924 42.2177 63.2682 42.0056 61.9284 41.5187C60.587 41.0157 59.3557 40.2576 58.3037 39.2856L36.8983 19.3923C35.8623 18.4017 35.0291 17.219 34.4453 15.9101C33.2095 13.2337 33.0638 10.1819 34.0391 7.40003C34.486 6.03585 35.1975 4.77304 36.1328 3.68367Z" fill="#FBE5BD"/>
<path d="M62.3038 13.0209L51.3667 2.88685C50.3248 1.90834 49.0955 1.15072 47.7529 0.65962C46.4103 0.168524 44.9821 -0.0458805 43.5542 0.0293232C42.1262 0.109288 40.7285 0.473717 39.4432 1.10119C38.158 1.72867 37.0113 2.60653 36.0703 3.68321C34.1383 5.89237 33.14 8.76483 33.2857 11.6952C33.4314 14.6256 34.7099 17.385 36.8515 19.3918L47.7887 29.5259L62.3038 13.0209Z" fill="#F9CC7D"/>
<path fill-rule="evenodd" clip-rule="evenodd" d="M119.518 149.683L133.44 163.815C136.143 166.563 140.361 162.253 137.642 159.536C133.007 154.821 128.372 150.136 123.737 145.483C121.018 142.641 116.8 146.92 119.518 149.683Z" fill="#333F56"/>
<path fill-rule="evenodd" clip-rule="evenodd" d="M175.064 187.19L161.486 200.869L129.753 168.936L136.425 162.237L143.331 155.273L175.064 187.19Z" fill="#F5B33C"/>
<path opacity="0.5" fill-rule="evenodd" clip-rule="evenodd" d="M132.297 121.373C132.307 125.821 131.435 130.226 129.732 134.334C128.029 138.442 125.529 142.173 122.376 145.311C119.868 147.83 116.978 149.938 113.814 151.557C109.85 153.579 105.528 154.8 101.093 155.152C96.6571 155.504 92.1959 154.979 87.9635 153.607C83.731 152.236 79.8105 150.044 76.4258 147.158C73.0412 144.271 70.2587 140.747 68.2375 136.786C65.7903 132.029 64.5256 126.753 64.5502 121.405C64.5461 112.746 67.8625 104.415 73.8166 98.1249C79.7711 91.8349 87.9104 88.0642 96.5614 87.5881C105.212 87.112 113.717 89.9672 120.326 95.5658C126.935 101.165 131.147 109.081 132.094 117.689C132.231 118.912 132.299 120.142 132.297 121.373Z" fill="white"/>
<path d="M96.9163 84.9986C106.2 84.6032 115.298 87.7179 122.393 93.7308L122.729 94.0192C129.632 100.013 134.068 108.353 135.176 117.426L135.227 117.865L135.228 117.872L135.229 117.878C135.352 119.039 135.423 120.206 135.444 121.374L135.449 121.874V121.881C135.46 126.737 134.507 131.546 132.648 136.031C130.79 140.514 128.062 144.585 124.622 148.009L124.622 148.01C120.626 152.001 115.77 155.022 110.428 156.844L109.909 157.016C104.363 158.817 98.4699 159.281 92.7102 158.371C86.9505 157.461 81.4876 155.201 76.7679 151.778C72.0496 148.356 68.2079 143.867 65.5561 138.678V138.678C62.8902 133.484 61.5096 127.726 61.5295 121.887H61.5286C61.533 112.441 65.1585 103.356 71.658 96.4993V96.4988L71.9645 96.1798C78.4356 89.515 87.1857 85.5269 96.4744 85.0204L96.9163 84.9986ZM118.402 98.4405C112.492 93.4319 104.912 90.8369 97.1788 91.1663L96.8106 91.1844C89.0723 91.6064 81.7832 94.9286 76.3932 100.48L76.1381 100.746C70.8092 106.368 67.8008 113.787 67.7046 121.521L67.7018 121.89V121.9C67.6845 126.602 68.7612 131.241 70.8436 135.454L71.0486 135.86L71.0509 135.865L71.261 136.269C73.4606 140.422 76.5836 144.018 80.3924 146.781C84.3241 149.633 88.8753 151.515 93.6739 152.273C98.4724 153.032 103.383 152.645 108.003 151.145H108.003L108.435 151.001C112.886 149.483 116.931 146.966 120.26 143.642L120.264 143.638L120.531 143.369C123.269 140.576 125.447 137.282 126.946 133.667L127.088 133.316C128.54 129.687 129.283 125.813 129.276 121.902L129.271 121.48C129.254 120.499 129.194 119.518 129.091 118.541L129.049 118.175C128.125 110.619 124.431 103.673 118.681 98.6802L118.402 98.4405Z" fill="#4A5F82"/>
<path d="M16.8961 65.3005C24.3948 65.3005 30.4737 59.225 30.4737 51.731C30.4737 44.237 24.3948 38.1616 16.8961 38.1616C9.3975 38.1616 3.3186 44.237 3.3186 51.731C3.3186 59.225 9.3975 65.3005 16.8961 65.3005Z" fill="#F9CC7D"/>
<path fill-rule="evenodd" clip-rule="evenodd" d="M13.0374 64.7377C9.57524 63.7482 6.64828 61.4242 4.90045 58.2778C3.15263 55.1314 2.7271 51.4197 3.71747 47.9596C4.70785 44.4994 7.03301 41.5744 10.1814 39.8277C13.3298 38.0809 17.0437 37.6556 20.5058 38.6454" fill="#FBE5BD"/>
<path d="M223.928 98.8598C219.356 98.8598 215.266 98.0778 211.657 96.514C208.109 94.9501 205.282 92.6645 203.177 89.6571C201.131 86.6497 200.079 83.0107 200.019 78.7402H212.921C212.981 80.6048 213.462 82.289 214.364 83.7927C215.266 85.2964 216.499 86.4993 218.063 87.4015C219.687 88.2436 221.612 88.6647 223.837 88.6647C225.762 88.6647 227.416 88.3639 228.8 87.7624C230.243 87.1008 231.356 86.1986 232.138 85.0558C232.92 83.913 233.311 82.5596 233.311 80.9958C233.311 79.1913 232.86 77.6876 231.957 76.4847C231.115 75.2817 229.912 74.2592 228.349 73.4171C226.845 72.575 225.07 71.8232 223.025 71.1615C221.041 70.4398 218.935 69.6879 216.71 68.906C211.718 67.282 207.898 65.1167 205.252 62.41C202.665 59.7033 201.372 56.1245 201.372 51.6735C201.372 47.8842 202.274 44.6362 204.079 41.9295C205.943 39.2229 208.5 37.1478 211.748 35.7042C214.996 34.2607 218.695 33.5389 222.845 33.5389C227.115 33.5389 230.845 34.2907 234.033 35.7944C237.281 37.238 239.837 39.3432 241.701 42.11C243.626 44.8768 244.619 48.1248 244.679 51.854H231.687C231.627 50.4706 231.206 49.1774 230.424 47.9744C229.702 46.7113 228.679 45.7189 227.356 44.9971C226.033 44.2152 224.469 43.8242 222.665 43.8242C221.101 43.7641 219.657 44.0047 218.334 44.546C217.071 45.0873 216.048 45.8993 215.266 46.982C214.545 48.0045 214.184 49.2977 214.184 50.8615C214.184 52.3652 214.545 53.6284 215.266 54.6509C216.048 55.6734 217.101 56.5756 218.424 57.3575C219.747 58.0793 221.311 58.771 223.116 59.4327C224.92 60.0341 226.875 60.6657 228.98 61.3273C232.108 62.41 234.995 63.7032 237.641 65.2069C240.288 66.6504 242.393 68.5451 243.957 70.8909C245.521 73.2367 246.303 76.3343 246.303 80.1838C246.303 83.4919 245.431 86.5595 243.686 89.3864C241.942 92.2134 239.416 94.499 236.108 96.2433C232.86 97.9876 228.8 98.8598 223.928 98.8598ZM270.724 97.7771V44.4558H252.229V34.6215H301.219V44.4558H282.814V97.7771H270.724ZM336.879 98.8598C330.744 98.8598 325.33 97.4764 320.639 94.7095C315.947 91.9427 312.278 88.1233 309.632 83.2513C306.985 78.3192 305.662 72.6352 305.662 66.1993C305.662 59.7635 306.985 54.1095 309.632 49.2375C312.278 44.3054 315.947 40.4559 320.639 37.6891C325.33 34.9223 330.744 33.5389 336.879 33.5389C343.074 33.5389 348.517 34.9223 353.209 37.6891C357.901 40.4559 361.54 44.3054 364.126 49.2375C366.772 54.1095 368.096 59.7635 368.096 66.1993C368.096 72.6352 366.772 78.3192 364.126 83.2513C361.54 88.1233 357.901 91.9427 353.209 94.7095C348.517 97.4764 343.074 98.8598 336.879 98.8598ZM336.879 87.9429C340.728 87.9429 344.036 87.0707 346.803 85.3264C349.63 83.522 351.826 80.9958 353.389 77.7478C354.953 74.4998 355.735 70.6503 355.735 66.1993C355.735 61.6882 354.953 57.8387 353.389 54.6509C351.826 51.4029 349.63 48.9067 346.803 47.1624C344.036 45.4181 340.728 44.546 336.879 44.546C333.089 44.546 329.781 45.4181 326.954 47.1624C324.127 48.9067 321.932 51.4029 320.368 54.6509C318.804 57.8387 318.022 61.6882 318.022 66.1993C318.022 70.6503 318.804 74.4998 320.368 77.7478C321.932 80.9958 324.127 83.522 326.954 85.3264C329.781 87.0707 333.089 87.9429 336.879 87.9429ZM378.487 97.7771V34.6215H402.126C407.238 34.6215 411.479 35.4937 414.847 37.238C418.215 38.9823 420.711 41.3281 422.335 44.2753C423.959 47.2226 424.771 50.5909 424.771 54.3802C424.771 57.8688 423.99 61.0867 422.426 64.034C420.862 66.9812 418.396 69.3872 415.027 71.2518C411.659 73.0562 407.359 73.9584 402.126 73.9584H390.667V97.7771H378.487ZM390.667 64.1242H401.404C405.314 64.1242 408.11 63.2521 409.795 61.5078C411.539 59.7033 412.411 57.3275 412.411 54.3802C412.411 51.2525 411.539 48.8466 409.795 47.1624C408.11 45.4181 405.314 44.546 401.404 44.546H390.667V64.1242ZM434.629 76.3042V66.1091H472.703V76.3042H434.629ZM478.919 97.7771L502.016 34.6215H515.82L538.826 97.7771H525.925L508.873 48.5158L491.73 97.7771H478.919ZM489.114 83.4318L492.362 73.9584H524.481L527.639 83.4318H489.114ZM547.125 97.7771V34.6215H568.237C575.576 34.6215 581.62 35.9448 586.372 38.5913C591.184 41.1777 594.733 44.8467 597.018 49.5984C599.364 54.29 600.537 59.8236 600.537 66.1993C600.537 72.575 599.364 78.1387 597.018 82.8904C594.733 87.582 591.214 91.251 586.462 93.8975C581.711 96.4839 575.636 97.7771 568.237 97.7771H547.125ZM559.305 87.3113H567.606C572.779 87.3113 576.839 86.4692 579.786 84.7851C582.793 83.101 584.929 80.695 586.192 77.5673C587.455 74.3795 588.086 70.5901 588.086 66.1993C588.086 61.7484 587.455 57.959 586.192 54.8313C584.929 51.6435 582.793 49.2075 579.786 47.5233C576.839 45.8392 572.779 44.9971 567.606 44.9971H559.305V87.3113Z" fill="#3E4B63"/>
<path d="M218.755 166.814C214.665 166.814 211.116 165.911 208.109 164.107C205.141 162.262 202.856 159.716 201.252 156.468C199.648 153.18 198.846 149.371 198.846 145.04C198.846 140.709 199.648 136.92 201.252 133.672C202.856 130.384 205.141 127.838 208.109 126.033C211.116 124.189 214.665 123.266 218.755 123.266C223.567 123.266 227.476 124.409 230.484 126.695C233.491 128.98 235.416 132.208 236.258 136.379H230.664C230.023 133.772 228.719 131.687 226.755 130.123C224.79 128.519 222.123 127.717 218.755 127.717C215.747 127.717 213.141 128.419 210.936 129.822C208.73 131.186 207.026 133.171 205.823 135.777C204.62 138.343 204.019 141.431 204.019 145.04C204.019 148.649 204.62 151.756 205.823 154.363C207.026 156.929 208.73 158.914 210.936 160.318C213.141 161.681 215.747 162.363 218.755 162.363C222.123 162.363 224.79 161.601 226.755 160.077C228.719 158.513 230.023 156.448 230.664 153.882H236.258C235.416 157.932 233.491 161.1 230.484 163.385C227.476 165.671 223.567 166.814 218.755 166.814ZM256.816 166.814C254.01 166.814 251.483 166.172 249.238 164.889C246.992 163.566 245.228 161.721 243.945 159.355C242.662 156.949 242.02 154.162 242.02 150.995C242.02 147.747 242.662 144.94 243.945 142.574C245.268 140.168 247.052 138.323 249.298 137.04C251.584 135.717 254.13 135.055 256.937 135.055C259.824 135.055 262.37 135.717 264.576 137.04C266.821 138.323 268.585 140.168 269.869 142.574C271.192 144.94 271.853 147.727 271.853 150.934C271.853 154.142 271.192 156.949 269.869 159.355C268.545 161.721 266.761 163.566 264.515 164.889C262.27 166.172 259.704 166.814 256.816 166.814ZM256.877 162.483C258.601 162.483 260.205 162.062 261.688 161.22C263.172 160.338 264.375 159.034 265.297 157.31C266.22 155.586 266.681 153.461 266.681 150.934C266.681 148.368 266.22 146.243 265.297 144.559C264.415 142.835 263.232 141.551 261.749 140.709C260.305 139.827 258.701 139.386 256.937 139.386C255.253 139.386 253.649 139.827 252.125 140.709C250.641 141.551 249.438 142.835 248.516 144.559C247.634 146.243 247.193 148.368 247.193 150.934C247.193 153.461 247.634 155.586 248.516 157.31C249.438 159.034 250.621 160.338 252.065 161.22C253.548 162.062 255.152 162.483 256.877 162.483ZM278.937 166.092V135.777H283.509L283.809 140.108C284.772 138.544 286.055 137.321 287.659 136.439C289.303 135.516 291.087 135.055 293.012 135.055C294.576 135.055 295.979 135.276 297.222 135.717C298.506 136.118 299.628 136.76 300.591 137.642C301.553 138.484 302.335 139.566 302.936 140.89C303.979 139.045 305.403 137.622 307.207 136.619C309.052 135.577 311.016 135.055 313.101 135.055C315.427 135.055 317.452 135.537 319.176 136.499C320.941 137.421 322.284 138.845 323.206 140.769C324.169 142.654 324.65 145.06 324.65 147.987V166.092H319.658V148.529C319.658 145.481 319.036 143.195 317.793 141.672C316.55 140.148 314.806 139.386 312.56 139.386C310.996 139.386 309.593 139.807 308.35 140.649C307.107 141.451 306.124 142.634 305.403 144.198C304.681 145.762 304.32 147.686 304.32 149.972V166.092H299.267V148.529C299.267 145.481 298.646 143.195 297.403 141.672C296.16 140.148 294.395 139.386 292.11 139.386C290.586 139.386 289.203 139.807 287.96 140.649C286.757 141.451 285.794 142.634 285.072 144.198C284.351 145.762 283.99 147.686 283.99 149.972V166.092H278.937ZM332.507 179.324V135.777H337.078L337.499 140.709C338.141 139.747 338.963 138.845 339.965 138.003C340.968 137.12 342.171 136.419 343.574 135.897C344.978 135.336 346.581 135.055 348.386 135.055C351.353 135.055 353.92 135.757 356.085 137.161C358.29 138.564 359.994 140.469 361.197 142.875C362.441 145.24 363.062 147.947 363.062 150.995C363.062 154.042 362.441 156.769 361.197 159.175C359.994 161.541 358.29 163.405 356.085 164.769C353.879 166.132 351.293 166.814 348.326 166.814C345.88 166.814 343.714 166.312 341.83 165.31C339.985 164.307 338.562 162.904 337.559 161.1V179.324H332.507ZM347.784 162.423C349.749 162.423 351.494 161.942 353.017 160.979C354.541 160.017 355.724 158.694 356.566 157.009C357.448 155.285 357.889 153.26 357.889 150.934C357.889 148.649 357.448 146.644 356.566 144.92C355.724 143.195 354.541 141.852 353.017 140.89C351.494 139.927 349.749 139.446 347.784 139.446C345.779 139.446 344.015 139.927 342.491 140.89C340.968 141.852 339.785 143.195 338.943 144.92C338.101 146.644 337.68 148.649 337.68 150.934C337.68 153.26 338.101 155.285 338.943 157.009C339.785 158.694 340.968 160.017 342.491 160.979C344.015 161.942 345.779 162.423 347.784 162.423ZM383.691 166.814C380.885 166.814 378.358 166.172 376.113 164.889C373.867 163.566 372.103 161.721 370.82 159.355C369.537 156.949 368.895 154.162 368.895 150.995C368.895 147.747 369.537 144.94 370.82 142.574C372.143 140.168 373.927 138.323 376.173 137.04C378.459 135.717 381.005 135.055 383.812 135.055C386.699 135.055 389.245 135.717 391.451 137.04C393.696 138.323 395.46 140.168 396.744 142.574C398.067 144.94 398.728 147.727 398.728 150.934C398.728 154.142 398.067 156.949 396.744 159.355C395.42 161.721 393.636 163.566 391.39 164.889C389.145 166.172 386.579 166.814 383.691 166.814ZM383.752 162.483C385.476 162.483 387.08 162.062 388.563 161.22C390.047 160.338 391.25 159.034 392.172 157.31C393.095 155.586 393.556 153.461 393.556 150.934C393.556 148.368 393.095 146.243 392.172 144.559C391.29 142.835 390.107 141.551 388.624 140.709C387.18 139.827 385.576 139.386 383.812 139.386C382.128 139.386 380.524 139.827 379 140.709C377.516 141.551 376.313 142.835 375.391 144.559C374.509 146.243 374.068 148.368 374.068 150.934C374.068 153.461 374.509 155.586 375.391 157.31C376.313 159.034 377.496 160.338 378.94 161.22C380.423 162.062 382.027 162.483 383.752 162.483ZM416.819 166.814C414.494 166.814 412.449 166.352 410.684 165.43C408.96 164.508 407.617 163.084 406.654 161.16C405.732 159.235 405.271 156.829 405.271 153.942V135.777H410.323V153.401C410.323 156.408 410.985 158.674 412.308 160.197C413.632 161.721 415.496 162.483 417.902 162.483C419.586 162.483 421.11 162.082 422.473 161.28C423.837 160.438 424.899 159.255 425.661 157.731C426.463 156.167 426.864 154.263 426.864 152.017V135.777H431.917V166.092H427.345L427.045 160.799C426.122 162.683 424.759 164.167 422.955 165.25C421.15 166.292 419.105 166.814 416.819 166.814ZM440.292 166.092V135.777H444.863L445.104 141.07C446.066 139.186 447.429 137.722 449.194 136.679C450.998 135.597 453.043 135.055 455.329 135.055C457.695 135.055 459.74 135.537 461.464 136.499C463.188 137.421 464.531 138.845 465.494 140.769C466.456 142.654 466.937 145.06 466.937 147.987V166.092H461.885V148.529C461.885 145.481 461.203 143.195 459.84 141.672C458.517 140.148 456.632 139.386 454.186 139.386C452.502 139.386 450.998 139.807 449.675 140.649C448.352 141.451 447.289 142.634 446.487 144.198C445.725 145.722 445.344 147.626 445.344 149.912V166.092H440.292ZM488.183 166.814C485.256 166.814 482.689 166.132 480.484 164.769C478.278 163.365 476.574 161.46 475.371 159.054C474.168 156.649 473.567 153.922 473.567 150.874C473.567 147.827 474.168 145.12 475.371 142.754C476.574 140.348 478.278 138.464 480.484 137.1C482.729 135.737 485.316 135.055 488.243 135.055C490.729 135.055 492.894 135.557 494.739 136.559C496.624 137.562 498.067 138.965 499.07 140.769V122.785H504.122V166.092H499.551L499.13 161.1C498.488 162.102 497.666 163.044 496.664 163.926C495.661 164.769 494.458 165.47 493.055 166.032C491.651 166.553 490.027 166.814 488.183 166.814ZM488.784 162.423C490.789 162.423 492.554 161.942 494.077 160.979C495.601 160.017 496.784 158.694 497.626 157.009C498.468 155.285 498.889 153.26 498.889 150.934C498.889 148.649 498.468 146.644 497.626 144.92C496.784 143.195 495.601 141.852 494.077 140.89C492.554 139.927 490.789 139.446 488.784 139.446C486.82 139.446 485.075 139.927 483.551 140.89C482.028 141.852 480.845 143.195 480.003 144.92C479.161 146.644 478.74 148.649 478.74 150.934C478.74 153.26 479.161 155.285 480.003 157.009C480.845 158.694 482.028 160.017 483.551 160.979C485.075 161.942 486.82 162.423 488.784 162.423ZM542.231 166.814C539.143 166.814 536.456 166.252 534.171 165.129C531.885 164.007 530.121 162.443 528.878 160.438C527.635 158.433 527.013 156.107 527.013 153.461H532.306C532.306 155.105 532.687 156.628 533.449 158.032C534.211 159.395 535.314 160.498 536.757 161.34C538.241 162.142 540.065 162.543 542.231 162.543C544.115 162.543 545.719 162.242 547.043 161.641C548.406 160.999 549.428 160.137 550.11 159.054C550.832 157.972 551.193 156.749 551.193 155.385C551.193 153.741 550.832 152.418 550.11 151.416C549.428 150.373 548.486 149.531 547.283 148.889C546.08 148.248 544.677 147.686 543.073 147.205C541.509 146.684 539.865 146.143 538.141 145.581C534.812 144.459 532.366 143.055 530.803 141.371C529.239 139.687 528.457 137.501 528.457 134.815C528.457 132.529 528.978 130.524 530.021 128.8C531.103 127.076 532.627 125.732 534.592 124.77C536.597 123.768 538.963 123.266 541.689 123.266C544.376 123.266 546.702 123.768 548.667 124.77C550.671 125.772 552.235 127.156 553.358 128.92C554.481 130.644 555.042 132.649 555.042 134.935H549.749C549.749 133.772 549.448 132.629 548.847 131.507C548.245 130.384 547.323 129.462 546.08 128.74C544.877 127.978 543.353 127.597 541.509 127.597C539.985 127.557 538.622 127.818 537.419 128.379C536.256 128.9 535.334 129.662 534.652 130.665C534.01 131.667 533.69 132.89 533.69 134.334C533.69 135.697 533.97 136.8 534.532 137.642C535.133 138.484 535.975 139.206 537.058 139.807C538.181 140.368 539.484 140.89 540.968 141.371C542.451 141.852 544.095 142.393 545.9 142.995C547.945 143.677 549.749 144.519 551.313 145.521C552.917 146.483 554.16 147.727 555.042 149.25C555.964 150.774 556.426 152.719 556.426 155.085C556.426 157.09 555.884 158.994 554.802 160.799C553.759 162.563 552.195 164.007 550.11 165.129C548.025 166.252 545.398 166.814 542.231 166.814ZM574.415 166.814C572.089 166.814 570.044 166.352 568.28 165.43C566.555 164.508 565.212 163.084 564.25 161.16C563.327 159.235 562.866 156.829 562.866 153.942V135.777H567.919V153.401C567.919 156.408 568.58 158.674 569.904 160.197C571.227 161.721 573.091 162.483 575.497 162.483C577.181 162.483 578.705 162.082 580.069 161.28C581.432 160.438 582.495 159.255 583.256 157.731C584.058 156.167 584.459 154.263 584.459 152.017V135.777H589.512V166.092H584.941L584.64 160.799C583.718 162.683 582.354 164.167 580.55 165.25C578.745 166.292 576.7 166.814 574.415 166.814ZM613.766 166.814C612.042 166.814 610.478 166.573 609.075 166.092C607.711 165.571 606.508 164.889 605.466 164.047C604.423 163.205 603.561 162.222 602.879 161.1L602.458 166.092H597.887V122.785H602.939V140.769C603.902 139.206 605.285 137.862 607.09 136.739C608.894 135.617 611.12 135.055 613.766 135.055C616.693 135.055 619.26 135.757 621.465 137.161C623.67 138.524 625.375 140.409 626.578 142.814C627.821 145.18 628.442 147.887 628.442 150.934C628.442 153.982 627.821 156.709 626.578 159.115C625.375 161.521 623.67 163.405 621.465 164.769C619.26 166.132 616.693 166.814 613.766 166.814ZM613.165 162.423C615.129 162.423 616.874 161.942 618.397 160.979C619.921 160.017 621.104 158.694 621.946 157.009C622.828 155.285 623.269 153.26 623.269 150.934C623.269 148.649 622.828 146.644 621.946 144.92C621.104 143.195 619.921 141.852 618.397 140.89C616.874 139.927 615.129 139.446 613.165 139.446C611.16 139.446 609.395 139.927 607.872 140.89C606.348 141.852 605.165 143.195 604.323 144.92C603.481 146.644 603.06 148.649 603.06 150.934C603.06 153.26 603.481 155.285 604.323 157.009C605.165 158.694 606.348 160.017 607.872 160.979C609.395 161.942 611.16 162.423 613.165 162.423ZM635.538 166.092V135.777H640.11L640.41 140.108C641.373 138.544 642.656 137.321 644.26 136.439C645.904 135.516 647.688 135.055 649.613 135.055C651.177 135.055 652.58 135.276 653.823 135.717C655.107 136.118 656.229 136.76 657.192 137.642C658.154 138.484 658.936 139.566 659.537 140.89C660.58 139.045 662.003 137.622 663.808 136.619C665.652 135.577 667.617 135.055 669.702 135.055C672.028 135.055 674.053 135.537 675.777 136.499C677.542 137.421 678.885 138.845 679.807 140.769C680.77 142.654 681.251 145.06 681.251 147.987V166.092H676.259V148.529C676.259 145.481 675.637 143.195 674.394 141.672C673.151 140.148 671.407 139.386 669.161 139.386C667.597 139.386 666.194 139.807 664.951 140.649C663.708 141.451 662.725 142.634 662.004 144.198C661.282 145.762 660.921 147.686 660.921 149.972V166.092H655.868V148.529C655.868 145.481 655.247 143.195 654.004 141.672C652.761 140.148 650.996 139.386 648.711 139.386C647.187 139.386 645.804 139.807 644.561 140.649C643.358 141.451 642.395 142.634 641.673 144.198C640.952 145.762 640.591 147.686 640.591 149.972V166.092H635.538ZM689.589 166.092V135.777H694.641V166.092H689.589ZM692.115 129.341C691.113 129.341 690.271 129.02 689.589 128.379C688.947 127.697 688.627 126.855 688.627 125.853C688.627 124.85 688.947 124.048 689.589 123.447C690.271 122.805 691.113 122.484 692.115 122.484C693.078 122.484 693.9 122.805 694.581 123.447C695.263 124.048 695.604 124.85 695.604 125.853C695.604 126.855 695.263 127.697 694.581 128.379C693.9 129.02 693.078 129.341 692.115 129.341ZM714.986 166.814C712.459 166.814 710.254 166.393 708.369 165.55C706.525 164.708 705.041 163.546 703.918 162.062C702.836 160.538 702.174 158.754 701.933 156.709H707.106C707.307 157.751 707.728 158.714 708.369 159.596C709.011 160.478 709.873 161.2 710.956 161.761C712.078 162.282 713.442 162.543 715.046 162.543C716.449 162.543 717.612 162.343 718.534 161.942C719.457 161.5 720.138 160.919 720.579 160.197C721.061 159.476 721.301 158.694 721.301 157.852C721.301 156.608 721 155.666 720.399 155.025C719.838 154.383 718.995 153.882 717.873 153.521C716.75 153.12 715.387 152.779 713.783 152.498C712.459 152.258 711.156 151.937 709.873 151.536C708.59 151.135 707.447 150.614 706.445 149.972C705.442 149.29 704.64 148.468 704.039 147.506C703.477 146.544 703.197 145.361 703.197 143.957C703.197 142.233 703.638 140.709 704.52 139.386C705.402 138.023 706.665 136.96 708.309 136.198C709.993 135.436 711.938 135.055 714.143 135.055C717.391 135.055 720.018 135.837 722.023 137.401C724.028 138.965 725.211 141.231 725.572 144.198H720.579C720.379 142.674 719.717 141.491 718.594 140.649C717.512 139.767 716.008 139.326 714.083 139.326C712.199 139.326 710.755 139.707 709.753 140.469C708.79 141.231 708.309 142.233 708.309 143.476C708.309 144.278 708.57 145 709.091 145.641C709.652 146.243 710.454 146.764 711.497 147.205C712.58 147.646 713.903 148.007 715.467 148.288C717.472 148.649 719.296 149.13 720.94 149.731C722.584 150.333 723.908 151.235 724.91 152.438C725.953 153.601 726.474 155.265 726.474 157.43C726.474 159.315 725.993 160.959 725.03 162.363C724.108 163.766 722.785 164.869 721.061 165.671C719.336 166.433 717.311 166.814 714.986 166.814ZM745.177 166.814C742.651 166.814 740.445 166.393 738.561 165.55C736.716 164.708 735.233 163.546 734.11 162.062C733.027 160.538 732.366 158.754 732.125 156.709H737.298C737.498 157.751 737.919 158.714 738.561 159.596C739.202 160.478 740.065 161.2 741.147 161.761C742.27 162.282 743.633 162.543 745.237 162.543C746.641 162.543 747.804 162.343 748.726 161.942C749.648 161.5 750.33 160.919 750.771 160.197C751.252 159.476 751.493 158.694 751.493 157.852C751.493 156.608 751.192 155.666 750.59 155.025C750.029 154.383 749.187 153.882 748.064 153.521C746.941 153.12 745.578 152.779 743.974 152.498C742.651 152.258 741.348 151.937 740.065 151.536C738.781 151.135 737.639 150.614 736.636 149.972C735.634 149.29 734.832 148.468 734.23 147.506C733.669 146.544 733.388 145.361 733.388 143.957C733.388 142.233 733.829 140.709 734.711 139.386C735.593 138.023 736.857 136.96 738.501 136.198C740.185 135.436 742.13 135.055 744.335 135.055C747.583 135.055 750.209 135.837 752.214 137.401C754.219 138.965 755.402 141.231 755.763 144.198H750.771C750.57 142.674 749.909 141.491 748.786 140.649C747.703 139.767 746.2 139.326 744.275 139.326C742.39 139.326 740.947 139.707 739.944 140.469C738.982 141.231 738.501 142.233 738.501 143.476C738.501 144.278 738.761 145 739.283 145.641C739.844 146.243 740.646 146.764 741.689 147.205C742.771 147.646 744.094 148.007 745.658 148.288C747.663 148.649 749.488 149.13 751.132 149.731C752.776 150.333 754.099 151.235 755.102 152.438C756.144 153.601 756.665 155.265 756.665 157.43C756.665 159.315 756.184 160.959 755.222 162.363C754.3 163.766 752.976 164.869 751.252 165.671C749.528 166.433 747.503 166.814 745.177 166.814ZM764.422 166.092V135.777H769.474V166.092H764.422ZM766.948 129.341C765.945 129.341 765.103 129.02 764.422 128.379C763.78 127.697 763.459 126.855 763.459 125.853C763.459 124.85 763.78 124.048 764.422 123.447C765.103 122.805 765.945 122.484 766.948 122.484C767.91 122.484 768.732 122.805 769.414 123.447C770.096 124.048 770.437 124.85 770.437 125.853C770.437 126.855 770.096 127.697 769.414 128.379C768.732 129.02 767.91 129.341 766.948 129.341ZM791.924 166.814C789.117 166.814 786.59 166.172 784.345 164.889C782.099 163.566 780.335 161.721 779.052 159.355C777.769 156.949 777.127 154.162 777.127 150.995C777.127 147.747 777.769 144.94 779.052 142.574C780.375 140.168 782.159 138.323 784.405 137.04C786.691 135.717 789.237 135.055 792.044 135.055C794.931 135.055 797.477 135.717 799.683 137.04C801.928 138.323 803.693 140.168 804.976 142.574C806.299 144.94 806.961 147.727 806.961 150.934C806.961 154.142 806.299 156.949 804.976 159.355C803.652 161.721 801.868 163.566 799.622 164.889C797.377 166.172 794.811 166.814 791.924 166.814ZM791.984 162.483C793.708 162.483 795.312 162.062 796.796 161.22C798.279 160.338 799.482 159.034 800.404 157.31C801.327 155.586 801.788 153.461 801.788 150.934C801.788 148.368 801.327 146.243 800.404 144.559C799.522 142.835 798.339 141.551 796.856 140.709C795.412 139.827 793.808 139.386 792.044 139.386C790.36 139.386 788.756 139.827 787.232 140.709C785.748 141.551 784.545 142.835 783.623 144.559C782.741 146.243 782.3 148.368 782.3 150.934C782.3 153.461 782.741 155.586 783.623 157.31C784.545 159.034 785.728 160.338 787.172 161.22C788.655 162.062 790.259 162.483 791.984 162.483ZM814.044 166.092V135.777H818.616L818.856 141.07C819.819 139.186 821.182 137.722 822.946 136.679C824.751 135.597 826.796 135.055 829.081 135.055C831.447 135.055 833.492 135.537 835.217 136.499C836.941 137.421 838.284 138.845 839.246 140.769C840.209 142.654 840.69 145.06 840.69 147.987V166.092H835.638V148.529C835.638 145.481 834.956 143.195 833.593 141.672C832.269 140.148 830.385 139.386 827.939 139.386C826.254 139.386 824.751 139.807 823.428 140.649C822.104 141.451 821.042 142.634 820.24 144.198C819.478 145.722 819.097 147.626 819.097 149.912V166.092H814.044ZM864.86 166.092V123.988H878.574C881.902 123.988 884.629 124.549 886.754 125.672C888.919 126.755 890.503 128.219 891.506 130.063C892.548 131.908 893.07 134.013 893.07 136.379C893.07 138.664 892.548 140.749 891.506 142.634C890.503 144.479 888.939 145.962 886.814 147.085C884.689 148.208 881.942 148.769 878.574 148.769H869.913V166.092H864.86ZM869.913 144.499H878.514C881.882 144.499 884.288 143.757 885.732 142.273C887.175 140.789 887.897 138.825 887.897 136.379C887.897 133.772 887.175 131.767 885.732 130.364C884.288 128.92 881.882 128.198 878.514 128.198H869.913V144.499ZM911.221 166.814C908.414 166.814 905.888 166.172 903.643 164.889C901.397 163.566 899.633 161.721 898.35 159.355C897.066 156.949 896.425 154.162 896.425 150.995C896.425 147.747 897.066 144.94 898.35 142.574C899.673 140.168 901.457 138.323 903.703 137.04C905.988 135.717 908.535 135.055 911.342 135.055C914.229 135.055 916.775 135.717 918.98 137.04C921.226 138.323 922.99 140.168 924.273 142.574C925.597 144.94 926.258 147.727 926.258 150.934C926.258 154.142 925.597 156.949 924.273 159.355C922.95 161.721 921.166 163.566 918.92 164.889C916.675 166.172 914.108 166.814 911.221 166.814ZM911.281 162.483C913.006 162.483 914.61 162.062 916.093 161.22C917.577 160.338 918.78 159.034 919.702 157.31C920.624 155.586 921.086 153.461 921.086 150.934C921.086 148.368 920.624 146.243 919.702 144.559C918.82 142.835 917.637 141.551 916.153 140.709C914.71 139.827 913.106 139.386 911.342 139.386C909.657 139.386 908.053 139.827 906.53 140.709C905.046 141.551 903.843 142.835 902.921 144.559C902.039 146.243 901.598 148.368 901.598 150.934C901.598 153.461 902.039 155.586 902.921 157.31C903.843 159.034 905.026 160.338 906.47 161.22C907.953 162.062 909.557 162.483 911.281 162.483ZM933.342 166.092V135.777H937.913L938.274 141.551C938.956 140.188 939.818 139.025 940.861 138.063C941.943 137.1 943.226 136.359 944.71 135.837C946.234 135.316 947.958 135.055 949.883 135.055V140.348H948.018C946.735 140.348 945.512 140.529 944.349 140.89C943.186 141.211 942.144 141.752 941.222 142.514C940.339 143.276 939.638 144.318 939.116 145.641C938.635 146.925 938.395 148.529 938.395 150.453V166.092H933.342ZM967.513 166.092C965.709 166.092 964.145 165.811 962.822 165.25C961.499 164.688 960.476 163.746 959.754 162.423C959.073 161.059 958.732 159.235 958.732 156.949V140.048H953.439V135.777H958.732L959.393 128.439H963.784V135.777H972.566V140.048H963.784V156.949C963.784 158.834 964.165 160.117 964.927 160.799C965.689 161.44 967.032 161.761 968.957 161.761H972.205V166.092H967.513ZM989.022 166.814C986.576 166.814 984.531 166.393 982.887 165.55C981.243 164.668 980.02 163.525 979.218 162.122C978.416 160.678 978.015 159.115 978.015 157.43C978.015 155.385 978.537 153.661 979.579 152.258C980.662 150.814 982.166 149.732 984.09 149.01C986.055 148.248 988.361 147.867 991.007 147.867H999.007C999.007 145.982 998.706 144.418 998.105 143.175C997.543 141.892 996.701 140.93 995.579 140.288C994.496 139.647 993.133 139.326 991.488 139.326C989.564 139.326 987.9 139.807 986.496 140.769C985.093 141.732 984.231 143.155 983.91 145.04H978.737C978.978 142.875 979.699 141.07 980.902 139.627C982.145 138.143 983.709 137.02 985.594 136.258C987.479 135.456 989.443 135.055 991.488 135.055C994.295 135.055 996.621 135.577 998.466 136.619C1000.35 137.622 1001.75 139.045 1002.68 140.89C1003.6 142.694 1004.06 144.839 1004.06 147.326V166.092H999.548L999.248 160.739C998.847 161.581 998.325 162.383 997.684 163.145C997.082 163.866 996.36 164.508 995.518 165.069C994.676 165.591 993.714 166.012 992.631 166.332C991.589 166.653 990.386 166.814 989.022 166.814ZM989.804 162.543C991.208 162.543 992.471 162.262 993.594 161.701C994.757 161.1 995.739 160.298 996.541 159.295C997.343 158.252 997.944 157.11 998.345 155.867C998.786 154.624 999.007 153.32 999.007 151.957V151.777H991.428C989.464 151.777 987.88 152.017 986.677 152.498C985.474 152.939 984.612 153.581 984.09 154.423C983.569 155.225 983.308 156.147 983.308 157.19C983.308 158.273 983.549 159.215 984.03 160.017C984.551 160.819 985.293 161.44 986.256 161.881C987.258 162.323 988.441 162.543 989.804 162.543ZM1011.88 166.092V122.785H1016.93V166.092H1011.88Z" fill="#3E4B63"/>
</svg>
