<svg width="267" height="54" viewBox="0 0 267 54" fill="none" xmlns="http://www.w3.org/2000/svg">
<g clip-path="url(#clip0_682_91205)">
<path fill-rule="evenodd" clip-rule="evenodd" d="M5.86035 15.3299L25.0716 15.3296L25.0716 16.6242L5.86037 16.6245L5.86035 15.3299Z" fill="#4AB77F"/>
<path d="M3.65998 19.6392C5.68134 19.6392 7.31997 17.9999 7.31997 15.9776C7.31997 13.9553 5.68134 12.3159 3.65998 12.3159C1.63863 12.3159 0 13.9553 0 15.9776C0 17.9999 1.63863 19.6392 3.65998 19.6392Z" fill="#4AB77F"/>
<path fill-rule="evenodd" clip-rule="evenodd" d="M17.6365 22.7222H25.0716V23.5705H17.6365V22.7222Z" fill="#E566A1"/>
<path d="M15.4361 26.8077C17.4575 26.8077 19.0961 25.1683 19.0961 23.146C19.0961 21.1238 17.4575 19.4844 15.4361 19.4844C13.4148 19.4844 11.7761 21.1238 11.7761 23.146C11.7761 25.1683 13.4148 26.8077 15.4361 26.8077Z" fill="#E566A1"/>
<path fill-rule="evenodd" clip-rule="evenodd" d="M8.19604 29.668H25.0718V30.9626H8.19604V29.668Z" fill="#ACBCE0"/>
<path d="M5.99568 33.9766C8.01703 33.9766 9.65566 32.3373 9.65566 30.315C9.65566 28.2927 8.01703 26.6533 5.99568 26.6533C3.97432 26.6533 2.33569 28.2927 2.33569 30.315C2.33569 32.3373 3.97432 33.9766 5.99568 33.9766Z" fill="#ACBCE0"/>
<path fill-rule="evenodd" clip-rule="evenodd" d="M15.6377 36.8364H25.0716V38.131H15.6377V36.8364Z" fill="#17BBB7"/>
<path d="M13.4373 41.1456C15.4587 41.1456 17.0973 39.5062 17.0973 37.4839C17.0973 35.4616 15.4587 33.8223 13.4373 33.8223C11.416 33.8223 9.77734 35.4616 9.77734 37.4839C9.77734 39.5062 11.416 41.1456 13.4373 41.1456Z" fill="#17BBB7"/>
<mask id="mask0_682_91205" style="mask-type:luminance" maskUnits="userSpaceOnUse" x="25" y="0" width="59" height="54">
<path d="M83.8635 26.9419L54.6875 0V13.4692H25.0718V40.2402L54.6875 40.258V54L83.8635 26.9419Z" fill="white"/>
</mask>
<g mask="url(#mask0_682_91205)">
<path d="M83.8635 26.9419L54.6875 0V13.4692H25.0718V40.2402L54.6875 40.258V54L83.8635 26.9419Z" fill="url(#paint0_linear_682_91205)"/>
<path fill-rule="evenodd" clip-rule="evenodd" d="M25.0715 15.3296L71.2875 15.3299L72.6927 16.6245L25.0715 16.6242L25.0715 15.3296Z" fill="white"/>
<path fill-rule="evenodd" clip-rule="evenodd" d="M25.0715 22.4985L79.0617 22.4988L80.467 23.7934L25.0715 23.7931L25.0715 22.4985Z" fill="white"/>
<path fill-rule="evenodd" clip-rule="evenodd" d="M23.863 29.6675L80.9875 29.6678L79.6227 30.9624L23.863 30.9621L23.863 29.6675Z" fill="white"/>
<path fill-rule="evenodd" clip-rule="evenodd" d="M25.0715 36.8364L73.274 36.8367L71.8688 38.1313L25.0715 38.131L25.0715 36.8364Z" fill="white"/>
</g>
<path d="M101.736 4.008H112.992V6.648H104.76V10.968H112.56V13.512H104.76V18.312H113.424V21H101.736V4.008ZM116.384 4.008H119.408V18.312H126.632V21H116.384V4.008ZM128.642 4.008H131.666V21H128.642V4.008ZM138.847 6.648H133.639V4.008H147.079V6.648H141.871V21H138.847V6.648ZM149.056 4.008H160.312V6.648H152.08V10.968H159.88V13.512H152.08V18.312H160.744V21H149.056V4.008ZM169.704 4.008H175.248C176.224 4.008 177.104 4.096 177.888 4.272C178.672 4.448 179.344 4.736 179.904 5.136C180.464 5.536 180.896 6.048 181.2 6.672C181.504 7.296 181.656 8.048 181.656 8.928C181.656 9.872 181.48 10.664 181.128 11.304C180.776 11.944 180.296 12.464 179.688 12.864C179.096 13.248 178.4 13.528 177.6 13.704C176.8 13.88 175.952 13.968 175.056 13.968H172.728V21H169.704V4.008ZM174.84 11.424C175.336 11.424 175.808 11.392 176.256 11.328C176.704 11.248 177.104 11.12 177.456 10.944C177.808 10.752 178.088 10.496 178.296 10.176C178.504 9.856 178.608 9.44 178.608 8.928C178.608 8.432 178.504 8.032 178.296 7.728C178.088 7.408 177.808 7.16 177.456 6.984C177.12 6.808 176.728 6.696 176.28 6.648C175.848 6.584 175.4 6.552 174.936 6.552H172.728V11.424H174.84ZM181.966 15.192C181.966 14.28 182.126 13.456 182.446 12.72C182.782 11.968 183.23 11.328 183.79 10.8C184.35 10.272 185.014 9.864 185.782 9.576C186.55 9.288 187.366 9.144 188.23 9.144C189.094 9.144 189.91 9.288 190.678 9.576C191.446 9.864 192.11 10.272 192.67 10.8C193.23 11.328 193.67 11.968 193.99 12.72C194.326 13.456 194.494 14.28 194.494 15.192C194.494 16.104 194.326 16.936 193.99 17.688C193.67 18.44 193.23 19.088 192.67 19.632C192.11 20.16 191.446 20.576 190.678 20.88C189.91 21.184 189.094 21.336 188.23 21.336C187.366 21.336 186.55 21.184 185.782 20.88C185.014 20.576 184.35 20.16 183.79 19.632C183.23 19.088 182.782 18.44 182.446 17.688C182.126 16.936 181.966 16.104 181.966 15.192ZM184.894 15.192C184.894 15.64 184.958 16.088 185.086 16.536C185.23 16.984 185.438 17.384 185.71 17.736C185.982 18.088 186.326 18.376 186.742 18.6C187.158 18.824 187.654 18.936 188.23 18.936C188.806 18.936 189.302 18.824 189.718 18.6C190.134 18.376 190.478 18.088 190.75 17.736C191.022 17.384 191.222 16.984 191.35 16.536C191.494 16.088 191.566 15.64 191.566 15.192C191.566 14.744 191.494 14.304 191.35 13.872C191.222 13.424 191.022 13.024 190.75 12.672C190.478 12.32 190.134 12.04 189.718 11.832C189.302 11.608 188.806 11.496 188.23 11.496C187.654 11.496 187.158 11.608 186.742 11.832C186.326 12.04 185.982 12.32 185.71 12.672C185.438 13.024 185.23 13.424 185.086 13.872C184.958 14.304 184.894 14.744 184.894 15.192ZM197.287 9.48H200.047V11.4H200.095C200.415 10.728 200.863 10.184 201.439 9.768C202.015 9.352 202.687 9.144 203.455 9.144C203.567 9.144 203.687 9.152 203.815 9.168C203.943 9.168 204.055 9.184 204.151 9.216V11.856C203.959 11.808 203.791 11.776 203.647 11.76C203.519 11.744 203.391 11.736 203.263 11.736C202.607 11.736 202.079 11.856 201.679 12.096C201.279 12.336 200.967 12.624 200.743 12.96C200.519 13.296 200.367 13.64 200.287 13.992C200.207 14.344 200.167 14.624 200.167 14.832V21H197.287V9.48ZM204.092 11.784V9.48H206.108V6.144H208.94V9.48H211.82V11.784H208.94V17.136C208.94 17.648 209.028 18.072 209.204 18.408C209.396 18.744 209.812 18.912 210.452 18.912C210.644 18.912 210.852 18.896 211.076 18.864C211.3 18.816 211.5 18.752 211.676 18.672L211.772 20.928C211.516 21.024 211.212 21.096 210.86 21.144C210.508 21.208 210.172 21.24 209.852 21.24C209.084 21.24 208.46 21.136 207.98 20.928C207.5 20.704 207.116 20.408 206.828 20.04C206.556 19.656 206.364 19.224 206.252 18.744C206.156 18.248 206.108 17.72 206.108 17.16V11.784H204.092ZM221.056 19.536H220.984C220.696 20.048 220.232 20.472 219.592 20.808C218.952 21.128 218.224 21.288 217.408 21.288C216.944 21.288 216.456 21.224 215.944 21.096C215.448 20.984 214.984 20.792 214.552 20.52C214.136 20.232 213.784 19.864 213.496 19.416C213.224 18.952 213.088 18.384 213.088 17.712C213.088 16.848 213.328 16.16 213.808 15.648C214.304 15.136 214.936 14.744 215.704 14.472C216.472 14.2 217.32 14.024 218.248 13.944C219.192 13.848 220.112 13.8 221.008 13.8V13.512C221.008 12.792 220.744 12.264 220.216 11.928C219.704 11.576 219.088 11.4 218.368 11.4C217.76 11.4 217.176 11.528 216.616 11.784C216.056 12.04 215.592 12.352 215.224 12.72L213.736 10.968C214.392 10.36 215.144 9.904 215.992 9.6C216.856 9.296 217.728 9.144 218.608 9.144C219.632 9.144 220.472 9.288 221.128 9.576C221.8 9.864 222.328 10.24 222.712 10.704C223.096 11.168 223.36 11.688 223.504 12.264C223.664 12.84 223.744 13.416 223.744 13.992V21H221.056V19.536ZM221.008 15.744H220.36C219.896 15.744 219.408 15.768 218.896 15.816C218.384 15.848 217.912 15.936 217.48 16.08C217.048 16.208 216.688 16.4 216.4 16.656C216.112 16.896 215.968 17.232 215.968 17.664C215.968 17.936 216.024 18.168 216.136 18.36C216.264 18.536 216.424 18.68 216.616 18.792C216.808 18.904 217.024 18.984 217.264 19.032C217.504 19.08 217.744 19.104 217.984 19.104C218.976 19.104 219.728 18.84 220.24 18.312C220.752 17.784 221.008 17.064 221.008 16.152V15.744ZM227.147 2.856H230.027V21H227.147V2.856Z" fill="#6B6B6F"/>
<path d="M102.084 35.944H106.524V37H100.896V28.504H106.344V29.548H102.084V32.092H106.092V33.112H102.084V35.944ZM109.195 34.012L107.119 31.312H108.511L109.903 33.268L111.307 31.312H112.627L110.575 34L112.867 37H111.463L109.879 34.78L108.271 37H106.915L109.195 34.012ZM117.558 32.752C117.438 32.568 117.258 32.416 117.018 32.296C116.778 32.168 116.522 32.104 116.25 32.104C115.954 32.104 115.69 32.16 115.458 32.272C115.234 32.384 115.042 32.536 114.882 32.728C114.722 32.912 114.598 33.128 114.51 33.376C114.43 33.624 114.39 33.884 114.39 34.156C114.39 34.428 114.43 34.688 114.51 34.936C114.598 35.184 114.722 35.404 114.882 35.596C115.042 35.78 115.238 35.928 115.47 36.04C115.702 36.152 115.966 36.208 116.262 36.208C116.55 36.208 116.81 36.152 117.042 36.04C117.282 35.928 117.478 35.776 117.63 35.584L118.386 36.268C118.146 36.548 117.846 36.768 117.486 36.928C117.126 37.08 116.718 37.156 116.262 37.156C115.822 37.156 115.414 37.084 115.038 36.94C114.67 36.796 114.35 36.596 114.078 36.34C113.806 36.076 113.59 35.76 113.43 35.392C113.278 35.024 113.202 34.612 113.202 34.156C113.202 33.708 113.278 33.3 113.43 32.932C113.582 32.564 113.794 32.248 114.066 31.984C114.338 31.72 114.658 31.516 115.026 31.372C115.402 31.228 115.806 31.156 116.238 31.156C116.638 31.156 117.034 31.236 117.426 31.396C117.826 31.556 118.142 31.788 118.374 32.092L117.558 32.752ZM123.428 33.652C123.42 33.428 123.38 33.22 123.308 33.028C123.244 32.828 123.144 32.656 123.008 32.512C122.88 32.368 122.716 32.256 122.516 32.176C122.324 32.088 122.096 32.044 121.832 32.044C121.592 32.044 121.364 32.088 121.148 32.176C120.94 32.256 120.756 32.368 120.596 32.512C120.444 32.656 120.316 32.828 120.212 33.028C120.116 33.22 120.06 33.428 120.044 33.652H123.428ZM124.568 34.108C124.568 34.172 124.568 34.236 124.568 34.3C124.568 34.364 124.564 34.428 124.556 34.492H120.044C120.052 34.732 120.104 34.96 120.2 35.176C120.304 35.384 120.44 35.568 120.608 35.728C120.776 35.88 120.968 36 121.184 36.088C121.408 36.176 121.644 36.22 121.892 36.22C122.276 36.22 122.608 36.136 122.888 35.968C123.168 35.8 123.388 35.596 123.548 35.356L124.34 35.992C124.036 36.392 123.676 36.688 123.26 36.88C122.852 37.064 122.396 37.156 121.892 37.156C121.46 37.156 121.06 37.084 120.692 36.94C120.324 36.796 120.008 36.596 119.744 36.34C119.48 36.076 119.272 35.76 119.12 35.392C118.968 35.024 118.892 34.616 118.892 34.168C118.892 33.728 118.964 33.324 119.108 32.956C119.26 32.58 119.468 32.26 119.732 31.996C119.996 31.732 120.308 31.528 120.668 31.384C121.028 31.232 121.416 31.156 121.832 31.156C122.248 31.156 122.624 31.224 122.96 31.36C123.304 31.496 123.592 31.692 123.824 31.948C124.064 32.204 124.248 32.516 124.376 32.884C124.504 33.244 124.568 33.652 124.568 34.108ZM127.031 39.88H125.903V31.312H127.007V32.2H127.043C127.227 31.896 127.495 31.648 127.847 31.456C128.207 31.256 128.623 31.156 129.095 31.156C129.519 31.156 129.903 31.232 130.247 31.384C130.599 31.536 130.899 31.748 131.147 32.02C131.403 32.292 131.599 32.612 131.735 32.98C131.871 33.34 131.939 33.728 131.939 34.144C131.939 34.56 131.871 34.952 131.735 35.32C131.599 35.688 131.407 36.008 131.159 36.28C130.911 36.552 130.611 36.768 130.259 36.928C129.907 37.08 129.511 37.156 129.071 37.156C128.663 37.156 128.279 37.068 127.919 36.892C127.559 36.716 127.275 36.468 127.067 36.148H127.031V39.88ZM130.775 34.144C130.775 33.88 130.735 33.624 130.655 33.376C130.575 33.128 130.455 32.908 130.295 32.716C130.135 32.524 129.935 32.372 129.695 32.26C129.463 32.148 129.191 32.092 128.879 32.092C128.591 32.092 128.327 32.148 128.087 32.26C127.855 32.372 127.655 32.524 127.487 32.716C127.319 32.908 127.187 33.128 127.091 33.376C127.003 33.624 126.959 33.884 126.959 34.156C126.959 34.428 127.003 34.688 127.091 34.936C127.187 35.184 127.319 35.404 127.487 35.596C127.655 35.78 127.855 35.928 128.087 36.04C128.327 36.152 128.591 36.208 128.879 36.208C129.191 36.208 129.463 36.152 129.695 36.04C129.935 35.92 130.135 35.764 130.295 35.572C130.455 35.38 130.575 35.16 130.655 34.912C130.735 34.664 130.775 34.408 130.775 34.144ZM136.052 32.236H134.54V35.2C134.54 35.544 134.604 35.792 134.732 35.944C134.86 36.088 135.064 36.16 135.344 36.16C135.448 36.16 135.56 36.148 135.68 36.124C135.8 36.1 135.908 36.064 136.004 36.016L136.04 36.94C135.904 36.988 135.752 37.024 135.584 37.048C135.424 37.08 135.256 37.096 135.08 37.096C134.544 37.096 134.132 36.948 133.844 36.652C133.564 36.356 133.424 35.912 133.424 35.32V32.236H132.332V31.312H133.424V29.68H134.54V31.312H136.052V32.236ZM138.118 37H136.99V31.312H138.118V37ZM138.31 29.26C138.31 29.468 138.234 29.64 138.082 29.776C137.938 29.912 137.762 29.98 137.554 29.98C137.346 29.98 137.17 29.912 137.026 29.776C136.882 29.632 136.81 29.46 136.81 29.26C136.81 29.052 136.882 28.88 137.026 28.744C137.17 28.6 137.346 28.528 137.554 28.528C137.762 28.528 137.938 28.6 138.082 28.744C138.234 28.88 138.31 29.052 138.31 29.26ZM145.603 34.144C145.603 34.584 145.523 34.988 145.363 35.356C145.211 35.724 144.995 36.044 144.715 36.316C144.443 36.58 144.119 36.788 143.743 36.94C143.367 37.084 142.963 37.156 142.531 37.156C142.099 37.156 141.695 37.084 141.319 36.94C140.943 36.788 140.619 36.58 140.347 36.316C140.075 36.044 139.859 35.724 139.699 35.356C139.547 34.988 139.471 34.584 139.471 34.144C139.471 33.704 139.547 33.304 139.699 32.944C139.859 32.576 140.075 32.26 140.347 31.996C140.619 31.732 140.943 31.528 141.319 31.384C141.695 31.232 142.099 31.156 142.531 31.156C142.963 31.156 143.367 31.232 143.743 31.384C144.119 31.528 144.443 31.732 144.715 31.996C144.995 32.26 145.211 32.576 145.363 32.944C145.523 33.304 145.603 33.704 145.603 34.144ZM144.427 34.144C144.427 33.872 144.383 33.612 144.295 33.364C144.215 33.116 144.095 32.9 143.935 32.716C143.775 32.524 143.575 32.372 143.335 32.26C143.103 32.148 142.835 32.092 142.531 32.092C142.227 32.092 141.955 32.148 141.715 32.26C141.483 32.372 141.287 32.524 141.127 32.716C140.967 32.9 140.843 33.116 140.755 33.364C140.675 33.612 140.635 33.872 140.635 34.144C140.635 34.416 140.675 34.676 140.755 34.924C140.843 35.172 140.967 35.392 141.127 35.584C141.287 35.776 141.483 35.928 141.715 36.04C141.955 36.152 142.227 36.208 142.531 36.208C142.835 36.208 143.103 36.152 143.335 36.04C143.575 35.928 143.775 35.776 143.935 35.584C144.095 35.392 144.215 35.172 144.295 34.924C144.383 34.676 144.427 34.416 144.427 34.144ZM147.947 31.312C147.963 31.456 147.975 31.62 147.983 31.804C147.991 31.98 147.995 32.128 147.995 32.248H148.031C148.103 32.096 148.199 31.956 148.319 31.828C148.447 31.692 148.591 31.576 148.751 31.48C148.911 31.376 149.087 31.296 149.279 31.24C149.471 31.184 149.671 31.156 149.879 31.156C150.247 31.156 150.563 31.22 150.827 31.348C151.091 31.468 151.311 31.632 151.487 31.84C151.663 32.048 151.791 32.292 151.871 32.572C151.959 32.852 152.003 33.152 152.003 33.472V37H150.875V33.844C150.875 33.612 150.855 33.392 150.815 33.184C150.783 32.976 150.719 32.792 150.623 32.632C150.527 32.472 150.395 32.344 150.227 32.248C150.059 32.152 149.843 32.104 149.579 32.104C149.131 32.104 148.763 32.276 148.475 32.62C148.195 32.956 148.055 33.408 148.055 33.976V37H146.927V32.536C146.927 32.384 146.923 32.188 146.915 31.948C146.907 31.708 146.895 31.496 146.879 31.312H147.947ZM157.212 33.316C157.212 32.892 157.084 32.58 156.828 32.38C156.572 32.172 156.232 32.068 155.808 32.068C155.488 32.068 155.184 32.132 154.896 32.26C154.616 32.38 154.38 32.536 154.188 32.728L153.588 32.008C153.868 31.744 154.208 31.536 154.608 31.384C155.016 31.232 155.452 31.156 155.916 31.156C156.324 31.156 156.676 31.216 156.972 31.336C157.276 31.448 157.524 31.604 157.716 31.804C157.908 32.004 158.052 32.24 158.148 32.512C158.244 32.784 158.292 33.076 158.292 33.388V35.872C158.292 36.064 158.296 36.268 158.304 36.484C158.32 36.692 158.344 36.864 158.376 37H157.356C157.292 36.728 157.26 36.456 157.26 36.184H157.224C157.016 36.488 156.752 36.724 156.432 36.892C156.12 37.06 155.748 37.144 155.316 37.144C155.092 37.144 154.856 37.112 154.608 37.048C154.368 36.992 154.148 36.896 153.948 36.76C153.748 36.624 153.58 36.444 153.444 36.22C153.316 35.996 153.252 35.72 153.252 35.392C153.252 34.96 153.368 34.62 153.6 34.372C153.832 34.116 154.136 33.924 154.512 33.796C154.888 33.66 155.312 33.572 155.784 33.532C156.256 33.492 156.732 33.472 157.212 33.472V33.316ZM156.936 34.288C156.656 34.288 156.364 34.3 156.06 34.324C155.764 34.348 155.492 34.396 155.244 34.468C155.004 34.54 154.804 34.648 154.644 34.792C154.484 34.936 154.404 35.128 154.404 35.368C154.404 35.536 154.436 35.676 154.5 35.788C154.572 35.9 154.664 35.992 154.776 36.064C154.888 36.136 155.012 36.188 155.148 36.22C155.284 36.244 155.424 36.256 155.568 36.256C156.096 36.256 156.5 36.1 156.78 35.788C157.068 35.468 157.212 35.068 157.212 34.588V34.288H156.936ZM161.088 37H159.96V27.928H161.088V37ZM166.821 35.944H170.613V37H165.633V28.504H166.821V35.944ZM177.011 34.144C177.011 34.584 176.931 34.988 176.771 35.356C176.619 35.724 176.403 36.044 176.123 36.316C175.851 36.58 175.527 36.788 175.151 36.94C174.775 37.084 174.371 37.156 173.939 37.156C173.507 37.156 173.103 37.084 172.727 36.94C172.351 36.788 172.027 36.58 171.755 36.316C171.483 36.044 171.267 35.724 171.107 35.356C170.955 34.988 170.879 34.584 170.879 34.144C170.879 33.704 170.955 33.304 171.107 32.944C171.267 32.576 171.483 32.26 171.755 31.996C172.027 31.732 172.351 31.528 172.727 31.384C173.103 31.232 173.507 31.156 173.939 31.156C174.371 31.156 174.775 31.232 175.151 31.384C175.527 31.528 175.851 31.732 176.123 31.996C176.403 32.26 176.619 32.576 176.771 32.944C176.931 33.304 177.011 33.704 177.011 34.144ZM175.835 34.144C175.835 33.872 175.791 33.612 175.703 33.364C175.623 33.116 175.503 32.9 175.343 32.716C175.183 32.524 174.983 32.372 174.743 32.26C174.511 32.148 174.243 32.092 173.939 32.092C173.635 32.092 173.363 32.148 173.123 32.26C172.891 32.372 172.695 32.524 172.535 32.716C172.375 32.9 172.251 33.116 172.163 33.364C172.083 33.612 172.043 33.872 172.043 34.144C172.043 34.416 172.083 34.676 172.163 34.924C172.251 35.172 172.375 35.392 172.535 35.584C172.695 35.776 172.891 35.928 173.123 36.04C173.363 36.152 173.635 36.208 173.939 36.208C174.243 36.208 174.511 36.152 174.743 36.04C174.983 35.928 175.183 35.776 175.343 35.584C175.503 35.392 175.623 35.172 175.703 34.924C175.791 34.676 175.835 34.416 175.835 34.144ZM179.355 31.312C179.371 31.456 179.383 31.62 179.391 31.804C179.399 31.98 179.403 32.128 179.403 32.248H179.439C179.511 32.096 179.607 31.956 179.727 31.828C179.855 31.692 179.999 31.576 180.159 31.48C180.319 31.376 180.495 31.296 180.687 31.24C180.879 31.184 181.079 31.156 181.287 31.156C181.655 31.156 181.971 31.22 182.235 31.348C182.499 31.468 182.719 31.632 182.895 31.84C183.071 32.048 183.199 32.292 183.279 32.572C183.367 32.852 183.411 33.152 183.411 33.472V37H182.283V33.844C182.283 33.612 182.263 33.392 182.223 33.184C182.191 32.976 182.127 32.792 182.031 32.632C181.935 32.472 181.803 32.344 181.635 32.248C181.467 32.152 181.251 32.104 180.987 32.104C180.539 32.104 180.171 32.276 179.883 32.62C179.603 32.956 179.463 33.408 179.463 33.976V37H178.335V32.536C178.335 32.384 178.331 32.188 178.323 31.948C178.315 31.708 178.303 31.496 178.287 31.312H179.355ZM185.523 37.972C185.771 38.252 186.079 38.476 186.447 38.644C186.823 38.812 187.207 38.896 187.599 38.896C187.975 38.896 188.291 38.84 188.547 38.728C188.803 38.624 189.007 38.476 189.159 38.284C189.319 38.1 189.431 37.88 189.495 37.624C189.567 37.368 189.603 37.092 189.603 36.796V36.064H189.579C189.371 36.384 189.087 36.628 188.727 36.796C188.367 36.964 187.983 37.048 187.575 37.048C187.143 37.048 186.747 36.972 186.387 36.82C186.035 36.668 185.735 36.46 185.487 36.196C185.239 35.932 185.047 35.624 184.911 35.272C184.775 34.912 184.707 34.528 184.707 34.12C184.707 33.712 184.775 33.328 184.911 32.968C185.047 32.608 185.239 32.296 185.487 32.032C185.735 31.76 186.035 31.548 186.387 31.396C186.739 31.236 187.131 31.156 187.563 31.156C187.971 31.156 188.359 31.244 188.727 31.42C189.103 31.596 189.399 31.864 189.615 32.224H189.639V31.312H190.731V36.712C190.731 37.128 190.679 37.524 190.575 37.9C190.471 38.284 190.295 38.62 190.047 38.908C189.799 39.204 189.475 39.44 189.075 39.616C188.675 39.792 188.179 39.88 187.587 39.88C187.091 39.88 186.591 39.788 186.087 39.604C185.591 39.428 185.163 39.176 184.803 38.848L185.523 37.972ZM185.871 34.096C185.871 34.36 185.911 34.612 185.991 34.852C186.079 35.092 186.203 35.304 186.363 35.488C186.531 35.672 186.731 35.82 186.963 35.932C187.195 36.044 187.459 36.1 187.755 36.1C188.043 36.1 188.307 36.048 188.547 35.944C188.787 35.84 188.991 35.7 189.159 35.524C189.327 35.34 189.455 35.128 189.543 34.888C189.639 34.64 189.687 34.376 189.687 34.096C189.687 33.824 189.639 33.568 189.543 33.328C189.455 33.088 189.323 32.876 189.147 32.692C188.979 32.508 188.775 32.364 188.535 32.26C188.303 32.148 188.043 32.092 187.755 32.092C187.459 32.092 187.195 32.148 186.963 32.26C186.731 32.364 186.531 32.508 186.363 32.692C186.203 32.868 186.079 33.08 185.991 33.328C185.911 33.568 185.871 33.824 185.871 34.096ZM196.585 33.652C196.577 33.428 196.537 33.22 196.465 33.028C196.401 32.828 196.301 32.656 196.165 32.512C196.037 32.368 195.873 32.256 195.673 32.176C195.481 32.088 195.253 32.044 194.989 32.044C194.749 32.044 194.521 32.088 194.305 32.176C194.097 32.256 193.913 32.368 193.753 32.512C193.601 32.656 193.473 32.828 193.369 33.028C193.273 33.22 193.217 33.428 193.201 33.652H196.585ZM197.725 34.108C197.725 34.172 197.725 34.236 197.725 34.3C197.725 34.364 197.721 34.428 197.713 34.492H193.201C193.209 34.732 193.261 34.96 193.357 35.176C193.461 35.384 193.597 35.568 193.765 35.728C193.933 35.88 194.125 36 194.341 36.088C194.565 36.176 194.801 36.22 195.049 36.22C195.433 36.22 195.765 36.136 196.045 35.968C196.325 35.8 196.545 35.596 196.705 35.356L197.497 35.992C197.193 36.392 196.833 36.688 196.417 36.88C196.009 37.064 195.553 37.156 195.049 37.156C194.617 37.156 194.217 37.084 193.849 36.94C193.481 36.796 193.165 36.596 192.901 36.34C192.637 36.076 192.429 35.76 192.277 35.392C192.125 35.024 192.049 34.616 192.049 34.168C192.049 33.728 192.121 33.324 192.265 32.956C192.417 32.58 192.625 32.26 192.889 31.996C193.153 31.732 193.465 31.528 193.825 31.384C194.185 31.232 194.573 31.156 194.989 31.156C195.405 31.156 195.781 31.224 196.117 31.36C196.461 31.496 196.749 31.692 196.981 31.948C197.221 32.204 197.405 32.516 197.533 32.884C197.661 33.244 197.725 33.652 197.725 34.108ZM201.736 37H200.512L198.196 31.312H199.444L201.112 35.788H201.136L202.816 31.312H204.016L201.736 37ZM206.007 37H204.879V31.312H206.007V37ZM206.199 29.26C206.199 29.468 206.123 29.64 205.971 29.776C205.827 29.912 205.651 29.98 205.443 29.98C205.235 29.98 205.059 29.912 204.915 29.776C204.771 29.632 204.699 29.46 204.699 29.26C204.699 29.052 204.771 28.88 204.915 28.744C205.059 28.6 205.235 28.528 205.443 28.528C205.651 28.528 205.827 28.6 205.971 28.744C206.123 28.88 206.199 29.052 206.199 29.26ZM210.517 32.236H209.005V35.2C209.005 35.544 209.069 35.792 209.197 35.944C209.325 36.088 209.529 36.16 209.809 36.16C209.913 36.16 210.025 36.148 210.145 36.124C210.265 36.1 210.373 36.064 210.469 36.016L210.505 36.94C210.369 36.988 210.217 37.024 210.049 37.048C209.889 37.08 209.721 37.096 209.545 37.096C209.009 37.096 208.597 36.948 208.309 36.652C208.029 36.356 207.889 35.912 207.889 35.32V32.236H206.797V31.312H207.889V29.68H209.005V31.312H210.517V32.236ZM213.602 35.776H213.626L215.198 31.312H216.398L213.638 38.344C213.542 38.584 213.438 38.796 213.326 38.98C213.214 39.172 213.082 39.332 212.93 39.46C212.778 39.596 212.598 39.7 212.39 39.772C212.19 39.844 211.95 39.88 211.67 39.88C211.55 39.88 211.426 39.872 211.298 39.856C211.178 39.848 211.054 39.828 210.926 39.796L211.034 38.8C211.226 38.864 211.414 38.896 211.598 38.896C211.894 38.896 212.114 38.812 212.258 38.644C212.402 38.484 212.534 38.252 212.654 37.948L213.014 37L210.578 31.312H211.838L213.602 35.776Z" fill="#87878B" fill-opacity="0.7"/>
<path d="M103.872 51H102.684V43.548H99.9595V42.504H106.596V43.548H103.872V51ZM106.349 46.536C106.349 46.384 106.345 46.188 106.337 45.948C106.329 45.708 106.317 45.496 106.301 45.312H107.369C107.385 45.456 107.397 45.624 107.405 45.816C107.413 46 107.417 46.152 107.417 46.272H107.453C107.613 45.936 107.845 45.668 108.149 45.468C108.461 45.26 108.809 45.156 109.193 45.156C109.369 45.156 109.517 45.172 109.637 45.204L109.589 46.248C109.429 46.208 109.257 46.188 109.073 46.188C108.801 46.188 108.565 46.24 108.365 46.344C108.165 46.44 107.997 46.572 107.861 46.74C107.733 46.908 107.637 47.104 107.573 47.328C107.509 47.544 107.477 47.772 107.477 48.012V51H106.349V46.536ZM113.845 47.316C113.845 46.892 113.717 46.58 113.461 46.38C113.205 46.172 112.865 46.068 112.441 46.068C112.121 46.068 111.817 46.132 111.529 46.26C111.249 46.38 111.013 46.536 110.821 46.728L110.221 46.008C110.501 45.744 110.841 45.536 111.241 45.384C111.649 45.232 112.085 45.156 112.549 45.156C112.957 45.156 113.309 45.216 113.605 45.336C113.909 45.448 114.157 45.604 114.349 45.804C114.541 46.004 114.685 46.24 114.781 46.512C114.877 46.784 114.925 47.076 114.925 47.388V49.872C114.925 50.064 114.929 50.268 114.937 50.484C114.953 50.692 114.977 50.864 115.009 51H113.989C113.925 50.728 113.893 50.456 113.893 50.184H113.857C113.649 50.488 113.385 50.724 113.065 50.892C112.753 51.06 112.381 51.144 111.949 51.144C111.725 51.144 111.489 51.112 111.241 51.048C111.001 50.992 110.781 50.896 110.581 50.76C110.381 50.624 110.213 50.444 110.077 50.22C109.949 49.996 109.885 49.72 109.885 49.392C109.885 48.96 110.001 48.62 110.233 48.372C110.465 48.116 110.769 47.924 111.145 47.796C111.521 47.66 111.945 47.572 112.417 47.532C112.889 47.492 113.365 47.472 113.845 47.472V47.316ZM113.569 48.288C113.289 48.288 112.997 48.3 112.693 48.324C112.397 48.348 112.125 48.396 111.877 48.468C111.637 48.54 111.437 48.648 111.277 48.792C111.117 48.936 111.037 49.128 111.037 49.368C111.037 49.536 111.069 49.676 111.133 49.788C111.205 49.9 111.297 49.992 111.409 50.064C111.521 50.136 111.645 50.188 111.781 50.22C111.917 50.244 112.057 50.256 112.201 50.256C112.729 50.256 113.133 50.1 113.413 49.788C113.701 49.468 113.845 49.068 113.845 48.588V48.288H113.569ZM117.589 45.312C117.605 45.456 117.617 45.62 117.625 45.804C117.633 45.98 117.637 46.128 117.637 46.248H117.673C117.745 46.096 117.841 45.956 117.961 45.828C118.089 45.692 118.233 45.576 118.393 45.48C118.553 45.376 118.729 45.296 118.921 45.24C119.113 45.184 119.313 45.156 119.521 45.156C119.889 45.156 120.205 45.22 120.469 45.348C120.733 45.468 120.953 45.632 121.129 45.84C121.305 46.048 121.433 46.292 121.513 46.572C121.601 46.852 121.645 47.152 121.645 47.472V51H120.517V47.844C120.517 47.612 120.497 47.392 120.457 47.184C120.425 46.976 120.361 46.792 120.265 46.632C120.169 46.472 120.037 46.344 119.869 46.248C119.701 46.152 119.485 46.104 119.221 46.104C118.773 46.104 118.405 46.276 118.117 46.62C117.837 46.956 117.697 47.408 117.697 47.976V51H116.569V46.536C116.569 46.384 116.565 46.188 116.557 45.948C116.549 45.708 116.537 45.496 116.521 45.312H117.589ZM126.385 46.752C126.257 46.544 126.077 46.376 125.845 46.248C125.613 46.112 125.353 46.044 125.065 46.044C124.937 46.044 124.809 46.06 124.681 46.092C124.553 46.116 124.437 46.16 124.333 46.224C124.237 46.28 124.157 46.356 124.093 46.452C124.037 46.54 124.009 46.652 124.009 46.788C124.009 47.028 124.117 47.208 124.333 47.328C124.549 47.44 124.873 47.544 125.305 47.64C125.577 47.704 125.829 47.78 126.061 47.868C126.293 47.956 126.493 48.068 126.661 48.204C126.837 48.332 126.973 48.488 127.069 48.672C127.165 48.856 127.213 49.072 127.213 49.32C127.213 49.656 127.149 49.94 127.021 50.172C126.893 50.404 126.721 50.596 126.505 50.748C126.297 50.892 126.057 50.996 125.785 51.06C125.513 51.124 125.233 51.156 124.945 51.156C124.513 51.156 124.089 51.072 123.673 50.904C123.265 50.736 122.925 50.48 122.653 50.136L123.457 49.452C123.609 49.676 123.817 49.864 124.081 50.016C124.353 50.168 124.649 50.244 124.969 50.244C125.113 50.244 125.249 50.232 125.377 50.208C125.513 50.176 125.633 50.128 125.737 50.064C125.849 50 125.937 49.916 126.001 49.812C126.065 49.708 126.097 49.576 126.097 49.416C126.097 49.152 125.969 48.956 125.713 48.828C125.465 48.7 125.097 48.58 124.609 48.468C124.417 48.42 124.221 48.364 124.021 48.3C123.829 48.228 123.653 48.132 123.493 48.012C123.333 47.892 123.201 47.744 123.097 47.568C123.001 47.384 122.953 47.16 122.953 46.896C122.953 46.592 123.013 46.332 123.133 46.116C123.261 45.892 123.425 45.712 123.625 45.576C123.825 45.432 124.053 45.328 124.309 45.264C124.565 45.192 124.829 45.156 125.101 45.156C125.509 45.156 125.901 45.236 126.277 45.396C126.661 45.556 126.957 45.788 127.165 46.092L126.385 46.752ZM129.557 51H128.429V41.928H129.557V51ZM134.822 47.316C134.822 46.892 134.694 46.58 134.438 46.38C134.182 46.172 133.842 46.068 133.418 46.068C133.098 46.068 132.794 46.132 132.506 46.26C132.226 46.38 131.99 46.536 131.798 46.728L131.198 46.008C131.478 45.744 131.818 45.536 132.218 45.384C132.626 45.232 133.062 45.156 133.526 45.156C133.934 45.156 134.286 45.216 134.582 45.336C134.886 45.448 135.134 45.604 135.326 45.804C135.518 46.004 135.662 46.24 135.758 46.512C135.854 46.784 135.902 47.076 135.902 47.388V49.872C135.902 50.064 135.906 50.268 135.914 50.484C135.93 50.692 135.954 50.864 135.986 51H134.966C134.902 50.728 134.87 50.456 134.87 50.184H134.834C134.626 50.488 134.362 50.724 134.042 50.892C133.73 51.06 133.358 51.144 132.926 51.144C132.702 51.144 132.466 51.112 132.218 51.048C131.978 50.992 131.758 50.896 131.558 50.76C131.358 50.624 131.19 50.444 131.054 50.22C130.926 49.996 130.862 49.72 130.862 49.392C130.862 48.96 130.978 48.62 131.21 48.372C131.442 48.116 131.746 47.924 132.122 47.796C132.498 47.66 132.922 47.572 133.394 47.532C133.866 47.492 134.342 47.472 134.822 47.472V47.316ZM134.546 48.288C134.266 48.288 133.974 48.3 133.67 48.324C133.374 48.348 133.102 48.396 132.854 48.468C132.614 48.54 132.414 48.648 132.254 48.792C132.094 48.936 132.014 49.128 132.014 49.368C132.014 49.536 132.046 49.676 132.11 49.788C132.182 49.9 132.274 49.992 132.386 50.064C132.498 50.136 132.622 50.188 132.758 50.22C132.894 50.244 133.034 50.256 133.178 50.256C133.706 50.256 134.11 50.1 134.39 49.788C134.678 49.468 134.822 49.068 134.822 48.588V48.288H134.546ZM140.213 46.236H138.701V49.2C138.701 49.544 138.765 49.792 138.893 49.944C139.021 50.088 139.225 50.16 139.505 50.16C139.609 50.16 139.721 50.148 139.841 50.124C139.961 50.1 140.069 50.064 140.165 50.016L140.201 50.94C140.065 50.988 139.913 51.024 139.745 51.048C139.585 51.08 139.417 51.096 139.241 51.096C138.705 51.096 138.293 50.948 138.005 50.652C137.725 50.356 137.585 49.912 137.585 49.32V46.236H136.493V45.312H137.585V43.68H138.701V45.312H140.213V46.236ZM142.278 51H141.15V45.312H142.278V51ZM142.47 43.26C142.47 43.468 142.394 43.64 142.242 43.776C142.098 43.912 141.922 43.98 141.714 43.98C141.506 43.98 141.33 43.912 141.186 43.776C141.042 43.632 140.97 43.46 140.97 43.26C140.97 43.052 141.042 42.88 141.186 42.744C141.33 42.6 141.506 42.528 141.714 42.528C141.922 42.528 142.098 42.6 142.242 42.744C142.394 42.88 142.47 43.052 142.47 43.26ZM149.764 48.144C149.764 48.584 149.684 48.988 149.524 49.356C149.372 49.724 149.156 50.044 148.876 50.316C148.604 50.58 148.28 50.788 147.904 50.94C147.528 51.084 147.124 51.156 146.692 51.156C146.26 51.156 145.856 51.084 145.48 50.94C145.104 50.788 144.78 50.58 144.508 50.316C144.236 50.044 144.02 49.724 143.86 49.356C143.708 48.988 143.632 48.584 143.632 48.144C143.632 47.704 143.708 47.304 143.86 46.944C144.02 46.576 144.236 46.26 144.508 45.996C144.78 45.732 145.104 45.528 145.48 45.384C145.856 45.232 146.26 45.156 146.692 45.156C147.124 45.156 147.528 45.232 147.904 45.384C148.28 45.528 148.604 45.732 148.876 45.996C149.156 46.26 149.372 46.576 149.524 46.944C149.684 47.304 149.764 47.704 149.764 48.144ZM148.588 48.144C148.588 47.872 148.544 47.612 148.456 47.364C148.376 47.116 148.256 46.9 148.096 46.716C147.936 46.524 147.736 46.372 147.496 46.26C147.264 46.148 146.996 46.092 146.692 46.092C146.388 46.092 146.116 46.148 145.876 46.26C145.644 46.372 145.448 46.524 145.288 46.716C145.128 46.9 145.004 47.116 144.916 47.364C144.836 47.612 144.796 47.872 144.796 48.144C144.796 48.416 144.836 48.676 144.916 48.924C145.004 49.172 145.128 49.392 145.288 49.584C145.448 49.776 145.644 49.928 145.876 50.04C146.116 50.152 146.388 50.208 146.692 50.208C146.996 50.208 147.264 50.152 147.496 50.04C147.736 49.928 147.936 49.776 148.096 49.584C148.256 49.392 148.376 49.172 148.456 48.924C148.544 48.676 148.588 48.416 148.588 48.144ZM152.108 45.312C152.124 45.456 152.136 45.62 152.144 45.804C152.152 45.98 152.156 46.128 152.156 46.248H152.192C152.264 46.096 152.36 45.956 152.48 45.828C152.608 45.692 152.752 45.576 152.912 45.48C153.072 45.376 153.248 45.296 153.44 45.24C153.632 45.184 153.832 45.156 154.04 45.156C154.408 45.156 154.724 45.22 154.988 45.348C155.252 45.468 155.472 45.632 155.648 45.84C155.824 46.048 155.952 46.292 156.032 46.572C156.12 46.852 156.164 47.152 156.164 47.472V51H155.036V47.844C155.036 47.612 155.016 47.392 154.976 47.184C154.944 46.976 154.88 46.792 154.784 46.632C154.688 46.472 154.556 46.344 154.388 46.248C154.22 46.152 154.004 46.104 153.74 46.104C153.292 46.104 152.924 46.276 152.636 46.62C152.356 46.956 152.216 47.408 152.216 47.976V51H151.088V46.536C151.088 46.384 151.084 46.188 151.076 45.948C151.068 45.708 151.056 45.496 151.04 45.312H152.108ZM161.372 47.316C161.372 46.892 161.244 46.58 160.988 46.38C160.732 46.172 160.392 46.068 159.968 46.068C159.648 46.068 159.344 46.132 159.056 46.26C158.776 46.38 158.54 46.536 158.348 46.728L157.748 46.008C158.028 45.744 158.368 45.536 158.768 45.384C159.176 45.232 159.612 45.156 160.076 45.156C160.484 45.156 160.836 45.216 161.132 45.336C161.436 45.448 161.684 45.604 161.876 45.804C162.068 46.004 162.212 46.24 162.308 46.512C162.404 46.784 162.452 47.076 162.452 47.388V49.872C162.452 50.064 162.456 50.268 162.464 50.484C162.48 50.692 162.504 50.864 162.536 51H161.516C161.452 50.728 161.42 50.456 161.42 50.184H161.384C161.176 50.488 160.912 50.724 160.592 50.892C160.28 51.06 159.908 51.144 159.476 51.144C159.252 51.144 159.016 51.112 158.768 51.048C158.528 50.992 158.308 50.896 158.108 50.76C157.908 50.624 157.74 50.444 157.604 50.22C157.476 49.996 157.412 49.72 157.412 49.392C157.412 48.96 157.528 48.62 157.76 48.372C157.992 48.116 158.296 47.924 158.672 47.796C159.048 47.66 159.472 47.572 159.944 47.532C160.416 47.492 160.892 47.472 161.372 47.472V47.316ZM161.096 48.288C160.816 48.288 160.524 48.3 160.22 48.324C159.924 48.348 159.652 48.396 159.404 48.468C159.164 48.54 158.964 48.648 158.804 48.792C158.644 48.936 158.564 49.128 158.564 49.368C158.564 49.536 158.596 49.676 158.66 49.788C158.732 49.9 158.824 49.992 158.936 50.064C159.048 50.136 159.172 50.188 159.308 50.22C159.444 50.244 159.584 50.256 159.728 50.256C160.256 50.256 160.66 50.1 160.94 49.788C161.228 49.468 161.372 49.068 161.372 48.588V48.288H161.096ZM165.248 51H164.12V41.928H165.248V51ZM170.981 51H169.793V42.504H172.517C172.925 42.504 173.313 42.548 173.681 42.636C174.049 42.716 174.369 42.848 174.641 43.032C174.921 43.216 175.141 43.46 175.301 43.764C175.461 44.06 175.541 44.424 175.541 44.856C175.541 45.48 175.349 45.984 174.965 46.368C174.581 46.752 174.085 46.996 173.477 47.1L175.853 51H174.413L172.253 47.22H170.981V51ZM170.981 46.224H172.349C172.629 46.224 172.889 46.2 173.129 46.152C173.369 46.104 173.577 46.028 173.753 45.924C173.937 45.812 174.081 45.672 174.185 45.504C174.289 45.328 174.341 45.112 174.341 44.856C174.341 44.6 174.289 44.388 174.185 44.22C174.081 44.044 173.941 43.904 173.765 43.8C173.597 43.696 173.397 43.624 173.165 43.584C172.933 43.536 172.689 43.512 172.433 43.512H170.981V46.224ZM180.888 47.652C180.88 47.428 180.84 47.22 180.768 47.028C180.704 46.828 180.604 46.656 180.468 46.512C180.34 46.368 180.176 46.256 179.976 46.176C179.784 46.088 179.556 46.044 179.292 46.044C179.052 46.044 178.824 46.088 178.608 46.176C178.4 46.256 178.216 46.368 178.056 46.512C177.904 46.656 177.776 46.828 177.672 47.028C177.576 47.22 177.52 47.428 177.504 47.652H180.888ZM182.028 48.108C182.028 48.172 182.028 48.236 182.028 48.3C182.028 48.364 182.024 48.428 182.016 48.492H177.504C177.512 48.732 177.564 48.96 177.66 49.176C177.764 49.384 177.9 49.568 178.068 49.728C178.236 49.88 178.428 50 178.644 50.088C178.868 50.176 179.104 50.22 179.352 50.22C179.736 50.22 180.068 50.136 180.348 49.968C180.628 49.8 180.848 49.596 181.008 49.356L181.8 49.992C181.496 50.392 181.136 50.688 180.72 50.88C180.312 51.064 179.856 51.156 179.352 51.156C178.92 51.156 178.52 51.084 178.152 50.94C177.784 50.796 177.468 50.596 177.204 50.34C176.94 50.076 176.732 49.76 176.58 49.392C176.428 49.024 176.352 48.616 176.352 48.168C176.352 47.728 176.424 47.324 176.568 46.956C176.72 46.58 176.928 46.26 177.192 45.996C177.456 45.732 177.768 45.528 178.128 45.384C178.488 45.232 178.876 45.156 179.292 45.156C179.708 45.156 180.084 45.224 180.42 45.36C180.764 45.496 181.052 45.692 181.284 45.948C181.524 46.204 181.708 46.516 181.836 46.884C181.964 47.244 182.028 47.652 182.028 48.108ZM186.435 46.752C186.307 46.544 186.127 46.376 185.895 46.248C185.663 46.112 185.403 46.044 185.115 46.044C184.987 46.044 184.859 46.06 184.731 46.092C184.603 46.116 184.487 46.16 184.383 46.224C184.287 46.28 184.207 46.356 184.143 46.452C184.087 46.54 184.059 46.652 184.059 46.788C184.059 47.028 184.167 47.208 184.383 47.328C184.599 47.44 184.923 47.544 185.355 47.64C185.627 47.704 185.879 47.78 186.111 47.868C186.343 47.956 186.543 48.068 186.711 48.204C186.887 48.332 187.023 48.488 187.119 48.672C187.215 48.856 187.263 49.072 187.263 49.32C187.263 49.656 187.199 49.94 187.071 50.172C186.943 50.404 186.771 50.596 186.555 50.748C186.347 50.892 186.107 50.996 185.835 51.06C185.563 51.124 185.283 51.156 184.995 51.156C184.563 51.156 184.139 51.072 183.723 50.904C183.315 50.736 182.975 50.48 182.703 50.136L183.507 49.452C183.659 49.676 183.867 49.864 184.131 50.016C184.403 50.168 184.699 50.244 185.019 50.244C185.163 50.244 185.299 50.232 185.427 50.208C185.563 50.176 185.683 50.128 185.787 50.064C185.899 50 185.987 49.916 186.051 49.812C186.115 49.708 186.147 49.576 186.147 49.416C186.147 49.152 186.019 48.956 185.763 48.828C185.515 48.7 185.147 48.58 184.659 48.468C184.467 48.42 184.271 48.364 184.071 48.3C183.879 48.228 183.703 48.132 183.543 48.012C183.383 47.892 183.251 47.744 183.147 47.568C183.051 47.384 183.003 47.16 183.003 46.896C183.003 46.592 183.063 46.332 183.183 46.116C183.311 45.892 183.475 45.712 183.675 45.576C183.875 45.432 184.103 45.328 184.359 45.264C184.615 45.192 184.879 45.156 185.151 45.156C185.559 45.156 185.951 45.236 186.327 45.396C186.711 45.556 187.007 45.788 187.215 46.092L186.435 46.752ZM194.215 48.144C194.215 48.584 194.135 48.988 193.975 49.356C193.823 49.724 193.607 50.044 193.327 50.316C193.055 50.58 192.731 50.788 192.355 50.94C191.979 51.084 191.575 51.156 191.143 51.156C190.711 51.156 190.307 51.084 189.931 50.94C189.555 50.788 189.231 50.58 188.959 50.316C188.687 50.044 188.471 49.724 188.311 49.356C188.159 48.988 188.083 48.584 188.083 48.144C188.083 47.704 188.159 47.304 188.311 46.944C188.471 46.576 188.687 46.26 188.959 45.996C189.231 45.732 189.555 45.528 189.931 45.384C190.307 45.232 190.711 45.156 191.143 45.156C191.575 45.156 191.979 45.232 192.355 45.384C192.731 45.528 193.055 45.732 193.327 45.996C193.607 46.26 193.823 46.576 193.975 46.944C194.135 47.304 194.215 47.704 194.215 48.144ZM193.039 48.144C193.039 47.872 192.995 47.612 192.907 47.364C192.827 47.116 192.707 46.9 192.547 46.716C192.387 46.524 192.187 46.372 191.947 46.26C191.715 46.148 191.447 46.092 191.143 46.092C190.839 46.092 190.567 46.148 190.327 46.26C190.095 46.372 189.899 46.524 189.739 46.716C189.579 46.9 189.455 47.116 189.367 47.364C189.287 47.612 189.247 47.872 189.247 48.144C189.247 48.416 189.287 48.676 189.367 48.924C189.455 49.172 189.579 49.392 189.739 49.584C189.899 49.776 190.095 49.928 190.327 50.04C190.567 50.152 190.839 50.208 191.143 50.208C191.447 50.208 191.715 50.152 191.947 50.04C192.187 49.928 192.387 49.776 192.547 49.584C192.707 49.392 192.827 49.172 192.907 48.924C192.995 48.676 193.039 48.416 193.039 48.144ZM199.547 51C199.531 50.856 199.519 50.696 199.511 50.52C199.503 50.336 199.499 50.184 199.499 50.064H199.475C199.331 50.368 199.087 50.628 198.743 50.844C198.407 51.052 198.031 51.156 197.615 51.156C197.247 51.156 196.927 51.096 196.655 50.976C196.391 50.856 196.171 50.692 195.995 50.484C195.827 50.268 195.699 50.02 195.611 49.74C195.531 49.46 195.491 49.16 195.491 48.84V45.312H196.619V48.456C196.619 48.688 196.635 48.912 196.667 49.128C196.707 49.336 196.775 49.52 196.871 49.68C196.967 49.84 197.099 49.968 197.267 50.064C197.435 50.16 197.651 50.208 197.915 50.208C198.371 50.208 198.739 50.04 199.019 49.704C199.299 49.36 199.439 48.904 199.439 48.336V45.312H200.567V49.776C200.567 49.928 200.571 50.124 200.579 50.364C200.587 50.604 200.599 50.816 200.615 51H199.547ZM202.283 46.536C202.283 46.384 202.279 46.188 202.271 45.948C202.263 45.708 202.251 45.496 202.235 45.312H203.303C203.319 45.456 203.331 45.624 203.339 45.816C203.347 46 203.351 46.152 203.351 46.272H203.387C203.547 45.936 203.779 45.668 204.083 45.468C204.395 45.26 204.743 45.156 205.127 45.156C205.303 45.156 205.451 45.172 205.571 45.204L205.523 46.248C205.363 46.208 205.191 46.188 205.007 46.188C204.735 46.188 204.499 46.24 204.299 46.344C204.099 46.44 203.931 46.572 203.795 46.74C203.667 46.908 203.571 47.104 203.507 47.328C203.443 47.544 203.411 47.772 203.411 48.012V51H202.283V46.536ZM210.164 46.752C210.044 46.568 209.864 46.416 209.624 46.296C209.384 46.168 209.128 46.104 208.856 46.104C208.56 46.104 208.296 46.16 208.064 46.272C207.84 46.384 207.648 46.536 207.488 46.728C207.328 46.912 207.204 47.128 207.116 47.376C207.036 47.624 206.996 47.884 206.996 48.156C206.996 48.428 207.036 48.688 207.116 48.936C207.204 49.184 207.328 49.404 207.488 49.596C207.648 49.78 207.844 49.928 208.076 50.04C208.308 50.152 208.572 50.208 208.868 50.208C209.156 50.208 209.416 50.152 209.648 50.04C209.888 49.928 210.084 49.776 210.236 49.584L210.992 50.268C210.752 50.548 210.452 50.768 210.092 50.928C209.732 51.08 209.324 51.156 208.868 51.156C208.428 51.156 208.02 51.084 207.644 50.94C207.276 50.796 206.956 50.596 206.684 50.34C206.412 50.076 206.196 49.76 206.036 49.392C205.884 49.024 205.808 48.612 205.808 48.156C205.808 47.708 205.884 47.3 206.036 46.932C206.188 46.564 206.4 46.248 206.672 45.984C206.944 45.72 207.264 45.516 207.632 45.372C208.008 45.228 208.412 45.156 208.844 45.156C209.244 45.156 209.64 45.236 210.032 45.396C210.432 45.556 210.748 45.788 210.98 46.092L210.164 46.752ZM216.034 47.652C216.026 47.428 215.986 47.22 215.914 47.028C215.85 46.828 215.75 46.656 215.614 46.512C215.486 46.368 215.322 46.256 215.122 46.176C214.93 46.088 214.702 46.044 214.438 46.044C214.198 46.044 213.97 46.088 213.754 46.176C213.546 46.256 213.362 46.368 213.202 46.512C213.05 46.656 212.922 46.828 212.818 47.028C212.722 47.22 212.666 47.428 212.65 47.652H216.034ZM217.174 48.108C217.174 48.172 217.174 48.236 217.174 48.3C217.174 48.364 217.17 48.428 217.162 48.492H212.65C212.658 48.732 212.71 48.96 212.806 49.176C212.91 49.384 213.046 49.568 213.214 49.728C213.382 49.88 213.574 50 213.79 50.088C214.014 50.176 214.25 50.22 214.498 50.22C214.882 50.22 215.214 50.136 215.494 49.968C215.774 49.8 215.994 49.596 216.154 49.356L216.946 49.992C216.642 50.392 216.282 50.688 215.866 50.88C215.458 51.064 215.002 51.156 214.498 51.156C214.066 51.156 213.666 51.084 213.298 50.94C212.93 50.796 212.614 50.596 212.35 50.34C212.086 50.076 211.878 49.76 211.726 49.392C211.574 49.024 211.498 48.616 211.498 48.168C211.498 47.728 211.57 47.324 211.714 46.956C211.866 46.58 212.074 46.26 212.338 45.996C212.602 45.732 212.914 45.528 213.274 45.384C213.634 45.232 214.022 45.156 214.438 45.156C214.854 45.156 215.23 45.224 215.566 45.36C215.91 45.496 216.198 45.692 216.43 45.948C216.67 46.204 216.854 46.516 216.982 46.884C217.11 47.244 217.174 47.652 217.174 48.108ZM221.581 46.752C221.453 46.544 221.273 46.376 221.041 46.248C220.809 46.112 220.549 46.044 220.261 46.044C220.133 46.044 220.005 46.06 219.877 46.092C219.749 46.116 219.633 46.16 219.529 46.224C219.433 46.28 219.353 46.356 219.289 46.452C219.233 46.54 219.205 46.652 219.205 46.788C219.205 47.028 219.313 47.208 219.529 47.328C219.745 47.44 220.069 47.544 220.501 47.64C220.773 47.704 221.025 47.78 221.257 47.868C221.489 47.956 221.689 48.068 221.857 48.204C222.033 48.332 222.169 48.488 222.265 48.672C222.361 48.856 222.409 49.072 222.409 49.32C222.409 49.656 222.345 49.94 222.217 50.172C222.089 50.404 221.917 50.596 221.701 50.748C221.493 50.892 221.253 50.996 220.981 51.06C220.709 51.124 220.429 51.156 220.141 51.156C219.709 51.156 219.285 51.072 218.869 50.904C218.461 50.736 218.121 50.48 217.849 50.136L218.653 49.452C218.805 49.676 219.013 49.864 219.277 50.016C219.549 50.168 219.845 50.244 220.165 50.244C220.309 50.244 220.445 50.232 220.573 50.208C220.709 50.176 220.829 50.128 220.933 50.064C221.045 50 221.133 49.916 221.197 49.812C221.261 49.708 221.293 49.576 221.293 49.416C221.293 49.152 221.165 48.956 220.909 48.828C220.661 48.7 220.293 48.58 219.805 48.468C219.613 48.42 219.417 48.364 219.217 48.3C219.025 48.228 218.849 48.132 218.689 48.012C218.529 47.892 218.397 47.744 218.293 47.568C218.197 47.384 218.149 47.16 218.149 46.896C218.149 46.592 218.209 46.332 218.329 46.116C218.457 45.892 218.621 45.712 218.821 45.576C219.021 45.432 219.249 45.328 219.505 45.264C219.761 45.192 220.025 45.156 220.297 45.156C220.705 45.156 221.097 45.236 221.473 45.396C221.857 45.556 222.153 45.788 222.361 46.092L221.581 46.752Z" fill="#87878B" fill-opacity="0.7"/>
</g>
<defs>
<linearGradient id="paint0_linear_682_91205" x1="25.0717" y1="27" x2="83.8636" y2="27" gradientUnits="userSpaceOnUse">
<stop stop-color="white" stop-opacity="0"/>
<stop offset="0.0898" stop-color="#FEF2DA" stop-opacity="0.1633"/>
<stop offset="0.2245" stop-color="#FDE1A8" stop-opacity="0.3824"/>
<stop offset="0.3605" stop-color="#FCD27D" stop-opacity="0.5714"/>
<stop offset="0.4948" stop-color="#FBC65A" stop-opacity="0.7258"/>
<stop offset="0.627" stop-color="#FBBC3E" stop-opacity="0.8457"/>
<stop offset="0.7566" stop-color="#FAB52B" stop-opacity="0.9313"/>
<stop offset="0.8823" stop-color="#FAB11F" stop-opacity="0.9827"/>
<stop offset="1" stop-color="#FAB01B"/>
</linearGradient>
<clipPath id="clip0_682_91205">
<rect width="266.863" height="54" fill="white"/>
</clipPath>
</defs>
</svg>
