<svg width="100%" height="100%" preserveAspectRatio="none" fill="none" xmlns="http://www.w3.org/2000/svg">
<mask id="mask0_0_1" style="mask-type:alpha" maskUnits="userSpaceOnUse" x="0" y="0" width="63" height="53">
<path d="M44.8666 0C46.4777 0 47.9637 0.802938 48.7549 2.1009L62.2351 24.2168C63.0021 25.4752 63.0021 27.0128 62.2351 28.2711L48.7548 50.3871C47.9637 51.685 46.4777 52.488 44.8666 52.488H18.1087C16.4977 52.488 15.0116 51.685 14.2205 50.3871L0.740281 28.2711C-0.0267074 27.0128 -0.0267088 25.4752 0.74028 24.2168L14.2205 2.1009C15.0116 0.802939 16.4976 0 18.1087 0H44.8666Z" fill="#F5B33C"/>
</mask>
<g mask="url(#mask0_0_1)">
<path d="M44.8666 0C46.4777 0 47.9637 0.802938 48.7549 2.1009L62.2351 24.2168C63.0021 25.4752 63.0021 27.0128 62.2351 28.2711L48.7548 50.3871C47.9637 51.685 46.4777 52.488 44.8666 52.488H18.1087C16.4977 52.488 15.0116 51.685 14.2205 50.3871L0.740281 28.2711C-0.0267074 27.0128 -0.0267088 25.4752 0.74028 24.2168L14.2205 2.1009C15.0116 0.802939 16.4976 0 18.1087 0H44.8666Z" fill="white"/>
<path d="M9.98712 -7.97705C11.8168 -7.97705 13.5043 -7.06473 14.4021 -5.59022L28.405 17.4076C29.2743 18.8352 29.2743 20.5791 28.405 22.0067L14.4021 45.0045C13.5043 46.479 11.8168 47.3914 9.98711 47.3914H-17.7817C-19.6114 47.3914 -21.2989 46.479 -22.1967 45.0045L-36.1996 22.0067C-37.0689 20.5791 -37.0689 18.8352 -36.1996 17.4076L-22.1967 -5.59022C-21.2989 -7.06473 -19.6114 -7.97705 -17.7817 -7.97705H9.98712Z" fill="#42C7BB" style="mix-blend-mode:multiply"/>
<path d="M47.0165 17.2866C48.84 17.2866 50.5228 18.1928 51.423 19.6595L65.1451 42.0172C66.0257 43.452 66.0257 45.2094 65.1451 46.6442L51.423 69.0019C50.5228 70.4686 48.84 71.3748 47.0165 71.3748H19.7402C17.9167 71.3748 16.2339 70.4686 15.3337 69.0019L1.61164 46.6442C0.731017 45.2094 0.731017 43.452 1.61164 42.0172L15.3337 19.6595C16.2339 18.1928 17.9167 17.2866 19.7402 17.2866H47.0165Z" fill="#B2A5D1"/>
<path d="M58.0218 -19.2007C59.8453 -19.2007 61.5281 -18.2945 62.4283 -16.8279L77.5262 7.77014C78.4069 9.20501 78.4069 10.9625 77.5262 12.3974L62.4283 36.9954C61.5281 38.462 59.8453 39.3682 58.0218 39.3682H27.9949C26.1715 39.3682 24.4887 38.462 23.5885 36.9954L8.4906 12.3974C7.6099 10.9625 7.6099 9.20501 8.4906 7.77014L23.5885 -16.8279C24.4887 -18.2945 26.1715 -19.2007 27.995 -19.2007H58.0218Z" fill="#73C8CC" style="mix-blend-mode:multiply"/>
<path d="M72.0662 29.0566C73.8904 29.0566 75.5738 29.9636 76.4737 31.4312L88.2204 50.5884C89.0997 52.0224 89.0997 53.7782 88.2204 55.2121L76.4737 74.3693C75.5738 75.837 73.8904 76.7439 72.0662 76.7439H48.7463C46.9221 76.7439 45.2387 75.837 44.3388 74.3693L32.5921 55.2121C31.7128 53.7782 31.7128 52.0224 32.5921 50.5884L44.3388 31.4312C45.2387 29.9636 46.9221 29.0566 48.7463 29.0566H72.0662Z" fill="#C7D6FF" style="mix-blend-mode:multiply"/>
</g>
</svg>
