<svg width="30" height="39" viewBox="0 0 30 39" fill="none" xmlns="http://www.w3.org/2000/svg">
<rect x="1" y="1" width="21" height="27" rx="1" fill="#4DB3B9" stroke="white"/>
<path d="M6 7H12" stroke="white" stroke-linecap="round" stroke-linejoin="bevel"/>
<path d="M6 12H17" stroke="white" stroke-linecap="round" stroke-linejoin="bevel"/>
<path d="M6 17H17" stroke="white" stroke-linecap="round" stroke-linejoin="bevel"/>
<path d="M6 22H17" stroke="white" stroke-linecap="round" stroke-linejoin="bevel"/>
<path d="M17.8857 37.2V22.7714H26.5429V37.2L22.2143 33.0775L17.8857 37.2Z" fill="#4DB3B9" stroke="white"/>
<mask id="path-7-inside-1_809_165" fill="white">
<path d="M29.4286 24.2143C29.4286 28.1987 26.1987 31.4286 22.2143 31.4286C18.23 31.4286 15 28.1987 15 24.2143C15 20.23 18.23 17 22.2143 17C26.1987 17 29.4286 20.23 29.4286 24.2143Z"/>
</mask>
<path d="M29.4286 24.2143C29.4286 28.1987 26.1987 31.4286 22.2143 31.4286C18.23 31.4286 15 28.1987 15 24.2143C15 20.23 18.23 17 22.2143 17C26.1987 17 29.4286 20.23 29.4286 24.2143Z" fill="#4DB3B9"/>
<path d="M28.4286 24.2143C28.4286 27.6464 25.6464 30.4286 22.2143 30.4286V32.4286C26.7509 32.4286 30.4286 28.7509 30.4286 24.2143H28.4286ZM22.2143 30.4286C18.7822 30.4286 16 27.6464 16 24.2143H14C14 28.7509 17.6777 32.4286 22.2143 32.4286V30.4286ZM16 24.2143C16 20.7822 18.7822 18 22.2143 18V16C17.6777 16 14 19.6777 14 24.2143H16ZM22.2143 18C25.6464 18 28.4286 20.7822 28.4286 24.2143H30.4286C30.4286 19.6777 26.7509 16 22.2143 16V18Z" fill="white" mask="url(#path-7-inside-1_809_165)"/>
</svg>