<svg width="18" height="18" viewBox="0 0 18 18" fill="none" xmlns="http://www.w3.org/2000/svg">
<path d="M2.59785 11.5543C2.34474 11.8071 2.14392 12.1072 2.00687 12.4376C1.86981 12.768 1.7992 13.1222 1.79908 13.4799C1.79896 13.8376 1.86932 14.1918 2.00615 14.5223C2.14297 14.8528 2.34358 15.1531 2.59651 15.406C2.84944 15.6589 3.14974 15.8595 3.48023 15.9964C3.81072 16.1332 4.16494 16.2036 4.52264 16.2034C4.88034 16.2033 5.23451 16.1327 5.5649 15.9957C5.8953 15.8586 6.19546 15.6578 6.44822 15.4047L8.66674 13.1862C9.04604 13.2693 9.4336 13.3089 9.82187 13.3041L7.08474 16.0412C6.4051 16.7195 5.48399 17.1002 4.5238 17.0997C3.56361 17.0992 2.64289 16.7176 1.96393 16.0386C1.28497 15.3596 0.903322 14.4389 0.902833 13.4787C0.902343 12.5185 1.28306 11.5974 1.96132 10.9178L5.68444 7.19466C6.09824 6.7787 6.60711 6.46977 7.16707 6.29456C7.72703 6.11935 8.32123 6.08314 8.89832 6.18904C9.47541 6.29494 10.018 6.53979 10.4793 6.9024C10.9405 7.26502 11.3066 7.73451 11.5457 8.27028L10.8502 8.96578C10.714 8.51559 10.4634 8.1084 10.1229 7.78395C9.78231 7.4595 9.36348 7.22887 8.90722 7.11458C8.45097 7.00028 7.97287 7.00622 7.5196 7.13182C7.06632 7.25741 6.65334 7.49837 6.32097 7.83118L2.59785 11.5543ZM10.9191 1.96002L8.18188 4.6972C8.57016 4.69241 8.95771 4.73197 9.33701 4.81513L11.5556 2.59655C11.8084 2.34369 12.1086 2.14311 12.4389 2.00626C12.7692 1.86941 13.1233 1.79896 13.4808 1.79895C13.8384 1.79893 14.1925 1.86935 14.5228 2.00617C14.8532 2.143 15.1533 2.34355 15.4061 2.59639C15.659 2.84922 15.8595 3.14938 15.9964 3.47973C16.1332 3.81007 16.2036 4.16413 16.2036 4.52169C16.2036 4.87925 16.1331 5.23331 15.9963 5.56364C15.8594 5.89398 15.6588 6.19412 15.406 6.44693L11.6829 10.17C11.3505 10.5029 10.9375 10.7439 10.4842 10.8695C10.031 10.9951 9.55285 11.001 9.09658 10.8867C8.64031 10.7725 8.22147 10.5418 7.88093 10.2174C7.54038 9.89291 7.28978 9.4857 7.15356 9.03549L6.45804 9.73101C6.6972 10.2668 7.06323 10.7363 7.5245 11.0989C7.98576 11.4615 8.52839 11.7063 9.10549 11.8122C9.68259 11.9181 10.2768 11.8819 10.8368 11.7067C11.3967 11.5315 11.9056 11.2225 12.3194 10.8066L16.0425 7.08343C16.7219 6.40402 17.1036 5.48255 17.1036 4.52172C17.1036 3.5609 16.7219 2.63942 16.0425 1.96002C15.3631 1.28061 14.4416 0.898925 13.4808 0.898926C12.52 0.898927 11.5985 1.28061 10.9191 1.96002Z" fill="#2A2A2A"/>
</svg>
