<svg width="100%" height="100%" preserveAspectRatio="none" fill="none" xmlns="http://www.w3.org/2000/svg">
  <path d="M46.671 57.2006H1.50684V120.466H46.671V57.2006Z" fill="#8FD6FF"/>
  <path d="M66.749 59.736H44.167V117.94H66.749V59.736Z" fill="#FF9D94"/>
  <path d="M1.50684 4.06323L35.3801 33.1653L65.4896 5.32854V58.4716H1.50684V4.06323Z" fill="#F9DC5C"/>
  <path fill-rule="evenodd" clip-rule="evenodd" d="M67.5147 122.321H62.4965H5.75164H0.733398V117.26L0.733406 12.3369V0.831543L9.14264 8.60601L34.1243 31.7018L59.1058 8.60601L67.5147 0.831555V12.3369V117.26V122.321ZM34.1243 38.5676L10.7699 16.9764L5.75168 12.3369V19.2028V54.9635H62.4919V60.0247H48.6081V117.255H43.5899V60.0247H5.75168L5.75164 112.199V117.26H10.7699H57.4783H62.4965V112.199V19.2028V12.3369L57.4783 16.9764L34.1243 38.5676Z" fill="#282525"/>
</svg>
