<svg width="130" height="15" viewBox="0 0 130 15" fill="none" xmlns="http://www.w3.org/2000/svg">
<g clip-path="url(#clip0_1632_14041)">
<path d="M3.34377 2.9939H3.04361C2.6765 2.9939 2.37891 3.29149 2.37891 3.6586V14.0132C2.37891 14.3803 2.6765 14.6778 3.04361 14.6778H3.34377C3.71088 14.6778 4.00849 14.3803 4.00849 14.0132V3.6586C4.00849 3.29149 3.71088 2.9939 3.34377 2.9939Z" fill="url(#paint0_linear_1632_14041)"/>
<path d="M0.964867 0.678223H0.664706C0.297598 0.678223 0 0.975821 0 1.34293V14.0132C0 14.3803 0.297598 14.6779 0.664706 14.6779H0.964867C1.33197 14.6779 1.62957 14.3803 1.62957 14.0132V1.34293C1.62957 0.975821 1.33197 0.678223 0.964867 0.678223Z" fill="url(#paint1_linear_1632_14041)"/>
<path d="M12.8555 2.9939H12.5553C12.1882 2.9939 11.8906 3.29149 11.8906 3.6586V14.0132C11.8906 14.3803 12.1882 14.6778 12.5553 14.6778H12.8555C13.2226 14.6778 13.5202 14.3803 13.5202 14.0132V3.6586C13.5202 3.29149 13.2226 2.9939 12.8555 2.9939Z" fill="url(#paint2_linear_1632_14041)"/>
<path d="M15.2324 0.678223H14.9323C14.5652 0.678223 14.2676 0.975821 14.2676 1.34293V14.0132C14.2676 14.3803 14.5652 14.6779 14.9323 14.6779H15.2324C15.5996 14.6779 15.8971 14.3803 15.8971 14.0132V1.34293C15.8971 0.975821 15.5996 0.678223 15.2324 0.678223Z" fill="url(#paint3_linear_1632_14041)"/>
<path d="M8.09962 7.62695H7.79946C7.43238 7.62695 7.13477 7.92456 7.13477 8.29168V14.0133C7.13477 14.3804 7.43238 14.678 7.79946 14.678H8.09962C8.46674 14.678 8.76435 14.3804 8.76435 14.0133V8.29168C8.76435 7.92456 8.46674 7.62695 8.09962 7.62695Z" fill="url(#paint4_linear_1632_14041)"/>
<path d="M10.4766 5.32593H10.1764C9.80933 5.32593 9.51172 5.62354 9.51172 5.99066V14.0052C9.51172 14.3724 9.80933 14.67 10.1764 14.67H10.4766C10.8437 14.67 11.1413 14.3724 11.1413 14.0052V5.99066C11.1413 5.62354 10.8437 5.32593 10.4766 5.32593Z" fill="url(#paint5_linear_1632_14041)"/>
<path d="M5.72071 5.32593H5.42055C5.05347 5.32593 4.75586 5.62354 4.75586 5.99066V14.0052C4.75586 14.3724 5.05347 14.67 5.42055 14.67H5.72071C6.08783 14.67 6.38544 14.3724 6.38544 14.0052V5.99066C6.38544 5.62354 6.08783 5.32593 5.72071 5.32593Z" fill="url(#paint6_linear_1632_14041)"/>
<path d="M21.551 14.67C21.462 14.67 21.3886 14.6411 21.3309 14.5832C21.2728 14.5255 21.2441 14.4521 21.2441 14.3629V5.64623C21.2441 5.54847 21.2728 5.47062 21.3309 5.41268C21.3886 5.35497 21.462 5.32593 21.551 5.32593H22.2185C22.3254 5.32593 22.4054 5.35257 22.459 5.40599C22.5123 5.45942 22.5432 5.50394 22.5521 5.53953L25.382 10.9324L28.2253 5.53953C28.2432 5.50394 28.2767 5.45946 28.3255 5.40599C28.3743 5.35253 28.4525 5.32593 28.559 5.32593H29.2134C29.3111 5.32593 29.3889 5.35497 29.447 5.41268C29.5047 5.47062 29.5337 5.54843 29.5337 5.64623V14.3628C29.5337 14.452 29.5047 14.5254 29.447 14.5831C29.3889 14.6411 29.3111 14.6699 29.2134 14.6699H28.559C28.47 14.6699 28.3967 14.641 28.3389 14.5831C28.2809 14.5254 28.2522 14.452 28.2522 14.3628V7.79544L26.0231 12.1469C25.9873 12.2362 25.9341 12.305 25.8629 12.354C25.7914 12.403 25.7027 12.4274 25.5959 12.4274H25.182C25.0662 12.4274 24.975 12.403 24.9083 12.354C24.8416 12.305 24.7858 12.2361 24.7414 12.1469L22.5123 7.79544V14.3628C22.5123 14.452 22.4833 14.5254 22.4256 14.5831C22.3675 14.6411 22.2941 14.6699 22.2055 14.6699H21.5511L21.551 14.67Z" fill="#292C4F"/>
<path d="M35.1935 14.8035C34.437 14.8035 33.7871 14.672 33.2445 14.4096C32.7018 14.1472 32.2836 13.7422 31.9897 13.1949C31.6962 12.6476 31.5312 11.9602 31.4958 11.1326C31.4869 10.7412 31.4824 10.365 31.4824 10.0046C31.4824 9.64409 31.4869 9.26833 31.4958 8.87668C31.5312 8.05806 31.7029 7.37495 32.0098 6.82764C32.3167 6.28036 32.7439 5.8712 33.2914 5.59952C33.8385 5.32817 34.4728 5.19238 35.1935 5.19238C35.9231 5.19238 36.5619 5.32813 37.109 5.59952C37.6561 5.8712 38.0856 6.28036 38.3974 6.82764C38.7085 7.37495 38.878 8.05806 38.9043 8.87668C38.9223 9.2683 38.9309 9.64409 38.9309 10.0046C38.9309 10.365 38.9219 10.7412 38.9043 11.1326C38.878 11.9602 38.7153 12.6476 38.4169 13.1949C38.1186 13.7422 37.6986 14.1472 37.1556 14.4096C36.613 14.672 35.9589 14.8035 35.1935 14.8035H35.1935ZM35.1935 13.6688C35.8788 13.6688 36.4371 13.4641 36.8688 13.0548C37.3001 12.6455 37.534 11.9826 37.5694 11.0658C37.5873 10.6654 37.596 10.3073 37.596 9.9913C37.596 9.67543 37.5873 9.3218 37.5694 8.93018C37.5515 8.31599 37.4383 7.81786 37.2293 7.43496C37.02 7.05243 36.7418 6.77218 36.395 6.59417C36.0479 6.41615 35.6472 6.3271 35.1935 6.3271C34.7574 6.3271 34.366 6.41615 34.0188 6.59417C33.6717 6.77218 33.3935 7.05243 33.1846 7.43496C32.9752 7.81786 32.8576 8.31599 32.8307 8.93018C32.8218 9.3218 32.8173 9.67543 32.8173 9.9913C32.8173 10.3073 32.8218 10.6654 32.8307 11.0658C32.8661 11.9826 33.1022 12.6455 33.5383 13.0548C33.9741 13.4641 34.5261 13.6688 35.1935 13.6688Z" fill="#292C4F"/>
<path d="M41.1859 14.67C41.0878 14.67 41.0123 14.6411 40.9589 14.5832C40.9056 14.5255 40.8789 14.4521 40.8789 14.3629V5.64623C40.8789 5.54847 40.9056 5.47062 40.9589 5.41268C41.0123 5.35497 41.0878 5.32593 41.1859 5.32593H44.8435C45.5108 5.32593 46.056 5.43504 46.4787 5.65292C46.9014 5.87118 47.2128 6.16691 47.4131 6.54068C47.613 6.91441 47.7133 7.33289 47.7133 7.79544C47.7133 8.16045 47.6532 8.47403 47.533 8.73647C47.4131 8.99903 47.2636 9.21267 47.0862 9.37727C46.9077 9.5421 46.7345 9.6689 46.5655 9.75776C46.9126 9.92684 47.2215 10.2028 47.4931 10.5853C47.7644 10.968 47.9004 11.4308 47.9004 11.9736C47.9004 12.463 47.7888 12.9126 47.5668 13.3217C47.344 13.7312 47.0126 14.0582 46.5722 14.3029C46.1315 14.5478 45.5863 14.67 44.9367 14.67H41.1859ZM42.1868 9.27706H44.6433C45.2125 9.27706 45.6442 9.14597 45.9376 8.88342C46.2318 8.62101 46.3784 8.26273 46.3784 7.8087C46.3784 7.35464 46.2318 7.00792 45.9376 6.7675C45.6442 6.52726 45.2125 6.40718 44.6433 6.40718H42.1868V9.27706ZM42.1868 13.5887H44.7635C45.3414 13.5887 45.7866 13.4331 46.0984 13.1215C46.4095 12.8101 46.5655 12.4274 46.5655 11.9736C46.5655 11.5019 46.4095 11.1125 46.0984 10.8056C45.7866 10.4985 45.3414 10.3451 44.7635 10.3451H42.1868V13.5887Z" fill="#292C4F"/>
<path d="M50.1038 14.67C50.0058 14.67 49.9303 14.6411 49.8769 14.5832C49.8239 14.5255 49.7969 14.4521 49.7969 14.3629V5.63301C49.7969 5.54415 49.8239 5.47062 49.8769 5.41268C49.9303 5.35497 50.0058 5.32593 50.1038 5.32593H50.8113C50.9 5.32593 50.974 5.35497 51.0315 5.41268C51.0894 5.47062 51.1183 5.54418 51.1183 5.63301V14.3628C51.1183 14.452 51.0894 14.5254 51.0315 14.5831C50.974 14.6411 50.9 14.6699 50.8113 14.6699H50.1038V14.67Z" fill="#292C4F"/>
<path d="M53.7464 14.67C53.6487 14.67 53.5728 14.6411 53.5199 14.5832C53.4665 14.5255 53.4395 14.4521 53.4395 14.3629V5.63301C53.4395 5.54415 53.4665 5.47062 53.5199 5.41268C53.5728 5.35497 53.6487 5.32593 53.7464 5.32593H54.4543C54.543 5.32593 54.6143 5.35497 54.6677 5.41268C54.721 5.47062 54.7477 5.54418 54.7477 5.63301V13.5086H59.1929C59.2906 13.5086 59.3665 13.5377 59.4195 13.5954C59.4732 13.6533 59.4999 13.7311 59.4999 13.8289V14.3628C59.4999 14.452 59.4732 14.5254 59.4195 14.5831C59.3665 14.6411 59.2906 14.6699 59.1929 14.6699H53.7464V14.67Z" fill="#292C4F"/>
<path d="M61.262 14.67C61.164 14.67 61.0885 14.6411 61.0351 14.5832C60.9818 14.5255 60.9551 14.4521 60.9551 14.3629V5.64623C60.9551 5.54847 60.9818 5.47062 61.0351 5.41268C61.0885 5.35497 61.164 5.32593 61.262 5.32593H66.775C66.8727 5.32593 66.9486 5.35497 67.002 5.41268C67.0553 5.47062 67.0824 5.54843 67.0824 5.64623V6.15349C67.0824 6.25163 67.0553 6.32708 67.002 6.38051C66.9486 6.43378 66.8727 6.46057 66.775 6.46057H62.2367V9.38392H66.4816C66.5789 9.38392 66.6552 9.41281 66.7081 9.47071C66.7615 9.52857 66.7882 9.60642 66.7882 9.70422V10.1981C66.7882 10.2871 66.7615 10.3607 66.7081 10.4184C66.6552 10.4763 66.5789 10.5052 66.4816 10.5052H62.2367V13.5352H66.8817C66.9798 13.5352 67.0553 13.562 67.1087 13.6153C67.1624 13.6687 67.1887 13.7446 67.1887 13.8423V14.3628C67.1887 14.452 67.1624 14.5254 67.1087 14.5831C67.0553 14.641 66.9798 14.6698 66.8817 14.6698H61.262V14.67Z" fill="#292C4F"/>
<path d="M74.3295 14.67C74.2404 14.67 74.1671 14.6411 74.1093 14.5832C74.0514 14.5255 74.0225 14.4521 74.0225 14.3629V6.51404H71.4593C71.3703 6.51404 71.297 6.48518 71.2391 6.42728C71.1813 6.36935 71.1523 6.29601 71.1523 6.20696V5.64623C71.1523 5.54847 71.1813 5.47062 71.2391 5.41268C71.297 5.35497 71.3703 5.32593 71.4593 5.32593H77.8936C77.9912 5.32593 78.069 5.35497 78.1269 5.41268C78.1851 5.47062 78.2137 5.54843 78.2137 5.64623V6.20696C78.2137 6.29601 78.1851 6.36935 78.1269 6.42728C78.0694 6.48522 77.9912 6.51404 77.8936 6.51404H75.3439V14.3628C75.3439 14.452 75.315 14.5254 75.2571 14.5831C75.1993 14.6411 75.1215 14.6699 75.0238 14.6699H74.3295V14.67Z" fill="#292C4F"/>
<path d="M82.8594 14.8035C82.1031 14.8035 81.4531 14.672 80.9106 14.4096C80.368 14.1472 79.9495 13.7422 79.6557 13.1949C79.3622 12.6476 79.1973 11.9602 79.162 11.1326C79.1529 10.7412 79.1484 10.365 79.1484 10.0046C79.1484 9.64409 79.1529 9.26833 79.162 8.87668C79.1973 8.05806 79.369 7.37495 79.6759 6.82764C79.9829 6.28036 80.4101 5.8712 80.9575 5.59952C81.5046 5.32817 82.1388 5.19238 82.8594 5.19238C83.5891 5.19238 84.2278 5.32813 84.7753 5.59952C85.3223 5.8712 85.7518 6.28036 86.0632 6.82764C86.3747 7.37495 86.5438 8.05806 86.5705 8.87668C86.5881 9.2683 86.5971 9.64409 86.5971 10.0046C86.5971 10.365 86.5881 10.7412 86.5705 11.1326C86.5438 11.9602 86.3815 12.6476 86.0831 13.1949C85.7848 13.7422 85.3648 14.1472 84.8218 14.4096C84.2789 14.672 83.6248 14.8035 82.8594 14.8035ZM82.8594 13.6688C83.5448 13.6688 84.1031 13.4641 84.5348 13.0548C84.9661 12.6455 85.2002 11.9826 85.2355 11.0658C85.2532 10.6654 85.2622 10.3073 85.2622 9.9913C85.2622 9.67543 85.2532 9.3218 85.2355 8.93018C85.2175 8.31599 85.1044 7.81786 84.8955 7.43496C84.6862 7.05243 84.4078 6.77218 84.061 6.59417C83.7138 6.41615 83.3133 6.3271 82.8594 6.3271C82.4236 6.3271 82.0321 6.41615 81.6849 6.59417C81.3378 6.77218 81.0597 7.05243 80.8505 7.43496C80.6412 7.81786 80.5236 8.31599 80.4969 8.93018C80.4879 9.3218 80.4834 9.67543 80.4834 9.9913C80.4834 10.3073 80.4879 10.6654 80.4969 11.0658C80.5322 11.9826 80.7682 12.6455 81.2044 13.0548C81.6402 13.4641 82.1922 13.6688 82.8594 13.6688Z" fill="#292C4F"/>
<path d="M91.8966 14.8035C91.1402 14.8035 90.4902 14.672 89.9477 14.4096C89.4048 14.1472 88.9866 13.7422 88.6928 13.1949C88.3993 12.6476 88.2344 11.9602 88.1991 11.1326C88.1901 10.7412 88.1855 10.365 88.1855 10.0046C88.1855 9.64409 88.1901 9.26833 88.1991 8.87668C88.2344 8.05806 88.4061 7.37495 88.7131 6.82764C89.0196 6.28036 89.4468 5.8712 89.9946 5.59952C90.5417 5.32817 91.1759 5.19238 91.8966 5.19238C92.6262 5.19238 93.2649 5.32813 93.812 5.59952C94.3594 5.8712 94.7885 6.28036 95.1003 6.82764C95.4118 7.37495 95.5809 8.05806 95.6072 8.87668C95.6252 9.2683 95.6342 9.64409 95.6342 10.0046C95.6342 10.365 95.6252 10.7412 95.6072 11.1326C95.5809 11.9602 95.4186 12.6476 95.1203 13.1949C94.8219 13.7422 94.4019 14.1472 93.8586 14.4096C93.316 14.672 92.6619 14.8035 91.8966 14.8035ZM91.8966 13.6688C92.5819 13.6688 93.1402 13.4641 93.5719 13.0548C94.0032 12.6455 94.2369 11.9826 94.2726 11.0658C94.2903 10.6654 94.2993 10.3073 94.2993 9.9913C94.2993 9.67543 94.2903 9.3218 94.2726 8.93018C94.2546 8.31599 94.1415 7.81786 93.9326 7.43496C93.7229 7.05243 93.4449 6.77218 93.0981 6.59417C92.751 6.41615 92.3504 6.3271 91.8966 6.3271C91.4603 6.3271 91.0692 6.41615 90.722 6.59417C90.3749 6.77218 90.0965 7.05243 89.8876 7.43496C89.6783 7.81786 89.5607 8.31599 89.5336 8.93018C89.525 9.3218 89.5205 9.67543 89.5205 9.9913C89.5205 10.3073 89.525 10.6654 89.5336 11.0658C89.5693 11.9826 89.8053 12.6455 90.2415 13.0548C90.6773 13.4641 91.2293 13.6688 91.8966 13.6688Z" fill="#292C4F"/>
<path d="M97.8909 14.67C97.7929 14.67 97.7174 14.6411 97.664 14.5832C97.611 14.5255 97.584 14.4521 97.584 14.3629V5.63301C97.584 5.54415 97.611 5.47062 97.664 5.41268C97.7174 5.35497 97.7929 5.32593 97.8909 5.32593H98.5984C98.6871 5.32593 98.7589 5.35497 98.8118 5.41268C98.8656 5.47062 98.8919 5.54418 98.8919 5.63301V13.5086H103.337C103.435 13.5086 103.511 13.5377 103.564 13.5954C103.618 13.6533 103.644 13.7311 103.644 13.8289V14.3628C103.644 14.452 103.618 14.5254 103.564 14.5831C103.511 14.6411 103.435 14.6699 103.337 14.6699H97.8909V14.67Z" fill="#292C4F"/>
<path d="M105.405 14.67C105.307 14.67 105.231 14.6411 105.178 14.5832C105.124 14.5255 105.098 14.4521 105.098 14.3629V5.64623C105.098 5.54847 105.124 5.47062 105.178 5.41268C105.231 5.35497 105.307 5.32593 105.405 5.32593H109.062C109.73 5.32593 110.275 5.43504 110.697 5.65292C111.12 5.87118 111.432 6.16691 111.632 6.54068C111.832 6.91441 111.932 7.33289 111.932 7.79544C111.932 8.16045 111.872 8.47403 111.752 8.73647C111.632 8.99903 111.483 9.21267 111.305 9.37727C111.127 9.5421 110.953 9.6689 110.784 9.75776C111.131 9.92684 111.441 10.2028 111.712 10.5853C111.983 10.968 112.119 11.4308 112.119 11.9736C112.119 12.463 112.008 12.9126 111.786 13.3217C111.563 13.7312 111.232 14.0582 110.791 14.3029C110.35 14.5478 109.805 14.67 109.155 14.67H105.405ZM106.406 9.27706H108.862C109.432 9.27706 109.863 9.14597 110.157 8.88342C110.451 8.62101 110.597 8.26273 110.597 7.8087C110.597 7.35464 110.451 7.00792 110.157 6.7675C109.863 6.52726 109.432 6.40718 108.862 6.40718H106.406V9.27706ZM106.406 13.5887H108.982C109.56 13.5887 110.005 13.4331 110.317 13.1215C110.629 12.8101 110.784 12.4274 110.784 11.9736C110.784 11.5019 110.629 11.1125 110.317 10.8056C110.005 10.4985 109.56 10.3451 108.982 10.3451H106.406V13.5887Z" fill="#292C4F"/>
<path d="M117.365 14.8035C116.609 14.8035 115.959 14.672 115.416 14.4096C114.874 14.1472 114.455 13.7422 114.162 13.1949C113.868 12.6476 113.703 11.9602 113.668 11.1326C113.659 10.7412 113.654 10.365 113.654 10.0046C113.654 9.64409 113.659 9.26833 113.668 8.87668C113.703 8.05806 113.875 7.37495 114.182 6.82764C114.489 6.28036 114.916 5.8712 115.463 5.59952C116.01 5.32817 116.645 5.19238 117.365 5.19238C118.095 5.19238 118.734 5.32813 119.281 5.59952C119.828 5.8712 120.258 6.28036 120.569 6.82764C120.881 7.37495 121.05 8.05806 121.076 8.87668C121.094 9.2683 121.103 9.64409 121.103 10.0046C121.103 10.365 121.094 10.7412 121.076 11.1326C121.05 11.9602 120.887 12.6476 120.589 13.1949C120.291 13.7422 119.871 14.1472 119.327 14.4096C118.785 14.672 118.131 14.8035 117.365 14.8035ZM117.365 13.6688C118.051 13.6688 118.609 13.4641 119.041 13.0548C119.472 12.6455 119.706 11.9826 119.741 11.0658C119.759 10.6654 119.768 10.3073 119.768 9.9913C119.768 9.67543 119.759 9.3218 119.741 8.93018C119.723 8.31599 119.61 7.81786 119.401 7.43496C119.192 7.05243 118.914 6.77218 118.567 6.59417C118.22 6.41615 117.819 6.3271 117.365 6.3271C116.929 6.3271 116.538 6.41615 116.191 6.59417C115.844 6.77218 115.566 7.05243 115.356 7.43496C115.147 7.81786 115.029 8.31599 115.003 8.93018C114.994 9.3218 114.989 9.67543 114.989 9.9913C114.989 10.3073 114.994 10.6654 115.003 11.0658C115.038 11.9826 115.274 12.6455 115.71 13.0548C116.146 13.4641 116.698 13.6688 117.365 13.6688Z" fill="#292C4F"/>
<path d="M122.183 14.6701C122.111 14.6701 122.047 14.6435 121.989 14.5901C121.931 14.5366 121.902 14.4744 121.902 14.4031C121.902 14.3677 121.909 14.3344 121.923 14.3031C121.936 14.272 121.947 14.2476 121.956 14.2297L125.013 9.91807L122.103 5.76656C122.076 5.71328 122.062 5.65538 122.062 5.5932C122.062 5.52207 122.089 5.45967 122.142 5.40624C122.196 5.35277 122.259 5.32617 122.33 5.32617H123.13C123.219 5.32617 123.291 5.34627 123.344 5.38629C123.397 5.42634 123.446 5.48198 123.491 5.55315L125.84 8.89028L128.176 5.55315C128.211 5.48202 128.258 5.42634 128.316 5.38629C128.374 5.34627 128.443 5.32617 128.523 5.32617H129.284C129.356 5.32617 129.418 5.35277 129.471 5.40624C129.525 5.45967 129.551 5.52207 129.551 5.5932C129.551 5.65542 129.533 5.71328 129.498 5.76656L126.628 9.93144L129.671 14.2297C129.689 14.2476 129.702 14.272 129.711 14.303C129.72 14.3343 129.725 14.3677 129.725 14.4031C129.725 14.4744 129.698 14.5366 129.644 14.59C129.591 14.6435 129.525 14.6701 129.445 14.6701H128.63C128.55 14.6701 128.481 14.648 128.423 14.6034C128.365 14.5589 128.314 14.5099 128.27 14.4565L125.787 10.9858L123.317 14.4565C123.273 14.5099 123.224 14.5589 123.17 14.6034C123.117 14.648 123.046 14.6701 122.957 14.6701H122.183V14.6701Z" fill="#292C4F"/>
</g>
<defs>
<linearGradient id="paint0_linear_1632_14041" x1="-1.12423" y1="8.83588" x2="17.1074" y2="8.83588" gradientUnits="userSpaceOnUse">
<stop stop-color="#D31E4B"/>
<stop offset="0.0478" stop-color="#CF2452"/>
<stop offset="0.1179" stop-color="#C53765"/>
<stop offset="0.2015" stop-color="#B55685"/>
<stop offset="0.295" stop-color="#9F80B2"/>
<stop offset="0.3415" stop-color="#9398CB"/>
<stop offset="0.4104" stop-color="#7E99CE"/>
<stop offset="0.5515" stop-color="#489ED5"/>
<stop offset="0.6529" stop-color="#1FA2DC"/>
<stop offset="0.7131" stop-color="#2BA3B4"/>
<stop offset="0.7932" stop-color="#39A685"/>
<stop offset="0.8643" stop-color="#43A763"/>
<stop offset="0.9229" stop-color="#49A84E"/>
<stop offset="0.9617" stop-color="#4CA947"/>
</linearGradient>
<linearGradient id="paint1_linear_1632_14041" x1="-1.14693" y1="7.67808" x2="17.0827" y2="7.67808" gradientUnits="userSpaceOnUse">
<stop stop-color="#D31E4B"/>
<stop offset="0.0473" stop-color="#CF2452"/>
<stop offset="0.1165" stop-color="#C53765"/>
<stop offset="0.1992" stop-color="#B55685"/>
<stop offset="0.2916" stop-color="#9F80B2"/>
<stop offset="0.3375" stop-color="#9398CB"/>
<stop offset="0.4078" stop-color="#7E99CE"/>
<stop offset="0.5519" stop-color="#489ED5"/>
<stop offset="0.6554" stop-color="#1FA2DC"/>
<stop offset="0.715" stop-color="#2BA3B4"/>
<stop offset="0.7946" stop-color="#39A685"/>
<stop offset="0.8651" stop-color="#43A763"/>
<stop offset="0.9232" stop-color="#49A84E"/>
<stop offset="0.9617" stop-color="#4CA947"/>
</linearGradient>
<linearGradient id="paint2_linear_1632_14041" x1="-0.45968" y1="8.83588" x2="16.491" y2="8.83588" gradientUnits="userSpaceOnUse">
<stop stop-color="#D31E4B"/>
<stop offset="0.05" stop-color="#CF2452"/>
<stop offset="0.1233" stop-color="#C53765"/>
<stop offset="0.2108" stop-color="#B55685"/>
<stop offset="0.3086" stop-color="#9F80B2"/>
<stop offset="0.3572" stop-color="#9398CB"/>
<stop offset="0.4238" stop-color="#7E99CE"/>
<stop offset="0.5605" stop-color="#489ED5"/>
<stop offset="0.6587" stop-color="#1FA2DC"/>
<stop offset="0.7177" stop-color="#2BA3B4"/>
<stop offset="0.7964" stop-color="#39A685"/>
<stop offset="0.8661" stop-color="#43A763"/>
<stop offset="0.9236" stop-color="#49A84E"/>
<stop offset="0.9617" stop-color="#4CA947"/>
</linearGradient>
<linearGradient id="paint3_linear_1632_14041" x1="-0.46079" y1="7.67808" x2="16.4899" y2="7.67808" gradientUnits="userSpaceOnUse">
<stop stop-color="#D31E4B"/>
<stop offset="0.05" stop-color="#CF2452"/>
<stop offset="0.1233" stop-color="#C53765"/>
<stop offset="0.2108" stop-color="#B55685"/>
<stop offset="0.3086" stop-color="#9F80B2"/>
<stop offset="0.3572" stop-color="#9398CB"/>
<stop offset="0.4238" stop-color="#7E99CE"/>
<stop offset="0.5605" stop-color="#489ED5"/>
<stop offset="0.6587" stop-color="#1FA2DC"/>
<stop offset="0.7177" stop-color="#2BA3B4"/>
<stop offset="0.7964" stop-color="#39A685"/>
<stop offset="0.8661" stop-color="#43A763"/>
<stop offset="0.9236" stop-color="#49A84E"/>
<stop offset="0.9617" stop-color="#4CA947"/>
</linearGradient>
<linearGradient id="paint4_linear_1632_14041" x1="-1.03797" y1="11.1525" x2="17.1168" y2="11.1525" gradientUnits="userSpaceOnUse">
<stop stop-color="#D31E4B"/>
<stop offset="0.0472" stop-color="#CF2452"/>
<stop offset="0.1164" stop-color="#C53765"/>
<stop offset="0.199" stop-color="#B55685"/>
<stop offset="0.2913" stop-color="#9F80B2"/>
<stop offset="0.3372" stop-color="#9398CB"/>
<stop offset="0.4065" stop-color="#7E99CE"/>
<stop offset="0.5485" stop-color="#489ED5"/>
<stop offset="0.6505" stop-color="#1FA2DC"/>
<stop offset="0.7111" stop-color="#2BA3B4"/>
<stop offset="0.7919" stop-color="#39A685"/>
<stop offset="0.8636" stop-color="#43A763"/>
<stop offset="0.9226" stop-color="#49A84E"/>
<stop offset="0.9617" stop-color="#4CA947"/>
</linearGradient>
<linearGradient id="paint5_linear_1632_14041" x1="-0.460527" y1="9.99793" x2="16.4902" y2="9.99793" gradientUnits="userSpaceOnUse">
<stop stop-color="#D31E4B"/>
<stop offset="0.05" stop-color="#CF2452"/>
<stop offset="0.1233" stop-color="#C53765"/>
<stop offset="0.2108" stop-color="#B55685"/>
<stop offset="0.3086" stop-color="#9F80B2"/>
<stop offset="0.3572" stop-color="#9398CB"/>
<stop offset="0.4238" stop-color="#7E99CE"/>
<stop offset="0.5605" stop-color="#489ED5"/>
<stop offset="0.6587" stop-color="#1FA2DC"/>
<stop offset="0.7177" stop-color="#2BA3B4"/>
<stop offset="0.7964" stop-color="#39A685"/>
<stop offset="0.8661" stop-color="#43A763"/>
<stop offset="0.9236" stop-color="#49A84E"/>
<stop offset="0.9617" stop-color="#4CA947"/>
</linearGradient>
<linearGradient id="paint6_linear_1632_14041" x1="-1.07922" y1="9.99792" x2="17.0881" y2="9.99792" gradientUnits="userSpaceOnUse">
<stop stop-color="#D31E4B"/>
<stop offset="0.0472" stop-color="#CF2452"/>
<stop offset="0.1163" stop-color="#C53765"/>
<stop offset="0.1988" stop-color="#B55685"/>
<stop offset="0.291" stop-color="#9F80B2"/>
<stop offset="0.3369" stop-color="#9398CB"/>
<stop offset="0.4062" stop-color="#7E99CE"/>
<stop offset="0.5482" stop-color="#489ED5"/>
<stop offset="0.6503" stop-color="#1FA2DC"/>
<stop offset="0.7109" stop-color="#2BA3B4"/>
<stop offset="0.7918" stop-color="#39A685"/>
<stop offset="0.8635" stop-color="#43A763"/>
<stop offset="0.9225" stop-color="#49A84E"/>
<stop offset="0.9617" stop-color="#4CA947"/>
</linearGradient>
<clipPath id="clip0_1632_14041">
<rect width="130" height="14.2775" fill="white" transform="translate(0 0.678223)"/>
</clipPath>
</defs>
</svg>
