<svg
   width="208" height="40" viewBox="0 0 208 40" fill="none"
   xmlns="http://www.w3.org/2000/svg">
  <path
     d="m 54.669259,13.886644 c -0.0586,0.133 -0.1532,0.2471 -0.2732,0.3298 -0.1122,0.0667 -0.2411,0.1004 -0.3717,0.0973 -0.1723,-0.009 -0.3387,-0.0651 -0.4811,-0.1622 -0.1785,-0.1081 -0.3899,-0.2305 -0.6341,-0.3671 -0.2727,-0.1475 -0.5581,-0.2704 -0.8528,-0.3672 -0.3731,-0.1159 -0.7626,-0.1707 -1.1534,-0.1622 -0.3536,-0.0075 -0.7062,0.0399 -1.0451,0.1405 -0.2729,0.0834 -0.5268,0.219 -0.7473,0.3993 -0.196,0.1579 -0.3515,0.3599 -0.4538,0.5893 -0.101,0.247 -0.1511,0.5117 -0.1475,0.7783 -0.0111,0.3281 0.0982,0.6489 0.3074,0.9026 0.2253,0.2575 0.5005,0.4671 0.8091,0.6163 0.3695,0.1822 0.7534,0.3341 1.1478,0.454 0.4304,0.1334 0.8676,0.2762 1.3117,0.4284 0.447,0.1558 0.8849,0.3363 1.3117,0.5406 0.4194,0.1944 0.8065,0.4514 1.1478,0.7622 0.3437,0.3181 0.6189,0.7024 0.8088,1.1296 0.2178,0.5125 0.3226,1.0654 0.3074,1.6216 0.0047,0.6656 -0.1177,1.3259 -0.3606,1.946 -0.2338,0.5941 -0.5922,1.1318 -1.0513,1.5772 -0.4829,0.4722 -1.0584,0.8402 -1.6907,1.081 -0.7305,0.2704 -1.5054,0.4024 -2.2846,0.3892 -0.4899,0.0012 -0.9787,-0.0458 -1.4593,-0.1404 -0.471,-0.0941 -0.9321,-0.2316 -1.3774,-0.4109 -0.4312,-0.1726 -0.8445,-0.3864 -1.2343,-0.6383 -0.3698,-0.2377 -0.7125,-0.5147 -1.0221,-0.8261 l 0.8361,-1.3677 c 0.0795,-0.0987 0.1758,-0.1829 0.2844,-0.2487 0.1117,-0.0684 0.2405,-0.104 0.3716,-0.1028 0.2109,0.0113 0.4132,0.0868 0.5795,0.2163 0.2078,0.1442 0.452,0.3045 0.7325,0.481 0.315,0.1923 0.6482,0.3534 0.9948,0.481 0.4421,0.1549 0.9089,0.2282 1.3775,0.2163 0.6822,0.0389 1.3556,-0.1683 1.8967,-0.5838 0.2304,-0.2085 0.4108,-0.4659 0.5279,-0.7532 0.1171,-0.2872 0.1678,-0.597 0.1484,-0.9064 0.0145,-0.3533 -0.0941,-0.7009 -0.3074,-0.9837 -0.221,-0.2688 -0.4967,-0.4878 -0.8091,-0.6425 -0.3668,-0.1842 -0.7514,-0.3308 -1.1479,-0.4378 -0.4303,-0.1189 -0.8658,-0.2505 -1.3065,-0.3947 -0.4456,-0.1423 -0.8819,-0.312 -1.3064,-0.5082 -0.4226,-0.1932 -0.8104,-0.4543 -1.1479,-0.7729 -0.3466,-0.3409 -0.6187,-0.7495 -0.7992,-1.2 -0.22,-0.5629 -0.3245,-1.1639 -0.3074,-1.7676 0.0018,-0.5699 0.12,-1.1335 0.3472,-1.6566 0.2272,-0.5231 0.5588,-0.9948 0.9746,-1.3865 0.4627,-0.428 1.0047,-0.7624 1.5958,-0.9843 0.6881,-0.2589 1.4193,-0.3858 2.1549,-0.3739 0.8619,-0.01 1.7188,0.1328 2.5305,0.4216 0.7322,0.2588 1.4036,0.6634 1.9732,1.1893 z"
     fill="#3c4a63"
     id="path1918" />
  <path
     d="m 66.467959,26.425144 h -1.1918 c -0.203,0.0089 -0.4052,-0.03 -0.5902,-0.1135 -0.081,-0.0498 -0.1512,-0.115 -0.2065,-0.192 -0.0554,-0.077 -0.0948,-0.1642 -0.116,-0.2566 l -0.2352,-0.7728 c -0.2602,0.2338 -0.5339,0.4522 -0.8198,0.6541 -0.2609,0.183 -0.5388,0.3404 -0.83,0.4703 -0.2925,0.1292 -0.5986,0.2253 -0.9127,0.2864 -0.3602,0.0686 -0.7264,0.1012 -1.0931,0.0973 -0.4351,0.0046 -0.8682,-0.0573 -1.2844,-0.1836 -0.3711,-0.1082 -0.7155,-0.2923 -1.011,-0.5406 -0.2884,-0.2543 -0.5149,-0.5705 -0.6625,-0.9247 -0.1647,-0.4086 -0.2448,-0.8461 -0.2357,-1.2863 0.0047,-0.4264 0.1175,-0.8447 0.328,-1.2162 0.2662,-0.4468 0.6424,-0.8188 1.0931,-1.081 0.6295,-0.373 1.3142,-0.6447 2.0289,-0.8053 1.0307,-0.2328 2.0861,-0.3398 3.1429,-0.3188 v -0.6707 c 0.0457,-0.5785 -0.1192,-1.1541 -0.4645,-1.6216 -0.1719,-0.1841 -0.3826,-0.328 -0.617,-0.4215 -0.2344,-0.0935 -0.4866,-0.1342 -0.7387,-0.1191 -0.37,-0.0128 -0.7395,0.0366 -1.0931,0.1459 -0.2583,0.0877 -0.5072,0.2004 -0.7433,0.3366 l -0.5841,0.3365 c -0.1807,0.0987 -0.3841,0.149 -0.5902,0.146 -0.1637,0.0048 -0.3246,-0.0426 -0.4593,-0.1352 -0.1278,-0.0906 -0.2344,-0.2076 -0.3126,-0.343 l -0.4755,-0.8108 c 1.2464,-1.1368 2.8845,-1.7528 4.5747,-1.7202 0.5891,-0.0098 1.1742,0.0968 1.7215,0.3136 0.4852,0.1938 0.9232,0.4887 1.2843,0.865 0.3574,0.3824 0.6298,0.8355 0.7993,1.3297 0.1873,0.5462 0.2798,1.1201 0.2733,1.6972 z m -5.1435,-1.6216 c 0.252,7e-4 0.5034,-0.0248 0.7501,-0.0762 0.2249,-0.0478 0.4432,-0.1222 0.6504,-0.2215 0.2085,-0.1008 0.4062,-0.2222 0.5902,-0.3623 0.194,-0.1564 0.3766,-0.3263 0.5466,-0.5082 v -1.8208 c -0.648,-0.0092 -1.2956,0.0396 -1.9348,0.1459 -0.4312,0.0691 -0.8518,0.1925 -1.2517,0.3672 -0.2696,0.1156 -0.5021,0.3026 -0.6723,0.5406 -0.1302,0.1934 -0.1988,0.4214 -0.1968,0.6542 -0.0178,0.187 0.0108,0.3754 0.0832,0.5488 0.0724,0.1735 0.1864,0.3266 0.3321,0.4459 0.3201,0.2034 0.697,0.2998 1.0759,0.2754 z"
     fill="#3c4a63"
     id="path1920" />
  <path
     d="m 72.956859,15.363944 c 0.4465,-0.0035 0.8919,0.0436 1.3277,0.1404 0.3961,0.0876 0.7786,0.2276 1.1374,0.4161 h 3.1647 v 0.973 c 0.0082,0.14 -0.0389,0.2777 -0.1312,0.3837 -0.1217,0.1079 -0.2749,0.1742 -0.4372,0.1891 l -0.9837,0.1784 c 0.0723,0.1892 0.1271,0.3846 0.1639,0.5837 0.0411,0.2138 0.0617,0.431 0.0615,0.6487 0.007,0.5053 -0.1053,1.0053 -0.328,1.4595 -0.2183,0.4215 -0.5267,0.7904 -0.9035,1.0806 -0.4063,0.3159 -0.8676,0.5545 -1.3609,0.7038 -0.5539,0.1701 -1.131,0.254 -1.7107,0.2487 -0.4074,10e-5 -0.8138,-0.0398 -1.2133,-0.119 -0.3424,0.2054 -0.5137,0.436 -0.5137,0.6918 10e-5,0.1016 0.0289,0.2012 0.0833,0.2873 0.0544,0.0861 0.1321,0.1551 0.2241,0.1992 0.2538,0.1164 0.5255,0.1895 0.8036,0.2163 0.3754,0.0455 0.7534,0.0671 1.1315,0.0648 0.4228,0 0.8546,0.0181 1.2954,0.0542 0.4353,0.0337 0.868,0.095 1.2954,0.1836 0.3974,0.0795 0.7794,0.2219 1.1316,0.4216 0.3374,0.2005 0.6163,0.4853 0.8091,0.8261 0.2189,0.3869 0.3253,0.8267 0.3074,1.2704 -0.0031,0.4917 -0.1282,0.9751 -0.3643,1.4071 -0.2561,0.4722 -0.6101,0.8849 -1.0384,1.2107 -0.5023,0.3779 -1.0662,0.6668 -1.667,0.854 -0.7285,0.2271 -1.4888,0.3366 -2.2521,0.3243 -0.7359,0.0128 -1.4705,-0.067 -2.1862,-0.2377 -0.5414,-0.1285 -1.058,-0.3443 -1.5294,-0.6389 -0.3703,-0.2399 -0.6779,-0.5642 -0.8973,-0.946 -0.1948,-0.3275 -0.2988,-0.7005 -0.3016,-1.081 -0.0138,-0.4712 0.1545,-0.9297 0.4701,-1.2811 0.362,-0.3764 0.8103,-0.6599 1.3064,-0.8261 -0.2647,-0.1411 -0.4901,-0.3454 -0.656,-0.5945 -0.1754,-0.2896 -0.261,-0.6244 -0.2459,-0.9623 0.0024,-0.1711 0.0322,-0.3408 0.0882,-0.5027 0.0599,-0.1922 0.1482,-0.3744 0.2623,-0.5406 0.1261,-0.1786 0.2749,-0.3403 0.4426,-0.481 0.1935,-0.1626 0.4065,-0.3006 0.6342,-0.4109 -0.5336,-0.2763 -0.9857,-0.6862 -1.3117,-1.1893 -0.3256,-0.5219 -0.4909,-1.1271 -0.4756,-1.7412 -0.0093,-0.495 0.0974,-0.9853 0.3119,-1.4319 0.2144,-0.4466 0.5305,-0.8373 0.9233,-1.141 0.4127,-0.3189 0.8819,-0.5576 1.3833,-0.7037 0.5703,-0.1491 1.1597,-0.2125 1.7488,-0.1882 z m 2.9022,11.5242 c 0.0057,-0.0982 -0.0083,-0.1966 -0.0411,-0.2894 -0.0328,-0.0928 -0.0838,-0.1782 -0.1501,-0.2512 -0.1522,-0.1506 -0.3402,-0.2603 -0.5465,-0.3188 -0.2523,-0.0825 -0.5124,-0.1387 -0.7762,-0.1677 -0.3138,-0.0371 -0.6296,-0.0552 -0.9456,-0.0542 h -1.0277 c -0.3442,3e-4 -0.6872,-0.0396 -1.0221,-0.119 -0.2711,0.1492 -0.5106,0.3493 -0.7052,0.5893 -0.1794,0.2157 -0.2762,0.4877 -0.2732,0.7677 -0.0014,0.1895 0.0476,0.376 0.142,0.5406 0.1122,0.1808 0.2707,0.3286 0.4592,0.4284 0.2566,0.1364 0.5334,0.2313 0.8199,0.2812 0.4056,0.0737 0.8174,0.1082 1.2296,0.1028 0.4273,0.0059 0.8541,-0.0322 1.2736,-0.1135 0.3096,-0.0583 0.6083,-0.1641 0.8853,-0.3137 0.2083,-0.1116 0.3835,-0.2757 0.5081,-0.4757 0.111,-0.1832 0.1698,-0.3929 0.17,-0.6068 z m -2.9022,-6.1621 c 0.2919,0.0051 0.5823,-0.0407 0.8583,-0.1353 0.2262,-0.0781 0.433,-0.2032 0.6068,-0.3671 0.1604,-0.1514 0.2853,-0.336 0.3661,-0.5407 0.0851,-0.2302 0.1277,-0.4738 0.1258,-0.719 0.012,-0.2346 -0.025,-0.469 -0.1087,-0.6886 -0.0837,-0.2196 -0.2123,-0.4194 -0.3776,-0.587 -0.4255,-0.3063 -0.9371,-0.4712 -1.4622,-0.4712 -0.5251,0 -1.0368,0.1649 -1.4622,0.4712 -0.1653,0.1676 -0.2939,0.3674 -0.3776,0.587 -0.0837,0.2196 -0.1207,0.454 -0.1087,0.6886 -0.0015,0.242 0.0409,0.4823 0.1254,0.7092 0.0822,0.204 0.207,0.3883 0.3661,0.5407 0.1739,0.1677 0.3829,0.2951 0.6121,0.3729 0.2689,0.0933 0.5517,0.1404 0.8364,0.1393 z"
     fill="#3c4a63"
     id="path1922" />
  <path
     d="m 84.903059,15.379844 c 0.6525,-0.0066 1.3008,0.1052 1.913,0.3299 0.568,0.2066 1.0845,0.5329 1.514,0.9567 0.4333,0.4409 0.7685,0.9677 0.9837,1.5461 0.2461,0.6693 0.3666,1.378 0.3553,2.0906 0.0108,0.1639 0.0108,0.3282 0,0.492 -0.0111,0.1084 -0.0446,0.2133 -0.0983,0.3081 -0.0434,0.0703 -0.108,0.1251 -0.1845,0.1567 -0.0962,0.0352 -0.1982,0.0517 -0.3006,0.0486 h -6.8336 c -0.0046,0.9027 0.3197,1.7764 0.9127,2.4594 0.2785,0.265 0.6081,0.4711 0.9688,0.6058 0.3608,0.1348 0.7452,0.1953 1.1301,0.1781 0.3697,0.0067 0.7383,-0.0426 1.0931,-0.146 0.2804,-0.0867 0.5528,-0.1971 0.8144,-0.3298 l 0.6123,-0.3298 c 0.1537,-0.092 0.3289,-0.1423 0.5081,-0.146 0.0971,-0.0032 0.1933,0.0191 0.2789,0.0649 0.0799,0.0437 0.149,0.1046 0.2022,0.1784 l 0.7707,0.9512 c -0.2836,0.3316 -0.6151,0.6194 -0.9837,0.854 -0.3588,0.2229 -0.7421,0.4043 -1.1423,0.5406 -0.3938,0.137 -0.8002,0.2348 -1.2133,0.2919 -0.3966,0.0562 -0.7965,0.0851 -1.1971,0.0866 -0.7278,0.0056 -1.4505,-0.1227 -2.1315,-0.3785 -0.6463,-0.2432 -1.2319,-0.6229 -1.7165,-1.1131 -0.5056,-0.5212 -0.8965,-1.1415 -1.1479,-1.8214 -0.2943,-0.8066 -0.4373,-1.6601 -0.4221,-2.5181 -0.0031,-0.7136 0.1218,-1.422 0.3689,-2.0919 0.2294,-0.6327 0.5838,-1.2133 1.0424,-1.7073 0.4612,-0.4922 1.0194,-0.8844 1.6397,-1.1523 0.7172,-0.2924 1.4885,-0.4306 2.2631,-0.4054 z m 0.0547,1.8756 c -0.3298,-0.0184 -0.66,0.0296 -0.9708,0.141 -0.3108,0.1115 -0.5959,0.2841 -0.8382,0.5077 -0.4685,0.5054 -0.7597,1.1483 -0.83,1.8324 h 4.9738 c 0.0014,-0.326 -0.0465,-0.6504 -0.142,-0.9623 -0.0866,-0.2892 -0.2317,-0.5577 -0.4264,-0.7891 -0.1984,-0.2323 -0.4469,-0.4171 -0.727,-0.5406 -0.3291,-0.1359 -0.6836,-0.2003 -1.0397,-0.1888 z"
     fill="#3c4a63"
     id="path1924" />
  <path
     d="m 92.753859,26.424144 v -15.001 h 4.3726 c 0.7567,-0.013 1.5119,0.0724 2.2465,0.254 0.5684,0.139 1.101901,0.3929 1.567901,0.7459 0.407,0.3176 0.726,0.7322 0.929,1.2055 0.213,0.5139 0.318,1.0659 0.308,1.6217 0.001,0.3913 -0.07,0.7796 -0.208,1.1458 -0.143,0.3715 -0.349,0.7157 -0.609,1.0177 -0.277,0.3215 -0.606,0.5954 -0.973,0.8108 -0.406101,0.246 -0.848001,0.4287 -1.310001,0.5418 1.011001,0.1033 1.966001,0.5148 2.733001,1.1783 0.322,0.3107 0.574,0.6857 0.74,1.1003 0.165,0.4146 0.241,0.8594 0.222,1.3052 0.009,0.5908 -0.108,1.1768 -0.344,1.719 -0.225,0.4919 -0.562,0.925 -0.984,1.2648 -0.476,0.374 -1.023,0.6497 -1.607101,0.8108 -0.7113,0.1986 -1.4477,0.2933 -2.1863,0.2812 z m 1.0932,-7.9836 h 3.2794 c 0.6102,0.0144 1.2184,-0.0752 1.7983,-0.265 0.4508,-0.1486 0.8672,-0.3858 1.224101,-0.6973 0.305,-0.2713 0.544,-0.6075 0.7,-0.9837 0.148,-0.3602 0.224,-0.7458 0.224,-1.1351 0.029,-0.4318 -0.044,-0.8645 -0.212,-1.2633 -0.169,-0.3989 -0.429,-0.753 -0.76,-1.0339 -0.645501,-0.5189 -1.644301,-0.7784 -2.996301,-0.7784 h -3.2793 z m 0,0.7955 v 6.3179 h 3.8253 c 1.0771,0.0776 2.1472,-0.2247 3.022501,-0.8539 0.342,-0.2966 0.611,-0.667 0.788,-1.0829 0.176,-0.416 0.254,-0.8665 0.229,-1.3172 0.007,-0.4402 -0.087,-0.8763 -0.273,-1.2755 -0.183,-0.3796 -0.452,-0.7111 -0.787,-0.9675 -0.378,-0.2827 -0.806601,-0.4904 -1.262901,-0.6119 -0.556,-0.148 -1.1298,-0.2189 -1.7052,-0.2108 z"
     fill="#3c4a63"
     id="path1926" />
  <path
     d="m 107.86486,12.222944 c 0,0.1237 -0.028,0.2459 -0.083,0.3567 -0.053,0.1081 -0.123,0.2068 -0.208,0.2919 -0.087,0.0849 -0.189,0.1528 -0.301,0.2001 -0.115,0.0487 -0.238,0.0737 -0.363,0.0737 -0.125,0 -0.249,-0.025 -0.364,-0.0737 -0.112,-0.0472 -0.214,-0.1151 -0.3,-0.2001 -0.085,-0.0843 -0.154,-0.1832 -0.203,-0.2919 -0.05,-0.1121 -0.076,-0.2338 -0.075,-0.3567 0,-0.1263 0.026,-0.2512 0.076,-0.3672 0.096,-0.2264 0.276,-0.4068 0.503,-0.503 0.115,-0.0486 0.239,-0.0737 0.364,-0.0737 0.125,0 0.248,0.0251 0.363,0.0737 0.112,0.0474 0.214,0.1153 0.301,0.2001 0.087,0.0875 0.158,0.19 0.208,0.3026 0.054,0.115 0.082,0.2405 0.082,0.3675 z m -0.449,3.6379 v 10.5672 h -1.018 v -10.5458 z"
     fill="#3c4a63"
     id="path1928" />
  <path
     d="m 115.35786,15.706944 c 0.705,-0.0114 1.404,0.1211 2.055,0.3892 0.585,0.2408 1.108,0.6106 1.529,1.0816 0.431,0.501 0.754,1.084 0.951,1.7134 0.436,1.4622 0.436,3.0188 0,4.4809 -0.198,0.6319 -0.523,1.2168 -0.956,1.7189 -0.42,0.472 -0.943,0.8416 -1.529,1.0801 -1.321,0.5086 -2.784,0.5086 -4.105,0 -0.588,-0.2392 -1.114,-0.6089 -1.537,-1.081 -0.431,-0.4987 -0.755,-1.0801 -0.951,-1.7082 -0.437,-1.462 -0.437,-3.0189 0,-4.4809 0.196,-0.6299 0.519,-1.2131 0.951,-1.7134 0.424,-0.4705 0.95,-0.8399 1.537,-1.081 0.65,-0.2717 1.35,-0.4077 2.055,-0.3996 z m 0,10.0593 c 0.563,0.0085 1.122,-0.1021 1.64,-0.3243 0.467,-0.2088 0.876,-0.528 1.191,-0.9298 0.333,-0.4343 0.574,-0.9306 0.711,-1.4595 0.324,-1.2464 0.337,-2.5527 0.038,-3.8053 -0.136,-0.5322 -0.378,-1.032 -0.711,-1.4702 -0.314,-0.4048 -0.723,-0.7273 -1.191,-0.9399 -1.068,-0.4355 -2.266,-0.4355 -3.334,0 -0.468,0.2128 -0.877,0.5356 -1.192,0.9405 -0.337,0.4378 -0.584,0.9374 -0.727,1.4702 -0.321,1.2538 -0.321,2.5678 0,3.8215 0.14,0.5287 0.383,1.0247 0.716,1.4595 0.316,0.4017 0.724,0.7209 1.192,0.9298 0.526,0.2228 1.095,0.3301 1.667,0.3145 z"
     fill="#3c4a63"
     id="path1930" />
  <path
     d="m 122.99686,26.428844 v -10.5458 h 0.547 c 0.039,-0.0045 0.078,-0.0011 0.116,0.01 0.037,0.011 0.072,0.0295 0.102,0.0543 0.03,0.0247 0.055,0.0552 0.073,0.0897 0.018,0.0345 0.029,0.0723 0.031,0.111 l 0.099,1.5892 c 0.468,-0.5925 1.045,-1.0913 1.7,-1.4702 0.666,-0.3733 1.421,-0.5607 2.186,-0.5422 0.529,-0.0101 1.054,0.0835 1.547,0.2754 0.423,0.1736 0.798,0.4465 1.093,0.7955 0.305,0.3669 0.532,0.7918 0.667,1.2487 0.156,0.5372 0.232,1.0947 0.224,1.654 v 6.7304 h -1.017 v -6.7405 c 0.049,-0.8325 -0.194,-1.6561 -0.688,-2.3296 -0.261,-0.2922 -0.586,-0.5204 -0.951,-0.6667 -0.364,-0.1463 -0.757,-0.2067 -1.148,-0.1765 -0.688,-0.002 -1.364,0.185 -1.952,0.5403 -0.626,0.3816 -1.172,0.881 -1.607,1.4702 v 7.9028 z"
     fill="#3c4a63"
     id="path1932" />
  <path
     d="m 138.72286,15.706944 c 0.57,-0.0059 1.137,0.0988 1.667,0.3081 0.503,0.2002 0.956,0.5064 1.328,0.8975 0.391,0.417 0.691,0.9103 0.88,1.4487 0.222,0.634 0.329,1.3018 0.317,1.9729 0.01,0.111 -0.014,0.2224 -0.071,0.3188 -0.027,0.03 -0.061,0.0534 -0.099,0.0684 -0.038,0.015 -0.079,0.0212 -0.119,0.0182 h -7.696 v 0.1995 c -0.012,0.7054 0.082,1.4085 0.278,2.0864 0.16,0.5524 0.429,1.0672 0.793,1.5136 0.336,0.4007 0.763,0.7155 1.246,0.9179 0.52,0.2126 1.078,0.3174 1.64,0.3081 0.47,0.009 0.94,-0.0492 1.394,-0.1729 0.342,-0.0977 0.673,-0.23 0.989,-0.3947 0.222,-0.1168 0.435,-0.2487 0.639,-0.3947 0.097,-0.0876 0.216,-0.1473 0.344,-0.1728 0.042,-0.0016 0.084,0.0076 0.121,0.0265 0.037,0.0189 0.069,0.0469 0.093,0.0815 l 0.278,0.3405 c -0.195,0.2325 -0.425,0.4331 -0.683,0.5945 -0.297,0.1906 -0.614,0.3483 -0.946,0.4703 -0.355,0.1344 -0.72,0.2393 -1.093,0.3136 -0.394,0.0782 -0.795,0.1181 -1.197,0.119 -0.684,0.0079 -1.362,-0.1208 -1.995,-0.3785 -0.59,-0.2401 -1.119,-0.6095 -1.547,-1.081 -0.47,-0.519 -0.826,-1.1302 -1.045,-1.7945 -0.245,-0.7717 -0.363,-1.5778 -0.349,-2.3871 -0.007,-0.7106 0.104,-1.4174 0.329,-2.0919 0.199,-0.6084 0.519,-1.1708 0.94,-1.6541 0.42,-0.4659 0.936,-0.8349 1.514,-1.0809 0.647,-0.2759 1.346,-0.4125 2.05,-0.4009 z m 0,0.7515 c -0.504,-0.0081 -1.004,0.078 -1.476,0.2539 -0.424,0.1614 -0.81,0.4103 -1.131,0.7304 -0.327,0.3309 -0.588,0.7195 -0.771,1.1458 -0.204,0.4771 -0.335,0.9818 -0.388,1.4974 h 7.023 c 0.008,-0.5158 -0.072,-1.0291 -0.235,-1.5188 -0.14,-0.4213 -0.365,-0.8096 -0.662,-1.1406 -0.285,-0.31 -0.636,-0.5537 -1.027,-0.7135 -0.418,-0.1688 -0.865,-0.2534 -1.317,-0.2488 z"
     fill="#3c4a63"
     id="path1934" />
  <path
     d="m 148.67286,26.599444 c -0.306,0.0186 -0.613,-0.0245 -0.902,-0.1266 -0.289,-0.1022 -0.555,-0.2613 -0.781,-0.4679 -0.218,-0.2503 -0.383,-0.5412 -0.486,-0.8559 -0.104,-0.3146 -0.143,-0.6467 -0.116,-0.9766 v -7.2107 h -1.53 c -0.069,0.0018 -0.137,-0.0212 -0.191,-0.0649 -0.025,-0.0222 -0.045,-0.0497 -0.059,-0.0805 -0.013,-0.0309 -0.019,-0.0643 -0.018,-0.0978 v -0.3947 l 1.82,-0.1298 0.257,-3.7823 c 0.008,-0.0638 0.037,-0.1232 0.082,-0.1689 0.024,-0.0252 0.053,-0.045 0.085,-0.0581 0.032,-0.0131 0.066,-0.0192 0.101,-0.0178 h 0.476 v 4.0271 h 3.356 v 0.7515 h -3.356 v 7.1673 c -0.005,0.2533 0.034,0.5055 0.114,0.7459 0.061,0.2015 0.168,0.3864 0.312,0.5407 0.13,0.1333 0.289,0.235 0.464,0.2974 0.187,0.0654 0.383,0.0983 0.58,0.0972 0.227,0.0048 0.454,-0.0337 0.667,-0.1135 0.168,-0.0653 0.329,-0.1467 0.481,-0.2432 0.116,-0.0736 0.228,-0.1549 0.333,-0.2433 0.054,-0.0586 0.125,-0.0985 0.203,-0.1135 0.034,0.0044 0.067,0.0164 0.096,0.0351 0.03,0.0187 0.054,0.0436 0.073,0.0729 l 0.279,0.4434 c -0.29,0.3084 -0.642,0.5517 -1.033,0.7135 -0.413,0.1735 -0.858,0.26 -1.307,0.254 z"
     fill="#3c4a63"
     id="path1936" />
  <path
     d="m 152.01686,15.882144 h 0.809 c 0.089,-0.003 0.176,0.0257 0.246,0.0811 0.059,0.0443 0.104,0.1042 0.131,0.1729 l 2.689,8.325 c 0.048,0.1526 0.089,0.3075 0.121,0.4642 l 0.087,0.4433 c 0.038,-0.1459 0.077,-0.2974 0.12,-0.4433 0.044,-0.146 0.093,-0.3026 0.148,-0.4648 l 2.864,-8.3948 c 0.014,-0.0681 0.052,-0.129 0.107,-0.1716 0.055,-0.0424 0.123,-0.0641 0.193,-0.0612 h 0.4 c 0.071,-0.0037 0.142,0.018 0.198,0.0612 0.057,0.0424 0.097,0.1037 0.113,0.1728 l 2.82,8.3942 c 0.103,0.3032 0.188,0.6118 0.257,0.9244 0.029,-0.1477 0.06,-0.2972 0.092,-0.4486 0.036,-0.1594 0.082,-0.3165 0.137,-0.4703 l 2.701,-8.325 c 0.021,-0.0781 0.07,-0.1462 0.136,-0.1925 0.067,-0.0463 0.149,-0.0679 0.23,-0.0612 h 0.749 l -3.608,10.54 h -0.748 c -0.115,0 -0.197,-0.0756 -0.246,-0.2215 l -2.907,-8.5784 c -0.037,-0.1045 -0.07,-0.2107 -0.099,-0.3188 -0.029,-0.1081 -0.054,-0.2144 -0.076,-0.3189 -0.022,0.1045 -0.046,0.2108 -0.071,0.3189 -0.026,0.1077 -0.056,0.2142 -0.093,0.3188 l -2.957,8.5671 c -0.009,0.0611 -0.04,0.117 -0.087,0.1575 -0.047,0.0407 -0.107,0.0634 -0.169,0.064 h -0.718 z"
     fill="#3c4a63"
     id="path1938" />
  <path
     d="m 173.49386,15.706944 c 0.705,-0.0114 1.404,0.1211 2.055,0.3892 0.586,0.2405 1.109,0.6101 1.531,1.081 0.43,0.501 0.754,1.0839 0.951,1.7134 0.436,1.4621 0.436,3.0188 0,4.4809 -0.198,0.6276 -0.521,1.2088 -0.951,1.7082 -0.42,0.4725 -0.944,0.8424 -1.531,1.081 -1.32,0.5086 -2.784,0.5086 -4.104,0 -0.589,-0.2392 -1.114,-0.6089 -1.537,-1.081 -0.431,-0.4987 -0.755,-1.0801 -0.951,-1.7082 -0.437,-1.462 -0.437,-3.0189 0,-4.4809 0.195,-0.6299 0.519,-1.2131 0.951,-1.7134 0.424,-0.4705 0.949,-0.8399 1.537,-1.081 0.649,-0.2674 1.346,-0.3998 2.049,-0.3892 z m 0,10.0593 c 0.564,0.0085 1.122,-0.102 1.64,-0.3243 0.468,-0.2061 0.879,-0.523 1.197,-0.9231 0.332,-0.4343 0.574,-0.9306 0.71,-1.4595 0.314,-1.2546 0.314,-2.5669 0,-3.8215 -0.136,-0.5322 -0.378,-1.032 -0.71,-1.4702 -0.315,-0.405 -0.724,-0.7278 -1.192,-0.9405 -1.068,-0.4355 -2.265,-0.4355 -3.334,0 -0.468,0.2127 -0.876,0.5353 -1.191,0.9399 -0.327,0.4437 -0.563,0.947 -0.694,1.4812 -0.322,1.2538 -0.322,2.5678 0,3.8215 0.139,0.5287 0.383,1.0247 0.716,1.4595 0.315,0.4016 0.724,0.7206 1.191,0.9295 0.527,0.2227 1.095,0.33 1.667,0.3145 z"
     fill="#3c4a63"
     id="path1940" />
  <path
     d="m 181.13186,26.426244 v -10.5458 h 0.547 c 0.093,-0.0081 0.187,0.0188 0.262,0.0756 0.062,0.0699 0.095,0.1607 0.092,0.2539 l 0.087,2.2272 c 0.285,-0.7721 0.757,-1.4626 1.373,-2.0105 0.594,-0.496 1.352,-0.7559 2.127,-0.7298 0.3,-0.0018 0.6,0.0327 0.892,0.1028 0.267,0.0667 0.525,0.1651 0.768,0.2931 l -0.142,0.6973 c -0.003,0.025 -0.01,0.0491 -0.023,0.0711 -0.012,0.0219 -0.028,0.0413 -0.048,0.0568 -0.02,0.0157 -0.043,0.0272 -0.067,0.034 -0.024,0.0069 -0.05,0.0088 -0.075,0.0058 -0.062,-0.0049 -0.123,-0.0194 -0.18,-0.0431 l -0.296,-0.0973 c -0.141,-0.0412 -0.285,-0.0737 -0.43,-0.0973 -0.195,-0.0302 -0.393,-0.0446 -0.59,-0.0432 -0.366,-0.0137 -0.731,0.0458 -1.074,0.1748 -0.343,0.1291 -0.656,0.3252 -0.921,0.5767 -0.586,0.6102 -1.017,1.3508 -1.257,2.1601 v 6.8378 z"
     fill="#3c4a63"
     id="path1942" />
  <path
     d="m 190.87786,10.996844 v 9.4051 h 0.492 c 0.097,2e-4 0.193,-0.0143 0.285,-0.0431 0.112,-0.0435 0.213,-0.112 0.295,-0.2001 l 4.279,-4.0162 c 0.073,-0.0722 0.153,-0.1357 0.241,-0.1891 0.096,-0.0536 0.206,-0.0797 0.317,-0.0755 h 0.902 l -4.706,4.4203 -0.202,0.1946 c -0.065,0.0594 -0.136,0.1103 -0.213,0.1514 0.106,0.0511 0.204,0.1187 0.289,0.2001 l 0.246,0.254 4.919,5.3238 h -0.892 c -0.093,0.0013 -0.184,-0.019 -0.268,-0.0594 -0.089,-0.0464 -0.168,-0.1086 -0.235,-0.1835 l -4.448,-4.7719 c -0.094,-0.1061 -0.207,-0.194 -0.334,-0.2595 -0.15,-0.0544 -0.31,-0.0783 -0.47,-0.0703 h -0.48 v 5.3238 h -1.017 v -15.4045 z"
     fill="#3c4a63"
     id="path1944" />
  <path
     d="m 206.28386,17.191744 c -0.02,0.0451 -0.053,0.0831 -0.095,0.1091 -0.042,0.0261 -0.091,0.0389 -0.141,0.0369 -0.113,-0.014 -0.22,-0.061 -0.307,-0.1353 -0.158,-0.1086 -0.322,-0.2079 -0.492,-0.2974 -0.239,-0.1238 -0.49,-0.2235 -0.749,-0.2974 -0.356,-0.0968 -0.724,-0.1421 -1.093,-0.1346 -0.358,-0.0047 -0.715,0.0501 -1.055,0.1622 -0.295,0.097 -0.57,0.2452 -0.813,0.4378 -0.226,0.1713 -0.412,0.3888 -0.546,0.6377 -0.123,0.2373 -0.186,0.5007 -0.185,0.7676 -0.012,0.2965 0.079,0.5881 0.257,0.8261 0.187,0.2235 0.417,0.4073 0.676,0.5407 0.303,0.1644 0.622,0.2984 0.951,0.3999 l 1.094,0.3405 c 0.364,0.1118 0.728,0.238 1.093,0.3785 0.34,0.1373 0.659,0.3191 0.951,0.5406 0.275,0.2011 0.506,0.457 0.676,0.7515 0.179,0.3317 0.268,0.7045 0.257,1.081 0.004,0.4392 -0.081,0.8746 -0.251,1.2801 -0.164,0.391 -0.413,0.7415 -0.727,1.0272 -0.342,0.3031 -0.741,0.5362 -1.174,0.6863 -0.509,0.1767 -1.046,0.2627 -1.585,0.2539 -0.665,0.0157 -1.325,-0.1058 -1.94,-0.3567 -0.533,-0.2303 -1.026,-0.5435 -1.46,-0.928 l 0.246,-0.3623 c 0.03,-0.0514 0.071,-0.0957 0.12,-0.1297 0.055,-0.0313 0.118,-0.0463 0.181,-0.0432 0.13,0.0164 0.251,0.0754 0.344,0.1677 0.172,0.1362 0.355,0.2589 0.547,0.3672 0.258,0.1496 0.531,0.2727 0.814,0.3671 0.39,0.1223 0.799,0.179 1.208,0.1677 0.405,0.0083 0.808,-0.0538 1.191,-0.1836 0.318,-0.1079 0.61,-0.2789 0.859,-0.5027 0.235,-0.2049 0.422,-0.4594 0.546,-0.745 0.118,-0.2883 0.177,-0.5969 0.175,-0.9081 0.012,-0.3137 -0.078,-0.6229 -0.257,-0.8812 -0.181,-0.2429 -0.412,-0.4454 -0.676,-0.5945 -0.301,-0.1728 -0.62,-0.3123 -0.951,-0.4161 l -1.094,-0.3406 c -0.365,-0.1122 -0.73,-0.2367 -1.094,-0.3736 -0.339,-0.1253 -0.659,-0.2963 -0.951,-0.5082 -0.275,-0.1996 -0.505,-0.4536 -0.676,-0.7459 -0.18,-0.3316 -0.269,-0.7044 -0.259,-1.081 0,-0.3741 0.084,-0.7435 0.246,-1.081 0.155,-0.3529 0.382,-0.6697 0.667,-0.9298 0.323,-0.2739 0.694,-0.4864 1.094,-0.6269 0.473,-0.1616 0.97,-0.2405 1.47,-0.2332 0.59,-0.0098 1.177,0.0855 1.733,0.2812 0.514,0.1927 0.985,0.483 1.388,0.8546 z"
     fill="#3c4a63"
     id="path1946" />
  <path
     d="m 9.6217494,22.547444 -0.31202,0.5134 c 0.09117,0.0549 0.19533,0.0848 0.30187,0.0866 0.10654,0.0017 0.21165,-0.0246 0.30462,-0.0764 0.09294,-0.0518 0.1705396,-0.1272 0.2246396,-0.2186 0.0542,-0.0913 0.0831,-0.1953 0.0837,-0.3013 z m 0.06148,-10.308 0.6028296,0.0033 c 6e-4,-0.1062 -0.0271,-0.2107 -0.0804,-0.3028 -0.0532,-0.0921 -0.1301,-0.1685 -0.2227096,-0.2213 z m -9.08041003,-5.1782099 0.299719,-0.52015 c -0.091703,-0.0523 -0.19561,-0.07969 -0.301302,-0.07941 -0.105692,2.7e-4 -0.209453,0.0282 -0.300878,0.08099 -0.091426,0.05278 -0.167302,0.12856 -0.2200191,0.21974 -0.0527174,0.09118 -0.08042321893,0.19455 -0.0803390789266,0.29974 z m 0.016293,10.0648099 h -0.6028198 c 2.59e-5,0.1033 0.0268357,0.2048 0.0778351,0.2947 0.0509997,0.09 0.1244607,0.1653 0.2132767,0.2187 z m 9.60514663,5.4248 0.0615,-10.3081 -1.2056596,-0.007 -0.06148,10.308 z M 9.9814094,11.719544 0.90253837,6.5407841 0.30310037,7.5810641 9.3816594,12.760144 Z M 1.9107342e-7,7.0621441 0.01629257,17.126944 1.2219294,17.125144 1.2056394,7.0603141 Z M 0.30740437,17.639444 l 9.00201503,5.4214 0.62403,-1.0265 -9.00232203,-5.4217 z"
     fill="#679ec1"
     id="path1948" />
  <path
     d="m 9.3855594,22.028144 c -0.13937,0.078 -0.24191,0.2079 -0.28506,0.3612 -0.04315,0.1532 -0.02338,0.3172 0.05497,0.4559 0.07835,0.1387 0.20885,0.2408 0.36281,0.2838 0.15395,0.0429 0.31874,0.0232 0.45811,-0.0548 z m 8.2153996,-3.9093 0.296,0.5226 c 0.1364,-0.0795 0.236,-0.2092 0.2773,-0.3611 0.0413,-0.1519 0.0209,-0.3139 -0.0566,-0.451 -0.0776,-0.1372 -0.2062,-0.2385 -0.3581,-0.2821 -0.1519,-0.0437 -0.315,-0.0262 -0.454,0.0487 z m -2.9852,0.9852 c -0.069,0.0387 -0.1297,0.0906 -0.1786,0.1526 -0.0489,0.062 -0.085,0.133 -0.1063,0.209 -0.0213,0.0759 -0.0274,0.1553 -0.0179,0.2335 0.0095,0.0783 0.0344,0.1539 0.0733,0.2226 0.0389,0.0687 0.091,0.1291 0.1533,0.1777 0.0623,0.0487 0.1337,0.0847 0.2099,0.1059 0.0763,0.0212 0.1561,0.0272 0.2347,0.0178 0.0786,-0.0095 0.1546,-0.0343 0.2236,-0.073 z m -4.6393696,3.9702 7.9199696,-4.4325 -0.5908,-1.0458 -7.9199996,4.4322 z m 7.3284696,-5.4768 -2.6888,1.5069 0.5917,1.0458 2.6892,-1.5084 z"
     fill="#679ec1"
     id="path1950" />
  <path
     d="m 18.688159,38.296944 -0.3123,0.5134 c 0.0911,0.055 0.1953,0.0849 0.3018,0.0868 0.1066,0.0018 0.2117,-0.0245 0.3048,-0.0763 0.093,-0.0518 0.1705,-0.1272 0.2247,-0.2185 0.0542,-0.0913 0.0831,-0.1953 0.0838,-0.3014 z m 0.0655,-10.308 0.6028,0.0037 c 7e-4,-0.1063 -0.027,-0.2109 -0.0803,-0.3031 -0.0532,-0.0921 -0.1301,-0.1685 -0.2228,-0.2214 z m -9.0844296,-5.1782 0.29972,-0.5201 c -0.09173,-0.0524 -0.19566,-0.0797 -0.30138,-0.0795 -0.10572,3e-4 -0.2095,0.0283 -0.30094,0.0811 -0.09143,0.0528 -0.1673,0.1286 -0.22,0.2199 -0.05269,0.0912 -0.08036,0.1946 -0.08022,0.2998 z m 0.02182,10.0648 h -0.60282 c 2.3e-4,0.1029 0.02707,0.2041 0.07795,0.2938 0.05087,0.0896 0.12407,0.1647 0.21255,0.2181 z m 9.5996096,5.4254 0.0655,-10.308 -1.2057,-0.0077 -0.0654,10.308 z m -0.2376,-10.8312 -9.0841096,-5.1798 -0.59913,1.0403 9.0841396,5.1794 z m -9.9866496,-4.6578 0.02182,10.0648 1.2056296,-0.0024 -0.0218,-10.0648 z m 0.31232,10.5767 8.9968296,5.4217 0.6246,-1.0259 -8.99678,-5.4223 z"
     fill="#679ec1"
     id="path1952" />
  <path
     d="m 29.660559,22.936944 0.6025,0.0144 c 0.0025,-0.1061 -0.0232,-0.2109 -0.0746,-0.3039 -0.0514,-0.0929 -0.1267,-0.1706 -0.2181,-0.2251 -0.0915,-0.0546 -0.1958,-0.084 -0.3024,-0.0854 -0.1066,-0.0013 -0.2116,0.0255 -0.3044,0.0777 z m -9.0568,5.1026 -0.2969,-0.5222 c -0.0929,0.0523 -0.1702,0.1283 -0.2239,0.2201 -0.0538,0.0918 -0.0821,0.1962 -0.082,0.3024 z m 0.0056,10.3607 h -0.6028 c -10e-5,0.1053 0.0277,0.2087 0.0806,0.2998 0.0528,0.0912 0.1288,0.167 0.2203,0.2197 0.0916,0.0527 0.1954,0.0805 0.3012,0.0806 0.1057,1e-4 0.2097,-0.0275 0.3013,-0.08 z m 8.7997,-5.0417 0.301,0.5201 c 0.0897,-0.0513 0.1645,-0.1248 0.2174,-0.2134 0.0529,-0.0885 0.082,-0.1891 0.0844,-0.292 z m -0.0455,-10.9439 -9.0567,5.1027 0.5939,1.0442 9.0567,-5.1023 z m -9.3626,5.6252 0.0056,10.3619 h 1.2056 l -0.0055,-10.3625 z m 0.909,10.8805 8.8001,-5.042 -0.6016,-1.0403 -8.8001,5.0436 z m 9.1019,-5.5474 0.2515,-10.4216 -1.2053,-0.0288 -0.2515,10.4216 z"
     fill="#6db56d"
     id="path1954" />
  <path
     d="m 29.354959,23.209844 c 0.138,0.0804 0.3024,0.103 0.4571,0.0629 0.1547,-0.0402 0.287,-0.14 0.3679,-0.2773 0.0808,-0.1373 0.1035,-0.3009 0.0631,-0.4549 -0.0403,-0.154 -0.1405,-0.2857 -0.2785,-0.3661 z m -7.5332,-5.091 0.3046,-0.5177 c -0.1379,-0.0805 -0.3023,-0.1031 -0.457,-0.0629 -0.1547,0.0402 -0.287,0.1399 -0.3679,0.2772 -0.0808,0.1373 -0.1035,0.301 -0.0632,0.4549 0.0404,0.154 0.1406,0.2857 0.2786,0.3662 z m 2.3572,2.0692 c 0.1378,0.0782 0.301,0.0991 0.4542,0.0582 0.1532,-0.0408 0.2841,-0.1401 0.3642,-0.2763 0.0802,-0.1362 0.1032,-0.2984 0.064,-0.4514 -0.0391,-0.153 -0.1373,-0.2844 -0.2732,-0.3658 z m 5.7856,1.9861 -7.8379,-4.573 -0.6098,1.0354 7.8381,4.5733 z m -8.4474,-3.5376 2.6618,1.5512 0.6092,-1.0354 -2.6618,-1.5512 z"
     fill="#6db56d"
     id="path1956" />
  <path
     d="m 38.913459,7.2949541 0.6025,0.01438 c 0.0025,-0.10603 -0.0232,-0.21083 -0.0746,-0.30372 -0.0514,-0.0929 -0.1266,-0.17058 -0.218,-0.22512 -0.0914,-0.05454 -0.1957,-0.084 -0.3022,-0.08538 -0.1066,-0.00137 -0.2116,0.02539 -0.3043,0.07755 z m -9.0567,5.0970899 -0.2954,-0.5223 c -0.0932,0.0522 -0.1708,0.1281 -0.2248,0.2199 -0.0541,0.0918 -0.0826,0.1963 -0.0827,0.3027 z m 0.0055,10.3662 h -0.6028 c -10e-5,0.1053 0.0277,0.2087 0.0806,0.3 0.0528,0.0912 0.1289,0.1669 0.2204,0.2197 0.0916,0.0527 0.1955,0.0805 0.3013,0.0805 0.1058,10e-5 0.2098,-0.0275 0.3014,-0.0801 z m 8.7997,-5.0485 0.301,0.5202 c 0.0896,-0.0515 0.1644,-0.125 0.2172,-0.2135 0.0528,-0.0885 0.0819,-0.1891 0.0844,-0.292 z m -0.0451,-10.9370799 -9.0555,5.0970799 0.5932,1.0446 9.0555,-5.0971099 z m -9.363,5.6196799 0.0056,10.3674 h 1.2056 l -0.0055,-10.368 z m 0.9093,10.886 8.8001,-5.0484 -0.6022,-1.0403 -8.7997,5.05 z m 9.1017,-5.553 0.2514,-10.4160099 -1.2053,-0.02876 -0.2515,10.4160699 z"
     fill="#6db56d"
     id="path1958" />
  <path
     d="m 20.025559,5.6955941 -0.2874,-0.52748 c -0.094,0.05077 -0.1728,0.12553 -0.2282,0.2166 -0.0554,0.09108 -0.0854,0.19519 -0.087,0.30164 -0.0017,0.10645 0.0252,0.21142 0.0778,0.30413 0.0526,0.09271 0.129,0.16982 0.2214,0.22342 z m 8.9913,5.2106499 -0.3034,0.5186 c 0.0916,0.0531 0.1956,0.0812 0.3016,0.0816 0.106,3e-4 0.2102,-0.0272 0.3021,-0.0798 z m 9.0733,-5.1892299 0.3004,0.52014 c 0.0919,-0.05259 0.1682,-0.12836 0.2213,-0.21968 0.0531,-0.09132 0.081,-0.19496 0.081,-0.30046 0,-0.1055 -0.0279,-0.20914 -0.081,-0.30046 -0.0531,-0.09132 -0.1294,-0.16709 -0.2213,-0.21968 z m -8.8163,-5.01602196 0.2991,-0.520144 c -0.0891,-0.050687 -0.1898,-0.077881 -0.2924,-0.079005 -0.1027,-0.001125 -0.2039,0.023858 -0.2941,0.07258 z m -9.5517,5.51291196 8.9913,5.2109399 0.6077,-1.0372 -8.9921,-5.2106599 z m 9.595,5.2124399 9.0725,-5.1888799 -0.6007,-1.04029 -9.0724,5.1888699 z m 9.0725,-6.2300899 -8.8167,-5.01601796 -0.5982,1.04028796 8.8163,5.01602 z m -9.4032,-5.02274896 -9.2483,4.99460896 0.5761,1.05466 9.247,-4.9943 z"
     fill="#eb8231"
     id="path1960" />
  <path
     d="m 20.408859,5.8125641 c 7e-4,-0.07879 -0.0142,-0.15696 -0.0438,-0.23003 -0.0296,-0.07307 -0.0734,-0.13962 -0.1289,-0.19585 -0.112,-0.11355 -0.2647,-0.17817 -0.4246,-0.17963 -0.0792,-7.2e-4 -0.1577,0.01408 -0.2311,0.04357 -0.0734,0.02948 -0.1403,0.07307 -0.1968,0.12827 -0.1141,0.11149 -0.179,0.26353 -0.1805,0.42266 z m -0.6849,8.9941799 -0.6028,-0.0052 c -0.0015,0.1592 0.0607,0.3123 0.1727,0.4259 0.1121,0.1135 0.2648,0.1781 0.4247,0.1795 0.1599,0.0014 0.3138,-0.0605 0.4278,-0.172 0.1141,-0.1115 0.179,-0.2635 0.1804,-0.4227 z m 0.6302,-3.0486 c 0.0014,-0.1592 -0.0608,-0.3123 -0.1728,-0.4259 -0.112,-0.1135 -0.2648,-0.1781 -0.4247,-0.1795 -0.1599,-0.0014 -0.3138,0.0604 -0.4278,0.172 -0.1141,0.1115 -0.179,0.2635 -0.1804,0.4227 z m -1.151,-5.9565899 -0.082,8.9999899 1.2056,0.011 0.0821,-8.9999799 z m 1.1236,9.0106899 0.0274,-3.0538 -1.2057,-0.0107 -0.0273,3.0538 z"
     fill="#eb8231"
     id="path1962" />
  <path
     d="m 1.6936894,5.5937941 -0.28743,-0.52749 c -0.09407,0.05078 -0.17287,0.12557 -0.2283,0.21669 -0.05542,0.09112 -0.08548,0.19529 -0.08707,0.30179 -0.0016,0.10651 0.02532,0.21152 0.07799,0.30425 0.05267,0.09272 0.12919,0.16982 0.22171,0.22337 z m 8.9967696,5.2106499 -0.3031,0.5186 c 0.0916,0.053 0.1956,0.081 0.3015,0.0813 0.106,3e-4 0.2101,-0.0273 0.302,-0.0798 z m 9.0734,-5.1892399 0.3003,0.52015 c 0.0919,-0.05259 0.1682,-0.12837 0.2213,-0.21969 0.0531,-0.09132 0.081,-0.19496 0.081,-0.30046 0,-0.1055 -0.0279,-0.20913 -0.081,-0.30045 -0.0531,-0.09133 -0.1294,-0.1671 -0.2213,-0.21969 z m -8.8219,-5.01601896 0.2991,-0.5201436 c -0.0891,-0.0506866 -0.1898,-0.07788075 -0.2924,-0.07900519332 C 10.845959,-0.0010881 10.744759,0.02389444 10.654559,0.07261624 Z m -9.5513696,5.51321896 8.9964696,5.2106399 0.6065,-1.0373 -8.9967696,-5.2105699 z m 9.5986696,5.2121399 9.0746,-5.1888899 -0.6007,-1.04028 -9.073,5.1888699 z m 9.0734,-6.2300899 -8.8219,-5.01633046 -0.5979,1.04212046 8.8225,5.01603 z m -9.4081,-5.02275576 -9.2482996,4.99460576 0.57608,1.05467 9.2470196,-4.9943 z"
     fill="#eb8231"
     id="path1964" />
</svg>
