<svg width="100%" height="100%" preserveAspectRatio="none" fill="none" xmlns="http://www.w3.org/2000/svg">
  <path d="M54.6634 13.8864C54.6048 14.0194 54.5102 14.1335 54.3902 14.2162C54.278 14.2829 54.1491 14.3166 54.0185 14.3135C53.8462 14.3045 53.6798 14.2484 53.5374 14.1513C53.3589 14.0432 53.1475 13.9208 52.9033 13.7842C52.6306 13.6367 52.3452 13.5138 52.0505 13.417C51.6774 13.3011 51.2879 13.2463 50.8971 13.2548C50.5435 13.2473 50.1909 13.2947 49.852 13.3953C49.5791 13.4787 49.3252 13.6143 49.1047 13.7946C48.9087 13.9525 48.7532 14.1545 48.6509 14.3839C48.5499 14.6309 48.4998 14.8956 48.5034 15.1622C48.4923 15.4903 48.6016 15.8111 48.8108 16.0648C49.0361 16.3223 49.3113 16.5319 49.6199 16.6811C49.9894 16.8633 50.3733 17.0152 50.7677 17.1351C51.1981 17.2685 51.6353 17.4113 52.0794 17.5635C52.5264 17.7193 52.9643 17.8998 53.3911 18.1041C53.8105 18.2985 54.1976 18.5555 54.5389 18.8663C54.8826 19.1844 55.1578 19.5687 55.3477 19.9959C55.5655 20.5084 55.6703 21.0613 55.6551 21.6175C55.6598 22.2831 55.5374 22.9434 55.2945 23.5635C55.0607 24.1576 54.7023 24.6953 54.2432 25.1407C53.7603 25.6129 53.1848 25.9809 52.5525 26.2217C51.822 26.4921 51.0471 26.6241 50.2679 26.6109C49.778 26.6121 49.2892 26.5651 48.8086 26.4705C48.3376 26.3764 47.8765 26.2389 47.4312 26.0596C47 25.887 46.5867 25.6732 46.1969 25.4213C45.8271 25.1836 45.4844 24.9066 45.1748 24.5952L46.0109 23.2275C46.0904 23.1288 46.1867 23.0446 46.2953 22.9788C46.407 22.9104 46.5358 22.8748 46.6669 22.876C46.8778 22.8873 47.0801 22.9628 47.2464 23.0923C47.4542 23.2365 47.6984 23.3968 47.9789 23.5733C48.2939 23.7656 48.6271 23.9267 48.9737 24.0543C49.4158 24.2092 49.8826 24.2825 50.3512 24.2706C51.0334 24.3095 51.7068 24.1023 52.2479 23.6868C52.4783 23.4783 52.6587 23.2209 52.7758 22.9336C52.8929 22.6464 52.9436 22.3366 52.9242 22.0272C52.9387 21.6739 52.8301 21.3263 52.6168 21.0435C52.3958 20.7747 52.1201 20.5557 51.8077 20.401C51.4409 20.2168 51.0563 20.0702 50.6598 19.9632C50.2295 19.8443 49.794 19.7127 49.3533 19.5685C48.9077 19.4262 48.4714 19.2565 48.0469 19.0603C47.6243 18.8671 47.2365 18.606 46.899 18.2874C46.5524 17.9465 46.2803 17.5379 46.0998 17.0874C45.8798 16.5245 45.7753 15.9235 45.7924 15.3198C45.7942 14.7499 45.9124 14.1863 46.1396 13.6632C46.3668 13.1401 46.6984 12.6684 47.1142 12.2767C47.5769 11.8487 48.1189 11.5143 48.71 11.2924C49.3981 11.0335 50.1293 10.9066 50.8649 10.9185C51.7268 10.9085 52.5837 11.0513 53.3954 11.3401C54.1276 11.5989 54.799 12.0035 55.3686 12.5294L54.6634 13.8864Z" fill="#3C4A63"/>
  <path d="M66.4621 26.4249H65.2703C65.0673 26.4338 64.8651 26.3949 64.6801 26.3114C64.5991 26.2616 64.5289 26.1964 64.4736 26.1194C64.4182 26.0424 64.3788 25.9552 64.3576 25.8628L64.1224 25.09C63.8622 25.3238 63.5885 25.5422 63.3026 25.7441C63.0417 25.9271 62.7638 26.0845 62.4726 26.2144C62.1801 26.3436 61.874 26.4397 61.5599 26.5008C61.1997 26.5694 60.8335 26.602 60.4668 26.5981C60.0317 26.6027 59.5986 26.5408 59.1824 26.4145C58.8113 26.3063 58.4669 26.1222 58.1714 25.8739C57.883 25.6196 57.6565 25.3034 57.5089 24.9492C57.3442 24.5406 57.2641 24.1031 57.2732 23.6629C57.2779 23.2365 57.3907 22.8182 57.6012 22.4467C57.8674 21.9999 58.2436 21.6279 58.6943 21.3657C59.3238 20.9927 60.0085 20.721 60.7232 20.5604C61.7539 20.3276 62.8093 20.2206 63.8661 20.2416V19.5709C63.9118 18.9924 63.7469 18.4168 63.4016 17.9493C63.2297 17.7652 63.019 17.6213 62.7846 17.5278C62.5502 17.4343 62.298 17.3936 62.0459 17.4087C61.6759 17.3959 61.3064 17.4453 60.9528 17.5546C60.6945 17.6423 60.4456 17.755 60.2095 17.8912L59.6254 18.2277C59.4447 18.3264 59.2413 18.3767 59.0352 18.3737C58.8715 18.3785 58.7106 18.3311 58.5759 18.2385C58.4481 18.1479 58.3415 18.0309 58.2633 17.8955L57.7878 17.0847C59.0342 15.9479 60.6723 15.3319 62.3625 15.3645C62.9516 15.3547 63.5367 15.4613 64.084 15.6781C64.5692 15.8719 65.0072 16.1668 65.3683 16.5431C65.7257 16.9255 65.9981 17.3786 66.1676 17.8728C66.3549 18.419 66.4474 18.9929 66.4409 19.57L66.4621 26.4249ZM61.3186 24.8033C61.5706 24.804 61.822 24.7785 62.0687 24.7271C62.2936 24.6793 62.5119 24.6049 62.7191 24.5056C62.9276 24.4048 63.1253 24.2834 63.3093 24.1433C63.5033 23.9869 63.6859 23.817 63.8559 23.6351V21.8143C63.2079 21.8051 62.5603 21.8539 61.9211 21.9602C61.4899 22.0293 61.0693 22.1527 60.6694 22.3274C60.3998 22.443 60.1673 22.63 59.9971 22.868C59.8669 23.0614 59.7983 23.2894 59.8003 23.5222C59.7825 23.7092 59.8111 23.8976 59.8835 24.071C59.9559 24.2445 60.0699 24.3976 60.2156 24.5169C60.5357 24.7203 60.9126 24.8167 61.2915 24.7923L61.3186 24.8033Z" fill="#3C4A63"/>
  <path d="M72.951 15.3637C73.3975 15.3602 73.8429 15.4073 74.2787 15.5041C74.6748 15.5917 75.0573 15.7317 75.4161 15.9202H78.5808V16.8932C78.589 17.0332 78.5419 17.1709 78.4496 17.2769C78.3279 17.3848 78.1747 17.4511 78.0124 17.466L77.0287 17.6444C77.101 17.8336 77.1558 18.029 77.1926 18.2281C77.2337 18.4419 77.2543 18.6591 77.2541 18.8768C77.2611 19.3821 77.1488 19.8821 76.9261 20.3363C76.7078 20.7578 76.3994 21.1267 76.0226 21.4169C75.6163 21.7328 75.155 21.9714 74.6617 22.1207C74.1078 22.2908 73.5307 22.3747 72.951 22.3694C72.5436 22.3695 72.1372 22.3296 71.7377 22.2504C71.3953 22.4558 71.224 22.6864 71.224 22.9422C71.2241 23.0438 71.2529 23.1434 71.3073 23.2295C71.3617 23.3156 71.4394 23.3846 71.5314 23.4287C71.7852 23.5451 72.0569 23.6182 72.335 23.645C72.7104 23.6905 73.0884 23.7121 73.4665 23.7098C73.8893 23.7098 74.3211 23.7279 74.7619 23.764C75.1972 23.7977 75.6299 23.859 76.0573 23.9476C76.4547 24.0271 76.8367 24.1695 77.1889 24.3692C77.5263 24.5697 77.8052 24.8545 77.998 25.1953C78.2169 25.5822 78.3233 26.022 78.3054 26.4657C78.3023 26.9574 78.1772 27.4408 77.9411 27.8728C77.685 28.345 77.331 28.7577 76.9027 29.0835C76.4004 29.4614 75.8365 29.7503 75.2357 29.9375C74.5072 30.1646 73.7469 30.2741 72.9836 30.2618C72.2477 30.2746 71.5131 30.1948 70.7974 30.0241C70.256 29.8956 69.7394 29.6798 69.268 29.3852C68.8977 29.1453 68.5901 28.821 68.3707 28.4392C68.1759 28.1117 68.0719 27.7387 68.0691 27.3582C68.0553 26.887 68.2236 26.4285 68.5392 26.0771C68.9012 25.7007 69.3495 25.4172 69.8456 25.251C69.5809 25.1099 69.3555 24.9056 69.1896 24.6565C69.0142 24.3669 68.9286 24.0321 68.9437 23.6942C68.9461 23.5231 68.9759 23.3534 69.0319 23.1915C69.0918 22.9993 69.1801 22.8171 69.2942 22.6509C69.4203 22.4723 69.5691 22.3106 69.7368 22.1699C69.9303 22.0073 70.1433 21.8693 70.371 21.759C69.8374 21.4827 69.3853 21.0728 69.0593 20.5697C68.7337 20.0478 68.5684 19.4426 68.5837 18.8285C68.5744 18.3335 68.6811 17.8432 68.8956 17.3966C69.11 16.95 69.4261 16.5593 69.8189 16.2556C70.2316 15.9367 70.7008 15.698 71.2022 15.5519C71.7725 15.4028 72.3619 15.3394 72.951 15.3637V15.3637ZM75.8532 26.8879C75.8589 26.7897 75.8449 26.6913 75.8121 26.5985C75.7793 26.5057 75.7283 26.4203 75.662 26.3473C75.5098 26.1967 75.3218 26.087 75.1155 26.0285C74.8632 25.946 74.6031 25.8898 74.3393 25.8608C74.0255 25.8237 73.7097 25.8056 73.3937 25.8066H72.366C72.0218 25.8069 71.6788 25.767 71.3439 25.6876C71.0728 25.8368 70.8333 26.0369 70.6387 26.2769C70.4593 26.4926 70.3625 26.7646 70.3655 27.0446C70.3641 27.2341 70.4131 27.4206 70.5075 27.5852C70.6197 27.766 70.7782 27.9138 70.9667 28.0136C71.2233 28.15 71.5001 28.2449 71.7866 28.2948C72.1922 28.3685 72.604 28.403 73.0162 28.3976C73.4435 28.4035 73.8703 28.3654 74.2898 28.2841C74.5994 28.2258 74.8981 28.12 75.1751 27.9704C75.3834 27.8588 75.5586 27.6947 75.6832 27.4947C75.7942 27.3115 75.853 27.1018 75.8532 26.8879V26.8879ZM72.951 20.7258C73.2429 20.7309 73.5333 20.6851 73.8093 20.5905C74.0355 20.5124 74.2423 20.3873 74.4161 20.2234C74.5765 20.072 74.7014 19.8874 74.7822 19.6827C74.8673 19.4525 74.9099 19.2089 74.908 18.9637C74.92 18.7291 74.883 18.4947 74.7993 18.2751C74.7156 18.0555 74.587 17.8557 74.4217 17.6881C73.9962 17.3818 73.4846 17.2169 72.9595 17.2169C72.4344 17.2169 71.9227 17.3818 71.4973 17.6881C71.332 17.8557 71.2034 18.0555 71.1197 18.2751C71.036 18.4947 70.999 18.7291 71.011 18.9637C71.0095 19.2057 71.0519 19.446 71.1364 19.6729C71.2186 19.8769 71.3434 20.0612 71.5025 20.2136C71.6764 20.3813 71.8854 20.5087 72.1146 20.5865C72.3835 20.6798 72.6663 20.7269 72.951 20.7258V20.7258Z" fill="#3C4A63"/>
  <path d="M84.8972 15.3796C85.5497 15.373 86.198 15.4848 86.8102 15.7095C87.3782 15.9161 87.8947 16.2424 88.3242 16.6662C88.7575 17.1071 89.0927 17.6339 89.3079 18.2123C89.554 18.8816 89.6745 19.5903 89.6632 20.3029C89.674 20.4668 89.674 20.6311 89.6632 20.7949C89.6521 20.9033 89.6186 21.0082 89.5649 21.103C89.5215 21.1733 89.4569 21.2281 89.3804 21.2597C89.2842 21.2949 89.1822 21.3114 89.0798 21.3083H82.2462C82.2416 22.211 82.5659 23.0847 83.1589 23.7677C83.4374 24.0327 83.767 24.2388 84.1277 24.3735C84.4885 24.5083 84.8729 24.5688 85.2578 24.5516C85.6275 24.5583 85.9961 24.509 86.3509 24.4056C86.6313 24.3189 86.9037 24.2085 87.1653 24.0758L87.7776 23.746C87.9313 23.654 88.1065 23.6037 88.2857 23.6C88.3828 23.5968 88.479 23.6191 88.5646 23.6649C88.6445 23.7086 88.7136 23.7695 88.7668 23.8433L89.5375 24.7945C89.2539 25.1261 88.9224 25.4139 88.5538 25.6485C88.195 25.8714 87.8117 26.0528 87.4115 26.1891C87.0177 26.3261 86.6113 26.4239 86.1982 26.481C85.8016 26.5372 85.4017 26.5661 85.0011 26.5676C84.2733 26.5732 83.5506 26.4449 82.8696 26.1891C82.2233 25.9459 81.6377 25.5662 81.1531 25.076C80.6475 24.5548 80.2566 23.9345 80.0052 23.2546C79.7109 22.448 79.5679 21.5945 79.5831 20.7365C79.58 20.0229 79.7049 19.3145 79.952 18.6446C80.1814 18.0119 80.5358 17.4313 80.9944 16.9373C81.4556 16.4451 82.0138 16.0529 82.6341 15.785C83.3513 15.4926 84.1226 15.3544 84.8972 15.3796V15.3796ZM84.9519 17.2552C84.6221 17.2368 84.2919 17.2848 83.9811 17.3962C83.6703 17.5077 83.3852 17.6803 83.1429 17.9039C82.6744 18.4093 82.3832 19.0522 82.3129 19.7363H87.2867C87.2881 19.4103 87.2402 19.0859 87.1447 18.774C87.0581 18.4848 86.913 18.2163 86.7183 17.9849C86.5199 17.7526 86.2714 17.5678 85.9913 17.4443C85.6622 17.3084 85.3077 17.244 84.9516 17.2555L84.9519 17.2552Z" fill="#3C4A63"/>
  <path d="M92.748 26.4239V11.4229H97.1206C97.8773 11.4099 98.6325 11.4953 99.3671 11.6769C99.9355 11.8159 100.469 12.0698 100.935 12.4228C101.342 12.7404 101.661 13.155 101.864 13.6283C102.077 14.1422 102.182 14.6942 102.172 15.25C102.173 15.6413 102.102 16.0296 101.964 16.3958C101.821 16.7673 101.615 17.1115 101.355 17.4135C101.078 17.735 100.749 18.0089 100.382 18.2243C99.9759 18.4703 99.534 18.653 99.072 18.7661C100.083 18.8694 101.038 19.2809 101.805 19.9444C102.127 20.2551 102.379 20.6301 102.545 21.0447C102.71 21.4593 102.786 21.9041 102.767 22.3499C102.776 22.9407 102.659 23.5267 102.423 24.0689C102.198 24.5608 101.861 24.9939 101.439 25.3337C100.963 25.7077 100.416 25.9834 99.8319 26.1445C99.1206 26.3431 98.3842 26.4378 97.6456 26.4257L92.748 26.4239ZM93.8412 18.4403H97.1206C97.7308 18.4547 98.339 18.3651 98.9189 18.1753C99.3697 18.0267 99.7861 17.7895 100.143 17.478C100.448 17.2067 100.687 16.8705 100.843 16.4943C100.991 16.1341 101.067 15.7485 101.067 15.3592C101.096 14.9274 101.023 14.4947 100.855 14.0959C100.686 13.697 100.426 13.3429 100.095 13.062C99.4495 12.5431 98.4507 12.2836 97.0987 12.2836H93.8194L93.8412 18.4403ZM93.8412 19.2358V25.5537H97.6665C98.7436 25.6313 99.8137 25.329 100.689 24.6998C101.031 24.4032 101.3 24.0328 101.477 23.6169C101.653 23.2009 101.731 22.7504 101.706 22.2997C101.713 21.8595 101.619 21.4234 101.433 21.0242C101.25 20.6446 100.981 20.3131 100.646 20.0567C100.268 19.774 99.8394 19.5663 99.3831 19.4448C98.8271 19.2968 98.2533 19.2259 97.6779 19.234L93.8412 19.2358Z" fill="#3C4A63"/>
  <path d="M107.859 12.2227C107.859 12.3464 107.831 12.4686 107.776 12.5794C107.723 12.6875 107.653 12.7862 107.568 12.8713C107.481 12.9562 107.379 13.0241 107.267 13.0714C107.152 13.1201 107.029 13.1451 106.904 13.1451C106.779 13.1451 106.655 13.1201 106.54 13.0714C106.428 13.0242 106.326 12.9563 106.24 12.8713C106.155 12.787 106.086 12.6881 106.037 12.5794C105.987 12.4673 105.961 12.3456 105.962 12.2227C105.962 12.0964 105.988 11.9715 106.038 11.8555C106.134 11.6291 106.314 11.4487 106.541 11.3525C106.656 11.3039 106.78 11.2788 106.905 11.2788C107.03 11.2788 107.153 11.3039 107.268 11.3525C107.38 11.3999 107.482 11.4678 107.569 11.5526C107.656 11.6401 107.727 11.7426 107.777 11.8552C107.831 11.9702 107.859 12.0957 107.859 12.2227V12.2227ZM107.41 15.8606V26.4278H106.392V15.882L107.41 15.8606Z" fill="#3C4A63"/>
  <path d="M115.352 15.7067C116.057 15.6953 116.756 15.8278 117.407 16.0959C117.992 16.3367 118.515 16.7065 118.936 17.1775C119.367 17.6785 119.69 18.2615 119.887 18.8909C120.323 20.3531 120.323 21.9097 119.887 23.3718C119.689 24.0037 119.364 24.5886 118.931 25.0907C118.511 25.5627 117.988 25.9323 117.402 26.1708C116.081 26.6794 114.618 26.6794 113.297 26.1708C112.709 25.9316 112.183 25.5619 111.76 25.0898C111.329 24.5911 111.005 24.0097 110.809 23.3816C110.372 21.9196 110.372 20.3627 110.809 18.9007C111.005 18.2708 111.328 17.6876 111.76 17.1873C112.184 16.7168 112.71 16.3474 113.297 16.1063C113.947 15.8346 114.647 15.6986 115.352 15.7067V15.7067ZM115.352 25.766C115.915 25.7745 116.474 25.6639 116.992 25.4417C117.459 25.2329 117.868 24.9137 118.183 24.5119C118.516 24.0776 118.757 23.5813 118.894 23.0524C119.218 21.806 119.231 20.4997 118.932 19.2471C118.796 18.7149 118.554 18.2151 118.221 17.7769C117.907 17.3721 117.498 17.0496 117.03 16.837C115.962 16.4015 114.764 16.4015 113.696 16.837C113.228 17.0498 112.819 17.3726 112.504 17.7775C112.167 18.2153 111.92 18.7149 111.777 19.2477C111.456 20.5015 111.456 21.8155 111.777 23.0692C111.917 23.5979 112.16 24.0939 112.493 24.5287C112.809 24.9304 113.217 25.2496 113.685 25.4585C114.211 25.6813 114.78 25.7886 115.352 25.773V25.766Z" fill="#3C4A63"/>
  <path d="M122.991 26.4286V15.8828H123.538C123.577 15.8783 123.616 15.8817 123.654 15.8928C123.691 15.9038 123.726 15.9223 123.756 15.9471C123.786 15.9718 123.811 16.0023 123.829 16.0368C123.847 16.0713 123.858 16.1091 123.86 16.1478L123.959 17.737C124.427 17.1445 125.004 16.6457 125.659 16.2668C126.325 15.8935 127.08 15.7061 127.845 15.7246C128.374 15.7145 128.899 15.8081 129.392 16C129.815 16.1736 130.19 16.4465 130.485 16.7955C130.79 17.1624 131.017 17.5873 131.152 18.0442C131.308 18.5814 131.384 19.1389 131.376 19.6982V26.4286H130.359V19.6881C130.408 18.8556 130.165 18.032 129.671 17.3585C129.41 17.0663 129.085 16.8381 128.72 16.6918C128.356 16.5455 127.963 16.4851 127.572 16.5153C126.884 16.5133 126.208 16.7003 125.62 17.0556C124.994 17.4372 124.448 17.9366 124.013 18.5258V26.4286H122.991Z" fill="#3C4A63"/>
  <path d="M138.717 15.7067C139.287 15.7008 139.854 15.8055 140.384 16.0148C140.887 16.215 141.34 16.5212 141.712 16.9123C142.103 17.3293 142.403 17.8226 142.592 18.361C142.814 18.995 142.921 19.6628 142.909 20.3339C142.919 20.4449 142.895 20.5563 142.838 20.6527C142.811 20.6827 142.777 20.7061 142.739 20.7211C142.701 20.7361 142.66 20.7423 142.62 20.7393H134.924V20.9388C134.912 21.6442 135.006 22.3473 135.202 23.0252C135.362 23.5776 135.631 24.0924 135.995 24.5388C136.331 24.9395 136.758 25.2543 137.241 25.4567C137.761 25.6693 138.319 25.7741 138.881 25.7648C139.351 25.7738 139.821 25.7156 140.275 25.5919C140.617 25.4942 140.948 25.3619 141.264 25.1972C141.486 25.0804 141.699 24.9485 141.903 24.8025C142 24.7149 142.119 24.6552 142.247 24.6297C142.289 24.6281 142.331 24.6373 142.368 24.6562C142.405 24.6751 142.437 24.7031 142.461 24.7377L142.739 25.0782C142.544 25.3107 142.314 25.5113 142.056 25.6727C141.759 25.8633 141.442 26.021 141.11 26.143C140.755 26.2774 140.39 26.3823 140.017 26.4566C139.623 26.5348 139.222 26.5747 138.82 26.5756C138.136 26.5835 137.458 26.4548 136.825 26.1971C136.235 25.957 135.706 25.5876 135.278 25.1161C134.808 24.5971 134.452 23.9859 134.233 23.3216C133.988 22.5499 133.87 21.7438 133.884 20.9345C133.877 20.2239 133.988 19.5171 134.213 18.8426C134.412 18.2342 134.732 17.6718 135.153 17.1885C135.573 16.7226 136.089 16.3536 136.667 16.1076C137.314 15.8317 138.013 15.6951 138.717 15.7067V15.7067ZM138.717 16.4582C138.213 16.4501 137.713 16.5362 137.241 16.7121C136.817 16.8735 136.431 17.1224 136.11 17.4425C135.783 17.7734 135.522 18.162 135.339 18.5883C135.135 19.0654 135.004 19.5701 134.951 20.0857H141.974C141.982 19.5699 141.902 19.0566 141.739 18.5669C141.599 18.1456 141.374 17.7573 141.077 17.4263C140.792 17.1163 140.441 16.8726 140.05 16.7128C139.632 16.544 139.185 16.4594 138.733 16.464L138.717 16.4582Z" fill="#3C4A63"/>
  <path d="M148.667 26.5992C148.361 26.6178 148.054 26.5747 147.765 26.4726C147.476 26.3704 147.21 26.2113 146.984 26.0047C146.766 25.7544 146.601 25.4635 146.498 25.1488C146.394 24.8342 146.355 24.5021 146.382 24.1722V16.9615H144.852C144.783 16.9633 144.715 16.9403 144.661 16.8966C144.636 16.8744 144.616 16.8469 144.602 16.8161C144.589 16.7852 144.583 16.7518 144.584 16.7183V16.3236L146.404 16.1938L146.661 12.4115C146.669 12.3477 146.698 12.2883 146.743 12.2426C146.767 12.2174 146.796 12.1976 146.828 12.1845C146.86 12.1714 146.894 12.1653 146.929 12.1667H147.405V16.1938H150.761V16.9453H147.405V24.1126C147.4 24.3659 147.439 24.6181 147.519 24.8585C147.58 25.06 147.687 25.2449 147.831 25.3992C147.961 25.5325 148.12 25.6342 148.295 25.6966C148.482 25.762 148.678 25.7949 148.875 25.7938C149.102 25.7986 149.329 25.7601 149.542 25.6803C149.71 25.615 149.871 25.5336 150.023 25.4371C150.139 25.3635 150.251 25.2822 150.356 25.1938C150.41 25.1352 150.481 25.0953 150.559 25.0803C150.593 25.0847 150.626 25.0967 150.655 25.1154C150.685 25.1341 150.709 25.159 150.728 25.1883L151.007 25.6317C150.717 25.9401 150.365 26.1834 149.974 26.3452C149.561 26.5187 149.116 26.6052 148.667 26.5992V26.5992Z" fill="#3C4A63"/>
  <path d="M152.011 15.8819H152.82C152.909 15.8789 152.996 15.9076 153.066 15.963C153.125 16.0073 153.17 16.0672 153.197 16.1359L155.886 24.4609C155.934 24.6135 155.975 24.7684 156.007 24.9251L156.094 25.3684C156.132 25.2225 156.171 25.071 156.214 24.9251C156.258 24.7791 156.307 24.6225 156.362 24.4603L159.226 16.0655C159.24 15.9974 159.278 15.9365 159.333 15.8939C159.388 15.8515 159.456 15.8298 159.526 15.8327H159.926C159.997 15.829 160.068 15.8507 160.124 15.8939C160.181 15.9363 160.221 15.9976 160.237 16.0667L163.057 24.4609C163.16 24.7641 163.245 25.0727 163.314 25.3853C163.343 25.2376 163.374 25.0881 163.406 24.9367C163.442 24.7773 163.488 24.6202 163.543 24.4664L166.244 16.1414C166.265 16.0633 166.314 15.9952 166.38 15.9489C166.447 15.9026 166.529 15.881 166.61 15.8877H167.359L163.751 26.4277H163.003C162.888 26.4277 162.806 26.3521 162.757 26.2062L159.85 17.6278C159.813 17.5233 159.78 17.4171 159.751 17.309C159.722 17.2009 159.697 17.0946 159.675 16.9901C159.653 17.0946 159.629 17.2009 159.604 17.309C159.578 17.4167 159.548 17.5232 159.511 17.6278L156.554 26.1949C156.545 26.256 156.514 26.3119 156.467 26.3524C156.42 26.3931 156.36 26.4158 156.298 26.4164H155.58L152.011 15.8819Z" fill="#3C4A63"/>
  <path d="M173.488 15.7067C174.193 15.6953 174.892 15.8278 175.543 16.0959C176.129 16.3364 176.652 16.706 177.074 17.1769C177.504 17.6779 177.828 18.2608 178.025 18.8903C178.461 20.3524 178.461 21.9091 178.025 23.3712C177.827 23.9988 177.504 24.58 177.074 25.0794C176.654 25.5519 176.13 25.9218 175.543 26.1604C174.223 26.669 172.759 26.669 171.439 26.1604C170.85 25.9212 170.325 25.5515 169.902 25.0794C169.471 24.5807 169.147 23.9993 168.951 23.3712C168.514 21.9092 168.514 20.3523 168.951 18.8903C169.146 18.2604 169.47 17.6772 169.902 17.1769C170.326 16.7064 170.851 16.337 171.439 16.0959C172.088 15.8285 172.785 15.6961 173.488 15.7067V15.7067ZM173.488 25.766C174.052 25.7745 174.61 25.664 175.128 25.4417C175.596 25.2356 176.007 24.9187 176.325 24.5186C176.657 24.0843 176.899 23.588 177.035 23.0591C177.349 21.8045 177.349 20.4922 177.035 19.2376C176.899 18.7054 176.657 18.2056 176.325 17.7674C176.01 17.3624 175.601 17.0396 175.133 16.8269C174.065 16.3914 172.868 16.3914 171.799 16.8269C171.331 17.0396 170.923 17.3622 170.608 17.7668C170.281 18.2105 170.045 18.7138 169.914 19.248C169.592 20.5018 169.592 21.8158 169.914 23.0695C170.053 23.5982 170.297 24.0942 170.63 24.529C170.945 24.9306 171.354 25.2496 171.821 25.4585C172.348 25.6812 172.916 25.7885 173.488 25.773V25.766Z" fill="#3C4A63"/>
  <path d="M181.126 26.426V15.8802H181.673C181.766 15.8721 181.86 15.899 181.935 15.9558C181.997 16.0257 182.03 16.1165 182.027 16.2097L182.114 18.4369C182.399 17.6648 182.871 16.9743 183.487 16.4264C184.081 15.9304 184.839 15.6705 185.614 15.6966C185.914 15.6948 186.214 15.7293 186.506 15.7994C186.773 15.8661 187.031 15.9645 187.274 16.0925L187.132 16.7898C187.129 16.8148 187.122 16.8389 187.109 16.8609C187.097 16.8828 187.081 16.9022 187.061 16.9177C187.041 16.9334 187.018 16.9449 186.994 16.9517C186.97 16.9586 186.944 16.9605 186.919 16.9575C186.857 16.9526 186.796 16.9381 186.739 16.9144L186.443 16.8171C186.302 16.7759 186.158 16.7434 186.013 16.7198C185.818 16.6896 185.62 16.6752 185.423 16.6766C185.057 16.6629 184.692 16.7224 184.349 16.8514C184.006 16.9805 183.693 17.1766 183.428 17.4281C182.842 18.0383 182.411 18.7789 182.171 19.5882V26.426H181.126Z" fill="#3C4A63"/>
  <path d="M190.872 10.9966V20.4017H191.364C191.461 20.4019 191.557 20.3874 191.649 20.3586C191.761 20.3151 191.862 20.2466 191.944 20.1585L196.223 16.1423C196.296 16.0701 196.376 16.0066 196.464 15.9532C196.56 15.8996 196.67 15.8735 196.781 15.8777H197.683L192.977 20.298L192.775 20.4926C192.71 20.552 192.639 20.6029 192.562 20.644C192.668 20.6951 192.766 20.7627 192.851 20.8441L193.097 21.0981L198.016 26.4219H197.124C197.031 26.4232 196.94 26.4029 196.856 26.3625C196.767 26.3161 196.688 26.2539 196.621 26.179L192.173 21.4071C192.079 21.301 191.966 21.2131 191.839 21.1476C191.689 21.0932 191.529 21.0693 191.369 21.0773H190.889V26.4011H189.872V10.9966H190.872Z" fill="#3C4A63"/>
  <path d="M206.278 17.1915C206.258 17.2366 206.225 17.2746 206.183 17.3006C206.141 17.3267 206.092 17.3395 206.042 17.3375C205.929 17.3235 205.822 17.2765 205.735 17.2022C205.577 17.0936 205.413 16.9943 205.243 16.9048C205.004 16.781 204.753 16.6813 204.494 16.6074C204.138 16.5106 203.77 16.4653 203.401 16.4728C203.043 16.4681 202.686 16.5229 202.346 16.635C202.051 16.732 201.776 16.8802 201.533 17.0728C201.307 17.2441 201.121 17.4616 200.987 17.7105C200.864 17.9478 200.801 18.2112 200.802 18.4781C200.79 18.7746 200.881 19.0662 201.059 19.3042C201.246 19.5277 201.476 19.7115 201.735 19.8449C202.038 20.0093 202.357 20.1433 202.686 20.2448L203.78 20.5853C204.144 20.6971 204.508 20.8233 204.873 20.9638C205.213 21.1011 205.532 21.2829 205.824 21.5044C206.099 21.7055 206.33 21.9614 206.5 22.2559C206.679 22.5876 206.768 22.9604 206.757 23.3369C206.761 23.7761 206.676 24.2115 206.506 24.617C206.342 25.008 206.093 25.3585 205.779 25.6442C205.437 25.9473 205.038 26.1804 204.605 26.3305C204.096 26.5072 203.559 26.5932 203.02 26.5844C202.355 26.6001 201.695 26.4786 201.08 26.2277C200.547 25.9974 200.054 25.6842 199.62 25.2997L199.866 24.9374C199.896 24.886 199.937 24.8417 199.986 24.8077C200.041 24.7764 200.104 24.7614 200.167 24.7645C200.297 24.7809 200.418 24.8399 200.511 24.9322C200.683 25.0684 200.866 25.1911 201.058 25.2994C201.316 25.449 201.589 25.5721 201.872 25.6665C202.262 25.7888 202.671 25.8455 203.08 25.8342C203.485 25.8425 203.888 25.7804 204.271 25.6506C204.589 25.5427 204.881 25.3717 205.13 25.1479C205.365 24.943 205.552 24.6885 205.676 24.4029C205.794 24.1146 205.853 23.806 205.851 23.4948C205.863 23.1811 205.773 22.8719 205.594 22.6136C205.413 22.3707 205.182 22.1682 204.918 22.0191C204.617 21.8463 204.298 21.7068 203.967 21.603L202.873 21.2624C202.508 21.1502 202.143 21.0257 201.779 20.8888C201.44 20.7635 201.12 20.5925 200.828 20.3806C200.553 20.181 200.323 19.927 200.152 19.6347C199.972 19.3031 199.883 18.9303 199.893 18.5537C199.893 18.1796 199.977 17.8102 200.139 17.4727C200.294 17.1198 200.521 16.803 200.806 16.5429C201.129 16.269 201.5 16.0565 201.9 15.916C202.373 15.7544 202.87 15.6755 203.37 15.6828C203.96 15.673 204.547 15.7683 205.103 15.964C205.617 16.1567 206.088 16.447 206.491 16.8186L206.278 17.1915Z" fill="#3C4A63"/>
  <path d="M9.61589 22.5472L9.30387 23.0606C9.39504 23.1155 9.4992 23.1454 9.60574 23.1472C9.71228 23.1489 9.81739 23.1226 9.91036 23.0708C10.0033 23.019 10.0809 22.9436 10.135 22.8522C10.1892 22.7609 10.2181 22.6569 10.2187 22.5509L9.61589 22.5472ZM9.67737 12.2392L10.2802 12.2425C10.2808 12.1363 10.2531 12.0318 10.1998 11.9397C10.1466 11.8476 10.0697 11.7712 9.97709 11.7184L9.67737 12.2392ZM0.59696 7.06099L0.896679 6.54084C0.804976 6.48854 0.701069 6.46115 0.595377 6.46143C0.489685 6.4617 0.385924 6.48963 0.294499 6.54242C0.203073 6.5952 0.127197 6.67098 0.0744799 6.76216C0.0217625 6.85334 -0.00594332 6.95671 -0.00585918 7.0619L0.59696 7.06099ZM0.613253 17.1258H0.0104332C0.0104591 17.2291 0.0372689 17.3306 0.0882683 17.4205C0.139268 17.5105 0.212729 17.5858 0.301545 17.6392L0.613253 17.1258ZM10.2184 22.5506L10.2799 12.2425L9.07424 12.2355L9.01276 22.5435L10.2184 22.5506ZM9.97555 11.7193L0.896679 6.54054L0.297241 7.58082L9.3758 12.7599L9.97555 11.7193ZM-0.00585918 7.0619L0.0104332 17.1267L1.21607 17.1249L1.19978 7.06007L-0.00585918 7.0619ZM0.301545 17.6392L9.30356 23.0606L9.92759 22.0341L0.925268 16.6124L0.301545 17.6392Z" fill="#679EC1"/>
  <path d="M9.3797 22.0279C9.24033 22.1059 9.13779 22.2358 9.09464 22.3891C9.05149 22.5423 9.07126 22.7063 9.14961 22.845C9.22796 22.9837 9.35846 23.0858 9.51242 23.1288C9.66637 23.1717 9.83116 23.152 9.97053 23.074L9.3797 22.0279ZM17.5951 18.1186L17.8911 18.6412C18.0275 18.5617 18.1271 18.432 18.1684 18.2801C18.2097 18.1282 18.1893 17.9662 18.1118 17.8291C18.0342 17.6919 17.9056 17.5906 17.7537 17.547C17.6018 17.5033 17.4387 17.5208 17.2997 17.5957L17.5951 18.1186ZM14.6099 19.1038C14.5409 19.1425 14.4802 19.1944 14.4313 19.2564C14.3824 19.3184 14.3463 19.3894 14.325 19.4654C14.3037 19.5413 14.2976 19.6207 14.3071 19.6989C14.3166 19.7772 14.3415 19.8528 14.3804 19.9215C14.4193 19.9902 14.4714 20.0506 14.5337 20.0992C14.596 20.1479 14.6674 20.1839 14.7436 20.2051C14.8199 20.2263 14.8997 20.2323 14.9783 20.2229C15.0569 20.2134 15.1329 20.1886 15.2019 20.1499L14.6099 19.1038ZM9.97053 23.074L17.8905 18.6415L17.2997 17.5957L9.3797 22.0279L9.97053 23.074ZM17.299 17.5972L14.6102 19.1041L15.2019 20.1499L17.8911 18.6415L17.299 17.5972Z" fill="#679EC1"/>
  <path d="M18.6823 38.2967L18.37 38.8101C18.4611 38.8651 18.5653 38.895 18.6718 38.8969C18.7784 38.8987 18.8835 38.8724 18.9766 38.8206C19.0696 38.7688 19.1471 38.6934 19.2013 38.6021C19.2555 38.5108 19.2844 38.4068 19.2851 38.3007L18.6823 38.2967ZM18.7478 27.9887L19.3506 27.9924C19.3513 27.8861 19.3236 27.7815 19.2703 27.6893C19.2171 27.5972 19.1402 27.5208 19.0475 27.4679L18.7478 27.9887ZM9.66337 22.8105L9.96309 22.2904C9.87136 22.238 9.76743 22.2107 9.66171 22.2109C9.55599 22.2112 9.45221 22.2392 9.36077 22.292C9.26934 22.3448 9.19347 22.4206 9.14077 22.5119C9.08808 22.6031 9.06041 22.7065 9.06055 22.8117L9.66337 22.8105ZM9.68519 32.8753H9.08237C9.0826 32.9782 9.10944 33.0794 9.16032 33.1691C9.21119 33.2587 9.28439 33.3338 9.37287 33.3872L9.68519 32.8753ZM19.2848 38.3007L19.3503 27.9927L18.1446 27.985L18.0792 38.293L19.2848 38.3007ZM19.0472 27.4695L9.96309 22.2897L9.36396 23.33L18.4481 28.5094L19.0472 27.4695ZM9.06055 22.8117L9.08237 32.8765L10.288 32.8741L10.2662 22.8093L9.06055 22.8117ZM9.37287 33.3884L18.3697 38.8101L18.9943 37.7842L9.99752 32.3619L9.37287 33.3884Z" fill="#679EC1"/>
  <path d="M29.6547 22.9367L30.2572 22.9511C30.2597 22.845 30.234 22.7402 30.1826 22.6472C30.1312 22.5543 30.0559 22.4766 29.9645 22.4221C29.873 22.3675 29.7687 22.3381 29.6621 22.3367C29.5555 22.3354 29.4505 22.3622 29.3577 22.4144L29.6547 22.9367ZM20.5979 28.0393L20.301 27.5171C20.2081 27.5694 20.1308 27.6454 20.0771 27.7372C20.0233 27.829 19.995 27.9334 19.9951 28.0396L20.5979 28.0393ZM20.6035 38.4H20.0007C20.0006 38.5053 20.0284 38.6087 20.0813 38.6998C20.1341 38.791 20.2101 38.8668 20.3016 38.9195C20.3932 38.9722 20.497 39 20.6028 39.0001C20.7085 39.0002 20.8125 38.9726 20.9041 38.9201L20.6035 38.4ZM29.4032 33.3583L29.7042 33.8784C29.7939 33.8271 29.8687 33.7536 29.9216 33.665C29.9745 33.5765 30.0036 33.4759 30.006 33.373L29.4032 33.3583ZM29.3577 22.4144L20.301 27.5171L20.8949 28.5613L29.9516 23.459L29.3577 22.4144ZM19.9951 28.0396L20.0007 38.4015H21.2063L21.2008 28.039L19.9951 28.0396ZM20.9041 38.9201L29.7042 33.8781L29.1026 32.8378L20.3025 37.8814L20.9041 38.9201ZM30.006 33.3727L30.2575 22.9511L29.0522 22.9223L28.8007 33.3439L30.006 33.3727Z" fill="#6DB56D"/>
  <path d="M29.3491 23.2096C29.4871 23.29 29.6515 23.3126 29.8062 23.2725C29.9609 23.2323 30.0932 23.1325 30.1741 22.9952C30.2549 22.8579 30.2776 22.6943 30.2372 22.5403C30.1969 22.3863 30.0967 22.2546 29.9587 22.1742L29.3491 23.2096ZM21.8159 18.1186L22.1205 17.6009C21.9826 17.5204 21.8182 17.4978 21.6635 17.538C21.5088 17.5782 21.3765 17.6779 21.2956 17.8152C21.2148 17.9525 21.1921 18.1162 21.2324 18.2701C21.2728 18.4241 21.373 18.5558 21.511 18.6363L21.8159 18.1186ZM24.1731 20.1878C24.3109 20.266 24.4741 20.2869 24.6273 20.246C24.7805 20.2052 24.9114 20.1059 24.9915 19.9697C25.0717 19.8335 25.0947 19.6713 25.0555 19.5183C25.0164 19.3653 24.9182 19.2339 24.7823 19.1525L24.1731 20.1878ZM29.9587 22.1739L22.1208 17.6009L21.511 18.6363L29.3491 23.2096L29.9587 22.1739ZM21.5113 18.6363L24.1731 20.1875L24.7823 19.1521L22.1205 17.6009L21.5113 18.6363Z" fill="#6DB56D"/>
  <path d="M38.9076 7.29471L39.5101 7.30909C39.5126 7.20306 39.4869 7.09826 39.4355 7.00537C39.3841 6.91247 39.3089 6.83479 39.2175 6.78025C39.1261 6.72571 39.0218 6.69625 38.9153 6.69487C38.8087 6.6935 38.7037 6.72026 38.611 6.77242L38.9076 7.29471ZM29.8509 12.3918L29.5555 11.8695C29.4623 11.9217 29.3847 11.9976 29.3307 12.0894C29.2766 12.1812 29.2481 12.2857 29.248 12.3921L29.8509 12.3918ZM29.8564 22.758H29.2536C29.2535 22.8633 29.2813 22.9667 29.3342 23.058C29.387 23.1492 29.4631 23.2249 29.5546 23.2777C29.6462 23.3304 29.7501 23.3582 29.8559 23.3582C29.9617 23.3583 30.0657 23.3307 30.1573 23.2781L29.8564 22.758ZM38.6561 17.7095L38.9571 18.2297C39.0467 18.1782 39.1215 18.1047 39.1743 18.0162C39.2271 17.9277 39.2562 17.8271 39.2587 17.7242L38.6561 17.7095ZM38.611 6.77242L29.5555 11.8695L30.1487 12.9141L39.2042 7.81699L38.611 6.77242ZM29.248 12.3921L29.2536 22.7595H30.4592L30.4537 12.3915L29.248 12.3921ZM30.1573 23.2781L38.9574 18.2297L38.3552 17.1894L29.5555 22.2394L30.1573 23.2781ZM39.259 17.7251L39.5104 7.30909L38.3051 7.28033L38.0536 17.6964L39.259 17.7251Z" fill="#6DB56D"/>
  <path d="M20.0197 5.69535L19.7323 5.16787C19.6383 5.21864 19.5595 5.2934 19.5041 5.38447C19.4487 5.47555 19.4187 5.57966 19.4171 5.68611C19.4154 5.79256 19.4423 5.89753 19.4949 5.99024C19.5475 6.08295 19.6239 6.16006 19.7163 6.21366L20.0197 5.69535ZM29.011 10.906L28.7076 11.4246C28.7992 11.4777 28.9032 11.5058 29.0092 11.5062C29.1152 11.5065 29.2194 11.479 29.3113 11.4264L29.011 10.906ZM38.0843 5.71677L38.3847 6.23691C38.4766 6.18432 38.5529 6.10855 38.606 6.01723C38.6591 5.92591 38.687 5.82227 38.687 5.71677C38.687 5.61127 38.6591 5.50763 38.606 5.41631C38.5529 5.32499 38.4766 5.24922 38.3847 5.19663L38.0843 5.71677ZM29.268 0.700748L29.5671 0.180604C29.478 0.129917 29.3773 0.102723 29.2747 0.101599C29.172 0.100474 29.0708 0.125457 28.9806 0.174179L29.268 0.700748ZM19.7163 6.21366L28.7076 11.4246L29.3153 10.3874L20.3232 5.17674L19.7163 6.21366ZM29.3113 11.4261L38.3838 6.23722L37.7831 5.19693L28.7107 10.3858L29.3113 11.4261ZM38.3838 5.19601L29.5671 0.179992L28.9689 1.22028L37.7852 6.2363L38.3838 5.19601ZM28.9806 0.173261L19.7323 5.16787L20.3084 6.22253L29.5554 1.22823L28.9806 0.173261Z" fill="#EB8231"/>
  <path d="M20.403 5.81232C20.4037 5.73353 20.3888 5.65536 20.3592 5.58229C20.3296 5.50922 20.2858 5.44267 20.2303 5.38644C20.1183 5.27289 19.9656 5.20827 19.8057 5.20681C19.7265 5.20609 19.648 5.22089 19.5746 5.25038C19.5012 5.27986 19.4343 5.32345 19.3778 5.37865C19.2637 5.49014 19.1988 5.64218 19.1973 5.80131L20.403 5.81232ZM19.7181 14.8065L19.1153 14.8013C19.1138 14.9605 19.176 15.1136 19.288 15.2272C19.4001 15.3407 19.5528 15.4053 19.7127 15.4067C19.8726 15.4081 20.0265 15.3462 20.1405 15.2347C20.2546 15.1232 20.3195 14.9712 20.3209 14.812L19.7181 14.8065ZM20.3483 11.7579C20.3497 11.5987 20.2875 11.4456 20.1755 11.332C20.0635 11.2185 19.9107 11.1539 19.7508 11.1525C19.5909 11.1511 19.437 11.2129 19.323 11.3245C19.2089 11.436 19.144 11.588 19.1426 11.7472L20.3483 11.7579ZM19.1973 5.80131L19.1153 14.8013L20.3209 14.8123L20.403 5.81232L19.1973 5.80131ZM20.3209 14.812L20.3483 11.7582L19.1426 11.7475L19.1153 14.8013L20.3209 14.812Z" fill="#EB8231"/>
  <path d="M1.68783 5.59355L1.4004 5.06606C1.30633 5.11684 1.22753 5.19163 1.1721 5.28275C1.11668 5.37387 1.08662 5.47804 1.08503 5.58454C1.08343 5.69105 1.11035 5.79606 1.16302 5.88879C1.21569 5.98151 1.29221 6.05861 1.38473 6.11216L1.68783 5.59355ZM10.6846 10.8042L10.3815 11.3228C10.4731 11.3758 10.5771 11.4038 10.683 11.4041C10.789 11.4044 10.8931 11.3768 10.985 11.3243L10.6846 10.8042ZM19.758 5.61496L20.0583 6.13511C20.1502 6.08252 20.2265 6.00674 20.2796 5.91542C20.3327 5.8241 20.3606 5.72046 20.3606 5.61496C20.3606 5.50946 20.3327 5.40583 20.2796 5.31451C20.2265 5.22318 20.1502 5.14741 20.0583 5.09482L19.758 5.61496ZM10.9361 0.598941L11.2352 0.0787974C11.1461 0.0281108 11.0454 0.000916648 10.9428 -0.000207794C10.8401 -0.00133224 10.7389 0.0236503 10.6487 0.0723721L10.9361 0.598941ZM1.38473 6.11216L10.3812 11.3228L10.9877 10.2855L1.99093 5.07493L1.38473 6.11216ZM10.9834 11.3243L20.058 6.13541L19.4573 5.09513L10.3843 10.284L10.9834 11.3243ZM20.0568 5.09421L11.2349 0.0778795L10.637 1.12L19.4595 6.13603L20.0568 5.09421ZM10.6487 0.0714542L1.4004 5.06606L1.97648 6.12073L11.2235 1.12643L10.6487 0.0714542Z" fill="#EB8231"/>
</svg>
