<svg width="100%" height="100%" preserveAspectRatio="none" fill="none" xmlns="http://www.w3.org/2000/svg">
<path d="M34.2917 31.5895L34.2998 13.5342L38.2641 13.5358L38.256 31.5911L34.2917 31.5895Z" fill="#E8762B"/>
<path fill-rule="evenodd" clip-rule="evenodd" d="M43.3254 4.37195C45.5035 7.965 44.2078 12.5768 40.4316 14.6729C37.381 16.366 33.6445 15.8989 31.1729 13.7625L15.0935 22.6151L13.1177 19.3643L29.0092 10.6151C27.8231 7.28645 29.226 3.50233 32.5441 1.66082C36.3202 -0.434925 41.1472 0.778879 43.3254 4.37195ZM39.9061 6.26932C40.9953 8.06585 40.3482 10.372 38.4593 11.4196C36.5712 12.4677 34.1577 11.8606 33.0686 10.064C31.9804 8.26753 32.6274 5.96184 34.5155 4.91375C36.4045 3.86567 38.8179 4.47279 39.9061 6.26932Z" fill="#5C94B9"/>
<path fill-rule="evenodd" clip-rule="evenodd" d="M13.7144 29.0663C13.3281 29.3939 12.9027 29.69 12.4401 29.9482C8.66715 32.0529 3.84431 30.8336 1.66805 27.225C-0.508206 23.6165 0.786441 18.9848 4.55932 16.8801C8.3322 14.7753 13.155 15.9943 15.3313 19.6029C16.5324 21.5944 16.6763 23.8977 15.9298 25.9158L30.0901 33.7017L28.1172 36.9856L13.7144 29.0663ZM11.915 21.5084C13.0032 23.3127 12.3567 25.6287 10.4694 26.6809C8.58298 27.7335 6.17156 27.1237 5.08343 25.3194C3.99617 23.5152 4.64262 21.1996 6.52907 20.147C8.41637 19.0944 10.8278 19.7041 11.915 21.5084Z" fill="#62AC62"/>
<path fill-rule="evenodd" clip-rule="evenodd" d="M32.2665 43.4342C36.0578 45.4957 40.9072 44.2424 43.0976 40.6349C45.289 37.0279 43.9918 32.4321 40.2005 30.3705C36.4093 28.309 31.5599 29.5623 29.3686 33.1698C27.1781 36.7773 28.4753 41.3726 32.2665 43.4342ZM34.2503 40.1685C36.1459 41.1993 38.5701 40.5726 39.6658 38.7691C40.7615 36.9651 40.1133 34.6674 38.2177 33.6367C36.3221 32.6059 33.8969 33.2325 32.8013 35.0361C31.7056 36.84 32.3546 39.1377 34.2503 40.1685Z" fill="#E8762B"/>
</svg>
