<svg viewBox="0 0 120 22" fill="none" xmlns="http://www.w3.org/2000/svg">
<path fill-rule="evenodd" clip-rule="evenodd" d="M13.9425 5.52061L5.99847 9.93008L5.69891 9.41306L13.643 5.00359L13.9425 5.52061Z" fill="#5C94B9"/>
<path fill-rule="evenodd" clip-rule="evenodd" d="M13.9028 4.06129L14.902 5.78587L5.73818 10.8724L4.73896 9.14782L13.9028 4.06129Z" fill="#5C94B9"/>
<path fill-rule="evenodd" clip-rule="evenodd" d="M16.131 6.54731L16.131 15.5293L16.7383 15.5293L16.7383 6.54731L16.131 6.54731Z" fill="#E8762B"/>
<path fill-rule="evenodd" clip-rule="evenodd" d="M17.4355 16.2268L17.4355 5.84947L15.4329 5.84947L15.4329 16.2268L17.4355 16.2268Z" fill="#E8762B"/>
<path fill-rule="evenodd" clip-rule="evenodd" d="M13.4298 17.617L5.58897 13.0821L5.89789 12.5704L13.7388 17.1053L13.4298 17.617Z" fill="#62AC62"/>
<path fill-rule="evenodd" clip-rule="evenodd" d="M5.65445 11.6238L14.703 16.8571L13.6727 18.5636L4.62421 13.3303L5.65445 11.6238Z" fill="#62AC62"/>
<path fill-rule="evenodd" clip-rule="evenodd" d="M16.0778 6.30172C17.3171 6.30172 18.3217 5.31839 18.3217 4.10539C18.3217 2.89239 17.3171 1.90906 16.0778 1.90906C14.8385 1.90906 13.8338 2.89239 13.8338 4.10539C13.8338 5.31839 14.8385 6.30172 16.0778 6.30172ZM16.0778 6.89608C17.6525 6.89608 18.929 5.64665 18.929 4.10539C18.929 2.56413 17.6525 1.3147 16.0778 1.3147C14.5031 1.3147 13.2266 2.56413 13.2266 4.10539C13.2266 5.64665 14.5031 6.89608 16.0778 6.89608Z" fill="#5C94B9"/>
<path fill-rule="evenodd" clip-rule="evenodd" d="M12.5293 4.10531C12.5293 2.1647 14.1324 0.616943 16.0782 0.616943C18.024 0.616943 19.6271 2.1647 19.6271 4.10531C19.6271 6.04592 18.024 7.59368 16.0782 7.59368C14.1324 7.59368 12.5293 6.04592 12.5293 4.10531ZM16.0782 2.60666C15.21 2.60666 14.5319 3.29166 14.5319 4.10531C14.5319 4.91896 15.21 5.60396 16.0782 5.60396C16.9464 5.60396 17.6245 4.91896 17.6245 4.10531C17.6245 3.29166 16.9464 2.60666 16.0782 2.60666Z" fill="#5C94B9"/>
<path fill-rule="evenodd" clip-rule="evenodd" d="M16.0778 20.2551C17.3171 20.2551 18.3217 19.2718 18.3217 18.0588C18.3217 16.8458 17.3171 15.8624 16.0778 15.8624C14.8385 15.8624 13.8338 16.8458 13.8338 18.0588C13.8338 19.2718 14.8385 20.2551 16.0778 20.2551ZM16.0778 20.8495C17.6525 20.8495 18.929 19.6 18.929 18.0588C18.929 16.5175 17.6525 15.2681 16.0778 15.2681C14.5031 15.2681 13.2266 16.5175 13.2266 18.0588C13.2266 19.6 14.5031 20.8495 16.0778 20.8495Z" fill="#E8762B"/>
<path fill-rule="evenodd" clip-rule="evenodd" d="M12.5293 18.0589C12.5293 16.1183 14.1324 14.5706 16.0782 14.5706C18.024 14.5706 19.6271 16.1183 19.6271 18.0589C19.6271 19.9995 18.024 21.5473 16.0782 21.5473C14.1324 21.5473 12.5293 19.9995 12.5293 18.0589ZM16.0782 16.5603C15.21 16.5603 14.5319 17.2453 14.5319 18.0589C14.5319 18.8726 15.21 19.5576 16.0782 19.5576C16.9464 19.5576 17.6245 18.8726 17.6245 18.0589C17.6245 17.2453 16.9464 16.5603 16.0782 16.5603Z" fill="#E8762B"/>
<path fill-rule="evenodd" clip-rule="evenodd" d="M3.9606 13.2783C5.1999 13.2783 6.20456 12.295 6.20456 11.082C6.20456 9.86896 5.1999 8.88563 3.9606 8.88563C2.72129 8.88563 1.71663 9.86896 1.71663 11.082C1.71663 12.295 2.72129 13.2783 3.9606 13.2783ZM3.9606 13.8726C5.53528 13.8726 6.81182 12.6232 6.81182 11.082C6.81182 9.5407 5.53528 8.29126 3.9606 8.29126C2.38591 8.29126 1.10938 9.5407 1.10938 11.082C1.10938 12.6232 2.38591 13.8726 3.9606 13.8726Z" fill="#62AC62"/>
<path fill-rule="evenodd" clip-rule="evenodd" d="M0.412109 11.0819C0.412109 9.14126 2.01519 7.59351 3.961 7.59351C5.90682 7.59351 7.5099 9.14126 7.5099 11.0819C7.5099 13.0225 5.90682 14.5702 3.961 14.5702C2.01519 14.5702 0.412109 13.0225 0.412109 11.0819ZM3.961 9.58322C3.09282 9.58322 2.41472 10.2682 2.41472 11.0819C2.41472 11.8955 3.09282 12.5805 3.961 12.5805C4.82918 12.5805 5.50729 11.8955 5.50729 11.0819C5.50729 10.2682 4.82918 9.58322 3.961 9.58322Z" fill="#62AC62"/>
<path d="M37.2476 7.12373C37.1986 7.2041 37.1443 7.26572 37.0844 7.30858C37.0301 7.34609 36.9621 7.36484 36.8805 7.36484C36.7881 7.36484 36.6793 7.3193 36.5542 7.22821C36.4292 7.13712 36.2715 7.038 36.0812 6.93084C35.8963 6.81832 35.6706 6.71652 35.4042 6.62543C35.1432 6.53434 34.825 6.4888 34.4498 6.4888C34.0964 6.4888 33.7837 6.53702 33.5118 6.63347C33.2454 6.72456 33.0197 6.85047 32.8348 7.01121C32.6554 7.17195 32.5195 7.36216 32.427 7.58185C32.3346 7.79617 32.2883 8.02924 32.2883 8.28107C32.2883 8.60256 32.3672 8.87046 32.5249 9.08479C32.688 9.29375 32.9001 9.47326 33.1611 9.62327C33.4276 9.77329 33.7266 9.90457 34.0583 10.0171C34.3955 10.1243 34.7381 10.2368 35.0861 10.3546C35.4395 10.4725 35.7821 10.6065 36.1138 10.7565C36.4509 10.9012 36.75 11.086 37.011 11.3111C37.2775 11.5361 37.4895 11.8121 37.6472 12.1389C37.8104 12.4657 37.8919 12.8676 37.8919 13.3445C37.8919 13.8481 37.8049 14.3223 37.6309 14.767C37.4569 15.2064 37.2014 15.5895 36.8642 15.9163C36.5325 16.2432 36.1219 16.5003 35.6326 16.6879C35.1486 16.8754 34.5967 16.9692 33.9768 16.9692C33.2155 16.9692 32.5249 16.8353 31.905 16.5673C31.2851 16.2941 30.7549 15.9271 30.3145 15.4663L30.7712 14.7268C30.8147 14.6679 30.8664 14.6197 30.9262 14.5822C30.9915 14.5393 31.0621 14.5179 31.1383 14.5179C31.209 14.5179 31.2878 14.5473 31.3748 14.6063C31.4673 14.6598 31.5706 14.7295 31.6848 14.8152C31.799 14.901 31.9295 14.9948 32.0763 15.0965C32.2231 15.1983 32.3889 15.2921 32.5738 15.3778C32.7642 15.4636 32.9789 15.5359 33.2182 15.5948C33.4575 15.6484 33.7266 15.6752 34.0257 15.6752C34.4009 15.6752 34.7353 15.6243 35.029 15.5225C35.3226 15.4207 35.57 15.2787 35.7712 15.0965C35.9779 14.909 36.1355 14.6867 36.2443 14.4295C36.3531 14.1723 36.4074 13.8856 36.4074 13.5695C36.4074 13.2212 36.3259 12.9373 36.1627 12.7176C36.005 12.4925 35.7957 12.305 35.5347 12.155C35.2737 12.0049 34.9746 11.879 34.6374 11.7772C34.3003 11.67 33.9577 11.5629 33.6097 11.4557C33.2617 11.3432 32.9191 11.2146 32.582 11.07C32.2448 10.9253 31.9458 10.7377 31.6848 10.5074C31.4237 10.277 31.2117 9.99029 31.0485 9.64738C30.8909 9.2991 30.812 8.87046 30.812 8.36145C30.812 7.95423 30.8909 7.56041 31.0485 7.17999C31.2117 6.79957 31.4455 6.46201 31.75 6.16731C32.06 5.87262 32.4379 5.63687 32.8838 5.46005C33.3351 5.28323 33.8517 5.19482 34.4335 5.19482C35.0861 5.19482 35.6788 5.29663 36.2117 5.50023C36.75 5.70384 37.2231 5.99853 37.6309 6.38432L37.2476 7.12373Z" fill="#2E4761"/>
<path d="M47.7415 12.2515V16.8407H46.1592V12.2515L41.877 5.32349H43.2636C43.405 5.32349 43.5164 5.35831 43.598 5.42797C43.6796 5.49227 43.7502 5.57799 43.8101 5.68516L46.4854 10.1618C46.5833 10.3494 46.673 10.5262 46.7546 10.6923C46.8362 10.853 46.9068 11.0165 46.9667 11.1825C47.0265 11.0165 47.0944 10.853 47.1706 10.6923C47.2467 10.5262 47.331 10.3494 47.4234 10.1618L50.0906 5.68516C50.1396 5.59407 50.2076 5.51102 50.2946 5.436C50.3815 5.36099 50.493 5.32349 50.629 5.32349H52.0238L47.7415 12.2515Z" fill="#2E4761"/>
<path d="M65.6534 5.32349V16.8407H64.8622C64.7371 16.8407 64.6311 16.8192 64.5441 16.7764C64.4625 16.7335 64.3809 16.6612 64.2994 16.5594L57.5376 7.87929C57.5484 8.01324 57.5566 8.14451 57.5621 8.27311C57.5675 8.4017 57.5702 8.52226 57.5702 8.63478V16.8407H56.1836V5.32349H56.9993C57.0699 5.32349 57.1297 5.32884 57.1787 5.33956C57.2276 5.34492 57.2711 5.35831 57.3092 5.37975C57.3473 5.39582 57.3853 5.42261 57.4234 5.46012C57.4614 5.49227 57.5022 5.53513 57.5457 5.58871L64.3076 14.2608C64.2967 14.1214 64.2858 13.9875 64.2749 13.8589C64.2695 13.725 64.2668 13.599 64.2668 13.4812V5.32349H65.6534Z" fill="#2E4761"/>
<path d="M77.9087 12.5649L76.0735 7.87929C76.0188 7.73998 75.9617 7.57923 75.9022 7.39706C75.8422 7.20953 75.7851 7.01128 75.7309 6.80231C75.6167 7.23632 75.4996 7.59799 75.3801 7.88732L73.5449 12.5649H77.9087ZM81.2039 16.8407H79.9805C79.8389 16.8407 79.7248 16.8058 79.6379 16.7362C79.5506 16.6665 79.4854 16.5781 79.4421 16.471L78.3491 13.6901H73.1045L72.0115 16.471C71.9789 16.5674 71.916 16.6531 71.8239 16.7281C71.7313 16.8032 71.6171 16.8407 71.4813 16.8407H70.2578L74.9315 5.32349H76.5302L81.2039 16.8407Z" fill="#2E4761"/>
<path d="M89.6592 11.2951C90.1107 11.2951 90.5075 11.2361 90.8501 11.1182C91.198 11.0004 91.4892 10.8369 91.7228 10.628C91.9622 10.4137 92.1417 10.1591 92.2612 9.86445C92.3807 9.56977 92.4406 9.2456 92.4406 8.89196C92.4406 8.15791 92.2094 7.58459 91.7473 7.17202C91.2905 6.75945 90.5944 6.55316 89.6592 6.55316H87.7832V11.2951H89.6592ZM89.6592 5.32349C90.3986 5.32349 91.0405 5.40922 91.5842 5.58067C92.1335 5.74677 92.5874 5.98521 92.9463 6.29598C93.3052 6.60674 93.5715 6.98181 93.7457 7.42117C93.9251 7.86053 94.0148 8.3508 94.0148 8.89196C94.0148 9.42776 93.9198 9.91802 93.7294 10.3628C93.5389 10.8075 93.2591 11.1906 92.8892 11.5121C92.525 11.8335 92.0707 12.0854 91.5271 12.2675C90.9887 12.4444 90.366 12.5328 89.6592 12.5328H87.7832V16.8407H86.209V5.32349H89.6592Z" fill="#2E4761"/>
<path d="M105.859 7.12373C105.81 7.2041 105.756 7.26572 105.696 7.30858C105.642 7.34609 105.573 7.36484 105.492 7.36484C105.4 7.36484 105.291 7.3193 105.166 7.22821C105.041 7.13712 104.883 7.038 104.692 6.93084C104.508 6.81832 104.282 6.71652 104.015 6.62543C103.754 6.53434 103.436 6.4888 103.061 6.4888C102.708 6.4888 102.395 6.53702 102.123 6.63347C101.857 6.72456 101.631 6.85047 101.446 7.01121C101.267 7.17195 101.131 7.36216 101.038 7.58185C100.946 7.79617 100.9 8.02924 100.9 8.28107C100.9 8.60256 100.979 8.87046 101.136 9.08479C101.299 9.29375 101.511 9.47326 101.772 9.62327C102.039 9.77328 102.338 9.90457 102.67 10.0171C103.007 10.1243 103.35 10.2368 103.697 10.3546C104.051 10.4725 104.394 10.6065 104.725 10.7565C105.062 10.9012 105.361 11.086 105.622 11.3111C105.889 11.5361 106.101 11.8121 106.259 12.1389C106.422 12.4657 106.503 12.8676 106.503 13.3445C106.503 13.8481 106.416 14.3223 106.242 14.767C106.068 15.2064 105.813 15.5895 105.476 15.9163C105.144 16.2432 104.733 16.5003 104.244 16.6879C103.76 16.8754 103.208 16.9692 102.588 16.9692C101.827 16.9692 101.136 16.8353 100.516 16.5673C99.8964 16.2941 99.3662 15.9271 98.9258 15.4663L99.3825 14.7268C99.4262 14.6679 99.478 14.6197 99.5375 14.5822C99.6028 14.5393 99.6737 14.5179 99.7496 14.5179C99.8206 14.5179 99.8993 14.5473 99.9861 14.6063C100.079 14.6598 100.182 14.7295 100.296 14.8152C100.41 14.901 100.541 14.9948 100.688 15.0965C100.834 15.1983 101 15.2921 101.185 15.3778C101.376 15.4636 101.591 15.5359 101.83 15.5948C102.069 15.6484 102.338 15.6752 102.637 15.6752C103.012 15.6752 103.347 15.6243 103.64 15.5225C103.934 15.4207 104.181 15.2787 104.383 15.0965C104.589 14.909 104.747 14.6867 104.856 14.4295C104.965 14.1723 105.019 13.8856 105.019 13.5695C105.019 13.2212 104.937 12.9373 104.774 12.7176C104.617 12.4925 104.407 12.305 104.146 12.155C103.885 12.0049 103.586 11.879 103.249 11.7772C102.912 11.67 102.569 11.5629 102.221 11.4557C101.873 11.3432 101.531 11.2146 101.193 11.07C100.856 10.9253 100.557 10.7377 100.296 10.5074C100.035 10.277 99.823 9.99029 99.6599 9.64738C99.5025 9.2991 99.4233 8.87046 99.4233 8.36145C99.4233 7.95423 99.5025 7.56041 99.6599 7.17999C99.823 6.79957 100.057 6.46201 100.361 6.16731C100.671 5.87262 101.049 5.63687 101.495 5.46005C101.947 5.28323 102.463 5.19482 103.045 5.19482C103.697 5.19482 104.29 5.29663 104.823 5.50023C105.361 5.70384 105.834 5.99853 106.242 6.38432L105.859 7.12373Z" fill="#2E4761"/>
<path d="M119.822 15.5708L119.814 16.8407H112.611V5.32349H119.814V6.59335H114.194V10.419H118.745V11.6407H114.194V15.5708H119.822Z" fill="#2E4761"/>
</svg>
