<svg width="120" height="59" viewBox="0 0 120 59" fill="none" xmlns="http://www.w3.org/2000/svg">
<path d="M102.341 17.4922C113.025 28.1376 119.719 42.7845 119.984 58.9951H101.98C101.873 54.4016 101.028 49.9908 99.559 45.8764C99.5108 45.7412 99.4619 45.6064 99.4123 45.4719C99.1682 44.8099 98.9079 44.1557 98.6319 43.5099C98.5878 43.4067 98.5433 43.3036 98.4983 43.2008C96.3663 38.3212 93.3338 33.925 89.6113 30.2217L102.341 17.4922Z" fill="#299762"/>
<path d="M60.7773 0C76.0983 0.196735 90.0356 6.13547 100.534 15.7637L87.7871 28.5098C80.5637 22.1279 71.1283 18.1949 60.7773 18.0049V0Z" fill="#F0BA36"/>
<path d="M58.2793 18.0322C48.0583 18.4425 38.7788 22.5043 31.708 28.9502L18.9688 16.2109C29.3108 6.51696 43.0891 0.445605 58.2793 0.0195312V18.0322Z" fill="#EE8842"/>
<path d="M29.9082 30.6865C22.7506 38.0323 18.2611 47.9905 18.0039 58.9951H0C0.261159 43.02 6.76562 28.5629 17.1797 17.958L29.9082 30.6865Z" fill="#CC4D4D"/>
<g style="mix-blend-mode:hard-light" opacity="0.25">
<path fill-rule="evenodd" clip-rule="evenodd" d="M109.392 40.4274C109.258 40.1046 108.922 39.9227 108.589 39.9723L108.446 40.0085L98.6328 43.51C98.9088 44.1558 99.1691 44.81 99.4132 45.4719C99.4628 45.6065 99.5117 45.7413 99.5599 45.8764L109.019 41.3923C109.368 41.2268 109.533 40.8248 109.406 40.4648C109.401 40.4523 109.397 40.4398 109.392 40.4274Z" fill="#172430"/>
</g>
<path d="M108.587 37.9723C108.921 37.9227 109.256 38.1046 109.39 38.4274C109.395 38.4398 109.4 38.4523 109.404 38.4648C109.531 38.8248 109.366 39.2268 109.018 39.3923L73.6602 56.153C73.4955 55.2309 73.2471 54.338 72.9232 53.4822C72.6077 52.6486 72.2206 51.8502 71.7695 51.0944L108.444 38.0085L108.587 37.9723Z" fill="#474747"/>
<path d="M58.4186 46.2465C65.4595 46.2465 71.1673 51.9542 71.1673 58.9951H45.6699C45.6699 51.9542 51.3777 46.2465 58.4186 46.2465Z" fill="#474747"/>
</svg>
