<svg width="120" height="59" viewBox="0 0 120 59" fill="none" xmlns="http://www.w3.org/2000/svg">
<path d="M102.341 17.4922C113.025 28.1376 119.719 42.7845 119.984 58.9951H101.98C101.718 47.7553 97.0376 37.6097 89.6113 30.2217L102.341 17.4922Z" fill="#299762"/>
<path d="M60.7773 0C76.0983 0.196735 90.0356 6.13547 100.534 15.7637L87.7871 28.5098C84.5516 25.6512 80.8722 23.2839 76.8655 21.5243C76.2098 21.2363 75.5454 20.9646 74.8727 20.7097C70.479 19.0448 65.7331 18.0959 60.7773 18.0049V0Z" fill="#F0BA36"/>
<path d="M58.2793 18.0322C48.0583 18.4425 38.7788 22.5043 31.708 28.9502L18.9688 16.2109C29.3108 6.51696 43.0891 0.445605 58.2793 0.0195312V18.0322Z" fill="#EE8842"/>
<path d="M29.9082 30.6865C22.7506 38.0323 18.2611 47.9905 18.0039 58.9951H0C0.261159 43.02 6.76562 28.5629 17.1797 17.958L29.9082 30.6865Z" fill="#CC4D4D"/>
<g style="mix-blend-mode:hard-light" opacity="0.5">
<path fill-rule="evenodd" clip-rule="evenodd" d="M78.6449 14.4162C78.3221 14.2829 77.957 14.3906 77.7562 14.6613L77.68 14.7883L74.873 20.7096C75.5458 20.9646 76.2102 21.2362 76.8659 21.5242L79.0648 15.3615C79.1975 14.9894 79.0185 14.5791 78.6576 14.422C78.6556 14.4212 78.647 14.4172 78.6449 14.4162C78.647 14.4171 78.6427 14.4151 78.6449 14.4162Z" fill="#172430"/>
</g>
<path d="M76.8076 12.4115C77.0084 12.1408 77.3735 12.0332 77.6963 12.1664C77.7004 12.1681 77.705 12.1705 77.709 12.1723C78.0699 12.3293 78.2489 12.7396 78.1162 13.1117L66.4463 45.8178C65.6576 45.3752 64.8268 44.9989 63.9614 44.6963C63.252 44.4482 62.5194 44.2497 61.7676 44.1049L76.7314 12.5385L76.8076 12.4115Z" fill="#F1F3F5"/>
<path d="M58.4186 46.2463C65.4595 46.2463 71.1673 51.9541 71.1673 58.995H45.6699C45.6699 51.9541 51.3777 46.2463 58.4186 46.2463Z" fill="#F1F3F5"/>
</svg>
