<svg width="120" height="59" viewBox="0 0 120 59" fill="none" xmlns="http://www.w3.org/2000/svg">
<path d="M102.341 17.4922C113.025 28.1376 119.719 42.7845 119.984 58.9951H101.98C101.718 47.7553 97.0376 37.6097 89.6113 30.2217L102.341 17.4922Z" fill="#299762"/>
<path d="M60.7773 0C76.0983 0.196735 90.0356 6.13547 100.534 15.7637L87.7871 28.5098C80.5637 22.1279 71.1283 18.1949 60.7773 18.0049V0Z" fill="#F0BA36"/>
<path d="M58.2793 18.0322C48.0583 18.4425 38.7788 22.5043 31.708 28.9502L18.9688 16.2109C29.3108 6.51696 43.0891 0.445605 58.2793 0.0195312V18.0322Z" fill="#EE8842"/>
<path d="M29.9082 30.6865C25.941 34.7581 22.7934 39.6321 20.7319 45.0421C20.4483 45.7863 20.1853 46.5406 19.9435 47.3043C18.7718 51.0057 18.0989 54.929 18.0039 58.9951H0C0.261159 43.02 6.76562 28.5629 17.1797 17.958L29.9082 30.6865Z" fill="#CC4D4D"/>
<g style="mix-blend-mode:hard-light" opacity="0.5">
<path fill-rule="evenodd" clip-rule="evenodd" d="M12.3675 42.0579C11.9912 41.9238 11.5751 42.1077 11.4222 42.4768C11.4172 42.489 11.4125 42.5011 11.4082 42.5134C11.2971 42.827 11.4076 43.1731 11.6683 43.3665L11.7943 43.4417L19.9435 47.3044C20.1853 46.5407 20.4483 45.7864 20.7319 45.0422L12.3675 42.0579Z" fill="#172430"/>
</g>
<path d="M11.4222 40.4766C11.5751 40.1075 11.9912 39.9236 12.3675 40.0576L44.7113 51.5977C44.299 52.36 43.9487 53.1606 43.6667 53.9928C43.4171 54.7295 43.2211 55.491 43.0833 56.2725L11.7943 41.4414L11.6683 41.3662C11.4076 41.1729 11.2971 40.8267 11.4082 40.5131C11.4125 40.5009 11.4172 40.4887 11.4222 40.4766Z" fill="#F1F3F5"/>
<path d="M58.4186 46.2463C65.4595 46.2463 71.1673 51.9541 71.1673 58.995H45.6699C45.6699 51.9541 51.3777 46.2463 58.4186 46.2463Z" fill="#F1F3F5"/>
</svg>
