<svg width="120" height="59" viewBox="0 0 120 59" fill="none" xmlns="http://www.w3.org/2000/svg">
<path d="M102.341 17.4922C113.025 28.1376 119.719 42.7845 119.984 58.9951H101.98C101.718 47.7553 97.0376 37.6097 89.6113 30.2217L102.341 17.4922Z" fill="#299762"/>
<path d="M60.7773 0C76.0983 0.196735 90.0356 6.13547 100.534 15.7637L87.7871 28.5098C80.5637 22.1279 71.1283 18.1949 60.7773 18.0049V0Z" fill="#F0BA36"/>
<path d="M58.2793 18.0322C52.7642 18.2536 47.5233 19.5381 42.7555 21.6866C42.0894 21.9868 41.4325 22.3039 40.7853 22.6373C37.4803 24.3399 34.4304 26.4683 31.708 28.9502L18.9688 16.2109C29.3108 6.51696 43.0891 0.445605 58.2793 0.0195312V18.0322Z" fill="#EE8842"/>
<path d="M29.9082 30.6865C22.7506 38.0323 18.2611 47.9905 18.0039 58.9951H0C0.261159 43.02 6.76562 28.5629 17.1797 17.958L29.9082 30.6865Z" fill="#CC4D4D"/>
<g style="mix-blend-mode:hard-light" opacity="0.5">
<path fill-rule="evenodd" clip-rule="evenodd" d="M39.8397 15.5376C39.6685 15.1766 39.244 15.0127 38.8749 15.1655C38.8533 15.1745 38.8324 15.1843 38.8121 15.1949C38.4853 15.3669 38.3295 15.7564 38.4559 16.1108L40.7844 22.6371C41.4315 22.3037 42.0884 21.9867 42.7545 21.6865L39.8397 15.5376Z" fill="#172430"/>
</g>
<path d="M39.8749 13.1658C40.244 13.0129 40.6685 13.1768 40.8397 13.5378L55.4374 44.3318C54.6159 44.5007 53.8184 44.7356 53.0509 45.0307C52.29 45.3233 51.5585 45.6752 50.8622 46.0808L39.4559 14.1111C39.3295 13.7567 39.4853 13.3671 39.8121 13.1952C39.8324 13.1845 39.8533 13.1747 39.8749 13.1658Z" fill="#F1F3F5"/>
<path d="M58.4186 46.2463C65.4595 46.2463 71.1673 51.9541 71.1673 58.995H45.6699C45.6699 51.9541 51.3777 46.2463 58.4186 46.2463Z" fill="#F1F3F5"/>
</svg>
