<svg width="291" height="43" viewBox="0 0 291 43" fill="none" xmlns="http://www.w3.org/2000/svg">
<path d="M9.522 3.986V5.912H3.753V9.521H8.298V11.384H3.753V15.065H9.522V17H1.314V3.986H9.522ZM13.6758 12.239L10.6428 7.766H12.7848C12.9468 7.766 13.0668 7.79 13.1448 7.838C13.2228 7.88 13.2918 7.952 13.3518 8.054L15.2868 11.141C15.3168 11.039 15.3528 10.937 15.3948 10.835C15.4428 10.733 15.4998 10.631 15.5658 10.529L17.1228 8.099C17.1948 7.985 17.2698 7.901 17.3478 7.847C17.4258 7.793 17.5218 7.766 17.6358 7.766H19.6788L16.6368 12.14L19.8048 17H17.6628C17.5008 17 17.3688 16.958 17.2668 16.874C17.1708 16.79 17.0898 16.694 17.0238 16.586L15.0618 13.373C15.0078 13.589 14.9328 13.769 14.8368 13.913L13.1088 16.586C13.0428 16.688 12.9618 16.784 12.8658 16.874C12.7698 16.958 12.6498 17 12.5058 17H10.5168L13.6758 12.239ZM27.1536 9.719C27.0876 9.803 27.0216 9.869 26.9556 9.917C26.8956 9.965 26.8056 9.989 26.6856 9.989C26.5716 9.989 26.4606 9.956 26.3526 9.89C26.2446 9.818 26.1156 9.74 25.9656 9.656C25.8156 9.566 25.6356 9.488 25.4256 9.422C25.2216 9.35 24.9666 9.314 24.6606 9.314C24.2706 9.314 23.9286 9.386 23.6346 9.53C23.3406 9.668 23.0946 9.869 22.8966 10.133C22.7046 10.397 22.5606 10.718 22.4646 11.096C22.3686 11.468 22.3206 11.891 22.3206 12.365C22.3206 12.857 22.3716 13.295 22.4736 13.679C22.5816 14.063 22.7346 14.387 22.9326 14.651C23.1306 14.909 23.3706 15.107 23.6526 15.245C23.9346 15.377 24.2526 15.443 24.6066 15.443C24.9606 15.443 25.2456 15.401 25.4616 15.317C25.6836 15.227 25.8696 15.131 26.0196 15.029C26.1696 14.921 26.2986 14.825 26.4066 14.741C26.5206 14.651 26.6466 14.606 26.7846 14.606C26.9646 14.606 27.0996 14.675 27.1896 14.813L27.8286 15.623C27.5826 15.911 27.3156 16.154 27.0276 16.352C26.7396 16.544 26.4396 16.7 26.1276 16.82C25.8216 16.934 25.5036 17.015 25.1736 17.063C24.8436 17.111 24.5166 17.135 24.1926 17.135C23.6226 17.135 23.0856 17.03 22.5816 16.82C22.0776 16.604 21.6366 16.292 21.2586 15.884C20.8866 15.476 20.5896 14.978 20.3676 14.39C20.1516 13.796 20.0436 13.121 20.0436 12.365C20.0436 11.687 20.1396 11.06 20.3316 10.484C20.5296 9.902 20.8176 9.401 21.1956 8.981C21.5736 8.555 22.0416 8.222 22.5996 7.982C23.1576 7.742 23.7996 7.622 24.5256 7.622C25.2156 7.622 25.8186 7.733 26.3346 7.955C26.8566 8.177 27.3246 8.495 27.7386 8.909L27.1536 9.719ZM33.0587 7.622C33.6407 7.622 34.1747 7.715 34.6607 7.901C35.1527 8.087 35.5757 8.36 35.9297 8.72C36.2837 9.074 36.5597 9.512 36.7577 10.034C36.9557 10.55 37.0547 11.141 37.0547 11.807C37.0547 11.975 37.0457 12.116 37.0277 12.23C37.0157 12.338 36.9887 12.425 36.9467 12.491C36.9107 12.551 36.8597 12.596 36.7937 12.626C36.7277 12.65 36.6437 12.662 36.5417 12.662H30.8357C30.9017 13.61 31.1567 14.306 31.6007 14.75C32.0447 15.194 32.6327 15.416 33.3647 15.416C33.7247 15.416 34.0337 15.374 34.2917 15.29C34.5557 15.206 34.7837 15.113 34.9757 15.011C35.1737 14.909 35.3447 14.816 35.4887 14.732C35.6387 14.648 35.7827 14.606 35.9207 14.606C36.0107 14.606 36.0887 14.624 36.1547 14.66C36.2207 14.696 36.2777 14.747 36.3257 14.813L36.9737 15.623C36.7277 15.911 36.4517 16.154 36.1457 16.352C35.8397 16.544 35.5187 16.7 35.1827 16.82C34.8527 16.934 34.5137 17.015 34.1657 17.063C33.8237 17.111 33.4907 17.135 33.1667 17.135C32.5247 17.135 31.9277 17.03 31.3757 16.82C30.8237 16.604 30.3437 16.289 29.9357 15.875C29.5277 15.455 29.2067 14.939 28.9727 14.327C28.7387 13.709 28.6217 12.995 28.6217 12.185C28.6217 11.555 28.7237 10.964 28.9277 10.412C29.1317 9.854 29.4227 9.371 29.8007 8.963C30.1847 8.549 30.6497 8.222 31.1957 7.982C31.7477 7.742 32.3687 7.622 33.0587 7.622ZM33.1037 9.215C32.4557 9.215 31.9487 9.398 31.5827 9.764C31.2167 10.13 30.9827 10.649 30.8807 11.321H35.0567C35.0567 11.033 35.0177 10.763 34.9397 10.511C34.8617 10.253 34.7417 10.028 34.5797 9.836C34.4177 9.644 34.2137 9.494 33.9677 9.386C33.7217 9.272 33.4337 9.215 33.1037 9.215ZM38.8579 20.015V7.766H40.2169C40.3609 7.766 40.4839 7.799 40.5859 7.865C40.6879 7.931 40.7539 8.033 40.7839 8.171L40.9639 9.026C41.3359 8.6 41.7619 8.255 42.2419 7.991C42.7279 7.727 43.2949 7.595 43.9429 7.595C44.4469 7.595 44.9059 7.7 45.3199 7.91C45.7399 8.12 46.0999 8.426 46.3999 8.828C46.7059 9.224 46.9399 9.716 47.1019 10.304C47.2699 10.886 47.3539 11.555 47.3539 12.311C47.3539 13.001 47.2609 13.64 47.0749 14.228C46.8889 14.816 46.6219 15.326 46.2739 15.758C45.9319 16.19 45.5149 16.529 45.0229 16.775C44.5369 17.015 43.9909 17.135 43.3849 17.135C42.8629 17.135 42.4189 17.057 42.0529 16.901C41.6929 16.739 41.3689 16.517 41.0809 16.235V20.015H38.8579ZM43.1779 9.35C42.7159 9.35 42.3199 9.449 41.9899 9.647C41.6659 9.839 41.3629 10.112 41.0809 10.466V14.606C41.3329 14.918 41.6059 15.137 41.8999 15.263C42.1999 15.383 42.5209 15.443 42.8629 15.443C43.1989 15.443 43.5019 15.38 43.7719 15.254C44.0479 15.128 44.2789 14.936 44.4649 14.678C44.6569 14.42 44.8039 14.096 44.9059 13.706C45.0079 13.31 45.0589 12.845 45.0589 12.311C45.0589 11.771 45.0139 11.315 44.9239 10.943C44.8399 10.565 44.7169 10.259 44.5549 10.025C44.3929 9.791 44.1949 9.62 43.9609 9.512C43.7329 9.404 43.4719 9.35 43.1779 9.35ZM52.0687 17.144C51.2707 17.144 50.6557 16.919 50.2237 16.469C49.7917 16.013 49.5757 15.386 49.5757 14.588V9.431H48.6397C48.5197 9.431 48.4147 9.392 48.3247 9.314C48.2407 9.236 48.1987 9.119 48.1987 8.963V8.081L49.6837 7.838L50.1517 5.318C50.1757 5.198 50.2297 5.105 50.3137 5.039C50.4037 4.973 50.5147 4.94 50.6467 4.94H51.7987V7.847H54.2287V9.431H51.7987V14.435C51.7987 14.723 51.8707 14.948 52.0147 15.11C52.1587 15.272 52.3507 15.353 52.5907 15.353C52.7287 15.353 52.8427 15.338 52.9327 15.308C53.0287 15.272 53.1097 15.236 53.1757 15.2C53.2477 15.164 53.3107 15.131 53.3647 15.101C53.4187 15.065 53.4727 15.047 53.5267 15.047C53.5927 15.047 53.6467 15.065 53.6887 15.101C53.7307 15.131 53.7757 15.179 53.8237 15.245L54.4897 16.325C54.1657 16.595 53.7937 16.799 53.3737 16.937C52.9537 17.075 52.5187 17.144 52.0687 17.144ZM58.3636 7.766V17H56.1406V7.766H58.3636ZM58.6966 5.075C58.6966 5.267 58.6576 5.447 58.5796 5.615C58.5016 5.783 58.3966 5.93 58.2646 6.056C58.1386 6.182 57.9886 6.284 57.8146 6.362C57.6406 6.434 57.4546 6.47 57.2566 6.47C57.0646 6.47 56.8816 6.434 56.7076 6.362C56.5396 6.284 56.3926 6.182 56.2666 6.056C56.1406 5.93 56.0386 5.783 55.9606 5.615C55.8886 5.447 55.8526 5.267 55.8526 5.075C55.8526 4.877 55.8886 4.691 55.9606 4.517C56.0386 4.343 56.1406 4.193 56.2666 4.067C56.3926 3.941 56.5396 3.842 56.7076 3.77C56.8816 3.692 57.0646 3.653 57.2566 3.653C57.4546 3.653 57.6406 3.692 57.8146 3.77C57.9886 3.842 58.1386 3.941 58.2646 4.067C58.3966 4.193 58.5016 4.343 58.5796 4.517C58.6576 4.691 58.6966 4.877 58.6966 5.075ZM64.8253 7.622C65.5153 7.622 66.1393 7.733 66.6973 7.955C67.2613 8.177 67.7413 8.492 68.1373 8.9C68.5333 9.308 68.8393 9.806 69.0553 10.394C69.2713 10.982 69.3793 11.639 69.3793 12.365C69.3793 13.097 69.2713 13.757 69.0553 14.345C68.8393 14.933 68.5333 15.434 68.1373 15.848C67.7413 16.262 67.2613 16.58 66.6973 16.802C66.1393 17.024 65.5153 17.135 64.8253 17.135C64.1353 17.135 63.5083 17.024 62.9443 16.802C62.3803 16.58 61.8973 16.262 61.4953 15.848C61.0993 15.434 60.7903 14.933 60.5683 14.345C60.3523 13.757 60.2443 13.097 60.2443 12.365C60.2443 11.639 60.3523 10.982 60.5683 10.394C60.7903 9.806 61.0993 9.308 61.4953 8.9C61.8973 8.492 62.3803 8.177 62.9443 7.955C63.5083 7.733 64.1353 7.622 64.8253 7.622ZM64.8253 15.425C65.5933 15.425 66.1603 15.167 66.5263 14.651C66.8983 14.135 67.0843 13.379 67.0843 12.383C67.0843 11.387 66.8983 10.628 66.5263 10.106C66.1603 9.584 65.5933 9.323 64.8253 9.323C64.0453 9.323 63.4693 9.587 63.0973 10.115C62.7253 10.637 62.5393 11.393 62.5393 12.383C62.5393 13.373 62.7253 14.129 63.0973 14.651C63.4693 15.167 64.0453 15.425 64.8253 15.425ZM71.1138 17V7.766H72.4728C72.7608 7.766 72.9498 7.901 73.0398 8.171L73.1928 8.9C73.3788 8.708 73.5738 8.534 73.7778 8.378C73.9878 8.222 74.2068 8.087 74.4348 7.973C74.6688 7.859 74.9178 7.772 75.1818 7.712C75.4458 7.652 75.7338 7.622 76.0458 7.622C76.5498 7.622 76.9968 7.709 77.3868 7.883C77.7768 8.051 78.1008 8.291 78.3588 8.603C78.6228 8.909 78.8208 9.278 78.9528 9.71C79.0908 10.136 79.1598 10.607 79.1598 11.123V17H76.9368V11.123C76.9368 10.559 76.8048 10.124 76.5408 9.818C76.2828 9.506 75.8928 9.35 75.3708 9.35C74.9868 9.35 74.6268 9.437 74.2908 9.611C73.9548 9.785 73.6368 10.022 73.3368 10.322V17H71.1138ZM88.5803 17H87.5813C87.3713 17 87.2063 16.97 87.0863 16.91C86.9663 16.844 86.8763 16.715 86.8163 16.523L86.6183 15.866C86.3843 16.076 86.1533 16.262 85.9253 16.424C85.7033 16.58 85.4723 16.712 85.2323 16.82C84.9923 16.928 84.7373 17.009 84.4673 17.063C84.1973 17.117 83.8973 17.144 83.5673 17.144C83.1773 17.144 82.8173 17.093 82.4873 16.991C82.1573 16.883 81.8723 16.724 81.6323 16.514C81.3983 16.304 81.2153 16.043 81.0833 15.731C80.9513 15.419 80.8853 15.056 80.8853 14.642C80.8853 14.294 80.9753 13.952 81.1553 13.616C81.3413 13.274 81.6473 12.968 82.0733 12.698C82.4993 12.422 83.0663 12.194 83.7743 12.014C84.4823 11.834 85.3613 11.732 86.4113 11.708V11.168C86.4113 10.55 86.2793 10.094 86.0153 9.8C85.7573 9.5 85.3793 9.35 84.8813 9.35C84.5213 9.35 84.2213 9.392 83.9813 9.476C83.7413 9.56 83.5313 9.656 83.3513 9.764C83.1773 9.866 83.0153 9.959 82.8653 10.043C82.7153 10.127 82.5503 10.169 82.3703 10.169C82.2203 10.169 82.0913 10.13 81.9833 10.052C81.8753 9.974 81.7883 9.878 81.7223 9.764L81.3173 9.053C82.3793 8.081 83.6603 7.595 85.1603 7.595C85.7003 7.595 86.1803 7.685 86.6003 7.865C87.0263 8.039 87.3863 8.285 87.6803 8.603C87.9743 8.915 88.1963 9.29 88.3463 9.728C88.5023 10.166 88.5803 10.646 88.5803 11.168V17ZM84.2603 15.614C84.4883 15.614 84.6983 15.593 84.8903 15.551C85.0823 15.509 85.2623 15.446 85.4303 15.362C85.6043 15.278 85.7693 15.176 85.9253 15.056C86.0873 14.93 86.2493 14.783 86.4113 14.615V13.058C85.7633 13.088 85.2203 13.145 84.7822 13.229C84.3503 13.307 84.0023 13.409 83.7383 13.535C83.4743 13.661 83.2853 13.808 83.1713 13.976C83.0633 14.144 83.0093 14.327 83.0093 14.525C83.0093 14.915 83.1233 15.194 83.3513 15.362C83.5853 15.53 83.8883 15.614 84.2603 15.614ZM93.1331 3.626V17H90.9101V3.626H93.1331ZM101.68 15.002H106.891V17H99.2593V3.986H101.68V15.002ZM112.04 7.622C112.73 7.622 113.354 7.733 113.912 7.955C114.476 8.177 114.956 8.492 115.352 8.9C115.748 9.308 116.054 9.806 116.27 10.394C116.486 10.982 116.594 11.639 116.594 12.365C116.594 13.097 116.486 13.757 116.27 14.345C116.054 14.933 115.748 15.434 115.352 15.848C114.956 16.262 114.476 16.58 113.912 16.802C113.354 17.024 112.73 17.135 112.04 17.135C111.35 17.135 110.723 17.024 110.159 16.802C109.595 16.58 109.112 16.262 108.71 15.848C108.314 15.434 108.005 14.933 107.783 14.345C107.567 13.757 107.459 13.097 107.459 12.365C107.459 11.639 107.567 10.982 107.783 10.394C108.005 9.806 108.314 9.308 108.71 8.9C109.112 8.492 109.595 8.177 110.159 7.955C110.723 7.733 111.35 7.622 112.04 7.622ZM112.04 15.425C112.808 15.425 113.375 15.167 113.741 14.651C114.113 14.135 114.299 13.379 114.299 12.383C114.299 11.387 114.113 10.628 113.741 10.106C113.375 9.584 112.808 9.323 112.04 9.323C111.26 9.323 110.684 9.587 110.312 10.115C109.94 10.637 109.754 11.393 109.754 12.383C109.754 13.373 109.94 14.129 110.312 14.651C110.684 15.167 111.26 15.425 112.04 15.425ZM118.329 17V7.766H119.688C119.976 7.766 120.165 7.901 120.255 8.171L120.408 8.9C120.594 8.708 120.789 8.534 120.993 8.378C121.203 8.222 121.422 8.087 121.65 7.973C121.884 7.859 122.133 7.772 122.397 7.712C122.661 7.652 122.949 7.622 123.261 7.622C123.765 7.622 124.212 7.709 124.602 7.883C124.992 8.051 125.316 8.291 125.574 8.603C125.838 8.909 126.036 9.278 126.168 9.71C126.306 10.136 126.375 10.607 126.375 11.123V17H124.152V11.123C124.152 10.559 124.02 10.124 123.756 9.818C123.498 9.506 123.108 9.35 122.586 9.35C122.202 9.35 121.842 9.437 121.506 9.611C121.17 9.785 120.852 10.022 120.552 10.322V17H118.329ZM131.754 7.604C132.15 7.604 132.522 7.646 132.87 7.73C133.218 7.808 133.536 7.925 133.824 8.081H136.479V8.909C136.479 9.047 136.443 9.155 136.371 9.233C136.299 9.311 136.176 9.365 136.002 9.395L135.174 9.548C135.234 9.704 135.279 9.869 135.309 10.043C135.345 10.217 135.363 10.4 135.363 10.592C135.363 11.048 135.27 11.462 135.084 11.834C134.904 12.2 134.652 12.512 134.328 12.77C134.01 13.028 133.629 13.229 133.185 13.373C132.747 13.511 132.27 13.58 131.754 13.58C131.406 13.58 131.067 13.547 130.737 13.481C130.449 13.655 130.305 13.85 130.305 14.066C130.305 14.252 130.389 14.39 130.557 14.48C130.731 14.564 130.956 14.624 131.232 14.66C131.514 14.696 131.832 14.72 132.186 14.732C132.54 14.738 132.903 14.756 133.275 14.786C133.647 14.816 134.01 14.87 134.364 14.948C134.718 15.02 135.033 15.137 135.309 15.299C135.591 15.461 135.816 15.683 135.984 15.965C136.158 16.241 136.245 16.598 136.245 17.036C136.245 17.444 136.143 17.84 135.939 18.224C135.741 18.608 135.45 18.95 135.066 19.25C134.688 19.55 134.223 19.79 133.671 19.97C133.119 20.156 132.489 20.249 131.781 20.249C131.079 20.249 130.47 20.18 129.954 20.042C129.438 19.91 129.009 19.73 128.667 19.502C128.331 19.28 128.079 19.022 127.911 18.728C127.743 18.434 127.659 18.128 127.659 17.81C127.659 17.378 127.791 17.015 128.055 16.721C128.319 16.427 128.685 16.193 129.153 16.019C128.925 15.893 128.742 15.725 128.604 15.515C128.466 15.305 128.397 15.032 128.397 14.696C128.397 14.558 128.421 14.417 128.469 14.273C128.517 14.123 128.589 13.976 128.685 13.832C128.787 13.688 128.913 13.553 129.063 13.427C129.213 13.295 129.39 13.178 129.594 13.076C129.126 12.824 128.757 12.488 128.487 12.068C128.223 11.648 128.091 11.156 128.091 10.592C128.091 10.136 128.181 9.725 128.361 9.359C128.547 8.987 128.802 8.672 129.126 8.414C129.456 8.15 129.843 7.949 130.287 7.811C130.737 7.673 131.226 7.604 131.754 7.604ZM134.193 17.414C134.193 17.234 134.139 17.087 134.031 16.973C133.923 16.859 133.776 16.772 133.59 16.712C133.404 16.646 133.185 16.598 132.933 16.568C132.687 16.538 132.423 16.517 132.141 16.505C131.865 16.487 131.577 16.472 131.277 16.46C130.983 16.442 130.698 16.415 130.422 16.379C130.17 16.517 129.966 16.682 129.81 16.874C129.66 17.06 129.585 17.276 129.585 17.522C129.585 17.684 129.624 17.834 129.702 17.972C129.786 18.116 129.915 18.239 130.089 18.341C130.269 18.443 130.5 18.521 130.782 18.575C131.064 18.635 131.409 18.665 131.817 18.665C132.231 18.665 132.588 18.632 132.888 18.566C133.188 18.506 133.434 18.419 133.626 18.305C133.824 18.197 133.968 18.065 134.058 17.909C134.148 17.759 134.193 17.594 134.193 17.414ZM131.754 12.158C132.03 12.158 132.27 12.122 132.474 12.05C132.678 11.972 132.846 11.867 132.978 11.735C133.116 11.603 133.218 11.444 133.284 11.258C133.356 11.072 133.392 10.868 133.392 10.646C133.392 10.19 133.254 9.83 132.978 9.566C132.708 9.296 132.3 9.161 131.754 9.161C131.208 9.161 130.797 9.296 130.521 9.566C130.251 9.83 130.116 10.19 130.116 10.646C130.116 10.862 130.149 11.063 130.215 11.249C130.287 11.435 130.389 11.597 130.521 11.735C130.659 11.867 130.83 11.972 131.034 12.05C131.244 12.122 131.484 12.158 131.754 12.158ZM141.692 7.622C142.274 7.622 142.808 7.715 143.294 7.901C143.786 8.087 144.209 8.36 144.563 8.72C144.917 9.074 145.193 9.512 145.391 10.034C145.589 10.55 145.688 11.141 145.688 11.807C145.688 11.975 145.679 12.116 145.661 12.23C145.649 12.338 145.622 12.425 145.58 12.491C145.544 12.551 145.493 12.596 145.427 12.626C145.361 12.65 145.277 12.662 145.175 12.662H139.469C139.535 13.61 139.79 14.306 140.234 14.75C140.678 15.194 141.266 15.416 141.998 15.416C142.358 15.416 142.667 15.374 142.925 15.29C143.189 15.206 143.417 15.113 143.609 15.011C143.807 14.909 143.978 14.816 144.122 14.732C144.272 14.648 144.416 14.606 144.554 14.606C144.644 14.606 144.722 14.624 144.788 14.66C144.854 14.696 144.911 14.747 144.959 14.813L145.607 15.623C145.361 15.911 145.085 16.154 144.779 16.352C144.473 16.544 144.152 16.7 143.816 16.82C143.486 16.934 143.147 17.015 142.799 17.063C142.457 17.111 142.124 17.135 141.8 17.135C141.158 17.135 140.561 17.03 140.009 16.82C139.457 16.604 138.977 16.289 138.569 15.875C138.161 15.455 137.84 14.939 137.606 14.327C137.372 13.709 137.255 12.995 137.255 12.185C137.255 11.555 137.357 10.964 137.561 10.412C137.765 9.854 138.056 9.371 138.434 8.963C138.818 8.549 139.283 8.222 139.829 7.982C140.381 7.742 141.002 7.622 141.692 7.622ZM141.737 9.215C141.089 9.215 140.582 9.398 140.216 9.764C139.85 10.13 139.616 10.649 139.514 11.321H143.69C143.69 11.033 143.651 10.763 143.573 10.511C143.495 10.253 143.375 10.028 143.213 9.836C143.051 9.644 142.847 9.494 142.601 9.386C142.355 9.272 142.067 9.215 141.737 9.215ZM151.818 17H149.802L146.13 7.766H147.975C148.137 7.766 148.272 7.805 148.38 7.883C148.494 7.961 148.572 8.06 148.614 8.18L150.396 13.112C150.498 13.4 150.582 13.682 150.648 13.958C150.72 14.234 150.783 14.51 150.837 14.786C150.891 14.51 150.951 14.234 151.017 13.958C151.089 13.682 151.179 13.4 151.287 13.112L153.114 8.18C153.156 8.06 153.231 7.961 153.339 7.883C153.447 7.805 153.576 7.766 153.726 7.766H155.481L151.818 17ZM159.157 7.766V17H156.934V7.766H159.157ZM159.49 5.075C159.49 5.267 159.451 5.447 159.373 5.615C159.295 5.783 159.19 5.93 159.058 6.056C158.932 6.182 158.782 6.284 158.608 6.362C158.434 6.434 158.248 6.47 158.05 6.47C157.858 6.47 157.675 6.434 157.501 6.362C157.333 6.284 157.186 6.182 157.06 6.056C156.934 5.93 156.832 5.783 156.754 5.615C156.682 5.447 156.646 5.267 156.646 5.075C156.646 4.877 156.682 4.691 156.754 4.517C156.832 4.343 156.934 4.193 157.06 4.067C157.186 3.941 157.333 3.842 157.501 3.77C157.675 3.692 157.858 3.653 158.05 3.653C158.248 3.653 158.434 3.692 158.608 3.77C158.782 3.842 158.932 3.941 159.058 4.067C159.19 4.193 159.295 4.343 159.373 4.517C159.451 4.691 159.49 4.877 159.49 5.075ZM164.709 17.144C163.911 17.144 163.296 16.919 162.864 16.469C162.432 16.013 162.216 15.386 162.216 14.588V9.431H161.28C161.16 9.431 161.055 9.392 160.965 9.314C160.881 9.236 160.839 9.119 160.839 8.963V8.081L162.324 7.838L162.792 5.318C162.816 5.198 162.87 5.105 162.954 5.039C163.044 4.973 163.155 4.94 163.287 4.94H164.439V7.847H166.869V9.431H164.439V14.435C164.439 14.723 164.511 14.948 164.655 15.11C164.799 15.272 164.991 15.353 165.231 15.353C165.369 15.353 165.483 15.338 165.573 15.308C165.669 15.272 165.75 15.236 165.816 15.2C165.888 15.164 165.951 15.131 166.005 15.101C166.059 15.065 166.113 15.047 166.167 15.047C166.233 15.047 166.287 15.065 166.329 15.101C166.371 15.131 166.416 15.179 166.464 15.245L167.13 16.325C166.806 16.595 166.434 16.799 166.014 16.937C165.594 17.075 165.159 17.144 164.709 17.144ZM171.913 19.538C171.847 19.694 171.76 19.811 171.652 19.889C171.55 19.973 171.391 20.015 171.175 20.015H169.519L171.247 16.316L167.512 7.766H169.456C169.636 7.766 169.774 7.808 169.87 7.892C169.966 7.976 170.038 8.072 170.086 8.18L172.057 12.968C172.123 13.124 172.18 13.286 172.228 13.454C172.276 13.622 172.318 13.79 172.354 13.958C172.402 13.784 172.453 13.616 172.507 13.454C172.567 13.292 172.63 13.127 172.696 12.959L174.55 8.18C174.598 8.06 174.676 7.961 174.784 7.883C174.898 7.805 175.024 7.766 175.162 7.766H176.944L171.913 19.538ZM183.407 11.357C183.407 12.593 183.557 13.808 183.857 15.002C184.157 16.196 184.586 17.318 185.144 18.368C185.186 18.446 185.213 18.518 185.225 18.584C185.243 18.65 185.252 18.71 185.252 18.764C185.252 18.884 185.222 18.98 185.162 19.052C185.102 19.13 185.03 19.193 184.946 19.241L183.956 19.844C183.512 19.16 183.134 18.473 182.822 17.783C182.51 17.093 182.255 16.397 182.057 15.695C181.859 14.993 181.712 14.282 181.616 13.562C181.526 12.842 181.481 12.107 181.481 11.357C181.481 10.607 181.526 9.872 181.616 9.152C181.712 8.426 181.859 7.712 182.057 7.01C182.255 6.308 182.51 5.615 182.822 4.931C183.134 4.241 183.512 3.554 183.956 2.87L184.946 3.464C185.03 3.512 185.102 3.575 185.162 3.653C185.222 3.725 185.252 3.818 185.252 3.932C185.252 4.046 185.213 4.181 185.135 4.337C184.583 5.387 184.157 6.512 183.857 7.712C183.557 8.906 183.407 10.121 183.407 11.357ZM195.446 3.986V5.912H189.677V9.521H194.222V11.384H189.677V15.065H195.446V17H187.238V3.986H195.446ZM199.96 15.002H205.171V17H197.539V3.986H199.96V15.002ZM209.564 17H207.134V3.986H209.564V17ZM221.669 3.986V5.975H217.754V17H215.333V5.975H211.4V3.986H221.669ZM231.411 3.986V5.912H225.642V9.521H230.187V11.384H225.642V15.065H231.411V17H223.203V3.986H231.411ZM234.709 11.357C234.709 10.121 234.559 8.906 234.259 7.712C233.959 6.512 233.533 5.387 232.981 4.337C232.903 4.181 232.864 4.046 232.864 3.932C232.864 3.818 232.894 3.725 232.954 3.653C233.014 3.575 233.086 3.512 233.17 3.464L234.16 2.87C234.604 3.554 234.982 4.241 235.294 4.931C235.606 5.615 235.861 6.308 236.059 7.01C236.257 7.712 236.401 8.426 236.491 9.152C236.587 9.872 236.635 10.607 236.635 11.357C236.635 12.107 236.587 12.842 236.491 13.562C236.401 14.282 236.257 14.993 236.059 15.695C235.861 16.397 235.606 17.093 235.294 17.783C234.982 18.473 234.604 19.16 234.16 19.844L233.17 19.241C233.086 19.193 233.014 19.13 232.954 19.052C232.894 18.98 232.864 18.884 232.864 18.764C232.864 18.71 232.87 18.65 232.882 18.584C232.9 18.518 232.93 18.446 232.972 18.368C233.53 17.318 233.959 16.196 234.259 15.002C234.559 13.808 234.709 12.593 234.709 11.357ZM244.882 12.419V17H242.461V3.986H246.7C247.57 3.986 248.323 4.088 248.959 4.292C249.595 4.496 250.12 4.781 250.534 5.147C250.948 5.513 251.254 5.951 251.452 6.461C251.65 6.971 251.749 7.529 251.749 8.135C251.749 8.765 251.644 9.344 251.434 9.872C251.224 10.394 250.909 10.844 250.489 11.222C250.069 11.6 249.544 11.894 248.914 12.104C248.284 12.314 247.546 12.419 246.7 12.419H244.882ZM244.882 10.529H246.7C247.144 10.529 247.531 10.475 247.861 10.367C248.191 10.253 248.464 10.094 248.68 9.89C248.896 9.68 249.058 9.428 249.166 9.134C249.274 8.834 249.328 8.501 249.328 8.135C249.328 7.787 249.274 7.472 249.166 7.19C249.058 6.908 248.896 6.668 248.68 6.47C248.464 6.272 248.191 6.122 247.861 6.02C247.531 5.912 247.144 5.858 246.7 5.858H244.882V10.529ZM257.183 7.622C257.873 7.622 258.497 7.733 259.055 7.955C259.619 8.177 260.099 8.492 260.495 8.9C260.891 9.308 261.197 9.806 261.413 10.394C261.629 10.982 261.737 11.639 261.737 12.365C261.737 13.097 261.629 13.757 261.413 14.345C261.197 14.933 260.891 15.434 260.495 15.848C260.099 16.262 259.619 16.58 259.055 16.802C258.497 17.024 257.873 17.135 257.183 17.135C256.493 17.135 255.866 17.024 255.302 16.802C254.738 16.58 254.255 16.262 253.853 15.848C253.457 15.434 253.148 14.933 252.926 14.345C252.71 13.757 252.602 13.097 252.602 12.365C252.602 11.639 252.71 10.982 252.926 10.394C253.148 9.806 253.457 9.308 253.853 8.9C254.255 8.492 254.738 8.177 255.302 7.955C255.866 7.733 256.493 7.622 257.183 7.622ZM257.183 15.425C257.951 15.425 258.518 15.167 258.884 14.651C259.256 14.135 259.442 13.379 259.442 12.383C259.442 11.387 259.256 10.628 258.884 10.106C258.518 9.584 257.951 9.323 257.183 9.323C256.403 9.323 255.827 9.587 255.455 10.115C255.083 10.637 254.897 11.393 254.897 12.383C254.897 13.373 255.083 14.129 255.455 14.651C255.827 15.167 256.403 15.425 257.183 15.425ZM263.471 17V7.766H264.776C265.004 7.766 265.163 7.808 265.253 7.892C265.343 7.976 265.403 8.12 265.433 8.324L265.568 9.44C265.898 8.87 266.285 8.42 266.729 8.09C267.173 7.76 267.671 7.595 268.223 7.595C268.679 7.595 269.057 7.7 269.357 7.91L269.069 9.575C269.051 9.683 269.012 9.761 268.952 9.809C268.892 9.851 268.811 9.872 268.709 9.872C268.619 9.872 268.496 9.851 268.34 9.809C268.184 9.767 267.977 9.746 267.719 9.746C267.257 9.746 266.861 9.875 266.531 10.133C266.201 10.385 265.922 10.757 265.694 11.249V17H263.471ZM273.852 17.144C273.054 17.144 272.439 16.919 272.007 16.469C271.575 16.013 271.359 15.386 271.359 14.588V9.431H270.423C270.303 9.431 270.198 9.392 270.108 9.314C270.024 9.236 269.982 9.119 269.982 8.963V8.081L271.467 7.838L271.935 5.318C271.959 5.198 272.013 5.105 272.097 5.039C272.187 4.973 272.298 4.94 272.43 4.94H273.582V7.847H276.012V9.431H273.582V14.435C273.582 14.723 273.654 14.948 273.798 15.11C273.942 15.272 274.134 15.353 274.374 15.353C274.512 15.353 274.626 15.338 274.716 15.308C274.812 15.272 274.893 15.236 274.959 15.2C275.031 15.164 275.094 15.131 275.148 15.101C275.202 15.065 275.256 15.047 275.31 15.047C275.376 15.047 275.43 15.065 275.472 15.101C275.514 15.131 275.559 15.179 275.607 15.245L276.273 16.325C275.949 16.595 275.577 16.799 275.157 16.937C274.737 17.075 274.302 17.144 273.852 17.144ZM285.016 17H284.017C283.807 17 283.642 16.97 283.522 16.91C283.402 16.844 283.312 16.715 283.252 16.523L283.054 15.866C282.82 16.076 282.589 16.262 282.361 16.424C282.139 16.58 281.908 16.712 281.668 16.82C281.428 16.928 281.173 17.009 280.903 17.063C280.633 17.117 280.333 17.144 280.003 17.144C279.613 17.144 279.253 17.093 278.923 16.991C278.593 16.883 278.308 16.724 278.068 16.514C277.834 16.304 277.651 16.043 277.519 15.731C277.387 15.419 277.321 15.056 277.321 14.642C277.321 14.294 277.411 13.952 277.591 13.616C277.777 13.274 278.083 12.968 278.509 12.698C278.935 12.422 279.502 12.194 280.21 12.014C280.918 11.834 281.797 11.732 282.847 11.708V11.168C282.847 10.55 282.715 10.094 282.451 9.8C282.193 9.5 281.815 9.35 281.317 9.35C280.957 9.35 280.657 9.392 280.417 9.476C280.177 9.56 279.967 9.656 279.787 9.764C279.613 9.866 279.451 9.959 279.301 10.043C279.151 10.127 278.986 10.169 278.806 10.169C278.656 10.169 278.527 10.13 278.419 10.052C278.311 9.974 278.224 9.878 278.158 9.764L277.753 9.053C278.815 8.081 280.096 7.595 281.596 7.595C282.136 7.595 282.616 7.685 283.036 7.865C283.462 8.039 283.822 8.285 284.116 8.603C284.41 8.915 284.632 9.29 284.782 9.728C284.938 10.166 285.016 10.646 285.016 11.168V17ZM280.696 15.614C280.924 15.614 281.134 15.593 281.326 15.551C281.518 15.509 281.698 15.446 281.866 15.362C282.04 15.278 282.205 15.176 282.361 15.056C282.523 14.93 282.685 14.783 282.847 14.615V13.058C282.199 13.088 281.656 13.145 281.218 13.229C280.786 13.307 280.438 13.409 280.174 13.535C279.91 13.661 279.721 13.808 279.607 13.976C279.499 14.144 279.445 14.327 279.445 14.525C279.445 14.915 279.559 15.194 279.787 15.362C280.021 15.53 280.324 15.614 280.696 15.614ZM289.569 3.626V17H287.346V3.626H289.569Z" fill="white"/>
<path d="M2.1285 34.052V37H1.067V29.1185H3.3935C3.89217 29.1185 4.32483 29.1772 4.6915 29.2945C5.06183 29.4082 5.368 29.5713 5.61 29.784C5.852 29.9967 6.03167 30.2533 6.149 30.554C6.27 30.8547 6.3305 31.1902 6.3305 31.5605C6.3305 31.9272 6.26633 32.2627 6.138 32.567C6.00967 32.8713 5.82083 33.1335 5.5715 33.3535C5.32583 33.5735 5.01967 33.7458 4.653 33.8705C4.28633 33.9915 3.8665 34.052 3.3935 34.052H2.1285ZM2.1285 33.205H3.3935C3.69783 33.205 3.9655 33.1647 4.1965 33.084C4.43117 33.0033 4.62733 32.8915 4.785 32.7485C4.94267 32.6018 5.06183 32.4277 5.1425 32.226C5.22317 32.0243 5.2635 31.8025 5.2635 31.5605C5.2635 31.0582 5.10767 30.6658 4.796 30.3835C4.488 30.1012 4.0205 29.96 3.3935 29.96H2.1285V33.205ZM15.0021 33.062C15.0021 33.6523 14.9086 34.195 14.7216 34.69C14.5346 35.1813 14.2706 35.6048 13.9296 35.9605C13.5886 36.3162 13.1779 36.593 12.6976 36.791C12.2209 36.9853 11.6929 37.0825 11.1136 37.0825C10.5343 37.0825 10.0063 36.9853 9.52961 36.791C9.05294 36.593 8.64411 36.3162 8.30311 35.9605C7.96211 35.6048 7.69811 35.1813 7.51111 34.69C7.32411 34.195 7.23061 33.6523 7.23061 33.062C7.23061 32.4717 7.32411 31.9308 7.51111 31.4395C7.69811 30.9445 7.96211 30.5192 8.30311 30.1635C8.64411 29.8042 9.05294 29.5255 9.52961 29.3275C10.0063 29.1295 10.5343 29.0305 11.1136 29.0305C11.6929 29.0305 12.2209 29.1295 12.6976 29.3275C13.1779 29.5255 13.5886 29.8042 13.9296 30.1635C14.2706 30.5192 14.5346 30.9445 14.7216 31.4395C14.9086 31.9308 15.0021 32.4717 15.0021 33.062ZM13.9076 33.062C13.9076 32.578 13.8416 32.1435 13.7096 31.7585C13.5776 31.3735 13.3906 31.049 13.1486 30.785C12.9066 30.5173 12.6133 30.312 12.2686 30.169C11.9239 30.026 11.5389 29.9545 11.1136 29.9545C10.6919 29.9545 10.3088 30.026 9.96411 30.169C9.61944 30.312 9.32428 30.5173 9.07861 30.785C8.83661 31.049 8.64961 31.3735 8.51761 31.7585C8.38561 32.1435 8.31961 32.578 8.31961 33.062C8.31961 33.546 8.38561 33.9805 8.51761 34.3655C8.64961 34.7468 8.83661 35.0713 9.07861 35.339C9.32428 35.603 9.61944 35.8065 9.96411 35.9495C10.3088 36.0888 10.6919 36.1585 11.1136 36.1585C11.5389 36.1585 11.9239 36.0888 12.2686 35.9495C12.6133 35.8065 12.9066 35.603 13.1486 35.339C13.3906 35.0713 13.5776 34.7468 13.7096 34.3655C13.8416 33.9805 13.9076 33.546 13.9076 33.062ZM15.578 29.1185H16.4635C16.5588 29.1185 16.6376 29.1423 16.7 29.19C16.7623 29.2377 16.8045 29.2982 16.8265 29.3715L18.4545 34.8495C18.4838 34.9485 18.5095 35.0548 18.5315 35.1685C18.5571 35.2822 18.581 35.4013 18.603 35.526C18.6286 35.4013 18.6543 35.2822 18.68 35.1685C18.7056 35.0512 18.735 34.9448 18.768 34.8495L20.6215 29.3715C20.6435 29.3092 20.6856 29.2523 20.748 29.201C20.814 29.146 20.8928 29.1185 20.9845 29.1185H21.2925C21.3878 29.1185 21.4648 29.1423 21.5235 29.19C21.5858 29.2377 21.6298 29.2982 21.6555 29.3715L23.498 34.8495C23.564 35.0402 23.6226 35.2583 23.674 35.504C23.696 35.383 23.7161 35.2675 23.7345 35.1575C23.7528 35.0475 23.7766 34.9448 23.806 34.8495L25.4395 29.3715C25.4578 29.3055 25.4981 29.2468 25.5605 29.1955C25.6265 29.1442 25.7053 29.1185 25.797 29.1185H26.6275L24.169 37H23.212L21.2155 30.9885C21.1751 30.8748 21.1385 30.7428 21.1055 30.5925C21.0871 30.6658 21.0688 30.7373 21.0505 30.807C21.0358 30.873 21.0193 30.9335 21.001 30.9885L18.9935 37H18.0365L15.578 29.1185ZM32.5186 29.1185V29.9875H28.7346V32.6055H31.7981V33.4415H28.7346V36.131H32.5186V37H27.6621V29.1185H32.5186ZM35.2252 33.711V37H34.1637V29.1185H36.3912C36.8898 29.1185 37.3207 29.1698 37.6837 29.2725C38.0467 29.3715 38.3455 29.5163 38.5802 29.707C38.8185 29.8977 38.9945 30.1287 39.1082 30.4C39.2218 30.6677 39.2787 30.9683 39.2787 31.302C39.2787 31.5807 39.2347 31.841 39.1467 32.083C39.0587 32.325 38.9303 32.5432 38.7617 32.7375C38.5967 32.9282 38.3932 33.0913 38.1512 33.227C37.9128 33.3627 37.6415 33.4653 37.3372 33.535C37.4692 33.612 37.5865 33.7238 37.6892 33.8705L39.9882 37H39.0422C38.8478 37 38.7048 36.9248 38.6132 36.7745L36.5672 33.9585C36.5048 33.8705 36.437 33.8082 36.3637 33.7715C36.2903 33.7312 36.1803 33.711 36.0337 33.711H35.2252ZM35.2252 32.9355H36.3417C36.6533 32.9355 36.9265 32.8988 37.1612 32.8255C37.3995 32.7485 37.5975 32.6422 37.7552 32.5065C37.9165 32.3672 38.0375 32.2022 38.1182 32.0115C38.1988 31.8208 38.2392 31.61 38.2392 31.379C38.2392 30.9097 38.0833 30.5558 37.7717 30.3175C37.4637 30.0792 37.0035 29.96 36.3912 29.96H35.2252V32.9355ZM45.9893 29.1185V29.9875H42.2053V32.6055H45.2688V33.4415H42.2053V36.131H45.9893V37H41.1328V29.1185H45.9893ZM54.3554 33.062C54.3554 33.6523 54.2619 34.1895 54.0749 34.6735C53.8879 35.1575 53.6239 35.5718 53.2829 35.9165C52.9419 36.2612 52.533 36.5288 52.0564 36.7195C51.5797 36.9065 51.0517 37 50.4724 37H47.5244V29.1185H50.4724C51.0517 29.1185 51.5797 29.2138 52.0564 29.4045C52.533 29.5915 52.9419 29.8592 53.2829 30.2075C53.6239 30.5522 53.8879 30.9665 54.0749 31.4505C54.2619 31.9345 54.3554 32.4717 54.3554 33.062ZM53.2609 33.062C53.2609 32.578 53.1949 32.1453 53.0629 31.764C52.9309 31.3827 52.7439 31.06 52.5019 30.796C52.2599 30.532 51.9665 30.3303 51.6219 30.191C51.2772 30.0517 50.894 29.982 50.4724 29.982H48.5969V36.1365H50.4724C50.894 36.1365 51.2772 36.0668 51.6219 35.9275C51.9665 35.7882 52.2599 35.5883 52.5019 35.328C52.7439 35.064 52.9309 34.7413 53.0629 34.36C53.1949 33.9787 53.2609 33.546 53.2609 33.062ZM57.9336 37V29.1185H60.4471C60.9311 29.1185 61.3472 29.1662 61.6956 29.2615C62.0476 29.3568 62.3354 29.4925 62.5591 29.6685C62.7864 29.8445 62.9532 30.0608 63.0596 30.3175C63.1696 30.5705 63.2246 30.8565 63.2246 31.1755C63.2246 31.3698 63.1934 31.5568 63.1311 31.7365C63.0724 31.9162 62.9807 32.083 62.8561 32.237C62.7351 32.391 62.5811 32.5285 62.3941 32.6495C62.2107 32.7705 61.9944 32.8695 61.7451 32.9465C62.3207 33.0602 62.7552 33.2673 63.0486 33.568C63.3419 33.8687 63.4886 34.2647 63.4886 34.756C63.4886 35.0897 63.4262 35.394 63.3016 35.669C63.1806 35.944 63.0009 36.1805 62.7626 36.3785C62.5279 36.5765 62.2382 36.7305 61.8936 36.8405C61.5526 36.9468 61.1621 37 60.7221 37H57.9336ZM59.0006 33.4085V36.153H60.7056C61.0099 36.153 61.2702 36.1182 61.4866 36.0485C61.7066 35.9788 61.8862 35.8817 62.0256 35.757C62.1686 35.6287 62.2731 35.4783 62.3391 35.306C62.4051 35.13 62.4381 34.9375 62.4381 34.7285C62.4381 34.3215 62.2932 34.0007 62.0036 33.766C61.7176 33.5277 61.2831 33.4085 60.7001 33.4085H59.0006ZM59.0006 32.6495H60.4086C60.7092 32.6495 60.9696 32.6165 61.1896 32.5505C61.4096 32.4845 61.5911 32.3928 61.7341 32.2755C61.8807 32.1582 61.9889 32.017 62.0586 31.852C62.1282 31.6833 62.1631 31.5 62.1631 31.302C62.1631 30.84 62.0237 30.5008 61.7451 30.2845C61.4664 30.0682 61.0337 29.96 60.4471 29.96H59.0006V32.6495ZM68.0916 33.865V37H67.0301V33.865L64.1426 29.1185H65.0776C65.173 29.1185 65.2481 29.1423 65.3031 29.19C65.3581 29.2377 65.4058 29.2963 65.4461 29.366L67.2501 32.4295C67.3235 32.5578 67.384 32.6788 67.4316 32.7925C67.483 32.9062 67.5288 33.018 67.5691 33.128C67.6095 33.0143 67.6535 32.9007 67.7011 32.787C67.7488 32.6733 67.8093 32.5542 67.8826 32.4295L69.6811 29.366C69.7141 29.3073 69.7581 29.2523 69.8131 29.201C69.8718 29.146 69.947 29.1185 70.0386 29.1185H70.9846L68.0916 33.865Z" fill="white"/>
<path d="M79.9501 34.0401C79.9358 34.0401 79.9073 34.0401 79.893 34.0259L76.057 31.7015C76.0143 31.6729 76 31.6444 76 31.6016V27.2665C76 27.2237 76.0143 27.1952 76.057 27.1667C76.0856 27.1524 76.1283 27.1524 76.1711 27.1667L79.9643 29.3913C79.9929 29.4056 80.0214 29.4483 80.0214 29.4769L80.0642 33.9118C80.0642 33.9546 80.0499 33.9831 80.0071 34.0116C79.9786 34.0401 79.9643 34.0401 79.9501 34.0401ZM76.2139 31.5446L79.836 33.7407L79.7932 29.5624L76.2139 27.4662V31.5446Z" fill="white" stroke="white" stroke-width="0.25"/>
<path d="M79.95 33.9404C79.9073 33.9404 79.8787 33.9261 79.8645 33.8833C79.836 33.8263 79.8502 33.7692 79.9073 33.7407L82.0463 32.4858L83.1586 31.8441C83.2156 31.8156 83.2727 31.8298 83.3012 31.8869C83.3297 31.9439 83.3155 32.001 83.2584 32.0295L80.0071 33.9118C79.9928 33.9261 79.9643 33.9404 79.95 33.9404Z" fill="white" stroke="white" stroke-width="0.25"/>
<path d="M83.7719 40.5001C83.7576 40.5001 83.7291 40.5001 83.7148 40.4858L79.9501 38.2469C79.9216 38.2327 79.8931 38.1899 79.8931 38.1614L79.8361 33.9404C79.8361 33.8976 79.8503 33.869 79.8931 33.8405C79.9216 33.8263 79.9644 33.8263 80.0072 33.8405L83.8004 35.9653C83.8289 35.9796 83.8574 36.0223 83.8574 36.0651L83.886 40.386C83.886 40.4288 83.8717 40.4573 83.8289 40.4858C83.8004 40.4858 83.7861 40.5001 83.7719 40.5001ZM80.107 38.0901L83.6578 40.2006L83.6293 36.1222L80.0642 34.1257L80.107 38.0901Z" fill="white" stroke="white" stroke-width="0.25"/>
<path d="M84.4421 40.4857C84.4279 40.4857 84.3993 40.4857 84.3851 40.4715C84.3566 40.4572 84.328 40.4144 84.328 40.3859L84.271 36.065C84.271 36.0223 84.2853 35.9937 84.328 35.9652L88.1213 33.7834C88.1498 33.7691 88.1926 33.7691 88.2353 33.7834C88.2639 33.7977 88.2924 33.8404 88.2924 33.8832L88.1926 38.1756C88.1926 38.2183 88.1783 38.2469 88.1355 38.2611L84.4992 40.4715C84.4849 40.4857 84.4706 40.4857 84.4421 40.4857ZM84.4992 36.1221L84.5562 40.1863L87.9787 38.1043L88.0642 34.0543L84.4992 36.1221Z" fill="white" stroke="white" stroke-width="0.25"/>
<path d="M88.1355 33.8834C88.1213 33.8834 88.0927 33.8834 88.0785 33.8691L85.9252 32.6285H85.9109L84.7986 31.9868C84.7416 31.9582 84.7273 31.8869 84.7558 31.8442C84.7844 31.7871 84.8557 31.7728 84.8984 31.8014L88.1783 33.6837C88.2353 33.7122 88.2496 33.7835 88.2211 33.8263C88.2068 33.8691 88.164 33.8834 88.1355 33.8834Z" fill="white" stroke="white" stroke-width="0.25"/>
<path d="M88.2068 33.9117C88.1925 33.9117 88.164 33.9117 88.1497 33.8974C88.1212 33.8832 88.0927 33.8404 88.0927 33.8119L88.0356 29.4625C88.0356 29.4197 88.0499 29.3912 88.0927 29.3627L91.8289 27.1809C91.8574 27.1666 91.9002 27.1666 91.943 27.1809C91.9715 27.1951 92 27.2379 92 27.2807V31.6301C92 31.6728 91.9857 31.7014 91.943 31.7156L88.2638 33.8974C88.2495 33.9117 88.2353 33.9117 88.2068 33.9117ZM88.2638 29.5195L88.3066 33.6265L91.7718 31.5588V27.4518L88.2638 29.5195Z" fill="white" stroke="white" stroke-width="0.25"/>
<path d="M87.9215 28.9491C87.9073 28.9491 87.8787 28.9491 87.8645 28.9348L84.0998 26.7958C84.0712 26.7815 84.0427 26.7388 84.0427 26.696C84.0427 26.6532 84.0712 26.6247 84.0998 26.5962L87.9215 24.5427C87.95 24.5284 87.9928 24.5284 88.0213 24.5427L91.7005 26.5391C91.729 26.5534 91.7575 26.5962 91.7575 26.6247C91.7575 26.6675 91.7433 26.696 91.7005 26.7245L87.9786 28.9348C87.95 28.9491 87.9358 28.9491 87.9215 28.9491ZM84.385 26.7102L87.9215 28.7209L91.4438 26.6247L87.9786 24.7566L84.385 26.7102Z" fill="white" stroke="white" stroke-width="0.25"/>
<path d="M84.0856 30.6318C84.0286 30.6318 83.9858 30.589 83.9715 30.532V29.2485C83.9715 29.2485 83.9715 29.2485 83.9715 29.2343L83.9573 26.753C83.9573 26.696 84.0001 26.6389 84.0571 26.6389C84.1141 26.6389 84.1569 26.6817 84.1712 26.7387L84.1854 30.5177C84.1854 30.589 84.1427 30.6318 84.0856 30.6318Z" fill="white" stroke="white" stroke-width="0.25"/>
<path d="M80.3066 28.992C80.2924 28.992 80.2639 28.992 80.2496 28.9777L76.4849 26.8387C76.4564 26.8244 76.4279 26.7816 76.4279 26.7389C76.4279 26.6961 76.4421 26.6676 76.4849 26.639L80.3066 24.5C80.3494 24.5 80.3922 24.5 80.4207 24.5143L84.0999 26.6105C84.1284 26.6248 84.1569 26.6676 84.1569 26.6961C84.1569 26.7246 84.1427 26.7674 84.0999 26.7959L80.3637 28.9777C80.3494 28.992 80.3352 28.992 80.3066 28.992ZM76.7701 26.7531L80.3066 28.7781L83.8432 26.7103L80.3637 24.7282L76.7701 26.7531Z" fill="white" stroke="white" stroke-width="0.25"/>
<path d="M100.994 30.3505C100.961 30.4055 100.926 30.4477 100.89 30.477C100.853 30.5027 100.805 30.5155 100.747 30.5155C100.684 30.5155 100.611 30.4843 100.527 30.422C100.446 30.3597 100.341 30.2918 100.213 30.2185C100.088 30.1415 99.9362 30.0718 99.7565 30.0095C99.5805 29.9472 99.366 29.916 99.113 29.916C98.8747 29.916 98.6638 29.949 98.4805 30.015C98.2972 30.0773 98.1432 30.1635 98.0185 30.2735C97.8975 30.3835 97.8058 30.5137 97.7435 30.664C97.6812 30.8107 97.65 30.9702 97.65 31.1425C97.65 31.3625 97.7032 31.5458 97.8095 31.6925C97.9195 31.8355 98.0625 31.9583 98.2385 32.061C98.4182 32.1637 98.6198 32.2535 98.8435 32.3305C99.0708 32.4038 99.3018 32.4808 99.5365 32.5615C99.7748 32.6422 100.006 32.7338 100.23 32.8365C100.457 32.9355 100.659 33.062 100.835 33.216C101.014 33.37 101.157 33.5588 101.264 33.7825C101.374 34.0062 101.429 34.2812 101.429 34.6075C101.429 34.9522 101.37 35.2767 101.253 35.581C101.135 35.8817 100.963 36.1438 100.736 36.3675C100.512 36.5912 100.235 36.7672 99.905 36.8955C99.5787 37.0238 99.2065 37.088 98.7885 37.088C98.2788 37.088 97.8132 36.9963 97.3915 36.813C96.9735 36.626 96.616 36.3748 96.319 36.0595L96.627 35.5535C96.6563 35.5132 96.6912 35.4802 96.7315 35.4545C96.7755 35.4252 96.8232 35.4105 96.8745 35.4105C96.9515 35.4105 97.0395 35.4527 97.1385 35.537C97.2375 35.6177 97.3603 35.7075 97.507 35.8065C97.6573 35.9055 97.837 35.9972 98.046 36.0815C98.2587 36.1622 98.5172 36.2025 98.8215 36.2025C99.0745 36.2025 99.3 36.1677 99.498 36.098C99.696 36.0283 99.8628 35.9312 99.9985 35.8065C100.138 35.6782 100.244 35.526 100.318 35.35C100.391 35.174 100.428 34.9778 100.428 34.7615C100.428 34.5232 100.373 34.3288 100.263 34.1785C100.156 34.0245 100.015 33.8962 99.839 33.7935C99.663 33.6908 99.4613 33.6047 99.234 33.535C99.0103 33.4617 98.7793 33.3883 98.541 33.315C98.3063 33.238 98.0753 33.15 97.848 33.051C97.6243 32.952 97.4245 32.8237 97.2485 32.666C97.0725 32.5083 96.9295 32.3122 96.8195 32.0775C96.7132 31.8392 96.66 31.5458 96.66 31.1975C96.66 30.9188 96.7132 30.6493 96.8195 30.389C96.9295 30.1287 97.0872 29.8977 97.2925 29.696C97.4978 29.4943 97.7508 29.333 98.0515 29.212C98.3558 29.091 98.7042 29.0305 99.0965 29.0305C99.5365 29.0305 99.938 29.1002 100.301 29.2395C100.664 29.3788 100.981 29.5805 101.253 29.8445L100.994 30.3505ZM109.275 37H108.45C108.354 37 108.277 36.9762 108.219 36.9285C108.16 36.8808 108.116 36.8203 108.087 36.747L107.35 34.844H103.813L103.076 36.747C103.05 36.813 103.006 36.8717 102.944 36.923C102.882 36.9743 102.805 37 102.713 37H101.888L105.04 29.1185H106.123L109.275 37ZM104.11 34.074H107.053L105.815 30.8675C105.734 30.6695 105.656 30.422 105.579 30.125C105.538 30.2753 105.498 30.4147 105.458 30.543C105.421 30.6677 105.384 30.7777 105.348 30.873L104.11 34.074ZM113.545 36.2245C113.757 36.2245 113.952 36.2153 114.128 36.197C114.307 36.175 114.476 36.1438 114.634 36.1035C114.791 36.0632 114.94 36.0155 115.079 35.9605C115.219 35.9018 115.358 35.8358 115.497 35.7625V34.0245H114.276C114.207 34.0245 114.15 34.0043 114.106 33.964C114.065 33.9237 114.045 33.8742 114.045 33.8155V33.2105H116.465V36.2355C116.267 36.3785 116.06 36.5032 115.844 36.6095C115.631 36.7158 115.402 36.8057 115.156 36.879C114.914 36.9487 114.654 37 114.375 37.033C114.097 37.0697 113.794 37.088 113.468 37.088C112.896 37.088 112.371 36.9908 111.895 36.7965C111.418 36.5985 111.007 36.3235 110.663 35.9715C110.318 35.6158 110.049 35.1905 109.854 34.6955C109.664 34.2005 109.568 33.656 109.568 33.062C109.568 32.4607 109.662 31.9125 109.849 31.4175C110.039 30.9225 110.309 30.499 110.657 30.147C111.009 29.7913 111.433 29.5163 111.928 29.322C112.426 29.1277 112.984 29.0305 113.6 29.0305C113.911 29.0305 114.201 29.0543 114.469 29.102C114.736 29.146 114.984 29.212 115.211 29.3C115.442 29.3843 115.655 29.4888 115.849 29.6135C116.044 29.7345 116.225 29.872 116.394 30.026L116.091 30.51C116.029 30.609 115.948 30.6585 115.849 30.6585C115.791 30.6585 115.726 30.6383 115.657 30.598C115.565 30.5467 115.462 30.4843 115.349 30.411C115.235 30.3377 115.096 30.268 114.931 30.202C114.769 30.1323 114.577 30.0737 114.353 30.026C114.133 29.9783 113.871 29.9545 113.567 29.9545C113.123 29.9545 112.722 30.0278 112.362 30.1745C112.003 30.3175 111.697 30.5247 111.444 30.796C111.191 31.0637 110.996 31.39 110.861 31.775C110.725 32.1563 110.657 32.5853 110.657 33.062C110.657 33.5607 110.727 34.0062 110.866 34.3985C111.009 34.7872 111.209 35.1172 111.466 35.3885C111.722 35.6598 112.027 35.867 112.379 36.01C112.731 36.153 113.119 36.2245 113.545 36.2245ZM122.965 29.1185V29.9875H119.181V32.6055H122.244V33.4415H119.181V36.131H122.965V37H118.108V29.1185H122.965ZM126.627 37V29.1185H129.14C129.624 29.1185 130.041 29.1662 130.389 29.2615C130.741 29.3568 131.029 29.4925 131.252 29.6685C131.48 29.8445 131.647 30.0608 131.753 30.3175C131.863 30.5705 131.918 30.8565 131.918 31.1755C131.918 31.3698 131.887 31.5568 131.824 31.7365C131.766 31.9162 131.674 32.083 131.549 32.237C131.428 32.391 131.274 32.5285 131.087 32.6495C130.904 32.7705 130.688 32.8695 130.438 32.9465C131.014 33.0602 131.449 33.2673 131.742 33.568C132.035 33.8687 132.182 34.2647 132.182 34.756C132.182 35.0897 132.12 35.394 131.995 35.669C131.874 35.944 131.694 36.1805 131.456 36.3785C131.221 36.5765 130.932 36.7305 130.587 36.8405C130.246 36.9468 129.855 37 129.415 37H126.627ZM127.694 33.4085V36.153H129.399C129.703 36.153 129.964 36.1182 130.18 36.0485C130.4 35.9788 130.58 35.8817 130.719 35.757C130.862 35.6287 130.966 35.4783 131.032 35.306C131.098 35.13 131.131 34.9375 131.131 34.7285C131.131 34.3215 130.987 34.0007 130.697 33.766C130.411 33.5277 129.976 33.4085 129.393 33.4085H127.694ZM127.694 32.6495H129.102C129.403 32.6495 129.663 32.6165 129.883 32.5505C130.103 32.4845 130.284 32.3928 130.427 32.2755C130.574 32.1582 130.682 32.017 130.752 31.852C130.822 31.6833 130.856 31.5 130.856 31.302C130.856 30.84 130.717 30.5008 130.438 30.2845C130.16 30.0682 129.727 29.96 129.14 29.96H127.694V32.6495ZM135.014 37H133.947V29.1185H135.014V37ZM144.443 33.062C144.443 33.6523 144.349 34.195 144.162 34.69C143.975 35.1813 143.711 35.6048 143.37 35.9605C143.029 36.3162 142.618 36.593 142.138 36.791C141.661 36.9853 141.133 37.0825 140.554 37.0825C139.975 37.0825 139.447 36.9853 138.97 36.791C138.493 36.593 138.085 36.3162 137.744 35.9605C137.403 35.6048 137.139 35.1813 136.952 34.69C136.765 34.195 136.671 33.6523 136.671 33.062C136.671 32.4717 136.765 31.9308 136.952 31.4395C137.139 30.9445 137.403 30.5192 137.744 30.1635C138.085 29.8042 138.493 29.5255 138.97 29.3275C139.447 29.1295 139.975 29.0305 140.554 29.0305C141.133 29.0305 141.661 29.1295 142.138 29.3275C142.618 29.5255 143.029 29.8042 143.37 30.1635C143.711 30.5192 143.975 30.9445 144.162 31.4395C144.349 31.9308 144.443 32.4717 144.443 33.062ZM143.348 33.062C143.348 32.578 143.282 32.1435 143.15 31.7585C143.018 31.3735 142.831 31.049 142.589 30.785C142.347 30.5173 142.054 30.312 141.709 30.169C141.364 30.026 140.979 29.9545 140.554 29.9545C140.132 29.9545 139.749 30.026 139.405 30.169C139.06 30.312 138.765 30.5173 138.519 30.785C138.277 31.049 138.09 31.3735 137.958 31.7585C137.826 32.1435 137.76 32.578 137.76 33.062C137.76 33.546 137.826 33.9805 137.958 34.3655C138.09 34.7468 138.277 35.0713 138.519 35.339C138.765 35.603 139.06 35.8065 139.405 35.9495C139.749 36.0888 140.132 36.1585 140.554 36.1585C140.979 36.1585 141.364 36.0888 141.709 35.9495C142.054 35.8065 142.347 35.603 142.589 35.339C142.831 35.0713 143.018 34.7468 143.15 34.3655C143.282 33.9805 143.348 33.546 143.348 33.062ZM146.448 29.1185C146.544 29.1185 146.613 29.1313 146.657 29.157C146.705 29.179 146.758 29.2267 146.817 29.3L151.382 35.24C151.371 35.1447 151.364 35.053 151.36 34.965C151.356 34.8733 151.354 34.7853 151.354 34.701V29.1185H152.289V37H151.75C151.666 37 151.595 36.9853 151.536 36.956C151.481 36.9267 151.426 36.8772 151.371 36.8075L146.811 30.873C146.819 30.9647 146.824 31.0545 146.828 31.1425C146.832 31.2305 146.833 31.3112 146.833 31.3845V37H145.898V29.1185H146.448ZM159.069 29.1185V29.9875H155.285V32.6055H158.349V33.4415H155.285V36.131H159.069V37H154.213V29.1185H159.069ZM165.972 29.1185V30.015H163.426V37H162.359V30.015H159.801V29.1185H165.972ZM166.213 29.1185H167.098C167.194 29.1185 167.272 29.1423 167.335 29.19C167.397 29.2377 167.439 29.2982 167.461 29.3715L169.089 34.8495C169.119 34.9485 169.144 35.0548 169.166 35.1685C169.192 35.2822 169.216 35.4013 169.238 35.526C169.263 35.4013 169.289 35.2822 169.315 35.1685C169.34 35.0512 169.37 34.9448 169.403 34.8495L171.256 29.3715C171.278 29.3092 171.32 29.2523 171.383 29.201C171.449 29.146 171.528 29.1185 171.619 29.1185H171.927C172.023 29.1185 172.1 29.1423 172.158 29.19C172.221 29.2377 172.265 29.2982 172.29 29.3715L174.133 34.8495C174.199 35.0402 174.257 35.2583 174.309 35.504C174.331 35.383 174.351 35.2675 174.369 35.1575C174.388 35.0475 174.411 34.9448 174.441 34.8495L176.074 29.3715C176.093 29.3055 176.133 29.2468 176.195 29.1955C176.261 29.1442 176.34 29.1185 176.432 29.1185H177.262L174.804 37H173.847L171.85 30.9885C171.81 30.8748 171.773 30.7428 171.74 30.5925C171.722 30.6658 171.704 30.7373 171.685 30.807C171.671 30.873 171.654 30.9335 171.636 30.9885L169.628 37H168.671L166.213 29.1185ZM185.617 33.062C185.617 33.6523 185.524 34.195 185.337 34.69C185.15 35.1813 184.886 35.6048 184.545 35.9605C184.204 36.3162 183.793 36.593 183.313 36.791C182.836 36.9853 182.308 37.0825 181.729 37.0825C181.15 37.0825 180.622 36.9853 180.145 36.791C179.668 36.593 179.259 36.3162 178.918 35.9605C178.577 35.6048 178.313 35.1813 178.126 34.69C177.939 34.195 177.846 33.6523 177.846 33.062C177.846 32.4717 177.939 31.9308 178.126 31.4395C178.313 30.9445 178.577 30.5192 178.918 30.1635C179.259 29.8042 179.668 29.5255 180.145 29.3275C180.622 29.1295 181.15 29.0305 181.729 29.0305C182.308 29.0305 182.836 29.1295 183.313 29.3275C183.793 29.5255 184.204 29.8042 184.545 30.1635C184.886 30.5192 185.15 30.9445 185.337 31.4395C185.524 31.9308 185.617 32.4717 185.617 33.062ZM184.523 33.062C184.523 32.578 184.457 32.1435 184.325 31.7585C184.193 31.3735 184.006 31.049 183.764 30.785C183.522 30.5173 183.229 30.312 182.884 30.169C182.539 30.026 182.154 29.9545 181.729 29.9545C181.307 29.9545 180.924 30.026 180.579 30.169C180.235 30.312 179.94 30.5173 179.694 30.785C179.452 31.049 179.265 31.3735 179.133 31.7585C179.001 32.1435 178.935 32.578 178.935 33.062C178.935 33.546 179.001 33.9805 179.133 34.3655C179.265 34.7468 179.452 35.0713 179.694 35.339C179.94 35.603 180.235 35.8065 180.579 35.9495C180.924 36.0888 181.307 36.1585 181.729 36.1585C182.154 36.1585 182.539 36.0888 182.884 35.9495C183.229 35.8065 183.522 35.603 183.764 35.339C184.006 35.0713 184.193 34.7468 184.325 34.3655C184.457 33.9805 184.523 33.546 184.523 33.062ZM188.245 33.711V37H187.183V29.1185H189.411C189.909 29.1185 190.34 29.1698 190.703 29.2725C191.066 29.3715 191.365 29.5163 191.6 29.707C191.838 29.8977 192.014 30.1287 192.128 30.4C192.241 30.6677 192.298 30.9683 192.298 31.302C192.298 31.5807 192.254 31.841 192.166 32.083C192.078 32.325 191.95 32.5432 191.781 32.7375C191.616 32.9282 191.413 33.0913 191.171 33.227C190.932 33.3627 190.661 33.4653 190.357 33.535C190.489 33.612 190.606 33.7238 190.709 33.8705L193.008 37H192.062C191.867 37 191.724 36.9248 191.633 36.7745L189.587 33.9585C189.524 33.8705 189.457 33.8082 189.383 33.7715C189.31 33.7312 189.2 33.711 189.053 33.711H188.245ZM188.245 32.9355H189.361C189.673 32.9355 189.946 32.8988 190.181 32.8255C190.419 32.7485 190.617 32.6422 190.775 32.5065C190.936 32.3672 191.057 32.2022 191.138 32.0115C191.218 31.8208 191.259 31.61 191.259 31.379C191.259 30.9097 191.103 30.5558 190.791 30.3175C190.483 30.0792 190.023 29.96 189.411 29.96H188.245V32.9355ZM195.324 32.5725H195.725C195.865 32.5725 195.975 32.556 196.055 32.523C196.14 32.4863 196.218 32.4258 196.292 32.3415L198.915 29.3715C198.996 29.2798 199.073 29.2157 199.146 29.179C199.223 29.1387 199.32 29.1185 199.438 29.1185H200.345L197.342 32.512C197.265 32.5963 197.192 32.6678 197.122 32.7265C197.056 32.7852 196.985 32.8328 196.908 32.8695C197.01 32.9025 197.1 32.952 197.177 33.018C197.254 33.084 197.335 33.1665 197.419 33.2655L200.554 37H199.63C199.561 37 199.502 36.9945 199.454 36.9835C199.407 36.9725 199.364 36.9578 199.328 36.9395C199.295 36.9212 199.264 36.8973 199.234 36.868C199.205 36.8387 199.176 36.8075 199.146 36.7745L196.424 33.645C196.383 33.601 196.345 33.5643 196.308 33.535C196.275 33.502 196.235 33.4745 196.187 33.4525C196.143 33.4305 196.09 33.4158 196.028 33.4085C195.969 33.3975 195.896 33.392 195.808 33.392H195.324V37H194.262V29.1185H195.324V32.5725ZM205.677 30.3505C205.644 30.4055 205.609 30.4477 205.572 30.477C205.535 30.5027 205.488 30.5155 205.429 30.5155C205.367 30.5155 205.293 30.4843 205.209 30.422C205.128 30.3597 205.024 30.2918 204.896 30.2185C204.771 30.1415 204.619 30.0718 204.439 30.0095C204.263 29.9472 204.049 29.916 203.796 29.916C203.557 29.916 203.346 29.949 203.163 30.015C202.98 30.0773 202.826 30.1635 202.701 30.2735C202.58 30.3835 202.488 30.5137 202.426 30.664C202.364 30.8107 202.333 30.9702 202.333 31.1425C202.333 31.3625 202.386 31.5458 202.492 31.6925C202.602 31.8355 202.745 31.9583 202.921 32.061C203.101 32.1637 203.302 32.2535 203.526 32.3305C203.753 32.4038 203.984 32.4808 204.219 32.5615C204.457 32.6422 204.688 32.7338 204.912 32.8365C205.139 32.9355 205.341 33.062 205.517 33.216C205.697 33.37 205.84 33.5588 205.946 33.7825C206.056 34.0062 206.111 34.2812 206.111 34.6075C206.111 34.9522 206.052 35.2767 205.935 35.581C205.818 35.8817 205.645 36.1438 205.418 36.3675C205.194 36.5912 204.918 36.7672 204.588 36.8955C204.261 37.0238 203.889 37.088 203.471 37.088C202.961 37.088 202.496 36.9963 202.074 36.813C201.656 36.626 201.299 36.3748 201.002 36.0595L201.31 35.5535C201.339 35.5132 201.374 35.4802 201.414 35.4545C201.458 35.4252 201.506 35.4105 201.557 35.4105C201.634 35.4105 201.722 35.4527 201.821 35.537C201.92 35.6177 202.043 35.7075 202.19 35.8065C202.34 35.9055 202.52 35.9972 202.729 36.0815C202.941 36.1622 203.2 36.2025 203.504 36.2025C203.757 36.2025 203.983 36.1677 204.181 36.098C204.379 36.0283 204.545 35.9312 204.681 35.8065C204.82 35.6782 204.927 35.526 205 35.35C205.073 35.174 205.11 34.9778 205.11 34.7615C205.11 34.5232 205.055 34.3288 204.945 34.1785C204.839 34.0245 204.698 33.8962 204.522 33.7935C204.346 33.6908 204.144 33.6047 203.917 33.535C203.693 33.4617 203.462 33.3883 203.224 33.315C202.989 33.238 202.758 33.15 202.531 33.051C202.307 32.952 202.107 32.8237 201.931 32.666C201.755 32.5083 201.612 32.3122 201.502 32.0775C201.396 31.8392 201.343 31.5458 201.343 31.1975C201.343 30.9188 201.396 30.6493 201.502 30.389C201.612 30.1287 201.77 29.8977 201.975 29.696C202.18 29.4943 202.433 29.333 202.734 29.212C203.038 29.091 203.387 29.0305 203.779 29.0305C204.219 29.0305 204.621 29.1002 204.984 29.2395C205.347 29.3788 205.664 29.5805 205.935 29.8445L205.677 30.3505Z" fill="white"/>
</svg>
