<svg viewBox="0 0 263 58" fill="none" xmlns="http://www.w3.org/2000/svg">
<path fill-rule="evenodd" clip-rule="evenodd" d="M6.28516 16.4408L26.8883 16.4404L26.8883 17.8289L6.28518 17.8292L6.28516 16.4408Z" fill="#4AB77F"/>
<path d="M3.92516 21.0619C6.09296 21.0619 7.85032 19.3038 7.85032 17.135C7.85032 14.9662 6.09296 13.208 3.92516 13.208C1.75735 13.208 0 14.9662 0 17.135C0 19.3038 1.75735 21.0619 3.92516 21.0619Z" fill="#4AB77F"/>
<path fill-rule="evenodd" clip-rule="evenodd" d="M18.9141 24.3683H26.8879V25.2782H18.9141V24.3683Z" fill="#E566A1"/>
<path d="M16.5541 28.7502C18.7219 28.7502 20.4792 26.992 20.4792 24.8232C20.4792 22.6544 18.7219 20.8963 16.5541 20.8963C14.3863 20.8963 12.6289 22.6544 12.6289 24.8232C12.6289 26.992 14.3863 28.7502 16.5541 28.7502Z" fill="#E566A1"/>
<path fill-rule="evenodd" clip-rule="evenodd" d="M8.79004 31.8174H26.8885V33.2058H8.79004V31.8174Z" fill="#ACBCE0"/>
<path d="M6.43004 36.4385C8.59785 36.4385 10.3552 34.6804 10.3552 32.5116C10.3552 30.3428 8.59785 28.5846 6.43004 28.5846C4.26224 28.5846 2.50488 30.3428 2.50488 32.5116C2.50488 34.6804 4.26224 36.4385 6.43004 36.4385Z" fill="#ACBCE0"/>
<path fill-rule="evenodd" clip-rule="evenodd" d="M16.7705 39.5056H26.8879V40.894H16.7705V39.5056Z" fill="#17BBB7"/>
<path d="M14.4105 44.1268C16.5783 44.1268 18.3357 42.3686 18.3357 40.1998C18.3357 38.031 16.5783 36.2729 14.4105 36.2729C12.2427 36.2729 10.4854 38.031 10.4854 40.1998C10.4854 42.3686 12.2427 44.1268 14.4105 44.1268Z" fill="#17BBB7"/>
<mask id="mask0_676_18454" style="mask-type:luminance" maskUnits="userSpaceOnUse" x="26" y="0" width="64" height="58">
<path d="M89.94 28.8939L58.6501 0V14.445H26.8887V43.1557L58.6501 43.1748V57.9124L89.94 28.8939Z" fill="white"/>
</mask>
<g mask="url(#mask0_676_18454)">
<path d="M89.94 28.8939L58.6501 0V14.445H26.8887V43.1557L58.6501 43.1748V57.9124L89.94 28.8939Z" fill="url(#paint0_linear_676_18454)"/>
<path fill-rule="evenodd" clip-rule="evenodd" d="M26.8887 16.4404L76.4531 16.4408L77.9601 17.8292L26.8887 17.8289L26.8887 16.4404Z" fill="white"/>
<path fill-rule="evenodd" clip-rule="evenodd" d="M26.8887 24.1288L84.7906 24.1291L86.2976 25.5175L26.8887 25.5172L26.8887 24.1288Z" fill="white"/>
<path fill-rule="evenodd" clip-rule="evenodd" d="M25.5928 31.817L86.856 31.8174L85.3924 33.2058L25.5928 33.2055L25.5928 31.817Z" fill="white"/>
<path fill-rule="evenodd" clip-rule="evenodd" d="M26.8887 39.5054L78.5835 39.5057L77.0765 40.8941L26.8887 40.8938L26.8887 39.5054Z" fill="white"/>
</g>
<path d="M107.901 14.0672V15.9656H102.215V19.5227H106.694V21.3589H102.215V24.9869H107.901V26.8941H99.8107V14.0672H107.901ZM111.995 24.9248H117.131V26.8941H109.609V14.0672H111.995V24.9248ZM121.107 26.8941H118.712V14.0672H121.107V26.8941ZM132.682 14.0672V16.0276H128.823V26.8941H126.437V16.0276H122.561V14.0672H132.682ZM141.929 14.0672V15.9656H136.243V19.5227H140.723V21.3589H136.243V24.9869H141.929V26.8941H133.839V14.0672H141.929ZM149.179 22.379V26.8941H146.792V14.0672H150.97C151.828 14.0672 152.57 14.1678 153.197 14.3688C153.824 14.5699 154.341 14.8508 154.749 15.2116C155.157 15.5723 155.459 16.004 155.654 16.5067C155.849 17.0093 155.947 17.5593 155.947 18.1566C155.947 18.7775 155.843 19.3482 155.636 19.8686C155.429 20.3831 155.119 20.8266 154.705 21.1992C154.291 21.5718 153.774 21.8615 153.153 22.0685C152.532 22.2755 151.804 22.379 150.97 22.379H149.179ZM149.179 20.5162H150.97C151.408 20.5162 151.79 20.4629 152.115 20.3565C152.44 20.2441 152.709 20.0874 152.922 19.8864C153.135 19.6794 153.295 19.431 153.401 19.1412C153.507 18.8455 153.561 18.5173 153.561 18.1566C153.561 17.8136 153.507 17.5031 153.401 17.2252C153.295 16.9472 153.135 16.7107 152.922 16.5155C152.709 16.3204 152.44 16.1725 152.115 16.072C151.79 15.9656 151.408 15.9123 150.97 15.9123H149.179V20.5162ZM160.947 17.651C161.627 17.651 162.242 17.7604 162.792 17.9792C163.348 18.198 163.821 18.5085 164.212 18.9106C164.602 19.3127 164.904 19.8036 165.116 20.3831C165.329 20.9627 165.436 21.6102 165.436 22.3258C165.436 23.0472 165.329 23.6978 165.116 24.2773C164.904 24.8568 164.602 25.3506 164.212 25.7587C163.821 26.1667 163.348 26.4802 162.792 26.699C162.242 26.9178 161.627 27.0272 160.947 27.0272C160.267 27.0272 159.649 26.9178 159.093 26.699C158.537 26.4802 158.061 26.1667 157.665 25.7587C157.275 25.3506 156.97 24.8568 156.751 24.2773C156.539 23.6978 156.432 23.0472 156.432 22.3258C156.432 21.6102 156.539 20.9627 156.751 20.3831C156.97 19.8036 157.275 19.3127 157.665 18.9106C158.061 18.5085 158.537 18.198 159.093 17.9792C159.649 17.7604 160.267 17.651 160.947 17.651ZM160.947 25.3418C161.704 25.3418 162.263 25.0875 162.624 24.5789C162.99 24.0703 163.174 23.3252 163.174 22.3435C163.174 21.3618 162.99 20.6137 162.624 20.0992C162.263 19.5848 161.704 19.3275 160.947 19.3275C160.178 19.3275 159.611 19.5877 159.244 20.1081C158.877 20.6226 158.694 21.3677 158.694 22.3435C158.694 23.3193 158.877 24.0644 159.244 24.5789C159.611 25.0875 160.178 25.3418 160.947 25.3418ZM166.79 26.8941V17.7929H168.077C168.301 17.7929 168.458 17.8343 168.547 17.9171C168.636 17.9999 168.695 18.1418 168.724 18.3429L168.857 19.4428C169.183 18.881 169.564 18.4375 170.002 18.1122C170.439 17.787 170.93 17.6244 171.474 17.6244C171.924 17.6244 172.296 17.7278 172.592 17.9348L172.308 19.5759C172.29 19.6823 172.252 19.7592 172.193 19.8065C172.134 19.8479 172.054 19.8686 171.953 19.8686C171.864 19.8686 171.743 19.8479 171.589 19.8065C171.436 19.7651 171.232 19.7444 170.977 19.7444C170.522 19.7444 170.132 19.8716 169.806 20.1259C169.481 20.3742 169.206 20.7409 168.981 21.2258V26.8941H166.79ZM176.667 27.036C175.881 27.036 175.274 26.8143 174.849 26.3708C174.423 25.9213 174.21 25.3033 174.21 24.5168V19.434H173.287C173.169 19.434 173.066 19.3955 172.977 19.3186C172.894 19.2418 172.853 19.1264 172.853 18.9727V18.1034L174.316 17.8639L174.778 15.3801C174.801 15.2618 174.854 15.1702 174.937 15.1051C175.026 15.0401 175.135 15.0075 175.265 15.0075H176.401V17.8727H178.796V19.434H176.401V24.366C176.401 24.6499 176.472 24.8716 176.614 25.0313C176.756 25.191 176.945 25.2708 177.182 25.2708C177.318 25.2708 177.43 25.256 177.519 25.2264C177.613 25.191 177.693 25.1555 177.758 25.12C177.829 25.0845 177.891 25.052 177.944 25.0224C177.998 24.9869 178.051 24.9692 178.104 24.9692C178.169 24.9692 178.222 24.9869 178.264 25.0224C178.305 25.052 178.349 25.0993 178.397 25.1644L179.053 26.2288C178.734 26.4949 178.367 26.696 177.953 26.832C177.539 26.968 177.111 27.036 176.667 27.036ZM187.316 26.8941H186.331C186.124 26.8941 185.961 26.8646 185.843 26.8054C185.725 26.7404 185.636 26.6132 185.577 26.424L185.382 25.7764C185.151 25.9834 184.924 26.1667 184.699 26.3264C184.48 26.4802 184.252 26.6103 184.016 26.7167C183.779 26.8232 183.528 26.903 183.262 26.9562C182.996 27.0094 182.7 27.036 182.375 27.036C181.99 27.036 181.635 26.9858 181.31 26.8852C180.985 26.7788 180.704 26.6221 180.468 26.4151C180.237 26.2081 180.057 25.9509 179.926 25.6434C179.796 25.3359 179.731 24.9781 179.731 24.57C179.731 24.227 179.82 23.8899 179.997 23.5588C180.181 23.2217 180.482 22.9201 180.902 22.654C181.322 22.3819 181.881 22.1572 182.579 21.9798C183.277 21.8024 184.143 21.7019 185.178 21.6782V21.146C185.178 20.5369 185.048 20.0874 184.788 19.7976C184.533 19.502 184.161 19.3541 183.67 19.3541C183.315 19.3541 183.019 19.3955 182.783 19.4783C182.546 19.5611 182.339 19.6557 182.162 19.7622C181.99 19.8627 181.831 19.9544 181.683 20.0372C181.535 20.1199 181.372 20.1613 181.195 20.1613C181.047 20.1613 180.92 20.1229 180.813 20.046C180.707 19.9691 180.621 19.8745 180.556 19.7622L180.157 19.0614C181.204 18.1034 182.466 17.6244 183.945 17.6244C184.477 17.6244 184.95 17.7131 185.364 17.8905C185.784 18.062 186.139 18.3044 186.429 18.6179C186.718 18.9254 186.937 19.295 187.085 19.7267C187.239 20.1584 187.316 20.6315 187.316 21.146V26.8941ZM183.058 25.528C183.282 25.528 183.489 25.5074 183.679 25.466C183.868 25.4246 184.045 25.3625 184.211 25.2797C184.382 25.1969 184.545 25.0963 184.699 24.9781C184.858 24.8539 185.018 24.709 185.178 24.5434V23.0088C184.539 23.0384 184.004 23.0946 183.572 23.1773C183.146 23.2542 182.803 23.3548 182.543 23.4789C182.283 23.6031 182.097 23.748 181.984 23.9136C181.878 24.0792 181.825 24.2596 181.825 24.4547C181.825 24.8391 181.937 25.1141 182.162 25.2797C182.392 25.4453 182.691 25.528 183.058 25.528ZM191.448 13.7124V26.8941H189.257V13.7124H191.448Z" fill="#6B6B6F"/>
<path d="M106.223 42.8362L106.209 43.4549H100.037V33.1559H106.209V33.7746H100.786V37.9379H105.299V38.542H100.786V42.8362H106.223ZM113.176 43.4549H112.513C112.445 43.4549 112.392 43.4355 112.353 43.3967C112.314 43.353 112.283 43.3118 112.258 43.2729L110.06 40.0632C110.041 40.1505 110.005 40.2354 109.951 40.3179L107.855 43.2729C107.821 43.3166 107.785 43.3579 107.746 43.3967C107.712 43.4355 107.666 43.4549 107.608 43.4549H106.982L109.616 39.7502L107.083 36.2129H107.746C107.814 36.2129 107.865 36.2274 107.899 36.2565C107.933 36.2856 107.962 36.3196 107.986 36.3584L110.111 39.4227C110.121 39.3838 110.136 39.3426 110.155 39.2989C110.179 39.2552 110.203 39.2116 110.228 39.1679L112.215 36.3657C112.244 36.322 112.275 36.2856 112.309 36.2565C112.343 36.2274 112.387 36.2129 112.44 36.2129H113.074L110.548 39.7065L113.176 43.4549ZM118.951 37.1809C118.927 37.2052 118.903 37.227 118.878 37.2464C118.859 37.261 118.83 37.2682 118.791 37.2682C118.743 37.2682 118.677 37.2367 118.595 37.1736C118.512 37.1057 118.4 37.0329 118.26 36.9553C118.119 36.8776 117.942 36.8073 117.728 36.7442C117.52 36.6763 117.265 36.6423 116.964 36.6423C116.547 36.6423 116.176 36.7175 115.851 36.8679C115.53 37.0135 115.259 37.2246 115.035 37.5011C114.812 37.7777 114.642 38.1125 114.526 38.5056C114.414 38.8986 114.358 39.3402 114.358 39.8302C114.358 40.3397 114.417 40.791 114.533 41.184C114.654 41.5771 114.824 41.9094 115.043 42.1812C115.261 42.4481 115.525 42.6518 115.836 42.7926C116.147 42.9333 116.491 43.0036 116.87 43.0036C117.219 43.0036 117.51 42.9624 117.743 42.8799C117.981 42.7974 118.175 42.7077 118.325 42.6106C118.481 42.5136 118.602 42.4238 118.689 42.3413C118.777 42.2588 118.849 42.2176 118.908 42.2176C118.966 42.2176 119.014 42.2418 119.053 42.2904L119.235 42.5233C119.123 42.6688 118.983 42.8047 118.813 42.9309C118.643 43.057 118.451 43.1662 118.238 43.2584C118.024 43.3506 117.791 43.4209 117.539 43.4695C117.292 43.5228 117.032 43.5495 116.76 43.5495C116.299 43.5495 115.877 43.467 115.494 43.3021C115.115 43.1322 114.788 42.8896 114.511 42.5742C114.24 42.254 114.026 41.8634 113.871 41.4024C113.72 40.9414 113.645 40.4174 113.645 39.8302C113.645 39.2771 113.718 38.7724 113.864 38.3163C114.009 37.8602 114.223 37.4672 114.504 37.1372C114.785 36.8073 115.128 36.5525 115.53 36.373C115.938 36.1886 116.404 36.0964 116.928 36.0964C117.398 36.0964 117.816 36.1716 118.18 36.322C118.544 36.4725 118.861 36.6763 119.133 36.9334L118.951 37.1809ZM125.595 39.1024C125.595 38.7142 125.539 38.3673 125.428 38.0616C125.321 37.751 125.168 37.489 124.969 37.2755C124.77 37.062 124.532 36.8995 124.256 36.7879C123.984 36.6714 123.683 36.6132 123.353 36.6132C122.98 36.6132 122.645 36.6714 122.349 36.7879C122.053 36.9043 121.796 37.0717 121.577 37.2901C121.364 37.5084 121.192 37.7704 121.061 38.0761C120.93 38.3818 120.842 38.7239 120.799 39.1024H125.595ZM120.762 39.5464V39.6847C120.762 40.2281 120.825 40.7061 120.952 41.1185C121.078 41.531 121.257 41.8779 121.49 42.1593C121.723 42.4359 122.004 42.6446 122.334 42.7853C122.664 42.926 123.033 42.9964 123.441 42.9964C123.805 42.9964 124.12 42.9575 124.387 42.8799C124.654 42.7974 124.877 42.7077 125.057 42.6106C125.241 42.5087 125.386 42.4189 125.493 42.3413C125.6 42.2588 125.678 42.2176 125.726 42.2176C125.789 42.2176 125.838 42.2418 125.872 42.2904L126.061 42.5233C125.945 42.6688 125.789 42.8047 125.595 42.9309C125.406 43.057 125.192 43.1662 124.955 43.2584C124.722 43.3457 124.469 43.4161 124.198 43.4695C123.931 43.5228 123.662 43.5495 123.39 43.5495C122.895 43.5495 122.444 43.4646 122.036 43.2948C121.628 43.1201 121.279 42.8678 120.988 42.5378C120.697 42.2079 120.471 41.8051 120.311 41.3296C120.156 40.8492 120.078 40.3009 120.078 39.6847C120.078 39.1655 120.151 38.6875 120.296 38.2508C120.447 37.8093 120.66 37.4308 120.937 37.1154C121.218 36.7951 121.56 36.5452 121.963 36.3657C122.371 36.1862 122.832 36.0964 123.346 36.0964C123.754 36.0964 124.132 36.1668 124.482 36.3075C124.831 36.4482 125.134 36.6544 125.391 36.9261C125.649 37.193 125.85 37.523 125.995 37.916C126.146 38.3091 126.221 38.7603 126.221 39.2698C126.221 39.3766 126.207 39.4493 126.177 39.4882C126.148 39.527 126.1 39.5464 126.032 39.5464H120.762ZM128.514 41.8755C128.654 42.0841 128.8 42.2612 128.95 42.4068C129.106 42.5475 129.268 42.664 129.438 42.7562C129.608 42.8435 129.787 42.9066 129.977 42.9454C130.171 42.9842 130.374 43.0036 130.588 43.0036C131.015 43.0036 131.389 42.926 131.709 42.7707C132.029 42.6155 132.296 42.3971 132.509 42.1157C132.728 41.8294 132.89 41.4897 132.997 41.0967C133.109 40.6988 133.164 40.2621 133.164 39.7866C133.164 38.7094 132.966 37.9184 132.568 37.4138C132.17 36.9043 131.6 36.6496 130.857 36.6496C130.377 36.6496 129.943 36.7733 129.554 37.0208C129.166 37.2682 128.819 37.6127 128.514 38.0543V41.8755ZM128.484 37.5157C128.805 37.079 129.178 36.7321 129.605 36.4749C130.037 36.2177 130.52 36.0891 131.054 36.0891C131.942 36.0891 132.633 36.3972 133.128 37.0135C133.628 37.6297 133.878 38.5541 133.878 39.7866C133.878 40.3155 133.807 40.8104 133.667 41.2714C133.531 41.7275 133.327 42.1254 133.055 42.465C132.788 42.7998 132.458 43.0643 132.065 43.2584C131.677 43.4525 131.228 43.5495 130.719 43.5495C130.229 43.5495 129.804 43.4598 129.445 43.2802C129.086 43.1007 128.776 42.8362 128.514 42.4869V46.0169H127.815V36.2129H128.201C128.322 36.2129 128.392 36.2735 128.412 36.3948L128.484 37.5157ZM141.482 43.4549H140.784V36.9553H136.591V41.8682C136.591 42.0671 136.615 42.2394 136.664 42.385C136.717 42.5257 136.788 42.6421 136.875 42.7343C136.967 42.8265 137.074 42.8945 137.195 42.9381C137.317 42.9818 137.448 43.0036 137.588 43.0036C137.763 43.0036 137.913 42.9794 138.04 42.9309C138.166 42.8775 138.275 42.8217 138.367 42.7635C138.459 42.7004 138.534 42.6446 138.593 42.596C138.651 42.5427 138.697 42.516 138.731 42.516C138.77 42.516 138.809 42.5402 138.847 42.5888L139.037 42.8945C138.852 43.0983 138.617 43.2632 138.331 43.3894C138.049 43.5107 137.756 43.5714 137.45 43.5714C136.96 43.5714 136.577 43.4355 136.3 43.1638C136.028 42.892 135.892 42.4723 135.892 41.9046V36.9553H134.852C134.798 36.9553 134.755 36.9407 134.721 36.9116C134.687 36.8825 134.67 36.8412 134.67 36.7879V36.5186L135.907 36.4312L136.082 33.8401C136.091 33.7964 136.111 33.7576 136.14 33.7236C136.169 33.6897 136.21 33.6727 136.264 33.6727H136.591V36.4385H141.482V43.4549ZM141.803 33.629C141.803 33.7164 141.783 33.7988 141.744 33.8765C141.71 33.9493 141.662 34.0148 141.599 34.073C141.54 34.1312 141.473 34.1773 141.395 34.2113C141.317 34.2453 141.235 34.2622 141.147 34.2622C141.06 34.2622 140.978 34.2453 140.9 34.2113C140.822 34.1773 140.754 34.1312 140.696 34.073C140.638 34.0148 140.592 33.9493 140.558 33.8765C140.524 33.7988 140.507 33.7164 140.507 33.629C140.507 33.5417 140.524 33.4592 140.558 33.3816C140.592 33.2991 140.638 33.2287 140.696 33.1705C140.754 33.1123 140.822 33.0662 140.9 33.0322C140.978 32.9982 141.06 32.9812 141.147 32.9812C141.235 32.9812 141.317 32.9982 141.395 33.0322C141.473 33.0662 141.54 33.1123 141.599 33.1705C141.662 33.2287 141.71 33.2991 141.744 33.3816C141.783 33.4592 141.803 33.5417 141.803 33.629ZM146.519 36.0964C147.039 36.0964 147.502 36.1862 147.91 36.3657C148.322 36.5404 148.669 36.7903 148.95 37.1154C149.232 37.4405 149.445 37.8335 149.591 38.2945C149.741 38.7506 149.817 39.2625 149.817 39.8302C149.817 40.398 149.741 40.9099 149.591 41.366C149.445 41.8221 149.232 42.2127 148.95 42.5378C148.669 42.8629 148.322 43.1128 147.91 43.2875C147.502 43.4622 147.039 43.5495 146.519 43.5495C146 43.5495 145.534 43.4622 145.122 43.2875C144.714 43.1128 144.367 42.8629 144.081 42.5378C143.8 42.2127 143.584 41.8221 143.433 41.366C143.288 40.9099 143.215 40.398 143.215 39.8302C143.215 39.2625 143.288 38.7506 143.433 38.2945C143.584 37.8335 143.8 37.4405 144.081 37.1154C144.367 36.7903 144.714 36.5404 145.122 36.3657C145.534 36.1862 146 36.0964 146.519 36.0964ZM146.519 43.0036C146.951 43.0036 147.327 42.9309 147.648 42.7853C147.973 42.6349 148.242 42.4214 148.455 42.1448C148.674 41.8682 148.836 41.5358 148.943 41.1476C149.05 40.7546 149.103 40.3155 149.103 39.8302C149.103 39.3499 149.05 38.9132 148.943 38.5201C148.836 38.1271 148.674 37.7923 148.455 37.5157C148.242 37.2343 147.973 37.0183 147.648 36.8679C147.327 36.7175 146.951 36.6423 146.519 36.6423C146.088 36.6423 145.709 36.7175 145.384 36.8679C145.064 37.0183 144.794 37.2343 144.576 37.5157C144.363 37.7923 144.2 38.1271 144.088 38.5201C143.982 38.9132 143.928 39.3499 143.928 39.8302C143.928 40.3155 143.982 40.7546 144.088 41.1476C144.2 41.5358 144.363 41.8682 144.576 42.1448C144.794 42.4214 145.064 42.6349 145.384 42.7853C145.709 42.9309 146.088 43.0036 146.519 43.0036ZM152.14 37.4793C152.475 37.062 152.861 36.7272 153.297 36.4749C153.739 36.2226 154.229 36.0964 154.768 36.0964C155.165 36.0964 155.515 36.1595 155.816 36.2856C156.121 36.4118 156.374 36.5938 156.573 36.8315C156.772 37.0693 156.922 37.3556 157.024 37.6904C157.126 38.0252 157.177 38.4037 157.177 38.8258V43.4549H156.478V38.8258C156.478 38.1465 156.323 37.6152 156.012 37.2318C155.702 36.8437 155.229 36.6496 154.593 36.6496C154.122 36.6496 153.681 36.7709 153.268 37.0135C152.861 37.2513 152.497 37.5836 152.176 38.0106V43.4549H151.478V36.2129H151.863C151.985 36.2129 152.055 36.2735 152.075 36.3948L152.14 37.4793ZM163.244 39.954C162.555 39.9782 161.961 40.034 161.461 40.1214C160.966 40.2039 160.556 40.3179 160.231 40.4635C159.911 40.609 159.673 40.7837 159.518 40.9875C159.362 41.1865 159.285 41.4145 159.285 41.6717C159.285 41.9143 159.323 42.1254 159.401 42.3049C159.484 42.4796 159.59 42.6252 159.721 42.7416C159.857 42.8532 160.012 42.9357 160.187 42.9891C160.362 43.0425 160.544 43.0691 160.733 43.0691C161.014 43.0691 161.272 43.04 161.505 42.9818C161.742 42.9187 161.961 42.8338 162.16 42.7271C162.363 42.6155 162.553 42.4844 162.727 42.334C162.902 42.1836 163.074 42.0211 163.244 41.8464V39.954ZM158.986 37.2391C159.365 36.8606 159.763 36.5744 160.18 36.3803C160.597 36.1862 161.07 36.0891 161.599 36.0891C161.987 36.0891 162.327 36.1522 162.618 36.2784C162.909 36.3997 163.149 36.5768 163.339 36.8097C163.533 37.0378 163.678 37.3168 163.775 37.6467C163.872 37.9718 163.921 38.3357 163.921 38.7385V43.4549H163.644C163.499 43.4549 163.409 43.387 163.375 43.2511L163.273 42.3195C163.074 42.5136 162.875 42.6882 162.676 42.8435C162.482 42.9988 162.278 43.1298 162.065 43.2365C161.851 43.3433 161.621 43.4258 161.374 43.484C161.126 43.5422 160.854 43.5714 160.558 43.5714C160.311 43.5714 160.071 43.535 159.838 43.4622C159.605 43.3894 159.396 43.2778 159.212 43.1274C159.032 42.977 158.887 42.7853 158.775 42.5524C158.668 42.3146 158.615 42.0308 158.615 41.7008C158.615 41.3951 158.702 41.1112 158.877 40.8492C159.052 40.5872 159.326 40.3591 159.699 40.1651C160.073 39.971 160.551 39.8157 161.133 39.6992C161.72 39.5828 162.424 39.5148 163.244 39.4954V38.7385C163.244 38.0689 163.099 37.5545 162.807 37.1955C162.521 36.8315 162.094 36.6496 161.526 36.6496C161.177 36.6496 160.879 36.6981 160.631 36.7951C160.389 36.8922 160.182 36.9989 160.012 37.1154C159.843 37.2318 159.704 37.3386 159.598 37.4356C159.491 37.5327 159.401 37.5812 159.328 37.5812C159.275 37.5812 159.231 37.5691 159.197 37.5448C159.163 37.5206 159.134 37.489 159.11 37.4502L158.986 37.2391ZM166.714 32.8648V43.4549H166.015V32.8648H166.714ZM178.486 42.8217V43.4549H172.86V33.1559H173.609V42.8217H178.486ZM181.762 36.0964C182.281 36.0964 182.744 36.1862 183.152 36.3657C183.564 36.5404 183.911 36.7903 184.193 37.1154C184.474 37.4405 184.688 37.8335 184.833 38.2945C184.984 38.7506 185.059 39.2625 185.059 39.8302C185.059 40.398 184.984 40.9099 184.833 41.366C184.688 41.8221 184.474 42.2127 184.193 42.5378C183.911 42.8629 183.564 43.1128 183.152 43.2875C182.744 43.4622 182.281 43.5495 181.762 43.5495C181.243 43.5495 180.777 43.4622 180.364 43.2875C179.957 43.1128 179.61 42.8629 179.323 42.5378C179.042 42.2127 178.826 41.8221 178.676 41.366C178.53 40.9099 178.457 40.398 178.457 39.8302C178.457 39.2625 178.53 38.7506 178.676 38.2945C178.826 37.8335 179.042 37.4405 179.323 37.1154C179.61 36.7903 179.957 36.5404 180.364 36.3657C180.777 36.1862 181.243 36.0964 181.762 36.0964ZM181.762 43.0036C182.194 43.0036 182.57 42.9309 182.89 42.7853C183.215 42.6349 183.484 42.4214 183.698 42.1448C183.916 41.8682 184.079 41.5358 184.185 41.1476C184.292 40.7546 184.346 40.3155 184.346 39.8302C184.346 39.3499 184.292 38.9132 184.185 38.5201C184.079 38.1271 183.916 37.7923 183.698 37.5157C183.484 37.2343 183.215 37.0183 182.89 36.8679C182.57 36.7175 182.194 36.6423 181.762 36.6423C181.33 36.6423 180.951 36.7175 180.626 36.8679C180.306 37.0183 180.037 37.2343 179.818 37.5157C179.605 37.7923 179.442 38.1271 179.331 38.5201C179.224 38.9132 179.171 39.3499 179.171 39.8302C179.171 40.3155 179.224 40.7546 179.331 41.1476C179.442 41.5358 179.605 41.8682 179.818 42.1448C180.037 42.4214 180.306 42.6349 180.626 42.7853C180.951 42.9309 181.33 43.0036 181.762 43.0036ZM187.382 37.4793C187.717 37.062 188.103 36.7272 188.54 36.4749C188.981 36.2226 189.471 36.0964 190.01 36.0964C190.408 36.0964 190.757 36.1595 191.058 36.2856C191.364 36.4118 191.616 36.5938 191.815 36.8315C192.014 37.0693 192.164 37.3556 192.266 37.6904C192.368 38.0252 192.419 38.4037 192.419 38.8258V43.4549H191.72V38.8258C191.72 38.1465 191.565 37.6152 191.255 37.2318C190.944 36.8437 190.471 36.6496 189.835 36.6496C189.365 36.6496 188.923 36.7709 188.511 37.0135C188.103 37.2513 187.739 37.5836 187.419 38.0106V43.4549H186.72V36.2129H187.106C187.227 36.2129 187.298 36.2735 187.317 36.3948L187.382 37.4793ZM196.798 40.2524C197.108 40.2524 197.385 40.2087 197.628 40.1214C197.87 40.0292 198.074 39.903 198.239 39.7429C198.404 39.5828 198.53 39.3911 198.617 39.1679C198.705 38.9447 198.748 38.6972 198.748 38.4255C198.748 38.1538 198.702 37.9063 198.61 37.6831C198.523 37.455 198.394 37.261 198.224 37.1008C198.059 36.9407 197.856 36.817 197.613 36.7296C197.375 36.6423 197.104 36.5986 196.798 36.5986C196.492 36.5986 196.218 36.6423 195.975 36.7296C195.738 36.817 195.534 36.9407 195.364 37.1008C195.199 37.261 195.073 37.455 194.986 37.6831C194.898 37.9063 194.855 38.1538 194.855 38.4255C194.855 38.6972 194.898 38.9447 194.986 39.1679C195.073 39.3911 195.199 39.5828 195.364 39.7429C195.534 39.903 195.738 40.0292 195.975 40.1214C196.218 40.2087 196.492 40.2524 196.798 40.2524ZM199.505 43.9426C199.505 43.7145 199.445 43.5325 199.323 43.3967C199.207 43.256 199.049 43.1468 198.85 43.0691C198.651 42.9915 198.421 42.9381 198.159 42.909C197.902 42.8751 197.63 42.8508 197.344 42.8362C197.062 42.8217 196.778 42.8071 196.492 42.7926C196.206 42.778 195.937 42.7489 195.684 42.7052C195.5 42.778 195.33 42.8629 195.175 42.96C195.02 43.0522 194.886 43.1589 194.774 43.2802C194.663 43.4015 194.576 43.5325 194.512 43.6733C194.449 43.8188 194.418 43.9741 194.418 44.1391C194.418 44.3526 194.471 44.5491 194.578 44.7286C194.69 44.913 194.85 45.0707 195.058 45.2017C195.272 45.3376 195.531 45.4443 195.837 45.522C196.143 45.5996 196.495 45.6384 196.892 45.6384C197.261 45.6384 197.603 45.5972 197.919 45.5147C198.239 45.4322 198.516 45.3158 198.748 45.1653C198.986 45.0149 199.171 44.8354 199.302 44.6267C199.438 44.4181 199.505 44.19 199.505 43.9426ZM200.262 36.5331V36.7733C200.262 36.8801 200.194 36.9456 200.059 36.9698L198.952 37.0499C199.088 37.2343 199.192 37.4405 199.265 37.6685C199.338 37.8966 199.374 38.1441 199.374 38.4109C199.374 38.7603 199.311 39.0781 199.185 39.3644C199.064 39.6459 198.889 39.8885 198.661 40.0923C198.438 40.2912 198.166 40.4465 197.846 40.5581C197.531 40.6697 197.181 40.7255 196.798 40.7255C196.385 40.7255 196.009 40.6624 195.67 40.5363C195.466 40.6527 195.303 40.791 195.182 40.9511C195.066 41.1064 195.007 41.2617 195.007 41.4169C195.007 41.6256 195.08 41.7857 195.226 41.8973C195.376 42.0089 195.57 42.0914 195.808 42.1448C196.051 42.1933 196.325 42.2248 196.63 42.2394C196.941 42.254 197.256 42.2709 197.577 42.2904C197.897 42.3049 198.21 42.334 198.516 42.3777C198.826 42.4214 199.1 42.499 199.338 42.6106C199.581 42.7174 199.775 42.8702 199.92 43.0691C200.071 43.2632 200.146 43.5228 200.146 43.8479C200.146 44.1488 200.071 44.4375 199.92 44.7141C199.77 44.9907 199.552 45.2357 199.265 45.4492C198.984 45.6627 198.642 45.8325 198.239 45.9587C197.836 46.0897 197.385 46.1552 196.885 46.1552C196.376 46.1552 195.929 46.1018 195.546 45.9951C195.163 45.8932 194.84 45.7525 194.578 45.5729C194.321 45.3982 194.127 45.1944 193.996 44.9615C193.865 44.7286 193.799 44.4812 193.799 44.2191C193.799 43.8358 193.925 43.5083 194.178 43.2365C194.43 42.96 194.774 42.744 195.211 42.5888C194.969 42.5063 194.772 42.3874 194.622 42.2321C194.476 42.072 194.403 41.8561 194.403 41.5843C194.403 41.4824 194.423 41.3757 194.462 41.2641C194.5 41.1525 194.559 41.0433 194.636 40.9366C194.714 40.825 194.808 40.7206 194.92 40.6236C195.032 40.5265 195.158 40.4392 195.299 40.3616C194.954 40.1626 194.685 39.8982 194.491 39.5682C194.301 39.2383 194.207 38.8525 194.207 38.4109C194.207 38.0616 194.267 37.7462 194.389 37.4648C194.515 37.1785 194.692 36.9334 194.92 36.7296C195.148 36.5258 195.42 36.3681 195.735 36.2565C196.055 36.1449 196.41 36.0891 196.798 36.0891C197.118 36.0891 197.412 36.1279 197.679 36.2056C197.95 36.2832 198.193 36.3924 198.406 36.5331H200.262ZM206.557 39.1024C206.557 38.7142 206.501 38.3673 206.389 38.0616C206.283 37.751 206.13 37.489 205.931 37.2755C205.732 37.062 205.494 36.8995 205.218 36.7879C204.946 36.6714 204.645 36.6132 204.315 36.6132C203.942 36.6132 203.607 36.6714 203.311 36.7879C203.015 36.9043 202.758 37.0717 202.539 37.2901C202.326 37.5084 202.153 37.7704 202.022 38.0761C201.891 38.3818 201.804 38.7239 201.76 39.1024H206.557ZM201.724 39.5464V39.6847C201.724 40.2281 201.787 40.7061 201.913 41.1185C202.039 41.531 202.219 41.8779 202.452 42.1593C202.685 42.4359 202.966 42.6446 203.296 42.7853C203.626 42.926 203.995 42.9964 204.402 42.9964C204.766 42.9964 205.082 42.9575 205.349 42.8799C205.616 42.7974 205.839 42.7077 206.018 42.6106C206.203 42.5087 206.348 42.4189 206.455 42.3413C206.562 42.2588 206.639 42.2176 206.688 42.2176C206.751 42.2176 206.8 42.2418 206.833 42.2904L207.023 42.5233C206.906 42.6688 206.751 42.8047 206.557 42.9309C206.368 43.057 206.154 43.1662 205.916 43.2584C205.683 43.3457 205.431 43.4161 205.159 43.4695C204.893 43.5228 204.623 43.5495 204.352 43.5495C203.857 43.5495 203.405 43.4646 202.998 43.2948C202.59 43.1201 202.241 42.8678 201.95 42.5378C201.659 42.2079 201.433 41.8051 201.273 41.3296C201.117 40.8492 201.04 40.3009 201.04 39.6847C201.04 39.1655 201.113 38.6875 201.258 38.2508C201.409 37.8093 201.622 37.4308 201.899 37.1154C202.18 36.7951 202.522 36.5452 202.925 36.3657C203.333 36.1862 203.794 36.0964 204.308 36.0964C204.715 36.0964 205.094 36.1668 205.443 36.3075C205.793 36.4482 206.096 36.6544 206.353 36.9261C206.61 37.193 206.812 37.523 206.957 37.916C207.108 38.3091 207.183 38.7603 207.183 39.2698C207.183 39.3766 207.168 39.4493 207.139 39.4882C207.11 39.527 207.062 39.5464 206.994 39.5464H201.724ZM214.464 36.2129L211.407 43.4549H210.796L207.739 36.2129H208.285C208.353 36.2129 208.408 36.2323 208.452 36.2711C208.496 36.3051 208.525 36.3439 208.539 36.3875L210.934 42.1011C211.007 42.3146 211.065 42.5257 211.109 42.7343C211.152 42.5257 211.213 42.3146 211.291 42.1011L213.693 36.3875C213.717 36.3342 213.748 36.2929 213.787 36.2638C213.831 36.2298 213.882 36.2129 213.94 36.2129H214.464ZM216.436 36.2129V43.4549H215.744V36.2129H216.436ZM216.734 33.7164C216.734 33.8037 216.715 33.8862 216.676 33.9638C216.642 34.0366 216.596 34.1021 216.538 34.1603C216.48 34.2186 216.412 34.2647 216.334 34.2986C216.256 34.3326 216.174 34.3496 216.087 34.3496C215.999 34.3496 215.917 34.3326 215.839 34.2986C215.761 34.2647 215.693 34.2186 215.635 34.1603C215.577 34.1021 215.531 34.0366 215.497 33.9638C215.463 33.8862 215.446 33.8037 215.446 33.7164C215.446 33.629 215.463 33.5465 215.497 33.4689C215.531 33.3864 215.577 33.316 215.635 33.2578C215.693 33.1996 215.761 33.1535 215.839 33.1195C215.917 33.0856 215.999 33.0686 216.087 33.0686C216.174 33.0686 216.256 33.0856 216.334 33.1195C216.412 33.1535 216.48 33.1996 216.538 33.2578C216.596 33.316 216.642 33.3864 216.676 33.4689C216.715 33.5465 216.734 33.629 216.734 33.7164ZM220.594 43.5714C220.104 43.5714 219.721 43.4355 219.444 43.1638C219.172 42.892 219.037 42.4723 219.037 41.9046V36.9553H217.996C217.942 36.9553 217.899 36.9407 217.865 36.9116C217.831 36.8825 217.814 36.8412 217.814 36.7879V36.5186L219.051 36.4312L219.226 33.8401C219.236 33.7964 219.255 33.7576 219.284 33.7236C219.313 33.6897 219.354 33.6727 219.408 33.6727H219.735V36.4385H222.021V36.9553H219.735V41.8682C219.735 42.0671 219.76 42.2394 219.808 42.385C219.861 42.5257 219.932 42.6421 220.019 42.7343C220.111 42.8265 220.218 42.8945 220.339 42.9381C220.461 42.9818 220.592 43.0036 220.732 43.0036C220.907 43.0036 221.058 42.9794 221.184 42.9309C221.31 42.8775 221.419 42.8217 221.511 42.7635C221.603 42.7004 221.679 42.6446 221.737 42.596C221.795 42.5427 221.841 42.516 221.875 42.516C221.914 42.516 221.953 42.5402 221.992 42.5888L222.181 42.8945C221.996 43.0983 221.761 43.2632 221.475 43.3894C221.193 43.5107 220.9 43.5714 220.594 43.5714ZM229.165 36.2129L225.002 45.784C224.972 45.8519 224.934 45.9077 224.885 45.9514C224.841 45.9951 224.776 46.0169 224.689 46.0169H224.194L225.467 43.1856L222.403 36.2129H222.978C223.051 36.2129 223.109 36.2323 223.153 36.2711C223.197 36.3051 223.226 36.3439 223.24 36.3875L225.678 42.0211C225.708 42.0938 225.732 42.169 225.751 42.2467C225.776 42.3195 225.797 42.3947 225.817 42.4723C225.841 42.3947 225.865 42.3195 225.89 42.2467C225.919 42.169 225.948 42.0938 225.977 42.0211L228.386 36.3875C228.41 36.3342 228.444 36.2929 228.488 36.2638C228.532 36.2298 228.58 36.2129 228.634 36.2129H229.165Z" fill="#87878B"/>
<defs>
<linearGradient id="paint0_linear_676_18454" x1="26.8886" y1="28.9562" x2="89.9401" y2="28.9562" gradientUnits="userSpaceOnUse">
<stop stop-color="white" stop-opacity="0"/>
<stop offset="0.0898" stop-color="#FEF2DA" stop-opacity="0.1633"/>
<stop offset="0.2245" stop-color="#FDE1A8" stop-opacity="0.3824"/>
<stop offset="0.3605" stop-color="#FCD27D" stop-opacity="0.5714"/>
<stop offset="0.4948" stop-color="#FBC65A" stop-opacity="0.7258"/>
<stop offset="0.627" stop-color="#FBBC3E" stop-opacity="0.8457"/>
<stop offset="0.7566" stop-color="#FAB52B" stop-opacity="0.9313"/>
<stop offset="0.8823" stop-color="#FAB11F" stop-opacity="0.9827"/>
<stop offset="1" stop-color="#FAB01B"/>
</linearGradient>
</defs>
</svg>