<svg width="70" height="36" viewBox="0 0 70 36" fill="none" xmlns="http://www.w3.org/2000/svg">
<path fill-rule="evenodd" clip-rule="evenodd" d="M4.42761 2.42822C3.47217 2.42822 2.69751 3.2028 2.69751 4.15833L2.69751 32.0199C2.69751 32.9754 3.47217 33.75 4.42761 33.75H25.359C19.7642 30.7664 15.9563 24.8724 15.9563 18.089C15.9563 11.3058 19.764 5.41185 25.3588 2.42822L4.42761 2.42822Z" fill="#D657A3"/>
<path fill-rule="evenodd" clip-rule="evenodd" d="M39.3056 32.7139C37.5632 33.3831 35.6707 33.75 33.6926 33.75C32.1762 33.75 30.7102 33.5344 29.3234 33.1322C28.6513 32.9373 27.9977 32.6987 27.3662 32.4194C21.8682 29.9887 18.0317 24.487 18.0317 18.0891C18.0317 11.6913 21.8682 6.18943 27.366 3.75866C27.9976 3.47942 28.6511 3.24073 29.3232 3.04584C30.71 2.64373 32.1762 2.42822 33.6926 2.42822C35.6605 2.42822 37.5437 2.79122 39.2787 3.45387L32.1133 15.865C31.3289 17.2236 31.3287 18.8975 32.1132 20.2562L39.3056 32.7139Z" fill="#5EC653"/>
<path d="M58.9558 32.5607C58.5422 33.277 57.7779 33.7183 56.9507 33.7183L43.6202 33.7183C43.5703 33.7183 43.5205 33.7167 43.4712 33.7135C43.4694 33.7134 43.4676 33.7134 43.4658 33.7133C43.1431 33.6918 42.8329 33.6032 42.5531 33.4579C42.1677 33.2577 41.8397 32.9497 41.6151 32.5607L33.9117 19.2181C33.8862 19.1738 33.8619 19.1288 33.8395 19.0833C33.5003 18.3935 33.524 17.5744 33.9117 16.9028L41.6151 3.56024C41.6395 3.51783 41.6652 3.47635 41.6921 3.43591C41.6936 3.43369 41.6948 3.43132 41.6963 3.42911C41.9045 3.11812 42.1824 2.86673 42.5019 2.69048C42.8387 2.5047 43.2222 2.40261 43.6202 2.40259L56.9507 2.40259C57.7262 2.40259 58.4464 2.79054 58.8742 3.42932C58.9026 3.47183 58.93 3.51555 58.9558 3.56024L66.6592 16.9028C67.0469 17.5744 67.0712 18.3921 66.732 19.0819C66.7312 19.0834 66.7303 19.0848 66.7296 19.0863C66.7076 19.1308 66.6842 19.1748 66.6592 19.2181L58.9558 32.5607Z" fill="#48B1D5"/>
</svg>
