<svg width="200" height="37" viewBox="0 0 200 37" fill="none" xmlns="http://www.w3.org/2000/svg">
<path d="M188.631 33.6401V27.9996H189.486L189.554 28.8102C189.734 28.51 189.974 28.2773 190.274 28.1122C190.575 27.9471 190.912 27.8645 191.288 27.8645C191.573 27.8645 191.836 27.9058 192.076 27.9883C192.316 28.0634 192.526 28.1835 192.706 28.3486C192.886 28.5062 193.033 28.7089 193.145 28.9566C193.34 28.6113 193.611 28.3449 193.956 28.1572C194.301 27.9621 194.665 27.8645 195.048 27.8645C195.491 27.8645 195.874 27.9546 196.196 28.1347C196.527 28.3073 196.782 28.5738 196.962 28.9341C197.142 29.2943 197.232 29.7484 197.232 30.2963V33.6401H196.298V30.3977C196.298 29.8272 196.181 29.3994 195.949 29.1142C195.716 28.8215 195.386 28.6751 194.958 28.6751C194.658 28.6751 194.391 28.7539 194.159 28.9115C193.926 29.0617 193.742 29.2868 193.607 29.587C193.472 29.8798 193.404 30.24 193.404 30.6679V33.6401H192.458V30.3977C192.458 29.8272 192.342 29.3994 192.109 29.1142C191.877 28.8215 191.547 28.6751 191.119 28.6751C190.834 28.6751 190.571 28.7539 190.331 28.9115C190.098 29.0617 189.914 29.2868 189.779 29.587C189.644 29.8798 189.576 30.24 189.576 30.6679V33.6401H188.631Z" fill="#272A34"/>
<path d="M184.73 33.6402C184.198 33.6402 183.725 33.5201 183.312 33.2799C182.899 33.0322 182.573 32.687 182.332 32.2441C182.1 31.7938 181.983 31.2759 181.983 30.6905C181.983 30.09 182.1 29.5721 182.332 29.1368C182.565 28.694 182.888 28.3487 183.301 28.101C183.721 27.8533 184.205 27.7295 184.753 27.7295C185.301 27.7295 185.77 27.8533 186.16 28.101C186.551 28.3487 186.847 28.6715 187.05 29.0693C187.26 29.467 187.365 29.9024 187.365 30.3752C187.365 30.4503 187.365 30.5329 187.365 30.6229C187.365 30.7055 187.361 30.7993 187.354 30.9044H182.693V30.1726H186.43C186.408 29.6547 186.235 29.2531 185.913 28.9679C185.597 28.6752 185.203 28.5288 184.73 28.5288C184.408 28.5288 184.108 28.6039 183.83 28.754C183.552 28.8966 183.327 29.1068 183.154 29.3845C182.989 29.6622 182.907 30.0112 182.907 30.4315V30.7468C182.907 31.2046 182.993 31.5911 183.166 31.9064C183.338 32.2216 183.563 32.4581 183.841 32.6157C184.119 32.7658 184.415 32.8408 184.73 32.8408C185.121 32.8408 185.444 32.7545 185.699 32.5819C185.961 32.4018 186.153 32.1578 186.273 31.8501H187.207C187.11 32.1954 186.948 32.5031 186.723 32.7733C186.498 33.036 186.217 33.2461 185.879 33.4038C185.549 33.5614 185.166 33.6402 184.73 33.6402Z" fill="#272A34"/>
<path d="M180.217 33.6402C179.879 33.6402 179.586 33.5877 179.339 33.4826C179.091 33.3775 178.9 33.2011 178.765 32.9535C178.637 32.6983 178.573 32.3568 178.573 31.9289V28.7991H177.594V27.9997H178.573L178.697 26.6375H179.519V27.9997H181.163V28.7991H179.519V31.9289C179.519 32.2817 179.59 32.5219 179.733 32.6495C179.875 32.7696 180.127 32.8296 180.487 32.8296H181.084V33.6402H180.217Z" fill="#272A34"/>
<path d="M174.739 33.6402C174.281 33.6402 173.876 33.5651 173.523 33.415C173.178 33.2574 172.9 33.036 172.69 32.7508C172.48 32.4656 172.349 32.1316 172.296 31.7488H173.264C173.309 31.9514 173.392 32.1353 173.512 32.3004C173.632 32.4656 173.797 32.5969 174.007 32.6945C174.218 32.7921 174.465 32.8408 174.75 32.8408C175.021 32.8408 175.238 32.8033 175.403 32.7283C175.576 32.6457 175.704 32.5406 175.786 32.413C175.876 32.2779 175.921 32.1316 175.921 31.9739C175.921 31.7413 175.865 31.5649 175.752 31.4448C175.647 31.3247 175.49 31.2309 175.28 31.1633C175.069 31.0958 174.818 31.0357 174.525 30.9832C174.285 30.9382 174.045 30.8781 173.805 30.8031C173.572 30.7205 173.358 30.6192 173.163 30.4991C172.975 30.379 172.825 30.2289 172.713 30.0487C172.6 29.8686 172.544 29.6509 172.544 29.3957C172.544 29.073 172.626 28.7878 172.792 28.5401C172.964 28.2849 173.201 28.086 173.501 27.9434C173.809 27.8008 174.173 27.7295 174.593 27.7295C175.193 27.7295 175.681 27.8759 176.056 28.1686C176.432 28.4613 176.653 28.8854 176.721 29.4408H175.786C175.749 29.1556 175.625 28.9341 175.415 28.7765C175.212 28.6114 174.934 28.5288 174.582 28.5288C174.229 28.5288 173.959 28.6001 173.771 28.7428C173.591 28.8854 173.501 29.073 173.501 29.3057C173.501 29.4558 173.553 29.5871 173.658 29.6997C173.763 29.8123 173.914 29.9099 174.109 29.9924C174.311 30.0675 174.555 30.1351 174.841 30.1951C175.208 30.2626 175.546 30.3527 175.854 30.4653C176.162 30.5704 176.409 30.7355 176.597 30.9607C176.792 31.1783 176.89 31.4898 176.89 31.8951C176.897 32.2404 176.811 32.5444 176.631 32.8071C176.451 33.0698 176.199 33.2762 175.876 33.4263C175.561 33.5689 175.182 33.6402 174.739 33.6402Z" fill="#272A34"/>
<path d="M167.293 35.9819L168.678 32.8745H168.352L166.123 27.8645H167.147L169.005 32.1765L170.952 27.8645H171.932L168.284 35.9819H167.293Z" fill="#272A34"/>
<path d="M163.415 33.6402C162.957 33.6402 162.552 33.5651 162.199 33.415C161.854 33.2574 161.576 33.036 161.366 32.7508C161.156 32.4656 161.025 32.1316 160.972 31.7488H161.94C161.985 31.9514 162.068 32.1353 162.188 32.3004C162.308 32.4656 162.473 32.5969 162.683 32.6945C162.894 32.7921 163.141 32.8408 163.427 32.8408C163.697 32.8408 163.914 32.8033 164.08 32.7283C164.252 32.6457 164.38 32.5406 164.462 32.413C164.552 32.2779 164.597 32.1316 164.597 31.9739C164.597 31.7413 164.541 31.5649 164.429 31.4448C164.323 31.3247 164.166 31.2309 163.956 31.1633C163.746 31.0958 163.494 31.0357 163.201 30.9832C162.961 30.9382 162.721 30.8781 162.481 30.8031C162.248 30.7205 162.034 30.6192 161.839 30.4991C161.651 30.379 161.501 30.2289 161.389 30.0487C161.276 29.8686 161.22 29.6509 161.22 29.3957C161.22 29.073 161.302 28.7878 161.468 28.5401C161.64 28.2849 161.877 28.086 162.177 27.9434C162.485 27.8008 162.849 27.7295 163.269 27.7295C163.869 27.7295 164.357 27.8759 164.732 28.1686C165.108 28.4613 165.329 28.8854 165.397 29.4408H164.462C164.425 29.1556 164.301 28.9341 164.091 28.7765C163.888 28.6114 163.61 28.5288 163.258 28.5288C162.905 28.5288 162.635 28.6001 162.447 28.7428C162.267 28.8854 162.177 29.073 162.177 29.3057C162.177 29.4558 162.229 29.5871 162.334 29.6997C162.44 29.8123 162.59 29.9099 162.785 29.9924C162.987 30.0675 163.231 30.1351 163.517 30.1951C163.884 30.2626 164.222 30.3527 164.53 30.4653C164.838 30.5704 165.085 30.7355 165.273 30.9607C165.468 31.1783 165.566 31.4898 165.566 31.8951C165.573 32.2404 165.487 32.5444 165.307 32.8071C165.127 33.0698 164.875 33.2762 164.552 33.4263C164.237 33.5689 163.858 33.6402 163.415 33.6402Z" fill="#272A34"/>
<path d="M157.146 33.6402C156.62 33.6402 156.148 33.5201 155.727 33.2799C155.307 33.0322 154.973 32.687 154.725 32.2441C154.485 31.8013 154.365 31.2834 154.365 30.6905C154.365 30.09 154.489 29.5684 154.737 29.1255C154.984 28.6827 155.318 28.3412 155.739 28.101C156.166 27.8533 156.643 27.7295 157.168 27.7295C157.701 27.7295 158.178 27.8533 158.598 28.101C159.018 28.3412 159.349 28.6827 159.589 29.1255C159.829 29.5609 159.949 30.0825 159.949 30.6905C159.949 31.2834 159.825 31.8013 159.578 32.2441C159.337 32.687 159.003 33.0322 158.576 33.2799C158.155 33.5201 157.679 33.6402 157.146 33.6402ZM157.146 32.8296C157.476 32.8296 157.78 32.7508 158.058 32.5932C158.335 32.4355 158.557 32.1954 158.722 31.8726C158.895 31.5499 158.981 31.1521 158.981 30.6792C158.981 30.2064 158.898 29.8123 158.733 29.4971C158.568 29.1818 158.347 28.9454 158.069 28.7878C157.791 28.6227 157.491 28.5401 157.168 28.5401C156.853 28.5401 156.553 28.6227 156.268 28.7878C155.99 28.9454 155.765 29.1818 155.592 29.4971C155.42 29.8123 155.333 30.2101 155.333 30.6905C155.333 31.1558 155.42 31.5499 155.592 31.8726C155.765 32.1954 155.986 32.4355 156.256 32.5932C156.534 32.7508 156.831 32.8296 157.146 32.8296Z" fill="#272A34"/>
<path d="M150.737 33.6402C150.205 33.6402 149.724 33.5163 149.296 33.2687C148.876 33.021 148.542 32.6757 148.294 32.2329C148.054 31.79 147.934 31.2759 147.934 30.6905C147.934 30.0975 148.054 29.5796 148.294 29.1368C148.542 28.694 148.876 28.3487 149.296 28.101C149.724 27.8533 150.205 27.7295 150.737 27.7295C151.413 27.7295 151.972 27.9059 152.415 28.2586C152.865 28.6039 153.154 29.0655 153.282 29.6434H152.314C152.231 29.2982 152.043 29.028 151.751 28.8328C151.458 28.6377 151.116 28.5401 150.726 28.5401C150.411 28.5401 150.114 28.6227 149.837 28.7878C149.559 28.9454 149.334 29.1818 149.161 29.4971C148.989 29.8123 148.902 30.2101 148.902 30.6905C148.902 31.0357 148.951 31.3435 149.049 31.6137C149.154 31.8839 149.289 32.1128 149.454 32.3004C149.627 32.4806 149.822 32.6157 150.039 32.7057C150.265 32.7958 150.494 32.8408 150.726 32.8408C150.989 32.8408 151.229 32.7996 151.447 32.717C151.664 32.6269 151.848 32.4993 151.998 32.3342C152.156 32.1616 152.261 31.9589 152.314 31.7262H153.282C153.162 32.2967 152.873 32.7583 152.415 33.111C151.965 33.4638 151.405 33.6402 150.737 33.6402Z" fill="#272A34"/>
<path d="M141.86 33.6402V25.7593H146.735V26.5361H142.806V29.2832H146.398V30.0488H142.806V32.8634H146.735V33.6402H141.86Z" fill="#272A34"/>
<path d="M132.36 33.6401V27.9996H133.216L133.272 28.9903C133.452 28.6376 133.711 28.3636 134.049 28.1685C134.387 27.9658 134.77 27.8645 135.197 27.8645C135.633 27.8645 136.012 27.9546 136.335 28.1347C136.657 28.3073 136.909 28.5738 137.089 28.9341C137.269 29.2868 137.359 29.7409 137.359 30.2963V33.6401H136.413V30.3977C136.413 29.8272 136.29 29.3994 136.042 29.1142C135.794 28.8215 135.441 28.6751 134.984 28.6751C134.661 28.6751 134.372 28.7539 134.117 28.9115C133.869 29.0617 133.67 29.2831 133.52 29.5758C133.377 29.8685 133.306 30.2288 133.306 30.6566V33.6401H132.36Z" fill="#272A34"/>
<path d="M128.46 33.6402C127.928 33.6402 127.455 33.5201 127.042 33.2799C126.629 33.0322 126.303 32.687 126.062 32.2441C125.83 31.7938 125.713 31.2759 125.713 30.6905C125.713 30.09 125.83 29.5721 126.062 29.1368C126.295 28.694 126.618 28.3487 127.031 28.101C127.451 27.8533 127.935 27.7295 128.483 27.7295C129.031 27.7295 129.5 27.8533 129.89 28.101C130.281 28.3487 130.577 28.6715 130.78 29.0693C130.99 29.467 131.095 29.9024 131.095 30.3752C131.095 30.4503 131.095 30.5329 131.095 30.6229C131.095 30.7055 131.091 30.7993 131.084 30.9044H126.423V30.1726H130.16C130.138 29.6547 129.965 29.2531 129.643 28.9679C129.327 28.6752 128.933 28.5288 128.46 28.5288C128.138 28.5288 127.837 28.6039 127.56 28.754C127.282 28.8966 127.057 29.1068 126.884 29.3845C126.719 29.6622 126.637 30.0112 126.637 30.4315V30.7468C126.637 31.2046 126.723 31.5911 126.896 31.9064C127.068 32.2216 127.293 32.4581 127.571 32.6157C127.849 32.7658 128.145 32.8408 128.46 32.8408C128.851 32.8408 129.173 32.7545 129.429 32.5819C129.691 32.4018 129.883 32.1578 130.003 31.8501H130.937C130.84 32.1954 130.678 32.5031 130.453 32.7733C130.228 33.036 129.947 33.2461 129.609 33.4038C129.279 33.5614 128.896 33.6402 128.46 33.6402Z" fill="#272A34"/>
<path d="M118.891 35.9817V27.8643H119.747L119.837 28.7875C119.957 28.6074 120.111 28.4385 120.298 28.2809C120.486 28.1158 120.711 27.9844 120.974 27.8869C121.237 27.7818 121.541 27.7292 121.886 27.7292C122.434 27.7292 122.91 27.8606 123.316 28.1233C123.729 28.3785 124.051 28.7275 124.284 29.1703C124.517 29.6132 124.633 30.1235 124.633 30.7015C124.633 31.2644 124.517 31.7673 124.284 32.2101C124.051 32.653 123.729 33.002 123.316 33.2572C122.903 33.5123 122.423 33.6399 121.875 33.6399C121.417 33.6399 121.011 33.5461 120.659 33.3585C120.306 33.1708 120.032 32.9081 119.837 32.5704V35.9817H118.891ZM121.773 32.8181C122.141 32.8181 122.468 32.7318 122.753 32.5591C123.038 32.379 123.259 32.1313 123.417 31.8161C123.582 31.4933 123.665 31.118 123.665 30.6902C123.665 30.2624 123.582 29.8871 123.417 29.5644C123.259 29.2416 123.038 28.9939 122.753 28.8213C122.468 28.6412 122.141 28.5511 121.773 28.5511C121.398 28.5511 121.064 28.6412 120.771 28.8213C120.486 28.9939 120.261 29.2416 120.096 29.5644C119.938 29.8871 119.859 30.2624 119.859 30.6902C119.859 31.118 119.938 31.4933 120.096 31.8161C120.261 32.1313 120.486 32.379 120.771 32.5591C121.064 32.7318 121.398 32.8181 121.773 32.8181Z" fill="#272A34"/>
<path d="M113.732 33.6401C112.966 33.6401 112.294 33.4713 111.716 33.1335C111.146 32.7883 110.695 32.3116 110.365 31.7037C110.042 31.0882 109.881 30.3752 109.881 29.5646C109.881 28.7615 110.042 28.0559 110.365 27.448C110.695 26.8325 111.146 26.3522 111.716 26.0069C112.294 25.6616 112.966 25.489 113.732 25.489C114.505 25.489 115.176 25.6616 115.747 26.0069C116.325 26.3522 116.771 26.8325 117.087 27.448C117.409 28.0559 117.571 28.7615 117.571 29.5646C117.571 30.3752 117.409 31.0882 117.087 31.7037C116.771 32.3116 116.325 32.7883 115.747 33.1335C115.176 33.4713 114.505 33.6401 113.732 33.6401ZM113.732 32.807C114.302 32.807 114.805 32.6794 115.24 32.4242C115.675 32.1615 116.009 31.79 116.242 31.3096C116.482 30.8218 116.602 30.2401 116.602 29.5646C116.602 28.8891 116.482 28.3111 116.242 27.8308C116.009 27.3429 115.675 26.9714 115.24 26.7162C114.805 26.461 114.302 26.3334 113.732 26.3334C113.161 26.3334 112.658 26.461 112.223 26.7162C111.795 26.9714 111.457 27.3429 111.21 27.8308C110.969 28.3111 110.849 28.8891 110.849 29.5646C110.849 30.2401 110.969 30.8218 111.21 31.3096C111.457 31.79 111.795 32.1615 112.223 32.4242C112.658 32.6794 113.161 32.807 113.732 32.807Z" fill="#272A34"/>
<path d="M103.637 33.6399C103.179 33.6399 102.774 33.5649 102.421 33.4148C102.076 33.2572 101.798 33.0357 101.588 32.7505C101.378 32.4653 101.247 32.1313 101.194 31.7485H102.162C102.207 31.9512 102.29 32.1351 102.41 32.3002C102.53 32.4653 102.695 32.5967 102.905 32.6942C103.116 32.7918 103.363 32.8406 103.648 32.8406C103.919 32.8406 104.136 32.8031 104.301 32.728C104.474 32.6454 104.602 32.5404 104.684 32.4128C104.774 32.2777 104.819 32.1313 104.819 31.9737C104.819 31.741 104.763 31.5646 104.65 31.4445C104.545 31.3245 104.388 31.2306 104.178 31.1631C103.967 31.0955 103.716 31.0355 103.423 30.9829C103.183 30.9379 102.943 30.8779 102.703 30.8028C102.47 30.7202 102.256 30.6189 102.061 30.4988C101.873 30.3787 101.723 30.2286 101.611 30.0485C101.498 29.8684 101.442 29.6507 101.442 29.3955C101.442 29.0728 101.524 28.7875 101.689 28.5399C101.862 28.2847 102.099 28.0858 102.399 27.9432C102.706 27.8006 103.071 27.7292 103.491 27.7292C104.091 27.7292 104.579 27.8756 104.954 28.1683C105.33 28.461 105.551 28.8851 105.619 29.4405H104.684C104.647 29.1553 104.523 28.9339 104.313 28.7763C104.11 28.6112 103.832 28.5286 103.48 28.5286C103.127 28.5286 102.857 28.5999 102.669 28.7425C102.489 28.8851 102.399 29.0728 102.399 29.3054C102.399 29.4555 102.451 29.5869 102.556 29.6995C102.661 29.8121 102.812 29.9096 103.007 29.9922C103.209 30.0673 103.453 30.1348 103.739 30.1949C104.106 30.2624 104.444 30.3525 104.752 30.4651C105.059 30.5701 105.307 30.7353 105.495 30.9604C105.69 31.1781 105.788 31.4896 105.788 31.8949C105.795 32.2401 105.709 32.5441 105.529 32.8068C105.348 33.0695 105.097 33.2759 104.774 33.426C104.459 33.5686 104.08 33.6399 103.637 33.6399Z" fill="#272A34"/>
<path d="M92.0667 33.64V25.759H93.17L95.9733 31.2644L98.7767 25.759H99.8913V33.64H98.9456V27.4478L96.3336 32.5254H95.6243L93.0124 27.4703V33.64H92.0667Z" fill="#272A34"/>
<path d="M84.0945 33.64L86.9992 25.759H88.0012L90.8946 33.64H89.8926L87.4945 26.9412L85.0852 33.64H84.0945ZM85.423 31.6134L85.6932 30.8479H89.2621L89.5323 31.6134H85.423Z" fill="#272A34"/>
<path d="M76.8167 33.6402V25.7593H77.7624L81.9618 32.0753V25.7593H82.9075V33.6402H81.9618L77.7624 27.3242V33.6402H76.8167Z" fill="#272A34"/>
<path d="M190.429 23.0797C189.68 23.0797 189.007 22.9836 188.412 22.7915C187.835 22.5994 187.317 22.34 186.856 22.0134C186.414 21.6676 186.039 21.2834 185.732 20.8607L185.299 22.7339H181.841V1.98511H185.732V10.227C186.193 9.55456 186.798 8.99742 187.547 8.55555C188.316 8.09446 189.267 7.86392 190.4 7.86392C191.745 7.86392 192.936 8.20013 193.974 8.87254C195.03 9.52574 195.856 10.4287 196.452 11.5814C197.067 12.7149 197.374 14.0213 197.374 15.5006C197.374 16.9415 197.067 18.2383 196.452 19.391C195.856 20.5437 195.04 21.4467 194.002 22.0999C192.965 22.7531 191.774 23.0797 190.429 23.0797ZM189.507 19.6792C190.275 19.6792 190.948 19.5063 191.524 19.1605C192.12 18.7954 192.581 18.3055 192.907 17.6908C193.234 17.0568 193.397 16.3267 193.397 15.5006C193.397 14.6745 193.234 13.9445 192.907 13.3105C192.581 12.6573 192.12 12.1578 191.524 11.8119C190.948 11.4469 190.275 11.2644 189.507 11.2644C188.758 11.2644 188.085 11.4469 187.49 11.8119C186.913 12.1578 186.452 12.6477 186.106 13.2817C185.78 13.9156 185.616 14.6457 185.616 15.4718C185.616 16.2979 185.78 17.0376 186.106 17.6908C186.452 18.3248 186.913 18.8147 187.49 19.1605C188.085 19.5063 188.758 19.6792 189.507 19.6792Z" fill="#272A34"/>
<path d="M169.502 23.0797C168.33 23.0797 167.322 22.8395 166.476 22.3592C165.65 21.8597 165.016 21.1393 164.574 20.1979C164.133 19.2373 163.912 18.0558 163.912 16.6533V8.20972H167.802V16.2499C167.802 17.4218 168.042 18.3055 168.522 18.9011C169.022 19.4967 169.781 19.7944 170.799 19.7944C171.452 19.7944 172.029 19.6504 172.528 19.3622C173.028 19.0548 173.421 18.6225 173.71 18.0654C174.017 17.489 174.171 16.7878 174.171 15.9617V8.20972H178.032V22.7338H174.632L174.315 20.3708C173.892 21.1969 173.268 21.8597 172.442 22.3592C171.616 22.8395 170.636 23.0797 169.502 23.0797Z" fill="#272A34"/>
<path d="M156.307 22.7342V2.56177H160.198V22.7342H156.307ZM143.599 22.7342V2.56177H147.489V22.7342H143.599ZM146.942 14.0024V10.8613H156.97V14.0024H146.942Z" fill="#272A34"/>
<path d="M118.242 22.7342V2.56177H122.882L129.049 15.1551L135.158 2.56177H139.798V22.7342H135.908V9.18984L130.576 19.91H127.493L122.133 9.18984V22.7342H118.242Z" fill="#272A34"/>
<path d="M96.4561 22.7342L103.833 2.56177H108.243L115.591 22.7342H111.47L106.024 6.9997L100.548 22.7342H96.4561ZM99.7125 18.1522L100.75 15.1263H111.009L112.018 18.1522H99.7125Z" fill="#272A34"/>
<path d="M76.8164 22.7342V2.56177H80.7068L89.9861 16.4807V2.56177H93.8765V22.7342H89.9861L80.7068 8.84403V22.7342H76.8164Z" fill="#272A34"/>
<path fill-rule="evenodd" clip-rule="evenodd" d="M4.42761 2.42822C3.47217 2.42822 2.69751 3.2028 2.69751 4.15833L2.69751 32.0199C2.69751 32.9754 3.47217 33.75 4.42761 33.75H25.359C19.7642 30.7664 15.9563 24.8724 15.9563 18.089C15.9563 11.3058 19.764 5.41185 25.3588 2.42822L4.42761 2.42822Z" fill="#D657A3"/>
<path fill-rule="evenodd" clip-rule="evenodd" d="M39.3056 32.7139C37.5632 33.3831 35.6707 33.75 33.6926 33.75C32.1762 33.75 30.7102 33.5344 29.3234 33.1322C28.6513 32.9373 27.9977 32.6987 27.3662 32.4194C21.8682 29.9887 18.0317 24.487 18.0317 18.0891C18.0317 11.6913 21.8682 6.18943 27.366 3.75866C27.9976 3.47942 28.6511 3.24073 29.3232 3.04584C30.71 2.64373 32.1762 2.42822 33.6926 2.42822C35.6605 2.42822 37.5437 2.79122 39.2787 3.45387L32.1133 15.865C31.3289 17.2236 31.3287 18.8975 32.1132 20.2562L39.3056 32.7139Z" fill="#5EC653"/>
<path d="M58.9558 32.5607C58.5422 33.277 57.7779 33.7183 56.9507 33.7183L43.6202 33.7183C43.5703 33.7183 43.5205 33.7167 43.4712 33.7135C43.4694 33.7134 43.4676 33.7134 43.4658 33.7133C43.1431 33.6918 42.8329 33.6032 42.5531 33.4579C42.1677 33.2577 41.8397 32.9497 41.6151 32.5607L33.9117 19.2181C33.8862 19.1738 33.8619 19.1288 33.8395 19.0833C33.5003 18.3935 33.524 17.5744 33.9117 16.9028L41.6151 3.56024C41.6395 3.51783 41.6652 3.47635 41.6921 3.43591C41.6936 3.43369 41.6948 3.43132 41.6963 3.42911C41.9045 3.11812 42.1824 2.86673 42.5019 2.69048C42.8387 2.5047 43.2222 2.40261 43.6202 2.40259L56.9507 2.40259C57.7262 2.40259 58.4464 2.79054 58.8742 3.42932C58.9026 3.47183 58.93 3.51555 58.9558 3.56024L66.6592 16.9028C67.0469 17.5744 67.0712 18.3921 66.732 19.0819C66.7312 19.0834 66.7303 19.0848 66.7296 19.0863C66.7076 19.1308 66.6842 19.1748 66.6592 19.2181L58.9558 32.5607Z" fill="#48B1D5"/>
</svg>
