<svg xmlns="http://www.w3.org/2000/svg" width="194" height="212" viewBox="0 0 194 212" fill="none"><path d="M15.4683 75.8172C17.5145 75.8172 19.1733 74.1735 19.1733 72.1459C19.1733 70.1183 17.5145 68.4746 15.4683 68.4746C13.422 68.4746 11.7632 70.1183 11.7632 72.1459C11.7632 74.1735 13.422 75.8172 15.4683 75.8172Z" fill="#B6CC00"></path><path d="M16.5793 72.169L15.4785 73.2598L25.27 82.962L26.3708 81.8713L16.5793 72.169Z" fill="#B6CC00"></path><path d="M15.4683 145.494C17.5145 145.494 19.1733 143.851 19.1733 141.823C19.1733 139.796 17.5145 138.152 15.4683 138.152C13.422 138.152 11.7632 139.796 11.7632 141.823C11.7632 143.851 13.422 145.494 15.4683 145.494Z" fill="#B6CC00"></path><path d="M25.2656 131.007L15.4741 140.709L16.5749 141.8L26.3664 132.098L25.2656 131.007Z" fill="#B6CC00"></path><path d="M177.814 75.8172C179.86 75.8172 181.519 74.1735 181.519 72.1459C181.519 70.1183 179.86 68.4746 177.814 68.4746C175.768 68.4746 174.109 70.1183 174.109 72.1459C174.109 74.1735 175.768 75.8172 177.814 75.8172Z" fill="#B6CC00"></path><path d="M176.704 72.1681L166.91 81.873L168.01 82.9638L177.805 73.2588L176.704 72.1681Z" fill="#B6CC00"></path><path d="M177.814 145.494C179.86 145.494 181.519 143.851 181.519 141.823C181.519 139.796 179.86 138.152 177.814 138.152C175.768 138.152 174.109 139.796 174.109 141.823C174.109 143.851 175.768 145.494 177.814 145.494Z" fill="#B6CC00"></path><path d="M168.013 131.01L166.912 132.101L176.706 141.806L177.807 140.715L168.013 131.01Z" fill="#B6CC00"></path><path d="M83.568 15.1211H82.0112V21.3299H83.568V15.1211Z" fill="#68BFDD"></path><path d="M138.42 38.1094H54.8618C47.8439 38.1094 42.1548 43.7466 42.1548 50.7005V161.178C42.1548 168.132 47.8439 173.77 54.8618 173.77H138.42C145.438 173.77 151.127 168.132 151.127 161.178V50.7005C151.127 43.7466 145.438 38.1094 138.42 38.1094Z" fill="#DCEFF9"></path><path d="M138.421 176.083H54.8619C46.5683 176.083 39.8198 169.396 39.8198 161.178V50.7004C39.8198 42.4824 46.5683 35.7954 54.8619 35.7954H138.421C146.714 35.7954 153.463 42.4824 153.463 50.7004V161.178C153.463 169.396 146.714 176.083 138.421 176.083ZM54.8619 40.4231C49.1448 40.4231 44.4901 45.0353 44.4901 50.7004V161.178C44.4901 166.843 49.1448 171.456 54.8619 171.456H138.421C144.142 171.456 148.792 166.843 148.792 161.178V50.7004C148.792 45.0353 144.138 40.4231 138.421 40.4231H54.8619Z" fill="#68BFDD"></path><path d="M39.7962 68.86H24.1509L10 54.8382V10.4087H49.2807L60.7696 21.7928V35.7799H59.2128V22.4329L48.6347 11.9512H11.5568V54.198L24.793 67.3175H39.7962V68.86Z" fill="#B6CC00"></path><path d="M169.163 68.86H153.517V67.3175H168.517L181.757 54.198V11.9512H144.679L134.101 22.4329V35.7799H132.544V21.7928L144.033 10.4087H183.314V54.8382L169.163 68.86Z" fill="#B6CC00"></path><path d="M49.2807 201.45H10V157.021L24.1509 142.999H39.7962V144.542H24.793L11.5568 157.661V199.908H48.6347L59.2128 189.426V176.079H60.7696V190.066L49.2807 201.45Z" fill="#B6CC00"></path><path d="M183.314 201.45H144.033L132.544 190.066V176.079H134.101V189.426L144.679 199.908H181.757V157.661L168.517 144.542H153.517V142.999H169.163L183.314 157.021V201.45Z" fill="#B6CC00"></path><path d="M63.0144 12.8467L61.9136 13.9375L70.1998 22.1481L71.3006 21.0574L63.0144 12.8467Z" fill="#B6CC00"></path><path d="M63.311 17.3426C65.3573 17.3426 67.0161 15.6989 67.0161 13.6713C67.0161 11.6437 65.3573 10 63.311 10C61.2648 10 59.606 11.6437 59.606 13.6713C59.606 15.6989 61.2648 17.3426 63.311 17.3426Z" fill="#B6CC00"></path><path d="M82.79 17.3426C84.8363 17.3426 86.4951 15.6989 86.4951 13.6713C86.4951 11.6437 84.8363 10 82.79 10C80.7438 10 79.085 11.6437 79.085 13.6713C79.085 15.6989 80.7438 17.3426 82.79 17.3426Z" fill="#68BFDD"></path><path d="M24.8475 93.2554H18.5815V94.7979H24.8475V93.2554Z" fill="#68BFDD"></path><path d="M17.1221 97.698C19.1683 97.698 20.8271 96.0544 20.8271 94.0268C20.8271 91.9992 19.1683 90.3555 17.1221 90.3555C15.0758 90.3555 13.417 91.9992 13.417 94.0268C13.417 96.0544 15.0758 97.698 17.1221 97.698Z" fill="#68BFDD"></path><path d="M24.8475 106.013H18.5815V107.555H24.8475V106.013Z" fill="#68BFDD"></path><path d="M17.1221 110.455C19.1683 110.455 20.8271 108.811 20.8271 106.784C20.8271 104.756 19.1683 103.112 17.1221 103.112C15.0758 103.112 13.417 104.756 13.417 106.784C13.417 108.811 15.0758 110.455 17.1221 110.455Z" fill="#68BFDD"></path><path d="M24.8475 119.371H18.5815V120.914H24.8475V119.371Z" fill="#68BFDD"></path><path d="M17.1221 123.814C19.1683 123.814 20.8271 122.17 20.8271 120.142C20.8271 118.115 19.1683 116.471 17.1221 116.471C15.0758 116.471 13.417 118.115 13.417 120.142C13.417 122.17 15.0758 123.814 17.1221 123.814Z" fill="#68BFDD"></path><path d="M174.829 93.2554H168.563V94.7979H174.829V93.2554Z" fill="#68BFDD"></path><path d="M176.288 97.698C178.334 97.698 179.993 96.0544 179.993 94.0268C179.993 91.9992 178.334 90.3555 176.288 90.3555C174.242 90.3555 172.583 91.9992 172.583 94.0268C172.583 96.0544 174.242 97.698 176.288 97.698Z" fill="#68BFDD"></path><path d="M174.829 106.013H168.563V107.555H174.829V106.013Z" fill="#68BFDD"></path><path d="M176.288 110.455C178.334 110.455 179.993 108.811 179.993 106.784C179.993 104.756 178.334 103.112 176.288 103.112C174.242 103.112 172.583 104.756 172.583 106.784C172.583 108.811 174.242 110.455 176.288 110.455Z" fill="#68BFDD"></path><path d="M174.829 119.371H168.563V120.914H174.829V119.371Z" fill="#68BFDD"></path><path d="M176.288 123.814C178.334 123.814 179.993 122.17 179.993 120.142C179.993 118.115 178.334 116.471 176.288 116.471C174.242 116.471 172.583 118.115 172.583 120.142C172.583 122.17 174.242 123.814 176.288 123.814Z" fill="#68BFDD"></path><path d="M96.4425 15.1211H94.8857V21.3299H96.4425V15.1211Z" fill="#68BFDD"></path><path d="M95.6641 17.3426C97.7103 17.3426 99.3691 15.6989 99.3691 13.6713C99.3691 11.6437 97.7103 10 95.6641 10C93.6178 10 91.959 11.6437 91.959 13.6713C91.959 15.6989 93.6178 17.3426 95.6641 17.3426Z" fill="#68BFDD"></path><path d="M109.142 15.1211H107.585V21.3299H109.142V15.1211Z" fill="#68BFDD"></path><path d="M108.363 17.3426C110.41 17.3426 112.068 15.6989 112.068 13.6713C112.068 11.6437 110.41 10 108.363 10C106.317 10 104.658 11.6437 104.658 13.6713C104.658 15.6989 106.317 17.3426 108.363 17.3426Z" fill="#68BFDD"></path><path d="M128.76 12.8499L120.474 21.0605L121.574 22.1513L129.861 13.9407L128.76 12.8499Z" fill="#B6CC00"></path><path d="M128.461 17.3426C130.507 17.3426 132.166 15.6989 132.166 13.6713C132.166 11.6437 130.507 10 128.461 10C126.415 10 124.756 11.6437 124.756 13.6713C124.756 15.6989 126.415 17.3426 128.461 17.3426Z" fill="#B6CC00"></path><path d="M138.381 53.9358C140.428 53.9358 142.086 52.2921 142.086 50.2645C142.086 48.237 140.428 46.5933 138.381 46.5933C136.335 46.5933 134.676 48.237 134.676 50.2645C134.676 52.2921 136.335 53.9358 138.381 53.9358Z" fill="#B6CC00"></path><path d="M138.381 147.442C140.428 147.442 142.086 145.798 142.086 143.77C142.086 141.743 140.428 140.099 138.381 140.099C136.335 140.099 134.676 141.743 134.676 143.77C134.676 145.798 136.335 147.442 138.381 147.442Z" fill="#B6CC00"></path><path d="M100.778 164.568C102.825 164.568 104.483 162.924 104.483 160.897C104.483 158.869 102.825 157.226 100.778 157.226C98.7321 157.226 97.0732 158.869 97.0732 160.897C97.0732 162.924 98.7321 164.568 100.778 164.568Z" fill="#B6CC00"></path><path d="M77.7808 106.186C79.827 106.186 81.4858 104.543 81.4858 102.515C81.4858 100.487 79.827 98.8438 77.7808 98.8438C75.7345 98.8438 74.0757 100.487 74.0757 102.515C74.0757 104.543 75.7345 106.186 77.7808 106.186Z" fill="#B6CC00"></path><path d="M52.7095 123.814C54.7557 123.814 56.4145 122.17 56.4145 120.142C56.4145 118.115 54.7557 116.471 52.7095 116.471C50.6632 116.471 49.0044 118.115 49.0044 120.142C49.0044 122.17 50.6632 123.814 52.7095 123.814Z" fill="#B6CC00"></path><path d="M138.381 90.7376C140.428 90.7376 142.086 89.0939 142.086 87.0663C142.086 85.0387 140.428 83.395 138.381 83.395C136.335 83.395 134.676 85.0387 134.676 87.0663C134.676 89.0939 136.335 90.7376 138.381 90.7376Z" fill="#B6CC00"></path><path d="M83.568 189.688H82.0112V195.897H83.568V189.688Z" fill="#68BFDD"></path><path d="M70.1973 188.868L61.9111 197.079L63.0119 198.17L71.2981 189.959L70.1973 188.868Z" fill="#B6CC00"></path><path d="M63.311 201.019C65.3573 201.019 67.0161 199.375 67.0161 197.348C67.0161 195.32 65.3573 193.676 63.311 193.676C61.2648 193.676 59.606 195.32 59.606 197.348C59.606 199.375 61.2648 201.019 63.311 201.019Z" fill="#B6CC00"></path><path d="M82.79 201.019C84.8363 201.019 86.4951 199.375 86.4951 197.348C86.4951 195.32 84.8363 193.676 82.79 193.676C80.7438 193.676 79.085 195.32 79.085 197.348C79.085 199.375 80.7438 201.019 82.79 201.019Z" fill="#68BFDD"></path><path d="M96.4425 189.688H94.8857V195.897H96.4425V189.688Z" fill="#68BFDD"></path><path d="M95.6641 201.019C97.7103 201.019 99.3691 199.375 99.3691 197.348C99.3691 195.32 97.7103 193.676 95.6641 193.676C93.6178 193.676 91.959 195.32 91.959 197.348C91.959 199.375 93.6178 201.019 95.6641 201.019Z" fill="#68BFDD"></path><path d="M109.142 189.688H107.585V195.897H109.142V189.688Z" fill="#68BFDD"></path><path d="M108.363 201.019C110.41 201.019 112.068 199.375 112.068 197.348C112.068 195.32 110.41 193.676 108.363 193.676C106.317 193.676 104.658 195.32 104.658 197.348C104.658 199.375 106.317 201.019 108.363 201.019Z" fill="#68BFDD"></path><path d="M121.575 188.869L120.475 189.959L128.761 198.17L129.862 197.079L121.575 188.869Z" fill="#B6CC00"></path><path d="M128.461 201.019C130.507 201.019 132.166 199.375 132.166 197.348C132.166 195.32 130.507 193.676 128.461 193.676C126.415 193.676 124.756 195.32 124.756 197.348C124.756 199.375 126.415 201.019 128.461 201.019Z" fill="#B6CC00"></path><path d="M97.6335 20.7788H93.6911C92.3993 20.7788 91.3521 21.8165 91.3521 23.0965V35.7956C91.3521 37.0756 92.3993 38.1133 93.6911 38.1133H97.6335C98.9253 38.1133 99.9726 37.0756 99.9726 35.7956V23.0965C99.9726 21.8165 98.9253 20.7788 97.6335 20.7788Z" fill="#68BFDD"></path><path d="M84.759 20.7788H80.8166C79.5248 20.7788 78.4775 21.8165 78.4775 23.0965V35.7956C78.4775 37.0756 79.5248 38.1133 80.8166 38.1133H84.759C86.0508 38.1133 87.0981 37.0756 87.0981 35.7956V23.0965C87.0981 21.8165 86.0508 20.7788 84.759 20.7788Z" fill="#68BFDD"></path><path d="M71.8845 20.7788H67.9421C66.6502 20.7788 65.603 21.8165 65.603 23.0965V35.7956C65.603 37.0756 66.6502 38.1133 67.9421 38.1133H71.8845C73.1763 38.1133 74.2235 37.0756 74.2235 35.7956V23.0965C74.2235 21.8165 73.1763 20.7788 71.8845 20.7788Z" fill="#68BFDD"></path><path d="M123.382 20.7788H119.44C118.148 20.7788 117.101 21.8165 117.101 23.0965V35.7956C117.101 37.0756 118.148 38.1133 119.44 38.1133H123.382C124.674 38.1133 125.721 37.0756 125.721 35.7956V23.0965C125.721 21.8165 124.674 20.7788 123.382 20.7788Z" fill="#68BFDD"></path><path d="M110.508 20.7788H106.566C105.274 20.7788 104.227 21.8165 104.227 23.0965V35.7956C104.227 37.0756 105.274 38.1133 106.566 38.1133H110.508C111.8 38.1133 112.847 37.0756 112.847 35.7956V23.0965C112.847 21.8165 111.8 20.7788 110.508 20.7788Z" fill="#68BFDD"></path><path d="M168.621 108.739V104.833C168.621 103.553 167.574 102.515 166.282 102.515H153.466C152.174 102.515 151.127 103.553 151.127 104.833V108.739C151.127 110.019 152.174 111.057 153.466 111.057H166.282C167.574 111.057 168.621 110.019 168.621 108.739Z" fill="#68BFDD"></path><path d="M168.621 95.982V92.0755C168.621 90.7955 167.574 89.7578 166.282 89.7578H153.466C152.174 89.7578 151.127 90.7955 151.127 92.0755V95.982C151.127 97.2621 152.174 98.2997 153.466 98.2997H166.282C167.574 98.2997 168.621 97.2621 168.621 95.982Z" fill="#68BFDD"></path><path d="M168.621 83.2252V79.3187C168.621 78.0386 167.574 77.001 166.282 77.001H153.466C152.174 77.001 151.127 78.0386 151.127 79.3187V83.2252C151.127 84.5052 152.174 85.5429 153.466 85.5429H166.282C167.574 85.5429 168.621 84.5052 168.621 83.2252Z" fill="#68BFDD"></path><path d="M168.621 134.253V130.347C168.621 129.066 167.574 128.029 166.282 128.029H153.466C152.174 128.029 151.127 129.066 151.127 130.347V134.253C151.127 135.533 152.174 136.571 153.466 136.571H166.282C167.574 136.571 168.621 135.533 168.621 134.253Z" fill="#68BFDD"></path><path d="M168.621 121.496V117.59C168.621 116.31 167.574 115.272 166.282 115.272H153.466C152.174 115.272 151.127 116.31 151.127 117.59V121.496C151.127 122.776 152.174 123.814 153.466 123.814H166.282C167.574 123.814 168.621 122.776 168.621 121.496Z" fill="#68BFDD"></path><path d="M42.1548 108.739V104.833C42.1548 103.553 41.1076 102.515 39.8158 102.515H26.9998C25.708 102.515 24.6608 103.553 24.6608 104.833V108.739C24.6608 110.019 25.708 111.057 26.9998 111.057H39.8158C41.1076 111.057 42.1548 110.019 42.1548 108.739Z" fill="#68BFDD"></path><path d="M42.1548 95.982V92.0755C42.1548 90.7955 41.1076 89.7578 39.8158 89.7578H26.9998C25.708 89.7578 24.6608 90.7955 24.6608 92.0755V95.982C24.6608 97.2621 25.708 98.2997 26.9998 98.2997H39.8158C41.1076 98.2997 42.1548 97.2621 42.1548 95.982Z" fill="#68BFDD"></path><path d="M42.1548 83.2252V79.3187C42.1548 78.0386 41.1076 77.001 39.8158 77.001H26.9998C25.708 77.001 24.6608 78.0386 24.6608 79.3187V83.2252C24.6608 84.5052 25.708 85.5429 26.9998 85.5429H39.8158C41.1076 85.5429 42.1548 84.5052 42.1548 83.2252Z" fill="#68BFDD"></path><path d="M42.1548 134.253V130.347C42.1548 129.066 41.1076 128.029 39.8158 128.029H26.9998C25.708 128.029 24.6608 129.066 24.6608 130.347V134.253C24.6608 135.533 25.708 136.571 26.9998 136.571H39.8158C41.1076 136.571 42.1548 135.533 42.1548 134.253Z" fill="#68BFDD"></path><path d="M42.1548 121.496V117.59C42.1548 116.31 41.1076 115.272 39.8158 115.272H26.9998C25.708 115.272 24.6608 116.31 24.6608 117.59V121.496C24.6608 122.776 25.708 123.814 26.9998 123.814H39.8158C41.1076 123.814 42.1548 122.776 42.1548 121.496Z" fill="#68BFDD"></path><path d="M97.6335 173.77H93.6911C92.3993 173.77 91.3521 174.807 91.3521 176.087V188.786C91.3521 190.066 92.3993 191.104 93.6911 191.104H97.6335C98.9253 191.104 99.9726 190.066 99.9726 188.786V176.087C99.9726 174.807 98.9253 173.77 97.6335 173.77Z" fill="#68BFDD"></path><path d="M84.759 173.77H80.8166C79.5248 173.77 78.4775 174.807 78.4775 176.087V188.786C78.4775 190.066 79.5248 191.104 80.8166 191.104H84.759C86.0508 191.104 87.0981 190.066 87.0981 188.786V176.087C87.0981 174.807 86.0508 173.77 84.759 173.77Z" fill="#68BFDD"></path><path d="M71.8845 173.77H67.9421C66.6502 173.77 65.603 174.807 65.603 176.087V188.786C65.603 190.066 66.6502 191.104 67.9421 191.104H71.8845C73.1763 191.104 74.2235 190.066 74.2235 188.786V176.087C74.2235 174.807 73.1763 173.77 71.8845 173.77Z" fill="#68BFDD"></path><path d="M123.382 173.77H119.44C118.148 173.77 117.101 174.807 117.101 176.087V188.786C117.101 190.066 118.148 191.104 119.44 191.104H123.382C124.674 191.104 125.721 190.066 125.721 188.786V176.087C125.721 174.807 124.674 173.77 123.382 173.77Z" fill="#68BFDD"></path><path d="M110.508 173.77H106.566C105.274 173.77 104.227 174.807 104.227 176.087V188.786C104.227 190.066 105.274 191.104 106.566 191.104H110.508C111.8 191.104 112.847 190.066 112.847 188.786V176.087C112.847 174.807 111.8 173.77 110.508 173.77Z" fill="#68BFDD"></path><path d="M56.9399 82.9936C55.4026 70.7341 58.0802 58.0543 70.6899 53.8007C80.1822 51.028 88.3434 53.8971 91.0094 55.0348C91.6437 55.3047 92.3326 55.4127 93.0215 55.3548C97.2169 54.9885 112.278 54.0013 117.101 58.1777C121.627 62.0997 117.805 65.5859 114.154 66.442C110.504 67.2981 106.359 70.5876 104.697 73.2177C103.315 75.4081 100.206 76.8002 96.9017 76.6344C95.6446 76.5689 94.4148 77.0316 93.5586 77.9533C91.383 80.298 86.6816 84.4205 80.1744 84.891C71.0207 85.5465 71.0868 92.0793 66.5762 92.7811C62.3924 93.4329 57.7299 89.2872 56.9399 82.9975V82.9936Z" fill="#F06C6E"></path><path d="M64.14 73.6808C64.0739 73.6808 64.0077 73.6769 63.9377 73.6692C63.0659 73.5612 62.4471 72.7745 62.5522 71.9107C62.5638 71.8066 62.8907 69.2999 64.3774 66.5079C66.3857 62.7479 69.5575 60.2297 73.5545 59.2232C74.4068 59.0072 75.2786 59.5201 75.4927 60.3685C75.7106 61.2169 75.193 62.0769 74.3368 62.289C71.231 63.0719 68.8414 64.9576 67.2458 67.8962C66.0042 70.183 65.7201 72.2809 65.7163 72.3002C65.6112 73.0985 64.9262 73.6808 64.1323 73.6808H64.14Z" fill="#F06C6E"></path><mask id="mask0_2001_623" style="mask-type:luminance" maskUnits="userSpaceOnUse" x="56" y="52" width="64" height="41">
<path d="M56.9399 82.9936C55.4026 70.7341 58.0802 58.0543 70.6899 53.8007C80.1822 51.028 88.3434 53.8971 91.0094 55.0348C91.6437 55.3047 92.3326 55.4127 93.0215 55.3548C97.2169 54.9885 112.278 54.0013 117.101 58.1777C121.627 62.0997 117.805 65.5859 114.154 66.442C110.504 67.2981 106.359 70.5876 104.697 73.2177C103.315 75.4081 100.206 76.8002 96.9017 76.6344C95.6446 76.5689 94.4148 77.0316 93.5586 77.9533C91.383 80.298 86.6816 84.4205 80.1744 84.891C71.0207 85.5465 71.0868 92.0793 66.5762 92.7811C62.3924 93.4329 57.7299 89.2872 56.9399 82.9975V82.9936Z" fill="white"></path>
</mask><g mask="url(#mask0_2001_623)">
<path d="M89.939 62.8091C89.2113 62.8091 88.6119 62.2383 88.5847 61.5133C88.4173 56.9975 91.2895 53.8275 91.4141 53.6964C91.92 53.1488 92.7762 53.1102 93.3328 53.6116C93.8854 54.1129 93.9243 54.9613 93.4223 55.5089C93.3756 55.559 91.1767 58.0426 91.3012 61.4169C91.3284 62.1573 90.7447 62.7821 89.9935 62.8091C89.978 62.8091 89.9585 62.8091 89.9429 62.8091H89.939Z" fill="#E05557"></path>
<path d="M95.6912 78.4006C95.5316 78.4006 95.3721 78.3737 95.2164 78.3158C94.9868 78.231 89.5965 76.1562 88.5963 69.7662C88.4834 69.0335 88.9894 68.347 89.7288 68.2313C90.4722 68.1157 91.1611 68.6208 91.2778 69.3536C92.0289 74.1548 96.0064 75.7359 96.1738 75.8014C96.8704 76.0675 97.2207 76.8427 96.9561 77.5368C96.7498 78.0729 96.2361 78.4045 95.6912 78.4045V78.4006Z" fill="#E05557"></path>
</g><path d="M139.16 52.6284H137.603V89.7578H139.16V52.6284Z" fill="#B6CC00"></path><path d="M53.4879 121.604H51.9312V101.744H75.8039V103.286H53.4879V121.604Z" fill="#B6CC00"></path><path d="M139.16 161.668H99.9727V160.125H137.603V143.771H139.16V161.668Z" fill="#B6CC00"></path><path d="M96.7934 95.0688L96.734 95.628C96.6449 96.4446 97.1377 97.1985 97.8918 97.3995L101.692 98.4172L102.131 93.7182L98.3668 93.6239C97.5652 93.6051 96.8884 94.2333 96.7934 95.0688Z" fill="#EB5864"></path><path d="M96.6569 100.786L96.6866 101.345C96.7282 102.08 97.221 102.689 97.8978 102.847L101.727 103.739L102.119 98.6626L98.0522 99.0647C97.2269 99.1463 96.6035 99.9065 96.651 100.786H96.6569Z" fill="#EB5864"></path><path d="M132.554 92.9583L132.215 92.5248C131.717 91.8966 130.862 91.7521 130.203 92.1919L126.89 94.4032L129.805 97.9778L132.465 95.1633C133.029 94.5665 133.07 93.6116 132.56 92.9583H132.554Z" fill="#EB5864"></path><path d="M129.294 89.1951L128.873 88.8496C128.326 88.4035 127.56 88.3972 127.002 88.8307L123.855 91.3059L127.222 94.9495L129.597 91.4378C130.084 90.7216 129.941 89.7291 129.282 89.1951H129.294Z" fill="#EB5864"></path><path d="M108.745 94.315C113.822 93.9884 115.864 96.7211 115.864 96.7211C115.864 96.7211 120.08 91.4315 123.476 90.4515C124.426 88.1773 126.557 87.7125 127.798 87.6434C128.38 87.612 128.855 87.1534 128.938 86.5503C128.98 86.2487 129.021 85.9283 129.057 85.6394C129.134 84.9986 128.76 84.3829 128.166 84.2259C126.391 83.7547 124.016 84.3892 124.016 84.3892C123.844 82.492 122.561 81.1413 121.867 80.5445C121.588 80.3058 121.433 79.9414 121.451 79.5645L121.6 76.3857C121.6 75.902 121.267 75.4999 120.816 75.4245L119.676 75.2424C119.219 75.1732 118.779 75.4685 118.655 75.9397L117.942 78.5907C117.877 78.842 117.663 79.0179 117.42 79.0305L116.945 79.0556C116.648 79.0682 116.386 78.842 116.351 78.5279L115.977 75.4622C115.906 74.8905 115.442 74.4696 114.902 74.4822L113.703 74.5136C113.115 74.5262 112.652 75.0476 112.67 75.6633L112.759 78.8986C112.765 79.175 112.593 79.4263 112.337 79.5017L112.129 79.5645C111.886 79.6336 111.631 79.5331 111.494 79.3069L109.796 76.4862C109.523 76.0339 108.983 75.8454 108.508 76.0465L107.564 76.4485C107.059 76.6621 106.792 77.2401 106.934 77.7866L107.866 81.3361C107.979 81.7632 107.878 82.2156 107.611 82.5611C106.121 84.4457 106.418 89.2013 106.418 89.2013C106.726 93.0083 108.733 94.3088 108.733 94.3088L108.745 94.315Z" fill="#EB5864"></path><path d="M115.864 96.7211C115.371 96.1872 114.76 95.7725 114.101 95.4521C115.217 96.0804 115.864 96.7211 115.864 96.7211Z" fill="#F38080"></path><path d="M106.429 89.2014C106.37 88.8119 105.396 84.628 105.266 83.2145C105.218 82.6742 104.773 82.2784 104.268 82.3099L101.697 82.7873C101.21 82.8187 100.825 83.2333 100.801 83.7485C100.694 86.3242 101.727 93.4921 101.258 96.8908C101.228 97.1044 101.199 97.318 101.175 97.5316C105.456 94.5789 108.745 94.3151 108.745 94.3151C108.745 94.3151 106.738 93.0147 106.429 89.2077V89.2014Z" fill="#7F9AEC"></path><path d="M132.281 104.009C132.281 104.009 132.477 93.7874 123.476 90.4453C120.079 91.4316 115.864 96.7149 115.864 96.7149C115.864 96.7149 113.821 93.9822 108.745 94.3088C108.745 94.3088 105.456 94.5727 101.175 97.5253C97.9568 123.012 116.386 124.181 126.516 122.221C133.456 120.876 138.153 113.086 132.281 104.009Z" fill="#FE7677"></path><path d="M116.707 84.496C116.428 84.4772 114.872 84.4269 114.445 86.4875C113.94 88.9061 113.744 93.0021 116.368 93.4356C118.993 93.8753 118.185 86.6508 117.954 85.9158C117.722 85.1808 117.312 84.5337 116.707 84.4897V84.496Z" fill="#CF3F4A"></path><path d="M118.061 86.4624C118.019 86.1986 117.983 86.0101 117.954 85.9159C117.722 85.1809 117.312 84.5338 116.707 84.4898C116.452 84.471 115.104 84.427 114.563 86.0415C115.947 86.4122 117.022 86.5504 118.061 86.4561V86.4624Z" fill="#CF3F4A"></path><path d="M114.166 90.1313C114.284 91.6077 114.777 92.9206 115.976 93.3353C116.071 92.7008 116.172 92.1668 116.196 91.727C116.238 90.8161 114.664 90.2821 114.166 90.1376V90.1313Z" fill="#CF3F4A"></path><path d="M128.694 84.2699C127.543 84.0249 125.049 83.7297 122.609 84.917C120.738 85.8216 119.432 86.3431 118.061 86.4624C117.022 86.5567 115.941 86.4184 114.563 86.0478C114.516 86.1797 114.48 86.3242 114.445 86.4813C114.225 87.5304 114.065 88.8873 114.166 90.1312C114.664 90.2757 116.244 90.8097 116.196 91.7206C116.172 92.1666 116.072 92.7006 115.977 93.3288C115.84 94.2398 115.715 95.3517 115.858 96.7086C115.858 96.7086 121.089 94.8366 124.235 96.3066C124.235 96.3066 121.148 91.2557 125.197 88.7366C126.723 88.0016 127.733 87.7628 128.267 87.6874C128.552 87.6435 128.783 87.4173 128.843 87.1158L129.223 85.1118C129.3 84.7223 129.063 84.339 128.688 84.2637L128.694 84.2699Z" fill="#7F9AEC"></path><path opacity="0.3" d="M119.409 118.106C112.747 118.106 109.618 114.644 109.482 114.487C108.971 113.909 109.001 113.005 109.547 112.464C110.093 111.93 110.942 111.956 111.453 112.527C111.583 112.672 114.38 115.624 120.602 115.197C121.35 115.147 121.992 115.744 122.039 116.535C122.087 117.321 121.523 118.005 120.775 118.056C120.305 118.087 119.848 118.1 119.409 118.1V118.106Z" fill="white"></path><path d="M84.6954 119.044C84.4584 117.255 84.6954 112.599 84.8139 109.876C84.8402 109.267 84.3531 108.748 83.7212 108.748H81.2463C80.6275 108.748 80.1273 109.254 80.1536 109.863C80.2721 112.586 80.4827 117.242 80.2458 119.031C80.0483 121.08 78.6792 122.494 78.6792 122.494C78.6792 122.494 78.824 126.034 79.0741 127.292C79.0741 127.292 81.0225 126.306 82.0098 125.476C82.3126 125.23 82.747 125.217 83.0498 125.476C84.0372 126.306 85.9987 127.149 85.9987 127.149C86.3146 126.202 86.3804 122.597 86.3804 122.597C86.3804 122.597 84.8797 121.093 84.6822 119.044H84.6954Z" fill="#F5D4D7"></path><path d="M78.9956 123.713C78.4953 119.122 76.2573 116.14 73.1505 116.464C62.9612 117.514 59.6964 134.359 59.0776 137.847C58.4589 141.336 57.024 152.617 61.6316 153.058C65.4888 153.434 67.5029 148.818 75.4412 149.064C82.1814 149.272 78.9956 123.7 78.9956 123.7V123.713Z" fill="#FFA7A5"></path><path d="M86.0912 123.713C86.5914 119.122 88.8294 116.14 91.9362 116.464C102.126 117.514 105.39 134.359 106.022 137.847C106.641 141.336 108.076 152.617 103.468 153.058C99.6112 153.434 97.597 148.818 89.6588 149.064C82.9185 149.272 86.1044 123.7 86.1044 123.7L86.0912 123.713Z" fill="#FFA7A5"></path><path d="M65.6333 146.73C65.2778 146.73 64.9355 146.574 64.6986 146.276C64.3168 145.77 64.409 145.057 64.9224 144.668C65.054 144.577 68.0687 142.36 72.1102 142.619C72.7553 142.658 73.2423 143.203 73.2029 143.838C73.1634 144.474 72.6104 144.953 71.9654 144.914C68.8191 144.72 66.3573 146.497 66.331 146.509C66.1203 146.665 65.8702 146.743 65.6333 146.743V146.73Z" fill="#ED8E8B"></path><path d="M99.4659 146.73C99.2158 146.73 98.9788 146.652 98.7682 146.497C98.7418 146.471 96.2801 144.707 93.1338 144.902C92.4887 144.941 91.9358 144.461 91.8963 143.825C91.8568 143.19 92.3439 142.645 92.9889 142.607C97.0304 142.347 100.045 144.565 100.177 144.655C100.69 145.031 100.796 145.758 100.401 146.263C100.177 146.562 99.8213 146.717 99.4659 146.717V146.73Z" fill="#ED8E8B"></path><style>@media (prefers-color-scheme: light) { :root { filter: none; } }
@media (prefers-color-scheme: dark) { :root { filter: none; } }
</style></svg>