<svg width="172" height="38" viewBox="0 0 172 38" fill="none" xmlns="http://www.w3.org/2000/svg">
<path d="M1.04077 13.0183C1.43025 13.0183 1.74597 12.7029 1.74597 12.3138C1.74597 11.9246 1.43025 11.6092 1.04077 11.6092C0.651301 11.6092 0.335571 11.9246 0.335571 12.3138C0.335571 12.7029 0.651301 13.0183 1.04077 13.0183Z" fill="#B6CC00"/>
<path d="M1.25224 12.3182L1.04272 12.5275L2.90639 14.3896L3.11591 14.1802L1.25224 12.3182Z" fill="#B6CC00"/>
<path d="M1.04077 26.3907C1.43025 26.3907 1.74597 26.0753 1.74597 25.6861C1.74597 25.297 1.43025 24.9816 1.04077 24.9816C0.651301 24.9816 0.335571 25.297 0.335571 25.6861C0.335571 26.0753 0.651301 26.3907 1.04077 26.3907Z" fill="#B6CC00"/>
<path d="M2.90565 23.6104L1.04199 25.4724L1.25151 25.6818L3.11517 23.8197L2.90565 23.6104Z" fill="#B6CC00"/>
<path d="M31.9408 13.0183C32.3303 13.0183 32.646 12.7029 32.646 12.3138C32.646 11.9246 32.3303 11.6092 31.9408 11.6092C31.5513 11.6092 31.2356 11.9246 31.2356 12.3138C31.2356 12.7029 31.5513 13.0183 31.9408 13.0183Z" fill="#B6CC00"/>
<path d="M31.7295 12.318L29.8654 14.1806L30.0749 14.3899L31.9391 12.5273L31.7295 12.318Z" fill="#B6CC00"/>
<path d="M31.9408 26.3907C32.3303 26.3907 32.646 26.0753 32.646 25.6861C32.646 25.297 32.3303 24.9816 31.9408 24.9816C31.5513 24.9816 31.2356 25.297 31.2356 25.6861C31.2356 26.0753 31.5513 26.3907 31.9408 26.3907Z" fill="#B6CC00"/>
<path d="M30.0754 23.611L29.8658 23.8203L31.73 25.6829L31.9395 25.4735L30.0754 23.611Z" fill="#B6CC00"/>
<path d="M14.0026 1.36965H13.7063V2.56124H14.0026V1.36965Z" fill="#68BFDD"/>
<path d="M24.4428 5.78146H8.53869C7.20295 5.78146 6.12012 6.86335 6.12012 8.19794V29.4008C6.12012 30.7354 7.20295 31.8173 8.53869 31.8173H24.4428C25.7785 31.8173 26.8613 30.7354 26.8613 29.4008V8.19794C26.8613 6.86335 25.7785 5.78146 24.4428 5.78146Z" fill="#DCEFF9"/>
<path d="M24.4428 32.2613H8.53869C6.96013 32.2613 5.67566 30.978 5.67566 29.4008V8.19794C5.67566 6.62075 6.96013 5.33739 8.53869 5.33739H24.4428C26.0213 5.33739 27.3058 6.62075 27.3058 8.19794V29.4008C27.3058 30.978 26.0213 32.2613 24.4428 32.2613ZM8.53869 6.22553C7.45052 6.22553 6.56457 7.11071 6.56457 8.19794V29.4008C6.56457 30.488 7.45052 31.3732 8.53869 31.3732H24.4428C25.5317 31.3732 26.4169 30.488 26.4169 29.4008V8.19794C26.4169 7.11071 25.5309 6.22553 24.4428 6.22553H8.53869Z" fill="#68BFDD"/>
<path d="M5.67124 11.6832H2.6934L0 8.99212V0.46524H7.47647L9.66319 2.65006V5.33447H9.36689V2.77292L7.35351 0.761287H0.296303V8.86926L2.81562 11.3871H5.67124V11.6832Z" fill="#B6CC00"/>
<path d="M30.294 11.6832H27.3162V11.3871H30.171L32.6911 8.86926V0.761287H25.6339L23.6205 2.77292V5.33447H23.3242V2.65006L25.5109 0.46524H32.9874V8.99212L30.294 11.6832Z" fill="#B6CC00"/>
<path d="M7.47647 37.1298H0V28.6029L2.6934 25.9119H5.67124V26.2079H2.81562L0.296303 28.7258V36.8338H7.35351L9.36689 34.8221V32.2606H9.66319V34.945L7.47647 37.1298Z" fill="#B6CC00"/>
<path d="M32.9874 37.1298H25.5109L23.3242 34.945V32.2606H23.6205V34.8221L25.6339 36.8338H32.6911V28.7258L30.171 26.2079H27.3162V25.9119H30.294L32.9874 28.6029V37.1298Z" fill="#B6CC00"/>
<path d="M10.0904 0.933081L9.88086 1.14242L11.458 2.7182L11.6675 2.50886L10.0904 0.933081Z" fill="#B6CC00"/>
<path d="M10.1469 1.79595C10.5363 1.79595 10.8521 1.4805 10.8521 1.09136C10.8521 0.702228 10.5363 0.386772 10.1469 0.386772C9.75738 0.386772 9.44165 0.702228 9.44165 1.09136C9.44165 1.4805 9.75738 1.79595 10.1469 1.79595Z" fill="#B6CC00"/>
<path d="M13.8544 1.79595C14.2438 1.79595 14.5596 1.4805 14.5596 1.09136C14.5596 0.702228 14.2438 0.386772 13.8544 0.386772C13.4649 0.386772 13.1492 0.702228 13.1492 1.09136C13.1492 1.4805 13.4649 1.79595 13.8544 1.79595Z" fill="#68BFDD"/>
<path d="M2.82604 16.3651H1.63342V16.6612H2.82604V16.3651Z" fill="#68BFDD"/>
<path d="M1.35559 17.2178C1.74506 17.2178 2.06079 16.9023 2.06079 16.5132C2.06079 16.124 1.74506 15.8086 1.35559 15.8086C0.96612 15.8086 0.650391 16.124 0.650391 16.5132C0.650391 16.9023 0.96612 17.2178 1.35559 17.2178Z" fill="#68BFDD"/>
<path d="M2.82604 18.8135H1.63342V19.1095H2.82604V18.8135Z" fill="#68BFDD"/>
<path d="M1.35559 19.666C1.74506 19.666 2.06079 19.3506 2.06079 18.9614C2.06079 18.5723 1.74506 18.2569 1.35559 18.2569C0.96612 18.2569 0.650391 18.5723 0.650391 18.9614C0.650391 19.3506 0.96612 19.666 1.35559 19.666Z" fill="#68BFDD"/>
<path d="M2.82604 21.3772H1.63342V21.6733H2.82604V21.3772Z" fill="#68BFDD"/>
<path d="M1.35559 22.2298C1.74506 22.2298 2.06079 21.9143 2.06079 21.5252C2.06079 21.1361 1.74506 20.8206 1.35559 20.8206C0.96612 20.8206 0.650391 21.1361 0.650391 21.5252C0.650391 21.9143 0.96612 22.2298 1.35559 22.2298Z" fill="#68BFDD"/>
<path d="M31.3726 16.3651H30.1799V16.6612H31.3726V16.3651Z" fill="#68BFDD"/>
<path d="M31.6504 17.2178C32.0399 17.2178 32.3556 16.9023 32.3556 16.5132C32.3556 16.124 32.0399 15.8086 31.6504 15.8086C31.2609 15.8086 30.9452 16.124 30.9452 16.5132C30.9452 16.9023 31.2609 17.2178 31.6504 17.2178Z" fill="#68BFDD"/>
<path d="M31.3726 18.8135H30.1799V19.1095H31.3726V18.8135Z" fill="#68BFDD"/>
<path d="M31.6504 19.666C32.0399 19.666 32.3556 19.3506 32.3556 18.9614C32.3556 18.5723 32.0399 18.2569 31.6504 18.2569C31.2609 18.2569 30.9452 18.5723 30.9452 18.9614C30.9452 19.3506 31.2609 19.666 31.6504 19.666Z" fill="#68BFDD"/>
<path d="M31.3726 21.3772H30.1799V21.6733H31.3726V21.3772Z" fill="#68BFDD"/>
<path d="M31.6504 22.2298C32.0399 22.2298 32.3556 21.9143 32.3556 21.5252C32.3556 21.1361 32.0399 20.8206 31.6504 20.8206C31.2609 20.8206 30.9452 21.1361 30.9452 21.5252C30.9452 21.9143 31.2609 22.2298 31.6504 22.2298Z" fill="#68BFDD"/>
<path d="M16.453 1.36965H16.1567V2.56124H16.453V1.36965Z" fill="#68BFDD"/>
<path d="M16.3048 1.79595C16.6943 1.79595 17.01 1.4805 17.01 1.09136C17.01 0.702228 16.6943 0.386772 16.3048 0.386772C15.9153 0.386772 15.5996 0.702228 15.5996 1.09136C15.5996 1.4805 15.9153 1.79595 16.3048 1.79595Z" fill="#68BFDD"/>
<path d="M18.87 1.36965H18.5737V2.56124H18.87V1.36965Z" fill="#68BFDD"/>
<path d="M18.7219 1.79595C19.1114 1.79595 19.4271 1.4805 19.4271 1.09136C19.4271 0.702228 19.1114 0.386772 18.7219 0.386772C18.3325 0.386772 18.0167 0.702228 18.0167 1.09136C18.0167 1.4805 18.3325 1.79595 18.7219 1.79595Z" fill="#68BFDD"/>
<path d="M22.6041 0.933733L21.027 2.50951L21.2365 2.71885L22.8136 1.14307L22.6041 0.933733Z" fill="#B6CC00"/>
<path d="M22.5472 1.79595C22.9367 1.79595 23.2524 1.4805 23.2524 1.09136C23.2524 0.702228 22.9367 0.386772 22.5472 0.386772C22.1578 0.386772 21.842 0.702228 21.842 1.09136C21.842 1.4805 22.1578 1.79595 22.5472 1.79595Z" fill="#B6CC00"/>
<path d="M24.4354 8.8189C24.8249 8.8189 25.1406 8.50344 25.1406 8.1143C25.1406 7.72517 24.8249 7.40971 24.4354 7.40971C24.046 7.40971 23.7302 7.72517 23.7302 8.1143C23.7302 8.50344 24.046 8.8189 24.4354 8.8189Z" fill="#B6CC00"/>
<path d="M24.4354 26.7645C24.8249 26.7645 25.1406 26.4491 25.1406 26.0599C25.1406 25.6708 24.8249 25.3553 24.4354 25.3553C24.046 25.3553 23.7302 25.6708 23.7302 26.0599C23.7302 26.4491 24.046 26.7645 24.4354 26.7645Z" fill="#B6CC00"/>
<path d="M17.2782 30.0513C17.6677 30.0513 17.9834 29.7359 17.9834 29.3468C17.9834 28.9576 17.6677 28.6422 17.2782 28.6422C16.8887 28.6422 16.573 28.9576 16.573 29.3468C16.573 29.7359 16.8887 30.0513 17.2782 30.0513Z" fill="#B6CC00"/>
<path d="M12.901 18.8467C13.2905 18.8467 13.6062 18.5313 13.6062 18.1422C13.6062 17.753 13.2905 17.4376 12.901 17.4376C12.5115 17.4376 12.1958 17.753 12.1958 18.1422C12.1958 18.5313 12.5115 18.8467 12.901 18.8467Z" fill="#B6CC00"/>
<path d="M8.12915 22.2298C8.51862 22.2298 8.83435 21.9143 8.83435 21.5252C8.83435 21.1361 8.51862 20.8206 8.12915 20.8206C7.73968 20.8206 7.42395 21.1361 7.42395 21.5252C7.42395 21.9143 7.73968 22.2298 8.12915 22.2298Z" fill="#B6CC00"/>
<path d="M24.4354 15.8819C24.8249 15.8819 25.1406 15.5664 25.1406 15.1773C25.1406 14.7881 24.8249 14.4727 24.4354 14.4727C24.046 14.4727 23.7302 14.7881 23.7302 15.1773C23.7302 15.5664 24.046 15.8819 24.4354 15.8819Z" fill="#B6CC00"/>
<path d="M14.0026 34.8725H13.7063V36.0641H14.0026V34.8725Z" fill="#68BFDD"/>
<path d="M11.4576 34.7151L9.88049 36.2909L10.09 36.5002L11.6672 34.9244L11.4576 34.7151Z" fill="#B6CC00"/>
<path d="M10.1469 37.047C10.5363 37.047 10.8521 36.7315 10.8521 36.3424C10.8521 35.9532 10.5363 35.6378 10.1469 35.6378C9.75738 35.6378 9.44165 35.9532 9.44165 36.3424C9.44165 36.7315 9.75738 37.047 10.1469 37.047Z" fill="#B6CC00"/>
<path d="M13.8544 37.047C14.2438 37.047 14.5596 36.7315 14.5596 36.3424C14.5596 35.9532 14.2438 35.6378 13.8544 35.6378C13.4649 35.6378 13.1492 35.9532 13.1492 36.3424C13.1492 36.7315 13.4649 37.047 13.8544 37.047Z" fill="#68BFDD"/>
<path d="M16.453 34.8725H16.1567V36.0641H16.453V34.8725Z" fill="#68BFDD"/>
<path d="M16.3048 37.047C16.6943 37.047 17.01 36.7315 17.01 36.3424C17.01 35.9532 16.6943 35.6378 16.3048 35.6378C15.9153 35.6378 15.5996 35.9532 15.5996 36.3424C15.5996 36.7315 15.9153 37.047 16.3048 37.047Z" fill="#68BFDD"/>
<path d="M18.87 34.8725H18.5737V36.0641H18.87V34.8725Z" fill="#68BFDD"/>
<path d="M18.7219 37.047C19.1114 37.047 19.4271 36.7315 19.4271 36.3424C19.4271 35.9532 19.1114 35.6378 18.7219 35.6378C18.3325 35.6378 18.0167 35.9532 18.0167 36.3424C18.0167 36.7315 18.3325 37.047 18.7219 37.047Z" fill="#68BFDD"/>
<path d="M21.2366 34.7152L21.0271 34.9245L22.6042 36.5003L22.8138 36.291L21.2366 34.7152Z" fill="#B6CC00"/>
<path d="M22.5472 37.047C22.9367 37.047 23.2524 36.7315 23.2524 36.3424C23.2524 35.9532 22.9367 35.6378 22.5472 35.6378C22.1578 35.6378 21.842 35.9532 21.842 36.3424C21.842 36.7315 22.1578 37.047 22.5472 37.047Z" fill="#B6CC00"/>
<path d="M16.6797 2.45541H15.9293C15.6835 2.45541 15.4841 2.65456 15.4841 2.90022V5.33743C15.4841 5.58309 15.6835 5.78224 15.9293 5.78224H16.6797C16.9256 5.78224 17.1249 5.58309 17.1249 5.33743V2.90022C17.1249 2.65456 16.9256 2.45541 16.6797 2.45541Z" fill="#68BFDD"/>
<path d="M14.2293 2.45541H13.4789C13.233 2.45541 13.0337 2.65456 13.0337 2.90022V5.33743C13.0337 5.58309 13.233 5.78224 13.4789 5.78224H14.2293C14.4751 5.78224 14.6745 5.58309 14.6745 5.33743V2.90022C14.6745 2.65456 14.4751 2.45541 14.2293 2.45541Z" fill="#68BFDD"/>
<path d="M11.7788 2.45541H11.0284C10.7826 2.45541 10.5833 2.65456 10.5833 2.90022V5.33743C10.5833 5.58309 10.7826 5.78224 11.0284 5.78224H11.7788C12.0247 5.78224 12.224 5.58309 12.224 5.33743V2.90022C12.224 2.65456 12.0247 2.45541 11.7788 2.45541Z" fill="#68BFDD"/>
<path d="M21.5805 2.45541H20.8301C20.5842 2.45541 20.3849 2.65456 20.3849 2.90022V5.33743C20.3849 5.58309 20.5842 5.78224 20.8301 5.78224H21.5805C21.8263 5.78224 22.0257 5.58309 22.0257 5.33743V2.90022C22.0257 2.65456 21.8263 2.45541 21.5805 2.45541Z" fill="#68BFDD"/>
<path d="M19.1302 2.45541H18.3798C18.1339 2.45541 17.9346 2.65456 17.9346 2.90022V5.33743C17.9346 5.58309 18.1339 5.78224 18.3798 5.78224H19.1302C19.376 5.78224 19.5754 5.58309 19.5754 5.33743V2.90022C19.5754 2.65456 19.376 2.45541 19.1302 2.45541Z" fill="#68BFDD"/>
<path d="M30.191 19.3367V18.587C30.191 18.3413 29.9917 18.1422 29.7458 18.1422H27.3065C27.0607 18.1422 26.8613 18.3413 26.8613 18.587V19.3367C26.8613 19.5824 27.0607 19.7815 27.3065 19.7815H29.7458C29.9917 19.7815 30.191 19.5824 30.191 19.3367Z" fill="#68BFDD"/>
<path d="M30.191 16.8884V16.1387C30.191 15.893 29.9917 15.6938 29.7458 15.6938H27.3065C27.0607 15.6938 26.8613 15.893 26.8613 16.1387V16.8884C26.8613 17.1341 27.0607 17.3332 27.3065 17.3332H29.7458C29.9917 17.3332 30.191 17.1341 30.191 16.8884Z" fill="#68BFDD"/>
<path d="M30.191 14.4401V13.6903C30.191 13.4447 29.9917 13.2455 29.7458 13.2455H27.3065C27.0607 13.2455 26.8613 13.4447 26.8613 13.6903V14.4401C26.8613 14.6857 27.0607 14.8849 27.3065 14.8849H29.7458C29.9917 14.8849 30.191 14.6857 30.191 14.4401Z" fill="#68BFDD"/>
<path d="M30.191 24.2333V23.4836C30.191 23.2379 29.9917 23.0388 29.7458 23.0388H27.3065C27.0607 23.0388 26.8613 23.2379 26.8613 23.4836V24.2333C26.8613 24.479 27.0607 24.6781 27.3065 24.6781H29.7458C29.9917 24.6781 30.191 24.479 30.191 24.2333Z" fill="#68BFDD"/>
<path d="M30.191 21.785V21.0353C30.191 20.7896 29.9917 20.5905 29.7458 20.5905H27.3065C27.0607 20.5905 26.8613 20.7896 26.8613 21.0353V21.785C26.8613 22.0307 27.0607 22.2298 27.3065 22.2298H29.7458C29.9917 22.2298 30.191 22.0307 30.191 21.785Z" fill="#68BFDD"/>
<path d="M6.12012 19.3367V18.587C6.12012 18.3413 5.9208 18.1422 5.67492 18.1422H3.23561C2.98973 18.1422 2.79041 18.3413 2.79041 18.587V19.3367C2.79041 19.5824 2.98973 19.7815 3.23561 19.7815H5.67492C5.9208 19.7815 6.12012 19.5824 6.12012 19.3367Z" fill="#68BFDD"/>
<path d="M6.12012 16.8884V16.1387C6.12012 15.893 5.9208 15.6938 5.67492 15.6938H3.23561C2.98973 15.6938 2.79041 15.893 2.79041 16.1387V16.8884C2.79041 17.1341 2.98973 17.3332 3.23561 17.3332H5.67492C5.9208 17.3332 6.12012 17.1341 6.12012 16.8884Z" fill="#68BFDD"/>
<path d="M6.12012 14.4401V13.6904C6.12012 13.4447 5.9208 13.2456 5.67492 13.2456H3.23561C2.98973 13.2456 2.79041 13.4447 2.79041 13.6904V14.4401C2.79041 14.6858 2.98973 14.8849 3.23561 14.8849H5.67492C5.9208 14.8849 6.12012 14.6858 6.12012 14.4401Z" fill="#68BFDD"/>
<path d="M6.12012 24.2333V23.4836C6.12012 23.2379 5.9208 23.0388 5.67492 23.0388H3.23561C2.98973 23.0388 2.79041 23.2379 2.79041 23.4836V24.2333C2.79041 24.479 2.98973 24.6781 3.23561 24.6781H5.67492C5.9208 24.6781 6.12012 24.479 6.12012 24.2333Z" fill="#68BFDD"/>
<path d="M6.12012 21.785V21.0353C6.12012 20.7896 5.9208 20.5905 5.67492 20.5905H3.23561C2.98973 20.5905 2.79041 20.7896 2.79041 21.0353V21.785C2.79041 22.0307 2.98973 22.2298 3.23561 22.2298H5.67492C5.9208 22.2298 6.12012 22.0307 6.12012 21.785Z" fill="#68BFDD"/>
<path d="M16.6797 31.8173H15.9293C15.6835 31.8173 15.4841 32.0164 15.4841 32.2621V34.6993C15.4841 34.945 15.6835 35.1441 15.9293 35.1441H16.6797C16.9256 35.1441 17.1249 34.945 17.1249 34.6993V32.2621C17.1249 32.0164 16.9256 31.8173 16.6797 31.8173Z" fill="#68BFDD"/>
<path d="M14.2293 31.8173H13.4789C13.233 31.8173 13.0337 32.0164 13.0337 32.2621V34.6993C13.0337 34.945 13.233 35.1441 13.4789 35.1441H14.2293C14.4751 35.1441 14.6745 34.945 14.6745 34.6993V32.2621C14.6745 32.0164 14.4751 31.8173 14.2293 31.8173Z" fill="#68BFDD"/>
<path d="M11.7788 31.8173H11.0284C10.7826 31.8173 10.5833 32.0164 10.5833 32.2621V34.6993C10.5833 34.945 10.7826 35.1441 11.0284 35.1441H11.7788C12.0247 35.1441 12.224 34.945 12.224 34.6993V32.2621C12.224 32.0164 12.0247 31.8173 11.7788 31.8173Z" fill="#68BFDD"/>
<path d="M21.5805 31.8173H20.8301C20.5842 31.8173 20.3849 32.0164 20.3849 32.2621V34.6993C20.3849 34.945 20.5842 35.1441 20.8301 35.1441H21.5805C21.8263 35.1441 22.0257 34.945 22.0257 34.6993V32.2621C22.0257 32.0164 21.8263 31.8173 21.5805 31.8173Z" fill="#68BFDD"/>
<path d="M19.1302 31.8173H18.3798C18.1339 31.8173 17.9346 32.0164 17.9346 32.2621V34.6993C17.9346 34.945 18.1339 35.1441 18.3798 35.1441H19.1302C19.376 35.1441 19.5754 34.945 19.5754 34.6993V32.2621C19.5754 32.0164 19.376 31.8173 19.1302 31.8173Z" fill="#68BFDD"/>
<path d="M8.93429 14.3957C8.64169 12.0429 9.15133 9.60937 11.5514 8.79302C13.3581 8.26088 14.9115 8.81153 15.4189 9.02986C15.5396 9.08167 15.6707 9.10239 15.8019 9.09129C16.6004 9.02098 19.4671 8.83151 20.3849 9.63306C21.2464 10.3858 20.519 11.0548 19.8242 11.2191C19.1293 11.3834 18.3404 12.0148 18.0241 12.5195C17.7612 12.9399 17.1693 13.2071 16.5404 13.1753C16.3011 13.1627 16.0671 13.2515 15.9041 13.4284C15.49 13.8784 14.5952 14.6695 13.3566 14.7598C11.6144 14.8857 11.6269 16.1394 10.7684 16.2741C9.97209 16.3992 9.08467 15.6036 8.93429 14.3964V14.3957Z" fill="#F06C6E"/>
<path d="M10.3047 12.6083C10.2921 12.6083 10.2795 12.6076 10.2662 12.6061C10.1002 12.5854 9.98246 12.4344 10.0025 12.2686C10.0047 12.2486 10.0669 11.7675 10.3499 11.2317C10.7321 10.5101 11.3358 10.0268 12.0966 9.83361C12.2588 9.79216 12.4247 9.8906 12.4655 10.0534C12.507 10.2162 12.4084 10.3813 12.2455 10.422C11.6543 10.5722 11.1995 10.9342 10.8958 11.4981C10.6595 11.937 10.6054 12.3396 10.6047 12.3433C10.5847 12.4965 10.4543 12.6083 10.3032 12.6083H10.3047Z" fill="#F06C6E"/>
<mask id="mask0_185_2423" style="mask-type:luminance" maskUnits="userSpaceOnUse" x="8" y="8" width="13" height="9">
<path d="M8.93429 14.3957C8.64169 12.0429 9.15133 9.60937 11.5514 8.79302C13.3581 8.26088 14.9115 8.81153 15.4189 9.02986C15.5396 9.08167 15.6707 9.10239 15.8019 9.09129C16.6004 9.02098 19.4671 8.83151 20.3849 9.63306C21.2464 10.3858 20.519 11.0548 19.8242 11.2191C19.1293 11.3834 18.3404 12.0148 18.0241 12.5195C17.7612 12.9399 17.1693 13.2071 16.5404 13.1753C16.3011 13.1627 16.0671 13.2515 15.9041 13.4284C15.49 13.8784 14.5952 14.6695 13.3566 14.7598C11.6144 14.8857 11.6269 16.1394 10.7684 16.2741C9.97209 16.3992 9.08467 15.6036 8.93429 14.3964V14.3957Z" fill="white"/>
</mask>
<g mask="url(#mask0_185_2423)">
<path d="M15.2152 10.5219C15.0767 10.5219 14.9626 10.4124 14.9574 10.2733C14.9255 9.40658 15.4722 8.79821 15.4959 8.77304C15.5922 8.66795 15.7552 8.66054 15.8611 8.75676C15.9663 8.85297 15.9737 9.0158 15.8782 9.1209C15.8693 9.13052 15.4507 9.60715 15.4744 10.2548C15.4796 10.3969 15.3685 10.5168 15.2255 10.5219C15.2226 10.5219 15.2189 10.5219 15.2159 10.5219H15.2152Z" fill="#E05557"/>
<path d="M16.3101 13.5142C16.2797 13.5142 16.2493 13.509 16.2197 13.4979C16.176 13.4817 15.15 13.0835 14.9597 11.8571C14.9382 11.7165 15.0345 11.5847 15.1752 11.5625C15.3167 11.5403 15.4478 11.6373 15.47 11.7779C15.613 12.6994 16.3701 13.0028 16.4019 13.0154C16.5345 13.0665 16.6012 13.2152 16.5508 13.3484C16.5115 13.4513 16.4138 13.515 16.3101 13.515V13.5142Z" fill="#E05557"/>
</g>
<path d="M24.5835 8.56804H24.2872V15.6939H24.5835V8.56804Z" fill="#B6CC00"/>
<path d="M8.27726 21.8057H7.98096V17.9941H12.5248V18.2902H8.27726V21.8057Z" fill="#B6CC00"/>
<path d="M24.5836 29.4948H17.1249V29.1988H24.2873V26.0599H24.5836V29.4948Z" fill="#B6CC00"/>
<path d="M16.5197 16.7131L16.5084 16.8204C16.4915 16.9772 16.5853 17.1219 16.7288 17.1604L17.4521 17.3558L17.5357 16.4539L16.8192 16.4358C16.6667 16.4322 16.5378 16.5528 16.5197 16.7131Z" fill="#EB5864"/>
<path d="M16.4938 17.8103L16.4995 17.9176C16.5074 18.0587 16.6012 18.1757 16.73 18.2058L17.4589 18.377L17.5335 17.4028L16.7594 17.48C16.6023 17.4957 16.4836 17.6415 16.4927 17.8103H16.4938Z" fill="#EB5864"/>
<path d="M23.3263 16.3081L23.2619 16.2249C23.1669 16.1043 23.0042 16.0766 22.8788 16.161L22.2482 16.5854L22.803 17.2714L23.3093 16.7313C23.4167 16.6167 23.4246 16.4335 23.3274 16.3081H23.3263Z" fill="#EB5864"/>
<path d="M22.7058 15.5859L22.6256 15.5196C22.5216 15.434 22.3758 15.4327 22.2696 15.5159L21.6707 15.991L22.3114 16.6903L22.7634 16.0163C22.8561 15.8788 22.829 15.6884 22.7036 15.5859H22.7058Z" fill="#EB5864"/>
<path d="M18.7945 16.5685C19.7607 16.5058 20.1495 17.0302 20.1495 17.0302C20.1495 17.0302 20.9518 16.0151 21.5982 15.827C21.7791 15.3905 22.1848 15.3013 22.4209 15.288C22.5317 15.282 22.6221 15.194 22.6379 15.0783C22.6458 15.0204 22.6537 14.9589 22.6605 14.9034C22.6752 14.7805 22.604 14.6623 22.491 14.6322C22.1531 14.5417 21.7011 14.6635 21.7011 14.6635C21.6683 14.2994 21.4242 14.0402 21.292 13.9256C21.2389 13.8798 21.2095 13.8099 21.2129 13.7375L21.2411 13.1275C21.2411 13.0346 21.1779 12.9575 21.092 12.943L20.875 12.908C20.788 12.8948 20.7043 12.9515 20.6806 13.0419L20.545 13.5507C20.5326 13.5989 20.4919 13.6327 20.4456 13.6351L20.3552 13.6399C20.2986 13.6423 20.2489 13.5989 20.2421 13.5386L20.1709 12.9502C20.1574 12.8405 20.0692 12.7597 19.9664 12.7622L19.7381 12.7682C19.6262 12.7706 19.5381 12.8707 19.5415 12.9888L19.5584 13.6097C19.5596 13.6628 19.5268 13.711 19.4782 13.7255L19.4387 13.7375C19.3923 13.7508 19.3437 13.7315 19.3177 13.6881L18.9945 13.1468C18.9425 13.06 18.8397 13.0238 18.7493 13.0624L18.5696 13.1395C18.4736 13.1805 18.4227 13.2914 18.4498 13.3963L18.6273 14.0775C18.6487 14.1595 18.6295 14.2463 18.5787 14.3127C18.295 14.6744 18.3515 15.587 18.3515 15.587C18.4103 16.3177 18.7922 16.5673 18.7922 16.5673L18.7945 16.5685Z" fill="#EB5864"/>
<path d="M20.1495 17.0302C20.0557 16.9278 19.9393 16.8482 19.8138 16.7867C20.0263 16.9073 20.1495 17.0302 20.1495 17.0302Z" fill="#F38080"/>
<path d="M18.3538 15.5871C18.3425 15.5123 18.1572 14.7093 18.1323 14.4381C18.1233 14.3344 18.0385 14.2584 17.9425 14.2644L17.4531 14.3561C17.3605 14.3621 17.287 14.4417 17.2825 14.5405C17.2622 15.0349 17.4588 16.4105 17.3695 17.0628C17.3639 17.1038 17.3582 17.1448 17.3537 17.1858C18.1685 16.6191 18.7945 16.5685 18.7945 16.5685C18.7945 16.5685 18.4126 16.3189 18.3538 15.5883V15.5871Z" fill="#7F9AEC"/>
<path d="M23.2742 18.4288C23.2742 18.4288 23.3115 16.4672 21.5983 15.8258C20.9519 16.0151 20.1495 17.029 20.1495 17.029C20.1495 17.029 19.7608 16.5046 18.7945 16.5673C18.7945 16.5673 18.1685 16.6179 17.3537 17.1846C16.7412 22.076 20.2489 22.3002 22.1769 21.9241C23.4979 21.666 24.3918 20.171 23.2742 18.4288Z" fill="#FE7677"/>
<path d="M20.3101 14.684C20.2569 14.6804 19.9609 14.6708 19.8795 15.0662C19.7834 15.5304 19.7461 16.3165 20.2456 16.3997C20.7451 16.4841 20.5914 15.0976 20.5474 14.9565C20.5033 14.8155 20.4253 14.6913 20.3101 14.6828V14.684Z" fill="#CF3F4A"/>
<path d="M20.5676 15.0614C20.5597 15.0108 20.5529 14.9746 20.5473 14.9565C20.5032 14.8154 20.4252 14.6913 20.3099 14.6828C20.2613 14.6792 20.0048 14.6708 19.902 14.9806C20.1653 15.0517 20.3698 15.0783 20.5676 15.0602V15.0614Z" fill="#CF3F4A"/>
<path d="M19.8263 15.7655C19.8489 16.0488 19.9427 16.3008 20.171 16.3804C20.1891 16.2586 20.2083 16.1561 20.2128 16.0717C20.2207 15.8969 19.9212 15.7944 19.8263 15.7667V15.7655Z" fill="#CF3F4A"/>
<path d="M22.5916 14.6406C22.3724 14.5936 21.8978 14.5369 21.4333 14.7648C21.0773 14.9384 20.8287 15.0385 20.5677 15.0614C20.3699 15.0795 20.1642 15.053 19.902 14.9818C19.893 15.0071 19.8862 15.0349 19.8794 15.065C19.8376 15.2664 19.8071 15.5268 19.8263 15.7655C19.9212 15.7932 20.2218 15.8957 20.2128 16.0705C20.2083 16.1561 20.1891 16.2586 20.171 16.3792C20.145 16.554 20.1213 16.7674 20.1484 17.0278C20.1484 17.0278 21.144 16.6686 21.7429 16.9507C21.7429 16.9507 21.1553 15.9813 21.926 15.4978C22.2164 15.3568 22.4086 15.311 22.5103 15.2965C22.5645 15.2881 22.6086 15.2447 22.6199 15.1868L22.6922 14.8022C22.7069 14.7274 22.6617 14.6539 22.5905 14.6394L22.5916 14.6406Z" fill="#7F9AEC"/>
<path opacity="0.3" d="M20.8242 21.1344C19.5563 21.1344 18.9607 20.4701 18.9347 20.4399C18.8375 20.329 18.8432 20.1554 18.9472 20.0517C19.0511 19.9492 19.2127 19.954 19.3099 20.0637C19.3348 20.0915 19.867 20.6581 21.0514 20.5762C21.1938 20.5665 21.3158 20.681 21.3249 20.833C21.3339 20.9837 21.2265 21.1151 21.0841 21.1247C20.9949 21.1308 20.9079 21.1332 20.8242 21.1332V21.1344Z" fill="white"/>
<path d="M14.2171 21.3145C14.172 20.9711 14.2171 20.0776 14.2397 19.555C14.2447 19.438 14.152 19.3385 14.0317 19.3385H13.5606C13.4429 19.3385 13.3476 19.4355 13.3527 19.5525C13.3752 20.0751 13.4153 20.9686 13.3702 21.312C13.3326 21.7052 13.072 21.9765 13.072 21.9765C13.072 21.9765 13.0996 22.6559 13.1472 22.8973C13.1472 22.8973 13.518 22.7082 13.706 22.5489C13.7636 22.5016 13.8463 22.4991 13.9039 22.5489C14.0918 22.7082 14.4652 22.87 14.4652 22.87C14.5253 22.6883 14.5378 21.9964 14.5378 21.9964C14.5378 21.9964 14.2522 21.7077 14.2146 21.3145H14.2171Z" fill="#F5D4D7"/>
<path d="M13.1322 22.2104C13.037 21.3294 12.611 20.757 12.0197 20.8192C10.0803 21.0208 9.45891 24.2537 9.34115 24.9231C9.22338 25.5926 8.95026 27.7578 9.82724 27.8424C10.5614 27.9146 10.9448 27.0286 12.4557 27.0759C13.7386 27.1157 13.1322 22.2079 13.1322 22.2079V22.2104Z" fill="#FFA7A5"/>
<path d="M14.4827 22.2104C14.5779 21.3294 15.0039 20.757 15.5952 20.8192C17.5346 21.0208 18.156 24.2537 18.2763 24.9231C18.3941 25.5926 18.6672 27.7578 17.7902 27.8424C17.056 27.9146 16.6727 27.0286 15.1618 27.0759C13.8789 27.1157 14.4852 22.2079 14.4852 22.2079L14.4827 22.2104Z" fill="#FFA7A5"/>
<path d="M10.5889 26.6279C10.5213 26.6279 10.4561 26.598 10.411 26.5408C10.3384 26.4437 10.3559 26.3069 10.4536 26.2322C10.4787 26.2148 11.0525 25.7892 11.8217 25.839C11.9445 25.8464 12.0372 25.951 12.0297 26.0729C12.0222 26.1949 11.9169 26.2869 11.7942 26.2795C11.1953 26.2421 10.7267 26.5831 10.7217 26.5856C10.6816 26.6155 10.634 26.6304 10.5889 26.6304V26.6279Z" fill="#ED8E8B"/>
<path d="M17.0285 26.6279C16.9809 26.6279 16.9358 26.613 16.8957 26.5831C16.8907 26.5782 16.4221 26.2397 15.8232 26.277C15.7005 26.2845 15.5952 26.1924 15.5877 26.0705C15.5802 25.9485 15.6729 25.844 15.7957 25.8365C16.5649 25.7867 17.1387 26.2123 17.1638 26.2297C17.2615 26.3019 17.2815 26.4413 17.2064 26.5383C17.1638 26.5956 17.0961 26.6254 17.0285 26.6254V26.6279Z" fill="#ED8E8B"/>
<path d="M162.307 35.2314V28.9266H163.255L163.33 29.8327C163.53 29.4971 163.796 29.237 164.129 29.0525C164.461 28.8679 164.836 28.7756 165.252 28.7756C165.568 28.7756 165.859 28.8218 166.126 28.914C166.392 28.9979 166.625 29.1322 166.824 29.3167C167.024 29.4929 167.186 29.7194 167.311 29.9963C167.527 29.6104 167.827 29.3125 168.21 29.1028C168.592 28.8847 168.996 28.7756 169.42 28.7756C169.911 28.7756 170.336 28.8763 170.693 29.0776C171.059 29.2706 171.342 29.5684 171.542 29.9711C171.742 30.3738 171.842 30.8814 171.842 31.4938V35.2314H170.806V31.6071C170.806 30.9695 170.677 30.4913 170.419 30.1725C170.161 29.8453 169.795 29.6817 169.32 29.6817C168.988 29.6817 168.692 29.7698 168.434 29.946C168.176 30.1137 167.973 30.3654 167.823 30.701C167.673 31.0282 167.598 31.4309 167.598 31.9091V35.2314H166.55V31.6071C166.55 30.9695 166.421 30.4913 166.163 30.1725C165.905 29.8453 165.539 29.6817 165.065 29.6817C164.749 29.6817 164.457 29.7698 164.191 29.946C163.933 30.1137 163.729 30.3654 163.58 30.701C163.43 31.0282 163.355 31.4309 163.355 31.9091V35.2314H162.307Z" fill="#272A34"/>
<path d="M157.984 35.3824C157.393 35.3824 156.869 35.2481 156.412 34.9797C155.954 34.7028 155.592 34.3169 155.326 33.8219C155.068 33.3186 154.939 32.7397 154.939 32.0853C154.939 31.4141 155.068 30.8352 155.326 30.3487C155.584 29.8537 155.941 29.4678 156.399 29.1909C156.865 28.914 157.402 28.7756 158.009 28.7756C158.616 28.7756 159.136 28.914 159.569 29.1909C160.002 29.4678 160.33 29.8285 160.555 30.2732C160.788 30.7178 160.904 31.2044 160.904 31.7329C160.904 31.8168 160.904 31.9091 160.904 32.0098C160.904 32.1021 160.9 32.2069 160.892 32.3244H155.725V31.5064H159.869C159.844 30.9275 159.652 30.4787 159.294 30.1599C158.945 29.8327 158.508 29.6691 157.984 29.6691C157.626 29.6691 157.293 29.753 156.986 29.9208C156.678 30.0802 156.428 30.3151 156.237 30.6255C156.054 30.9359 155.962 31.326 155.962 31.7959V32.1482C155.962 32.66 156.058 33.092 156.249 33.4444C156.441 33.7968 156.69 34.061 156.998 34.2372C157.306 34.405 157.635 34.4889 157.984 34.4889C158.417 34.4889 158.774 34.3924 159.057 34.1995C159.349 33.9981 159.561 33.7254 159.694 33.3815H160.73C160.622 33.7674 160.443 34.1114 160.193 34.4134C159.943 34.707 159.631 34.9419 159.257 35.1181C158.891 35.2943 158.467 35.3824 157.984 35.3824Z" fill="#272A34"/>
<path d="M152.98 35.2314C152.605 35.2314 152.281 35.1727 152.006 35.0552C151.732 34.9378 151.52 34.7406 151.37 34.4638C151.228 34.1785 151.158 33.7968 151.158 33.3186V29.8202H150.072V28.9267H151.158L151.295 27.404H152.206V28.9267H154.028V29.8202H152.206V33.3186C152.206 33.7129 152.285 33.9814 152.443 34.124C152.601 34.2582 152.88 34.3253 153.279 34.3253H153.941V35.2314H152.98Z" fill="#272A34"/>
<path d="M146.908 35.3824C146.4 35.3824 145.951 35.2985 145.56 35.1307C145.177 34.9545 144.869 34.707 144.636 34.3882C144.403 34.0694 144.258 33.6961 144.2 33.2682H145.273C145.323 33.4947 145.414 33.7003 145.547 33.8848C145.681 34.0694 145.864 34.2162 146.097 34.3253C146.33 34.4344 146.604 34.4889 146.92 34.4889C147.22 34.4889 147.461 34.4469 147.644 34.363C147.836 34.2708 147.977 34.1533 148.069 34.0107C148.168 33.8597 148.218 33.6961 148.218 33.5199C148.218 33.2598 148.156 33.0627 148.031 32.9284C147.915 32.7942 147.74 32.6893 147.507 32.6138C147.274 32.5383 146.995 32.4712 146.671 32.4125C146.404 32.3621 146.138 32.295 145.872 32.2111C145.614 32.1188 145.377 32.0056 145.161 31.8714C144.953 31.7371 144.786 31.5693 144.661 31.368C144.537 31.1666 144.474 30.9233 144.474 30.6381C144.474 30.2773 144.566 29.9585 144.749 29.6817C144.94 29.3964 145.202 29.1741 145.535 29.0147C145.876 28.8553 146.28 28.7756 146.746 28.7756C147.411 28.7756 147.952 28.9392 148.368 29.2664C148.784 29.5936 149.029 30.0676 149.104 30.6884H148.069C148.027 30.3696 147.89 30.1221 147.657 29.946C147.432 29.7614 147.124 29.6691 146.733 29.6691C146.342 29.6691 146.043 29.7488 145.835 29.9082C145.635 30.0676 145.535 30.2773 145.535 30.5374C145.535 30.7052 145.593 30.852 145.71 30.9779C145.826 31.1037 145.993 31.2128 146.209 31.3051C146.434 31.389 146.704 31.4645 147.02 31.5316C147.428 31.6071 147.802 31.7078 148.143 31.8336C148.485 31.9511 148.759 32.1356 148.967 32.3873C149.183 32.6306 149.292 32.9788 149.292 33.4318C149.3 33.8177 149.204 34.1575 149.005 34.4511C148.805 34.7448 148.526 34.9755 148.168 35.1433C147.819 35.3027 147.399 35.3824 146.908 35.3824Z" fill="#272A34"/>
<path d="M138.654 38L140.189 34.5267H139.827L137.356 28.9267H138.492L140.551 33.7465L142.71 28.9267H143.796L139.752 38H138.654Z" fill="#272A34"/>
<path d="M134.354 35.3824C133.847 35.3824 133.398 35.2985 133.006 35.1307C132.624 34.9545 132.316 34.707 132.083 34.3882C131.85 34.0694 131.704 33.6961 131.646 33.2682H132.719C132.769 33.4947 132.861 33.7003 132.994 33.8848C133.127 34.0694 133.31 34.2162 133.543 34.3253C133.776 34.4344 134.051 34.4889 134.367 34.4889C134.666 34.4889 134.908 34.4469 135.091 34.363C135.282 34.2708 135.424 34.1533 135.515 34.0107C135.615 33.8597 135.665 33.6961 135.665 33.5199C135.665 33.2598 135.602 33.0627 135.478 32.9284C135.361 32.7942 135.186 32.6893 134.953 32.6138C134.72 32.5383 134.442 32.4712 134.117 32.4125C133.851 32.3621 133.585 32.295 133.318 32.2111C133.061 32.1188 132.823 32.0056 132.607 31.8714C132.399 31.7371 132.233 31.5693 132.108 31.368C131.983 31.1666 131.921 30.9233 131.921 30.6381C131.921 30.2773 132.012 29.9585 132.195 29.6817C132.387 29.3964 132.649 29.1741 132.982 29.0147C133.323 28.8553 133.726 28.7756 134.192 28.7756C134.858 28.7756 135.399 28.9392 135.815 29.2664C136.231 29.5936 136.476 30.0676 136.551 30.6884H135.515C135.473 30.3696 135.336 30.1221 135.103 29.946C134.879 29.7614 134.571 29.6691 134.18 29.6691C133.789 29.6691 133.489 29.7488 133.281 29.9082C133.081 30.0676 132.982 30.2773 132.982 30.5374C132.982 30.7052 133.04 30.852 133.156 30.9779C133.273 31.1037 133.439 31.2128 133.655 31.3051C133.88 31.389 134.151 31.4645 134.467 31.5316C134.874 31.6071 135.249 31.7078 135.59 31.8336C135.931 31.9511 136.206 32.1356 136.414 32.3873C136.63 32.6306 136.738 32.9788 136.738 33.4318C136.746 33.8177 136.651 34.1575 136.451 34.4511C136.251 34.7448 135.973 34.9755 135.615 35.1433C135.265 35.3027 134.845 35.3824 134.354 35.3824Z" fill="#272A34"/>
<path d="M127.406 35.3824C126.823 35.3824 126.299 35.2481 125.833 34.9797C125.367 34.7028 124.997 34.3169 124.722 33.8219C124.456 33.3269 124.323 32.7481 124.323 32.0853C124.323 31.4141 124.46 30.8311 124.735 30.3361C125.009 29.8411 125.38 29.4594 125.846 29.1909C126.32 28.914 126.848 28.7756 127.431 28.7756C128.021 28.7756 128.55 28.914 129.016 29.1909C129.482 29.4594 129.848 29.8411 130.114 30.3361C130.38 30.8227 130.513 31.4057 130.513 32.0853C130.513 32.7481 130.376 33.3269 130.101 33.8219C129.835 34.3169 129.465 34.7028 128.991 34.9797C128.525 35.2481 127.996 35.3824 127.406 35.3824ZM127.406 34.4763C127.772 34.4763 128.109 34.3882 128.417 34.212C128.724 34.0359 128.97 33.7674 129.153 33.4066C129.344 33.0459 129.44 32.6012 129.44 32.0727C129.44 31.5442 129.348 31.1037 129.165 30.7514C128.982 30.399 128.737 30.1347 128.429 29.9585C128.121 29.774 127.788 29.6817 127.431 29.6817C127.081 29.6817 126.748 29.774 126.432 29.9585C126.124 30.1347 125.875 30.399 125.683 30.7514C125.492 31.1037 125.396 31.5484 125.396 32.0853C125.396 32.6054 125.492 33.0459 125.683 33.4066C125.875 33.7674 126.12 34.0359 126.42 34.212C126.728 34.3882 127.056 34.4763 127.406 34.4763Z" fill="#272A34"/>
<path d="M120.301 35.3824C119.71 35.3824 119.177 35.2439 118.703 34.9671C118.237 34.6902 117.867 34.3043 117.592 33.8093C117.326 33.3144 117.193 32.7397 117.193 32.0853C117.193 31.4225 117.326 30.8436 117.592 30.3487C117.867 29.8537 118.237 29.4678 118.703 29.1909C119.177 28.914 119.71 28.7756 120.301 28.7756C121.05 28.7756 121.669 28.9728 122.16 29.3671C122.66 29.753 122.98 30.269 123.121 30.9149H122.048C121.956 30.529 121.748 30.227 121.424 30.0089C121.099 29.7908 120.721 29.6817 120.288 29.6817C119.939 29.6817 119.61 29.774 119.302 29.9585C118.994 30.1347 118.745 30.399 118.553 30.7514C118.362 31.1037 118.266 31.5484 118.266 32.0853C118.266 32.4712 118.321 32.8152 118.429 33.1172C118.545 33.4192 118.695 33.6751 118.878 33.8848C119.069 34.0862 119.286 34.2372 119.527 34.3379C119.777 34.4386 120.03 34.4889 120.288 34.4889C120.579 34.4889 120.846 34.4427 121.087 34.3505C121.328 34.2498 121.532 34.1072 121.699 33.9226C121.873 33.7296 121.99 33.5031 122.048 33.243H123.121C122.988 33.8807 122.668 34.3966 122.16 34.7909C121.661 35.1852 121.041 35.3824 120.301 35.3824Z" fill="#272A34"/>
<path d="M110.461 35.2314V26.4224H115.865V27.2907H111.509V30.3613H115.491V31.217H111.509V34.3631H115.865V35.2314H110.461Z" fill="#272A34"/>
<path d="M99.9291 35.2314V28.9266H100.878L100.94 30.034C101.14 29.6397 101.427 29.3335 101.801 29.1154C102.176 28.8889 102.6 28.7756 103.074 28.7756C103.557 28.7756 103.977 28.8763 104.335 29.0776C104.692 29.2706 104.971 29.5684 105.171 29.9711C105.371 30.3654 105.47 30.873 105.47 31.4938V35.2314H104.422V31.6071C104.422 30.9695 104.285 30.4913 104.01 30.1725C103.736 29.8453 103.345 29.6817 102.837 29.6817C102.479 29.6817 102.159 29.7698 101.876 29.946C101.601 30.1137 101.381 30.3612 101.215 30.6884C101.056 31.0156 100.977 31.4183 100.977 31.8965V35.2314H99.9291Z" fill="#272A34"/>
<path d="M95.6066 35.3824C95.0159 35.3824 94.4917 35.2481 94.0341 34.9797C93.5765 34.7028 93.2145 34.3169 92.9483 33.8219C92.6904 33.3186 92.5614 32.7397 92.5614 32.0853C92.5614 31.4141 92.6904 30.8352 92.9483 30.3487C93.2062 29.8537 93.564 29.4678 94.0216 29.1909C94.4875 28.914 95.0242 28.7756 95.6316 28.7756C96.239 28.7756 96.759 28.914 97.1916 29.1909C97.6243 29.4678 97.9529 29.8285 98.1776 30.2732C98.4105 30.7178 98.527 31.2044 98.527 31.7329C98.527 31.8168 98.527 31.9091 98.527 32.0098C98.527 32.1021 98.5229 32.2069 98.5145 32.3244H93.3477V31.5064H97.4912C97.4662 30.9275 97.2748 30.4787 96.9171 30.1599C96.5676 29.8327 96.1308 29.6691 95.6066 29.6691C95.2488 29.6691 94.916 29.753 94.6082 29.9208C94.3003 30.0802 94.0507 30.3151 93.8594 30.6255C93.6763 30.9359 93.5848 31.326 93.5848 31.7959V32.1482C93.5848 32.66 93.6805 33.092 93.8718 33.4444C94.0632 33.7968 94.3128 34.061 94.6207 34.2372C94.9285 34.405 95.2572 34.4889 95.6066 34.4889C96.0393 34.4889 96.397 34.3924 96.6799 34.1995C96.9711 33.9981 97.1833 33.7254 97.3164 33.3815H98.3523C98.2441 33.7674 98.0652 34.1114 97.8156 34.4134C97.566 34.707 97.254 34.9419 96.8796 35.1181C96.5135 35.2943 96.0892 35.3824 95.6066 35.3824Z" fill="#272A34"/>
<path d="M84.9989 37.9999V28.9266H85.9474L86.0473 29.9585C86.1804 29.7572 86.3509 29.5684 86.5589 29.3922C86.767 29.2077 87.0166 29.0609 87.3078 28.9518C87.599 28.8343 87.936 28.7756 88.3187 28.7756C88.9261 28.7756 89.4544 28.9224 89.9037 29.2161C90.3613 29.5013 90.7191 29.8914 90.977 30.3864C91.2349 30.8814 91.3639 31.4519 91.3639 32.0979C91.3639 32.7271 91.2349 33.2892 90.977 33.7842C90.7191 34.2792 90.3613 34.6693 89.9037 34.9545C89.4461 35.2398 88.9136 35.3824 88.3062 35.3824C87.7987 35.3824 87.3494 35.2775 86.9583 35.0678C86.5673 34.858 86.2636 34.5644 86.0473 34.1869V37.9999H84.9989ZM88.1939 34.4637C88.6016 34.4637 88.9635 34.3672 89.2797 34.1743C89.5958 33.9729 89.8413 33.6961 90.016 33.3437C90.1991 32.983 90.2906 32.5635 90.2906 32.0853C90.2906 31.6071 90.1991 31.1876 90.016 30.8269C89.8413 30.4661 89.5958 30.1893 89.2797 29.9963C88.9635 29.7949 88.6016 29.6943 88.1939 29.6943C87.7779 29.6943 87.4076 29.7949 87.0831 29.9963C86.767 30.1893 86.5173 30.4661 86.3343 30.8269C86.1596 31.1876 86.0722 31.6071 86.0722 32.0853C86.0722 32.5635 86.1596 32.983 86.3343 33.3437C86.5173 33.6961 86.767 33.9729 87.0831 34.1743C87.4076 34.3672 87.7779 34.4637 88.1939 34.4637Z" fill="#272A34"/>
<path d="M79.2789 35.3825C78.4302 35.3825 77.6856 35.1937 77.0449 34.8162C76.4126 34.4303 75.9134 33.8975 75.5473 33.218C75.1895 32.5301 75.0106 31.733 75.0106 30.827C75.0106 29.9293 75.1895 29.1407 75.5473 28.4611C75.9134 27.7732 76.4126 27.2363 77.0449 26.8503C77.6856 26.4644 78.4302 26.2715 79.2789 26.2715C80.1359 26.2715 80.8806 26.4644 81.5129 26.8503C82.1536 27.2363 82.6486 27.7732 82.9981 28.4611C83.3558 29.1407 83.5347 29.9293 83.5347 30.827C83.5347 31.733 83.3558 32.5301 82.9981 33.218C82.6486 33.8975 82.1536 34.4303 81.5129 34.8162C80.8806 35.1937 80.1359 35.3825 79.2789 35.3825ZM79.2789 34.4513C79.9112 34.4513 80.4687 34.3086 80.9513 34.0234C81.4339 33.7298 81.8041 33.3145 82.062 32.7775C82.3283 32.2322 82.4614 31.582 82.4614 30.827C82.4614 30.0719 82.3283 29.4259 82.062 28.889C81.8041 28.3437 81.4339 27.9284 80.9513 27.6431C80.4687 27.3579 79.9112 27.2153 79.2789 27.2153C78.6466 27.2153 78.0891 27.3579 77.6065 27.6431C77.1323 27.9284 76.7579 28.3437 76.4833 28.889C76.2171 29.4259 76.0839 30.0719 76.0839 30.827C76.0839 31.582 76.2171 32.2322 76.4833 32.7775C76.7579 33.3145 77.1323 33.7298 77.6065 34.0234C78.0891 34.3086 78.6466 34.4513 79.2789 34.4513Z" fill="#272A34"/>
<path d="M68.089 35.3824C67.5814 35.3824 67.1321 35.2985 66.7411 35.1307C66.3584 34.9545 66.0505 34.707 65.8175 34.3882C65.5846 34.0694 65.439 33.6961 65.3807 33.2682H66.454C66.504 33.4947 66.5955 33.7003 66.7286 33.8848C66.8617 34.0694 67.0448 34.2162 67.2778 34.3253C67.5107 34.4344 67.7853 34.4889 68.1015 34.4889C68.401 34.4889 68.6423 34.4469 68.8253 34.363C69.0167 34.2708 69.1581 34.1533 69.2497 34.0107C69.3495 33.8597 69.3994 33.6961 69.3994 33.5199C69.3994 33.2598 69.337 33.0627 69.2122 32.9284C69.0957 32.7942 68.921 32.6893 68.688 32.6138C68.4551 32.5383 68.1763 32.4712 67.8519 32.4125C67.5856 32.3621 67.3194 32.295 67.0531 32.2111C66.7952 32.1188 66.5581 32.0056 66.3417 31.8714C66.1337 31.7371 65.9673 31.5693 65.8425 31.368C65.7177 31.1666 65.6553 30.9233 65.6553 30.6381C65.6553 30.2773 65.7468 29.9585 65.9299 29.6817C66.1212 29.3964 66.3833 29.1741 66.7161 29.0147C67.0573 28.8553 67.4608 28.7756 67.9267 28.7756C68.5924 28.7756 69.1332 28.9392 69.5492 29.2664C69.9652 29.5936 70.2106 30.0676 70.2855 30.6884H69.2497C69.208 30.3696 69.0708 30.1221 68.8378 29.946C68.6132 29.7614 68.3053 29.6691 67.9143 29.6691C67.5232 29.6691 67.2237 29.7488 67.0157 29.9082C66.816 30.0676 66.7161 30.2773 66.7161 30.5374C66.7161 30.7052 66.7744 30.852 66.8909 30.9779C67.0073 31.1037 67.1738 31.2128 67.3901 31.3051C67.6147 31.389 67.8851 31.4645 68.2013 31.5316C68.609 31.6071 68.9834 31.7078 69.3245 31.8336C69.6657 31.9511 69.9402 32.1356 70.1482 32.3873C70.3646 32.6306 70.4727 32.9788 70.4727 33.4318C70.481 33.8177 70.3854 34.1575 70.1857 34.4511C69.986 34.7448 69.7073 34.9755 69.3495 35.1433C69 35.3027 68.5799 35.3824 68.089 35.3824Z" fill="#272A34"/>
<path d="M55.2621 35.2314V26.4224H56.4852L59.5928 32.5761L62.7004 26.4224H63.9359V35.2314H62.8876V28.3101L59.9921 33.9856H59.2059L56.3104 28.3352V35.2314H55.2621Z" fill="#272A34"/>
<path d="M46.4252 35.2314L49.6451 26.4224H50.7559L53.9633 35.2314H52.8526L50.1942 27.7438L47.5234 35.2314H46.4252ZM47.8979 32.9663L48.1974 32.1105H52.1537L52.4532 32.9663H47.8979Z" fill="#272A34"/>
<path d="M38.3575 35.2314V26.4224H39.4059L44.0611 33.4822V26.4224H45.1094V35.2314H44.0611L39.4059 28.1716V35.2314H38.3575Z" fill="#272A34"/>
<path d="M164.301 23.5787C163.471 23.5787 162.725 23.4714 162.065 23.2566C161.426 23.0419 160.851 22.752 160.34 22.3869C159.85 22.0004 159.435 21.5709 159.094 21.0984L158.615 23.1922H154.781V0H159.094V9.21245C159.605 8.46085 160.276 7.8381 161.107 7.34419C161.959 6.82881 163.013 6.57112 164.269 6.57112C165.76 6.57112 167.08 6.94692 168.23 7.69852C169.402 8.42864 170.318 9.43793 170.978 10.7264C171.659 11.9934 172 13.4536 172 15.1071C172 16.7177 171.659 18.1672 170.978 19.4557C170.318 20.7441 169.412 21.7534 168.262 22.4835C167.112 23.2137 165.792 23.5787 164.301 23.5787ZM163.279 19.7778C164.131 19.7778 164.876 19.5845 165.515 19.198C166.175 18.79 166.686 18.2424 167.049 17.5552C167.411 16.8465 167.592 16.0305 167.592 15.1071C167.592 14.1837 167.411 13.3677 167.049 12.6591C166.686 11.9289 166.175 11.3706 165.515 10.9841C164.876 10.5761 164.131 10.3721 163.279 10.3721C162.448 10.3721 161.703 10.5761 161.043 10.9841C160.404 11.3706 159.893 11.9182 159.509 12.6269C159.147 13.3355 158.966 14.1515 158.966 15.0749C158.966 15.9983 159.147 16.8251 159.509 17.5552C159.893 18.2638 160.404 18.8114 161.043 19.198C161.703 19.5845 162.448 19.7778 163.279 19.7778Z" fill="#272A34"/>
<path d="M141.102 23.5789C139.803 23.5789 138.685 23.3104 137.748 22.7736C136.832 22.2152 136.129 21.41 135.64 20.3577C135.15 19.284 134.905 17.9633 134.905 16.3957V6.95779H139.217V15.9448C139.217 17.2547 139.484 18.2425 140.016 18.9082C140.57 19.5739 141.411 19.9068 142.54 19.9068C143.264 19.9068 143.903 19.7457 144.456 19.4236C145.01 19.08 145.447 18.5968 145.766 17.9741C146.107 17.3298 146.277 16.546 146.277 15.6226V6.95779H150.558V23.1923H146.788L146.437 20.551C145.969 21.4744 145.276 22.2152 144.361 22.7736C143.445 23.3104 142.359 23.5789 141.102 23.5789Z" fill="#272A34"/>
<path d="M126.475 23.1922V0.644272H130.788V23.1922H126.475ZM112.387 23.1922V0.644272H116.7V23.1922H112.387ZM116.093 13.4322V9.92115H127.21V13.4322H116.093Z" fill="#272A34"/>
<path d="M84.2789 23.1922V0.644272H89.4221L96.2584 14.7206L103.031 0.644272H108.174V23.1922H103.861V8.05289L97.9515 20.0355H94.5334L88.5916 8.05289V23.1922H84.2789Z" fill="#272A34"/>
<path d="M60.1288 23.1922L68.3068 0.644272H73.1944L81.3405 23.1922H76.7723L70.7346 5.60482L64.665 23.1922H60.1288ZM63.7386 18.0706L64.8886 14.6884H76.2612L77.3793 18.0706H63.7386Z" fill="#272A34"/>
<path d="M38.3575 23.1922V0.644272H42.6702L52.9566 16.2024V0.644272H57.2692V23.1922H52.9566L42.6702 7.66635V23.1922H38.3575Z" fill="#272A34"/>
</svg>
