<svg width="111" height="137" viewBox="0 0 111 137" fill="none" xmlns="http://www.w3.org/2000/svg">
<path d="M49.5391 60.9333C49.0108 60.7166 48.6354 60.2188 48.6245 59.625L47.3621 3.31774C47.3523 2.80622 47.6124 2.31806 48.0568 2.02557C48.5013 1.73307 49.0668 1.67578 49.5526 1.87504L59.929 6.13105C60.4714 6.35353 60.8263 6.85927 60.8431 7.42825L62.3849 63.2662C62.4077 64.0886 61.7324 64.794 60.8718 64.8339C60.0112 64.8739 59.2988 64.2433 59.2782 63.4163L57.7663 8.51836L50.5217 5.54689L51.7295 59.4906C51.7454 60.3157 51.0676 61.0145 50.2092 61.0499C49.9685 61.0603 49.7419 61.0165 49.5391 60.9333Z" fill="#679EC1"/>
<path d="M45.3232 110.577C45.0748 110.473 44.8645 110.299 44.721 110.067L39.7906 102.073L30.2846 104.07C29.7309 104.186 29.1672 103.952 28.8802 103.486C28.5931 103.021 28.6545 102.44 29.0268 102.036L35.4857 95.0968L30.5553 87.1029C30.2683 86.6371 30.3297 86.0561 30.7019 85.653C31.0742 85.2499 31.6786 85.1219 32.1993 85.3382L41.1229 89.045L47.5818 82.1054C47.9541 81.7022 48.5585 81.5743 49.0792 81.7906C49.6 82.0069 49.9079 82.5138 49.8557 83.0499L48.9096 92.2795L57.8332 95.9864C58.3491 96.2007 58.6618 96.7096 58.6096 97.2457C58.5527 97.7798 58.1453 98.2225 57.5936 98.3345L48.0876 100.332L47.1415 109.561C47.0845 110.095 46.6771 110.538 46.1254 110.65C45.8486 110.708 45.5716 110.68 45.3232 110.577ZM34.8311 89.139L38.2112 94.6207C38.4982 95.0865 38.4369 95.6674 38.0646 96.0706L33.6351 100.826L40.1531 99.4561C40.7068 99.3396 41.2705 99.5737 41.5575 100.04L44.9376 105.521L45.5837 99.194C45.6407 98.6599 46.0481 98.2172 46.5998 98.1052L53.1178 96.7352L47.0031 94.1952C46.4872 93.9809 46.1744 93.4719 46.2266 92.9358L46.8706 86.6131L42.4432 91.3642C42.0709 91.7673 41.4665 91.8953 40.9458 91.679L34.8311 89.139Z" fill="#EB8231"/>
<path d="M33.3957 116.024C20.9562 110.857 15.2514 97.0181 20.677 85.1709C26.1027 73.3237 40.6357 67.886 53.0753 73.0533C65.5148 78.2207 71.2223 92.0662 65.7966 103.913C60.3709 115.761 45.8352 121.192 33.3957 116.024ZM52.0335 75.3281C40.9124 70.7085 27.9183 75.5671 23.0656 86.1631C18.2129 96.7591 23.3164 109.13 34.4375 113.75C45.5585 118.369 58.5575 113.513 63.4081 102.921C68.2587 92.3297 63.1593 79.9498 52.0335 75.3281Z" fill="#EB8231"/>
<path d="M68.3492 78.6649L65.5084 77.4828C65.5448 77.4043 69.1622 69.6991 70.8326 65.9133C71.1564 65.1783 71.2032 64.5658 70.9826 64.0303C70.6327 63.1892 69.6254 62.633 69.2704 62.5093L69.223 62.4898C69.0569 62.4217 52.7898 55.6257 49.3024 54.3155C48.6485 54.0692 48.2361 54.1911 47.9819 54.301C46.9786 54.7352 46.2197 56.165 46.0337 56.627L45.9973 56.7055L41.085 67.3014L38.2378 66.1331L43.1331 55.5741C43.3254 55.0982 44.4376 52.5775 46.7346 51.57C47.9186 51.0507 49.2214 51.0305 50.496 51.5096C54.0023 52.8275 69.555 59.3249 70.4972 59.717C70.8716 59.8596 72.9799 60.7577 73.8584 62.81C74.4061 64.0894 74.3526 65.545 73.6938 67.0269C72.0084 70.845 68.376 78.5826 68.3418 78.6564L68.3492 78.6649Z" fill="#6DB56D"/>
<path d="M63.1369 68.2784C62.9341 68.1952 62.7457 68.0688 62.5901 67.8959C62.0336 67.2801 62.1171 66.3375 62.771 65.7871L105.635 29.9199L98.3853 26.9465L54.5664 63.2514C53.9099 63.7953 52.9317 63.7379 52.3773 63.1176C51.8277 62.4992 51.9112 61.5566 52.5698 61.0082L97.1395 24.0889C97.5965 23.7088 98.23 23.6139 98.7724 23.8364L109.149 28.0924C109.635 28.2916 109.975 28.7203 110.049 29.2256C110.124 29.7309 109.92 30.2423 109.515 30.5836L64.7719 68.0213C64.3016 68.4178 63.6583 68.4977 63.13 68.281L63.1369 68.2784Z" fill="#679EC1"/>
<path d="M46.5301 67.5787C45.7371 67.2493 45.3762 66.3737 45.722 65.6185L48.2307 60.1408C48.5766 59.3855 49.4959 59.0418 50.2889 59.3712L64.5389 65.2906C65.3319 65.62 65.6929 66.4955 65.347 67.2508L62.9321 72.5238C62.5862 73.279 61.6669 73.6228 60.8739 73.2933C60.0809 72.9639 59.72 72.0884 60.0658 71.3331L61.8556 67.425L50.4719 62.6963L48.5883 66.8091C48.2424 67.5643 47.3231 67.9081 46.5301 67.5787Z" fill="#6DB56D"/>
<path d="M30.9268 121.415C15.3678 114.952 8.22529 97.6353 15.0137 82.8127C21.802 67.99 39.9828 61.1922 55.5466 67.6573C71.1103 74.1224 78.248 91.4374 71.4597 106.26C64.6713 121.083 46.4905 127.881 30.9268 121.415ZM54.5027 69.9366C40.2574 64.0192 23.6134 70.2425 17.4001 83.8094C11.1868 97.3763 17.7212 113.228 31.9665 119.145C46.2118 125.063 62.8558 118.839 69.0691 105.272C75.2823 91.7055 68.7479 75.8541 54.5027 69.9366Z" fill="#EB8231"/>
</svg>
