<svg width="455" height="134" viewBox="0 0 455 134" fill="none" xmlns="http://www.w3.org/2000/svg">
<path d="M395.883 59.5137C395.374 59.2915 395.007 58.7905 394.989 58.198L393.087 2.00958C393.072 1.49915 393.315 1.01515 393.738 0.728475C394.161 0.441801 394.703 0.391172 395.172 0.595563L405.181 4.96119C405.704 5.1894 406.051 5.69803 406.074 6.26586L408.238 61.9893C408.27 62.8101 407.631 63.506 406.806 63.5359C405.98 63.5658 405.289 62.9285 405.259 62.1032L403.135 7.31789L396.147 4.26989L397.967 58.0997C397.993 58.9231 397.351 59.6124 396.528 59.6378C396.297 59.6454 396.079 59.5991 395.883 59.5137Z" fill="#679EC1"/>
<path d="M391.569 109.282C391.333 109.179 391.133 109.005 390.996 108.772L386.3 100.778L377.247 102.775C376.72 102.891 376.183 102.657 375.909 102.191C375.636 101.726 375.694 101.145 376.049 100.742L382.2 93.8019L377.505 85.808C377.231 85.3422 377.29 84.7612 377.644 84.3581C377.999 83.9549 378.575 83.827 379.07 84.0433L387.569 87.7501L393.72 80.8104C394.075 80.4073 394.651 80.2793 395.147 80.4956C395.643 80.7119 395.936 81.2189 395.886 81.755L394.985 90.9846L403.484 94.6914C403.975 94.9058 404.273 95.4147 404.223 95.9508C404.169 96.4849 403.781 96.9276 403.256 97.0396L394.202 99.0366L393.301 108.266C393.247 108.8 392.859 109.243 392.333 109.355C392.07 109.413 391.806 109.385 391.569 109.282ZM381.577 87.8441L384.796 93.3257C385.069 93.7915 385.011 94.3725 384.656 94.7756L380.438 99.5313L386.645 98.1612C387.173 98.0447 387.71 98.2788 387.983 98.7446L391.202 104.226L391.818 97.8991C391.872 97.365 392.26 96.9223 392.785 96.8103L398.993 95.4403L393.169 92.9003C392.678 92.6859 392.38 92.177 392.43 91.6409L393.043 85.3182L388.827 90.0693C388.472 90.4724 387.896 90.6004 387.4 90.3841L381.577 87.8441Z" fill="#EB8231"/>
<path d="M380.21 114.729C368.362 109.562 362.929 95.7231 368.097 83.876C373.264 72.0288 387.105 66.5911 398.952 71.7584C410.799 76.9257 416.235 90.7712 411.068 102.618C405.9 114.466 392.057 119.897 380.21 114.729ZM397.96 74.0332C387.368 69.4136 374.993 74.2721 370.371 84.8682C365.75 95.4642 370.61 107.835 381.202 112.455C391.793 117.074 404.173 112.218 408.793 101.626C413.412 91.0347 408.556 78.6548 397.96 74.0332Z" fill="#EB8231"/>
<path d="M413.692 77.37L410.968 76.1657C411.002 76.0884 414.358 68.4928 415.906 64.7596C416.205 64.0348 416.243 63.4283 416.026 62.8951C415.682 62.0573 414.714 61.4945 414.374 61.3678L414.329 61.348C414.169 61.2785 398.571 54.3562 395.229 53.0176C394.603 52.7659 394.211 52.882 393.97 52.988C393.018 53.4069 392.312 54.8154 392.14 55.2712L392.106 55.3485L387.55 65.7944L384.82 64.6038L389.361 54.1943C389.538 53.7248 390.568 51.2391 392.747 50.2669C393.87 49.7657 395.112 49.7607 396.334 50.2501C399.694 51.5966 414.607 58.2148 415.51 58.6143C415.869 58.76 417.891 59.6743 418.754 61.7185C419.292 62.9929 419.258 64.435 418.648 65.8962C417.087 69.6612 413.717 77.2887 413.685 77.3615L413.692 77.37Z" fill="#6DB56D"/>
<path d="M408.68 66.7251C408.484 66.6398 408.302 66.5115 408.151 66.3372C407.609 65.7165 407.678 64.7771 408.298 64.2356L448.989 28.9477L441.996 25.8977L400.394 61.6112C399.771 62.1462 398.832 62.0776 398.292 61.4524C397.757 60.8292 397.826 59.8898 398.451 59.3502L440.766 23.0326C441.2 22.6586 441.806 22.5713 442.33 22.7995L452.339 27.1651C452.807 27.3695 453.139 27.8011 453.217 28.3061C453.294 28.811 453.105 29.3188 452.72 29.6546L410.246 66.4875C409.799 66.8776 409.183 66.9499 408.673 66.7277L408.68 66.7251Z" fill="#679EC1"/>
<path d="M392.719 66.2838C391.964 65.9543 391.62 65.0788 391.95 64.3236L394.339 58.8458C394.668 58.0906 395.544 57.7469 396.299 58.0763L409.87 63.9957C410.626 64.3251 410.969 65.2006 410.64 65.9559L408.34 71.2289C408.011 71.9841 407.135 72.3278 406.38 71.9984C405.625 71.669 405.281 70.7935 405.61 70.0382L407.315 66.1301L396.473 61.4013L394.679 65.5142C394.35 66.2694 393.474 66.6132 392.719 66.2838Z" fill="#6DB56D"/>
<path d="M377.858 120.12C363.04 113.657 356.238 96.3403 362.703 81.5177C369.168 66.6951 386.483 59.8973 401.306 66.3624C416.128 72.8275 422.926 90.1425 416.461 104.965C409.996 119.788 392.681 126.586 377.858 120.12ZM400.312 68.6417C386.745 62.7243 370.893 68.9476 364.976 82.5145C359.058 96.0814 365.282 111.933 378.849 117.85C392.416 123.768 408.267 117.544 414.184 103.977C420.102 90.4106 413.879 74.5591 400.312 68.6417Z" fill="#EB8231"/>
<path d="M25.1934 32.0966L9.65118 51.5741L1.00004 28.7508L25.1934 32.0966Z" stroke="#679EC1" stroke-width="2" stroke-linecap="round" stroke-linejoin="round"/>
<path d="M341.239 52L352.239 30" stroke="#6DB56D" stroke-width="2" stroke-linejoin="bevel"/>
<path d="M347.239 58L358.239 46" stroke="#6DB56D" stroke-width="2" stroke-linejoin="bevel"/>
</svg>
