<svg width="219" height="42" viewBox="0 0 219 42" fill="none" xmlns="http://www.w3.org/2000/svg">
<rect width="219" height="42" fill="#1E1E1E"/>
<g clip-path="url(#clip0_0_1)">
<rect width="1512" height="7412" transform="translate(-830 -664)" fill="white"/>
<path d="M10.2054 24.2035L9.87441 24.7433C9.97111 24.801 10.0816 24.8324 10.1946 24.8343C10.3076 24.8361 10.4191 24.8084 10.5177 24.754C10.6163 24.6995 10.6985 24.6202 10.756 24.5242C10.8134 24.4282 10.8441 24.3189 10.8447 24.2074L10.2054 24.2035ZM10.2706 13.367L10.9099 13.3705C10.9106 13.2588 10.8812 13.1489 10.8247 13.0521C10.7682 12.9553 10.6867 12.875 10.5885 12.8195L10.2706 13.367ZM0.639383 7.92327L0.957282 7.37646C0.860017 7.32147 0.749807 7.29268 0.637705 7.29297C0.525602 7.29326 0.415547 7.32262 0.318576 7.37811C0.221605 7.4336 0.141127 7.51327 0.0852122 7.60912C0.0292973 7.70497 -8.90319e-05 7.81364 2.02622e-07 7.92424L0.639383 7.92327ZM0.656664 18.5041H0.0172808C0.0173083 18.6127 0.0457443 18.7194 0.0998369 18.814C0.15393 18.9085 0.231847 18.9877 0.32605 19.0439L0.656664 18.5041ZM10.8444 24.2071L10.9096 13.3705L9.63085 13.3631L9.56564 24.1997L10.8444 24.2071ZM10.5868 12.8205L0.957282 7.37614L0.321485 8.46976L9.95071 13.9144L10.5868 12.8205ZM2.02622e-07 7.92424L0.0172808 18.5051L1.29605 18.5032L1.27877 7.92231L2.02622e-07 7.92424ZM0.32605 19.0439L9.87409 24.7433L10.536 23.6641L0.987604 17.9644L0.32605 19.0439Z" fill="#679EC1"/>
<path d="M9.95499 23.6576C9.80716 23.7396 9.6984 23.8761 9.65263 24.0372C9.60687 24.1983 9.62784 24.3707 9.71094 24.5166C9.79404 24.6624 9.93246 24.7697 10.0958 24.8149C10.259 24.86 10.4338 24.8393 10.5817 24.7573L9.95499 23.6576ZM18.6687 19.5478L18.9827 20.0972C19.1274 20.0136 19.233 19.8772 19.2768 19.7175C19.3205 19.5578 19.299 19.3876 19.2167 19.2434C19.1344 19.0993 18.998 18.9928 18.8369 18.9469C18.6758 18.901 18.5028 18.9194 18.3553 18.9981L18.6687 19.5478ZM15.5024 20.5835C15.4292 20.6242 15.3648 20.6787 15.313 20.7439C15.2612 20.8091 15.2228 20.8838 15.2002 20.9636C15.1776 21.0434 15.1712 21.1269 15.1813 21.2092C15.1914 21.2914 15.2178 21.3709 15.259 21.4432C15.3002 21.5154 15.3555 21.5789 15.4216 21.63C15.4877 21.6812 15.5634 21.719 15.6443 21.7412C15.7252 21.7635 15.8098 21.7699 15.8932 21.76C15.9766 21.75 16.0572 21.7239 16.1304 21.6833L15.5024 20.5835ZM10.5817 24.7573L18.982 20.0975L18.3553 18.9981L9.95499 23.6576L10.5817 24.7573ZM18.3547 18.9997L15.5027 20.5839L16.1304 21.6833L18.9827 20.0975L18.3547 18.9997Z" fill="#679EC1"/>
<path d="M19.8216 40.7607L19.4903 41.3004C19.587 41.3582 19.6975 41.3896 19.8105 41.3916C19.9235 41.3935 20.035 41.3659 20.1337 41.3114C20.2323 41.257 20.3146 41.1777 20.3721 41.0817C20.4296 40.9857 20.4602 40.8764 20.4609 40.7648L19.8216 40.7607ZM19.891 29.9241L20.5304 29.928C20.5311 29.8162 20.5017 29.7063 20.4452 29.6094C20.3888 29.5125 20.3072 29.4322 20.2089 29.3766L19.891 29.9241ZM10.2556 24.4804L10.5735 23.9336C10.4762 23.8786 10.366 23.8498 10.2538 23.8501C10.1417 23.8504 10.0316 23.8798 9.93465 23.9353C9.83767 23.9908 9.75719 24.0706 9.7013 24.1665C9.64541 24.2624 9.61607 24.3711 9.61621 24.4817L10.2556 24.4804ZM10.2787 35.0613H9.63936C9.6396 35.1695 9.66807 35.2759 9.72203 35.3701C9.77599 35.4643 9.85363 35.5433 9.94748 35.5994L10.2787 35.0613ZM20.4606 40.7648L20.5301 29.9283L19.2513 29.9202L19.1819 40.7568L20.4606 40.7648ZM20.2086 29.3782L10.5735 23.9329L9.93802 25.0266L19.5731 30.4716L20.2086 29.3782ZM9.61621 24.4817L9.63936 35.0625L10.9181 35.06L10.895 24.4791L9.61621 24.4817ZM9.94748 35.6007L19.49 41.3004L20.1525 40.2219L10.61 34.5215L9.94748 35.6007Z" fill="#679EC1"/>
<path d="M31.4603 24.613L32.0994 24.6281C32.1021 24.5166 32.0748 24.4064 32.0202 24.3087C31.9657 24.211 31.8859 24.1293 31.7889 24.0719C31.6919 24.0146 31.5813 23.9836 31.4682 23.9822C31.3552 23.9808 31.2437 24.009 31.1453 24.0639L31.4603 24.613ZM21.8542 29.9773L21.5393 29.4282C21.4407 29.4832 21.3588 29.5631 21.3018 29.6596C21.2448 29.7561 21.2148 29.8659 21.2148 29.9776L21.8542 29.9773ZM21.8601 40.8691H21.2207C21.2207 40.9798 21.2502 41.0885 21.3062 41.1844C21.3623 41.2802 21.4429 41.3598 21.54 41.4152C21.637 41.4706 21.7472 41.4999 21.8594 41.5C21.9715 41.5001 22.0818 41.4711 22.179 41.416L21.8601 40.8691ZM31.1936 35.5689L31.5128 36.1157C31.6079 36.0617 31.6874 35.9845 31.7434 35.8914C31.7995 35.7983 31.8304 35.6926 31.833 35.5843L31.1936 35.5689ZM31.1453 24.0639L21.5393 29.4282L22.1692 30.526L31.7753 25.1621L31.1453 24.0639ZM21.2148 29.9776L21.2207 40.8708H22.4995L22.4936 29.9769L21.2148 29.9776ZM22.179 41.416L31.5128 36.1154L30.8747 35.0218L21.5409 40.3239L22.179 41.416ZM31.833 35.584L32.0997 24.6281L30.8212 24.5979L30.5545 35.5538L31.833 35.584Z" fill="#6DB56D"/>
<path d="M31.1356 24.9001C31.2819 24.9846 31.4563 25.0084 31.6204 24.9662C31.7845 24.9239 31.9248 24.8191 32.0106 24.6747C32.0963 24.5304 32.1204 24.3584 32.0776 24.1965C32.0347 24.0346 31.9285 23.8962 31.7822 23.8116L31.1356 24.9001ZM23.1454 19.548L23.4686 19.0038C23.3222 18.9192 23.1479 18.8954 22.9838 18.9377C22.8197 18.9799 22.6793 19.0848 22.5936 19.2291C22.5079 19.3735 22.4838 19.5455 22.5266 19.7074C22.5694 19.8692 22.6757 20.0077 22.822 20.0923L23.1454 19.548ZM25.6456 21.7234C25.7918 21.8055 25.9649 21.8275 26.1274 21.7845C26.2899 21.7416 26.4287 21.6372 26.5137 21.494C26.5987 21.3508 26.6231 21.1804 26.5815 21.0195C26.54 20.8587 26.4359 20.7205 26.2918 20.6349L25.6456 21.7234ZM31.7822 23.8113L23.4689 19.0038L22.822 20.0923L31.1356 24.9001L31.7822 23.8113ZM22.8223 20.0923L25.6456 21.7231L26.2918 20.6346L23.4686 19.0038L22.8223 20.0923Z" fill="#6DB56D"/>
<path d="M41.2748 8.16897L41.9138 8.18409C41.9165 8.07263 41.8892 7.96246 41.8347 7.8648C41.7801 7.76713 41.7004 7.68548 41.6034 7.62814C41.5065 7.5708 41.3959 7.53983 41.2829 7.53838C41.1699 7.53694 41.0585 7.56507 40.9601 7.61991L41.2748 8.16897ZM31.6687 13.5274L31.3553 12.9784C31.2565 13.0332 31.1742 13.113 31.1169 13.2095C31.0596 13.306 31.0294 13.4159 31.0293 13.5278L31.6687 13.5274ZM31.6745 24.4251H31.0352C31.0351 24.5358 31.0646 24.6446 31.1207 24.7405C31.1767 24.8364 31.2574 24.916 31.3545 24.9714C31.4516 25.0269 31.5618 25.0561 31.6741 25.0562C31.7863 25.0562 31.8965 25.0272 31.9938 24.9719L31.6745 24.4251ZM41.008 19.1178L41.3272 19.6646C41.4223 19.6106 41.5016 19.5333 41.5577 19.4402C41.6137 19.3472 41.6445 19.2414 41.6471 19.1332L41.008 19.1178ZM40.9601 7.61991L31.3553 12.9784L31.9846 14.0765L41.5894 8.71804L40.9601 7.61991ZM31.0293 13.5278L31.0352 24.4267H32.3139L32.3081 13.5271L31.0293 13.5278ZM31.9938 24.9719L41.3276 19.6646L40.6888 18.571L31.3553 23.8799L31.9938 24.9719ZM41.6474 19.1342L41.9141 8.18409L40.6357 8.15386L40.369 19.104L41.6474 19.1342Z" fill="#6DB56D"/>
<path d="M21.2399 6.48779L20.935 5.93325C20.8353 5.98663 20.7518 6.06523 20.693 6.16097C20.6343 6.25671 20.6024 6.36616 20.6007 6.47807C20.5989 6.58998 20.6274 6.70034 20.6832 6.7978C20.739 6.89526 20.8201 6.97633 20.9181 7.03267L21.2399 6.48779ZM30.7765 11.9656L30.4547 12.5108C30.5519 12.5666 30.6622 12.5962 30.7746 12.5965C30.8871 12.5969 30.9976 12.568 31.0951 12.5127L30.7765 11.9656ZM40.4002 6.5103L40.7188 7.05712C40.8162 7.00183 40.8972 6.92217 40.9535 6.82617C41.0098 6.73017 41.0394 6.62121 41.0394 6.5103C41.0394 6.39939 41.0098 6.29044 40.9535 6.19444C40.8972 6.09844 40.8162 6.01878 40.7188 5.96349L40.4002 6.5103ZM31.0491 1.23709L31.3663 0.690272C31.2718 0.636987 31.1651 0.608398 31.0562 0.607216C30.9473 0.606034 30.8399 0.632297 30.7442 0.683517L31.0491 1.23709ZM20.9181 7.03267L30.4547 12.5108L31.0993 11.4204L21.5617 5.94258L20.9181 7.03267ZM31.0951 12.5124L40.7178 7.05744L40.0807 5.96381L30.458 11.4188L31.0951 12.5124ZM40.7178 5.96285L31.3663 0.689629L30.7319 1.78326L40.083 7.05647L40.7178 5.96285ZM30.7442 0.682552L20.935 5.93325L21.5461 7.042L31.354 1.79162L30.7442 0.682552Z" fill="#EB8231"/>
<path d="M21.6471 6.6107C21.6479 6.52787 21.6321 6.4457 21.6007 6.36888C21.5693 6.29206 21.5228 6.2221 21.464 6.16299C21.3452 6.04361 21.1832 5.97568 21.0136 5.97415C20.9296 5.97339 20.8463 5.98895 20.7685 6.01995C20.6906 6.05094 20.6197 6.09677 20.5598 6.1548C20.4387 6.27201 20.3699 6.43183 20.3683 6.59912L21.6471 6.6107ZM20.9207 16.0661L20.2813 16.0606C20.2798 16.2279 20.3457 16.3889 20.4645 16.5083C20.5833 16.6276 20.7454 16.6955 20.915 16.697C21.0845 16.6985 21.2478 16.6335 21.3687 16.5162C21.4897 16.399 21.5585 16.2392 21.56 16.0719L20.9207 16.0661ZM21.5891 12.8611C21.5906 12.6938 21.5247 12.5328 21.4058 12.4134C21.287 12.2941 21.125 12.2262 20.9554 12.2247C20.7858 12.2232 20.6226 12.2882 20.5016 12.4055C20.3806 12.5227 20.3118 12.6826 20.3103 12.8499L21.5891 12.8611ZM20.3683 6.59912L20.2813 16.0606L21.56 16.0722L21.6471 6.6107L20.3683 6.59912ZM21.56 16.0719L21.5891 12.8614L20.3103 12.8502L20.2813 16.0606L21.56 16.0719Z" fill="#EB8231"/>
<path d="M1.79666 6.38061L1.4918 5.82608C1.39202 5.87946 1.30844 5.95809 1.24966 6.05388C1.19087 6.14967 1.15899 6.25918 1.1573 6.37115C1.1556 6.48311 1.18416 6.59351 1.24002 6.69099C1.29589 6.78847 1.37705 6.86952 1.47517 6.92582L1.79666 6.38061ZM11.3392 11.8584L11.0177 12.4036C11.1148 12.4593 11.2251 12.4888 11.3375 12.4891C11.4498 12.4894 11.5603 12.4605 11.6577 12.4052L11.3392 11.8584ZM20.9628 6.40313L21.2814 6.94994C21.3788 6.89465 21.4598 6.81499 21.5161 6.71899C21.5724 6.62299 21.602 6.51404 21.602 6.40313C21.602 6.29222 21.5724 6.18327 21.5161 6.08726C21.4598 5.99126 21.3788 5.9116 21.2814 5.85631L20.9628 6.40313ZM11.6059 1.12991L11.9231 0.583094C11.8286 0.529809 11.7218 0.50122 11.6129 0.500038C11.5041 0.498856 11.3967 0.52512 11.301 0.57634L11.6059 1.12991ZM1.47517 6.92582L11.0173 12.4036L11.6606 11.3132L2.11814 5.8354L1.47517 6.92582ZM11.6561 12.4052L21.2811 6.95026L20.644 5.85663L11.0206 11.3116L11.6561 12.4052ZM21.2798 5.85567L11.9228 0.582129L11.2886 1.67769L20.6462 6.95091L21.2798 5.85567ZM11.301 0.575375L1.4918 5.82608L2.10282 6.93482L11.9107 1.68444L11.301 0.575375Z" fill="#EB8231"/>
<path d="M57.6804 13.9522C57.6182 14.092 57.5178 14.212 57.3905 14.2989C57.2715 14.369 57.1349 14.4045 56.9963 14.4012C56.8136 14.3917 56.637 14.3327 56.4861 14.2307C56.2967 14.1171 56.0725 13.9884 55.8134 13.8447C55.5242 13.6897 55.2215 13.5605 54.909 13.4587C54.5132 13.3369 54.1001 13.2793 53.6856 13.2883C53.3106 13.2804 52.9366 13.3302 52.5771 13.4359C52.2877 13.5236 52.0184 13.6661 51.7844 13.8557C51.5766 14.0217 51.4116 14.234 51.3032 14.4752C51.1961 14.7349 51.1428 15.0131 51.1467 15.2935C51.1349 15.6383 51.2508 15.9756 51.4727 16.2423C51.7117 16.513 52.0036 16.7333 52.3309 16.8902C52.7228 17.0818 53.13 17.2414 53.5484 17.3675C54.0048 17.5077 54.4686 17.6578 54.9396 17.8178C55.4137 17.9816 55.8782 18.1714 56.3309 18.3862C56.7757 18.5905 57.1863 18.8607 57.5483 19.1874C57.9129 19.5219 58.2047 19.9259 58.4062 20.375C58.6372 20.9137 58.7483 21.495 58.7322 22.0797C58.7372 22.7794 58.6074 23.4736 58.3498 24.1255C58.1017 24.7501 57.7216 25.3153 57.2347 25.7836C56.7225 26.28 56.112 26.6669 55.4414 26.92C54.6666 27.2042 53.8447 27.343 53.0182 27.3292C52.4986 27.3305 51.9802 27.281 51.4704 27.1815C50.9709 27.0826 50.4818 26.938 50.0094 26.7495C49.5521 26.5681 49.1137 26.3434 48.7003 26.0786C48.3081 25.8287 47.9446 25.5375 47.6162 25.2101L48.5031 23.7723C48.5874 23.6685 48.6895 23.58 48.8047 23.5108C48.9231 23.4389 49.0598 23.4015 49.1989 23.4027C49.4225 23.4147 49.637 23.494 49.8135 23.6301C50.0339 23.7817 50.2929 23.9503 50.5904 24.1358C50.9245 24.3379 51.2779 24.5073 51.6455 24.6414C52.1144 24.8043 52.6096 24.8814 53.1066 24.8688C53.8302 24.9098 54.5445 24.6919 55.1183 24.2551C55.3627 24.0359 55.5541 23.7653 55.6782 23.4633C55.8024 23.1613 55.8562 22.8357 55.8356 22.5104C55.851 22.139 55.7359 21.7736 55.5095 21.4763C55.2752 21.1937 54.9827 20.9635 54.6514 20.8008C54.2624 20.6072 53.8545 20.453 53.4339 20.3406C52.9774 20.2155 52.5155 20.0772 52.0482 19.9256C51.5755 19.776 51.1127 19.5976 50.6625 19.3913C50.2142 19.1883 49.8029 18.9138 49.445 18.5788C49.0773 18.2205 48.7887 17.791 48.5973 17.3173C48.364 16.7256 48.2531 16.0938 48.2712 15.4591C48.2732 14.86 48.3985 14.2675 48.6395 13.7176C48.8805 13.1677 49.2322 12.6718 49.6733 12.2599C50.1641 11.81 50.7389 11.4585 51.3658 11.2252C52.0957 10.953 52.8712 10.8196 53.6514 10.8321C54.5656 10.8216 55.4745 10.9717 56.3354 11.2753C57.112 11.5474 57.8241 11.9728 58.4283 12.5256L57.6804 13.9522Z" fill="#3C4A63"/>
<path d="M70.1943 27.1337H68.9302C68.7149 27.1431 68.5004 27.1022 68.3042 27.0144C68.2183 26.9621 68.1439 26.8934 68.0851 26.8125C68.0264 26.7315 67.9846 26.6399 67.9621 26.5428L67.7127 25.7303C67.4367 25.9761 67.1464 26.2057 66.8431 26.418C66.5665 26.6103 66.2717 26.7759 65.9628 26.9124C65.6526 27.0482 65.3279 27.1492 64.9948 27.2135C64.6127 27.2856 64.2243 27.3199 63.8353 27.3157C63.3739 27.3206 62.9145 27.2555 62.4731 27.1228C62.0794 27.0091 61.7142 26.8155 61.4007 26.5544C61.0949 26.2871 60.8546 25.9547 60.6981 25.5823C60.5234 25.1528 60.4383 24.6929 60.448 24.2301C60.453 23.7818 60.5727 23.342 60.7959 22.9515C61.0783 22.4818 61.4773 22.0907 61.9553 21.8151C62.623 21.423 63.3493 21.1373 64.1073 20.9685C65.2005 20.7238 66.3199 20.6112 67.4408 20.6334V19.9283C67.4893 19.3201 67.3145 18.715 66.9481 18.2235C66.7658 18.03 66.5423 17.8787 66.2937 17.7804C66.0451 17.6821 65.7776 17.6394 65.5102 17.6552C65.1178 17.6418 64.7258 17.6936 64.3508 17.8086C64.0769 17.9007 63.8128 18.0193 63.5624 18.1624L62.9429 18.5162C62.7512 18.6199 62.5355 18.6728 62.3169 18.6697C62.1433 18.6747 61.9727 18.6249 61.8298 18.5275C61.6942 18.4323 61.5811 18.3093 61.4982 18.1669L60.9938 17.3145C62.3159 16.1194 64.0533 15.4719 65.8461 15.5062C66.4708 15.4958 67.0914 15.6079 67.672 15.8359C68.1866 16.0396 68.6511 16.3497 69.0342 16.7452C69.4133 17.1472 69.7021 17.6235 69.8819 18.1431C70.0806 18.7173 70.1787 19.3207 70.1718 19.9273L70.1943 27.1337ZM64.7388 25.4289C65.0061 25.4297 65.2728 25.4029 65.5344 25.3488C65.7729 25.2986 66.0045 25.2204 66.2243 25.1159C66.4454 25.01 66.6551 24.8824 66.8503 24.7351C67.056 24.5706 67.2497 24.3921 67.43 24.2008V22.2867C66.7427 22.277 66.0559 22.3283 65.3779 22.4401C64.9205 22.5127 64.4744 22.6424 64.0502 22.8261C63.7643 22.9476 63.5177 23.1442 63.3371 23.3944C63.199 23.5977 63.1263 23.8374 63.1285 24.0821C63.1096 24.2787 63.1399 24.4768 63.2167 24.6591C63.2935 24.8414 63.4144 25.0024 63.5689 25.1278C63.9084 25.3416 64.3082 25.443 64.7101 25.4173L64.7388 25.4289Z" fill="#3C4A63"/>
<path d="M77.0773 15.5051C77.5508 15.5014 78.0233 15.5509 78.4855 15.6527C78.9056 15.7448 79.3113 15.8919 79.6919 16.0901H83.0485V17.113C83.0572 17.2602 83.0072 17.4049 82.9093 17.5164C82.7803 17.6298 82.6178 17.6995 82.4457 17.7151L81.4023 17.9027C81.4789 18.1016 81.5371 18.3071 81.5761 18.5164C81.6197 18.7411 81.6415 18.9695 81.6413 19.1983C81.6488 19.7296 81.5296 20.2551 81.2934 20.7326C81.0619 21.1758 80.7348 21.5635 80.3352 21.8687C79.9042 22.2008 79.4149 22.4516 78.8917 22.6085C78.3042 22.7874 77.6921 22.8756 77.0773 22.87C76.6452 22.8701 76.2141 22.8282 75.7903 22.7449C75.4271 22.9608 75.2455 23.2032 75.2455 23.4721C75.2456 23.579 75.2762 23.6837 75.3339 23.7742C75.3915 23.8647 75.4739 23.9372 75.5716 23.9836C75.8407 24.1059 76.1289 24.1828 76.4239 24.211C76.8221 24.2588 77.2229 24.2816 77.6241 24.2792C78.0725 24.2792 78.5305 24.2981 78.998 24.3361C79.4597 24.3715 79.9186 24.4359 80.372 24.5291C80.7935 24.6127 81.1987 24.7624 81.5722 24.9723C81.93 25.1831 82.2259 25.4825 82.4303 25.8408C82.6625 26.2475 82.7754 26.7099 82.7564 27.1763C82.7531 27.6933 82.6204 28.2014 82.37 28.6556C82.0983 29.152 81.7229 29.5858 81.2686 29.9284C80.7359 30.3256 80.1378 30.6293 79.5005 30.8261C78.7278 31.0649 77.9214 31.18 77.1118 31.1671C76.3313 31.1806 75.5521 31.0966 74.793 30.9172C74.2187 30.7821 73.6708 30.5552 73.1709 30.2456C72.7781 29.9933 72.4518 29.6524 72.2191 29.251C72.0125 28.9068 71.9021 28.5146 71.8993 28.1146C71.8846 27.6193 72.063 27.1373 72.3978 26.7678C72.7818 26.3721 73.2572 26.0741 73.7835 25.8993C73.5028 25.751 73.2637 25.5363 73.0877 25.2744C72.9016 24.9699 72.8109 24.618 72.8269 24.2628C72.8294 24.0828 72.861 23.9044 72.9205 23.7343C72.9839 23.5322 73.0776 23.3406 73.1986 23.1659C73.3324 22.9781 73.4902 22.8082 73.6681 22.6603C73.8733 22.4894 74.0993 22.3443 74.3407 22.2283C73.7748 21.9378 73.2953 21.5069 72.9495 20.978C72.6041 20.4294 72.4288 19.7931 72.4451 19.1475C72.4351 18.6272 72.5484 18.1118 72.7758 17.6422C73.0032 17.1727 73.3386 16.7619 73.7551 16.4427C74.1928 16.1075 74.6906 15.8565 75.2224 15.7029C75.8272 15.5462 76.4524 15.4795 77.0773 15.5051ZM80.1555 27.6202C80.1615 27.5169 80.1467 27.4135 80.1119 27.3159C80.0771 27.2184 80.023 27.1286 79.9527 27.0518C79.7913 26.8936 79.5918 26.7783 79.373 26.7167C79.1055 26.63 78.8296 26.5709 78.5497 26.5404C78.2169 26.5014 77.8819 26.4824 77.5468 26.4835H76.4568C76.0917 26.4838 75.7278 26.4418 75.3727 26.3583C75.0851 26.5152 74.8311 26.7256 74.6247 26.9779C74.4344 27.2046 74.3317 27.4905 74.3349 27.7849C74.3334 27.9841 74.3854 28.1802 74.4855 28.3533C74.6046 28.5433 74.7727 28.6987 74.9726 28.8036C75.2448 28.947 75.5383 29.0467 75.8422 29.0992C76.2724 29.1767 76.7091 29.2129 77.1464 29.2073C77.5996 29.2134 78.0523 29.1734 78.4972 29.0879C78.8256 29.0266 79.1424 28.9154 79.4362 28.7582C79.6571 28.6409 79.843 28.4684 79.9752 28.258C80.0929 28.0655 80.1552 27.845 80.1555 27.6202ZM77.0773 21.1421C77.3868 21.1474 77.6949 21.0993 77.9876 20.9999C78.2275 20.9178 78.4469 20.7862 78.6312 20.6139C78.8013 20.4548 78.9339 20.2608 79.0195 20.0455C79.1098 19.8036 79.1549 19.5475 79.1529 19.2897C79.1657 19.0431 79.1264 18.7966 79.0376 18.5658C78.9489 18.3349 78.8125 18.1248 78.6371 17.9487C78.1859 17.6266 77.6431 17.4533 77.0862 17.4533C76.5293 17.4533 75.9866 17.6266 75.5354 17.9487C75.36 18.1248 75.2236 18.3349 75.1348 18.5658C75.046 18.7966 75.0068 19.0431 75.0196 19.2897C75.0179 19.5441 75.063 19.7967 75.1526 20.0352C75.2398 20.2497 75.3721 20.4434 75.5409 20.6036C75.7253 20.7799 75.947 20.9138 76.1901 20.9957C76.4753 21.0937 76.7753 21.1432 77.0773 21.1421Z" fill="#3C4A63"/>
<path d="M89.7479 15.5219C90.44 15.5149 91.1276 15.6324 91.777 15.8686C92.3794 16.0858 92.9272 16.4289 93.3827 16.8744C93.8424 17.3379 94.1979 17.8917 94.4261 18.4997C94.6872 19.2034 94.815 19.9484 94.803 20.6976C94.8145 20.8698 94.8145 21.0426 94.803 21.2148C94.7912 21.3287 94.7557 21.439 94.6987 21.5387C94.6527 21.6126 94.5842 21.6702 94.5031 21.7034C94.401 21.7404 94.2928 21.7578 94.1842 21.7546H86.9361C86.9313 22.7035 87.2752 23.622 87.9041 24.34C88.1995 24.6186 88.5491 24.8353 88.9318 24.9769C89.3144 25.1186 89.7221 25.1822 90.1304 25.1641C90.5225 25.1711 90.9134 25.1194 91.2898 25.0107C91.5872 24.9195 91.8761 24.8035 92.1535 24.664L92.803 24.3172C92.966 24.2205 93.1518 24.1676 93.342 24.1638C93.4449 24.1603 93.547 24.1839 93.6377 24.232C93.7225 24.2779 93.7958 24.342 93.8523 24.4195L94.6697 25.4195C94.3689 25.7681 94.0173 26.0707 93.6263 26.3173C93.2457 26.5516 92.8392 26.7423 92.4147 26.8856C91.9971 27.0297 91.566 27.1324 91.1278 27.1925C90.7072 27.2515 90.283 27.2819 89.8582 27.2835C89.0861 27.2894 88.3197 27.1545 87.5973 26.8856C86.9118 26.6299 86.2907 26.2307 85.7767 25.7154C85.2405 25.1675 84.8258 24.5154 84.5592 23.8006C84.2471 22.9527 84.0953 22.0554 84.1115 21.1534C84.1082 20.4032 84.2407 19.6585 84.5028 18.9542C84.746 18.2891 85.122 17.6788 85.6084 17.1594C86.0976 16.642 86.6896 16.2296 87.3476 15.9481C88.1083 15.6406 88.9263 15.4954 89.7479 15.5219ZM89.806 17.4936C89.4561 17.4743 89.1059 17.5247 88.7762 17.6419C88.4465 17.759 88.1442 17.9405 87.8872 18.1755C87.3903 18.7068 87.0814 19.3828 87.0068 20.1019H92.2823C92.2838 19.7592 92.233 19.4182 92.1317 19.0903C92.0399 18.7863 91.886 18.5039 91.6795 18.2608C91.469 18.0165 91.2054 17.8223 90.9084 17.6924C90.5593 17.5495 90.1834 17.4819 89.8057 17.4939L89.806 17.4936Z" fill="#3C4A63"/>
<path d="M98.0752 27.1323V11.3622H102.713C103.516 11.3485 104.317 11.4382 105.096 11.6292C105.699 11.7753 106.265 12.0423 106.759 12.4134C107.19 12.7472 107.529 13.1831 107.744 13.6807C107.97 14.2209 108.081 14.8012 108.07 15.3855C108.071 15.7969 107.997 16.2051 107.85 16.5901C107.699 16.9806 107.48 17.3425 107.205 17.6599C106.91 17.9979 106.562 18.2859 106.173 18.5123C105.741 18.7709 105.273 18.963 104.783 19.0819C105.855 19.1905 106.867 19.6231 107.681 20.3206C108.023 20.6472 108.29 21.0414 108.466 21.4773C108.642 21.9131 108.722 22.3808 108.702 22.8495C108.711 23.4706 108.587 24.0865 108.337 24.6565C108.098 25.1737 107.741 25.629 107.293 25.9863C106.788 26.3794 106.209 26.6692 105.589 26.8386C104.834 27.0474 104.053 27.147 103.27 27.1343L98.0752 27.1323ZM99.2346 18.7394H102.713C103.36 18.7546 104.005 18.6604 104.62 18.4608C105.099 18.3045 105.54 18.0553 105.919 17.7278C106.242 17.4426 106.496 17.0891 106.661 16.6936C106.818 16.315 106.899 15.9096 106.899 15.5003C106.93 15.0463 106.853 14.5915 106.674 14.1722C106.495 13.7529 106.219 13.3807 105.868 13.0853C105.183 12.5398 104.124 12.267 102.69 12.267H99.2115L99.2346 18.7394ZM99.2346 19.5757V26.2175H103.292C104.434 26.2991 105.569 25.9813 106.498 25.3198C106.861 25.008 107.146 24.6186 107.333 24.1814C107.52 23.7441 107.603 23.2705 107.576 22.7967C107.583 22.3339 107.484 21.8755 107.286 21.4557C107.093 21.0567 106.807 20.7082 106.452 20.4387C106.051 20.1415 105.597 19.9231 105.113 19.7954C104.523 19.6398 103.914 19.5652 103.304 19.5737L99.2346 19.5757Z" fill="#3C4A63"/>
<path d="M114.103 12.203C114.103 12.333 114.073 12.4614 114.015 12.578C113.959 12.6917 113.884 12.7954 113.794 12.8849C113.702 12.9741 113.594 13.0455 113.475 13.0952C113.353 13.1464 113.222 13.1727 113.09 13.1727C112.957 13.1727 112.826 13.1464 112.704 13.0952C112.585 13.0456 112.477 12.9742 112.385 12.8849C112.296 12.7962 112.223 12.6923 112.171 12.578C112.117 12.4601 112.09 12.3322 112.091 12.203C112.091 12.0702 112.119 11.9389 112.172 11.817C112.273 11.5789 112.465 11.3893 112.705 11.2882C112.827 11.237 112.959 11.2107 113.091 11.2107C113.223 11.2107 113.355 11.237 113.477 11.2882C113.595 11.338 113.703 11.4094 113.795 11.4985C113.888 11.5905 113.963 11.6983 114.016 11.8167C114.073 11.9376 114.103 12.0695 114.103 12.203ZM113.627 16.0274V27.1365H112.547V16.05L113.627 16.0274Z" fill="#3C4A63"/>
<path d="M122.051 15.8657C122.798 15.8537 123.54 15.993 124.23 16.2748C124.851 16.528 125.406 16.9167 125.852 17.4119C126.309 17.9386 126.652 18.5514 126.861 19.2132C127.323 20.7503 127.323 22.3867 126.861 23.9238C126.651 24.5881 126.306 25.203 125.846 25.7309C125.401 26.227 124.846 26.6155 124.225 26.8663C122.824 27.401 121.272 27.401 119.871 26.8663C119.247 26.6148 118.69 26.2262 118.241 25.7299C117.784 25.2056 117.44 24.5944 117.232 23.9341C116.769 22.3971 116.769 20.7604 117.232 19.2235C117.44 18.5612 117.783 17.9481 118.241 17.4222C118.691 16.9276 119.248 16.5392 119.871 16.2858C120.561 16.0002 121.303 15.8572 122.051 15.8657ZM122.051 26.4408C122.648 26.4497 123.241 26.3335 123.79 26.0998C124.286 25.8803 124.719 25.5448 125.054 25.1223C125.406 24.6658 125.663 24.144 125.807 23.588C126.151 22.2777 126.165 20.9044 125.848 19.5876C125.703 19.0281 125.447 18.5026 125.094 18.042C124.76 17.6165 124.327 17.2774 123.831 17.0539C122.698 16.5961 121.427 16.5961 120.294 17.0539C119.798 17.2777 119.364 17.617 119.03 18.0427C118.673 18.5029 118.411 19.0281 118.259 19.5882C117.918 20.9063 117.918 22.2876 118.259 23.6057C118.407 24.1615 118.665 24.683 119.019 25.14C119.353 25.5623 119.787 25.8978 120.282 26.1175C120.841 26.3517 121.444 26.4645 122.051 26.4482V26.4408Z" fill="#3C4A63"/>
<path d="M130.152 27.1374V16.0509H130.732C130.773 16.0462 130.815 16.0498 130.855 16.0614C130.895 16.073 130.932 16.0924 130.964 16.1185C130.996 16.1444 131.022 16.1765 131.041 16.2128C131.06 16.249 131.071 16.2888 131.074 16.3295L131.178 18.0001C131.675 17.3773 132.287 16.8529 132.981 16.4546C133.688 16.0621 134.489 15.8652 135.3 15.8846C135.861 15.8739 136.419 15.9723 136.941 16.1741C137.39 16.3566 137.788 16.6435 138.1 17.0104C138.424 17.3961 138.665 17.8427 138.808 18.3231C138.974 18.8879 139.054 19.4739 139.045 20.062V27.1374H137.967V20.0513C138.019 19.1761 137.761 18.3103 137.237 17.6023C136.96 17.295 136.615 17.0551 136.229 16.9013C135.843 16.7475 135.426 16.684 135.01 16.7158C134.281 16.7137 133.565 16.9103 132.941 17.2838C132.276 17.685 131.698 18.21 131.236 18.8294V27.1374H130.152Z" fill="#3C4A63"/>
<path d="M146.832 15.8657C147.438 15.8595 148.038 15.9695 148.601 16.1896C149.134 16.4001 149.614 16.7219 150.009 17.133C150.424 17.5715 150.742 18.0901 150.943 18.6561C151.177 19.3226 151.291 20.0247 151.279 20.7301C151.29 20.8468 151.263 20.9639 151.204 21.0653C151.175 21.0968 151.139 21.1214 151.098 21.1371C151.058 21.1529 151.015 21.1595 150.972 21.1563H142.809V21.366C142.797 22.1076 142.896 22.8468 143.105 23.5594C143.274 24.1401 143.56 24.6813 143.945 25.1506C144.301 25.5719 144.755 25.9028 145.267 26.1156C145.818 26.3391 146.41 26.4493 147.006 26.4395C147.505 26.449 148.003 26.3878 148.484 26.2578C148.848 26.155 149.199 26.0159 149.534 25.8428C149.769 25.72 149.996 25.5814 150.212 25.4279C150.315 25.3358 150.441 25.273 150.577 25.2461C150.621 25.2445 150.665 25.2541 150.705 25.274C150.745 25.2939 150.778 25.3234 150.803 25.3597L151.099 25.7177C150.892 25.9621 150.647 26.173 150.374 26.3427C150.059 26.543 149.723 26.7088 149.371 26.8371C148.994 26.9784 148.607 27.0886 148.212 27.1667C147.793 27.249 147.368 27.2909 146.942 27.2919C146.217 27.3002 145.497 27.1649 144.826 26.894C144.199 26.6416 143.639 26.2532 143.185 25.7576C142.686 25.2119 142.309 24.5693 142.077 23.8711C141.817 23.0598 141.691 22.2123 141.706 21.3615C141.699 20.6145 141.817 19.8714 142.055 19.1624C142.266 18.5228 142.606 17.9315 143.053 17.4235C143.497 16.9336 144.045 16.5457 144.658 16.2871C145.345 15.9971 146.086 15.8535 146.832 15.8657ZM146.832 16.6557C146.298 16.6472 145.767 16.7377 145.267 16.9227C144.817 17.0923 144.408 17.354 144.067 17.6905C143.721 18.0384 143.444 18.4469 143.249 18.8951C143.033 19.3966 142.895 19.9272 142.838 20.4692H150.288C150.295 19.927 150.211 19.3873 150.038 18.8725C149.89 18.4296 149.651 18.0214 149.336 17.6734C149.033 17.3475 148.661 17.0914 148.247 16.9233C147.803 16.7459 147.328 16.657 146.85 16.6618L146.832 16.6557Z" fill="#3C4A63"/>
<path d="M157.386 27.3165C157.061 27.3361 156.735 27.2908 156.429 27.1834C156.122 27.076 155.84 26.9087 155.6 26.6915C155.369 26.4285 155.194 26.1226 155.084 25.7918C154.975 25.461 154.933 25.1119 154.962 24.7651V17.1847H153.339C153.265 17.1866 153.194 17.1624 153.136 17.1165C153.11 17.0931 153.088 17.0642 153.074 17.0318C153.06 16.9993 153.054 16.9642 153.055 16.9289V16.514L154.985 16.3776L155.258 12.4013C155.266 12.3343 155.297 12.2719 155.345 12.2238C155.37 12.1973 155.401 12.1765 155.435 12.1627C155.469 12.149 155.505 12.1426 155.542 12.144H156.046V16.3776H159.606V17.1676H156.046V24.7024C156.041 24.9687 156.083 25.2339 156.168 25.4866C156.233 25.6984 156.346 25.8928 156.499 26.0549C156.636 26.1951 156.805 26.3021 156.991 26.3676C157.189 26.4364 157.397 26.471 157.606 26.4699C157.847 26.4749 158.087 26.4344 158.313 26.3505C158.491 26.2819 158.662 26.1963 158.823 26.0948C158.947 26.0174 159.065 25.932 159.177 25.8391C159.234 25.7774 159.309 25.7355 159.392 25.7198C159.428 25.7244 159.463 25.737 159.494 25.7566C159.525 25.7763 159.552 25.8025 159.571 25.8333L159.867 26.2994C159.56 26.6236 159.187 26.8794 158.771 27.0495C158.333 27.2319 157.861 27.3228 157.386 27.3165Z" fill="#3C4A63"/>
<path d="M160.932 16.05H161.79C161.884 16.0468 161.977 16.077 162.051 16.1352C162.113 16.1818 162.162 16.2448 162.19 16.317L165.042 25.0689C165.093 25.2292 165.136 25.3921 165.17 25.5569L165.263 26.0229C165.303 25.8695 165.344 25.7103 165.39 25.5569C165.437 25.4034 165.488 25.2387 165.547 25.0683L168.584 16.243C168.599 16.1714 168.639 16.1074 168.698 16.0625C168.756 16.018 168.829 15.9952 168.903 15.9982H169.327C169.402 15.9944 169.477 16.0172 169.537 16.0625C169.598 16.1072 169.64 16.1716 169.657 16.2443L172.648 25.0689C172.757 25.3876 172.848 25.712 172.92 26.0406C172.951 25.8854 172.984 25.7282 173.018 25.5691C173.056 25.4014 173.105 25.2363 173.163 25.0747L176.028 16.3228C176.051 16.2407 176.102 16.1691 176.173 16.1204C176.244 16.0718 176.33 16.049 176.416 16.0561H177.211L173.384 27.1365H172.59C172.469 27.1365 172.382 27.0571 172.329 26.9036L169.246 17.8854C169.207 17.7756 169.172 17.6639 169.142 17.5502C169.111 17.4366 169.084 17.3248 169.06 17.215C169.037 17.3248 169.012 17.4366 168.985 17.5502C168.958 17.6635 168.926 17.7754 168.887 17.8854L165.751 26.8917C165.741 26.956 165.709 27.0148 165.659 27.0574C165.609 27.1001 165.545 27.1239 165.479 27.1246H164.717L160.932 16.05Z" fill="#3C4A63"/>
<path d="M183.712 15.8657C184.459 15.8537 185.201 15.9929 185.892 16.2749C186.513 16.5276 187.068 16.9162 187.515 17.4113C187.972 17.9379 188.315 18.5508 188.524 19.2125C188.986 20.7496 188.986 22.3861 188.524 23.9232C188.314 24.583 187.971 25.1939 187.515 25.719C187.07 26.2157 186.514 26.6045 185.892 26.8554C184.491 27.3901 182.939 27.3901 181.538 26.8554C180.914 26.6039 180.357 26.2152 179.908 25.719C179.451 25.1947 179.107 24.5835 178.899 23.9232C178.436 22.3862 178.436 20.7495 178.899 19.2125C179.107 18.5503 179.45 17.9372 179.908 17.4113C180.358 16.9166 180.915 16.5283 181.538 16.2749C182.227 15.9937 182.967 15.8545 183.712 15.8657ZM183.712 26.4408C184.31 26.4497 184.902 26.3335 185.451 26.0998C185.948 25.8831 186.384 25.55 186.721 25.1294C187.073 24.6728 187.33 24.1511 187.474 23.5951C187.807 22.2761 187.807 20.8966 187.474 19.5776C187.33 19.0181 187.074 18.4927 186.721 18.0321C186.387 17.6063 185.953 17.2669 185.457 17.0433C184.324 16.5855 183.054 16.5855 181.921 17.0433C181.424 17.2669 180.991 17.606 180.657 18.0314C180.31 18.4979 180.06 19.0269 179.921 19.5885C179.58 20.9066 179.58 22.288 179.921 23.606C180.069 24.1618 180.327 24.6833 180.68 25.1403C181.014 25.5625 181.448 25.8979 181.944 26.1175C182.502 26.3517 183.105 26.4644 183.712 26.4482V26.4408Z" fill="#3C4A63"/>
<path d="M191.813 27.1344V16.0479H192.393C192.493 16.0394 192.592 16.0677 192.671 16.1274C192.737 16.2009 192.772 16.2963 192.769 16.3943L192.862 18.7357C193.164 17.924 193.664 17.1981 194.318 16.6221C194.948 16.1007 195.752 15.8274 196.574 15.8549C196.892 15.853 197.21 15.8893 197.519 15.963C197.803 16.0331 198.076 16.1366 198.334 16.2711L198.184 17.0042C198.181 17.0304 198.173 17.0558 198.16 17.0789C198.147 17.102 198.129 17.1223 198.109 17.1386C198.087 17.1551 198.063 17.1672 198.037 17.1744C198.012 17.1816 197.985 17.1836 197.958 17.1805C197.892 17.1753 197.827 17.16 197.766 17.1351L197.453 17.0328C197.304 16.9896 197.151 16.9554 196.997 16.9305C196.79 16.8988 196.581 16.8836 196.371 16.8852C195.983 16.8708 195.595 16.9332 195.232 17.0689C194.868 17.2046 194.536 17.4107 194.255 17.6752C193.634 18.3166 193.177 19.0952 192.922 19.946V27.1344H191.813Z" fill="#3C4A63"/>
<path d="M202.152 10.9141V20.8014H202.673C202.776 20.8017 202.877 20.7864 202.975 20.7561C203.094 20.7103 203.201 20.6384 203.288 20.5457L207.827 16.3237C207.904 16.2477 207.99 16.181 208.082 16.1249C208.185 16.0685 208.301 16.041 208.418 16.0454H209.375L204.384 20.6924L204.169 20.897C204.101 20.9594 204.025 21.0129 203.943 21.0562C204.056 21.1099 204.16 21.1809 204.251 21.2665L204.511 21.5335L209.728 27.1303H208.783C208.684 27.1317 208.587 27.1103 208.499 27.0679C208.404 27.0191 208.32 26.9537 208.25 26.8749L203.532 21.8584C203.432 21.7469 203.311 21.6544 203.178 21.5856C203.018 21.5284 202.849 21.5032 202.679 21.5116H202.169V27.1084H201.091V10.9141H202.152Z" fill="#3C4A63"/>
<path d="M218.491 17.4266C218.47 17.474 218.435 17.514 218.39 17.5413C218.346 17.5687 218.294 17.5822 218.242 17.5801C218.121 17.5654 218.008 17.5159 217.915 17.4379C217.748 17.3237 217.574 17.2193 217.394 17.1253C217.14 16.995 216.874 16.8903 216.6 16.8126C216.222 16.7108 215.831 16.6632 215.44 16.6711C215.06 16.6661 214.682 16.7237 214.321 16.8416C214.008 16.9435 213.716 17.0994 213.459 17.3018C213.219 17.482 213.022 17.7105 212.879 17.9722C212.749 18.2217 212.682 18.4986 212.683 18.7792C212.671 19.0909 212.767 19.3975 212.956 19.6477C213.154 19.8826 213.398 20.0758 213.673 20.216C213.994 20.3889 214.332 20.5297 214.682 20.6364L215.841 20.9944C216.228 21.112 216.614 21.2446 217.001 21.3923C217.361 21.5367 217.701 21.7278 218.01 21.9607C218.302 22.1721 218.546 22.4411 218.727 22.7507C218.917 23.0994 219.011 23.4913 219 23.8871C219.004 24.3488 218.913 24.8066 218.733 25.2329C218.559 25.6439 218.296 26.0124 217.962 26.3127C217.599 26.6313 217.176 26.8764 216.717 27.0342C216.177 27.22 215.608 27.3104 215.036 27.3011C214.331 27.3176 213.63 27.1899 212.978 26.9261C212.412 26.6841 211.89 26.3547 211.43 25.9505L211.691 25.5697C211.723 25.5156 211.766 25.4691 211.818 25.4333C211.876 25.4004 211.943 25.3847 212.009 25.3879C212.148 25.4051 212.276 25.4671 212.375 25.5642C212.557 25.7074 212.751 25.8364 212.954 25.9502C213.228 26.1076 213.518 26.2369 213.818 26.3362C214.232 26.4647 214.665 26.5243 215.099 26.5124C215.529 26.5212 215.956 26.4559 216.363 26.3194C216.7 26.206 217.009 26.0262 217.273 25.791C217.523 25.5755 217.721 25.308 217.853 25.0077C217.978 24.7047 218.041 24.3802 218.038 24.0531C218.051 23.7233 217.956 23.3983 217.766 23.1267C217.573 22.8714 217.329 22.6585 217.048 22.5017C216.729 22.3201 216.391 22.1734 216.04 22.0643L214.88 21.7063C214.493 21.5883 214.106 21.4574 213.72 21.3135C213.36 21.1818 213.021 21.002 212.711 20.7793C212.419 20.5693 212.175 20.3024 211.993 19.9951C211.803 19.6465 211.708 19.2546 211.72 18.8587C211.719 18.4654 211.808 18.077 211.98 17.7222C212.144 17.3512 212.385 17.0182 212.688 16.7447C213.03 16.4568 213.423 16.2334 213.847 16.0857C214.349 15.9158 214.877 15.8329 215.407 15.8406C216.033 15.8303 216.655 15.9304 217.245 16.1362C217.79 16.3388 218.29 16.6439 218.717 17.0345L218.491 17.4266Z" fill="#3C4A63"/>
</g>
<defs>
<clipPath id="clip0_0_1">
<rect width="1512" height="7412" fill="white" transform="translate(-830 -664)"/>
</clipPath>
</defs>
</svg>
