<svg
        xmlns="http://www.w3.org/2000/svg"
        viewBox="0 0 292.59069 61.982625"
        version="1.1"
        width="292.5907"
        height="61.982624">
  <defs
     id="defs65" />
  <title
     id="title10">ADKnowledgePortal_Logo</title>
  <path
     d="m 15.340694,33.882623 4.89,3.46 14.67,1.8 3.19,3.52 h 8.16 l 8.07,-6 4.77,-5.84 c 0,0 1,-0.2 0.67,-6.71 -0.33,-6.51 -7,-12.45 -7,-12.45 l -7.16,-7.77 -13.14,-1.19 -10.41,1.17 -12,7.77 -7.0000005,10.65 v 7.28 l 5.22,5 7.9200005,-2.9 z"
     fill="#ca4382"
     id="path12" />
  <path
     d="m 57.760694,31.552623 a 14.15,14.15 0 0 1 -9.79,2.59 8.44,8.44 0 0 1 -1.64,2.74 22.14,22.14 0 0 1 -8.31,5.8 8.13,8.13 0 0 0 8.55,2.67 7.38,7.38 0 0 0 2.88,-1.56 9.37,9.37 0 0 0 1.24,-0.31 12.32,12.32 0 0 0 8.76,-13.14 8,8 0 0 1 -1.69,1.21 z"
     fill="#e567a1"
     id="path14" />
  <path
     d="m 59.860694,19.722623 a 12.69,12.69 0 0 0 -0.46,-2.2 c 0,-0.08 -0.09,-0.15 -0.09,-0.23 a 15.09,15.09 0 0 0 -7.22,-9.09 15.72,15.72 0 0 0 -17.17,-7 c -0.24,0.09 -0.46,0.15 -0.79,0.24 h -0.08 a 14,14 0 0 0 -16.63,3.23 13.32,13.32 0 0 0 -4.28,0.48 12,12 0 0 0 -8.3100005,9.17 13.61,13.61 0 0 0 -4.57999997,13 c 1.47999997,6.58 7.69999997,11.52 16.78000047,7.67 0,0.09 0,0.09 0.08,0.16 a 9.74,9.74 0 0 1 4,-7 c -2.33,-3.29 -7.85,-9.63 -11.8900005,-7.76 a 4.08,4.08 0 0 0 -2.25,5.48 c 0.85,1.87 2.95,3.22 6.0000005,2 a 1.14,1.14 0 0 1 0.82,2.11 c -4.3400005,1.8 -7.7000005,-0.4 -8.8600005,-3.22 a 6.37,6.37 0 0 1 3.34,-8.46 5.32,5.32 0 0 1 2.8800005,-0.54 8,8 0 0 1 2.25,-5.78 c 2.33,-2.35 5.76,-2.82 7.38,-2.89 1.15,-3.46 4.43,-5.41 8.7,-5.09 a 11,11 0 0 1 5.59,2.28 16.16,16.16 0 0 1 1.7,1.48 c 2.49,-1.57 6,-2.5 9,-1.41 2,0.7 4.51,2.5 5.37,7.28 a 7.09,7.09 0 0 1 3.88,4.31 6.13,6.13 0 0 1 -1.09,5.24 c -1,1.41 -3.19,3.13 -7.46,3.29 h -0.16 c -0.08,0 -7.85,-0.79 -10.64,4.78 -0.16,0.31 -0.31,0.63 -0.46,0.87 a 6.28,6.28 0 0 1 -3.34,3 c -0.24,0.08 -0.46,0.08 -0.7,0.15 a 5.27,5.27 0 0 1 -4.13,-1.87 1.13,1.13 0 0 1 0.16,-1.57 1.11,1.11 0 0 1 1.55,0.15 3.08,3.08 0 0 0 2.13,1 c 0.94,-0.08 1.86,-1.09 2.79,-2.82 a 14.43,14.43 0 0 1 1.49,-2.18 11.64,11.64 0 0 1 6.36,-3.44 14.94,14.94 0 0 1 5,-0.31 c 3.34,-0.15 4.89,-1.33 5.68,-2.35 a 4,4 0 0 0 0.69,-3.28 c -0.54,-2.05 -3.1,-3 -3.1,-3.07 a 1,1 0 0 1 -0.69,-0.93 c -0.46,-3.29 -1.79,-5.33 -4,-6.11 -2.73,-0.94 -6.31,0.39 -8.25,2.19 a 5.57,5.57 0 0 0 -1.16,6 8.8,8.8 0 0 1 7.16,1.17 1.16,1.16 0 0 1 0.3,1.57 1.12,1.12 0 0 1 -1.55,0.3 6.91,6.91 0 0 0 -5.67,-0.69 c -0.31,0.08 -0.55,0.15 -0.78,0.23 -2.41,0.94 -3.11,2.44 -3.11,2.59 a 1.08,1.08 0 0 1 -0.61,0.7 1.32,1.32 0 0 1 -0.94,0 4.81,4.81 0 0 0 -4.82,1 4.44,4.44 0 0 0 -1.85,4.7 1.14,1.14 0 0 1 -0.55,1.33 7.48,7.48 0 0 0 -3.73,6 5.64,5.64 0 0 0 2.57,4.94 9.53,9.53 0 0 0 6.77,0.63 8.44,8.44 0 0 0 2.33,-1.09 7.24,7.24 0 0 0 4,0.78 13,13 0 0 0 4.73,-1.48 16.55,16.55 0 0 0 4.74,-3.85 5.28,5.28 0 0 0 1.55,-2.89 1.27,1.27 0 0 1 0.39,-0.87 1.29,1.29 0 0 1 0.94,-0.24 11.16,11.16 0 0 0 9,-2 6.84,6.84 0 0 0 2.86,-3.53 9.42,9.42 0 0 0 0.37,-1.23 12.35,12.35 0 0 0 0.33,-3 c -0.02,-0.58 -0.14,-1.06 -0.26,-2.03 z"
     fill="#e567a1"
     id="path16" />
  <path
     d="m 29.240694,6.312623 c -3.49,-0.24 -6,1.26 -6.61,4.15 a 1.09,1.09 0 0 1 -1.16,0.87 c -0.08,0 -4.27,-0.09 -6.61,2.28 a 5.7,5.7 0 0 0 -1.55,4.46 v 0.24 a 14.36,14.36 0 0 1 5.29,3.61 32.75,32.75 0 0 1 2.92,3.28 7.49,7.49 0 0 1 2.49,-3.45 7.1,7.1 0 0 1 6.13,-1.57 8.51,8.51 0 0 1 3.19,-2.67 7.77,7.77 0 0 1 1.55,-8.31 c -0.97,-0.93 -3.15,-2.72 -5.64,-2.89 z"
     fill="#e567a1"
     id="path18" />
  <path
     d="m 57.120694,44.432623 c 1.43,1.43 2.84,2.86 4.27,4.31 a 0.92,0.92 0 0 0 1.3,-1.29 c -1.43,-1.43 -2.85,-2.86 -4.28,-4.31 -0.83,-0.85 -2.13,0.46 -1.29,1.29 z"
     fill="#2f8e94"
     id="path20" />
  <path
     d="m 75.860694,57.082623 -4.86,4.9 -11.34,-11.42 2.38,-2.4 2.48,-2.48 z"
     fill="#fccb71"
     id="path22" />
  <path
     d="m 59.590694,35.982623 a 12.11,12.11 0 0 1 -22.9,5.5 11.76,11.76 0 0 1 -1,-2.67 12.27,12.27 0 0 1 -0.31,-2.83 12.09,12.09 0 0 1 2.83,-7.77 12.06,12.06 0 0 1 9.31,-4.34 11.94,11.94 0 0 1 5.5,1.33 12.11,12.11 0 0 1 6.5,9.46 c 0,0.45 0.07,0.89 0.07,1.32 z"
     fill="#ffffff"
     opacity="0.85"
     style="isolation:isolate"
     id="path24" />
  <path
     d="m 59.690694,35.842623 a 12.39,12.39 0 1 1 -12.39,-12.44 12.42,12.42 0 0 1 12.39,12.44 z"
     fill="none"
     stroke="#7ec8cc"
     stroke-miterlimit="10"
     stroke-width="2"
     id="path26" />
  <path
     d="m 95.180694,38.982623 h -2.29 a 1,1 0 0 1 -0.63,-0.2 1.06,1.06 0 0 1 -0.36,-0.48 l -1.19,-3.24 h -6.59 l -1.19,3.24 a 1,1 0 0 1 -0.34,0.47 1,1 0 0 1 -0.63,0.21 h -2.3 l 6.24,-15.91 h 3 z m -10.3,-6 h 5.07 l -1.93,-5.29 c -0.09,-0.24 -0.19,-0.51 -0.3,-0.83 -0.11,-0.32 -0.21,-0.67 -0.31,-1 -0.1,0.37 -0.2,0.72 -0.3,1 -0.1,0.28 -0.2,0.61 -0.29,0.85 z"
     fill="#3c4a63"
     id="path28" />
  <path
     d="m 111.05069,30.982623 a 8.73,8.73 0 0 1 -0.58,3.21 7.22,7.22 0 0 1 -4.18,4.16 8.92,8.92 0 0 1 -3.29,0.59 h -6.069996 v -15.88 h 6.069996 a 8.92,8.92 0 0 1 3.29,0.59 7.47,7.47 0 0 1 2.54,1.64 7.34,7.34 0 0 1 1.69,2.51 8.81,8.81 0 0 1 0.53,3.18 z m -3,0 a 7.21,7.21 0 0 0 -0.35,-2.35 5,5 0 0 0 -1,-1.76 4.33,4.33 0 0 0 -1.58,-1.1 5.37,5.37 0 0 0 -2.09,-0.39 h -3.089996 v 11.2 h 3.089996 a 5.56,5.56 0 0 0 2.09,-0.38 4.35,4.35 0 0 0 1.58,-1.11 5,5 0 0 0 1,-1.76 7.12,7.12 0 0 0 0.32,-2.35 z"
     fill="#3c4a63"
     id="path30" />
  <path
     d="m 120.90069,29.732623 h 0.69 a 1.71,1.71 0 0 0 0.69,-0.12 1.19,1.19 0 0 0 0.47,-0.37 l 4.39,-5.55 a 1.6,1.6 0 0 1 0.58,-0.49 1.72,1.72 0 0 1 0.76,-0.14 h 2.56 l -5.36,6.61 a 5.07,5.07 0 0 1 -0.48,0.52 2.33,2.33 0 0 1 -0.5,0.34 2.2,2.2 0 0 1 0.65,0.37 3.13,3.13 0 0 1 0.57,0.62 l 5.52,7.46 h -2.61 a 1.6,1.6 0 0 1 -0.79,-0.15 1.32,1.32 0 0 1 -0.44,-0.44 l -4.49,-5.87 a 1.35,1.35 0 0 0 -0.5,-0.41 1.8,1.8 0 0 0 -0.78,-0.13 h -0.93 v 7 h -3 v -15.93 h 3 z"
     fill="#3c4a63"
     id="path32" />
  <path
     d="m 133.15069,38.982623 v -11.3 h 1.66 a 0.66,0.66 0 0 1 0.69,0.49 l 0.19,0.89 a 7.06,7.06 0 0 1 0.72,-0.63 5.1,5.1 0 0 1 0.8,-0.5 4.67,4.67 0 0 1 0.91,-0.32 5,5 0 0 1 1.06,-0.11 4.07,4.07 0 0 1 1.64,0.32 3.27,3.27 0 0 1 1.19,0.88 3.72,3.72 0 0 1 0.72,1.35 5.56,5.56 0 0 1 0.25,1.73 v 7.2 h -2.71 v -7.2 a 2.41,2.41 0 0 0 -0.48,-1.6 1.77,1.77 0 0 0 -1.44,-0.56 2.85,2.85 0 0 0 -1.32,0.31 5,5 0 0 0 -1.16,0.87 v 8.18 z"
     fill="#3c4a63"
     id="path34" />
  <path
     d="m 150.58069,27.502623 a 6.24,6.24 0 0 1 2.3,0.41 5,5 0 0 1 1.75,1.15 5.13,5.13 0 0 1 1.12,1.83 7.49,7.49 0 0 1 0,4.83 5.26,5.26 0 0 1 -1.12,1.84 4.92,4.92 0 0 1 -1.75,1.16 6.66,6.66 0 0 1 -4.6,0 5,5 0 0 1 -1.76,-1.16 5.14,5.14 0 0 1 -1.13,-1.84 7.32,7.32 0 0 1 0,-4.83 5,5 0 0 1 1.13,-1.83 5.17,5.17 0 0 1 1.76,-1.15 6.28,6.28 0 0 1 2.3,-0.41 z m 0,9.54 a 2.38,2.38 0 0 0 2.09,-1 4.74,4.74 0 0 0 0.67,-2.77 4.8,4.8 0 0 0 -0.67,-2.78 2.38,2.38 0 0 0 -2.09,-1 2.42,2.42 0 0 0 -2.11,1 4.84,4.84 0 0 0 -0.68,2.78 4.78,4.78 0 0 0 0.68,2.77 2.44,2.44 0 0 0 2.11,1 z"
     fill="#3c4a63"
     id="path36" />
  <path
     d="m 157.01069,27.682623 h 2.15 a 0.94,0.94 0 0 1 0.52,0.14 0.6,0.6 0 0 1 0.26,0.37 l 1.62,6 c 0.09,0.33 0.16,0.66 0.22,1 0.06,0.34 0.1,0.63 0.16,0.95 0.08,-0.32 0.16,-0.63 0.25,-0.95 0.09,-0.32 0.19,-0.64 0.3,-1 l 1.86,-6 a 0.78,0.78 0 0 1 0.27,-0.36 0.81,0.81 0 0 1 0.46,-0.14 h 1.2 a 0.89,0.89 0 0 1 0.5,0.14 0.7,0.7 0 0 1 0.26,0.36 l 1.85,6.16 c 0.09,0.32 0.18,0.62 0.26,0.92 0.08,0.3 0.15,0.6 0.22,0.9 0.05,-0.32 0.11,-0.63 0.17,-0.95 0.06,-0.32 0.14,-0.64 0.24,-1 l 1.67,-6 a 0.64,0.64 0 0 1 0.26,-0.37 0.91,0.91 0 0 1 0.49,-0.14 h 2.06 l -3.58,11.27 h -2.16 c -0.23,0 -0.4,-0.17 -0.5,-0.49 l -2,-6.52 c -0.07,-0.21 -0.13,-0.43 -0.18,-0.65 -0.05,-0.22 -0.1,-0.43 -0.14,-0.64 0,0.22 -0.09,0.44 -0.14,0.66 -0.05,0.22 -0.11,0.43 -0.18,0.65 l -2,6.5 a 0.62,0.62 0 0 1 -0.6,0.49 h -2.08 z"
     fill="#3c4a63"
     id="path38" />
  <path
     d="m 178.79069,22.622623 v 16.36 h -2.72 v -16.36 z"
     fill="#3c4a63"
     id="path40" />
  <path
     d="m 186.63069,27.502623 a 5.6,5.6 0 0 1 2,0.34 4.27,4.27 0 0 1 1.55,1 4.55,4.55 0 0 1 1,1.61 6.06,6.06 0 0 1 0.36,2.17 c 0,0.2 0,0.37 0,0.51 a 0.8,0.8 0 0 1 -0.1,0.32 0.35,0.35 0 0 1 -0.2,0.16 0.67,0.67 0 0 1 -0.3,0 h -7 a 3.93,3.93 0 0 0 0.94,2.56 2.91,2.91 0 0 0 2.15,0.81 3.84,3.84 0 0 0 1.14,-0.15 5.6,5.6 0 0 0 0.84,-0.35 c 0.24,-0.12 0.45,-0.23 0.63,-0.34 a 1.06,1.06 0 0 1 0.52,-0.15 0.61,0.61 0 0 1 0.28,0.06 0.76,0.76 0 0 1 0.21,0.19 l 0.8,1 a 4.76,4.76 0 0 1 -1,0.89 5.28,5.28 0 0 1 -1.17,0.57 6.79,6.79 0 0 1 -1.24,0.3 8.69,8.69 0 0 1 -1.23,0.09 6.08,6.08 0 0 1 -2.19,-0.39 5,5 0 0 1 -1.76,-1.16 5.22,5.22 0 0 1 -1.17,-1.89 7.21,7.21 0 0 1 -0.43,-2.61 6.22,6.22 0 0 1 0.37,-2.17 5.28,5.28 0 0 1 1.07,-1.77 5.13,5.13 0 0 1 1.71,-1.2 5.67,5.67 0 0 1 2.22,-0.4 z m 0.06,1.95 a 2.48,2.48 0 0 0 -1.86,0.67 3.27,3.27 0 0 0 -0.86,1.9 h 5.1 a 3.53,3.53 0 0 0 -0.14,-1 2.31,2.31 0 0 0 -0.44,-0.82 2.24,2.24 0 0 0 -0.75,-0.56 2.62,2.62 0 0 0 -1.05,-0.19 z"
     fill="#3c4a63"
     id="path42" />
  <path
     d="m 201.78069,38.982623 a 0.68,0.68 0 0 1 -0.7,-0.5 l -0.22,-1.09 a 8.25,8.25 0 0 1 -0.73,0.72 5.68,5.68 0 0 1 -0.83,0.55 4.39,4.39 0 0 1 -1,0.35 4.33,4.33 0 0 1 -1.11,0.13 3.81,3.81 0 0 1 -1.69,-0.38 3.93,3.93 0 0 1 -1.33,-1.12 5.33,5.33 0 0 1 -0.85,-1.81 8.83,8.83 0 0 1 -0.31,-2.47 7.63,7.63 0 0 1 0.35,-2.33 5.73,5.73 0 0 1 1,-1.87 4.65,4.65 0 0 1 1.53,-1.23 4.4,4.4 0 0 1 2,-0.45 3.92,3.92 0 0 1 1.61,0.3 4.3,4.3 0 0 1 1.2,0.81 v -6 h 2.72 v 16.39 z m -3.62,-2 a 2.75,2.75 0 0 0 1.44,-0.35 4.14,4.14 0 0 0 1.12,-1 v -5.07 a 2.64,2.64 0 0 0 -1,-0.79 3,3 0 0 0 -1.17,-0.23 2.65,2.65 0 0 0 -1.11,0.23 2.13,2.13 0 0 0 -0.85,0.7 3.35,3.35 0 0 0 -0.53,1.19 6.5,6.5 0 0 0 -0.19,1.69 7.3,7.3 0 0 0 0.16,1.68 3.31,3.31 0 0 0 0.46,1.12 1.73,1.73 0 0 0 0.72,0.63 2.32,2.32 0 0 0 0.95,0.2 z"
     fill="#3c4a63"
     id="path44" />
  <path
     d="m 210.39069,27.482623 a 5.9,5.9 0 0 1 1.36,0.15 4.64,4.64 0 0 1 1.17,0.43 h 3.24 v 1 a 0.54,0.54 0 0 1 -0.13,0.39 0.79,0.79 0 0 1 -0.45,0.2 l -1,0.19 a 3.78,3.78 0 0 1 0.17,0.6 3.71,3.71 0 0 1 0.06,0.67 3.46,3.46 0 0 1 -0.33,1.52 3.58,3.58 0 0 1 -0.93,1.15 4.53,4.53 0 0 1 -1.4,0.73 5.78,5.78 0 0 1 -1.75,0.26 6.28,6.28 0 0 1 -1.24,-0.13 c -0.36,0.22 -0.53,0.46 -0.53,0.72 a 0.54,0.54 0 0 0 0.31,0.51 2.67,2.67 0 0 0 0.83,0.23 9.94,9.94 0 0 0 1.16,0.06 c 0.43,0 0.87,0 1.33,0.06 a 9.68,9.68 0 0 1 1.33,0.19 3.83,3.83 0 0 1 1.16,0.44 2.2,2.2 0 0 1 0.82,0.81 2.48,2.48 0 0 1 0.32,1.32 3,3 0 0 1 -0.37,1.45 4,4 0 0 1 -1.07,1.26 5.31,5.31 0 0 1 -1.71,0.89 7.39,7.39 0 0 1 -2.31,0.34 9.08,9.08 0 0 1 -2.23,-0.25 5.58,5.58 0 0 1 -1.57,-0.66 3,3 0 0 1 -0.93,-0.95 2.31,2.31 0 0 1 -0.31,-1.12 2,2 0 0 1 0.49,-1.34 3.36,3.36 0 0 1 1.34,-0.85 1.9,1.9 0 0 1 -0.67,-0.62 1.79,1.79 0 0 1 -0.25,-1 1.93,1.93 0 0 1 0.08,-0.52 2.27,2.27 0 0 1 0.27,-0.54 3.54,3.54 0 0 1 0.46,-0.5 3.17,3.17 0 0 1 0.65,-0.42 3.65,3.65 0 0 1 -1.36,-1.17 3.38,3.38 0 0 1 -0.49,-1.81 3.29,3.29 0 0 1 0.34,-1.51 3.24,3.24 0 0 1 0.93,-1.15 4.36,4.36 0 0 1 1.42,-0.74 6.35,6.35 0 0 1 1.79,-0.29 z m 3,12 a 0.73,0.73 0 0 0 -0.2,-0.55 1.31,1.31 0 0 0 -0.54,-0.33 3.85,3.85 0 0 0 -0.79,-0.18 c -0.31,0 -0.63,0 -1,0 h -1.06 a 4.57,4.57 0 0 1 -1,-0.12 2.35,2.35 0 0 0 -0.74,0.6 1.19,1.19 0 0 0 -0.28,0.79 1.09,1.09 0 0 0 0.15,0.56 1.18,1.18 0 0 0 0.47,0.44 2.74,2.74 0 0 0 0.84,0.3 6.6,6.6 0 0 0 1.28,-0.01 6.29,6.29 0 0 0 1.31,-0.12 3.48,3.48 0 0 0 0.9,-0.32 1.43,1.43 0 0 0 0.53,-0.5 1.22,1.22 0 0 0 0.11,-0.6 z m -3,-6.39 a 2.58,2.58 0 0 0 0.88,-0.14 1.67,1.67 0 0 0 0.62,-0.38 1.62,1.62 0 0 0 0.38,-0.58 2.27,2.27 0 0 0 0.12,-0.75 1.76,1.76 0 0 0 -0.5,-1.33 2.54,2.54 0 0 0 -3,0 1.76,1.76 0 0 0 -0.5,1.33 2.25,2.25 0 0 0 0.13,0.74 1.62,1.62 0 0 0 0.38,0.58 1.54,1.54 0 0 0 0.63,0.39 2.56,2.56 0 0 0 0.86,0.1 z"
     fill="#3c4a63"
     id="path46" />
  <path
     d="m 222.64069,27.502623 a 5.7,5.7 0 0 1 2,0.34 4.32,4.32 0 0 1 1.54,1 4.42,4.42 0 0 1 1,1.61 5.84,5.84 0 0 1 0.37,2.17 3.68,3.68 0 0 1 0,0.51 0.8,0.8 0 0 1 -0.1,0.32 0.37,0.37 0 0 1 -0.19,0.16 0.69,0.69 0 0 1 -0.31,0 h -7 a 3.93,3.93 0 0 0 0.93,2.56 2.92,2.92 0 0 0 2.16,0.81 3.84,3.84 0 0 0 1.14,-0.15 5.46,5.46 0 0 0 0.83,-0.35 c 0.24,-0.12 0.45,-0.23 0.63,-0.34 a 1.06,1.06 0 0 1 0.52,-0.15 0.65,0.65 0 0 1 0.29,0.06 0.76,0.76 0 0 1 0.21,0.19 l 0.79,1 a 4.71,4.71 0 0 1 -1,0.89 5.74,5.74 0 0 1 -1.17,0.57 6.89,6.89 0 0 1 -1.25,0.3 8.66,8.66 0 0 1 -1.22,0.09 6,6 0 0 1 -2.19,-0.39 4.87,4.87 0 0 1 -1.76,-1.16 5.38,5.38 0 0 1 -1.18,-1.89 7.21,7.21 0 0 1 -0.43,-2.61 6.23,6.23 0 0 1 0.38,-2.17 5.07,5.07 0 0 1 2.77,-3 5.67,5.67 0 0 1 2.24,-0.37 z m 0.06,1.95 a 2.51,2.51 0 0 0 -1.86,0.67 3.33,3.33 0 0 0 -0.86,1.9 h 5.11 a 3.21,3.21 0 0 0 -0.15,-1 2.17,2.17 0 0 0 -0.44,-0.82 2.05,2.05 0 0 0 -0.75,-0.56 2.62,2.62 0 0 0 -1.05,-0.19 z"
     fill="#3c4a63"
     id="path48" />
  <path
     d="m 237.42069,33.372623 v 5.61 h -3 v -15.92 h 5.18 a 9.08,9.08 0 0 1 2.76,0.37 5.2,5.2 0 0 1 1.92,1.05 4.18,4.18 0 0 1 1.13,1.6 5.7,5.7 0 0 1 0.36,2 5.59,5.59 0 0 1 -0.39,2.12 4.32,4.32 0 0 1 -1.15,1.65 5.16,5.16 0 0 1 -1.89,1.13 8.45,8.45 0 0 1 -2.7,0.39 z m 0,-2.31 h 2.22 a 4.38,4.38 0 0 0 1.42,-0.21 2.66,2.66 0 0 0 1,-0.58 2.39,2.39 0 0 0 0.59,-0.92 3.63,3.63 0 0 0 0.2,-1.22 3.23,3.23 0 0 0 -0.2,-1.15 2.24,2.24 0 0 0 -0.59,-0.88 2.63,2.63 0 0 0 -1,-0.56 4.69,4.69 0 0 0 -1.42,-0.19 h -2.22 z"
     fill="#3c4a63"
     id="path50" />
  <path
     d="m 252.52069,27.502623 a 6.24,6.24 0 0 1 2.3,0.41 5,5 0 0 1 1.75,1.15 5.13,5.13 0 0 1 1.12,1.83 7.49,7.49 0 0 1 0,4.83 5.26,5.26 0 0 1 -1.12,1.84 4.92,4.92 0 0 1 -1.75,1.16 6.66,6.66 0 0 1 -4.6,0 5,5 0 0 1 -1.7,-1.16 5.3,5.3 0 0 1 -1.14,-1.84 7.49,7.49 0 0 1 0,-4.83 5.17,5.17 0 0 1 1.14,-1.83 5.07,5.07 0 0 1 1.76,-1.15 6.28,6.28 0 0 1 2.24,-0.41 z m 0,9.54 a 2.38,2.38 0 0 0 2.09,-1 4.74,4.74 0 0 0 0.67,-2.77 4.8,4.8 0 0 0 -0.67,-2.78 2.38,2.38 0 0 0 -2.09,-1 2.42,2.42 0 0 0 -2.11,1 4.84,4.84 0 0 0 -0.68,2.78 4.78,4.78 0 0 0 0.68,2.77 2.44,2.44 0 0 0 2.11,1 z"
     fill="#3c4a63"
     id="path52" />
  <path
     d="m 260.35069,38.982623 v -11.3 h 1.6 a 0.86,0.86 0 0 1 0.58,0.15 0.93,0.93 0 0 1 0.22,0.53 l 0.16,1.37 a 5.41,5.41 0 0 1 1.42,-1.65 3,3 0 0 1 1.83,-0.61 2.42,2.42 0 0 1 1.39,0.38 l -0.36,2 a 0.42,0.42 0 0 1 -0.14,0.28 0.45,0.45 0 0 1 -0.3,0.08 1.83,1.83 0 0 1 -0.45,-0.07 3,3 0 0 0 -0.76,-0.08 2.33,2.33 0 0 0 -1.45,0.47 3.64,3.64 0 0 0 -1,1.37 v 7 z"
     fill="#3c4a63"
     id="path54" />
  <path
     d="m 273.16069,39.142623 a 3,3 0 0 1 -2.26,-0.83 3.17,3.17 0 0 1 -0.79,-2.29 v -6.31 h -1.15 a 0.5,0.5 0 0 1 -0.37,-0.14 0.53,0.53 0 0 1 -0.16,-0.43 v -1.08 l 1.81,-0.29 0.57,-3.08 a 0.53,0.53 0 0 1 0.21,-0.34 0.63,0.63 0 0 1 0.4,-0.12 h 1.41 v 3.55 h 3 v 1.93 h -3 v 6.12 a 1.2,1.2 0 0 0 0.26,0.83 0.92,0.92 0 0 0 0.7,0.29 1.35,1.35 0 0 0 0.43,-0.06 l 0.29,-0.12 0.23,-0.13 a 0.39,0.39 0 0 1 0.2,-0.06 0.34,0.34 0 0 1 0.2,0.06 1,1 0 0 1 0.16,0.18 l 0.81,1.32 a 4.1,4.1 0 0 1 -1.36,0.75 5,5 0 0 1 -1.59,0.25 z"
     fill="#3c4a63"
     id="path56" />
  <path
     d="m 286.92069,38.982623 h -1.22 a 1.29,1.29 0 0 1 -0.61,-0.12 0.72,0.72 0 0 1 -0.33,-0.47 l -0.24,-0.8 c -0.29,0.26 -0.57,0.48 -0.84,0.68 a 6.13,6.13 0 0 1 -0.86,0.49 4,4 0 0 1 -0.93,0.29 5.35,5.35 0 0 1 -1.1,0.1 4.25,4.25 0 0 1 -1.27,-0.17 2.86,2.86 0 0 1 -1,-0.58 2.66,2.66 0 0 1 -0.68,-1 3.45,3.45 0 0 1 -0.24,-1.34 2.6,2.6 0 0 1 0.34,-1.26 3.13,3.13 0 0 1 1.11,-1.13 7.31,7.31 0 0 1 2.08,-0.83 13.37,13.37 0 0 1 3.23,-0.33 v -0.67 a 2.53,2.53 0 0 0 -0.48,-1.69 1.77,1.77 0 0 0 -1.39,-0.54 3.44,3.44 0 0 0 -1.1,0.15 4,4 0 0 0 -0.77,0.35 l -0.6,0.34 a 1.22,1.22 0 0 1 -0.6,0.16 0.78,0.78 0 0 1 -0.48,-0.15 1.07,1.07 0 0 1 -0.32,-0.35 l -0.49,-0.87 a 6.7,6.7 0 0 1 4.7,-1.78 4.64,4.64 0 0 1 1.76,0.32 3.76,3.76 0 0 1 1.32,0.91 3.81,3.81 0 0 1 0.82,1.38 5.46,5.46 0 0 1 0.28,1.76 z m -5.28,-1.7 a 3.74,3.74 0 0 0 0.77,-0.07 3.68,3.68 0 0 0 0.66,-0.23 3.62,3.62 0 0 0 0.61,-0.38 5.37,5.37 0 0 0 0.59,-0.52 v -1.9 a 11,11 0 0 0 -2,0.15 5.48,5.48 0 0 0 -1.28,0.38 1.73,1.73 0 0 0 -0.69,0.55 1.22,1.22 0 0 0 -0.2,0.67 1.2,1.2 0 0 0 0.42,1 1.8,1.8 0 0 0 1.12,0.34 z"
     fill="#3c4a63"
     id="path58" />
  <path
     d="m 292.59069,22.622623 v 16.36 h -2.71 v -16.36 z"
     fill="#3c4a63"
     id="path60" />
</svg>
